<?xml version="1.0" encoding="utf-8" standalone="no"?>
<!DOCTYPE svg PUBLIC "-//W3C//DTD SVG 1.1//EN"
  "http://www.w3.org/Graphics/SVG/1.1/DTD/svg11.dtd">
<svg xmlns:xlink="http://www.w3.org/1999/xlink" width="432pt" height="288pt" viewBox="0 0 432 288" xmlns="http://www.w3.org/2000/svg" version="1.1">
 <metadata>
  <rdf:RDF xmlns:dc="http://purl.org/dc/elements/1.1/" xmlns:cc="http://creativecommons.org/ns#" xmlns:rdf="http://www.w3.org/1999/02/22-rdf-syntax-ns#">
   <cc:Work>
    <dc:type rdf:resource="http://purl.org/dc/dcmitype/StillImage"/>
    <dc:date>2022-06-08T08:57:30.908973</dc:date>
    <dc:format>image/svg+xml</dc:format>
    <dc:creator>
     <cc:Agent>
      <dc:title>Matplotlib v3.5.0, https://matplotlib.org/</dc:title>
     </cc:Agent>
    </dc:creator>
   </cc:Work>
  </rdf:RDF>
 </metadata>
 <defs>
  <style type="text/css">*{stroke-linejoin: round; stroke-linecap: butt}</style>
 </defs>
 <g id="figure_1">
  <g id="patch_1">
   <path d="M 0 288 
L 432 288 
L 432 0 
L 0 0 
L 0 288 
z
" style="fill: none"/>
  </g>
  <g id="axes_1">
   <g id="patch_2">
    <path d="M 29.08774 88.384455 
L 428.99976 88.384455 
L 428.99976 36.212595 
L 29.08774 36.212595 
z
" style="fill: #ffffff"/>
   </g>
   <g id="patch_3">
    <path d="M 47.265559 88.384455 
L 50.901123 88.384455 
L 50.901123 55.979573 
L 47.265559 55.979573 
z
" clip-path="url(#p77bfc0284b)" style="fill: #1f77b4"/>
   </g>
   <g id="patch_4">
    <path d="M 50.901123 88.384455 
L 54.536687 88.384455 
L 54.536687 58.059886 
L 50.901123 58.059886 
z
" clip-path="url(#p77bfc0284b)" style="fill: #1f77b4"/>
   </g>
   <g id="patch_5">
    <path d="M 54.536687 88.384455 
L 58.172251 88.384455 
L 58.172251 55.899561 
L 54.536687 55.899561 
z
" clip-path="url(#p77bfc0284b)" style="fill: #1f77b4"/>
   </g>
   <g id="patch_6">
    <path d="M 58.172251 88.384455 
L 61.807814 88.384455 
L 61.807814 56.699682 
L 58.172251 56.699682 
z
" clip-path="url(#p77bfc0284b)" style="fill: #1f77b4"/>
   </g>
   <g id="patch_7">
    <path d="M 61.807814 88.384455 
L 65.443378 88.384455 
L 65.443378 57.099742 
L 61.807814 57.099742 
z
" clip-path="url(#p77bfc0284b)" style="fill: #1f77b4"/>
   </g>
   <g id="patch_8">
    <path d="M 65.443378 88.384455 
L 69.078942 88.384455 
L 69.078942 53.659223 
L 65.443378 53.659223 
z
" clip-path="url(#p77bfc0284b)" style="fill: #1f77b4"/>
   </g>
   <g id="patch_9">
    <path d="M 69.078942 88.384455 
L 72.714506 88.384455 
L 72.714506 55.659525 
L 69.078942 55.659525 
z
" clip-path="url(#p77bfc0284b)" style="fill: #1f77b4"/>
   </g>
   <g id="patch_10">
    <path d="M 72.714506 88.384455 
L 76.35007 88.384455 
L 76.35007 55.019428 
L 72.714506 55.019428 
z
" clip-path="url(#p77bfc0284b)" style="fill: #1f77b4"/>
   </g>
   <g id="patch_11">
    <path d="M 76.35007 88.384455 
L 79.985633 88.384455 
L 79.985633 54.139296 
L 76.35007 54.139296 
z
" clip-path="url(#p77bfc0284b)" style="fill: #1f77b4"/>
   </g>
   <g id="patch_12">
    <path d="M 79.985633 88.384455 
L 83.621197 88.384455 
L 83.621197 55.09944 
L 79.985633 55.09944 
z
" clip-path="url(#p77bfc0284b)" style="fill: #1f77b4"/>
   </g>
   <g id="patch_13">
    <path d="M 83.621197 88.384455 
L 87.256761 88.384455 
L 87.256761 50.698777 
L 83.621197 50.698777 
z
" clip-path="url(#p77bfc0284b)" style="fill: #1f77b4"/>
   </g>
   <g id="patch_14">
    <path d="M 87.256761 88.384455 
L 90.892325 88.384455 
L 90.892325 53.259163 
L 87.256761 53.259163 
z
" clip-path="url(#p77bfc0284b)" style="fill: #1f77b4"/>
   </g>
   <g id="patch_15">
    <path d="M 90.892325 88.384455 
L 94.527889 88.384455 
L 94.527889 48.218404 
L 90.892325 48.218404 
z
" clip-path="url(#p77bfc0284b)" style="fill: #1f77b4"/>
   </g>
   <g id="patch_16">
    <path d="M 94.527889 88.384455 
L 98.163453 88.384455 
L 98.163453 52.138994 
L 94.527889 52.138994 
z
" clip-path="url(#p77bfc0284b)" style="fill: #1f77b4"/>
   </g>
   <g id="patch_17">
    <path d="M 98.163453 88.384455 
L 101.799016 88.384455 
L 101.799016 47.898356 
L 98.163453 47.898356 
z
" clip-path="url(#p77bfc0284b)" style="fill: #1f77b4"/>
   </g>
   <g id="patch_18">
    <path d="M 101.799016 88.384455 
L 105.43458 88.384455 
L 105.43458 49.098536 
L 101.799016 49.098536 
z
" clip-path="url(#p77bfc0284b)" style="fill: #1f77b4"/>
   </g>
   <g id="patch_19">
    <path d="M 105.43458 88.384455 
L 109.070144 88.384455 
L 109.070144 49.498597 
L 105.43458 49.498597 
z
" clip-path="url(#p77bfc0284b)" style="fill: #1f77b4"/>
   </g>
   <g id="patch_20">
    <path d="M 109.070144 88.384455 
L 112.705708 88.384455 
L 112.705708 48.8585 
L 109.070144 48.8585 
z
" clip-path="url(#p77bfc0284b)" style="fill: #1f77b4"/>
   </g>
   <g id="patch_21">
    <path d="M 112.705708 88.384455 
L 116.341272 88.384455 
L 116.341272 48.538452 
L 112.705708 48.538452 
z
" clip-path="url(#p77bfc0284b)" style="fill: #1f77b4"/>
   </g>
   <g id="patch_22">
    <path d="M 116.341272 88.384455 
L 119.976835 88.384455 
L 119.976835 46.858199 
L 116.341272 46.858199 
z
" clip-path="url(#p77bfc0284b)" style="fill: #1f77b4"/>
   </g>
   <g id="patch_23">
    <path d="M 119.976835 88.384455 
L 123.612399 88.384455 
L 123.612399 47.338271 
L 119.976835 47.338271 
z
" clip-path="url(#p77bfc0284b)" style="fill: #1f77b4"/>
   </g>
   <g id="patch_24">
    <path d="M 123.612399 88.384455 
L 127.247963 88.384455 
L 127.247963 44.93791 
L 123.612399 44.93791 
z
" clip-path="url(#p77bfc0284b)" style="fill: #1f77b4"/>
   </g>
   <g id="patch_25">
    <path d="M 127.247963 88.384455 
L 130.883527 88.384455 
L 130.883527 46.698175 
L 127.247963 46.698175 
z
" clip-path="url(#p77bfc0284b)" style="fill: #1f77b4"/>
   </g>
   <g id="patch_26">
    <path d="M 130.883527 88.384455 
L 134.519091 88.384455 
L 134.519091 45.73803 
L 130.883527 45.73803 
z
" clip-path="url(#p77bfc0284b)" style="fill: #1f77b4"/>
   </g>
   <g id="patch_27">
    <path d="M 134.519091 88.384455 
L 138.154655 88.384455 
L 138.154655 47.258259 
L 134.519091 47.258259 
z
" clip-path="url(#p77bfc0284b)" style="fill: #1f77b4"/>
   </g>
   <g id="patch_28">
    <path d="M 138.154655 88.384455 
L 141.790218 88.384455 
L 141.790218 45.417982 
L 138.154655 45.417982 
z
" clip-path="url(#p77bfc0284b)" style="fill: #1f77b4"/>
   </g>
   <g id="patch_29">
    <path d="M 141.790218 88.384455 
L 145.425782 88.384455 
L 145.425782 41.417379 
L 141.790218 41.417379 
z
" clip-path="url(#p77bfc0284b)" style="fill: #1f77b4"/>
   </g>
   <g id="patch_30">
    <path d="M 145.425782 88.384455 
L 149.061346 88.384455 
L 149.061346 46.458139 
L 145.425782 46.458139 
z
" clip-path="url(#p77bfc0284b)" style="fill: #1f77b4"/>
   </g>
   <g id="patch_31">
    <path d="M 149.061346 88.384455 
L 152.69691 88.384455 
L 152.69691 44.777885 
L 149.061346 44.777885 
z
" clip-path="url(#p77bfc0284b)" style="fill: #1f77b4"/>
   </g>
   <g id="patch_32">
    <path d="M 152.69691 88.384455 
L 156.332474 88.384455 
L 156.332474 43.337668 
L 152.69691 43.337668 
z
" clip-path="url(#p77bfc0284b)" style="fill: #1f77b4"/>
   </g>
   <g id="patch_33">
    <path d="M 156.332474 88.384455 
L 159.968037 88.384455 
L 159.968037 44.777885 
L 156.332474 44.777885 
z
" clip-path="url(#p77bfc0284b)" style="fill: #1f77b4"/>
   </g>
   <g id="patch_34">
    <path d="M 159.968037 88.384455 
L 163.603601 88.384455 
L 163.603601 46.058078 
L 159.968037 46.058078 
z
" clip-path="url(#p77bfc0284b)" style="fill: #1f77b4"/>
   </g>
   <g id="patch_35">
    <path d="M 163.603601 88.384455 
L 167.239165 88.384455 
L 167.239165 44.057777 
L 163.603601 44.057777 
z
" clip-path="url(#p77bfc0284b)" style="fill: #1f77b4"/>
   </g>
   <g id="patch_36">
    <path d="M 167.239165 88.384455 
L 170.874729 88.384455 
L 170.874729 40.457234 
L 167.239165 40.457234 
z
" clip-path="url(#p77bfc0284b)" style="fill: #1f77b4"/>
   </g>
   <g id="patch_37">
    <path d="M 170.874729 88.384455 
L 174.510293 88.384455 
L 174.510293 40.617259 
L 170.874729 40.617259 
z
" clip-path="url(#p77bfc0284b)" style="fill: #1f77b4"/>
   </g>
   <g id="patch_38">
    <path d="M 174.510293 88.384455 
L 178.145857 88.384455 
L 178.145857 42.537548 
L 174.510293 42.537548 
z
" clip-path="url(#p77bfc0284b)" style="fill: #1f77b4"/>
   </g>
   <g id="patch_39">
    <path d="M 178.145857 88.384455 
L 181.78142 88.384455 
L 181.78142 46.298114 
L 178.145857 46.298114 
z
" clip-path="url(#p77bfc0284b)" style="fill: #1f77b4"/>
   </g>
   <g id="patch_40">
    <path d="M 181.78142 88.384455 
L 185.416984 88.384455 
L 185.416984 43.01762 
L 181.78142 43.01762 
z
" clip-path="url(#p77bfc0284b)" style="fill: #1f77b4"/>
   </g>
   <g id="patch_41">
    <path d="M 185.416984 88.384455 
L 189.052548 88.384455 
L 189.052548 43.737729 
L 185.416984 43.737729 
z
" clip-path="url(#p77bfc0284b)" style="fill: #1f77b4"/>
   </g>
   <g id="patch_42">
    <path d="M 189.052548 88.384455 
L 192.688112 88.384455 
L 192.688112 43.897753 
L 189.052548 43.897753 
z
" clip-path="url(#p77bfc0284b)" style="fill: #1f77b4"/>
   </g>
   <g id="patch_43">
    <path d="M 192.688112 88.384455 
L 196.323676 88.384455 
L 196.323676 41.977464 
L 192.688112 41.977464 
z
" clip-path="url(#p77bfc0284b)" style="fill: #1f77b4"/>
   </g>
   <g id="patch_44">
    <path d="M 196.323676 88.384455 
L 199.959239 88.384455 
L 199.959239 38.696969 
L 196.323676 38.696969 
z
" clip-path="url(#p77bfc0284b)" style="fill: #1f77b4"/>
   </g>
   <g id="patch_45">
    <path d="M 199.959239 88.384455 
L 203.594803 88.384455 
L 203.594803 39.817138 
L 199.959239 39.817138 
z
" clip-path="url(#p77bfc0284b)" style="fill: #1f77b4"/>
   </g>
   <g id="patch_46">
    <path d="M 203.594803 88.384455 
L 207.230367 88.384455 
L 207.230367 42.537548 
L 203.594803 42.537548 
z
" clip-path="url(#p77bfc0284b)" style="fill: #1f77b4"/>
   </g>
   <g id="patch_47">
    <path d="M 207.230367 88.384455 
L 210.865931 88.384455 
L 210.865931 42.537548 
L 207.230367 42.537548 
z
" clip-path="url(#p77bfc0284b)" style="fill: #1f77b4"/>
   </g>
   <g id="patch_48">
    <path d="M 210.865931 88.384455 
L 214.501495 88.384455 
L 214.501495 41.017319 
L 210.865931 41.017319 
z
" clip-path="url(#p77bfc0284b)" style="fill: #1f77b4"/>
   </g>
   <g id="patch_49">
    <path d="M 214.501495 88.384455 
L 218.137059 88.384455 
L 218.137059 43.497693 
L 214.501495 43.497693 
z
" clip-path="url(#p77bfc0284b)" style="fill: #1f77b4"/>
   </g>
   <g id="patch_50">
    <path d="M 218.137059 88.384455 
L 221.772622 88.384455 
L 221.772622 39.417078 
L 218.137059 39.417078 
z
" clip-path="url(#p77bfc0284b)" style="fill: #1f77b4"/>
   </g>
   <g id="patch_51">
    <path d="M 221.772622 88.384455 
L 225.408186 88.384455 
L 225.408186 41.737427 
L 221.772622 41.737427 
z
" clip-path="url(#p77bfc0284b)" style="fill: #1f77b4"/>
   </g>
   <g id="patch_52">
    <path d="M 225.408186 88.384455 
L 229.04375 88.384455 
L 229.04375 40.937307 
L 225.408186 40.937307 
z
" clip-path="url(#p77bfc0284b)" style="fill: #1f77b4"/>
   </g>
   <g id="patch_53">
    <path d="M 229.04375 88.384455 
L 232.679314 88.384455 
L 232.679314 42.937608 
L 229.04375 42.937608 
z
" clip-path="url(#p77bfc0284b)" style="fill: #1f77b4"/>
   </g>
   <g id="patch_54">
    <path d="M 232.679314 88.384455 
L 236.314878 88.384455 
L 236.314878 44.457837 
L 232.679314 44.457837 
z
" clip-path="url(#p77bfc0284b)" style="fill: #1f77b4"/>
   </g>
   <g id="patch_55">
    <path d="M 236.314878 88.384455 
L 239.950441 88.384455 
L 239.950441 45.417982 
L 236.314878 45.417982 
z
" clip-path="url(#p77bfc0284b)" style="fill: #1f77b4"/>
   </g>
   <g id="patch_56">
    <path d="M 239.950441 88.384455 
L 243.586005 88.384455 
L 243.586005 44.057777 
L 239.950441 44.057777 
z
" clip-path="url(#p77bfc0284b)" style="fill: #1f77b4"/>
   </g>
   <g id="patch_57">
    <path d="M 243.586005 88.384455 
L 247.221569 88.384455 
L 247.221569 44.137789 
L 243.586005 44.137789 
z
" clip-path="url(#p77bfc0284b)" style="fill: #1f77b4"/>
   </g>
   <g id="patch_58">
    <path d="M 247.221569 88.384455 
L 250.857133 88.384455 
L 250.857133 43.657717 
L 247.221569 43.657717 
z
" clip-path="url(#p77bfc0284b)" style="fill: #1f77b4"/>
   </g>
   <g id="patch_59">
    <path d="M 250.857133 88.384455 
L 254.492697 88.384455 
L 254.492697 44.297813 
L 250.857133 44.297813 
z
" clip-path="url(#p77bfc0284b)" style="fill: #1f77b4"/>
   </g>
   <g id="patch_60">
    <path d="M 254.492697 88.384455 
L 258.128261 88.384455 
L 258.128261 43.41768 
L 254.492697 43.41768 
z
" clip-path="url(#p77bfc0284b)" style="fill: #1f77b4"/>
   </g>
   <g id="patch_61">
    <path d="M 258.128261 88.384455 
L 261.763824 88.384455 
L 261.763824 45.177946 
L 258.128261 45.177946 
z
" clip-path="url(#p77bfc0284b)" style="fill: #1f77b4"/>
   </g>
   <g id="patch_62">
    <path d="M 261.763824 88.384455 
L 265.399388 88.384455 
L 265.399388 44.137789 
L 261.763824 44.137789 
z
" clip-path="url(#p77bfc0284b)" style="fill: #1f77b4"/>
   </g>
   <g id="patch_63">
    <path d="M 265.399388 88.384455 
L 269.034952 88.384455 
L 269.034952 45.417982 
L 265.399388 45.417982 
z
" clip-path="url(#p77bfc0284b)" style="fill: #1f77b4"/>
   </g>
   <g id="patch_64">
    <path d="M 269.034952 88.384455 
L 272.670516 88.384455 
L 272.670516 44.217801 
L 269.034952 44.217801 
z
" clip-path="url(#p77bfc0284b)" style="fill: #1f77b4"/>
   </g>
   <g id="patch_65">
    <path d="M 272.670516 88.384455 
L 276.30608 88.384455 
L 276.30608 42.61756 
L 272.670516 42.61756 
z
" clip-path="url(#p77bfc0284b)" style="fill: #1f77b4"/>
   </g>
   <g id="patch_66">
    <path d="M 276.30608 88.384455 
L 279.941643 88.384455 
L 279.941643 44.457837 
L 276.30608 44.457837 
z
" clip-path="url(#p77bfc0284b)" style="fill: #1f77b4"/>
   </g>
   <g id="patch_67">
    <path d="M 279.941643 88.384455 
L 283.577207 88.384455 
L 283.577207 47.018223 
L 279.941643 47.018223 
z
" clip-path="url(#p77bfc0284b)" style="fill: #1f77b4"/>
   </g>
   <g id="patch_68">
    <path d="M 283.577207 88.384455 
L 287.212771 88.384455 
L 287.212771 46.778187 
L 283.577207 46.778187 
z
" clip-path="url(#p77bfc0284b)" style="fill: #1f77b4"/>
   </g>
   <g id="patch_69">
    <path d="M 287.212771 88.384455 
L 290.848335 88.384455 
L 290.848335 43.817741 
L 287.212771 43.817741 
z
" clip-path="url(#p77bfc0284b)" style="fill: #1f77b4"/>
   </g>
   <g id="patch_70">
    <path d="M 290.848335 88.384455 
L 294.483899 88.384455 
L 294.483899 44.297813 
L 290.848335 44.297813 
z
" clip-path="url(#p77bfc0284b)" style="fill: #1f77b4"/>
   </g>
   <g id="patch_71">
    <path d="M 294.483899 88.384455 
L 298.119463 88.384455 
L 298.119463 44.297813 
L 294.483899 44.297813 
z
" clip-path="url(#p77bfc0284b)" style="fill: #1f77b4"/>
   </g>
   <g id="patch_72">
    <path d="M 298.119463 88.384455 
L 301.755026 88.384455 
L 301.755026 45.898054 
L 298.119463 45.898054 
z
" clip-path="url(#p77bfc0284b)" style="fill: #1f77b4"/>
   </g>
   <g id="patch_73">
    <path d="M 301.755026 88.384455 
L 305.39059 88.384455 
L 305.39059 50.298717 
L 301.755026 50.298717 
z
" clip-path="url(#p77bfc0284b)" style="fill: #1f77b4"/>
   </g>
   <g id="patch_74">
    <path d="M 305.39059 88.384455 
L 309.026154 88.384455 
L 309.026154 45.177946 
L 305.39059 45.177946 
z
" clip-path="url(#p77bfc0284b)" style="fill: #1f77b4"/>
   </g>
   <g id="patch_75">
    <path d="M 309.026154 88.384455 
L 312.661718 88.384455 
L 312.661718 48.538452 
L 309.026154 48.538452 
z
" clip-path="url(#p77bfc0284b)" style="fill: #1f77b4"/>
   </g>
   <g id="patch_76">
    <path d="M 312.661718 88.384455 
L 316.297282 88.384455 
L 316.297282 48.218404 
L 312.661718 48.218404 
z
" clip-path="url(#p77bfc0284b)" style="fill: #1f77b4"/>
   </g>
   <g id="patch_77">
    <path d="M 316.297282 88.384455 
L 319.932845 88.384455 
L 319.932845 48.938512 
L 316.297282 48.938512 
z
" clip-path="url(#p77bfc0284b)" style="fill: #1f77b4"/>
   </g>
   <g id="patch_78">
    <path d="M 319.932845 88.384455 
L 323.568409 88.384455 
L 323.568409 48.05838 
L 319.932845 48.05838 
z
" clip-path="url(#p77bfc0284b)" style="fill: #1f77b4"/>
   </g>
   <g id="patch_79">
    <path d="M 323.568409 88.384455 
L 327.203973 88.384455 
L 327.203973 49.498597 
L 323.568409 49.498597 
z
" clip-path="url(#p77bfc0284b)" style="fill: #1f77b4"/>
   </g>
   <g id="patch_80">
    <path d="M 327.203973 88.384455 
L 330.839537 88.384455 
L 330.839537 49.978669 
L 327.203973 49.978669 
z
" clip-path="url(#p77bfc0284b)" style="fill: #1f77b4"/>
   </g>
   <g id="patch_81">
    <path d="M 330.839537 88.384455 
L 334.475101 88.384455 
L 334.475101 47.738331 
L 330.839537 47.738331 
z
" clip-path="url(#p77bfc0284b)" style="fill: #1f77b4"/>
   </g>
   <g id="patch_82">
    <path d="M 334.475101 88.384455 
L 338.110665 88.384455 
L 338.110665 50.458741 
L 334.475101 50.458741 
z
" clip-path="url(#p77bfc0284b)" style="fill: #1f77b4"/>
   </g>
   <g id="patch_83">
    <path d="M 338.110665 88.384455 
L 341.746228 88.384455 
L 341.746228 47.178247 
L 338.110665 47.178247 
z
" clip-path="url(#p77bfc0284b)" style="fill: #1f77b4"/>
   </g>
   <g id="patch_84">
    <path d="M 341.746228 88.384455 
L 345.381792 88.384455 
L 345.381792 51.018826 
L 341.746228 51.018826 
z
" clip-path="url(#p77bfc0284b)" style="fill: #1f77b4"/>
   </g>
   <g id="patch_85">
    <path d="M 345.381792 88.384455 
L 349.017356 88.384455 
L 349.017356 51.818946 
L 345.381792 51.818946 
z
" clip-path="url(#p77bfc0284b)" style="fill: #1f77b4"/>
   </g>
   <g id="patch_86">
    <path d="M 349.017356 88.384455 
L 352.65292 88.384455 
L 352.65292 49.018524 
L 349.017356 49.018524 
z
" clip-path="url(#p77bfc0284b)" style="fill: #1f77b4"/>
   </g>
   <g id="patch_87">
    <path d="M 352.65292 88.384455 
L 356.288484 88.384455 
L 356.288484 49.418585 
L 352.65292 49.418585 
z
" clip-path="url(#p77bfc0284b)" style="fill: #1f77b4"/>
   </g>
   <g id="patch_88">
    <path d="M 356.288484 88.384455 
L 359.924047 88.384455 
L 359.924047 53.099139 
L 356.288484 53.099139 
z
" clip-path="url(#p77bfc0284b)" style="fill: #1f77b4"/>
   </g>
   <g id="patch_89">
    <path d="M 359.924047 88.384455 
L 363.559611 88.384455 
L 363.559611 52.058982 
L 359.924047 52.058982 
z
" clip-path="url(#p77bfc0284b)" style="fill: #1f77b4"/>
   </g>
   <g id="patch_90">
    <path d="M 363.559611 88.384455 
L 367.195175 88.384455 
L 367.195175 53.579211 
L 363.559611 53.579211 
z
" clip-path="url(#p77bfc0284b)" style="fill: #1f77b4"/>
   </g>
   <g id="patch_91">
    <path d="M 367.195175 88.384455 
L 370.830739 88.384455 
L 370.830739 53.579211 
L 367.195175 53.579211 
z
" clip-path="url(#p77bfc0284b)" style="fill: #1f77b4"/>
   </g>
   <g id="patch_92">
    <path d="M 370.830739 88.384455 
L 374.466303 88.384455 
L 374.466303 59.500103 
L 370.830739 59.500103 
z
" clip-path="url(#p77bfc0284b)" style="fill: #1f77b4"/>
   </g>
   <g id="patch_93">
    <path d="M 374.466303 88.384455 
L 378.101867 88.384455 
L 378.101867 56.459645 
L 374.466303 56.459645 
z
" clip-path="url(#p77bfc0284b)" style="fill: #1f77b4"/>
   </g>
   <g id="patch_94">
    <path d="M 378.101867 88.384455 
L 381.73743 88.384455 
L 381.73743 59.020031 
L 378.101867 59.020031 
z
" clip-path="url(#p77bfc0284b)" style="fill: #1f77b4"/>
   </g>
   <g id="patch_95">
    <path d="M 381.73743 88.384455 
L 385.372994 88.384455 
L 385.372994 57.979874 
L 381.73743 57.979874 
z
" clip-path="url(#p77bfc0284b)" style="fill: #1f77b4"/>
   </g>
   <g id="patch_96">
    <path d="M 385.372994 88.384455 
L 389.008558 88.384455 
L 389.008558 57.499802 
L 385.372994 57.499802 
z
" clip-path="url(#p77bfc0284b)" style="fill: #1f77b4"/>
   </g>
   <g id="patch_97">
    <path d="M 389.008558 88.384455 
L 392.644122 88.384455 
L 392.644122 57.499802 
L 389.008558 57.499802 
z
" clip-path="url(#p77bfc0284b)" style="fill: #1f77b4"/>
   </g>
   <g id="patch_98">
    <path d="M 392.644122 88.384455 
L 396.279686 88.384455 
L 396.279686 60.300224 
L 392.644122 60.300224 
z
" clip-path="url(#p77bfc0284b)" style="fill: #1f77b4"/>
   </g>
   <g id="patch_99">
    <path d="M 396.279686 88.384455 
L 399.915249 88.384455 
L 399.915249 60.220212 
L 396.279686 60.220212 
z
" clip-path="url(#p77bfc0284b)" style="fill: #1f77b4"/>
   </g>
   <g id="patch_100">
    <path d="M 399.915249 88.384455 
L 403.550813 88.384455 
L 403.550813 64.780899 
L 399.915249 64.780899 
z
" clip-path="url(#p77bfc0284b)" style="fill: #1f77b4"/>
   </g>
   <g id="patch_101">
    <path d="M 403.550813 88.384455 
L 407.186377 88.384455 
L 407.186377 61.100344 
L 403.550813 61.100344 
z
" clip-path="url(#p77bfc0284b)" style="fill: #1f77b4"/>
   </g>
   <g id="patch_102">
    <path d="M 407.186377 88.384455 
L 410.821941 88.384455 
L 410.821941 61.340381 
L 407.186377 61.340381 
z
" clip-path="url(#p77bfc0284b)" style="fill: #1f77b4"/>
   </g>
   <g id="matplotlib.axis_1">
    <g id="xtick_1">
     <g id="line2d_1">
      <defs>
       <path id="mfc5df9f0f9" d="M 0 0 
L 0 3.5 
" style="stroke: #000000; stroke-width: 0.8"/>
      </defs>
      <g>
       <use xlink:href="#mfc5df9f0f9" x="47.239598" y="88.384455" style="stroke: #000000; stroke-width: 0.8"/>
      </g>
     </g>
     <g id="text_1">
      <!-- −10000 -->
      <g transform="translate(27.143505 102.982892)scale(0.1 -0.1)">
       <defs>
        <path id="DejaVuSans-2212" d="M 678 2272 
L 4684 2272 
L 4684 1741 
L 678 1741 
L 678 2272 
z
" transform="scale(0.015625)"/>
        <path id="DejaVuSans-31" d="M 794 531 
L 1825 531 
L 1825 4091 
L 703 3866 
L 703 4441 
L 1819 4666 
L 2450 4666 
L 2450 531 
L 3481 531 
L 3481 0 
L 794 0 
L 794 531 
z
" transform="scale(0.015625)"/>
        <path id="DejaVuSans-30" d="M 2034 4250 
Q 1547 4250 1301 3770 
Q 1056 3291 1056 2328 
Q 1056 1369 1301 889 
Q 1547 409 2034 409 
Q 2525 409 2770 889 
Q 3016 1369 3016 2328 
Q 3016 3291 2770 3770 
Q 2525 4250 2034 4250 
z
M 2034 4750 
Q 2819 4750 3233 4129 
Q 3647 3509 3647 2328 
Q 3647 1150 3233 529 
Q 2819 -91 2034 -91 
Q 1250 -91 836 529 
Q 422 1150 422 2328 
Q 422 3509 836 4129 
Q 1250 4750 2034 4750 
z
" transform="scale(0.015625)"/>
       </defs>
       <use xlink:href="#DejaVuSans-2212"/>
       <use xlink:href="#DejaVuSans-31" x="83.789062"/>
       <use xlink:href="#DejaVuSans-30" x="147.412109"/>
       <use xlink:href="#DejaVuSans-30" x="211.035156"/>
       <use xlink:href="#DejaVuSans-30" x="274.658203"/>
       <use xlink:href="#DejaVuSans-30" x="338.28125"/>
      </g>
     </g>
    </g>
    <g id="xtick_2">
     <g id="line2d_2">
      <g>
       <use xlink:href="#mfc5df9f0f9" x="92.688656" y="88.384455" style="stroke: #000000; stroke-width: 0.8"/>
      </g>
     </g>
     <g id="text_2">
      <!-- −7500 -->
      <g transform="translate(75.773813 102.982892)scale(0.1 -0.1)">
       <defs>
        <path id="DejaVuSans-37" d="M 525 4666 
L 3525 4666 
L 3525 4397 
L 1831 0 
L 1172 0 
L 2766 4134 
L 525 4134 
L 525 4666 
z
" transform="scale(0.015625)"/>
        <path id="DejaVuSans-35" d="M 691 4666 
L 3169 4666 
L 3169 4134 
L 1269 4134 
L 1269 2991 
Q 1406 3038 1543 3061 
Q 1681 3084 1819 3084 
Q 2600 3084 3056 2656 
Q 3513 2228 3513 1497 
Q 3513 744 3044 326 
Q 2575 -91 1722 -91 
Q 1428 -91 1123 -41 
Q 819 9 494 109 
L 494 744 
Q 775 591 1075 516 
Q 1375 441 1709 441 
Q 2250 441 2565 725 
Q 2881 1009 2881 1497 
Q 2881 1984 2565 2268 
Q 2250 2553 1709 2553 
Q 1456 2553 1204 2497 
Q 953 2441 691 2322 
L 691 4666 
z
" transform="scale(0.015625)"/>
       </defs>
       <use xlink:href="#DejaVuSans-2212"/>
       <use xlink:href="#DejaVuSans-37" x="83.789062"/>
       <use xlink:href="#DejaVuSans-35" x="147.412109"/>
       <use xlink:href="#DejaVuSans-30" x="211.035156"/>
       <use xlink:href="#DejaVuSans-30" x="274.658203"/>
      </g>
     </g>
    </g>
    <g id="xtick_3">
     <g id="line2d_3">
      <g>
       <use xlink:href="#mfc5df9f0f9" x="138.137714" y="88.384455" style="stroke: #000000; stroke-width: 0.8"/>
      </g>
     </g>
     <g id="text_3">
      <!-- −5000 -->
      <g transform="translate(121.22287 102.982892)scale(0.1 -0.1)">
       <use xlink:href="#DejaVuSans-2212"/>
       <use xlink:href="#DejaVuSans-35" x="83.789062"/>
       <use xlink:href="#DejaVuSans-30" x="147.412109"/>
       <use xlink:href="#DejaVuSans-30" x="211.035156"/>
       <use xlink:href="#DejaVuSans-30" x="274.658203"/>
      </g>
     </g>
    </g>
    <g id="xtick_4">
     <g id="line2d_4">
      <g>
       <use xlink:href="#mfc5df9f0f9" x="183.586772" y="88.384455" style="stroke: #000000; stroke-width: 0.8"/>
      </g>
     </g>
     <g id="text_4">
      <!-- −2500 -->
      <g transform="translate(166.671928 102.982892)scale(0.1 -0.1)">
       <defs>
        <path id="DejaVuSans-32" d="M 1228 531 
L 3431 531 
L 3431 0 
L 469 0 
L 469 531 
Q 828 903 1448 1529 
Q 2069 2156 2228 2338 
Q 2531 2678 2651 2914 
Q 2772 3150 2772 3378 
Q 2772 3750 2511 3984 
Q 2250 4219 1831 4219 
Q 1534 4219 1204 4116 
Q 875 4013 500 3803 
L 500 4441 
Q 881 4594 1212 4672 
Q 1544 4750 1819 4750 
Q 2544 4750 2975 4387 
Q 3406 4025 3406 3419 
Q 3406 3131 3298 2873 
Q 3191 2616 2906 2266 
Q 2828 2175 2409 1742 
Q 1991 1309 1228 531 
z
" transform="scale(0.015625)"/>
       </defs>
       <use xlink:href="#DejaVuSans-2212"/>
       <use xlink:href="#DejaVuSans-32" x="83.789062"/>
       <use xlink:href="#DejaVuSans-35" x="147.412109"/>
       <use xlink:href="#DejaVuSans-30" x="211.035156"/>
       <use xlink:href="#DejaVuSans-30" x="274.658203"/>
      </g>
     </g>
    </g>
    <g id="xtick_5">
     <g id="line2d_5">
      <g>
       <use xlink:href="#mfc5df9f0f9" x="229.03583" y="88.384455" style="stroke: #000000; stroke-width: 0.8"/>
      </g>
     </g>
     <g id="text_5">
      <!-- 0 -->
      <g transform="translate(225.85458 102.982892)scale(0.1 -0.1)">
       <use xlink:href="#DejaVuSans-30"/>
      </g>
     </g>
    </g>
    <g id="xtick_6">
     <g id="line2d_6">
      <g>
       <use xlink:href="#mfc5df9f0f9" x="274.484888" y="88.384455" style="stroke: #000000; stroke-width: 0.8"/>
      </g>
     </g>
     <g id="text_6">
      <!-- 2500 -->
      <g transform="translate(261.759888 102.982892)scale(0.1 -0.1)">
       <use xlink:href="#DejaVuSans-32"/>
       <use xlink:href="#DejaVuSans-35" x="63.623047"/>
       <use xlink:href="#DejaVuSans-30" x="127.246094"/>
       <use xlink:href="#DejaVuSans-30" x="190.869141"/>
      </g>
     </g>
    </g>
    <g id="xtick_7">
     <g id="line2d_7">
      <g>
       <use xlink:href="#mfc5df9f0f9" x="319.933946" y="88.384455" style="stroke: #000000; stroke-width: 0.8"/>
      </g>
     </g>
     <g id="text_7">
      <!-- 5000 -->
      <g transform="translate(307.208946 102.982892)scale(0.1 -0.1)">
       <use xlink:href="#DejaVuSans-35"/>
       <use xlink:href="#DejaVuSans-30" x="63.623047"/>
       <use xlink:href="#DejaVuSans-30" x="127.246094"/>
       <use xlink:href="#DejaVuSans-30" x="190.869141"/>
      </g>
     </g>
    </g>
    <g id="xtick_8">
     <g id="line2d_8">
      <g>
       <use xlink:href="#mfc5df9f0f9" x="365.383004" y="88.384455" style="stroke: #000000; stroke-width: 0.8"/>
      </g>
     </g>
     <g id="text_8">
      <!-- 7500 -->
      <g transform="translate(352.658004 102.982892)scale(0.1 -0.1)">
       <use xlink:href="#DejaVuSans-37"/>
       <use xlink:href="#DejaVuSans-35" x="63.623047"/>
       <use xlink:href="#DejaVuSans-30" x="127.246094"/>
       <use xlink:href="#DejaVuSans-30" x="190.869141"/>
      </g>
     </g>
    </g>
    <g id="xtick_9">
     <g id="line2d_9">
      <g>
       <use xlink:href="#mfc5df9f0f9" x="410.832062" y="88.384455" style="stroke: #000000; stroke-width: 0.8"/>
      </g>
     </g>
     <g id="text_9">
      <!-- 10000 -->
      <g transform="translate(394.925812 102.982892)scale(0.1 -0.1)">
       <use xlink:href="#DejaVuSans-31"/>
       <use xlink:href="#DejaVuSans-30" x="63.623047"/>
       <use xlink:href="#DejaVuSans-30" x="127.246094"/>
       <use xlink:href="#DejaVuSans-30" x="190.869141"/>
       <use xlink:href="#DejaVuSans-30" x="254.492188"/>
      </g>
     </g>
    </g>
   </g>
   <g id="matplotlib.axis_2">
    <g id="ytick_1">
     <g id="line2d_10">
      <defs>
       <path id="m03076dde8c" d="M 0 0 
L -3.5 0 
" style="stroke: #000000; stroke-width: 0.8"/>
      </defs>
      <g>
       <use xlink:href="#m03076dde8c" x="29.08774" y="88.384455" style="stroke: #000000; stroke-width: 0.8"/>
      </g>
     </g>
     <g id="text_10">
      <!-- 0 -->
      <g transform="translate(15.72524 92.183674)scale(0.1 -0.1)">
       <use xlink:href="#DejaVuSans-30"/>
      </g>
     </g>
    </g>
    <g id="ytick_2">
     <g id="line2d_11">
      <g>
       <use xlink:href="#m03076dde8c" x="29.08774" y="48.378428" style="stroke: #000000; stroke-width: 0.8"/>
      </g>
     </g>
     <g id="text_11">
      <!-- 500 -->
      <g transform="translate(3.00024 52.177647)scale(0.1 -0.1)">
       <use xlink:href="#DejaVuSans-35"/>
       <use xlink:href="#DejaVuSans-30" x="63.623047"/>
       <use xlink:href="#DejaVuSans-30" x="127.246094"/>
      </g>
     </g>
    </g>
   </g>
   <g id="patch_103">
    <path d="M 29.08774 88.384455 
L 29.08774 36.212595 
" style="fill: none; stroke: #000000; stroke-width: 0.8; stroke-linejoin: miter; stroke-linecap: square"/>
   </g>
   <g id="patch_104">
    <path d="M 428.99976 88.384455 
L 428.99976 36.212595 
" style="fill: none; stroke: #000000; stroke-width: 0.8; stroke-linejoin: miter; stroke-linecap: square"/>
   </g>
   <g id="patch_105">
    <path d="M 29.08774 88.384455 
L 428.99976 88.384455 
" style="fill: none; stroke: #000000; stroke-width: 0.8; stroke-linejoin: miter; stroke-linecap: square"/>
   </g>
   <g id="patch_106">
    <path d="M 29.08774 36.212595 
L 428.99976 36.212595 
" style="fill: none; stroke: #000000; stroke-width: 0.8; stroke-linejoin: miter; stroke-linecap: square"/>
   </g>
   <g id="text_12">
    <!-- $A_t$ -->
    <g transform="translate(223.10375 30.212595)scale(0.12 -0.12)">
     <defs>
      <path id="DejaVuSans-Oblique-41" d="M 2356 4666 
L 3072 4666 
L 3938 0 
L 3278 0 
L 3084 1197 
L 984 1197 
L 325 0 
L -341 0 
L 2356 4666 
z
M 2584 4044 
L 1275 1722 
L 2988 1722 
L 2584 4044 
z
" transform="scale(0.015625)"/>
      <path id="DejaVuSans-Oblique-74" d="M 2706 3500 
L 2619 3053 
L 1472 3053 
L 1100 1153 
Q 1081 1047 1072 975 
Q 1063 903 1063 863 
Q 1063 663 1183 572 
Q 1303 481 1569 481 
L 2150 481 
L 2053 0 
L 1503 0 
Q 991 0 739 200 
Q 488 400 488 806 
Q 488 878 497 964 
Q 506 1050 525 1153 
L 897 3053 
L 409 3053 
L 500 3500 
L 978 3500 
L 1172 4494 
L 1747 4494 
L 1556 3500 
L 2706 3500 
z
" transform="scale(0.015625)"/>
     </defs>
     <use xlink:href="#DejaVuSans-Oblique-41" transform="translate(0 0.09375)"/>
     <use xlink:href="#DejaVuSans-Oblique-74" transform="translate(68.408203 -16.3125)scale(0.7)"/>
    </g>
   </g>
  </g>
  <g id="axes_2">
   <g id="patch_107">
    <path d="M 29.08774 178.353045 
L 428.99976 178.353045 
L 428.99976 126.181185 
L 29.08774 126.181185 
z
" style="fill: #ffffff"/>
   </g>
   <g id="patch_108">
    <path d="M 47.265559 178.353045 
L 50.901123 178.353045 
L 50.901123 142.187596 
L 47.265559 142.187596 
z
" clip-path="url(#p2fbbf55760)" style="fill: #1f77b4"/>
   </g>
   <g id="patch_109">
    <path d="M 50.901123 178.353045 
L 54.536687 178.353045 
L 54.536687 143.227753 
L 50.901123 143.227753 
z
" clip-path="url(#p2fbbf55760)" style="fill: #1f77b4"/>
   </g>
   <g id="patch_110">
    <path d="M 54.536687 178.353045 
L 58.172251 178.353045 
L 58.172251 141.467488 
L 54.536687 141.467488 
z
" clip-path="url(#p2fbbf55760)" style="fill: #1f77b4"/>
   </g>
   <g id="patch_111">
    <path d="M 58.172251 178.353045 
L 61.807814 178.353045 
L 61.807814 140.427331 
L 58.172251 140.427331 
z
" clip-path="url(#p2fbbf55760)" style="fill: #1f77b4"/>
   </g>
   <g id="patch_112">
    <path d="M 61.807814 178.353045 
L 65.443378 178.353045 
L 65.443378 138.42703 
L 61.807814 138.42703 
z
" clip-path="url(#p2fbbf55760)" style="fill: #1f77b4"/>
   </g>
   <g id="patch_113">
    <path d="M 65.443378 178.353045 
L 69.078942 178.353045 
L 69.078942 141.467488 
L 65.443378 141.467488 
z
" clip-path="url(#p2fbbf55760)" style="fill: #1f77b4"/>
   </g>
   <g id="patch_114">
    <path d="M 69.078942 178.353045 
L 72.714506 178.353045 
L 72.714506 141.227452 
L 69.078942 141.227452 
z
" clip-path="url(#p2fbbf55760)" style="fill: #1f77b4"/>
   </g>
   <g id="patch_115">
    <path d="M 72.714506 178.353045 
L 76.35007 178.353045 
L 76.35007 142.667669 
L 72.714506 142.667669 
z
" clip-path="url(#p2fbbf55760)" style="fill: #1f77b4"/>
   </g>
   <g id="patch_116">
    <path d="M 76.35007 178.353045 
L 79.985633 178.353045 
L 79.985633 144.347922 
L 76.35007 144.347922 
z
" clip-path="url(#p2fbbf55760)" style="fill: #1f77b4"/>
   </g>
   <g id="patch_117">
    <path d="M 79.985633 178.353045 
L 83.621197 178.353045 
L 83.621197 141.94756 
L 79.985633 141.94756 
z
" clip-path="url(#p2fbbf55760)" style="fill: #1f77b4"/>
   </g>
   <g id="patch_118">
    <path d="M 83.621197 178.353045 
L 87.256761 178.353045 
L 87.256761 143.387777 
L 83.621197 143.387777 
z
" clip-path="url(#p2fbbf55760)" style="fill: #1f77b4"/>
   </g>
   <g id="patch_119">
    <path d="M 87.256761 178.353045 
L 90.892325 178.353045 
L 90.892325 142.187596 
L 87.256761 142.187596 
z
" clip-path="url(#p2fbbf55760)" style="fill: #1f77b4"/>
   </g>
   <g id="patch_120">
    <path d="M 90.892325 178.353045 
L 94.527889 178.353045 
L 94.527889 139.787235 
L 90.892325 139.787235 
z
" clip-path="url(#p2fbbf55760)" style="fill: #1f77b4"/>
   </g>
   <g id="patch_121">
    <path d="M 94.527889 178.353045 
L 98.163453 178.353045 
L 98.163453 141.387476 
L 94.527889 141.387476 
z
" clip-path="url(#p2fbbf55760)" style="fill: #1f77b4"/>
   </g>
   <g id="patch_122">
    <path d="M 98.163453 178.353045 
L 101.799016 178.353045 
L 101.799016 141.067428 
L 98.163453 141.067428 
z
" clip-path="url(#p2fbbf55760)" style="fill: #1f77b4"/>
   </g>
   <g id="patch_123">
    <path d="M 101.799016 178.353045 
L 105.43458 178.353045 
L 105.43458 139.627211 
L 101.799016 139.627211 
z
" clip-path="url(#p2fbbf55760)" style="fill: #1f77b4"/>
   </g>
   <g id="patch_124">
    <path d="M 105.43458 178.353045 
L 109.070144 178.353045 
L 109.070144 140.027271 
L 105.43458 140.027271 
z
" clip-path="url(#p2fbbf55760)" style="fill: #1f77b4"/>
   </g>
   <g id="patch_125">
    <path d="M 109.070144 178.353045 
L 112.705708 178.353045 
L 112.705708 136.266704 
L 109.070144 136.266704 
z
" clip-path="url(#p2fbbf55760)" style="fill: #1f77b4"/>
   </g>
   <g id="patch_126">
    <path d="M 112.705708 178.353045 
L 116.341272 178.353045 
L 116.341272 138.667066 
L 112.705708 138.667066 
z
" clip-path="url(#p2fbbf55760)" style="fill: #1f77b4"/>
   </g>
   <g id="patch_127">
    <path d="M 116.341272 178.353045 
L 119.976835 178.353045 
L 119.976835 138.347018 
L 116.341272 138.347018 
z
" clip-path="url(#p2fbbf55760)" style="fill: #1f77b4"/>
   </g>
   <g id="patch_128">
    <path d="M 119.976835 178.353045 
L 123.612399 178.353045 
L 123.612399 139.547199 
L 119.976835 139.547199 
z
" clip-path="url(#p2fbbf55760)" style="fill: #1f77b4"/>
   </g>
   <g id="patch_129">
    <path d="M 123.612399 178.353045 
L 127.247963 178.353045 
L 127.247963 137.386873 
L 123.612399 137.386873 
z
" clip-path="url(#p2fbbf55760)" style="fill: #1f77b4"/>
   </g>
   <g id="patch_130">
    <path d="M 127.247963 178.353045 
L 130.883527 178.353045 
L 130.883527 133.866343 
L 127.247963 133.866343 
z
" clip-path="url(#p2fbbf55760)" style="fill: #1f77b4"/>
   </g>
   <g id="patch_131">
    <path d="M 130.883527 178.353045 
L 134.519091 178.353045 
L 134.519091 140.587355 
L 130.883527 140.587355 
z
" clip-path="url(#p2fbbf55760)" style="fill: #1f77b4"/>
   </g>
   <g id="patch_132">
    <path d="M 134.519091 178.353045 
L 138.154655 178.353045 
L 138.154655 134.666463 
L 134.519091 134.666463 
z
" clip-path="url(#p2fbbf55760)" style="fill: #1f77b4"/>
   </g>
   <g id="patch_133">
    <path d="M 138.154655 178.353045 
L 141.790218 178.353045 
L 141.790218 138.907102 
L 138.154655 138.907102 
z
" clip-path="url(#p2fbbf55760)" style="fill: #1f77b4"/>
   </g>
   <g id="patch_134">
    <path d="M 141.790218 178.353045 
L 145.425782 178.353045 
L 145.425782 137.306861 
L 141.790218 137.306861 
z
" clip-path="url(#p2fbbf55760)" style="fill: #1f77b4"/>
   </g>
   <g id="patch_135">
    <path d="M 145.425782 178.353045 
L 149.061346 178.353045 
L 149.061346 139.627211 
L 145.425782 139.627211 
z
" clip-path="url(#p2fbbf55760)" style="fill: #1f77b4"/>
   </g>
   <g id="patch_136">
    <path d="M 149.061346 178.353045 
L 152.69691 178.353045 
L 152.69691 135.466584 
L 149.061346 135.466584 
z
" clip-path="url(#p2fbbf55760)" style="fill: #1f77b4"/>
   </g>
   <g id="patch_137">
    <path d="M 152.69691 178.353045 
L 156.332474 178.353045 
L 156.332474 137.866946 
L 152.69691 137.866946 
z
" clip-path="url(#p2fbbf55760)" style="fill: #1f77b4"/>
   </g>
   <g id="patch_138">
    <path d="M 156.332474 178.353045 
L 159.968037 178.353045 
L 159.968037 137.866946 
L 156.332474 137.866946 
z
" clip-path="url(#p2fbbf55760)" style="fill: #1f77b4"/>
   </g>
   <g id="patch_139">
    <path d="M 159.968037 178.353045 
L 163.603601 178.353045 
L 163.603601 136.506741 
L 159.968037 136.506741 
z
" clip-path="url(#p2fbbf55760)" style="fill: #1f77b4"/>
   </g>
   <g id="patch_140">
    <path d="M 163.603601 178.353045 
L 167.239165 178.353045 
L 167.239165 134.506439 
L 163.603601 134.506439 
z
" clip-path="url(#p2fbbf55760)" style="fill: #1f77b4"/>
   </g>
   <g id="patch_141">
    <path d="M 167.239165 178.353045 
L 170.874729 178.353045 
L 170.874729 136.986813 
L 167.239165 136.986813 
z
" clip-path="url(#p2fbbf55760)" style="fill: #1f77b4"/>
   </g>
   <g id="patch_142">
    <path d="M 170.874729 178.353045 
L 174.510293 178.353045 
L 174.510293 142.267609 
L 170.874729 142.267609 
z
" clip-path="url(#p2fbbf55760)" style="fill: #1f77b4"/>
   </g>
   <g id="patch_143">
    <path d="M 174.510293 178.353045 
L 178.145857 178.353045 
L 178.145857 136.986813 
L 174.510293 136.986813 
z
" clip-path="url(#p2fbbf55760)" style="fill: #1f77b4"/>
   </g>
   <g id="patch_144">
    <path d="M 178.145857 178.353045 
L 181.78142 178.353045 
L 181.78142 136.986813 
L 178.145857 136.986813 
z
" clip-path="url(#p2fbbf55760)" style="fill: #1f77b4"/>
   </g>
   <g id="patch_145">
    <path d="M 181.78142 178.353045 
L 185.416984 178.353045 
L 185.416984 135.066524 
L 181.78142 135.066524 
z
" clip-path="url(#p2fbbf55760)" style="fill: #1f77b4"/>
   </g>
   <g id="patch_146">
    <path d="M 185.416984 178.353045 
L 189.052548 178.353045 
L 189.052548 138.907102 
L 185.416984 138.907102 
z
" clip-path="url(#p2fbbf55760)" style="fill: #1f77b4"/>
   </g>
   <g id="patch_147">
    <path d="M 189.052548 178.353045 
L 192.688112 178.353045 
L 192.688112 134.826487 
L 189.052548 134.826487 
z
" clip-path="url(#p2fbbf55760)" style="fill: #1f77b4"/>
   </g>
   <g id="patch_148">
    <path d="M 192.688112 178.353045 
L 196.323676 178.353045 
L 196.323676 134.826487 
L 192.688112 134.826487 
z
" clip-path="url(#p2fbbf55760)" style="fill: #1f77b4"/>
   </g>
   <g id="patch_149">
    <path d="M 196.323676 178.353045 
L 199.959239 178.353045 
L 199.959239 136.586753 
L 196.323676 136.586753 
z
" clip-path="url(#p2fbbf55760)" style="fill: #1f77b4"/>
   </g>
   <g id="patch_150">
    <path d="M 199.959239 178.353045 
L 203.594803 178.353045 
L 203.594803 136.026668 
L 199.959239 136.026668 
z
" clip-path="url(#p2fbbf55760)" style="fill: #1f77b4"/>
   </g>
   <g id="patch_151">
    <path d="M 203.594803 178.353045 
L 207.230367 178.353045 
L 207.230367 136.10668 
L 203.594803 136.10668 
z
" clip-path="url(#p2fbbf55760)" style="fill: #1f77b4"/>
   </g>
   <g id="patch_152">
    <path d="M 207.230367 178.353045 
L 210.865931 178.353045 
L 210.865931 135.30656 
L 207.230367 135.30656 
z
" clip-path="url(#p2fbbf55760)" style="fill: #1f77b4"/>
   </g>
   <g id="patch_153">
    <path d="M 210.865931 178.353045 
L 214.501495 178.353045 
L 214.501495 133.146234 
L 210.865931 133.146234 
z
" clip-path="url(#p2fbbf55760)" style="fill: #1f77b4"/>
   </g>
   <g id="patch_154">
    <path d="M 214.501495 178.353045 
L 218.137059 178.353045 
L 218.137059 135.466584 
L 214.501495 135.466584 
z
" clip-path="url(#p2fbbf55760)" style="fill: #1f77b4"/>
   </g>
   <g id="patch_155">
    <path d="M 218.137059 178.353045 
L 221.772622 178.353045 
L 221.772622 134.026367 
L 218.137059 134.026367 
z
" clip-path="url(#p2fbbf55760)" style="fill: #1f77b4"/>
   </g>
   <g id="patch_156">
    <path d="M 221.772622 178.353045 
L 225.408186 178.353045 
L 225.408186 137.226849 
L 221.772622 137.226849 
z
" clip-path="url(#p2fbbf55760)" style="fill: #1f77b4"/>
   </g>
   <g id="patch_157">
    <path d="M 225.408186 178.353045 
L 229.04375 178.353045 
L 229.04375 137.146837 
L 225.408186 137.146837 
z
" clip-path="url(#p2fbbf55760)" style="fill: #1f77b4"/>
   </g>
   <g id="patch_158">
    <path d="M 229.04375 178.353045 
L 232.679314 178.353045 
L 232.679314 136.026668 
L 229.04375 136.026668 
z
" clip-path="url(#p2fbbf55760)" style="fill: #1f77b4"/>
   </g>
   <g id="patch_159">
    <path d="M 232.679314 178.353045 
L 236.314878 178.353045 
L 236.314878 134.826487 
L 232.679314 134.826487 
z
" clip-path="url(#p2fbbf55760)" style="fill: #1f77b4"/>
   </g>
   <g id="patch_160">
    <path d="M 236.314878 178.353045 
L 239.950441 178.353045 
L 239.950441 137.226849 
L 236.314878 137.226849 
z
" clip-path="url(#p2fbbf55760)" style="fill: #1f77b4"/>
   </g>
   <g id="patch_161">
    <path d="M 239.950441 178.353045 
L 243.586005 178.353045 
L 243.586005 135.386572 
L 239.950441 135.386572 
z
" clip-path="url(#p2fbbf55760)" style="fill: #1f77b4"/>
   </g>
   <g id="patch_162">
    <path d="M 243.586005 178.353045 
L 247.221569 178.353045 
L 247.221569 135.30656 
L 243.586005 135.30656 
z
" clip-path="url(#p2fbbf55760)" style="fill: #1f77b4"/>
   </g>
   <g id="patch_163">
    <path d="M 247.221569 178.353045 
L 250.857133 178.353045 
L 250.857133 138.507042 
L 247.221569 138.507042 
z
" clip-path="url(#p2fbbf55760)" style="fill: #1f77b4"/>
   </g>
   <g id="patch_164">
    <path d="M 250.857133 178.353045 
L 254.492697 178.353045 
L 254.492697 137.786933 
L 250.857133 137.786933 
z
" clip-path="url(#p2fbbf55760)" style="fill: #1f77b4"/>
   </g>
   <g id="patch_165">
    <path d="M 254.492697 178.353045 
L 258.128261 178.353045 
L 258.128261 136.906801 
L 254.492697 136.906801 
z
" clip-path="url(#p2fbbf55760)" style="fill: #1f77b4"/>
   </g>
   <g id="patch_166">
    <path d="M 258.128261 178.353045 
L 261.763824 178.353045 
L 261.763824 136.586753 
L 258.128261 136.586753 
z
" clip-path="url(#p2fbbf55760)" style="fill: #1f77b4"/>
   </g>
   <g id="patch_167">
    <path d="M 261.763824 178.353045 
L 265.399388 178.353045 
L 265.399388 137.146837 
L 261.763824 137.146837 
z
" clip-path="url(#p2fbbf55760)" style="fill: #1f77b4"/>
   </g>
   <g id="patch_168">
    <path d="M 265.399388 178.353045 
L 269.034952 178.353045 
L 269.034952 138.587054 
L 265.399388 138.587054 
z
" clip-path="url(#p2fbbf55760)" style="fill: #1f77b4"/>
   </g>
   <g id="patch_169">
    <path d="M 269.034952 178.353045 
L 272.670516 178.353045 
L 272.670516 135.626608 
L 269.034952 135.626608 
z
" clip-path="url(#p2fbbf55760)" style="fill: #1f77b4"/>
   </g>
   <g id="patch_170">
    <path d="M 272.670516 178.353045 
L 276.30608 178.353045 
L 276.30608 137.226849 
L 272.670516 137.226849 
z
" clip-path="url(#p2fbbf55760)" style="fill: #1f77b4"/>
   </g>
   <g id="patch_171">
    <path d="M 276.30608 178.353045 
L 279.941643 178.353045 
L 279.941643 136.10668 
L 276.30608 136.10668 
z
" clip-path="url(#p2fbbf55760)" style="fill: #1f77b4"/>
   </g>
   <g id="patch_172">
    <path d="M 279.941643 178.353045 
L 283.577207 178.353045 
L 283.577207 135.30656 
L 279.941643 135.30656 
z
" clip-path="url(#p2fbbf55760)" style="fill: #1f77b4"/>
   </g>
   <g id="patch_173">
    <path d="M 283.577207 178.353045 
L 287.212771 178.353045 
L 287.212771 136.586753 
L 283.577207 136.586753 
z
" clip-path="url(#p2fbbf55760)" style="fill: #1f77b4"/>
   </g>
   <g id="patch_174">
    <path d="M 287.212771 178.353045 
L 290.848335 178.353045 
L 290.848335 136.826789 
L 287.212771 136.826789 
z
" clip-path="url(#p2fbbf55760)" style="fill: #1f77b4"/>
   </g>
   <g id="patch_175">
    <path d="M 290.848335 178.353045 
L 294.483899 178.353045 
L 294.483899 137.626909 
L 290.848335 137.626909 
z
" clip-path="url(#p2fbbf55760)" style="fill: #1f77b4"/>
   </g>
   <g id="patch_176">
    <path d="M 294.483899 178.353045 
L 298.119463 178.353045 
L 298.119463 134.186391 
L 294.483899 134.186391 
z
" clip-path="url(#p2fbbf55760)" style="fill: #1f77b4"/>
   </g>
   <g id="patch_177">
    <path d="M 298.119463 178.353045 
L 301.755026 178.353045 
L 301.755026 136.746777 
L 298.119463 136.746777 
z
" clip-path="url(#p2fbbf55760)" style="fill: #1f77b4"/>
   </g>
   <g id="patch_178">
    <path d="M 301.755026 178.353045 
L 305.39059 178.353045 
L 305.39059 133.946355 
L 301.755026 133.946355 
z
" clip-path="url(#p2fbbf55760)" style="fill: #1f77b4"/>
   </g>
   <g id="patch_179">
    <path d="M 305.39059 178.353045 
L 309.026154 178.353045 
L 309.026154 137.706921 
L 305.39059 137.706921 
z
" clip-path="url(#p2fbbf55760)" style="fill: #1f77b4"/>
   </g>
   <g id="patch_180">
    <path d="M 309.026154 178.353045 
L 312.661718 178.353045 
L 312.661718 137.626909 
L 309.026154 137.626909 
z
" clip-path="url(#p2fbbf55760)" style="fill: #1f77b4"/>
   </g>
   <g id="patch_181">
    <path d="M 312.661718 178.353045 
L 316.297282 178.353045 
L 316.297282 140.267307 
L 312.661718 140.267307 
z
" clip-path="url(#p2fbbf55760)" style="fill: #1f77b4"/>
   </g>
   <g id="patch_182">
    <path d="M 316.297282 178.353045 
L 319.932845 178.353045 
L 319.932845 138.667066 
L 316.297282 138.667066 
z
" clip-path="url(#p2fbbf55760)" style="fill: #1f77b4"/>
   </g>
   <g id="patch_183">
    <path d="M 319.932845 178.353045 
L 323.568409 178.353045 
L 323.568409 140.667367 
L 319.932845 140.667367 
z
" clip-path="url(#p2fbbf55760)" style="fill: #1f77b4"/>
   </g>
   <g id="patch_184">
    <path d="M 323.568409 178.353045 
L 327.203973 178.353045 
L 327.203973 136.186692 
L 323.568409 136.186692 
z
" clip-path="url(#p2fbbf55760)" style="fill: #1f77b4"/>
   </g>
   <g id="patch_185">
    <path d="M 327.203973 178.353045 
L 330.839537 178.353045 
L 330.839537 138.987114 
L 327.203973 138.987114 
z
" clip-path="url(#p2fbbf55760)" style="fill: #1f77b4"/>
   </g>
   <g id="patch_186">
    <path d="M 330.839537 178.353045 
L 334.475101 178.353045 
L 334.475101 138.667066 
L 330.839537 138.667066 
z
" clip-path="url(#p2fbbf55760)" style="fill: #1f77b4"/>
   </g>
   <g id="patch_187">
    <path d="M 334.475101 178.353045 
L 338.110665 178.353045 
L 338.110665 139.627211 
L 334.475101 139.627211 
z
" clip-path="url(#p2fbbf55760)" style="fill: #1f77b4"/>
   </g>
   <g id="patch_188">
    <path d="M 338.110665 178.353045 
L 341.746228 178.353045 
L 341.746228 140.187295 
L 338.110665 140.187295 
z
" clip-path="url(#p2fbbf55760)" style="fill: #1f77b4"/>
   </g>
   <g id="patch_189">
    <path d="M 341.746228 178.353045 
L 345.381792 178.353045 
L 345.381792 140.427331 
L 341.746228 140.427331 
z
" clip-path="url(#p2fbbf55760)" style="fill: #1f77b4"/>
   </g>
   <g id="patch_190">
    <path d="M 345.381792 178.353045 
L 349.017356 178.353045 
L 349.017356 138.42703 
L 345.381792 138.42703 
z
" clip-path="url(#p2fbbf55760)" style="fill: #1f77b4"/>
   </g>
   <g id="patch_191">
    <path d="M 349.017356 178.353045 
L 352.65292 178.353045 
L 352.65292 139.867247 
L 349.017356 139.867247 
z
" clip-path="url(#p2fbbf55760)" style="fill: #1f77b4"/>
   </g>
   <g id="patch_192">
    <path d="M 352.65292 178.353045 
L 356.288484 178.353045 
L 356.288484 140.507343 
L 352.65292 140.507343 
z
" clip-path="url(#p2fbbf55760)" style="fill: #1f77b4"/>
   </g>
   <g id="patch_193">
    <path d="M 356.288484 178.353045 
L 359.924047 178.353045 
L 359.924047 139.147138 
L 356.288484 139.147138 
z
" clip-path="url(#p2fbbf55760)" style="fill: #1f77b4"/>
   </g>
   <g id="patch_194">
    <path d="M 359.924047 178.353045 
L 363.559611 178.353045 
L 363.559611 141.067428 
L 359.924047 141.067428 
z
" clip-path="url(#p2fbbf55760)" style="fill: #1f77b4"/>
   </g>
   <g id="patch_195">
    <path d="M 363.559611 178.353045 
L 367.195175 178.353045 
L 367.195175 142.347621 
L 363.559611 142.347621 
z
" clip-path="url(#p2fbbf55760)" style="fill: #1f77b4"/>
   </g>
   <g id="patch_196">
    <path d="M 367.195175 178.353045 
L 370.830739 178.353045 
L 370.830739 140.187295 
L 367.195175 140.187295 
z
" clip-path="url(#p2fbbf55760)" style="fill: #1f77b4"/>
   </g>
   <g id="patch_197">
    <path d="M 370.830739 178.353045 
L 374.466303 178.353045 
L 374.466303 138.987114 
L 370.830739 138.987114 
z
" clip-path="url(#p2fbbf55760)" style="fill: #1f77b4"/>
   </g>
   <g id="patch_198">
    <path d="M 374.466303 178.353045 
L 378.101867 178.353045 
L 378.101867 140.027271 
L 374.466303 140.027271 
z
" clip-path="url(#p2fbbf55760)" style="fill: #1f77b4"/>
   </g>
   <g id="patch_199">
    <path d="M 378.101867 178.353045 
L 381.73743 178.353045 
L 381.73743 139.867247 
L 378.101867 139.867247 
z
" clip-path="url(#p2fbbf55760)" style="fill: #1f77b4"/>
   </g>
   <g id="patch_200">
    <path d="M 381.73743 178.353045 
L 385.372994 178.353045 
L 385.372994 141.307464 
L 381.73743 141.307464 
z
" clip-path="url(#p2fbbf55760)" style="fill: #1f77b4"/>
   </g>
   <g id="patch_201">
    <path d="M 385.372994 178.353045 
L 389.008558 178.353045 
L 389.008558 141.5475 
L 385.372994 141.5475 
z
" clip-path="url(#p2fbbf55760)" style="fill: #1f77b4"/>
   </g>
   <g id="patch_202">
    <path d="M 389.008558 178.353045 
L 392.644122 178.353045 
L 392.644122 139.147138 
L 389.008558 139.147138 
z
" clip-path="url(#p2fbbf55760)" style="fill: #1f77b4"/>
   </g>
   <g id="patch_203">
    <path d="M 392.644122 178.353045 
L 396.279686 178.353045 
L 396.279686 139.947259 
L 392.644122 139.947259 
z
" clip-path="url(#p2fbbf55760)" style="fill: #1f77b4"/>
   </g>
   <g id="patch_204">
    <path d="M 396.279686 178.353045 
L 399.915249 178.353045 
L 399.915249 141.867548 
L 396.279686 141.867548 
z
" clip-path="url(#p2fbbf55760)" style="fill: #1f77b4"/>
   </g>
   <g id="patch_205">
    <path d="M 399.915249 178.353045 
L 403.550813 178.353045 
L 403.550813 142.587657 
L 399.915249 142.587657 
z
" clip-path="url(#p2fbbf55760)" style="fill: #1f77b4"/>
   </g>
   <g id="patch_206">
    <path d="M 403.550813 178.353045 
L 407.186377 178.353045 
L 407.186377 143.467789 
L 403.550813 143.467789 
z
" clip-path="url(#p2fbbf55760)" style="fill: #1f77b4"/>
   </g>
   <g id="patch_207">
    <path d="M 407.186377 178.353045 
L 410.821941 178.353045 
L 410.821941 140.187295 
L 407.186377 140.187295 
z
" clip-path="url(#p2fbbf55760)" style="fill: #1f77b4"/>
   </g>
   <g id="matplotlib.axis_3">
    <g id="xtick_10">
     <g id="line2d_12">
      <g>
       <use xlink:href="#mfc5df9f0f9" x="47.25496" y="178.353045" style="stroke: #000000; stroke-width: 0.8"/>
      </g>
     </g>
     <g id="text_13">
      <!-- −10000 -->
      <g transform="translate(27.158866 192.951482)scale(0.1 -0.1)">
       <use xlink:href="#DejaVuSans-2212"/>
       <use xlink:href="#DejaVuSans-31" x="83.789062"/>
       <use xlink:href="#DejaVuSans-30" x="147.412109"/>
       <use xlink:href="#DejaVuSans-30" x="211.035156"/>
       <use xlink:href="#DejaVuSans-30" x="274.658203"/>
       <use xlink:href="#DejaVuSans-30" x="338.28125"/>
      </g>
     </g>
    </g>
    <g id="xtick_11">
     <g id="line2d_13">
      <g>
       <use xlink:href="#mfc5df9f0f9" x="92.700979" y="178.353045" style="stroke: #000000; stroke-width: 0.8"/>
      </g>
     </g>
     <g id="text_14">
      <!-- −7500 -->
      <g transform="translate(75.786135 192.951482)scale(0.1 -0.1)">
       <use xlink:href="#DejaVuSans-2212"/>
       <use xlink:href="#DejaVuSans-37" x="83.789062"/>
       <use xlink:href="#DejaVuSans-35" x="147.412109"/>
       <use xlink:href="#DejaVuSans-30" x="211.035156"/>
       <use xlink:href="#DejaVuSans-30" x="274.658203"/>
      </g>
     </g>
    </g>
    <g id="xtick_12">
     <g id="line2d_14">
      <g>
       <use xlink:href="#mfc5df9f0f9" x="138.146999" y="178.353045" style="stroke: #000000; stroke-width: 0.8"/>
      </g>
     </g>
     <g id="text_15">
      <!-- −5000 -->
      <g transform="translate(121.232155 192.951482)scale(0.1 -0.1)">
       <use xlink:href="#DejaVuSans-2212"/>
       <use xlink:href="#DejaVuSans-35" x="83.789062"/>
       <use xlink:href="#DejaVuSans-30" x="147.412109"/>
       <use xlink:href="#DejaVuSans-30" x="211.035156"/>
       <use xlink:href="#DejaVuSans-30" x="274.658203"/>
      </g>
     </g>
    </g>
    <g id="xtick_13">
     <g id="line2d_15">
      <g>
       <use xlink:href="#mfc5df9f0f9" x="183.593018" y="178.353045" style="stroke: #000000; stroke-width: 0.8"/>
      </g>
     </g>
     <g id="text_16">
      <!-- −2500 -->
      <g transform="translate(166.678174 192.951482)scale(0.1 -0.1)">
       <use xlink:href="#DejaVuSans-2212"/>
       <use xlink:href="#DejaVuSans-32" x="83.789062"/>
       <use xlink:href="#DejaVuSans-35" x="147.412109"/>
       <use xlink:href="#DejaVuSans-30" x="211.035156"/>
       <use xlink:href="#DejaVuSans-30" x="274.658203"/>
      </g>
     </g>
    </g>
    <g id="xtick_14">
     <g id="line2d_16">
      <g>
       <use xlink:href="#mfc5df9f0f9" x="229.039037" y="178.353045" style="stroke: #000000; stroke-width: 0.8"/>
      </g>
     </g>
     <g id="text_17">
      <!-- 0 -->
      <g transform="translate(225.857787 192.951482)scale(0.1 -0.1)">
       <use xlink:href="#DejaVuSans-30"/>
      </g>
     </g>
    </g>
    <g id="xtick_15">
     <g id="line2d_17">
      <g>
       <use xlink:href="#mfc5df9f0f9" x="274.485057" y="178.353045" style="stroke: #000000; stroke-width: 0.8"/>
      </g>
     </g>
     <g id="text_18">
      <!-- 2500 -->
      <g transform="translate(261.760057 192.951482)scale(0.1 -0.1)">
       <use xlink:href="#DejaVuSans-32"/>
       <use xlink:href="#DejaVuSans-35" x="63.623047"/>
       <use xlink:href="#DejaVuSans-30" x="127.246094"/>
       <use xlink:href="#DejaVuSans-30" x="190.869141"/>
      </g>
     </g>
    </g>
    <g id="xtick_16">
     <g id="line2d_18">
      <g>
       <use xlink:href="#mfc5df9f0f9" x="319.931076" y="178.353045" style="stroke: #000000; stroke-width: 0.8"/>
      </g>
     </g>
     <g id="text_19">
      <!-- 5000 -->
      <g transform="translate(307.206076 192.951482)scale(0.1 -0.1)">
       <use xlink:href="#DejaVuSans-35"/>
       <use xlink:href="#DejaVuSans-30" x="63.623047"/>
       <use xlink:href="#DejaVuSans-30" x="127.246094"/>
       <use xlink:href="#DejaVuSans-30" x="190.869141"/>
      </g>
     </g>
    </g>
    <g id="xtick_17">
     <g id="line2d_19">
      <g>
       <use xlink:href="#mfc5df9f0f9" x="365.377096" y="178.353045" style="stroke: #000000; stroke-width: 0.8"/>
      </g>
     </g>
     <g id="text_20">
      <!-- 7500 -->
      <g transform="translate(352.652096 192.951482)scale(0.1 -0.1)">
       <use xlink:href="#DejaVuSans-37"/>
       <use xlink:href="#DejaVuSans-35" x="63.623047"/>
       <use xlink:href="#DejaVuSans-30" x="127.246094"/>
       <use xlink:href="#DejaVuSans-30" x="190.869141"/>
      </g>
     </g>
    </g>
    <g id="xtick_18">
     <g id="line2d_20">
      <g>
       <use xlink:href="#mfc5df9f0f9" x="410.823115" y="178.353045" style="stroke: #000000; stroke-width: 0.8"/>
      </g>
     </g>
     <g id="text_21">
      <!-- 10000 -->
      <g transform="translate(394.916865 192.951482)scale(0.1 -0.1)">
       <use xlink:href="#DejaVuSans-31"/>
       <use xlink:href="#DejaVuSans-30" x="63.623047"/>
       <use xlink:href="#DejaVuSans-30" x="127.246094"/>
       <use xlink:href="#DejaVuSans-30" x="190.869141"/>
       <use xlink:href="#DejaVuSans-30" x="254.492188"/>
      </g>
     </g>
    </g>
   </g>
   <g id="matplotlib.axis_4">
    <g id="ytick_3">
     <g id="line2d_21">
      <g>
       <use xlink:href="#m03076dde8c" x="29.08774" y="178.353045" style="stroke: #000000; stroke-width: 0.8"/>
      </g>
     </g>
     <g id="text_22">
      <!-- 0 -->
      <g transform="translate(15.72524 182.152264)scale(0.1 -0.1)">
       <use xlink:href="#DejaVuSans-30"/>
      </g>
     </g>
    </g>
    <g id="ytick_4">
     <g id="line2d_22">
      <g>
       <use xlink:href="#m03076dde8c" x="29.08774" y="138.347018" style="stroke: #000000; stroke-width: 0.8"/>
      </g>
     </g>
     <g id="text_23">
      <!-- 500 -->
      <g transform="translate(3.00024 142.146237)scale(0.1 -0.1)">
       <use xlink:href="#DejaVuSans-35"/>
       <use xlink:href="#DejaVuSans-30" x="63.623047"/>
       <use xlink:href="#DejaVuSans-30" x="127.246094"/>
      </g>
     </g>
    </g>
   </g>
   <g id="patch_208">
    <path d="M 29.08774 178.353045 
L 29.08774 126.181185 
" style="fill: none; stroke: #000000; stroke-width: 0.8; stroke-linejoin: miter; stroke-linecap: square"/>
   </g>
   <g id="patch_209">
    <path d="M 428.99976 178.353045 
L 428.99976 126.181185 
" style="fill: none; stroke: #000000; stroke-width: 0.8; stroke-linejoin: miter; stroke-linecap: square"/>
   </g>
   <g id="patch_210">
    <path d="M 29.08774 178.353045 
L 428.99976 178.353045 
" style="fill: none; stroke: #000000; stroke-width: 0.8; stroke-linejoin: miter; stroke-linecap: square"/>
   </g>
   <g id="patch_211">
    <path d="M 29.08774 126.181185 
L 428.99976 126.181185 
" style="fill: none; stroke: #000000; stroke-width: 0.8; stroke-linejoin: miter; stroke-linecap: square"/>
   </g>
   <g id="text_24">
    <!-- $A_b$ -->
    <g transform="translate(222.08375 120.181185)scale(0.12 -0.12)">
     <defs>
      <path id="DejaVuSans-Oblique-62" d="M 3169 2138 
Q 3169 2591 2961 2847 
Q 2753 3103 2388 3103 
Q 2122 3103 1889 2973 
Q 1656 2844 1484 2597 
Q 1303 2338 1198 1995 
Q 1094 1653 1094 1313 
Q 1094 881 1298 636 
Q 1503 391 1863 391 
Q 2134 391 2365 517 
Q 2597 644 2772 891 
Q 2950 1147 3059 1487 
Q 3169 1828 3169 2138 
z
M 1381 2969 
Q 1594 3256 1914 3420 
Q 2234 3584 2584 3584 
Q 3122 3584 3439 3221 
Q 3756 2859 3756 2241 
Q 3756 1734 3570 1259 
Q 3384 784 3041 416 
Q 2816 172 2522 40 
Q 2228 -91 1906 -91 
Q 1566 -91 1316 65 
Q 1066 222 909 531 
L 806 0 
L 231 0 
L 1178 4863 
L 1753 4863 
L 1381 2969 
z
" transform="scale(0.015625)"/>
     </defs>
     <use xlink:href="#DejaVuSans-Oblique-41" transform="translate(0 0.09375)"/>
     <use xlink:href="#DejaVuSans-Oblique-62" transform="translate(68.408203 -16.3125)scale(0.7)"/>
    </g>
   </g>
  </g>
  <g id="axes_3">
   <g id="patch_212">
    <path d="M 29.08774 268.321635 
L 428.99976 268.321635 
L 428.99976 216.149775 
L 29.08774 216.149775 
z
" style="fill: #ffffff"/>
   </g>
   <g id="patch_213">
    <path d="M 47.265559 268.321635 
L 50.901123 268.321635 
L 50.901123 232.156186 
L 47.265559 232.156186 
z
" clip-path="url(#pbdd3dfd8c2)" style="fill: #1f77b4"/>
   </g>
   <g id="patch_214">
    <path d="M 50.901123 268.321635 
L 54.536687 268.321635 
L 54.536687 229.515789 
L 50.901123 229.515789 
z
" clip-path="url(#pbdd3dfd8c2)" style="fill: #1f77b4"/>
   </g>
   <g id="patch_215">
    <path d="M 54.536687 268.321635 
L 58.172251 268.321635 
L 58.172251 234.076476 
L 54.536687 234.076476 
z
" clip-path="url(#pbdd3dfd8c2)" style="fill: #1f77b4"/>
   </g>
   <g id="patch_216">
    <path d="M 58.172251 268.321635 
L 61.807814 268.321635 
L 61.807814 230.635957 
L 58.172251 230.635957 
z
" clip-path="url(#pbdd3dfd8c2)" style="fill: #1f77b4"/>
   </g>
   <g id="patch_217">
    <path d="M 61.807814 268.321635 
L 65.443378 268.321635 
L 65.443378 229.995861 
L 61.807814 229.995861 
z
" clip-path="url(#pbdd3dfd8c2)" style="fill: #1f77b4"/>
   </g>
   <g id="patch_218">
    <path d="M 65.443378 268.321635 
L 69.078942 268.321635 
L 69.078942 231.196042 
L 65.443378 231.196042 
z
" clip-path="url(#pbdd3dfd8c2)" style="fill: #1f77b4"/>
   </g>
   <g id="patch_219">
    <path d="M 69.078942 268.321635 
L 72.714506 268.321635 
L 72.714506 229.995861 
L 69.078942 229.995861 
z
" clip-path="url(#pbdd3dfd8c2)" style="fill: #1f77b4"/>
   </g>
   <g id="patch_220">
    <path d="M 72.714506 268.321635 
L 76.35007 268.321635 
L 76.35007 229.835837 
L 72.714506 229.835837 
z
" clip-path="url(#pbdd3dfd8c2)" style="fill: #1f77b4"/>
   </g>
   <g id="patch_221">
    <path d="M 76.35007 268.321635 
L 79.985633 268.321635 
L 79.985633 229.355765 
L 76.35007 229.355765 
z
" clip-path="url(#pbdd3dfd8c2)" style="fill: #1f77b4"/>
   </g>
   <g id="patch_222">
    <path d="M 79.985633 268.321635 
L 83.621197 268.321635 
L 83.621197 232.236199 
L 79.985633 232.236199 
z
" clip-path="url(#pbdd3dfd8c2)" style="fill: #1f77b4"/>
   </g>
   <g id="patch_223">
    <path d="M 83.621197 268.321635 
L 87.256761 268.321635 
L 87.256761 230.395921 
L 83.621197 230.395921 
z
" clip-path="url(#pbdd3dfd8c2)" style="fill: #1f77b4"/>
   </g>
   <g id="patch_224">
    <path d="M 87.256761 268.321635 
L 90.892325 268.321635 
L 90.892325 227.915548 
L 87.256761 227.915548 
z
" clip-path="url(#pbdd3dfd8c2)" style="fill: #1f77b4"/>
   </g>
   <g id="patch_225">
    <path d="M 90.892325 268.321635 
L 94.527889 268.321635 
L 94.527889 231.436078 
L 90.892325 231.436078 
z
" clip-path="url(#pbdd3dfd8c2)" style="fill: #1f77b4"/>
   </g>
   <g id="patch_226">
    <path d="M 94.527889 268.321635 
L 98.163453 268.321635 
L 98.163453 228.79568 
L 94.527889 228.79568 
z
" clip-path="url(#pbdd3dfd8c2)" style="fill: #1f77b4"/>
   </g>
   <g id="patch_227">
    <path d="M 98.163453 268.321635 
L 101.799016 268.321635 
L 101.799016 227.595499 
L 98.163453 227.595499 
z
" clip-path="url(#pbdd3dfd8c2)" style="fill: #1f77b4"/>
   </g>
   <g id="patch_228">
    <path d="M 101.799016 268.321635 
L 105.43458 268.321635 
L 105.43458 228.475632 
L 101.799016 228.475632 
z
" clip-path="url(#pbdd3dfd8c2)" style="fill: #1f77b4"/>
   </g>
   <g id="patch_229">
    <path d="M 105.43458 268.321635 
L 109.070144 268.321635 
L 109.070144 229.915849 
L 105.43458 229.915849 
z
" clip-path="url(#pbdd3dfd8c2)" style="fill: #1f77b4"/>
   </g>
   <g id="patch_230">
    <path d="M 109.070144 268.321635 
L 112.705708 268.321635 
L 112.705708 228.715668 
L 109.070144 228.715668 
z
" clip-path="url(#pbdd3dfd8c2)" style="fill: #1f77b4"/>
   </g>
   <g id="patch_231">
    <path d="M 112.705708 268.321635 
L 116.341272 268.321635 
L 116.341272 228.39562 
L 112.705708 228.39562 
z
" clip-path="url(#pbdd3dfd8c2)" style="fill: #1f77b4"/>
   </g>
   <g id="patch_232">
    <path d="M 116.341272 268.321635 
L 119.976835 268.321635 
L 119.976835 230.075873 
L 116.341272 230.075873 
z
" clip-path="url(#pbdd3dfd8c2)" style="fill: #1f77b4"/>
   </g>
   <g id="patch_233">
    <path d="M 119.976835 268.321635 
L 123.612399 268.321635 
L 123.612399 227.115427 
L 119.976835 227.115427 
z
" clip-path="url(#pbdd3dfd8c2)" style="fill: #1f77b4"/>
   </g>
   <g id="patch_234">
    <path d="M 123.612399 268.321635 
L 127.247963 268.321635 
L 127.247963 228.075572 
L 123.612399 228.075572 
z
" clip-path="url(#pbdd3dfd8c2)" style="fill: #1f77b4"/>
   </g>
   <g id="patch_235">
    <path d="M 127.247963 268.321635 
L 130.883527 268.321635 
L 130.883527 228.555644 
L 127.247963 228.555644 
z
" clip-path="url(#pbdd3dfd8c2)" style="fill: #1f77b4"/>
   </g>
   <g id="patch_236">
    <path d="M 130.883527 268.321635 
L 134.519091 268.321635 
L 134.519091 226.875391 
L 130.883527 226.875391 
z
" clip-path="url(#pbdd3dfd8c2)" style="fill: #1f77b4"/>
   </g>
   <g id="patch_237">
    <path d="M 134.519091 268.321635 
L 138.154655 268.321635 
L 138.154655 230.795982 
L 134.519091 230.795982 
z
" clip-path="url(#pbdd3dfd8c2)" style="fill: #1f77b4"/>
   </g>
   <g id="patch_238">
    <path d="M 138.154655 268.321635 
L 141.790218 268.321635 
L 141.790218 231.11603 
L 138.154655 231.11603 
z
" clip-path="url(#pbdd3dfd8c2)" style="fill: #1f77b4"/>
   </g>
   <g id="patch_239">
    <path d="M 141.790218 268.321635 
L 145.425782 268.321635 
L 145.425782 228.875692 
L 141.790218 228.875692 
z
" clip-path="url(#pbdd3dfd8c2)" style="fill: #1f77b4"/>
   </g>
   <g id="patch_240">
    <path d="M 145.425782 268.321635 
L 149.061346 268.321635 
L 149.061346 226.475331 
L 145.425782 226.475331 
z
" clip-path="url(#pbdd3dfd8c2)" style="fill: #1f77b4"/>
   </g>
   <g id="patch_241">
    <path d="M 149.061346 268.321635 
L 152.69691 268.321635 
L 152.69691 225.515186 
L 149.061346 225.515186 
z
" clip-path="url(#pbdd3dfd8c2)" style="fill: #1f77b4"/>
   </g>
   <g id="patch_242">
    <path d="M 152.69691 268.321635 
L 156.332474 268.321635 
L 156.332474 229.115728 
L 152.69691 229.115728 
z
" clip-path="url(#pbdd3dfd8c2)" style="fill: #1f77b4"/>
   </g>
   <g id="patch_243">
    <path d="M 156.332474 268.321635 
L 159.968037 268.321635 
L 159.968037 228.155584 
L 156.332474 228.155584 
z
" clip-path="url(#pbdd3dfd8c2)" style="fill: #1f77b4"/>
   </g>
   <g id="patch_244">
    <path d="M 159.968037 268.321635 
L 163.603601 268.321635 
L 163.603601 227.595499 
L 159.968037 227.595499 
z
" clip-path="url(#pbdd3dfd8c2)" style="fill: #1f77b4"/>
   </g>
   <g id="patch_245">
    <path d="M 163.603601 268.321635 
L 167.239165 268.321635 
L 167.239165 226.635355 
L 163.603601 226.635355 
z
" clip-path="url(#pbdd3dfd8c2)" style="fill: #1f77b4"/>
   </g>
   <g id="patch_246">
    <path d="M 167.239165 268.321635 
L 170.874729 268.321635 
L 170.874729 225.115126 
L 167.239165 225.115126 
z
" clip-path="url(#pbdd3dfd8c2)" style="fill: #1f77b4"/>
   </g>
   <g id="patch_247">
    <path d="M 170.874729 268.321635 
L 174.510293 268.321635 
L 174.510293 225.035114 
L 170.874729 225.035114 
z
" clip-path="url(#pbdd3dfd8c2)" style="fill: #1f77b4"/>
   </g>
   <g id="patch_248">
    <path d="M 174.510293 268.321635 
L 178.145857 268.321635 
L 178.145857 229.275753 
L 174.510293 229.275753 
z
" clip-path="url(#pbdd3dfd8c2)" style="fill: #1f77b4"/>
   </g>
   <g id="patch_249">
    <path d="M 178.145857 268.321635 
L 181.78142 268.321635 
L 181.78142 226.875391 
L 178.145857 226.875391 
z
" clip-path="url(#pbdd3dfd8c2)" style="fill: #1f77b4"/>
   </g>
   <g id="patch_250">
    <path d="M 181.78142 268.321635 
L 185.416984 268.321635 
L 185.416984 227.435475 
L 181.78142 227.435475 
z
" clip-path="url(#pbdd3dfd8c2)" style="fill: #1f77b4"/>
   </g>
   <g id="patch_251">
    <path d="M 185.416984 268.321635 
L 189.052548 268.321635 
L 189.052548 230.875994 
L 185.416984 230.875994 
z
" clip-path="url(#pbdd3dfd8c2)" style="fill: #1f77b4"/>
   </g>
   <g id="patch_252">
    <path d="M 189.052548 268.321635 
L 192.688112 268.321635 
L 192.688112 225.915246 
L 189.052548 225.915246 
z
" clip-path="url(#pbdd3dfd8c2)" style="fill: #1f77b4"/>
   </g>
   <g id="patch_253">
    <path d="M 192.688112 268.321635 
L 196.323676 268.321635 
L 196.323676 228.555644 
L 192.688112 228.555644 
z
" clip-path="url(#pbdd3dfd8c2)" style="fill: #1f77b4"/>
   </g>
   <g id="patch_254">
    <path d="M 196.323676 268.321635 
L 199.959239 268.321635 
L 199.959239 225.435174 
L 196.323676 225.435174 
z
" clip-path="url(#pbdd3dfd8c2)" style="fill: #1f77b4"/>
   </g>
   <g id="patch_255">
    <path d="M 199.959239 268.321635 
L 203.594803 268.321635 
L 203.594803 225.035114 
L 199.959239 225.035114 
z
" clip-path="url(#pbdd3dfd8c2)" style="fill: #1f77b4"/>
   </g>
   <g id="patch_256">
    <path d="M 203.594803 268.321635 
L 207.230367 268.321635 
L 207.230367 228.39562 
L 203.594803 228.39562 
z
" clip-path="url(#pbdd3dfd8c2)" style="fill: #1f77b4"/>
   </g>
   <g id="patch_257">
    <path d="M 207.230367 268.321635 
L 210.865931 268.321635 
L 210.865931 229.595801 
L 207.230367 229.595801 
z
" clip-path="url(#pbdd3dfd8c2)" style="fill: #1f77b4"/>
   </g>
   <g id="patch_258">
    <path d="M 210.865931 268.321635 
L 214.501495 268.321635 
L 214.501495 224.715065 
L 210.865931 224.715065 
z
" clip-path="url(#pbdd3dfd8c2)" style="fill: #1f77b4"/>
   </g>
   <g id="patch_259">
    <path d="M 214.501495 268.321635 
L 218.137059 268.321635 
L 218.137059 224.635053 
L 214.501495 224.635053 
z
" clip-path="url(#pbdd3dfd8c2)" style="fill: #1f77b4"/>
   </g>
   <g id="patch_260">
    <path d="M 218.137059 268.321635 
L 221.772622 268.321635 
L 221.772622 225.435174 
L 218.137059 225.435174 
z
" clip-path="url(#pbdd3dfd8c2)" style="fill: #1f77b4"/>
   </g>
   <g id="patch_261">
    <path d="M 221.772622 268.321635 
L 225.408186 268.321635 
L 225.408186 224.475029 
L 221.772622 224.475029 
z
" clip-path="url(#pbdd3dfd8c2)" style="fill: #1f77b4"/>
   </g>
   <g id="patch_262">
    <path d="M 225.408186 268.321635 
L 229.04375 268.321635 
L 229.04375 226.955403 
L 225.408186 226.955403 
z
" clip-path="url(#pbdd3dfd8c2)" style="fill: #1f77b4"/>
   </g>
   <g id="patch_263">
    <path d="M 229.04375 268.321635 
L 232.679314 268.321635 
L 232.679314 225.355162 
L 229.04375 225.355162 
z
" clip-path="url(#pbdd3dfd8c2)" style="fill: #1f77b4"/>
   </g>
   <g id="patch_264">
    <path d="M 232.679314 268.321635 
L 236.314878 268.321635 
L 236.314878 226.395319 
L 232.679314 226.395319 
z
" clip-path="url(#pbdd3dfd8c2)" style="fill: #1f77b4"/>
   </g>
   <g id="patch_265">
    <path d="M 236.314878 268.321635 
L 239.950441 268.321635 
L 239.950441 224.315005 
L 236.314878 224.315005 
z
" clip-path="url(#pbdd3dfd8c2)" style="fill: #1f77b4"/>
   </g>
   <g id="patch_266">
    <path d="M 239.950441 268.321635 
L 243.586005 268.321635 
L 243.586005 228.075572 
L 239.950441 228.075572 
z
" clip-path="url(#pbdd3dfd8c2)" style="fill: #1f77b4"/>
   </g>
   <g id="patch_267">
    <path d="M 243.586005 268.321635 
L 247.221569 268.321635 
L 247.221569 225.755222 
L 243.586005 225.755222 
z
" clip-path="url(#pbdd3dfd8c2)" style="fill: #1f77b4"/>
   </g>
   <g id="patch_268">
    <path d="M 247.221569 268.321635 
L 250.857133 268.321635 
L 250.857133 224.955102 
L 247.221569 224.955102 
z
" clip-path="url(#pbdd3dfd8c2)" style="fill: #1f77b4"/>
   </g>
   <g id="patch_269">
    <path d="M 250.857133 268.321635 
L 254.492697 268.321635 
L 254.492697 223.594897 
L 250.857133 223.594897 
z
" clip-path="url(#pbdd3dfd8c2)" style="fill: #1f77b4"/>
   </g>
   <g id="patch_270">
    <path d="M 254.492697 268.321635 
L 258.128261 268.321635 
L 258.128261 225.755222 
L 254.492697 225.755222 
z
" clip-path="url(#pbdd3dfd8c2)" style="fill: #1f77b4"/>
   </g>
   <g id="patch_271">
    <path d="M 258.128261 268.321635 
L 261.763824 268.321635 
L 261.763824 226.475331 
L 258.128261 226.475331 
z
" clip-path="url(#pbdd3dfd8c2)" style="fill: #1f77b4"/>
   </g>
   <g id="patch_272">
    <path d="M 261.763824 268.321635 
L 265.399388 268.321635 
L 265.399388 225.995258 
L 261.763824 225.995258 
z
" clip-path="url(#pbdd3dfd8c2)" style="fill: #1f77b4"/>
   </g>
   <g id="patch_273">
    <path d="M 265.399388 268.321635 
L 269.034952 268.321635 
L 269.034952 227.435475 
L 265.399388 227.435475 
z
" clip-path="url(#pbdd3dfd8c2)" style="fill: #1f77b4"/>
   </g>
   <g id="patch_274">
    <path d="M 269.034952 268.321635 
L 272.670516 268.321635 
L 272.670516 228.555644 
L 269.034952 228.555644 
z
" clip-path="url(#pbdd3dfd8c2)" style="fill: #1f77b4"/>
   </g>
   <g id="patch_275">
    <path d="M 272.670516 268.321635 
L 276.30608 268.321635 
L 276.30608 229.035716 
L 272.670516 229.035716 
z
" clip-path="url(#pbdd3dfd8c2)" style="fill: #1f77b4"/>
   </g>
   <g id="patch_276">
    <path d="M 276.30608 268.321635 
L 279.941643 268.321635 
L 279.941643 226.555343 
L 276.30608 226.555343 
z
" clip-path="url(#pbdd3dfd8c2)" style="fill: #1f77b4"/>
   </g>
   <g id="patch_277">
    <path d="M 279.941643 268.321635 
L 283.577207 268.321635 
L 283.577207 227.99556 
L 279.941643 227.99556 
z
" clip-path="url(#pbdd3dfd8c2)" style="fill: #1f77b4"/>
   </g>
   <g id="patch_278">
    <path d="M 283.577207 268.321635 
L 287.212771 268.321635 
L 287.212771 227.035415 
L 283.577207 227.035415 
z
" clip-path="url(#pbdd3dfd8c2)" style="fill: #1f77b4"/>
   </g>
   <g id="patch_279">
    <path d="M 287.212771 268.321635 
L 290.848335 268.321635 
L 290.848335 230.555945 
L 287.212771 230.555945 
z
" clip-path="url(#pbdd3dfd8c2)" style="fill: #1f77b4"/>
   </g>
   <g id="patch_280">
    <path d="M 290.848335 268.321635 
L 294.483899 268.321635 
L 294.483899 228.315608 
L 290.848335 228.315608 
z
" clip-path="url(#pbdd3dfd8c2)" style="fill: #1f77b4"/>
   </g>
   <g id="patch_281">
    <path d="M 294.483899 268.321635 
L 298.119463 268.321635 
L 298.119463 227.035415 
L 294.483899 227.035415 
z
" clip-path="url(#pbdd3dfd8c2)" style="fill: #1f77b4"/>
   </g>
   <g id="patch_282">
    <path d="M 298.119463 268.321635 
L 301.755026 268.321635 
L 301.755026 227.115427 
L 298.119463 227.115427 
z
" clip-path="url(#pbdd3dfd8c2)" style="fill: #1f77b4"/>
   </g>
   <g id="patch_283">
    <path d="M 301.755026 268.321635 
L 305.39059 268.321635 
L 305.39059 227.595499 
L 301.755026 227.595499 
z
" clip-path="url(#pbdd3dfd8c2)" style="fill: #1f77b4"/>
   </g>
   <g id="patch_284">
    <path d="M 305.39059 268.321635 
L 309.026154 268.321635 
L 309.026154 229.19574 
L 305.39059 229.19574 
z
" clip-path="url(#pbdd3dfd8c2)" style="fill: #1f77b4"/>
   </g>
   <g id="patch_285">
    <path d="M 309.026154 268.321635 
L 312.661718 268.321635 
L 312.661718 230.075873 
L 309.026154 230.075873 
z
" clip-path="url(#pbdd3dfd8c2)" style="fill: #1f77b4"/>
   </g>
   <g id="patch_286">
    <path d="M 312.661718 268.321635 
L 316.297282 268.321635 
L 316.297282 227.99556 
L 312.661718 227.99556 
z
" clip-path="url(#pbdd3dfd8c2)" style="fill: #1f77b4"/>
   </g>
   <g id="patch_287">
    <path d="M 316.297282 268.321635 
L 319.932845 268.321635 
L 319.932845 231.51609 
L 316.297282 231.51609 
z
" clip-path="url(#pbdd3dfd8c2)" style="fill: #1f77b4"/>
   </g>
   <g id="patch_288">
    <path d="M 319.932845 268.321635 
L 323.568409 268.321635 
L 323.568409 227.755523 
L 319.932845 227.755523 
z
" clip-path="url(#pbdd3dfd8c2)" style="fill: #1f77b4"/>
   </g>
   <g id="patch_289">
    <path d="M 323.568409 268.321635 
L 327.203973 268.321635 
L 327.203973 227.755523 
L 323.568409 227.755523 
z
" clip-path="url(#pbdd3dfd8c2)" style="fill: #1f77b4"/>
   </g>
   <g id="patch_290">
    <path d="M 327.203973 268.321635 
L 330.839537 268.321635 
L 330.839537 229.915849 
L 327.203973 229.915849 
z
" clip-path="url(#pbdd3dfd8c2)" style="fill: #1f77b4"/>
   </g>
   <g id="patch_291">
    <path d="M 330.839537 268.321635 
L 334.475101 268.321635 
L 334.475101 228.79568 
L 330.839537 228.79568 
z
" clip-path="url(#pbdd3dfd8c2)" style="fill: #1f77b4"/>
   </g>
   <g id="patch_292">
    <path d="M 334.475101 268.321635 
L 338.110665 268.321635 
L 338.110665 229.115728 
L 334.475101 229.115728 
z
" clip-path="url(#pbdd3dfd8c2)" style="fill: #1f77b4"/>
   </g>
   <g id="patch_293">
    <path d="M 338.110665 268.321635 
L 341.746228 268.321635 
L 341.746228 228.39562 
L 338.110665 228.39562 
z
" clip-path="url(#pbdd3dfd8c2)" style="fill: #1f77b4"/>
   </g>
   <g id="patch_294">
    <path d="M 341.746228 268.321635 
L 345.381792 268.321635 
L 345.381792 229.995861 
L 341.746228 229.995861 
z
" clip-path="url(#pbdd3dfd8c2)" style="fill: #1f77b4"/>
   </g>
   <g id="patch_295">
    <path d="M 345.381792 268.321635 
L 349.017356 268.321635 
L 349.017356 230.475933 
L 345.381792 230.475933 
z
" clip-path="url(#pbdd3dfd8c2)" style="fill: #1f77b4"/>
   </g>
   <g id="patch_296">
    <path d="M 349.017356 268.321635 
L 352.65292 268.321635 
L 352.65292 227.675511 
L 349.017356 227.675511 
z
" clip-path="url(#pbdd3dfd8c2)" style="fill: #1f77b4"/>
   </g>
   <g id="patch_297">
    <path d="M 352.65292 268.321635 
L 356.288484 268.321635 
L 356.288484 227.435475 
L 352.65292 227.435475 
z
" clip-path="url(#pbdd3dfd8c2)" style="fill: #1f77b4"/>
   </g>
   <g id="patch_298">
    <path d="M 356.288484 268.321635 
L 359.924047 268.321635 
L 359.924047 228.315608 
L 356.288484 228.315608 
z
" clip-path="url(#pbdd3dfd8c2)" style="fill: #1f77b4"/>
   </g>
   <g id="patch_299">
    <path d="M 359.924047 268.321635 
L 363.559611 268.321635 
L 363.559611 226.795379 
L 359.924047 226.795379 
z
" clip-path="url(#pbdd3dfd8c2)" style="fill: #1f77b4"/>
   </g>
   <g id="patch_300">
    <path d="M 363.559611 268.321635 
L 367.195175 268.321635 
L 367.195175 229.435777 
L 363.559611 229.435777 
z
" clip-path="url(#pbdd3dfd8c2)" style="fill: #1f77b4"/>
   </g>
   <g id="patch_301">
    <path d="M 367.195175 268.321635 
L 370.830739 268.321635 
L 370.830739 230.475933 
L 367.195175 230.475933 
z
" clip-path="url(#pbdd3dfd8c2)" style="fill: #1f77b4"/>
   </g>
   <g id="patch_302">
    <path d="M 370.830739 268.321635 
L 374.466303 268.321635 
L 374.466303 228.075572 
L 370.830739 228.075572 
z
" clip-path="url(#pbdd3dfd8c2)" style="fill: #1f77b4"/>
   </g>
   <g id="patch_303">
    <path d="M 374.466303 268.321635 
L 378.101867 268.321635 
L 378.101867 229.915849 
L 374.466303 229.915849 
z
" clip-path="url(#pbdd3dfd8c2)" style="fill: #1f77b4"/>
   </g>
   <g id="patch_304">
    <path d="M 378.101867 268.321635 
L 381.73743 268.321635 
L 381.73743 227.355463 
L 378.101867 227.355463 
z
" clip-path="url(#pbdd3dfd8c2)" style="fill: #1f77b4"/>
   </g>
   <g id="patch_305">
    <path d="M 381.73743 268.321635 
L 385.372994 268.321635 
L 385.372994 230.395921 
L 381.73743 230.395921 
z
" clip-path="url(#pbdd3dfd8c2)" style="fill: #1f77b4"/>
   </g>
   <g id="patch_306">
    <path d="M 385.372994 268.321635 
L 389.008558 268.321635 
L 389.008558 231.196042 
L 385.372994 231.196042 
z
" clip-path="url(#pbdd3dfd8c2)" style="fill: #1f77b4"/>
   </g>
   <g id="patch_307">
    <path d="M 389.008558 268.321635 
L 392.644122 268.321635 
L 392.644122 228.875692 
L 389.008558 228.875692 
z
" clip-path="url(#pbdd3dfd8c2)" style="fill: #1f77b4"/>
   </g>
   <g id="patch_308">
    <path d="M 392.644122 268.321635 
L 396.279686 268.321635 
L 396.279686 231.196042 
L 392.644122 231.196042 
z
" clip-path="url(#pbdd3dfd8c2)" style="fill: #1f77b4"/>
   </g>
   <g id="patch_309">
    <path d="M 396.279686 268.321635 
L 399.915249 268.321635 
L 399.915249 231.036018 
L 396.279686 231.036018 
z
" clip-path="url(#pbdd3dfd8c2)" style="fill: #1f77b4"/>
   </g>
   <g id="patch_310">
    <path d="M 399.915249 268.321635 
L 403.550813 268.321635 
L 403.550813 233.916452 
L 399.915249 233.916452 
z
" clip-path="url(#pbdd3dfd8c2)" style="fill: #1f77b4"/>
   </g>
   <g id="patch_311">
    <path d="M 403.550813 268.321635 
L 407.186377 268.321635 
L 407.186377 232.876295 
L 403.550813 232.876295 
z
" clip-path="url(#pbdd3dfd8c2)" style="fill: #1f77b4"/>
   </g>
   <g id="patch_312">
    <path d="M 407.186377 268.321635 
L 410.821941 268.321635 
L 410.821941 231.756126 
L 407.186377 231.756126 
z
" clip-path="url(#pbdd3dfd8c2)" style="fill: #1f77b4"/>
   </g>
   <g id="matplotlib.axis_5">
    <g id="xtick_19">
     <g id="line2d_23">
      <g>
       <use xlink:href="#mfc5df9f0f9" x="47.263562" y="268.321635" style="stroke: #000000; stroke-width: 0.8"/>
      </g>
     </g>
     <g id="text_25">
      <!-- −10000 -->
      <g transform="translate(27.167469 282.920073)scale(0.1 -0.1)">
       <use xlink:href="#DejaVuSans-2212"/>
       <use xlink:href="#DejaVuSans-31" x="83.789062"/>
       <use xlink:href="#DejaVuSans-30" x="147.412109"/>
       <use xlink:href="#DejaVuSans-30" x="211.035156"/>
       <use xlink:href="#DejaVuSans-30" x="274.658203"/>
       <use xlink:href="#DejaVuSans-30" x="338.28125"/>
      </g>
     </g>
    </g>
    <g id="xtick_20">
     <g id="line2d_24">
      <g>
       <use xlink:href="#mfc5df9f0f9" x="92.709612" y="268.321635" style="stroke: #000000; stroke-width: 0.8"/>
      </g>
     </g>
     <g id="text_26">
      <!-- −7500 -->
      <g transform="translate(75.794768 282.920073)scale(0.1 -0.1)">
       <use xlink:href="#DejaVuSans-2212"/>
       <use xlink:href="#DejaVuSans-37" x="83.789062"/>
       <use xlink:href="#DejaVuSans-35" x="147.412109"/>
       <use xlink:href="#DejaVuSans-30" x="211.035156"/>
       <use xlink:href="#DejaVuSans-30" x="274.658203"/>
      </g>
     </g>
    </g>
    <g id="xtick_21">
     <g id="line2d_25">
      <g>
       <use xlink:href="#mfc5df9f0f9" x="138.155662" y="268.321635" style="stroke: #000000; stroke-width: 0.8"/>
      </g>
     </g>
     <g id="text_27">
      <!-- −5000 -->
      <g transform="translate(121.240818 282.920073)scale(0.1 -0.1)">
       <use xlink:href="#DejaVuSans-2212"/>
       <use xlink:href="#DejaVuSans-35" x="83.789062"/>
       <use xlink:href="#DejaVuSans-30" x="147.412109"/>
       <use xlink:href="#DejaVuSans-30" x="211.035156"/>
       <use xlink:href="#DejaVuSans-30" x="274.658203"/>
      </g>
     </g>
    </g>
    <g id="xtick_22">
     <g id="line2d_26">
      <g>
       <use xlink:href="#mfc5df9f0f9" x="183.601711" y="268.321635" style="stroke: #000000; stroke-width: 0.8"/>
      </g>
     </g>
     <g id="text_28">
      <!-- −2500 -->
      <g transform="translate(166.686867 282.920073)scale(0.1 -0.1)">
       <use xlink:href="#DejaVuSans-2212"/>
       <use xlink:href="#DejaVuSans-32" x="83.789062"/>
       <use xlink:href="#DejaVuSans-35" x="147.412109"/>
       <use xlink:href="#DejaVuSans-30" x="211.035156"/>
       <use xlink:href="#DejaVuSans-30" x="274.658203"/>
      </g>
     </g>
    </g>
    <g id="xtick_23">
     <g id="line2d_27">
      <g>
       <use xlink:href="#mfc5df9f0f9" x="229.047761" y="268.321635" style="stroke: #000000; stroke-width: 0.8"/>
      </g>
     </g>
     <g id="text_29">
      <!-- 0 -->
      <g transform="translate(225.866511 282.920073)scale(0.1 -0.1)">
       <use xlink:href="#DejaVuSans-30"/>
      </g>
     </g>
    </g>
    <g id="xtick_24">
     <g id="line2d_28">
      <g>
       <use xlink:href="#mfc5df9f0f9" x="274.49381" y="268.321635" style="stroke: #000000; stroke-width: 0.8"/>
      </g>
     </g>
     <g id="text_30">
      <!-- 2500 -->
      <g transform="translate(261.76881 282.920073)scale(0.1 -0.1)">
       <use xlink:href="#DejaVuSans-32"/>
       <use xlink:href="#DejaVuSans-35" x="63.623047"/>
       <use xlink:href="#DejaVuSans-30" x="127.246094"/>
       <use xlink:href="#DejaVuSans-30" x="190.869141"/>
      </g>
     </g>
    </g>
    <g id="xtick_25">
     <g id="line2d_29">
      <g>
       <use xlink:href="#mfc5df9f0f9" x="319.93986" y="268.321635" style="stroke: #000000; stroke-width: 0.8"/>
      </g>
     </g>
     <g id="text_31">
      <!-- 5000 -->
      <g transform="translate(307.21486 282.920073)scale(0.1 -0.1)">
       <use xlink:href="#DejaVuSans-35"/>
       <use xlink:href="#DejaVuSans-30" x="63.623047"/>
       <use xlink:href="#DejaVuSans-30" x="127.246094"/>
       <use xlink:href="#DejaVuSans-30" x="190.869141"/>
      </g>
     </g>
    </g>
    <g id="xtick_26">
     <g id="line2d_30">
      <g>
       <use xlink:href="#mfc5df9f0f9" x="365.385909" y="268.321635" style="stroke: #000000; stroke-width: 0.8"/>
      </g>
     </g>
     <g id="text_32">
      <!-- 7500 -->
      <g transform="translate(352.660909 282.920073)scale(0.1 -0.1)">
       <use xlink:href="#DejaVuSans-37"/>
       <use xlink:href="#DejaVuSans-35" x="63.623047"/>
       <use xlink:href="#DejaVuSans-30" x="127.246094"/>
       <use xlink:href="#DejaVuSans-30" x="190.869141"/>
      </g>
     </g>
    </g>
    <g id="xtick_27">
     <g id="line2d_31">
      <g>
       <use xlink:href="#mfc5df9f0f9" x="410.831959" y="268.321635" style="stroke: #000000; stroke-width: 0.8"/>
      </g>
     </g>
     <g id="text_33">
      <!-- 10000 -->
      <g transform="translate(394.925709 282.920073)scale(0.1 -0.1)">
       <use xlink:href="#DejaVuSans-31"/>
       <use xlink:href="#DejaVuSans-30" x="63.623047"/>
       <use xlink:href="#DejaVuSans-30" x="127.246094"/>
       <use xlink:href="#DejaVuSans-30" x="190.869141"/>
       <use xlink:href="#DejaVuSans-30" x="254.492188"/>
      </g>
     </g>
    </g>
   </g>
   <g id="matplotlib.axis_6">
    <g id="ytick_5">
     <g id="line2d_32">
      <g>
       <use xlink:href="#m03076dde8c" x="29.08774" y="268.321635" style="stroke: #000000; stroke-width: 0.8"/>
      </g>
     </g>
     <g id="text_34">
      <!-- 0 -->
      <g transform="translate(15.72524 272.120854)scale(0.1 -0.1)">
       <use xlink:href="#DejaVuSans-30"/>
      </g>
     </g>
    </g>
    <g id="ytick_6">
     <g id="line2d_33">
      <g>
       <use xlink:href="#m03076dde8c" x="29.08774" y="228.315608" style="stroke: #000000; stroke-width: 0.8"/>
      </g>
     </g>
     <g id="text_35">
      <!-- 500 -->
      <g transform="translate(3.00024 232.114827)scale(0.1 -0.1)">
       <use xlink:href="#DejaVuSans-35"/>
       <use xlink:href="#DejaVuSans-30" x="63.623047"/>
       <use xlink:href="#DejaVuSans-30" x="127.246094"/>
      </g>
     </g>
    </g>
   </g>
   <g id="patch_313">
    <path d="M 29.08774 268.321635 
L 29.08774 216.149775 
" style="fill: none; stroke: #000000; stroke-width: 0.8; stroke-linejoin: miter; stroke-linecap: square"/>
   </g>
   <g id="patch_314">
    <path d="M 428.99976 268.321635 
L 428.99976 216.149775 
" style="fill: none; stroke: #000000; stroke-width: 0.8; stroke-linejoin: miter; stroke-linecap: square"/>
   </g>
   <g id="patch_315">
    <path d="M 29.08774 268.321635 
L 428.99976 268.321635 
" style="fill: none; stroke: #000000; stroke-width: 0.8; stroke-linejoin: miter; stroke-linecap: square"/>
   </g>
   <g id="patch_316">
    <path d="M 29.08774 216.149775 
L 428.99976 216.149775 
" style="fill: none; stroke: #000000; stroke-width: 0.8; stroke-linejoin: miter; stroke-linecap: square"/>
   </g>
   <g id="text_36">
    <!-- $A_\tau$ -->
    <g transform="translate(222.20375 210.149775)scale(0.12 -0.12)">
     <defs>
      <path id="DejaVuSans-Oblique-3c4" d="M 2103 638 
Q 2188 488 2525 488 
L 2800 488 
L 2706 0 
L 2363 0 
Q 1800 0 1600 300 
Q 1403 606 1534 1269 
L 1856 2925 
L 541 2925 
L 653 3500 
L 3881 3500 
L 3769 2925 
L 2444 2925 
L 2113 1234 
Q 2025 781 2103 638 
z
" transform="scale(0.015625)"/>
     </defs>
     <use xlink:href="#DejaVuSans-Oblique-41" transform="translate(0 0.09375)"/>
     <use xlink:href="#DejaVuSans-Oblique-3c4" transform="translate(68.408203 -16.3125)scale(0.7)"/>
    </g>
   </g>
  </g>
  <g id="text_37">
   <!-- Histogramme des paramètres A -->
   <g transform="translate(120.220313 12.598365)scale(0.12 -0.12)">
    <defs>
     <path id="DejaVuSans-48" d="M 628 4666 
L 1259 4666 
L 1259 2753 
L 3553 2753 
L 3553 4666 
L 4184 4666 
L 4184 0 
L 3553 0 
L 3553 2222 
L 1259 2222 
L 1259 0 
L 628 0 
L 628 4666 
z
" transform="scale(0.015625)"/>
     <path id="DejaVuSans-69" d="M 603 3500 
L 1178 3500 
L 1178 0 
L 603 0 
L 603 3500 
z
M 603 4863 
L 1178 4863 
L 1178 4134 
L 603 4134 
L 603 4863 
z
" transform="scale(0.015625)"/>
     <path id="DejaVuSans-73" d="M 2834 3397 
L 2834 2853 
Q 2591 2978 2328 3040 
Q 2066 3103 1784 3103 
Q 1356 3103 1142 2972 
Q 928 2841 928 2578 
Q 928 2378 1081 2264 
Q 1234 2150 1697 2047 
L 1894 2003 
Q 2506 1872 2764 1633 
Q 3022 1394 3022 966 
Q 3022 478 2636 193 
Q 2250 -91 1575 -91 
Q 1294 -91 989 -36 
Q 684 19 347 128 
L 347 722 
Q 666 556 975 473 
Q 1284 391 1588 391 
Q 1994 391 2212 530 
Q 2431 669 2431 922 
Q 2431 1156 2273 1281 
Q 2116 1406 1581 1522 
L 1381 1569 
Q 847 1681 609 1914 
Q 372 2147 372 2553 
Q 372 3047 722 3315 
Q 1072 3584 1716 3584 
Q 2034 3584 2315 3537 
Q 2597 3491 2834 3397 
z
" transform="scale(0.015625)"/>
     <path id="DejaVuSans-74" d="M 1172 4494 
L 1172 3500 
L 2356 3500 
L 2356 3053 
L 1172 3053 
L 1172 1153 
Q 1172 725 1289 603 
Q 1406 481 1766 481 
L 2356 481 
L 2356 0 
L 1766 0 
Q 1100 0 847 248 
Q 594 497 594 1153 
L 594 3053 
L 172 3053 
L 172 3500 
L 594 3500 
L 594 4494 
L 1172 4494 
z
" transform="scale(0.015625)"/>
     <path id="DejaVuSans-6f" d="M 1959 3097 
Q 1497 3097 1228 2736 
Q 959 2375 959 1747 
Q 959 1119 1226 758 
Q 1494 397 1959 397 
Q 2419 397 2687 759 
Q 2956 1122 2956 1747 
Q 2956 2369 2687 2733 
Q 2419 3097 1959 3097 
z
M 1959 3584 
Q 2709 3584 3137 3096 
Q 3566 2609 3566 1747 
Q 3566 888 3137 398 
Q 2709 -91 1959 -91 
Q 1206 -91 779 398 
Q 353 888 353 1747 
Q 353 2609 779 3096 
Q 1206 3584 1959 3584 
z
" transform="scale(0.015625)"/>
     <path id="DejaVuSans-67" d="M 2906 1791 
Q 2906 2416 2648 2759 
Q 2391 3103 1925 3103 
Q 1463 3103 1205 2759 
Q 947 2416 947 1791 
Q 947 1169 1205 825 
Q 1463 481 1925 481 
Q 2391 481 2648 825 
Q 2906 1169 2906 1791 
z
M 3481 434 
Q 3481 -459 3084 -895 
Q 2688 -1331 1869 -1331 
Q 1566 -1331 1297 -1286 
Q 1028 -1241 775 -1147 
L 775 -588 
Q 1028 -725 1275 -790 
Q 1522 -856 1778 -856 
Q 2344 -856 2625 -561 
Q 2906 -266 2906 331 
L 2906 616 
Q 2728 306 2450 153 
Q 2172 0 1784 0 
Q 1141 0 747 490 
Q 353 981 353 1791 
Q 353 2603 747 3093 
Q 1141 3584 1784 3584 
Q 2172 3584 2450 3431 
Q 2728 3278 2906 2969 
L 2906 3500 
L 3481 3500 
L 3481 434 
z
" transform="scale(0.015625)"/>
     <path id="DejaVuSans-72" d="M 2631 2963 
Q 2534 3019 2420 3045 
Q 2306 3072 2169 3072 
Q 1681 3072 1420 2755 
Q 1159 2438 1159 1844 
L 1159 0 
L 581 0 
L 581 3500 
L 1159 3500 
L 1159 2956 
Q 1341 3275 1631 3429 
Q 1922 3584 2338 3584 
Q 2397 3584 2469 3576 
Q 2541 3569 2628 3553 
L 2631 2963 
z
" transform="scale(0.015625)"/>
     <path id="DejaVuSans-61" d="M 2194 1759 
Q 1497 1759 1228 1600 
Q 959 1441 959 1056 
Q 959 750 1161 570 
Q 1363 391 1709 391 
Q 2188 391 2477 730 
Q 2766 1069 2766 1631 
L 2766 1759 
L 2194 1759 
z
M 3341 1997 
L 3341 0 
L 2766 0 
L 2766 531 
Q 2569 213 2275 61 
Q 1981 -91 1556 -91 
Q 1019 -91 701 211 
Q 384 513 384 1019 
Q 384 1609 779 1909 
Q 1175 2209 1959 2209 
L 2766 2209 
L 2766 2266 
Q 2766 2663 2505 2880 
Q 2244 3097 1772 3097 
Q 1472 3097 1187 3025 
Q 903 2953 641 2809 
L 641 3341 
Q 956 3463 1253 3523 
Q 1550 3584 1831 3584 
Q 2591 3584 2966 3190 
Q 3341 2797 3341 1997 
z
" transform="scale(0.015625)"/>
     <path id="DejaVuSans-6d" d="M 3328 2828 
Q 3544 3216 3844 3400 
Q 4144 3584 4550 3584 
Q 5097 3584 5394 3201 
Q 5691 2819 5691 2113 
L 5691 0 
L 5113 0 
L 5113 2094 
Q 5113 2597 4934 2840 
Q 4756 3084 4391 3084 
Q 3944 3084 3684 2787 
Q 3425 2491 3425 1978 
L 3425 0 
L 2847 0 
L 2847 2094 
Q 2847 2600 2669 2842 
Q 2491 3084 2119 3084 
Q 1678 3084 1418 2786 
Q 1159 2488 1159 1978 
L 1159 0 
L 581 0 
L 581 3500 
L 1159 3500 
L 1159 2956 
Q 1356 3278 1631 3431 
Q 1906 3584 2284 3584 
Q 2666 3584 2933 3390 
Q 3200 3197 3328 2828 
z
" transform="scale(0.015625)"/>
     <path id="DejaVuSans-65" d="M 3597 1894 
L 3597 1613 
L 953 1613 
Q 991 1019 1311 708 
Q 1631 397 2203 397 
Q 2534 397 2845 478 
Q 3156 559 3463 722 
L 3463 178 
Q 3153 47 2828 -22 
Q 2503 -91 2169 -91 
Q 1331 -91 842 396 
Q 353 884 353 1716 
Q 353 2575 817 3079 
Q 1281 3584 2069 3584 
Q 2775 3584 3186 3129 
Q 3597 2675 3597 1894 
z
M 3022 2063 
Q 3016 2534 2758 2815 
Q 2500 3097 2075 3097 
Q 1594 3097 1305 2825 
Q 1016 2553 972 2059 
L 3022 2063 
z
" transform="scale(0.015625)"/>
     <path id="DejaVuSans-20" transform="scale(0.015625)"/>
     <path id="DejaVuSans-64" d="M 2906 2969 
L 2906 4863 
L 3481 4863 
L 3481 0 
L 2906 0 
L 2906 525 
Q 2725 213 2448 61 
Q 2172 -91 1784 -91 
Q 1150 -91 751 415 
Q 353 922 353 1747 
Q 353 2572 751 3078 
Q 1150 3584 1784 3584 
Q 2172 3584 2448 3432 
Q 2725 3281 2906 2969 
z
M 947 1747 
Q 947 1113 1208 752 
Q 1469 391 1925 391 
Q 2381 391 2643 752 
Q 2906 1113 2906 1747 
Q 2906 2381 2643 2742 
Q 2381 3103 1925 3103 
Q 1469 3103 1208 2742 
Q 947 2381 947 1747 
z
" transform="scale(0.015625)"/>
     <path id="DejaVuSans-70" d="M 1159 525 
L 1159 -1331 
L 581 -1331 
L 581 3500 
L 1159 3500 
L 1159 2969 
Q 1341 3281 1617 3432 
Q 1894 3584 2278 3584 
Q 2916 3584 3314 3078 
Q 3713 2572 3713 1747 
Q 3713 922 3314 415 
Q 2916 -91 2278 -91 
Q 1894 -91 1617 61 
Q 1341 213 1159 525 
z
M 3116 1747 
Q 3116 2381 2855 2742 
Q 2594 3103 2138 3103 
Q 1681 3103 1420 2742 
Q 1159 2381 1159 1747 
Q 1159 1113 1420 752 
Q 1681 391 2138 391 
Q 2594 391 2855 752 
Q 3116 1113 3116 1747 
z
" transform="scale(0.015625)"/>
     <path id="DejaVuSans-e8" d="M 3597 1894 
L 3597 1613 
L 953 1613 
Q 991 1019 1311 708 
Q 1631 397 2203 397 
Q 2534 397 2845 478 
Q 3156 559 3463 722 
L 3463 178 
Q 3153 47 2828 -22 
Q 2503 -91 2169 -91 
Q 1331 -91 842 396 
Q 353 884 353 1716 
Q 353 2575 817 3079 
Q 1281 3584 2069 3584 
Q 2775 3584 3186 3129 
Q 3597 2675 3597 1894 
z
M 3022 2063 
Q 3016 2534 2758 2815 
Q 2500 3097 2075 3097 
Q 1594 3097 1305 2825 
Q 1016 2553 972 2059 
L 3022 2063 
z
M 1579 5119 
L 2460 3950 
L 1982 3950 
L 963 5119 
L 1579 5119 
z
" transform="scale(0.015625)"/>
     <path id="DejaVuSans-41" d="M 2188 4044 
L 1331 1722 
L 3047 1722 
L 2188 4044 
z
M 1831 4666 
L 2547 4666 
L 4325 0 
L 3669 0 
L 3244 1197 
L 1141 1197 
L 716 0 
L 50 0 
L 1831 4666 
z
" transform="scale(0.015625)"/>
    </defs>
    <use xlink:href="#DejaVuSans-48"/>
    <use xlink:href="#DejaVuSans-69" x="75.195312"/>
    <use xlink:href="#DejaVuSans-73" x="102.978516"/>
    <use xlink:href="#DejaVuSans-74" x="155.078125"/>
    <use xlink:href="#DejaVuSans-6f" x="194.287109"/>
    <use xlink:href="#DejaVuSans-67" x="255.46875"/>
    <use xlink:href="#DejaVuSans-72" x="318.945312"/>
    <use xlink:href="#DejaVuSans-61" x="360.058594"/>
    <use xlink:href="#DejaVuSans-6d" x="421.337891"/>
    <use xlink:href="#DejaVuSans-6d" x="518.75"/>
    <use xlink:href="#DejaVuSans-65" x="616.162109"/>
    <use xlink:href="#DejaVuSans-20" x="677.685547"/>
    <use xlink:href="#DejaVuSans-64" x="709.472656"/>
    <use xlink:href="#DejaVuSans-65" x="772.949219"/>
    <use xlink:href="#DejaVuSans-73" x="834.472656"/>
    <use xlink:href="#DejaVuSans-20" x="886.572266"/>
    <use xlink:href="#DejaVuSans-70" x="918.359375"/>
    <use xlink:href="#DejaVuSans-61" x="981.835938"/>
    <use xlink:href="#DejaVuSans-72" x="1043.115234"/>
    <use xlink:href="#DejaVuSans-61" x="1084.228516"/>
    <use xlink:href="#DejaVuSans-6d" x="1145.507812"/>
    <use xlink:href="#DejaVuSans-e8" x="1242.919922"/>
    <use xlink:href="#DejaVuSans-74" x="1304.443359"/>
    <use xlink:href="#DejaVuSans-72" x="1343.652344"/>
    <use xlink:href="#DejaVuSans-65" x="1382.515625"/>
    <use xlink:href="#DejaVuSans-73" x="1444.039062"/>
    <use xlink:href="#DejaVuSans-20" x="1496.138672"/>
    <use xlink:href="#DejaVuSans-41" x="1527.925781"/>
   </g>
  </g>
  <g id="text_38">
   <!-- Masse (GeV) -->
   <g transform="translate(184.474219 302.4)scale(0.1 -0.1)">
    <defs>
     <path id="DejaVuSans-4d" d="M 628 4666 
L 1569 4666 
L 2759 1491 
L 3956 4666 
L 4897 4666 
L 4897 0 
L 4281 0 
L 4281 4097 
L 3078 897 
L 2444 897 
L 1241 4097 
L 1241 0 
L 628 0 
L 628 4666 
z
" transform="scale(0.015625)"/>
     <path id="DejaVuSans-28" d="M 1984 4856 
Q 1566 4138 1362 3434 
Q 1159 2731 1159 2009 
Q 1159 1288 1364 580 
Q 1569 -128 1984 -844 
L 1484 -844 
Q 1016 -109 783 600 
Q 550 1309 550 2009 
Q 550 2706 781 3412 
Q 1013 4119 1484 4856 
L 1984 4856 
z
" transform="scale(0.015625)"/>
     <path id="DejaVuSans-47" d="M 3809 666 
L 3809 1919 
L 2778 1919 
L 2778 2438 
L 4434 2438 
L 4434 434 
Q 4069 175 3628 42 
Q 3188 -91 2688 -91 
Q 1594 -91 976 548 
Q 359 1188 359 2328 
Q 359 3472 976 4111 
Q 1594 4750 2688 4750 
Q 3144 4750 3555 4637 
Q 3966 4525 4313 4306 
L 4313 3634 
Q 3963 3931 3569 4081 
Q 3175 4231 2741 4231 
Q 1884 4231 1454 3753 
Q 1025 3275 1025 2328 
Q 1025 1384 1454 906 
Q 1884 428 2741 428 
Q 3075 428 3337 486 
Q 3600 544 3809 666 
z
" transform="scale(0.015625)"/>
     <path id="DejaVuSans-56" d="M 1831 0 
L 50 4666 
L 709 4666 
L 2188 738 
L 3669 4666 
L 4325 4666 
L 2547 0 
L 1831 0 
z
" transform="scale(0.015625)"/>
     <path id="DejaVuSans-29" d="M 513 4856 
L 1013 4856 
Q 1481 4119 1714 3412 
Q 1947 2706 1947 2009 
Q 1947 1309 1714 600 
Q 1481 -109 1013 -844 
L 513 -844 
Q 928 -128 1133 580 
Q 1338 1288 1338 2009 
Q 1338 2731 1133 3434 
Q 928 4138 513 4856 
z
" transform="scale(0.015625)"/>
    </defs>
    <use xlink:href="#DejaVuSans-4d"/>
    <use xlink:href="#DejaVuSans-61" x="86.279297"/>
    <use xlink:href="#DejaVuSans-73" x="147.558594"/>
    <use xlink:href="#DejaVuSans-73" x="199.658203"/>
    <use xlink:href="#DejaVuSans-65" x="251.757812"/>
    <use xlink:href="#DejaVuSans-20" x="313.28125"/>
    <use xlink:href="#DejaVuSans-28" x="345.068359"/>
    <use xlink:href="#DejaVuSans-47" x="384.082031"/>
    <use xlink:href="#DejaVuSans-65" x="461.572266"/>
    <use xlink:href="#DejaVuSans-56" x="523.095703"/>
    <use xlink:href="#DejaVuSans-29" x="591.503906"/>
   </g>
  </g>
  <g id="text_39">
   <!-- N -->
   <g transform="translate(-9.681563 147.740625)rotate(-90)scale(0.1 -0.1)">
    <defs>
     <path id="DejaVuSans-4e" d="M 628 4666 
L 1478 4666 
L 3547 763 
L 3547 4666 
L 4159 4666 
L 4159 0 
L 3309 0 
L 1241 3903 
L 1241 0 
L 628 0 
L 628 4666 
z
" transform="scale(0.015625)"/>
    </defs>
    <use xlink:href="#DejaVuSans-4e"/>
   </g>
  </g>
 </g>
 <defs>
  <clipPath id="p77bfc0284b">
   <rect x="29.08774" y="36.212595" width="399.91202" height="52.17186"/>
  </clipPath>
  <clipPath id="p2fbbf55760">
   <rect x="29.08774" y="126.181185" width="399.91202" height="52.17186"/>
  </clipPath>
  <clipPath id="pbdd3dfd8c2">
   <rect x="29.08774" y="216.149775" width="399.91202" height="52.17186"/>
  </clipPath>
 </defs>
</svg>
