<?xml version="1.0" encoding="utf-8" standalone="no"?>
<!DOCTYPE svg PUBLIC "-//W3C//DTD SVG 1.1//EN"
  "http://www.w3.org/Graphics/SVG/1.1/DTD/svg11.dtd">
<svg xmlns:xlink="http://www.w3.org/1999/xlink" width="432pt" height="288pt" viewBox="0 0 432 288" xmlns="http://www.w3.org/2000/svg" version="1.1">
 <metadata>
  <rdf:RDF xmlns:dc="http://purl.org/dc/elements/1.1/" xmlns:cc="http://creativecommons.org/ns#" xmlns:rdf="http://www.w3.org/1999/02/22-rdf-syntax-ns#">
   <cc:Work>
    <dc:type rdf:resource="http://purl.org/dc/dcmitype/StillImage"/>
    <dc:date>2022-06-08T08:57:24.532455</dc:date>
    <dc:format>image/svg+xml</dc:format>
    <dc:creator>
     <cc:Agent>
      <dc:title>Matplotlib v3.5.0, https://matplotlib.org/</dc:title>
     </cc:Agent>
    </dc:creator>
   </cc:Work>
  </rdf:RDF>
 </metadata>
 <defs>
  <style type="text/css">*{stroke-linejoin: round; stroke-linecap: butt}</style>
 </defs>
 <g id="figure_1">
  <g id="patch_1">
   <path d="M 0 288 
L 432 288 
L 432 0 
L 0 0 
L 0 288 
z
" style="fill: none"/>
  </g>
  <g id="axes_1">
   <g id="patch_2">
    <path d="M 35.45024 133.12875 
L 428.647348 133.12875 
L 428.647348 39.57447 
L 35.45024 39.57447 
z
" style="fill: #ffffff"/>
   </g>
   <g id="patch_3">
    <path d="M 53.322836 133.12875 
L 56.897355 133.12875 
L 56.897355 93.288171 
L 53.322836 93.288171 
z
" clip-path="url(#p9e6aecec13)" style="fill: #1f77b4"/>
   </g>
   <g id="patch_4">
    <path d="M 56.897355 133.12875 
L 60.471874 133.12875 
L 60.471874 47.974399 
L 56.897355 47.974399 
z
" clip-path="url(#p9e6aecec13)" style="fill: #1f77b4"/>
   </g>
   <g id="patch_5">
    <path d="M 60.471874 133.12875 
L 64.046393 133.12875 
L 64.046393 44.029436 
L 60.471874 44.029436 
z
" clip-path="url(#p9e6aecec13)" style="fill: #1f77b4"/>
   </g>
   <g id="patch_6">
    <path d="M 64.046393 133.12875 
L 67.620912 133.12875 
L 67.620912 46.837113 
L 64.046393 46.837113 
z
" clip-path="url(#p9e6aecec13)" style="fill: #1f77b4"/>
   </g>
   <g id="patch_7">
    <path d="M 67.620912 133.12875 
L 71.195432 133.12875 
L 71.195432 44.882401 
L 67.620912 44.882401 
z
" clip-path="url(#p9e6aecec13)" style="fill: #1f77b4"/>
   </g>
   <g id="patch_8">
    <path d="M 71.195432 133.12875 
L 74.769951 133.12875 
L 74.769951 49.111686 
L 71.195432 49.111686 
z
" clip-path="url(#p9e6aecec13)" style="fill: #1f77b4"/>
   </g>
   <g id="patch_9">
    <path d="M 74.769951 133.12875 
L 78.34447 133.12875 
L 78.34447 54.371638 
L 74.769951 54.371638 
z
" clip-path="url(#p9e6aecec13)" style="fill: #1f77b4"/>
   </g>
   <g id="patch_10">
    <path d="M 78.34447 133.12875 
L 81.918989 133.12875 
L 81.918989 60.982117 
L 78.34447 60.982117 
z
" clip-path="url(#p9e6aecec13)" style="fill: #1f77b4"/>
   </g>
   <g id="patch_11">
    <path d="M 81.918989 133.12875 
L 85.493508 133.12875 
L 85.493508 66.135448 
L 81.918989 66.135448 
z
" clip-path="url(#p9e6aecec13)" style="fill: #1f77b4"/>
   </g>
   <g id="patch_12">
    <path d="M 85.493508 133.12875 
L 89.068027 133.12875 
L 89.068027 70.329193 
L 85.493508 70.329193 
z
" clip-path="url(#p9e6aecec13)" style="fill: #1f77b4"/>
   </g>
   <g id="patch_13">
    <path d="M 89.068027 133.12875 
L 92.642547 133.12875 
L 92.642547 76.44211 
L 89.068027 76.44211 
z
" clip-path="url(#p9e6aecec13)" style="fill: #1f77b4"/>
   </g>
   <g id="patch_14">
    <path d="M 92.642547 133.12875 
L 96.217066 133.12875 
L 96.217066 80.244913 
L 92.642547 80.244913 
z
" clip-path="url(#p9e6aecec13)" style="fill: #1f77b4"/>
   </g>
   <g id="patch_15">
    <path d="M 96.217066 133.12875 
L 99.791585 133.12875 
L 99.791585 86.180128 
L 96.217066 86.180128 
z
" clip-path="url(#p9e6aecec13)" style="fill: #1f77b4"/>
   </g>
   <g id="patch_16">
    <path d="M 99.791585 133.12875 
L 103.366104 133.12875 
L 103.366104 90.764816 
L 99.791585 90.764816 
z
" clip-path="url(#p9e6aecec13)" style="fill: #1f77b4"/>
   </g>
   <g id="patch_17">
    <path d="M 103.366104 133.12875 
L 106.940623 133.12875 
L 106.940623 93.856815 
L 103.366104 93.856815 
z
" clip-path="url(#p9e6aecec13)" style="fill: #1f77b4"/>
   </g>
   <g id="patch_18">
    <path d="M 106.940623 133.12875 
L 110.515142 133.12875 
L 110.515142 94.887481 
L 106.940623 94.887481 
z
" clip-path="url(#p9e6aecec13)" style="fill: #1f77b4"/>
   </g>
   <g id="patch_19">
    <path d="M 110.515142 133.12875 
L 114.089662 133.12875 
L 114.089662 98.832444 
L 110.515142 98.832444 
z
" clip-path="url(#p9e6aecec13)" style="fill: #1f77b4"/>
   </g>
   <g id="patch_20">
    <path d="M 114.089662 133.12875 
L 117.664181 133.12875 
L 117.664181 103.417132 
L 114.089662 103.417132 
z
" clip-path="url(#p9e6aecec13)" style="fill: #1f77b4"/>
   </g>
   <g id="patch_21">
    <path d="M 117.664181 133.12875 
L 121.2387 133.12875 
L 121.2387 106.757912 
L 117.664181 106.757912 
z
" clip-path="url(#p9e6aecec13)" style="fill: #1f77b4"/>
   </g>
   <g id="patch_22">
    <path d="M 121.2387 133.12875 
L 124.813219 133.12875 
L 124.813219 109.84991 
L 121.2387 109.84991 
z
" clip-path="url(#p9e6aecec13)" style="fill: #1f77b4"/>
   </g>
   <g id="patch_23">
    <path d="M 124.813219 133.12875 
L 128.387738 133.12875 
L 128.387738 110.631795 
L 124.813219 110.631795 
z
" clip-path="url(#p9e6aecec13)" style="fill: #1f77b4"/>
   </g>
   <g id="patch_24">
    <path d="M 128.387738 133.12875 
L 131.962257 133.12875 
L 131.962257 112.799748 
L 128.387738 112.799748 
z
" clip-path="url(#p9e6aecec13)" style="fill: #1f77b4"/>
   </g>
   <g id="patch_25">
    <path d="M 131.962257 133.12875 
L 135.536776 133.12875 
L 135.536776 113.19069 
L 131.962257 113.19069 
z
" clip-path="url(#p9e6aecec13)" style="fill: #1f77b4"/>
   </g>
   <g id="patch_26">
    <path d="M 135.536776 133.12875 
L 139.111296 133.12875 
L 139.111296 113.901495 
L 135.536776 113.901495 
z
" clip-path="url(#p9e6aecec13)" style="fill: #1f77b4"/>
   </g>
   <g id="patch_27">
    <path d="M 139.111296 133.12875 
L 142.685815 133.12875 
L 142.685815 116.851332 
L 139.111296 116.851332 
z
" clip-path="url(#p9e6aecec13)" style="fill: #1f77b4"/>
   </g>
   <g id="patch_28">
    <path d="M 142.685815 133.12875 
L 146.260334 133.12875 
L 146.260334 117.277815 
L 142.685815 117.277815 
z
" clip-path="url(#p9e6aecec13)" style="fill: #1f77b4"/>
   </g>
   <g id="patch_29">
    <path d="M 146.260334 133.12875 
L 149.834853 133.12875 
L 149.834853 117.348895 
L 146.260334 117.348895 
z
" clip-path="url(#p9e6aecec13)" style="fill: #1f77b4"/>
   </g>
   <g id="patch_30">
    <path d="M 149.834853 133.12875 
L 153.409372 133.12875 
L 153.409372 118.948205 
L 149.834853 118.948205 
z
" clip-path="url(#p9e6aecec13)" style="fill: #1f77b4"/>
   </g>
   <g id="patch_31">
    <path d="M 153.409372 133.12875 
L 156.983891 133.12875 
L 156.983891 118.770504 
L 153.409372 118.770504 
z
" clip-path="url(#p9e6aecec13)" style="fill: #1f77b4"/>
   </g>
   <g id="patch_32">
    <path d="M 156.983891 133.12875 
L 160.558411 133.12875 
L 160.558411 120.334273 
L 156.983891 120.334273 
z
" clip-path="url(#p9e6aecec13)" style="fill: #1f77b4"/>
   </g>
   <g id="patch_33">
    <path d="M 160.558411 133.12875 
L 164.13293 133.12875 
L 164.13293 120.689675 
L 160.558411 120.689675 
z
" clip-path="url(#p9e6aecec13)" style="fill: #1f77b4"/>
   </g>
   <g id="patch_34">
    <path d="M 164.13293 133.12875 
L 167.707449 133.12875 
L 167.707449 121.222779 
L 164.13293 121.222779 
z
" clip-path="url(#p9e6aecec13)" style="fill: #1f77b4"/>
   </g>
   <g id="patch_35">
    <path d="M 167.707449 133.12875 
L 171.281968 133.12875 
L 171.281968 122.253445 
L 167.707449 122.253445 
z
" clip-path="url(#p9e6aecec13)" style="fill: #1f77b4"/>
   </g>
   <g id="patch_36">
    <path d="M 171.281968 133.12875 
L 174.856487 133.12875 
L 174.856487 121.826962 
L 171.281968 121.826962 
z
" clip-path="url(#p9e6aecec13)" style="fill: #1f77b4"/>
   </g>
   <g id="patch_37">
    <path d="M 174.856487 133.12875 
L 178.431006 133.12875 
L 178.431006 121.826962 
L 174.856487 121.826962 
z
" clip-path="url(#p9e6aecec13)" style="fill: #1f77b4"/>
   </g>
   <g id="patch_38">
    <path d="M 178.431006 133.12875 
L 182.005526 133.12875 
L 182.005526 122.217905 
L 178.431006 122.217905 
z
" clip-path="url(#p9e6aecec13)" style="fill: #1f77b4"/>
   </g>
   <g id="patch_39">
    <path d="M 182.005526 133.12875 
L 185.580045 133.12875 
L 185.580045 121.898043 
L 182.005526 121.898043 
z
" clip-path="url(#p9e6aecec13)" style="fill: #1f77b4"/>
   </g>
   <g id="patch_40">
    <path d="M 185.580045 133.12875 
L 189.154564 133.12875 
L 189.154564 122.715468 
L 185.580045 122.715468 
z
" clip-path="url(#p9e6aecec13)" style="fill: #1f77b4"/>
   </g>
   <g id="patch_41">
    <path d="M 189.154564 133.12875 
L 192.729083 133.12875 
L 192.729083 123.10641 
L 189.154564 123.10641 
z
" clip-path="url(#p9e6aecec13)" style="fill: #1f77b4"/>
   </g>
   <g id="patch_42">
    <path d="M 192.729083 133.12875 
L 196.303602 133.12875 
L 196.303602 123.17749 
L 192.729083 123.17749 
z
" clip-path="url(#p9e6aecec13)" style="fill: #1f77b4"/>
   </g>
   <g id="patch_43">
    <path d="M 196.303602 133.12875 
L 199.878121 133.12875 
L 199.878121 122.786548 
L 196.303602 122.786548 
z
" clip-path="url(#p9e6aecec13)" style="fill: #1f77b4"/>
   </g>
   <g id="patch_44">
    <path d="M 199.878121 133.12875 
L 203.452641 133.12875 
L 203.452641 123.781674 
L 199.878121 123.781674 
z
" clip-path="url(#p9e6aecec13)" style="fill: #1f77b4"/>
   </g>
   <g id="patch_45">
    <path d="M 203.452641 133.12875 
L 207.02716 133.12875 
L 207.02716 124.599099 
L 203.452641 124.599099 
z
" clip-path="url(#p9e6aecec13)" style="fill: #1f77b4"/>
   </g>
   <g id="patch_46">
    <path d="M 207.02716 133.12875 
L 210.601679 133.12875 
L 210.601679 124.243697 
L 207.02716 124.243697 
z
" clip-path="url(#p9e6aecec13)" style="fill: #1f77b4"/>
   </g>
   <g id="patch_47">
    <path d="M 210.601679 133.12875 
L 214.176198 133.12875 
L 214.176198 123.675053 
L 210.601679 123.675053 
z
" clip-path="url(#p9e6aecec13)" style="fill: #1f77b4"/>
   </g>
   <g id="patch_48">
    <path d="M 214.176198 133.12875 
L 217.750717 133.12875 
L 217.750717 124.599099 
L 214.176198 124.599099 
z
" clip-path="url(#p9e6aecec13)" style="fill: #1f77b4"/>
   </g>
   <g id="patch_49">
    <path d="M 217.750717 133.12875 
L 221.325236 133.12875 
L 221.325236 124.385858 
L 217.750717 124.385858 
z
" clip-path="url(#p9e6aecec13)" style="fill: #1f77b4"/>
   </g>
   <g id="patch_50">
    <path d="M 221.325236 133.12875 
L 224.899755 133.12875 
L 224.899755 124.030455 
L 221.325236 124.030455 
z
" clip-path="url(#p9e6aecec13)" style="fill: #1f77b4"/>
   </g>
   <g id="patch_51">
    <path d="M 224.899755 133.12875 
L 228.474275 133.12875 
L 228.474275 124.456938 
L 224.899755 124.456938 
z
" clip-path="url(#p9e6aecec13)" style="fill: #1f77b4"/>
   </g>
   <g id="patch_52">
    <path d="M 228.474275 133.12875 
L 232.048794 133.12875 
L 232.048794 124.918961 
L 228.474275 124.918961 
z
" clip-path="url(#p9e6aecec13)" style="fill: #1f77b4"/>
   </g>
   <g id="patch_53">
    <path d="M 232.048794 133.12875 
L 235.623313 133.12875 
L 235.623313 125.203282 
L 232.048794 125.203282 
z
" clip-path="url(#p9e6aecec13)" style="fill: #1f77b4"/>
   </g>
   <g id="patch_54">
    <path d="M 235.623313 133.12875 
L 239.197832 133.12875 
L 239.197832 125.736386 
L 235.623313 125.736386 
z
" clip-path="url(#p9e6aecec13)" style="fill: #1f77b4"/>
   </g>
   <g id="patch_55">
    <path d="M 239.197832 133.12875 
L 242.772351 133.12875 
L 242.772351 124.918961 
L 239.197832 124.918961 
z
" clip-path="url(#p9e6aecec13)" style="fill: #1f77b4"/>
   </g>
   <g id="patch_56">
    <path d="M 242.772351 133.12875 
L 246.34687 133.12875 
L 246.34687 124.350317 
L 242.772351 124.350317 
z
" clip-path="url(#p9e6aecec13)" style="fill: #1f77b4"/>
   </g>
   <g id="patch_57">
    <path d="M 246.34687 133.12875 
L 249.92139 133.12875 
L 249.92139 125.985167 
L 246.34687 125.985167 
z
" clip-path="url(#p9e6aecec13)" style="fill: #1f77b4"/>
   </g>
   <g id="patch_58">
    <path d="M 249.92139 133.12875 
L 253.495909 133.12875 
L 253.495909 126.162868 
L 249.92139 126.162868 
z
" clip-path="url(#p9e6aecec13)" style="fill: #1f77b4"/>
   </g>
   <g id="patch_59">
    <path d="M 253.495909 133.12875 
L 257.070428 133.12875 
L 257.070428 125.061122 
L 253.495909 125.061122 
z
" clip-path="url(#p9e6aecec13)" style="fill: #1f77b4"/>
   </g>
   <g id="patch_60">
    <path d="M 257.070428 133.12875 
L 260.644947 133.12875 
L 260.644947 125.629765 
L 257.070428 125.629765 
z
" clip-path="url(#p9e6aecec13)" style="fill: #1f77b4"/>
   </g>
   <g id="patch_61">
    <path d="M 260.644947 133.12875 
L 264.219466 133.12875 
L 264.219466 124.990041 
L 260.644947 124.990041 
z
" clip-path="url(#p9e6aecec13)" style="fill: #1f77b4"/>
   </g>
   <g id="patch_62">
    <path d="M 264.219466 133.12875 
L 267.793985 133.12875 
L 267.793985 125.949627 
L 264.219466 125.949627 
z
" clip-path="url(#p9e6aecec13)" style="fill: #1f77b4"/>
   </g>
   <g id="patch_63">
    <path d="M 267.793985 133.12875 
L 271.368505 133.12875 
L 271.368505 125.807466 
L 267.793985 125.807466 
z
" clip-path="url(#p9e6aecec13)" style="fill: #1f77b4"/>
   </g>
   <g id="patch_64">
    <path d="M 271.368505 133.12875 
L 274.943024 133.12875 
L 274.943024 126.162868 
L 271.368505 126.162868 
z
" clip-path="url(#p9e6aecec13)" style="fill: #1f77b4"/>
   </g>
   <g id="patch_65">
    <path d="M 274.943024 133.12875 
L 278.517543 133.12875 
L 278.517543 125.807466 
L 274.943024 125.807466 
z
" clip-path="url(#p9e6aecec13)" style="fill: #1f77b4"/>
   </g>
   <g id="patch_66">
    <path d="M 278.517543 133.12875 
L 282.092062 133.12875 
L 282.092062 127.477856 
L 278.517543 127.477856 
z
" clip-path="url(#p9e6aecec13)" style="fill: #1f77b4"/>
   </g>
   <g id="patch_67">
    <path d="M 282.092062 133.12875 
L 285.666581 133.12875 
L 285.666581 126.51827 
L 282.092062 126.51827 
z
" clip-path="url(#p9e6aecec13)" style="fill: #1f77b4"/>
   </g>
   <g id="patch_68">
    <path d="M 285.666581 133.12875 
L 289.2411 133.12875 
L 289.2411 127.051374 
L 285.666581 127.051374 
z
" clip-path="url(#p9e6aecec13)" style="fill: #1f77b4"/>
   </g>
   <g id="patch_69">
    <path d="M 289.2411 133.12875 
L 292.81562 133.12875 
L 292.81562 126.660431 
L 289.2411 126.660431 
z
" clip-path="url(#p9e6aecec13)" style="fill: #1f77b4"/>
   </g>
   <g id="patch_70">
    <path d="M 292.81562 133.12875 
L 296.390139 133.12875 
L 296.390139 127.300155 
L 292.81562 127.300155 
z
" clip-path="url(#p9e6aecec13)" style="fill: #1f77b4"/>
   </g>
   <g id="patch_71">
    <path d="M 296.390139 133.12875 
L 299.964658 133.12875 
L 299.964658 127.051374 
L 296.390139 127.051374 
z
" clip-path="url(#p9e6aecec13)" style="fill: #1f77b4"/>
   </g>
   <g id="patch_72">
    <path d="M 299.964658 133.12875 
L 303.539177 133.12875 
L 303.539177 126.305029 
L 299.964658 126.305029 
z
" clip-path="url(#p9e6aecec13)" style="fill: #1f77b4"/>
   </g>
   <g id="patch_73">
    <path d="M 303.539177 133.12875 
L 307.113696 133.12875 
L 307.113696 126.731512 
L 303.539177 126.731512 
z
" clip-path="url(#p9e6aecec13)" style="fill: #1f77b4"/>
   </g>
   <g id="patch_74">
    <path d="M 307.113696 133.12875 
L 310.688215 133.12875 
L 310.688215 127.762178 
L 307.113696 127.762178 
z
" clip-path="url(#p9e6aecec13)" style="fill: #1f77b4"/>
   </g>
   <g id="patch_75">
    <path d="M 310.688215 133.12875 
L 314.262734 133.12875 
L 314.262734 128.11758 
L 310.688215 128.11758 
z
" clip-path="url(#p9e6aecec13)" style="fill: #1f77b4"/>
   </g>
   <g id="patch_76">
    <path d="M 314.262734 133.12875 
L 317.837254 133.12875 
L 317.837254 127.797718 
L 314.262734 127.797718 
z
" clip-path="url(#p9e6aecec13)" style="fill: #1f77b4"/>
   </g>
   <g id="patch_77">
    <path d="M 317.837254 133.12875 
L 321.411773 133.12875 
L 321.411773 127.371235 
L 317.837254 127.371235 
z
" clip-path="url(#p9e6aecec13)" style="fill: #1f77b4"/>
   </g>
   <g id="patch_78">
    <path d="M 321.411773 133.12875 
L 324.986292 133.12875 
L 324.986292 127.868798 
L 321.411773 127.868798 
z
" clip-path="url(#p9e6aecec13)" style="fill: #1f77b4"/>
   </g>
   <g id="patch_79">
    <path d="M 324.986292 133.12875 
L 328.560811 133.12875 
L 328.560811 128.010959 
L 324.986292 128.010959 
z
" clip-path="url(#p9e6aecec13)" style="fill: #1f77b4"/>
   </g>
   <g id="patch_80">
    <path d="M 328.560811 133.12875 
L 332.13533 133.12875 
L 332.13533 128.508522 
L 328.560811 128.508522 
z
" clip-path="url(#p9e6aecec13)" style="fill: #1f77b4"/>
   </g>
   <g id="patch_81">
    <path d="M 332.13533 133.12875 
L 335.709849 133.12875 
L 335.709849 129.077166 
L 332.13533 129.077166 
z
" clip-path="url(#p9e6aecec13)" style="fill: #1f77b4"/>
   </g>
   <g id="patch_82">
    <path d="M 335.709849 133.12875 
L 339.284369 133.12875 
L 339.284369 128.721764 
L 335.709849 128.721764 
z
" clip-path="url(#p9e6aecec13)" style="fill: #1f77b4"/>
   </g>
   <g id="patch_83">
    <path d="M 339.284369 133.12875 
L 342.858888 133.12875 
L 342.858888 129.077166 
L 339.284369 129.077166 
z
" clip-path="url(#p9e6aecec13)" style="fill: #1f77b4"/>
   </g>
   <g id="patch_84">
    <path d="M 342.858888 133.12875 
L 346.433407 133.12875 
L 346.433407 128.935005 
L 342.858888 128.935005 
z
" clip-path="url(#p9e6aecec13)" style="fill: #1f77b4"/>
   </g>
   <g id="patch_85">
    <path d="M 346.433407 133.12875 
L 350.007926 133.12875 
L 350.007926 129.112706 
L 346.433407 129.112706 
z
" clip-path="url(#p9e6aecec13)" style="fill: #1f77b4"/>
   </g>
   <g id="patch_86">
    <path d="M 350.007926 133.12875 
L 353.582445 133.12875 
L 353.582445 128.721764 
L 350.007926 128.721764 
z
" clip-path="url(#p9e6aecec13)" style="fill: #1f77b4"/>
   </g>
   <g id="patch_87">
    <path d="M 353.582445 133.12875 
L 357.156964 133.12875 
L 357.156964 129.574729 
L 353.582445 129.574729 
z
" clip-path="url(#p9e6aecec13)" style="fill: #1f77b4"/>
   </g>
   <g id="patch_88">
    <path d="M 357.156964 133.12875 
L 360.731484 133.12875 
L 360.731484 129.325947 
L 357.156964 129.325947 
z
" clip-path="url(#p9e6aecec13)" style="fill: #1f77b4"/>
   </g>
   <g id="patch_89">
    <path d="M 360.731484 133.12875 
L 364.306003 133.12875 
L 364.306003 129.965671 
L 360.731484 129.965671 
z
" clip-path="url(#p9e6aecec13)" style="fill: #1f77b4"/>
   </g>
   <g id="patch_90">
    <path d="M 364.306003 133.12875 
L 367.880522 133.12875 
L 367.880522 129.219327 
L 364.306003 129.219327 
z
" clip-path="url(#p9e6aecec13)" style="fill: #1f77b4"/>
   </g>
   <g id="patch_91">
    <path d="M 367.880522 133.12875 
L 371.455041 133.12875 
L 371.455041 129.183786 
L 367.880522 129.183786 
z
" clip-path="url(#p9e6aecec13)" style="fill: #1f77b4"/>
   </g>
   <g id="patch_92">
    <path d="M 371.455041 133.12875 
L 375.02956 133.12875 
L 375.02956 130.178912 
L 371.455041 130.178912 
z
" clip-path="url(#p9e6aecec13)" style="fill: #1f77b4"/>
   </g>
   <g id="patch_93">
    <path d="M 375.02956 133.12875 
L 378.604079 133.12875 
L 378.604079 129.503648 
L 375.02956 129.503648 
z
" clip-path="url(#p9e6aecec13)" style="fill: #1f77b4"/>
   </g>
   <g id="patch_94">
    <path d="M 378.604079 133.12875 
L 382.178599 133.12875 
L 382.178599 129.71689 
L 378.604079 129.71689 
z
" clip-path="url(#p9e6aecec13)" style="fill: #1f77b4"/>
   </g>
   <g id="patch_95">
    <path d="M 382.178599 133.12875 
L 385.753118 133.12875 
L 385.753118 129.965671 
L 382.178599 129.965671 
z
" clip-path="url(#p9e6aecec13)" style="fill: #1f77b4"/>
   </g>
   <g id="patch_96">
    <path d="M 385.753118 133.12875 
L 389.327637 133.12875 
L 389.327637 129.75243 
L 385.753118 129.75243 
z
" clip-path="url(#p9e6aecec13)" style="fill: #1f77b4"/>
   </g>
   <g id="patch_97">
    <path d="M 389.327637 133.12875 
L 392.902156 133.12875 
L 392.902156 130.178912 
L 389.327637 130.178912 
z
" clip-path="url(#p9e6aecec13)" style="fill: #1f77b4"/>
   </g>
   <g id="patch_98">
    <path d="M 392.902156 133.12875 
L 396.476675 133.12875 
L 396.476675 130.463234 
L 392.902156 130.463234 
z
" clip-path="url(#p9e6aecec13)" style="fill: #1f77b4"/>
   </g>
   <g id="patch_99">
    <path d="M 396.476675 133.12875 
L 400.051194 133.12875 
L 400.051194 130.036751 
L 396.476675 130.036751 
z
" clip-path="url(#p9e6aecec13)" style="fill: #1f77b4"/>
   </g>
   <g id="patch_100">
    <path d="M 400.051194 133.12875 
L 403.625713 133.12875 
L 403.625713 131.174038 
L 400.051194 131.174038 
z
" clip-path="url(#p9e6aecec13)" style="fill: #1f77b4"/>
   </g>
   <g id="patch_101">
    <path d="M 403.625713 133.12875 
L 407.200233 133.12875 
L 407.200233 131.707141 
L 403.625713 131.707141 
z
" clip-path="url(#p9e6aecec13)" style="fill: #1f77b4"/>
   </g>
   <g id="patch_102">
    <path d="M 407.200233 133.12875 
L 410.774752 133.12875 
L 410.774752 132.524566 
L 407.200233 132.524566 
z
" clip-path="url(#p9e6aecec13)" style="fill: #1f77b4"/>
   </g>
   <g id="matplotlib.axis_1">
    <g id="xtick_1">
     <g id="line2d_1">
      <defs>
       <path id="md8d3e452e8" d="M 0 0 
L 0 3.5 
" style="stroke: #000000; stroke-width: 0.8"/>
      </defs>
      <g>
       <use xlink:href="#md8d3e452e8" x="53.315133" y="133.12875" style="stroke: #000000; stroke-width: 0.8"/>
      </g>
     </g>
     <g id="text_1">
      <!-- 0 -->
      <g transform="translate(50.133883 147.727187)scale(0.1 -0.1)">
       <defs>
        <path id="DejaVuSans-30" d="M 2034 4250 
Q 1547 4250 1301 3770 
Q 1056 3291 1056 2328 
Q 1056 1369 1301 889 
Q 1547 409 2034 409 
Q 2525 409 2770 889 
Q 3016 1369 3016 2328 
Q 3016 3291 2770 3770 
Q 2525 4250 2034 4250 
z
M 2034 4750 
Q 2819 4750 3233 4129 
Q 3647 3509 3647 2328 
Q 3647 1150 3233 529 
Q 2819 -91 2034 -91 
Q 1250 -91 836 529 
Q 422 1150 422 2328 
Q 422 3509 836 4129 
Q 1250 4750 2034 4750 
z
" transform="scale(0.015625)"/>
       </defs>
       <use xlink:href="#DejaVuSans-30"/>
      </g>
     </g>
    </g>
    <g id="xtick_2">
     <g id="line2d_2">
      <g>
       <use xlink:href="#md8d3e452e8" x="124.82341" y="133.12875" style="stroke: #000000; stroke-width: 0.8"/>
      </g>
     </g>
     <g id="text_2">
      <!-- 1000 -->
      <g transform="translate(112.09841 147.727187)scale(0.1 -0.1)">
       <defs>
        <path id="DejaVuSans-31" d="M 794 531 
L 1825 531 
L 1825 4091 
L 703 3866 
L 703 4441 
L 1819 4666 
L 2450 4666 
L 2450 531 
L 3481 531 
L 3481 0 
L 794 0 
L 794 531 
z
" transform="scale(0.015625)"/>
       </defs>
       <use xlink:href="#DejaVuSans-31"/>
       <use xlink:href="#DejaVuSans-30" x="63.623047"/>
       <use xlink:href="#DejaVuSans-30" x="127.246094"/>
       <use xlink:href="#DejaVuSans-30" x="190.869141"/>
      </g>
     </g>
    </g>
    <g id="xtick_3">
     <g id="line2d_3">
      <g>
       <use xlink:href="#md8d3e452e8" x="196.331688" y="133.12875" style="stroke: #000000; stroke-width: 0.8"/>
      </g>
     </g>
     <g id="text_3">
      <!-- 2000 -->
      <g transform="translate(183.606688 147.727187)scale(0.1 -0.1)">
       <defs>
        <path id="DejaVuSans-32" d="M 1228 531 
L 3431 531 
L 3431 0 
L 469 0 
L 469 531 
Q 828 903 1448 1529 
Q 2069 2156 2228 2338 
Q 2531 2678 2651 2914 
Q 2772 3150 2772 3378 
Q 2772 3750 2511 3984 
Q 2250 4219 1831 4219 
Q 1534 4219 1204 4116 
Q 875 4013 500 3803 
L 500 4441 
Q 881 4594 1212 4672 
Q 1544 4750 1819 4750 
Q 2544 4750 2975 4387 
Q 3406 4025 3406 3419 
Q 3406 3131 3298 2873 
Q 3191 2616 2906 2266 
Q 2828 2175 2409 1742 
Q 1991 1309 1228 531 
z
" transform="scale(0.015625)"/>
       </defs>
       <use xlink:href="#DejaVuSans-32"/>
       <use xlink:href="#DejaVuSans-30" x="63.623047"/>
       <use xlink:href="#DejaVuSans-30" x="127.246094"/>
       <use xlink:href="#DejaVuSans-30" x="190.869141"/>
      </g>
     </g>
    </g>
    <g id="xtick_4">
     <g id="line2d_4">
      <g>
       <use xlink:href="#md8d3e452e8" x="267.839965" y="133.12875" style="stroke: #000000; stroke-width: 0.8"/>
      </g>
     </g>
     <g id="text_4">
      <!-- 3000 -->
      <g transform="translate(255.114965 147.727187)scale(0.1 -0.1)">
       <defs>
        <path id="DejaVuSans-33" d="M 2597 2516 
Q 3050 2419 3304 2112 
Q 3559 1806 3559 1356 
Q 3559 666 3084 287 
Q 2609 -91 1734 -91 
Q 1441 -91 1130 -33 
Q 819 25 488 141 
L 488 750 
Q 750 597 1062 519 
Q 1375 441 1716 441 
Q 2309 441 2620 675 
Q 2931 909 2931 1356 
Q 2931 1769 2642 2001 
Q 2353 2234 1838 2234 
L 1294 2234 
L 1294 2753 
L 1863 2753 
Q 2328 2753 2575 2939 
Q 2822 3125 2822 3475 
Q 2822 3834 2567 4026 
Q 2313 4219 1838 4219 
Q 1578 4219 1281 4162 
Q 984 4106 628 3988 
L 628 4550 
Q 988 4650 1302 4700 
Q 1616 4750 1894 4750 
Q 2613 4750 3031 4423 
Q 3450 4097 3450 3541 
Q 3450 3153 3228 2886 
Q 3006 2619 2597 2516 
z
" transform="scale(0.015625)"/>
       </defs>
       <use xlink:href="#DejaVuSans-33"/>
       <use xlink:href="#DejaVuSans-30" x="63.623047"/>
       <use xlink:href="#DejaVuSans-30" x="127.246094"/>
       <use xlink:href="#DejaVuSans-30" x="190.869141"/>
      </g>
     </g>
    </g>
    <g id="xtick_5">
     <g id="line2d_5">
      <g>
       <use xlink:href="#md8d3e452e8" x="339.348243" y="133.12875" style="stroke: #000000; stroke-width: 0.8"/>
      </g>
     </g>
     <g id="text_5">
      <!-- 4000 -->
      <g transform="translate(326.623243 147.727187)scale(0.1 -0.1)">
       <defs>
        <path id="DejaVuSans-34" d="M 2419 4116 
L 825 1625 
L 2419 1625 
L 2419 4116 
z
M 2253 4666 
L 3047 4666 
L 3047 1625 
L 3713 1625 
L 3713 1100 
L 3047 1100 
L 3047 0 
L 2419 0 
L 2419 1100 
L 313 1100 
L 313 1709 
L 2253 4666 
z
" transform="scale(0.015625)"/>
       </defs>
       <use xlink:href="#DejaVuSans-34"/>
       <use xlink:href="#DejaVuSans-30" x="63.623047"/>
       <use xlink:href="#DejaVuSans-30" x="127.246094"/>
       <use xlink:href="#DejaVuSans-30" x="190.869141"/>
      </g>
     </g>
    </g>
    <g id="xtick_6">
     <g id="line2d_6">
      <g>
       <use xlink:href="#md8d3e452e8" x="410.85652" y="133.12875" style="stroke: #000000; stroke-width: 0.8"/>
      </g>
     </g>
     <g id="text_6">
      <!-- 5000 -->
      <g transform="translate(398.13152 147.727187)scale(0.1 -0.1)">
       <defs>
        <path id="DejaVuSans-35" d="M 691 4666 
L 3169 4666 
L 3169 4134 
L 1269 4134 
L 1269 2991 
Q 1406 3038 1543 3061 
Q 1681 3084 1819 3084 
Q 2600 3084 3056 2656 
Q 3513 2228 3513 1497 
Q 3513 744 3044 326 
Q 2575 -91 1722 -91 
Q 1428 -91 1123 -41 
Q 819 9 494 109 
L 494 744 
Q 775 591 1075 516 
Q 1375 441 1709 441 
Q 2250 441 2565 725 
Q 2881 1009 2881 1497 
Q 2881 1984 2565 2268 
Q 2250 2553 1709 2553 
Q 1456 2553 1204 2497 
Q 953 2441 691 2322 
L 691 4666 
z
" transform="scale(0.015625)"/>
       </defs>
       <use xlink:href="#DejaVuSans-35"/>
       <use xlink:href="#DejaVuSans-30" x="63.623047"/>
       <use xlink:href="#DejaVuSans-30" x="127.246094"/>
       <use xlink:href="#DejaVuSans-30" x="190.869141"/>
      </g>
     </g>
    </g>
   </g>
   <g id="matplotlib.axis_2">
    <g id="ytick_1">
     <g id="line2d_7">
      <defs>
       <path id="m2d690179b0" d="M 0 0 
L -3.5 0 
" style="stroke: #000000; stroke-width: 0.8"/>
      </defs>
      <g>
       <use xlink:href="#m2d690179b0" x="35.45024" y="133.12875" style="stroke: #000000; stroke-width: 0.8"/>
      </g>
     </g>
     <g id="text_7">
      <!-- 0 -->
      <g transform="translate(22.08774 136.927969)scale(0.1 -0.1)">
       <use xlink:href="#DejaVuSans-30"/>
      </g>
     </g>
    </g>
    <g id="ytick_2">
     <g id="line2d_8">
      <g>
       <use xlink:href="#m2d690179b0" x="35.45024" y="97.588537" style="stroke: #000000; stroke-width: 0.8"/>
      </g>
     </g>
     <g id="text_8">
      <!-- 1000 -->
      <g transform="translate(3.00024 101.387756)scale(0.1 -0.1)">
       <use xlink:href="#DejaVuSans-31"/>
       <use xlink:href="#DejaVuSans-30" x="63.623047"/>
       <use xlink:href="#DejaVuSans-30" x="127.246094"/>
       <use xlink:href="#DejaVuSans-30" x="190.869141"/>
      </g>
     </g>
    </g>
    <g id="ytick_3">
     <g id="line2d_9">
      <g>
       <use xlink:href="#m2d690179b0" x="35.45024" y="62.048324" style="stroke: #000000; stroke-width: 0.8"/>
      </g>
     </g>
     <g id="text_9">
      <!-- 2000 -->
      <g transform="translate(3.00024 65.847543)scale(0.1 -0.1)">
       <use xlink:href="#DejaVuSans-32"/>
       <use xlink:href="#DejaVuSans-30" x="63.623047"/>
       <use xlink:href="#DejaVuSans-30" x="127.246094"/>
       <use xlink:href="#DejaVuSans-30" x="190.869141"/>
      </g>
     </g>
    </g>
   </g>
   <g id="patch_103">
    <path d="M 35.45024 133.12875 
L 35.45024 39.57447 
" style="fill: none; stroke: #000000; stroke-width: 0.8; stroke-linejoin: miter; stroke-linecap: square"/>
   </g>
   <g id="patch_104">
    <path d="M 428.647348 133.12875 
L 428.647348 39.57447 
" style="fill: none; stroke: #000000; stroke-width: 0.8; stroke-linejoin: miter; stroke-linecap: square"/>
   </g>
   <g id="patch_105">
    <path d="M 35.45024 133.12875 
L 428.647348 133.12875 
" style="fill: none; stroke: #000000; stroke-width: 0.8; stroke-linejoin: miter; stroke-linecap: square"/>
   </g>
   <g id="patch_106">
    <path d="M 35.45024 39.57447 
L 428.647348 39.57447 
" style="fill: none; stroke: #000000; stroke-width: 0.8; stroke-linejoin: miter; stroke-linecap: square"/>
   </g>
   <g id="text_10">
    <!-- $\widetilde{\chi_1^\pm}$ -->
    <g transform="translate(222.868794 33.57447)scale(0.12 -0.12)">
     <defs>
      <path id="STIXSizeFourSym-Regular-303" d="M -1171 4934 
L -986 4934 
Q -1120 4410 -1824 4150 
Q -2528 3891 -3552 3891 
Q -5293 3891 -7962 4294 
Q -9389 4512 -10355 4512 
Q -11149 4512 -11936 4345 
Q -12723 4179 -12870 3891 
L -13056 3891 
Q -12954 4250 -12486 4496 
Q -12019 4742 -11452 4838 
Q -10886 4934 -10266 4934 
Q -9741 4934 -8537 4822 
Q -7334 4710 -6138 4525 
Q -5523 4429 -4649 4371 
Q -3776 4314 -3373 4314 
Q -2573 4314 -1933 4474 
Q -1293 4634 -1171 4934 
z
" transform="scale(0.015625)"/>
      <path id="DejaVuSans-Oblique-3c7" d="M 1922 -781 
L 1691 416 
L 394 -1334 
L -284 -1334 
L 1553 1141 
L 1269 2613 
Q 1194 3006 713 3006 
L 559 3006 
L 653 3500 
L 872 3494 
Q 1675 3472 1775 2950 
L 2006 1753 
L 3303 3503 
L 3981 3503 
L 2144 1028 
L 2428 -444 
Q 2503 -838 2984 -838 
L 3138 -838 
L 3044 -1331 
L 2825 -1325 
Q 2022 -1303 1922 -781 
z
" transform="scale(0.015625)"/>
      <path id="DejaVuSans-b1" d="M 2944 4013 
L 2944 2803 
L 4684 2803 
L 4684 2272 
L 2944 2272 
L 2944 1063 
L 2419 1063 
L 2419 2272 
L 678 2272 
L 678 2803 
L 2419 2803 
L 2419 4013 
L 2944 4013 
z
M 678 531 
L 4684 531 
L 4684 0 
L 678 0 
L 678 531 
z
" transform="scale(0.015625)"/>
     </defs>
     <use xlink:href="#STIXSizeFourSym-Regular-303" transform="translate(183.813001 45.546875)scale(0.807633)"/>
     <use xlink:href="#DejaVuSans-Oblique-3c7" transform="translate(0 0.123437)"/>
     <use xlink:href="#DejaVuSans-b1" transform="translate(77.290091 38.404687)scale(0.7)"/>
     <use xlink:href="#DejaVuSans-31" transform="translate(59.179688 -27.220313)scale(0.7)"/>
    </g>
   </g>
  </g>
  <g id="axes_2">
   <g id="patch_107">
    <path d="M 35.45024 268.321635 
L 428.647348 268.321635 
L 428.647348 174.767355 
L 35.45024 174.767355 
z
" style="fill: #ffffff"/>
   </g>
   <g id="patch_108">
    <path d="M 53.322836 268.321635 
L 56.897355 268.321635 
L 56.897355 265.265177 
L 53.322836 265.265177 
z
" clip-path="url(#p2f3f302355)" style="fill: #1f77b4"/>
   </g>
   <g id="patch_109">
    <path d="M 56.897355 268.321635 
L 60.471874 268.321635 
L 60.471874 261.640075 
L 56.897355 261.640075 
z
" clip-path="url(#p2f3f302355)" style="fill: #1f77b4"/>
   </g>
   <g id="patch_110">
    <path d="M 60.471874 268.321635 
L 64.046393 268.321635 
L 64.046393 258.832398 
L 60.471874 258.832398 
z
" clip-path="url(#p2f3f302355)" style="fill: #1f77b4"/>
   </g>
   <g id="patch_111">
    <path d="M 64.046393 268.321635 
L 67.620912 268.321635 
L 67.620912 257.055387 
L 64.046393 257.055387 
z
" clip-path="url(#p2f3f302355)" style="fill: #1f77b4"/>
   </g>
   <g id="patch_112">
    <path d="M 67.620912 268.321635 
L 71.195432 268.321635 
L 71.195432 254.674193 
L 67.620912 254.674193 
z
" clip-path="url(#p2f3f302355)" style="fill: #1f77b4"/>
   </g>
   <g id="patch_113">
    <path d="M 71.195432 268.321635 
L 74.769951 268.321635 
L 74.769951 252.115298 
L 71.195432 252.115298 
z
" clip-path="url(#p2f3f302355)" style="fill: #1f77b4"/>
   </g>
   <g id="patch_114">
    <path d="M 74.769951 268.321635 
L 78.34447 268.321635 
L 78.34447 251.759896 
L 74.769951 251.759896 
z
" clip-path="url(#p2f3f302355)" style="fill: #1f77b4"/>
   </g>
   <g id="patch_115">
    <path d="M 78.34447 268.321635 
L 81.918989 268.321635 
L 81.918989 250.515988 
L 78.34447 250.515988 
z
" clip-path="url(#p2f3f302355)" style="fill: #1f77b4"/>
   </g>
   <g id="patch_116">
    <path d="M 81.918989 268.321635 
L 85.493508 268.321635 
L 85.493508 249.982885 
L 81.918989 249.982885 
z
" clip-path="url(#p2f3f302355)" style="fill: #1f77b4"/>
   </g>
   <g id="patch_117">
    <path d="M 85.493508 268.321635 
L 89.068027 268.321635 
L 89.068027 248.703437 
L 85.493508 248.703437 
z
" clip-path="url(#p2f3f302355)" style="fill: #1f77b4"/>
   </g>
   <g id="patch_118">
    <path d="M 89.068027 268.321635 
L 92.642547 268.321635 
L 92.642547 247.957093 
L 89.068027 247.957093 
z
" clip-path="url(#p2f3f302355)" style="fill: #1f77b4"/>
   </g>
   <g id="patch_119">
    <path d="M 92.642547 268.321635 
L 96.217066 268.321635 
L 96.217066 249.378701 
L 92.642547 249.378701 
z
" clip-path="url(#p2f3f302355)" style="fill: #1f77b4"/>
   </g>
   <g id="patch_120">
    <path d="M 96.217066 268.321635 
L 99.791585 268.321635 
L 99.791585 246.215622 
L 96.217066 246.215622 
z
" clip-path="url(#p2f3f302355)" style="fill: #1f77b4"/>
   </g>
   <g id="patch_121">
    <path d="M 99.791585 268.321635 
L 103.366104 268.321635 
L 103.366104 246.819806 
L 99.791585 246.819806 
z
" clip-path="url(#p2f3f302355)" style="fill: #1f77b4"/>
   </g>
   <g id="patch_122">
    <path d="M 103.366104 268.321635 
L 106.940623 268.321635 
L 106.940623 245.575899 
L 103.366104 245.575899 
z
" clip-path="url(#p2f3f302355)" style="fill: #1f77b4"/>
   </g>
   <g id="patch_123">
    <path d="M 106.940623 268.321635 
L 110.515142 268.321635 
L 110.515142 245.220496 
L 106.940623 245.220496 
z
" clip-path="url(#p2f3f302355)" style="fill: #1f77b4"/>
   </g>
   <g id="patch_124">
    <path d="M 110.515142 268.321635 
L 114.089662 268.321635 
L 114.089662 244.580773 
L 110.515142 244.580773 
z
" clip-path="url(#p2f3f302355)" style="fill: #1f77b4"/>
   </g>
   <g id="patch_125">
    <path d="M 114.089662 268.321635 
L 117.664181 268.321635 
L 117.664181 243.905509 
L 114.089662 243.905509 
z
" clip-path="url(#p2f3f302355)" style="fill: #1f77b4"/>
   </g>
   <g id="patch_126">
    <path d="M 117.664181 268.321635 
L 121.2387 268.321635 
L 121.2387 243.763348 
L 117.664181 243.763348 
z
" clip-path="url(#p2f3f302355)" style="fill: #1f77b4"/>
   </g>
   <g id="patch_127">
    <path d="M 121.2387 268.321635 
L 124.813219 268.321635 
L 124.813219 241.950797 
L 121.2387 241.950797 
z
" clip-path="url(#p2f3f302355)" style="fill: #1f77b4"/>
   </g>
   <g id="patch_128">
    <path d="M 124.813219 268.321635 
L 128.387738 268.321635 
L 128.387738 241.986337 
L 124.813219 241.986337 
z
" clip-path="url(#p2f3f302355)" style="fill: #1f77b4"/>
   </g>
   <g id="patch_129">
    <path d="M 128.387738 268.321635 
L 131.962257 268.321635 
L 131.962257 242.41282 
L 128.387738 242.41282 
z
" clip-path="url(#p2f3f302355)" style="fill: #1f77b4"/>
   </g>
   <g id="patch_130">
    <path d="M 131.962257 268.321635 
L 135.536776 268.321635 
L 135.536776 240.458108 
L 131.962257 240.458108 
z
" clip-path="url(#p2f3f302355)" style="fill: #1f77b4"/>
   </g>
   <g id="patch_131">
    <path d="M 135.536776 268.321635 
L 139.111296 268.321635 
L 139.111296 241.595395 
L 135.536776 241.595395 
z
" clip-path="url(#p2f3f302355)" style="fill: #1f77b4"/>
   </g>
   <g id="patch_132">
    <path d="M 139.111296 268.321635 
L 142.685815 268.321635 
L 142.685815 242.235119 
L 139.111296 242.235119 
z
" clip-path="url(#p2f3f302355)" style="fill: #1f77b4"/>
   </g>
   <g id="patch_133">
    <path d="M 142.685815 268.321635 
L 146.260334 268.321635 
L 146.260334 240.102706 
L 142.685815 240.102706 
z
" clip-path="url(#p2f3f302355)" style="fill: #1f77b4"/>
   </g>
   <g id="patch_134">
    <path d="M 146.260334 268.321635 
L 149.834853 268.321635 
L 149.834853 241.915257 
L 146.260334 241.915257 
z
" clip-path="url(#p2f3f302355)" style="fill: #1f77b4"/>
   </g>
   <g id="patch_135">
    <path d="M 149.834853 268.321635 
L 153.409372 268.321635 
L 153.409372 241.808636 
L 149.834853 241.808636 
z
" clip-path="url(#p2f3f302355)" style="fill: #1f77b4"/>
   </g>
   <g id="patch_136">
    <path d="M 153.409372 268.321635 
L 156.983891 268.321635 
L 156.983891 240.138246 
L 153.409372 240.138246 
z
" clip-path="url(#p2f3f302355)" style="fill: #1f77b4"/>
   </g>
   <g id="patch_137">
    <path d="M 156.983891 268.321635 
L 160.558411 268.321635 
L 160.558411 239.996085 
L 156.983891 239.996085 
z
" clip-path="url(#p2f3f302355)" style="fill: #1f77b4"/>
   </g>
   <g id="patch_138">
    <path d="M 160.558411 268.321635 
L 164.13293 268.321635 
L 164.13293 240.529188 
L 160.558411 240.529188 
z
" clip-path="url(#p2f3f302355)" style="fill: #1f77b4"/>
   </g>
   <g id="patch_139">
    <path d="M 164.13293 268.321635 
L 167.707449 268.321635 
L 167.707449 241.168912 
L 164.13293 241.168912 
z
" clip-path="url(#p2f3f302355)" style="fill: #1f77b4"/>
   </g>
   <g id="patch_140">
    <path d="M 167.707449 268.321635 
L 171.281968 268.321635 
L 171.281968 237.721512 
L 167.707449 237.721512 
z
" clip-path="url(#p2f3f302355)" style="fill: #1f77b4"/>
   </g>
   <g id="patch_141">
    <path d="M 171.281968 268.321635 
L 174.856487 268.321635 
L 174.856487 238.467856 
L 171.281968 238.467856 
z
" clip-path="url(#p2f3f302355)" style="fill: #1f77b4"/>
   </g>
   <g id="patch_142">
    <path d="M 174.856487 268.321635 
L 178.431006 268.321635 
L 178.431006 237.54381 
L 174.856487 237.54381 
z
" clip-path="url(#p2f3f302355)" style="fill: #1f77b4"/>
   </g>
   <g id="patch_143">
    <path d="M 178.431006 268.321635 
L 182.005526 268.321635 
L 182.005526 236.051121 
L 178.431006 236.051121 
z
" clip-path="url(#p2f3f302355)" style="fill: #1f77b4"/>
   </g>
   <g id="patch_144">
    <path d="M 182.005526 268.321635 
L 185.580045 268.321635 
L 185.580045 235.7668 
L 182.005526 235.7668 
z
" clip-path="url(#p2f3f302355)" style="fill: #1f77b4"/>
   </g>
   <g id="patch_145">
    <path d="M 185.580045 268.321635 
L 189.154564 268.321635 
L 189.154564 236.797466 
L 185.580045 236.797466 
z
" clip-path="url(#p2f3f302355)" style="fill: #1f77b4"/>
   </g>
   <g id="patch_146">
    <path d="M 189.154564 268.321635 
L 192.729083 268.321635 
L 192.729083 235.411398 
L 189.154564 235.411398 
z
" clip-path="url(#p2f3f302355)" style="fill: #1f77b4"/>
   </g>
   <g id="patch_147">
    <path d="M 192.729083 268.321635 
L 196.303602 268.321635 
L 196.303602 232.852502 
L 192.729083 232.852502 
z
" clip-path="url(#p2f3f302355)" style="fill: #1f77b4"/>
   </g>
   <g id="patch_148">
    <path d="M 196.303602 268.321635 
L 199.878121 268.321635 
L 199.878121 236.442064 
L 196.303602 236.442064 
z
" clip-path="url(#p2f3f302355)" style="fill: #1f77b4"/>
   </g>
   <g id="patch_149">
    <path d="M 199.878121 268.321635 
L 203.452641 268.321635 
L 203.452641 235.446938 
L 199.878121 235.446938 
z
" clip-path="url(#p2f3f302355)" style="fill: #1f77b4"/>
   </g>
   <g id="patch_150">
    <path d="M 203.452641 268.321635 
L 207.02716 268.321635 
L 207.02716 234.487352 
L 203.452641 234.487352 
z
" clip-path="url(#p2f3f302355)" style="fill: #1f77b4"/>
   </g>
   <g id="patch_151">
    <path d="M 207.02716 268.321635 
L 210.601679 268.321635 
L 210.601679 234.842754 
L 207.02716 234.842754 
z
" clip-path="url(#p2f3f302355)" style="fill: #1f77b4"/>
   </g>
   <g id="patch_152">
    <path d="M 210.601679 268.321635 
L 214.176198 268.321635 
L 214.176198 235.091536 
L 210.601679 235.091536 
z
" clip-path="url(#p2f3f302355)" style="fill: #1f77b4"/>
   </g>
   <g id="patch_153">
    <path d="M 214.176198 268.321635 
L 217.750717 268.321635 
L 217.750717 235.375857 
L 214.176198 235.375857 
z
" clip-path="url(#p2f3f302355)" style="fill: #1f77b4"/>
   </g>
   <g id="patch_154">
    <path d="M 217.750717 268.321635 
L 221.325236 268.321635 
L 221.325236 234.700593 
L 217.750717 234.700593 
z
" clip-path="url(#p2f3f302355)" style="fill: #1f77b4"/>
   </g>
   <g id="patch_155">
    <path d="M 221.325236 268.321635 
L 224.899755 268.321635 
L 224.899755 236.904087 
L 221.325236 236.904087 
z
" clip-path="url(#p2f3f302355)" style="fill: #1f77b4"/>
   </g>
   <g id="patch_156">
    <path d="M 224.899755 268.321635 
L 228.474275 268.321635 
L 228.474275 239.462982 
L 224.899755 239.462982 
z
" clip-path="url(#p2f3f302355)" style="fill: #1f77b4"/>
   </g>
   <g id="patch_157">
    <path d="M 228.474275 268.321635 
L 232.048794 268.321635 
L 232.048794 250.551528 
L 228.474275 250.551528 
z
" clip-path="url(#p2f3f302355)" style="fill: #1f77b4"/>
   </g>
   <g id="patch_158">
    <path d="M 232.048794 268.321635 
L 235.623313 268.321635 
L 235.623313 253.892308 
L 232.048794 253.892308 
z
" clip-path="url(#p2f3f302355)" style="fill: #1f77b4"/>
   </g>
   <g id="patch_159">
    <path d="M 235.623313 268.321635 
L 239.197832 268.321635 
L 239.197832 253.679067 
L 235.623313 253.679067 
z
" clip-path="url(#p2f3f302355)" style="fill: #1f77b4"/>
   </g>
   <g id="patch_160">
    <path d="M 239.197832 268.321635 
L 242.772351 268.321635 
L 242.772351 254.567573 
L 239.197832 254.567573 
z
" clip-path="url(#p2f3f302355)" style="fill: #1f77b4"/>
   </g>
   <g id="patch_161">
    <path d="M 242.772351 268.321635 
L 246.34687 268.321635 
L 246.34687 254.17663 
L 242.772351 254.17663 
z
" clip-path="url(#p2f3f302355)" style="fill: #1f77b4"/>
   </g>
   <g id="patch_162">
    <path d="M 246.34687 268.321635 
L 249.92139 268.321635 
L 249.92139 254.780814 
L 246.34687 254.780814 
z
" clip-path="url(#p2f3f302355)" style="fill: #1f77b4"/>
   </g>
   <g id="patch_163">
    <path d="M 249.92139 268.321635 
L 253.495909 268.321635 
L 253.495909 255.029595 
L 249.92139 255.029595 
z
" clip-path="url(#p2f3f302355)" style="fill: #1f77b4"/>
   </g>
   <g id="patch_164">
    <path d="M 253.495909 268.321635 
L 257.070428 268.321635 
L 257.070428 252.50624 
L 253.495909 252.50624 
z
" clip-path="url(#p2f3f302355)" style="fill: #1f77b4"/>
   </g>
   <g id="patch_165">
    <path d="M 257.070428 268.321635 
L 260.644947 268.321635 
L 260.644947 254.21217 
L 257.070428 254.21217 
z
" clip-path="url(#p2f3f302355)" style="fill: #1f77b4"/>
   </g>
   <g id="patch_166">
    <path d="M 260.644947 268.321635 
L 264.219466 268.321635 
L 264.219466 254.034469 
L 260.644947 254.034469 
z
" clip-path="url(#p2f3f302355)" style="fill: #1f77b4"/>
   </g>
   <g id="patch_167">
    <path d="M 264.219466 268.321635 
L 267.793985 268.321635 
L 267.793985 255.84702 
L 264.219466 255.84702 
z
" clip-path="url(#p2f3f302355)" style="fill: #1f77b4"/>
   </g>
   <g id="patch_168">
    <path d="M 267.793985 268.321635 
L 271.368505 268.321635 
L 271.368505 255.171756 
L 267.793985 255.171756 
z
" clip-path="url(#p2f3f302355)" style="fill: #1f77b4"/>
   </g>
   <g id="patch_169">
    <path d="M 271.368505 268.321635 
L 274.943024 268.321635 
L 274.943024 255.598239 
L 271.368505 255.598239 
z
" clip-path="url(#p2f3f302355)" style="fill: #1f77b4"/>
   </g>
   <g id="patch_170">
    <path d="M 274.943024 268.321635 
L 278.517543 268.321635 
L 278.517543 255.704859 
L 274.943024 255.704859 
z
" clip-path="url(#p2f3f302355)" style="fill: #1f77b4"/>
   </g>
   <g id="patch_171">
    <path d="M 278.517543 268.321635 
L 282.092062 268.321635 
L 282.092062 254.851894 
L 278.517543 254.851894 
z
" clip-path="url(#p2f3f302355)" style="fill: #1f77b4"/>
   </g>
   <g id="patch_172">
    <path d="M 282.092062 268.321635 
L 285.666581 268.321635 
L 285.666581 257.055387 
L 282.092062 257.055387 
z
" clip-path="url(#p2f3f302355)" style="fill: #1f77b4"/>
   </g>
   <g id="patch_173">
    <path d="M 285.666581 268.321635 
L 289.2411 268.321635 
L 289.2411 256.309043 
L 285.666581 256.309043 
z
" clip-path="url(#p2f3f302355)" style="fill: #1f77b4"/>
   </g>
   <g id="patch_174">
    <path d="M 289.2411 268.321635 
L 292.81562 268.321635 
L 292.81562 256.273503 
L 289.2411 256.273503 
z
" clip-path="url(#p2f3f302355)" style="fill: #1f77b4"/>
   </g>
   <g id="patch_175">
    <path d="M 292.81562 268.321635 
L 296.390139 268.321635 
L 296.390139 256.060261 
L 292.81562 256.060261 
z
" clip-path="url(#p2f3f302355)" style="fill: #1f77b4"/>
   </g>
   <g id="patch_176">
    <path d="M 296.390139 268.321635 
L 299.964658 268.321635 
L 299.964658 256.415664 
L 296.390139 256.415664 
z
" clip-path="url(#p2f3f302355)" style="fill: #1f77b4"/>
   </g>
   <g id="patch_177">
    <path d="M 299.964658 268.321635 
L 303.539177 268.321635 
L 303.539177 257.090928 
L 299.964658 257.090928 
z
" clip-path="url(#p2f3f302355)" style="fill: #1f77b4"/>
   </g>
   <g id="patch_178">
    <path d="M 303.539177 268.321635 
L 307.113696 268.321635 
L 307.113696 257.624031 
L 303.539177 257.624031 
z
" clip-path="url(#p2f3f302355)" style="fill: #1f77b4"/>
   </g>
   <g id="patch_179">
    <path d="M 307.113696 268.321635 
L 310.688215 268.321635 
L 310.688215 257.162008 
L 307.113696 257.162008 
z
" clip-path="url(#p2f3f302355)" style="fill: #1f77b4"/>
   </g>
   <g id="patch_180">
    <path d="M 310.688215 268.321635 
L 314.262734 268.321635 
L 314.262734 257.197548 
L 310.688215 257.197548 
z
" clip-path="url(#p2f3f302355)" style="fill: #1f77b4"/>
   </g>
   <g id="patch_181">
    <path d="M 314.262734 268.321635 
L 317.837254 268.321635 
L 317.837254 258.192674 
L 314.262734 258.192674 
z
" clip-path="url(#p2f3f302355)" style="fill: #1f77b4"/>
   </g>
   <g id="patch_182">
    <path d="M 317.837254 268.321635 
L 321.411773 268.321635 
L 321.411773 258.690237 
L 317.837254 258.690237 
z
" clip-path="url(#p2f3f302355)" style="fill: #1f77b4"/>
   </g>
   <g id="patch_183">
    <path d="M 321.411773 268.321635 
L 324.986292 268.321635 
L 324.986292 258.228214 
L 321.411773 258.228214 
z
" clip-path="url(#p2f3f302355)" style="fill: #1f77b4"/>
   </g>
   <g id="patch_184">
    <path d="M 324.986292 268.321635 
L 328.560811 268.321635 
L 328.560811 257.801732 
L 324.986292 257.801732 
z
" clip-path="url(#p2f3f302355)" style="fill: #1f77b4"/>
   </g>
   <g id="patch_185">
    <path d="M 328.560811 268.321635 
L 332.13533 268.321635 
L 332.13533 258.192674 
L 328.560811 258.192674 
z
" clip-path="url(#p2f3f302355)" style="fill: #1f77b4"/>
   </g>
   <g id="patch_186">
    <path d="M 332.13533 268.321635 
L 335.709849 268.321635 
L 335.709849 258.157134 
L 332.13533 258.157134 
z
" clip-path="url(#p2f3f302355)" style="fill: #1f77b4"/>
   </g>
   <g id="patch_187">
    <path d="M 335.709849 268.321635 
L 339.284369 268.321635 
L 339.284369 257.801732 
L 335.709849 257.801732 
z
" clip-path="url(#p2f3f302355)" style="fill: #1f77b4"/>
   </g>
   <g id="patch_188">
    <path d="M 339.284369 268.321635 
L 342.858888 268.321635 
L 342.858888 259.436582 
L 339.284369 259.436582 
z
" clip-path="url(#p2f3f302355)" style="fill: #1f77b4"/>
   </g>
   <g id="patch_189">
    <path d="M 342.858888 268.321635 
L 346.433407 268.321635 
L 346.433407 259.472122 
L 342.858888 259.472122 
z
" clip-path="url(#p2f3f302355)" style="fill: #1f77b4"/>
   </g>
   <g id="patch_190">
    <path d="M 346.433407 268.321635 
L 350.007926 268.321635 
L 350.007926 258.690237 
L 346.433407 258.690237 
z
" clip-path="url(#p2f3f302355)" style="fill: #1f77b4"/>
   </g>
   <g id="patch_191">
    <path d="M 350.007926 268.321635 
L 353.582445 268.321635 
L 353.582445 260.147386 
L 350.007926 260.147386 
z
" clip-path="url(#p2f3f302355)" style="fill: #1f77b4"/>
   </g>
   <g id="patch_192">
    <path d="M 353.582445 268.321635 
L 357.156964 268.321635 
L 357.156964 260.254007 
L 353.582445 260.254007 
z
" clip-path="url(#p2f3f302355)" style="fill: #1f77b4"/>
   </g>
   <g id="patch_193">
    <path d="M 357.156964 268.321635 
L 360.731484 268.321635 
L 360.731484 259.934145 
L 357.156964 259.934145 
z
" clip-path="url(#p2f3f302355)" style="fill: #1f77b4"/>
   </g>
   <g id="patch_194">
    <path d="M 360.731484 268.321635 
L 364.306003 268.321635 
L 364.306003 260.573869 
L 360.731484 260.573869 
z
" clip-path="url(#p2f3f302355)" style="fill: #1f77b4"/>
   </g>
   <g id="patch_195">
    <path d="M 364.306003 268.321635 
L 367.880522 268.321635 
L 367.880522 261.106972 
L 364.306003 261.106972 
z
" clip-path="url(#p2f3f302355)" style="fill: #1f77b4"/>
   </g>
   <g id="patch_196">
    <path d="M 367.880522 268.321635 
L 371.455041 268.321635 
L 371.455041 260.325087 
L 367.880522 260.325087 
z
" clip-path="url(#p2f3f302355)" style="fill: #1f77b4"/>
   </g>
   <g id="patch_197">
    <path d="M 371.455041 268.321635 
L 375.02956 268.321635 
L 375.02956 261.071432 
L 371.455041 261.071432 
z
" clip-path="url(#p2f3f302355)" style="fill: #1f77b4"/>
   </g>
   <g id="patch_198">
    <path d="M 375.02956 268.321635 
L 378.604079 268.321635 
L 378.604079 259.578743 
L 375.02956 259.578743 
z
" clip-path="url(#p2f3f302355)" style="fill: #1f77b4"/>
   </g>
   <g id="patch_199">
    <path d="M 378.604079 268.321635 
L 382.178599 268.321635 
L 382.178599 259.614283 
L 378.604079 259.614283 
z
" clip-path="url(#p2f3f302355)" style="fill: #1f77b4"/>
   </g>
   <g id="patch_200">
    <path d="M 382.178599 268.321635 
L 385.753118 268.321635 
L 385.753118 261.249133 
L 382.178599 261.249133 
z
" clip-path="url(#p2f3f302355)" style="fill: #1f77b4"/>
   </g>
   <g id="patch_201">
    <path d="M 385.753118 268.321635 
L 389.327637 268.321635 
L 389.327637 260.289547 
L 385.753118 260.289547 
z
" clip-path="url(#p2f3f302355)" style="fill: #1f77b4"/>
   </g>
   <g id="patch_202">
    <path d="M 389.327637 268.321635 
L 392.902156 268.321635 
L 392.902156 260.85819 
L 389.327637 260.85819 
z
" clip-path="url(#p2f3f302355)" style="fill: #1f77b4"/>
   </g>
   <g id="patch_203">
    <path d="M 392.902156 268.321635 
L 396.476675 268.321635 
L 396.476675 261.817776 
L 392.902156 261.817776 
z
" clip-path="url(#p2f3f302355)" style="fill: #1f77b4"/>
   </g>
   <g id="patch_204">
    <path d="M 396.476675 268.321635 
L 400.051194 268.321635 
L 400.051194 261.213592 
L 396.476675 261.213592 
z
" clip-path="url(#p2f3f302355)" style="fill: #1f77b4"/>
   </g>
   <g id="patch_205">
    <path d="M 400.051194 268.321635 
L 403.625713 268.321635 
L 403.625713 261.533454 
L 400.051194 261.533454 
z
" clip-path="url(#p2f3f302355)" style="fill: #1f77b4"/>
   </g>
   <g id="patch_206">
    <path d="M 403.625713 268.321635 
L 407.200233 268.321635 
L 407.200233 261.995477 
L 403.625713 261.995477 
z
" clip-path="url(#p2f3f302355)" style="fill: #1f77b4"/>
   </g>
   <g id="patch_207">
    <path d="M 407.200233 268.321635 
L 410.774752 268.321635 
L 410.774752 263.701407 
L 407.200233 263.701407 
z
" clip-path="url(#p2f3f302355)" style="fill: #1f77b4"/>
   </g>
   <g id="matplotlib.axis_3">
    <g id="xtick_7">
     <g id="line2d_10">
      <g>
       <use xlink:href="#md8d3e452e8" x="48.314735" y="268.321635" style="stroke: #000000; stroke-width: 0.8"/>
      </g>
     </g>
     <g id="text_11">
      <!-- 0 -->
      <g transform="translate(45.133485 282.920073)scale(0.1 -0.1)">
       <use xlink:href="#DejaVuSans-30"/>
      </g>
     </g>
    </g>
    <g id="xtick_8">
     <g id="line2d_11">
      <g>
       <use xlink:href="#md8d3e452e8" x="121.252712" y="268.321635" style="stroke: #000000; stroke-width: 0.8"/>
      </g>
     </g>
     <g id="text_12">
      <!-- 2000 -->
      <g transform="translate(108.527712 282.920073)scale(0.1 -0.1)">
       <use xlink:href="#DejaVuSans-32"/>
       <use xlink:href="#DejaVuSans-30" x="63.623047"/>
       <use xlink:href="#DejaVuSans-30" x="127.246094"/>
       <use xlink:href="#DejaVuSans-30" x="190.869141"/>
      </g>
     </g>
    </g>
    <g id="xtick_9">
     <g id="line2d_12">
      <g>
       <use xlink:href="#md8d3e452e8" x="194.190689" y="268.321635" style="stroke: #000000; stroke-width: 0.8"/>
      </g>
     </g>
     <g id="text_13">
      <!-- 4000 -->
      <g transform="translate(181.465689 282.920073)scale(0.1 -0.1)">
       <use xlink:href="#DejaVuSans-34"/>
       <use xlink:href="#DejaVuSans-30" x="63.623047"/>
       <use xlink:href="#DejaVuSans-30" x="127.246094"/>
       <use xlink:href="#DejaVuSans-30" x="190.869141"/>
      </g>
     </g>
    </g>
    <g id="xtick_10">
     <g id="line2d_13">
      <g>
       <use xlink:href="#md8d3e452e8" x="267.128666" y="268.321635" style="stroke: #000000; stroke-width: 0.8"/>
      </g>
     </g>
     <g id="text_14">
      <!-- 6000 -->
      <g transform="translate(254.403666 282.920073)scale(0.1 -0.1)">
       <defs>
        <path id="DejaVuSans-36" d="M 2113 2584 
Q 1688 2584 1439 2293 
Q 1191 2003 1191 1497 
Q 1191 994 1439 701 
Q 1688 409 2113 409 
Q 2538 409 2786 701 
Q 3034 994 3034 1497 
Q 3034 2003 2786 2293 
Q 2538 2584 2113 2584 
z
M 3366 4563 
L 3366 3988 
Q 3128 4100 2886 4159 
Q 2644 4219 2406 4219 
Q 1781 4219 1451 3797 
Q 1122 3375 1075 2522 
Q 1259 2794 1537 2939 
Q 1816 3084 2150 3084 
Q 2853 3084 3261 2657 
Q 3669 2231 3669 1497 
Q 3669 778 3244 343 
Q 2819 -91 2113 -91 
Q 1303 -91 875 529 
Q 447 1150 447 2328 
Q 447 3434 972 4092 
Q 1497 4750 2381 4750 
Q 2619 4750 2861 4703 
Q 3103 4656 3366 4563 
z
" transform="scale(0.015625)"/>
       </defs>
       <use xlink:href="#DejaVuSans-36"/>
       <use xlink:href="#DejaVuSans-30" x="63.623047"/>
       <use xlink:href="#DejaVuSans-30" x="127.246094"/>
       <use xlink:href="#DejaVuSans-30" x="190.869141"/>
      </g>
     </g>
    </g>
    <g id="xtick_11">
     <g id="line2d_14">
      <g>
       <use xlink:href="#md8d3e452e8" x="340.066643" y="268.321635" style="stroke: #000000; stroke-width: 0.8"/>
      </g>
     </g>
     <g id="text_15">
      <!-- 8000 -->
      <g transform="translate(327.341643 282.920073)scale(0.1 -0.1)">
       <defs>
        <path id="DejaVuSans-38" d="M 2034 2216 
Q 1584 2216 1326 1975 
Q 1069 1734 1069 1313 
Q 1069 891 1326 650 
Q 1584 409 2034 409 
Q 2484 409 2743 651 
Q 3003 894 3003 1313 
Q 3003 1734 2745 1975 
Q 2488 2216 2034 2216 
z
M 1403 2484 
Q 997 2584 770 2862 
Q 544 3141 544 3541 
Q 544 4100 942 4425 
Q 1341 4750 2034 4750 
Q 2731 4750 3128 4425 
Q 3525 4100 3525 3541 
Q 3525 3141 3298 2862 
Q 3072 2584 2669 2484 
Q 3125 2378 3379 2068 
Q 3634 1759 3634 1313 
Q 3634 634 3220 271 
Q 2806 -91 2034 -91 
Q 1263 -91 848 271 
Q 434 634 434 1313 
Q 434 1759 690 2068 
Q 947 2378 1403 2484 
z
M 1172 3481 
Q 1172 3119 1398 2916 
Q 1625 2713 2034 2713 
Q 2441 2713 2670 2916 
Q 2900 3119 2900 3481 
Q 2900 3844 2670 4047 
Q 2441 4250 2034 4250 
Q 1625 4250 1398 4047 
Q 1172 3844 1172 3481 
z
" transform="scale(0.015625)"/>
       </defs>
       <use xlink:href="#DejaVuSans-38"/>
       <use xlink:href="#DejaVuSans-30" x="63.623047"/>
       <use xlink:href="#DejaVuSans-30" x="127.246094"/>
       <use xlink:href="#DejaVuSans-30" x="190.869141"/>
      </g>
     </g>
    </g>
    <g id="xtick_12">
     <g id="line2d_15">
      <g>
       <use xlink:href="#md8d3e452e8" x="413.00462" y="268.321635" style="stroke: #000000; stroke-width: 0.8"/>
      </g>
     </g>
     <g id="text_16">
      <!-- 10000 -->
      <g transform="translate(397.09837 282.920073)scale(0.1 -0.1)">
       <use xlink:href="#DejaVuSans-31"/>
       <use xlink:href="#DejaVuSans-30" x="63.623047"/>
       <use xlink:href="#DejaVuSans-30" x="127.246094"/>
       <use xlink:href="#DejaVuSans-30" x="190.869141"/>
       <use xlink:href="#DejaVuSans-30" x="254.492188"/>
      </g>
     </g>
    </g>
   </g>
   <g id="matplotlib.axis_4">
    <g id="ytick_4">
     <g id="line2d_16">
      <g>
       <use xlink:href="#m2d690179b0" x="35.45024" y="268.321635" style="stroke: #000000; stroke-width: 0.8"/>
      </g>
     </g>
     <g id="text_17">
      <!-- 0 -->
      <g transform="translate(22.08774 272.120854)scale(0.1 -0.1)">
       <use xlink:href="#DejaVuSans-30"/>
      </g>
     </g>
    </g>
    <g id="ytick_5">
     <g id="line2d_17">
      <g>
       <use xlink:href="#m2d690179b0" x="35.45024" y="232.781422" style="stroke: #000000; stroke-width: 0.8"/>
      </g>
     </g>
     <g id="text_18">
      <!-- 1000 -->
      <g transform="translate(3.00024 236.580641)scale(0.1 -0.1)">
       <use xlink:href="#DejaVuSans-31"/>
       <use xlink:href="#DejaVuSans-30" x="63.623047"/>
       <use xlink:href="#DejaVuSans-30" x="127.246094"/>
       <use xlink:href="#DejaVuSans-30" x="190.869141"/>
      </g>
     </g>
    </g>
    <g id="ytick_6">
     <g id="line2d_18">
      <g>
       <use xlink:href="#m2d690179b0" x="35.45024" y="197.241209" style="stroke: #000000; stroke-width: 0.8"/>
      </g>
     </g>
     <g id="text_19">
      <!-- 2000 -->
      <g transform="translate(3.00024 201.040428)scale(0.1 -0.1)">
       <use xlink:href="#DejaVuSans-32"/>
       <use xlink:href="#DejaVuSans-30" x="63.623047"/>
       <use xlink:href="#DejaVuSans-30" x="127.246094"/>
       <use xlink:href="#DejaVuSans-30" x="190.869141"/>
      </g>
     </g>
    </g>
   </g>
   <g id="patch_208">
    <path d="M 35.45024 268.321635 
L 35.45024 174.767355 
" style="fill: none; stroke: #000000; stroke-width: 0.8; stroke-linejoin: miter; stroke-linecap: square"/>
   </g>
   <g id="patch_209">
    <path d="M 428.647348 268.321635 
L 428.647348 174.767355 
" style="fill: none; stroke: #000000; stroke-width: 0.8; stroke-linejoin: miter; stroke-linecap: square"/>
   </g>
   <g id="patch_210">
    <path d="M 35.45024 268.321635 
L 428.647348 268.321635 
" style="fill: none; stroke: #000000; stroke-width: 0.8; stroke-linejoin: miter; stroke-linecap: square"/>
   </g>
   <g id="patch_211">
    <path d="M 35.45024 174.767355 
L 428.647348 174.767355 
" style="fill: none; stroke: #000000; stroke-width: 0.8; stroke-linejoin: miter; stroke-linecap: square"/>
   </g>
   <g id="text_20">
    <!-- $\widetilde{\chi_2^\pm}$ -->
    <g transform="translate(222.868794 168.767355)scale(0.12 -0.12)">
     <use xlink:href="#STIXSizeFourSym-Regular-303" transform="translate(183.813001 45.546875)scale(0.807633)"/>
     <use xlink:href="#DejaVuSans-Oblique-3c7" transform="translate(0 0.123437)"/>
     <use xlink:href="#DejaVuSans-b1" transform="translate(77.290091 38.404687)scale(0.7)"/>
     <use xlink:href="#DejaVuSans-32" transform="translate(59.179688 -27.220313)scale(0.7)"/>
    </g>
   </g>
  </g>
  <g id="text_21">
   <!-- Histogramme de la masse des charginos -->
   <g transform="translate(93.653438 12.118365)scale(0.12 -0.12)">
    <defs>
     <path id="DejaVuSans-48" d="M 628 4666 
L 1259 4666 
L 1259 2753 
L 3553 2753 
L 3553 4666 
L 4184 4666 
L 4184 0 
L 3553 0 
L 3553 2222 
L 1259 2222 
L 1259 0 
L 628 0 
L 628 4666 
z
" transform="scale(0.015625)"/>
     <path id="DejaVuSans-69" d="M 603 3500 
L 1178 3500 
L 1178 0 
L 603 0 
L 603 3500 
z
M 603 4863 
L 1178 4863 
L 1178 4134 
L 603 4134 
L 603 4863 
z
" transform="scale(0.015625)"/>
     <path id="DejaVuSans-73" d="M 2834 3397 
L 2834 2853 
Q 2591 2978 2328 3040 
Q 2066 3103 1784 3103 
Q 1356 3103 1142 2972 
Q 928 2841 928 2578 
Q 928 2378 1081 2264 
Q 1234 2150 1697 2047 
L 1894 2003 
Q 2506 1872 2764 1633 
Q 3022 1394 3022 966 
Q 3022 478 2636 193 
Q 2250 -91 1575 -91 
Q 1294 -91 989 -36 
Q 684 19 347 128 
L 347 722 
Q 666 556 975 473 
Q 1284 391 1588 391 
Q 1994 391 2212 530 
Q 2431 669 2431 922 
Q 2431 1156 2273 1281 
Q 2116 1406 1581 1522 
L 1381 1569 
Q 847 1681 609 1914 
Q 372 2147 372 2553 
Q 372 3047 722 3315 
Q 1072 3584 1716 3584 
Q 2034 3584 2315 3537 
Q 2597 3491 2834 3397 
z
" transform="scale(0.015625)"/>
     <path id="DejaVuSans-74" d="M 1172 4494 
L 1172 3500 
L 2356 3500 
L 2356 3053 
L 1172 3053 
L 1172 1153 
Q 1172 725 1289 603 
Q 1406 481 1766 481 
L 2356 481 
L 2356 0 
L 1766 0 
Q 1100 0 847 248 
Q 594 497 594 1153 
L 594 3053 
L 172 3053 
L 172 3500 
L 594 3500 
L 594 4494 
L 1172 4494 
z
" transform="scale(0.015625)"/>
     <path id="DejaVuSans-6f" d="M 1959 3097 
Q 1497 3097 1228 2736 
Q 959 2375 959 1747 
Q 959 1119 1226 758 
Q 1494 397 1959 397 
Q 2419 397 2687 759 
Q 2956 1122 2956 1747 
Q 2956 2369 2687 2733 
Q 2419 3097 1959 3097 
z
M 1959 3584 
Q 2709 3584 3137 3096 
Q 3566 2609 3566 1747 
Q 3566 888 3137 398 
Q 2709 -91 1959 -91 
Q 1206 -91 779 398 
Q 353 888 353 1747 
Q 353 2609 779 3096 
Q 1206 3584 1959 3584 
z
" transform="scale(0.015625)"/>
     <path id="DejaVuSans-67" d="M 2906 1791 
Q 2906 2416 2648 2759 
Q 2391 3103 1925 3103 
Q 1463 3103 1205 2759 
Q 947 2416 947 1791 
Q 947 1169 1205 825 
Q 1463 481 1925 481 
Q 2391 481 2648 825 
Q 2906 1169 2906 1791 
z
M 3481 434 
Q 3481 -459 3084 -895 
Q 2688 -1331 1869 -1331 
Q 1566 -1331 1297 -1286 
Q 1028 -1241 775 -1147 
L 775 -588 
Q 1028 -725 1275 -790 
Q 1522 -856 1778 -856 
Q 2344 -856 2625 -561 
Q 2906 -266 2906 331 
L 2906 616 
Q 2728 306 2450 153 
Q 2172 0 1784 0 
Q 1141 0 747 490 
Q 353 981 353 1791 
Q 353 2603 747 3093 
Q 1141 3584 1784 3584 
Q 2172 3584 2450 3431 
Q 2728 3278 2906 2969 
L 2906 3500 
L 3481 3500 
L 3481 434 
z
" transform="scale(0.015625)"/>
     <path id="DejaVuSans-72" d="M 2631 2963 
Q 2534 3019 2420 3045 
Q 2306 3072 2169 3072 
Q 1681 3072 1420 2755 
Q 1159 2438 1159 1844 
L 1159 0 
L 581 0 
L 581 3500 
L 1159 3500 
L 1159 2956 
Q 1341 3275 1631 3429 
Q 1922 3584 2338 3584 
Q 2397 3584 2469 3576 
Q 2541 3569 2628 3553 
L 2631 2963 
z
" transform="scale(0.015625)"/>
     <path id="DejaVuSans-61" d="M 2194 1759 
Q 1497 1759 1228 1600 
Q 959 1441 959 1056 
Q 959 750 1161 570 
Q 1363 391 1709 391 
Q 2188 391 2477 730 
Q 2766 1069 2766 1631 
L 2766 1759 
L 2194 1759 
z
M 3341 1997 
L 3341 0 
L 2766 0 
L 2766 531 
Q 2569 213 2275 61 
Q 1981 -91 1556 -91 
Q 1019 -91 701 211 
Q 384 513 384 1019 
Q 384 1609 779 1909 
Q 1175 2209 1959 2209 
L 2766 2209 
L 2766 2266 
Q 2766 2663 2505 2880 
Q 2244 3097 1772 3097 
Q 1472 3097 1187 3025 
Q 903 2953 641 2809 
L 641 3341 
Q 956 3463 1253 3523 
Q 1550 3584 1831 3584 
Q 2591 3584 2966 3190 
Q 3341 2797 3341 1997 
z
" transform="scale(0.015625)"/>
     <path id="DejaVuSans-6d" d="M 3328 2828 
Q 3544 3216 3844 3400 
Q 4144 3584 4550 3584 
Q 5097 3584 5394 3201 
Q 5691 2819 5691 2113 
L 5691 0 
L 5113 0 
L 5113 2094 
Q 5113 2597 4934 2840 
Q 4756 3084 4391 3084 
Q 3944 3084 3684 2787 
Q 3425 2491 3425 1978 
L 3425 0 
L 2847 0 
L 2847 2094 
Q 2847 2600 2669 2842 
Q 2491 3084 2119 3084 
Q 1678 3084 1418 2786 
Q 1159 2488 1159 1978 
L 1159 0 
L 581 0 
L 581 3500 
L 1159 3500 
L 1159 2956 
Q 1356 3278 1631 3431 
Q 1906 3584 2284 3584 
Q 2666 3584 2933 3390 
Q 3200 3197 3328 2828 
z
" transform="scale(0.015625)"/>
     <path id="DejaVuSans-65" d="M 3597 1894 
L 3597 1613 
L 953 1613 
Q 991 1019 1311 708 
Q 1631 397 2203 397 
Q 2534 397 2845 478 
Q 3156 559 3463 722 
L 3463 178 
Q 3153 47 2828 -22 
Q 2503 -91 2169 -91 
Q 1331 -91 842 396 
Q 353 884 353 1716 
Q 353 2575 817 3079 
Q 1281 3584 2069 3584 
Q 2775 3584 3186 3129 
Q 3597 2675 3597 1894 
z
M 3022 2063 
Q 3016 2534 2758 2815 
Q 2500 3097 2075 3097 
Q 1594 3097 1305 2825 
Q 1016 2553 972 2059 
L 3022 2063 
z
" transform="scale(0.015625)"/>
     <path id="DejaVuSans-20" transform="scale(0.015625)"/>
     <path id="DejaVuSans-64" d="M 2906 2969 
L 2906 4863 
L 3481 4863 
L 3481 0 
L 2906 0 
L 2906 525 
Q 2725 213 2448 61 
Q 2172 -91 1784 -91 
Q 1150 -91 751 415 
Q 353 922 353 1747 
Q 353 2572 751 3078 
Q 1150 3584 1784 3584 
Q 2172 3584 2448 3432 
Q 2725 3281 2906 2969 
z
M 947 1747 
Q 947 1113 1208 752 
Q 1469 391 1925 391 
Q 2381 391 2643 752 
Q 2906 1113 2906 1747 
Q 2906 2381 2643 2742 
Q 2381 3103 1925 3103 
Q 1469 3103 1208 2742 
Q 947 2381 947 1747 
z
" transform="scale(0.015625)"/>
     <path id="DejaVuSans-6c" d="M 603 4863 
L 1178 4863 
L 1178 0 
L 603 0 
L 603 4863 
z
" transform="scale(0.015625)"/>
     <path id="DejaVuSans-63" d="M 3122 3366 
L 3122 2828 
Q 2878 2963 2633 3030 
Q 2388 3097 2138 3097 
Q 1578 3097 1268 2742 
Q 959 2388 959 1747 
Q 959 1106 1268 751 
Q 1578 397 2138 397 
Q 2388 397 2633 464 
Q 2878 531 3122 666 
L 3122 134 
Q 2881 22 2623 -34 
Q 2366 -91 2075 -91 
Q 1284 -91 818 406 
Q 353 903 353 1747 
Q 353 2603 823 3093 
Q 1294 3584 2113 3584 
Q 2378 3584 2631 3529 
Q 2884 3475 3122 3366 
z
" transform="scale(0.015625)"/>
     <path id="DejaVuSans-68" d="M 3513 2113 
L 3513 0 
L 2938 0 
L 2938 2094 
Q 2938 2591 2744 2837 
Q 2550 3084 2163 3084 
Q 1697 3084 1428 2787 
Q 1159 2491 1159 1978 
L 1159 0 
L 581 0 
L 581 4863 
L 1159 4863 
L 1159 2956 
Q 1366 3272 1645 3428 
Q 1925 3584 2291 3584 
Q 2894 3584 3203 3211 
Q 3513 2838 3513 2113 
z
" transform="scale(0.015625)"/>
     <path id="DejaVuSans-6e" d="M 3513 2113 
L 3513 0 
L 2938 0 
L 2938 2094 
Q 2938 2591 2744 2837 
Q 2550 3084 2163 3084 
Q 1697 3084 1428 2787 
Q 1159 2491 1159 1978 
L 1159 0 
L 581 0 
L 581 3500 
L 1159 3500 
L 1159 2956 
Q 1366 3272 1645 3428 
Q 1925 3584 2291 3584 
Q 2894 3584 3203 3211 
Q 3513 2838 3513 2113 
z
" transform="scale(0.015625)"/>
    </defs>
    <use xlink:href="#DejaVuSans-48"/>
    <use xlink:href="#DejaVuSans-69" x="75.195312"/>
    <use xlink:href="#DejaVuSans-73" x="102.978516"/>
    <use xlink:href="#DejaVuSans-74" x="155.078125"/>
    <use xlink:href="#DejaVuSans-6f" x="194.287109"/>
    <use xlink:href="#DejaVuSans-67" x="255.46875"/>
    <use xlink:href="#DejaVuSans-72" x="318.945312"/>
    <use xlink:href="#DejaVuSans-61" x="360.058594"/>
    <use xlink:href="#DejaVuSans-6d" x="421.337891"/>
    <use xlink:href="#DejaVuSans-6d" x="518.75"/>
    <use xlink:href="#DejaVuSans-65" x="616.162109"/>
    <use xlink:href="#DejaVuSans-20" x="677.685547"/>
    <use xlink:href="#DejaVuSans-64" x="709.472656"/>
    <use xlink:href="#DejaVuSans-65" x="772.949219"/>
    <use xlink:href="#DejaVuSans-20" x="834.472656"/>
    <use xlink:href="#DejaVuSans-6c" x="866.259766"/>
    <use xlink:href="#DejaVuSans-61" x="894.042969"/>
    <use xlink:href="#DejaVuSans-20" x="955.322266"/>
    <use xlink:href="#DejaVuSans-6d" x="987.109375"/>
    <use xlink:href="#DejaVuSans-61" x="1084.521484"/>
    <use xlink:href="#DejaVuSans-73" x="1145.800781"/>
    <use xlink:href="#DejaVuSans-73" x="1197.900391"/>
    <use xlink:href="#DejaVuSans-65" x="1250"/>
    <use xlink:href="#DejaVuSans-20" x="1311.523438"/>
    <use xlink:href="#DejaVuSans-64" x="1343.310547"/>
    <use xlink:href="#DejaVuSans-65" x="1406.787109"/>
    <use xlink:href="#DejaVuSans-73" x="1468.310547"/>
    <use xlink:href="#DejaVuSans-20" x="1520.410156"/>
    <use xlink:href="#DejaVuSans-63" x="1552.197266"/>
    <use xlink:href="#DejaVuSans-68" x="1607.177734"/>
    <use xlink:href="#DejaVuSans-61" x="1670.556641"/>
    <use xlink:href="#DejaVuSans-72" x="1731.835938"/>
    <use xlink:href="#DejaVuSans-67" x="1771.199219"/>
    <use xlink:href="#DejaVuSans-69" x="1834.675781"/>
    <use xlink:href="#DejaVuSans-6e" x="1862.458984"/>
    <use xlink:href="#DejaVuSans-6f" x="1925.837891"/>
    <use xlink:href="#DejaVuSans-73" x="1987.019531"/>
   </g>
  </g>
  <g id="text_22">
   <!-- Masse (GeV) -->
   <g transform="translate(184.474219 302.4)scale(0.1 -0.1)">
    <defs>
     <path id="DejaVuSans-4d" d="M 628 4666 
L 1569 4666 
L 2759 1491 
L 3956 4666 
L 4897 4666 
L 4897 0 
L 4281 0 
L 4281 4097 
L 3078 897 
L 2444 897 
L 1241 4097 
L 1241 0 
L 628 0 
L 628 4666 
z
" transform="scale(0.015625)"/>
     <path id="DejaVuSans-28" d="M 1984 4856 
Q 1566 4138 1362 3434 
Q 1159 2731 1159 2009 
Q 1159 1288 1364 580 
Q 1569 -128 1984 -844 
L 1484 -844 
Q 1016 -109 783 600 
Q 550 1309 550 2009 
Q 550 2706 781 3412 
Q 1013 4119 1484 4856 
L 1984 4856 
z
" transform="scale(0.015625)"/>
     <path id="DejaVuSans-47" d="M 3809 666 
L 3809 1919 
L 2778 1919 
L 2778 2438 
L 4434 2438 
L 4434 434 
Q 4069 175 3628 42 
Q 3188 -91 2688 -91 
Q 1594 -91 976 548 
Q 359 1188 359 2328 
Q 359 3472 976 4111 
Q 1594 4750 2688 4750 
Q 3144 4750 3555 4637 
Q 3966 4525 4313 4306 
L 4313 3634 
Q 3963 3931 3569 4081 
Q 3175 4231 2741 4231 
Q 1884 4231 1454 3753 
Q 1025 3275 1025 2328 
Q 1025 1384 1454 906 
Q 1884 428 2741 428 
Q 3075 428 3337 486 
Q 3600 544 3809 666 
z
" transform="scale(0.015625)"/>
     <path id="DejaVuSans-56" d="M 1831 0 
L 50 4666 
L 709 4666 
L 2188 738 
L 3669 4666 
L 4325 4666 
L 2547 0 
L 1831 0 
z
" transform="scale(0.015625)"/>
     <path id="DejaVuSans-29" d="M 513 4856 
L 1013 4856 
Q 1481 4119 1714 3412 
Q 1947 2706 1947 2009 
Q 1947 1309 1714 600 
Q 1481 -109 1013 -844 
L 513 -844 
Q 928 -128 1133 580 
Q 1338 1288 1338 2009 
Q 1338 2731 1133 3434 
Q 928 4138 513 4856 
z
" transform="scale(0.015625)"/>
    </defs>
    <use xlink:href="#DejaVuSans-4d"/>
    <use xlink:href="#DejaVuSans-61" x="86.279297"/>
    <use xlink:href="#DejaVuSans-73" x="147.558594"/>
    <use xlink:href="#DejaVuSans-73" x="199.658203"/>
    <use xlink:href="#DejaVuSans-65" x="251.757812"/>
    <use xlink:href="#DejaVuSans-20" x="313.28125"/>
    <use xlink:href="#DejaVuSans-28" x="345.068359"/>
    <use xlink:href="#DejaVuSans-47" x="384.082031"/>
    <use xlink:href="#DejaVuSans-65" x="461.572266"/>
    <use xlink:href="#DejaVuSans-56" x="523.095703"/>
    <use xlink:href="#DejaVuSans-29" x="591.503906"/>
   </g>
  </g>
  <g id="text_23">
   <!-- N -->
   <g transform="translate(-9.681563 147.740625)rotate(-90)scale(0.1 -0.1)">
    <defs>
     <path id="DejaVuSans-4e" d="M 628 4666 
L 1478 4666 
L 3547 763 
L 3547 4666 
L 4159 4666 
L 4159 0 
L 3309 0 
L 1241 3903 
L 1241 0 
L 628 0 
L 628 4666 
z
" transform="scale(0.015625)"/>
    </defs>
    <use xlink:href="#DejaVuSans-4e"/>
   </g>
  </g>
 </g>
 <defs>
  <clipPath id="p9e6aecec13">
   <rect x="35.45024" y="39.57447" width="393.197108" height="93.55428"/>
  </clipPath>
  <clipPath id="p2f3f302355">
   <rect x="35.45024" y="174.767355" width="393.197108" height="93.55428"/>
  </clipPath>
 </defs>
</svg>
