<?xml version="1.0" encoding="utf-8" standalone="no"?>
<!DOCTYPE svg PUBLIC "-//W3C//DTD SVG 1.1//EN"
  "http://www.w3.org/Graphics/SVG/1.1/DTD/svg11.dtd">
<svg xmlns:xlink="http://www.w3.org/1999/xlink" width="432pt" height="288pt" viewBox="0 0 432 288" xmlns="http://www.w3.org/2000/svg" version="1.1">
 <metadata>
  <rdf:RDF xmlns:dc="http://purl.org/dc/elements/1.1/" xmlns:cc="http://creativecommons.org/ns#" xmlns:rdf="http://www.w3.org/1999/02/22-rdf-syntax-ns#">
   <cc:Work>
    <dc:type rdf:resource="http://purl.org/dc/dcmitype/StillImage"/>
    <dc:date>2022-06-08T08:57:23.910063</dc:date>
    <dc:format>image/svg+xml</dc:format>
    <dc:creator>
     <cc:Agent>
      <dc:title>Matplotlib v3.5.0, https://matplotlib.org/</dc:title>
     </cc:Agent>
    </dc:creator>
   </cc:Work>
  </rdf:RDF>
 </metadata>
 <defs>
  <style type="text/css">*{stroke-linejoin: round; stroke-linecap: butt}</style>
 </defs>
 <g id="figure_1">
  <g id="patch_1">
   <path d="M 0 288 
L 432 288 
L 432 0 
L 0 0 
L 0 288 
z
" style="fill: none"/>
  </g>
  <g id="axes_1">
   <g id="patch_2">
    <path d="M 41.81274 133.12875 
L 428.99976 133.12875 
L 428.99976 35.732595 
L 41.81274 35.732595 
z
" style="fill: #ffffff"/>
   </g>
   <g id="patch_3">
    <path d="M 59.41215 133.12875 
L 62.932032 133.12875 
L 62.932032 133.084264 
L 59.41215 133.084264 
z
" clip-path="url(#pfaaf50fe95)" style="fill: #1f77b4"/>
   </g>
   <g id="patch_4">
    <path d="M 62.932032 133.12875 
L 66.451914 133.12875 
L 66.451914 133.039777 
L 62.932032 133.039777 
z
" clip-path="url(#pfaaf50fe95)" style="fill: #1f77b4"/>
   </g>
   <g id="patch_5">
    <path d="M 66.451914 133.12875 
L 69.971796 133.12875 
L 69.971796 133.015512 
L 66.451914 133.015512 
z
" clip-path="url(#pfaaf50fe95)" style="fill: #1f77b4"/>
   </g>
   <g id="patch_6">
    <path d="M 69.971796 133.12875 
L 73.491678 133.12875 
L 73.491678 132.950804 
L 69.971796 132.950804 
z
" clip-path="url(#pfaaf50fe95)" style="fill: #1f77b4"/>
   </g>
   <g id="patch_7">
    <path d="M 73.491678 133.12875 
L 77.01156 133.12875 
L 77.01156 132.801168 
L 73.491678 132.801168 
z
" clip-path="url(#pfaaf50fe95)" style="fill: #1f77b4"/>
   </g>
   <g id="patch_8">
    <path d="M 77.01156 133.12875 
L 80.531442 133.12875 
L 80.531442 132.663665 
L 77.01156 132.663665 
z
" clip-path="url(#pfaaf50fe95)" style="fill: #1f77b4"/>
   </g>
   <g id="patch_9">
    <path d="M 80.531442 133.12875 
L 84.051324 133.12875 
L 84.051324 132.570648 
L 80.531442 132.570648 
z
" clip-path="url(#pfaaf50fe95)" style="fill: #1f77b4"/>
   </g>
   <g id="patch_10">
    <path d="M 84.051324 133.12875 
L 87.571206 133.12875 
L 87.571206 132.461454 
L 84.051324 132.461454 
z
" clip-path="url(#pfaaf50fe95)" style="fill: #1f77b4"/>
   </g>
   <g id="patch_11">
    <path d="M 87.571206 133.12875 
L 91.091088 133.12875 
L 91.091088 132.222845 
L 87.571206 132.222845 
z
" clip-path="url(#pfaaf50fe95)" style="fill: #1f77b4"/>
   </g>
   <g id="patch_12">
    <path d="M 91.091088 133.12875 
L 94.61097 133.12875 
L 94.61097 131.903351 
L 91.091088 131.903351 
z
" clip-path="url(#pfaaf50fe95)" style="fill: #1f77b4"/>
   </g>
   <g id="patch_13">
    <path d="M 94.61097 133.12875 
L 98.130852 133.12875 
L 98.130852 131.559592 
L 94.61097 131.559592 
z
" clip-path="url(#pfaaf50fe95)" style="fill: #1f77b4"/>
   </g>
   <g id="patch_14">
    <path d="M 98.130852 133.12875 
L 101.650734 133.12875 
L 101.650734 130.443388 
L 98.130852 130.443388 
z
" clip-path="url(#pfaaf50fe95)" style="fill: #1f77b4"/>
   </g>
   <g id="patch_15">
    <path d="M 101.650734 133.12875 
L 105.170616 133.12875 
L 105.170616 126.245487 
L 101.650734 126.245487 
z
" clip-path="url(#pfaaf50fe95)" style="fill: #1f77b4"/>
   </g>
   <g id="patch_16">
    <path d="M 105.170616 133.12875 
L 108.690498 133.12875 
L 108.690498 93.936209 
L 105.170616 93.936209 
z
" clip-path="url(#pfaaf50fe95)" style="fill: #1f77b4"/>
   </g>
   <g id="patch_17">
    <path d="M 108.690498 133.12875 
L 112.21038 133.12875 
L 112.21038 40.370507 
L 108.690498 40.370507 
z
" clip-path="url(#pfaaf50fe95)" style="fill: #1f77b4"/>
   </g>
   <g id="patch_18">
    <path d="M 112.21038 133.12875 
L 115.730262 133.12875 
L 115.730262 79.708641 
L 112.21038 79.708641 
z
" clip-path="url(#pfaaf50fe95)" style="fill: #1f77b4"/>
   </g>
   <g id="patch_19">
    <path d="M 115.730262 133.12875 
L 119.250144 133.12875 
L 119.250144 132.776903 
L 115.730262 132.776903 
z
" clip-path="url(#pfaaf50fe95)" style="fill: #1f77b4"/>
   </g>
   <g id="patch_20">
    <path d="M 119.250144 133.12875 
L 122.770026 133.12875 
L 122.770026 133.068087 
L 119.250144 133.068087 
z
" clip-path="url(#pfaaf50fe95)" style="fill: #1f77b4"/>
   </g>
   <g id="patch_21">
    <path d="M 122.770026 133.12875 
L 126.289908 133.12875 
L 126.289908 133.108529 
L 122.770026 133.108529 
z
" clip-path="url(#pfaaf50fe95)" style="fill: #1f77b4"/>
   </g>
   <g id="patch_22">
    <path d="M 126.289908 133.12875 
L 129.80979 133.12875 
L 129.80979 133.084264 
L 126.289908 133.084264 
z
" clip-path="url(#pfaaf50fe95)" style="fill: #1f77b4"/>
   </g>
   <g id="patch_23">
    <path d="M 129.80979 133.12875 
L 133.329672 133.12875 
L 133.329672 133.112573 
L 129.80979 133.112573 
z
" clip-path="url(#pfaaf50fe95)" style="fill: #1f77b4"/>
   </g>
   <g id="patch_24">
    <path d="M 133.329672 133.12875 
L 136.849554 133.12875 
L 136.849554 133.088308 
L 133.329672 133.088308 
z
" clip-path="url(#pfaaf50fe95)" style="fill: #1f77b4"/>
   </g>
   <g id="patch_25">
    <path d="M 136.849554 133.12875 
L 140.369436 133.12875 
L 140.369436 133.108529 
L 136.849554 133.108529 
z
" clip-path="url(#pfaaf50fe95)" style="fill: #1f77b4"/>
   </g>
   <g id="patch_26">
    <path d="M 140.369436 133.12875 
L 143.889318 133.12875 
L 143.889318 133.120662 
L 140.369436 133.120662 
z
" clip-path="url(#pfaaf50fe95)" style="fill: #1f77b4"/>
   </g>
   <g id="patch_27">
    <path d="M 143.889318 133.12875 
L 147.4092 133.12875 
L 147.4092 133.120662 
L 143.889318 133.120662 
z
" clip-path="url(#pfaaf50fe95)" style="fill: #1f77b4"/>
   </g>
   <g id="patch_28">
    <path d="M 147.4092 133.12875 
L 150.929082 133.12875 
L 150.929082 133.124706 
L 147.4092 133.124706 
z
" clip-path="url(#pfaaf50fe95)" style="fill: #1f77b4"/>
   </g>
   <g id="patch_29">
    <path d="M 150.929082 133.12875 
L 154.448964 133.12875 
L 154.448964 133.12875 
L 150.929082 133.12875 
z
" clip-path="url(#pfaaf50fe95)" style="fill: #1f77b4"/>
   </g>
   <g id="patch_30">
    <path d="M 154.448964 133.12875 
L 157.968846 133.12875 
L 157.968846 133.12875 
L 154.448964 133.12875 
z
" clip-path="url(#pfaaf50fe95)" style="fill: #1f77b4"/>
   </g>
   <g id="patch_31">
    <path d="M 157.968846 133.12875 
L 161.488728 133.12875 
L 161.488728 133.120662 
L 157.968846 133.120662 
z
" clip-path="url(#pfaaf50fe95)" style="fill: #1f77b4"/>
   </g>
   <g id="patch_32">
    <path d="M 161.488728 133.12875 
L 165.00861 133.12875 
L 165.00861 133.12875 
L 161.488728 133.12875 
z
" clip-path="url(#pfaaf50fe95)" style="fill: #1f77b4"/>
   </g>
   <g id="patch_33">
    <path d="M 165.00861 133.12875 
L 168.528492 133.12875 
L 168.528492 133.120662 
L 165.00861 133.120662 
z
" clip-path="url(#pfaaf50fe95)" style="fill: #1f77b4"/>
   </g>
   <g id="patch_34">
    <path d="M 168.528492 133.12875 
L 172.048374 133.12875 
L 172.048374 133.116617 
L 168.528492 133.116617 
z
" clip-path="url(#pfaaf50fe95)" style="fill: #1f77b4"/>
   </g>
   <g id="patch_35">
    <path d="M 172.048374 133.12875 
L 175.568256 133.12875 
L 175.568256 133.12875 
L 172.048374 133.12875 
z
" clip-path="url(#pfaaf50fe95)" style="fill: #1f77b4"/>
   </g>
   <g id="patch_36">
    <path d="M 175.568256 133.12875 
L 179.088138 133.12875 
L 179.088138 133.120662 
L 175.568256 133.120662 
z
" clip-path="url(#pfaaf50fe95)" style="fill: #1f77b4"/>
   </g>
   <g id="patch_37">
    <path d="M 179.088138 133.12875 
L 182.60802 133.12875 
L 182.60802 133.12875 
L 179.088138 133.12875 
z
" clip-path="url(#pfaaf50fe95)" style="fill: #1f77b4"/>
   </g>
   <g id="patch_38">
    <path d="M 182.60802 133.12875 
L 186.127902 133.12875 
L 186.127902 133.12875 
L 182.60802 133.12875 
z
" clip-path="url(#pfaaf50fe95)" style="fill: #1f77b4"/>
   </g>
   <g id="patch_39">
    <path d="M 186.127902 133.12875 
L 189.647784 133.12875 
L 189.647784 133.124706 
L 186.127902 133.124706 
z
" clip-path="url(#pfaaf50fe95)" style="fill: #1f77b4"/>
   </g>
   <g id="patch_40">
    <path d="M 189.647784 133.12875 
L 193.167666 133.12875 
L 193.167666 133.12875 
L 189.647784 133.12875 
z
" clip-path="url(#pfaaf50fe95)" style="fill: #1f77b4"/>
   </g>
   <g id="patch_41">
    <path d="M 193.167666 133.12875 
L 196.687548 133.12875 
L 196.687548 133.12875 
L 193.167666 133.12875 
z
" clip-path="url(#pfaaf50fe95)" style="fill: #1f77b4"/>
   </g>
   <g id="patch_42">
    <path d="M 196.687548 133.12875 
L 200.20743 133.12875 
L 200.20743 133.124706 
L 196.687548 133.124706 
z
" clip-path="url(#pfaaf50fe95)" style="fill: #1f77b4"/>
   </g>
   <g id="patch_43">
    <path d="M 200.20743 133.12875 
L 203.727312 133.12875 
L 203.727312 133.12875 
L 200.20743 133.12875 
z
" clip-path="url(#pfaaf50fe95)" style="fill: #1f77b4"/>
   </g>
   <g id="patch_44">
    <path d="M 203.727312 133.12875 
L 207.247194 133.12875 
L 207.247194 133.124706 
L 203.727312 133.124706 
z
" clip-path="url(#pfaaf50fe95)" style="fill: #1f77b4"/>
   </g>
   <g id="patch_45">
    <path d="M 207.247194 133.12875 
L 210.767076 133.12875 
L 210.767076 133.12875 
L 207.247194 133.12875 
z
" clip-path="url(#pfaaf50fe95)" style="fill: #1f77b4"/>
   </g>
   <g id="patch_46">
    <path d="M 210.767076 133.12875 
L 214.286958 133.12875 
L 214.286958 133.12875 
L 210.767076 133.12875 
z
" clip-path="url(#pfaaf50fe95)" style="fill: #1f77b4"/>
   </g>
   <g id="patch_47">
    <path d="M 214.286958 133.12875 
L 217.80684 133.12875 
L 217.80684 133.12875 
L 214.286958 133.12875 
z
" clip-path="url(#pfaaf50fe95)" style="fill: #1f77b4"/>
   </g>
   <g id="patch_48">
    <path d="M 217.80684 133.12875 
L 221.326722 133.12875 
L 221.326722 133.12875 
L 217.80684 133.12875 
z
" clip-path="url(#pfaaf50fe95)" style="fill: #1f77b4"/>
   </g>
   <g id="patch_49">
    <path d="M 221.326722 133.12875 
L 224.846604 133.12875 
L 224.846604 133.12875 
L 221.326722 133.12875 
z
" clip-path="url(#pfaaf50fe95)" style="fill: #1f77b4"/>
   </g>
   <g id="patch_50">
    <path d="M 224.846604 133.12875 
L 228.366486 133.12875 
L 228.366486 133.12875 
L 224.846604 133.12875 
z
" clip-path="url(#pfaaf50fe95)" style="fill: #1f77b4"/>
   </g>
   <g id="patch_51">
    <path d="M 228.366486 133.12875 
L 231.886368 133.12875 
L 231.886368 133.12875 
L 228.366486 133.12875 
z
" clip-path="url(#pfaaf50fe95)" style="fill: #1f77b4"/>
   </g>
   <g id="patch_52">
    <path d="M 231.886368 133.12875 
L 235.40625 133.12875 
L 235.40625 133.12875 
L 231.886368 133.12875 
z
" clip-path="url(#pfaaf50fe95)" style="fill: #1f77b4"/>
   </g>
   <g id="patch_53">
    <path d="M 235.40625 133.12875 
L 238.926132 133.12875 
L 238.926132 133.124706 
L 235.40625 133.124706 
z
" clip-path="url(#pfaaf50fe95)" style="fill: #1f77b4"/>
   </g>
   <g id="patch_54">
    <path d="M 238.926132 133.12875 
L 242.446014 133.12875 
L 242.446014 133.124706 
L 238.926132 133.124706 
z
" clip-path="url(#pfaaf50fe95)" style="fill: #1f77b4"/>
   </g>
   <g id="patch_55">
    <path d="M 242.446014 133.12875 
L 245.965896 133.12875 
L 245.965896 133.12875 
L 242.446014 133.12875 
z
" clip-path="url(#pfaaf50fe95)" style="fill: #1f77b4"/>
   </g>
   <g id="patch_56">
    <path d="M 245.965896 133.12875 
L 249.485778 133.12875 
L 249.485778 133.12875 
L 245.965896 133.12875 
z
" clip-path="url(#pfaaf50fe95)" style="fill: #1f77b4"/>
   </g>
   <g id="patch_57">
    <path d="M 249.485778 133.12875 
L 253.00566 133.12875 
L 253.00566 133.12875 
L 249.485778 133.12875 
z
" clip-path="url(#pfaaf50fe95)" style="fill: #1f77b4"/>
   </g>
   <g id="patch_58">
    <path d="M 253.00566 133.12875 
L 256.525542 133.12875 
L 256.525542 133.12875 
L 253.00566 133.12875 
z
" clip-path="url(#pfaaf50fe95)" style="fill: #1f77b4"/>
   </g>
   <g id="patch_59">
    <path d="M 256.525542 133.12875 
L 260.045424 133.12875 
L 260.045424 133.124706 
L 256.525542 133.124706 
z
" clip-path="url(#pfaaf50fe95)" style="fill: #1f77b4"/>
   </g>
   <g id="patch_60">
    <path d="M 260.045424 133.12875 
L 263.565306 133.12875 
L 263.565306 133.12875 
L 260.045424 133.12875 
z
" clip-path="url(#pfaaf50fe95)" style="fill: #1f77b4"/>
   </g>
   <g id="patch_61">
    <path d="M 263.565306 133.12875 
L 267.085188 133.12875 
L 267.085188 133.12875 
L 263.565306 133.12875 
z
" clip-path="url(#pfaaf50fe95)" style="fill: #1f77b4"/>
   </g>
   <g id="patch_62">
    <path d="M 267.085188 133.12875 
L 270.60507 133.12875 
L 270.60507 133.124706 
L 267.085188 133.124706 
z
" clip-path="url(#pfaaf50fe95)" style="fill: #1f77b4"/>
   </g>
   <g id="patch_63">
    <path d="M 270.60507 133.12875 
L 274.124952 133.12875 
L 274.124952 133.12875 
L 270.60507 133.12875 
z
" clip-path="url(#pfaaf50fe95)" style="fill: #1f77b4"/>
   </g>
   <g id="patch_64">
    <path d="M 274.124952 133.12875 
L 277.644834 133.12875 
L 277.644834 133.12875 
L 274.124952 133.12875 
z
" clip-path="url(#pfaaf50fe95)" style="fill: #1f77b4"/>
   </g>
   <g id="patch_65">
    <path d="M 277.644834 133.12875 
L 281.164716 133.12875 
L 281.164716 133.12875 
L 277.644834 133.12875 
z
" clip-path="url(#pfaaf50fe95)" style="fill: #1f77b4"/>
   </g>
   <g id="patch_66">
    <path d="M 281.164716 133.12875 
L 284.684598 133.12875 
L 284.684598 133.12875 
L 281.164716 133.12875 
z
" clip-path="url(#pfaaf50fe95)" style="fill: #1f77b4"/>
   </g>
   <g id="patch_67">
    <path d="M 284.684598 133.12875 
L 288.20448 133.12875 
L 288.20448 133.12875 
L 284.684598 133.12875 
z
" clip-path="url(#pfaaf50fe95)" style="fill: #1f77b4"/>
   </g>
   <g id="patch_68">
    <path d="M 288.20448 133.12875 
L 291.724362 133.12875 
L 291.724362 133.124706 
L 288.20448 133.124706 
z
" clip-path="url(#pfaaf50fe95)" style="fill: #1f77b4"/>
   </g>
   <g id="patch_69">
    <path d="M 291.724362 133.12875 
L 295.244244 133.12875 
L 295.244244 133.12875 
L 291.724362 133.12875 
z
" clip-path="url(#pfaaf50fe95)" style="fill: #1f77b4"/>
   </g>
   <g id="patch_70">
    <path d="M 295.244244 133.12875 
L 298.764126 133.12875 
L 298.764126 133.12875 
L 295.244244 133.12875 
z
" clip-path="url(#pfaaf50fe95)" style="fill: #1f77b4"/>
   </g>
   <g id="patch_71">
    <path d="M 298.764126 133.12875 
L 302.284008 133.12875 
L 302.284008 133.12875 
L 298.764126 133.12875 
z
" clip-path="url(#pfaaf50fe95)" style="fill: #1f77b4"/>
   </g>
   <g id="patch_72">
    <path d="M 302.284008 133.12875 
L 305.80389 133.12875 
L 305.80389 133.12875 
L 302.284008 133.12875 
z
" clip-path="url(#pfaaf50fe95)" style="fill: #1f77b4"/>
   </g>
   <g id="patch_73">
    <path d="M 305.80389 133.12875 
L 309.323772 133.12875 
L 309.323772 133.12875 
L 305.80389 133.12875 
z
" clip-path="url(#pfaaf50fe95)" style="fill: #1f77b4"/>
   </g>
   <g id="patch_74">
    <path d="M 309.323772 133.12875 
L 312.843654 133.12875 
L 312.843654 133.12875 
L 309.323772 133.12875 
z
" clip-path="url(#pfaaf50fe95)" style="fill: #1f77b4"/>
   </g>
   <g id="patch_75">
    <path d="M 312.843654 133.12875 
L 316.363536 133.12875 
L 316.363536 133.12875 
L 312.843654 133.12875 
z
" clip-path="url(#pfaaf50fe95)" style="fill: #1f77b4"/>
   </g>
   <g id="patch_76">
    <path d="M 316.363536 133.12875 
L 319.883418 133.12875 
L 319.883418 133.12875 
L 316.363536 133.12875 
z
" clip-path="url(#pfaaf50fe95)" style="fill: #1f77b4"/>
   </g>
   <g id="patch_77">
    <path d="M 319.883418 133.12875 
L 323.4033 133.12875 
L 323.4033 133.12875 
L 319.883418 133.12875 
z
" clip-path="url(#pfaaf50fe95)" style="fill: #1f77b4"/>
   </g>
   <g id="patch_78">
    <path d="M 323.4033 133.12875 
L 326.923182 133.12875 
L 326.923182 133.12875 
L 323.4033 133.12875 
z
" clip-path="url(#pfaaf50fe95)" style="fill: #1f77b4"/>
   </g>
   <g id="patch_79">
    <path d="M 326.923182 133.12875 
L 330.443064 133.12875 
L 330.443064 133.12875 
L 326.923182 133.12875 
z
" clip-path="url(#pfaaf50fe95)" style="fill: #1f77b4"/>
   </g>
   <g id="patch_80">
    <path d="M 330.443064 133.12875 
L 333.962946 133.12875 
L 333.962946 133.12875 
L 330.443064 133.12875 
z
" clip-path="url(#pfaaf50fe95)" style="fill: #1f77b4"/>
   </g>
   <g id="patch_81">
    <path d="M 333.962946 133.12875 
L 337.482828 133.12875 
L 337.482828 133.12875 
L 333.962946 133.12875 
z
" clip-path="url(#pfaaf50fe95)" style="fill: #1f77b4"/>
   </g>
   <g id="patch_82">
    <path d="M 337.482828 133.12875 
L 341.00271 133.12875 
L 341.00271 133.12875 
L 337.482828 133.12875 
z
" clip-path="url(#pfaaf50fe95)" style="fill: #1f77b4"/>
   </g>
   <g id="patch_83">
    <path d="M 341.00271 133.12875 
L 344.522592 133.12875 
L 344.522592 133.12875 
L 341.00271 133.12875 
z
" clip-path="url(#pfaaf50fe95)" style="fill: #1f77b4"/>
   </g>
   <g id="patch_84">
    <path d="M 344.522592 133.12875 
L 348.042474 133.12875 
L 348.042474 133.12875 
L 344.522592 133.12875 
z
" clip-path="url(#pfaaf50fe95)" style="fill: #1f77b4"/>
   </g>
   <g id="patch_85">
    <path d="M 348.042474 133.12875 
L 351.562356 133.12875 
L 351.562356 133.12875 
L 348.042474 133.12875 
z
" clip-path="url(#pfaaf50fe95)" style="fill: #1f77b4"/>
   </g>
   <g id="patch_86">
    <path d="M 351.562356 133.12875 
L 355.082238 133.12875 
L 355.082238 133.12875 
L 351.562356 133.12875 
z
" clip-path="url(#pfaaf50fe95)" style="fill: #1f77b4"/>
   </g>
   <g id="patch_87">
    <path d="M 355.082238 133.12875 
L 358.60212 133.12875 
L 358.60212 133.12875 
L 355.082238 133.12875 
z
" clip-path="url(#pfaaf50fe95)" style="fill: #1f77b4"/>
   </g>
   <g id="patch_88">
    <path d="M 358.60212 133.12875 
L 362.122002 133.12875 
L 362.122002 133.12875 
L 358.60212 133.12875 
z
" clip-path="url(#pfaaf50fe95)" style="fill: #1f77b4"/>
   </g>
   <g id="patch_89">
    <path d="M 362.122002 133.12875 
L 365.641884 133.12875 
L 365.641884 133.12875 
L 362.122002 133.12875 
z
" clip-path="url(#pfaaf50fe95)" style="fill: #1f77b4"/>
   </g>
   <g id="patch_90">
    <path d="M 365.641884 133.12875 
L 369.161766 133.12875 
L 369.161766 133.12875 
L 365.641884 133.12875 
z
" clip-path="url(#pfaaf50fe95)" style="fill: #1f77b4"/>
   </g>
   <g id="patch_91">
    <path d="M 369.161766 133.12875 
L 372.681648 133.12875 
L 372.681648 133.12875 
L 369.161766 133.12875 
z
" clip-path="url(#pfaaf50fe95)" style="fill: #1f77b4"/>
   </g>
   <g id="patch_92">
    <path d="M 372.681648 133.12875 
L 376.20153 133.12875 
L 376.20153 133.12875 
L 372.681648 133.12875 
z
" clip-path="url(#pfaaf50fe95)" style="fill: #1f77b4"/>
   </g>
   <g id="patch_93">
    <path d="M 376.20153 133.12875 
L 379.721412 133.12875 
L 379.721412 133.12875 
L 376.20153 133.12875 
z
" clip-path="url(#pfaaf50fe95)" style="fill: #1f77b4"/>
   </g>
   <g id="patch_94">
    <path d="M 379.721412 133.12875 
L 383.241294 133.12875 
L 383.241294 133.12875 
L 379.721412 133.12875 
z
" clip-path="url(#pfaaf50fe95)" style="fill: #1f77b4"/>
   </g>
   <g id="patch_95">
    <path d="M 383.241294 133.12875 
L 386.761176 133.12875 
L 386.761176 133.12875 
L 383.241294 133.12875 
z
" clip-path="url(#pfaaf50fe95)" style="fill: #1f77b4"/>
   </g>
   <g id="patch_96">
    <path d="M 386.761176 133.12875 
L 390.281058 133.12875 
L 390.281058 133.124706 
L 386.761176 133.124706 
z
" clip-path="url(#pfaaf50fe95)" style="fill: #1f77b4"/>
   </g>
   <g id="patch_97">
    <path d="M 390.281058 133.12875 
L 393.80094 133.12875 
L 393.80094 133.12875 
L 390.281058 133.12875 
z
" clip-path="url(#pfaaf50fe95)" style="fill: #1f77b4"/>
   </g>
   <g id="patch_98">
    <path d="M 393.80094 133.12875 
L 397.320822 133.12875 
L 397.320822 133.12875 
L 393.80094 133.12875 
z
" clip-path="url(#pfaaf50fe95)" style="fill: #1f77b4"/>
   </g>
   <g id="patch_99">
    <path d="M 397.320822 133.12875 
L 400.840704 133.12875 
L 400.840704 133.12875 
L 397.320822 133.12875 
z
" clip-path="url(#pfaaf50fe95)" style="fill: #1f77b4"/>
   </g>
   <g id="patch_100">
    <path d="M 400.840704 133.12875 
L 404.360586 133.12875 
L 404.360586 133.12875 
L 400.840704 133.12875 
z
" clip-path="url(#pfaaf50fe95)" style="fill: #1f77b4"/>
   </g>
   <g id="patch_101">
    <path d="M 404.360586 133.12875 
L 407.880468 133.12875 
L 407.880468 133.12875 
L 404.360586 133.12875 
z
" clip-path="url(#pfaaf50fe95)" style="fill: #1f77b4"/>
   </g>
   <g id="patch_102">
    <path d="M 407.880468 133.12875 
L 411.40035 133.12875 
L 411.40035 133.124706 
L 407.880468 133.124706 
z
" clip-path="url(#pfaaf50fe95)" style="fill: #1f77b4"/>
   </g>
   <g id="matplotlib.axis_1">
    <g id="xtick_1">
     <g id="line2d_1">
      <defs>
       <path id="m01d659a21c" d="M 0 0 
L 0 3.5 
" style="stroke: #000000; stroke-width: 0.8"/>
      </defs>
      <g>
       <use xlink:href="#m01d659a21c" x="58.284405" y="133.12875" style="stroke: #000000; stroke-width: 0.8"/>
      </g>
     </g>
     <g id="text_1">
      <!-- 0 -->
      <g transform="translate(55.103155 147.727188)scale(0.1 -0.1)">
       <defs>
        <path id="DejaVuSans-30" d="M 2034 4250 
Q 1547 4250 1301 3770 
Q 1056 3291 1056 2328 
Q 1056 1369 1301 889 
Q 1547 409 2034 409 
Q 2525 409 2770 889 
Q 3016 1369 3016 2328 
Q 3016 3291 2770 3770 
Q 2525 4250 2034 4250 
z
M 2034 4750 
Q 2819 4750 3233 4129 
Q 3647 3509 3647 2328 
Q 3647 1150 3233 529 
Q 2819 -91 2034 -91 
Q 1250 -91 836 529 
Q 422 1150 422 2328 
Q 422 3509 836 4129 
Q 1250 4750 2034 4750 
z
" transform="scale(0.015625)"/>
       </defs>
       <use xlink:href="#DejaVuSans-30"/>
      </g>
     </g>
    </g>
    <g id="xtick_2">
     <g id="line2d_2">
      <g>
       <use xlink:href="#m01d659a21c" x="135.418806" y="133.12875" style="stroke: #000000; stroke-width: 0.8"/>
      </g>
     </g>
     <g id="text_2">
      <!-- 200 -->
      <g transform="translate(125.875056 147.727188)scale(0.1 -0.1)">
       <defs>
        <path id="DejaVuSans-32" d="M 1228 531 
L 3431 531 
L 3431 0 
L 469 0 
L 469 531 
Q 828 903 1448 1529 
Q 2069 2156 2228 2338 
Q 2531 2678 2651 2914 
Q 2772 3150 2772 3378 
Q 2772 3750 2511 3984 
Q 2250 4219 1831 4219 
Q 1534 4219 1204 4116 
Q 875 4013 500 3803 
L 500 4441 
Q 881 4594 1212 4672 
Q 1544 4750 1819 4750 
Q 2544 4750 2975 4387 
Q 3406 4025 3406 3419 
Q 3406 3131 3298 2873 
Q 3191 2616 2906 2266 
Q 2828 2175 2409 1742 
Q 1991 1309 1228 531 
z
" transform="scale(0.015625)"/>
       </defs>
       <use xlink:href="#DejaVuSans-32"/>
       <use xlink:href="#DejaVuSans-30" x="63.623047"/>
       <use xlink:href="#DejaVuSans-30" x="127.246094"/>
      </g>
     </g>
    </g>
    <g id="xtick_3">
     <g id="line2d_3">
      <g>
       <use xlink:href="#m01d659a21c" x="212.553206" y="133.12875" style="stroke: #000000; stroke-width: 0.8"/>
      </g>
     </g>
     <g id="text_3">
      <!-- 400 -->
      <g transform="translate(203.009456 147.727188)scale(0.1 -0.1)">
       <defs>
        <path id="DejaVuSans-34" d="M 2419 4116 
L 825 1625 
L 2419 1625 
L 2419 4116 
z
M 2253 4666 
L 3047 4666 
L 3047 1625 
L 3713 1625 
L 3713 1100 
L 3047 1100 
L 3047 0 
L 2419 0 
L 2419 1100 
L 313 1100 
L 313 1709 
L 2253 4666 
z
" transform="scale(0.015625)"/>
       </defs>
       <use xlink:href="#DejaVuSans-34"/>
       <use xlink:href="#DejaVuSans-30" x="63.623047"/>
       <use xlink:href="#DejaVuSans-30" x="127.246094"/>
      </g>
     </g>
    </g>
    <g id="xtick_4">
     <g id="line2d_4">
      <g>
       <use xlink:href="#m01d659a21c" x="289.687607" y="133.12875" style="stroke: #000000; stroke-width: 0.8"/>
      </g>
     </g>
     <g id="text_4">
      <!-- 600 -->
      <g transform="translate(280.143857 147.727188)scale(0.1 -0.1)">
       <defs>
        <path id="DejaVuSans-36" d="M 2113 2584 
Q 1688 2584 1439 2293 
Q 1191 2003 1191 1497 
Q 1191 994 1439 701 
Q 1688 409 2113 409 
Q 2538 409 2786 701 
Q 3034 994 3034 1497 
Q 3034 2003 2786 2293 
Q 2538 2584 2113 2584 
z
M 3366 4563 
L 3366 3988 
Q 3128 4100 2886 4159 
Q 2644 4219 2406 4219 
Q 1781 4219 1451 3797 
Q 1122 3375 1075 2522 
Q 1259 2794 1537 2939 
Q 1816 3084 2150 3084 
Q 2853 3084 3261 2657 
Q 3669 2231 3669 1497 
Q 3669 778 3244 343 
Q 2819 -91 2113 -91 
Q 1303 -91 875 529 
Q 447 1150 447 2328 
Q 447 3434 972 4092 
Q 1497 4750 2381 4750 
Q 2619 4750 2861 4703 
Q 3103 4656 3366 4563 
z
" transform="scale(0.015625)"/>
       </defs>
       <use xlink:href="#DejaVuSans-36"/>
       <use xlink:href="#DejaVuSans-30" x="63.623047"/>
       <use xlink:href="#DejaVuSans-30" x="127.246094"/>
      </g>
     </g>
    </g>
    <g id="xtick_5">
     <g id="line2d_5">
      <g>
       <use xlink:href="#m01d659a21c" x="366.822007" y="133.12875" style="stroke: #000000; stroke-width: 0.8"/>
      </g>
     </g>
     <g id="text_5">
      <!-- 800 -->
      <g transform="translate(357.278257 147.727188)scale(0.1 -0.1)">
       <defs>
        <path id="DejaVuSans-38" d="M 2034 2216 
Q 1584 2216 1326 1975 
Q 1069 1734 1069 1313 
Q 1069 891 1326 650 
Q 1584 409 2034 409 
Q 2484 409 2743 651 
Q 3003 894 3003 1313 
Q 3003 1734 2745 1975 
Q 2488 2216 2034 2216 
z
M 1403 2484 
Q 997 2584 770 2862 
Q 544 3141 544 3541 
Q 544 4100 942 4425 
Q 1341 4750 2034 4750 
Q 2731 4750 3128 4425 
Q 3525 4100 3525 3541 
Q 3525 3141 3298 2862 
Q 3072 2584 2669 2484 
Q 3125 2378 3379 2068 
Q 3634 1759 3634 1313 
Q 3634 634 3220 271 
Q 2806 -91 2034 -91 
Q 1263 -91 848 271 
Q 434 634 434 1313 
Q 434 1759 690 2068 
Q 947 2378 1403 2484 
z
M 1172 3481 
Q 1172 3119 1398 2916 
Q 1625 2713 2034 2713 
Q 2441 2713 2670 2916 
Q 2900 3119 2900 3481 
Q 2900 3844 2670 4047 
Q 2441 4250 2034 4250 
Q 1625 4250 1398 4047 
Q 1172 3844 1172 3481 
z
" transform="scale(0.015625)"/>
       </defs>
       <use xlink:href="#DejaVuSans-38"/>
       <use xlink:href="#DejaVuSans-30" x="63.623047"/>
       <use xlink:href="#DejaVuSans-30" x="127.246094"/>
      </g>
     </g>
    </g>
   </g>
   <g id="matplotlib.axis_2">
    <g id="ytick_1">
     <g id="line2d_6">
      <defs>
       <path id="m23e317dbd9" d="M 0 0 
L -3.5 0 
" style="stroke: #000000; stroke-width: 0.8"/>
      </defs>
      <g>
       <use xlink:href="#m23e317dbd9" x="41.81274" y="133.12875" style="stroke: #000000; stroke-width: 0.8"/>
      </g>
     </g>
     <g id="text_6">
      <!-- 0 -->
      <g transform="translate(28.45024 136.927969)scale(0.1 -0.1)">
       <use xlink:href="#DejaVuSans-30"/>
      </g>
     </g>
    </g>
    <g id="ytick_2">
     <g id="line2d_7">
      <g>
       <use xlink:href="#m23e317dbd9" x="41.81274" y="92.686544" style="stroke: #000000; stroke-width: 0.8"/>
      </g>
     </g>
     <g id="text_7">
      <!-- 10000 -->
      <g transform="translate(3.00024 96.485763)scale(0.1 -0.1)">
       <defs>
        <path id="DejaVuSans-31" d="M 794 531 
L 1825 531 
L 1825 4091 
L 703 3866 
L 703 4441 
L 1819 4666 
L 2450 4666 
L 2450 531 
L 3481 531 
L 3481 0 
L 794 0 
L 794 531 
z
" transform="scale(0.015625)"/>
       </defs>
       <use xlink:href="#DejaVuSans-31"/>
       <use xlink:href="#DejaVuSans-30" x="63.623047"/>
       <use xlink:href="#DejaVuSans-30" x="127.246094"/>
       <use xlink:href="#DejaVuSans-30" x="190.869141"/>
       <use xlink:href="#DejaVuSans-30" x="254.492188"/>
      </g>
     </g>
    </g>
    <g id="ytick_3">
     <g id="line2d_8">
      <g>
       <use xlink:href="#m23e317dbd9" x="41.81274" y="52.244339" style="stroke: #000000; stroke-width: 0.8"/>
      </g>
     </g>
     <g id="text_8">
      <!-- 20000 -->
      <g transform="translate(3.00024 56.043557)scale(0.1 -0.1)">
       <use xlink:href="#DejaVuSans-32"/>
       <use xlink:href="#DejaVuSans-30" x="63.623047"/>
       <use xlink:href="#DejaVuSans-30" x="127.246094"/>
       <use xlink:href="#DejaVuSans-30" x="190.869141"/>
       <use xlink:href="#DejaVuSans-30" x="254.492188"/>
      </g>
     </g>
    </g>
   </g>
   <g id="patch_103">
    <path d="M 41.81274 133.12875 
L 41.81274 35.732595 
" style="fill: none; stroke: #000000; stroke-width: 0.8; stroke-linejoin: miter; stroke-linecap: square"/>
   </g>
   <g id="patch_104">
    <path d="M 428.99976 133.12875 
L 428.99976 35.732595 
" style="fill: none; stroke: #000000; stroke-width: 0.8; stroke-linejoin: miter; stroke-linecap: square"/>
   </g>
   <g id="patch_105">
    <path d="M 41.81274 133.12875 
L 428.99976 133.12875 
" style="fill: none; stroke: #000000; stroke-width: 0.8; stroke-linejoin: miter; stroke-linecap: square"/>
   </g>
   <g id="patch_106">
    <path d="M 41.81274 35.732595 
L 428.99976 35.732595 
" style="fill: none; stroke: #000000; stroke-width: 0.8; stroke-linejoin: miter; stroke-linecap: square"/>
   </g>
   <g id="text_9">
    <!-- $h_0$ -->
    <g transform="translate(228.74625 29.732595)scale(0.12 -0.12)">
     <defs>
      <path id="DejaVuSans-Oblique-68" d="M 3566 2113 
L 3156 0 
L 2578 0 
L 2988 2091 
Q 3016 2238 3031 2350 
Q 3047 2463 3047 2528 
Q 3047 2791 2881 2937 
Q 2716 3084 2419 3084 
Q 1956 3084 1617 2771 
Q 1278 2459 1178 1941 
L 800 0 
L 225 0 
L 1172 4863 
L 1747 4863 
L 1375 2950 
Q 1594 3244 1934 3414 
Q 2275 3584 2650 3584 
Q 3113 3584 3367 3334 
Q 3622 3084 3622 2631 
Q 3622 2519 3608 2391 
Q 3594 2263 3566 2113 
z
" transform="scale(0.015625)"/>
     </defs>
     <use xlink:href="#DejaVuSans-Oblique-68" transform="translate(0 0.015625)"/>
     <use xlink:href="#DejaVuSans-30" transform="translate(63.378906 -16.390625)scale(0.7)"/>
    </g>
   </g>
  </g>
  <g id="axes_2">
   <g id="patch_107">
    <path d="M 41.81274 268.321635 
L 428.99976 268.321635 
L 428.99976 170.92548 
L 41.81274 170.92548 
z
" style="fill: #ffffff"/>
   </g>
   <g id="patch_108">
    <path d="M 59.41215 268.321635 
L 62.932032 268.321635 
L 62.932032 268.293325 
L 59.41215 268.293325 
z
" clip-path="url(#p2ed51af644)" style="fill: #1f77b4"/>
   </g>
   <g id="patch_109">
    <path d="M 62.932032 268.321635 
L 66.451914 268.321635 
L 66.451914 266.574532 
L 62.932032 266.574532 
z
" clip-path="url(#p2ed51af644)" style="fill: #1f77b4"/>
   </g>
   <g id="patch_110">
    <path d="M 66.451914 268.321635 
L 69.971796 268.321635 
L 69.971796 267.330801 
L 66.451914 267.330801 
z
" clip-path="url(#p2ed51af644)" style="fill: #1f77b4"/>
   </g>
   <g id="patch_111">
    <path d="M 69.971796 268.321635 
L 73.491678 268.321635 
L 73.491678 267.318668 
L 69.971796 267.318668 
z
" clip-path="url(#p2ed51af644)" style="fill: #1f77b4"/>
   </g>
   <g id="patch_112">
    <path d="M 73.491678 268.321635 
L 77.01156 268.321635 
L 77.01156 267.431906 
L 73.491678 267.431906 
z
" clip-path="url(#p2ed51af644)" style="fill: #1f77b4"/>
   </g>
   <g id="patch_113">
    <path d="M 77.01156 268.321635 
L 80.531442 268.321635 
L 80.531442 267.290359 
L 77.01156 267.290359 
z
" clip-path="url(#p2ed51af644)" style="fill: #1f77b4"/>
   </g>
   <g id="patch_114">
    <path d="M 80.531442 268.321635 
L 84.051324 268.321635 
L 84.051324 267.120501 
L 80.531442 267.120501 
z
" clip-path="url(#p2ed51af644)" style="fill: #1f77b4"/>
   </g>
   <g id="patch_115">
    <path d="M 84.051324 268.321635 
L 87.571206 268.321635 
L 87.571206 267.067927 
L 84.051324 267.067927 
z
" clip-path="url(#p2ed51af644)" style="fill: #1f77b4"/>
   </g>
   <g id="patch_116">
    <path d="M 87.571206 268.321635 
L 91.091088 268.321635 
L 91.091088 266.906158 
L 87.571206 266.906158 
z
" clip-path="url(#p2ed51af644)" style="fill: #1f77b4"/>
   </g>
   <g id="patch_117">
    <path d="M 91.091088 268.321635 
L 94.61097 268.321635 
L 94.61097 266.922335 
L 91.091088 266.922335 
z
" clip-path="url(#p2ed51af644)" style="fill: #1f77b4"/>
   </g>
   <g id="patch_118">
    <path d="M 94.61097 268.321635 
L 98.130852 268.321635 
L 98.130852 266.914246 
L 94.61097 266.914246 
z
" clip-path="url(#p2ed51af644)" style="fill: #1f77b4"/>
   </g>
   <g id="patch_119">
    <path d="M 98.130852 268.321635 
L 101.650734 268.321635 
L 101.650734 266.995131 
L 98.130852 266.995131 
z
" clip-path="url(#p2ed51af644)" style="fill: #1f77b4"/>
   </g>
   <g id="patch_120">
    <path d="M 101.650734 268.321635 
L 105.170616 268.321635 
L 105.170616 266.772699 
L 101.650734 266.772699 
z
" clip-path="url(#p2ed51af644)" style="fill: #1f77b4"/>
   </g>
   <g id="patch_121">
    <path d="M 105.170616 268.321635 
L 108.690498 268.321635 
L 108.690498 266.784831 
L 105.170616 266.784831 
z
" clip-path="url(#p2ed51af644)" style="fill: #1f77b4"/>
   </g>
   <g id="patch_122">
    <path d="M 108.690498 268.321635 
L 112.21038 268.321635 
L 112.21038 266.695858 
L 108.690498 266.695858 
z
" clip-path="url(#p2ed51af644)" style="fill: #1f77b4"/>
   </g>
   <g id="patch_123">
    <path d="M 112.21038 268.321635 
L 115.730262 268.321635 
L 115.730262 266.760566 
L 112.21038 266.760566 
z
" clip-path="url(#p2ed51af644)" style="fill: #1f77b4"/>
   </g>
   <g id="patch_124">
    <path d="M 115.730262 268.321635 
L 119.250144 268.321635 
L 119.250144 266.598797 
L 115.730262 266.598797 
z
" clip-path="url(#p2ed51af644)" style="fill: #1f77b4"/>
   </g>
   <g id="patch_125">
    <path d="M 119.250144 268.321635 
L 122.770026 268.321635 
L 122.770026 266.578576 
L 119.250144 266.578576 
z
" clip-path="url(#p2ed51af644)" style="fill: #1f77b4"/>
   </g>
   <g id="patch_126">
    <path d="M 122.770026 268.321635 
L 126.289908 268.321635 
L 126.289908 266.497692 
L 122.770026 266.497692 
z
" clip-path="url(#p2ed51af644)" style="fill: #1f77b4"/>
   </g>
   <g id="patch_127">
    <path d="M 126.289908 268.321635 
L 129.80979 268.321635 
L 129.80979 266.372321 
L 126.289908 266.372321 
z
" clip-path="url(#p2ed51af644)" style="fill: #1f77b4"/>
   </g>
   <g id="patch_128">
    <path d="M 129.80979 268.321635 
L 133.329672 268.321635 
L 133.329672 266.619018 
L 129.80979 266.619018 
z
" clip-path="url(#p2ed51af644)" style="fill: #1f77b4"/>
   </g>
   <g id="patch_129">
    <path d="M 133.329672 268.321635 
L 136.849554 268.321635 
L 136.849554 266.437028 
L 133.329672 266.437028 
z
" clip-path="url(#p2ed51af644)" style="fill: #1f77b4"/>
   </g>
   <g id="patch_130">
    <path d="M 136.849554 268.321635 
L 140.369436 268.321635 
L 140.369436 266.481515 
L 136.849554 266.481515 
z
" clip-path="url(#p2ed51af644)" style="fill: #1f77b4"/>
   </g>
   <g id="patch_131">
    <path d="M 140.369436 268.321635 
L 143.889318 268.321635 
L 143.889318 266.412763 
L 140.369436 266.412763 
z
" clip-path="url(#p2ed51af644)" style="fill: #1f77b4"/>
   </g>
   <g id="patch_132">
    <path d="M 143.889318 268.321635 
L 147.4092 268.321635 
L 147.4092 266.344011 
L 143.889318 266.344011 
z
" clip-path="url(#p2ed51af644)" style="fill: #1f77b4"/>
   </g>
   <g id="patch_133">
    <path d="M 147.4092 268.321635 
L 150.929082 268.321635 
L 150.929082 266.283348 
L 147.4092 266.283348 
z
" clip-path="url(#p2ed51af644)" style="fill: #1f77b4"/>
   </g>
   <g id="patch_134">
    <path d="M 150.929082 268.321635 
L 154.448964 268.321635 
L 154.448964 266.457249 
L 150.929082 266.457249 
z
" clip-path="url(#p2ed51af644)" style="fill: #1f77b4"/>
   </g>
   <g id="patch_135">
    <path d="M 154.448964 268.321635 
L 157.968846 268.321635 
L 157.968846 266.412763 
L 154.448964 266.412763 
z
" clip-path="url(#p2ed51af644)" style="fill: #1f77b4"/>
   </g>
   <g id="patch_136">
    <path d="M 157.968846 268.321635 
L 161.488728 268.321635 
L 161.488728 266.263127 
L 157.968846 266.263127 
z
" clip-path="url(#p2ed51af644)" style="fill: #1f77b4"/>
   </g>
   <g id="patch_137">
    <path d="M 161.488728 268.321635 
L 165.00861 268.321635 
L 165.00861 266.153933 
L 161.488728 266.153933 
z
" clip-path="url(#p2ed51af644)" style="fill: #1f77b4"/>
   </g>
   <g id="patch_138">
    <path d="M 165.00861 268.321635 
L 168.528492 268.321635 
L 168.528492 266.182242 
L 165.00861 266.182242 
z
" clip-path="url(#p2ed51af644)" style="fill: #1f77b4"/>
   </g>
   <g id="patch_139">
    <path d="M 168.528492 268.321635 
L 172.048374 268.321635 
L 172.048374 266.157977 
L 168.528492 266.157977 
z
" clip-path="url(#p2ed51af644)" style="fill: #1f77b4"/>
   </g>
   <g id="patch_140">
    <path d="M 172.048374 268.321635 
L 175.568256 268.321635 
L 175.568256 266.097314 
L 172.048374 266.097314 
z
" clip-path="url(#p2ed51af644)" style="fill: #1f77b4"/>
   </g>
   <g id="patch_141">
    <path d="M 175.568256 268.321635 
L 179.088138 268.321635 
L 179.088138 266.29548 
L 175.568256 266.29548 
z
" clip-path="url(#p2ed51af644)" style="fill: #1f77b4"/>
   </g>
   <g id="patch_142">
    <path d="M 179.088138 268.321635 
L 182.60802 268.321635 
L 182.60802 266.206508 
L 179.088138 266.206508 
z
" clip-path="url(#p2ed51af644)" style="fill: #1f77b4"/>
   </g>
   <g id="patch_143">
    <path d="M 182.60802 268.321635 
L 186.127902 268.321635 
L 186.127902 266.028562 
L 182.60802 266.028562 
z
" clip-path="url(#p2ed51af644)" style="fill: #1f77b4"/>
   </g>
   <g id="patch_144">
    <path d="M 186.127902 268.321635 
L 189.647784 268.321635 
L 189.647784 266.113491 
L 186.127902 266.113491 
z
" clip-path="url(#p2ed51af644)" style="fill: #1f77b4"/>
   </g>
   <g id="patch_145">
    <path d="M 189.647784 268.321635 
L 193.167666 268.321635 
L 193.167666 266.040695 
L 189.647784 266.040695 
z
" clip-path="url(#p2ed51af644)" style="fill: #1f77b4"/>
   </g>
   <g id="patch_146">
    <path d="M 193.167666 268.321635 
L 196.687548 268.321635 
L 196.687548 265.951722 
L 193.167666 265.951722 
z
" clip-path="url(#p2ed51af644)" style="fill: #1f77b4"/>
   </g>
   <g id="patch_147">
    <path d="M 196.687548 268.321635 
L 200.20743 268.321635 
L 200.20743 266.162021 
L 196.687548 266.162021 
z
" clip-path="url(#p2ed51af644)" style="fill: #1f77b4"/>
   </g>
   <g id="patch_148">
    <path d="M 200.20743 268.321635 
L 203.727312 268.321635 
L 203.727312 266.03665 
L 200.20743 266.03665 
z
" clip-path="url(#p2ed51af644)" style="fill: #1f77b4"/>
   </g>
   <g id="patch_149">
    <path d="M 203.727312 268.321635 
L 207.247194 268.321635 
L 207.247194 265.975987 
L 203.727312 265.975987 
z
" clip-path="url(#p2ed51af644)" style="fill: #1f77b4"/>
   </g>
   <g id="patch_150">
    <path d="M 207.247194 268.321635 
L 210.767076 268.321635 
L 210.767076 265.866793 
L 207.247194 265.866793 
z
" clip-path="url(#p2ed51af644)" style="fill: #1f77b4"/>
   </g>
   <g id="patch_151">
    <path d="M 210.767076 268.321635 
L 214.286958 268.321635 
L 214.286958 266.032606 
L 210.767076 266.032606 
z
" clip-path="url(#p2ed51af644)" style="fill: #1f77b4"/>
   </g>
   <g id="patch_152">
    <path d="M 214.286958 268.321635 
L 217.80684 268.321635 
L 217.80684 265.878926 
L 214.286958 265.878926 
z
" clip-path="url(#p2ed51af644)" style="fill: #1f77b4"/>
   </g>
   <g id="patch_153">
    <path d="M 217.80684 268.321635 
L 221.326722 268.321635 
L 221.326722 265.95981 
L 217.80684 265.95981 
z
" clip-path="url(#p2ed51af644)" style="fill: #1f77b4"/>
   </g>
   <g id="patch_154">
    <path d="M 221.326722 268.321635 
L 224.846604 268.321635 
L 224.846604 266.109446 
L 221.326722 266.109446 
z
" clip-path="url(#p2ed51af644)" style="fill: #1f77b4"/>
   </g>
   <g id="patch_155">
    <path d="M 224.846604 268.321635 
L 228.366486 268.321635 
L 228.366486 266.008341 
L 224.846604 266.008341 
z
" clip-path="url(#p2ed51af644)" style="fill: #1f77b4"/>
   </g>
   <g id="patch_156">
    <path d="M 228.366486 268.321635 
L 231.886368 268.321635 
L 231.886368 266.016429 
L 228.366486 266.016429 
z
" clip-path="url(#p2ed51af644)" style="fill: #1f77b4"/>
   </g>
   <g id="patch_157">
    <path d="M 231.886368 268.321635 
L 235.40625 268.321635 
L 235.40625 266.024518 
L 231.886368 266.024518 
z
" clip-path="url(#p2ed51af644)" style="fill: #1f77b4"/>
   </g>
   <g id="patch_158">
    <path d="M 235.40625 268.321635 
L 238.926132 268.321635 
L 238.926132 265.943633 
L 235.40625 265.943633 
z
" clip-path="url(#p2ed51af644)" style="fill: #1f77b4"/>
   </g>
   <g id="patch_159">
    <path d="M 238.926132 268.321635 
L 242.446014 268.321635 
L 242.446014 265.769732 
L 238.926132 265.769732 
z
" clip-path="url(#p2ed51af644)" style="fill: #1f77b4"/>
   </g>
   <g id="patch_160">
    <path d="M 242.446014 268.321635 
L 245.965896 268.321635 
L 245.965896 266.016429 
L 242.446014 266.016429 
z
" clip-path="url(#p2ed51af644)" style="fill: #1f77b4"/>
   </g>
   <g id="patch_161">
    <path d="M 245.965896 268.321635 
L 249.485778 268.321635 
L 249.485778 265.798041 
L 245.965896 265.798041 
z
" clip-path="url(#p2ed51af644)" style="fill: #1f77b4"/>
   </g>
   <g id="patch_162">
    <path d="M 249.485778 268.321635 
L 253.00566 268.321635 
L 253.00566 265.814218 
L 249.485778 265.814218 
z
" clip-path="url(#p2ed51af644)" style="fill: #1f77b4"/>
   </g>
   <g id="patch_163">
    <path d="M 253.00566 268.321635 
L 256.525542 268.321635 
L 256.525542 266.028562 
L 253.00566 266.028562 
z
" clip-path="url(#p2ed51af644)" style="fill: #1f77b4"/>
   </g>
   <g id="patch_164">
    <path d="M 256.525542 268.321635 
L 260.045424 268.321635 
L 260.045424 266.153933 
L 256.525542 266.153933 
z
" clip-path="url(#p2ed51af644)" style="fill: #1f77b4"/>
   </g>
   <g id="patch_165">
    <path d="M 260.045424 268.321635 
L 263.565306 268.321635 
L 263.565306 265.943633 
L 260.045424 265.943633 
z
" clip-path="url(#p2ed51af644)" style="fill: #1f77b4"/>
   </g>
   <g id="patch_166">
    <path d="M 263.565306 268.321635 
L 267.085188 268.321635 
L 267.085188 265.980031 
L 263.565306 265.980031 
z
" clip-path="url(#p2ed51af644)" style="fill: #1f77b4"/>
   </g>
   <g id="patch_167">
    <path d="M 267.085188 268.321635 
L 270.60507 268.321635 
L 270.60507 265.899147 
L 267.085188 265.899147 
z
" clip-path="url(#p2ed51af644)" style="fill: #1f77b4"/>
   </g>
   <g id="patch_168">
    <path d="M 270.60507 268.321635 
L 274.124952 268.321635 
L 274.124952 265.95981 
L 270.60507 265.95981 
z
" clip-path="url(#p2ed51af644)" style="fill: #1f77b4"/>
   </g>
   <g id="patch_169">
    <path d="M 274.124952 268.321635 
L 277.644834 268.321635 
L 277.644834 266.004297 
L 274.124952 266.004297 
z
" clip-path="url(#p2ed51af644)" style="fill: #1f77b4"/>
   </g>
   <g id="patch_170">
    <path d="M 277.644834 268.321635 
L 281.164716 268.321635 
L 281.164716 265.955766 
L 277.644834 265.955766 
z
" clip-path="url(#p2ed51af644)" style="fill: #1f77b4"/>
   </g>
   <g id="patch_171">
    <path d="M 281.164716 268.321635 
L 284.684598 268.321635 
L 284.684598 265.818262 
L 281.164716 265.818262 
z
" clip-path="url(#p2ed51af644)" style="fill: #1f77b4"/>
   </g>
   <g id="patch_172">
    <path d="M 284.684598 268.321635 
L 288.20448 268.321635 
L 288.20448 265.919368 
L 284.684598 265.919368 
z
" clip-path="url(#p2ed51af644)" style="fill: #1f77b4"/>
   </g>
   <g id="patch_173">
    <path d="M 288.20448 268.321635 
L 291.724362 268.321635 
L 291.724362 266.028562 
L 288.20448 266.028562 
z
" clip-path="url(#p2ed51af644)" style="fill: #1f77b4"/>
   </g>
   <g id="patch_174">
    <path d="M 291.724362 268.321635 
L 295.244244 268.321635 
L 295.244244 265.781864 
L 291.724362 265.781864 
z
" clip-path="url(#p2ed51af644)" style="fill: #1f77b4"/>
   </g>
   <g id="patch_175">
    <path d="M 295.244244 268.321635 
L 298.764126 268.321635 
L 298.764126 265.80613 
L 295.244244 265.80613 
z
" clip-path="url(#p2ed51af644)" style="fill: #1f77b4"/>
   </g>
   <g id="patch_176">
    <path d="M 298.764126 268.321635 
L 302.284008 268.321635 
L 302.284008 265.891058 
L 298.764126 265.891058 
z
" clip-path="url(#p2ed51af644)" style="fill: #1f77b4"/>
   </g>
   <g id="patch_177">
    <path d="M 302.284008 268.321635 
L 305.80389 268.321635 
L 305.80389 265.858705 
L 302.284008 265.858705 
z
" clip-path="url(#p2ed51af644)" style="fill: #1f77b4"/>
   </g>
   <g id="patch_178">
    <path d="M 305.80389 268.321635 
L 309.323772 268.321635 
L 309.323772 265.826351 
L 305.80389 265.826351 
z
" clip-path="url(#p2ed51af644)" style="fill: #1f77b4"/>
   </g>
   <g id="patch_179">
    <path d="M 309.323772 268.321635 
L 312.843654 268.321635 
L 312.843654 265.862749 
L 309.323772 265.862749 
z
" clip-path="url(#p2ed51af644)" style="fill: #1f77b4"/>
   </g>
   <g id="patch_180">
    <path d="M 312.843654 268.321635 
L 316.363536 268.321635 
L 316.363536 265.579653 
L 312.843654 265.579653 
z
" clip-path="url(#p2ed51af644)" style="fill: #1f77b4"/>
   </g>
   <g id="patch_181">
    <path d="M 316.363536 268.321635 
L 319.883418 268.321635 
L 319.883418 265.980031 
L 316.363536 265.980031 
z
" clip-path="url(#p2ed51af644)" style="fill: #1f77b4"/>
   </g>
   <g id="patch_182">
    <path d="M 319.883418 268.321635 
L 323.4033 268.321635 
L 323.4033 265.640317 
L 319.883418 265.640317 
z
" clip-path="url(#p2ed51af644)" style="fill: #1f77b4"/>
   </g>
   <g id="patch_183">
    <path d="M 323.4033 268.321635 
L 326.923182 268.321635 
L 326.923182 265.769732 
L 323.4033 265.769732 
z
" clip-path="url(#p2ed51af644)" style="fill: #1f77b4"/>
   </g>
   <g id="patch_184">
    <path d="M 326.923182 268.321635 
L 330.443064 268.321635 
L 330.443064 265.866793 
L 326.923182 265.866793 
z
" clip-path="url(#p2ed51af644)" style="fill: #1f77b4"/>
   </g>
   <g id="patch_185">
    <path d="M 330.443064 268.321635 
L 333.962946 268.321635 
L 333.962946 265.80613 
L 330.443064 265.80613 
z
" clip-path="url(#p2ed51af644)" style="fill: #1f77b4"/>
   </g>
   <g id="patch_186">
    <path d="M 333.962946 268.321635 
L 337.482828 268.321635 
L 337.482828 265.70098 
L 333.962946 265.70098 
z
" clip-path="url(#p2ed51af644)" style="fill: #1f77b4"/>
   </g>
   <g id="patch_187">
    <path d="M 337.482828 268.321635 
L 341.00271 268.321635 
L 341.00271 265.850616 
L 337.482828 265.850616 
z
" clip-path="url(#p2ed51af644)" style="fill: #1f77b4"/>
   </g>
   <g id="patch_188">
    <path d="M 341.00271 268.321635 
L 344.522592 268.321635 
L 344.522592 265.943633 
L 341.00271 265.943633 
z
" clip-path="url(#p2ed51af644)" style="fill: #1f77b4"/>
   </g>
   <g id="patch_189">
    <path d="M 344.522592 268.321635 
L 348.042474 268.321635 
L 348.042474 265.80613 
L 344.522592 265.80613 
z
" clip-path="url(#p2ed51af644)" style="fill: #1f77b4"/>
   </g>
   <g id="patch_190">
    <path d="M 348.042474 268.321635 
L 351.562356 268.321635 
L 351.562356 265.80613 
L 348.042474 265.80613 
z
" clip-path="url(#p2ed51af644)" style="fill: #1f77b4"/>
   </g>
   <g id="patch_191">
    <path d="M 351.562356 268.321635 
L 355.082238 268.321635 
L 355.082238 265.721201 
L 351.562356 265.721201 
z
" clip-path="url(#p2ed51af644)" style="fill: #1f77b4"/>
   </g>
   <g id="patch_192">
    <path d="M 355.082238 268.321635 
L 358.60212 268.321635 
L 358.60212 265.927456 
L 355.082238 265.927456 
z
" clip-path="url(#p2ed51af644)" style="fill: #1f77b4"/>
   </g>
   <g id="patch_193">
    <path d="M 358.60212 268.321635 
L 362.122002 268.321635 
L 362.122002 265.745467 
L 358.60212 265.745467 
z
" clip-path="url(#p2ed51af644)" style="fill: #1f77b4"/>
   </g>
   <g id="patch_194">
    <path d="M 362.122002 268.321635 
L 365.641884 268.321635 
L 365.641884 265.802086 
L 362.122002 265.802086 
z
" clip-path="url(#p2ed51af644)" style="fill: #1f77b4"/>
   </g>
   <g id="patch_195">
    <path d="M 365.641884 268.321635 
L 369.161766 268.321635 
L 369.161766 265.72929 
L 365.641884 265.72929 
z
" clip-path="url(#p2ed51af644)" style="fill: #1f77b4"/>
   </g>
   <g id="patch_196">
    <path d="M 369.161766 268.321635 
L 372.681648 268.321635 
L 372.681648 265.834439 
L 369.161766 265.834439 
z
" clip-path="url(#p2ed51af644)" style="fill: #1f77b4"/>
   </g>
   <g id="patch_197">
    <path d="M 372.681648 268.321635 
L 376.20153 268.321635 
L 376.20153 265.903191 
L 372.681648 265.903191 
z
" clip-path="url(#p2ed51af644)" style="fill: #1f77b4"/>
   </g>
   <g id="patch_198">
    <path d="M 376.20153 268.321635 
L 379.721412 268.321635 
L 379.721412 265.802086 
L 376.20153 265.802086 
z
" clip-path="url(#p2ed51af644)" style="fill: #1f77b4"/>
   </g>
   <g id="patch_199">
    <path d="M 379.721412 268.321635 
L 383.241294 268.321635 
L 383.241294 265.664582 
L 379.721412 265.664582 
z
" clip-path="url(#p2ed51af644)" style="fill: #1f77b4"/>
   </g>
   <g id="patch_200">
    <path d="M 383.241294 268.321635 
L 386.761176 268.321635 
L 386.761176 265.846572 
L 383.241294 265.846572 
z
" clip-path="url(#p2ed51af644)" style="fill: #1f77b4"/>
   </g>
   <g id="patch_201">
    <path d="M 386.761176 268.321635 
L 390.281058 268.321635 
L 390.281058 265.80613 
L 386.761176 265.80613 
z
" clip-path="url(#p2ed51af644)" style="fill: #1f77b4"/>
   </g>
   <g id="patch_202">
    <path d="M 390.281058 268.321635 
L 393.80094 268.321635 
L 393.80094 266.995131 
L 390.281058 266.995131 
z
" clip-path="url(#p2ed51af644)" style="fill: #1f77b4"/>
   </g>
   <g id="patch_203">
    <path d="M 393.80094 268.321635 
L 397.320822 268.321635 
L 397.320822 268.321635 
L 393.80094 268.321635 
z
" clip-path="url(#p2ed51af644)" style="fill: #1f77b4"/>
   </g>
   <g id="patch_204">
    <path d="M 397.320822 268.321635 
L 400.840704 268.321635 
L 400.840704 268.321635 
L 397.320822 268.321635 
z
" clip-path="url(#p2ed51af644)" style="fill: #1f77b4"/>
   </g>
   <g id="patch_205">
    <path d="M 400.840704 268.321635 
L 404.360586 268.321635 
L 404.360586 268.321635 
L 400.840704 268.321635 
z
" clip-path="url(#p2ed51af644)" style="fill: #1f77b4"/>
   </g>
   <g id="patch_206">
    <path d="M 404.360586 268.321635 
L 407.880468 268.321635 
L 407.880468 268.321635 
L 404.360586 268.321635 
z
" clip-path="url(#p2ed51af644)" style="fill: #1f77b4"/>
   </g>
   <g id="patch_207">
    <path d="M 407.880468 268.321635 
L 411.40035 268.321635 
L 411.40035 268.317591 
L 407.880468 268.317591 
z
" clip-path="url(#p2ed51af644)" style="fill: #1f77b4"/>
   </g>
   <g id="matplotlib.axis_3">
    <g id="xtick_6">
     <g id="line2d_9">
      <g>
       <use xlink:href="#m01d659a21c" x="55.279008" y="268.321635" style="stroke: #000000; stroke-width: 0.8"/>
      </g>
     </g>
     <g id="text_10">
      <!-- 0 -->
      <g transform="translate(52.097758 282.920073)scale(0.1 -0.1)">
       <use xlink:href="#DejaVuSans-30"/>
      </g>
     </g>
    </g>
    <g id="xtick_7">
     <g id="line2d_10">
      <g>
       <use xlink:href="#m01d659a21c" x="122.648771" y="268.321635" style="stroke: #000000; stroke-width: 0.8"/>
      </g>
     </g>
     <g id="text_11">
      <!-- 1000 -->
      <g transform="translate(109.923771 282.920073)scale(0.1 -0.1)">
       <use xlink:href="#DejaVuSans-31"/>
       <use xlink:href="#DejaVuSans-30" x="63.623047"/>
       <use xlink:href="#DejaVuSans-30" x="127.246094"/>
       <use xlink:href="#DejaVuSans-30" x="190.869141"/>
      </g>
     </g>
    </g>
    <g id="xtick_8">
     <g id="line2d_11">
      <g>
       <use xlink:href="#m01d659a21c" x="190.018534" y="268.321635" style="stroke: #000000; stroke-width: 0.8"/>
      </g>
     </g>
     <g id="text_12">
      <!-- 2000 -->
      <g transform="translate(177.293534 282.920073)scale(0.1 -0.1)">
       <use xlink:href="#DejaVuSans-32"/>
       <use xlink:href="#DejaVuSans-30" x="63.623047"/>
       <use xlink:href="#DejaVuSans-30" x="127.246094"/>
       <use xlink:href="#DejaVuSans-30" x="190.869141"/>
      </g>
     </g>
    </g>
    <g id="xtick_9">
     <g id="line2d_12">
      <g>
       <use xlink:href="#m01d659a21c" x="257.388297" y="268.321635" style="stroke: #000000; stroke-width: 0.8"/>
      </g>
     </g>
     <g id="text_13">
      <!-- 3000 -->
      <g transform="translate(244.663297 282.920073)scale(0.1 -0.1)">
       <defs>
        <path id="DejaVuSans-33" d="M 2597 2516 
Q 3050 2419 3304 2112 
Q 3559 1806 3559 1356 
Q 3559 666 3084 287 
Q 2609 -91 1734 -91 
Q 1441 -91 1130 -33 
Q 819 25 488 141 
L 488 750 
Q 750 597 1062 519 
Q 1375 441 1716 441 
Q 2309 441 2620 675 
Q 2931 909 2931 1356 
Q 2931 1769 2642 2001 
Q 2353 2234 1838 2234 
L 1294 2234 
L 1294 2753 
L 1863 2753 
Q 2328 2753 2575 2939 
Q 2822 3125 2822 3475 
Q 2822 3834 2567 4026 
Q 2313 4219 1838 4219 
Q 1578 4219 1281 4162 
Q 984 4106 628 3988 
L 628 4550 
Q 988 4650 1302 4700 
Q 1616 4750 1894 4750 
Q 2613 4750 3031 4423 
Q 3450 4097 3450 3541 
Q 3450 3153 3228 2886 
Q 3006 2619 2597 2516 
z
" transform="scale(0.015625)"/>
       </defs>
       <use xlink:href="#DejaVuSans-33"/>
       <use xlink:href="#DejaVuSans-30" x="63.623047"/>
       <use xlink:href="#DejaVuSans-30" x="127.246094"/>
       <use xlink:href="#DejaVuSans-30" x="190.869141"/>
      </g>
     </g>
    </g>
    <g id="xtick_10">
     <g id="line2d_13">
      <g>
       <use xlink:href="#m01d659a21c" x="324.75806" y="268.321635" style="stroke: #000000; stroke-width: 0.8"/>
      </g>
     </g>
     <g id="text_14">
      <!-- 4000 -->
      <g transform="translate(312.03306 282.920073)scale(0.1 -0.1)">
       <use xlink:href="#DejaVuSans-34"/>
       <use xlink:href="#DejaVuSans-30" x="63.623047"/>
       <use xlink:href="#DejaVuSans-30" x="127.246094"/>
       <use xlink:href="#DejaVuSans-30" x="190.869141"/>
      </g>
     </g>
    </g>
    <g id="xtick_11">
     <g id="line2d_14">
      <g>
       <use xlink:href="#m01d659a21c" x="392.127823" y="268.321635" style="stroke: #000000; stroke-width: 0.8"/>
      </g>
     </g>
     <g id="text_15">
      <!-- 5000 -->
      <g transform="translate(379.402823 282.920073)scale(0.1 -0.1)">
       <defs>
        <path id="DejaVuSans-35" d="M 691 4666 
L 3169 4666 
L 3169 4134 
L 1269 4134 
L 1269 2991 
Q 1406 3038 1543 3061 
Q 1681 3084 1819 3084 
Q 2600 3084 3056 2656 
Q 3513 2228 3513 1497 
Q 3513 744 3044 326 
Q 2575 -91 1722 -91 
Q 1428 -91 1123 -41 
Q 819 9 494 109 
L 494 744 
Q 775 591 1075 516 
Q 1375 441 1709 441 
Q 2250 441 2565 725 
Q 2881 1009 2881 1497 
Q 2881 1984 2565 2268 
Q 2250 2553 1709 2553 
Q 1456 2553 1204 2497 
Q 953 2441 691 2322 
L 691 4666 
z
" transform="scale(0.015625)"/>
       </defs>
       <use xlink:href="#DejaVuSans-35"/>
       <use xlink:href="#DejaVuSans-30" x="63.623047"/>
       <use xlink:href="#DejaVuSans-30" x="127.246094"/>
       <use xlink:href="#DejaVuSans-30" x="190.869141"/>
      </g>
     </g>
    </g>
   </g>
   <g id="matplotlib.axis_4">
    <g id="ytick_4">
     <g id="line2d_15">
      <g>
       <use xlink:href="#m23e317dbd9" x="41.81274" y="268.321635" style="stroke: #000000; stroke-width: 0.8"/>
      </g>
     </g>
     <g id="text_16">
      <!-- 0 -->
      <g transform="translate(28.45024 272.120854)scale(0.1 -0.1)">
       <use xlink:href="#DejaVuSans-30"/>
      </g>
     </g>
    </g>
    <g id="ytick_5">
     <g id="line2d_16">
      <g>
       <use xlink:href="#m23e317dbd9" x="41.81274" y="227.879429" style="stroke: #000000; stroke-width: 0.8"/>
      </g>
     </g>
     <g id="text_17">
      <!-- 10000 -->
      <g transform="translate(3.00024 231.678648)scale(0.1 -0.1)">
       <use xlink:href="#DejaVuSans-31"/>
       <use xlink:href="#DejaVuSans-30" x="63.623047"/>
       <use xlink:href="#DejaVuSans-30" x="127.246094"/>
       <use xlink:href="#DejaVuSans-30" x="190.869141"/>
       <use xlink:href="#DejaVuSans-30" x="254.492188"/>
      </g>
     </g>
    </g>
    <g id="ytick_6">
     <g id="line2d_17">
      <g>
       <use xlink:href="#m23e317dbd9" x="41.81274" y="187.437224" style="stroke: #000000; stroke-width: 0.8"/>
      </g>
     </g>
     <g id="text_18">
      <!-- 20000 -->
      <g transform="translate(3.00024 191.236442)scale(0.1 -0.1)">
       <use xlink:href="#DejaVuSans-32"/>
       <use xlink:href="#DejaVuSans-30" x="63.623047"/>
       <use xlink:href="#DejaVuSans-30" x="127.246094"/>
       <use xlink:href="#DejaVuSans-30" x="190.869141"/>
       <use xlink:href="#DejaVuSans-30" x="254.492188"/>
      </g>
     </g>
    </g>
   </g>
   <g id="patch_208">
    <path d="M 41.81274 268.321635 
L 41.81274 170.92548 
" style="fill: none; stroke: #000000; stroke-width: 0.8; stroke-linejoin: miter; stroke-linecap: square"/>
   </g>
   <g id="patch_209">
    <path d="M 428.99976 268.321635 
L 428.99976 170.92548 
" style="fill: none; stroke: #000000; stroke-width: 0.8; stroke-linejoin: miter; stroke-linecap: square"/>
   </g>
   <g id="patch_210">
    <path d="M 41.81274 268.321635 
L 428.99976 268.321635 
" style="fill: none; stroke: #000000; stroke-width: 0.8; stroke-linejoin: miter; stroke-linecap: square"/>
   </g>
   <g id="patch_211">
    <path d="M 41.81274 170.92548 
L 428.99976 170.92548 
" style="fill: none; stroke: #000000; stroke-width: 0.8; stroke-linejoin: miter; stroke-linecap: square"/>
   </g>
   <g id="text_19">
    <!-- $H_0$ -->
    <g transform="translate(228.02625 164.92548)scale(0.12 -0.12)">
     <defs>
      <path id="DejaVuSans-Oblique-48" d="M 1081 4666 
L 1716 4666 
L 1344 2753 
L 3634 2753 
L 4006 4666 
L 4641 4666 
L 3731 0 
L 3097 0 
L 3531 2222 
L 1241 2222 
L 806 0 
L 172 0 
L 1081 4666 
z
" transform="scale(0.015625)"/>
     </defs>
     <use xlink:href="#DejaVuSans-Oblique-48" transform="translate(0 0.09375)"/>
     <use xlink:href="#DejaVuSans-30" transform="translate(75.195312 -16.3125)scale(0.7)"/>
    </g>
   </g>
  </g>
  <g id="text_20">
   <!-- Histogramme de la masse des bosons de Higgs -->
   <g transform="translate(73.425938 12.118365)scale(0.12 -0.12)">
    <defs>
     <path id="DejaVuSans-48" d="M 628 4666 
L 1259 4666 
L 1259 2753 
L 3553 2753 
L 3553 4666 
L 4184 4666 
L 4184 0 
L 3553 0 
L 3553 2222 
L 1259 2222 
L 1259 0 
L 628 0 
L 628 4666 
z
" transform="scale(0.015625)"/>
     <path id="DejaVuSans-69" d="M 603 3500 
L 1178 3500 
L 1178 0 
L 603 0 
L 603 3500 
z
M 603 4863 
L 1178 4863 
L 1178 4134 
L 603 4134 
L 603 4863 
z
" transform="scale(0.015625)"/>
     <path id="DejaVuSans-73" d="M 2834 3397 
L 2834 2853 
Q 2591 2978 2328 3040 
Q 2066 3103 1784 3103 
Q 1356 3103 1142 2972 
Q 928 2841 928 2578 
Q 928 2378 1081 2264 
Q 1234 2150 1697 2047 
L 1894 2003 
Q 2506 1872 2764 1633 
Q 3022 1394 3022 966 
Q 3022 478 2636 193 
Q 2250 -91 1575 -91 
Q 1294 -91 989 -36 
Q 684 19 347 128 
L 347 722 
Q 666 556 975 473 
Q 1284 391 1588 391 
Q 1994 391 2212 530 
Q 2431 669 2431 922 
Q 2431 1156 2273 1281 
Q 2116 1406 1581 1522 
L 1381 1569 
Q 847 1681 609 1914 
Q 372 2147 372 2553 
Q 372 3047 722 3315 
Q 1072 3584 1716 3584 
Q 2034 3584 2315 3537 
Q 2597 3491 2834 3397 
z
" transform="scale(0.015625)"/>
     <path id="DejaVuSans-74" d="M 1172 4494 
L 1172 3500 
L 2356 3500 
L 2356 3053 
L 1172 3053 
L 1172 1153 
Q 1172 725 1289 603 
Q 1406 481 1766 481 
L 2356 481 
L 2356 0 
L 1766 0 
Q 1100 0 847 248 
Q 594 497 594 1153 
L 594 3053 
L 172 3053 
L 172 3500 
L 594 3500 
L 594 4494 
L 1172 4494 
z
" transform="scale(0.015625)"/>
     <path id="DejaVuSans-6f" d="M 1959 3097 
Q 1497 3097 1228 2736 
Q 959 2375 959 1747 
Q 959 1119 1226 758 
Q 1494 397 1959 397 
Q 2419 397 2687 759 
Q 2956 1122 2956 1747 
Q 2956 2369 2687 2733 
Q 2419 3097 1959 3097 
z
M 1959 3584 
Q 2709 3584 3137 3096 
Q 3566 2609 3566 1747 
Q 3566 888 3137 398 
Q 2709 -91 1959 -91 
Q 1206 -91 779 398 
Q 353 888 353 1747 
Q 353 2609 779 3096 
Q 1206 3584 1959 3584 
z
" transform="scale(0.015625)"/>
     <path id="DejaVuSans-67" d="M 2906 1791 
Q 2906 2416 2648 2759 
Q 2391 3103 1925 3103 
Q 1463 3103 1205 2759 
Q 947 2416 947 1791 
Q 947 1169 1205 825 
Q 1463 481 1925 481 
Q 2391 481 2648 825 
Q 2906 1169 2906 1791 
z
M 3481 434 
Q 3481 -459 3084 -895 
Q 2688 -1331 1869 -1331 
Q 1566 -1331 1297 -1286 
Q 1028 -1241 775 -1147 
L 775 -588 
Q 1028 -725 1275 -790 
Q 1522 -856 1778 -856 
Q 2344 -856 2625 -561 
Q 2906 -266 2906 331 
L 2906 616 
Q 2728 306 2450 153 
Q 2172 0 1784 0 
Q 1141 0 747 490 
Q 353 981 353 1791 
Q 353 2603 747 3093 
Q 1141 3584 1784 3584 
Q 2172 3584 2450 3431 
Q 2728 3278 2906 2969 
L 2906 3500 
L 3481 3500 
L 3481 434 
z
" transform="scale(0.015625)"/>
     <path id="DejaVuSans-72" d="M 2631 2963 
Q 2534 3019 2420 3045 
Q 2306 3072 2169 3072 
Q 1681 3072 1420 2755 
Q 1159 2438 1159 1844 
L 1159 0 
L 581 0 
L 581 3500 
L 1159 3500 
L 1159 2956 
Q 1341 3275 1631 3429 
Q 1922 3584 2338 3584 
Q 2397 3584 2469 3576 
Q 2541 3569 2628 3553 
L 2631 2963 
z
" transform="scale(0.015625)"/>
     <path id="DejaVuSans-61" d="M 2194 1759 
Q 1497 1759 1228 1600 
Q 959 1441 959 1056 
Q 959 750 1161 570 
Q 1363 391 1709 391 
Q 2188 391 2477 730 
Q 2766 1069 2766 1631 
L 2766 1759 
L 2194 1759 
z
M 3341 1997 
L 3341 0 
L 2766 0 
L 2766 531 
Q 2569 213 2275 61 
Q 1981 -91 1556 -91 
Q 1019 -91 701 211 
Q 384 513 384 1019 
Q 384 1609 779 1909 
Q 1175 2209 1959 2209 
L 2766 2209 
L 2766 2266 
Q 2766 2663 2505 2880 
Q 2244 3097 1772 3097 
Q 1472 3097 1187 3025 
Q 903 2953 641 2809 
L 641 3341 
Q 956 3463 1253 3523 
Q 1550 3584 1831 3584 
Q 2591 3584 2966 3190 
Q 3341 2797 3341 1997 
z
" transform="scale(0.015625)"/>
     <path id="DejaVuSans-6d" d="M 3328 2828 
Q 3544 3216 3844 3400 
Q 4144 3584 4550 3584 
Q 5097 3584 5394 3201 
Q 5691 2819 5691 2113 
L 5691 0 
L 5113 0 
L 5113 2094 
Q 5113 2597 4934 2840 
Q 4756 3084 4391 3084 
Q 3944 3084 3684 2787 
Q 3425 2491 3425 1978 
L 3425 0 
L 2847 0 
L 2847 2094 
Q 2847 2600 2669 2842 
Q 2491 3084 2119 3084 
Q 1678 3084 1418 2786 
Q 1159 2488 1159 1978 
L 1159 0 
L 581 0 
L 581 3500 
L 1159 3500 
L 1159 2956 
Q 1356 3278 1631 3431 
Q 1906 3584 2284 3584 
Q 2666 3584 2933 3390 
Q 3200 3197 3328 2828 
z
" transform="scale(0.015625)"/>
     <path id="DejaVuSans-65" d="M 3597 1894 
L 3597 1613 
L 953 1613 
Q 991 1019 1311 708 
Q 1631 397 2203 397 
Q 2534 397 2845 478 
Q 3156 559 3463 722 
L 3463 178 
Q 3153 47 2828 -22 
Q 2503 -91 2169 -91 
Q 1331 -91 842 396 
Q 353 884 353 1716 
Q 353 2575 817 3079 
Q 1281 3584 2069 3584 
Q 2775 3584 3186 3129 
Q 3597 2675 3597 1894 
z
M 3022 2063 
Q 3016 2534 2758 2815 
Q 2500 3097 2075 3097 
Q 1594 3097 1305 2825 
Q 1016 2553 972 2059 
L 3022 2063 
z
" transform="scale(0.015625)"/>
     <path id="DejaVuSans-20" transform="scale(0.015625)"/>
     <path id="DejaVuSans-64" d="M 2906 2969 
L 2906 4863 
L 3481 4863 
L 3481 0 
L 2906 0 
L 2906 525 
Q 2725 213 2448 61 
Q 2172 -91 1784 -91 
Q 1150 -91 751 415 
Q 353 922 353 1747 
Q 353 2572 751 3078 
Q 1150 3584 1784 3584 
Q 2172 3584 2448 3432 
Q 2725 3281 2906 2969 
z
M 947 1747 
Q 947 1113 1208 752 
Q 1469 391 1925 391 
Q 2381 391 2643 752 
Q 2906 1113 2906 1747 
Q 2906 2381 2643 2742 
Q 2381 3103 1925 3103 
Q 1469 3103 1208 2742 
Q 947 2381 947 1747 
z
" transform="scale(0.015625)"/>
     <path id="DejaVuSans-6c" d="M 603 4863 
L 1178 4863 
L 1178 0 
L 603 0 
L 603 4863 
z
" transform="scale(0.015625)"/>
     <path id="DejaVuSans-62" d="M 3116 1747 
Q 3116 2381 2855 2742 
Q 2594 3103 2138 3103 
Q 1681 3103 1420 2742 
Q 1159 2381 1159 1747 
Q 1159 1113 1420 752 
Q 1681 391 2138 391 
Q 2594 391 2855 752 
Q 3116 1113 3116 1747 
z
M 1159 2969 
Q 1341 3281 1617 3432 
Q 1894 3584 2278 3584 
Q 2916 3584 3314 3078 
Q 3713 2572 3713 1747 
Q 3713 922 3314 415 
Q 2916 -91 2278 -91 
Q 1894 -91 1617 61 
Q 1341 213 1159 525 
L 1159 0 
L 581 0 
L 581 4863 
L 1159 4863 
L 1159 2969 
z
" transform="scale(0.015625)"/>
     <path id="DejaVuSans-6e" d="M 3513 2113 
L 3513 0 
L 2938 0 
L 2938 2094 
Q 2938 2591 2744 2837 
Q 2550 3084 2163 3084 
Q 1697 3084 1428 2787 
Q 1159 2491 1159 1978 
L 1159 0 
L 581 0 
L 581 3500 
L 1159 3500 
L 1159 2956 
Q 1366 3272 1645 3428 
Q 1925 3584 2291 3584 
Q 2894 3584 3203 3211 
Q 3513 2838 3513 2113 
z
" transform="scale(0.015625)"/>
    </defs>
    <use xlink:href="#DejaVuSans-48"/>
    <use xlink:href="#DejaVuSans-69" x="75.195312"/>
    <use xlink:href="#DejaVuSans-73" x="102.978516"/>
    <use xlink:href="#DejaVuSans-74" x="155.078125"/>
    <use xlink:href="#DejaVuSans-6f" x="194.287109"/>
    <use xlink:href="#DejaVuSans-67" x="255.46875"/>
    <use xlink:href="#DejaVuSans-72" x="318.945312"/>
    <use xlink:href="#DejaVuSans-61" x="360.058594"/>
    <use xlink:href="#DejaVuSans-6d" x="421.337891"/>
    <use xlink:href="#DejaVuSans-6d" x="518.75"/>
    <use xlink:href="#DejaVuSans-65" x="616.162109"/>
    <use xlink:href="#DejaVuSans-20" x="677.685547"/>
    <use xlink:href="#DejaVuSans-64" x="709.472656"/>
    <use xlink:href="#DejaVuSans-65" x="772.949219"/>
    <use xlink:href="#DejaVuSans-20" x="834.472656"/>
    <use xlink:href="#DejaVuSans-6c" x="866.259766"/>
    <use xlink:href="#DejaVuSans-61" x="894.042969"/>
    <use xlink:href="#DejaVuSans-20" x="955.322266"/>
    <use xlink:href="#DejaVuSans-6d" x="987.109375"/>
    <use xlink:href="#DejaVuSans-61" x="1084.521484"/>
    <use xlink:href="#DejaVuSans-73" x="1145.800781"/>
    <use xlink:href="#DejaVuSans-73" x="1197.900391"/>
    <use xlink:href="#DejaVuSans-65" x="1250"/>
    <use xlink:href="#DejaVuSans-20" x="1311.523438"/>
    <use xlink:href="#DejaVuSans-64" x="1343.310547"/>
    <use xlink:href="#DejaVuSans-65" x="1406.787109"/>
    <use xlink:href="#DejaVuSans-73" x="1468.310547"/>
    <use xlink:href="#DejaVuSans-20" x="1520.410156"/>
    <use xlink:href="#DejaVuSans-62" x="1552.197266"/>
    <use xlink:href="#DejaVuSans-6f" x="1615.673828"/>
    <use xlink:href="#DejaVuSans-73" x="1676.855469"/>
    <use xlink:href="#DejaVuSans-6f" x="1728.955078"/>
    <use xlink:href="#DejaVuSans-6e" x="1790.136719"/>
    <use xlink:href="#DejaVuSans-73" x="1853.515625"/>
    <use xlink:href="#DejaVuSans-20" x="1905.615234"/>
    <use xlink:href="#DejaVuSans-64" x="1937.402344"/>
    <use xlink:href="#DejaVuSans-65" x="2000.878906"/>
    <use xlink:href="#DejaVuSans-20" x="2062.402344"/>
    <use xlink:href="#DejaVuSans-48" x="2094.189453"/>
    <use xlink:href="#DejaVuSans-69" x="2169.384766"/>
    <use xlink:href="#DejaVuSans-67" x="2197.167969"/>
    <use xlink:href="#DejaVuSans-67" x="2260.644531"/>
    <use xlink:href="#DejaVuSans-73" x="2324.121094"/>
   </g>
  </g>
  <g id="text_21">
   <!-- Masse (GeV) -->
   <g transform="translate(184.474219 302.4)scale(0.1 -0.1)">
    <defs>
     <path id="DejaVuSans-4d" d="M 628 4666 
L 1569 4666 
L 2759 1491 
L 3956 4666 
L 4897 4666 
L 4897 0 
L 4281 0 
L 4281 4097 
L 3078 897 
L 2444 897 
L 1241 4097 
L 1241 0 
L 628 0 
L 628 4666 
z
" transform="scale(0.015625)"/>
     <path id="DejaVuSans-28" d="M 1984 4856 
Q 1566 4138 1362 3434 
Q 1159 2731 1159 2009 
Q 1159 1288 1364 580 
Q 1569 -128 1984 -844 
L 1484 -844 
Q 1016 -109 783 600 
Q 550 1309 550 2009 
Q 550 2706 781 3412 
Q 1013 4119 1484 4856 
L 1984 4856 
z
" transform="scale(0.015625)"/>
     <path id="DejaVuSans-47" d="M 3809 666 
L 3809 1919 
L 2778 1919 
L 2778 2438 
L 4434 2438 
L 4434 434 
Q 4069 175 3628 42 
Q 3188 -91 2688 -91 
Q 1594 -91 976 548 
Q 359 1188 359 2328 
Q 359 3472 976 4111 
Q 1594 4750 2688 4750 
Q 3144 4750 3555 4637 
Q 3966 4525 4313 4306 
L 4313 3634 
Q 3963 3931 3569 4081 
Q 3175 4231 2741 4231 
Q 1884 4231 1454 3753 
Q 1025 3275 1025 2328 
Q 1025 1384 1454 906 
Q 1884 428 2741 428 
Q 3075 428 3337 486 
Q 3600 544 3809 666 
z
" transform="scale(0.015625)"/>
     <path id="DejaVuSans-56" d="M 1831 0 
L 50 4666 
L 709 4666 
L 2188 738 
L 3669 4666 
L 4325 4666 
L 2547 0 
L 1831 0 
z
" transform="scale(0.015625)"/>
     <path id="DejaVuSans-29" d="M 513 4856 
L 1013 4856 
Q 1481 4119 1714 3412 
Q 1947 2706 1947 2009 
Q 1947 1309 1714 600 
Q 1481 -109 1013 -844 
L 513 -844 
Q 928 -128 1133 580 
Q 1338 1288 1338 2009 
Q 1338 2731 1133 3434 
Q 928 4138 513 4856 
z
" transform="scale(0.015625)"/>
    </defs>
    <use xlink:href="#DejaVuSans-4d"/>
    <use xlink:href="#DejaVuSans-61" x="86.279297"/>
    <use xlink:href="#DejaVuSans-73" x="147.558594"/>
    <use xlink:href="#DejaVuSans-73" x="199.658203"/>
    <use xlink:href="#DejaVuSans-65" x="251.757812"/>
    <use xlink:href="#DejaVuSans-20" x="313.28125"/>
    <use xlink:href="#DejaVuSans-28" x="345.068359"/>
    <use xlink:href="#DejaVuSans-47" x="384.082031"/>
    <use xlink:href="#DejaVuSans-65" x="461.572266"/>
    <use xlink:href="#DejaVuSans-56" x="523.095703"/>
    <use xlink:href="#DejaVuSans-29" x="591.503906"/>
   </g>
  </g>
  <g id="text_22">
   <!-- N -->
   <g transform="translate(-9.681563 147.740625)rotate(-90)scale(0.1 -0.1)">
    <defs>
     <path id="DejaVuSans-4e" d="M 628 4666 
L 1478 4666 
L 3547 763 
L 3547 4666 
L 4159 4666 
L 4159 0 
L 3309 0 
L 1241 3903 
L 1241 0 
L 628 0 
L 628 4666 
z
" transform="scale(0.015625)"/>
    </defs>
    <use xlink:href="#DejaVuSans-4e"/>
   </g>
  </g>
 </g>
 <defs>
  <clipPath id="pfaaf50fe95">
   <rect x="41.81274" y="35.732595" width="387.18702" height="97.396155"/>
  </clipPath>
  <clipPath id="p2ed51af644">
   <rect x="41.81274" y="170.92548" width="387.18702" height="97.396155"/>
  </clipPath>
 </defs>
</svg>
