<?xml version="1.0" encoding="utf-8" standalone="no"?>
<!DOCTYPE svg PUBLIC "-//W3C//DTD SVG 1.1//EN"
  "http://www.w3.org/Graphics/SVG/1.1/DTD/svg11.dtd">
<svg xmlns:xlink="http://www.w3.org/1999/xlink" width="368.374047pt" height="264.650875pt" viewBox="0 0 368.374047 264.650875" xmlns="http://www.w3.org/2000/svg" version="1.1">
 <metadata>
  <rdf:RDF xmlns:dc="http://purl.org/dc/elements/1.1/" xmlns:cc="http://creativecommons.org/ns#" xmlns:rdf="http://www.w3.org/1999/02/22-rdf-syntax-ns#">
   <cc:Work>
    <dc:type rdf:resource="http://purl.org/dc/dcmitype/StillImage"/>
    <dc:date>2022-05-19T10:54:37.177449</dc:date>
    <dc:format>image/svg+xml</dc:format>
    <dc:creator>
     <cc:Agent>
      <dc:title>Matplotlib v3.5.2, https://matplotlib.org/</dc:title>
     </cc:Agent>
    </dc:creator>
   </cc:Work>
  </rdf:RDF>
 </metadata>
 <defs>
  <style type="text/css">*{stroke-linejoin: round; stroke-linecap: butt}</style>
 </defs>
 <g id="figure_1">
  <g id="patch_1">
   <path d="M 0 264.650875 
L 368.374047 264.650875 
L 368.374047 0 
L 0 0 
L 0 264.650875 
z
" style="fill: none"/>
  </g>
  <g id="axes_1">
   <g id="patch_2">
    <path d="M 29.974047 235.728062 
L 364.774047 235.728062 
L 364.774047 18.288062 
L 29.974047 18.288062 
z
" style="fill: #ffffff"/>
   </g>
   <g id="patch_3">
    <path d="M 45.192228 235.728062 
L 48.235865 235.728062 
L 48.235865 209.102756 
L 45.192228 209.102756 
z
" clip-path="url(#p1e941a3e0d)"/>
   </g>
   <g id="patch_4">
    <path d="M 48.235865 235.728062 
L 51.279501 235.728062 
L 51.279501 173.602348 
L 48.235865 173.602348 
z
" clip-path="url(#p1e941a3e0d)"/>
   </g>
   <g id="patch_5">
    <path d="M 51.279501 235.728062 
L 54.323137 235.728062 
L 54.323137 176.560715 
L 51.279501 176.560715 
z
" clip-path="url(#p1e941a3e0d)"/>
   </g>
   <g id="patch_6">
    <path d="M 54.323137 235.728062 
L 57.366774 235.728062 
L 57.366774 179.519082 
L 54.323137 179.519082 
z
" clip-path="url(#p1e941a3e0d)"/>
   </g>
   <g id="patch_7">
    <path d="M 57.366774 235.728062 
L 60.41041 235.728062 
L 60.41041 173.602348 
L 57.366774 173.602348 
z
" clip-path="url(#p1e941a3e0d)"/>
   </g>
   <g id="patch_8">
    <path d="M 60.41041 235.728062 
L 63.454047 235.728062 
L 63.454047 182.47745 
L 60.41041 182.47745 
z
" clip-path="url(#p1e941a3e0d)"/>
   </g>
   <g id="patch_9">
    <path d="M 63.454047 235.728062 
L 66.497683 235.728062 
L 66.497683 217.977858 
L 63.454047 217.977858 
z
" clip-path="url(#p1e941a3e0d)"/>
   </g>
   <g id="patch_10">
    <path d="M 66.497683 235.728062 
L 69.541319 235.728062 
L 69.541319 206.144388 
L 66.497683 206.144388 
z
" clip-path="url(#p1e941a3e0d)"/>
   </g>
   <g id="patch_11">
    <path d="M 69.541319 235.728062 
L 72.584956 235.728062 
L 72.584956 203.186021 
L 69.541319 203.186021 
z
" clip-path="url(#p1e941a3e0d)"/>
   </g>
   <g id="patch_12">
    <path d="M 72.584956 235.728062 
L 75.628592 235.728062 
L 75.628592 209.102756 
L 72.584956 209.102756 
z
" clip-path="url(#p1e941a3e0d)"/>
   </g>
   <g id="patch_13">
    <path d="M 75.628592 235.728062 
L 78.672228 235.728062 
L 78.672228 188.394184 
L 75.628592 188.394184 
z
" clip-path="url(#p1e941a3e0d)"/>
   </g>
   <g id="patch_14">
    <path d="M 78.672228 235.728062 
L 81.715865 235.728062 
L 81.715865 179.519082 
L 78.672228 179.519082 
z
" clip-path="url(#p1e941a3e0d)"/>
   </g>
   <g id="patch_15">
    <path d="M 81.715865 235.728062 
L 84.759501 235.728062 
L 84.759501 176.560715 
L 81.715865 176.560715 
z
" clip-path="url(#p1e941a3e0d)"/>
   </g>
   <g id="patch_16">
    <path d="M 84.759501 235.728062 
L 87.803137 235.728062 
L 87.803137 176.560715 
L 84.759501 176.560715 
z
" clip-path="url(#p1e941a3e0d)"/>
   </g>
   <g id="patch_17">
    <path d="M 87.803137 235.728062 
L 90.846774 235.728062 
L 90.846774 182.47745 
L 87.803137 182.47745 
z
" clip-path="url(#p1e941a3e0d)"/>
   </g>
   <g id="patch_18">
    <path d="M 90.846774 235.728062 
L 93.89041 235.728062 
L 93.89041 164.727246 
L 90.846774 164.727246 
z
" clip-path="url(#p1e941a3e0d)"/>
   </g>
   <g id="patch_19">
    <path d="M 93.89041 235.728062 
L 96.934047 235.728062 
L 96.934047 138.101939 
L 93.89041 138.101939 
z
" clip-path="url(#p1e941a3e0d)"/>
   </g>
   <g id="patch_20">
    <path d="M 96.934047 235.728062 
L 99.977683 235.728062 
L 99.977683 155.852143 
L 96.934047 155.852143 
z
" clip-path="url(#p1e941a3e0d)"/>
   </g>
   <g id="patch_21">
    <path d="M 99.977683 235.728062 
L 103.021319 235.728062 
L 103.021319 182.47745 
L 99.977683 182.47745 
z
" clip-path="url(#p1e941a3e0d)"/>
   </g>
   <g id="patch_22">
    <path d="M 103.021319 235.728062 
L 106.064956 235.728062 
L 106.064956 209.102756 
L 103.021319 209.102756 
z
" clip-path="url(#p1e941a3e0d)"/>
   </g>
   <g id="patch_23">
    <path d="M 106.064956 235.728062 
L 109.108592 235.728062 
L 109.108592 209.102756 
L 106.064956 209.102756 
z
" clip-path="url(#p1e941a3e0d)"/>
   </g>
   <g id="patch_24">
    <path d="M 109.108592 235.728062 
L 112.152228 235.728062 
L 112.152228 209.102756 
L 109.108592 209.102756 
z
" clip-path="url(#p1e941a3e0d)"/>
   </g>
   <g id="patch_25">
    <path d="M 112.152228 235.728062 
L 115.195865 235.728062 
L 115.195865 215.01949 
L 112.152228 215.01949 
z
" clip-path="url(#p1e941a3e0d)"/>
   </g>
   <g id="patch_26">
    <path d="M 115.195865 235.728062 
L 118.239501 235.728062 
L 118.239501 194.310919 
L 115.195865 194.310919 
z
" clip-path="url(#p1e941a3e0d)"/>
   </g>
   <g id="patch_27">
    <path d="M 118.239501 235.728062 
L 121.283137 235.728062 
L 121.283137 179.519082 
L 118.239501 179.519082 
z
" clip-path="url(#p1e941a3e0d)"/>
   </g>
   <g id="patch_28">
    <path d="M 121.283137 235.728062 
L 124.326774 235.728062 
L 124.326774 132.185205 
L 121.283137 132.185205 
z
" clip-path="url(#p1e941a3e0d)"/>
   </g>
   <g id="patch_29">
    <path d="M 124.326774 235.728062 
L 127.37041 235.728062 
L 127.37041 102.601531 
L 124.326774 102.601531 
z
" clip-path="url(#p1e941a3e0d)"/>
   </g>
   <g id="patch_30">
    <path d="M 127.37041 235.728062 
L 130.414047 235.728062 
L 130.414047 67.101123 
L 127.37041 67.101123 
z
" clip-path="url(#p1e941a3e0d)"/>
   </g>
   <g id="patch_31">
    <path d="M 130.414047 235.728062 
L 133.457683 235.728062 
L 133.457683 87.809695 
L 130.414047 87.809695 
z
" clip-path="url(#p1e941a3e0d)"/>
   </g>
   <g id="patch_32">
    <path d="M 133.457683 235.728062 
L 136.501319 235.728062 
L 136.501319 126.26847 
L 133.457683 126.26847 
z
" clip-path="url(#p1e941a3e0d)"/>
   </g>
   <g id="patch_33">
    <path d="M 136.501319 235.728062 
L 139.544956 235.728062 
L 139.544956 158.810511 
L 136.501319 158.810511 
z
" clip-path="url(#p1e941a3e0d)"/>
   </g>
   <g id="patch_34">
    <path d="M 139.544956 235.728062 
L 142.588592 235.728062 
L 142.588592 152.893776 
L 139.544956 152.893776 
z
" clip-path="url(#p1e941a3e0d)"/>
   </g>
   <g id="patch_35">
    <path d="M 142.588592 235.728062 
L 145.632228 235.728062 
L 145.632228 126.26847 
L 142.588592 126.26847 
z
" clip-path="url(#p1e941a3e0d)"/>
   </g>
   <g id="patch_36">
    <path d="M 145.632228 235.728062 
L 148.675865 235.728062 
L 148.675865 152.893776 
L 145.632228 152.893776 
z
" clip-path="url(#p1e941a3e0d)"/>
   </g>
   <g id="patch_37">
    <path d="M 148.675865 235.728062 
L 151.719501 235.728062 
L 151.719501 173.602348 
L 148.675865 173.602348 
z
" clip-path="url(#p1e941a3e0d)"/>
   </g>
   <g id="patch_38">
    <path d="M 151.719501 235.728062 
L 154.763137 235.728062 
L 154.763137 167.685613 
L 151.719501 167.685613 
z
" clip-path="url(#p1e941a3e0d)"/>
   </g>
   <g id="patch_39">
    <path d="M 154.763137 235.728062 
L 157.806774 235.728062 
L 157.806774 129.226837 
L 154.763137 129.226837 
z
" clip-path="url(#p1e941a3e0d)"/>
   </g>
   <g id="patch_40">
    <path d="M 157.806774 235.728062 
L 160.85041 235.728062 
L 160.85041 126.26847 
L 157.806774 126.26847 
z
" clip-path="url(#p1e941a3e0d)"/>
   </g>
   <g id="patch_41">
    <path d="M 160.85041 235.728062 
L 163.894047 235.728062 
L 163.894047 138.101939 
L 160.85041 138.101939 
z
" clip-path="url(#p1e941a3e0d)"/>
   </g>
   <g id="patch_42">
    <path d="M 163.894047 235.728062 
L 166.937683 235.728062 
L 166.937683 120.351735 
L 163.894047 120.351735 
z
" clip-path="url(#p1e941a3e0d)"/>
   </g>
   <g id="patch_43">
    <path d="M 166.937683 235.728062 
L 169.981319 235.728062 
L 169.981319 129.226837 
L 166.937683 129.226837 
z
" clip-path="url(#p1e941a3e0d)"/>
   </g>
   <g id="patch_44">
    <path d="M 169.981319 235.728062 
L 173.024956 235.728062 
L 173.024956 58.226021 
L 169.981319 58.226021 
z
" clip-path="url(#p1e941a3e0d)"/>
   </g>
   <g id="patch_45">
    <path d="M 173.024956 235.728062 
L 176.068592 235.728062 
L 176.068592 64.142756 
L 173.024956 64.142756 
z
" clip-path="url(#p1e941a3e0d)"/>
   </g>
   <g id="patch_46">
    <path d="M 176.068592 235.728062 
L 179.112228 235.728062 
L 179.112228 129.226837 
L 176.068592 129.226837 
z
" clip-path="url(#p1e941a3e0d)"/>
   </g>
   <g id="patch_47">
    <path d="M 179.112228 235.728062 
L 182.155865 235.728062 
L 182.155865 70.05949 
L 179.112228 70.05949 
z
" clip-path="url(#p1e941a3e0d)"/>
   </g>
   <g id="patch_48">
    <path d="M 182.155865 235.728062 
L 185.199501 235.728062 
L 185.199501 114.435001 
L 182.155865 114.435001 
z
" clip-path="url(#p1e941a3e0d)"/>
   </g>
   <g id="patch_49">
    <path d="M 185.199501 235.728062 
L 188.243137 235.728062 
L 188.243137 102.601531 
L 185.199501 102.601531 
z
" clip-path="url(#p1e941a3e0d)"/>
   </g>
   <g id="patch_50">
    <path d="M 188.243137 235.728062 
L 191.286774 235.728062 
L 191.286774 102.601531 
L 188.243137 102.601531 
z
" clip-path="url(#p1e941a3e0d)"/>
   </g>
   <g id="patch_51">
    <path d="M 191.286774 235.728062 
L 194.33041 235.728062 
L 194.33041 144.018674 
L 191.286774 144.018674 
z
" clip-path="url(#p1e941a3e0d)"/>
   </g>
   <g id="patch_52">
    <path d="M 194.33041 235.728062 
L 197.374047 235.728062 
L 197.374047 185.435817 
L 194.33041 185.435817 
z
" clip-path="url(#p1e941a3e0d)"/>
   </g>
   <g id="patch_53">
    <path d="M 197.374047 235.728062 
L 200.417683 235.728062 
L 200.417683 191.352552 
L 197.374047 191.352552 
z
" clip-path="url(#p1e941a3e0d)"/>
   </g>
   <g id="patch_54">
    <path d="M 200.417683 235.728062 
L 203.461319 235.728062 
L 203.461319 197.269286 
L 200.417683 197.269286 
z
" clip-path="url(#p1e941a3e0d)"/>
   </g>
   <g id="patch_55">
    <path d="M 203.461319 235.728062 
L 206.504956 235.728062 
L 206.504956 161.768878 
L 203.461319 161.768878 
z
" clip-path="url(#p1e941a3e0d)"/>
   </g>
   <g id="patch_56">
    <path d="M 206.504956 235.728062 
L 209.548592 235.728062 
L 209.548592 164.727246 
L 206.504956 164.727246 
z
" clip-path="url(#p1e941a3e0d)"/>
   </g>
   <g id="patch_57">
    <path d="M 209.548592 235.728062 
L 212.592228 235.728062 
L 212.592228 176.560715 
L 209.548592 176.560715 
z
" clip-path="url(#p1e941a3e0d)"/>
   </g>
   <g id="patch_58">
    <path d="M 212.592228 235.728062 
L 215.635865 235.728062 
L 215.635865 158.810511 
L 212.592228 158.810511 
z
" clip-path="url(#p1e941a3e0d)"/>
   </g>
   <g id="patch_59">
    <path d="M 215.635865 235.728062 
L 218.679501 235.728062 
L 218.679501 141.060307 
L 215.635865 141.060307 
z
" clip-path="url(#p1e941a3e0d)"/>
   </g>
   <g id="patch_60">
    <path d="M 218.679501 235.728062 
L 221.723137 235.728062 
L 221.723137 108.518266 
L 218.679501 108.518266 
z
" clip-path="url(#p1e941a3e0d)"/>
   </g>
   <g id="patch_61">
    <path d="M 221.723137 235.728062 
L 224.766774 235.728062 
L 224.766774 120.351735 
L 221.723137 120.351735 
z
" clip-path="url(#p1e941a3e0d)"/>
   </g>
   <g id="patch_62">
    <path d="M 224.766774 235.728062 
L 227.81041 235.728062 
L 227.81041 182.47745 
L 224.766774 182.47745 
z
" clip-path="url(#p1e941a3e0d)"/>
   </g>
   <g id="patch_63">
    <path d="M 227.81041 235.728062 
L 230.854047 235.728062 
L 230.854047 185.435817 
L 227.81041 185.435817 
z
" clip-path="url(#p1e941a3e0d)"/>
   </g>
   <g id="patch_64">
    <path d="M 230.854047 235.728062 
L 233.897683 235.728062 
L 233.897683 197.269286 
L 230.854047 197.269286 
z
" clip-path="url(#p1e941a3e0d)"/>
   </g>
   <g id="patch_65">
    <path d="M 233.897683 235.728062 
L 236.941319 235.728062 
L 236.941319 200.227654 
L 233.897683 200.227654 
z
" clip-path="url(#p1e941a3e0d)"/>
   </g>
   <g id="patch_66">
    <path d="M 236.941319 235.728062 
L 239.984956 235.728062 
L 239.984956 179.519082 
L 236.941319 179.519082 
z
" clip-path="url(#p1e941a3e0d)"/>
   </g>
   <g id="patch_67">
    <path d="M 239.984956 235.728062 
L 243.028592 235.728062 
L 243.028592 173.602348 
L 239.984956 173.602348 
z
" clip-path="url(#p1e941a3e0d)"/>
   </g>
   <g id="patch_68">
    <path d="M 243.028592 235.728062 
L 246.072228 235.728062 
L 246.072228 170.64398 
L 243.028592 170.64398 
z
" clip-path="url(#p1e941a3e0d)"/>
   </g>
   <g id="patch_69">
    <path d="M 246.072228 235.728062 
L 249.115865 235.728062 
L 249.115865 179.519082 
L 246.072228 179.519082 
z
" clip-path="url(#p1e941a3e0d)"/>
   </g>
   <g id="patch_70">
    <path d="M 249.115865 235.728062 
L 252.159501 235.728062 
L 252.159501 185.435817 
L 249.115865 185.435817 
z
" clip-path="url(#p1e941a3e0d)"/>
   </g>
   <g id="patch_71">
    <path d="M 252.159501 235.728062 
L 255.203137 235.728062 
L 255.203137 152.893776 
L 252.159501 152.893776 
z
" clip-path="url(#p1e941a3e0d)"/>
   </g>
   <g id="patch_72">
    <path d="M 255.203137 235.728062 
L 258.246774 235.728062 
L 258.246774 141.060307 
L 255.203137 141.060307 
z
" clip-path="url(#p1e941a3e0d)"/>
   </g>
   <g id="patch_73">
    <path d="M 258.246774 235.728062 
L 261.29041 235.728062 
L 261.29041 108.518266 
L 258.246774 108.518266 
z
" clip-path="url(#p1e941a3e0d)"/>
   </g>
   <g id="patch_74">
    <path d="M 261.29041 235.728062 
L 264.334047 235.728062 
L 264.334047 93.726429 
L 261.29041 93.726429 
z
" clip-path="url(#p1e941a3e0d)"/>
   </g>
   <g id="patch_75">
    <path d="M 264.334047 235.728062 
L 267.377683 235.728062 
L 267.377683 75.976225 
L 264.334047 75.976225 
z
" clip-path="url(#p1e941a3e0d)"/>
   </g>
   <g id="patch_76">
    <path d="M 267.377683 235.728062 
L 270.421319 235.728062 
L 270.421319 67.101123 
L 267.377683 67.101123 
z
" clip-path="url(#p1e941a3e0d)"/>
   </g>
   <g id="patch_77">
    <path d="M 270.421319 235.728062 
L 273.464956 235.728062 
L 273.464956 46.392552 
L 270.421319 46.392552 
z
" clip-path="url(#p1e941a3e0d)"/>
   </g>
   <g id="patch_78">
    <path d="M 273.464956 235.728062 
L 276.508592 235.728062 
L 276.508592 120.351735 
L 273.464956 120.351735 
z
" clip-path="url(#p1e941a3e0d)"/>
   </g>
   <g id="patch_79">
    <path d="M 276.508592 235.728062 
L 279.552228 235.728062 
L 279.552228 58.226021 
L 276.508592 58.226021 
z
" clip-path="url(#p1e941a3e0d)"/>
   </g>
   <g id="patch_80">
    <path d="M 279.552228 235.728062 
L 282.595865 235.728062 
L 282.595865 28.642348 
L 279.552228 28.642348 
z
" clip-path="url(#p1e941a3e0d)"/>
   </g>
   <g id="patch_81">
    <path d="M 282.595865 235.728062 
L 285.639501 235.728062 
L 285.639501 149.935409 
L 282.595865 149.935409 
z
" clip-path="url(#p1e941a3e0d)"/>
   </g>
   <g id="patch_82">
    <path d="M 285.639501 235.728062 
L 288.683137 235.728062 
L 288.683137 194.310919 
L 285.639501 194.310919 
z
" clip-path="url(#p1e941a3e0d)"/>
   </g>
   <g id="patch_83">
    <path d="M 288.683137 235.728062 
L 291.726774 235.728062 
L 291.726774 206.144388 
L 288.683137 206.144388 
z
" clip-path="url(#p1e941a3e0d)"/>
   </g>
   <g id="patch_84">
    <path d="M 291.726774 235.728062 
L 294.77041 235.728062 
L 294.77041 167.685613 
L 291.726774 167.685613 
z
" clip-path="url(#p1e941a3e0d)"/>
   </g>
   <g id="patch_85">
    <path d="M 294.77041 235.728062 
L 297.814047 235.728062 
L 297.814047 182.47745 
L 294.77041 182.47745 
z
" clip-path="url(#p1e941a3e0d)"/>
   </g>
   <g id="patch_86">
    <path d="M 297.814047 235.728062 
L 300.857683 235.728062 
L 300.857683 167.685613 
L 297.814047 167.685613 
z
" clip-path="url(#p1e941a3e0d)"/>
   </g>
   <g id="patch_87">
    <path d="M 300.857683 235.728062 
L 303.901319 235.728062 
L 303.901319 191.352552 
L 300.857683 191.352552 
z
" clip-path="url(#p1e941a3e0d)"/>
   </g>
   <g id="patch_88">
    <path d="M 303.901319 235.728062 
L 306.944956 235.728062 
L 306.944956 206.144388 
L 303.901319 206.144388 
z
" clip-path="url(#p1e941a3e0d)"/>
   </g>
   <g id="patch_89">
    <path d="M 306.944956 235.728062 
L 309.988592 235.728062 
L 309.988592 209.102756 
L 306.944956 209.102756 
z
" clip-path="url(#p1e941a3e0d)"/>
   </g>
   <g id="patch_90">
    <path d="M 309.988592 235.728062 
L 313.032228 235.728062 
L 313.032228 209.102756 
L 309.988592 209.102756 
z
" clip-path="url(#p1e941a3e0d)"/>
   </g>
   <g id="patch_91">
    <path d="M 313.032228 235.728062 
L 316.075865 235.728062 
L 316.075865 197.269286 
L 313.032228 197.269286 
z
" clip-path="url(#p1e941a3e0d)"/>
   </g>
   <g id="patch_92">
    <path d="M 316.075865 235.728062 
L 319.119501 235.728062 
L 319.119501 206.144388 
L 316.075865 206.144388 
z
" clip-path="url(#p1e941a3e0d)"/>
   </g>
   <g id="patch_93">
    <path d="M 319.119501 235.728062 
L 322.163137 235.728062 
L 322.163137 194.310919 
L 319.119501 194.310919 
z
" clip-path="url(#p1e941a3e0d)"/>
   </g>
   <g id="patch_94">
    <path d="M 322.163137 235.728062 
L 325.206774 235.728062 
L 325.206774 206.144388 
L 322.163137 206.144388 
z
" clip-path="url(#p1e941a3e0d)"/>
   </g>
   <g id="patch_95">
    <path d="M 325.206774 235.728062 
L 328.25041 235.728062 
L 328.25041 215.01949 
L 325.206774 215.01949 
z
" clip-path="url(#p1e941a3e0d)"/>
   </g>
   <g id="patch_96">
    <path d="M 328.25041 235.728062 
L 331.294047 235.728062 
L 331.294047 229.811327 
L 328.25041 229.811327 
z
" clip-path="url(#p1e941a3e0d)"/>
   </g>
   <g id="patch_97">
    <path d="M 331.294047 235.728062 
L 334.337683 235.728062 
L 334.337683 229.811327 
L 331.294047 229.811327 
z
" clip-path="url(#p1e941a3e0d)"/>
   </g>
   <g id="patch_98">
    <path d="M 334.337683 235.728062 
L 337.381319 235.728062 
L 337.381319 226.85296 
L 334.337683 226.85296 
z
" clip-path="url(#p1e941a3e0d)"/>
   </g>
   <g id="patch_99">
    <path d="M 337.381319 235.728062 
L 340.424956 235.728062 
L 340.424956 229.811327 
L 337.381319 229.811327 
z
" clip-path="url(#p1e941a3e0d)"/>
   </g>
   <g id="patch_100">
    <path d="M 340.424956 235.728062 
L 343.468592 235.728062 
L 343.468592 203.186021 
L 340.424956 203.186021 
z
" clip-path="url(#p1e941a3e0d)"/>
   </g>
   <g id="patch_101">
    <path d="M 343.468592 235.728062 
L 346.512228 235.728062 
L 346.512228 220.936225 
L 343.468592 220.936225 
z
" clip-path="url(#p1e941a3e0d)"/>
   </g>
   <g id="patch_102">
    <path d="M 346.512228 235.728062 
L 349.555865 235.728062 
L 349.555865 215.01949 
L 346.512228 215.01949 
z
" clip-path="url(#p1e941a3e0d)"/>
   </g>
   <g id="matplotlib.axis_1">
    <g id="xtick_1">
     <g id="line2d_1">
      <defs>
       <path id="m726602b81f" d="M 0 0 
L 0 -3 
" style="stroke: #000000; stroke-width: 0.5"/>
      </defs>
      <g>
       <use xlink:href="#m726602b81f" x="36.346839" y="235.728062" style="stroke: #000000; stroke-width: 0.5"/>
      </g>
     </g>
     <g id="line2d_2">
      <defs>
       <path id="mf7a390d7b7" d="M 0 0 
L 0 3 
" style="stroke: #000000; stroke-width: 0.5"/>
      </defs>
      <g>
       <use xlink:href="#mf7a390d7b7" x="36.346839" y="18.288062" style="stroke: #000000; stroke-width: 0.5"/>
      </g>
     </g>
     <g id="text_1">
      <!-- $\mathdefault{2620}$ -->
      <g transform="translate(26.384199 245.982639)scale(0.1 -0.1)">
       <defs>
        <path id="NimbusRomNo9L-Regu-32" d="M 3040 875 
L 2957 907 
C 2720 544 2637 486 2349 486 
L 819 486 
L 1894 1609 
C 2464 2202 2714 2687 2714 3185 
C 2714 3823 2195 4313 1530 4313 
C 1178 4313 845 4173 608 3918 
C 403 3700 307 3496 198 3043 
L 333 3011 
C 589 3636 819 3840 1261 3840 
C 1798 3840 2163 3476 2163 2940 
C 2163 2443 1869 1850 1331 1282 
L 192 77 
L 192 0 
L 2688 0 
L 3040 875 
z
" transform="scale(0.015625)"/>
        <path id="NimbusRomNo9L-Regu-36" d="M 2854 4391 
C 2125 4327 1754 4205 1286 3879 
C 595 3386 218 2656 218 1802 
C 218 1248 390 688 666 370 
C 909 89 1254 -64 1651 -64 
C 2445 -64 2995 541 2995 1421 
C 2995 2236 2528 2752 1792 2752 
C 1510 2752 1376 2707 973 2464 
C 1146 3431 1862 4122 2867 4288 
L 2854 4391 
z
M 1549 2458 
C 2099 2458 2419 2000 2419 1204 
C 2419 504 2170 116 1722 116 
C 1158 116 813 714 813 1700 
C 813 2025 864 2203 992 2299 
C 1126 2400 1325 2458 1549 2458 
z
" transform="scale(0.015625)"/>
        <path id="NimbusRomNo9L-Regu-30" d="M 1626 4352 
C 1274 4352 1005 4244 768 4020 
C 397 3661 154 2925 154 2176 
C 154 1479 365 730 666 372 
C 902 90 1229 -64 1600 -64 
C 1926 -64 2202 45 2432 269 
C 2803 621 3046 1364 3046 2138 
C 3046 3450 2464 4352 1626 4352 
z
M 1606 4186 
C 2144 4186 2432 3463 2432 2125 
C 2432 788 2150 103 1600 103 
C 1050 103 768 788 768 2119 
C 768 3476 1056 4186 1606 4186 
z
" transform="scale(0.015625)"/>
       </defs>
       <use xlink:href="#NimbusRomNo9L-Regu-32" transform="scale(0.996264)"/>
       <use xlink:href="#NimbusRomNo9L-Regu-36" transform="translate(49.8132 0)scale(0.996264)"/>
       <use xlink:href="#NimbusRomNo9L-Regu-32" transform="translate(99.626401 0)scale(0.996264)"/>
       <use xlink:href="#NimbusRomNo9L-Regu-30" transform="translate(149.439601 0)scale(0.996264)"/>
      </g>
     </g>
    </g>
    <g id="xtick_2">
     <g id="line2d_3">
      <g>
       <use xlink:href="#m726602b81f" x="73.561281" y="235.728062" style="stroke: #000000; stroke-width: 0.5"/>
      </g>
     </g>
     <g id="line2d_4">
      <g>
       <use xlink:href="#mf7a390d7b7" x="73.561281" y="18.288062" style="stroke: #000000; stroke-width: 0.5"/>
      </g>
     </g>
     <g id="text_2">
      <!-- $\mathdefault{2630}$ -->
      <g transform="translate(63.598641 245.982639)scale(0.1 -0.1)">
       <defs>
        <path id="NimbusRomNo9L-Regu-33" d="M 979 2138 
C 1357 2138 1504 2125 1658 2068 
C 2054 1927 2304 1562 2304 1120 
C 2304 583 1939 167 1466 167 
C 1293 167 1165 212 928 365 
C 736 480 627 525 518 525 
C 371 525 275 436 275 301 
C 275 77 550 -64 998 -64 
C 1491 -64 1997 103 2298 365 
C 2598 628 2765 999 2765 1428 
C 2765 1754 2662 2055 2477 2253 
C 2349 2394 2227 2471 1946 2592 
C 2387 2893 2547 3130 2547 3476 
C 2547 3994 2138 4352 1549 4352 
C 1229 4352 947 4244 717 4039 
C 525 3866 429 3699 288 3315 
L 384 3290 
C 646 3757 934 3968 1338 3968 
C 1754 3968 2042 3687 2042 3284 
C 2042 3053 1946 2823 1786 2663 
C 1594 2471 1414 2375 979 2221 
L 979 2138 
z
" transform="scale(0.015625)"/>
       </defs>
       <use xlink:href="#NimbusRomNo9L-Regu-32" transform="scale(0.996264)"/>
       <use xlink:href="#NimbusRomNo9L-Regu-36" transform="translate(49.8132 0)scale(0.996264)"/>
       <use xlink:href="#NimbusRomNo9L-Regu-33" transform="translate(99.626401 0)scale(0.996264)"/>
       <use xlink:href="#NimbusRomNo9L-Regu-30" transform="translate(149.439601 0)scale(0.996264)"/>
      </g>
     </g>
    </g>
    <g id="xtick_3">
     <g id="line2d_5">
      <g>
       <use xlink:href="#m726602b81f" x="110.775723" y="235.728062" style="stroke: #000000; stroke-width: 0.5"/>
      </g>
     </g>
     <g id="line2d_6">
      <g>
       <use xlink:href="#mf7a390d7b7" x="110.775723" y="18.288062" style="stroke: #000000; stroke-width: 0.5"/>
      </g>
     </g>
     <g id="text_3">
      <!-- $\mathdefault{2640}$ -->
      <g transform="translate(100.813083 245.982639)scale(0.1 -0.1)">
       <defs>
        <path id="NimbusRomNo9L-Regu-34" d="M 3021 1497 
L 2368 1497 
L 2368 4352 
L 2086 4352 
L 77 1497 
L 77 1088 
L 1875 1088 
L 1875 32 
L 2368 32 
L 2368 1088 
L 3021 1088 
L 3021 1497 
z
M 1869 1497 
L 333 1497 
L 1869 3698 
L 1869 1497 
z
" transform="scale(0.015625)"/>
       </defs>
       <use xlink:href="#NimbusRomNo9L-Regu-32" transform="scale(0.996264)"/>
       <use xlink:href="#NimbusRomNo9L-Regu-36" transform="translate(49.8132 0)scale(0.996264)"/>
       <use xlink:href="#NimbusRomNo9L-Regu-34" transform="translate(99.626401 0)scale(0.996264)"/>
       <use xlink:href="#NimbusRomNo9L-Regu-30" transform="translate(149.439601 0)scale(0.996264)"/>
      </g>
     </g>
    </g>
    <g id="xtick_4">
     <g id="line2d_7">
      <g>
       <use xlink:href="#m726602b81f" x="147.990166" y="235.728062" style="stroke: #000000; stroke-width: 0.5"/>
      </g>
     </g>
     <g id="line2d_8">
      <g>
       <use xlink:href="#mf7a390d7b7" x="147.990166" y="18.288062" style="stroke: #000000; stroke-width: 0.5"/>
      </g>
     </g>
     <g id="text_4">
      <!-- $\mathdefault{2650}$ -->
      <g transform="translate(138.027525 245.982639)scale(0.1 -0.1)">
       <defs>
        <path id="NimbusRomNo9L-Regu-35" d="M 1158 3776 
L 2413 3776 
C 2515 3776 2541 3789 2560 3834 
L 2803 4403 
L 2746 4448 
C 2650 4314 2586 4282 2451 4282 
L 1114 4282 
L 416 2759 
C 410 2746 410 2740 410 2727 
C 410 2695 435 2676 486 2676 
C 691 2676 947 2631 1210 2547 
C 1946 2309 2285 1910 2285 1274 
C 2285 656 1894 173 1395 173 
C 1267 173 1158 218 966 360 
C 762 508 614 572 480 572 
C 294 572 205 495 205 334 
C 205 90 506 -64 986 -64 
C 1523 -64 1984 110 2304 438 
C 2598 728 2733 1094 2733 1583 
C 2733 2046 2611 2342 2291 2663 
C 2010 2947 1645 3094 890 3229 
L 1158 3776 
z
" transform="scale(0.015625)"/>
       </defs>
       <use xlink:href="#NimbusRomNo9L-Regu-32" transform="scale(0.996264)"/>
       <use xlink:href="#NimbusRomNo9L-Regu-36" transform="translate(49.8132 0)scale(0.996264)"/>
       <use xlink:href="#NimbusRomNo9L-Regu-35" transform="translate(99.626401 0)scale(0.996264)"/>
       <use xlink:href="#NimbusRomNo9L-Regu-30" transform="translate(149.439601 0)scale(0.996264)"/>
      </g>
     </g>
    </g>
    <g id="xtick_5">
     <g id="line2d_9">
      <g>
       <use xlink:href="#m726602b81f" x="185.204608" y="235.728062" style="stroke: #000000; stroke-width: 0.5"/>
      </g>
     </g>
     <g id="line2d_10">
      <g>
       <use xlink:href="#mf7a390d7b7" x="185.204608" y="18.288062" style="stroke: #000000; stroke-width: 0.5"/>
      </g>
     </g>
     <g id="text_5">
      <!-- $\mathdefault{2660}$ -->
      <g transform="translate(175.241968 245.982639)scale(0.1 -0.1)">
       <use xlink:href="#NimbusRomNo9L-Regu-32" transform="scale(0.996264)"/>
       <use xlink:href="#NimbusRomNo9L-Regu-36" transform="translate(49.8132 0)scale(0.996264)"/>
       <use xlink:href="#NimbusRomNo9L-Regu-36" transform="translate(99.626401 0)scale(0.996264)"/>
       <use xlink:href="#NimbusRomNo9L-Regu-30" transform="translate(149.439601 0)scale(0.996264)"/>
      </g>
     </g>
    </g>
    <g id="xtick_6">
     <g id="line2d_11">
      <g>
       <use xlink:href="#m726602b81f" x="222.41905" y="235.728062" style="stroke: #000000; stroke-width: 0.5"/>
      </g>
     </g>
     <g id="line2d_12">
      <g>
       <use xlink:href="#mf7a390d7b7" x="222.41905" y="18.288062" style="stroke: #000000; stroke-width: 0.5"/>
      </g>
     </g>
     <g id="text_6">
      <!-- $\mathdefault{2670}$ -->
      <g transform="translate(212.45641 245.982639)scale(0.1 -0.1)">
       <defs>
        <path id="NimbusRomNo9L-Regu-37" d="M 2874 4250 
L 506 4250 
L 128 3310 
L 237 3258 
C 512 3693 627 3776 979 3776 
L 2368 3776 
L 1101 -32 
L 1517 -32 
L 2874 4148 
L 2874 4250 
z
" transform="scale(0.015625)"/>
       </defs>
       <use xlink:href="#NimbusRomNo9L-Regu-32" transform="scale(0.996264)"/>
       <use xlink:href="#NimbusRomNo9L-Regu-36" transform="translate(49.8132 0)scale(0.996264)"/>
       <use xlink:href="#NimbusRomNo9L-Regu-37" transform="translate(99.626401 0)scale(0.996264)"/>
       <use xlink:href="#NimbusRomNo9L-Regu-30" transform="translate(149.439601 0)scale(0.996264)"/>
      </g>
     </g>
    </g>
    <g id="xtick_7">
     <g id="line2d_13">
      <g>
       <use xlink:href="#m726602b81f" x="259.633492" y="235.728062" style="stroke: #000000; stroke-width: 0.5"/>
      </g>
     </g>
     <g id="line2d_14">
      <g>
       <use xlink:href="#mf7a390d7b7" x="259.633492" y="18.288062" style="stroke: #000000; stroke-width: 0.5"/>
      </g>
     </g>
     <g id="text_7">
      <!-- $\mathdefault{2680}$ -->
      <g transform="translate(249.670852 245.982639)scale(0.1 -0.1)">
       <defs>
        <path id="NimbusRomNo9L-Regu-38" d="M 1856 2400 
C 2490 2740 2714 3008 2714 3444 
C 2714 3968 2253 4352 1613 4352 
C 915 4352 397 3924 397 3341 
C 397 2925 518 2740 1190 2151 
C 499 1626 358 1428 358 992 
C 358 372 864 -64 1587 -64 
C 2355 -64 2848 359 2848 1018 
C 2848 1511 2630 1824 1856 2400 
z
M 1741 1741 
C 2208 1408 2362 1178 2362 820 
C 2362 404 2074 116 1658 116 
C 1171 116 845 487 845 1044 
C 845 1453 986 1722 1357 2023 
L 1741 1741 
z
M 1670 2516 
C 1101 2887 870 3181 870 3540 
C 870 3911 1158 4173 1562 4173 
C 1997 4173 2272 3892 2272 3450 
C 2272 3085 2093 2797 1728 2554 
C 1696 2535 1696 2535 1670 2516 
z
" transform="scale(0.015625)"/>
       </defs>
       <use xlink:href="#NimbusRomNo9L-Regu-32" transform="scale(0.996264)"/>
       <use xlink:href="#NimbusRomNo9L-Regu-36" transform="translate(49.8132 0)scale(0.996264)"/>
       <use xlink:href="#NimbusRomNo9L-Regu-38" transform="translate(99.626401 0)scale(0.996264)"/>
       <use xlink:href="#NimbusRomNo9L-Regu-30" transform="translate(149.439601 0)scale(0.996264)"/>
      </g>
     </g>
    </g>
    <g id="xtick_8">
     <g id="line2d_15">
      <g>
       <use xlink:href="#m726602b81f" x="296.847934" y="235.728062" style="stroke: #000000; stroke-width: 0.5"/>
      </g>
     </g>
     <g id="line2d_16">
      <g>
       <use xlink:href="#mf7a390d7b7" x="296.847934" y="18.288062" style="stroke: #000000; stroke-width: 0.5"/>
      </g>
     </g>
     <g id="text_8">
      <!-- $\mathdefault{2690}$ -->
      <g transform="translate(286.885294 245.982639)scale(0.1 -0.1)">
       <defs>
        <path id="NimbusRomNo9L-Regu-39" d="M 378 -123 
C 1094 -40 1446 82 1882 396 
C 2547 882 2938 1676 2938 2539 
C 2938 3593 2349 4339 1523 4339 
C 762 4339 192 3694 192 2832 
C 192 2053 653 1536 1344 1536 
C 1696 1536 1965 1638 2304 1900 
C 2042 856 1331 172 358 5 
L 378 -123 
z
M 2317 2290 
C 2317 2162 2291 2104 2221 2047 
C 2042 1894 1805 1811 1574 1811 
C 1088 1811 781 2290 781 3050 
C 781 3413 883 3796 1018 3963 
C 1126 4090 1286 4160 1472 4160 
C 2029 4160 2317 3611 2317 2539 
L 2317 2290 
z
" transform="scale(0.015625)"/>
       </defs>
       <use xlink:href="#NimbusRomNo9L-Regu-32" transform="scale(0.996264)"/>
       <use xlink:href="#NimbusRomNo9L-Regu-36" transform="translate(49.8132 0)scale(0.996264)"/>
       <use xlink:href="#NimbusRomNo9L-Regu-39" transform="translate(99.626401 0)scale(0.996264)"/>
       <use xlink:href="#NimbusRomNo9L-Regu-30" transform="translate(149.439601 0)scale(0.996264)"/>
      </g>
     </g>
    </g>
    <g id="xtick_9">
     <g id="line2d_17">
      <g>
       <use xlink:href="#m726602b81f" x="334.062376" y="235.728062" style="stroke: #000000; stroke-width: 0.5"/>
      </g>
     </g>
     <g id="line2d_18">
      <g>
       <use xlink:href="#mf7a390d7b7" x="334.062376" y="18.288062" style="stroke: #000000; stroke-width: 0.5"/>
      </g>
     </g>
     <g id="text_9">
      <!-- $\mathdefault{2700}$ -->
      <g transform="translate(324.099736 245.982639)scale(0.1 -0.1)">
       <use xlink:href="#NimbusRomNo9L-Regu-32" transform="scale(0.996264)"/>
       <use xlink:href="#NimbusRomNo9L-Regu-37" transform="translate(49.8132 0)scale(0.996264)"/>
       <use xlink:href="#NimbusRomNo9L-Regu-30" transform="translate(99.626401 0)scale(0.996264)"/>
       <use xlink:href="#NimbusRomNo9L-Regu-30" transform="translate(149.439601 0)scale(0.996264)"/>
      </g>
     </g>
    </g>
    <g id="xtick_10">
     <g id="line2d_19">
      <defs>
       <path id="me8e7aa2f1b" d="M 0 0 
L 0 -1.5 
" style="stroke: #000000; stroke-width: 0.5"/>
      </defs>
      <g>
       <use xlink:href="#me8e7aa2f1b" x="43.789728" y="235.728062" style="stroke: #000000; stroke-width: 0.5"/>
      </g>
     </g>
     <g id="line2d_20">
      <defs>
       <path id="mc5e6937518" d="M 0 0 
L 0 1.5 
" style="stroke: #000000; stroke-width: 0.5"/>
      </defs>
      <g>
       <use xlink:href="#mc5e6937518" x="43.789728" y="18.288062" style="stroke: #000000; stroke-width: 0.5"/>
      </g>
     </g>
    </g>
    <g id="xtick_11">
     <g id="line2d_21">
      <g>
       <use xlink:href="#me8e7aa2f1b" x="51.232616" y="235.728062" style="stroke: #000000; stroke-width: 0.5"/>
      </g>
     </g>
     <g id="line2d_22">
      <g>
       <use xlink:href="#mc5e6937518" x="51.232616" y="18.288062" style="stroke: #000000; stroke-width: 0.5"/>
      </g>
     </g>
    </g>
    <g id="xtick_12">
     <g id="line2d_23">
      <g>
       <use xlink:href="#me8e7aa2f1b" x="58.675505" y="235.728062" style="stroke: #000000; stroke-width: 0.5"/>
      </g>
     </g>
     <g id="line2d_24">
      <g>
       <use xlink:href="#mc5e6937518" x="58.675505" y="18.288062" style="stroke: #000000; stroke-width: 0.5"/>
      </g>
     </g>
    </g>
    <g id="xtick_13">
     <g id="line2d_25">
      <g>
       <use xlink:href="#me8e7aa2f1b" x="66.118393" y="235.728062" style="stroke: #000000; stroke-width: 0.5"/>
      </g>
     </g>
     <g id="line2d_26">
      <g>
       <use xlink:href="#mc5e6937518" x="66.118393" y="18.288062" style="stroke: #000000; stroke-width: 0.5"/>
      </g>
     </g>
    </g>
    <g id="xtick_14">
     <g id="line2d_27">
      <g>
       <use xlink:href="#me8e7aa2f1b" x="81.00417" y="235.728062" style="stroke: #000000; stroke-width: 0.5"/>
      </g>
     </g>
     <g id="line2d_28">
      <g>
       <use xlink:href="#mc5e6937518" x="81.00417" y="18.288062" style="stroke: #000000; stroke-width: 0.5"/>
      </g>
     </g>
    </g>
    <g id="xtick_15">
     <g id="line2d_29">
      <g>
       <use xlink:href="#me8e7aa2f1b" x="88.447058" y="235.728062" style="stroke: #000000; stroke-width: 0.5"/>
      </g>
     </g>
     <g id="line2d_30">
      <g>
       <use xlink:href="#mc5e6937518" x="88.447058" y="18.288062" style="stroke: #000000; stroke-width: 0.5"/>
      </g>
     </g>
    </g>
    <g id="xtick_16">
     <g id="line2d_31">
      <g>
       <use xlink:href="#me8e7aa2f1b" x="95.889947" y="235.728062" style="stroke: #000000; stroke-width: 0.5"/>
      </g>
     </g>
     <g id="line2d_32">
      <g>
       <use xlink:href="#mc5e6937518" x="95.889947" y="18.288062" style="stroke: #000000; stroke-width: 0.5"/>
      </g>
     </g>
    </g>
    <g id="xtick_17">
     <g id="line2d_33">
      <g>
       <use xlink:href="#me8e7aa2f1b" x="103.332835" y="235.728062" style="stroke: #000000; stroke-width: 0.5"/>
      </g>
     </g>
     <g id="line2d_34">
      <g>
       <use xlink:href="#mc5e6937518" x="103.332835" y="18.288062" style="stroke: #000000; stroke-width: 0.5"/>
      </g>
     </g>
    </g>
    <g id="xtick_18">
     <g id="line2d_35">
      <g>
       <use xlink:href="#me8e7aa2f1b" x="118.218612" y="235.728062" style="stroke: #000000; stroke-width: 0.5"/>
      </g>
     </g>
     <g id="line2d_36">
      <g>
       <use xlink:href="#mc5e6937518" x="118.218612" y="18.288062" style="stroke: #000000; stroke-width: 0.5"/>
      </g>
     </g>
    </g>
    <g id="xtick_19">
     <g id="line2d_37">
      <g>
       <use xlink:href="#me8e7aa2f1b" x="125.6615" y="235.728062" style="stroke: #000000; stroke-width: 0.5"/>
      </g>
     </g>
     <g id="line2d_38">
      <g>
       <use xlink:href="#mc5e6937518" x="125.6615" y="18.288062" style="stroke: #000000; stroke-width: 0.5"/>
      </g>
     </g>
    </g>
    <g id="xtick_20">
     <g id="line2d_39">
      <g>
       <use xlink:href="#me8e7aa2f1b" x="133.104389" y="235.728062" style="stroke: #000000; stroke-width: 0.5"/>
      </g>
     </g>
     <g id="line2d_40">
      <g>
       <use xlink:href="#mc5e6937518" x="133.104389" y="18.288062" style="stroke: #000000; stroke-width: 0.5"/>
      </g>
     </g>
    </g>
    <g id="xtick_21">
     <g id="line2d_41">
      <g>
       <use xlink:href="#me8e7aa2f1b" x="140.547277" y="235.728062" style="stroke: #000000; stroke-width: 0.5"/>
      </g>
     </g>
     <g id="line2d_42">
      <g>
       <use xlink:href="#mc5e6937518" x="140.547277" y="18.288062" style="stroke: #000000; stroke-width: 0.5"/>
      </g>
     </g>
    </g>
    <g id="xtick_22">
     <g id="line2d_43">
      <g>
       <use xlink:href="#me8e7aa2f1b" x="155.433054" y="235.728062" style="stroke: #000000; stroke-width: 0.5"/>
      </g>
     </g>
     <g id="line2d_44">
      <g>
       <use xlink:href="#mc5e6937518" x="155.433054" y="18.288062" style="stroke: #000000; stroke-width: 0.5"/>
      </g>
     </g>
    </g>
    <g id="xtick_23">
     <g id="line2d_45">
      <g>
       <use xlink:href="#me8e7aa2f1b" x="162.875942" y="235.728062" style="stroke: #000000; stroke-width: 0.5"/>
      </g>
     </g>
     <g id="line2d_46">
      <g>
       <use xlink:href="#mc5e6937518" x="162.875942" y="18.288062" style="stroke: #000000; stroke-width: 0.5"/>
      </g>
     </g>
    </g>
    <g id="xtick_24">
     <g id="line2d_47">
      <g>
       <use xlink:href="#me8e7aa2f1b" x="170.318831" y="235.728062" style="stroke: #000000; stroke-width: 0.5"/>
      </g>
     </g>
     <g id="line2d_48">
      <g>
       <use xlink:href="#mc5e6937518" x="170.318831" y="18.288062" style="stroke: #000000; stroke-width: 0.5"/>
      </g>
     </g>
    </g>
    <g id="xtick_25">
     <g id="line2d_49">
      <g>
       <use xlink:href="#me8e7aa2f1b" x="177.761719" y="235.728062" style="stroke: #000000; stroke-width: 0.5"/>
      </g>
     </g>
     <g id="line2d_50">
      <g>
       <use xlink:href="#mc5e6937518" x="177.761719" y="18.288062" style="stroke: #000000; stroke-width: 0.5"/>
      </g>
     </g>
    </g>
    <g id="xtick_26">
     <g id="line2d_51">
      <g>
       <use xlink:href="#me8e7aa2f1b" x="192.647496" y="235.728062" style="stroke: #000000; stroke-width: 0.5"/>
      </g>
     </g>
     <g id="line2d_52">
      <g>
       <use xlink:href="#mc5e6937518" x="192.647496" y="18.288062" style="stroke: #000000; stroke-width: 0.5"/>
      </g>
     </g>
    </g>
    <g id="xtick_27">
     <g id="line2d_53">
      <g>
       <use xlink:href="#me8e7aa2f1b" x="200.090384" y="235.728062" style="stroke: #000000; stroke-width: 0.5"/>
      </g>
     </g>
     <g id="line2d_54">
      <g>
       <use xlink:href="#mc5e6937518" x="200.090384" y="18.288062" style="stroke: #000000; stroke-width: 0.5"/>
      </g>
     </g>
    </g>
    <g id="xtick_28">
     <g id="line2d_55">
      <g>
       <use xlink:href="#me8e7aa2f1b" x="207.533273" y="235.728062" style="stroke: #000000; stroke-width: 0.5"/>
      </g>
     </g>
     <g id="line2d_56">
      <g>
       <use xlink:href="#mc5e6937518" x="207.533273" y="18.288062" style="stroke: #000000; stroke-width: 0.5"/>
      </g>
     </g>
    </g>
    <g id="xtick_29">
     <g id="line2d_57">
      <g>
       <use xlink:href="#me8e7aa2f1b" x="214.976161" y="235.728062" style="stroke: #000000; stroke-width: 0.5"/>
      </g>
     </g>
     <g id="line2d_58">
      <g>
       <use xlink:href="#mc5e6937518" x="214.976161" y="18.288062" style="stroke: #000000; stroke-width: 0.5"/>
      </g>
     </g>
    </g>
    <g id="xtick_30">
     <g id="line2d_59">
      <g>
       <use xlink:href="#me8e7aa2f1b" x="229.861938" y="235.728062" style="stroke: #000000; stroke-width: 0.5"/>
      </g>
     </g>
     <g id="line2d_60">
      <g>
       <use xlink:href="#mc5e6937518" x="229.861938" y="18.288062" style="stroke: #000000; stroke-width: 0.5"/>
      </g>
     </g>
    </g>
    <g id="xtick_31">
     <g id="line2d_61">
      <g>
       <use xlink:href="#me8e7aa2f1b" x="237.304827" y="235.728062" style="stroke: #000000; stroke-width: 0.5"/>
      </g>
     </g>
     <g id="line2d_62">
      <g>
       <use xlink:href="#mc5e6937518" x="237.304827" y="18.288062" style="stroke: #000000; stroke-width: 0.5"/>
      </g>
     </g>
    </g>
    <g id="xtick_32">
     <g id="line2d_63">
      <g>
       <use xlink:href="#me8e7aa2f1b" x="244.747715" y="235.728062" style="stroke: #000000; stroke-width: 0.5"/>
      </g>
     </g>
     <g id="line2d_64">
      <g>
       <use xlink:href="#mc5e6937518" x="244.747715" y="18.288062" style="stroke: #000000; stroke-width: 0.5"/>
      </g>
     </g>
    </g>
    <g id="xtick_33">
     <g id="line2d_65">
      <g>
       <use xlink:href="#me8e7aa2f1b" x="252.190603" y="235.728062" style="stroke: #000000; stroke-width: 0.5"/>
      </g>
     </g>
     <g id="line2d_66">
      <g>
       <use xlink:href="#mc5e6937518" x="252.190603" y="18.288062" style="stroke: #000000; stroke-width: 0.5"/>
      </g>
     </g>
    </g>
    <g id="xtick_34">
     <g id="line2d_67">
      <g>
       <use xlink:href="#me8e7aa2f1b" x="267.07638" y="235.728062" style="stroke: #000000; stroke-width: 0.5"/>
      </g>
     </g>
     <g id="line2d_68">
      <g>
       <use xlink:href="#mc5e6937518" x="267.07638" y="18.288062" style="stroke: #000000; stroke-width: 0.5"/>
      </g>
     </g>
    </g>
    <g id="xtick_35">
     <g id="line2d_69">
      <g>
       <use xlink:href="#me8e7aa2f1b" x="274.519269" y="235.728062" style="stroke: #000000; stroke-width: 0.5"/>
      </g>
     </g>
     <g id="line2d_70">
      <g>
       <use xlink:href="#mc5e6937518" x="274.519269" y="18.288062" style="stroke: #000000; stroke-width: 0.5"/>
      </g>
     </g>
    </g>
    <g id="xtick_36">
     <g id="line2d_71">
      <g>
       <use xlink:href="#me8e7aa2f1b" x="281.962157" y="235.728062" style="stroke: #000000; stroke-width: 0.5"/>
      </g>
     </g>
     <g id="line2d_72">
      <g>
       <use xlink:href="#mc5e6937518" x="281.962157" y="18.288062" style="stroke: #000000; stroke-width: 0.5"/>
      </g>
     </g>
    </g>
    <g id="xtick_37">
     <g id="line2d_73">
      <g>
       <use xlink:href="#me8e7aa2f1b" x="289.405046" y="235.728062" style="stroke: #000000; stroke-width: 0.5"/>
      </g>
     </g>
     <g id="line2d_74">
      <g>
       <use xlink:href="#mc5e6937518" x="289.405046" y="18.288062" style="stroke: #000000; stroke-width: 0.5"/>
      </g>
     </g>
    </g>
    <g id="xtick_38">
     <g id="line2d_75">
      <g>
       <use xlink:href="#me8e7aa2f1b" x="304.290822" y="235.728062" style="stroke: #000000; stroke-width: 0.5"/>
      </g>
     </g>
     <g id="line2d_76">
      <g>
       <use xlink:href="#mc5e6937518" x="304.290822" y="18.288062" style="stroke: #000000; stroke-width: 0.5"/>
      </g>
     </g>
    </g>
    <g id="xtick_39">
     <g id="line2d_77">
      <g>
       <use xlink:href="#me8e7aa2f1b" x="311.733711" y="235.728062" style="stroke: #000000; stroke-width: 0.5"/>
      </g>
     </g>
     <g id="line2d_78">
      <g>
       <use xlink:href="#mc5e6937518" x="311.733711" y="18.288062" style="stroke: #000000; stroke-width: 0.5"/>
      </g>
     </g>
    </g>
    <g id="xtick_40">
     <g id="line2d_79">
      <g>
       <use xlink:href="#me8e7aa2f1b" x="319.176599" y="235.728062" style="stroke: #000000; stroke-width: 0.5"/>
      </g>
     </g>
     <g id="line2d_80">
      <g>
       <use xlink:href="#mc5e6937518" x="319.176599" y="18.288062" style="stroke: #000000; stroke-width: 0.5"/>
      </g>
     </g>
    </g>
    <g id="xtick_41">
     <g id="line2d_81">
      <g>
       <use xlink:href="#me8e7aa2f1b" x="326.619488" y="235.728062" style="stroke: #000000; stroke-width: 0.5"/>
      </g>
     </g>
     <g id="line2d_82">
      <g>
       <use xlink:href="#mc5e6937518" x="326.619488" y="18.288062" style="stroke: #000000; stroke-width: 0.5"/>
      </g>
     </g>
    </g>
    <g id="xtick_42">
     <g id="line2d_83">
      <g>
       <use xlink:href="#me8e7aa2f1b" x="341.505264" y="235.728062" style="stroke: #000000; stroke-width: 0.5"/>
      </g>
     </g>
     <g id="line2d_84">
      <g>
       <use xlink:href="#mc5e6937518" x="341.505264" y="18.288062" style="stroke: #000000; stroke-width: 0.5"/>
      </g>
     </g>
    </g>
    <g id="xtick_43">
     <g id="line2d_85">
      <g>
       <use xlink:href="#me8e7aa2f1b" x="348.948153" y="235.728062" style="stroke: #000000; stroke-width: 0.5"/>
      </g>
     </g>
     <g id="line2d_86">
      <g>
       <use xlink:href="#mc5e6937518" x="348.948153" y="18.288062" style="stroke: #000000; stroke-width: 0.5"/>
      </g>
     </g>
    </g>
    <g id="xtick_44">
     <g id="line2d_87">
      <g>
       <use xlink:href="#me8e7aa2f1b" x="356.391041" y="235.728062" style="stroke: #000000; stroke-width: 0.5"/>
      </g>
     </g>
     <g id="line2d_88">
      <g>
       <use xlink:href="#mc5e6937518" x="356.391041" y="18.288062" style="stroke: #000000; stroke-width: 0.5"/>
      </g>
     </g>
    </g>
    <g id="xtick_45">
     <g id="line2d_89">
      <g>
       <use xlink:href="#me8e7aa2f1b" x="363.83393" y="235.728062" style="stroke: #000000; stroke-width: 0.5"/>
      </g>
     </g>
     <g id="line2d_90">
      <g>
       <use xlink:href="#mc5e6937518" x="363.83393" y="18.288062" style="stroke: #000000; stroke-width: 0.5"/>
      </g>
     </g>
    </g>
    <g id="text_10">
     <!-- Masse (GeV) -->
     <g transform="translate(170.679473 258.894046)scale(0.1 -0.1)">
      <defs>
       <path id="NimbusRomNo9L-Regu-4d" d="M 4314 3667 
L 4314 751 
C 4314 217 4237 134 3731 134 
L 3731 0 
L 5523 0 
L 5523 134 
C 5056 134 4966 223 4966 681 
L 4966 3536 
C 4966 3993 5050 4077 5523 4115 
L 5523 4237 
L 4250 4237 
L 2835 1004 
L 1357 4237 
L 90 4237 
L 90 4096 
C 614 4096 698 4019 698 3550 
L 698 943 
C 698 282 608 159 77 121 
L 77 0 
L 1581 0 
L 1581 134 
C 1088 134 979 282 979 931 
L 979 3520 
L 2586 0 
L 2675 0 
L 4314 3667 
z
" transform="scale(0.015625)"/>
       <path id="NimbusRomNo9L-Regu-61" d="M 2829 423 
C 2720 333 2643 301 2547 301 
C 2400 301 2355 390 2355 672 
L 2355 1920 
C 2355 2253 2323 2438 2227 2592 
C 2086 2822 1811 2944 1434 2944 
C 832 2944 358 2630 358 2227 
C 358 2080 486 1952 634 1952 
C 787 1952 922 2080 922 2221 
C 922 2246 915 2278 909 2323 
C 896 2381 890 2432 890 2477 
C 890 2650 1094 2790 1350 2790 
C 1664 2790 1837 2605 1837 2259 
L 1837 1869 
C 851 1472 742 1421 467 1178 
C 326 1050 237 832 237 621 
C 237 218 518 -64 909 -64 
C 1190 -64 1453 70 1843 403 
C 1875 70 1990 -64 2253 -64 
C 2470 -64 2605 13 2829 256 
L 2829 423 
z
M 1837 783 
C 1837 584 1805 526 1670 449 
C 1517 359 1338 301 1203 301 
C 979 301 800 520 800 796 
L 800 822 
C 800 1201 1062 1433 1837 1715 
L 1837 783 
z
" transform="scale(0.015625)"/>
       <path id="NimbusRomNo9L-Regu-73" d="M 2016 2010 
L 1990 2880 
L 1920 2880 
L 1907 2867 
C 1850 2822 1843 2816 1818 2816 
C 1779 2816 1715 2829 1645 2861 
C 1504 2915 1363 2944 1197 2944 
C 691 2944 326 2616 326 2154 
C 326 1796 531 1539 1075 1231 
L 1446 1020 
C 1670 892 1779 737 1779 539 
C 1779 256 1574 77 1248 77 
C 1030 77 832 159 710 298 
C 576 455 518 600 435 960 
L 333 960 
L 333 -39 
L 416 -39 
C 461 33 486 48 563 48 
C 621 48 710 35 858 -2 
C 1037 -39 1210 -64 1325 -64 
C 1818 -64 2227 308 2227 757 
C 2227 1077 2074 1289 1690 1520 
L 998 1930 
C 819 2033 723 2194 723 2367 
C 723 2624 922 2803 1216 2803 
C 1581 2803 1773 2583 1920 2010 
L 2016 2010 
z
" transform="scale(0.015625)"/>
       <path id="NimbusRomNo9L-Regu-65" d="M 2611 1053 
C 2304 564 2029 378 1619 378 
C 1254 378 979 564 794 930 
C 678 1174 634 1386 621 1779 
L 2592 1779 
C 2541 2193 2477 2377 2317 2581 
C 2125 2811 1830 2944 1498 2944 
C 1178 2944 877 2829 634 2611 
C 333 2349 160 1894 160 1370 
C 160 486 621 -64 1357 -64 
C 1965 -64 2445 315 2714 1008 
L 2611 1053 
z
M 634 1984 
C 704 2479 922 2714 1312 2714 
C 1702 2714 1856 2535 1939 1984 
L 634 1984 
z
" transform="scale(0.015625)"/>
       <path id="NimbusRomNo9L-Regu-28" d="M 1888 4326 
C 1414 4019 1222 3853 986 3558 
C 531 3002 307 2362 307 1613 
C 307 800 544 173 1107 -480 
C 1370 -787 1536 -928 1869 -1133 
L 1946 -1030 
C 1434 -627 1254 -403 1082 77 
C 928 506 858 992 858 1632 
C 858 2304 941 2829 1114 3226 
C 1293 3622 1485 3853 1946 4224 
L 1888 4326 
z
" transform="scale(0.015625)"/>
       <path id="NimbusRomNo9L-Regu-47" d="M 4538 2304 
L 2906 2304 
L 2906 2176 
C 3181 2176 3258 2157 3334 2105 
C 3430 2047 3469 1898 3469 1621 
L 3469 574 
C 3469 367 3078 192 2618 192 
C 1574 192 934 922 934 2112 
C 934 2714 1114 3296 1395 3610 
C 1677 3924 2074 4096 2509 4096 
C 2867 4096 3181 3975 3430 3744 
C 3622 3565 3725 3392 3885 3002 
L 4032 3002 
L 3981 4352 
L 3840 4352 
C 3802 4231 3686 4141 3552 4141 
C 3488 4141 3386 4160 3270 4205 
C 2982 4301 2688 4352 2400 4352 
C 1120 4352 205 3412 205 2106 
C 205 1479 378 999 736 621 
C 1165 180 1779 -64 2483 -64 
C 3034 -64 3834 160 4090 385 
L 4090 1694 
C 4090 2073 4166 2157 4538 2189 
L 4538 2304 
z
" transform="scale(0.015625)"/>
       <path id="NimbusRomNo9L-Regu-56" d="M 4461 4231 
L 3149 4231 
L 3149 4096 
C 3501 4096 3616 4026 3616 3846 
C 3616 3744 3571 3572 3494 3380 
L 2554 1033 
L 1587 3199 
C 1376 3667 1325 3814 1325 3910 
C 1325 4032 1414 4096 1619 4096 
C 1645 4096 1715 4096 1805 4109 
L 1805 4231 
L 102 4231 
L 102 4096 
C 416 4096 506 4007 781 3439 
L 2355 -64 
L 2451 -64 
L 3872 3521 
C 4083 4026 4154 4096 4461 4096 
L 4461 4231 
z
" transform="scale(0.015625)"/>
       <path id="NimbusRomNo9L-Regu-29" d="M 243 -1133 
C 717 -826 909 -659 1146 -365 
C 1600 192 1824 832 1824 1581 
C 1824 2400 1587 3021 1024 3674 
C 762 3981 595 4122 262 4326 
L 186 4224 
C 698 3821 870 3597 1050 3117 
C 1203 2688 1274 2202 1274 1562 
C 1274 896 1190 365 1018 -26 
C 838 -429 646 -659 186 -1030 
L 243 -1133 
z
" transform="scale(0.015625)"/>
      </defs>
      <use xlink:href="#NimbusRomNo9L-Regu-4d" transform="scale(0.996264)"/>
      <use xlink:href="#NimbusRomNo9L-Regu-61" transform="translate(88.566907 0)scale(0.996264)"/>
      <use xlink:href="#NimbusRomNo9L-Regu-73" transform="translate(132.800475 0)scale(0.996264)"/>
      <use xlink:href="#NimbusRomNo9L-Regu-73" transform="translate(171.554182 0)scale(0.996264)"/>
      <use xlink:href="#NimbusRomNo9L-Regu-65" transform="translate(210.307888 0)scale(0.996264)"/>
      <use xlink:href="#NimbusRomNo9L-Regu-28" transform="translate(279.448057 0)scale(0.996264)"/>
      <use xlink:href="#NimbusRomNo9L-Regu-47" transform="translate(312.623286 0)scale(0.996264)"/>
      <use xlink:href="#NimbusRomNo9L-Regu-65" transform="translate(384.553271 0)scale(0.996264)"/>
      <use xlink:href="#NimbusRomNo9L-Regu-56" transform="translate(428.78684 0)scale(0.996264)"/>
      <use xlink:href="#NimbusRomNo9L-Regu-29" transform="translate(500.716825 0)scale(0.996264)"/>
     </g>
    </g>
   </g>
   <g id="matplotlib.axis_2">
    <g id="ytick_1">
     <g id="line2d_91">
      <defs>
       <path id="md00a13f51f" d="M 0 0 
L 3 0 
" style="stroke: #000000; stroke-width: 0.5"/>
      </defs>
      <g>
       <use xlink:href="#md00a13f51f" x="29.974047" y="235.728062" style="stroke: #000000; stroke-width: 0.5"/>
      </g>
     </g>
     <g id="line2d_92">
      <defs>
       <path id="m0c65e5d9c5" d="M 0 0 
L -3 0 
" style="stroke: #000000; stroke-width: 0.5"/>
      </defs>
      <g>
       <use xlink:href="#m0c65e5d9c5" x="364.774047" y="235.728062" style="stroke: #000000; stroke-width: 0.5"/>
      </g>
     </g>
     <g id="text_11">
      <!-- $\mathdefault{0}$ -->
      <g transform="translate(21.492726 239.105351)scale(0.1 -0.1)">
       <use xlink:href="#NimbusRomNo9L-Regu-30" transform="scale(0.996264)"/>
      </g>
     </g>
    </g>
    <g id="ytick_2">
     <g id="line2d_93">
      <g>
       <use xlink:href="#md00a13f51f" x="29.974047" y="206.144388" style="stroke: #000000; stroke-width: 0.5"/>
      </g>
     </g>
     <g id="line2d_94">
      <g>
       <use xlink:href="#m0c65e5d9c5" x="364.774047" y="206.144388" style="stroke: #000000; stroke-width: 0.5"/>
      </g>
     </g>
     <g id="text_12">
      <!-- $\mathdefault{10}$ -->
      <g transform="translate(16.511406 209.521677)scale(0.1 -0.1)">
       <defs>
        <path id="NimbusRomNo9L-Regu-31" d="M 1862 4339 
L 710 3757 
L 710 3667 
C 787 3699 858 3725 883 3738 
C 998 3783 1107 3808 1171 3808 
C 1306 3808 1363 3711 1363 3505 
L 1363 592 
C 1363 379 1312 232 1210 173 
C 1114 116 1024 96 755 96 
L 755 0 
L 2522 0 
L 2522 96 
C 2016 96 1914 160 1914 470 
L 1914 4327 
L 1862 4339 
z
" transform="scale(0.015625)"/>
       </defs>
       <use xlink:href="#NimbusRomNo9L-Regu-31" transform="scale(0.996264)"/>
       <use xlink:href="#NimbusRomNo9L-Regu-30" transform="translate(49.8132 0)scale(0.996264)"/>
      </g>
     </g>
    </g>
    <g id="ytick_3">
     <g id="line2d_95">
      <g>
       <use xlink:href="#md00a13f51f" x="29.974047" y="176.560715" style="stroke: #000000; stroke-width: 0.5"/>
      </g>
     </g>
     <g id="line2d_96">
      <g>
       <use xlink:href="#m0c65e5d9c5" x="364.774047" y="176.560715" style="stroke: #000000; stroke-width: 0.5"/>
      </g>
     </g>
     <g id="text_13">
      <!-- $\mathdefault{20}$ -->
      <g transform="translate(16.511406 179.938004)scale(0.1 -0.1)">
       <use xlink:href="#NimbusRomNo9L-Regu-32" transform="scale(0.996264)"/>
       <use xlink:href="#NimbusRomNo9L-Regu-30" transform="translate(49.8132 0)scale(0.996264)"/>
      </g>
     </g>
    </g>
    <g id="ytick_4">
     <g id="line2d_97">
      <g>
       <use xlink:href="#md00a13f51f" x="29.974047" y="146.977041" style="stroke: #000000; stroke-width: 0.5"/>
      </g>
     </g>
     <g id="line2d_98">
      <g>
       <use xlink:href="#m0c65e5d9c5" x="364.774047" y="146.977041" style="stroke: #000000; stroke-width: 0.5"/>
      </g>
     </g>
     <g id="text_14">
      <!-- $\mathdefault{30}$ -->
      <g transform="translate(16.511406 150.35433)scale(0.1 -0.1)">
       <use xlink:href="#NimbusRomNo9L-Regu-33" transform="scale(0.996264)"/>
       <use xlink:href="#NimbusRomNo9L-Regu-30" transform="translate(49.8132 0)scale(0.996264)"/>
      </g>
     </g>
    </g>
    <g id="ytick_5">
     <g id="line2d_99">
      <g>
       <use xlink:href="#md00a13f51f" x="29.974047" y="117.393368" style="stroke: #000000; stroke-width: 0.5"/>
      </g>
     </g>
     <g id="line2d_100">
      <g>
       <use xlink:href="#m0c65e5d9c5" x="364.774047" y="117.393368" style="stroke: #000000; stroke-width: 0.5"/>
      </g>
     </g>
     <g id="text_15">
      <!-- $\mathdefault{40}$ -->
      <g transform="translate(16.511406 120.770657)scale(0.1 -0.1)">
       <use xlink:href="#NimbusRomNo9L-Regu-34" transform="scale(0.996264)"/>
       <use xlink:href="#NimbusRomNo9L-Regu-30" transform="translate(49.8132 0)scale(0.996264)"/>
      </g>
     </g>
    </g>
    <g id="ytick_6">
     <g id="line2d_101">
      <g>
       <use xlink:href="#md00a13f51f" x="29.974047" y="87.809695" style="stroke: #000000; stroke-width: 0.5"/>
      </g>
     </g>
     <g id="line2d_102">
      <g>
       <use xlink:href="#m0c65e5d9c5" x="364.774047" y="87.809695" style="stroke: #000000; stroke-width: 0.5"/>
      </g>
     </g>
     <g id="text_16">
      <!-- $\mathdefault{50}$ -->
      <g transform="translate(16.511406 91.186983)scale(0.1 -0.1)">
       <use xlink:href="#NimbusRomNo9L-Regu-35" transform="scale(0.996264)"/>
       <use xlink:href="#NimbusRomNo9L-Regu-30" transform="translate(49.8132 0)scale(0.996264)"/>
      </g>
     </g>
    </g>
    <g id="ytick_7">
     <g id="line2d_103">
      <g>
       <use xlink:href="#md00a13f51f" x="29.974047" y="58.226021" style="stroke: #000000; stroke-width: 0.5"/>
      </g>
     </g>
     <g id="line2d_104">
      <g>
       <use xlink:href="#m0c65e5d9c5" x="364.774047" y="58.226021" style="stroke: #000000; stroke-width: 0.5"/>
      </g>
     </g>
     <g id="text_17">
      <!-- $\mathdefault{60}$ -->
      <g transform="translate(16.511406 61.60331)scale(0.1 -0.1)">
       <use xlink:href="#NimbusRomNo9L-Regu-36" transform="scale(0.996264)"/>
       <use xlink:href="#NimbusRomNo9L-Regu-30" transform="translate(49.8132 0)scale(0.996264)"/>
      </g>
     </g>
    </g>
    <g id="ytick_8">
     <g id="line2d_105">
      <g>
       <use xlink:href="#md00a13f51f" x="29.974047" y="28.642348" style="stroke: #000000; stroke-width: 0.5"/>
      </g>
     </g>
     <g id="line2d_106">
      <g>
       <use xlink:href="#m0c65e5d9c5" x="364.774047" y="28.642348" style="stroke: #000000; stroke-width: 0.5"/>
      </g>
     </g>
     <g id="text_18">
      <!-- $\mathdefault{70}$ -->
      <g transform="translate(16.511406 32.019636)scale(0.1 -0.1)">
       <use xlink:href="#NimbusRomNo9L-Regu-37" transform="scale(0.996264)"/>
       <use xlink:href="#NimbusRomNo9L-Regu-30" transform="translate(49.8132 0)scale(0.996264)"/>
      </g>
     </g>
    </g>
    <g id="ytick_9">
     <g id="line2d_107">
      <defs>
       <path id="mdc508ed2e0" d="M 0 0 
L 1.5 0 
" style="stroke: #000000; stroke-width: 0.5"/>
      </defs>
      <g>
       <use xlink:href="#mdc508ed2e0" x="29.974047" y="229.811327" style="stroke: #000000; stroke-width: 0.5"/>
      </g>
     </g>
     <g id="line2d_108">
      <defs>
       <path id="m5e4530e96a" d="M 0 0 
L -1.5 0 
" style="stroke: #000000; stroke-width: 0.5"/>
      </defs>
      <g>
       <use xlink:href="#m5e4530e96a" x="364.774047" y="229.811327" style="stroke: #000000; stroke-width: 0.5"/>
      </g>
     </g>
    </g>
    <g id="ytick_10">
     <g id="line2d_109">
      <g>
       <use xlink:href="#mdc508ed2e0" x="29.974047" y="223.894592" style="stroke: #000000; stroke-width: 0.5"/>
      </g>
     </g>
     <g id="line2d_110">
      <g>
       <use xlink:href="#m5e4530e96a" x="364.774047" y="223.894592" style="stroke: #000000; stroke-width: 0.5"/>
      </g>
     </g>
    </g>
    <g id="ytick_11">
     <g id="line2d_111">
      <g>
       <use xlink:href="#mdc508ed2e0" x="29.974047" y="217.977858" style="stroke: #000000; stroke-width: 0.5"/>
      </g>
     </g>
     <g id="line2d_112">
      <g>
       <use xlink:href="#m5e4530e96a" x="364.774047" y="217.977858" style="stroke: #000000; stroke-width: 0.5"/>
      </g>
     </g>
    </g>
    <g id="ytick_12">
     <g id="line2d_113">
      <g>
       <use xlink:href="#mdc508ed2e0" x="29.974047" y="212.061123" style="stroke: #000000; stroke-width: 0.5"/>
      </g>
     </g>
     <g id="line2d_114">
      <g>
       <use xlink:href="#m5e4530e96a" x="364.774047" y="212.061123" style="stroke: #000000; stroke-width: 0.5"/>
      </g>
     </g>
    </g>
    <g id="ytick_13">
     <g id="line2d_115">
      <g>
       <use xlink:href="#mdc508ed2e0" x="29.974047" y="200.227654" style="stroke: #000000; stroke-width: 0.5"/>
      </g>
     </g>
     <g id="line2d_116">
      <g>
       <use xlink:href="#m5e4530e96a" x="364.774047" y="200.227654" style="stroke: #000000; stroke-width: 0.5"/>
      </g>
     </g>
    </g>
    <g id="ytick_14">
     <g id="line2d_117">
      <g>
       <use xlink:href="#mdc508ed2e0" x="29.974047" y="194.310919" style="stroke: #000000; stroke-width: 0.5"/>
      </g>
     </g>
     <g id="line2d_118">
      <g>
       <use xlink:href="#m5e4530e96a" x="364.774047" y="194.310919" style="stroke: #000000; stroke-width: 0.5"/>
      </g>
     </g>
    </g>
    <g id="ytick_15">
     <g id="line2d_119">
      <g>
       <use xlink:href="#mdc508ed2e0" x="29.974047" y="188.394184" style="stroke: #000000; stroke-width: 0.5"/>
      </g>
     </g>
     <g id="line2d_120">
      <g>
       <use xlink:href="#m5e4530e96a" x="364.774047" y="188.394184" style="stroke: #000000; stroke-width: 0.5"/>
      </g>
     </g>
    </g>
    <g id="ytick_16">
     <g id="line2d_121">
      <g>
       <use xlink:href="#mdc508ed2e0" x="29.974047" y="182.47745" style="stroke: #000000; stroke-width: 0.5"/>
      </g>
     </g>
     <g id="line2d_122">
      <g>
       <use xlink:href="#m5e4530e96a" x="364.774047" y="182.47745" style="stroke: #000000; stroke-width: 0.5"/>
      </g>
     </g>
    </g>
    <g id="ytick_17">
     <g id="line2d_123">
      <g>
       <use xlink:href="#mdc508ed2e0" x="29.974047" y="170.64398" style="stroke: #000000; stroke-width: 0.5"/>
      </g>
     </g>
     <g id="line2d_124">
      <g>
       <use xlink:href="#m5e4530e96a" x="364.774047" y="170.64398" style="stroke: #000000; stroke-width: 0.5"/>
      </g>
     </g>
    </g>
    <g id="ytick_18">
     <g id="line2d_125">
      <g>
       <use xlink:href="#mdc508ed2e0" x="29.974047" y="164.727246" style="stroke: #000000; stroke-width: 0.5"/>
      </g>
     </g>
     <g id="line2d_126">
      <g>
       <use xlink:href="#m5e4530e96a" x="364.774047" y="164.727246" style="stroke: #000000; stroke-width: 0.5"/>
      </g>
     </g>
    </g>
    <g id="ytick_19">
     <g id="line2d_127">
      <g>
       <use xlink:href="#mdc508ed2e0" x="29.974047" y="158.810511" style="stroke: #000000; stroke-width: 0.5"/>
      </g>
     </g>
     <g id="line2d_128">
      <g>
       <use xlink:href="#m5e4530e96a" x="364.774047" y="158.810511" style="stroke: #000000; stroke-width: 0.5"/>
      </g>
     </g>
    </g>
    <g id="ytick_20">
     <g id="line2d_129">
      <g>
       <use xlink:href="#mdc508ed2e0" x="29.974047" y="152.893776" style="stroke: #000000; stroke-width: 0.5"/>
      </g>
     </g>
     <g id="line2d_130">
      <g>
       <use xlink:href="#m5e4530e96a" x="364.774047" y="152.893776" style="stroke: #000000; stroke-width: 0.5"/>
      </g>
     </g>
    </g>
    <g id="ytick_21">
     <g id="line2d_131">
      <g>
       <use xlink:href="#mdc508ed2e0" x="29.974047" y="141.060307" style="stroke: #000000; stroke-width: 0.5"/>
      </g>
     </g>
     <g id="line2d_132">
      <g>
       <use xlink:href="#m5e4530e96a" x="364.774047" y="141.060307" style="stroke: #000000; stroke-width: 0.5"/>
      </g>
     </g>
    </g>
    <g id="ytick_22">
     <g id="line2d_133">
      <g>
       <use xlink:href="#mdc508ed2e0" x="29.974047" y="135.143572" style="stroke: #000000; stroke-width: 0.5"/>
      </g>
     </g>
     <g id="line2d_134">
      <g>
       <use xlink:href="#m5e4530e96a" x="364.774047" y="135.143572" style="stroke: #000000; stroke-width: 0.5"/>
      </g>
     </g>
    </g>
    <g id="ytick_23">
     <g id="line2d_135">
      <g>
       <use xlink:href="#mdc508ed2e0" x="29.974047" y="129.226837" style="stroke: #000000; stroke-width: 0.5"/>
      </g>
     </g>
     <g id="line2d_136">
      <g>
       <use xlink:href="#m5e4530e96a" x="364.774047" y="129.226837" style="stroke: #000000; stroke-width: 0.5"/>
      </g>
     </g>
    </g>
    <g id="ytick_24">
     <g id="line2d_137">
      <g>
       <use xlink:href="#mdc508ed2e0" x="29.974047" y="123.310103" style="stroke: #000000; stroke-width: 0.5"/>
      </g>
     </g>
     <g id="line2d_138">
      <g>
       <use xlink:href="#m5e4530e96a" x="364.774047" y="123.310103" style="stroke: #000000; stroke-width: 0.5"/>
      </g>
     </g>
    </g>
    <g id="ytick_25">
     <g id="line2d_139">
      <g>
       <use xlink:href="#mdc508ed2e0" x="29.974047" y="111.476633" style="stroke: #000000; stroke-width: 0.5"/>
      </g>
     </g>
     <g id="line2d_140">
      <g>
       <use xlink:href="#m5e4530e96a" x="364.774047" y="111.476633" style="stroke: #000000; stroke-width: 0.5"/>
      </g>
     </g>
    </g>
    <g id="ytick_26">
     <g id="line2d_141">
      <g>
       <use xlink:href="#mdc508ed2e0" x="29.974047" y="105.559899" style="stroke: #000000; stroke-width: 0.5"/>
      </g>
     </g>
     <g id="line2d_142">
      <g>
       <use xlink:href="#m5e4530e96a" x="364.774047" y="105.559899" style="stroke: #000000; stroke-width: 0.5"/>
      </g>
     </g>
    </g>
    <g id="ytick_27">
     <g id="line2d_143">
      <g>
       <use xlink:href="#mdc508ed2e0" x="29.974047" y="99.643164" style="stroke: #000000; stroke-width: 0.5"/>
      </g>
     </g>
     <g id="line2d_144">
      <g>
       <use xlink:href="#m5e4530e96a" x="364.774047" y="99.643164" style="stroke: #000000; stroke-width: 0.5"/>
      </g>
     </g>
    </g>
    <g id="ytick_28">
     <g id="line2d_145">
      <g>
       <use xlink:href="#mdc508ed2e0" x="29.974047" y="93.726429" style="stroke: #000000; stroke-width: 0.5"/>
      </g>
     </g>
     <g id="line2d_146">
      <g>
       <use xlink:href="#m5e4530e96a" x="364.774047" y="93.726429" style="stroke: #000000; stroke-width: 0.5"/>
      </g>
     </g>
    </g>
    <g id="ytick_29">
     <g id="line2d_147">
      <g>
       <use xlink:href="#mdc508ed2e0" x="29.974047" y="81.89296" style="stroke: #000000; stroke-width: 0.5"/>
      </g>
     </g>
     <g id="line2d_148">
      <g>
       <use xlink:href="#m5e4530e96a" x="364.774047" y="81.89296" style="stroke: #000000; stroke-width: 0.5"/>
      </g>
     </g>
    </g>
    <g id="ytick_30">
     <g id="line2d_149">
      <g>
       <use xlink:href="#mdc508ed2e0" x="29.974047" y="75.976225" style="stroke: #000000; stroke-width: 0.5"/>
      </g>
     </g>
     <g id="line2d_150">
      <g>
       <use xlink:href="#m5e4530e96a" x="364.774047" y="75.976225" style="stroke: #000000; stroke-width: 0.5"/>
      </g>
     </g>
    </g>
    <g id="ytick_31">
     <g id="line2d_151">
      <g>
       <use xlink:href="#mdc508ed2e0" x="29.974047" y="70.05949" style="stroke: #000000; stroke-width: 0.5"/>
      </g>
     </g>
     <g id="line2d_152">
      <g>
       <use xlink:href="#m5e4530e96a" x="364.774047" y="70.05949" style="stroke: #000000; stroke-width: 0.5"/>
      </g>
     </g>
    </g>
    <g id="ytick_32">
     <g id="line2d_153">
      <g>
       <use xlink:href="#mdc508ed2e0" x="29.974047" y="64.142756" style="stroke: #000000; stroke-width: 0.5"/>
      </g>
     </g>
     <g id="line2d_154">
      <g>
       <use xlink:href="#m5e4530e96a" x="364.774047" y="64.142756" style="stroke: #000000; stroke-width: 0.5"/>
      </g>
     </g>
    </g>
    <g id="ytick_33">
     <g id="line2d_155">
      <g>
       <use xlink:href="#mdc508ed2e0" x="29.974047" y="52.309286" style="stroke: #000000; stroke-width: 0.5"/>
      </g>
     </g>
     <g id="line2d_156">
      <g>
       <use xlink:href="#m5e4530e96a" x="364.774047" y="52.309286" style="stroke: #000000; stroke-width: 0.5"/>
      </g>
     </g>
    </g>
    <g id="ytick_34">
     <g id="line2d_157">
      <g>
       <use xlink:href="#mdc508ed2e0" x="29.974047" y="46.392552" style="stroke: #000000; stroke-width: 0.5"/>
      </g>
     </g>
     <g id="line2d_158">
      <g>
       <use xlink:href="#m5e4530e96a" x="364.774047" y="46.392552" style="stroke: #000000; stroke-width: 0.5"/>
      </g>
     </g>
    </g>
    <g id="ytick_35">
     <g id="line2d_159">
      <g>
       <use xlink:href="#mdc508ed2e0" x="29.974047" y="40.475817" style="stroke: #000000; stroke-width: 0.5"/>
      </g>
     </g>
     <g id="line2d_160">
      <g>
       <use xlink:href="#m5e4530e96a" x="364.774047" y="40.475817" style="stroke: #000000; stroke-width: 0.5"/>
      </g>
     </g>
    </g>
    <g id="ytick_36">
     <g id="line2d_161">
      <g>
       <use xlink:href="#mdc508ed2e0" x="29.974047" y="34.559082" style="stroke: #000000; stroke-width: 0.5"/>
      </g>
     </g>
     <g id="line2d_162">
      <g>
       <use xlink:href="#m5e4530e96a" x="364.774047" y="34.559082" style="stroke: #000000; stroke-width: 0.5"/>
      </g>
     </g>
    </g>
    <g id="ytick_37">
     <g id="line2d_163">
      <g>
       <use xlink:href="#mdc508ed2e0" x="29.974047" y="22.725613" style="stroke: #000000; stroke-width: 0.5"/>
      </g>
     </g>
     <g id="line2d_164">
      <g>
       <use xlink:href="#m5e4530e96a" x="364.774047" y="22.725613" style="stroke: #000000; stroke-width: 0.5"/>
      </g>
     </g>
    </g>
    <g id="text_19">
     <!-- N -->
     <g transform="translate(10.354578 130.60456)rotate(-90)scale(0.1 -0.1)">
      <defs>
       <path id="NimbusRomNo9L-Regu-4e" d="M 3917 -64 
L 3917 3287 
C 3917 3669 3981 3905 4102 3987 
C 4192 4051 4282 4077 4525 4102 
L 4525 4224 
L 3021 4224 
L 3021 4102 
C 3264 4083 3354 4057 3450 4000 
C 3578 3911 3635 3681 3635 3286 
L 3635 1136 
L 1171 4224 
L 77 4224 
L 77 4102 
C 352 4102 442 4051 698 3751 
L 698 938 
C 698 281 608 159 77 121 
L 77 0 
L 1581 0 
L 1581 134 
C 1088 134 979 281 979 928 
L 979 3439 
L 3808 -64 
L 3917 -64 
z
" transform="scale(0.015625)"/>
      </defs>
      <use xlink:href="#NimbusRomNo9L-Regu-4e" transform="scale(0.996264)"/>
     </g>
    </g>
   </g>
   <g id="patch_103">
    <path d="M 29.974047 235.728062 
L 29.974047 18.288062 
" style="fill: none; stroke: #000000; stroke-width: 0.5; stroke-linejoin: miter; stroke-linecap: square"/>
   </g>
   <g id="patch_104">
    <path d="M 364.774047 235.728062 
L 364.774047 18.288062 
" style="fill: none; stroke: #000000; stroke-width: 0.5; stroke-linejoin: miter; stroke-linecap: square"/>
   </g>
   <g id="patch_105">
    <path d="M 29.974047 235.728062 
L 364.774047 235.728062 
" style="fill: none; stroke: #000000; stroke-width: 0.5; stroke-linejoin: miter; stroke-linecap: square"/>
   </g>
   <g id="patch_106">
    <path d="M 29.974047 18.288062 
L 364.774047 18.288062 
" style="fill: none; stroke: #000000; stroke-width: 0.5; stroke-linejoin: miter; stroke-linecap: square"/>
   </g>
   <g id="text_20">
    <!-- Histogramme de la masse du gluino $\widetilde{g}$ -->
    <g transform="translate(106.437638 12.288062)scale(0.12 -0.12)">
     <defs>
      <path id="NimbusRomNo9L-Regu-48" d="M 1338 2304 
L 1338 3533 
C 1338 3990 1408 4059 1901 4104 
L 1901 4224 
L 122 4224 
L 122 4104 
C 614 4059 685 3989 685 3527 
L 685 749 
C 685 210 621 134 122 134 
L 122 0 
L 1901 0 
L 1901 121 
C 1421 159 1338 242 1338 699 
L 1338 2022 
L 3277 2022 
L 3277 757 
C 3277 211 3213 134 2714 134 
L 2714 0 
L 4493 0 
L 4493 121 
C 4013 159 3930 242 3930 696 
L 3930 3529 
C 3930 3989 4000 4059 4493 4104 
L 4493 4224 
L 2714 4224 
L 2714 4104 
C 3206 4059 3277 3990 3277 3533 
L 3277 2304 
L 1338 2304 
z
" transform="scale(0.015625)"/>
      <path id="NimbusRomNo9L-Regu-69" d="M 1120 2929 
L 128 2579 
L 128 2484 
L 179 2490 
C 256 2502 339 2509 397 2509 
C 550 2509 608 2406 608 2125 
L 608 640 
C 608 179 544 109 102 109 
L 102 0 
L 1619 0 
L 1619 96 
C 1197 128 1146 191 1146 650 
L 1146 2910 
L 1120 2929 
z
M 819 4352 
C 646 4352 499 4205 499 4026 
C 499 3847 640 3699 819 3699 
C 1005 3699 1152 3840 1152 4026 
C 1152 4205 1005 4352 819 4352 
z
" transform="scale(0.015625)"/>
      <path id="NimbusRomNo9L-Regu-74" d="M 1632 2880 
L 986 2880 
L 986 3622 
C 986 3686 979 3706 941 3706 
C 896 3648 858 3590 813 3526 
C 570 3174 294 2867 192 2841 
C 122 2794 83 2748 83 2715 
C 83 2695 90 2682 109 2682 
L 448 2682 
L 448 751 
C 448 212 640 -64 1018 -64 
C 1331 -64 1574 90 1786 423 
L 1702 493 
C 1568 333 1459 269 1318 269 
C 1082 269 986 443 986 847 
L 986 2682 
L 1632 2682 
L 1632 2880 
z
" transform="scale(0.015625)"/>
      <path id="NimbusRomNo9L-Regu-6f" d="M 1600 2944 
C 768 2944 186 2330 186 1446 
C 186 582 781 -64 1587 -64 
C 2394 -64 3008 614 3008 1498 
C 3008 2336 2419 2944 1600 2944 
z
M 1517 2765 
C 2054 2765 2432 2150 2432 1274 
C 2432 550 2144 115 1664 115 
C 1414 115 1178 269 1043 525 
C 864 858 762 1306 762 1760 
C 762 2368 1062 2765 1517 2765 
z
" transform="scale(0.015625)"/>
      <path id="NimbusRomNo9L-Regu-67" d="M 3008 2496 
L 3008 2746 
L 2515 2746 
C 2387 2746 2291 2763 2163 2802 
L 2022 2847 
C 1850 2903 1677 2931 1510 2931 
C 915 2931 442 2467 442 1881 
C 442 1476 614 1230 1037 1018 
C 915 906 800 799 762 768 
C 550 588 467 463 467 338 
C 467 206 544 131 806 6 
C 352 -329 179 -543 179 -781 
C 179 -1124 678 -1408 1286 -1408 
C 1766 -1408 2266 -1238 2598 -962 
C 2842 -759 2950 -548 2950 -299 
C 2950 108 2650 384 2176 384 
L 1350 384 
C 1011 384 851 443 851 548 
C 851 678 1062 908 1235 960 
C 1293 953 1338 947 1357 947 
C 1478 934 1562 928 1600 928 
C 1837 928 2093 1026 2291 1203 
C 2502 1387 2598 1617 2598 1945 
C 2598 2135 2566 2286 2477 2496 
L 3008 2496 
z
M 941 -13 
C 1152 -58 1664 -96 1978 -96 
C 2560 -96 2771 -180 2771 -414 
C 2771 -791 2285 -1043 1562 -1043 
C 998 -1043 627 -855 627 -570 
C 627 -420 672 -336 941 -13 
z
M 973 2145 
C 973 2526 1152 2752 1446 2752 
C 1645 2752 1811 2642 1914 2449 
C 2029 2223 2106 1927 2106 1675 
C 2106 1314 1920 1088 1626 1088 
C 1242 1088 973 1507 973 2126 
L 973 2145 
z
" transform="scale(0.015625)"/>
      <path id="NimbusRomNo9L-Regu-72" d="M 45 2496 
C 134 2515 192 2522 269 2522 
C 429 2522 486 2419 486 2138 
L 486 538 
C 486 218 442 173 32 96 
L 32 0 
L 1568 0 
L 1568 102 
C 1133 102 1024 199 1024 565 
L 1024 2013 
C 1024 2219 1299 2541 1472 2541 
C 1510 2541 1568 2509 1638 2445 
C 1741 2355 1811 2317 1894 2317 
C 2048 2317 2144 2426 2144 2605 
C 2144 2816 2010 2944 1792 2944 
C 1523 2944 1338 2797 1024 2343 
L 1024 2931 
L 992 2944 
C 653 2803 422 2721 45 2599 
L 45 2496 
z
" transform="scale(0.015625)"/>
      <path id="NimbusRomNo9L-Regu-6d" d="M 122 2547 
C 205 2566 256 2573 326 2573 
C 493 2573 550 2470 550 2162 
L 550 539 
C 550 192 461 96 102 96 
L 102 0 
L 1523 0 
L 1523 96 
C 1184 96 1088 166 1088 418 
L 1088 2234 
C 1088 2246 1139 2310 1184 2355 
C 1344 2502 1619 2611 1843 2611 
C 2125 2611 2266 2385 2266 1932 
L 2266 528 
C 2266 167 2195 96 1830 96 
L 1830 0 
L 3264 0 
L 3264 96 
C 2899 96 2803 205 2803 603 
L 2803 2221 
C 2995 2496 3206 2611 3501 2611 
C 3866 2611 3981 2438 3981 1907 
L 3981 557 
C 3981 192 3930 141 3558 96 
L 3558 0 
L 4960 0 
L 4960 96 
L 4794 115 
C 4602 115 4518 230 4518 480 
L 4518 1802 
C 4518 2559 4269 2944 3776 2944 
C 3405 2944 3078 2778 2733 2407 
C 2618 2771 2400 2944 2054 2944 
C 1773 2944 1594 2854 1062 2451 
L 1062 2931 
L 1018 2944 
C 691 2822 474 2752 122 2656 
L 122 2547 
z
" transform="scale(0.015625)"/>
      <path id="NimbusRomNo9L-Regu-64" d="M 2202 -64 
L 3142 269 
L 3142 365 
C 3027 365 3014 365 2995 365 
C 2765 365 2714 435 2714 731 
L 2714 4364 
L 2682 4377 
C 2374 4268 2150 4204 1741 4096 
L 1741 3994 
C 1792 4000 1830 4000 1882 4000 
C 2118 4000 2176 3936 2176 3672 
L 2176 2669 
C 1933 2874 1760 2944 1504 2944 
C 768 2944 173 2221 173 1312 
C 173 493 653 -64 1357 -64 
C 1715 -64 1958 64 2176 365 
L 2176 -45 
L 2202 -64 
z
M 2176 653 
C 2176 608 2131 531 2067 461 
C 1952 333 1792 269 1606 269 
C 1075 269 723 781 723 1568 
C 723 2291 1037 2765 1523 2765 
C 1862 2765 2176 2464 2176 2125 
L 2176 653 
z
" transform="scale(0.015625)"/>
      <path id="NimbusRomNo9L-Regu-6c" d="M 122 4000 
L 160 4000 
C 230 4000 307 4000 358 4000 
C 563 4000 627 3910 627 3610 
L 627 557 
C 627 211 538 128 134 96 
L 134 0 
L 1645 0 
L 1645 109 
C 1242 109 1165 173 1165 528 
L 1165 4371 
L 1139 4384 
C 806 4275 563 4211 122 4103 
L 122 4000 
z
" transform="scale(0.015625)"/>
      <path id="NimbusRomNo9L-Regu-75" d="M 3066 320 
L 3034 320 
C 2739 320 2669 390 2669 685 
L 2669 2880 
L 1658 2880 
L 1658 2758 
C 2054 2758 2131 2694 2131 2375 
L 2131 875 
C 2131 697 2099 607 2010 537 
C 1837 397 1638 320 1446 320 
C 1197 320 992 537 992 805 
L 992 2880 
L 58 2880 
L 58 2778 
C 365 2778 454 2682 454 2387 
L 454 770 
C 454 263 762 -64 1229 -64 
C 1466 -64 1715 38 1888 211 
L 2163 486 
L 2163 -45 
L 2189 -58 
C 2509 70 2739 141 3066 230 
L 3066 320 
z
" transform="scale(0.015625)"/>
      <path id="NimbusRomNo9L-Regu-6e" d="M 102 2579 
C 141 2598 205 2605 275 2605 
C 454 2605 512 2509 512 2195 
L 512 608 
C 512 243 442 154 115 128 
L 115 32 
L 1472 32 
L 1472 128 
C 1146 154 1050 230 1050 461 
L 1050 2259 
C 1357 2547 1498 2624 1709 2624 
C 2022 2624 2176 2426 2176 2003 
L 2176 666 
C 2176 262 2093 154 1773 128 
L 1773 32 
L 3104 32 
L 3104 128 
C 2790 160 2714 237 2714 550 
L 2714 2016 
C 2714 2618 2432 2976 1958 2976 
C 1664 2976 1466 2867 1030 2458 
L 1030 2963 
L 986 2976 
C 672 2861 454 2790 102 2688 
L 102 2579 
z
" transform="scale(0.015625)"/>
      <path id="CMEX10-65" d="M 3462 4621 
C 3149 4358 2810 4166 2483 4166 
C 2227 4166 2042 4275 1818 4403 
C 1632 4512 1434 4621 1178 4621 
C 1018 4621 851 4570 710 4506 
C 582 4442 454 4371 346 4282 
L 0 4000 
L 90 3891 
C 403 4154 742 4346 1069 4346 
C 1325 4346 1510 4237 1734 4109 
C 1920 4000 2118 3891 2374 3891 
C 2534 3891 2701 3942 2842 4006 
C 2970 4070 3098 4141 3206 4230 
L 3552 4512 
L 3462 4621 
z
" transform="scale(0.015625)"/>
      <path id="NimbusRomNo9L-ReguItal-67" d="M 3021 2624 
L 2630 2624 
C 2611 2624 2579 2635 2528 2667 
C 2355 2763 2144 2816 1901 2816 
C 1190 2816 614 2340 614 1756 
C 614 1434 755 1249 1120 1088 
C 742 830 627 702 627 548 
C 627 464 678 387 800 297 
C 166 -121 51 -250 51 -546 
C 51 -990 474 -1280 1120 -1280 
C 1926 -1280 2464 -900 2464 -340 
C 2464 65 2157 349 1549 510 
C 1267 580 1101 683 1101 780 
C 1101 877 1248 1044 1331 1044 
C 1344 1044 1357 1044 1376 1038 
C 1427 1025 1517 1018 1574 1018 
C 2157 1018 2758 1530 2758 2022 
C 2758 2123 2739 2249 2701 2375 
L 3021 2375 
L 3021 2624 
z
M 947 226 
C 954 226 966 219 979 213 
C 998 207 1062 188 1165 155 
C 1843 -57 2080 -238 2080 -534 
C 2080 -882 1709 -1139 1216 -1139 
C 704 -1139 403 -894 403 -483 
C 403 -327 442 -219 544 -97 
C 627 13 896 226 947 226 
z
M 1894 2676 
C 2131 2676 2253 2528 2253 2238 
C 2253 2022 2176 1751 2054 1541 
C 1914 1288 1715 1152 1498 1152 
C 1254 1152 1114 1325 1114 1615 
C 1114 2182 1478 2676 1894 2676 
z
" transform="scale(0.015625)"/>
     </defs>
     <use xlink:href="#NimbusRomNo9L-Regu-48" transform="scale(0.996264)"/>
     <use xlink:href="#NimbusRomNo9L-Regu-69" transform="translate(71.929985 0)scale(0.996264)"/>
     <use xlink:href="#NimbusRomNo9L-Regu-73" transform="translate(99.625154 0)scale(0.996264)"/>
     <use xlink:href="#NimbusRomNo9L-Regu-74" transform="translate(138.378861 0)scale(0.996264)"/>
     <use xlink:href="#NimbusRomNo9L-Regu-6f" transform="translate(166.07403 0)scale(0.996264)"/>
     <use xlink:href="#NimbusRomNo9L-Regu-67" transform="translate(215.887231 0)scale(0.996264)"/>
     <use xlink:href="#NimbusRomNo9L-Regu-72" transform="translate(265.700431 0)scale(0.996264)"/>
     <use xlink:href="#NimbusRomNo9L-Regu-61" transform="translate(298.875661 0)scale(0.996264)"/>
     <use xlink:href="#NimbusRomNo9L-Regu-6d" transform="translate(343.10923 0)scale(0.996264)"/>
     <use xlink:href="#NimbusRomNo9L-Regu-6d" transform="translate(420.6176 0)scale(0.996264)"/>
     <use xlink:href="#NimbusRomNo9L-Regu-65" transform="translate(498.12597 0)scale(0.996264)"/>
     <use xlink:href="#NimbusRomNo9L-Regu-64" transform="translate(567.266139 0)scale(0.996264)"/>
     <use xlink:href="#NimbusRomNo9L-Regu-65" transform="translate(617.079339 0)scale(0.996264)"/>
     <use xlink:href="#NimbusRomNo9L-Regu-6c" transform="translate(686.219508 0)scale(0.996264)"/>
     <use xlink:href="#NimbusRomNo9L-Regu-61" transform="translate(713.914678 0)scale(0.996264)"/>
     <use xlink:href="#NimbusRomNo9L-Regu-6d" transform="translate(783.054847 0)scale(0.996264)"/>
     <use xlink:href="#NimbusRomNo9L-Regu-61" transform="translate(860.563217 0)scale(0.996264)"/>
     <use xlink:href="#NimbusRomNo9L-Regu-73" transform="translate(904.796786 0)scale(0.996264)"/>
     <use xlink:href="#NimbusRomNo9L-Regu-73" transform="translate(943.550492 0)scale(0.996264)"/>
     <use xlink:href="#NimbusRomNo9L-Regu-65" transform="translate(982.304198 0)scale(0.996264)"/>
     <use xlink:href="#NimbusRomNo9L-Regu-64" transform="translate(1051.444367 0)scale(0.996264)"/>
     <use xlink:href="#NimbusRomNo9L-Regu-75" transform="translate(1101.257567 0)scale(0.996264)"/>
     <use xlink:href="#NimbusRomNo9L-Regu-67" transform="translate(1175.977368 0)scale(0.996264)"/>
     <use xlink:href="#NimbusRomNo9L-Regu-6c" transform="translate(1225.790569 0)scale(0.996264)"/>
     <use xlink:href="#NimbusRomNo9L-Regu-75" transform="translate(1253.485738 0)scale(0.996264)"/>
     <use xlink:href="#NimbusRomNo9L-Regu-69" transform="translate(1303.298939 0)scale(0.996264)"/>
     <use xlink:href="#NimbusRomNo9L-Regu-6e" transform="translate(1330.994108 0)scale(0.996264)"/>
     <use xlink:href="#NimbusRomNo9L-Regu-6f" transform="translate(1380.807309 0)scale(0.996264)"/>
     <use xlink:href="#CMEX10-65" transform="translate(1460.259698 0.448073)scale(0.996264)"/>
     <use xlink:href="#NimbusRomNo9L-ReguItal-67" transform="translate(1455.52711 0)scale(0.996264)"/>
    </g>
   </g>
  </g>
 </g>
 <defs>
  <clipPath id="p1e941a3e0d">
   <rect x="29.974047" y="18.288062" width="334.8" height="217.44"/>
  </clipPath>
 </defs>
</svg>
