<?xml version="1.0" encoding="utf-8" standalone="no"?>
<!DOCTYPE svg PUBLIC "-//W3C//DTD SVG 1.1//EN"
  "http://www.w3.org/Graphics/SVG/1.1/DTD/svg11.dtd">
<svg xmlns:xlink="http://www.w3.org/1999/xlink" width="371.977558pt" height="264.618267pt" viewBox="0 0 371.977558 264.618267" xmlns="http://www.w3.org/2000/svg" version="1.1">
 <metadata>
  <rdf:RDF xmlns:dc="http://purl.org/dc/elements/1.1/" xmlns:cc="http://creativecommons.org/ns#" xmlns:rdf="http://www.w3.org/1999/02/22-rdf-syntax-ns#">
   <cc:Work>
    <dc:type rdf:resource="http://purl.org/dc/dcmitype/StillImage"/>
    <dc:date>2022-05-19T10:55:11.913557</dc:date>
    <dc:format>image/svg+xml</dc:format>
    <dc:creator>
     <cc:Agent>
      <dc:title>Matplotlib v3.5.2, https://matplotlib.org/</dc:title>
     </cc:Agent>
    </dc:creator>
   </cc:Work>
  </rdf:RDF>
 </metadata>
 <defs>
  <style type="text/css">*{stroke-linejoin: round; stroke-linecap: butt}</style>
 </defs>
 <g id="figure_1">
  <g id="patch_1">
   <path d="M 0 264.618267 
L 371.977558 264.618267 
L 371.977558 0 
L 0 0 
L 0 264.618267 
z
" style="fill: none"/>
  </g>
  <g id="axes_1">
   <g id="patch_2">
    <path d="M 29.974047 235.695454 
L 364.774047 235.695454 
L 364.774047 18.255454 
L 29.974047 18.255454 
z
" style="fill: #ffffff"/>
   </g>
   <g id="patch_3">
    <path d="M 45.192228 235.695454 
L 48.235865 235.695454 
L 48.235865 167.85703 
L 45.192228 167.85703 
z
" clip-path="url(#p9f15c9fd1f)"/>
   </g>
   <g id="patch_4">
    <path d="M 48.235865 235.695454 
L 51.279501 235.695454 
L 51.279501 207.131907 
L 48.235865 207.131907 
z
" clip-path="url(#p9f15c9fd1f)"/>
   </g>
   <g id="patch_5">
    <path d="M 51.279501 235.695454 
L 54.323137 235.695454 
L 54.323137 174.997917 
L 51.279501 174.997917 
z
" clip-path="url(#p9f15c9fd1f)"/>
   </g>
   <g id="patch_6">
    <path d="M 54.323137 235.695454 
L 57.366774 235.695454 
L 57.366774 185.709247 
L 54.323137 185.709247 
z
" clip-path="url(#p9f15c9fd1f)"/>
   </g>
   <g id="patch_7">
    <path d="M 57.366774 235.695454 
L 60.41041 235.695454 
L 60.41041 178.56836 
L 57.366774 178.56836 
z
" clip-path="url(#p9f15c9fd1f)"/>
   </g>
   <g id="patch_8">
    <path d="M 60.41041 235.695454 
L 63.454047 235.695454 
L 63.454047 210.702351 
L 60.41041 210.702351 
z
" clip-path="url(#p9f15c9fd1f)"/>
   </g>
   <g id="patch_9">
    <path d="M 63.454047 235.695454 
L 66.497683 235.695454 
L 66.497683 207.131907 
L 63.454047 207.131907 
z
" clip-path="url(#p9f15c9fd1f)"/>
   </g>
   <g id="patch_10">
    <path d="M 66.497683 235.695454 
L 69.541319 235.695454 
L 69.541319 214.272794 
L 66.497683 214.272794 
z
" clip-path="url(#p9f15c9fd1f)"/>
   </g>
   <g id="patch_11">
    <path d="M 69.541319 235.695454 
L 72.584956 235.695454 
L 72.584956 207.131907 
L 69.541319 207.131907 
z
" clip-path="url(#p9f15c9fd1f)"/>
   </g>
   <g id="patch_12">
    <path d="M 72.584956 235.695454 
L 75.628592 235.695454 
L 75.628592 207.131907 
L 72.584956 207.131907 
z
" clip-path="url(#p9f15c9fd1f)"/>
   </g>
   <g id="patch_13">
    <path d="M 75.628592 235.695454 
L 78.672228 235.695454 
L 78.672228 192.850134 
L 75.628592 192.850134 
z
" clip-path="url(#p9f15c9fd1f)"/>
   </g>
   <g id="patch_14">
    <path d="M 78.672228 235.695454 
L 81.715865 235.695454 
L 81.715865 210.702351 
L 78.672228 210.702351 
z
" clip-path="url(#p9f15c9fd1f)"/>
   </g>
   <g id="patch_15">
    <path d="M 81.715865 235.695454 
L 84.759501 235.695454 
L 84.759501 192.850134 
L 81.715865 192.850134 
z
" clip-path="url(#p9f15c9fd1f)"/>
   </g>
   <g id="patch_16">
    <path d="M 84.759501 235.695454 
L 87.803137 235.695454 
L 87.803137 174.997917 
L 84.759501 174.997917 
z
" clip-path="url(#p9f15c9fd1f)"/>
   </g>
   <g id="patch_17">
    <path d="M 87.803137 235.695454 
L 90.846774 235.695454 
L 90.846774 196.420577 
L 87.803137 196.420577 
z
" clip-path="url(#p9f15c9fd1f)"/>
   </g>
   <g id="patch_18">
    <path d="M 90.846774 235.695454 
L 93.89041 235.695454 
L 93.89041 182.138804 
L 90.846774 182.138804 
z
" clip-path="url(#p9f15c9fd1f)"/>
   </g>
   <g id="patch_19">
    <path d="M 93.89041 235.695454 
L 96.934047 235.695454 
L 96.934047 121.441267 
L 93.89041 121.441267 
z
" clip-path="url(#p9f15c9fd1f)"/>
   </g>
   <g id="patch_20">
    <path d="M 96.934047 235.695454 
L 99.977683 235.695454 
L 99.977683 96.448163 
L 96.934047 96.448163 
z
" clip-path="url(#p9f15c9fd1f)"/>
   </g>
   <g id="patch_21">
    <path d="M 99.977683 235.695454 
L 103.021319 235.695454 
L 103.021319 60.74373 
L 99.977683 60.74373 
z
" clip-path="url(#p9f15c9fd1f)"/>
   </g>
   <g id="patch_22">
    <path d="M 103.021319 235.695454 
L 106.064956 235.695454 
L 106.064956 85.736833 
L 103.021319 85.736833 
z
" clip-path="url(#p9f15c9fd1f)"/>
   </g>
   <g id="patch_23">
    <path d="M 106.064956 235.695454 
L 109.108592 235.695454 
L 109.108592 146.43437 
L 106.064956 146.43437 
z
" clip-path="url(#p9f15c9fd1f)"/>
   </g>
   <g id="patch_24">
    <path d="M 109.108592 235.695454 
L 112.152228 235.695454 
L 112.152228 160.716144 
L 109.108592 160.716144 
z
" clip-path="url(#p9f15c9fd1f)"/>
   </g>
   <g id="patch_25">
    <path d="M 112.152228 235.695454 
L 115.195865 235.695454 
L 115.195865 117.870823 
L 112.152228 117.870823 
z
" clip-path="url(#p9f15c9fd1f)"/>
   </g>
   <g id="patch_26">
    <path d="M 115.195865 235.695454 
L 118.239501 235.695454 
L 118.239501 164.286587 
L 115.195865 164.286587 
z
" clip-path="url(#p9f15c9fd1f)"/>
   </g>
   <g id="patch_27">
    <path d="M 118.239501 235.695454 
L 121.283137 235.695454 
L 121.283137 150.004814 
L 118.239501 150.004814 
z
" clip-path="url(#p9f15c9fd1f)"/>
   </g>
   <g id="patch_28">
    <path d="M 121.283137 235.695454 
L 124.326774 235.695454 
L 124.326774 96.448163 
L 121.283137 96.448163 
z
" clip-path="url(#p9f15c9fd1f)"/>
   </g>
   <g id="patch_29">
    <path d="M 124.326774 235.695454 
L 127.37041 235.695454 
L 127.37041 121.441267 
L 124.326774 121.441267 
z
" clip-path="url(#p9f15c9fd1f)"/>
   </g>
   <g id="patch_30">
    <path d="M 127.37041 235.695454 
L 130.414047 235.695454 
L 130.414047 82.16639 
L 127.37041 82.16639 
z
" clip-path="url(#p9f15c9fd1f)"/>
   </g>
   <g id="patch_31">
    <path d="M 130.414047 235.695454 
L 133.457683 235.695454 
L 133.457683 53.602843 
L 130.414047 53.602843 
z
" clip-path="url(#p9f15c9fd1f)"/>
   </g>
   <g id="patch_32">
    <path d="M 133.457683 235.695454 
L 136.501319 235.695454 
L 136.501319 75.025503 
L 133.457683 75.025503 
z
" clip-path="url(#p9f15c9fd1f)"/>
   </g>
   <g id="patch_33">
    <path d="M 136.501319 235.695454 
L 139.544956 235.695454 
L 139.544956 78.595947 
L 136.501319 78.595947 
z
" clip-path="url(#p9f15c9fd1f)"/>
   </g>
   <g id="patch_34">
    <path d="M 139.544956 235.695454 
L 142.588592 235.695454 
L 142.588592 110.729937 
L 139.544956 110.729937 
z
" clip-path="url(#p9f15c9fd1f)"/>
   </g>
   <g id="patch_35">
    <path d="M 142.588592 235.695454 
L 145.632228 235.695454 
L 145.632228 57.173287 
L 142.588592 57.173287 
z
" clip-path="url(#p9f15c9fd1f)"/>
   </g>
   <g id="patch_36">
    <path d="M 145.632228 235.695454 
L 148.675865 235.695454 
L 148.675865 57.173287 
L 145.632228 57.173287 
z
" clip-path="url(#p9f15c9fd1f)"/>
   </g>
   <g id="patch_37">
    <path d="M 148.675865 235.695454 
L 151.719501 235.695454 
L 151.719501 50.0324 
L 148.675865 50.0324 
z
" clip-path="url(#p9f15c9fd1f)"/>
   </g>
   <g id="patch_38">
    <path d="M 151.719501 235.695454 
L 154.763137 235.695454 
L 154.763137 100.018607 
L 151.719501 100.018607 
z
" clip-path="url(#p9f15c9fd1f)"/>
   </g>
   <g id="patch_39">
    <path d="M 154.763137 235.695454 
L 157.806774 235.695454 
L 157.806774 89.307277 
L 154.763137 89.307277 
z
" clip-path="url(#p9f15c9fd1f)"/>
   </g>
   <g id="patch_40">
    <path d="M 157.806774 235.695454 
L 160.85041 235.695454 
L 160.85041 96.448163 
L 157.806774 96.448163 
z
" clip-path="url(#p9f15c9fd1f)"/>
   </g>
   <g id="patch_41">
    <path d="M 160.85041 235.695454 
L 163.894047 235.695454 
L 163.894047 107.159493 
L 160.85041 107.159493 
z
" clip-path="url(#p9f15c9fd1f)"/>
   </g>
   <g id="patch_42">
    <path d="M 163.894047 235.695454 
L 166.937683 235.695454 
L 166.937683 100.018607 
L 163.894047 100.018607 
z
" clip-path="url(#p9f15c9fd1f)"/>
   </g>
   <g id="patch_43">
    <path d="M 166.937683 235.695454 
L 169.981319 235.695454 
L 169.981319 92.87772 
L 166.937683 92.87772 
z
" clip-path="url(#p9f15c9fd1f)"/>
   </g>
   <g id="patch_44">
    <path d="M 169.981319 235.695454 
L 173.024956 235.695454 
L 173.024956 85.736833 
L 169.981319 85.736833 
z
" clip-path="url(#p9f15c9fd1f)"/>
   </g>
   <g id="patch_45">
    <path d="M 173.024956 235.695454 
L 176.068592 235.695454 
L 176.068592 32.180183 
L 173.024956 32.180183 
z
" clip-path="url(#p9f15c9fd1f)"/>
   </g>
   <g id="patch_46">
    <path d="M 176.068592 235.695454 
L 179.112228 235.695454 
L 179.112228 150.004814 
L 176.068592 150.004814 
z
" clip-path="url(#p9f15c9fd1f)"/>
   </g>
   <g id="patch_47">
    <path d="M 179.112228 235.695454 
L 182.155865 235.695454 
L 182.155865 174.997917 
L 179.112228 174.997917 
z
" clip-path="url(#p9f15c9fd1f)"/>
   </g>
   <g id="patch_48">
    <path d="M 182.155865 235.695454 
L 185.199501 235.695454 
L 185.199501 128.582154 
L 182.155865 128.582154 
z
" clip-path="url(#p9f15c9fd1f)"/>
   </g>
   <g id="patch_49">
    <path d="M 185.199501 235.695454 
L 188.243137 235.695454 
L 188.243137 139.293484 
L 185.199501 139.293484 
z
" clip-path="url(#p9f15c9fd1f)"/>
   </g>
   <g id="patch_50">
    <path d="M 188.243137 235.695454 
L 191.286774 235.695454 
L 191.286774 199.991021 
L 188.243137 199.991021 
z
" clip-path="url(#p9f15c9fd1f)"/>
   </g>
   <g id="patch_51">
    <path d="M 191.286774 235.695454 
L 194.33041 235.695454 
L 194.33041 196.420577 
L 191.286774 196.420577 
z
" clip-path="url(#p9f15c9fd1f)"/>
   </g>
   <g id="patch_52">
    <path d="M 194.33041 235.695454 
L 197.374047 235.695454 
L 197.374047 189.27969 
L 194.33041 189.27969 
z
" clip-path="url(#p9f15c9fd1f)"/>
   </g>
   <g id="patch_53">
    <path d="M 197.374047 235.695454 
L 200.417683 235.695454 
L 200.417683 196.420577 
L 197.374047 196.420577 
z
" clip-path="url(#p9f15c9fd1f)"/>
   </g>
   <g id="patch_54">
    <path d="M 200.417683 235.695454 
L 203.461319 235.695454 
L 203.461319 217.843237 
L 200.417683 217.843237 
z
" clip-path="url(#p9f15c9fd1f)"/>
   </g>
   <g id="patch_55">
    <path d="M 203.461319 235.695454 
L 206.504956 235.695454 
L 206.504956 217.843237 
L 203.461319 217.843237 
z
" clip-path="url(#p9f15c9fd1f)"/>
   </g>
   <g id="patch_56">
    <path d="M 206.504956 235.695454 
L 209.548592 235.695454 
L 209.548592 221.413681 
L 206.504956 221.413681 
z
" clip-path="url(#p9f15c9fd1f)"/>
   </g>
   <g id="patch_57">
    <path d="M 209.548592 235.695454 
L 212.592228 235.695454 
L 212.592228 207.131907 
L 209.548592 207.131907 
z
" clip-path="url(#p9f15c9fd1f)"/>
   </g>
   <g id="patch_58">
    <path d="M 212.592228 235.695454 
L 215.635865 235.695454 
L 215.635865 178.56836 
L 212.592228 178.56836 
z
" clip-path="url(#p9f15c9fd1f)"/>
   </g>
   <g id="patch_59">
    <path d="M 215.635865 235.695454 
L 218.679501 235.695454 
L 218.679501 185.709247 
L 215.635865 185.709247 
z
" clip-path="url(#p9f15c9fd1f)"/>
   </g>
   <g id="patch_60">
    <path d="M 218.679501 235.695454 
L 221.723137 235.695454 
L 221.723137 125.01171 
L 218.679501 125.01171 
z
" clip-path="url(#p9f15c9fd1f)"/>
   </g>
   <g id="patch_61">
    <path d="M 221.723137 235.695454 
L 224.766774 235.695454 
L 224.766774 117.870823 
L 221.723137 117.870823 
z
" clip-path="url(#p9f15c9fd1f)"/>
   </g>
   <g id="patch_62">
    <path d="M 224.766774 235.695454 
L 227.81041 235.695454 
L 227.81041 160.716144 
L 224.766774 160.716144 
z
" clip-path="url(#p9f15c9fd1f)"/>
   </g>
   <g id="patch_63">
    <path d="M 227.81041 235.695454 
L 230.854047 235.695454 
L 230.854047 185.709247 
L 227.81041 185.709247 
z
" clip-path="url(#p9f15c9fd1f)"/>
   </g>
   <g id="patch_64">
    <path d="M 230.854047 235.695454 
L 233.897683 235.695454 
L 233.897683 185.709247 
L 230.854047 185.709247 
z
" clip-path="url(#p9f15c9fd1f)"/>
   </g>
   <g id="patch_65">
    <path d="M 233.897683 235.695454 
L 236.941319 235.695454 
L 236.941319 178.56836 
L 233.897683 178.56836 
z
" clip-path="url(#p9f15c9fd1f)"/>
   </g>
   <g id="patch_66">
    <path d="M 236.941319 235.695454 
L 239.984956 235.695454 
L 239.984956 178.56836 
L 236.941319 178.56836 
z
" clip-path="url(#p9f15c9fd1f)"/>
   </g>
   <g id="patch_67">
    <path d="M 239.984956 235.695454 
L 243.028592 235.695454 
L 243.028592 189.27969 
L 239.984956 189.27969 
z
" clip-path="url(#p9f15c9fd1f)"/>
   </g>
   <g id="patch_68">
    <path d="M 243.028592 235.695454 
L 246.072228 235.695454 
L 246.072228 167.85703 
L 243.028592 167.85703 
z
" clip-path="url(#p9f15c9fd1f)"/>
   </g>
   <g id="patch_69">
    <path d="M 246.072228 235.695454 
L 249.115865 235.695454 
L 249.115865 196.420577 
L 246.072228 196.420577 
z
" clip-path="url(#p9f15c9fd1f)"/>
   </g>
   <g id="patch_70">
    <path d="M 249.115865 235.695454 
L 252.159501 235.695454 
L 252.159501 153.575257 
L 249.115865 153.575257 
z
" clip-path="url(#p9f15c9fd1f)"/>
   </g>
   <g id="patch_71">
    <path d="M 252.159501 235.695454 
L 255.203137 235.695454 
L 255.203137 132.152597 
L 252.159501 132.152597 
z
" clip-path="url(#p9f15c9fd1f)"/>
   </g>
   <g id="patch_72">
    <path d="M 255.203137 235.695454 
L 258.246774 235.695454 
L 258.246774 117.870823 
L 255.203137 117.870823 
z
" clip-path="url(#p9f15c9fd1f)"/>
   </g>
   <g id="patch_73">
    <path d="M 258.246774 235.695454 
L 261.29041 235.695454 
L 261.29041 153.575257 
L 258.246774 153.575257 
z
" clip-path="url(#p9f15c9fd1f)"/>
   </g>
   <g id="patch_74">
    <path d="M 261.29041 235.695454 
L 264.334047 235.695454 
L 264.334047 185.709247 
L 261.29041 185.709247 
z
" clip-path="url(#p9f15c9fd1f)"/>
   </g>
   <g id="patch_75">
    <path d="M 264.334047 235.695454 
L 267.377683 235.695454 
L 267.377683 153.575257 
L 264.334047 153.575257 
z
" clip-path="url(#p9f15c9fd1f)"/>
   </g>
   <g id="patch_76">
    <path d="M 267.377683 235.695454 
L 270.421319 235.695454 
L 270.421319 185.709247 
L 267.377683 185.709247 
z
" clip-path="url(#p9f15c9fd1f)"/>
   </g>
   <g id="patch_77">
    <path d="M 270.421319 235.695454 
L 273.464956 235.695454 
L 273.464956 146.43437 
L 270.421319 146.43437 
z
" clip-path="url(#p9f15c9fd1f)"/>
   </g>
   <g id="patch_78">
    <path d="M 273.464956 235.695454 
L 276.508592 235.695454 
L 276.508592 60.74373 
L 273.464956 60.74373 
z
" clip-path="url(#p9f15c9fd1f)"/>
   </g>
   <g id="patch_79">
    <path d="M 276.508592 235.695454 
L 279.552228 235.695454 
L 279.552228 82.16639 
L 276.508592 82.16639 
z
" clip-path="url(#p9f15c9fd1f)"/>
   </g>
   <g id="patch_80">
    <path d="M 279.552228 235.695454 
L 282.595865 235.695454 
L 282.595865 71.45506 
L 279.552228 71.45506 
z
" clip-path="url(#p9f15c9fd1f)"/>
   </g>
   <g id="patch_81">
    <path d="M 282.595865 235.695454 
L 285.639501 235.695454 
L 285.639501 64.314173 
L 282.595865 64.314173 
z
" clip-path="url(#p9f15c9fd1f)"/>
   </g>
   <g id="patch_82">
    <path d="M 285.639501 235.695454 
L 288.683137 235.695454 
L 288.683137 117.870823 
L 285.639501 117.870823 
z
" clip-path="url(#p9f15c9fd1f)"/>
   </g>
   <g id="patch_83">
    <path d="M 288.683137 235.695454 
L 291.726774 235.695454 
L 291.726774 28.60974 
L 288.683137 28.60974 
z
" clip-path="url(#p9f15c9fd1f)"/>
   </g>
   <g id="patch_84">
    <path d="M 291.726774 235.695454 
L 294.77041 235.695454 
L 294.77041 82.16639 
L 291.726774 82.16639 
z
" clip-path="url(#p9f15c9fd1f)"/>
   </g>
   <g id="patch_85">
    <path d="M 294.77041 235.695454 
L 297.814047 235.695454 
L 297.814047 185.709247 
L 294.77041 185.709247 
z
" clip-path="url(#p9f15c9fd1f)"/>
   </g>
   <g id="patch_86">
    <path d="M 297.814047 235.695454 
L 300.857683 235.695454 
L 300.857683 185.709247 
L 297.814047 185.709247 
z
" clip-path="url(#p9f15c9fd1f)"/>
   </g>
   <g id="patch_87">
    <path d="M 300.857683 235.695454 
L 303.901319 235.695454 
L 303.901319 142.863927 
L 300.857683 142.863927 
z
" clip-path="url(#p9f15c9fd1f)"/>
   </g>
   <g id="patch_88">
    <path d="M 303.901319 235.695454 
L 306.944956 235.695454 
L 306.944956 164.286587 
L 303.901319 164.286587 
z
" clip-path="url(#p9f15c9fd1f)"/>
   </g>
   <g id="patch_89">
    <path d="M 306.944956 235.695454 
L 309.988592 235.695454 
L 309.988592 125.01171 
L 306.944956 125.01171 
z
" clip-path="url(#p9f15c9fd1f)"/>
   </g>
   <g id="patch_90">
    <path d="M 309.988592 235.695454 
L 313.032228 235.695454 
L 313.032228 150.004814 
L 309.988592 150.004814 
z
" clip-path="url(#p9f15c9fd1f)"/>
   </g>
   <g id="patch_91">
    <path d="M 313.032228 235.695454 
L 316.075865 235.695454 
L 316.075865 121.441267 
L 313.032228 121.441267 
z
" clip-path="url(#p9f15c9fd1f)"/>
   </g>
   <g id="patch_92">
    <path d="M 316.075865 235.695454 
L 319.119501 235.695454 
L 319.119501 174.997917 
L 316.075865 174.997917 
z
" clip-path="url(#p9f15c9fd1f)"/>
   </g>
   <g id="patch_93">
    <path d="M 319.119501 235.695454 
L 322.163137 235.695454 
L 322.163137 139.293484 
L 319.119501 139.293484 
z
" clip-path="url(#p9f15c9fd1f)"/>
   </g>
   <g id="patch_94">
    <path d="M 322.163137 235.695454 
L 325.206774 235.695454 
L 325.206774 139.293484 
L 322.163137 139.293484 
z
" clip-path="url(#p9f15c9fd1f)"/>
   </g>
   <g id="patch_95">
    <path d="M 325.206774 235.695454 
L 328.25041 235.695454 
L 328.25041 125.01171 
L 325.206774 125.01171 
z
" clip-path="url(#p9f15c9fd1f)"/>
   </g>
   <g id="patch_96">
    <path d="M 328.25041 235.695454 
L 331.294047 235.695454 
L 331.294047 85.736833 
L 328.25041 85.736833 
z
" clip-path="url(#p9f15c9fd1f)"/>
   </g>
   <g id="patch_97">
    <path d="M 331.294047 235.695454 
L 334.337683 235.695454 
L 334.337683 178.56836 
L 331.294047 178.56836 
z
" clip-path="url(#p9f15c9fd1f)"/>
   </g>
   <g id="patch_98">
    <path d="M 334.337683 235.695454 
L 337.381319 235.695454 
L 337.381319 228.554567 
L 334.337683 228.554567 
z
" clip-path="url(#p9f15c9fd1f)"/>
   </g>
   <g id="patch_99">
    <path d="M 337.381319 235.695454 
L 340.424956 235.695454 
L 340.424956 217.843237 
L 337.381319 217.843237 
z
" clip-path="url(#p9f15c9fd1f)"/>
   </g>
   <g id="patch_100">
    <path d="M 340.424956 235.695454 
L 343.468592 235.695454 
L 343.468592 182.138804 
L 340.424956 182.138804 
z
" clip-path="url(#p9f15c9fd1f)"/>
   </g>
   <g id="patch_101">
    <path d="M 343.468592 235.695454 
L 346.512228 235.695454 
L 346.512228 199.991021 
L 343.468592 199.991021 
z
" clip-path="url(#p9f15c9fd1f)"/>
   </g>
   <g id="patch_102">
    <path d="M 346.512228 235.695454 
L 349.555865 235.695454 
L 349.555865 174.997917 
L 346.512228 174.997917 
z
" clip-path="url(#p9f15c9fd1f)"/>
   </g>
   <g id="matplotlib.axis_1">
    <g id="xtick_1">
     <g id="line2d_1">
      <defs>
       <path id="mdd4239cd85" d="M 0 0 
L 0 -3 
" style="stroke: #000000; stroke-width: 0.5"/>
      </defs>
      <g>
       <use xlink:href="#mdd4239cd85" x="39.423118" y="235.695454" style="stroke: #000000; stroke-width: 0.5"/>
      </g>
     </g>
     <g id="line2d_2">
      <defs>
       <path id="m12712d067b" d="M 0 0 
L 0 3 
" style="stroke: #000000; stroke-width: 0.5"/>
      </defs>
      <g>
       <use xlink:href="#m12712d067b" x="39.423118" y="18.255454" style="stroke: #000000; stroke-width: 0.5"/>
      </g>
     </g>
     <g id="text_1">
      <!-- $\mathdefault{29.4}$ -->
      <g transform="translate(30.571363 245.950032)scale(0.1 -0.1)">
       <defs>
        <path id="NimbusRomNo9L-Regu-32" d="M 3040 875 
L 2957 907 
C 2720 544 2637 486 2349 486 
L 819 486 
L 1894 1609 
C 2464 2202 2714 2687 2714 3185 
C 2714 3823 2195 4313 1530 4313 
C 1178 4313 845 4173 608 3918 
C 403 3700 307 3496 198 3043 
L 333 3011 
C 589 3636 819 3840 1261 3840 
C 1798 3840 2163 3476 2163 2940 
C 2163 2443 1869 1850 1331 1282 
L 192 77 
L 192 0 
L 2688 0 
L 3040 875 
z
" transform="scale(0.015625)"/>
        <path id="NimbusRomNo9L-Regu-39" d="M 378 -123 
C 1094 -40 1446 82 1882 396 
C 2547 882 2938 1676 2938 2539 
C 2938 3593 2349 4339 1523 4339 
C 762 4339 192 3694 192 2832 
C 192 2053 653 1536 1344 1536 
C 1696 1536 1965 1638 2304 1900 
C 2042 856 1331 172 358 5 
L 378 -123 
z
M 2317 2290 
C 2317 2162 2291 2104 2221 2047 
C 2042 1894 1805 1811 1574 1811 
C 1088 1811 781 2290 781 3050 
C 781 3413 883 3796 1018 3963 
C 1126 4090 1286 4160 1472 4160 
C 2029 4160 2317 3611 2317 2539 
L 2317 2290 
z
" transform="scale(0.015625)"/>
        <path id="CMMI10-3a" d="M 1229 338 
C 1229 522 1075 675 890 675 
C 704 675 550 522 550 338 
C 550 153 704 0 890 0 
C 1075 0 1229 153 1229 338 
z
" transform="scale(0.015625)"/>
        <path id="NimbusRomNo9L-Regu-34" d="M 3021 1497 
L 2368 1497 
L 2368 4352 
L 2086 4352 
L 77 1497 
L 77 1088 
L 1875 1088 
L 1875 32 
L 2368 32 
L 2368 1088 
L 3021 1088 
L 3021 1497 
z
M 1869 1497 
L 333 1497 
L 1869 3698 
L 1869 1497 
z
" transform="scale(0.015625)"/>
       </defs>
       <use xlink:href="#NimbusRomNo9L-Regu-32" transform="scale(0.996264)"/>
       <use xlink:href="#NimbusRomNo9L-Regu-39" transform="translate(49.8132 0)scale(0.996264)"/>
       <use xlink:href="#CMMI10-3a" transform="translate(99.626401 0)scale(0.996264)"/>
       <use xlink:href="#NimbusRomNo9L-Regu-34" transform="translate(127.221908 0)scale(0.996264)"/>
      </g>
     </g>
    </g>
    <g id="xtick_2">
     <g id="line2d_3">
      <g>
       <use xlink:href="#mdd4239cd85" x="79.435953" y="235.695454" style="stroke: #000000; stroke-width: 0.5"/>
      </g>
     </g>
     <g id="line2d_4">
      <g>
       <use xlink:href="#m12712d067b" x="79.435953" y="18.255454" style="stroke: #000000; stroke-width: 0.5"/>
      </g>
     </g>
     <g id="text_2">
      <!-- $\mathdefault{29.6}$ -->
      <g transform="translate(70.584199 245.950032)scale(0.1 -0.1)">
       <defs>
        <path id="NimbusRomNo9L-Regu-36" d="M 2854 4391 
C 2125 4327 1754 4205 1286 3879 
C 595 3386 218 2656 218 1802 
C 218 1248 390 688 666 370 
C 909 89 1254 -64 1651 -64 
C 2445 -64 2995 541 2995 1421 
C 2995 2236 2528 2752 1792 2752 
C 1510 2752 1376 2707 973 2464 
C 1146 3431 1862 4122 2867 4288 
L 2854 4391 
z
M 1549 2458 
C 2099 2458 2419 2000 2419 1204 
C 2419 504 2170 116 1722 116 
C 1158 116 813 714 813 1700 
C 813 2025 864 2203 992 2299 
C 1126 2400 1325 2458 1549 2458 
z
" transform="scale(0.015625)"/>
       </defs>
       <use xlink:href="#NimbusRomNo9L-Regu-32" transform="scale(0.996264)"/>
       <use xlink:href="#NimbusRomNo9L-Regu-39" transform="translate(49.8132 0)scale(0.996264)"/>
       <use xlink:href="#CMMI10-3a" transform="translate(99.626401 0)scale(0.996264)"/>
       <use xlink:href="#NimbusRomNo9L-Regu-36" transform="translate(127.221908 0)scale(0.996264)"/>
      </g>
     </g>
    </g>
    <g id="xtick_3">
     <g id="line2d_5">
      <g>
       <use xlink:href="#mdd4239cd85" x="119.448789" y="235.695454" style="stroke: #000000; stroke-width: 0.5"/>
      </g>
     </g>
     <g id="line2d_6">
      <g>
       <use xlink:href="#m12712d067b" x="119.448789" y="18.255454" style="stroke: #000000; stroke-width: 0.5"/>
      </g>
     </g>
     <g id="text_3">
      <!-- $\mathdefault{29.8}$ -->
      <g transform="translate(110.597034 245.950032)scale(0.1 -0.1)">
       <defs>
        <path id="NimbusRomNo9L-Regu-38" d="M 1856 2400 
C 2490 2740 2714 3008 2714 3444 
C 2714 3968 2253 4352 1613 4352 
C 915 4352 397 3924 397 3341 
C 397 2925 518 2740 1190 2151 
C 499 1626 358 1428 358 992 
C 358 372 864 -64 1587 -64 
C 2355 -64 2848 359 2848 1018 
C 2848 1511 2630 1824 1856 2400 
z
M 1741 1741 
C 2208 1408 2362 1178 2362 820 
C 2362 404 2074 116 1658 116 
C 1171 116 845 487 845 1044 
C 845 1453 986 1722 1357 2023 
L 1741 1741 
z
M 1670 2516 
C 1101 2887 870 3181 870 3540 
C 870 3911 1158 4173 1562 4173 
C 1997 4173 2272 3892 2272 3450 
C 2272 3085 2093 2797 1728 2554 
C 1696 2535 1696 2535 1670 2516 
z
" transform="scale(0.015625)"/>
       </defs>
       <use xlink:href="#NimbusRomNo9L-Regu-32" transform="scale(0.996264)"/>
       <use xlink:href="#NimbusRomNo9L-Regu-39" transform="translate(49.8132 0)scale(0.996264)"/>
       <use xlink:href="#CMMI10-3a" transform="translate(99.626401 0)scale(0.996264)"/>
       <use xlink:href="#NimbusRomNo9L-Regu-38" transform="translate(127.221908 0)scale(0.996264)"/>
      </g>
     </g>
    </g>
    <g id="xtick_4">
     <g id="line2d_7">
      <g>
       <use xlink:href="#mdd4239cd85" x="159.461625" y="235.695454" style="stroke: #000000; stroke-width: 0.5"/>
      </g>
     </g>
     <g id="line2d_8">
      <g>
       <use xlink:href="#m12712d067b" x="159.461625" y="18.255454" style="stroke: #000000; stroke-width: 0.5"/>
      </g>
     </g>
     <g id="text_4">
      <!-- $\mathdefault{30.0}$ -->
      <g transform="translate(150.60987 245.950032)scale(0.1 -0.1)">
       <defs>
        <path id="NimbusRomNo9L-Regu-33" d="M 979 2138 
C 1357 2138 1504 2125 1658 2068 
C 2054 1927 2304 1562 2304 1120 
C 2304 583 1939 167 1466 167 
C 1293 167 1165 212 928 365 
C 736 480 627 525 518 525 
C 371 525 275 436 275 301 
C 275 77 550 -64 998 -64 
C 1491 -64 1997 103 2298 365 
C 2598 628 2765 999 2765 1428 
C 2765 1754 2662 2055 2477 2253 
C 2349 2394 2227 2471 1946 2592 
C 2387 2893 2547 3130 2547 3476 
C 2547 3994 2138 4352 1549 4352 
C 1229 4352 947 4244 717 4039 
C 525 3866 429 3699 288 3315 
L 384 3290 
C 646 3757 934 3968 1338 3968 
C 1754 3968 2042 3687 2042 3284 
C 2042 3053 1946 2823 1786 2663 
C 1594 2471 1414 2375 979 2221 
L 979 2138 
z
" transform="scale(0.015625)"/>
        <path id="NimbusRomNo9L-Regu-30" d="M 1626 4352 
C 1274 4352 1005 4244 768 4020 
C 397 3661 154 2925 154 2176 
C 154 1479 365 730 666 372 
C 902 90 1229 -64 1600 -64 
C 1926 -64 2202 45 2432 269 
C 2803 621 3046 1364 3046 2138 
C 3046 3450 2464 4352 1626 4352 
z
M 1606 4186 
C 2144 4186 2432 3463 2432 2125 
C 2432 788 2150 103 1600 103 
C 1050 103 768 788 768 2119 
C 768 3476 1056 4186 1606 4186 
z
" transform="scale(0.015625)"/>
       </defs>
       <use xlink:href="#NimbusRomNo9L-Regu-33" transform="scale(0.996264)"/>
       <use xlink:href="#NimbusRomNo9L-Regu-30" transform="translate(49.8132 0)scale(0.996264)"/>
       <use xlink:href="#CMMI10-3a" transform="translate(99.626401 0)scale(0.996264)"/>
       <use xlink:href="#NimbusRomNo9L-Regu-30" transform="translate(127.221908 0)scale(0.996264)"/>
      </g>
     </g>
    </g>
    <g id="xtick_5">
     <g id="line2d_9">
      <g>
       <use xlink:href="#mdd4239cd85" x="199.47446" y="235.695454" style="stroke: #000000; stroke-width: 0.5"/>
      </g>
     </g>
     <g id="line2d_10">
      <g>
       <use xlink:href="#m12712d067b" x="199.47446" y="18.255454" style="stroke: #000000; stroke-width: 0.5"/>
      </g>
     </g>
     <g id="text_5">
      <!-- $\mathdefault{30.2}$ -->
      <g transform="translate(190.622706 245.950032)scale(0.1 -0.1)">
       <use xlink:href="#NimbusRomNo9L-Regu-33" transform="scale(0.996264)"/>
       <use xlink:href="#NimbusRomNo9L-Regu-30" transform="translate(49.8132 0)scale(0.996264)"/>
       <use xlink:href="#CMMI10-3a" transform="translate(99.626401 0)scale(0.996264)"/>
       <use xlink:href="#NimbusRomNo9L-Regu-32" transform="translate(127.221908 0)scale(0.996264)"/>
      </g>
     </g>
    </g>
    <g id="xtick_6">
     <g id="line2d_11">
      <g>
       <use xlink:href="#mdd4239cd85" x="239.487296" y="235.695454" style="stroke: #000000; stroke-width: 0.5"/>
      </g>
     </g>
     <g id="line2d_12">
      <g>
       <use xlink:href="#m12712d067b" x="239.487296" y="18.255454" style="stroke: #000000; stroke-width: 0.5"/>
      </g>
     </g>
     <g id="text_6">
      <!-- $\mathdefault{30.4}$ -->
      <g transform="translate(230.635541 245.950032)scale(0.1 -0.1)">
       <use xlink:href="#NimbusRomNo9L-Regu-33" transform="scale(0.996264)"/>
       <use xlink:href="#NimbusRomNo9L-Regu-30" transform="translate(49.8132 0)scale(0.996264)"/>
       <use xlink:href="#CMMI10-3a" transform="translate(99.626401 0)scale(0.996264)"/>
       <use xlink:href="#NimbusRomNo9L-Regu-34" transform="translate(127.221908 0)scale(0.996264)"/>
      </g>
     </g>
    </g>
    <g id="xtick_7">
     <g id="line2d_13">
      <g>
       <use xlink:href="#mdd4239cd85" x="279.500132" y="235.695454" style="stroke: #000000; stroke-width: 0.5"/>
      </g>
     </g>
     <g id="line2d_14">
      <g>
       <use xlink:href="#m12712d067b" x="279.500132" y="18.255454" style="stroke: #000000; stroke-width: 0.5"/>
      </g>
     </g>
     <g id="text_7">
      <!-- $\mathdefault{30.6}$ -->
      <g transform="translate(270.648377 245.950032)scale(0.1 -0.1)">
       <use xlink:href="#NimbusRomNo9L-Regu-33" transform="scale(0.996264)"/>
       <use xlink:href="#NimbusRomNo9L-Regu-30" transform="translate(49.8132 0)scale(0.996264)"/>
       <use xlink:href="#CMMI10-3a" transform="translate(99.626401 0)scale(0.996264)"/>
       <use xlink:href="#NimbusRomNo9L-Regu-36" transform="translate(127.221908 0)scale(0.996264)"/>
      </g>
     </g>
    </g>
    <g id="xtick_8">
     <g id="line2d_15">
      <g>
       <use xlink:href="#mdd4239cd85" x="319.512967" y="235.695454" style="stroke: #000000; stroke-width: 0.5"/>
      </g>
     </g>
     <g id="line2d_16">
      <g>
       <use xlink:href="#m12712d067b" x="319.512967" y="18.255454" style="stroke: #000000; stroke-width: 0.5"/>
      </g>
     </g>
     <g id="text_8">
      <!-- $\mathdefault{30.8}$ -->
      <g transform="translate(310.661213 245.950032)scale(0.1 -0.1)">
       <use xlink:href="#NimbusRomNo9L-Regu-33" transform="scale(0.996264)"/>
       <use xlink:href="#NimbusRomNo9L-Regu-30" transform="translate(49.8132 0)scale(0.996264)"/>
       <use xlink:href="#CMMI10-3a" transform="translate(99.626401 0)scale(0.996264)"/>
       <use xlink:href="#NimbusRomNo9L-Regu-38" transform="translate(127.221908 0)scale(0.996264)"/>
      </g>
     </g>
    </g>
    <g id="xtick_9">
     <g id="line2d_17">
      <g>
       <use xlink:href="#mdd4239cd85" x="359.525803" y="235.695454" style="stroke: #000000; stroke-width: 0.5"/>
      </g>
     </g>
     <g id="line2d_18">
      <g>
       <use xlink:href="#m12712d067b" x="359.525803" y="18.255454" style="stroke: #000000; stroke-width: 0.5"/>
      </g>
     </g>
     <g id="text_9">
      <!-- $\mathdefault{31.0}$ -->
      <g transform="translate(350.674048 245.950032)scale(0.1 -0.1)">
       <defs>
        <path id="NimbusRomNo9L-Regu-31" d="M 1862 4339 
L 710 3757 
L 710 3667 
C 787 3699 858 3725 883 3738 
C 998 3783 1107 3808 1171 3808 
C 1306 3808 1363 3711 1363 3505 
L 1363 592 
C 1363 379 1312 232 1210 173 
C 1114 116 1024 96 755 96 
L 755 0 
L 2522 0 
L 2522 96 
C 2016 96 1914 160 1914 470 
L 1914 4327 
L 1862 4339 
z
" transform="scale(0.015625)"/>
       </defs>
       <use xlink:href="#NimbusRomNo9L-Regu-33" transform="scale(0.996264)"/>
       <use xlink:href="#NimbusRomNo9L-Regu-31" transform="translate(49.8132 0)scale(0.996264)"/>
       <use xlink:href="#CMMI10-3a" transform="translate(99.626401 0)scale(0.996264)"/>
       <use xlink:href="#NimbusRomNo9L-Regu-30" transform="translate(127.221908 0)scale(0.996264)"/>
      </g>
     </g>
    </g>
    <g id="xtick_10">
     <g id="line2d_19">
      <defs>
       <path id="m555665d85f" d="M 0 0 
L 0 -1.5 
" style="stroke: #000000; stroke-width: 0.5"/>
      </defs>
      <g>
       <use xlink:href="#m555665d85f" x="49.426327" y="235.695454" style="stroke: #000000; stroke-width: 0.5"/>
      </g>
     </g>
     <g id="line2d_20">
      <defs>
       <path id="m87a8093224" d="M 0 0 
L 0 1.5 
" style="stroke: #000000; stroke-width: 0.5"/>
      </defs>
      <g>
       <use xlink:href="#m87a8093224" x="49.426327" y="18.255454" style="stroke: #000000; stroke-width: 0.5"/>
      </g>
     </g>
    </g>
    <g id="xtick_11">
     <g id="line2d_21">
      <g>
       <use xlink:href="#m555665d85f" x="59.429536" y="235.695454" style="stroke: #000000; stroke-width: 0.5"/>
      </g>
     </g>
     <g id="line2d_22">
      <g>
       <use xlink:href="#m87a8093224" x="59.429536" y="18.255454" style="stroke: #000000; stroke-width: 0.5"/>
      </g>
     </g>
    </g>
    <g id="xtick_12">
     <g id="line2d_23">
      <g>
       <use xlink:href="#m555665d85f" x="69.432744" y="235.695454" style="stroke: #000000; stroke-width: 0.5"/>
      </g>
     </g>
     <g id="line2d_24">
      <g>
       <use xlink:href="#m87a8093224" x="69.432744" y="18.255454" style="stroke: #000000; stroke-width: 0.5"/>
      </g>
     </g>
    </g>
    <g id="xtick_13">
     <g id="line2d_25">
      <g>
       <use xlink:href="#m555665d85f" x="89.439162" y="235.695454" style="stroke: #000000; stroke-width: 0.5"/>
      </g>
     </g>
     <g id="line2d_26">
      <g>
       <use xlink:href="#m87a8093224" x="89.439162" y="18.255454" style="stroke: #000000; stroke-width: 0.5"/>
      </g>
     </g>
    </g>
    <g id="xtick_14">
     <g id="line2d_27">
      <g>
       <use xlink:href="#m555665d85f" x="99.442371" y="235.695454" style="stroke: #000000; stroke-width: 0.5"/>
      </g>
     </g>
     <g id="line2d_28">
      <g>
       <use xlink:href="#m87a8093224" x="99.442371" y="18.255454" style="stroke: #000000; stroke-width: 0.5"/>
      </g>
     </g>
    </g>
    <g id="xtick_15">
     <g id="line2d_29">
      <g>
       <use xlink:href="#m555665d85f" x="109.44558" y="235.695454" style="stroke: #000000; stroke-width: 0.5"/>
      </g>
     </g>
     <g id="line2d_30">
      <g>
       <use xlink:href="#m87a8093224" x="109.44558" y="18.255454" style="stroke: #000000; stroke-width: 0.5"/>
      </g>
     </g>
    </g>
    <g id="xtick_16">
     <g id="line2d_31">
      <g>
       <use xlink:href="#m555665d85f" x="129.451998" y="235.695454" style="stroke: #000000; stroke-width: 0.5"/>
      </g>
     </g>
     <g id="line2d_32">
      <g>
       <use xlink:href="#m87a8093224" x="129.451998" y="18.255454" style="stroke: #000000; stroke-width: 0.5"/>
      </g>
     </g>
    </g>
    <g id="xtick_17">
     <g id="line2d_33">
      <g>
       <use xlink:href="#m555665d85f" x="139.455207" y="235.695454" style="stroke: #000000; stroke-width: 0.5"/>
      </g>
     </g>
     <g id="line2d_34">
      <g>
       <use xlink:href="#m87a8093224" x="139.455207" y="18.255454" style="stroke: #000000; stroke-width: 0.5"/>
      </g>
     </g>
    </g>
    <g id="xtick_18">
     <g id="line2d_35">
      <g>
       <use xlink:href="#m555665d85f" x="149.458416" y="235.695454" style="stroke: #000000; stroke-width: 0.5"/>
      </g>
     </g>
     <g id="line2d_36">
      <g>
       <use xlink:href="#m87a8093224" x="149.458416" y="18.255454" style="stroke: #000000; stroke-width: 0.5"/>
      </g>
     </g>
    </g>
    <g id="xtick_19">
     <g id="line2d_37">
      <g>
       <use xlink:href="#m555665d85f" x="169.464834" y="235.695454" style="stroke: #000000; stroke-width: 0.5"/>
      </g>
     </g>
     <g id="line2d_38">
      <g>
       <use xlink:href="#m87a8093224" x="169.464834" y="18.255454" style="stroke: #000000; stroke-width: 0.5"/>
      </g>
     </g>
    </g>
    <g id="xtick_20">
     <g id="line2d_39">
      <g>
       <use xlink:href="#m555665d85f" x="179.468043" y="235.695454" style="stroke: #000000; stroke-width: 0.5"/>
      </g>
     </g>
     <g id="line2d_40">
      <g>
       <use xlink:href="#m87a8093224" x="179.468043" y="18.255454" style="stroke: #000000; stroke-width: 0.5"/>
      </g>
     </g>
    </g>
    <g id="xtick_21">
     <g id="line2d_41">
      <g>
       <use xlink:href="#m555665d85f" x="189.471251" y="235.695454" style="stroke: #000000; stroke-width: 0.5"/>
      </g>
     </g>
     <g id="line2d_42">
      <g>
       <use xlink:href="#m87a8093224" x="189.471251" y="18.255454" style="stroke: #000000; stroke-width: 0.5"/>
      </g>
     </g>
    </g>
    <g id="xtick_22">
     <g id="line2d_43">
      <g>
       <use xlink:href="#m555665d85f" x="209.477669" y="235.695454" style="stroke: #000000; stroke-width: 0.5"/>
      </g>
     </g>
     <g id="line2d_44">
      <g>
       <use xlink:href="#m87a8093224" x="209.477669" y="18.255454" style="stroke: #000000; stroke-width: 0.5"/>
      </g>
     </g>
    </g>
    <g id="xtick_23">
     <g id="line2d_45">
      <g>
       <use xlink:href="#m555665d85f" x="219.480878" y="235.695454" style="stroke: #000000; stroke-width: 0.5"/>
      </g>
     </g>
     <g id="line2d_46">
      <g>
       <use xlink:href="#m87a8093224" x="219.480878" y="18.255454" style="stroke: #000000; stroke-width: 0.5"/>
      </g>
     </g>
    </g>
    <g id="xtick_24">
     <g id="line2d_47">
      <g>
       <use xlink:href="#m555665d85f" x="229.484087" y="235.695454" style="stroke: #000000; stroke-width: 0.5"/>
      </g>
     </g>
     <g id="line2d_48">
      <g>
       <use xlink:href="#m87a8093224" x="229.484087" y="18.255454" style="stroke: #000000; stroke-width: 0.5"/>
      </g>
     </g>
    </g>
    <g id="xtick_25">
     <g id="line2d_49">
      <g>
       <use xlink:href="#m555665d85f" x="249.490505" y="235.695454" style="stroke: #000000; stroke-width: 0.5"/>
      </g>
     </g>
     <g id="line2d_50">
      <g>
       <use xlink:href="#m87a8093224" x="249.490505" y="18.255454" style="stroke: #000000; stroke-width: 0.5"/>
      </g>
     </g>
    </g>
    <g id="xtick_26">
     <g id="line2d_51">
      <g>
       <use xlink:href="#m555665d85f" x="259.493714" y="235.695454" style="stroke: #000000; stroke-width: 0.5"/>
      </g>
     </g>
     <g id="line2d_52">
      <g>
       <use xlink:href="#m87a8093224" x="259.493714" y="18.255454" style="stroke: #000000; stroke-width: 0.5"/>
      </g>
     </g>
    </g>
    <g id="xtick_27">
     <g id="line2d_53">
      <g>
       <use xlink:href="#m555665d85f" x="269.496923" y="235.695454" style="stroke: #000000; stroke-width: 0.5"/>
      </g>
     </g>
     <g id="line2d_54">
      <g>
       <use xlink:href="#m87a8093224" x="269.496923" y="18.255454" style="stroke: #000000; stroke-width: 0.5"/>
      </g>
     </g>
    </g>
    <g id="xtick_28">
     <g id="line2d_55">
      <g>
       <use xlink:href="#m555665d85f" x="289.503341" y="235.695454" style="stroke: #000000; stroke-width: 0.5"/>
      </g>
     </g>
     <g id="line2d_56">
      <g>
       <use xlink:href="#m87a8093224" x="289.503341" y="18.255454" style="stroke: #000000; stroke-width: 0.5"/>
      </g>
     </g>
    </g>
    <g id="xtick_29">
     <g id="line2d_57">
      <g>
       <use xlink:href="#m555665d85f" x="299.506549" y="235.695454" style="stroke: #000000; stroke-width: 0.5"/>
      </g>
     </g>
     <g id="line2d_58">
      <g>
       <use xlink:href="#m87a8093224" x="299.506549" y="18.255454" style="stroke: #000000; stroke-width: 0.5"/>
      </g>
     </g>
    </g>
    <g id="xtick_30">
     <g id="line2d_59">
      <g>
       <use xlink:href="#m555665d85f" x="309.509758" y="235.695454" style="stroke: #000000; stroke-width: 0.5"/>
      </g>
     </g>
     <g id="line2d_60">
      <g>
       <use xlink:href="#m87a8093224" x="309.509758" y="18.255454" style="stroke: #000000; stroke-width: 0.5"/>
      </g>
     </g>
    </g>
    <g id="xtick_31">
     <g id="line2d_61">
      <g>
       <use xlink:href="#m555665d85f" x="329.516176" y="235.695454" style="stroke: #000000; stroke-width: 0.5"/>
      </g>
     </g>
     <g id="line2d_62">
      <g>
       <use xlink:href="#m87a8093224" x="329.516176" y="18.255454" style="stroke: #000000; stroke-width: 0.5"/>
      </g>
     </g>
    </g>
    <g id="xtick_32">
     <g id="line2d_63">
      <g>
       <use xlink:href="#m555665d85f" x="339.519385" y="235.695454" style="stroke: #000000; stroke-width: 0.5"/>
      </g>
     </g>
     <g id="line2d_64">
      <g>
       <use xlink:href="#m87a8093224" x="339.519385" y="18.255454" style="stroke: #000000; stroke-width: 0.5"/>
      </g>
     </g>
    </g>
    <g id="xtick_33">
     <g id="line2d_65">
      <g>
       <use xlink:href="#m555665d85f" x="349.522594" y="235.695454" style="stroke: #000000; stroke-width: 0.5"/>
      </g>
     </g>
     <g id="line2d_66">
      <g>
       <use xlink:href="#m87a8093224" x="349.522594" y="18.255454" style="stroke: #000000; stroke-width: 0.5"/>
      </g>
     </g>
    </g>
    <g id="text_10">
     <!-- Masse (GeV) -->
     <g transform="translate(170.679473 258.861438)scale(0.1 -0.1)">
      <defs>
       <path id="NimbusRomNo9L-Regu-4d" d="M 4314 3667 
L 4314 751 
C 4314 217 4237 134 3731 134 
L 3731 0 
L 5523 0 
L 5523 134 
C 5056 134 4966 223 4966 681 
L 4966 3536 
C 4966 3993 5050 4077 5523 4115 
L 5523 4237 
L 4250 4237 
L 2835 1004 
L 1357 4237 
L 90 4237 
L 90 4096 
C 614 4096 698 4019 698 3550 
L 698 943 
C 698 282 608 159 77 121 
L 77 0 
L 1581 0 
L 1581 134 
C 1088 134 979 282 979 931 
L 979 3520 
L 2586 0 
L 2675 0 
L 4314 3667 
z
" transform="scale(0.015625)"/>
       <path id="NimbusRomNo9L-Regu-61" d="M 2829 423 
C 2720 333 2643 301 2547 301 
C 2400 301 2355 390 2355 672 
L 2355 1920 
C 2355 2253 2323 2438 2227 2592 
C 2086 2822 1811 2944 1434 2944 
C 832 2944 358 2630 358 2227 
C 358 2080 486 1952 634 1952 
C 787 1952 922 2080 922 2221 
C 922 2246 915 2278 909 2323 
C 896 2381 890 2432 890 2477 
C 890 2650 1094 2790 1350 2790 
C 1664 2790 1837 2605 1837 2259 
L 1837 1869 
C 851 1472 742 1421 467 1178 
C 326 1050 237 832 237 621 
C 237 218 518 -64 909 -64 
C 1190 -64 1453 70 1843 403 
C 1875 70 1990 -64 2253 -64 
C 2470 -64 2605 13 2829 256 
L 2829 423 
z
M 1837 783 
C 1837 584 1805 526 1670 449 
C 1517 359 1338 301 1203 301 
C 979 301 800 520 800 796 
L 800 822 
C 800 1201 1062 1433 1837 1715 
L 1837 783 
z
" transform="scale(0.015625)"/>
       <path id="NimbusRomNo9L-Regu-73" d="M 2016 2010 
L 1990 2880 
L 1920 2880 
L 1907 2867 
C 1850 2822 1843 2816 1818 2816 
C 1779 2816 1715 2829 1645 2861 
C 1504 2915 1363 2944 1197 2944 
C 691 2944 326 2616 326 2154 
C 326 1796 531 1539 1075 1231 
L 1446 1020 
C 1670 892 1779 737 1779 539 
C 1779 256 1574 77 1248 77 
C 1030 77 832 159 710 298 
C 576 455 518 600 435 960 
L 333 960 
L 333 -39 
L 416 -39 
C 461 33 486 48 563 48 
C 621 48 710 35 858 -2 
C 1037 -39 1210 -64 1325 -64 
C 1818 -64 2227 308 2227 757 
C 2227 1077 2074 1289 1690 1520 
L 998 1930 
C 819 2033 723 2194 723 2367 
C 723 2624 922 2803 1216 2803 
C 1581 2803 1773 2583 1920 2010 
L 2016 2010 
z
" transform="scale(0.015625)"/>
       <path id="NimbusRomNo9L-Regu-65" d="M 2611 1053 
C 2304 564 2029 378 1619 378 
C 1254 378 979 564 794 930 
C 678 1174 634 1386 621 1779 
L 2592 1779 
C 2541 2193 2477 2377 2317 2581 
C 2125 2811 1830 2944 1498 2944 
C 1178 2944 877 2829 634 2611 
C 333 2349 160 1894 160 1370 
C 160 486 621 -64 1357 -64 
C 1965 -64 2445 315 2714 1008 
L 2611 1053 
z
M 634 1984 
C 704 2479 922 2714 1312 2714 
C 1702 2714 1856 2535 1939 1984 
L 634 1984 
z
" transform="scale(0.015625)"/>
       <path id="NimbusRomNo9L-Regu-28" d="M 1888 4326 
C 1414 4019 1222 3853 986 3558 
C 531 3002 307 2362 307 1613 
C 307 800 544 173 1107 -480 
C 1370 -787 1536 -928 1869 -1133 
L 1946 -1030 
C 1434 -627 1254 -403 1082 77 
C 928 506 858 992 858 1632 
C 858 2304 941 2829 1114 3226 
C 1293 3622 1485 3853 1946 4224 
L 1888 4326 
z
" transform="scale(0.015625)"/>
       <path id="NimbusRomNo9L-Regu-47" d="M 4538 2304 
L 2906 2304 
L 2906 2176 
C 3181 2176 3258 2157 3334 2105 
C 3430 2047 3469 1898 3469 1621 
L 3469 574 
C 3469 367 3078 192 2618 192 
C 1574 192 934 922 934 2112 
C 934 2714 1114 3296 1395 3610 
C 1677 3924 2074 4096 2509 4096 
C 2867 4096 3181 3975 3430 3744 
C 3622 3565 3725 3392 3885 3002 
L 4032 3002 
L 3981 4352 
L 3840 4352 
C 3802 4231 3686 4141 3552 4141 
C 3488 4141 3386 4160 3270 4205 
C 2982 4301 2688 4352 2400 4352 
C 1120 4352 205 3412 205 2106 
C 205 1479 378 999 736 621 
C 1165 180 1779 -64 2483 -64 
C 3034 -64 3834 160 4090 385 
L 4090 1694 
C 4090 2073 4166 2157 4538 2189 
L 4538 2304 
z
" transform="scale(0.015625)"/>
       <path id="NimbusRomNo9L-Regu-56" d="M 4461 4231 
L 3149 4231 
L 3149 4096 
C 3501 4096 3616 4026 3616 3846 
C 3616 3744 3571 3572 3494 3380 
L 2554 1033 
L 1587 3199 
C 1376 3667 1325 3814 1325 3910 
C 1325 4032 1414 4096 1619 4096 
C 1645 4096 1715 4096 1805 4109 
L 1805 4231 
L 102 4231 
L 102 4096 
C 416 4096 506 4007 781 3439 
L 2355 -64 
L 2451 -64 
L 3872 3521 
C 4083 4026 4154 4096 4461 4096 
L 4461 4231 
z
" transform="scale(0.015625)"/>
       <path id="NimbusRomNo9L-Regu-29" d="M 243 -1133 
C 717 -826 909 -659 1146 -365 
C 1600 192 1824 832 1824 1581 
C 1824 2400 1587 3021 1024 3674 
C 762 3981 595 4122 262 4326 
L 186 4224 
C 698 3821 870 3597 1050 3117 
C 1203 2688 1274 2202 1274 1562 
C 1274 896 1190 365 1018 -26 
C 838 -429 646 -659 186 -1030 
L 243 -1133 
z
" transform="scale(0.015625)"/>
      </defs>
      <use xlink:href="#NimbusRomNo9L-Regu-4d" transform="scale(0.996264)"/>
      <use xlink:href="#NimbusRomNo9L-Regu-61" transform="translate(88.566907 0)scale(0.996264)"/>
      <use xlink:href="#NimbusRomNo9L-Regu-73" transform="translate(132.800475 0)scale(0.996264)"/>
      <use xlink:href="#NimbusRomNo9L-Regu-73" transform="translate(171.554182 0)scale(0.996264)"/>
      <use xlink:href="#NimbusRomNo9L-Regu-65" transform="translate(210.307888 0)scale(0.996264)"/>
      <use xlink:href="#NimbusRomNo9L-Regu-28" transform="translate(279.448057 0)scale(0.996264)"/>
      <use xlink:href="#NimbusRomNo9L-Regu-47" transform="translate(312.623286 0)scale(0.996264)"/>
      <use xlink:href="#NimbusRomNo9L-Regu-65" transform="translate(384.553271 0)scale(0.996264)"/>
      <use xlink:href="#NimbusRomNo9L-Regu-56" transform="translate(428.78684 0)scale(0.996264)"/>
      <use xlink:href="#NimbusRomNo9L-Regu-29" transform="translate(500.716825 0)scale(0.996264)"/>
     </g>
    </g>
   </g>
   <g id="matplotlib.axis_2">
    <g id="ytick_1">
     <g id="line2d_67">
      <defs>
       <path id="ma1bc8b1408" d="M 0 0 
L 3 0 
" style="stroke: #000000; stroke-width: 0.5"/>
      </defs>
      <g>
       <use xlink:href="#ma1bc8b1408" x="29.974047" y="235.695454" style="stroke: #000000; stroke-width: 0.5"/>
      </g>
     </g>
     <g id="line2d_68">
      <defs>
       <path id="me0f3554b9b" d="M 0 0 
L -3 0 
" style="stroke: #000000; stroke-width: 0.5"/>
      </defs>
      <g>
       <use xlink:href="#me0f3554b9b" x="364.774047" y="235.695454" style="stroke: #000000; stroke-width: 0.5"/>
      </g>
     </g>
     <g id="text_11">
      <!-- $\mathdefault{0}$ -->
      <g transform="translate(21.492726 239.072743)scale(0.1 -0.1)">
       <use xlink:href="#NimbusRomNo9L-Regu-30" transform="scale(0.996264)"/>
      </g>
     </g>
    </g>
    <g id="ytick_2">
     <g id="line2d_69">
      <g>
       <use xlink:href="#ma1bc8b1408" x="29.974047" y="199.991021" style="stroke: #000000; stroke-width: 0.5"/>
      </g>
     </g>
     <g id="line2d_70">
      <g>
       <use xlink:href="#me0f3554b9b" x="364.774047" y="199.991021" style="stroke: #000000; stroke-width: 0.5"/>
      </g>
     </g>
     <g id="text_12">
      <!-- $\mathdefault{10}$ -->
      <g transform="translate(16.511406 203.368309)scale(0.1 -0.1)">
       <use xlink:href="#NimbusRomNo9L-Regu-31" transform="scale(0.996264)"/>
       <use xlink:href="#NimbusRomNo9L-Regu-30" transform="translate(49.8132 0)scale(0.996264)"/>
      </g>
     </g>
    </g>
    <g id="ytick_3">
     <g id="line2d_71">
      <g>
       <use xlink:href="#ma1bc8b1408" x="29.974047" y="164.286587" style="stroke: #000000; stroke-width: 0.5"/>
      </g>
     </g>
     <g id="line2d_72">
      <g>
       <use xlink:href="#me0f3554b9b" x="364.774047" y="164.286587" style="stroke: #000000; stroke-width: 0.5"/>
      </g>
     </g>
     <g id="text_13">
      <!-- $\mathdefault{20}$ -->
      <g transform="translate(16.511406 167.663876)scale(0.1 -0.1)">
       <use xlink:href="#NimbusRomNo9L-Regu-32" transform="scale(0.996264)"/>
       <use xlink:href="#NimbusRomNo9L-Regu-30" transform="translate(49.8132 0)scale(0.996264)"/>
      </g>
     </g>
    </g>
    <g id="ytick_4">
     <g id="line2d_73">
      <g>
       <use xlink:href="#ma1bc8b1408" x="29.974047" y="128.582154" style="stroke: #000000; stroke-width: 0.5"/>
      </g>
     </g>
     <g id="line2d_74">
      <g>
       <use xlink:href="#me0f3554b9b" x="364.774047" y="128.582154" style="stroke: #000000; stroke-width: 0.5"/>
      </g>
     </g>
     <g id="text_14">
      <!-- $\mathdefault{30}$ -->
      <g transform="translate(16.511406 131.959442)scale(0.1 -0.1)">
       <use xlink:href="#NimbusRomNo9L-Regu-33" transform="scale(0.996264)"/>
       <use xlink:href="#NimbusRomNo9L-Regu-30" transform="translate(49.8132 0)scale(0.996264)"/>
      </g>
     </g>
    </g>
    <g id="ytick_5">
     <g id="line2d_75">
      <g>
       <use xlink:href="#ma1bc8b1408" x="29.974047" y="92.87772" style="stroke: #000000; stroke-width: 0.5"/>
      </g>
     </g>
     <g id="line2d_76">
      <g>
       <use xlink:href="#me0f3554b9b" x="364.774047" y="92.87772" style="stroke: #000000; stroke-width: 0.5"/>
      </g>
     </g>
     <g id="text_15">
      <!-- $\mathdefault{40}$ -->
      <g transform="translate(16.511406 96.255009)scale(0.1 -0.1)">
       <use xlink:href="#NimbusRomNo9L-Regu-34" transform="scale(0.996264)"/>
       <use xlink:href="#NimbusRomNo9L-Regu-30" transform="translate(49.8132 0)scale(0.996264)"/>
      </g>
     </g>
    </g>
    <g id="ytick_6">
     <g id="line2d_77">
      <g>
       <use xlink:href="#ma1bc8b1408" x="29.974047" y="57.173287" style="stroke: #000000; stroke-width: 0.5"/>
      </g>
     </g>
     <g id="line2d_78">
      <g>
       <use xlink:href="#me0f3554b9b" x="364.774047" y="57.173287" style="stroke: #000000; stroke-width: 0.5"/>
      </g>
     </g>
     <g id="text_16">
      <!-- $\mathdefault{50}$ -->
      <g transform="translate(16.511406 60.550575)scale(0.1 -0.1)">
       <defs>
        <path id="NimbusRomNo9L-Regu-35" d="M 1158 3776 
L 2413 3776 
C 2515 3776 2541 3789 2560 3834 
L 2803 4403 
L 2746 4448 
C 2650 4314 2586 4282 2451 4282 
L 1114 4282 
L 416 2759 
C 410 2746 410 2740 410 2727 
C 410 2695 435 2676 486 2676 
C 691 2676 947 2631 1210 2547 
C 1946 2309 2285 1910 2285 1274 
C 2285 656 1894 173 1395 173 
C 1267 173 1158 218 966 360 
C 762 508 614 572 480 572 
C 294 572 205 495 205 334 
C 205 90 506 -64 986 -64 
C 1523 -64 1984 110 2304 438 
C 2598 728 2733 1094 2733 1583 
C 2733 2046 2611 2342 2291 2663 
C 2010 2947 1645 3094 890 3229 
L 1158 3776 
z
" transform="scale(0.015625)"/>
       </defs>
       <use xlink:href="#NimbusRomNo9L-Regu-35" transform="scale(0.996264)"/>
       <use xlink:href="#NimbusRomNo9L-Regu-30" transform="translate(49.8132 0)scale(0.996264)"/>
      </g>
     </g>
    </g>
    <g id="ytick_7">
     <g id="line2d_79">
      <g>
       <use xlink:href="#ma1bc8b1408" x="29.974047" y="21.468853" style="stroke: #000000; stroke-width: 0.5"/>
      </g>
     </g>
     <g id="line2d_80">
      <g>
       <use xlink:href="#me0f3554b9b" x="364.774047" y="21.468853" style="stroke: #000000; stroke-width: 0.5"/>
      </g>
     </g>
     <g id="text_17">
      <!-- $\mathdefault{60}$ -->
      <g transform="translate(16.511406 24.846142)scale(0.1 -0.1)">
       <use xlink:href="#NimbusRomNo9L-Regu-36" transform="scale(0.996264)"/>
       <use xlink:href="#NimbusRomNo9L-Regu-30" transform="translate(49.8132 0)scale(0.996264)"/>
      </g>
     </g>
    </g>
    <g id="ytick_8">
     <g id="line2d_81">
      <defs>
       <path id="m8c60242118" d="M 0 0 
L 1.5 0 
" style="stroke: #000000; stroke-width: 0.5"/>
      </defs>
      <g>
       <use xlink:href="#m8c60242118" x="29.974047" y="228.554567" style="stroke: #000000; stroke-width: 0.5"/>
      </g>
     </g>
     <g id="line2d_82">
      <defs>
       <path id="m4812d131fc" d="M 0 0 
L -1.5 0 
" style="stroke: #000000; stroke-width: 0.5"/>
      </defs>
      <g>
       <use xlink:href="#m4812d131fc" x="364.774047" y="228.554567" style="stroke: #000000; stroke-width: 0.5"/>
      </g>
     </g>
    </g>
    <g id="ytick_9">
     <g id="line2d_83">
      <g>
       <use xlink:href="#m8c60242118" x="29.974047" y="221.413681" style="stroke: #000000; stroke-width: 0.5"/>
      </g>
     </g>
     <g id="line2d_84">
      <g>
       <use xlink:href="#m4812d131fc" x="364.774047" y="221.413681" style="stroke: #000000; stroke-width: 0.5"/>
      </g>
     </g>
    </g>
    <g id="ytick_10">
     <g id="line2d_85">
      <g>
       <use xlink:href="#m8c60242118" x="29.974047" y="214.272794" style="stroke: #000000; stroke-width: 0.5"/>
      </g>
     </g>
     <g id="line2d_86">
      <g>
       <use xlink:href="#m4812d131fc" x="364.774047" y="214.272794" style="stroke: #000000; stroke-width: 0.5"/>
      </g>
     </g>
    </g>
    <g id="ytick_11">
     <g id="line2d_87">
      <g>
       <use xlink:href="#m8c60242118" x="29.974047" y="207.131907" style="stroke: #000000; stroke-width: 0.5"/>
      </g>
     </g>
     <g id="line2d_88">
      <g>
       <use xlink:href="#m4812d131fc" x="364.774047" y="207.131907" style="stroke: #000000; stroke-width: 0.5"/>
      </g>
     </g>
    </g>
    <g id="ytick_12">
     <g id="line2d_89">
      <g>
       <use xlink:href="#m8c60242118" x="29.974047" y="192.850134" style="stroke: #000000; stroke-width: 0.5"/>
      </g>
     </g>
     <g id="line2d_90">
      <g>
       <use xlink:href="#m4812d131fc" x="364.774047" y="192.850134" style="stroke: #000000; stroke-width: 0.5"/>
      </g>
     </g>
    </g>
    <g id="ytick_13">
     <g id="line2d_91">
      <g>
       <use xlink:href="#m8c60242118" x="29.974047" y="185.709247" style="stroke: #000000; stroke-width: 0.5"/>
      </g>
     </g>
     <g id="line2d_92">
      <g>
       <use xlink:href="#m4812d131fc" x="364.774047" y="185.709247" style="stroke: #000000; stroke-width: 0.5"/>
      </g>
     </g>
    </g>
    <g id="ytick_14">
     <g id="line2d_93">
      <g>
       <use xlink:href="#m8c60242118" x="29.974047" y="178.56836" style="stroke: #000000; stroke-width: 0.5"/>
      </g>
     </g>
     <g id="line2d_94">
      <g>
       <use xlink:href="#m4812d131fc" x="364.774047" y="178.56836" style="stroke: #000000; stroke-width: 0.5"/>
      </g>
     </g>
    </g>
    <g id="ytick_15">
     <g id="line2d_95">
      <g>
       <use xlink:href="#m8c60242118" x="29.974047" y="171.427474" style="stroke: #000000; stroke-width: 0.5"/>
      </g>
     </g>
     <g id="line2d_96">
      <g>
       <use xlink:href="#m4812d131fc" x="364.774047" y="171.427474" style="stroke: #000000; stroke-width: 0.5"/>
      </g>
     </g>
    </g>
    <g id="ytick_16">
     <g id="line2d_97">
      <g>
       <use xlink:href="#m8c60242118" x="29.974047" y="157.1457" style="stroke: #000000; stroke-width: 0.5"/>
      </g>
     </g>
     <g id="line2d_98">
      <g>
       <use xlink:href="#m4812d131fc" x="364.774047" y="157.1457" style="stroke: #000000; stroke-width: 0.5"/>
      </g>
     </g>
    </g>
    <g id="ytick_17">
     <g id="line2d_99">
      <g>
       <use xlink:href="#m8c60242118" x="29.974047" y="150.004814" style="stroke: #000000; stroke-width: 0.5"/>
      </g>
     </g>
     <g id="line2d_100">
      <g>
       <use xlink:href="#m4812d131fc" x="364.774047" y="150.004814" style="stroke: #000000; stroke-width: 0.5"/>
      </g>
     </g>
    </g>
    <g id="ytick_18">
     <g id="line2d_101">
      <g>
       <use xlink:href="#m8c60242118" x="29.974047" y="142.863927" style="stroke: #000000; stroke-width: 0.5"/>
      </g>
     </g>
     <g id="line2d_102">
      <g>
       <use xlink:href="#m4812d131fc" x="364.774047" y="142.863927" style="stroke: #000000; stroke-width: 0.5"/>
      </g>
     </g>
    </g>
    <g id="ytick_19">
     <g id="line2d_103">
      <g>
       <use xlink:href="#m8c60242118" x="29.974047" y="135.72304" style="stroke: #000000; stroke-width: 0.5"/>
      </g>
     </g>
     <g id="line2d_104">
      <g>
       <use xlink:href="#m4812d131fc" x="364.774047" y="135.72304" style="stroke: #000000; stroke-width: 0.5"/>
      </g>
     </g>
    </g>
    <g id="ytick_20">
     <g id="line2d_105">
      <g>
       <use xlink:href="#m8c60242118" x="29.974047" y="121.441267" style="stroke: #000000; stroke-width: 0.5"/>
      </g>
     </g>
     <g id="line2d_106">
      <g>
       <use xlink:href="#m4812d131fc" x="364.774047" y="121.441267" style="stroke: #000000; stroke-width: 0.5"/>
      </g>
     </g>
    </g>
    <g id="ytick_21">
     <g id="line2d_107">
      <g>
       <use xlink:href="#m8c60242118" x="29.974047" y="114.30038" style="stroke: #000000; stroke-width: 0.5"/>
      </g>
     </g>
     <g id="line2d_108">
      <g>
       <use xlink:href="#m4812d131fc" x="364.774047" y="114.30038" style="stroke: #000000; stroke-width: 0.5"/>
      </g>
     </g>
    </g>
    <g id="ytick_22">
     <g id="line2d_109">
      <g>
       <use xlink:href="#m8c60242118" x="29.974047" y="107.159493" style="stroke: #000000; stroke-width: 0.5"/>
      </g>
     </g>
     <g id="line2d_110">
      <g>
       <use xlink:href="#m4812d131fc" x="364.774047" y="107.159493" style="stroke: #000000; stroke-width: 0.5"/>
      </g>
     </g>
    </g>
    <g id="ytick_23">
     <g id="line2d_111">
      <g>
       <use xlink:href="#m8c60242118" x="29.974047" y="100.018607" style="stroke: #000000; stroke-width: 0.5"/>
      </g>
     </g>
     <g id="line2d_112">
      <g>
       <use xlink:href="#m4812d131fc" x="364.774047" y="100.018607" style="stroke: #000000; stroke-width: 0.5"/>
      </g>
     </g>
    </g>
    <g id="ytick_24">
     <g id="line2d_113">
      <g>
       <use xlink:href="#m8c60242118" x="29.974047" y="85.736833" style="stroke: #000000; stroke-width: 0.5"/>
      </g>
     </g>
     <g id="line2d_114">
      <g>
       <use xlink:href="#m4812d131fc" x="364.774047" y="85.736833" style="stroke: #000000; stroke-width: 0.5"/>
      </g>
     </g>
    </g>
    <g id="ytick_25">
     <g id="line2d_115">
      <g>
       <use xlink:href="#m8c60242118" x="29.974047" y="78.595947" style="stroke: #000000; stroke-width: 0.5"/>
      </g>
     </g>
     <g id="line2d_116">
      <g>
       <use xlink:href="#m4812d131fc" x="364.774047" y="78.595947" style="stroke: #000000; stroke-width: 0.5"/>
      </g>
     </g>
    </g>
    <g id="ytick_26">
     <g id="line2d_117">
      <g>
       <use xlink:href="#m8c60242118" x="29.974047" y="71.45506" style="stroke: #000000; stroke-width: 0.5"/>
      </g>
     </g>
     <g id="line2d_118">
      <g>
       <use xlink:href="#m4812d131fc" x="364.774047" y="71.45506" style="stroke: #000000; stroke-width: 0.5"/>
      </g>
     </g>
    </g>
    <g id="ytick_27">
     <g id="line2d_119">
      <g>
       <use xlink:href="#m8c60242118" x="29.974047" y="64.314173" style="stroke: #000000; stroke-width: 0.5"/>
      </g>
     </g>
     <g id="line2d_120">
      <g>
       <use xlink:href="#m4812d131fc" x="364.774047" y="64.314173" style="stroke: #000000; stroke-width: 0.5"/>
      </g>
     </g>
    </g>
    <g id="ytick_28">
     <g id="line2d_121">
      <g>
       <use xlink:href="#m8c60242118" x="29.974047" y="50.0324" style="stroke: #000000; stroke-width: 0.5"/>
      </g>
     </g>
     <g id="line2d_122">
      <g>
       <use xlink:href="#m4812d131fc" x="364.774047" y="50.0324" style="stroke: #000000; stroke-width: 0.5"/>
      </g>
     </g>
    </g>
    <g id="ytick_29">
     <g id="line2d_123">
      <g>
       <use xlink:href="#m8c60242118" x="29.974047" y="42.891513" style="stroke: #000000; stroke-width: 0.5"/>
      </g>
     </g>
     <g id="line2d_124">
      <g>
       <use xlink:href="#m4812d131fc" x="364.774047" y="42.891513" style="stroke: #000000; stroke-width: 0.5"/>
      </g>
     </g>
    </g>
    <g id="ytick_30">
     <g id="line2d_125">
      <g>
       <use xlink:href="#m8c60242118" x="29.974047" y="35.750626" style="stroke: #000000; stroke-width: 0.5"/>
      </g>
     </g>
     <g id="line2d_126">
      <g>
       <use xlink:href="#m4812d131fc" x="364.774047" y="35.750626" style="stroke: #000000; stroke-width: 0.5"/>
      </g>
     </g>
    </g>
    <g id="ytick_31">
     <g id="line2d_127">
      <g>
       <use xlink:href="#m8c60242118" x="29.974047" y="28.60974" style="stroke: #000000; stroke-width: 0.5"/>
      </g>
     </g>
     <g id="line2d_128">
      <g>
       <use xlink:href="#m4812d131fc" x="364.774047" y="28.60974" style="stroke: #000000; stroke-width: 0.5"/>
      </g>
     </g>
    </g>
    <g id="text_18">
     <!-- N -->
     <g transform="translate(10.354578 130.571953)rotate(-90)scale(0.1 -0.1)">
      <defs>
       <path id="NimbusRomNo9L-Regu-4e" d="M 3917 -64 
L 3917 3287 
C 3917 3669 3981 3905 4102 3987 
C 4192 4051 4282 4077 4525 4102 
L 4525 4224 
L 3021 4224 
L 3021 4102 
C 3264 4083 3354 4057 3450 4000 
C 3578 3911 3635 3681 3635 3286 
L 3635 1136 
L 1171 4224 
L 77 4224 
L 77 4102 
C 352 4102 442 4051 698 3751 
L 698 938 
C 698 281 608 159 77 121 
L 77 0 
L 1581 0 
L 1581 134 
C 1088 134 979 281 979 928 
L 979 3439 
L 3808 -64 
L 3917 -64 
z
" transform="scale(0.015625)"/>
      </defs>
      <use xlink:href="#NimbusRomNo9L-Regu-4e" transform="scale(0.996264)"/>
     </g>
    </g>
   </g>
   <g id="patch_103">
    <path d="M 29.974047 235.695454 
L 29.974047 18.255454 
" style="fill: none; stroke: #000000; stroke-width: 0.5; stroke-linejoin: miter; stroke-linecap: square"/>
   </g>
   <g id="patch_104">
    <path d="M 364.774047 235.695454 
L 364.774047 18.255454 
" style="fill: none; stroke: #000000; stroke-width: 0.5; stroke-linejoin: miter; stroke-linecap: square"/>
   </g>
   <g id="patch_105">
    <path d="M 29.974047 235.695454 
L 364.774047 235.695454 
" style="fill: none; stroke: #000000; stroke-width: 0.5; stroke-linejoin: miter; stroke-linecap: square"/>
   </g>
   <g id="patch_106">
    <path d="M 29.974047 18.255454 
L 364.774047 18.255454 
" style="fill: none; stroke: #000000; stroke-width: 0.5; stroke-linejoin: miter; stroke-linecap: square"/>
   </g>
   <g id="text_19">
    <!-- Histogramme du paramtre $\tan \beta$ -->
    <g transform="translate(119.223302 12.255454)scale(0.12 -0.12)">
     <defs>
      <path id="NimbusRomNo9L-Regu-48" d="M 1338 2304 
L 1338 3533 
C 1338 3990 1408 4059 1901 4104 
L 1901 4224 
L 122 4224 
L 122 4104 
C 614 4059 685 3989 685 3527 
L 685 749 
C 685 210 621 134 122 134 
L 122 0 
L 1901 0 
L 1901 121 
C 1421 159 1338 242 1338 699 
L 1338 2022 
L 3277 2022 
L 3277 757 
C 3277 211 3213 134 2714 134 
L 2714 0 
L 4493 0 
L 4493 121 
C 4013 159 3930 242 3930 696 
L 3930 3529 
C 3930 3989 4000 4059 4493 4104 
L 4493 4224 
L 2714 4224 
L 2714 4104 
C 3206 4059 3277 3990 3277 3533 
L 3277 2304 
L 1338 2304 
z
" transform="scale(0.015625)"/>
      <path id="NimbusRomNo9L-Regu-69" d="M 1120 2929 
L 128 2579 
L 128 2484 
L 179 2490 
C 256 2502 339 2509 397 2509 
C 550 2509 608 2406 608 2125 
L 608 640 
C 608 179 544 109 102 109 
L 102 0 
L 1619 0 
L 1619 96 
C 1197 128 1146 191 1146 650 
L 1146 2910 
L 1120 2929 
z
M 819 4352 
C 646 4352 499 4205 499 4026 
C 499 3847 640 3699 819 3699 
C 1005 3699 1152 3840 1152 4026 
C 1152 4205 1005 4352 819 4352 
z
" transform="scale(0.015625)"/>
      <path id="NimbusRomNo9L-Regu-74" d="M 1632 2880 
L 986 2880 
L 986 3622 
C 986 3686 979 3706 941 3706 
C 896 3648 858 3590 813 3526 
C 570 3174 294 2867 192 2841 
C 122 2794 83 2748 83 2715 
C 83 2695 90 2682 109 2682 
L 448 2682 
L 448 751 
C 448 212 640 -64 1018 -64 
C 1331 -64 1574 90 1786 423 
L 1702 493 
C 1568 333 1459 269 1318 269 
C 1082 269 986 443 986 847 
L 986 2682 
L 1632 2682 
L 1632 2880 
z
" transform="scale(0.015625)"/>
      <path id="NimbusRomNo9L-Regu-6f" d="M 1600 2944 
C 768 2944 186 2330 186 1446 
C 186 582 781 -64 1587 -64 
C 2394 -64 3008 614 3008 1498 
C 3008 2336 2419 2944 1600 2944 
z
M 1517 2765 
C 2054 2765 2432 2150 2432 1274 
C 2432 550 2144 115 1664 115 
C 1414 115 1178 269 1043 525 
C 864 858 762 1306 762 1760 
C 762 2368 1062 2765 1517 2765 
z
" transform="scale(0.015625)"/>
      <path id="NimbusRomNo9L-Regu-67" d="M 3008 2496 
L 3008 2746 
L 2515 2746 
C 2387 2746 2291 2763 2163 2802 
L 2022 2847 
C 1850 2903 1677 2931 1510 2931 
C 915 2931 442 2467 442 1881 
C 442 1476 614 1230 1037 1018 
C 915 906 800 799 762 768 
C 550 588 467 463 467 338 
C 467 206 544 131 806 6 
C 352 -329 179 -543 179 -781 
C 179 -1124 678 -1408 1286 -1408 
C 1766 -1408 2266 -1238 2598 -962 
C 2842 -759 2950 -548 2950 -299 
C 2950 108 2650 384 2176 384 
L 1350 384 
C 1011 384 851 443 851 548 
C 851 678 1062 908 1235 960 
C 1293 953 1338 947 1357 947 
C 1478 934 1562 928 1600 928 
C 1837 928 2093 1026 2291 1203 
C 2502 1387 2598 1617 2598 1945 
C 2598 2135 2566 2286 2477 2496 
L 3008 2496 
z
M 941 -13 
C 1152 -58 1664 -96 1978 -96 
C 2560 -96 2771 -180 2771 -414 
C 2771 -791 2285 -1043 1562 -1043 
C 998 -1043 627 -855 627 -570 
C 627 -420 672 -336 941 -13 
z
M 973 2145 
C 973 2526 1152 2752 1446 2752 
C 1645 2752 1811 2642 1914 2449 
C 2029 2223 2106 1927 2106 1675 
C 2106 1314 1920 1088 1626 1088 
C 1242 1088 973 1507 973 2126 
L 973 2145 
z
" transform="scale(0.015625)"/>
      <path id="NimbusRomNo9L-Regu-72" d="M 45 2496 
C 134 2515 192 2522 269 2522 
C 429 2522 486 2419 486 2138 
L 486 538 
C 486 218 442 173 32 96 
L 32 0 
L 1568 0 
L 1568 102 
C 1133 102 1024 199 1024 565 
L 1024 2013 
C 1024 2219 1299 2541 1472 2541 
C 1510 2541 1568 2509 1638 2445 
C 1741 2355 1811 2317 1894 2317 
C 2048 2317 2144 2426 2144 2605 
C 2144 2816 2010 2944 1792 2944 
C 1523 2944 1338 2797 1024 2343 
L 1024 2931 
L 992 2944 
C 653 2803 422 2721 45 2599 
L 45 2496 
z
" transform="scale(0.015625)"/>
      <path id="NimbusRomNo9L-Regu-6d" d="M 122 2547 
C 205 2566 256 2573 326 2573 
C 493 2573 550 2470 550 2162 
L 550 539 
C 550 192 461 96 102 96 
L 102 0 
L 1523 0 
L 1523 96 
C 1184 96 1088 166 1088 418 
L 1088 2234 
C 1088 2246 1139 2310 1184 2355 
C 1344 2502 1619 2611 1843 2611 
C 2125 2611 2266 2385 2266 1932 
L 2266 528 
C 2266 167 2195 96 1830 96 
L 1830 0 
L 3264 0 
L 3264 96 
C 2899 96 2803 205 2803 603 
L 2803 2221 
C 2995 2496 3206 2611 3501 2611 
C 3866 2611 3981 2438 3981 1907 
L 3981 557 
C 3981 192 3930 141 3558 96 
L 3558 0 
L 4960 0 
L 4960 96 
L 4794 115 
C 4602 115 4518 230 4518 480 
L 4518 1802 
C 4518 2559 4269 2944 3776 2944 
C 3405 2944 3078 2778 2733 2407 
C 2618 2771 2400 2944 2054 2944 
C 1773 2944 1594 2854 1062 2451 
L 1062 2931 
L 1018 2944 
C 691 2822 474 2752 122 2656 
L 122 2547 
z
" transform="scale(0.015625)"/>
      <path id="NimbusRomNo9L-Regu-64" d="M 2202 -64 
L 3142 269 
L 3142 365 
C 3027 365 3014 365 2995 365 
C 2765 365 2714 435 2714 731 
L 2714 4364 
L 2682 4377 
C 2374 4268 2150 4204 1741 4096 
L 1741 3994 
C 1792 4000 1830 4000 1882 4000 
C 2118 4000 2176 3936 2176 3672 
L 2176 2669 
C 1933 2874 1760 2944 1504 2944 
C 768 2944 173 2221 173 1312 
C 173 493 653 -64 1357 -64 
C 1715 -64 1958 64 2176 365 
L 2176 -45 
L 2202 -64 
z
M 2176 653 
C 2176 608 2131 531 2067 461 
C 1952 333 1792 269 1606 269 
C 1075 269 723 781 723 1568 
C 723 2291 1037 2765 1523 2765 
C 1862 2765 2176 2464 2176 2125 
L 2176 653 
z
" transform="scale(0.015625)"/>
      <path id="NimbusRomNo9L-Regu-75" d="M 3066 320 
L 3034 320 
C 2739 320 2669 390 2669 685 
L 2669 2880 
L 1658 2880 
L 1658 2758 
C 2054 2758 2131 2694 2131 2375 
L 2131 875 
C 2131 697 2099 607 2010 537 
C 1837 397 1638 320 1446 320 
C 1197 320 992 537 992 805 
L 992 2880 
L 58 2880 
L 58 2778 
C 365 2778 454 2682 454 2387 
L 454 770 
C 454 263 762 -64 1229 -64 
C 1466 -64 1715 38 1888 211 
L 2163 486 
L 2163 -45 
L 2189 -58 
C 2509 70 2739 141 3066 230 
L 3066 320 
z
" transform="scale(0.015625)"/>
      <path id="NimbusRomNo9L-Regu-70" d="M 58 2516 
C 115 2522 160 2522 218 2522 
C 435 2522 480 2458 480 2155 
L 480 -855 
C 480 -1189 410 -1261 32 -1299 
L 32 -1408 
L 1581 -1408 
L 1581 -1293 
C 1101 -1293 1018 -1222 1018 -816 
L 1018 199 
C 1242 -13 1395 -77 1664 -77 
C 2419 -77 3008 643 3008 1575 
C 3008 2372 2560 2944 1939 2944 
C 1581 2944 1299 2784 1018 2438 
L 1018 2931 
L 979 2944 
C 634 2810 410 2726 58 2618 
L 58 2516 
z
M 1018 2136 
C 1018 2329 1376 2560 1670 2560 
C 2144 2560 2458 2071 2458 1324 
C 2458 611 2144 128 1683 128 
C 1382 128 1018 359 1018 552 
L 1018 2136 
z
" transform="scale(0.015625)"/>
      <path id="NimbusRomNo9L-Regu-1e" d="M 1549 3264 
L 608 4206 
C 493 4320 435 4352 339 4352 
C 205 4352 122 4275 122 4155 
C 122 4053 192 3957 307 3882 
L 1293 3264 
L 1549 3264 
z
" transform="scale(0.015625)"/>
      <path id="NimbusRomNo9L-Regu-6e" d="M 102 2579 
C 141 2598 205 2605 275 2605 
C 454 2605 512 2509 512 2195 
L 512 608 
C 512 243 442 154 115 128 
L 115 32 
L 1472 32 
L 1472 128 
C 1146 154 1050 230 1050 461 
L 1050 2259 
C 1357 2547 1498 2624 1709 2624 
C 2022 2624 2176 2426 2176 2003 
L 2176 666 
C 2176 262 2093 154 1773 128 
L 1773 32 
L 3104 32 
L 3104 128 
C 2790 160 2714 237 2714 550 
L 2714 2016 
C 2714 2618 2432 2976 1958 2976 
C 1664 2976 1466 2867 1030 2458 
L 1030 2963 
L 986 2976 
C 672 2861 454 2790 102 2688 
L 102 2579 
z
" transform="scale(0.015625)"/>
      <path id="StandardSymL-62" d="M 506 -386 
C 506 -725 454 -1165 390 -1408 
L 915 -1408 
C 998 -1260 1018 -1086 1018 -586 
L 1018 286 
C 1357 32 1638 -64 2010 -64 
C 2771 -64 3296 490 3296 1302 
C 3296 1976 2957 2448 2253 2744 
C 2739 3010 2970 3309 2970 3678 
C 2970 4256 2400 4736 1715 4736 
C 1024 4736 506 4282 506 3675 
L 506 -386 
z
M 1018 3741 
C 1018 4187 1286 4500 1664 4500 
C 2067 4500 2355 4122 2355 3601 
C 2355 3256 2176 2884 2010 2884 
C 1990 2884 1971 2884 1869 2915 
C 1773 2937 1722 2944 1670 2944 
C 1517 2944 1395 2842 1395 2721 
C 1395 2600 1510 2524 1677 2524 
C 1715 2524 1747 2529 1811 2539 
C 1888 2554 1952 2560 2003 2560 
C 2086 2560 2131 2547 2170 2510 
C 2458 2245 2630 1768 2630 1253 
C 2630 625 2349 254 1875 254 
C 1555 254 1235 400 1018 645 
L 1018 3741 
z
" transform="scale(0.015625)"/>
     </defs>
     <use xlink:href="#NimbusRomNo9L-Regu-48" transform="scale(0.996264)"/>
     <use xlink:href="#NimbusRomNo9L-Regu-69" transform="translate(71.929985 0)scale(0.996264)"/>
     <use xlink:href="#NimbusRomNo9L-Regu-73" transform="translate(99.625154 0)scale(0.996264)"/>
     <use xlink:href="#NimbusRomNo9L-Regu-74" transform="translate(138.378861 0)scale(0.996264)"/>
     <use xlink:href="#NimbusRomNo9L-Regu-6f" transform="translate(166.07403 0)scale(0.996264)"/>
     <use xlink:href="#NimbusRomNo9L-Regu-67" transform="translate(215.887231 0)scale(0.996264)"/>
     <use xlink:href="#NimbusRomNo9L-Regu-72" transform="translate(265.700431 0)scale(0.996264)"/>
     <use xlink:href="#NimbusRomNo9L-Regu-61" transform="translate(298.875661 0)scale(0.996264)"/>
     <use xlink:href="#NimbusRomNo9L-Regu-6d" transform="translate(343.10923 0)scale(0.996264)"/>
     <use xlink:href="#NimbusRomNo9L-Regu-6d" transform="translate(420.6176 0)scale(0.996264)"/>
     <use xlink:href="#NimbusRomNo9L-Regu-65" transform="translate(498.12597 0)scale(0.996264)"/>
     <use xlink:href="#NimbusRomNo9L-Regu-64" transform="translate(567.266139 0)scale(0.996264)"/>
     <use xlink:href="#NimbusRomNo9L-Regu-75" transform="translate(617.079339 0)scale(0.996264)"/>
     <use xlink:href="#NimbusRomNo9L-Regu-70" transform="translate(691.79914 0)scale(0.996264)"/>
     <use xlink:href="#NimbusRomNo9L-Regu-61" transform="translate(741.612341 0)scale(0.996264)"/>
     <use xlink:href="#NimbusRomNo9L-Regu-72" transform="translate(785.845909 0)scale(0.996264)"/>
     <use xlink:href="#NimbusRomNo9L-Regu-61" transform="translate(819.021139 0)scale(0.996264)"/>
     <use xlink:href="#NimbusRomNo9L-Regu-6d" transform="translate(863.254708 0)scale(0.996264)"/>
     <use xlink:href="#NimbusRomNo9L-Regu-1e" transform="translate(946.292255 0.498056)scale(0.996264)"/>
     <use xlink:href="#NimbusRomNo9L-Regu-65" transform="translate(940.763078 0)scale(0.996264)"/>
     <use xlink:href="#NimbusRomNo9L-Regu-74" transform="translate(984.996646 0)scale(0.996264)"/>
     <use xlink:href="#NimbusRomNo9L-Regu-72" transform="translate(1012.691816 0)scale(0.996264)"/>
     <use xlink:href="#NimbusRomNo9L-Regu-65" transform="translate(1045.867046 0)scale(0.996264)"/>
     <use xlink:href="#NimbusRomNo9L-Regu-74" transform="translate(1115.007215 0)scale(0.996264)"/>
     <use xlink:href="#NimbusRomNo9L-Regu-61" transform="translate(1142.702384 0)scale(0.996264)"/>
     <use xlink:href="#NimbusRomNo9L-Regu-6e" transform="translate(1186.935953 0)scale(0.996264)"/>
     <use xlink:href="#StandardSymL-62" transform="translate(1247.818727 0)scale(0.996264)"/>
    </g>
   </g>
  </g>
 </g>
 <defs>
  <clipPath id="p9f15c9fd1f">
   <rect x="29.974047" y="18.255454" width="334.8" height="217.44"/>
  </clipPath>
 </defs>
</svg>
