<?xml version="1.0" encoding="utf-8" standalone="no"?>
<!DOCTYPE svg PUBLIC "-//W3C//DTD SVG 1.1//EN"
  "http://www.w3.org/Graphics/SVG/1.1/DTD/svg11.dtd">
<svg xmlns:xlink="http://www.w3.org/1999/xlink" width="432pt" height="288pt" viewBox="0 0 432 288" xmlns="http://www.w3.org/2000/svg" version="1.1">
 <metadata>
  <rdf:RDF xmlns:dc="http://purl.org/dc/elements/1.1/" xmlns:cc="http://creativecommons.org/ns#" xmlns:rdf="http://www.w3.org/1999/02/22-rdf-syntax-ns#">
   <cc:Work>
    <dc:type rdf:resource="http://purl.org/dc/dcmitype/StillImage"/>
    <dc:date>2022-06-22T12:37:40.281043</dc:date>
    <dc:format>image/svg+xml</dc:format>
    <dc:creator>
     <cc:Agent>
      <dc:title>Matplotlib v3.5.0, https://matplotlib.org/</dc:title>
     </cc:Agent>
    </dc:creator>
   </cc:Work>
  </rdf:RDF>
 </metadata>
 <defs>
  <style type="text/css">*{stroke-linejoin: round; stroke-linecap: butt}</style>
 </defs>
 <g id="figure_1">
  <g id="patch_1">
   <path d="M 0 288 
L 432 288 
L 432 0 
L 0 0 
L 0 288 
z
" style="fill: none"/>
  </g>
  <g id="axes_1">
   <g id="patch_2">
    <path d="M 35.45024 88.081955 
L 428.99976 88.081955 
L 428.99976 35.758845 
L 35.45024 35.758845 
z
" style="fill: #ffffff"/>
   </g>
   <g id="patch_3">
    <path d="M 53.338855 88.081955 
L 56.916577 88.081955 
L 56.916577 87.882469 
L 53.338855 87.882469 
z
" clip-path="url(#pd4776caf76)" style="fill: #1f77b4"/>
   </g>
   <g id="patch_4">
    <path d="M 56.916577 88.081955 
L 60.4943 88.081955 
L 60.4943 87.962264 
L 56.916577 87.962264 
z
" clip-path="url(#pd4776caf76)" style="fill: #1f77b4"/>
   </g>
   <g id="patch_5">
    <path d="M 60.4943 88.081955 
L 64.072023 88.081955 
L 64.072023 87.842572 
L 60.4943 87.842572 
z
" clip-path="url(#pd4776caf76)" style="fill: #1f77b4"/>
   </g>
   <g id="patch_6">
    <path d="M 64.072023 88.081955 
L 67.649746 88.081955 
L 67.649746 87.563292 
L 64.072023 87.563292 
z
" clip-path="url(#pd4776caf76)" style="fill: #1f77b4"/>
   </g>
   <g id="patch_7">
    <path d="M 67.649746 88.081955 
L 71.227469 88.081955 
L 71.227469 87.363806 
L 67.649746 87.363806 
z
" clip-path="url(#pd4776caf76)" style="fill: #1f77b4"/>
   </g>
   <g id="patch_8">
    <path d="M 71.227469 88.081955 
L 74.805192 88.081955 
L 74.805192 86.645658 
L 71.227469 86.645658 
z
" clip-path="url(#pd4776caf76)" style="fill: #1f77b4"/>
   </g>
   <g id="patch_9">
    <path d="M 74.805192 88.081955 
L 78.382915 88.081955 
L 78.382915 85.847715 
L 74.805192 85.847715 
z
" clip-path="url(#pd4776caf76)" style="fill: #1f77b4"/>
   </g>
   <g id="patch_10">
    <path d="M 78.382915 88.081955 
L 81.960638 88.081955 
L 81.960638 85.767921 
L 78.382915 85.767921 
z
" clip-path="url(#pd4776caf76)" style="fill: #1f77b4"/>
   </g>
   <g id="patch_11">
    <path d="M 81.960638 88.081955 
L 85.538361 88.081955 
L 85.538361 85.488641 
L 81.960638 85.488641 
z
" clip-path="url(#pd4776caf76)" style="fill: #1f77b4"/>
   </g>
   <g id="patch_12">
    <path d="M 85.538361 88.081955 
L 89.116084 88.081955 
L 89.116084 84.969978 
L 85.538361 84.969978 
z
" clip-path="url(#pd4776caf76)" style="fill: #1f77b4"/>
   </g>
   <g id="patch_13">
    <path d="M 89.116084 88.081955 
L 92.693807 88.081955 
L 92.693807 84.770492 
L 89.116084 84.770492 
z
" clip-path="url(#pd4776caf76)" style="fill: #1f77b4"/>
   </g>
   <g id="patch_14">
    <path d="M 92.693807 88.081955 
L 96.271529 88.081955 
L 96.271529 84.571006 
L 92.693807 84.571006 
z
" clip-path="url(#pd4776caf76)" style="fill: #1f77b4"/>
   </g>
   <g id="patch_15">
    <path d="M 96.271529 88.081955 
L 99.849252 88.081955 
L 99.849252 83.812961 
L 96.271529 83.812961 
z
" clip-path="url(#pd4776caf76)" style="fill: #1f77b4"/>
   </g>
   <g id="patch_16">
    <path d="M 99.849252 88.081955 
L 103.426975 88.081955 
L 103.426975 82.41656 
L 99.849252 82.41656 
z
" clip-path="url(#pd4776caf76)" style="fill: #1f77b4"/>
   </g>
   <g id="patch_17">
    <path d="M 103.426975 88.081955 
L 107.004698 88.081955 
L 107.004698 83.693269 
L 103.426975 83.693269 
z
" clip-path="url(#pd4776caf76)" style="fill: #1f77b4"/>
   </g>
   <g id="patch_18">
    <path d="M 107.004698 88.081955 
L 110.582421 88.081955 
L 110.582421 81.02016 
L 107.004698 81.02016 
z
" clip-path="url(#pd4776caf76)" style="fill: #1f77b4"/>
   </g>
   <g id="patch_19">
    <path d="M 110.582421 88.081955 
L 114.160144 88.081955 
L 114.160144 81.977692 
L 110.582421 81.977692 
z
" clip-path="url(#pd4776caf76)" style="fill: #1f77b4"/>
   </g>
   <g id="patch_20">
    <path d="M 114.160144 88.081955 
L 117.737867 88.081955 
L 117.737867 81.339338 
L 114.160144 81.339338 
z
" clip-path="url(#pd4776caf76)" style="fill: #1f77b4"/>
   </g>
   <g id="patch_21">
    <path d="M 117.737867 88.081955 
L 121.31559 88.081955 
L 121.31559 79.90304 
L 117.737867 79.90304 
z
" clip-path="url(#pd4776caf76)" style="fill: #1f77b4"/>
   </g>
   <g id="patch_22">
    <path d="M 121.31559 88.081955 
L 124.893313 88.081955 
L 124.893313 80.381806 
L 121.31559 80.381806 
z
" clip-path="url(#pd4776caf76)" style="fill: #1f77b4"/>
   </g>
   <g id="patch_23">
    <path d="M 124.893313 88.081955 
L 128.471036 88.081955 
L 128.471036 79.224789 
L 124.893313 79.224789 
z
" clip-path="url(#pd4776caf76)" style="fill: #1f77b4"/>
   </g>
   <g id="patch_24">
    <path d="M 128.471036 88.081955 
L 132.048759 88.081955 
L 132.048759 78.50664 
L 128.471036 78.50664 
z
" clip-path="url(#pd4776caf76)" style="fill: #1f77b4"/>
   </g>
   <g id="patch_25">
    <path d="M 132.048759 88.081955 
L 135.626481 88.081955 
L 135.626481 78.586435 
L 132.048759 78.586435 
z
" clip-path="url(#pd4776caf76)" style="fill: #1f77b4"/>
   </g>
   <g id="patch_26">
    <path d="M 135.626481 88.081955 
L 139.204204 88.081955 
L 139.204204 77.788492 
L 135.626481 77.788492 
z
" clip-path="url(#pd4776caf76)" style="fill: #1f77b4"/>
   </g>
   <g id="patch_27">
    <path d="M 139.204204 88.081955 
L 142.781927 88.081955 
L 142.781927 76.55168 
L 139.204204 76.55168 
z
" clip-path="url(#pd4776caf76)" style="fill: #1f77b4"/>
   </g>
   <g id="patch_28">
    <path d="M 142.781927 88.081955 
L 146.35965 88.081955 
L 146.35965 76.072915 
L 142.781927 76.072915 
z
" clip-path="url(#pd4776caf76)" style="fill: #1f77b4"/>
   </g>
   <g id="patch_29">
    <path d="M 146.35965 88.081955 
L 149.937373 88.081955 
L 149.937373 74.197749 
L 146.35965 74.197749 
z
" clip-path="url(#pd4776caf76)" style="fill: #1f77b4"/>
   </g>
   <g id="patch_30">
    <path d="M 149.937373 88.081955 
L 153.515096 88.081955 
L 153.515096 73.998263 
L 149.937373 73.998263 
z
" clip-path="url(#pd4776caf76)" style="fill: #1f77b4"/>
   </g>
   <g id="patch_31">
    <path d="M 153.515096 88.081955 
L 157.092819 88.081955 
L 157.092819 75.394663 
L 153.515096 75.394663 
z
" clip-path="url(#pd4776caf76)" style="fill: #1f77b4"/>
   </g>
   <g id="patch_32">
    <path d="M 157.092819 88.081955 
L 160.670542 88.081955 
L 160.670542 73.359909 
L 157.092819 73.359909 
z
" clip-path="url(#pd4776caf76)" style="fill: #1f77b4"/>
   </g>
   <g id="patch_33">
    <path d="M 160.670542 88.081955 
L 164.248265 88.081955 
L 164.248265 73.120526 
L 160.670542 73.120526 
z
" clip-path="url(#pd4776caf76)" style="fill: #1f77b4"/>
   </g>
   <g id="patch_34">
    <path d="M 164.248265 88.081955 
L 167.825988 88.081955 
L 167.825988 71.764023 
L 164.248265 71.764023 
z
" clip-path="url(#pd4776caf76)" style="fill: #1f77b4"/>
   </g>
   <g id="patch_35">
    <path d="M 167.825988 88.081955 
L 171.403711 88.081955 
L 171.403711 73.878572 
L 167.825988 73.878572 
z
" clip-path="url(#pd4776caf76)" style="fill: #1f77b4"/>
   </g>
   <g id="patch_36">
    <path d="M 171.403711 88.081955 
L 174.981433 88.081955 
L 174.981433 72.881143 
L 171.403711 72.881143 
z
" clip-path="url(#pd4776caf76)" style="fill: #1f77b4"/>
   </g>
   <g id="patch_37">
    <path d="M 174.981433 88.081955 
L 178.559156 88.081955 
L 178.559156 72.162994 
L 174.981433 72.162994 
z
" clip-path="url(#pd4776caf76)" style="fill: #1f77b4"/>
   </g>
   <g id="patch_38">
    <path d="M 178.559156 88.081955 
L 182.136879 88.081955 
L 182.136879 69.888857 
L 178.559156 69.888857 
z
" clip-path="url(#pd4776caf76)" style="fill: #1f77b4"/>
   </g>
   <g id="patch_39">
    <path d="M 182.136879 88.081955 
L 185.714602 88.081955 
L 185.714602 70.487314 
L 182.136879 70.487314 
z
" clip-path="url(#pd4776caf76)" style="fill: #1f77b4"/>
   </g>
   <g id="patch_40">
    <path d="M 185.714602 88.081955 
L 189.292325 88.081955 
L 189.292325 70.646903 
L 185.714602 70.646903 
z
" clip-path="url(#pd4776caf76)" style="fill: #1f77b4"/>
   </g>
   <g id="patch_41">
    <path d="M 189.292325 88.081955 
L 192.870048 88.081955 
L 192.870048 70.846389 
L 189.292325 70.846389 
z
" clip-path="url(#pd4776caf76)" style="fill: #1f77b4"/>
   </g>
   <g id="patch_42">
    <path d="M 192.870048 88.081955 
L 196.447771 88.081955 
L 196.447771 70.168137 
L 192.870048 70.168137 
z
" clip-path="url(#pd4776caf76)" style="fill: #1f77b4"/>
   </g>
   <g id="patch_43">
    <path d="M 196.447771 88.081955 
L 200.025494 88.081955 
L 200.025494 69.051017 
L 196.447771 69.051017 
z
" clip-path="url(#pd4776caf76)" style="fill: #1f77b4"/>
   </g>
   <g id="patch_44">
    <path d="M 200.025494 88.081955 
L 203.603217 88.081955 
L 203.603217 69.489886 
L 200.025494 69.489886 
z
" clip-path="url(#pd4776caf76)" style="fill: #1f77b4"/>
   </g>
   <g id="patch_45">
    <path d="M 203.603217 88.081955 
L 207.18094 88.081955 
L 207.18094 69.609577 
L 203.603217 69.609577 
z
" clip-path="url(#pd4776caf76)" style="fill: #1f77b4"/>
   </g>
   <g id="patch_46">
    <path d="M 207.18094 88.081955 
L 210.758663 88.081955 
L 210.758663 69.84896 
L 207.18094 69.84896 
z
" clip-path="url(#pd4776caf76)" style="fill: #1f77b4"/>
   </g>
   <g id="patch_47">
    <path d="M 210.758663 88.081955 
L 214.336385 88.081955 
L 214.336385 68.133383 
L 210.758663 68.133383 
z
" clip-path="url(#pd4776caf76)" style="fill: #1f77b4"/>
   </g>
   <g id="patch_48">
    <path d="M 214.336385 88.081955 
L 217.914108 88.081955 
L 217.914108 69.051017 
L 214.336385 69.051017 
z
" clip-path="url(#pd4776caf76)" style="fill: #1f77b4"/>
   </g>
   <g id="patch_49">
    <path d="M 217.914108 88.081955 
L 221.491831 88.081955 
L 221.491831 69.649474 
L 217.914108 69.649474 
z
" clip-path="url(#pd4776caf76)" style="fill: #1f77b4"/>
   </g>
   <g id="patch_50">
    <path d="M 221.491831 88.081955 
L 225.069554 88.081955 
L 225.069554 67.255646 
L 221.491831 67.255646 
z
" clip-path="url(#pd4776caf76)" style="fill: #1f77b4"/>
   </g>
   <g id="patch_51">
    <path d="M 225.069554 88.081955 
L 228.647277 88.081955 
L 228.647277 69.210606 
L 225.069554 69.210606 
z
" clip-path="url(#pd4776caf76)" style="fill: #1f77b4"/>
   </g>
   <g id="patch_52">
    <path d="M 228.647277 88.081955 
L 232.225 88.081955 
L 232.225 69.649474 
L 228.647277 69.649474 
z
" clip-path="url(#pd4776caf76)" style="fill: #1f77b4"/>
   </g>
   <g id="patch_53">
    <path d="M 232.225 88.081955 
L 235.802723 88.081955 
L 235.802723 69.529783 
L 232.225 69.529783 
z
" clip-path="url(#pd4776caf76)" style="fill: #1f77b4"/>
   </g>
   <g id="patch_54">
    <path d="M 235.802723 88.081955 
L 239.380446 88.081955 
L 239.380446 67.814206 
L 235.802723 67.814206 
z
" clip-path="url(#pd4776caf76)" style="fill: #1f77b4"/>
   </g>
   <g id="patch_55">
    <path d="M 239.380446 88.081955 
L 242.958169 88.081955 
L 242.958169 70.247931 
L 239.380446 70.247931 
z
" clip-path="url(#pd4776caf76)" style="fill: #1f77b4"/>
   </g>
   <g id="patch_56">
    <path d="M 242.958169 88.081955 
L 246.535892 88.081955 
L 246.535892 69.56968 
L 242.958169 69.56968 
z
" clip-path="url(#pd4776caf76)" style="fill: #1f77b4"/>
   </g>
   <g id="patch_57">
    <path d="M 246.535892 88.081955 
L 250.113615 88.081955 
L 250.113615 69.2904 
L 246.535892 69.2904 
z
" clip-path="url(#pd4776caf76)" style="fill: #1f77b4"/>
   </g>
   <g id="patch_58">
    <path d="M 250.113615 88.081955 
L 253.691337 88.081955 
L 253.691337 71.165566 
L 250.113615 71.165566 
z
" clip-path="url(#pd4776caf76)" style="fill: #1f77b4"/>
   </g>
   <g id="patch_59">
    <path d="M 253.691337 88.081955 
L 257.26906 88.081955 
L 257.26906 70.327726 
L 253.691337 70.327726 
z
" clip-path="url(#pd4776caf76)" style="fill: #1f77b4"/>
   </g>
   <g id="patch_60">
    <path d="M 257.26906 88.081955 
L 260.846783 88.081955 
L 260.846783 71.764023 
L 257.26906 71.764023 
z
" clip-path="url(#pd4776caf76)" style="fill: #1f77b4"/>
   </g>
   <g id="patch_61">
    <path d="M 260.846783 88.081955 
L 264.424506 88.081955 
L 264.424506 70.168137 
L 260.846783 70.168137 
z
" clip-path="url(#pd4776caf76)" style="fill: #1f77b4"/>
   </g>
   <g id="patch_62">
    <path d="M 264.424506 88.081955 
L 268.002229 88.081955 
L 268.002229 71.484743 
L 264.424506 71.484743 
z
" clip-path="url(#pd4776caf76)" style="fill: #1f77b4"/>
   </g>
   <g id="patch_63">
    <path d="M 268.002229 88.081955 
L 271.579952 88.081955 
L 271.579952 71.285257 
L 268.002229 71.285257 
z
" clip-path="url(#pd4776caf76)" style="fill: #1f77b4"/>
   </g>
   <g id="patch_64">
    <path d="M 271.579952 88.081955 
L 275.157675 88.081955 
L 275.157675 71.724126 
L 271.579952 71.724126 
z
" clip-path="url(#pd4776caf76)" style="fill: #1f77b4"/>
   </g>
   <g id="patch_65">
    <path d="M 275.157675 88.081955 
L 278.735398 88.081955 
L 278.735398 71.52464 
L 275.157675 71.52464 
z
" clip-path="url(#pd4776caf76)" style="fill: #1f77b4"/>
   </g>
   <g id="patch_66">
    <path d="M 278.735398 88.081955 
L 282.313121 88.081955 
L 282.313121 73.599292 
L 278.735398 73.599292 
z
" clip-path="url(#pd4776caf76)" style="fill: #1f77b4"/>
   </g>
   <g id="patch_67">
    <path d="M 282.313121 88.081955 
L 285.890844 88.081955 
L 285.890844 71.883714 
L 282.313121 71.883714 
z
" clip-path="url(#pd4776caf76)" style="fill: #1f77b4"/>
   </g>
   <g id="patch_68">
    <path d="M 285.890844 88.081955 
L 289.468567 88.081955 
L 289.468567 73.918469 
L 285.890844 73.918469 
z
" clip-path="url(#pd4776caf76)" style="fill: #1f77b4"/>
   </g>
   <g id="patch_69">
    <path d="M 289.468567 88.081955 
L 293.046289 88.081955 
L 293.046289 72.881143 
L 289.468567 72.881143 
z
" clip-path="url(#pd4776caf76)" style="fill: #1f77b4"/>
   </g>
   <g id="patch_70">
    <path d="M 293.046289 88.081955 
L 296.624012 88.081955 
L 296.624012 73.160423 
L 293.046289 73.160423 
z
" clip-path="url(#pd4776caf76)" style="fill: #1f77b4"/>
   </g>
   <g id="patch_71">
    <path d="M 296.624012 88.081955 
L 300.201735 88.081955 
L 300.201735 76.232503 
L 296.624012 76.232503 
z
" clip-path="url(#pd4776caf76)" style="fill: #1f77b4"/>
   </g>
   <g id="patch_72">
    <path d="M 300.201735 88.081955 
L 303.779458 88.081955 
L 303.779458 75.195177 
L 300.201735 75.195177 
z
" clip-path="url(#pd4776caf76)" style="fill: #1f77b4"/>
   </g>
   <g id="patch_73">
    <path d="M 303.779458 88.081955 
L 307.357181 88.081955 
L 307.357181 76.631475 
L 303.779458 76.631475 
z
" clip-path="url(#pd4776caf76)" style="fill: #1f77b4"/>
   </g>
   <g id="patch_74">
    <path d="M 307.357181 88.081955 
L 310.934904 88.081955 
L 310.934904 76.072915 
L 307.357181 76.072915 
z
" clip-path="url(#pd4776caf76)" style="fill: #1f77b4"/>
   </g>
   <g id="patch_75">
    <path d="M 310.934904 88.081955 
L 314.512627 88.081955 
L 314.512627 75.99312 
L 310.934904 75.99312 
z
" clip-path="url(#pd4776caf76)" style="fill: #1f77b4"/>
   </g>
   <g id="patch_76">
    <path d="M 314.512627 88.081955 
L 318.09035 88.081955 
L 318.09035 77.309726 
L 314.512627 77.309726 
z
" clip-path="url(#pd4776caf76)" style="fill: #1f77b4"/>
   </g>
   <g id="patch_77">
    <path d="M 318.09035 88.081955 
L 321.668073 88.081955 
L 321.668073 77.229932 
L 318.09035 77.229932 
z
" clip-path="url(#pd4776caf76)" style="fill: #1f77b4"/>
   </g>
   <g id="patch_78">
    <path d="M 321.668073 88.081955 
L 325.245796 88.081955 
L 325.245796 78.027875 
L 321.668073 78.027875 
z
" clip-path="url(#pd4776caf76)" style="fill: #1f77b4"/>
   </g>
   <g id="patch_79">
    <path d="M 325.245796 88.081955 
L 328.823519 88.081955 
L 328.823519 78.466743 
L 325.245796 78.466743 
z
" clip-path="url(#pd4776caf76)" style="fill: #1f77b4"/>
   </g>
   <g id="patch_80">
    <path d="M 328.823519 88.081955 
L 332.401241 88.081955 
L 332.401241 79.504069 
L 328.823519 79.504069 
z
" clip-path="url(#pd4776caf76)" style="fill: #1f77b4"/>
   </g>
   <g id="patch_81">
    <path d="M 332.401241 88.081955 
L 335.978964 88.081955 
L 335.978964 80.062629 
L 332.401241 80.062629 
z
" clip-path="url(#pd4776caf76)" style="fill: #1f77b4"/>
   </g>
   <g id="patch_82">
    <path d="M 335.978964 88.081955 
L 339.556687 88.081955 
L 339.556687 79.863143 
L 335.978964 79.863143 
z
" clip-path="url(#pd4776caf76)" style="fill: #1f77b4"/>
   </g>
   <g id="patch_83">
    <path d="M 339.556687 88.081955 
L 343.13441 88.081955 
L 343.13441 81.02016 
L 339.556687 81.02016 
z
" clip-path="url(#pd4776caf76)" style="fill: #1f77b4"/>
   </g>
   <g id="patch_84">
    <path d="M 343.13441 88.081955 
L 346.712133 88.081955 
L 346.712133 81.498926 
L 343.13441 81.498926 
z
" clip-path="url(#pd4776caf76)" style="fill: #1f77b4"/>
   </g>
   <g id="patch_85">
    <path d="M 346.712133 88.081955 
L 350.289856 88.081955 
L 350.289856 80.860572 
L 346.712133 80.860572 
z
" clip-path="url(#pd4776caf76)" style="fill: #1f77b4"/>
   </g>
   <g id="patch_86">
    <path d="M 350.289856 88.081955 
L 353.867579 88.081955 
L 353.867579 81.658515 
L 350.289856 81.658515 
z
" clip-path="url(#pd4776caf76)" style="fill: #1f77b4"/>
   </g>
   <g id="patch_87">
    <path d="M 353.867579 88.081955 
L 357.445302 88.081955 
L 357.445302 81.977692 
L 353.867579 81.977692 
z
" clip-path="url(#pd4776caf76)" style="fill: #1f77b4"/>
   </g>
   <g id="patch_88">
    <path d="M 357.445302 88.081955 
L 361.023025 88.081955 
L 361.023025 83.453886 
L 357.445302 83.453886 
z
" clip-path="url(#pd4776caf76)" style="fill: #1f77b4"/>
   </g>
   <g id="patch_89">
    <path d="M 361.023025 88.081955 
L 364.600748 88.081955 
L 364.600748 84.052343 
L 361.023025 84.052343 
z
" clip-path="url(#pd4776caf76)" style="fill: #1f77b4"/>
   </g>
   <g id="patch_90">
    <path d="M 364.600748 88.081955 
L 368.178471 88.081955 
L 368.178471 84.531109 
L 364.600748 84.531109 
z
" clip-path="url(#pd4776caf76)" style="fill: #1f77b4"/>
   </g>
   <g id="patch_91">
    <path d="M 368.178471 88.081955 
L 371.756193 88.081955 
L 371.756193 84.451315 
L 368.178471 84.451315 
z
" clip-path="url(#pd4776caf76)" style="fill: #1f77b4"/>
   </g>
   <g id="patch_92">
    <path d="M 371.756193 88.081955 
L 375.333916 88.081955 
L 375.333916 85.249258 
L 371.756193 85.249258 
z
" clip-path="url(#pd4776caf76)" style="fill: #1f77b4"/>
   </g>
   <g id="patch_93">
    <path d="M 375.333916 88.081955 
L 378.911639 88.081955 
L 378.911639 85.608332 
L 375.333916 85.608332 
z
" clip-path="url(#pd4776caf76)" style="fill: #1f77b4"/>
   </g>
   <g id="patch_94">
    <path d="M 378.911639 88.081955 
L 382.489362 88.081955 
L 382.489362 85.927509 
L 378.911639 85.927509 
z
" clip-path="url(#pd4776caf76)" style="fill: #1f77b4"/>
   </g>
   <g id="patch_95">
    <path d="M 382.489362 88.081955 
L 386.067085 88.081955 
L 386.067085 86.286584 
L 382.489362 86.286584 
z
" clip-path="url(#pd4776caf76)" style="fill: #1f77b4"/>
   </g>
   <g id="patch_96">
    <path d="M 386.067085 88.081955 
L 389.644808 88.081955 
L 389.644808 86.645658 
L 386.067085 86.645658 
z
" clip-path="url(#pd4776caf76)" style="fill: #1f77b4"/>
   </g>
   <g id="patch_97">
    <path d="M 389.644808 88.081955 
L 393.222531 88.081955 
L 393.222531 86.446172 
L 389.644808 86.446172 
z
" clip-path="url(#pd4776caf76)" style="fill: #1f77b4"/>
   </g>
   <g id="patch_98">
    <path d="M 393.222531 88.081955 
L 396.800254 88.081955 
L 396.800254 87.084526 
L 393.222531 87.084526 
z
" clip-path="url(#pd4776caf76)" style="fill: #1f77b4"/>
   </g>
   <g id="patch_99">
    <path d="M 396.800254 88.081955 
L 400.377977 88.081955 
L 400.377977 87.403704 
L 396.800254 87.403704 
z
" clip-path="url(#pd4776caf76)" style="fill: #1f77b4"/>
   </g>
   <g id="patch_100">
    <path d="M 400.377977 88.081955 
L 403.9557 88.081955 
L 403.9557 87.483498 
L 400.377977 87.483498 
z
" clip-path="url(#pd4776caf76)" style="fill: #1f77b4"/>
   </g>
   <g id="patch_101">
    <path d="M 403.9557 88.081955 
L 407.533423 88.081955 
L 407.533423 87.882469 
L 403.9557 87.882469 
z
" clip-path="url(#pd4776caf76)" style="fill: #1f77b4"/>
   </g>
   <g id="patch_102">
    <path d="M 407.533423 88.081955 
L 411.111145 88.081955 
L 411.111145 87.962264 
L 407.533423 87.962264 
z
" clip-path="url(#pd4776caf76)" style="fill: #1f77b4"/>
   </g>
   <g id="matplotlib.axis_1">
    <g id="xtick_1">
     <g id="line2d_1">
      <defs>
       <path id="m9d7d44abb6" d="M 0 0 
L 0 3.5 
" style="stroke: #000000; stroke-width: 0.8"/>
      </defs>
      <g>
       <use xlink:href="#m9d7d44abb6" x="41.210122" y="88.081955" style="stroke: #000000; stroke-width: 0.8"/>
      </g>
     </g>
     <g id="text_1">
      <!-- 0 -->
      <g transform="translate(38.028872 102.680393)scale(0.1 -0.1)">
       <defs>
        <path id="DejaVuSans-30" d="M 2034 4250 
Q 1547 4250 1301 3770 
Q 1056 3291 1056 2328 
Q 1056 1369 1301 889 
Q 1547 409 2034 409 
Q 2525 409 2770 889 
Q 3016 1369 3016 2328 
Q 3016 3291 2770 3770 
Q 2525 4250 2034 4250 
z
M 2034 4750 
Q 2819 4750 3233 4129 
Q 3647 3509 3647 2328 
Q 3647 1150 3233 529 
Q 2819 -91 2034 -91 
Q 1250 -91 836 529 
Q 422 1150 422 2328 
Q 422 3509 836 4129 
Q 1250 4750 2034 4750 
z
" transform="scale(0.015625)"/>
       </defs>
       <use xlink:href="#DejaVuSans-30"/>
      </g>
     </g>
    </g>
    <g id="xtick_2">
     <g id="line2d_2">
      <g>
       <use xlink:href="#m9d7d44abb6" x="100.323083" y="88.081955" style="stroke: #000000; stroke-width: 0.8"/>
      </g>
     </g>
     <g id="text_2">
      <!-- 500 -->
      <g transform="translate(90.779333 102.680393)scale(0.1 -0.1)">
       <defs>
        <path id="DejaVuSans-35" d="M 691 4666 
L 3169 4666 
L 3169 4134 
L 1269 4134 
L 1269 2991 
Q 1406 3038 1543 3061 
Q 1681 3084 1819 3084 
Q 2600 3084 3056 2656 
Q 3513 2228 3513 1497 
Q 3513 744 3044 326 
Q 2575 -91 1722 -91 
Q 1428 -91 1123 -41 
Q 819 9 494 109 
L 494 744 
Q 775 591 1075 516 
Q 1375 441 1709 441 
Q 2250 441 2565 725 
Q 2881 1009 2881 1497 
Q 2881 1984 2565 2268 
Q 2250 2553 1709 2553 
Q 1456 2553 1204 2497 
Q 953 2441 691 2322 
L 691 4666 
z
" transform="scale(0.015625)"/>
       </defs>
       <use xlink:href="#DejaVuSans-35"/>
       <use xlink:href="#DejaVuSans-30" x="63.623047"/>
       <use xlink:href="#DejaVuSans-30" x="127.246094"/>
      </g>
     </g>
    </g>
    <g id="xtick_3">
     <g id="line2d_3">
      <g>
       <use xlink:href="#m9d7d44abb6" x="159.436044" y="88.081955" style="stroke: #000000; stroke-width: 0.8"/>
      </g>
     </g>
     <g id="text_3">
      <!-- 1000 -->
      <g transform="translate(146.711044 102.680393)scale(0.1 -0.1)">
       <defs>
        <path id="DejaVuSans-31" d="M 794 531 
L 1825 531 
L 1825 4091 
L 703 3866 
L 703 4441 
L 1819 4666 
L 2450 4666 
L 2450 531 
L 3481 531 
L 3481 0 
L 794 0 
L 794 531 
z
" transform="scale(0.015625)"/>
       </defs>
       <use xlink:href="#DejaVuSans-31"/>
       <use xlink:href="#DejaVuSans-30" x="63.623047"/>
       <use xlink:href="#DejaVuSans-30" x="127.246094"/>
       <use xlink:href="#DejaVuSans-30" x="190.869141"/>
      </g>
     </g>
    </g>
    <g id="xtick_4">
     <g id="line2d_4">
      <g>
       <use xlink:href="#m9d7d44abb6" x="218.549006" y="88.081955" style="stroke: #000000; stroke-width: 0.8"/>
      </g>
     </g>
     <g id="text_4">
      <!-- 1500 -->
      <g transform="translate(205.824006 102.680393)scale(0.1 -0.1)">
       <use xlink:href="#DejaVuSans-31"/>
       <use xlink:href="#DejaVuSans-35" x="63.623047"/>
       <use xlink:href="#DejaVuSans-30" x="127.246094"/>
       <use xlink:href="#DejaVuSans-30" x="190.869141"/>
      </g>
     </g>
    </g>
    <g id="xtick_5">
     <g id="line2d_5">
      <g>
       <use xlink:href="#m9d7d44abb6" x="277.661967" y="88.081955" style="stroke: #000000; stroke-width: 0.8"/>
      </g>
     </g>
     <g id="text_5">
      <!-- 2000 -->
      <g transform="translate(264.936967 102.680393)scale(0.1 -0.1)">
       <defs>
        <path id="DejaVuSans-32" d="M 1228 531 
L 3431 531 
L 3431 0 
L 469 0 
L 469 531 
Q 828 903 1448 1529 
Q 2069 2156 2228 2338 
Q 2531 2678 2651 2914 
Q 2772 3150 2772 3378 
Q 2772 3750 2511 3984 
Q 2250 4219 1831 4219 
Q 1534 4219 1204 4116 
Q 875 4013 500 3803 
L 500 4441 
Q 881 4594 1212 4672 
Q 1544 4750 1819 4750 
Q 2544 4750 2975 4387 
Q 3406 4025 3406 3419 
Q 3406 3131 3298 2873 
Q 3191 2616 2906 2266 
Q 2828 2175 2409 1742 
Q 1991 1309 1228 531 
z
" transform="scale(0.015625)"/>
       </defs>
       <use xlink:href="#DejaVuSans-32"/>
       <use xlink:href="#DejaVuSans-30" x="63.623047"/>
       <use xlink:href="#DejaVuSans-30" x="127.246094"/>
       <use xlink:href="#DejaVuSans-30" x="190.869141"/>
      </g>
     </g>
    </g>
    <g id="xtick_6">
     <g id="line2d_6">
      <g>
       <use xlink:href="#m9d7d44abb6" x="336.774928" y="88.081955" style="stroke: #000000; stroke-width: 0.8"/>
      </g>
     </g>
     <g id="text_6">
      <!-- 2500 -->
      <g transform="translate(324.049928 102.680393)scale(0.1 -0.1)">
       <use xlink:href="#DejaVuSans-32"/>
       <use xlink:href="#DejaVuSans-35" x="63.623047"/>
       <use xlink:href="#DejaVuSans-30" x="127.246094"/>
       <use xlink:href="#DejaVuSans-30" x="190.869141"/>
      </g>
     </g>
    </g>
    <g id="xtick_7">
     <g id="line2d_7">
      <g>
       <use xlink:href="#m9d7d44abb6" x="395.88789" y="88.081955" style="stroke: #000000; stroke-width: 0.8"/>
      </g>
     </g>
     <g id="text_7">
      <!-- 3000 -->
      <g transform="translate(383.16289 102.680393)scale(0.1 -0.1)">
       <defs>
        <path id="DejaVuSans-33" d="M 2597 2516 
Q 3050 2419 3304 2112 
Q 3559 1806 3559 1356 
Q 3559 666 3084 287 
Q 2609 -91 1734 -91 
Q 1441 -91 1130 -33 
Q 819 25 488 141 
L 488 750 
Q 750 597 1062 519 
Q 1375 441 1716 441 
Q 2309 441 2620 675 
Q 2931 909 2931 1356 
Q 2931 1769 2642 2001 
Q 2353 2234 1838 2234 
L 1294 2234 
L 1294 2753 
L 1863 2753 
Q 2328 2753 2575 2939 
Q 2822 3125 2822 3475 
Q 2822 3834 2567 4026 
Q 2313 4219 1838 4219 
Q 1578 4219 1281 4162 
Q 984 4106 628 3988 
L 628 4550 
Q 988 4650 1302 4700 
Q 1616 4750 1894 4750 
Q 2613 4750 3031 4423 
Q 3450 4097 3450 3541 
Q 3450 3153 3228 2886 
Q 3006 2619 2597 2516 
z
" transform="scale(0.015625)"/>
       </defs>
       <use xlink:href="#DejaVuSans-33"/>
       <use xlink:href="#DejaVuSans-30" x="63.623047"/>
       <use xlink:href="#DejaVuSans-30" x="127.246094"/>
       <use xlink:href="#DejaVuSans-30" x="190.869141"/>
      </g>
     </g>
    </g>
   </g>
   <g id="matplotlib.axis_2">
    <g id="ytick_1">
     <g id="line2d_8">
      <defs>
       <path id="m42ce06174a" d="M 0 0 
L -3.5 0 
" style="stroke: #000000; stroke-width: 0.8"/>
      </defs>
      <g>
       <use xlink:href="#m42ce06174a" x="35.45024" y="88.081955" style="stroke: #000000; stroke-width: 0.8"/>
      </g>
     </g>
     <g id="text_8">
      <!-- 0 -->
      <g transform="translate(22.08774 91.881174)scale(0.1 -0.1)">
       <use xlink:href="#DejaVuSans-30"/>
      </g>
     </g>
    </g>
    <g id="ytick_2">
     <g id="line2d_9">
      <g>
       <use xlink:href="#m42ce06174a" x="35.45024" y="48.184811" style="stroke: #000000; stroke-width: 0.8"/>
      </g>
     </g>
     <g id="text_9">
      <!-- 1000 -->
      <g transform="translate(3.00024 51.984029)scale(0.1 -0.1)">
       <use xlink:href="#DejaVuSans-31"/>
       <use xlink:href="#DejaVuSans-30" x="63.623047"/>
       <use xlink:href="#DejaVuSans-30" x="127.246094"/>
       <use xlink:href="#DejaVuSans-30" x="190.869141"/>
      </g>
     </g>
    </g>
   </g>
   <g id="patch_103">
    <path d="M 35.45024 88.081955 
L 35.45024 35.758845 
" style="fill: none; stroke: #000000; stroke-width: 0.8; stroke-linejoin: miter; stroke-linecap: square"/>
   </g>
   <g id="patch_104">
    <path d="M 428.99976 88.081955 
L 428.99976 35.758845 
" style="fill: none; stroke: #000000; stroke-width: 0.8; stroke-linejoin: miter; stroke-linecap: square"/>
   </g>
   <g id="patch_105">
    <path d="M 35.45024 88.081955 
L 428.99976 88.081955 
" style="fill: none; stroke: #000000; stroke-width: 0.8; stroke-linejoin: miter; stroke-linecap: square"/>
   </g>
   <g id="patch_106">
    <path d="M 35.45024 35.758845 
L 428.99976 35.758845 
" style="fill: none; stroke: #000000; stroke-width: 0.8; stroke-linejoin: miter; stroke-linecap: square"/>
   </g>
   <g id="text_10">
    <!-- $\nu_1$ -->
    <g transform="translate(225.985 29.758845)scale(0.12 -0.12)">
     <defs>
      <path id="DejaVuSans-Oblique-3bd" d="M 959 0 
L 572 3500 
L 1191 3500 
L 1522 563 
Q 1972 950 2391 1488 
Q 2706 1891 2788 2241 
Q 2825 2406 2809 2719 
Q 2794 3091 2544 3500 
L 3125 3500 
L 3125 3500 
Q 3288 3222 3353 2834 
Q 3416 2478 3369 2234 
Q 3250 1622 2719 1075 
Q 2025 363 1572 0 
L 959 0 
z
" transform="scale(0.015625)"/>
     </defs>
     <use xlink:href="#DejaVuSans-Oblique-3bd" transform="translate(0 0.3125)"/>
     <use xlink:href="#DejaVuSans-31" transform="translate(55.859375 -16.09375)scale(0.7)"/>
    </g>
   </g>
  </g>
  <g id="axes_2">
   <g id="patch_107">
    <path d="M 35.45024 178.201795 
L 428.99976 178.201795 
L 428.99976 125.878685 
L 35.45024 125.878685 
z
" style="fill: #ffffff"/>
   </g>
   <g id="patch_108">
    <path d="M 53.338855 178.201795 
L 56.916577 178.201795 
L 56.916577 178.161898 
L 53.338855 178.161898 
z
" clip-path="url(#pfec8d722c7)" style="fill: #1f77b4"/>
   </g>
   <g id="patch_109">
    <path d="M 56.916577 178.201795 
L 60.4943 178.201795 
L 60.4943 178.161898 
L 56.916577 178.161898 
z
" clip-path="url(#pfec8d722c7)" style="fill: #1f77b4"/>
   </g>
   <g id="patch_110">
    <path d="M 60.4943 178.201795 
L 64.072023 178.201795 
L 64.072023 178.201795 
L 60.4943 178.201795 
z
" clip-path="url(#pfec8d722c7)" style="fill: #1f77b4"/>
   </g>
   <g id="patch_111">
    <path d="M 64.072023 178.201795 
L 67.649746 178.201795 
L 67.649746 178.082104 
L 64.072023 178.082104 
z
" clip-path="url(#pfec8d722c7)" style="fill: #1f77b4"/>
   </g>
   <g id="patch_112">
    <path d="M 67.649746 178.201795 
L 71.227469 178.201795 
L 71.227469 178.042206 
L 67.649746 178.042206 
z
" clip-path="url(#pfec8d722c7)" style="fill: #1f77b4"/>
   </g>
   <g id="patch_113">
    <path d="M 71.227469 178.201795 
L 74.805192 178.201795 
L 74.805192 178.201795 
L 71.227469 178.201795 
z
" clip-path="url(#pfec8d722c7)" style="fill: #1f77b4"/>
   </g>
   <g id="patch_114">
    <path d="M 74.805192 178.201795 
L 78.382915 178.201795 
L 78.382915 178.161898 
L 74.805192 178.161898 
z
" clip-path="url(#pfec8d722c7)" style="fill: #1f77b4"/>
   </g>
   <g id="patch_115">
    <path d="M 78.382915 178.201795 
L 81.960638 178.201795 
L 81.960638 178.042206 
L 78.382915 178.042206 
z
" clip-path="url(#pfec8d722c7)" style="fill: #1f77b4"/>
   </g>
   <g id="patch_116">
    <path d="M 81.960638 178.201795 
L 85.538361 178.201795 
L 85.538361 177.802824 
L 81.960638 177.802824 
z
" clip-path="url(#pfec8d722c7)" style="fill: #1f77b4"/>
   </g>
   <g id="patch_117">
    <path d="M 85.538361 178.201795 
L 89.116084 178.201795 
L 89.116084 178.082104 
L 85.538361 178.082104 
z
" clip-path="url(#pfec8d722c7)" style="fill: #1f77b4"/>
   </g>
   <g id="patch_118">
    <path d="M 89.116084 178.201795 
L 92.693807 178.201795 
L 92.693807 177.882618 
L 89.116084 177.882618 
z
" clip-path="url(#pfec8d722c7)" style="fill: #1f77b4"/>
   </g>
   <g id="patch_119">
    <path d="M 92.693807 178.201795 
L 96.271529 178.201795 
L 96.271529 177.882618 
L 92.693807 177.882618 
z
" clip-path="url(#pfec8d722c7)" style="fill: #1f77b4"/>
   </g>
   <g id="patch_120">
    <path d="M 96.271529 178.201795 
L 99.849252 178.201795 
L 99.849252 177.723029 
L 96.271529 177.723029 
z
" clip-path="url(#pfec8d722c7)" style="fill: #1f77b4"/>
   </g>
   <g id="patch_121">
    <path d="M 99.849252 178.201795 
L 103.426975 178.201795 
L 103.426975 177.882618 
L 99.849252 177.882618 
z
" clip-path="url(#pfec8d722c7)" style="fill: #1f77b4"/>
   </g>
   <g id="patch_122">
    <path d="M 103.426975 178.201795 
L 107.004698 178.201795 
L 107.004698 177.683132 
L 103.426975 177.683132 
z
" clip-path="url(#pfec8d722c7)" style="fill: #1f77b4"/>
   </g>
   <g id="patch_123">
    <path d="M 107.004698 178.201795 
L 110.582421 178.201795 
L 110.582421 177.603338 
L 107.004698 177.603338 
z
" clip-path="url(#pfec8d722c7)" style="fill: #1f77b4"/>
   </g>
   <g id="patch_124">
    <path d="M 110.582421 178.201795 
L 114.160144 178.201795 
L 114.160144 177.483646 
L 110.582421 177.483646 
z
" clip-path="url(#pfec8d722c7)" style="fill: #1f77b4"/>
   </g>
   <g id="patch_125">
    <path d="M 114.160144 178.201795 
L 117.737867 178.201795 
L 117.737867 177.244264 
L 114.160144 177.244264 
z
" clip-path="url(#pfec8d722c7)" style="fill: #1f77b4"/>
   </g>
   <g id="patch_126">
    <path d="M 117.737867 178.201795 
L 121.31559 178.201795 
L 121.31559 176.805395 
L 117.737867 176.805395 
z
" clip-path="url(#pfec8d722c7)" style="fill: #1f77b4"/>
   </g>
   <g id="patch_127">
    <path d="M 121.31559 178.201795 
L 124.893313 178.201795 
L 124.893313 177.483646 
L 121.31559 177.483646 
z
" clip-path="url(#pfec8d722c7)" style="fill: #1f77b4"/>
   </g>
   <g id="patch_128">
    <path d="M 124.893313 178.201795 
L 128.471036 178.201795 
L 128.471036 177.084675 
L 124.893313 177.084675 
z
" clip-path="url(#pfec8d722c7)" style="fill: #1f77b4"/>
   </g>
   <g id="patch_129">
    <path d="M 128.471036 178.201795 
L 132.048759 178.201795 
L 132.048759 176.685704 
L 128.471036 176.685704 
z
" clip-path="url(#pfec8d722c7)" style="fill: #1f77b4"/>
   </g>
   <g id="patch_130">
    <path d="M 132.048759 178.201795 
L 135.626481 178.201795 
L 135.626481 176.366526 
L 132.048759 176.366526 
z
" clip-path="url(#pfec8d722c7)" style="fill: #1f77b4"/>
   </g>
   <g id="patch_131">
    <path d="M 135.626481 178.201795 
L 139.204204 178.201795 
L 139.204204 176.127143 
L 135.626481 176.127143 
z
" clip-path="url(#pfec8d722c7)" style="fill: #1f77b4"/>
   </g>
   <g id="patch_132">
    <path d="M 139.204204 178.201795 
L 142.781927 178.201795 
L 142.781927 175.847863 
L 139.204204 175.847863 
z
" clip-path="url(#pfec8d722c7)" style="fill: #1f77b4"/>
   </g>
   <g id="patch_133">
    <path d="M 142.781927 178.201795 
L 146.35965 178.201795 
L 146.35965 176.326629 
L 142.781927 176.326629 
z
" clip-path="url(#pfec8d722c7)" style="fill: #1f77b4"/>
   </g>
   <g id="patch_134">
    <path d="M 146.35965 178.201795 
L 149.937373 178.201795 
L 149.937373 174.970126 
L 146.35965 174.970126 
z
" clip-path="url(#pfec8d722c7)" style="fill: #1f77b4"/>
   </g>
   <g id="patch_135">
    <path d="M 149.937373 178.201795 
L 153.515096 178.201795 
L 153.515096 174.970126 
L 149.937373 174.970126 
z
" clip-path="url(#pfec8d722c7)" style="fill: #1f77b4"/>
   </g>
   <g id="patch_136">
    <path d="M 153.515096 178.201795 
L 157.092819 178.201795 
L 157.092819 175.329201 
L 153.515096 175.329201 
z
" clip-path="url(#pfec8d722c7)" style="fill: #1f77b4"/>
   </g>
   <g id="patch_137">
    <path d="M 157.092819 178.201795 
L 160.670542 178.201795 
L 160.670542 174.730743 
L 157.092819 174.730743 
z
" clip-path="url(#pfec8d722c7)" style="fill: #1f77b4"/>
   </g>
   <g id="patch_138">
    <path d="M 160.670542 178.201795 
L 164.248265 178.201795 
L 164.248265 174.291875 
L 160.670542 174.291875 
z
" clip-path="url(#pfec8d722c7)" style="fill: #1f77b4"/>
   </g>
   <g id="patch_139">
    <path d="M 164.248265 178.201795 
L 167.825988 178.201795 
L 167.825988 173.693418 
L 164.248265 173.693418 
z
" clip-path="url(#pfec8d722c7)" style="fill: #1f77b4"/>
   </g>
   <g id="patch_140">
    <path d="M 167.825988 178.201795 
L 171.403711 178.201795 
L 171.403711 173.813109 
L 167.825988 173.813109 
z
" clip-path="url(#pfec8d722c7)" style="fill: #1f77b4"/>
   </g>
   <g id="patch_141">
    <path d="M 171.403711 178.201795 
L 174.981433 178.201795 
L 174.981433 173.853006 
L 171.403711 173.853006 
z
" clip-path="url(#pfec8d722c7)" style="fill: #1f77b4"/>
   </g>
   <g id="patch_142">
    <path d="M 174.981433 178.201795 
L 178.559156 178.201795 
L 178.559156 172.975269 
L 174.981433 172.975269 
z
" clip-path="url(#pfec8d722c7)" style="fill: #1f77b4"/>
   </g>
   <g id="patch_143">
    <path d="M 178.559156 178.201795 
L 182.136879 178.201795 
L 182.136879 173.294446 
L 178.559156 173.294446 
z
" clip-path="url(#pfec8d722c7)" style="fill: #1f77b4"/>
   </g>
   <g id="patch_144">
    <path d="M 182.136879 178.201795 
L 185.714602 178.201795 
L 185.714602 172.297018 
L 182.136879 172.297018 
z
" clip-path="url(#pfec8d722c7)" style="fill: #1f77b4"/>
   </g>
   <g id="patch_145">
    <path d="M 185.714602 178.201795 
L 189.292325 178.201795 
L 189.292325 173.374241 
L 185.714602 173.374241 
z
" clip-path="url(#pfec8d722c7)" style="fill: #1f77b4"/>
   </g>
   <g id="patch_146">
    <path d="M 189.292325 178.201795 
L 192.870048 178.201795 
L 192.870048 170.900618 
L 189.292325 170.900618 
z
" clip-path="url(#pfec8d722c7)" style="fill: #1f77b4"/>
   </g>
   <g id="patch_147">
    <path d="M 192.870048 178.201795 
L 196.447771 178.201795 
L 196.447771 170.86072 
L 192.870048 170.86072 
z
" clip-path="url(#pfec8d722c7)" style="fill: #1f77b4"/>
   </g>
   <g id="patch_148">
    <path d="M 196.447771 178.201795 
L 200.025494 178.201795 
L 200.025494 169.823395 
L 196.447771 169.823395 
z
" clip-path="url(#pfec8d722c7)" style="fill: #1f77b4"/>
   </g>
   <g id="patch_149">
    <path d="M 200.025494 178.201795 
L 203.603217 178.201795 
L 203.603217 170.142572 
L 200.025494 170.142572 
z
" clip-path="url(#pfec8d722c7)" style="fill: #1f77b4"/>
   </g>
   <g id="patch_150">
    <path d="M 203.603217 178.201795 
L 207.18094 178.201795 
L 207.18094 169.105246 
L 203.603217 169.105246 
z
" clip-path="url(#pfec8d722c7)" style="fill: #1f77b4"/>
   </g>
   <g id="patch_151">
    <path d="M 207.18094 178.201795 
L 210.758663 178.201795 
L 210.758663 168.546686 
L 207.18094 168.546686 
z
" clip-path="url(#pfec8d722c7)" style="fill: #1f77b4"/>
   </g>
   <g id="patch_152">
    <path d="M 210.758663 178.201795 
L 214.336385 178.201795 
L 214.336385 168.028023 
L 210.758663 168.028023 
z
" clip-path="url(#pfec8d722c7)" style="fill: #1f77b4"/>
   </g>
   <g id="patch_153">
    <path d="M 214.336385 178.201795 
L 217.914108 178.201795 
L 217.914108 166.791212 
L 214.336385 166.791212 
z
" clip-path="url(#pfec8d722c7)" style="fill: #1f77b4"/>
   </g>
   <g id="patch_154">
    <path d="M 217.914108 178.201795 
L 221.491831 178.201795 
L 221.491831 167.549257 
L 217.914108 167.549257 
z
" clip-path="url(#pfec8d722c7)" style="fill: #1f77b4"/>
   </g>
   <g id="patch_155">
    <path d="M 221.491831 178.201795 
L 225.069554 178.201795 
L 225.069554 166.232652 
L 221.491831 166.232652 
z
" clip-path="url(#pfec8d722c7)" style="fill: #1f77b4"/>
   </g>
   <g id="patch_156">
    <path d="M 225.069554 178.201795 
L 228.647277 178.201795 
L 228.647277 166.791212 
L 225.069554 166.791212 
z
" clip-path="url(#pfec8d722c7)" style="fill: #1f77b4"/>
   </g>
   <g id="patch_157">
    <path d="M 228.647277 178.201795 
L 232.225 178.201795 
L 232.225 165.155429 
L 228.647277 165.155429 
z
" clip-path="url(#pfec8d722c7)" style="fill: #1f77b4"/>
   </g>
   <g id="patch_158">
    <path d="M 232.225 178.201795 
L 235.802723 178.201795 
L 235.802723 165.793783 
L 232.225 165.793783 
z
" clip-path="url(#pfec8d722c7)" style="fill: #1f77b4"/>
   </g>
   <g id="patch_159">
    <path d="M 235.802723 178.201795 
L 239.380446 178.201795 
L 239.380446 165.913475 
L 235.802723 165.913475 
z
" clip-path="url(#pfec8d722c7)" style="fill: #1f77b4"/>
   </g>
   <g id="patch_160">
    <path d="M 239.380446 178.201795 
L 242.958169 178.201795 
L 242.958169 164.197897 
L 239.380446 164.197897 
z
" clip-path="url(#pfec8d722c7)" style="fill: #1f77b4"/>
   </g>
   <g id="patch_161">
    <path d="M 242.958169 178.201795 
L 246.535892 178.201795 
L 246.535892 163.479749 
L 242.958169 163.479749 
z
" clip-path="url(#pfec8d722c7)" style="fill: #1f77b4"/>
   </g>
   <g id="patch_162">
    <path d="M 246.535892 178.201795 
L 250.113615 178.201795 
L 250.113615 164.038309 
L 246.535892 164.038309 
z
" clip-path="url(#pfec8d722c7)" style="fill: #1f77b4"/>
   </g>
   <g id="patch_163">
    <path d="M 250.113615 178.201795 
L 253.691337 178.201795 
L 253.691337 162.083349 
L 250.113615 162.083349 
z
" clip-path="url(#pfec8d722c7)" style="fill: #1f77b4"/>
   </g>
   <g id="patch_164">
    <path d="M 253.691337 178.201795 
L 257.26906 178.201795 
L 257.26906 162.841394 
L 253.691337 162.841394 
z
" clip-path="url(#pfec8d722c7)" style="fill: #1f77b4"/>
   </g>
   <g id="patch_165">
    <path d="M 257.26906 178.201795 
L 260.846783 178.201795 
L 260.846783 161.883863 
L 257.26906 161.883863 
z
" clip-path="url(#pfec8d722c7)" style="fill: #1f77b4"/>
   </g>
   <g id="patch_166">
    <path d="M 260.846783 178.201795 
L 264.424506 178.201795 
L 264.424506 161.843966 
L 260.846783 161.843966 
z
" clip-path="url(#pfec8d722c7)" style="fill: #1f77b4"/>
   </g>
   <g id="patch_167">
    <path d="M 264.424506 178.201795 
L 268.002229 178.201795 
L 268.002229 162.242937 
L 264.424506 162.242937 
z
" clip-path="url(#pfec8d722c7)" style="fill: #1f77b4"/>
   </g>
   <g id="patch_168">
    <path d="M 268.002229 178.201795 
L 271.579952 178.201795 
L 271.579952 160.287977 
L 268.002229 160.287977 
z
" clip-path="url(#pfec8d722c7)" style="fill: #1f77b4"/>
   </g>
   <g id="patch_169">
    <path d="M 271.579952 178.201795 
L 275.157675 178.201795 
L 275.157675 159.330446 
L 271.579952 159.330446 
z
" clip-path="url(#pfec8d722c7)" style="fill: #1f77b4"/>
   </g>
   <g id="patch_170">
    <path d="M 275.157675 178.201795 
L 278.735398 178.201795 
L 278.735398 159.210754 
L 275.157675 159.210754 
z
" clip-path="url(#pfec8d722c7)" style="fill: #1f77b4"/>
   </g>
   <g id="patch_171">
    <path d="M 278.735398 178.201795 
L 282.313121 178.201795 
L 282.313121 158.412811 
L 278.735398 158.412811 
z
" clip-path="url(#pfec8d722c7)" style="fill: #1f77b4"/>
   </g>
   <g id="patch_172">
    <path d="M 282.313121 178.201795 
L 285.890844 178.201795 
L 285.890844 161.444994 
L 282.313121 161.444994 
z
" clip-path="url(#pfec8d722c7)" style="fill: #1f77b4"/>
   </g>
   <g id="patch_173">
    <path d="M 285.890844 178.201795 
L 289.468567 178.201795 
L 289.468567 158.692091 
L 285.890844 158.692091 
z
" clip-path="url(#pfec8d722c7)" style="fill: #1f77b4"/>
   </g>
   <g id="patch_174">
    <path d="M 289.468567 178.201795 
L 293.046289 178.201795 
L 293.046289 157.854251 
L 289.468567 157.854251 
z
" clip-path="url(#pfec8d722c7)" style="fill: #1f77b4"/>
   </g>
   <g id="patch_175">
    <path d="M 293.046289 178.201795 
L 296.624012 178.201795 
L 296.624012 158.173429 
L 293.046289 158.173429 
z
" clip-path="url(#pfec8d722c7)" style="fill: #1f77b4"/>
   </g>
   <g id="patch_176">
    <path d="M 296.624012 178.201795 
L 300.201735 178.201795 
L 300.201735 157.934046 
L 296.624012 157.934046 
z
" clip-path="url(#pfec8d722c7)" style="fill: #1f77b4"/>
   </g>
   <g id="patch_177">
    <path d="M 300.201735 178.201795 
L 303.779458 178.201795 
L 303.779458 157.654766 
L 300.201735 157.654766 
z
" clip-path="url(#pfec8d722c7)" style="fill: #1f77b4"/>
   </g>
   <g id="patch_178">
    <path d="M 303.779458 178.201795 
L 307.357181 178.201795 
L 307.357181 157.255794 
L 303.779458 157.255794 
z
" clip-path="url(#pfec8d722c7)" style="fill: #1f77b4"/>
   </g>
   <g id="patch_179">
    <path d="M 307.357181 178.201795 
L 310.934904 178.201795 
L 310.934904 156.457851 
L 307.357181 156.457851 
z
" clip-path="url(#pfec8d722c7)" style="fill: #1f77b4"/>
   </g>
   <g id="patch_180">
    <path d="M 310.934904 178.201795 
L 314.512627 178.201795 
L 314.512627 156.537646 
L 310.934904 156.537646 
z
" clip-path="url(#pfec8d722c7)" style="fill: #1f77b4"/>
   </g>
   <g id="patch_181">
    <path d="M 314.512627 178.201795 
L 318.09035 178.201795 
L 318.09035 157.694663 
L 314.512627 157.694663 
z
" clip-path="url(#pfec8d722c7)" style="fill: #1f77b4"/>
   </g>
   <g id="patch_182">
    <path d="M 318.09035 178.201795 
L 321.668073 178.201795 
L 321.668073 156.378057 
L 318.09035 156.378057 
z
" clip-path="url(#pfec8d722c7)" style="fill: #1f77b4"/>
   </g>
   <g id="patch_183">
    <path d="M 321.668073 178.201795 
L 325.245796 178.201795 
L 325.245796 156.89672 
L 321.668073 156.89672 
z
" clip-path="url(#pfec8d722c7)" style="fill: #1f77b4"/>
   </g>
   <g id="patch_184">
    <path d="M 325.245796 178.201795 
L 328.823519 178.201795 
L 328.823519 155.659908 
L 325.245796 155.659908 
z
" clip-path="url(#pfec8d722c7)" style="fill: #1f77b4"/>
   </g>
   <g id="patch_185">
    <path d="M 328.823519 178.201795 
L 332.401241 178.201795 
L 332.401241 156.936617 
L 328.823519 156.936617 
z
" clip-path="url(#pfec8d722c7)" style="fill: #1f77b4"/>
   </g>
   <g id="patch_186">
    <path d="M 332.401241 178.201795 
L 335.978964 178.201795 
L 335.978964 156.258366 
L 332.401241 156.258366 
z
" clip-path="url(#pfec8d722c7)" style="fill: #1f77b4"/>
   </g>
   <g id="patch_187">
    <path d="M 335.978964 178.201795 
L 339.556687 178.201795 
L 339.556687 154.901863 
L 335.978964 154.901863 
z
" clip-path="url(#pfec8d722c7)" style="fill: #1f77b4"/>
   </g>
   <g id="patch_188">
    <path d="M 339.556687 178.201795 
L 343.13441 178.201795 
L 343.13441 156.018983 
L 339.556687 156.018983 
z
" clip-path="url(#pfec8d722c7)" style="fill: #1f77b4"/>
   </g>
   <g id="patch_189">
    <path d="M 343.13441 178.201795 
L 346.712133 178.201795 
L 346.712133 157.375486 
L 343.13441 157.375486 
z
" clip-path="url(#pfec8d722c7)" style="fill: #1f77b4"/>
   </g>
   <g id="patch_190">
    <path d="M 346.712133 178.201795 
L 350.289856 178.201795 
L 350.289856 157.614868 
L 346.712133 157.614868 
z
" clip-path="url(#pfec8d722c7)" style="fill: #1f77b4"/>
   </g>
   <g id="patch_191">
    <path d="M 350.289856 178.201795 
L 353.867579 178.201795 
L 353.867579 156.258366 
L 350.289856 156.258366 
z
" clip-path="url(#pfec8d722c7)" style="fill: #1f77b4"/>
   </g>
   <g id="patch_192">
    <path d="M 353.867579 178.201795 
L 357.445302 178.201795 
L 357.445302 157.176 
L 353.867579 157.176 
z
" clip-path="url(#pfec8d722c7)" style="fill: #1f77b4"/>
   </g>
   <g id="patch_193">
    <path d="M 357.445302 178.201795 
L 361.023025 178.201795 
L 361.023025 159.729417 
L 357.445302 159.729417 
z
" clip-path="url(#pfec8d722c7)" style="fill: #1f77b4"/>
   </g>
   <g id="patch_194">
    <path d="M 361.023025 178.201795 
L 364.600748 178.201795 
L 364.600748 158.612297 
L 361.023025 158.612297 
z
" clip-path="url(#pfec8d722c7)" style="fill: #1f77b4"/>
   </g>
   <g id="patch_195">
    <path d="M 364.600748 178.201795 
L 368.178471 178.201795 
L 368.178471 158.333017 
L 364.600748 158.333017 
z
" clip-path="url(#pfec8d722c7)" style="fill: #1f77b4"/>
   </g>
   <g id="patch_196">
    <path d="M 368.178471 178.201795 
L 371.756193 178.201795 
L 371.756193 159.889006 
L 368.178471 159.889006 
z
" clip-path="url(#pfec8d722c7)" style="fill: #1f77b4"/>
   </g>
   <g id="patch_197">
    <path d="M 371.756193 178.201795 
L 375.333916 178.201795 
L 375.333916 161.245509 
L 371.756193 161.245509 
z
" clip-path="url(#pfec8d722c7)" style="fill: #1f77b4"/>
   </g>
   <g id="patch_198">
    <path d="M 375.333916 178.201795 
L 378.911639 178.201795 
L 378.911639 162.721703 
L 375.333916 162.721703 
z
" clip-path="url(#pfec8d722c7)" style="fill: #1f77b4"/>
   </g>
   <g id="patch_199">
    <path d="M 378.911639 178.201795 
L 382.489362 178.201795 
L 382.489362 164.916046 
L 378.911639 164.916046 
z
" clip-path="url(#pfec8d722c7)" style="fill: #1f77b4"/>
   </g>
   <g id="patch_200">
    <path d="M 382.489362 178.201795 
L 386.067085 178.201795 
L 386.067085 165.514503 
L 382.489362 165.514503 
z
" clip-path="url(#pfec8d722c7)" style="fill: #1f77b4"/>
   </g>
   <g id="patch_201">
    <path d="M 386.067085 178.201795 
L 389.644808 178.201795 
L 389.644808 165.873577 
L 386.067085 165.873577 
z
" clip-path="url(#pfec8d722c7)" style="fill: #1f77b4"/>
   </g>
   <g id="patch_202">
    <path d="M 389.644808 178.201795 
L 393.222531 178.201795 
L 393.222531 167.748743 
L 389.644808 167.748743 
z
" clip-path="url(#pfec8d722c7)" style="fill: #1f77b4"/>
   </g>
   <g id="patch_203">
    <path d="M 393.222531 178.201795 
L 396.800254 178.201795 
L 396.800254 170.062778 
L 393.222531 170.062778 
z
" clip-path="url(#pfec8d722c7)" style="fill: #1f77b4"/>
   </g>
   <g id="patch_204">
    <path d="M 396.800254 178.201795 
L 400.377977 178.201795 
L 400.377977 171.060206 
L 396.800254 171.060206 
z
" clip-path="url(#pfec8d722c7)" style="fill: #1f77b4"/>
   </g>
   <g id="patch_205">
    <path d="M 400.377977 178.201795 
L 403.9557 178.201795 
L 403.9557 171.658663 
L 400.377977 171.658663 
z
" clip-path="url(#pfec8d722c7)" style="fill: #1f77b4"/>
   </g>
   <g id="patch_206">
    <path d="M 403.9557 178.201795 
L 407.533423 178.201795 
L 407.533423 174.052492 
L 403.9557 174.052492 
z
" clip-path="url(#pfec8d722c7)" style="fill: #1f77b4"/>
   </g>
   <g id="patch_207">
    <path d="M 407.533423 178.201795 
L 411.111145 178.201795 
L 411.111145 176.366526 
L 407.533423 176.366526 
z
" clip-path="url(#pfec8d722c7)" style="fill: #1f77b4"/>
   </g>
   <g id="matplotlib.axis_3">
    <g id="xtick_8">
     <g id="line2d_10">
      <g>
       <use xlink:href="#m9d7d44abb6" x="73.329477" y="178.201795" style="stroke: #000000; stroke-width: 0.8"/>
      </g>
     </g>
     <g id="text_11">
      <!-- 500 -->
      <g transform="translate(63.785727 192.800232)scale(0.1 -0.1)">
       <use xlink:href="#DejaVuSans-35"/>
       <use xlink:href="#DejaVuSans-30" x="63.623047"/>
       <use xlink:href="#DejaVuSans-30" x="127.246094"/>
      </g>
     </g>
    </g>
    <g id="xtick_9">
     <g id="line2d_11">
      <g>
       <use xlink:href="#m9d7d44abb6" x="136.67469" y="178.201795" style="stroke: #000000; stroke-width: 0.8"/>
      </g>
     </g>
     <g id="text_12">
      <!-- 1000 -->
      <g transform="translate(123.94969 192.800232)scale(0.1 -0.1)">
       <use xlink:href="#DejaVuSans-31"/>
       <use xlink:href="#DejaVuSans-30" x="63.623047"/>
       <use xlink:href="#DejaVuSans-30" x="127.246094"/>
       <use xlink:href="#DejaVuSans-30" x="190.869141"/>
      </g>
     </g>
    </g>
    <g id="xtick_10">
     <g id="line2d_12">
      <g>
       <use xlink:href="#m9d7d44abb6" x="200.019903" y="178.201795" style="stroke: #000000; stroke-width: 0.8"/>
      </g>
     </g>
     <g id="text_13">
      <!-- 1500 -->
      <g transform="translate(187.294903 192.800232)scale(0.1 -0.1)">
       <use xlink:href="#DejaVuSans-31"/>
       <use xlink:href="#DejaVuSans-35" x="63.623047"/>
       <use xlink:href="#DejaVuSans-30" x="127.246094"/>
       <use xlink:href="#DejaVuSans-30" x="190.869141"/>
      </g>
     </g>
    </g>
    <g id="xtick_11">
     <g id="line2d_13">
      <g>
       <use xlink:href="#m9d7d44abb6" x="263.365116" y="178.201795" style="stroke: #000000; stroke-width: 0.8"/>
      </g>
     </g>
     <g id="text_14">
      <!-- 2000 -->
      <g transform="translate(250.640116 192.800232)scale(0.1 -0.1)">
       <use xlink:href="#DejaVuSans-32"/>
       <use xlink:href="#DejaVuSans-30" x="63.623047"/>
       <use xlink:href="#DejaVuSans-30" x="127.246094"/>
       <use xlink:href="#DejaVuSans-30" x="190.869141"/>
      </g>
     </g>
    </g>
    <g id="xtick_12">
     <g id="line2d_14">
      <g>
       <use xlink:href="#m9d7d44abb6" x="326.710329" y="178.201795" style="stroke: #000000; stroke-width: 0.8"/>
      </g>
     </g>
     <g id="text_15">
      <!-- 2500 -->
      <g transform="translate(313.985329 192.800232)scale(0.1 -0.1)">
       <use xlink:href="#DejaVuSans-32"/>
       <use xlink:href="#DejaVuSans-35" x="63.623047"/>
       <use xlink:href="#DejaVuSans-30" x="127.246094"/>
       <use xlink:href="#DejaVuSans-30" x="190.869141"/>
      </g>
     </g>
    </g>
    <g id="xtick_13">
     <g id="line2d_15">
      <g>
       <use xlink:href="#m9d7d44abb6" x="390.055541" y="178.201795" style="stroke: #000000; stroke-width: 0.8"/>
      </g>
     </g>
     <g id="text_16">
      <!-- 3000 -->
      <g transform="translate(377.330541 192.800232)scale(0.1 -0.1)">
       <use xlink:href="#DejaVuSans-33"/>
       <use xlink:href="#DejaVuSans-30" x="63.623047"/>
       <use xlink:href="#DejaVuSans-30" x="127.246094"/>
       <use xlink:href="#DejaVuSans-30" x="190.869141"/>
      </g>
     </g>
    </g>
   </g>
   <g id="matplotlib.axis_4">
    <g id="ytick_3">
     <g id="line2d_16">
      <g>
       <use xlink:href="#m42ce06174a" x="35.45024" y="178.201795" style="stroke: #000000; stroke-width: 0.8"/>
      </g>
     </g>
     <g id="text_17">
      <!-- 0 -->
      <g transform="translate(22.08774 182.001014)scale(0.1 -0.1)">
       <use xlink:href="#DejaVuSans-30"/>
      </g>
     </g>
    </g>
    <g id="ytick_4">
     <g id="line2d_17">
      <g>
       <use xlink:href="#m42ce06174a" x="35.45024" y="138.304651" style="stroke: #000000; stroke-width: 0.8"/>
      </g>
     </g>
     <g id="text_18">
      <!-- 1000 -->
      <g transform="translate(3.00024 142.103869)scale(0.1 -0.1)">
       <use xlink:href="#DejaVuSans-31"/>
       <use xlink:href="#DejaVuSans-30" x="63.623047"/>
       <use xlink:href="#DejaVuSans-30" x="127.246094"/>
       <use xlink:href="#DejaVuSans-30" x="190.869141"/>
      </g>
     </g>
    </g>
   </g>
   <g id="patch_208">
    <path d="M 35.45024 178.201795 
L 35.45024 125.878685 
" style="fill: none; stroke: #000000; stroke-width: 0.8; stroke-linejoin: miter; stroke-linecap: square"/>
   </g>
   <g id="patch_209">
    <path d="M 428.99976 178.201795 
L 428.99976 125.878685 
" style="fill: none; stroke: #000000; stroke-width: 0.8; stroke-linejoin: miter; stroke-linecap: square"/>
   </g>
   <g id="patch_210">
    <path d="M 35.45024 178.201795 
L 428.99976 178.201795 
" style="fill: none; stroke: #000000; stroke-width: 0.8; stroke-linejoin: miter; stroke-linecap: square"/>
   </g>
   <g id="patch_211">
    <path d="M 35.45024 125.878685 
L 428.99976 125.878685 
" style="fill: none; stroke: #000000; stroke-width: 0.8; stroke-linejoin: miter; stroke-linecap: square"/>
   </g>
   <g id="text_19">
    <!-- $\nu_2$ -->
    <g transform="translate(225.985 119.878685)scale(0.12 -0.12)">
     <use xlink:href="#DejaVuSans-Oblique-3bd" transform="translate(0 0.3125)"/>
     <use xlink:href="#DejaVuSans-32" transform="translate(55.859375 -16.09375)scale(0.7)"/>
    </g>
   </g>
  </g>
  <g id="axes_3">
   <g id="patch_212">
    <path d="M 35.45024 268.321635 
L 428.99976 268.321635 
L 428.99976 215.998525 
L 35.45024 215.998525 
z
" style="fill: #ffffff"/>
   </g>
   <g id="patch_213">
    <path d="M 53.338855 268.321635 
L 56.916577 268.321635 
L 56.916577 268.281738 
L 53.338855 268.281738 
z
" clip-path="url(#p0949ecedfa)" style="fill: #1f77b4"/>
   </g>
   <g id="patch_214">
    <path d="M 56.916577 268.321635 
L 60.4943 268.321635 
L 60.4943 268.321635 
L 56.916577 268.321635 
z
" clip-path="url(#p0949ecedfa)" style="fill: #1f77b4"/>
   </g>
   <g id="patch_215">
    <path d="M 60.4943 268.321635 
L 64.072023 268.321635 
L 64.072023 268.321635 
L 60.4943 268.321635 
z
" clip-path="url(#p0949ecedfa)" style="fill: #1f77b4"/>
   </g>
   <g id="patch_216">
    <path d="M 64.072023 268.321635 
L 67.649746 268.321635 
L 67.649746 268.321635 
L 64.072023 268.321635 
z
" clip-path="url(#p0949ecedfa)" style="fill: #1f77b4"/>
   </g>
   <g id="patch_217">
    <path d="M 67.649746 268.321635 
L 71.227469 268.321635 
L 71.227469 268.321635 
L 67.649746 268.321635 
z
" clip-path="url(#p0949ecedfa)" style="fill: #1f77b4"/>
   </g>
   <g id="patch_218">
    <path d="M 71.227469 268.321635 
L 74.805192 268.321635 
L 74.805192 268.321635 
L 71.227469 268.321635 
z
" clip-path="url(#p0949ecedfa)" style="fill: #1f77b4"/>
   </g>
   <g id="patch_219">
    <path d="M 74.805192 268.321635 
L 78.382915 268.321635 
L 78.382915 268.321635 
L 74.805192 268.321635 
z
" clip-path="url(#p0949ecedfa)" style="fill: #1f77b4"/>
   </g>
   <g id="patch_220">
    <path d="M 78.382915 268.321635 
L 81.960638 268.321635 
L 81.960638 268.281738 
L 78.382915 268.281738 
z
" clip-path="url(#p0949ecedfa)" style="fill: #1f77b4"/>
   </g>
   <g id="patch_221">
    <path d="M 81.960638 268.321635 
L 85.538361 268.321635 
L 85.538361 268.321635 
L 81.960638 268.321635 
z
" clip-path="url(#p0949ecedfa)" style="fill: #1f77b4"/>
   </g>
   <g id="patch_222">
    <path d="M 85.538361 268.321635 
L 89.116084 268.321635 
L 89.116084 268.321635 
L 85.538361 268.321635 
z
" clip-path="url(#p0949ecedfa)" style="fill: #1f77b4"/>
   </g>
   <g id="patch_223">
    <path d="M 89.116084 268.321635 
L 92.693807 268.321635 
L 92.693807 268.281738 
L 89.116084 268.281738 
z
" clip-path="url(#p0949ecedfa)" style="fill: #1f77b4"/>
   </g>
   <g id="patch_224">
    <path d="M 92.693807 268.321635 
L 96.271529 268.321635 
L 96.271529 268.321635 
L 92.693807 268.321635 
z
" clip-path="url(#p0949ecedfa)" style="fill: #1f77b4"/>
   </g>
   <g id="patch_225">
    <path d="M 96.271529 268.321635 
L 99.849252 268.321635 
L 99.849252 268.321635 
L 96.271529 268.321635 
z
" clip-path="url(#p0949ecedfa)" style="fill: #1f77b4"/>
   </g>
   <g id="patch_226">
    <path d="M 99.849252 268.321635 
L 103.426975 268.321635 
L 103.426975 268.321635 
L 99.849252 268.321635 
z
" clip-path="url(#p0949ecedfa)" style="fill: #1f77b4"/>
   </g>
   <g id="patch_227">
    <path d="M 103.426975 268.321635 
L 107.004698 268.321635 
L 107.004698 268.162046 
L 103.426975 268.162046 
z
" clip-path="url(#p0949ecedfa)" style="fill: #1f77b4"/>
   </g>
   <g id="patch_228">
    <path d="M 107.004698 268.321635 
L 110.582421 268.321635 
L 110.582421 268.122149 
L 107.004698 268.122149 
z
" clip-path="url(#p0949ecedfa)" style="fill: #1f77b4"/>
   </g>
   <g id="patch_229">
    <path d="M 110.582421 268.321635 
L 114.160144 268.321635 
L 114.160144 268.241841 
L 110.582421 268.241841 
z
" clip-path="url(#p0949ecedfa)" style="fill: #1f77b4"/>
   </g>
   <g id="patch_230">
    <path d="M 114.160144 268.321635 
L 117.737867 268.321635 
L 117.737867 268.082252 
L 114.160144 268.082252 
z
" clip-path="url(#p0949ecedfa)" style="fill: #1f77b4"/>
   </g>
   <g id="patch_231">
    <path d="M 117.737867 268.321635 
L 121.31559 268.321635 
L 121.31559 268.082252 
L 117.737867 268.082252 
z
" clip-path="url(#p0949ecedfa)" style="fill: #1f77b4"/>
   </g>
   <g id="patch_232">
    <path d="M 121.31559 268.321635 
L 124.893313 268.321635 
L 124.893313 268.162046 
L 121.31559 268.162046 
z
" clip-path="url(#p0949ecedfa)" style="fill: #1f77b4"/>
   </g>
   <g id="patch_233">
    <path d="M 124.893313 268.321635 
L 128.471036 268.321635 
L 128.471036 268.162046 
L 124.893313 268.162046 
z
" clip-path="url(#p0949ecedfa)" style="fill: #1f77b4"/>
   </g>
   <g id="patch_234">
    <path d="M 128.471036 268.321635 
L 132.048759 268.321635 
L 132.048759 268.082252 
L 128.471036 268.082252 
z
" clip-path="url(#p0949ecedfa)" style="fill: #1f77b4"/>
   </g>
   <g id="patch_235">
    <path d="M 132.048759 268.321635 
L 135.626481 268.321635 
L 135.626481 268.162046 
L 132.048759 268.162046 
z
" clip-path="url(#p0949ecedfa)" style="fill: #1f77b4"/>
   </g>
   <g id="patch_236">
    <path d="M 135.626481 268.321635 
L 139.204204 268.321635 
L 139.204204 268.042355 
L 135.626481 268.042355 
z
" clip-path="url(#p0949ecedfa)" style="fill: #1f77b4"/>
   </g>
   <g id="patch_237">
    <path d="M 139.204204 268.321635 
L 142.781927 268.321635 
L 142.781927 267.763075 
L 139.204204 267.763075 
z
" clip-path="url(#p0949ecedfa)" style="fill: #1f77b4"/>
   </g>
   <g id="patch_238">
    <path d="M 142.781927 268.321635 
L 146.35965 268.321635 
L 146.35965 268.122149 
L 142.781927 268.122149 
z
" clip-path="url(#p0949ecedfa)" style="fill: #1f77b4"/>
   </g>
   <g id="patch_239">
    <path d="M 146.35965 268.321635 
L 149.937373 268.321635 
L 149.937373 267.842869 
L 146.35965 267.842869 
z
" clip-path="url(#p0949ecedfa)" style="fill: #1f77b4"/>
   </g>
   <g id="patch_240">
    <path d="M 149.937373 268.321635 
L 153.515096 268.321635 
L 153.515096 268.162046 
L 149.937373 268.162046 
z
" clip-path="url(#p0949ecedfa)" style="fill: #1f77b4"/>
   </g>
   <g id="patch_241">
    <path d="M 153.515096 268.321635 
L 157.092819 268.321635 
L 157.092819 267.723178 
L 153.515096 267.723178 
z
" clip-path="url(#p0949ecedfa)" style="fill: #1f77b4"/>
   </g>
   <g id="patch_242">
    <path d="M 157.092819 268.321635 
L 160.670542 268.321635 
L 160.670542 267.723178 
L 157.092819 267.723178 
z
" clip-path="url(#p0949ecedfa)" style="fill: #1f77b4"/>
   </g>
   <g id="patch_243">
    <path d="M 160.670542 268.321635 
L 164.248265 268.321635 
L 164.248265 267.683281 
L 160.670542 267.683281 
z
" clip-path="url(#p0949ecedfa)" style="fill: #1f77b4"/>
   </g>
   <g id="patch_244">
    <path d="M 164.248265 268.321635 
L 167.825988 268.321635 
L 167.825988 267.643384 
L 164.248265 267.643384 
z
" clip-path="url(#p0949ecedfa)" style="fill: #1f77b4"/>
   </g>
   <g id="patch_245">
    <path d="M 167.825988 268.321635 
L 171.403711 268.321635 
L 171.403711 267.603486 
L 167.825988 267.603486 
z
" clip-path="url(#p0949ecedfa)" style="fill: #1f77b4"/>
   </g>
   <g id="patch_246">
    <path d="M 171.403711 268.321635 
L 174.981433 268.321635 
L 174.981433 267.364104 
L 171.403711 267.364104 
z
" clip-path="url(#p0949ecedfa)" style="fill: #1f77b4"/>
   </g>
   <g id="patch_247">
    <path d="M 174.981433 268.321635 
L 178.559156 268.321635 
L 178.559156 267.284309 
L 174.981433 267.284309 
z
" clip-path="url(#p0949ecedfa)" style="fill: #1f77b4"/>
   </g>
   <g id="patch_248">
    <path d="M 178.559156 268.321635 
L 182.136879 268.321635 
L 182.136879 267.364104 
L 178.559156 267.364104 
z
" clip-path="url(#p0949ecedfa)" style="fill: #1f77b4"/>
   </g>
   <g id="patch_249">
    <path d="M 182.136879 268.321635 
L 185.714602 268.321635 
L 185.714602 267.523692 
L 182.136879 267.523692 
z
" clip-path="url(#p0949ecedfa)" style="fill: #1f77b4"/>
   </g>
   <g id="patch_250">
    <path d="M 185.714602 268.321635 
L 189.292325 268.321635 
L 189.292325 267.084824 
L 185.714602 267.084824 
z
" clip-path="url(#p0949ecedfa)" style="fill: #1f77b4"/>
   </g>
   <g id="patch_251">
    <path d="M 189.292325 268.321635 
L 192.870048 268.321635 
L 192.870048 266.845441 
L 189.292325 266.845441 
z
" clip-path="url(#p0949ecedfa)" style="fill: #1f77b4"/>
   </g>
   <g id="patch_252">
    <path d="M 192.870048 268.321635 
L 196.447771 268.321635 
L 196.447771 266.526264 
L 192.870048 266.526264 
z
" clip-path="url(#p0949ecedfa)" style="fill: #1f77b4"/>
   </g>
   <g id="patch_253">
    <path d="M 196.447771 268.321635 
L 200.025494 268.321635 
L 200.025494 266.566161 
L 196.447771 266.566161 
z
" clip-path="url(#p0949ecedfa)" style="fill: #1f77b4"/>
   </g>
   <g id="patch_254">
    <path d="M 200.025494 268.321635 
L 203.603217 268.321635 
L 203.603217 266.685852 
L 200.025494 266.685852 
z
" clip-path="url(#p0949ecedfa)" style="fill: #1f77b4"/>
   </g>
   <g id="patch_255">
    <path d="M 203.603217 268.321635 
L 207.18094 268.321635 
L 207.18094 266.526264 
L 203.603217 266.526264 
z
" clip-path="url(#p0949ecedfa)" style="fill: #1f77b4"/>
   </g>
   <g id="patch_256">
    <path d="M 207.18094 268.321635 
L 210.758663 268.321635 
L 210.758663 266.207086 
L 207.18094 266.207086 
z
" clip-path="url(#p0949ecedfa)" style="fill: #1f77b4"/>
   </g>
   <g id="patch_257">
    <path d="M 210.758663 268.321635 
L 214.336385 268.321635 
L 214.336385 266.127292 
L 210.758663 266.127292 
z
" clip-path="url(#p0949ecedfa)" style="fill: #1f77b4"/>
   </g>
   <g id="patch_258">
    <path d="M 214.336385 268.321635 
L 217.914108 268.321635 
L 217.914108 266.326778 
L 214.336385 266.326778 
z
" clip-path="url(#p0949ecedfa)" style="fill: #1f77b4"/>
   </g>
   <g id="patch_259">
    <path d="M 217.914108 268.321635 
L 221.491831 268.321635 
L 221.491831 265.608629 
L 217.914108 265.608629 
z
" clip-path="url(#p0949ecedfa)" style="fill: #1f77b4"/>
   </g>
   <g id="patch_260">
    <path d="M 221.491831 268.321635 
L 225.069554 268.321635 
L 225.069554 265.449041 
L 221.491831 265.449041 
z
" clip-path="url(#p0949ecedfa)" style="fill: #1f77b4"/>
   </g>
   <g id="patch_261">
    <path d="M 225.069554 268.321635 
L 228.647277 268.321635 
L 228.647277 265.129863 
L 225.069554 265.129863 
z
" clip-path="url(#p0949ecedfa)" style="fill: #1f77b4"/>
   </g>
   <g id="patch_262">
    <path d="M 228.647277 268.321635 
L 232.225 268.321635 
L 232.225 264.730892 
L 228.647277 264.730892 
z
" clip-path="url(#p0949ecedfa)" style="fill: #1f77b4"/>
   </g>
   <g id="patch_263">
    <path d="M 232.225 268.321635 
L 235.802723 268.321635 
L 235.802723 265.089966 
L 232.225 265.089966 
z
" clip-path="url(#p0949ecedfa)" style="fill: #1f77b4"/>
   </g>
   <g id="patch_264">
    <path d="M 235.802723 268.321635 
L 239.380446 268.321635 
L 239.380446 263.773361 
L 235.802723 263.773361 
z
" clip-path="url(#p0949ecedfa)" style="fill: #1f77b4"/>
   </g>
   <g id="patch_265">
    <path d="M 239.380446 268.321635 
L 242.958169 268.321635 
L 242.958169 263.454183 
L 239.380446 263.454183 
z
" clip-path="url(#p0949ecedfa)" style="fill: #1f77b4"/>
   </g>
   <g id="patch_266">
    <path d="M 242.958169 268.321635 
L 246.535892 268.321635 
L 246.535892 263.334492 
L 242.958169 263.334492 
z
" clip-path="url(#p0949ecedfa)" style="fill: #1f77b4"/>
   </g>
   <g id="patch_267">
    <path d="M 246.535892 268.321635 
L 250.113615 268.321635 
L 250.113615 263.813258 
L 246.535892 263.813258 
z
" clip-path="url(#p0949ecedfa)" style="fill: #1f77b4"/>
   </g>
   <g id="patch_268">
    <path d="M 250.113615 268.321635 
L 253.691337 268.321635 
L 253.691337 262.935521 
L 250.113615 262.935521 
z
" clip-path="url(#p0949ecedfa)" style="fill: #1f77b4"/>
   </g>
   <g id="patch_269">
    <path d="M 253.691337 268.321635 
L 257.26906 268.321635 
L 257.26906 261.938092 
L 253.691337 261.938092 
z
" clip-path="url(#p0949ecedfa)" style="fill: #1f77b4"/>
   </g>
   <g id="patch_270">
    <path d="M 257.26906 268.321635 
L 260.846783 268.321635 
L 260.846783 262.297166 
L 257.26906 262.297166 
z
" clip-path="url(#p0949ecedfa)" style="fill: #1f77b4"/>
   </g>
   <g id="patch_271">
    <path d="M 260.846783 268.321635 
L 264.424506 268.321635 
L 264.424506 261.858298 
L 260.846783 261.858298 
z
" clip-path="url(#p0949ecedfa)" style="fill: #1f77b4"/>
   </g>
   <g id="patch_272">
    <path d="M 264.424506 268.321635 
L 268.002229 268.321635 
L 268.002229 262.257269 
L 264.424506 262.257269 
z
" clip-path="url(#p0949ecedfa)" style="fill: #1f77b4"/>
   </g>
   <g id="patch_273">
    <path d="M 268.002229 268.321635 
L 271.579952 268.321635 
L 271.579952 260.741178 
L 268.002229 260.741178 
z
" clip-path="url(#p0949ecedfa)" style="fill: #1f77b4"/>
   </g>
   <g id="patch_274">
    <path d="M 271.579952 268.321635 
L 275.157675 268.321635 
L 275.157675 259.544263 
L 271.579952 259.544263 
z
" clip-path="url(#p0949ecedfa)" style="fill: #1f77b4"/>
   </g>
   <g id="patch_275">
    <path d="M 275.157675 268.321635 
L 278.735398 268.321635 
L 278.735398 258.706423 
L 275.157675 258.706423 
z
" clip-path="url(#p0949ecedfa)" style="fill: #1f77b4"/>
   </g>
   <g id="patch_276">
    <path d="M 278.735398 268.321635 
L 282.313121 268.321635 
L 282.313121 259.823543 
L 278.735398 259.823543 
z
" clip-path="url(#p0949ecedfa)" style="fill: #1f77b4"/>
   </g>
   <g id="patch_277">
    <path d="M 282.313121 268.321635 
L 285.890844 268.321635 
L 285.890844 258.626629 
L 282.313121 258.626629 
z
" clip-path="url(#p0949ecedfa)" style="fill: #1f77b4"/>
   </g>
   <g id="patch_278">
    <path d="M 285.890844 268.321635 
L 289.468567 268.321635 
L 289.468567 258.586732 
L 285.890844 258.586732 
z
" clip-path="url(#p0949ecedfa)" style="fill: #1f77b4"/>
   </g>
   <g id="patch_279">
    <path d="M 289.468567 268.321635 
L 293.046289 268.321635 
L 293.046289 257.429715 
L 289.468567 257.429715 
z
" clip-path="url(#p0949ecedfa)" style="fill: #1f77b4"/>
   </g>
   <g id="patch_280">
    <path d="M 293.046289 268.321635 
L 296.624012 268.321635 
L 296.624012 258.028172 
L 293.046289 258.028172 
z
" clip-path="url(#p0949ecedfa)" style="fill: #1f77b4"/>
   </g>
   <g id="patch_281">
    <path d="M 296.624012 268.321635 
L 300.201735 268.321635 
L 300.201735 256.432286 
L 296.624012 256.432286 
z
" clip-path="url(#p0949ecedfa)" style="fill: #1f77b4"/>
   </g>
   <g id="patch_282">
    <path d="M 300.201735 268.321635 
L 303.779458 268.321635 
L 303.779458 256.751463 
L 300.201735 256.751463 
z
" clip-path="url(#p0949ecedfa)" style="fill: #1f77b4"/>
   </g>
   <g id="patch_283">
    <path d="M 303.779458 268.321635 
L 307.357181 268.321635 
L 307.357181 256.073212 
L 303.779458 256.073212 
z
" clip-path="url(#p0949ecedfa)" style="fill: #1f77b4"/>
   </g>
   <g id="patch_284">
    <path d="M 307.357181 268.321635 
L 310.934904 268.321635 
L 310.934904 254.636914 
L 307.357181 254.636914 
z
" clip-path="url(#p0949ecedfa)" style="fill: #1f77b4"/>
   </g>
   <g id="patch_285">
    <path d="M 310.934904 268.321635 
L 314.512627 268.321635 
L 314.512627 251.644629 
L 310.934904 251.644629 
z
" clip-path="url(#p0949ecedfa)" style="fill: #1f77b4"/>
   </g>
   <g id="patch_286">
    <path d="M 314.512627 268.321635 
L 318.09035 268.321635 
L 318.09035 252.681954 
L 314.512627 252.681954 
z
" clip-path="url(#p0949ecedfa)" style="fill: #1f77b4"/>
   </g>
   <g id="patch_287">
    <path d="M 318.09035 268.321635 
L 321.668073 268.321635 
L 321.668073 251.724423 
L 318.09035 251.724423 
z
" clip-path="url(#p0949ecedfa)" style="fill: #1f77b4"/>
   </g>
   <g id="patch_288">
    <path d="M 321.668073 268.321635 
L 325.245796 268.321635 
L 325.245796 250.248229 
L 321.668073 250.248229 
z
" clip-path="url(#p0949ecedfa)" style="fill: #1f77b4"/>
   </g>
   <g id="patch_289">
    <path d="M 325.245796 268.321635 
L 328.823519 268.321635 
L 328.823519 249.609874 
L 325.245796 249.609874 
z
" clip-path="url(#p0949ecedfa)" style="fill: #1f77b4"/>
   </g>
   <g id="patch_290">
    <path d="M 328.823519 268.321635 
L 332.401241 268.321635 
L 332.401241 249.80936 
L 328.823519 249.80936 
z
" clip-path="url(#p0949ecedfa)" style="fill: #1f77b4"/>
   </g>
   <g id="patch_291">
    <path d="M 332.401241 268.321635 
L 335.978964 268.321635 
L 335.978964 246.856971 
L 332.401241 246.856971 
z
" clip-path="url(#p0949ecedfa)" style="fill: #1f77b4"/>
   </g>
   <g id="patch_292">
    <path d="M 335.978964 268.321635 
L 339.556687 268.321635 
L 339.556687 246.338308 
L 335.978964 246.338308 
z
" clip-path="url(#p0949ecedfa)" style="fill: #1f77b4"/>
   </g>
   <g id="patch_293">
    <path d="M 339.556687 268.321635 
L 343.13441 268.321635 
L 343.13441 247.216046 
L 339.556687 247.216046 
z
" clip-path="url(#p0949ecedfa)" style="fill: #1f77b4"/>
   </g>
   <g id="patch_294">
    <path d="M 343.13441 268.321635 
L 346.712133 268.321635 
L 346.712133 244.981806 
L 343.13441 244.981806 
z
" clip-path="url(#p0949ecedfa)" style="fill: #1f77b4"/>
   </g>
   <g id="patch_295">
    <path d="M 346.712133 268.321635 
L 350.289856 268.321635 
L 350.289856 246.138823 
L 346.712133 246.138823 
z
" clip-path="url(#p0949ecedfa)" style="fill: #1f77b4"/>
   </g>
   <g id="patch_296">
    <path d="M 350.289856 268.321635 
L 353.867579 268.321635 
L 353.867579 243.94448 
L 350.289856 243.94448 
z
" clip-path="url(#p0949ecedfa)" style="fill: #1f77b4"/>
   </g>
   <g id="patch_297">
    <path d="M 353.867579 268.321635 
L 357.445302 268.321635 
L 357.445302 242.109211 
L 353.867579 242.109211 
z
" clip-path="url(#p0949ecedfa)" style="fill: #1f77b4"/>
   </g>
   <g id="patch_298">
    <path d="M 357.445302 268.321635 
L 361.023025 268.321635 
L 361.023025 239.316411 
L 357.445302 239.316411 
z
" clip-path="url(#p0949ecedfa)" style="fill: #1f77b4"/>
   </g>
   <g id="patch_299">
    <path d="M 361.023025 268.321635 
L 364.600748 268.321635 
L 364.600748 236.96248 
L 361.023025 236.96248 
z
" clip-path="url(#p0949ecedfa)" style="fill: #1f77b4"/>
   </g>
   <g id="patch_300">
    <path d="M 364.600748 268.321635 
L 368.178471 268.321635 
L 368.178471 237.281657 
L 364.600748 237.281657 
z
" clip-path="url(#p0949ecedfa)" style="fill: #1f77b4"/>
   </g>
   <g id="patch_301">
    <path d="M 368.178471 268.321635 
L 371.756193 268.321635 
L 371.756193 235.605977 
L 368.178471 235.605977 
z
" clip-path="url(#p0949ecedfa)" style="fill: #1f77b4"/>
   </g>
   <g id="patch_302">
    <path d="M 371.756193 268.321635 
L 375.333916 268.321635 
L 375.333916 234.768137 
L 371.756193 234.768137 
z
" clip-path="url(#p0949ecedfa)" style="fill: #1f77b4"/>
   </g>
   <g id="patch_303">
    <path d="M 375.333916 268.321635 
L 378.911639 268.321635 
L 378.911639 232.095028 
L 375.333916 232.095028 
z
" clip-path="url(#p0949ecedfa)" style="fill: #1f77b4"/>
   </g>
   <g id="patch_304">
    <path d="M 378.911639 268.321635 
L 382.489362 268.321635 
L 382.489362 230.778422 
L 378.911639 230.778422 
z
" clip-path="url(#p0949ecedfa)" style="fill: #1f77b4"/>
   </g>
   <g id="patch_305">
    <path d="M 382.489362 268.321635 
L 386.067085 268.321635 
L 386.067085 226.788708 
L 382.489362 226.788708 
z
" clip-path="url(#p0949ecedfa)" style="fill: #1f77b4"/>
   </g>
   <g id="patch_306">
    <path d="M 386.067085 268.321635 
L 389.644808 268.321635 
L 389.644808 227.746239 
L 386.067085 227.746239 
z
" clip-path="url(#p0949ecedfa)" style="fill: #1f77b4"/>
   </g>
   <g id="patch_307">
    <path d="M 389.644808 268.321635 
L 393.222531 268.321635 
L 393.222531 224.115599 
L 389.644808 224.115599 
z
" clip-path="url(#p0949ecedfa)" style="fill: #1f77b4"/>
   </g>
   <g id="patch_308">
    <path d="M 393.222531 268.321635 
L 396.800254 268.321635 
L 396.800254 223.796422 
L 393.222531 223.796422 
z
" clip-path="url(#p0949ecedfa)" style="fill: #1f77b4"/>
   </g>
   <g id="patch_309">
    <path d="M 396.800254 268.321635 
L 400.377977 268.321635 
L 400.377977 223.237862 
L 396.800254 223.237862 
z
" clip-path="url(#p0949ecedfa)" style="fill: #1f77b4"/>
   </g>
   <g id="patch_310">
    <path d="M 400.377977 268.321635 
L 403.9557 268.321635 
L 403.9557 218.769382 
L 400.377977 218.769382 
z
" clip-path="url(#p0949ecedfa)" style="fill: #1f77b4"/>
   </g>
   <g id="patch_311">
    <path d="M 403.9557 268.321635 
L 407.533423 268.321635 
L 407.533423 218.490102 
L 403.9557 218.490102 
z
" clip-path="url(#p0949ecedfa)" style="fill: #1f77b4"/>
   </g>
   <g id="patch_312">
    <path d="M 407.533423 268.321635 
L 411.111145 268.321635 
L 411.111145 258.586732 
L 407.533423 258.586732 
z
" clip-path="url(#p0949ecedfa)" style="fill: #1f77b4"/>
   </g>
   <g id="matplotlib.axis_5">
    <g id="xtick_14">
     <g id="line2d_18">
      <g>
       <use xlink:href="#m9d7d44abb6" x="100.973838" y="268.321635" style="stroke: #000000; stroke-width: 0.8"/>
      </g>
     </g>
     <g id="text_20">
      <!-- 1000 -->
      <g transform="translate(88.248838 282.920073)scale(0.1 -0.1)">
       <use xlink:href="#DejaVuSans-31"/>
       <use xlink:href="#DejaVuSans-30" x="63.623047"/>
       <use xlink:href="#DejaVuSans-30" x="127.246094"/>
       <use xlink:href="#DejaVuSans-30" x="190.869141"/>
      </g>
     </g>
    </g>
    <g id="xtick_15">
     <g id="line2d_19">
      <g>
       <use xlink:href="#m9d7d44abb6" x="171.574203" y="268.321635" style="stroke: #000000; stroke-width: 0.8"/>
      </g>
     </g>
     <g id="text_21">
      <!-- 1500 -->
      <g transform="translate(158.849203 282.920073)scale(0.1 -0.1)">
       <use xlink:href="#DejaVuSans-31"/>
       <use xlink:href="#DejaVuSans-35" x="63.623047"/>
       <use xlink:href="#DejaVuSans-30" x="127.246094"/>
       <use xlink:href="#DejaVuSans-30" x="190.869141"/>
      </g>
     </g>
    </g>
    <g id="xtick_16">
     <g id="line2d_20">
      <g>
       <use xlink:href="#m9d7d44abb6" x="242.174569" y="268.321635" style="stroke: #000000; stroke-width: 0.8"/>
      </g>
     </g>
     <g id="text_22">
      <!-- 2000 -->
      <g transform="translate(229.449569 282.920073)scale(0.1 -0.1)">
       <use xlink:href="#DejaVuSans-32"/>
       <use xlink:href="#DejaVuSans-30" x="63.623047"/>
       <use xlink:href="#DejaVuSans-30" x="127.246094"/>
       <use xlink:href="#DejaVuSans-30" x="190.869141"/>
      </g>
     </g>
    </g>
    <g id="xtick_17">
     <g id="line2d_21">
      <g>
       <use xlink:href="#m9d7d44abb6" x="312.774935" y="268.321635" style="stroke: #000000; stroke-width: 0.8"/>
      </g>
     </g>
     <g id="text_23">
      <!-- 2500 -->
      <g transform="translate(300.049935 282.920073)scale(0.1 -0.1)">
       <use xlink:href="#DejaVuSans-32"/>
       <use xlink:href="#DejaVuSans-35" x="63.623047"/>
       <use xlink:href="#DejaVuSans-30" x="127.246094"/>
       <use xlink:href="#DejaVuSans-30" x="190.869141"/>
      </g>
     </g>
    </g>
    <g id="xtick_18">
     <g id="line2d_22">
      <g>
       <use xlink:href="#m9d7d44abb6" x="383.3753" y="268.321635" style="stroke: #000000; stroke-width: 0.8"/>
      </g>
     </g>
     <g id="text_24">
      <!-- 3000 -->
      <g transform="translate(370.6503 282.920073)scale(0.1 -0.1)">
       <use xlink:href="#DejaVuSans-33"/>
       <use xlink:href="#DejaVuSans-30" x="63.623047"/>
       <use xlink:href="#DejaVuSans-30" x="127.246094"/>
       <use xlink:href="#DejaVuSans-30" x="190.869141"/>
      </g>
     </g>
    </g>
   </g>
   <g id="matplotlib.axis_6">
    <g id="ytick_5">
     <g id="line2d_23">
      <g>
       <use xlink:href="#m42ce06174a" x="35.45024" y="268.321635" style="stroke: #000000; stroke-width: 0.8"/>
      </g>
     </g>
     <g id="text_25">
      <!-- 0 -->
      <g transform="translate(22.08774 272.120854)scale(0.1 -0.1)">
       <use xlink:href="#DejaVuSans-30"/>
      </g>
     </g>
    </g>
    <g id="ytick_6">
     <g id="line2d_24">
      <g>
       <use xlink:href="#m42ce06174a" x="35.45024" y="228.424491" style="stroke: #000000; stroke-width: 0.8"/>
      </g>
     </g>
     <g id="text_26">
      <!-- 1000 -->
      <g transform="translate(3.00024 232.223709)scale(0.1 -0.1)">
       <use xlink:href="#DejaVuSans-31"/>
       <use xlink:href="#DejaVuSans-30" x="63.623047"/>
       <use xlink:href="#DejaVuSans-30" x="127.246094"/>
       <use xlink:href="#DejaVuSans-30" x="190.869141"/>
      </g>
     </g>
    </g>
   </g>
   <g id="patch_313">
    <path d="M 35.45024 268.321635 
L 35.45024 215.998525 
" style="fill: none; stroke: #000000; stroke-width: 0.8; stroke-linejoin: miter; stroke-linecap: square"/>
   </g>
   <g id="patch_314">
    <path d="M 428.99976 268.321635 
L 428.99976 215.998525 
" style="fill: none; stroke: #000000; stroke-width: 0.8; stroke-linejoin: miter; stroke-linecap: square"/>
   </g>
   <g id="patch_315">
    <path d="M 35.45024 268.321635 
L 428.99976 268.321635 
" style="fill: none; stroke: #000000; stroke-width: 0.8; stroke-linejoin: miter; stroke-linecap: square"/>
   </g>
   <g id="patch_316">
    <path d="M 35.45024 215.998525 
L 428.99976 215.998525 
" style="fill: none; stroke: #000000; stroke-width: 0.8; stroke-linejoin: miter; stroke-linecap: square"/>
   </g>
   <g id="text_27">
    <!-- $\nu_3$ -->
    <g transform="translate(225.985 209.998525)scale(0.12 -0.12)">
     <use xlink:href="#DejaVuSans-Oblique-3bd" transform="translate(0 0.3125)"/>
     <use xlink:href="#DejaVuSans-33" transform="translate(55.859375 -16.09375)scale(0.7)"/>
    </g>
   </g>
  </g>
  <g id="text_28">
   <!-- Histogramme des $\nu$ -->
   <g transform="translate(157.5 12.12024)scale(0.12 -0.12)">
    <defs>
     <path id="DejaVuSans-48" d="M 628 4666 
L 1259 4666 
L 1259 2753 
L 3553 2753 
L 3553 4666 
L 4184 4666 
L 4184 0 
L 3553 0 
L 3553 2222 
L 1259 2222 
L 1259 0 
L 628 0 
L 628 4666 
z
" transform="scale(0.015625)"/>
     <path id="DejaVuSans-69" d="M 603 3500 
L 1178 3500 
L 1178 0 
L 603 0 
L 603 3500 
z
M 603 4863 
L 1178 4863 
L 1178 4134 
L 603 4134 
L 603 4863 
z
" transform="scale(0.015625)"/>
     <path id="DejaVuSans-73" d="M 2834 3397 
L 2834 2853 
Q 2591 2978 2328 3040 
Q 2066 3103 1784 3103 
Q 1356 3103 1142 2972 
Q 928 2841 928 2578 
Q 928 2378 1081 2264 
Q 1234 2150 1697 2047 
L 1894 2003 
Q 2506 1872 2764 1633 
Q 3022 1394 3022 966 
Q 3022 478 2636 193 
Q 2250 -91 1575 -91 
Q 1294 -91 989 -36 
Q 684 19 347 128 
L 347 722 
Q 666 556 975 473 
Q 1284 391 1588 391 
Q 1994 391 2212 530 
Q 2431 669 2431 922 
Q 2431 1156 2273 1281 
Q 2116 1406 1581 1522 
L 1381 1569 
Q 847 1681 609 1914 
Q 372 2147 372 2553 
Q 372 3047 722 3315 
Q 1072 3584 1716 3584 
Q 2034 3584 2315 3537 
Q 2597 3491 2834 3397 
z
" transform="scale(0.015625)"/>
     <path id="DejaVuSans-74" d="M 1172 4494 
L 1172 3500 
L 2356 3500 
L 2356 3053 
L 1172 3053 
L 1172 1153 
Q 1172 725 1289 603 
Q 1406 481 1766 481 
L 2356 481 
L 2356 0 
L 1766 0 
Q 1100 0 847 248 
Q 594 497 594 1153 
L 594 3053 
L 172 3053 
L 172 3500 
L 594 3500 
L 594 4494 
L 1172 4494 
z
" transform="scale(0.015625)"/>
     <path id="DejaVuSans-6f" d="M 1959 3097 
Q 1497 3097 1228 2736 
Q 959 2375 959 1747 
Q 959 1119 1226 758 
Q 1494 397 1959 397 
Q 2419 397 2687 759 
Q 2956 1122 2956 1747 
Q 2956 2369 2687 2733 
Q 2419 3097 1959 3097 
z
M 1959 3584 
Q 2709 3584 3137 3096 
Q 3566 2609 3566 1747 
Q 3566 888 3137 398 
Q 2709 -91 1959 -91 
Q 1206 -91 779 398 
Q 353 888 353 1747 
Q 353 2609 779 3096 
Q 1206 3584 1959 3584 
z
" transform="scale(0.015625)"/>
     <path id="DejaVuSans-67" d="M 2906 1791 
Q 2906 2416 2648 2759 
Q 2391 3103 1925 3103 
Q 1463 3103 1205 2759 
Q 947 2416 947 1791 
Q 947 1169 1205 825 
Q 1463 481 1925 481 
Q 2391 481 2648 825 
Q 2906 1169 2906 1791 
z
M 3481 434 
Q 3481 -459 3084 -895 
Q 2688 -1331 1869 -1331 
Q 1566 -1331 1297 -1286 
Q 1028 -1241 775 -1147 
L 775 -588 
Q 1028 -725 1275 -790 
Q 1522 -856 1778 -856 
Q 2344 -856 2625 -561 
Q 2906 -266 2906 331 
L 2906 616 
Q 2728 306 2450 153 
Q 2172 0 1784 0 
Q 1141 0 747 490 
Q 353 981 353 1791 
Q 353 2603 747 3093 
Q 1141 3584 1784 3584 
Q 2172 3584 2450 3431 
Q 2728 3278 2906 2969 
L 2906 3500 
L 3481 3500 
L 3481 434 
z
" transform="scale(0.015625)"/>
     <path id="DejaVuSans-72" d="M 2631 2963 
Q 2534 3019 2420 3045 
Q 2306 3072 2169 3072 
Q 1681 3072 1420 2755 
Q 1159 2438 1159 1844 
L 1159 0 
L 581 0 
L 581 3500 
L 1159 3500 
L 1159 2956 
Q 1341 3275 1631 3429 
Q 1922 3584 2338 3584 
Q 2397 3584 2469 3576 
Q 2541 3569 2628 3553 
L 2631 2963 
z
" transform="scale(0.015625)"/>
     <path id="DejaVuSans-61" d="M 2194 1759 
Q 1497 1759 1228 1600 
Q 959 1441 959 1056 
Q 959 750 1161 570 
Q 1363 391 1709 391 
Q 2188 391 2477 730 
Q 2766 1069 2766 1631 
L 2766 1759 
L 2194 1759 
z
M 3341 1997 
L 3341 0 
L 2766 0 
L 2766 531 
Q 2569 213 2275 61 
Q 1981 -91 1556 -91 
Q 1019 -91 701 211 
Q 384 513 384 1019 
Q 384 1609 779 1909 
Q 1175 2209 1959 2209 
L 2766 2209 
L 2766 2266 
Q 2766 2663 2505 2880 
Q 2244 3097 1772 3097 
Q 1472 3097 1187 3025 
Q 903 2953 641 2809 
L 641 3341 
Q 956 3463 1253 3523 
Q 1550 3584 1831 3584 
Q 2591 3584 2966 3190 
Q 3341 2797 3341 1997 
z
" transform="scale(0.015625)"/>
     <path id="DejaVuSans-6d" d="M 3328 2828 
Q 3544 3216 3844 3400 
Q 4144 3584 4550 3584 
Q 5097 3584 5394 3201 
Q 5691 2819 5691 2113 
L 5691 0 
L 5113 0 
L 5113 2094 
Q 5113 2597 4934 2840 
Q 4756 3084 4391 3084 
Q 3944 3084 3684 2787 
Q 3425 2491 3425 1978 
L 3425 0 
L 2847 0 
L 2847 2094 
Q 2847 2600 2669 2842 
Q 2491 3084 2119 3084 
Q 1678 3084 1418 2786 
Q 1159 2488 1159 1978 
L 1159 0 
L 581 0 
L 581 3500 
L 1159 3500 
L 1159 2956 
Q 1356 3278 1631 3431 
Q 1906 3584 2284 3584 
Q 2666 3584 2933 3390 
Q 3200 3197 3328 2828 
z
" transform="scale(0.015625)"/>
     <path id="DejaVuSans-65" d="M 3597 1894 
L 3597 1613 
L 953 1613 
Q 991 1019 1311 708 
Q 1631 397 2203 397 
Q 2534 397 2845 478 
Q 3156 559 3463 722 
L 3463 178 
Q 3153 47 2828 -22 
Q 2503 -91 2169 -91 
Q 1331 -91 842 396 
Q 353 884 353 1716 
Q 353 2575 817 3079 
Q 1281 3584 2069 3584 
Q 2775 3584 3186 3129 
Q 3597 2675 3597 1894 
z
M 3022 2063 
Q 3016 2534 2758 2815 
Q 2500 3097 2075 3097 
Q 1594 3097 1305 2825 
Q 1016 2553 972 2059 
L 3022 2063 
z
" transform="scale(0.015625)"/>
     <path id="DejaVuSans-20" transform="scale(0.015625)"/>
     <path id="DejaVuSans-64" d="M 2906 2969 
L 2906 4863 
L 3481 4863 
L 3481 0 
L 2906 0 
L 2906 525 
Q 2725 213 2448 61 
Q 2172 -91 1784 -91 
Q 1150 -91 751 415 
Q 353 922 353 1747 
Q 353 2572 751 3078 
Q 1150 3584 1784 3584 
Q 2172 3584 2448 3432 
Q 2725 3281 2906 2969 
z
M 947 1747 
Q 947 1113 1208 752 
Q 1469 391 1925 391 
Q 2381 391 2643 752 
Q 2906 1113 2906 1747 
Q 2906 2381 2643 2742 
Q 2381 3103 1925 3103 
Q 1469 3103 1208 2742 
Q 947 2381 947 1747 
z
" transform="scale(0.015625)"/>
    </defs>
    <use xlink:href="#DejaVuSans-48" transform="translate(0 0.015625)"/>
    <use xlink:href="#DejaVuSans-69" transform="translate(75.195312 0.015625)"/>
    <use xlink:href="#DejaVuSans-73" transform="translate(102.978516 0.015625)"/>
    <use xlink:href="#DejaVuSans-74" transform="translate(155.078125 0.015625)"/>
    <use xlink:href="#DejaVuSans-6f" transform="translate(194.287109 0.015625)"/>
    <use xlink:href="#DejaVuSans-67" transform="translate(255.46875 0.015625)"/>
    <use xlink:href="#DejaVuSans-72" transform="translate(318.945312 0.015625)"/>
    <use xlink:href="#DejaVuSans-61" transform="translate(360.058594 0.015625)"/>
    <use xlink:href="#DejaVuSans-6d" transform="translate(421.337891 0.015625)"/>
    <use xlink:href="#DejaVuSans-6d" transform="translate(518.75 0.015625)"/>
    <use xlink:href="#DejaVuSans-65" transform="translate(616.162109 0.015625)"/>
    <use xlink:href="#DejaVuSans-20" transform="translate(677.685547 0.015625)"/>
    <use xlink:href="#DejaVuSans-64" transform="translate(709.472656 0.015625)"/>
    <use xlink:href="#DejaVuSans-65" transform="translate(772.949219 0.015625)"/>
    <use xlink:href="#DejaVuSans-73" transform="translate(834.472656 0.015625)"/>
    <use xlink:href="#DejaVuSans-20" transform="translate(886.572266 0.015625)"/>
    <use xlink:href="#DejaVuSans-Oblique-3bd" transform="translate(918.359375 0.015625)"/>
   </g>
  </g>
  <g id="text_29">
   <!-- Masse (GeV) -->
   <g transform="translate(184.474219 302.4)scale(0.1 -0.1)">
    <defs>
     <path id="DejaVuSans-4d" d="M 628 4666 
L 1569 4666 
L 2759 1491 
L 3956 4666 
L 4897 4666 
L 4897 0 
L 4281 0 
L 4281 4097 
L 3078 897 
L 2444 897 
L 1241 4097 
L 1241 0 
L 628 0 
L 628 4666 
z
" transform="scale(0.015625)"/>
     <path id="DejaVuSans-28" d="M 1984 4856 
Q 1566 4138 1362 3434 
Q 1159 2731 1159 2009 
Q 1159 1288 1364 580 
Q 1569 -128 1984 -844 
L 1484 -844 
Q 1016 -109 783 600 
Q 550 1309 550 2009 
Q 550 2706 781 3412 
Q 1013 4119 1484 4856 
L 1984 4856 
z
" transform="scale(0.015625)"/>
     <path id="DejaVuSans-47" d="M 3809 666 
L 3809 1919 
L 2778 1919 
L 2778 2438 
L 4434 2438 
L 4434 434 
Q 4069 175 3628 42 
Q 3188 -91 2688 -91 
Q 1594 -91 976 548 
Q 359 1188 359 2328 
Q 359 3472 976 4111 
Q 1594 4750 2688 4750 
Q 3144 4750 3555 4637 
Q 3966 4525 4313 4306 
L 4313 3634 
Q 3963 3931 3569 4081 
Q 3175 4231 2741 4231 
Q 1884 4231 1454 3753 
Q 1025 3275 1025 2328 
Q 1025 1384 1454 906 
Q 1884 428 2741 428 
Q 3075 428 3337 486 
Q 3600 544 3809 666 
z
" transform="scale(0.015625)"/>
     <path id="DejaVuSans-56" d="M 1831 0 
L 50 4666 
L 709 4666 
L 2188 738 
L 3669 4666 
L 4325 4666 
L 2547 0 
L 1831 0 
z
" transform="scale(0.015625)"/>
     <path id="DejaVuSans-29" d="M 513 4856 
L 1013 4856 
Q 1481 4119 1714 3412 
Q 1947 2706 1947 2009 
Q 1947 1309 1714 600 
Q 1481 -109 1013 -844 
L 513 -844 
Q 928 -128 1133 580 
Q 1338 1288 1338 2009 
Q 1338 2731 1133 3434 
Q 928 4138 513 4856 
z
" transform="scale(0.015625)"/>
    </defs>
    <use xlink:href="#DejaVuSans-4d"/>
    <use xlink:href="#DejaVuSans-61" x="86.279297"/>
    <use xlink:href="#DejaVuSans-73" x="147.558594"/>
    <use xlink:href="#DejaVuSans-73" x="199.658203"/>
    <use xlink:href="#DejaVuSans-65" x="251.757812"/>
    <use xlink:href="#DejaVuSans-20" x="313.28125"/>
    <use xlink:href="#DejaVuSans-28" x="345.068359"/>
    <use xlink:href="#DejaVuSans-47" x="384.082031"/>
    <use xlink:href="#DejaVuSans-65" x="461.572266"/>
    <use xlink:href="#DejaVuSans-56" x="523.095703"/>
    <use xlink:href="#DejaVuSans-29" x="591.503906"/>
   </g>
  </g>
  <g id="text_30">
   <!-- N -->
   <g transform="translate(-9.681563 147.740625)rotate(-90)scale(0.1 -0.1)">
    <defs>
     <path id="DejaVuSans-4e" d="M 628 4666 
L 1478 4666 
L 3547 763 
L 3547 4666 
L 4159 4666 
L 4159 0 
L 3309 0 
L 1241 3903 
L 1241 0 
L 628 0 
L 628 4666 
z
" transform="scale(0.015625)"/>
    </defs>
    <use xlink:href="#DejaVuSans-4e"/>
   </g>
  </g>
 </g>
 <defs>
  <clipPath id="pd4776caf76">
   <rect x="35.45024" y="35.758845" width="393.54952" height="52.32311"/>
  </clipPath>
  <clipPath id="pfec8d722c7">
   <rect x="35.45024" y="125.878685" width="393.54952" height="52.32311"/>
  </clipPath>
  <clipPath id="p0949ecedfa">
   <rect x="35.45024" y="215.998525" width="393.54952" height="52.32311"/>
  </clipPath>
 </defs>
</svg>
