<?xml version="1.0" encoding="utf-8" standalone="no"?>
<!DOCTYPE svg PUBLIC "-//W3C//DTD SVG 1.1//EN"
  "http://www.w3.org/Graphics/SVG/1.1/DTD/svg11.dtd">
<svg xmlns:xlink="http://www.w3.org/1999/xlink" width="393.177971pt" height="264.068297pt" viewBox="0 0 393.177971 264.068297" xmlns="http://www.w3.org/2000/svg" version="1.1">
 <metadata>
  <rdf:RDF xmlns:dc="http://purl.org/dc/elements/1.1/" xmlns:cc="http://creativecommons.org/ns#" xmlns:rdf="http://www.w3.org/1999/02/22-rdf-syntax-ns#">
   <cc:Work>
    <dc:type rdf:resource="http://purl.org/dc/dcmitype/StillImage"/>
    <dc:date>2022-05-19T15:42:14.303050</dc:date>
    <dc:format>image/svg+xml</dc:format>
    <dc:creator>
     <cc:Agent>
      <dc:title>Matplotlib v3.5.2, https://matplotlib.org/</dc:title>
     </cc:Agent>
    </dc:creator>
   </cc:Work>
  </rdf:RDF>
 </metadata>
 <defs>
  <style type="text/css">*{stroke-linejoin: round; stroke-linecap: butt}</style>
 </defs>
 <g id="figure_1">
  <g id="patch_1">
   <path d="M 0 264.068297 
L 393.177971 264.068297 
L 393.177971 0 
L 0 0 
L 0 264.068297 
z
" style="fill: none"/>
  </g>
  <g id="axes_1">
   <g id="patch_2">
    <path d="M 54.777971 235.145484 
L 389.577971 235.145484 
L 389.577971 17.705484 
L 54.777971 17.705484 
z
" style="fill: #ffffff"/>
   </g>
   <g id="matplotlib.axis_1">
    <g id="xtick_1">
     <g id="line2d_1">
      <defs>
       <path id="m48e26283d5" d="M 0 0 
L 0 -3 
" style="stroke: #000000; stroke-width: 0.5"/>
      </defs>
      <g>
       <use xlink:href="#m48e26283d5" x="66.921773" y="235.145484" style="stroke: #000000; stroke-width: 0.5"/>
      </g>
     </g>
     <g id="line2d_2">
      <defs>
       <path id="m4a0d8fea71" d="M 0 0 
L 0 3 
" style="stroke: #000000; stroke-width: 0.5"/>
      </defs>
      <g>
       <use xlink:href="#m4a0d8fea71" x="66.921773" y="17.705484" style="stroke: #000000; stroke-width: 0.5"/>
      </g>
     </g>
     <g id="text_1">
      <!-- $\mathdefault{0}$ -->
      <g transform="translate(64.431113 245.400062)scale(0.1 -0.1)">
       <defs>
        <path id="NimbusRomNo9L-Regu-30" d="M 1626 4352 
C 1274 4352 1005 4244 768 4020 
C 397 3661 154 2925 154 2176 
C 154 1479 365 730 666 372 
C 902 90 1229 -64 1600 -64 
C 1926 -64 2202 45 2432 269 
C 2803 621 3046 1364 3046 2138 
C 3046 3450 2464 4352 1626 4352 
z
M 1606 4186 
C 2144 4186 2432 3463 2432 2125 
C 2432 788 2150 103 1600 103 
C 1050 103 768 788 768 2119 
C 768 3476 1056 4186 1606 4186 
z
" transform="scale(0.015625)"/>
       </defs>
       <use xlink:href="#NimbusRomNo9L-Regu-30" transform="scale(0.996264)"/>
      </g>
     </g>
    </g>
    <g id="xtick_2">
     <g id="line2d_3">
      <g>
       <use xlink:href="#m48e26283d5" x="128.409376" y="235.145484" style="stroke: #000000; stroke-width: 0.5"/>
      </g>
     </g>
     <g id="line2d_4">
      <g>
       <use xlink:href="#m4a0d8fea71" x="128.409376" y="17.705484" style="stroke: #000000; stroke-width: 0.5"/>
      </g>
     </g>
     <g id="text_2">
      <!-- $\mathdefault{20}$ -->
      <g transform="translate(123.428056 245.400062)scale(0.1 -0.1)">
       <defs>
        <path id="NimbusRomNo9L-Regu-32" d="M 3040 875 
L 2957 907 
C 2720 544 2637 486 2349 486 
L 819 486 
L 1894 1609 
C 2464 2202 2714 2687 2714 3185 
C 2714 3823 2195 4313 1530 4313 
C 1178 4313 845 4173 608 3918 
C 403 3700 307 3496 198 3043 
L 333 3011 
C 589 3636 819 3840 1261 3840 
C 1798 3840 2163 3476 2163 2940 
C 2163 2443 1869 1850 1331 1282 
L 192 77 
L 192 0 
L 2688 0 
L 3040 875 
z
" transform="scale(0.015625)"/>
       </defs>
       <use xlink:href="#NimbusRomNo9L-Regu-32" transform="scale(0.996264)"/>
       <use xlink:href="#NimbusRomNo9L-Regu-30" transform="translate(49.8132 0)scale(0.996264)"/>
      </g>
     </g>
    </g>
    <g id="xtick_3">
     <g id="line2d_5">
      <g>
       <use xlink:href="#m48e26283d5" x="189.89698" y="235.145484" style="stroke: #000000; stroke-width: 0.5"/>
      </g>
     </g>
     <g id="line2d_6">
      <g>
       <use xlink:href="#m4a0d8fea71" x="189.89698" y="17.705484" style="stroke: #000000; stroke-width: 0.5"/>
      </g>
     </g>
     <g id="text_3">
      <!-- $\mathdefault{40}$ -->
      <g transform="translate(184.915659 245.400062)scale(0.1 -0.1)">
       <defs>
        <path id="NimbusRomNo9L-Regu-34" d="M 3021 1497 
L 2368 1497 
L 2368 4352 
L 2086 4352 
L 77 1497 
L 77 1088 
L 1875 1088 
L 1875 32 
L 2368 32 
L 2368 1088 
L 3021 1088 
L 3021 1497 
z
M 1869 1497 
L 333 1497 
L 1869 3698 
L 1869 1497 
z
" transform="scale(0.015625)"/>
       </defs>
       <use xlink:href="#NimbusRomNo9L-Regu-34" transform="scale(0.996264)"/>
       <use xlink:href="#NimbusRomNo9L-Regu-30" transform="translate(49.8132 0)scale(0.996264)"/>
      </g>
     </g>
    </g>
    <g id="xtick_4">
     <g id="line2d_7">
      <g>
       <use xlink:href="#m48e26283d5" x="251.384583" y="235.145484" style="stroke: #000000; stroke-width: 0.5"/>
      </g>
     </g>
     <g id="line2d_8">
      <g>
       <use xlink:href="#m4a0d8fea71" x="251.384583" y="17.705484" style="stroke: #000000; stroke-width: 0.5"/>
      </g>
     </g>
     <g id="text_4">
      <!-- $\mathdefault{60}$ -->
      <g transform="translate(246.403263 245.400062)scale(0.1 -0.1)">
       <defs>
        <path id="NimbusRomNo9L-Regu-36" d="M 2854 4391 
C 2125 4327 1754 4205 1286 3879 
C 595 3386 218 2656 218 1802 
C 218 1248 390 688 666 370 
C 909 89 1254 -64 1651 -64 
C 2445 -64 2995 541 2995 1421 
C 2995 2236 2528 2752 1792 2752 
C 1510 2752 1376 2707 973 2464 
C 1146 3431 1862 4122 2867 4288 
L 2854 4391 
z
M 1549 2458 
C 2099 2458 2419 2000 2419 1204 
C 2419 504 2170 116 1722 116 
C 1158 116 813 714 813 1700 
C 813 2025 864 2203 992 2299 
C 1126 2400 1325 2458 1549 2458 
z
" transform="scale(0.015625)"/>
       </defs>
       <use xlink:href="#NimbusRomNo9L-Regu-36" transform="scale(0.996264)"/>
       <use xlink:href="#NimbusRomNo9L-Regu-30" transform="translate(49.8132 0)scale(0.996264)"/>
      </g>
     </g>
    </g>
    <g id="xtick_5">
     <g id="line2d_9">
      <g>
       <use xlink:href="#m48e26283d5" x="312.872186" y="235.145484" style="stroke: #000000; stroke-width: 0.5"/>
      </g>
     </g>
     <g id="line2d_10">
      <g>
       <use xlink:href="#m4a0d8fea71" x="312.872186" y="17.705484" style="stroke: #000000; stroke-width: 0.5"/>
      </g>
     </g>
     <g id="text_5">
      <!-- $\mathdefault{80}$ -->
      <g transform="translate(307.890866 245.400062)scale(0.1 -0.1)">
       <defs>
        <path id="NimbusRomNo9L-Regu-38" d="M 1856 2400 
C 2490 2740 2714 3008 2714 3444 
C 2714 3968 2253 4352 1613 4352 
C 915 4352 397 3924 397 3341 
C 397 2925 518 2740 1190 2151 
C 499 1626 358 1428 358 992 
C 358 372 864 -64 1587 -64 
C 2355 -64 2848 359 2848 1018 
C 2848 1511 2630 1824 1856 2400 
z
M 1741 1741 
C 2208 1408 2362 1178 2362 820 
C 2362 404 2074 116 1658 116 
C 1171 116 845 487 845 1044 
C 845 1453 986 1722 1357 2023 
L 1741 1741 
z
M 1670 2516 
C 1101 2887 870 3181 870 3540 
C 870 3911 1158 4173 1562 4173 
C 1997 4173 2272 3892 2272 3450 
C 2272 3085 2093 2797 1728 2554 
C 1696 2535 1696 2535 1670 2516 
z
" transform="scale(0.015625)"/>
       </defs>
       <use xlink:href="#NimbusRomNo9L-Regu-38" transform="scale(0.996264)"/>
       <use xlink:href="#NimbusRomNo9L-Regu-30" transform="translate(49.8132 0)scale(0.996264)"/>
      </g>
     </g>
    </g>
    <g id="xtick_6">
     <g id="line2d_11">
      <g>
       <use xlink:href="#m48e26283d5" x="374.359789" y="235.145484" style="stroke: #000000; stroke-width: 0.5"/>
      </g>
     </g>
     <g id="line2d_12">
      <g>
       <use xlink:href="#m4a0d8fea71" x="374.359789" y="17.705484" style="stroke: #000000; stroke-width: 0.5"/>
      </g>
     </g>
     <g id="text_6">
      <!-- $\mathdefault{100}$ -->
      <g transform="translate(366.887809 245.400062)scale(0.1 -0.1)">
       <defs>
        <path id="NimbusRomNo9L-Regu-31" d="M 1862 4339 
L 710 3757 
L 710 3667 
C 787 3699 858 3725 883 3738 
C 998 3783 1107 3808 1171 3808 
C 1306 3808 1363 3711 1363 3505 
L 1363 592 
C 1363 379 1312 232 1210 173 
C 1114 116 1024 96 755 96 
L 755 0 
L 2522 0 
L 2522 96 
C 2016 96 1914 160 1914 470 
L 1914 4327 
L 1862 4339 
z
" transform="scale(0.015625)"/>
       </defs>
       <use xlink:href="#NimbusRomNo9L-Regu-31" transform="scale(0.996264)"/>
       <use xlink:href="#NimbusRomNo9L-Regu-30" transform="translate(49.8132 0)scale(0.996264)"/>
       <use xlink:href="#NimbusRomNo9L-Regu-30" transform="translate(99.626401 0)scale(0.996264)"/>
      </g>
     </g>
    </g>
    <g id="xtick_7">
     <g id="line2d_13">
      <defs>
       <path id="m2f58731cca" d="M 0 0 
L 0 -1.5 
" style="stroke: #000000; stroke-width: 0.5"/>
      </defs>
      <g>
       <use xlink:href="#m2f58731cca" x="82.293674" y="235.145484" style="stroke: #000000; stroke-width: 0.5"/>
      </g>
     </g>
     <g id="line2d_14">
      <defs>
       <path id="ma0d98542ea" d="M 0 0 
L 0 1.5 
" style="stroke: #000000; stroke-width: 0.5"/>
      </defs>
      <g>
       <use xlink:href="#ma0d98542ea" x="82.293674" y="17.705484" style="stroke: #000000; stroke-width: 0.5"/>
      </g>
     </g>
    </g>
    <g id="xtick_8">
     <g id="line2d_15">
      <g>
       <use xlink:href="#m2f58731cca" x="97.665575" y="235.145484" style="stroke: #000000; stroke-width: 0.5"/>
      </g>
     </g>
     <g id="line2d_16">
      <g>
       <use xlink:href="#ma0d98542ea" x="97.665575" y="17.705484" style="stroke: #000000; stroke-width: 0.5"/>
      </g>
     </g>
    </g>
    <g id="xtick_9">
     <g id="line2d_17">
      <g>
       <use xlink:href="#m2f58731cca" x="113.037475" y="235.145484" style="stroke: #000000; stroke-width: 0.5"/>
      </g>
     </g>
     <g id="line2d_18">
      <g>
       <use xlink:href="#ma0d98542ea" x="113.037475" y="17.705484" style="stroke: #000000; stroke-width: 0.5"/>
      </g>
     </g>
    </g>
    <g id="xtick_10">
     <g id="line2d_19">
      <g>
       <use xlink:href="#m2f58731cca" x="143.781277" y="235.145484" style="stroke: #000000; stroke-width: 0.5"/>
      </g>
     </g>
     <g id="line2d_20">
      <g>
       <use xlink:href="#ma0d98542ea" x="143.781277" y="17.705484" style="stroke: #000000; stroke-width: 0.5"/>
      </g>
     </g>
    </g>
    <g id="xtick_11">
     <g id="line2d_21">
      <g>
       <use xlink:href="#m2f58731cca" x="159.153178" y="235.145484" style="stroke: #000000; stroke-width: 0.5"/>
      </g>
     </g>
     <g id="line2d_22">
      <g>
       <use xlink:href="#ma0d98542ea" x="159.153178" y="17.705484" style="stroke: #000000; stroke-width: 0.5"/>
      </g>
     </g>
    </g>
    <g id="xtick_12">
     <g id="line2d_23">
      <g>
       <use xlink:href="#m2f58731cca" x="174.525079" y="235.145484" style="stroke: #000000; stroke-width: 0.5"/>
      </g>
     </g>
     <g id="line2d_24">
      <g>
       <use xlink:href="#ma0d98542ea" x="174.525079" y="17.705484" style="stroke: #000000; stroke-width: 0.5"/>
      </g>
     </g>
    </g>
    <g id="xtick_13">
     <g id="line2d_25">
      <g>
       <use xlink:href="#m2f58731cca" x="205.26888" y="235.145484" style="stroke: #000000; stroke-width: 0.5"/>
      </g>
     </g>
     <g id="line2d_26">
      <g>
       <use xlink:href="#ma0d98542ea" x="205.26888" y="17.705484" style="stroke: #000000; stroke-width: 0.5"/>
      </g>
     </g>
    </g>
    <g id="xtick_14">
     <g id="line2d_27">
      <g>
       <use xlink:href="#m2f58731cca" x="220.640781" y="235.145484" style="stroke: #000000; stroke-width: 0.5"/>
      </g>
     </g>
     <g id="line2d_28">
      <g>
       <use xlink:href="#ma0d98542ea" x="220.640781" y="17.705484" style="stroke: #000000; stroke-width: 0.5"/>
      </g>
     </g>
    </g>
    <g id="xtick_15">
     <g id="line2d_29">
      <g>
       <use xlink:href="#m2f58731cca" x="236.012682" y="235.145484" style="stroke: #000000; stroke-width: 0.5"/>
      </g>
     </g>
     <g id="line2d_30">
      <g>
       <use xlink:href="#ma0d98542ea" x="236.012682" y="17.705484" style="stroke: #000000; stroke-width: 0.5"/>
      </g>
     </g>
    </g>
    <g id="xtick_16">
     <g id="line2d_31">
      <g>
       <use xlink:href="#m2f58731cca" x="266.756484" y="235.145484" style="stroke: #000000; stroke-width: 0.5"/>
      </g>
     </g>
     <g id="line2d_32">
      <g>
       <use xlink:href="#ma0d98542ea" x="266.756484" y="17.705484" style="stroke: #000000; stroke-width: 0.5"/>
      </g>
     </g>
    </g>
    <g id="xtick_17">
     <g id="line2d_33">
      <g>
       <use xlink:href="#m2f58731cca" x="282.128385" y="235.145484" style="stroke: #000000; stroke-width: 0.5"/>
      </g>
     </g>
     <g id="line2d_34">
      <g>
       <use xlink:href="#ma0d98542ea" x="282.128385" y="17.705484" style="stroke: #000000; stroke-width: 0.5"/>
      </g>
     </g>
    </g>
    <g id="xtick_18">
     <g id="line2d_35">
      <g>
       <use xlink:href="#m2f58731cca" x="297.500285" y="235.145484" style="stroke: #000000; stroke-width: 0.5"/>
      </g>
     </g>
     <g id="line2d_36">
      <g>
       <use xlink:href="#ma0d98542ea" x="297.500285" y="17.705484" style="stroke: #000000; stroke-width: 0.5"/>
      </g>
     </g>
    </g>
    <g id="xtick_19">
     <g id="line2d_37">
      <g>
       <use xlink:href="#m2f58731cca" x="328.244087" y="235.145484" style="stroke: #000000; stroke-width: 0.5"/>
      </g>
     </g>
     <g id="line2d_38">
      <g>
       <use xlink:href="#ma0d98542ea" x="328.244087" y="17.705484" style="stroke: #000000; stroke-width: 0.5"/>
      </g>
     </g>
    </g>
    <g id="xtick_20">
     <g id="line2d_39">
      <g>
       <use xlink:href="#m2f58731cca" x="343.615988" y="235.145484" style="stroke: #000000; stroke-width: 0.5"/>
      </g>
     </g>
     <g id="line2d_40">
      <g>
       <use xlink:href="#ma0d98542ea" x="343.615988" y="17.705484" style="stroke: #000000; stroke-width: 0.5"/>
      </g>
     </g>
    </g>
    <g id="xtick_21">
     <g id="line2d_41">
      <g>
       <use xlink:href="#m2f58731cca" x="358.987889" y="235.145484" style="stroke: #000000; stroke-width: 0.5"/>
      </g>
     </g>
     <g id="line2d_42">
      <g>
       <use xlink:href="#ma0d98542ea" x="358.987889" y="17.705484" style="stroke: #000000; stroke-width: 0.5"/>
      </g>
     </g>
    </g>
    <g id="text_7">
     <!-- Epochs -->
     <g transform="translate(207.513055 258.311468)scale(0.1 -0.1)">
      <defs>
       <path id="NimbusRomNo9L-Regu-45" d="M 3821 1078 
L 3642 1078 
C 3322 389 3046 237 2131 237 
L 1958 237 
C 1645 237 1376 269 1331 315 
C 1299 334 1286 404 1286 514 
L 1286 2106 
L 2272 2106 
C 2797 2106 2893 2020 2976 1472 
L 3123 1472 
L 3123 2957 
L 2976 2957 
C 2931 2703 2906 2610 2835 2523 
C 2752 2417 2573 2368 2272 2368 
L 1286 2368 
L 1286 3766 
C 1286 3943 1325 3981 1498 3981 
L 2362 3981 
C 3085 3981 3226 3886 3334 3314 
L 3494 3314 
L 3475 4224 
L 77 4224 
L 77 4102 
C 550 4064 634 3974 634 3525 
L 634 679 
C 634 230 544 134 77 134 
L 77 0 
L 3533 0 
L 3821 1078 
z
" transform="scale(0.015625)"/>
       <path id="NimbusRomNo9L-Regu-70" d="M 58 2516 
C 115 2522 160 2522 218 2522 
C 435 2522 480 2458 480 2155 
L 480 -855 
C 480 -1189 410 -1261 32 -1299 
L 32 -1408 
L 1581 -1408 
L 1581 -1293 
C 1101 -1293 1018 -1222 1018 -816 
L 1018 199 
C 1242 -13 1395 -77 1664 -77 
C 2419 -77 3008 643 3008 1575 
C 3008 2372 2560 2944 1939 2944 
C 1581 2944 1299 2784 1018 2438 
L 1018 2931 
L 979 2944 
C 634 2810 410 2726 58 2618 
L 58 2516 
z
M 1018 2136 
C 1018 2329 1376 2560 1670 2560 
C 2144 2560 2458 2071 2458 1324 
C 2458 611 2144 128 1683 128 
C 1382 128 1018 359 1018 552 
L 1018 2136 
z
" transform="scale(0.015625)"/>
       <path id="NimbusRomNo9L-Regu-6f" d="M 1600 2944 
C 768 2944 186 2330 186 1446 
C 186 582 781 -64 1587 -64 
C 2394 -64 3008 614 3008 1498 
C 3008 2336 2419 2944 1600 2944 
z
M 1517 2765 
C 2054 2765 2432 2150 2432 1274 
C 2432 550 2144 115 1664 115 
C 1414 115 1178 269 1043 525 
C 864 858 762 1306 762 1760 
C 762 2368 1062 2765 1517 2765 
z
" transform="scale(0.015625)"/>
       <path id="NimbusRomNo9L-Regu-63" d="M 2547 998 
C 2240 550 2010 397 1645 397 
C 1062 397 653 909 653 1645 
C 653 2304 1005 2758 1523 2758 
C 1754 2758 1837 2688 1901 2451 
L 1939 2310 
C 1990 2131 2106 2016 2240 2016 
C 2406 2016 2547 2138 2547 2285 
C 2547 2643 2099 2944 1562 2944 
C 1248 2944 922 2816 659 2586 
C 339 2304 160 1869 160 1363 
C 160 531 666 -64 1376 -64 
C 1664 -64 1920 38 2150 237 
C 2323 390 2445 563 2637 941 
L 2547 998 
z
" transform="scale(0.015625)"/>
       <path id="NimbusRomNo9L-Regu-68" d="M 1005 2222 
C 1274 2516 1466 2624 1715 2624 
C 2035 2624 2195 2395 2195 1948 
L 2195 684 
C 2195 250 2131 166 1760 128 
L 1760 32 
L 3117 32 
L 3117 128 
C 2771 192 2733 243 2733 684 
L 2733 1954 
C 2733 2625 2464 2970 1946 2970 
C 1568 2970 1299 2816 1005 2432 
L 1005 4390 
L 973 4409 
C 755 4332 595 4281 237 4179 
L 64 4128 
L 64 4026 
C 90 4032 109 4032 141 4032 
C 416 4032 467 3980 467 3705 
L 467 686 
C 467 237 429 179 58 128 
L 58 32 
L 1440 32 
L 1440 128 
C 1069 166 1005 243 1005 684 
L 1005 2222 
z
" transform="scale(0.015625)"/>
       <path id="NimbusRomNo9L-Regu-73" d="M 2016 2010 
L 1990 2880 
L 1920 2880 
L 1907 2867 
C 1850 2822 1843 2816 1818 2816 
C 1779 2816 1715 2829 1645 2861 
C 1504 2915 1363 2944 1197 2944 
C 691 2944 326 2616 326 2154 
C 326 1796 531 1539 1075 1231 
L 1446 1020 
C 1670 892 1779 737 1779 539 
C 1779 256 1574 77 1248 77 
C 1030 77 832 159 710 298 
C 576 455 518 600 435 960 
L 333 960 
L 333 -39 
L 416 -39 
C 461 33 486 48 563 48 
C 621 48 710 35 858 -2 
C 1037 -39 1210 -64 1325 -64 
C 1818 -64 2227 308 2227 757 
C 2227 1077 2074 1289 1690 1520 
L 998 1930 
C 819 2033 723 2194 723 2367 
C 723 2624 922 2803 1216 2803 
C 1581 2803 1773 2583 1920 2010 
L 2016 2010 
z
" transform="scale(0.015625)"/>
      </defs>
      <use xlink:href="#NimbusRomNo9L-Regu-45" transform="scale(0.996264)"/>
      <use xlink:href="#NimbusRomNo9L-Regu-70" transform="translate(60.871631 0)scale(0.996264)"/>
      <use xlink:href="#NimbusRomNo9L-Regu-6f" transform="translate(110.684831 0)scale(0.996264)"/>
      <use xlink:href="#NimbusRomNo9L-Regu-63" transform="translate(160.498032 0)scale(0.996264)"/>
      <use xlink:href="#NimbusRomNo9L-Regu-68" transform="translate(204.7316 0)scale(0.996264)"/>
      <use xlink:href="#NimbusRomNo9L-Regu-73" transform="translate(254.544801 0)scale(0.996264)"/>
     </g>
    </g>
   </g>
   <g id="matplotlib.axis_2">
    <g id="ytick_1">
     <g id="line2d_43">
      <defs>
       <path id="m77ba2cebb2" d="M 0 0 
L 3 0 
" style="stroke: #000000; stroke-width: 0.5"/>
      </defs>
      <g>
       <use xlink:href="#m77ba2cebb2" x="54.777971" y="181.073823" style="stroke: #000000; stroke-width: 0.5"/>
      </g>
     </g>
     <g id="line2d_44">
      <defs>
       <path id="mee9a23fce9" d="M 0 0 
L -3 0 
" style="stroke: #000000; stroke-width: 0.5"/>
      </defs>
      <g>
       <use xlink:href="#mee9a23fce9" x="389.577971" y="181.073823" style="stroke: #000000; stroke-width: 0.5"/>
      </g>
     </g>
     <g id="text_8">
      <!-- $\mathdefault{10^{-1}}$ -->
      <g transform="translate(31.900928 184.451112)scale(0.1 -0.1)">
       <defs>
        <path id="CMSY10-0" d="M 4218 1472 
C 4326 1472 4442 1472 4442 1600 
C 4442 1728 4326 1728 4218 1728 
L 755 1728 
C 646 1728 531 1728 531 1600 
C 531 1472 646 1472 755 1472 
L 4218 1472 
z
" transform="scale(0.015625)"/>
       </defs>
       <use xlink:href="#NimbusRomNo9L-Regu-31" transform="scale(0.996264)"/>
       <use xlink:href="#NimbusRomNo9L-Regu-30" transform="translate(49.8132 0)scale(0.996264)"/>
       <use xlink:href="#CMSY10-0" transform="translate(99.626401 36.163231)scale(0.737241)"/>
       <use xlink:href="#NimbusRomNo9L-Regu-31" transform="translate(156.909271 36.163231)scale(0.737241)"/>
      </g>
     </g>
    </g>
    <g id="ytick_2">
     <g id="line2d_45">
      <defs>
       <path id="md8b1fefb3c" d="M 0 0 
L 1.5 0 
" style="stroke: #000000; stroke-width: 0.5"/>
      </defs>
      <g>
       <use xlink:href="#md8b1fefb3c" x="54.777971" y="223.385736" style="stroke: #000000; stroke-width: 0.5"/>
      </g>
     </g>
     <g id="line2d_46">
      <defs>
       <path id="mda83beea17" d="M 0 0 
L -1.5 0 
" style="stroke: #000000; stroke-width: 0.5"/>
      </defs>
      <g>
       <use xlink:href="#mda83beea17" x="389.577971" y="223.385736" style="stroke: #000000; stroke-width: 0.5"/>
      </g>
     </g>
    </g>
    <g id="ytick_3">
     <g id="line2d_47">
      <g>
       <use xlink:href="#md8b1fefb3c" x="54.777971" y="201.052016" style="stroke: #000000; stroke-width: 0.5"/>
      </g>
     </g>
     <g id="line2d_48">
      <g>
       <use xlink:href="#mda83beea17" x="389.577971" y="201.052016" style="stroke: #000000; stroke-width: 0.5"/>
      </g>
     </g>
    </g>
    <g id="ytick_4">
     <g id="line2d_49">
      <g>
       <use xlink:href="#md8b1fefb3c" x="54.777971" y="49.641016" style="stroke: #000000; stroke-width: 0.5"/>
      </g>
     </g>
     <g id="line2d_50">
      <g>
       <use xlink:href="#mda83beea17" x="389.577971" y="49.641016" style="stroke: #000000; stroke-width: 0.5"/>
      </g>
     </g>
     <g id="text_9">
      <!-- $\mathdefault{2\times10^{-1}}$ -->
      <g transform="translate(16.511406 53.285058)scale(0.1 -0.1)">
       <defs>
        <path id="CMSY10-2" d="M 2490 1785 
L 1210 3059 
C 1133 3136 1120 3148 1069 3148 
C 1005 3148 941 3091 941 3020 
C 941 2976 954 2963 1024 2892 
L 2304 1606 
L 1024 320 
C 954 249 941 236 941 192 
C 941 121 1005 64 1069 64 
C 1120 64 1133 76 1210 153 
L 2483 1427 
L 3808 102 
C 3821 96 3866 64 3904 64 
C 3981 64 4032 121 4032 192 
C 4032 204 4032 230 4013 262 
C 4006 275 2989 1280 2669 1606 
L 3840 2777 
C 3872 2816 3968 2899 4000 2937 
C 4006 2950 4032 2976 4032 3020 
C 4032 3091 3981 3148 3904 3148 
C 3853 3148 3827 3123 3757 3052 
L 2490 1785 
z
" transform="scale(0.015625)"/>
       </defs>
       <use xlink:href="#NimbusRomNo9L-Regu-32" transform="scale(0.996264)"/>
       <use xlink:href="#CMSY10-2" transform="translate(63.650167 0)scale(0.996264)"/>
       <use xlink:href="#NimbusRomNo9L-Regu-31" transform="translate(154.89584 0)scale(0.996264)"/>
       <use xlink:href="#NimbusRomNo9L-Regu-30" transform="translate(204.709041 0)scale(0.996264)"/>
       <use xlink:href="#CMSY10-0" transform="translate(254.522241 36.163231)scale(0.737241)"/>
       <use xlink:href="#NimbusRomNo9L-Regu-31" transform="translate(311.805111 36.163231)scale(0.737241)"/>
      </g>
     </g>
    </g>
    <g id="text_10">
     <!-- loss -->
     <g transform="translate(10.354578 134.176257)rotate(-90)scale(0.1 -0.1)">
      <defs>
       <path id="NimbusRomNo9L-Regu-6c" d="M 122 4000 
L 160 4000 
C 230 4000 307 4000 358 4000 
C 563 4000 627 3910 627 3610 
L 627 557 
C 627 211 538 128 134 96 
L 134 0 
L 1645 0 
L 1645 109 
C 1242 109 1165 173 1165 528 
L 1165 4371 
L 1139 4384 
C 806 4275 563 4211 122 4103 
L 122 4000 
z
" transform="scale(0.015625)"/>
      </defs>
      <use xlink:href="#NimbusRomNo9L-Regu-6c" transform="scale(0.996264)"/>
      <use xlink:href="#NimbusRomNo9L-Regu-6f" transform="translate(27.69517 0)scale(0.996264)"/>
      <use xlink:href="#NimbusRomNo9L-Regu-73" transform="translate(77.50837 0)scale(0.996264)"/>
      <use xlink:href="#NimbusRomNo9L-Regu-73" transform="translate(116.262076 0)scale(0.996264)"/>
     </g>
    </g>
   </g>
   <g id="line2d_51">
    <defs>
     <path id="me0ab0a342e" d="M 0 3 
C 0.795609 3 1.55874 2.683901 2.12132 2.12132 
C 2.683901 1.55874 3 0.795609 3 0 
C 3 -0.795609 2.683901 -1.55874 2.12132 -2.12132 
C 1.55874 -2.683901 0.795609 -3 0 -3 
C -0.795609 -3 -1.55874 -2.683901 -2.12132 -2.12132 
C -2.683901 -1.55874 -3 -0.795609 -3 0 
C -3 0.795609 -2.683901 1.55874 -2.12132 2.12132 
C -1.55874 2.683901 -0.795609 3 0 3 
z
" style="stroke: #0000ff"/>
    </defs>
    <g clip-path="url(#pda15a9acde)">
     <use xlink:href="#me0ab0a342e" x="69.996153" y="27.58912" style="fill: #0000ff; stroke: #0000ff"/>
     <use xlink:href="#me0ab0a342e" x="73.070533" y="218.114686" style="fill: #0000ff; stroke: #0000ff"/>
     <use xlink:href="#me0ab0a342e" x="76.144913" y="215.77833" style="fill: #0000ff; stroke: #0000ff"/>
     <use xlink:href="#me0ab0a342e" x="79.219294" y="200.624472" style="fill: #0000ff; stroke: #0000ff"/>
     <use xlink:href="#me0ab0a342e" x="82.293674" y="214.047608" style="fill: #0000ff; stroke: #0000ff"/>
     <use xlink:href="#me0ab0a342e" x="85.368054" y="214.818068" style="fill: #0000ff; stroke: #0000ff"/>
     <use xlink:href="#me0ab0a342e" x="88.442434" y="214.979013" style="fill: #0000ff; stroke: #0000ff"/>
     <use xlink:href="#me0ab0a342e" x="91.516814" y="208.947845" style="fill: #0000ff; stroke: #0000ff"/>
     <use xlink:href="#me0ab0a342e" x="94.591194" y="208.240228" style="fill: #0000ff; stroke: #0000ff"/>
     <use xlink:href="#me0ab0a342e" x="97.665575" y="211.164565" style="fill: #0000ff; stroke: #0000ff"/>
     <use xlink:href="#me0ab0a342e" x="100.739955" y="218.372749" style="fill: #0000ff; stroke: #0000ff"/>
     <use xlink:href="#me0ab0a342e" x="103.814335" y="211.117565" style="fill: #0000ff; stroke: #0000ff"/>
     <use xlink:href="#me0ab0a342e" x="106.888715" y="208.631483" style="fill: #0000ff; stroke: #0000ff"/>
     <use xlink:href="#me0ab0a342e" x="109.963095" y="216.099648" style="fill: #0000ff; stroke: #0000ff"/>
     <use xlink:href="#me0ab0a342e" x="113.037475" y="210.02877" style="fill: #0000ff; stroke: #0000ff"/>
     <use xlink:href="#me0ab0a342e" x="116.111856" y="210.214577" style="fill: #0000ff; stroke: #0000ff"/>
     <use xlink:href="#me0ab0a342e" x="119.186236" y="206.721365" style="fill: #0000ff; stroke: #0000ff"/>
     <use xlink:href="#me0ab0a342e" x="122.260616" y="211.701364" style="fill: #0000ff; stroke: #0000ff"/>
     <use xlink:href="#me0ab0a342e" x="125.334996" y="218.274793" style="fill: #0000ff; stroke: #0000ff"/>
     <use xlink:href="#me0ab0a342e" x="128.409376" y="201.943102" style="fill: #0000ff; stroke: #0000ff"/>
     <use xlink:href="#me0ab0a342e" x="131.483756" y="218.607985" style="fill: #0000ff; stroke: #0000ff"/>
     <use xlink:href="#me0ab0a342e" x="134.558137" y="206.70089" style="fill: #0000ff; stroke: #0000ff"/>
     <use xlink:href="#me0ab0a342e" x="137.632517" y="212.349951" style="fill: #0000ff; stroke: #0000ff"/>
     <use xlink:href="#me0ab0a342e" x="140.706897" y="214.922208" style="fill: #0000ff; stroke: #0000ff"/>
     <use xlink:href="#me0ab0a342e" x="143.781277" y="213.406149" style="fill: #0000ff; stroke: #0000ff"/>
     <use xlink:href="#me0ab0a342e" x="146.855657" y="208.698217" style="fill: #0000ff; stroke: #0000ff"/>
     <use xlink:href="#me0ab0a342e" x="149.930037" y="212.826289" style="fill: #0000ff; stroke: #0000ff"/>
     <use xlink:href="#me0ab0a342e" x="153.004418" y="215.182471" style="fill: #0000ff; stroke: #0000ff"/>
     <use xlink:href="#me0ab0a342e" x="156.078798" y="210.793384" style="fill: #0000ff; stroke: #0000ff"/>
     <use xlink:href="#me0ab0a342e" x="159.153178" y="211.17291" style="fill: #0000ff; stroke: #0000ff"/>
     <use xlink:href="#me0ab0a342e" x="162.227558" y="211.193443" style="fill: #0000ff; stroke: #0000ff"/>
     <use xlink:href="#me0ab0a342e" x="165.301938" y="212.014045" style="fill: #0000ff; stroke: #0000ff"/>
     <use xlink:href="#me0ab0a342e" x="168.376318" y="213.943275" style="fill: #0000ff; stroke: #0000ff"/>
     <use xlink:href="#me0ab0a342e" x="171.450699" y="213.768602" style="fill: #0000ff; stroke: #0000ff"/>
     <use xlink:href="#me0ab0a342e" x="174.525079" y="208.411153" style="fill: #0000ff; stroke: #0000ff"/>
     <use xlink:href="#me0ab0a342e" x="177.599459" y="211.039367" style="fill: #0000ff; stroke: #0000ff"/>
     <use xlink:href="#me0ab0a342e" x="180.673839" y="213.678398" style="fill: #0000ff; stroke: #0000ff"/>
     <use xlink:href="#me0ab0a342e" x="183.748219" y="214.433272" style="fill: #0000ff; stroke: #0000ff"/>
     <use xlink:href="#me0ab0a342e" x="186.822599" y="207.786595" style="fill: #0000ff; stroke: #0000ff"/>
     <use xlink:href="#me0ab0a342e" x="189.89698" y="211.916826" style="fill: #0000ff; stroke: #0000ff"/>
     <use xlink:href="#me0ab0a342e" x="192.97136" y="215.071613" style="fill: #0000ff; stroke: #0000ff"/>
     <use xlink:href="#me0ab0a342e" x="196.04574" y="224.293808" style="fill: #0000ff; stroke: #0000ff"/>
     <use xlink:href="#me0ab0a342e" x="199.12012" y="208.927996" style="fill: #0000ff; stroke: #0000ff"/>
     <use xlink:href="#me0ab0a342e" x="202.1945" y="210.649986" style="fill: #0000ff; stroke: #0000ff"/>
     <use xlink:href="#me0ab0a342e" x="205.26888" y="211.482498" style="fill: #0000ff; stroke: #0000ff"/>
     <use xlink:href="#me0ab0a342e" x="208.343261" y="215.485536" style="fill: #0000ff; stroke: #0000ff"/>
     <use xlink:href="#me0ab0a342e" x="211.417641" y="218.382793" style="fill: #0000ff; stroke: #0000ff"/>
     <use xlink:href="#me0ab0a342e" x="214.492021" y="209.17981" style="fill: #0000ff; stroke: #0000ff"/>
     <use xlink:href="#me0ab0a342e" x="217.566401" y="213.606148" style="fill: #0000ff; stroke: #0000ff"/>
     <use xlink:href="#me0ab0a342e" x="220.640781" y="217.290568" style="fill: #0000ff; stroke: #0000ff"/>
     <use xlink:href="#me0ab0a342e" x="223.715161" y="209.270899" style="fill: #0000ff; stroke: #0000ff"/>
     <use xlink:href="#me0ab0a342e" x="226.789542" y="210.055533" style="fill: #0000ff; stroke: #0000ff"/>
     <use xlink:href="#me0ab0a342e" x="229.863922" y="217.515492" style="fill: #0000ff; stroke: #0000ff"/>
     <use xlink:href="#me0ab0a342e" x="232.938302" y="167.653115" style="fill: #0000ff; stroke: #0000ff"/>
     <use xlink:href="#me0ab0a342e" x="236.012682" y="210.476686" style="fill: #0000ff; stroke: #0000ff"/>
     <use xlink:href="#me0ab0a342e" x="239.087062" y="223.963095" style="fill: #0000ff; stroke: #0000ff"/>
     <use xlink:href="#me0ab0a342e" x="242.161442" y="178.600121" style="fill: #0000ff; stroke: #0000ff"/>
     <use xlink:href="#me0ab0a342e" x="245.235823" y="215.130204" style="fill: #0000ff; stroke: #0000ff"/>
     <use xlink:href="#me0ab0a342e" x="248.310203" y="215.770611" style="fill: #0000ff; stroke: #0000ff"/>
     <use xlink:href="#me0ab0a342e" x="251.384583" y="210.981696" style="fill: #0000ff; stroke: #0000ff"/>
     <use xlink:href="#me0ab0a342e" x="254.458963" y="211.715777" style="fill: #0000ff; stroke: #0000ff"/>
     <use xlink:href="#me0ab0a342e" x="257.533343" y="212.407207" style="fill: #0000ff; stroke: #0000ff"/>
     <use xlink:href="#me0ab0a342e" x="260.607723" y="214.372539" style="fill: #0000ff; stroke: #0000ff"/>
     <use xlink:href="#me0ab0a342e" x="263.682104" y="204.183362" style="fill: #0000ff; stroke: #0000ff"/>
     <use xlink:href="#me0ab0a342e" x="266.756484" y="215.270789" style="fill: #0000ff; stroke: #0000ff"/>
     <use xlink:href="#me0ab0a342e" x="269.830864" y="208.546808" style="fill: #0000ff; stroke: #0000ff"/>
     <use xlink:href="#me0ab0a342e" x="272.905244" y="211.982714" style="fill: #0000ff; stroke: #0000ff"/>
     <use xlink:href="#me0ab0a342e" x="275.979624" y="210.088458" style="fill: #0000ff; stroke: #0000ff"/>
     <use xlink:href="#me0ab0a342e" x="279.054004" y="212.485204" style="fill: #0000ff; stroke: #0000ff"/>
     <use xlink:href="#me0ab0a342e" x="282.128385" y="215.878433" style="fill: #0000ff; stroke: #0000ff"/>
     <use xlink:href="#me0ab0a342e" x="285.202765" y="211.345837" style="fill: #0000ff; stroke: #0000ff"/>
     <use xlink:href="#me0ab0a342e" x="288.277145" y="211.418706" style="fill: #0000ff; stroke: #0000ff"/>
     <use xlink:href="#me0ab0a342e" x="291.351525" y="213.464395" style="fill: #0000ff; stroke: #0000ff"/>
     <use xlink:href="#me0ab0a342e" x="294.425905" y="213.811965" style="fill: #0000ff; stroke: #0000ff"/>
     <use xlink:href="#me0ab0a342e" x="297.500285" y="210.786097" style="fill: #0000ff; stroke: #0000ff"/>
     <use xlink:href="#me0ab0a342e" x="300.574665" y="216.030157" style="fill: #0000ff; stroke: #0000ff"/>
     <use xlink:href="#me0ab0a342e" x="303.649046" y="225.261848" style="fill: #0000ff; stroke: #0000ff"/>
     <use xlink:href="#me0ab0a342e" x="306.723426" y="212.361431" style="fill: #0000ff; stroke: #0000ff"/>
     <use xlink:href="#me0ab0a342e" x="309.797806" y="215.249911" style="fill: #0000ff; stroke: #0000ff"/>
     <use xlink:href="#me0ab0a342e" x="312.872186" y="221.201474" style="fill: #0000ff; stroke: #0000ff"/>
     <use xlink:href="#me0ab0a342e" x="315.946566" y="214.011603" style="fill: #0000ff; stroke: #0000ff"/>
     <use xlink:href="#me0ab0a342e" x="319.020946" y="213.917503" style="fill: #0000ff; stroke: #0000ff"/>
     <use xlink:href="#me0ab0a342e" x="322.095327" y="216.768411" style="fill: #0000ff; stroke: #0000ff"/>
     <use xlink:href="#me0ab0a342e" x="325.169707" y="215.019951" style="fill: #0000ff; stroke: #0000ff"/>
     <use xlink:href="#me0ab0a342e" x="328.244087" y="213.191366" style="fill: #0000ff; stroke: #0000ff"/>
     <use xlink:href="#me0ab0a342e" x="331.318467" y="212.625408" style="fill: #0000ff; stroke: #0000ff"/>
     <use xlink:href="#me0ab0a342e" x="334.392847" y="215.913471" style="fill: #0000ff; stroke: #0000ff"/>
     <use xlink:href="#me0ab0a342e" x="337.467227" y="210.10479" style="fill: #0000ff; stroke: #0000ff"/>
     <use xlink:href="#me0ab0a342e" x="340.541608" y="213.067165" style="fill: #0000ff; stroke: #0000ff"/>
     <use xlink:href="#me0ab0a342e" x="343.615988" y="212.560647" style="fill: #0000ff; stroke: #0000ff"/>
     <use xlink:href="#me0ab0a342e" x="346.690368" y="206.10005" style="fill: #0000ff; stroke: #0000ff"/>
     <use xlink:href="#me0ab0a342e" x="349.764748" y="209.738634" style="fill: #0000ff; stroke: #0000ff"/>
     <use xlink:href="#me0ab0a342e" x="352.839128" y="199.51097" style="fill: #0000ff; stroke: #0000ff"/>
     <use xlink:href="#me0ab0a342e" x="355.913508" y="210.623007" style="fill: #0000ff; stroke: #0000ff"/>
     <use xlink:href="#me0ab0a342e" x="358.987889" y="211.057933" style="fill: #0000ff; stroke: #0000ff"/>
     <use xlink:href="#me0ab0a342e" x="362.062269" y="210.663643" style="fill: #0000ff; stroke: #0000ff"/>
     <use xlink:href="#me0ab0a342e" x="365.136649" y="220.268119" style="fill: #0000ff; stroke: #0000ff"/>
     <use xlink:href="#me0ab0a342e" x="368.211029" y="215.169247" style="fill: #0000ff; stroke: #0000ff"/>
     <use xlink:href="#me0ab0a342e" x="371.285409" y="215.562607" style="fill: #0000ff; stroke: #0000ff"/>
     <use xlink:href="#me0ab0a342e" x="374.359789" y="215.376329" style="fill: #0000ff; stroke: #0000ff"/>
    </g>
   </g>
   <g id="patch_3">
    <path d="M 54.777971 235.145484 
L 54.777971 17.705484 
" style="fill: none; stroke: #000000; stroke-width: 0.5; stroke-linejoin: miter; stroke-linecap: square"/>
   </g>
   <g id="patch_4">
    <path d="M 389.577971 235.145484 
L 389.577971 17.705484 
" style="fill: none; stroke: #000000; stroke-width: 0.5; stroke-linejoin: miter; stroke-linecap: square"/>
   </g>
   <g id="patch_5">
    <path d="M 54.777971 235.145484 
L 389.577971 235.145484 
" style="fill: none; stroke: #000000; stroke-width: 0.5; stroke-linejoin: miter; stroke-linecap: square"/>
   </g>
   <g id="patch_6">
    <path d="M 54.777971 17.705484 
L 389.577971 17.705484 
" style="fill: none; stroke: #000000; stroke-width: 0.5; stroke-linejoin: miter; stroke-linecap: square"/>
   </g>
   <g id="text_11">
    <!-- Loss function evolution -->
    <g transform="translate(165.66042 11.705484)scale(0.12 -0.12)">
     <defs>
      <path id="NimbusRomNo9L-Regu-4c" d="M 3667 1114 
C 3558 870 3469 723 3373 614 
C 3149 365 2797 250 2266 250 
L 1837 250 
C 1370 250 1286 288 1286 513 
L 1286 3550 
C 1286 4007 1376 4096 1882 4096 
L 1882 4237 
L 77 4237 
L 77 4115 
C 550 4077 634 3986 634 3536 
L 634 681 
C 634 230 544 134 77 134 
L 77 0 
L 3520 0 
L 3827 1114 
L 3667 1114 
z
" transform="scale(0.015625)"/>
      <path id="NimbusRomNo9L-Regu-66" d="M 1978 2880 
L 1190 2880 
L 1190 3611 
C 1190 3978 1312 4173 1555 4173 
C 1690 4173 1779 4110 1894 3927 
C 1997 3763 2074 3700 2182 3700 
C 2330 3700 2451 3814 2451 3959 
C 2451 4188 2170 4352 1786 4352 
C 1389 4352 1050 4181 883 3891 
C 717 3613 666 3385 659 2880 
L 134 2880 
L 134 2675 
L 659 2675 
L 659 656 
C 659 185 589 109 128 109 
L 128 0 
L 1792 0 
L 1792 109 
C 1267 109 1197 180 1197 661 
L 1197 2675 
L 1978 2675 
L 1978 2880 
z
" transform="scale(0.015625)"/>
      <path id="NimbusRomNo9L-Regu-75" d="M 3066 320 
L 3034 320 
C 2739 320 2669 390 2669 685 
L 2669 2880 
L 1658 2880 
L 1658 2758 
C 2054 2758 2131 2694 2131 2375 
L 2131 875 
C 2131 697 2099 607 2010 537 
C 1837 397 1638 320 1446 320 
C 1197 320 992 537 992 805 
L 992 2880 
L 58 2880 
L 58 2778 
C 365 2778 454 2682 454 2387 
L 454 770 
C 454 263 762 -64 1229 -64 
C 1466 -64 1715 38 1888 211 
L 2163 486 
L 2163 -45 
L 2189 -58 
C 2509 70 2739 141 3066 230 
L 3066 320 
z
" transform="scale(0.015625)"/>
      <path id="NimbusRomNo9L-Regu-6e" d="M 102 2579 
C 141 2598 205 2605 275 2605 
C 454 2605 512 2509 512 2195 
L 512 608 
C 512 243 442 154 115 128 
L 115 32 
L 1472 32 
L 1472 128 
C 1146 154 1050 230 1050 461 
L 1050 2259 
C 1357 2547 1498 2624 1709 2624 
C 2022 2624 2176 2426 2176 2003 
L 2176 666 
C 2176 262 2093 154 1773 128 
L 1773 32 
L 3104 32 
L 3104 128 
C 2790 160 2714 237 2714 550 
L 2714 2016 
C 2714 2618 2432 2976 1958 2976 
C 1664 2976 1466 2867 1030 2458 
L 1030 2963 
L 986 2976 
C 672 2861 454 2790 102 2688 
L 102 2579 
z
" transform="scale(0.015625)"/>
      <path id="NimbusRomNo9L-Regu-74" d="M 1632 2880 
L 986 2880 
L 986 3622 
C 986 3686 979 3706 941 3706 
C 896 3648 858 3590 813 3526 
C 570 3174 294 2867 192 2841 
C 122 2794 83 2748 83 2715 
C 83 2695 90 2682 109 2682 
L 448 2682 
L 448 751 
C 448 212 640 -64 1018 -64 
C 1331 -64 1574 90 1786 423 
L 1702 493 
C 1568 333 1459 269 1318 269 
C 1082 269 986 443 986 847 
L 986 2682 
L 1632 2682 
L 1632 2880 
z
" transform="scale(0.015625)"/>
      <path id="NimbusRomNo9L-Regu-69" d="M 1120 2929 
L 128 2579 
L 128 2484 
L 179 2490 
C 256 2502 339 2509 397 2509 
C 550 2509 608 2406 608 2125 
L 608 640 
C 608 179 544 109 102 109 
L 102 0 
L 1619 0 
L 1619 96 
C 1197 128 1146 191 1146 650 
L 1146 2910 
L 1120 2929 
z
M 819 4352 
C 646 4352 499 4205 499 4026 
C 499 3847 640 3699 819 3699 
C 1005 3699 1152 3840 1152 4026 
C 1152 4205 1005 4352 819 4352 
z
" transform="scale(0.015625)"/>
      <path id="NimbusRomNo9L-Regu-65" d="M 2611 1053 
C 2304 564 2029 378 1619 378 
C 1254 378 979 564 794 930 
C 678 1174 634 1386 621 1779 
L 2592 1779 
C 2541 2193 2477 2377 2317 2581 
C 2125 2811 1830 2944 1498 2944 
C 1178 2944 877 2829 634 2611 
C 333 2349 160 1894 160 1370 
C 160 486 621 -64 1357 -64 
C 1965 -64 2445 315 2714 1008 
L 2611 1053 
z
M 634 1984 
C 704 2479 922 2714 1312 2714 
C 1702 2714 1856 2535 1939 1984 
L 634 1984 
z
" transform="scale(0.015625)"/>
      <path id="NimbusRomNo9L-Regu-76" d="M 3053 2854 
L 2163 2854 
L 2163 2758 
C 2368 2739 2464 2675 2464 2552 
C 2464 2488 2451 2424 2426 2359 
L 1792 695 
L 1139 2340 
C 1101 2431 1082 2520 1082 2578 
C 1082 2694 1152 2739 1376 2758 
L 1376 2854 
L 122 2854 
L 122 2752 
C 365 2752 410 2688 704 2024 
L 1472 175 
C 1485 137 1504 91 1523 40 
C 1562 -76 1600 -128 1638 -128 
C 1677 -128 1722 -44 1818 193 
L 2637 2257 
C 2822 2694 2861 2739 3053 2758 
L 3053 2854 
z
" transform="scale(0.015625)"/>
     </defs>
     <use xlink:href="#NimbusRomNo9L-Regu-4c" transform="scale(0.996264)"/>
     <use xlink:href="#NimbusRomNo9L-Regu-6f" transform="translate(60.871631 0)scale(0.996264)"/>
     <use xlink:href="#NimbusRomNo9L-Regu-73" transform="translate(110.684831 0)scale(0.996264)"/>
     <use xlink:href="#NimbusRomNo9L-Regu-73" transform="translate(149.438537 0)scale(0.996264)"/>
     <use xlink:href="#NimbusRomNo9L-Regu-66" transform="translate(213.098844 0)scale(0.996264)"/>
     <use xlink:href="#NimbusRomNo9L-Regu-75" transform="translate(246.274074 0)scale(0.996264)"/>
     <use xlink:href="#NimbusRomNo9L-Regu-6e" transform="translate(296.087274 0)scale(0.996264)"/>
     <use xlink:href="#NimbusRomNo9L-Regu-63" transform="translate(345.900475 0)scale(0.996264)"/>
     <use xlink:href="#NimbusRomNo9L-Regu-74" transform="translate(390.134043 0)scale(0.996264)"/>
     <use xlink:href="#NimbusRomNo9L-Regu-69" transform="translate(417.829213 0)scale(0.996264)"/>
     <use xlink:href="#NimbusRomNo9L-Regu-6f" transform="translate(445.524382 0)scale(0.996264)"/>
     <use xlink:href="#NimbusRomNo9L-Regu-6e" transform="translate(495.337583 0)scale(0.996264)"/>
     <use xlink:href="#NimbusRomNo9L-Regu-65" transform="translate(570.057384 0)scale(0.996264)"/>
     <use xlink:href="#NimbusRomNo9L-Regu-76" transform="translate(611.800323 0)scale(0.996264)"/>
     <use xlink:href="#NimbusRomNo9L-Regu-6f" transform="translate(659.621512 0)scale(0.996264)"/>
     <use xlink:href="#NimbusRomNo9L-Regu-6c" transform="translate(709.434713 0)scale(0.996264)"/>
     <use xlink:href="#NimbusRomNo9L-Regu-75" transform="translate(737.129882 0)scale(0.996264)"/>
     <use xlink:href="#NimbusRomNo9L-Regu-74" transform="translate(786.943083 0)scale(0.996264)"/>
     <use xlink:href="#NimbusRomNo9L-Regu-69" transform="translate(814.638252 0)scale(0.996264)"/>
     <use xlink:href="#NimbusRomNo9L-Regu-6f" transform="translate(842.333422 0)scale(0.996264)"/>
     <use xlink:href="#NimbusRomNo9L-Regu-6e" transform="translate(892.146622 0)scale(0.996264)"/>
    </g>
   </g>
  </g>
 </g>
 <defs>
  <clipPath id="pda15a9acde">
   <rect x="54.777971" y="17.705484" width="334.8" height="217.44"/>
  </clipPath>
 </defs>
</svg>
