<?xml version="1.0" encoding="utf-8" standalone="no"?>
<!DOCTYPE svg PUBLIC "-//W3C//DTD SVG 1.1//EN"
  "http://www.w3.org/Graphics/SVG/1.1/DTD/svg11.dtd">
<svg xmlns:xlink="http://www.w3.org/1999/xlink" width="432pt" height="288pt" viewBox="0 0 432 288" xmlns="http://www.w3.org/2000/svg" version="1.1">
 <metadata>
  <rdf:RDF xmlns:dc="http://purl.org/dc/elements/1.1/" xmlns:cc="http://creativecommons.org/ns#" xmlns:rdf="http://www.w3.org/1999/02/22-rdf-syntax-ns#">
   <cc:Work>
    <dc:type rdf:resource="http://purl.org/dc/dcmitype/StillImage"/>
    <dc:date>2022-06-09T06:25:49.304931</dc:date>
    <dc:format>image/svg+xml</dc:format>
    <dc:creator>
     <cc:Agent>
      <dc:title>Matplotlib v3.5.0, https://matplotlib.org/</dc:title>
     </cc:Agent>
    </dc:creator>
   </cc:Work>
  </rdf:RDF>
 </metadata>
 <defs>
  <style type="text/css">*{stroke-linejoin: round; stroke-linecap: butt}</style>
 </defs>
 <g id="figure_1">
  <g id="patch_1">
   <path d="M 0 288 
L 432 288 
L 432 0 
L 0 0 
L 0 288 
z
" style="fill: none"/>
  </g>
  <g id="axes_1">
   <g id="patch_2">
    <path d="M 35.45024 88.384455 
L 428.99976 88.384455 
L 428.99976 36.212595 
L 35.45024 36.212595 
z
" style="fill: #ffffff"/>
   </g>
   <g id="patch_3">
    <path d="M 53.338855 88.384455 
L 56.916577 88.384455 
L 56.916577 39.002363 
L 53.338855 39.002363 
z
" clip-path="url(#pf4d0becb8a)" style="fill: #1f77b4"/>
   </g>
   <g id="patch_4">
    <path d="M 56.916577 88.384455 
L 60.4943 88.384455 
L 60.4943 38.696969 
L 56.916577 38.696969 
z
" clip-path="url(#pf4d0becb8a)" style="fill: #1f77b4"/>
   </g>
   <g id="patch_5">
    <path d="M 60.4943 88.384455 
L 64.072023 88.384455 
L 64.072023 41.506587 
L 60.4943 41.506587 
z
" clip-path="url(#pf4d0becb8a)" style="fill: #1f77b4"/>
   </g>
   <g id="patch_6">
    <path d="M 64.072023 88.384455 
L 67.649746 88.384455 
L 67.649746 43.797037 
L 64.072023 43.797037 
z
" clip-path="url(#pf4d0becb8a)" style="fill: #1f77b4"/>
   </g>
   <g id="patch_7">
    <path d="M 67.649746 88.384455 
L 71.227469 88.384455 
L 71.227469 44.194048 
L 67.649746 44.194048 
z
" clip-path="url(#pf4d0becb8a)" style="fill: #1f77b4"/>
   </g>
   <g id="patch_8">
    <path d="M 71.227469 88.384455 
L 74.805192 88.384455 
L 74.805192 46.331801 
L 71.227469 46.331801 
z
" clip-path="url(#pf4d0becb8a)" style="fill: #1f77b4"/>
   </g>
   <g id="patch_9">
    <path d="M 74.805192 88.384455 
L 78.382915 88.384455 
L 78.382915 47.30906 
L 74.805192 47.30906 
z
" clip-path="url(#pf4d0becb8a)" style="fill: #1f77b4"/>
   </g>
   <g id="patch_10">
    <path d="M 78.382915 88.384455 
L 81.960638 88.384455 
L 81.960638 49.385734 
L 78.382915 49.385734 
z
" clip-path="url(#pf4d0becb8a)" style="fill: #1f77b4"/>
   </g>
   <g id="patch_11">
    <path d="M 81.960638 88.384455 
L 85.538361 88.384455 
L 85.538361 52.317509 
L 81.960638 52.317509 
z
" clip-path="url(#pf4d0becb8a)" style="fill: #1f77b4"/>
   </g>
   <g id="patch_12">
    <path d="M 85.538361 88.384455 
L 89.116084 88.384455 
L 89.116084 54.11933 
L 85.538361 54.11933 
z
" clip-path="url(#pf4d0becb8a)" style="fill: #1f77b4"/>
   </g>
   <g id="patch_13">
    <path d="M 89.116084 88.384455 
L 92.693807 88.384455 
L 92.693807 57.29542 
L 89.116084 57.29542 
z
" clip-path="url(#pf4d0becb8a)" style="fill: #1f77b4"/>
   </g>
   <g id="patch_14">
    <path d="M 92.693807 88.384455 
L 96.271529 88.384455 
L 96.271529 58.18106 
L 92.693807 58.18106 
z
" clip-path="url(#pf4d0becb8a)" style="fill: #1f77b4"/>
   </g>
   <g id="patch_15">
    <path d="M 96.271529 88.384455 
L 99.849252 88.384455 
L 99.849252 62.456566 
L 96.271529 62.456566 
z
" clip-path="url(#pf4d0becb8a)" style="fill: #1f77b4"/>
   </g>
   <g id="patch_16">
    <path d="M 99.849252 88.384455 
L 103.426975 88.384455 
L 103.426975 64.044611 
L 99.849252 64.044611 
z
" clip-path="url(#pf4d0becb8a)" style="fill: #1f77b4"/>
   </g>
   <g id="patch_17">
    <path d="M 103.426975 88.384455 
L 107.004698 88.384455 
L 107.004698 64.227847 
L 103.426975 64.227847 
z
" clip-path="url(#pf4d0becb8a)" style="fill: #1f77b4"/>
   </g>
   <g id="patch_18">
    <path d="M 107.004698 88.384455 
L 110.582421 88.384455 
L 110.582421 65.571577 
L 107.004698 65.571577 
z
" clip-path="url(#pf4d0becb8a)" style="fill: #1f77b4"/>
   </g>
   <g id="patch_19">
    <path d="M 110.582421 88.384455 
L 114.160144 88.384455 
L 114.160144 68.839285 
L 110.582421 68.839285 
z
" clip-path="url(#pf4d0becb8a)" style="fill: #1f77b4"/>
   </g>
   <g id="patch_20">
    <path d="M 114.160144 88.384455 
L 117.737867 88.384455 
L 117.737867 69.969241 
L 114.160144 69.969241 
z
" clip-path="url(#pf4d0becb8a)" style="fill: #1f77b4"/>
   </g>
   <g id="patch_21">
    <path d="M 117.737867 88.384455 
L 121.31559 88.384455 
L 121.31559 71.129735 
L 117.737867 71.129735 
z
" clip-path="url(#pf4d0becb8a)" style="fill: #1f77b4"/>
   </g>
   <g id="patch_22">
    <path d="M 121.31559 88.384455 
L 124.893313 88.384455 
L 124.893313 71.954297 
L 121.31559 71.954297 
z
" clip-path="url(#pf4d0becb8a)" style="fill: #1f77b4"/>
   </g>
   <g id="patch_23">
    <path d="M 124.893313 88.384455 
L 128.471036 88.384455 
L 128.471036 71.923758 
L 124.893313 71.923758 
z
" clip-path="url(#pf4d0becb8a)" style="fill: #1f77b4"/>
   </g>
   <g id="patch_24">
    <path d="M 128.471036 88.384455 
L 132.048759 88.384455 
L 132.048759 73.053713 
L 128.471036 73.053713 
z
" clip-path="url(#pf4d0becb8a)" style="fill: #1f77b4"/>
   </g>
   <g id="patch_25">
    <path d="M 132.048759 88.384455 
L 135.626481 88.384455 
L 135.626481 74.641758 
L 132.048759 74.641758 
z
" clip-path="url(#pf4d0becb8a)" style="fill: #1f77b4"/>
   </g>
   <g id="patch_26">
    <path d="M 135.626481 88.384455 
L 139.204204 88.384455 
L 139.204204 75.099848 
L 135.626481 75.099848 
z
" clip-path="url(#pf4d0becb8a)" style="fill: #1f77b4"/>
   </g>
   <g id="patch_27">
    <path d="M 139.204204 88.384455 
L 142.781927 88.384455 
L 142.781927 74.580679 
L 139.204204 74.580679 
z
" clip-path="url(#pf4d0becb8a)" style="fill: #1f77b4"/>
   </g>
   <g id="patch_28">
    <path d="M 142.781927 88.384455 
L 146.35965 88.384455 
L 146.35965 74.916612 
L 142.781927 74.916612 
z
" clip-path="url(#pf4d0becb8a)" style="fill: #1f77b4"/>
   </g>
   <g id="patch_29">
    <path d="M 146.35965 88.384455 
L 149.937373 88.384455 
L 149.937373 76.35196 
L 146.35965 76.35196 
z
" clip-path="url(#pf4d0becb8a)" style="fill: #1f77b4"/>
   </g>
   <g id="patch_30">
    <path d="M 149.937373 88.384455 
L 153.515096 88.384455 
L 153.515096 75.46632 
L 149.937373 75.46632 
z
" clip-path="url(#pf4d0becb8a)" style="fill: #1f77b4"/>
   </g>
   <g id="patch_31">
    <path d="M 153.515096 88.384455 
L 157.092819 88.384455 
L 157.092819 77.359758 
L 153.515096 77.359758 
z
" clip-path="url(#pf4d0becb8a)" style="fill: #1f77b4"/>
   </g>
   <g id="patch_32">
    <path d="M 157.092819 88.384455 
L 160.670542 88.384455 
L 160.670542 76.993286 
L 157.092819 76.993286 
z
" clip-path="url(#pf4d0becb8a)" style="fill: #1f77b4"/>
   </g>
   <g id="patch_33">
    <path d="M 160.670542 88.384455 
L 164.248265 88.384455 
L 164.248265 76.016027 
L 160.670542 76.016027 
z
" clip-path="url(#pf4d0becb8a)" style="fill: #1f77b4"/>
   </g>
   <g id="patch_34">
    <path d="M 164.248265 88.384455 
L 167.825988 88.384455 
L 167.825988 77.207061 
L 164.248265 77.207061 
z
" clip-path="url(#pf4d0becb8a)" style="fill: #1f77b4"/>
   </g>
   <g id="patch_35">
    <path d="M 167.825988 88.384455 
L 171.403711 88.384455 
L 171.403711 78.275938 
L 167.825988 78.275938 
z
" clip-path="url(#pf4d0becb8a)" style="fill: #1f77b4"/>
   </g>
   <g id="patch_36">
    <path d="M 171.403711 88.384455 
L 174.981433 88.384455 
L 174.981433 76.932207 
L 171.403711 76.932207 
z
" clip-path="url(#pf4d0becb8a)" style="fill: #1f77b4"/>
   </g>
   <g id="patch_37">
    <path d="M 174.981433 88.384455 
L 178.559156 88.384455 
L 178.559156 78.18432 
L 174.981433 78.18432 
z
" clip-path="url(#pf4d0becb8a)" style="fill: #1f77b4"/>
   </g>
   <g id="patch_38">
    <path d="M 178.559156 88.384455 
L 182.136879 88.384455 
L 182.136879 76.443578 
L 178.559156 76.443578 
z
" clip-path="url(#pf4d0becb8a)" style="fill: #1f77b4"/>
   </g>
   <g id="patch_39">
    <path d="M 182.136879 88.384455 
L 185.714602 88.384455 
L 185.714602 77.176522 
L 182.136879 77.176522 
z
" clip-path="url(#pf4d0becb8a)" style="fill: #1f77b4"/>
   </g>
   <g id="patch_40">
    <path d="M 185.714602 88.384455 
L 189.292325 88.384455 
L 189.292325 77.909466 
L 185.714602 77.909466 
z
" clip-path="url(#pf4d0becb8a)" style="fill: #1f77b4"/>
   </g>
   <g id="patch_41">
    <path d="M 189.292325 88.384455 
L 192.870048 88.384455 
L 192.870048 78.214859 
L 189.292325 78.214859 
z
" clip-path="url(#pf4d0becb8a)" style="fill: #1f77b4"/>
   </g>
   <g id="patch_42">
    <path d="M 192.870048 88.384455 
L 196.447771 88.384455 
L 196.447771 78.214859 
L 192.870048 78.214859 
z
" clip-path="url(#pf4d0becb8a)" style="fill: #1f77b4"/>
   </g>
   <g id="patch_43">
    <path d="M 196.447771 88.384455 
L 200.025494 88.384455 
L 200.025494 78.15378 
L 196.447771 78.15378 
z
" clip-path="url(#pf4d0becb8a)" style="fill: #1f77b4"/>
   </g>
   <g id="patch_44">
    <path d="M 200.025494 88.384455 
L 203.603217 88.384455 
L 203.603217 78.428634 
L 200.025494 78.428634 
z
" clip-path="url(#pf4d0becb8a)" style="fill: #1f77b4"/>
   </g>
   <g id="patch_45">
    <path d="M 203.603217 88.384455 
L 207.18094 88.384455 
L 207.18094 78.550792 
L 203.603217 78.550792 
z
" clip-path="url(#pf4d0becb8a)" style="fill: #1f77b4"/>
   </g>
   <g id="patch_46">
    <path d="M 207.18094 88.384455 
L 210.758663 88.384455 
L 210.758663 77.69569 
L 207.18094 77.69569 
z
" clip-path="url(#pf4d0becb8a)" style="fill: #1f77b4"/>
   </g>
   <g id="patch_47">
    <path d="M 210.758663 88.384455 
L 214.336385 88.384455 
L 214.336385 79.161578 
L 210.758663 79.161578 
z
" clip-path="url(#pf4d0becb8a)" style="fill: #1f77b4"/>
   </g>
   <g id="patch_48">
    <path d="M 214.336385 88.384455 
L 217.914108 88.384455 
L 217.914108 78.245398 
L 214.336385 78.245398 
z
" clip-path="url(#pf4d0becb8a)" style="fill: #1f77b4"/>
   </g>
   <g id="patch_49">
    <path d="M 217.914108 88.384455 
L 221.491831 88.384455 
L 221.491831 77.26814 
L 217.914108 77.26814 
z
" clip-path="url(#pf4d0becb8a)" style="fill: #1f77b4"/>
   </g>
   <g id="patch_50">
    <path d="M 221.491831 88.384455 
L 225.069554 88.384455 
L 225.069554 78.581331 
L 221.491831 78.581331 
z
" clip-path="url(#pf4d0becb8a)" style="fill: #1f77b4"/>
   </g>
   <g id="patch_51">
    <path d="M 225.069554 88.384455 
L 228.647277 88.384455 
L 228.647277 77.665151 
L 225.069554 77.665151 
z
" clip-path="url(#pf4d0becb8a)" style="fill: #1f77b4"/>
   </g>
   <g id="patch_52">
    <path d="M 228.647277 88.384455 
L 232.225 88.384455 
L 232.225 77.512454 
L 228.647277 77.512454 
z
" clip-path="url(#pf4d0becb8a)" style="fill: #1f77b4"/>
   </g>
   <g id="patch_53">
    <path d="M 232.225 88.384455 
L 235.802723 88.384455 
L 235.802723 78.61187 
L 232.225 78.61187 
z
" clip-path="url(#pf4d0becb8a)" style="fill: #1f77b4"/>
   </g>
   <g id="patch_54">
    <path d="M 235.802723 88.384455 
L 239.380446 88.384455 
L 239.380446 77.329218 
L 235.802723 77.329218 
z
" clip-path="url(#pf4d0becb8a)" style="fill: #1f77b4"/>
   </g>
   <g id="patch_55">
    <path d="M 239.380446 88.384455 
L 242.958169 88.384455 
L 242.958169 77.878926 
L 239.380446 77.878926 
z
" clip-path="url(#pf4d0becb8a)" style="fill: #1f77b4"/>
   </g>
   <g id="patch_56">
    <path d="M 242.958169 88.384455 
L 246.535892 88.384455 
L 246.535892 78.367556 
L 242.958169 78.367556 
z
" clip-path="url(#pf4d0becb8a)" style="fill: #1f77b4"/>
   </g>
   <g id="patch_57">
    <path d="M 246.535892 88.384455 
L 250.113615 88.384455 
L 250.113615 78.092702 
L 246.535892 78.092702 
z
" clip-path="url(#pf4d0becb8a)" style="fill: #1f77b4"/>
   </g>
   <g id="patch_58">
    <path d="M 250.113615 88.384455 
L 253.691337 88.384455 
L 253.691337 77.940005 
L 250.113615 77.940005 
z
" clip-path="url(#pf4d0becb8a)" style="fill: #1f77b4"/>
   </g>
   <g id="patch_59">
    <path d="M 253.691337 88.384455 
L 257.26906 88.384455 
L 257.26906 77.817848 
L 253.691337 77.817848 
z
" clip-path="url(#pf4d0becb8a)" style="fill: #1f77b4"/>
   </g>
   <g id="patch_60">
    <path d="M 257.26906 88.384455 
L 260.846783 88.384455 
L 260.846783 78.031623 
L 257.26906 78.031623 
z
" clip-path="url(#pf4d0becb8a)" style="fill: #1f77b4"/>
   </g>
   <g id="patch_61">
    <path d="M 260.846783 88.384455 
L 264.424506 88.384455 
L 264.424506 77.665151 
L 260.846783 77.665151 
z
" clip-path="url(#pf4d0becb8a)" style="fill: #1f77b4"/>
   </g>
   <g id="patch_62">
    <path d="M 264.424506 88.384455 
L 268.002229 88.384455 
L 268.002229 77.878926 
L 264.424506 77.878926 
z
" clip-path="url(#pf4d0becb8a)" style="fill: #1f77b4"/>
   </g>
   <g id="patch_63">
    <path d="M 268.002229 88.384455 
L 271.579952 88.384455 
L 271.579952 78.550792 
L 268.002229 78.550792 
z
" clip-path="url(#pf4d0becb8a)" style="fill: #1f77b4"/>
   </g>
   <g id="patch_64">
    <path d="M 271.579952 88.384455 
L 275.157675 88.384455 
L 275.157675 78.398095 
L 271.579952 78.398095 
z
" clip-path="url(#pf4d0becb8a)" style="fill: #1f77b4"/>
   </g>
   <g id="patch_65">
    <path d="M 275.157675 88.384455 
L 278.735398 88.384455 
L 278.735398 78.062162 
L 275.157675 78.062162 
z
" clip-path="url(#pf4d0becb8a)" style="fill: #1f77b4"/>
   </g>
   <g id="patch_66">
    <path d="M 278.735398 88.384455 
L 282.313121 88.384455 
L 282.313121 77.054365 
L 278.735398 77.054365 
z
" clip-path="url(#pf4d0becb8a)" style="fill: #1f77b4"/>
   </g>
   <g id="patch_67">
    <path d="M 282.313121 88.384455 
L 285.890844 88.384455 
L 285.890844 78.795106 
L 282.313121 78.795106 
z
" clip-path="url(#pf4d0becb8a)" style="fill: #1f77b4"/>
   </g>
   <g id="patch_68">
    <path d="M 285.890844 88.384455 
L 289.468567 88.384455 
L 289.468567 77.207061 
L 285.890844 77.207061 
z
" clip-path="url(#pf4d0becb8a)" style="fill: #1f77b4"/>
   </g>
   <g id="patch_69">
    <path d="M 289.468567 88.384455 
L 293.046289 88.384455 
L 293.046289 78.245398 
L 289.468567 78.245398 
z
" clip-path="url(#pf4d0becb8a)" style="fill: #1f77b4"/>
   </g>
   <g id="patch_70">
    <path d="M 293.046289 88.384455 
L 296.624012 88.384455 
L 296.624012 77.72623 
L 293.046289 77.72623 
z
" clip-path="url(#pf4d0becb8a)" style="fill: #1f77b4"/>
   </g>
   <g id="patch_71">
    <path d="M 296.624012 88.384455 
L 300.201735 88.384455 
L 300.201735 76.657353 
L 296.624012 76.657353 
z
" clip-path="url(#pf4d0becb8a)" style="fill: #1f77b4"/>
   </g>
   <g id="patch_72">
    <path d="M 300.201735 88.384455 
L 303.779458 88.384455 
L 303.779458 78.062162 
L 300.201735 78.062162 
z
" clip-path="url(#pf4d0becb8a)" style="fill: #1f77b4"/>
   </g>
   <g id="patch_73">
    <path d="M 303.779458 88.384455 
L 307.357181 88.384455 
L 307.357181 78.367556 
L 303.779458 78.367556 
z
" clip-path="url(#pf4d0becb8a)" style="fill: #1f77b4"/>
   </g>
   <g id="patch_74">
    <path d="M 307.357181 88.384455 
L 310.934904 88.384455 
L 310.934904 77.084904 
L 307.357181 77.084904 
z
" clip-path="url(#pf4d0becb8a)" style="fill: #1f77b4"/>
   </g>
   <g id="patch_75">
    <path d="M 310.934904 88.384455 
L 314.512627 88.384455 
L 314.512627 78.703488 
L 310.934904 78.703488 
z
" clip-path="url(#pf4d0becb8a)" style="fill: #1f77b4"/>
   </g>
   <g id="patch_76">
    <path d="M 314.512627 88.384455 
L 318.09035 88.384455 
L 318.09035 77.756769 
L 314.512627 77.756769 
z
" clip-path="url(#pf4d0becb8a)" style="fill: #1f77b4"/>
   </g>
   <g id="patch_77">
    <path d="M 318.09035 88.384455 
L 321.668073 88.384455 
L 321.668073 76.901668 
L 318.09035 76.901668 
z
" clip-path="url(#pf4d0becb8a)" style="fill: #1f77b4"/>
   </g>
   <g id="patch_78">
    <path d="M 321.668073 88.384455 
L 325.245796 88.384455 
L 325.245796 77.542994 
L 321.668073 77.542994 
z
" clip-path="url(#pf4d0becb8a)" style="fill: #1f77b4"/>
   </g>
   <g id="patch_79">
    <path d="M 325.245796 88.384455 
L 328.823519 88.384455 
L 328.823519 77.787308 
L 325.245796 77.787308 
z
" clip-path="url(#pf4d0becb8a)" style="fill: #1f77b4"/>
   </g>
   <g id="patch_80">
    <path d="M 328.823519 88.384455 
L 332.401241 88.384455 
L 332.401241 77.573533 
L 328.823519 77.573533 
z
" clip-path="url(#pf4d0becb8a)" style="fill: #1f77b4"/>
   </g>
   <g id="patch_81">
    <path d="M 332.401241 88.384455 
L 335.978964 88.384455 
L 335.978964 77.481915 
L 332.401241 77.481915 
z
" clip-path="url(#pf4d0becb8a)" style="fill: #1f77b4"/>
   </g>
   <g id="patch_82">
    <path d="M 335.978964 88.384455 
L 339.556687 88.384455 
L 339.556687 77.909466 
L 335.978964 77.909466 
z
" clip-path="url(#pf4d0becb8a)" style="fill: #1f77b4"/>
   </g>
   <g id="patch_83">
    <path d="M 339.556687 88.384455 
L 343.13441 88.384455 
L 343.13441 78.764567 
L 339.556687 78.764567 
z
" clip-path="url(#pf4d0becb8a)" style="fill: #1f77b4"/>
   </g>
   <g id="patch_84">
    <path d="M 343.13441 88.384455 
L 346.712133 88.384455 
L 346.712133 77.054365 
L 343.13441 77.054365 
z
" clip-path="url(#pf4d0becb8a)" style="fill: #1f77b4"/>
   </g>
   <g id="patch_85">
    <path d="M 346.712133 88.384455 
L 350.289856 88.384455 
L 350.289856 77.878926 
L 346.712133 77.878926 
z
" clip-path="url(#pf4d0becb8a)" style="fill: #1f77b4"/>
   </g>
   <g id="patch_86">
    <path d="M 350.289856 88.384455 
L 353.867579 88.384455 
L 353.867579 78.123241 
L 350.289856 78.123241 
z
" clip-path="url(#pf4d0becb8a)" style="fill: #1f77b4"/>
   </g>
   <g id="patch_87">
    <path d="M 353.867579 88.384455 
L 357.445302 88.384455 
L 357.445302 78.031623 
L 353.867579 78.031623 
z
" clip-path="url(#pf4d0becb8a)" style="fill: #1f77b4"/>
   </g>
   <g id="patch_88">
    <path d="M 357.445302 88.384455 
L 361.023025 88.384455 
L 361.023025 77.26814 
L 357.445302 77.26814 
z
" clip-path="url(#pf4d0becb8a)" style="fill: #1f77b4"/>
   </g>
   <g id="patch_89">
    <path d="M 361.023025 88.384455 
L 364.600748 88.384455 
L 364.600748 77.604072 
L 361.023025 77.604072 
z
" clip-path="url(#pf4d0becb8a)" style="fill: #1f77b4"/>
   </g>
   <g id="patch_90">
    <path d="M 364.600748 88.384455 
L 368.178471 88.384455 
L 368.178471 77.26814 
L 364.600748 77.26814 
z
" clip-path="url(#pf4d0becb8a)" style="fill: #1f77b4"/>
   </g>
   <g id="patch_91">
    <path d="M 368.178471 88.384455 
L 371.756193 88.384455 
L 371.756193 78.337016 
L 368.178471 78.337016 
z
" clip-path="url(#pf4d0becb8a)" style="fill: #1f77b4"/>
   </g>
   <g id="patch_92">
    <path d="M 371.756193 88.384455 
L 375.333916 88.384455 
L 375.333916 77.298679 
L 371.756193 77.298679 
z
" clip-path="url(#pf4d0becb8a)" style="fill: #1f77b4"/>
   </g>
   <g id="patch_93">
    <path d="M 375.333916 88.384455 
L 378.911639 88.384455 
L 378.911639 78.18432 
L 375.333916 78.18432 
z
" clip-path="url(#pf4d0becb8a)" style="fill: #1f77b4"/>
   </g>
   <g id="patch_94">
    <path d="M 378.911639 88.384455 
L 382.489362 88.384455 
L 382.489362 77.054365 
L 378.911639 77.054365 
z
" clip-path="url(#pf4d0becb8a)" style="fill: #1f77b4"/>
   </g>
   <g id="patch_95">
    <path d="M 382.489362 88.384455 
L 386.067085 88.384455 
L 386.067085 78.245398 
L 382.489362 78.245398 
z
" clip-path="url(#pf4d0becb8a)" style="fill: #1f77b4"/>
   </g>
   <g id="patch_96">
    <path d="M 386.067085 88.384455 
L 389.644808 88.384455 
L 389.644808 78.062162 
L 386.067085 78.062162 
z
" clip-path="url(#pf4d0becb8a)" style="fill: #1f77b4"/>
   </g>
   <g id="patch_97">
    <path d="M 389.644808 88.384455 
L 393.222531 88.384455 
L 393.222531 77.940005 
L 389.644808 77.940005 
z
" clip-path="url(#pf4d0becb8a)" style="fill: #1f77b4"/>
   </g>
   <g id="patch_98">
    <path d="M 393.222531 88.384455 
L 396.800254 88.384455 
L 396.800254 78.489713 
L 393.222531 78.489713 
z
" clip-path="url(#pf4d0becb8a)" style="fill: #1f77b4"/>
   </g>
   <g id="patch_99">
    <path d="M 396.800254 88.384455 
L 400.377977 88.384455 
L 400.377977 77.512454 
L 396.800254 77.512454 
z
" clip-path="url(#pf4d0becb8a)" style="fill: #1f77b4"/>
   </g>
   <g id="patch_100">
    <path d="M 400.377977 88.384455 
L 403.9557 88.384455 
L 403.9557 77.756769 
L 400.377977 77.756769 
z
" clip-path="url(#pf4d0becb8a)" style="fill: #1f77b4"/>
   </g>
   <g id="patch_101">
    <path d="M 403.9557 88.384455 
L 407.533423 88.384455 
L 407.533423 78.001084 
L 403.9557 78.001084 
z
" clip-path="url(#pf4d0becb8a)" style="fill: #1f77b4"/>
   </g>
   <g id="patch_102">
    <path d="M 407.533423 88.384455 
L 411.111145 88.384455 
L 411.111145 78.550792 
L 407.533423 78.550792 
z
" clip-path="url(#pf4d0becb8a)" style="fill: #1f77b4"/>
   </g>
   <g id="matplotlib.axis_1">
    <g id="xtick_1">
     <g id="line2d_1">
      <defs>
       <path id="mbba6c2be8c" d="M 0 0 
L 0 3.5 
" style="stroke: #000000; stroke-width: 0.8"/>
      </defs>
      <g>
       <use xlink:href="#mbba6c2be8c" x="49.724634" y="88.384455" style="stroke: #000000; stroke-width: 0.8"/>
      </g>
     </g>
     <g id="text_1">
      <!-- 0 -->
      <g transform="translate(46.543384 102.982892)scale(0.1 -0.1)">
       <defs>
        <path id="DejaVuSans-30" d="M 2034 4250 
Q 1547 4250 1301 3770 
Q 1056 3291 1056 2328 
Q 1056 1369 1301 889 
Q 1547 409 2034 409 
Q 2525 409 2770 889 
Q 3016 1369 3016 2328 
Q 3016 3291 2770 3770 
Q 2525 4250 2034 4250 
z
M 2034 4750 
Q 2819 4750 3233 4129 
Q 3647 3509 3647 2328 
Q 3647 1150 3233 529 
Q 2819 -91 2034 -91 
Q 1250 -91 836 529 
Q 422 1150 422 2328 
Q 422 3509 836 4129 
Q 1250 4750 2034 4750 
z
" transform="scale(0.015625)"/>
       </defs>
       <use xlink:href="#DejaVuSans-30"/>
      </g>
     </g>
    </g>
    <g id="xtick_2">
     <g id="line2d_2">
      <g>
       <use xlink:href="#mbba6c2be8c" x="122.004808" y="88.384455" style="stroke: #000000; stroke-width: 0.8"/>
      </g>
     </g>
     <g id="text_2">
      <!-- 1000 -->
      <g transform="translate(109.279808 102.982892)scale(0.1 -0.1)">
       <defs>
        <path id="DejaVuSans-31" d="M 794 531 
L 1825 531 
L 1825 4091 
L 703 3866 
L 703 4441 
L 1819 4666 
L 2450 4666 
L 2450 531 
L 3481 531 
L 3481 0 
L 794 0 
L 794 531 
z
" transform="scale(0.015625)"/>
       </defs>
       <use xlink:href="#DejaVuSans-31"/>
       <use xlink:href="#DejaVuSans-30" x="63.623047"/>
       <use xlink:href="#DejaVuSans-30" x="127.246094"/>
       <use xlink:href="#DejaVuSans-30" x="190.869141"/>
      </g>
     </g>
    </g>
    <g id="xtick_3">
     <g id="line2d_3">
      <g>
       <use xlink:href="#mbba6c2be8c" x="194.284982" y="88.384455" style="stroke: #000000; stroke-width: 0.8"/>
      </g>
     </g>
     <g id="text_3">
      <!-- 2000 -->
      <g transform="translate(181.559982 102.982892)scale(0.1 -0.1)">
       <defs>
        <path id="DejaVuSans-32" d="M 1228 531 
L 3431 531 
L 3431 0 
L 469 0 
L 469 531 
Q 828 903 1448 1529 
Q 2069 2156 2228 2338 
Q 2531 2678 2651 2914 
Q 2772 3150 2772 3378 
Q 2772 3750 2511 3984 
Q 2250 4219 1831 4219 
Q 1534 4219 1204 4116 
Q 875 4013 500 3803 
L 500 4441 
Q 881 4594 1212 4672 
Q 1544 4750 1819 4750 
Q 2544 4750 2975 4387 
Q 3406 4025 3406 3419 
Q 3406 3131 3298 2873 
Q 3191 2616 2906 2266 
Q 2828 2175 2409 1742 
Q 1991 1309 1228 531 
z
" transform="scale(0.015625)"/>
       </defs>
       <use xlink:href="#DejaVuSans-32"/>
       <use xlink:href="#DejaVuSans-30" x="63.623047"/>
       <use xlink:href="#DejaVuSans-30" x="127.246094"/>
       <use xlink:href="#DejaVuSans-30" x="190.869141"/>
      </g>
     </g>
    </g>
    <g id="xtick_4">
     <g id="line2d_4">
      <g>
       <use xlink:href="#mbba6c2be8c" x="266.565156" y="88.384455" style="stroke: #000000; stroke-width: 0.8"/>
      </g>
     </g>
     <g id="text_4">
      <!-- 3000 -->
      <g transform="translate(253.840156 102.982892)scale(0.1 -0.1)">
       <defs>
        <path id="DejaVuSans-33" d="M 2597 2516 
Q 3050 2419 3304 2112 
Q 3559 1806 3559 1356 
Q 3559 666 3084 287 
Q 2609 -91 1734 -91 
Q 1441 -91 1130 -33 
Q 819 25 488 141 
L 488 750 
Q 750 597 1062 519 
Q 1375 441 1716 441 
Q 2309 441 2620 675 
Q 2931 909 2931 1356 
Q 2931 1769 2642 2001 
Q 2353 2234 1838 2234 
L 1294 2234 
L 1294 2753 
L 1863 2753 
Q 2328 2753 2575 2939 
Q 2822 3125 2822 3475 
Q 2822 3834 2567 4026 
Q 2313 4219 1838 4219 
Q 1578 4219 1281 4162 
Q 984 4106 628 3988 
L 628 4550 
Q 988 4650 1302 4700 
Q 1616 4750 1894 4750 
Q 2613 4750 3031 4423 
Q 3450 4097 3450 3541 
Q 3450 3153 3228 2886 
Q 3006 2619 2597 2516 
z
" transform="scale(0.015625)"/>
       </defs>
       <use xlink:href="#DejaVuSans-33"/>
       <use xlink:href="#DejaVuSans-30" x="63.623047"/>
       <use xlink:href="#DejaVuSans-30" x="127.246094"/>
       <use xlink:href="#DejaVuSans-30" x="190.869141"/>
      </g>
     </g>
    </g>
    <g id="xtick_5">
     <g id="line2d_5">
      <g>
       <use xlink:href="#mbba6c2be8c" x="338.84533" y="88.384455" style="stroke: #000000; stroke-width: 0.8"/>
      </g>
     </g>
     <g id="text_5">
      <!-- 4000 -->
      <g transform="translate(326.12033 102.982892)scale(0.1 -0.1)">
       <defs>
        <path id="DejaVuSans-34" d="M 2419 4116 
L 825 1625 
L 2419 1625 
L 2419 4116 
z
M 2253 4666 
L 3047 4666 
L 3047 1625 
L 3713 1625 
L 3713 1100 
L 3047 1100 
L 3047 0 
L 2419 0 
L 2419 1100 
L 313 1100 
L 313 1709 
L 2253 4666 
z
" transform="scale(0.015625)"/>
       </defs>
       <use xlink:href="#DejaVuSans-34"/>
       <use xlink:href="#DejaVuSans-30" x="63.623047"/>
       <use xlink:href="#DejaVuSans-30" x="127.246094"/>
       <use xlink:href="#DejaVuSans-30" x="190.869141"/>
      </g>
     </g>
    </g>
    <g id="xtick_6">
     <g id="line2d_6">
      <g>
       <use xlink:href="#mbba6c2be8c" x="411.125504" y="88.384455" style="stroke: #000000; stroke-width: 0.8"/>
      </g>
     </g>
     <g id="text_6">
      <!-- 5000 -->
      <g transform="translate(398.400504 102.982892)scale(0.1 -0.1)">
       <defs>
        <path id="DejaVuSans-35" d="M 691 4666 
L 3169 4666 
L 3169 4134 
L 1269 4134 
L 1269 2991 
Q 1406 3038 1543 3061 
Q 1681 3084 1819 3084 
Q 2600 3084 3056 2656 
Q 3513 2228 3513 1497 
Q 3513 744 3044 326 
Q 2575 -91 1722 -91 
Q 1428 -91 1123 -41 
Q 819 9 494 109 
L 494 744 
Q 775 591 1075 516 
Q 1375 441 1709 441 
Q 2250 441 2565 725 
Q 2881 1009 2881 1497 
Q 2881 1984 2565 2268 
Q 2250 2553 1709 2553 
Q 1456 2553 1204 2497 
Q 953 2441 691 2322 
L 691 4666 
z
" transform="scale(0.015625)"/>
       </defs>
       <use xlink:href="#DejaVuSans-35"/>
       <use xlink:href="#DejaVuSans-30" x="63.623047"/>
       <use xlink:href="#DejaVuSans-30" x="127.246094"/>
       <use xlink:href="#DejaVuSans-30" x="190.869141"/>
      </g>
     </g>
    </g>
   </g>
   <g id="matplotlib.axis_2">
    <g id="ytick_1">
     <g id="line2d_7">
      <defs>
       <path id="mf15dc0911f" d="M 0 0 
L -3.5 0 
" style="stroke: #000000; stroke-width: 0.8"/>
      </defs>
      <g>
       <use xlink:href="#mf15dc0911f" x="35.45024" y="88.384455" style="stroke: #000000; stroke-width: 0.8"/>
      </g>
     </g>
     <g id="text_7">
      <!-- 0 -->
      <g transform="translate(22.08774 92.183674)scale(0.1 -0.1)">
       <use xlink:href="#DejaVuSans-30"/>
      </g>
     </g>
    </g>
    <g id="ytick_2">
     <g id="line2d_8">
      <g>
       <use xlink:href="#mf15dc0911f" x="35.45024" y="57.845128" style="stroke: #000000; stroke-width: 0.8"/>
      </g>
     </g>
     <g id="text_8">
      <!-- 1000 -->
      <g transform="translate(3.00024 61.644346)scale(0.1 -0.1)">
       <use xlink:href="#DejaVuSans-31"/>
       <use xlink:href="#DejaVuSans-30" x="63.623047"/>
       <use xlink:href="#DejaVuSans-30" x="127.246094"/>
       <use xlink:href="#DejaVuSans-30" x="190.869141"/>
      </g>
     </g>
    </g>
   </g>
   <g id="patch_103">
    <path d="M 35.45024 88.384455 
L 35.45024 36.212595 
" style="fill: none; stroke: #000000; stroke-width: 0.8; stroke-linejoin: miter; stroke-linecap: square"/>
   </g>
   <g id="patch_104">
    <path d="M 428.99976 88.384455 
L 428.99976 36.212595 
" style="fill: none; stroke: #000000; stroke-width: 0.8; stroke-linejoin: miter; stroke-linecap: square"/>
   </g>
   <g id="patch_105">
    <path d="M 35.45024 88.384455 
L 428.99976 88.384455 
" style="fill: none; stroke: #000000; stroke-width: 0.8; stroke-linejoin: miter; stroke-linecap: square"/>
   </g>
   <g id="patch_106">
    <path d="M 35.45024 36.212595 
L 428.99976 36.212595 
" style="fill: none; stroke: #000000; stroke-width: 0.8; stroke-linejoin: miter; stroke-linecap: square"/>
   </g>
   <g id="text_9">
    <!-- $M_1$ -->
    <g transform="translate(224.185 30.212595)scale(0.12 -0.12)">
     <defs>
      <path id="DejaVuSans-Oblique-4d" d="M 1081 4666 
L 2028 4666 
L 2572 1522 
L 4378 4666 
L 5350 4666 
L 4441 0 
L 3828 0 
L 4622 4091 
L 2791 897 
L 2175 897 
L 1581 4103 
L 788 0 
L 172 0 
L 1081 4666 
z
" transform="scale(0.015625)"/>
     </defs>
     <use xlink:href="#DejaVuSans-Oblique-4d" transform="translate(0 0.09375)"/>
     <use xlink:href="#DejaVuSans-31" transform="translate(86.279297 -16.3125)scale(0.7)"/>
    </g>
   </g>
  </g>
  <g id="axes_2">
   <g id="patch_107">
    <path d="M 35.45024 178.353045 
L 428.99976 178.353045 
L 428.99976 126.181185 
L 35.45024 126.181185 
z
" style="fill: #ffffff"/>
   </g>
   <g id="patch_108">
    <path d="M 53.338855 178.353045 
L 56.916577 178.353045 
L 56.916577 129.5512 
L 53.338855 129.5512 
z
" clip-path="url(#p81b07ae91c)" style="fill: #1f77b4"/>
   </g>
   <g id="patch_109">
    <path d="M 56.916577 178.353045 
L 60.4943 178.353045 
L 60.4943 129.123649 
L 56.916577 129.123649 
z
" clip-path="url(#p81b07ae91c)" style="fill: #1f77b4"/>
   </g>
   <g id="patch_110">
    <path d="M 60.4943 178.353045 
L 64.072023 178.353045 
L 64.072023 129.52066 
L 60.4943 129.52066 
z
" clip-path="url(#p81b07ae91c)" style="fill: #1f77b4"/>
   </g>
   <g id="patch_111">
    <path d="M 64.072023 178.353045 
L 67.649746 178.353045 
L 67.649746 130.620076 
L 64.072023 130.620076 
z
" clip-path="url(#p81b07ae91c)" style="fill: #1f77b4"/>
   </g>
   <g id="patch_112">
    <path d="M 67.649746 178.353045 
L 71.227469 178.353045 
L 71.227469 131.963807 
L 67.649746 131.963807 
z
" clip-path="url(#p81b07ae91c)" style="fill: #1f77b4"/>
   </g>
   <g id="patch_113">
    <path d="M 71.227469 178.353045 
L 74.805192 178.353045 
L 74.805192 135.689605 
L 71.227469 135.689605 
z
" clip-path="url(#p81b07ae91c)" style="fill: #1f77b4"/>
   </g>
   <g id="patch_114">
    <path d="M 74.805192 178.353045 
L 78.382915 178.353045 
L 78.382915 139.781874 
L 74.805192 139.781874 
z
" clip-path="url(#p81b07ae91c)" style="fill: #1f77b4"/>
   </g>
   <g id="patch_115">
    <path d="M 78.382915 178.353045 
L 81.960638 178.353045 
L 81.960638 143.782526 
L 78.382915 143.782526 
z
" clip-path="url(#p81b07ae91c)" style="fill: #1f77b4"/>
   </g>
   <g id="patch_116">
    <path d="M 81.960638 178.353045 
L 85.538361 178.353045 
L 85.538361 145.278953 
L 81.960638 145.278953 
z
" clip-path="url(#p81b07ae91c)" style="fill: #1f77b4"/>
   </g>
   <g id="patch_117">
    <path d="M 85.538361 178.353045 
L 89.116084 178.353045 
L 89.116084 145.645425 
L 85.538361 145.645425 
z
" clip-path="url(#p81b07ae91c)" style="fill: #1f77b4"/>
   </g>
   <g id="patch_118">
    <path d="M 89.116084 178.353045 
L 92.693807 178.353045 
L 92.693807 147.447246 
L 89.116084 147.447246 
z
" clip-path="url(#p81b07ae91c)" style="fill: #1f77b4"/>
   </g>
   <g id="patch_119">
    <path d="M 92.693807 178.353045 
L 96.271529 178.353045 
L 96.271529 148.943673 
L 92.693807 148.943673 
z
" clip-path="url(#p81b07ae91c)" style="fill: #1f77b4"/>
   </g>
   <g id="patch_120">
    <path d="M 96.271529 178.353045 
L 99.849252 178.353045 
L 99.849252 152.974864 
L 96.271529 152.974864 
z
" clip-path="url(#p81b07ae91c)" style="fill: #1f77b4"/>
   </g>
   <g id="patch_121">
    <path d="M 99.849252 178.353045 
L 103.426975 178.353045 
L 103.426975 155.173695 
L 99.849252 155.173695 
z
" clip-path="url(#p81b07ae91c)" style="fill: #1f77b4"/>
   </g>
   <g id="patch_122">
    <path d="M 103.426975 178.353045 
L 107.004698 178.353045 
L 107.004698 157.189291 
L 103.426975 157.189291 
z
" clip-path="url(#p81b07ae91c)" style="fill: #1f77b4"/>
   </g>
   <g id="patch_123">
    <path d="M 107.004698 178.353045 
L 110.582421 178.353045 
L 110.582421 157.922235 
L 107.004698 157.922235 
z
" clip-path="url(#p81b07ae91c)" style="fill: #1f77b4"/>
   </g>
   <g id="patch_124">
    <path d="M 110.582421 178.353045 
L 114.160144 178.353045 
L 114.160144 159.785134 
L 110.582421 159.785134 
z
" clip-path="url(#p81b07ae91c)" style="fill: #1f77b4"/>
   </g>
   <g id="patch_125">
    <path d="M 114.160144 178.353045 
L 117.737867 178.353045 
L 117.737867 159.51028 
L 114.160144 159.51028 
z
" clip-path="url(#p81b07ae91c)" style="fill: #1f77b4"/>
   </g>
   <g id="patch_126">
    <path d="M 117.737867 178.353045 
L 121.31559 178.353045 
L 121.31559 161.922887 
L 117.737867 161.922887 
z
" clip-path="url(#p81b07ae91c)" style="fill: #1f77b4"/>
   </g>
   <g id="patch_127">
    <path d="M 121.31559 178.353045 
L 124.893313 178.353045 
L 124.893313 163.113921 
L 121.31559 163.113921 
z
" clip-path="url(#p81b07ae91c)" style="fill: #1f77b4"/>
   </g>
   <g id="patch_128">
    <path d="M 124.893313 178.353045 
L 128.471036 178.353045 
L 128.471036 162.930685 
L 124.893313 162.930685 
z
" clip-path="url(#p81b07ae91c)" style="fill: #1f77b4"/>
   </g>
   <g id="patch_129">
    <path d="M 128.471036 178.353045 
L 132.048759 178.353045 
L 132.048759 162.839067 
L 128.471036 162.839067 
z
" clip-path="url(#p81b07ae91c)" style="fill: #1f77b4"/>
   </g>
   <g id="patch_130">
    <path d="M 132.048759 178.353045 
L 135.626481 178.353045 
L 135.626481 164.304954 
L 132.048759 164.304954 
z
" clip-path="url(#p81b07ae91c)" style="fill: #1f77b4"/>
   </g>
   <g id="patch_131">
    <path d="M 135.626481 178.353045 
L 139.204204 178.353045 
L 139.204204 164.152258 
L 135.626481 164.152258 
z
" clip-path="url(#p81b07ae91c)" style="fill: #1f77b4"/>
   </g>
   <g id="patch_132">
    <path d="M 139.204204 178.353045 
L 142.781927 178.353045 
L 142.781927 164.732505 
L 139.204204 164.732505 
z
" clip-path="url(#p81b07ae91c)" style="fill: #1f77b4"/>
   </g>
   <g id="patch_133">
    <path d="M 142.781927 178.353045 
L 146.35965 178.353045 
L 146.35965 165.984617 
L 142.781927 165.984617 
z
" clip-path="url(#p81b07ae91c)" style="fill: #1f77b4"/>
   </g>
   <g id="patch_134">
    <path d="M 146.35965 178.353045 
L 149.937373 178.353045 
L 149.937373 165.557067 
L 146.35965 165.557067 
z
" clip-path="url(#p81b07ae91c)" style="fill: #1f77b4"/>
   </g>
   <g id="patch_135">
    <path d="M 149.937373 178.353045 
L 153.515096 178.353045 
L 153.515096 166.687022 
L 149.937373 166.687022 
z
" clip-path="url(#p81b07ae91c)" style="fill: #1f77b4"/>
   </g>
   <g id="patch_136">
    <path d="M 153.515096 178.353045 
L 157.092819 178.353045 
L 157.092819 164.274415 
L 153.515096 164.274415 
z
" clip-path="url(#p81b07ae91c)" style="fill: #1f77b4"/>
   </g>
   <g id="patch_137">
    <path d="M 157.092819 178.353045 
L 160.670542 178.353045 
L 160.670542 166.595404 
L 157.092819 166.595404 
z
" clip-path="url(#p81b07ae91c)" style="fill: #1f77b4"/>
   </g>
   <g id="patch_138">
    <path d="M 160.670542 178.353045 
L 164.248265 178.353045 
L 164.248265 166.900797 
L 160.670542 166.900797 
z
" clip-path="url(#p81b07ae91c)" style="fill: #1f77b4"/>
   </g>
   <g id="patch_139">
    <path d="M 164.248265 178.353045 
L 167.825988 178.353045 
L 167.825988 165.740303 
L 164.248265 165.740303 
z
" clip-path="url(#p81b07ae91c)" style="fill: #1f77b4"/>
   </g>
   <g id="patch_140">
    <path d="M 167.825988 178.353045 
L 171.403711 178.353045 
L 171.403711 166.564865 
L 167.825988 166.564865 
z
" clip-path="url(#p81b07ae91c)" style="fill: #1f77b4"/>
   </g>
   <g id="patch_141">
    <path d="M 171.403711 178.353045 
L 174.981433 178.353045 
L 174.981433 166.870258 
L 171.403711 166.870258 
z
" clip-path="url(#p81b07ae91c)" style="fill: #1f77b4"/>
   </g>
   <g id="patch_142">
    <path d="M 174.981433 178.353045 
L 178.559156 178.353045 
L 178.559156 166.625943 
L 174.981433 166.625943 
z
" clip-path="url(#p81b07ae91c)" style="fill: #1f77b4"/>
   </g>
   <g id="patch_143">
    <path d="M 178.559156 178.353045 
L 182.136879 178.353045 
L 182.136879 167.69482 
L 178.559156 167.69482 
z
" clip-path="url(#p81b07ae91c)" style="fill: #1f77b4"/>
   </g>
   <g id="patch_144">
    <path d="M 182.136879 178.353045 
L 185.714602 178.353045 
L 185.714602 166.870258 
L 182.136879 166.870258 
z
" clip-path="url(#p81b07ae91c)" style="fill: #1f77b4"/>
   </g>
   <g id="patch_145">
    <path d="M 185.714602 178.353045 
L 189.292325 178.353045 
L 189.292325 167.939134 
L 185.714602 167.939134 
z
" clip-path="url(#p81b07ae91c)" style="fill: #1f77b4"/>
   </g>
   <g id="patch_146">
    <path d="M 189.292325 178.353045 
L 192.870048 178.353045 
L 192.870048 166.381629 
L 189.292325 166.381629 
z
" clip-path="url(#p81b07ae91c)" style="fill: #1f77b4"/>
   </g>
   <g id="patch_147">
    <path d="M 192.870048 178.353045 
L 196.447771 178.353045 
L 196.447771 166.931337 
L 192.870048 166.931337 
z
" clip-path="url(#p81b07ae91c)" style="fill: #1f77b4"/>
   </g>
   <g id="patch_148">
    <path d="M 196.447771 178.353045 
L 200.025494 178.353045 
L 200.025494 167.969674 
L 196.447771 167.969674 
z
" clip-path="url(#p81b07ae91c)" style="fill: #1f77b4"/>
   </g>
   <g id="patch_149">
    <path d="M 200.025494 178.353045 
L 203.603217 178.353045 
L 203.603217 167.23673 
L 200.025494 167.23673 
z
" clip-path="url(#p81b07ae91c)" style="fill: #1f77b4"/>
   </g>
   <g id="patch_150">
    <path d="M 203.603217 178.353045 
L 207.18094 178.353045 
L 207.18094 168.12237 
L 203.603217 168.12237 
z
" clip-path="url(#p81b07ae91c)" style="fill: #1f77b4"/>
   </g>
   <g id="patch_151">
    <path d="M 207.18094 178.353045 
L 210.758663 178.353045 
L 210.758663 166.503786 
L 207.18094 166.503786 
z
" clip-path="url(#p81b07ae91c)" style="fill: #1f77b4"/>
   </g>
   <g id="patch_152">
    <path d="M 210.758663 178.353045 
L 214.336385 178.353045 
L 214.336385 166.992415 
L 210.758663 166.992415 
z
" clip-path="url(#p81b07ae91c)" style="fill: #1f77b4"/>
   </g>
   <g id="patch_153">
    <path d="M 214.336385 178.353045 
L 217.914108 178.353045 
L 217.914108 166.839719 
L 214.336385 166.839719 
z
" clip-path="url(#p81b07ae91c)" style="fill: #1f77b4"/>
   </g>
   <g id="patch_154">
    <path d="M 217.914108 178.353045 
L 221.491831 178.353045 
L 221.491831 167.66428 
L 217.914108 167.66428 
z
" clip-path="url(#p81b07ae91c)" style="fill: #1f77b4"/>
   </g>
   <g id="patch_155">
    <path d="M 221.491831 178.353045 
L 225.069554 178.353045 
L 225.069554 167.389426 
L 221.491831 167.389426 
z
" clip-path="url(#p81b07ae91c)" style="fill: #1f77b4"/>
   </g>
   <g id="patch_156">
    <path d="M 225.069554 178.353045 
L 228.647277 178.353045 
L 228.647277 167.389426 
L 225.069554 167.389426 
z
" clip-path="url(#p81b07ae91c)" style="fill: #1f77b4"/>
   </g>
   <g id="patch_157">
    <path d="M 228.647277 178.353045 
L 232.225 178.353045 
L 232.225 166.900797 
L 228.647277 166.900797 
z
" clip-path="url(#p81b07ae91c)" style="fill: #1f77b4"/>
   </g>
   <g id="patch_158">
    <path d="M 232.225 178.353045 
L 235.802723 178.353045 
L 235.802723 167.328348 
L 232.225 167.328348 
z
" clip-path="url(#p81b07ae91c)" style="fill: #1f77b4"/>
   </g>
   <g id="patch_159">
    <path d="M 235.802723 178.353045 
L 239.380446 178.353045 
L 239.380446 167.542123 
L 235.802723 167.542123 
z
" clip-path="url(#p81b07ae91c)" style="fill: #1f77b4"/>
   </g>
   <g id="patch_160">
    <path d="M 239.380446 178.353045 
L 242.958169 178.353045 
L 242.958169 167.297808 
L 239.380446 167.297808 
z
" clip-path="url(#p81b07ae91c)" style="fill: #1f77b4"/>
   </g>
   <g id="patch_161">
    <path d="M 242.958169 178.353045 
L 246.535892 178.353045 
L 246.535892 167.419966 
L 242.958169 167.419966 
z
" clip-path="url(#p81b07ae91c)" style="fill: #1f77b4"/>
   </g>
   <g id="patch_162">
    <path d="M 246.535892 178.353045 
L 250.113615 178.353045 
L 250.113615 167.633741 
L 246.535892 167.633741 
z
" clip-path="url(#p81b07ae91c)" style="fill: #1f77b4"/>
   </g>
   <g id="patch_163">
    <path d="M 250.113615 178.353045 
L 253.691337 178.353045 
L 253.691337 167.542123 
L 250.113615 167.542123 
z
" clip-path="url(#p81b07ae91c)" style="fill: #1f77b4"/>
   </g>
   <g id="patch_164">
    <path d="M 253.691337 178.353045 
L 257.26906 178.353045 
L 257.26906 167.175651 
L 253.691337 167.175651 
z
" clip-path="url(#p81b07ae91c)" style="fill: #1f77b4"/>
   </g>
   <g id="patch_165">
    <path d="M 257.26906 178.353045 
L 260.846783 178.353045 
L 260.846783 166.809179 
L 257.26906 166.809179 
z
" clip-path="url(#p81b07ae91c)" style="fill: #1f77b4"/>
   </g>
   <g id="patch_166">
    <path d="M 260.846783 178.353045 
L 264.424506 178.353045 
L 264.424506 167.297808 
L 260.846783 167.297808 
z
" clip-path="url(#p81b07ae91c)" style="fill: #1f77b4"/>
   </g>
   <g id="patch_167">
    <path d="M 264.424506 178.353045 
L 268.002229 178.353045 
L 268.002229 166.900797 
L 264.424506 166.900797 
z
" clip-path="url(#p81b07ae91c)" style="fill: #1f77b4"/>
   </g>
   <g id="patch_168">
    <path d="M 268.002229 178.353045 
L 271.579952 178.353045 
L 271.579952 167.419966 
L 268.002229 167.419966 
z
" clip-path="url(#p81b07ae91c)" style="fill: #1f77b4"/>
   </g>
   <g id="patch_169">
    <path d="M 271.579952 178.353045 
L 275.157675 178.353045 
L 275.157675 168.275067 
L 271.579952 168.275067 
z
" clip-path="url(#p81b07ae91c)" style="fill: #1f77b4"/>
   </g>
   <g id="patch_170">
    <path d="M 275.157675 178.353045 
L 278.735398 178.353045 
L 278.735398 167.328348 
L 275.157675 167.328348 
z
" clip-path="url(#p81b07ae91c)" style="fill: #1f77b4"/>
   </g>
   <g id="patch_171">
    <path d="M 278.735398 178.353045 
L 282.313121 178.353045 
L 282.313121 166.351089 
L 278.735398 166.351089 
z
" clip-path="url(#p81b07ae91c)" style="fill: #1f77b4"/>
   </g>
   <g id="patch_172">
    <path d="M 282.313121 178.353045 
L 285.890844 178.353045 
L 285.890844 167.328348 
L 282.313121 167.328348 
z
" clip-path="url(#p81b07ae91c)" style="fill: #1f77b4"/>
   </g>
   <g id="patch_173">
    <path d="M 285.890844 178.353045 
L 289.468567 178.353045 
L 289.468567 167.633741 
L 285.890844 167.633741 
z
" clip-path="url(#p81b07ae91c)" style="fill: #1f77b4"/>
   </g>
   <g id="patch_174">
    <path d="M 289.468567 178.353045 
L 293.046289 178.353045 
L 293.046289 167.20619 
L 289.468567 167.20619 
z
" clip-path="url(#p81b07ae91c)" style="fill: #1f77b4"/>
   </g>
   <g id="patch_175">
    <path d="M 293.046289 178.353045 
L 296.624012 178.353045 
L 296.624012 167.511584 
L 293.046289 167.511584 
z
" clip-path="url(#p81b07ae91c)" style="fill: #1f77b4"/>
   </g>
   <g id="patch_176">
    <path d="M 296.624012 178.353045 
L 300.201735 178.353045 
L 300.201735 166.687022 
L 296.624012 166.687022 
z
" clip-path="url(#p81b07ae91c)" style="fill: #1f77b4"/>
   </g>
   <g id="patch_177">
    <path d="M 300.201735 178.353045 
L 303.779458 178.353045 
L 303.779458 167.175651 
L 300.201735 167.175651 
z
" clip-path="url(#p81b07ae91c)" style="fill: #1f77b4"/>
   </g>
   <g id="patch_178">
    <path d="M 303.779458 178.353045 
L 307.357181 178.353045 
L 307.357181 167.328348 
L 303.779458 167.328348 
z
" clip-path="url(#p81b07ae91c)" style="fill: #1f77b4"/>
   </g>
   <g id="patch_179">
    <path d="M 307.357181 178.353045 
L 310.934904 178.353045 
L 310.934904 167.481044 
L 307.357181 167.481044 
z
" clip-path="url(#p81b07ae91c)" style="fill: #1f77b4"/>
   </g>
   <g id="patch_180">
    <path d="M 310.934904 178.353045 
L 314.512627 178.353045 
L 314.512627 168.305606 
L 310.934904 168.305606 
z
" clip-path="url(#p81b07ae91c)" style="fill: #1f77b4"/>
   </g>
   <g id="patch_181">
    <path d="M 314.512627 178.353045 
L 318.09035 178.353045 
L 318.09035 166.931337 
L 314.512627 166.931337 
z
" clip-path="url(#p81b07ae91c)" style="fill: #1f77b4"/>
   </g>
   <g id="patch_182">
    <path d="M 318.09035 178.353045 
L 321.668073 178.353045 
L 321.668073 168.091831 
L 318.09035 168.091831 
z
" clip-path="url(#p81b07ae91c)" style="fill: #1f77b4"/>
   </g>
   <g id="patch_183">
    <path d="M 321.668073 178.353045 
L 325.245796 178.353045 
L 325.245796 168.061292 
L 321.668073 168.061292 
z
" clip-path="url(#p81b07ae91c)" style="fill: #1f77b4"/>
   </g>
   <g id="patch_184">
    <path d="M 325.245796 178.353045 
L 328.823519 178.353045 
L 328.823519 168.213988 
L 325.245796 168.213988 
z
" clip-path="url(#p81b07ae91c)" style="fill: #1f77b4"/>
   </g>
   <g id="patch_185">
    <path d="M 328.823519 178.353045 
L 332.401241 178.353045 
L 332.401241 168.091831 
L 328.823519 168.091831 
z
" clip-path="url(#p81b07ae91c)" style="fill: #1f77b4"/>
   </g>
   <g id="patch_186">
    <path d="M 332.401241 178.353045 
L 335.978964 178.353045 
L 335.978964 167.969674 
L 332.401241 167.969674 
z
" clip-path="url(#p81b07ae91c)" style="fill: #1f77b4"/>
   </g>
   <g id="patch_187">
    <path d="M 335.978964 178.353045 
L 339.556687 178.353045 
L 339.556687 168.336146 
L 335.978964 168.336146 
z
" clip-path="url(#p81b07ae91c)" style="fill: #1f77b4"/>
   </g>
   <g id="patch_188">
    <path d="M 339.556687 178.353045 
L 343.13441 178.353045 
L 343.13441 168.244528 
L 339.556687 168.244528 
z
" clip-path="url(#p81b07ae91c)" style="fill: #1f77b4"/>
   </g>
   <g id="patch_189">
    <path d="M 343.13441 178.353045 
L 346.712133 178.353045 
L 346.712133 167.69482 
L 343.13441 167.69482 
z
" clip-path="url(#p81b07ae91c)" style="fill: #1f77b4"/>
   </g>
   <g id="patch_190">
    <path d="M 346.712133 178.353045 
L 350.289856 178.353045 
L 350.289856 167.481044 
L 346.712133 167.481044 
z
" clip-path="url(#p81b07ae91c)" style="fill: #1f77b4"/>
   </g>
   <g id="patch_191">
    <path d="M 350.289856 178.353045 
L 353.867579 178.353045 
L 353.867579 168.275067 
L 350.289856 168.275067 
z
" clip-path="url(#p81b07ae91c)" style="fill: #1f77b4"/>
   </g>
   <g id="patch_192">
    <path d="M 353.867579 178.353045 
L 357.445302 178.353045 
L 357.445302 168.611 
L 353.867579 168.611 
z
" clip-path="url(#p81b07ae91c)" style="fill: #1f77b4"/>
   </g>
   <g id="patch_193">
    <path d="M 357.445302 178.353045 
L 361.023025 178.353045 
L 361.023025 167.878056 
L 357.445302 167.878056 
z
" clip-path="url(#p81b07ae91c)" style="fill: #1f77b4"/>
   </g>
   <g id="patch_194">
    <path d="M 361.023025 178.353045 
L 364.600748 178.353045 
L 364.600748 168.305606 
L 361.023025 168.305606 
z
" clip-path="url(#p81b07ae91c)" style="fill: #1f77b4"/>
   </g>
   <g id="patch_195">
    <path d="M 364.600748 178.353045 
L 368.178471 178.353045 
L 368.178471 168.305606 
L 364.600748 168.305606 
z
" clip-path="url(#p81b07ae91c)" style="fill: #1f77b4"/>
   </g>
   <g id="patch_196">
    <path d="M 368.178471 178.353045 
L 371.756193 178.353045 
L 371.756193 169.252325 
L 368.178471 169.252325 
z
" clip-path="url(#p81b07ae91c)" style="fill: #1f77b4"/>
   </g>
   <g id="patch_197">
    <path d="M 371.756193 178.353045 
L 375.333916 178.353045 
L 375.333916 168.58046 
L 371.756193 168.58046 
z
" clip-path="url(#p81b07ae91c)" style="fill: #1f77b4"/>
   </g>
   <g id="patch_198">
    <path d="M 375.333916 178.353045 
L 378.911639 178.353045 
L 378.911639 168.244528 
L 375.333916 168.244528 
z
" clip-path="url(#p81b07ae91c)" style="fill: #1f77b4"/>
   </g>
   <g id="patch_199">
    <path d="M 378.911639 178.353045 
L 382.489362 178.353045 
L 382.489362 168.763696 
L 378.911639 168.763696 
z
" clip-path="url(#p81b07ae91c)" style="fill: #1f77b4"/>
   </g>
   <g id="patch_200">
    <path d="M 382.489362 178.353045 
L 386.067085 178.353045 
L 386.067085 167.725359 
L 382.489362 167.725359 
z
" clip-path="url(#p81b07ae91c)" style="fill: #1f77b4"/>
   </g>
   <g id="patch_201">
    <path d="M 386.067085 178.353045 
L 389.644808 178.353045 
L 389.644808 167.725359 
L 386.067085 167.725359 
z
" clip-path="url(#p81b07ae91c)" style="fill: #1f77b4"/>
   </g>
   <g id="patch_202">
    <path d="M 389.644808 178.353045 
L 393.222531 178.353045 
L 393.222531 167.816977 
L 389.644808 167.816977 
z
" clip-path="url(#p81b07ae91c)" style="fill: #1f77b4"/>
   </g>
   <g id="patch_203">
    <path d="M 393.222531 178.353045 
L 396.800254 178.353045 
L 396.800254 168.641539 
L 393.222531 168.641539 
z
" clip-path="url(#p81b07ae91c)" style="fill: #1f77b4"/>
   </g>
   <g id="patch_204">
    <path d="M 396.800254 178.353045 
L 400.377977 178.353045 
L 400.377977 169.343943 
L 396.800254 169.343943 
z
" clip-path="url(#p81b07ae91c)" style="fill: #1f77b4"/>
   </g>
   <g id="patch_205">
    <path d="M 400.377977 178.353045 
L 403.9557 178.353045 
L 403.9557 169.252325 
L 400.377977 169.252325 
z
" clip-path="url(#p81b07ae91c)" style="fill: #1f77b4"/>
   </g>
   <g id="patch_206">
    <path d="M 403.9557 178.353045 
L 407.533423 178.353045 
L 407.533423 168.855314 
L 403.9557 168.855314 
z
" clip-path="url(#p81b07ae91c)" style="fill: #1f77b4"/>
   </g>
   <g id="patch_207">
    <path d="M 407.533423 178.353045 
L 411.111145 178.353045 
L 411.111145 168.12237 
L 407.533423 168.12237 
z
" clip-path="url(#p81b07ae91c)" style="fill: #1f77b4"/>
   </g>
   <g id="matplotlib.axis_3">
    <g id="xtick_7">
     <g id="line2d_9">
      <g>
       <use xlink:href="#mbba6c2be8c" x="49.724492" y="178.353045" style="stroke: #000000; stroke-width: 0.8"/>
      </g>
     </g>
     <g id="text_10">
      <!-- 0 -->
      <g transform="translate(46.543242 192.951482)scale(0.1 -0.1)">
       <use xlink:href="#DejaVuSans-30"/>
      </g>
     </g>
    </g>
    <g id="xtick_8">
     <g id="line2d_10">
      <g>
       <use xlink:href="#mbba6c2be8c" x="122.002245" y="178.353045" style="stroke: #000000; stroke-width: 0.8"/>
      </g>
     </g>
     <g id="text_11">
      <!-- 1000 -->
      <g transform="translate(109.277245 192.951482)scale(0.1 -0.1)">
       <use xlink:href="#DejaVuSans-31"/>
       <use xlink:href="#DejaVuSans-30" x="63.623047"/>
       <use xlink:href="#DejaVuSans-30" x="127.246094"/>
       <use xlink:href="#DejaVuSans-30" x="190.869141"/>
      </g>
     </g>
    </g>
    <g id="xtick_9">
     <g id="line2d_11">
      <g>
       <use xlink:href="#mbba6c2be8c" x="194.279998" y="178.353045" style="stroke: #000000; stroke-width: 0.8"/>
      </g>
     </g>
     <g id="text_12">
      <!-- 2000 -->
      <g transform="translate(181.554998 192.951482)scale(0.1 -0.1)">
       <use xlink:href="#DejaVuSans-32"/>
       <use xlink:href="#DejaVuSans-30" x="63.623047"/>
       <use xlink:href="#DejaVuSans-30" x="127.246094"/>
       <use xlink:href="#DejaVuSans-30" x="190.869141"/>
      </g>
     </g>
    </g>
    <g id="xtick_10">
     <g id="line2d_12">
      <g>
       <use xlink:href="#mbba6c2be8c" x="266.557751" y="178.353045" style="stroke: #000000; stroke-width: 0.8"/>
      </g>
     </g>
     <g id="text_13">
      <!-- 3000 -->
      <g transform="translate(253.832751 192.951482)scale(0.1 -0.1)">
       <use xlink:href="#DejaVuSans-33"/>
       <use xlink:href="#DejaVuSans-30" x="63.623047"/>
       <use xlink:href="#DejaVuSans-30" x="127.246094"/>
       <use xlink:href="#DejaVuSans-30" x="190.869141"/>
      </g>
     </g>
    </g>
    <g id="xtick_11">
     <g id="line2d_13">
      <g>
       <use xlink:href="#mbba6c2be8c" x="338.835504" y="178.353045" style="stroke: #000000; stroke-width: 0.8"/>
      </g>
     </g>
     <g id="text_14">
      <!-- 4000 -->
      <g transform="translate(326.110504 192.951482)scale(0.1 -0.1)">
       <use xlink:href="#DejaVuSans-34"/>
       <use xlink:href="#DejaVuSans-30" x="63.623047"/>
       <use xlink:href="#DejaVuSans-30" x="127.246094"/>
       <use xlink:href="#DejaVuSans-30" x="190.869141"/>
      </g>
     </g>
    </g>
    <g id="xtick_12">
     <g id="line2d_14">
      <g>
       <use xlink:href="#mbba6c2be8c" x="411.113257" y="178.353045" style="stroke: #000000; stroke-width: 0.8"/>
      </g>
     </g>
     <g id="text_15">
      <!-- 5000 -->
      <g transform="translate(398.388257 192.951482)scale(0.1 -0.1)">
       <use xlink:href="#DejaVuSans-35"/>
       <use xlink:href="#DejaVuSans-30" x="63.623047"/>
       <use xlink:href="#DejaVuSans-30" x="127.246094"/>
       <use xlink:href="#DejaVuSans-30" x="190.869141"/>
      </g>
     </g>
    </g>
   </g>
   <g id="matplotlib.axis_4">
    <g id="ytick_3">
     <g id="line2d_15">
      <g>
       <use xlink:href="#mf15dc0911f" x="35.45024" y="178.353045" style="stroke: #000000; stroke-width: 0.8"/>
      </g>
     </g>
     <g id="text_16">
      <!-- 0 -->
      <g transform="translate(22.08774 182.152264)scale(0.1 -0.1)">
       <use xlink:href="#DejaVuSans-30"/>
      </g>
     </g>
    </g>
    <g id="ytick_4">
     <g id="line2d_16">
      <g>
       <use xlink:href="#mf15dc0911f" x="35.45024" y="147.813718" style="stroke: #000000; stroke-width: 0.8"/>
      </g>
     </g>
     <g id="text_17">
      <!-- 1000 -->
      <g transform="translate(3.00024 151.612936)scale(0.1 -0.1)">
       <use xlink:href="#DejaVuSans-31"/>
       <use xlink:href="#DejaVuSans-30" x="63.623047"/>
       <use xlink:href="#DejaVuSans-30" x="127.246094"/>
       <use xlink:href="#DejaVuSans-30" x="190.869141"/>
      </g>
     </g>
    </g>
   </g>
   <g id="patch_208">
    <path d="M 35.45024 178.353045 
L 35.45024 126.181185 
" style="fill: none; stroke: #000000; stroke-width: 0.8; stroke-linejoin: miter; stroke-linecap: square"/>
   </g>
   <g id="patch_209">
    <path d="M 428.99976 178.353045 
L 428.99976 126.181185 
" style="fill: none; stroke: #000000; stroke-width: 0.8; stroke-linejoin: miter; stroke-linecap: square"/>
   </g>
   <g id="patch_210">
    <path d="M 35.45024 178.353045 
L 428.99976 178.353045 
" style="fill: none; stroke: #000000; stroke-width: 0.8; stroke-linejoin: miter; stroke-linecap: square"/>
   </g>
   <g id="patch_211">
    <path d="M 35.45024 126.181185 
L 428.99976 126.181185 
" style="fill: none; stroke: #000000; stroke-width: 0.8; stroke-linejoin: miter; stroke-linecap: square"/>
   </g>
   <g id="text_18">
    <!-- $M_2$ -->
    <g transform="translate(224.185 120.181185)scale(0.12 -0.12)">
     <use xlink:href="#DejaVuSans-Oblique-4d" transform="translate(0 0.09375)"/>
     <use xlink:href="#DejaVuSans-32" transform="translate(86.279297 -16.3125)scale(0.7)"/>
    </g>
   </g>
  </g>
  <g id="axes_3">
   <g id="patch_212">
    <path d="M 35.45024 268.321635 
L 428.99976 268.321635 
L 428.99976 216.149775 
L 35.45024 216.149775 
z
" style="fill: #ffffff"/>
   </g>
   <g id="patch_213">
    <path d="M 53.338855 268.321635 
L 56.916577 268.321635 
L 56.916577 266.367118 
L 53.338855 266.367118 
z
" clip-path="url(#p284c7554ed)" style="fill: #1f77b4"/>
   </g>
   <g id="patch_214">
    <path d="M 56.916577 268.321635 
L 60.4943 268.321635 
L 60.4943 265.176084 
L 56.916577 265.176084 
z
" clip-path="url(#p284c7554ed)" style="fill: #1f77b4"/>
   </g>
   <g id="patch_215">
    <path d="M 60.4943 268.321635 
L 64.072023 268.321635 
L 64.072023 263.649118 
L 60.4943 263.649118 
z
" clip-path="url(#p284c7554ed)" style="fill: #1f77b4"/>
   </g>
   <g id="patch_216">
    <path d="M 64.072023 268.321635 
L 67.649746 268.321635 
L 67.649746 262.030534 
L 64.072023 262.030534 
z
" clip-path="url(#p284c7554ed)" style="fill: #1f77b4"/>
   </g>
   <g id="patch_217">
    <path d="M 67.649746 268.321635 
L 71.227469 268.321635 
L 71.227469 262.763477 
L 67.649746 262.763477 
z
" clip-path="url(#p284c7554ed)" style="fill: #1f77b4"/>
   </g>
   <g id="patch_218">
    <path d="M 71.227469 268.321635 
L 74.805192 268.321635 
L 74.805192 260.656264 
L 71.227469 260.656264 
z
" clip-path="url(#p284c7554ed)" style="fill: #1f77b4"/>
   </g>
   <g id="patch_219">
    <path d="M 74.805192 268.321635 
L 78.382915 268.321635 
L 78.382915 259.281994 
L 74.805192 259.281994 
z
" clip-path="url(#p284c7554ed)" style="fill: #1f77b4"/>
   </g>
   <g id="patch_220">
    <path d="M 78.382915 268.321635 
L 81.960638 268.321635 
L 81.960638 259.251455 
L 78.382915 259.251455 
z
" clip-path="url(#p284c7554ed)" style="fill: #1f77b4"/>
   </g>
   <g id="patch_221">
    <path d="M 81.960638 268.321635 
L 85.538361 268.321635 
L 85.538361 257.724488 
L 81.960638 257.724488 
z
" clip-path="url(#p284c7554ed)" style="fill: #1f77b4"/>
   </g>
   <g id="patch_222">
    <path d="M 85.538361 268.321635 
L 89.116084 268.321635 
L 89.116084 258.304736 
L 85.538361 258.304736 
z
" clip-path="url(#p284c7554ed)" style="fill: #1f77b4"/>
   </g>
   <g id="patch_223">
    <path d="M 89.116084 268.321635 
L 92.693807 268.321635 
L 92.693807 257.693949 
L 89.116084 257.693949 
z
" clip-path="url(#p284c7554ed)" style="fill: #1f77b4"/>
   </g>
   <g id="patch_224">
    <path d="M 92.693807 268.321635 
L 96.271529 268.321635 
L 96.271529 256.961005 
L 92.693807 256.961005 
z
" clip-path="url(#p284c7554ed)" style="fill: #1f77b4"/>
   </g>
   <g id="patch_225">
    <path d="M 96.271529 268.321635 
L 99.849252 268.321635 
L 99.849252 256.166983 
L 96.271529 256.166983 
z
" clip-path="url(#p284c7554ed)" style="fill: #1f77b4"/>
   </g>
   <g id="patch_226">
    <path d="M 99.849252 268.321635 
L 103.426975 268.321635 
L 103.426975 255.342421 
L 99.849252 255.342421 
z
" clip-path="url(#p284c7554ed)" style="fill: #1f77b4"/>
   </g>
   <g id="patch_227">
    <path d="M 103.426975 268.321635 
L 107.004698 268.321635 
L 107.004698 255.37296 
L 103.426975 255.37296 
z
" clip-path="url(#p284c7554ed)" style="fill: #1f77b4"/>
   </g>
   <g id="patch_228">
    <path d="M 107.004698 268.321635 
L 110.582421 268.321635 
L 110.582421 255.464578 
L 107.004698 255.464578 
z
" clip-path="url(#p284c7554ed)" style="fill: #1f77b4"/>
   </g>
   <g id="patch_229">
    <path d="M 110.582421 268.321635 
L 114.160144 268.321635 
L 114.160144 254.304084 
L 110.582421 254.304084 
z
" clip-path="url(#p284c7554ed)" style="fill: #1f77b4"/>
   </g>
   <g id="patch_230">
    <path d="M 114.160144 268.321635 
L 117.737867 268.321635 
L 117.737867 254.273544 
L 114.160144 254.273544 
z
" clip-path="url(#p284c7554ed)" style="fill: #1f77b4"/>
   </g>
   <g id="patch_231">
    <path d="M 117.737867 268.321635 
L 121.31559 268.321635 
L 121.31559 255.189724 
L 117.737867 255.189724 
z
" clip-path="url(#p284c7554ed)" style="fill: #1f77b4"/>
   </g>
   <g id="patch_232">
    <path d="M 121.31559 268.321635 
L 124.893313 268.321635 
L 124.893313 254.181926 
L 121.31559 254.181926 
z
" clip-path="url(#p284c7554ed)" style="fill: #1f77b4"/>
   </g>
   <g id="patch_233">
    <path d="M 124.893313 268.321635 
L 128.471036 268.321635 
L 128.471036 253.662758 
L 124.893313 253.662758 
z
" clip-path="url(#p284c7554ed)" style="fill: #1f77b4"/>
   </g>
   <g id="patch_234">
    <path d="M 128.471036 268.321635 
L 132.048759 268.321635 
L 132.048759 253.021432 
L 128.471036 253.021432 
z
" clip-path="url(#p284c7554ed)" style="fill: #1f77b4"/>
   </g>
   <g id="patch_235">
    <path d="M 132.048759 268.321635 
L 135.626481 268.321635 
L 135.626481 252.929814 
L 132.048759 252.929814 
z
" clip-path="url(#p284c7554ed)" style="fill: #1f77b4"/>
   </g>
   <g id="patch_236">
    <path d="M 135.626481 268.321635 
L 139.204204 268.321635 
L 139.204204 253.540601 
L 135.626481 253.540601 
z
" clip-path="url(#p284c7554ed)" style="fill: #1f77b4"/>
   </g>
   <g id="patch_237">
    <path d="M 139.204204 268.321635 
L 142.781927 268.321635 
L 142.781927 251.616623 
L 139.204204 251.616623 
z
" clip-path="url(#p284c7554ed)" style="fill: #1f77b4"/>
   </g>
   <g id="patch_238">
    <path d="M 142.781927 268.321635 
L 146.35965 268.321635 
L 146.35965 253.021432 
L 142.781927 253.021432 
z
" clip-path="url(#p284c7554ed)" style="fill: #1f77b4"/>
   </g>
   <g id="patch_239">
    <path d="M 146.35965 268.321635 
L 149.937373 268.321635 
L 149.937373 252.319027 
L 146.35965 252.319027 
z
" clip-path="url(#p284c7554ed)" style="fill: #1f77b4"/>
   </g>
   <g id="patch_240">
    <path d="M 149.937373 268.321635 
L 153.515096 268.321635 
L 153.515096 252.807657 
L 149.937373 252.807657 
z
" clip-path="url(#p284c7554ed)" style="fill: #1f77b4"/>
   </g>
   <g id="patch_241">
    <path d="M 153.515096 268.321635 
L 157.092819 268.321635 
L 157.092819 252.716039 
L 153.515096 252.716039 
z
" clip-path="url(#p284c7554ed)" style="fill: #1f77b4"/>
   </g>
   <g id="patch_242">
    <path d="M 157.092819 268.321635 
L 160.670542 268.321635 
L 160.670542 253.693297 
L 157.092819 253.693297 
z
" clip-path="url(#p284c7554ed)" style="fill: #1f77b4"/>
   </g>
   <g id="patch_243">
    <path d="M 160.670542 268.321635 
L 164.248265 268.321635 
L 164.248265 253.174129 
L 160.670542 253.174129 
z
" clip-path="url(#p284c7554ed)" style="fill: #1f77b4"/>
   </g>
   <g id="patch_244">
    <path d="M 164.248265 268.321635 
L 167.825988 268.321635 
L 167.825988 252.013634 
L 164.248265 252.013634 
z
" clip-path="url(#p284c7554ed)" style="fill: #1f77b4"/>
   </g>
   <g id="patch_245">
    <path d="M 167.825988 268.321635 
L 171.403711 268.321635 
L 171.403711 252.899275 
L 167.825988 252.899275 
z
" clip-path="url(#p284c7554ed)" style="fill: #1f77b4"/>
   </g>
   <g id="patch_246">
    <path d="M 171.403711 268.321635 
L 174.981433 268.321635 
L 174.981433 251.647162 
L 171.403711 251.647162 
z
" clip-path="url(#p284c7554ed)" style="fill: #1f77b4"/>
   </g>
   <g id="patch_247">
    <path d="M 174.981433 268.321635 
L 178.559156 268.321635 
L 178.559156 251.250151 
L 174.981433 251.250151 
z
" clip-path="url(#p284c7554ed)" style="fill: #1f77b4"/>
   </g>
   <g id="patch_248">
    <path d="M 178.559156 268.321635 
L 182.136879 268.321635 
L 182.136879 250.669904 
L 178.559156 250.669904 
z
" clip-path="url(#p284c7554ed)" style="fill: #1f77b4"/>
   </g>
   <g id="patch_249">
    <path d="M 182.136879 268.321635 
L 185.714602 268.321635 
L 185.714602 251.708241 
L 182.136879 251.708241 
z
" clip-path="url(#p284c7554ed)" style="fill: #1f77b4"/>
   </g>
   <g id="patch_250">
    <path d="M 185.714602 268.321635 
L 189.292325 268.321635 
L 189.292325 252.319027 
L 185.714602 252.319027 
z
" clip-path="url(#p284c7554ed)" style="fill: #1f77b4"/>
   </g>
   <g id="patch_251">
    <path d="M 189.292325 268.321635 
L 192.870048 268.321635 
L 192.870048 249.539949 
L 189.292325 249.539949 
z
" clip-path="url(#p284c7554ed)" style="fill: #1f77b4"/>
   </g>
   <g id="patch_252">
    <path d="M 192.870048 268.321635 
L 196.447771 268.321635 
L 196.447771 251.555544 
L 192.870048 251.555544 
z
" clip-path="url(#p284c7554ed)" style="fill: #1f77b4"/>
   </g>
   <g id="patch_253">
    <path d="M 196.447771 268.321635 
L 200.025494 268.321635 
L 200.025494 252.319027 
L 196.447771 252.319027 
z
" clip-path="url(#p284c7554ed)" style="fill: #1f77b4"/>
   </g>
   <g id="patch_254">
    <path d="M 200.025494 268.321635 
L 203.603217 268.321635 
L 203.603217 251.922016 
L 200.025494 251.922016 
z
" clip-path="url(#p284c7554ed)" style="fill: #1f77b4"/>
   </g>
   <g id="patch_255">
    <path d="M 203.603217 268.321635 
L 207.18094 268.321635 
L 207.18094 251.158533 
L 203.603217 251.158533 
z
" clip-path="url(#p284c7554ed)" style="fill: #1f77b4"/>
   </g>
   <g id="patch_256">
    <path d="M 207.18094 268.321635 
L 210.758663 268.321635 
L 210.758663 252.074713 
L 207.18094 252.074713 
z
" clip-path="url(#p284c7554ed)" style="fill: #1f77b4"/>
   </g>
   <g id="patch_257">
    <path d="M 210.758663 268.321635 
L 214.336385 268.321635 
L 214.336385 251.891477 
L 210.758663 251.891477 
z
" clip-path="url(#p284c7554ed)" style="fill: #1f77b4"/>
   </g>
   <g id="patch_258">
    <path d="M 214.336385 268.321635 
L 217.914108 268.321635 
L 217.914108 251.189072 
L 214.336385 251.189072 
z
" clip-path="url(#p284c7554ed)" style="fill: #1f77b4"/>
   </g>
   <g id="patch_259">
    <path d="M 217.914108 268.321635 
L 221.491831 268.321635 
L 221.491831 250.975297 
L 217.914108 250.975297 
z
" clip-path="url(#p284c7554ed)" style="fill: #1f77b4"/>
   </g>
   <g id="patch_260">
    <path d="M 221.491831 268.321635 
L 225.069554 268.321635 
L 225.069554 250.425589 
L 221.491831 250.425589 
z
" clip-path="url(#p284c7554ed)" style="fill: #1f77b4"/>
   </g>
   <g id="patch_261">
    <path d="M 225.069554 268.321635 
L 228.647277 268.321635 
L 228.647277 251.28069 
L 225.069554 251.28069 
z
" clip-path="url(#p284c7554ed)" style="fill: #1f77b4"/>
   </g>
   <g id="patch_262">
    <path d="M 228.647277 268.321635 
L 232.225 268.321635 
L 232.225 250.944758 
L 228.647277 250.944758 
z
" clip-path="url(#p284c7554ed)" style="fill: #1f77b4"/>
   </g>
   <g id="patch_263">
    <path d="M 232.225 268.321635 
L 235.802723 268.321635 
L 235.802723 251.036376 
L 232.225 251.036376 
z
" clip-path="url(#p284c7554ed)" style="fill: #1f77b4"/>
   </g>
   <g id="patch_264">
    <path d="M 235.802723 268.321635 
L 239.380446 268.321635 
L 239.380446 251.036376 
L 235.802723 251.036376 
z
" clip-path="url(#p284c7554ed)" style="fill: #1f77b4"/>
   </g>
   <g id="patch_265">
    <path d="M 239.380446 268.321635 
L 242.958169 268.321635 
L 242.958169 249.93696 
L 239.380446 249.93696 
z
" clip-path="url(#p284c7554ed)" style="fill: #1f77b4"/>
   </g>
   <g id="patch_266">
    <path d="M 242.958169 268.321635 
L 246.535892 268.321635 
L 246.535892 249.448331 
L 242.958169 249.448331 
z
" clip-path="url(#p284c7554ed)" style="fill: #1f77b4"/>
   </g>
   <g id="patch_267">
    <path d="M 246.535892 268.321635 
L 250.113615 268.321635 
L 250.113615 250.303432 
L 246.535892 250.303432 
z
" clip-path="url(#p284c7554ed)" style="fill: #1f77b4"/>
   </g>
   <g id="patch_268">
    <path d="M 250.113615 268.321635 
L 253.691337 268.321635 
L 253.691337 249.723185 
L 250.113615 249.723185 
z
" clip-path="url(#p284c7554ed)" style="fill: #1f77b4"/>
   </g>
   <g id="patch_269">
    <path d="M 253.691337 268.321635 
L 257.26906 268.321635 
L 257.26906 251.708241 
L 253.691337 251.708241 
z
" clip-path="url(#p284c7554ed)" style="fill: #1f77b4"/>
   </g>
   <g id="patch_270">
    <path d="M 257.26906 268.321635 
L 260.846783 268.321635 
L 260.846783 249.112398 
L 257.26906 249.112398 
z
" clip-path="url(#p284c7554ed)" style="fill: #1f77b4"/>
   </g>
   <g id="patch_271">
    <path d="M 260.846783 268.321635 
L 264.424506 268.321635 
L 264.424506 249.998039 
L 260.846783 249.998039 
z
" clip-path="url(#p284c7554ed)" style="fill: #1f77b4"/>
   </g>
   <g id="patch_272">
    <path d="M 264.424506 268.321635 
L 268.002229 268.321635 
L 268.002229 249.967499 
L 264.424506 249.967499 
z
" clip-path="url(#p284c7554ed)" style="fill: #1f77b4"/>
   </g>
   <g id="patch_273">
    <path d="M 268.002229 268.321635 
L 271.579952 268.321635 
L 271.579952 250.272892 
L 268.002229 250.272892 
z
" clip-path="url(#p284c7554ed)" style="fill: #1f77b4"/>
   </g>
   <g id="patch_274">
    <path d="M 271.579952 268.321635 
L 275.157675 268.321635 
L 275.157675 250.028578 
L 271.579952 250.028578 
z
" clip-path="url(#p284c7554ed)" style="fill: #1f77b4"/>
   </g>
   <g id="patch_275">
    <path d="M 275.157675 268.321635 
L 278.735398 268.321635 
L 278.735398 249.967499 
L 275.157675 249.967499 
z
" clip-path="url(#p284c7554ed)" style="fill: #1f77b4"/>
   </g>
   <g id="patch_276">
    <path d="M 278.735398 268.321635 
L 282.313121 268.321635 
L 282.313121 250.944758 
L 278.735398 250.944758 
z
" clip-path="url(#p284c7554ed)" style="fill: #1f77b4"/>
   </g>
   <g id="patch_277">
    <path d="M 282.313121 268.321635 
L 285.890844 268.321635 
L 285.890844 250.792061 
L 282.313121 250.792061 
z
" clip-path="url(#p284c7554ed)" style="fill: #1f77b4"/>
   </g>
   <g id="patch_278">
    <path d="M 285.890844 268.321635 
L 289.468567 268.321635 
L 289.468567 250.242353 
L 285.890844 250.242353 
z
" clip-path="url(#p284c7554ed)" style="fill: #1f77b4"/>
   </g>
   <g id="patch_279">
    <path d="M 289.468567 268.321635 
L 293.046289 268.321635 
L 293.046289 251.005836 
L 289.468567 251.005836 
z
" clip-path="url(#p284c7554ed)" style="fill: #1f77b4"/>
   </g>
   <g id="patch_280">
    <path d="M 293.046289 268.321635 
L 296.624012 268.321635 
L 296.624012 250.120196 
L 293.046289 250.120196 
z
" clip-path="url(#p284c7554ed)" style="fill: #1f77b4"/>
   </g>
   <g id="patch_281">
    <path d="M 296.624012 268.321635 
L 300.201735 268.321635 
L 300.201735 250.39505 
L 296.624012 250.39505 
z
" clip-path="url(#p284c7554ed)" style="fill: #1f77b4"/>
   </g>
   <g id="patch_282">
    <path d="M 300.201735 268.321635 
L 303.779458 268.321635 
L 303.779458 251.097454 
L 300.201735 251.097454 
z
" clip-path="url(#p284c7554ed)" style="fill: #1f77b4"/>
   </g>
   <g id="patch_283">
    <path d="M 303.779458 268.321635 
L 307.357181 268.321635 
L 307.357181 251.158533 
L 303.779458 251.158533 
z
" clip-path="url(#p284c7554ed)" style="fill: #1f77b4"/>
   </g>
   <g id="patch_284">
    <path d="M 307.357181 268.321635 
L 310.934904 268.321635 
L 310.934904 249.753724 
L 307.357181 249.753724 
z
" clip-path="url(#p284c7554ed)" style="fill: #1f77b4"/>
   </g>
   <g id="patch_285">
    <path d="M 310.934904 268.321635 
L 314.512627 268.321635 
L 314.512627 250.211814 
L 310.934904 250.211814 
z
" clip-path="url(#p284c7554ed)" style="fill: #1f77b4"/>
   </g>
   <g id="patch_286">
    <path d="M 314.512627 268.321635 
L 318.09035 268.321635 
L 318.09035 250.700443 
L 314.512627 250.700443 
z
" clip-path="url(#p284c7554ed)" style="fill: #1f77b4"/>
   </g>
   <g id="patch_287">
    <path d="M 318.09035 268.321635 
L 321.668073 268.321635 
L 321.668073 252.257949 
L 318.09035 252.257949 
z
" clip-path="url(#p284c7554ed)" style="fill: #1f77b4"/>
   </g>
   <g id="patch_288">
    <path d="M 321.668073 268.321635 
L 325.245796 268.321635 
L 325.245796 250.272892 
L 321.668073 250.272892 
z
" clip-path="url(#p284c7554ed)" style="fill: #1f77b4"/>
   </g>
   <g id="patch_289">
    <path d="M 325.245796 268.321635 
L 328.823519 268.321635 
L 328.823519 251.219612 
L 325.245796 251.219612 
z
" clip-path="url(#p284c7554ed)" style="fill: #1f77b4"/>
   </g>
   <g id="patch_290">
    <path d="M 328.823519 268.321635 
L 332.401241 268.321635 
L 332.401241 250.975297 
L 328.823519 250.975297 
z
" clip-path="url(#p284c7554ed)" style="fill: #1f77b4"/>
   </g>
   <g id="patch_291">
    <path d="M 332.401241 268.321635 
L 335.978964 268.321635 
L 335.978964 252.19687 
L 332.401241 252.19687 
z
" clip-path="url(#p284c7554ed)" style="fill: #1f77b4"/>
   </g>
   <g id="patch_292">
    <path d="M 335.978964 268.321635 
L 339.556687 268.321635 
L 339.556687 253.021432 
L 335.978964 253.021432 
z
" clip-path="url(#p284c7554ed)" style="fill: #1f77b4"/>
   </g>
   <g id="patch_293">
    <path d="M 339.556687 268.321635 
L 343.13441 268.321635 
L 343.13441 251.372308 
L 339.556687 251.372308 
z
" clip-path="url(#p284c7554ed)" style="fill: #1f77b4"/>
   </g>
   <g id="patch_294">
    <path d="M 343.13441 268.321635 
L 346.712133 268.321635 
L 346.712133 251.586084 
L 343.13441 251.586084 
z
" clip-path="url(#p284c7554ed)" style="fill: #1f77b4"/>
   </g>
   <g id="patch_295">
    <path d="M 346.712133 268.321635 
L 350.289856 268.321635 
L 350.289856 251.830398 
L 346.712133 251.830398 
z
" clip-path="url(#p284c7554ed)" style="fill: #1f77b4"/>
   </g>
   <g id="patch_296">
    <path d="M 350.289856 268.321635 
L 353.867579 268.321635 
L 353.867579 252.380106 
L 350.289856 252.380106 
z
" clip-path="url(#p284c7554ed)" style="fill: #1f77b4"/>
   </g>
   <g id="patch_297">
    <path d="M 353.867579 268.321635 
L 357.445302 268.321635 
L 357.445302 252.19687 
L 353.867579 252.19687 
z
" clip-path="url(#p284c7554ed)" style="fill: #1f77b4"/>
   </g>
   <g id="patch_298">
    <path d="M 357.445302 268.321635 
L 361.023025 268.321635 
L 361.023025 253.296286 
L 357.445302 253.296286 
z
" clip-path="url(#p284c7554ed)" style="fill: #1f77b4"/>
   </g>
   <g id="patch_299">
    <path d="M 361.023025 268.321635 
L 364.600748 268.321635 
L 364.600748 250.700443 
L 361.023025 250.700443 
z
" clip-path="url(#p284c7554ed)" style="fill: #1f77b4"/>
   </g>
   <g id="patch_300">
    <path d="M 364.600748 268.321635 
L 368.178471 268.321635 
L 368.178471 252.380106 
L 364.600748 252.380106 
z
" clip-path="url(#p284c7554ed)" style="fill: #1f77b4"/>
   </g>
   <g id="patch_301">
    <path d="M 368.178471 268.321635 
L 371.756193 268.321635 
L 371.756193 252.990893 
L 368.178471 252.990893 
z
" clip-path="url(#p284c7554ed)" style="fill: #1f77b4"/>
   </g>
   <g id="patch_302">
    <path d="M 371.756193 268.321635 
L 375.333916 268.321635 
L 375.333916 251.799859 
L 371.756193 251.799859 
z
" clip-path="url(#p284c7554ed)" style="fill: #1f77b4"/>
   </g>
   <g id="patch_303">
    <path d="M 375.333916 268.321635 
L 378.911639 268.321635 
L 378.911639 252.135791 
L 375.333916 252.135791 
z
" clip-path="url(#p284c7554ed)" style="fill: #1f77b4"/>
   </g>
   <g id="patch_304">
    <path d="M 378.911639 268.321635 
L 382.489362 268.321635 
L 382.489362 253.693297 
L 378.911639 253.693297 
z
" clip-path="url(#p284c7554ed)" style="fill: #1f77b4"/>
   </g>
   <g id="patch_305">
    <path d="M 382.489362 268.321635 
L 386.067085 268.321635 
L 386.067085 253.021432 
L 382.489362 253.021432 
z
" clip-path="url(#p284c7554ed)" style="fill: #1f77b4"/>
   </g>
   <g id="patch_306">
    <path d="M 386.067085 268.321635 
L 389.644808 268.321635 
L 389.644808 252.746578 
L 386.067085 252.746578 
z
" clip-path="url(#p284c7554ed)" style="fill: #1f77b4"/>
   </g>
   <g id="patch_307">
    <path d="M 389.644808 268.321635 
L 393.222531 268.321635 
L 393.222531 253.754376 
L 389.644808 253.754376 
z
" clip-path="url(#p284c7554ed)" style="fill: #1f77b4"/>
   </g>
   <g id="patch_308">
    <path d="M 393.222531 268.321635 
L 396.800254 268.321635 
L 396.800254 254.365162 
L 393.222531 254.365162 
z
" clip-path="url(#p284c7554ed)" style="fill: #1f77b4"/>
   </g>
   <g id="patch_309">
    <path d="M 396.800254 268.321635 
L 400.377977 268.321635 
L 400.377977 253.907072 
L 396.800254 253.907072 
z
" clip-path="url(#p284c7554ed)" style="fill: #1f77b4"/>
   </g>
   <g id="patch_310">
    <path d="M 400.377977 268.321635 
L 403.9557 268.321635 
L 403.9557 252.746578 
L 400.377977 252.746578 
z
" clip-path="url(#p284c7554ed)" style="fill: #1f77b4"/>
   </g>
   <g id="patch_311">
    <path d="M 403.9557 268.321635 
L 407.533423 268.321635 
L 407.533423 254.426241 
L 403.9557 254.426241 
z
" clip-path="url(#p284c7554ed)" style="fill: #1f77b4"/>
   </g>
   <g id="patch_312">
    <path d="M 407.533423 268.321635 
L 411.111145 268.321635 
L 411.111145 252.502263 
L 407.533423 252.502263 
z
" clip-path="url(#p284c7554ed)" style="fill: #1f77b4"/>
   </g>
   <g id="matplotlib.axis_5">
    <g id="xtick_13">
     <g id="line2d_17">
      <g>
       <use xlink:href="#mbba6c2be8c" x="49.686174" y="268.321635" style="stroke: #000000; stroke-width: 0.8"/>
      </g>
     </g>
     <g id="text_19">
      <!-- 0 -->
      <g transform="translate(46.504924 282.920073)scale(0.1 -0.1)">
       <use xlink:href="#DejaVuSans-30"/>
      </g>
     </g>
    </g>
    <g id="xtick_14">
     <g id="line2d_18">
      <g>
       <use xlink:href="#mbba6c2be8c" x="121.974396" y="268.321635" style="stroke: #000000; stroke-width: 0.8"/>
      </g>
     </g>
     <g id="text_20">
      <!-- 1000 -->
      <g transform="translate(109.249396 282.920073)scale(0.1 -0.1)">
       <use xlink:href="#DejaVuSans-31"/>
       <use xlink:href="#DejaVuSans-30" x="63.623047"/>
       <use xlink:href="#DejaVuSans-30" x="127.246094"/>
       <use xlink:href="#DejaVuSans-30" x="190.869141"/>
      </g>
     </g>
    </g>
    <g id="xtick_15">
     <g id="line2d_19">
      <g>
       <use xlink:href="#mbba6c2be8c" x="194.262618" y="268.321635" style="stroke: #000000; stroke-width: 0.8"/>
      </g>
     </g>
     <g id="text_21">
      <!-- 2000 -->
      <g transform="translate(181.537618 282.920073)scale(0.1 -0.1)">
       <use xlink:href="#DejaVuSans-32"/>
       <use xlink:href="#DejaVuSans-30" x="63.623047"/>
       <use xlink:href="#DejaVuSans-30" x="127.246094"/>
       <use xlink:href="#DejaVuSans-30" x="190.869141"/>
      </g>
     </g>
    </g>
    <g id="xtick_16">
     <g id="line2d_20">
      <g>
       <use xlink:href="#mbba6c2be8c" x="266.550841" y="268.321635" style="stroke: #000000; stroke-width: 0.8"/>
      </g>
     </g>
     <g id="text_22">
      <!-- 3000 -->
      <g transform="translate(253.825841 282.920073)scale(0.1 -0.1)">
       <use xlink:href="#DejaVuSans-33"/>
       <use xlink:href="#DejaVuSans-30" x="63.623047"/>
       <use xlink:href="#DejaVuSans-30" x="127.246094"/>
       <use xlink:href="#DejaVuSans-30" x="190.869141"/>
      </g>
     </g>
    </g>
    <g id="xtick_17">
     <g id="line2d_21">
      <g>
       <use xlink:href="#mbba6c2be8c" x="338.839063" y="268.321635" style="stroke: #000000; stroke-width: 0.8"/>
      </g>
     </g>
     <g id="text_23">
      <!-- 4000 -->
      <g transform="translate(326.114063 282.920073)scale(0.1 -0.1)">
       <use xlink:href="#DejaVuSans-34"/>
       <use xlink:href="#DejaVuSans-30" x="63.623047"/>
       <use xlink:href="#DejaVuSans-30" x="127.246094"/>
       <use xlink:href="#DejaVuSans-30" x="190.869141"/>
      </g>
     </g>
    </g>
    <g id="xtick_18">
     <g id="line2d_22">
      <g>
       <use xlink:href="#mbba6c2be8c" x="411.127285" y="268.321635" style="stroke: #000000; stroke-width: 0.8"/>
      </g>
     </g>
     <g id="text_24">
      <!-- 5000 -->
      <g transform="translate(398.402285 282.920073)scale(0.1 -0.1)">
       <use xlink:href="#DejaVuSans-35"/>
       <use xlink:href="#DejaVuSans-30" x="63.623047"/>
       <use xlink:href="#DejaVuSans-30" x="127.246094"/>
       <use xlink:href="#DejaVuSans-30" x="190.869141"/>
      </g>
     </g>
    </g>
   </g>
   <g id="matplotlib.axis_6">
    <g id="ytick_5">
     <g id="line2d_23">
      <g>
       <use xlink:href="#mf15dc0911f" x="35.45024" y="268.321635" style="stroke: #000000; stroke-width: 0.8"/>
      </g>
     </g>
     <g id="text_25">
      <!-- 0 -->
      <g transform="translate(22.08774 272.120854)scale(0.1 -0.1)">
       <use xlink:href="#DejaVuSans-30"/>
      </g>
     </g>
    </g>
    <g id="ytick_6">
     <g id="line2d_24">
      <g>
       <use xlink:href="#mf15dc0911f" x="35.45024" y="237.782308" style="stroke: #000000; stroke-width: 0.8"/>
      </g>
     </g>
     <g id="text_26">
      <!-- 1000 -->
      <g transform="translate(3.00024 241.581526)scale(0.1 -0.1)">
       <use xlink:href="#DejaVuSans-31"/>
       <use xlink:href="#DejaVuSans-30" x="63.623047"/>
       <use xlink:href="#DejaVuSans-30" x="127.246094"/>
       <use xlink:href="#DejaVuSans-30" x="190.869141"/>
      </g>
     </g>
    </g>
   </g>
   <g id="patch_313">
    <path d="M 35.45024 268.321635 
L 35.45024 216.149775 
" style="fill: none; stroke: #000000; stroke-width: 0.8; stroke-linejoin: miter; stroke-linecap: square"/>
   </g>
   <g id="patch_314">
    <path d="M 428.99976 268.321635 
L 428.99976 216.149775 
" style="fill: none; stroke: #000000; stroke-width: 0.8; stroke-linejoin: miter; stroke-linecap: square"/>
   </g>
   <g id="patch_315">
    <path d="M 35.45024 268.321635 
L 428.99976 268.321635 
" style="fill: none; stroke: #000000; stroke-width: 0.8; stroke-linejoin: miter; stroke-linecap: square"/>
   </g>
   <g id="patch_316">
    <path d="M 35.45024 216.149775 
L 428.99976 216.149775 
" style="fill: none; stroke: #000000; stroke-width: 0.8; stroke-linejoin: miter; stroke-linecap: square"/>
   </g>
   <g id="text_27">
    <!-- $M_3$ -->
    <g transform="translate(224.185 210.149775)scale(0.12 -0.12)">
     <use xlink:href="#DejaVuSans-Oblique-4d" transform="translate(0 0.09375)"/>
     <use xlink:href="#DejaVuSans-33" transform="translate(86.279297 -16.3125)scale(0.7)"/>
    </g>
   </g>
  </g>
  <g id="text_28">
   <!-- Histogramme des paramtres de masse -->
   <g transform="translate(95.4525 12.598365)scale(0.12 -0.12)">
    <defs>
     <path id="DejaVuSans-48" d="M 628 4666 
L 1259 4666 
L 1259 2753 
L 3553 2753 
L 3553 4666 
L 4184 4666 
L 4184 0 
L 3553 0 
L 3553 2222 
L 1259 2222 
L 1259 0 
L 628 0 
L 628 4666 
z
" transform="scale(0.015625)"/>
     <path id="DejaVuSans-69" d="M 603 3500 
L 1178 3500 
L 1178 0 
L 603 0 
L 603 3500 
z
M 603 4863 
L 1178 4863 
L 1178 4134 
L 603 4134 
L 603 4863 
z
" transform="scale(0.015625)"/>
     <path id="DejaVuSans-73" d="M 2834 3397 
L 2834 2853 
Q 2591 2978 2328 3040 
Q 2066 3103 1784 3103 
Q 1356 3103 1142 2972 
Q 928 2841 928 2578 
Q 928 2378 1081 2264 
Q 1234 2150 1697 2047 
L 1894 2003 
Q 2506 1872 2764 1633 
Q 3022 1394 3022 966 
Q 3022 478 2636 193 
Q 2250 -91 1575 -91 
Q 1294 -91 989 -36 
Q 684 19 347 128 
L 347 722 
Q 666 556 975 473 
Q 1284 391 1588 391 
Q 1994 391 2212 530 
Q 2431 669 2431 922 
Q 2431 1156 2273 1281 
Q 2116 1406 1581 1522 
L 1381 1569 
Q 847 1681 609 1914 
Q 372 2147 372 2553 
Q 372 3047 722 3315 
Q 1072 3584 1716 3584 
Q 2034 3584 2315 3537 
Q 2597 3491 2834 3397 
z
" transform="scale(0.015625)"/>
     <path id="DejaVuSans-74" d="M 1172 4494 
L 1172 3500 
L 2356 3500 
L 2356 3053 
L 1172 3053 
L 1172 1153 
Q 1172 725 1289 603 
Q 1406 481 1766 481 
L 2356 481 
L 2356 0 
L 1766 0 
Q 1100 0 847 248 
Q 594 497 594 1153 
L 594 3053 
L 172 3053 
L 172 3500 
L 594 3500 
L 594 4494 
L 1172 4494 
z
" transform="scale(0.015625)"/>
     <path id="DejaVuSans-6f" d="M 1959 3097 
Q 1497 3097 1228 2736 
Q 959 2375 959 1747 
Q 959 1119 1226 758 
Q 1494 397 1959 397 
Q 2419 397 2687 759 
Q 2956 1122 2956 1747 
Q 2956 2369 2687 2733 
Q 2419 3097 1959 3097 
z
M 1959 3584 
Q 2709 3584 3137 3096 
Q 3566 2609 3566 1747 
Q 3566 888 3137 398 
Q 2709 -91 1959 -91 
Q 1206 -91 779 398 
Q 353 888 353 1747 
Q 353 2609 779 3096 
Q 1206 3584 1959 3584 
z
" transform="scale(0.015625)"/>
     <path id="DejaVuSans-67" d="M 2906 1791 
Q 2906 2416 2648 2759 
Q 2391 3103 1925 3103 
Q 1463 3103 1205 2759 
Q 947 2416 947 1791 
Q 947 1169 1205 825 
Q 1463 481 1925 481 
Q 2391 481 2648 825 
Q 2906 1169 2906 1791 
z
M 3481 434 
Q 3481 -459 3084 -895 
Q 2688 -1331 1869 -1331 
Q 1566 -1331 1297 -1286 
Q 1028 -1241 775 -1147 
L 775 -588 
Q 1028 -725 1275 -790 
Q 1522 -856 1778 -856 
Q 2344 -856 2625 -561 
Q 2906 -266 2906 331 
L 2906 616 
Q 2728 306 2450 153 
Q 2172 0 1784 0 
Q 1141 0 747 490 
Q 353 981 353 1791 
Q 353 2603 747 3093 
Q 1141 3584 1784 3584 
Q 2172 3584 2450 3431 
Q 2728 3278 2906 2969 
L 2906 3500 
L 3481 3500 
L 3481 434 
z
" transform="scale(0.015625)"/>
     <path id="DejaVuSans-72" d="M 2631 2963 
Q 2534 3019 2420 3045 
Q 2306 3072 2169 3072 
Q 1681 3072 1420 2755 
Q 1159 2438 1159 1844 
L 1159 0 
L 581 0 
L 581 3500 
L 1159 3500 
L 1159 2956 
Q 1341 3275 1631 3429 
Q 1922 3584 2338 3584 
Q 2397 3584 2469 3576 
Q 2541 3569 2628 3553 
L 2631 2963 
z
" transform="scale(0.015625)"/>
     <path id="DejaVuSans-61" d="M 2194 1759 
Q 1497 1759 1228 1600 
Q 959 1441 959 1056 
Q 959 750 1161 570 
Q 1363 391 1709 391 
Q 2188 391 2477 730 
Q 2766 1069 2766 1631 
L 2766 1759 
L 2194 1759 
z
M 3341 1997 
L 3341 0 
L 2766 0 
L 2766 531 
Q 2569 213 2275 61 
Q 1981 -91 1556 -91 
Q 1019 -91 701 211 
Q 384 513 384 1019 
Q 384 1609 779 1909 
Q 1175 2209 1959 2209 
L 2766 2209 
L 2766 2266 
Q 2766 2663 2505 2880 
Q 2244 3097 1772 3097 
Q 1472 3097 1187 3025 
Q 903 2953 641 2809 
L 641 3341 
Q 956 3463 1253 3523 
Q 1550 3584 1831 3584 
Q 2591 3584 2966 3190 
Q 3341 2797 3341 1997 
z
" transform="scale(0.015625)"/>
     <path id="DejaVuSans-6d" d="M 3328 2828 
Q 3544 3216 3844 3400 
Q 4144 3584 4550 3584 
Q 5097 3584 5394 3201 
Q 5691 2819 5691 2113 
L 5691 0 
L 5113 0 
L 5113 2094 
Q 5113 2597 4934 2840 
Q 4756 3084 4391 3084 
Q 3944 3084 3684 2787 
Q 3425 2491 3425 1978 
L 3425 0 
L 2847 0 
L 2847 2094 
Q 2847 2600 2669 2842 
Q 2491 3084 2119 3084 
Q 1678 3084 1418 2786 
Q 1159 2488 1159 1978 
L 1159 0 
L 581 0 
L 581 3500 
L 1159 3500 
L 1159 2956 
Q 1356 3278 1631 3431 
Q 1906 3584 2284 3584 
Q 2666 3584 2933 3390 
Q 3200 3197 3328 2828 
z
" transform="scale(0.015625)"/>
     <path id="DejaVuSans-65" d="M 3597 1894 
L 3597 1613 
L 953 1613 
Q 991 1019 1311 708 
Q 1631 397 2203 397 
Q 2534 397 2845 478 
Q 3156 559 3463 722 
L 3463 178 
Q 3153 47 2828 -22 
Q 2503 -91 2169 -91 
Q 1331 -91 842 396 
Q 353 884 353 1716 
Q 353 2575 817 3079 
Q 1281 3584 2069 3584 
Q 2775 3584 3186 3129 
Q 3597 2675 3597 1894 
z
M 3022 2063 
Q 3016 2534 2758 2815 
Q 2500 3097 2075 3097 
Q 1594 3097 1305 2825 
Q 1016 2553 972 2059 
L 3022 2063 
z
" transform="scale(0.015625)"/>
     <path id="DejaVuSans-20" transform="scale(0.015625)"/>
     <path id="DejaVuSans-64" d="M 2906 2969 
L 2906 4863 
L 3481 4863 
L 3481 0 
L 2906 0 
L 2906 525 
Q 2725 213 2448 61 
Q 2172 -91 1784 -91 
Q 1150 -91 751 415 
Q 353 922 353 1747 
Q 353 2572 751 3078 
Q 1150 3584 1784 3584 
Q 2172 3584 2448 3432 
Q 2725 3281 2906 2969 
z
M 947 1747 
Q 947 1113 1208 752 
Q 1469 391 1925 391 
Q 2381 391 2643 752 
Q 2906 1113 2906 1747 
Q 2906 2381 2643 2742 
Q 2381 3103 1925 3103 
Q 1469 3103 1208 2742 
Q 947 2381 947 1747 
z
" transform="scale(0.015625)"/>
     <path id="DejaVuSans-70" d="M 1159 525 
L 1159 -1331 
L 581 -1331 
L 581 3500 
L 1159 3500 
L 1159 2969 
Q 1341 3281 1617 3432 
Q 1894 3584 2278 3584 
Q 2916 3584 3314 3078 
Q 3713 2572 3713 1747 
Q 3713 922 3314 415 
Q 2916 -91 2278 -91 
Q 1894 -91 1617 61 
Q 1341 213 1159 525 
z
M 3116 1747 
Q 3116 2381 2855 2742 
Q 2594 3103 2138 3103 
Q 1681 3103 1420 2742 
Q 1159 2381 1159 1747 
Q 1159 1113 1420 752 
Q 1681 391 2138 391 
Q 2594 391 2855 752 
Q 3116 1113 3116 1747 
z
" transform="scale(0.015625)"/>
     <path id="DejaVuSans-e8" d="M 3597 1894 
L 3597 1613 
L 953 1613 
Q 991 1019 1311 708 
Q 1631 397 2203 397 
Q 2534 397 2845 478 
Q 3156 559 3463 722 
L 3463 178 
Q 3153 47 2828 -22 
Q 2503 -91 2169 -91 
Q 1331 -91 842 396 
Q 353 884 353 1716 
Q 353 2575 817 3079 
Q 1281 3584 2069 3584 
Q 2775 3584 3186 3129 
Q 3597 2675 3597 1894 
z
M 3022 2063 
Q 3016 2534 2758 2815 
Q 2500 3097 2075 3097 
Q 1594 3097 1305 2825 
Q 1016 2553 972 2059 
L 3022 2063 
z
M 1579 5119 
L 2460 3950 
L 1982 3950 
L 963 5119 
L 1579 5119 
z
" transform="scale(0.015625)"/>
    </defs>
    <use xlink:href="#DejaVuSans-48"/>
    <use xlink:href="#DejaVuSans-69" x="75.195312"/>
    <use xlink:href="#DejaVuSans-73" x="102.978516"/>
    <use xlink:href="#DejaVuSans-74" x="155.078125"/>
    <use xlink:href="#DejaVuSans-6f" x="194.287109"/>
    <use xlink:href="#DejaVuSans-67" x="255.46875"/>
    <use xlink:href="#DejaVuSans-72" x="318.945312"/>
    <use xlink:href="#DejaVuSans-61" x="360.058594"/>
    <use xlink:href="#DejaVuSans-6d" x="421.337891"/>
    <use xlink:href="#DejaVuSans-6d" x="518.75"/>
    <use xlink:href="#DejaVuSans-65" x="616.162109"/>
    <use xlink:href="#DejaVuSans-20" x="677.685547"/>
    <use xlink:href="#DejaVuSans-64" x="709.472656"/>
    <use xlink:href="#DejaVuSans-65" x="772.949219"/>
    <use xlink:href="#DejaVuSans-73" x="834.472656"/>
    <use xlink:href="#DejaVuSans-20" x="886.572266"/>
    <use xlink:href="#DejaVuSans-70" x="918.359375"/>
    <use xlink:href="#DejaVuSans-61" x="981.835938"/>
    <use xlink:href="#DejaVuSans-72" x="1043.115234"/>
    <use xlink:href="#DejaVuSans-61" x="1084.228516"/>
    <use xlink:href="#DejaVuSans-6d" x="1145.507812"/>
    <use xlink:href="#DejaVuSans-e8" x="1242.919922"/>
    <use xlink:href="#DejaVuSans-74" x="1304.443359"/>
    <use xlink:href="#DejaVuSans-72" x="1343.652344"/>
    <use xlink:href="#DejaVuSans-65" x="1382.515625"/>
    <use xlink:href="#DejaVuSans-73" x="1444.039062"/>
    <use xlink:href="#DejaVuSans-20" x="1496.138672"/>
    <use xlink:href="#DejaVuSans-64" x="1527.925781"/>
    <use xlink:href="#DejaVuSans-65" x="1591.402344"/>
    <use xlink:href="#DejaVuSans-20" x="1652.925781"/>
    <use xlink:href="#DejaVuSans-6d" x="1684.712891"/>
    <use xlink:href="#DejaVuSans-61" x="1782.125"/>
    <use xlink:href="#DejaVuSans-73" x="1843.404297"/>
    <use xlink:href="#DejaVuSans-73" x="1895.503906"/>
    <use xlink:href="#DejaVuSans-65" x="1947.603516"/>
   </g>
  </g>
  <g id="text_29">
   <!-- Masse (GeV) -->
   <g transform="translate(184.474219 302.4)scale(0.1 -0.1)">
    <defs>
     <path id="DejaVuSans-4d" d="M 628 4666 
L 1569 4666 
L 2759 1491 
L 3956 4666 
L 4897 4666 
L 4897 0 
L 4281 0 
L 4281 4097 
L 3078 897 
L 2444 897 
L 1241 4097 
L 1241 0 
L 628 0 
L 628 4666 
z
" transform="scale(0.015625)"/>
     <path id="DejaVuSans-28" d="M 1984 4856 
Q 1566 4138 1362 3434 
Q 1159 2731 1159 2009 
Q 1159 1288 1364 580 
Q 1569 -128 1984 -844 
L 1484 -844 
Q 1016 -109 783 600 
Q 550 1309 550 2009 
Q 550 2706 781 3412 
Q 1013 4119 1484 4856 
L 1984 4856 
z
" transform="scale(0.015625)"/>
     <path id="DejaVuSans-47" d="M 3809 666 
L 3809 1919 
L 2778 1919 
L 2778 2438 
L 4434 2438 
L 4434 434 
Q 4069 175 3628 42 
Q 3188 -91 2688 -91 
Q 1594 -91 976 548 
Q 359 1188 359 2328 
Q 359 3472 976 4111 
Q 1594 4750 2688 4750 
Q 3144 4750 3555 4637 
Q 3966 4525 4313 4306 
L 4313 3634 
Q 3963 3931 3569 4081 
Q 3175 4231 2741 4231 
Q 1884 4231 1454 3753 
Q 1025 3275 1025 2328 
Q 1025 1384 1454 906 
Q 1884 428 2741 428 
Q 3075 428 3337 486 
Q 3600 544 3809 666 
z
" transform="scale(0.015625)"/>
     <path id="DejaVuSans-56" d="M 1831 0 
L 50 4666 
L 709 4666 
L 2188 738 
L 3669 4666 
L 4325 4666 
L 2547 0 
L 1831 0 
z
" transform="scale(0.015625)"/>
     <path id="DejaVuSans-29" d="M 513 4856 
L 1013 4856 
Q 1481 4119 1714 3412 
Q 1947 2706 1947 2009 
Q 1947 1309 1714 600 
Q 1481 -109 1013 -844 
L 513 -844 
Q 928 -128 1133 580 
Q 1338 1288 1338 2009 
Q 1338 2731 1133 3434 
Q 928 4138 513 4856 
z
" transform="scale(0.015625)"/>
    </defs>
    <use xlink:href="#DejaVuSans-4d"/>
    <use xlink:href="#DejaVuSans-61" x="86.279297"/>
    <use xlink:href="#DejaVuSans-73" x="147.558594"/>
    <use xlink:href="#DejaVuSans-73" x="199.658203"/>
    <use xlink:href="#DejaVuSans-65" x="251.757812"/>
    <use xlink:href="#DejaVuSans-20" x="313.28125"/>
    <use xlink:href="#DejaVuSans-28" x="345.068359"/>
    <use xlink:href="#DejaVuSans-47" x="384.082031"/>
    <use xlink:href="#DejaVuSans-65" x="461.572266"/>
    <use xlink:href="#DejaVuSans-56" x="523.095703"/>
    <use xlink:href="#DejaVuSans-29" x="591.503906"/>
   </g>
  </g>
  <g id="text_30">
   <!-- N -->
   <g transform="translate(-9.681563 147.740625)rotate(-90)scale(0.1 -0.1)">
    <defs>
     <path id="DejaVuSans-4e" d="M 628 4666 
L 1478 4666 
L 3547 763 
L 3547 4666 
L 4159 4666 
L 4159 0 
L 3309 0 
L 1241 3903 
L 1241 0 
L 628 0 
L 628 4666 
z
" transform="scale(0.015625)"/>
    </defs>
    <use xlink:href="#DejaVuSans-4e"/>
   </g>
  </g>
 </g>
 <defs>
  <clipPath id="pf4d0becb8a">
   <rect x="35.45024" y="36.212595" width="393.54952" height="52.17186"/>
  </clipPath>
  <clipPath id="p81b07ae91c">
   <rect x="35.45024" y="126.181185" width="393.54952" height="52.17186"/>
  </clipPath>
  <clipPath id="p284c7554ed">
   <rect x="35.45024" y="216.149775" width="393.54952" height="52.17186"/>
  </clipPath>
 </defs>
</svg>
