<?xml version="1.0" encoding="utf-8" standalone="no"?>
<!DOCTYPE svg PUBLIC "-//W3C//DTD SVG 1.1//EN"
  "http://www.w3.org/Graphics/SVG/1.1/DTD/svg11.dtd">
<svg xmlns:xlink="http://www.w3.org/1999/xlink" width="373.355367pt" height="264.128055pt" viewBox="0 0 373.355367 264.128055" xmlns="http://www.w3.org/2000/svg" version="1.1">
 <metadata>
  <rdf:RDF xmlns:dc="http://purl.org/dc/elements/1.1/" xmlns:cc="http://creativecommons.org/ns#" xmlns:rdf="http://www.w3.org/1999/02/22-rdf-syntax-ns#">
   <cc:Work>
    <dc:type rdf:resource="http://purl.org/dc/dcmitype/StillImage"/>
    <dc:date>2022-06-09T11:54:47.251318</dc:date>
    <dc:format>image/svg+xml</dc:format>
    <dc:creator>
     <cc:Agent>
      <dc:title>Matplotlib v3.5.2, https://matplotlib.org/</dc:title>
     </cc:Agent>
    </dc:creator>
   </cc:Work>
  </rdf:RDF>
 </metadata>
 <defs>
  <style type="text/css">*{stroke-linejoin: round; stroke-linecap: butt}</style>
 </defs>
 <g id="figure_1">
  <g id="patch_1">
   <path d="M 0 264.128055 
L 373.355367 264.128055 
L 373.355367 0 
L 0 0 
L 0 264.128055 
z
" style="fill: none"/>
  </g>
  <g id="axes_1">
   <g id="patch_2">
    <path d="M 34.955367 235.205242 
L 369.755367 235.205242 
L 369.755367 17.765242 
L 34.955367 17.765242 
z
" style="fill: #ffffff"/>
   </g>
   <g id="patch_3">
    <path d="M 50.173548 235.205242 
L 53.217185 235.205242 
L 53.217185 177.717725 
L 50.173548 177.717725 
z
" clip-path="url(#p34cf15fe37)" style="fill: #0000ff"/>
   </g>
   <g id="patch_4">
    <path d="M 53.217185 235.205242 
L 56.260821 235.205242 
L 56.260821 167.918717 
L 53.217185 167.918717 
z
" clip-path="url(#p34cf15fe37)" style="fill: #0000ff"/>
   </g>
   <g id="patch_5">
    <path d="M 56.260821 235.205242 
L 59.304458 235.205242 
L 59.304458 163.019212 
L 56.260821 163.019212 
z
" clip-path="url(#p34cf15fe37)" style="fill: #0000ff"/>
   </g>
   <g id="patch_6">
    <path d="M 59.304458 235.205242 
L 62.348094 235.205242 
L 62.348094 155.180006 
L 59.304458 155.180006 
z
" clip-path="url(#p34cf15fe37)" style="fill: #0000ff"/>
   </g>
   <g id="patch_7">
    <path d="M 62.348094 235.205242 
L 65.39173 235.205242 
L 65.39173 167.592083 
L 62.348094 167.592083 
z
" clip-path="url(#p34cf15fe37)" style="fill: #0000ff"/>
   </g>
   <g id="patch_8">
    <path d="M 65.39173 235.205242 
L 68.435367 235.205242 
L 68.435367 147.014165 
L 65.39173 147.014165 
z
" clip-path="url(#p34cf15fe37)" style="fill: #0000ff"/>
   </g>
   <g id="patch_9">
    <path d="M 68.435367 235.205242 
L 71.479003 235.205242 
L 71.479003 151.587036 
L 68.435367 151.587036 
z
" clip-path="url(#p34cf15fe37)" style="fill: #0000ff"/>
   </g>
   <g id="patch_10">
    <path d="M 71.479003 235.205242 
L 74.522639 235.205242 
L 74.522639 145.054363 
L 71.479003 145.054363 
z
" clip-path="url(#p34cf15fe37)" style="fill: #0000ff"/>
   </g>
   <g id="patch_11">
    <path d="M 74.522639 235.205242 
L 77.566276 235.205242 
L 77.566276 139.174958 
L 74.522639 139.174958 
z
" clip-path="url(#p34cf15fe37)" style="fill: #0000ff"/>
   </g>
   <g id="patch_12">
    <path d="M 77.566276 235.205242 
L 80.609912 235.205242 
L 80.609912 139.501592 
L 77.566276 139.501592 
z
" clip-path="url(#p34cf15fe37)" style="fill: #0000ff"/>
   </g>
   <g id="patch_13">
    <path d="M 80.609912 235.205242 
L 83.653548 235.205242 
L 83.653548 131.662385 
L 80.609912 131.662385 
z
" clip-path="url(#p34cf15fe37)" style="fill: #0000ff"/>
   </g>
   <g id="patch_14">
    <path d="M 83.653548 235.205242 
L 86.697185 235.205242 
L 86.697185 127.089514 
L 83.653548 127.089514 
z
" clip-path="url(#p34cf15fe37)" style="fill: #0000ff"/>
   </g>
   <g id="patch_15">
    <path d="M 86.697185 235.205242 
L 89.740821 235.205242 
L 89.740821 129.37595 
L 86.697185 129.37595 
z
" clip-path="url(#p34cf15fe37)" style="fill: #0000ff"/>
   </g>
   <g id="patch_16">
    <path d="M 89.740821 235.205242 
L 92.784458 235.205242 
L 92.784458 112.717635 
L 89.740821 112.717635 
z
" clip-path="url(#p34cf15fe37)" style="fill: #0000ff"/>
   </g>
   <g id="patch_17">
    <path d="M 92.784458 235.205242 
L 95.828094 235.205242 
L 95.828094 116.637239 
L 92.784458 116.637239 
z
" clip-path="url(#p34cf15fe37)" style="fill: #0000ff"/>
   </g>
   <g id="patch_18">
    <path d="M 95.828094 235.205242 
L 98.87173 235.205242 
L 98.87173 108.798032 
L 95.828094 108.798032 
z
" clip-path="url(#p34cf15fe37)" style="fill: #0000ff"/>
   </g>
   <g id="patch_19">
    <path d="M 98.87173 235.205242 
L 101.915367 235.205242 
L 101.915367 98.999023 
L 98.87173 98.999023 
z
" clip-path="url(#p34cf15fe37)" style="fill: #0000ff"/>
   </g>
   <g id="patch_20">
    <path d="M 101.915367 235.205242 
L 104.959003 235.205242 
L 104.959003 98.999023 
L 101.915367 98.999023 
z
" clip-path="url(#p34cf15fe37)" style="fill: #0000ff"/>
   </g>
   <g id="patch_21">
    <path d="M 104.959003 235.205242 
L 108.002639 235.205242 
L 108.002639 107.491497 
L 104.959003 107.491497 
z
" clip-path="url(#p34cf15fe37)" style="fill: #0000ff"/>
   </g>
   <g id="patch_22">
    <path d="M 108.002639 235.205242 
L 111.046276 235.205242 
L 111.046276 98.019122 
L 108.002639 98.019122 
z
" clip-path="url(#p34cf15fe37)" style="fill: #0000ff"/>
   </g>
   <g id="patch_23">
    <path d="M 111.046276 235.205242 
L 114.089912 235.205242 
L 114.089912 98.019122 
L 111.046276 98.019122 
z
" clip-path="url(#p34cf15fe37)" style="fill: #0000ff"/>
   </g>
   <g id="patch_24">
    <path d="M 114.089912 235.205242 
L 117.133548 235.205242 
L 117.133548 91.48645 
L 114.089912 91.48645 
z
" clip-path="url(#p34cf15fe37)" style="fill: #0000ff"/>
   </g>
   <g id="patch_25">
    <path d="M 117.133548 235.205242 
L 120.177185 235.205242 
L 120.177185 100.305558 
L 117.133548 100.305558 
z
" clip-path="url(#p34cf15fe37)" style="fill: #0000ff"/>
   </g>
   <g id="patch_26">
    <path d="M 120.177185 235.205242 
L 123.220821 235.205242 
L 123.220821 88.220114 
L 120.177185 88.220114 
z
" clip-path="url(#p34cf15fe37)" style="fill: #0000ff"/>
   </g>
   <g id="patch_27">
    <path d="M 123.220821 235.205242 
L 126.264458 235.205242 
L 126.264458 88.220114 
L 123.220821 88.220114 
z
" clip-path="url(#p34cf15fe37)" style="fill: #0000ff"/>
   </g>
   <g id="patch_28">
    <path d="M 126.264458 235.205242 
L 129.308094 235.205242 
L 129.308094 84.953778 
L 126.264458 84.953778 
z
" clip-path="url(#p34cf15fe37)" style="fill: #0000ff"/>
   </g>
   <g id="patch_29">
    <path d="M 129.308094 235.205242 
L 132.35173 235.205242 
L 132.35173 82.014075 
L 129.308094 82.014075 
z
" clip-path="url(#p34cf15fe37)" style="fill: #0000ff"/>
   </g>
   <g id="patch_30">
    <path d="M 132.35173 235.205242 
L 135.395367 235.205242 
L 135.395367 93.446252 
L 132.35173 93.446252 
z
" clip-path="url(#p34cf15fe37)" style="fill: #0000ff"/>
   </g>
   <g id="patch_31">
    <path d="M 135.395367 235.205242 
L 138.439003 235.205242 
L 138.439003 86.586946 
L 135.395367 86.586946 
z
" clip-path="url(#p34cf15fe37)" style="fill: #0000ff"/>
   </g>
   <g id="patch_32">
    <path d="M 138.439003 235.205242 
L 141.482639 235.205242 
L 141.482639 79.401006 
L 138.439003 79.401006 
z
" clip-path="url(#p34cf15fe37)" style="fill: #0000ff"/>
   </g>
   <g id="patch_33">
    <path d="M 141.482639 235.205242 
L 144.526276 235.205242 
L 144.526276 75.154769 
L 141.482639 75.154769 
z
" clip-path="url(#p34cf15fe37)" style="fill: #0000ff"/>
   </g>
   <g id="patch_34">
    <path d="M 144.526276 235.205242 
L 147.569912 235.205242 
L 147.569912 62.742691 
L 144.526276 62.742691 
z
" clip-path="url(#p34cf15fe37)" style="fill: #0000ff"/>
   </g>
   <g id="patch_35">
    <path d="M 147.569912 235.205242 
L 150.613548 235.205242 
L 150.613548 68.622097 
L 147.569912 68.622097 
z
" clip-path="url(#p34cf15fe37)" style="fill: #0000ff"/>
   </g>
   <g id="patch_36">
    <path d="M 150.613548 235.205242 
L 153.657185 235.205242 
L 153.657185 71.888433 
L 150.613548 71.888433 
z
" clip-path="url(#p34cf15fe37)" style="fill: #0000ff"/>
   </g>
   <g id="patch_37">
    <path d="M 153.657185 235.205242 
L 156.700821 235.205242 
L 156.700821 78.094472 
L 153.657185 78.094472 
z
" clip-path="url(#p34cf15fe37)" style="fill: #0000ff"/>
   </g>
   <g id="patch_38">
    <path d="M 156.700821 235.205242 
L 159.744458 235.205242 
L 159.744458 71.235166 
L 156.700821 71.235166 
z
" clip-path="url(#p34cf15fe37)" style="fill: #0000ff"/>
   </g>
   <g id="patch_39">
    <path d="M 159.744458 235.205242 
L 162.788094 235.205242 
L 162.788094 72.868334 
L 159.744458 72.868334 
z
" clip-path="url(#p34cf15fe37)" style="fill: #0000ff"/>
   </g>
   <g id="patch_40">
    <path d="M 162.788094 235.205242 
L 165.83173 235.205242 
L 165.83173 66.988929 
L 162.788094 66.988929 
z
" clip-path="url(#p34cf15fe37)" style="fill: #0000ff"/>
   </g>
   <g id="patch_41">
    <path d="M 165.83173 235.205242 
L 168.875367 235.205242 
L 168.875367 59.802989 
L 165.83173 59.802989 
z
" clip-path="url(#p34cf15fe37)" style="fill: #0000ff"/>
   </g>
   <g id="patch_42">
    <path d="M 168.875367 235.205242 
L 171.919003 235.205242 
L 171.919003 66.335661 
L 168.875367 66.335661 
z
" clip-path="url(#p34cf15fe37)" style="fill: #0000ff"/>
   </g>
   <g id="patch_43">
    <path d="M 171.919003 235.205242 
L 174.962639 235.205242 
L 174.962639 67.968829 
L 171.919003 67.968829 
z
" clip-path="url(#p34cf15fe37)" style="fill: #0000ff"/>
   </g>
   <g id="patch_44">
    <path d="M 174.962639 235.205242 
L 178.006276 235.205242 
L 178.006276 66.662295 
L 174.962639 66.662295 
z
" clip-path="url(#p34cf15fe37)" style="fill: #0000ff"/>
   </g>
   <g id="patch_45">
    <path d="M 178.006276 235.205242 
L 181.049912 235.205242 
L 181.049912 50.330614 
L 178.006276 50.330614 
z
" clip-path="url(#p34cf15fe37)" style="fill: #0000ff"/>
   </g>
   <g id="patch_46">
    <path d="M 181.049912 235.205242 
L 184.093548 235.205242 
L 184.093548 59.476355 
L 181.049912 59.476355 
z
" clip-path="url(#p34cf15fe37)" style="fill: #0000ff"/>
   </g>
   <g id="patch_47">
    <path d="M 184.093548 235.205242 
L 187.137185 235.205242 
L 187.137185 55.230118 
L 184.093548 55.230118 
z
" clip-path="url(#p34cf15fe37)" style="fill: #0000ff"/>
   </g>
   <g id="patch_48">
    <path d="M 187.137185 235.205242 
L 190.180821 235.205242 
L 190.180821 56.210019 
L 187.137185 56.210019 
z
" clip-path="url(#p34cf15fe37)" style="fill: #0000ff"/>
   </g>
   <g id="patch_49">
    <path d="M 190.180821 235.205242 
L 193.224458 235.205242 
L 193.224458 68.295463 
L 190.180821 68.295463 
z
" clip-path="url(#p34cf15fe37)" style="fill: #0000ff"/>
   </g>
   <g id="patch_50">
    <path d="M 193.224458 235.205242 
L 196.268094 235.205242 
L 196.268094 50.983881 
L 193.224458 50.983881 
z
" clip-path="url(#p34cf15fe37)" style="fill: #0000ff"/>
   </g>
   <g id="patch_51">
    <path d="M 196.268094 235.205242 
L 199.31173 235.205242 
L 199.31173 54.903485 
L 196.268094 54.903485 
z
" clip-path="url(#p34cf15fe37)" style="fill: #0000ff"/>
   </g>
   <g id="patch_52">
    <path d="M 199.31173 235.205242 
L 202.355367 235.205242 
L 202.355367 41.83814 
L 199.31173 41.83814 
z
" clip-path="url(#p34cf15fe37)" style="fill: #0000ff"/>
   </g>
   <g id="patch_53">
    <path d="M 202.355367 235.205242 
L 205.399003 235.205242 
L 205.399003 70.908532 
L 202.355367 70.908532 
z
" clip-path="url(#p34cf15fe37)" style="fill: #0000ff"/>
   </g>
   <g id="patch_54">
    <path d="M 205.399003 235.205242 
L 208.442639 235.205242 
L 208.442639 64.049226 
L 205.399003 64.049226 
z
" clip-path="url(#p34cf15fe37)" style="fill: #0000ff"/>
   </g>
   <g id="patch_55">
    <path d="M 208.442639 235.205242 
L 211.486276 235.205242 
L 211.486276 41.511506 
L 208.442639 41.511506 
z
" clip-path="url(#p34cf15fe37)" style="fill: #0000ff"/>
   </g>
   <g id="patch_56">
    <path d="M 211.486276 235.205242 
L 214.529912 235.205242 
L 214.529912 58.169821 
L 211.486276 58.169821 
z
" clip-path="url(#p34cf15fe37)" style="fill: #0000ff"/>
   </g>
   <g id="patch_57">
    <path d="M 214.529912 235.205242 
L 217.573548 235.205242 
L 217.573548 45.104476 
L 214.529912 45.104476 
z
" clip-path="url(#p34cf15fe37)" style="fill: #0000ff"/>
   </g>
   <g id="patch_58">
    <path d="M 217.573548 235.205242 
L 220.617185 235.205242 
L 220.617185 38.24517 
L 217.573548 38.24517 
z
" clip-path="url(#p34cf15fe37)" style="fill: #0000ff"/>
   </g>
   <g id="patch_59">
    <path d="M 220.617185 235.205242 
L 223.660821 235.205242 
L 223.660821 54.576851 
L 220.617185 54.576851 
z
" clip-path="url(#p34cf15fe37)" style="fill: #0000ff"/>
   </g>
   <g id="patch_60">
    <path d="M 223.660821 235.205242 
L 226.704458 235.205242 
L 226.704458 33.019032 
L 223.660821 33.019032 
z
" clip-path="url(#p34cf15fe37)" style="fill: #0000ff"/>
   </g>
   <g id="patch_61">
    <path d="M 226.704458 235.205242 
L 229.748094 235.205242 
L 229.748094 50.330614 
L 226.704458 50.330614 
z
" clip-path="url(#p34cf15fe37)" style="fill: #0000ff"/>
   </g>
   <g id="patch_62">
    <path d="M 229.748094 235.205242 
L 232.79173 235.205242 
L 232.79173 47.390911 
L 229.748094 47.390911 
z
" clip-path="url(#p34cf15fe37)" style="fill: #0000ff"/>
   </g>
   <g id="patch_63">
    <path d="M 232.79173 235.205242 
L 235.835367 235.205242 
L 235.835367 39.878338 
L 232.79173 39.878338 
z
" clip-path="url(#p34cf15fe37)" style="fill: #0000ff"/>
   </g>
   <g id="patch_64">
    <path d="M 235.835367 235.205242 
L 238.879003 235.205242 
L 238.879003 58.169821 
L 235.835367 58.169821 
z
" clip-path="url(#p34cf15fe37)" style="fill: #0000ff"/>
   </g>
   <g id="patch_65">
    <path d="M 238.879003 235.205242 
L 241.922639 235.205242 
L 241.922639 51.637148 
L 238.879003 51.637148 
z
" clip-path="url(#p34cf15fe37)" style="fill: #0000ff"/>
   </g>
   <g id="patch_66">
    <path d="M 241.922639 235.205242 
L 244.966276 235.205242 
L 244.966276 48.370812 
L 241.922639 48.370812 
z
" clip-path="url(#p34cf15fe37)" style="fill: #0000ff"/>
   </g>
   <g id="patch_67">
    <path d="M 244.966276 235.205242 
L 248.009912 235.205242 
L 248.009912 47.390911 
L 244.966276 47.390911 
z
" clip-path="url(#p34cf15fe37)" style="fill: #0000ff"/>
   </g>
   <g id="patch_68">
    <path d="M 248.009912 235.205242 
L 251.053548 235.205242 
L 251.053548 69.928631 
L 248.009912 69.928631 
z
" clip-path="url(#p34cf15fe37)" style="fill: #0000ff"/>
   </g>
   <g id="patch_69">
    <path d="M 251.053548 235.205242 
L 254.097185 235.205242 
L 254.097185 38.24517 
L 251.053548 38.24517 
z
" clip-path="url(#p34cf15fe37)" style="fill: #0000ff"/>
   </g>
   <g id="patch_70">
    <path d="M 254.097185 235.205242 
L 257.140821 235.205242 
L 257.140821 55.556752 
L 254.097185 55.556752 
z
" clip-path="url(#p34cf15fe37)" style="fill: #0000ff"/>
   </g>
   <g id="patch_71">
    <path d="M 257.140821 235.205242 
L 260.184458 235.205242 
L 260.184458 48.697446 
L 257.140821 48.697446 
z
" clip-path="url(#p34cf15fe37)" style="fill: #0000ff"/>
   </g>
   <g id="patch_72">
    <path d="M 260.184458 235.205242 
L 263.228094 235.205242 
L 263.228094 55.230118 
L 260.184458 55.230118 
z
" clip-path="url(#p34cf15fe37)" style="fill: #0000ff"/>
   </g>
   <g id="patch_73">
    <path d="M 263.228094 235.205242 
L 266.27173 235.205242 
L 266.27173 46.084377 
L 263.228094 46.084377 
z
" clip-path="url(#p34cf15fe37)" style="fill: #0000ff"/>
   </g>
   <g id="patch_74">
    <path d="M 266.27173 235.205242 
L 269.315367 235.205242 
L 269.315367 36.285368 
L 266.27173 36.285368 
z
" clip-path="url(#p34cf15fe37)" style="fill: #0000ff"/>
   </g>
   <g id="patch_75">
    <path d="M 269.315367 235.205242 
L 272.359003 235.205242 
L 272.359003 45.757743 
L 269.315367 45.757743 
z
" clip-path="url(#p34cf15fe37)" style="fill: #0000ff"/>
   </g>
   <g id="patch_76">
    <path d="M 272.359003 235.205242 
L 275.402639 235.205242 
L 275.402639 43.471308 
L 272.359003 43.471308 
z
" clip-path="url(#p34cf15fe37)" style="fill: #0000ff"/>
   </g>
   <g id="patch_77">
    <path d="M 275.402639 235.205242 
L 278.446276 235.205242 
L 278.446276 61.109523 
L 275.402639 61.109523 
z
" clip-path="url(#p34cf15fe37)" style="fill: #0000ff"/>
   </g>
   <g id="patch_78">
    <path d="M 278.446276 235.205242 
L 281.489912 235.205242 
L 281.489912 33.019032 
L 278.446276 33.019032 
z
" clip-path="url(#p34cf15fe37)" style="fill: #0000ff"/>
   </g>
   <g id="patch_79">
    <path d="M 281.489912 235.205242 
L 284.533548 235.205242 
L 284.533548 28.119528 
L 281.489912 28.119528 
z
" clip-path="url(#p34cf15fe37)" style="fill: #0000ff"/>
   </g>
   <g id="patch_80">
    <path d="M 284.533548 235.205242 
L 287.577185 235.205242 
L 287.577185 62.416058 
L 284.533548 62.416058 
z
" clip-path="url(#p34cf15fe37)" style="fill: #0000ff"/>
   </g>
   <g id="patch_81">
    <path d="M 287.577185 235.205242 
L 290.620821 235.205242 
L 290.620821 43.144674 
L 287.577185 43.144674 
z
" clip-path="url(#p34cf15fe37)" style="fill: #0000ff"/>
   </g>
   <g id="patch_82">
    <path d="M 290.620821 235.205242 
L 293.664458 235.205242 
L 293.664458 28.446161 
L 290.620821 28.446161 
z
" clip-path="url(#p34cf15fe37)" style="fill: #0000ff"/>
   </g>
   <g id="patch_83">
    <path d="M 293.664458 235.205242 
L 296.708094 235.205242 
L 296.708094 51.963782 
L 293.664458 51.963782 
z
" clip-path="url(#p34cf15fe37)" style="fill: #0000ff"/>
   </g>
   <g id="patch_84">
    <path d="M 296.708094 235.205242 
L 299.75173 235.205242 
L 299.75173 40.858239 
L 296.708094 40.858239 
z
" clip-path="url(#p34cf15fe37)" style="fill: #0000ff"/>
   </g>
   <g id="patch_85">
    <path d="M 299.75173 235.205242 
L 302.795367 235.205242 
L 302.795367 39.878338 
L 299.75173 39.878338 
z
" clip-path="url(#p34cf15fe37)" style="fill: #0000ff"/>
   </g>
   <g id="patch_86">
    <path d="M 302.795367 235.205242 
L 305.839003 235.205242 
L 305.839003 40.858239 
L 302.795367 40.858239 
z
" clip-path="url(#p34cf15fe37)" style="fill: #0000ff"/>
   </g>
   <g id="patch_87">
    <path d="M 305.839003 235.205242 
L 308.882639 235.205242 
L 308.882639 45.104476 
L 305.839003 45.104476 
z
" clip-path="url(#p34cf15fe37)" style="fill: #0000ff"/>
   </g>
   <g id="patch_88">
    <path d="M 308.882639 235.205242 
L 311.926276 235.205242 
L 311.926276 41.83814 
L 308.882639 41.83814 
z
" clip-path="url(#p34cf15fe37)" style="fill: #0000ff"/>
   </g>
   <g id="patch_89">
    <path d="M 311.926276 235.205242 
L 314.969912 235.205242 
L 314.969912 46.737644 
L 311.926276 46.737644 
z
" clip-path="url(#p34cf15fe37)" style="fill: #0000ff"/>
   </g>
   <g id="patch_90">
    <path d="M 314.969912 235.205242 
L 318.013548 235.205242 
L 318.013548 52.943683 
L 314.969912 52.943683 
z
" clip-path="url(#p34cf15fe37)" style="fill: #0000ff"/>
   </g>
   <g id="patch_91">
    <path d="M 318.013548 235.205242 
L 321.057185 235.205242 
L 321.057185 54.576851 
L 318.013548 54.576851 
z
" clip-path="url(#p34cf15fe37)" style="fill: #0000ff"/>
   </g>
   <g id="patch_92">
    <path d="M 321.057185 235.205242 
L 324.100821 235.205242 
L 324.100821 41.511506 
L 321.057185 41.511506 
z
" clip-path="url(#p34cf15fe37)" style="fill: #0000ff"/>
   </g>
   <g id="patch_93">
    <path d="M 324.100821 235.205242 
L 327.144458 235.205242 
L 327.144458 43.144674 
L 324.100821 43.144674 
z
" clip-path="url(#p34cf15fe37)" style="fill: #0000ff"/>
   </g>
   <g id="patch_94">
    <path d="M 327.144458 235.205242 
L 330.188094 235.205242 
L 330.188094 55.230118 
L 327.144458 55.230118 
z
" clip-path="url(#p34cf15fe37)" style="fill: #0000ff"/>
   </g>
   <g id="patch_95">
    <path d="M 330.188094 235.205242 
L 333.23173 235.205242 
L 333.23173 31.712498 
L 330.188094 31.712498 
z
" clip-path="url(#p34cf15fe37)" style="fill: #0000ff"/>
   </g>
   <g id="patch_96">
    <path d="M 333.23173 235.205242 
L 336.275367 235.205242 
L 336.275367 48.370812 
L 333.23173 48.370812 
z
" clip-path="url(#p34cf15fe37)" style="fill: #0000ff"/>
   </g>
   <g id="patch_97">
    <path d="M 336.275367 235.205242 
L 339.319003 235.205242 
L 339.319003 42.164773 
L 336.275367 42.164773 
z
" clip-path="url(#p34cf15fe37)" style="fill: #0000ff"/>
   </g>
   <g id="patch_98">
    <path d="M 339.319003 235.205242 
L 342.362639 235.205242 
L 342.362639 37.265269 
L 339.319003 37.265269 
z
" clip-path="url(#p34cf15fe37)" style="fill: #0000ff"/>
   </g>
   <g id="patch_99">
    <path d="M 342.362639 235.205242 
L 345.406276 235.205242 
L 345.406276 46.737644 
L 342.362639 46.737644 
z
" clip-path="url(#p34cf15fe37)" style="fill: #0000ff"/>
   </g>
   <g id="patch_100">
    <path d="M 345.406276 235.205242 
L 348.449912 235.205242 
L 348.449912 36.938636 
L 345.406276 36.938636 
z
" clip-path="url(#p34cf15fe37)" style="fill: #0000ff"/>
   </g>
   <g id="patch_101">
    <path d="M 348.449912 235.205242 
L 351.493548 235.205242 
L 351.493548 28.772795 
L 348.449912 28.772795 
z
" clip-path="url(#p34cf15fe37)" style="fill: #0000ff"/>
   </g>
   <g id="patch_102">
    <path d="M 351.493548 235.205242 
L 354.537185 235.205242 
L 354.537185 54.576851 
L 351.493548 54.576851 
z
" clip-path="url(#p34cf15fe37)" style="fill: #0000ff"/>
   </g>
   <g id="matplotlib.axis_1">
    <g id="xtick_1">
     <g id="line2d_1">
      <defs>
       <path id="mb8580cfa19" d="M 0 0 
L 0 -3 
" style="stroke: #000000; stroke-width: 0.5"/>
      </defs>
      <g>
       <use xlink:href="#mb8580cfa19" x="47.081631" y="235.205242" style="stroke: #000000; stroke-width: 0.5"/>
      </g>
     </g>
     <g id="line2d_2">
      <defs>
       <path id="ma7f1514059" d="M 0 0 
L 0 3 
" style="stroke: #000000; stroke-width: 0.5"/>
      </defs>
      <g>
       <use xlink:href="#ma7f1514059" x="47.081631" y="17.765242" style="stroke: #000000; stroke-width: 0.5"/>
      </g>
     </g>
     <g id="text_1">
      <!-- $\mathdefault{0}$ -->
      <g transform="translate(44.590971 245.45982)scale(0.1 -0.1)">
       <defs>
        <path id="NimbusRomNo9L-Regu-30" d="M 1626 4352 
C 1274 4352 1005 4244 768 4020 
C 397 3661 154 2925 154 2176 
C 154 1479 365 730 666 372 
C 902 90 1229 -64 1600 -64 
C 1926 -64 2202 45 2432 269 
C 2803 621 3046 1364 3046 2138 
C 3046 3450 2464 4352 1626 4352 
z
M 1606 4186 
C 2144 4186 2432 3463 2432 2125 
C 2432 788 2150 103 1600 103 
C 1050 103 768 788 768 2119 
C 768 3476 1056 4186 1606 4186 
z
" transform="scale(0.015625)"/>
       </defs>
       <use xlink:href="#NimbusRomNo9L-Regu-30" transform="scale(0.996264)"/>
      </g>
     </g>
    </g>
    <g id="xtick_2">
     <g id="line2d_3">
      <g>
       <use xlink:href="#mb8580cfa19" x="108.572894" y="235.205242" style="stroke: #000000; stroke-width: 0.5"/>
      </g>
     </g>
     <g id="line2d_4">
      <g>
       <use xlink:href="#ma7f1514059" x="108.572894" y="17.765242" style="stroke: #000000; stroke-width: 0.5"/>
      </g>
     </g>
     <g id="text_2">
      <!-- $\mathdefault{1000}$ -->
      <g transform="translate(98.610254 245.45982)scale(0.1 -0.1)">
       <defs>
        <path id="NimbusRomNo9L-Regu-31" d="M 1862 4339 
L 710 3757 
L 710 3667 
C 787 3699 858 3725 883 3738 
C 998 3783 1107 3808 1171 3808 
C 1306 3808 1363 3711 1363 3505 
L 1363 592 
C 1363 379 1312 232 1210 173 
C 1114 116 1024 96 755 96 
L 755 0 
L 2522 0 
L 2522 96 
C 2016 96 1914 160 1914 470 
L 1914 4327 
L 1862 4339 
z
" transform="scale(0.015625)"/>
       </defs>
       <use xlink:href="#NimbusRomNo9L-Regu-31" transform="scale(0.996264)"/>
       <use xlink:href="#NimbusRomNo9L-Regu-30" transform="translate(49.8132 0)scale(0.996264)"/>
       <use xlink:href="#NimbusRomNo9L-Regu-30" transform="translate(99.626401 0)scale(0.996264)"/>
       <use xlink:href="#NimbusRomNo9L-Regu-30" transform="translate(149.439601 0)scale(0.996264)"/>
      </g>
     </g>
    </g>
    <g id="xtick_3">
     <g id="line2d_5">
      <g>
       <use xlink:href="#mb8580cfa19" x="170.064157" y="235.205242" style="stroke: #000000; stroke-width: 0.5"/>
      </g>
     </g>
     <g id="line2d_6">
      <g>
       <use xlink:href="#ma7f1514059" x="170.064157" y="17.765242" style="stroke: #000000; stroke-width: 0.5"/>
      </g>
     </g>
     <g id="text_3">
      <!-- $\mathdefault{2000}$ -->
      <g transform="translate(160.101517 245.45982)scale(0.1 -0.1)">
       <defs>
        <path id="NimbusRomNo9L-Regu-32" d="M 3040 875 
L 2957 907 
C 2720 544 2637 486 2349 486 
L 819 486 
L 1894 1609 
C 2464 2202 2714 2687 2714 3185 
C 2714 3823 2195 4313 1530 4313 
C 1178 4313 845 4173 608 3918 
C 403 3700 307 3496 198 3043 
L 333 3011 
C 589 3636 819 3840 1261 3840 
C 1798 3840 2163 3476 2163 2940 
C 2163 2443 1869 1850 1331 1282 
L 192 77 
L 192 0 
L 2688 0 
L 3040 875 
z
" transform="scale(0.015625)"/>
       </defs>
       <use xlink:href="#NimbusRomNo9L-Regu-32" transform="scale(0.996264)"/>
       <use xlink:href="#NimbusRomNo9L-Regu-30" transform="translate(49.8132 0)scale(0.996264)"/>
       <use xlink:href="#NimbusRomNo9L-Regu-30" transform="translate(99.626401 0)scale(0.996264)"/>
       <use xlink:href="#NimbusRomNo9L-Regu-30" transform="translate(149.439601 0)scale(0.996264)"/>
      </g>
     </g>
    </g>
    <g id="xtick_4">
     <g id="line2d_7">
      <g>
       <use xlink:href="#mb8580cfa19" x="231.555421" y="235.205242" style="stroke: #000000; stroke-width: 0.5"/>
      </g>
     </g>
     <g id="line2d_8">
      <g>
       <use xlink:href="#ma7f1514059" x="231.555421" y="17.765242" style="stroke: #000000; stroke-width: 0.5"/>
      </g>
     </g>
     <g id="text_4">
      <!-- $\mathdefault{3000}$ -->
      <g transform="translate(221.59278 245.45982)scale(0.1 -0.1)">
       <defs>
        <path id="NimbusRomNo9L-Regu-33" d="M 979 2138 
C 1357 2138 1504 2125 1658 2068 
C 2054 1927 2304 1562 2304 1120 
C 2304 583 1939 167 1466 167 
C 1293 167 1165 212 928 365 
C 736 480 627 525 518 525 
C 371 525 275 436 275 301 
C 275 77 550 -64 998 -64 
C 1491 -64 1997 103 2298 365 
C 2598 628 2765 999 2765 1428 
C 2765 1754 2662 2055 2477 2253 
C 2349 2394 2227 2471 1946 2592 
C 2387 2893 2547 3130 2547 3476 
C 2547 3994 2138 4352 1549 4352 
C 1229 4352 947 4244 717 4039 
C 525 3866 429 3699 288 3315 
L 384 3290 
C 646 3757 934 3968 1338 3968 
C 1754 3968 2042 3687 2042 3284 
C 2042 3053 1946 2823 1786 2663 
C 1594 2471 1414 2375 979 2221 
L 979 2138 
z
" transform="scale(0.015625)"/>
       </defs>
       <use xlink:href="#NimbusRomNo9L-Regu-33" transform="scale(0.996264)"/>
       <use xlink:href="#NimbusRomNo9L-Regu-30" transform="translate(49.8132 0)scale(0.996264)"/>
       <use xlink:href="#NimbusRomNo9L-Regu-30" transform="translate(99.626401 0)scale(0.996264)"/>
       <use xlink:href="#NimbusRomNo9L-Regu-30" transform="translate(149.439601 0)scale(0.996264)"/>
      </g>
     </g>
    </g>
    <g id="xtick_5">
     <g id="line2d_9">
      <g>
       <use xlink:href="#mb8580cfa19" x="293.046684" y="235.205242" style="stroke: #000000; stroke-width: 0.5"/>
      </g>
     </g>
     <g id="line2d_10">
      <g>
       <use xlink:href="#ma7f1514059" x="293.046684" y="17.765242" style="stroke: #000000; stroke-width: 0.5"/>
      </g>
     </g>
     <g id="text_5">
      <!-- $\mathdefault{4000}$ -->
      <g transform="translate(283.084044 245.45982)scale(0.1 -0.1)">
       <defs>
        <path id="NimbusRomNo9L-Regu-34" d="M 3021 1497 
L 2368 1497 
L 2368 4352 
L 2086 4352 
L 77 1497 
L 77 1088 
L 1875 1088 
L 1875 32 
L 2368 32 
L 2368 1088 
L 3021 1088 
L 3021 1497 
z
M 1869 1497 
L 333 1497 
L 1869 3698 
L 1869 1497 
z
" transform="scale(0.015625)"/>
       </defs>
       <use xlink:href="#NimbusRomNo9L-Regu-34" transform="scale(0.996264)"/>
       <use xlink:href="#NimbusRomNo9L-Regu-30" transform="translate(49.8132 0)scale(0.996264)"/>
       <use xlink:href="#NimbusRomNo9L-Regu-30" transform="translate(99.626401 0)scale(0.996264)"/>
       <use xlink:href="#NimbusRomNo9L-Regu-30" transform="translate(149.439601 0)scale(0.996264)"/>
      </g>
     </g>
    </g>
    <g id="xtick_6">
     <g id="line2d_11">
      <g>
       <use xlink:href="#mb8580cfa19" x="354.537947" y="235.205242" style="stroke: #000000; stroke-width: 0.5"/>
      </g>
     </g>
     <g id="line2d_12">
      <g>
       <use xlink:href="#ma7f1514059" x="354.537947" y="17.765242" style="stroke: #000000; stroke-width: 0.5"/>
      </g>
     </g>
     <g id="text_6">
      <!-- $\mathdefault{5000}$ -->
      <g transform="translate(344.575307 245.45982)scale(0.1 -0.1)">
       <defs>
        <path id="NimbusRomNo9L-Regu-35" d="M 1158 3776 
L 2413 3776 
C 2515 3776 2541 3789 2560 3834 
L 2803 4403 
L 2746 4448 
C 2650 4314 2586 4282 2451 4282 
L 1114 4282 
L 416 2759 
C 410 2746 410 2740 410 2727 
C 410 2695 435 2676 486 2676 
C 691 2676 947 2631 1210 2547 
C 1946 2309 2285 1910 2285 1274 
C 2285 656 1894 173 1395 173 
C 1267 173 1158 218 966 360 
C 762 508 614 572 480 572 
C 294 572 205 495 205 334 
C 205 90 506 -64 986 -64 
C 1523 -64 1984 110 2304 438 
C 2598 728 2733 1094 2733 1583 
C 2733 2046 2611 2342 2291 2663 
C 2010 2947 1645 3094 890 3229 
L 1158 3776 
z
" transform="scale(0.015625)"/>
       </defs>
       <use xlink:href="#NimbusRomNo9L-Regu-35" transform="scale(0.996264)"/>
       <use xlink:href="#NimbusRomNo9L-Regu-30" transform="translate(49.8132 0)scale(0.996264)"/>
       <use xlink:href="#NimbusRomNo9L-Regu-30" transform="translate(99.626401 0)scale(0.996264)"/>
       <use xlink:href="#NimbusRomNo9L-Regu-30" transform="translate(149.439601 0)scale(0.996264)"/>
      </g>
     </g>
    </g>
    <g id="xtick_7">
     <g id="line2d_13">
      <defs>
       <path id="m64c79901e9" d="M 0 0 
L 0 -1.5 
" style="stroke: #000000; stroke-width: 0.5"/>
      </defs>
      <g>
       <use xlink:href="#m64c79901e9" x="59.379884" y="235.205242" style="stroke: #000000; stroke-width: 0.5"/>
      </g>
     </g>
     <g id="line2d_14">
      <defs>
       <path id="m451fb3805a" d="M 0 0 
L 0 1.5 
" style="stroke: #000000; stroke-width: 0.5"/>
      </defs>
      <g>
       <use xlink:href="#m451fb3805a" x="59.379884" y="17.765242" style="stroke: #000000; stroke-width: 0.5"/>
      </g>
     </g>
    </g>
    <g id="xtick_8">
     <g id="line2d_15">
      <g>
       <use xlink:href="#m64c79901e9" x="71.678137" y="235.205242" style="stroke: #000000; stroke-width: 0.5"/>
      </g>
     </g>
     <g id="line2d_16">
      <g>
       <use xlink:href="#m451fb3805a" x="71.678137" y="17.765242" style="stroke: #000000; stroke-width: 0.5"/>
      </g>
     </g>
    </g>
    <g id="xtick_9">
     <g id="line2d_17">
      <g>
       <use xlink:href="#m64c79901e9" x="83.976389" y="235.205242" style="stroke: #000000; stroke-width: 0.5"/>
      </g>
     </g>
     <g id="line2d_18">
      <g>
       <use xlink:href="#m451fb3805a" x="83.976389" y="17.765242" style="stroke: #000000; stroke-width: 0.5"/>
      </g>
     </g>
    </g>
    <g id="xtick_10">
     <g id="line2d_19">
      <g>
       <use xlink:href="#m64c79901e9" x="96.274642" y="235.205242" style="stroke: #000000; stroke-width: 0.5"/>
      </g>
     </g>
     <g id="line2d_20">
      <g>
       <use xlink:href="#m451fb3805a" x="96.274642" y="17.765242" style="stroke: #000000; stroke-width: 0.5"/>
      </g>
     </g>
    </g>
    <g id="xtick_11">
     <g id="line2d_21">
      <g>
       <use xlink:href="#m64c79901e9" x="120.871147" y="235.205242" style="stroke: #000000; stroke-width: 0.5"/>
      </g>
     </g>
     <g id="line2d_22">
      <g>
       <use xlink:href="#m451fb3805a" x="120.871147" y="17.765242" style="stroke: #000000; stroke-width: 0.5"/>
      </g>
     </g>
    </g>
    <g id="xtick_12">
     <g id="line2d_23">
      <g>
       <use xlink:href="#m64c79901e9" x="133.1694" y="235.205242" style="stroke: #000000; stroke-width: 0.5"/>
      </g>
     </g>
     <g id="line2d_24">
      <g>
       <use xlink:href="#m451fb3805a" x="133.1694" y="17.765242" style="stroke: #000000; stroke-width: 0.5"/>
      </g>
     </g>
    </g>
    <g id="xtick_13">
     <g id="line2d_25">
      <g>
       <use xlink:href="#m64c79901e9" x="145.467652" y="235.205242" style="stroke: #000000; stroke-width: 0.5"/>
      </g>
     </g>
     <g id="line2d_26">
      <g>
       <use xlink:href="#m451fb3805a" x="145.467652" y="17.765242" style="stroke: #000000; stroke-width: 0.5"/>
      </g>
     </g>
    </g>
    <g id="xtick_14">
     <g id="line2d_27">
      <g>
       <use xlink:href="#m64c79901e9" x="157.765905" y="235.205242" style="stroke: #000000; stroke-width: 0.5"/>
      </g>
     </g>
     <g id="line2d_28">
      <g>
       <use xlink:href="#m451fb3805a" x="157.765905" y="17.765242" style="stroke: #000000; stroke-width: 0.5"/>
      </g>
     </g>
    </g>
    <g id="xtick_15">
     <g id="line2d_29">
      <g>
       <use xlink:href="#m64c79901e9" x="182.36241" y="235.205242" style="stroke: #000000; stroke-width: 0.5"/>
      </g>
     </g>
     <g id="line2d_30">
      <g>
       <use xlink:href="#m451fb3805a" x="182.36241" y="17.765242" style="stroke: #000000; stroke-width: 0.5"/>
      </g>
     </g>
    </g>
    <g id="xtick_16">
     <g id="line2d_31">
      <g>
       <use xlink:href="#m64c79901e9" x="194.660663" y="235.205242" style="stroke: #000000; stroke-width: 0.5"/>
      </g>
     </g>
     <g id="line2d_32">
      <g>
       <use xlink:href="#m451fb3805a" x="194.660663" y="17.765242" style="stroke: #000000; stroke-width: 0.5"/>
      </g>
     </g>
    </g>
    <g id="xtick_17">
     <g id="line2d_33">
      <g>
       <use xlink:href="#m64c79901e9" x="206.958915" y="235.205242" style="stroke: #000000; stroke-width: 0.5"/>
      </g>
     </g>
     <g id="line2d_34">
      <g>
       <use xlink:href="#m451fb3805a" x="206.958915" y="17.765242" style="stroke: #000000; stroke-width: 0.5"/>
      </g>
     </g>
    </g>
    <g id="xtick_18">
     <g id="line2d_35">
      <g>
       <use xlink:href="#m64c79901e9" x="219.257168" y="235.205242" style="stroke: #000000; stroke-width: 0.5"/>
      </g>
     </g>
     <g id="line2d_36">
      <g>
       <use xlink:href="#m451fb3805a" x="219.257168" y="17.765242" style="stroke: #000000; stroke-width: 0.5"/>
      </g>
     </g>
    </g>
    <g id="xtick_19">
     <g id="line2d_37">
      <g>
       <use xlink:href="#m64c79901e9" x="243.853673" y="235.205242" style="stroke: #000000; stroke-width: 0.5"/>
      </g>
     </g>
     <g id="line2d_38">
      <g>
       <use xlink:href="#m451fb3805a" x="243.853673" y="17.765242" style="stroke: #000000; stroke-width: 0.5"/>
      </g>
     </g>
    </g>
    <g id="xtick_20">
     <g id="line2d_39">
      <g>
       <use xlink:href="#m64c79901e9" x="256.151926" y="235.205242" style="stroke: #000000; stroke-width: 0.5"/>
      </g>
     </g>
     <g id="line2d_40">
      <g>
       <use xlink:href="#m451fb3805a" x="256.151926" y="17.765242" style="stroke: #000000; stroke-width: 0.5"/>
      </g>
     </g>
    </g>
    <g id="xtick_21">
     <g id="line2d_41">
      <g>
       <use xlink:href="#m64c79901e9" x="268.450178" y="235.205242" style="stroke: #000000; stroke-width: 0.5"/>
      </g>
     </g>
     <g id="line2d_42">
      <g>
       <use xlink:href="#m451fb3805a" x="268.450178" y="17.765242" style="stroke: #000000; stroke-width: 0.5"/>
      </g>
     </g>
    </g>
    <g id="xtick_22">
     <g id="line2d_43">
      <g>
       <use xlink:href="#m64c79901e9" x="280.748431" y="235.205242" style="stroke: #000000; stroke-width: 0.5"/>
      </g>
     </g>
     <g id="line2d_44">
      <g>
       <use xlink:href="#m451fb3805a" x="280.748431" y="17.765242" style="stroke: #000000; stroke-width: 0.5"/>
      </g>
     </g>
    </g>
    <g id="xtick_23">
     <g id="line2d_45">
      <g>
       <use xlink:href="#m64c79901e9" x="305.344936" y="235.205242" style="stroke: #000000; stroke-width: 0.5"/>
      </g>
     </g>
     <g id="line2d_46">
      <g>
       <use xlink:href="#m451fb3805a" x="305.344936" y="17.765242" style="stroke: #000000; stroke-width: 0.5"/>
      </g>
     </g>
    </g>
    <g id="xtick_24">
     <g id="line2d_47">
      <g>
       <use xlink:href="#m64c79901e9" x="317.643189" y="235.205242" style="stroke: #000000; stroke-width: 0.5"/>
      </g>
     </g>
     <g id="line2d_48">
      <g>
       <use xlink:href="#m451fb3805a" x="317.643189" y="17.765242" style="stroke: #000000; stroke-width: 0.5"/>
      </g>
     </g>
    </g>
    <g id="xtick_25">
     <g id="line2d_49">
      <g>
       <use xlink:href="#m64c79901e9" x="329.941442" y="235.205242" style="stroke: #000000; stroke-width: 0.5"/>
      </g>
     </g>
     <g id="line2d_50">
      <g>
       <use xlink:href="#m451fb3805a" x="329.941442" y="17.765242" style="stroke: #000000; stroke-width: 0.5"/>
      </g>
     </g>
    </g>
    <g id="xtick_26">
     <g id="line2d_51">
      <g>
       <use xlink:href="#m64c79901e9" x="342.239694" y="235.205242" style="stroke: #000000; stroke-width: 0.5"/>
      </g>
     </g>
     <g id="line2d_52">
      <g>
       <use xlink:href="#m451fb3805a" x="342.239694" y="17.765242" style="stroke: #000000; stroke-width: 0.5"/>
      </g>
     </g>
    </g>
    <g id="xtick_27">
     <g id="line2d_53">
      <g>
       <use xlink:href="#m64c79901e9" x="366.836199" y="235.205242" style="stroke: #000000; stroke-width: 0.5"/>
      </g>
     </g>
     <g id="line2d_54">
      <g>
       <use xlink:href="#m451fb3805a" x="366.836199" y="17.765242" style="stroke: #000000; stroke-width: 0.5"/>
      </g>
     </g>
    </g>
    <g id="text_7">
     <!-- Masse (GeV) -->
     <g transform="translate(175.660794 258.371226)scale(0.1 -0.1)">
      <defs>
       <path id="NimbusRomNo9L-Regu-4d" d="M 4314 3667 
L 4314 751 
C 4314 217 4237 134 3731 134 
L 3731 0 
L 5523 0 
L 5523 134 
C 5056 134 4966 223 4966 681 
L 4966 3536 
C 4966 3993 5050 4077 5523 4115 
L 5523 4237 
L 4250 4237 
L 2835 1004 
L 1357 4237 
L 90 4237 
L 90 4096 
C 614 4096 698 4019 698 3550 
L 698 943 
C 698 282 608 159 77 121 
L 77 0 
L 1581 0 
L 1581 134 
C 1088 134 979 282 979 931 
L 979 3520 
L 2586 0 
L 2675 0 
L 4314 3667 
z
" transform="scale(0.015625)"/>
       <path id="NimbusRomNo9L-Regu-61" d="M 2829 423 
C 2720 333 2643 301 2547 301 
C 2400 301 2355 390 2355 672 
L 2355 1920 
C 2355 2253 2323 2438 2227 2592 
C 2086 2822 1811 2944 1434 2944 
C 832 2944 358 2630 358 2227 
C 358 2080 486 1952 634 1952 
C 787 1952 922 2080 922 2221 
C 922 2246 915 2278 909 2323 
C 896 2381 890 2432 890 2477 
C 890 2650 1094 2790 1350 2790 
C 1664 2790 1837 2605 1837 2259 
L 1837 1869 
C 851 1472 742 1421 467 1178 
C 326 1050 237 832 237 621 
C 237 218 518 -64 909 -64 
C 1190 -64 1453 70 1843 403 
C 1875 70 1990 -64 2253 -64 
C 2470 -64 2605 13 2829 256 
L 2829 423 
z
M 1837 783 
C 1837 584 1805 526 1670 449 
C 1517 359 1338 301 1203 301 
C 979 301 800 520 800 796 
L 800 822 
C 800 1201 1062 1433 1837 1715 
L 1837 783 
z
" transform="scale(0.015625)"/>
       <path id="NimbusRomNo9L-Regu-73" d="M 2016 2010 
L 1990 2880 
L 1920 2880 
L 1907 2867 
C 1850 2822 1843 2816 1818 2816 
C 1779 2816 1715 2829 1645 2861 
C 1504 2915 1363 2944 1197 2944 
C 691 2944 326 2616 326 2154 
C 326 1796 531 1539 1075 1231 
L 1446 1020 
C 1670 892 1779 737 1779 539 
C 1779 256 1574 77 1248 77 
C 1030 77 832 159 710 298 
C 576 455 518 600 435 960 
L 333 960 
L 333 -39 
L 416 -39 
C 461 33 486 48 563 48 
C 621 48 710 35 858 -2 
C 1037 -39 1210 -64 1325 -64 
C 1818 -64 2227 308 2227 757 
C 2227 1077 2074 1289 1690 1520 
L 998 1930 
C 819 2033 723 2194 723 2367 
C 723 2624 922 2803 1216 2803 
C 1581 2803 1773 2583 1920 2010 
L 2016 2010 
z
" transform="scale(0.015625)"/>
       <path id="NimbusRomNo9L-Regu-65" d="M 2611 1053 
C 2304 564 2029 378 1619 378 
C 1254 378 979 564 794 930 
C 678 1174 634 1386 621 1779 
L 2592 1779 
C 2541 2193 2477 2377 2317 2581 
C 2125 2811 1830 2944 1498 2944 
C 1178 2944 877 2829 634 2611 
C 333 2349 160 1894 160 1370 
C 160 486 621 -64 1357 -64 
C 1965 -64 2445 315 2714 1008 
L 2611 1053 
z
M 634 1984 
C 704 2479 922 2714 1312 2714 
C 1702 2714 1856 2535 1939 1984 
L 634 1984 
z
" transform="scale(0.015625)"/>
       <path id="NimbusRomNo9L-Regu-28" d="M 1888 4326 
C 1414 4019 1222 3853 986 3558 
C 531 3002 307 2362 307 1613 
C 307 800 544 173 1107 -480 
C 1370 -787 1536 -928 1869 -1133 
L 1946 -1030 
C 1434 -627 1254 -403 1082 77 
C 928 506 858 992 858 1632 
C 858 2304 941 2829 1114 3226 
C 1293 3622 1485 3853 1946 4224 
L 1888 4326 
z
" transform="scale(0.015625)"/>
       <path id="NimbusRomNo9L-Regu-47" d="M 4538 2304 
L 2906 2304 
L 2906 2176 
C 3181 2176 3258 2157 3334 2105 
C 3430 2047 3469 1898 3469 1621 
L 3469 574 
C 3469 367 3078 192 2618 192 
C 1574 192 934 922 934 2112 
C 934 2714 1114 3296 1395 3610 
C 1677 3924 2074 4096 2509 4096 
C 2867 4096 3181 3975 3430 3744 
C 3622 3565 3725 3392 3885 3002 
L 4032 3002 
L 3981 4352 
L 3840 4352 
C 3802 4231 3686 4141 3552 4141 
C 3488 4141 3386 4160 3270 4205 
C 2982 4301 2688 4352 2400 4352 
C 1120 4352 205 3412 205 2106 
C 205 1479 378 999 736 621 
C 1165 180 1779 -64 2483 -64 
C 3034 -64 3834 160 4090 385 
L 4090 1694 
C 4090 2073 4166 2157 4538 2189 
L 4538 2304 
z
" transform="scale(0.015625)"/>
       <path id="NimbusRomNo9L-Regu-56" d="M 4461 4231 
L 3149 4231 
L 3149 4096 
C 3501 4096 3616 4026 3616 3846 
C 3616 3744 3571 3572 3494 3380 
L 2554 1033 
L 1587 3199 
C 1376 3667 1325 3814 1325 3910 
C 1325 4032 1414 4096 1619 4096 
C 1645 4096 1715 4096 1805 4109 
L 1805 4231 
L 102 4231 
L 102 4096 
C 416 4096 506 4007 781 3439 
L 2355 -64 
L 2451 -64 
L 3872 3521 
C 4083 4026 4154 4096 4461 4096 
L 4461 4231 
z
" transform="scale(0.015625)"/>
       <path id="NimbusRomNo9L-Regu-29" d="M 243 -1133 
C 717 -826 909 -659 1146 -365 
C 1600 192 1824 832 1824 1581 
C 1824 2400 1587 3021 1024 3674 
C 762 3981 595 4122 262 4326 
L 186 4224 
C 698 3821 870 3597 1050 3117 
C 1203 2688 1274 2202 1274 1562 
C 1274 896 1190 365 1018 -26 
C 838 -429 646 -659 186 -1030 
L 243 -1133 
z
" transform="scale(0.015625)"/>
      </defs>
      <use xlink:href="#NimbusRomNo9L-Regu-4d" transform="scale(0.996264)"/>
      <use xlink:href="#NimbusRomNo9L-Regu-61" transform="translate(88.566907 0)scale(0.996264)"/>
      <use xlink:href="#NimbusRomNo9L-Regu-73" transform="translate(132.800475 0)scale(0.996264)"/>
      <use xlink:href="#NimbusRomNo9L-Regu-73" transform="translate(171.554182 0)scale(0.996264)"/>
      <use xlink:href="#NimbusRomNo9L-Regu-65" transform="translate(210.307888 0)scale(0.996264)"/>
      <use xlink:href="#NimbusRomNo9L-Regu-28" transform="translate(279.448057 0)scale(0.996264)"/>
      <use xlink:href="#NimbusRomNo9L-Regu-47" transform="translate(312.623286 0)scale(0.996264)"/>
      <use xlink:href="#NimbusRomNo9L-Regu-65" transform="translate(384.553271 0)scale(0.996264)"/>
      <use xlink:href="#NimbusRomNo9L-Regu-56" transform="translate(428.78684 0)scale(0.996264)"/>
      <use xlink:href="#NimbusRomNo9L-Regu-29" transform="translate(500.716825 0)scale(0.996264)"/>
     </g>
    </g>
   </g>
   <g id="matplotlib.axis_2">
    <g id="ytick_1">
     <g id="line2d_55">
      <defs>
       <path id="mc92266de95" d="M 0 0 
L 3 0 
" style="stroke: #000000; stroke-width: 0.5"/>
      </defs>
      <g>
       <use xlink:href="#mc92266de95" x="34.955367" y="235.205242" style="stroke: #000000; stroke-width: 0.5"/>
      </g>
     </g>
     <g id="line2d_56">
      <defs>
       <path id="m2a98fc47d9" d="M 0 0 
L -3 0 
" style="stroke: #000000; stroke-width: 0.5"/>
      </defs>
      <g>
       <use xlink:href="#m2a98fc47d9" x="369.755367" y="235.205242" style="stroke: #000000; stroke-width: 0.5"/>
      </g>
     </g>
     <g id="text_8">
      <!-- $\mathdefault{0}$ -->
      <g transform="translate(26.474047 238.582531)scale(0.1 -0.1)">
       <use xlink:href="#NimbusRomNo9L-Regu-30" transform="scale(0.996264)"/>
      </g>
     </g>
    </g>
    <g id="ytick_2">
     <g id="line2d_57">
      <g>
       <use xlink:href="#mc92266de95" x="34.955367" y="202.54188" style="stroke: #000000; stroke-width: 0.5"/>
      </g>
     </g>
     <g id="line2d_58">
      <g>
       <use xlink:href="#m2a98fc47d9" x="369.755367" y="202.54188" style="stroke: #000000; stroke-width: 0.5"/>
      </g>
     </g>
     <g id="text_9">
      <!-- $\mathdefault{100}$ -->
      <g transform="translate(16.511406 205.919169)scale(0.1 -0.1)">
       <use xlink:href="#NimbusRomNo9L-Regu-31" transform="scale(0.996264)"/>
       <use xlink:href="#NimbusRomNo9L-Regu-30" transform="translate(49.8132 0)scale(0.996264)"/>
       <use xlink:href="#NimbusRomNo9L-Regu-30" transform="translate(99.626401 0)scale(0.996264)"/>
      </g>
     </g>
    </g>
    <g id="ytick_3">
     <g id="line2d_59">
      <g>
       <use xlink:href="#mc92266de95" x="34.955367" y="169.878518" style="stroke: #000000; stroke-width: 0.5"/>
      </g>
     </g>
     <g id="line2d_60">
      <g>
       <use xlink:href="#m2a98fc47d9" x="369.755367" y="169.878518" style="stroke: #000000; stroke-width: 0.5"/>
      </g>
     </g>
     <g id="text_10">
      <!-- $\mathdefault{200}$ -->
      <g transform="translate(16.511406 173.255807)scale(0.1 -0.1)">
       <use xlink:href="#NimbusRomNo9L-Regu-32" transform="scale(0.996264)"/>
       <use xlink:href="#NimbusRomNo9L-Regu-30" transform="translate(49.8132 0)scale(0.996264)"/>
       <use xlink:href="#NimbusRomNo9L-Regu-30" transform="translate(99.626401 0)scale(0.996264)"/>
      </g>
     </g>
    </g>
    <g id="ytick_4">
     <g id="line2d_61">
      <g>
       <use xlink:href="#mc92266de95" x="34.955367" y="137.215157" style="stroke: #000000; stroke-width: 0.5"/>
      </g>
     </g>
     <g id="line2d_62">
      <g>
       <use xlink:href="#m2a98fc47d9" x="369.755367" y="137.215157" style="stroke: #000000; stroke-width: 0.5"/>
      </g>
     </g>
     <g id="text_11">
      <!-- $\mathdefault{300}$ -->
      <g transform="translate(16.511406 140.592445)scale(0.1 -0.1)">
       <use xlink:href="#NimbusRomNo9L-Regu-33" transform="scale(0.996264)"/>
       <use xlink:href="#NimbusRomNo9L-Regu-30" transform="translate(49.8132 0)scale(0.996264)"/>
       <use xlink:href="#NimbusRomNo9L-Regu-30" transform="translate(99.626401 0)scale(0.996264)"/>
      </g>
     </g>
    </g>
    <g id="ytick_5">
     <g id="line2d_63">
      <g>
       <use xlink:href="#mc92266de95" x="34.955367" y="104.551795" style="stroke: #000000; stroke-width: 0.5"/>
      </g>
     </g>
     <g id="line2d_64">
      <g>
       <use xlink:href="#m2a98fc47d9" x="369.755367" y="104.551795" style="stroke: #000000; stroke-width: 0.5"/>
      </g>
     </g>
     <g id="text_12">
      <!-- $\mathdefault{400}$ -->
      <g transform="translate(16.511406 107.929083)scale(0.1 -0.1)">
       <use xlink:href="#NimbusRomNo9L-Regu-34" transform="scale(0.996264)"/>
       <use xlink:href="#NimbusRomNo9L-Regu-30" transform="translate(49.8132 0)scale(0.996264)"/>
       <use xlink:href="#NimbusRomNo9L-Regu-30" transform="translate(99.626401 0)scale(0.996264)"/>
      </g>
     </g>
    </g>
    <g id="ytick_6">
     <g id="line2d_65">
      <g>
       <use xlink:href="#mc92266de95" x="34.955367" y="71.888433" style="stroke: #000000; stroke-width: 0.5"/>
      </g>
     </g>
     <g id="line2d_66">
      <g>
       <use xlink:href="#m2a98fc47d9" x="369.755367" y="71.888433" style="stroke: #000000; stroke-width: 0.5"/>
      </g>
     </g>
     <g id="text_13">
      <!-- $\mathdefault{500}$ -->
      <g transform="translate(16.511406 75.265722)scale(0.1 -0.1)">
       <use xlink:href="#NimbusRomNo9L-Regu-35" transform="scale(0.996264)"/>
       <use xlink:href="#NimbusRomNo9L-Regu-30" transform="translate(49.8132 0)scale(0.996264)"/>
       <use xlink:href="#NimbusRomNo9L-Regu-30" transform="translate(99.626401 0)scale(0.996264)"/>
      </g>
     </g>
    </g>
    <g id="ytick_7">
     <g id="line2d_67">
      <g>
       <use xlink:href="#mc92266de95" x="34.955367" y="39.225071" style="stroke: #000000; stroke-width: 0.5"/>
      </g>
     </g>
     <g id="line2d_68">
      <g>
       <use xlink:href="#m2a98fc47d9" x="369.755367" y="39.225071" style="stroke: #000000; stroke-width: 0.5"/>
      </g>
     </g>
     <g id="text_14">
      <!-- $\mathdefault{600}$ -->
      <g transform="translate(16.511406 42.60236)scale(0.1 -0.1)">
       <defs>
        <path id="NimbusRomNo9L-Regu-36" d="M 2854 4391 
C 2125 4327 1754 4205 1286 3879 
C 595 3386 218 2656 218 1802 
C 218 1248 390 688 666 370 
C 909 89 1254 -64 1651 -64 
C 2445 -64 2995 541 2995 1421 
C 2995 2236 2528 2752 1792 2752 
C 1510 2752 1376 2707 973 2464 
C 1146 3431 1862 4122 2867 4288 
L 2854 4391 
z
M 1549 2458 
C 2099 2458 2419 2000 2419 1204 
C 2419 504 2170 116 1722 116 
C 1158 116 813 714 813 1700 
C 813 2025 864 2203 992 2299 
C 1126 2400 1325 2458 1549 2458 
z
" transform="scale(0.015625)"/>
       </defs>
       <use xlink:href="#NimbusRomNo9L-Regu-36" transform="scale(0.996264)"/>
       <use xlink:href="#NimbusRomNo9L-Regu-30" transform="translate(49.8132 0)scale(0.996264)"/>
       <use xlink:href="#NimbusRomNo9L-Regu-30" transform="translate(99.626401 0)scale(0.996264)"/>
      </g>
     </g>
    </g>
    <g id="ytick_8">
     <g id="line2d_69">
      <defs>
       <path id="m4b1b37f824" d="M 0 0 
L 1.5 0 
" style="stroke: #000000; stroke-width: 0.5"/>
      </defs>
      <g>
       <use xlink:href="#m4b1b37f824" x="34.955367" y="228.67257" style="stroke: #000000; stroke-width: 0.5"/>
      </g>
     </g>
     <g id="line2d_70">
      <defs>
       <path id="m62afba0086" d="M 0 0 
L -1.5 0 
" style="stroke: #000000; stroke-width: 0.5"/>
      </defs>
      <g>
       <use xlink:href="#m62afba0086" x="369.755367" y="228.67257" style="stroke: #000000; stroke-width: 0.5"/>
      </g>
     </g>
    </g>
    <g id="ytick_9">
     <g id="line2d_71">
      <g>
       <use xlink:href="#m4b1b37f824" x="34.955367" y="222.139897" style="stroke: #000000; stroke-width: 0.5"/>
      </g>
     </g>
     <g id="line2d_72">
      <g>
       <use xlink:href="#m62afba0086" x="369.755367" y="222.139897" style="stroke: #000000; stroke-width: 0.5"/>
      </g>
     </g>
    </g>
    <g id="ytick_10">
     <g id="line2d_73">
      <g>
       <use xlink:href="#m4b1b37f824" x="34.955367" y="215.607225" style="stroke: #000000; stroke-width: 0.5"/>
      </g>
     </g>
     <g id="line2d_74">
      <g>
       <use xlink:href="#m62afba0086" x="369.755367" y="215.607225" style="stroke: #000000; stroke-width: 0.5"/>
      </g>
     </g>
    </g>
    <g id="ytick_11">
     <g id="line2d_75">
      <g>
       <use xlink:href="#m4b1b37f824" x="34.955367" y="209.074553" style="stroke: #000000; stroke-width: 0.5"/>
      </g>
     </g>
     <g id="line2d_76">
      <g>
       <use xlink:href="#m62afba0086" x="369.755367" y="209.074553" style="stroke: #000000; stroke-width: 0.5"/>
      </g>
     </g>
    </g>
    <g id="ytick_12">
     <g id="line2d_77">
      <g>
       <use xlink:href="#m4b1b37f824" x="34.955367" y="196.009208" style="stroke: #000000; stroke-width: 0.5"/>
      </g>
     </g>
     <g id="line2d_78">
      <g>
       <use xlink:href="#m62afba0086" x="369.755367" y="196.009208" style="stroke: #000000; stroke-width: 0.5"/>
      </g>
     </g>
    </g>
    <g id="ytick_13">
     <g id="line2d_79">
      <g>
       <use xlink:href="#m4b1b37f824" x="34.955367" y="189.476536" style="stroke: #000000; stroke-width: 0.5"/>
      </g>
     </g>
     <g id="line2d_80">
      <g>
       <use xlink:href="#m62afba0086" x="369.755367" y="189.476536" style="stroke: #000000; stroke-width: 0.5"/>
      </g>
     </g>
    </g>
    <g id="ytick_14">
     <g id="line2d_81">
      <g>
       <use xlink:href="#m4b1b37f824" x="34.955367" y="182.943863" style="stroke: #000000; stroke-width: 0.5"/>
      </g>
     </g>
     <g id="line2d_82">
      <g>
       <use xlink:href="#m62afba0086" x="369.755367" y="182.943863" style="stroke: #000000; stroke-width: 0.5"/>
      </g>
     </g>
    </g>
    <g id="ytick_15">
     <g id="line2d_83">
      <g>
       <use xlink:href="#m4b1b37f824" x="34.955367" y="176.411191" style="stroke: #000000; stroke-width: 0.5"/>
      </g>
     </g>
     <g id="line2d_84">
      <g>
       <use xlink:href="#m62afba0086" x="369.755367" y="176.411191" style="stroke: #000000; stroke-width: 0.5"/>
      </g>
     </g>
    </g>
    <g id="ytick_16">
     <g id="line2d_85">
      <g>
       <use xlink:href="#m4b1b37f824" x="34.955367" y="163.345846" style="stroke: #000000; stroke-width: 0.5"/>
      </g>
     </g>
     <g id="line2d_86">
      <g>
       <use xlink:href="#m62afba0086" x="369.755367" y="163.345846" style="stroke: #000000; stroke-width: 0.5"/>
      </g>
     </g>
    </g>
    <g id="ytick_17">
     <g id="line2d_87">
      <g>
       <use xlink:href="#m4b1b37f824" x="34.955367" y="156.813174" style="stroke: #000000; stroke-width: 0.5"/>
      </g>
     </g>
     <g id="line2d_88">
      <g>
       <use xlink:href="#m62afba0086" x="369.755367" y="156.813174" style="stroke: #000000; stroke-width: 0.5"/>
      </g>
     </g>
    </g>
    <g id="ytick_18">
     <g id="line2d_89">
      <g>
       <use xlink:href="#m4b1b37f824" x="34.955367" y="150.280501" style="stroke: #000000; stroke-width: 0.5"/>
      </g>
     </g>
     <g id="line2d_90">
      <g>
       <use xlink:href="#m62afba0086" x="369.755367" y="150.280501" style="stroke: #000000; stroke-width: 0.5"/>
      </g>
     </g>
    </g>
    <g id="ytick_19">
     <g id="line2d_91">
      <g>
       <use xlink:href="#m4b1b37f824" x="34.955367" y="143.747829" style="stroke: #000000; stroke-width: 0.5"/>
      </g>
     </g>
     <g id="line2d_92">
      <g>
       <use xlink:href="#m62afba0086" x="369.755367" y="143.747829" style="stroke: #000000; stroke-width: 0.5"/>
      </g>
     </g>
    </g>
    <g id="ytick_20">
     <g id="line2d_93">
      <g>
       <use xlink:href="#m4b1b37f824" x="34.955367" y="130.682484" style="stroke: #000000; stroke-width: 0.5"/>
      </g>
     </g>
     <g id="line2d_94">
      <g>
       <use xlink:href="#m62afba0086" x="369.755367" y="130.682484" style="stroke: #000000; stroke-width: 0.5"/>
      </g>
     </g>
    </g>
    <g id="ytick_21">
     <g id="line2d_95">
      <g>
       <use xlink:href="#m4b1b37f824" x="34.955367" y="124.149812" style="stroke: #000000; stroke-width: 0.5"/>
      </g>
     </g>
     <g id="line2d_96">
      <g>
       <use xlink:href="#m62afba0086" x="369.755367" y="124.149812" style="stroke: #000000; stroke-width: 0.5"/>
      </g>
     </g>
    </g>
    <g id="ytick_22">
     <g id="line2d_97">
      <g>
       <use xlink:href="#m4b1b37f824" x="34.955367" y="117.617139" style="stroke: #000000; stroke-width: 0.5"/>
      </g>
     </g>
     <g id="line2d_98">
      <g>
       <use xlink:href="#m62afba0086" x="369.755367" y="117.617139" style="stroke: #000000; stroke-width: 0.5"/>
      </g>
     </g>
    </g>
    <g id="ytick_23">
     <g id="line2d_99">
      <g>
       <use xlink:href="#m4b1b37f824" x="34.955367" y="111.084467" style="stroke: #000000; stroke-width: 0.5"/>
      </g>
     </g>
     <g id="line2d_100">
      <g>
       <use xlink:href="#m62afba0086" x="369.755367" y="111.084467" style="stroke: #000000; stroke-width: 0.5"/>
      </g>
     </g>
    </g>
    <g id="ytick_24">
     <g id="line2d_101">
      <g>
       <use xlink:href="#m4b1b37f824" x="34.955367" y="98.019122" style="stroke: #000000; stroke-width: 0.5"/>
      </g>
     </g>
     <g id="line2d_102">
      <g>
       <use xlink:href="#m62afba0086" x="369.755367" y="98.019122" style="stroke: #000000; stroke-width: 0.5"/>
      </g>
     </g>
    </g>
    <g id="ytick_25">
     <g id="line2d_103">
      <g>
       <use xlink:href="#m4b1b37f824" x="34.955367" y="91.48645" style="stroke: #000000; stroke-width: 0.5"/>
      </g>
     </g>
     <g id="line2d_104">
      <g>
       <use xlink:href="#m62afba0086" x="369.755367" y="91.48645" style="stroke: #000000; stroke-width: 0.5"/>
      </g>
     </g>
    </g>
    <g id="ytick_26">
     <g id="line2d_105">
      <g>
       <use xlink:href="#m4b1b37f824" x="34.955367" y="84.953778" style="stroke: #000000; stroke-width: 0.5"/>
      </g>
     </g>
     <g id="line2d_106">
      <g>
       <use xlink:href="#m62afba0086" x="369.755367" y="84.953778" style="stroke: #000000; stroke-width: 0.5"/>
      </g>
     </g>
    </g>
    <g id="ytick_27">
     <g id="line2d_107">
      <g>
       <use xlink:href="#m4b1b37f824" x="34.955367" y="78.421105" style="stroke: #000000; stroke-width: 0.5"/>
      </g>
     </g>
     <g id="line2d_108">
      <g>
       <use xlink:href="#m62afba0086" x="369.755367" y="78.421105" style="stroke: #000000; stroke-width: 0.5"/>
      </g>
     </g>
    </g>
    <g id="ytick_28">
     <g id="line2d_109">
      <g>
       <use xlink:href="#m4b1b37f824" x="34.955367" y="65.35576" style="stroke: #000000; stroke-width: 0.5"/>
      </g>
     </g>
     <g id="line2d_110">
      <g>
       <use xlink:href="#m62afba0086" x="369.755367" y="65.35576" style="stroke: #000000; stroke-width: 0.5"/>
      </g>
     </g>
    </g>
    <g id="ytick_29">
     <g id="line2d_111">
      <g>
       <use xlink:href="#m4b1b37f824" x="34.955367" y="58.823088" style="stroke: #000000; stroke-width: 0.5"/>
      </g>
     </g>
     <g id="line2d_112">
      <g>
       <use xlink:href="#m62afba0086" x="369.755367" y="58.823088" style="stroke: #000000; stroke-width: 0.5"/>
      </g>
     </g>
    </g>
    <g id="ytick_30">
     <g id="line2d_113">
      <g>
       <use xlink:href="#m4b1b37f824" x="34.955367" y="52.290416" style="stroke: #000000; stroke-width: 0.5"/>
      </g>
     </g>
     <g id="line2d_114">
      <g>
       <use xlink:href="#m62afba0086" x="369.755367" y="52.290416" style="stroke: #000000; stroke-width: 0.5"/>
      </g>
     </g>
    </g>
    <g id="ytick_31">
     <g id="line2d_115">
      <g>
       <use xlink:href="#m4b1b37f824" x="34.955367" y="45.757743" style="stroke: #000000; stroke-width: 0.5"/>
      </g>
     </g>
     <g id="line2d_116">
      <g>
       <use xlink:href="#m62afba0086" x="369.755367" y="45.757743" style="stroke: #000000; stroke-width: 0.5"/>
      </g>
     </g>
    </g>
    <g id="ytick_32">
     <g id="line2d_117">
      <g>
       <use xlink:href="#m4b1b37f824" x="34.955367" y="32.692399" style="stroke: #000000; stroke-width: 0.5"/>
      </g>
     </g>
     <g id="line2d_118">
      <g>
       <use xlink:href="#m62afba0086" x="369.755367" y="32.692399" style="stroke: #000000; stroke-width: 0.5"/>
      </g>
     </g>
    </g>
    <g id="ytick_33">
     <g id="line2d_119">
      <g>
       <use xlink:href="#m4b1b37f824" x="34.955367" y="26.159726" style="stroke: #000000; stroke-width: 0.5"/>
      </g>
     </g>
     <g id="line2d_120">
      <g>
       <use xlink:href="#m62afba0086" x="369.755367" y="26.159726" style="stroke: #000000; stroke-width: 0.5"/>
      </g>
     </g>
    </g>
    <g id="ytick_34">
     <g id="line2d_121">
      <g>
       <use xlink:href="#m4b1b37f824" x="34.955367" y="19.627054" style="stroke: #000000; stroke-width: 0.5"/>
      </g>
     </g>
     <g id="line2d_122">
      <g>
       <use xlink:href="#m62afba0086" x="369.755367" y="19.627054" style="stroke: #000000; stroke-width: 0.5"/>
      </g>
     </g>
    </g>
    <g id="text_15">
     <!-- N -->
     <g transform="translate(10.354578 130.081741)rotate(-90)scale(0.1 -0.1)">
      <defs>
       <path id="NimbusRomNo9L-Regu-4e" d="M 3917 -64 
L 3917 3287 
C 3917 3669 3981 3905 4102 3987 
C 4192 4051 4282 4077 4525 4102 
L 4525 4224 
L 3021 4224 
L 3021 4102 
C 3264 4083 3354 4057 3450 4000 
C 3578 3911 3635 3681 3635 3286 
L 3635 1136 
L 1171 4224 
L 77 4224 
L 77 4102 
C 352 4102 442 4051 698 3751 
L 698 938 
C 698 281 608 159 77 121 
L 77 0 
L 1581 0 
L 1581 134 
C 1088 134 979 281 979 928 
L 979 3439 
L 3808 -64 
L 3917 -64 
z
" transform="scale(0.015625)"/>
      </defs>
      <use xlink:href="#NimbusRomNo9L-Regu-4e" transform="scale(0.996264)"/>
     </g>
    </g>
   </g>
   <g id="patch_103">
    <path d="M 34.955367 235.205242 
L 34.955367 17.765242 
" style="fill: none; stroke: #000000; stroke-width: 0.5; stroke-linejoin: miter; stroke-linecap: square"/>
   </g>
   <g id="patch_104">
    <path d="M 369.755367 235.205242 
L 369.755367 17.765242 
" style="fill: none; stroke: #000000; stroke-width: 0.5; stroke-linejoin: miter; stroke-linecap: square"/>
   </g>
   <g id="patch_105">
    <path d="M 34.955367 235.205242 
L 369.755367 235.205242 
" style="fill: none; stroke: #000000; stroke-width: 0.5; stroke-linejoin: miter; stroke-linecap: square"/>
   </g>
   <g id="patch_106">
    <path d="M 34.955367 17.765242 
L 369.755367 17.765242 
" style="fill: none; stroke: #000000; stroke-width: 0.5; stroke-linejoin: miter; stroke-linecap: square"/>
   </g>
   <g id="text_16">
    <!-- Histogramme du paramtre $M_A$ -->
    <g transform="translate(127.885909 11.765242)scale(0.12 -0.12)">
     <defs>
      <path id="NimbusRomNo9L-Regu-48" d="M 1338 2304 
L 1338 3533 
C 1338 3990 1408 4059 1901 4104 
L 1901 4224 
L 122 4224 
L 122 4104 
C 614 4059 685 3989 685 3527 
L 685 749 
C 685 210 621 134 122 134 
L 122 0 
L 1901 0 
L 1901 121 
C 1421 159 1338 242 1338 699 
L 1338 2022 
L 3277 2022 
L 3277 757 
C 3277 211 3213 134 2714 134 
L 2714 0 
L 4493 0 
L 4493 121 
C 4013 159 3930 242 3930 696 
L 3930 3529 
C 3930 3989 4000 4059 4493 4104 
L 4493 4224 
L 2714 4224 
L 2714 4104 
C 3206 4059 3277 3990 3277 3533 
L 3277 2304 
L 1338 2304 
z
" transform="scale(0.015625)"/>
      <path id="NimbusRomNo9L-Regu-69" d="M 1120 2929 
L 128 2579 
L 128 2484 
L 179 2490 
C 256 2502 339 2509 397 2509 
C 550 2509 608 2406 608 2125 
L 608 640 
C 608 179 544 109 102 109 
L 102 0 
L 1619 0 
L 1619 96 
C 1197 128 1146 191 1146 650 
L 1146 2910 
L 1120 2929 
z
M 819 4352 
C 646 4352 499 4205 499 4026 
C 499 3847 640 3699 819 3699 
C 1005 3699 1152 3840 1152 4026 
C 1152 4205 1005 4352 819 4352 
z
" transform="scale(0.015625)"/>
      <path id="NimbusRomNo9L-Regu-74" d="M 1632 2880 
L 986 2880 
L 986 3622 
C 986 3686 979 3706 941 3706 
C 896 3648 858 3590 813 3526 
C 570 3174 294 2867 192 2841 
C 122 2794 83 2748 83 2715 
C 83 2695 90 2682 109 2682 
L 448 2682 
L 448 751 
C 448 212 640 -64 1018 -64 
C 1331 -64 1574 90 1786 423 
L 1702 493 
C 1568 333 1459 269 1318 269 
C 1082 269 986 443 986 847 
L 986 2682 
L 1632 2682 
L 1632 2880 
z
" transform="scale(0.015625)"/>
      <path id="NimbusRomNo9L-Regu-6f" d="M 1600 2944 
C 768 2944 186 2330 186 1446 
C 186 582 781 -64 1587 -64 
C 2394 -64 3008 614 3008 1498 
C 3008 2336 2419 2944 1600 2944 
z
M 1517 2765 
C 2054 2765 2432 2150 2432 1274 
C 2432 550 2144 115 1664 115 
C 1414 115 1178 269 1043 525 
C 864 858 762 1306 762 1760 
C 762 2368 1062 2765 1517 2765 
z
" transform="scale(0.015625)"/>
      <path id="NimbusRomNo9L-Regu-67" d="M 3008 2496 
L 3008 2746 
L 2515 2746 
C 2387 2746 2291 2763 2163 2802 
L 2022 2847 
C 1850 2903 1677 2931 1510 2931 
C 915 2931 442 2467 442 1881 
C 442 1476 614 1230 1037 1018 
C 915 906 800 799 762 768 
C 550 588 467 463 467 338 
C 467 206 544 131 806 6 
C 352 -329 179 -543 179 -781 
C 179 -1124 678 -1408 1286 -1408 
C 1766 -1408 2266 -1238 2598 -962 
C 2842 -759 2950 -548 2950 -299 
C 2950 108 2650 384 2176 384 
L 1350 384 
C 1011 384 851 443 851 548 
C 851 678 1062 908 1235 960 
C 1293 953 1338 947 1357 947 
C 1478 934 1562 928 1600 928 
C 1837 928 2093 1026 2291 1203 
C 2502 1387 2598 1617 2598 1945 
C 2598 2135 2566 2286 2477 2496 
L 3008 2496 
z
M 941 -13 
C 1152 -58 1664 -96 1978 -96 
C 2560 -96 2771 -180 2771 -414 
C 2771 -791 2285 -1043 1562 -1043 
C 998 -1043 627 -855 627 -570 
C 627 -420 672 -336 941 -13 
z
M 973 2145 
C 973 2526 1152 2752 1446 2752 
C 1645 2752 1811 2642 1914 2449 
C 2029 2223 2106 1927 2106 1675 
C 2106 1314 1920 1088 1626 1088 
C 1242 1088 973 1507 973 2126 
L 973 2145 
z
" transform="scale(0.015625)"/>
      <path id="NimbusRomNo9L-Regu-72" d="M 45 2496 
C 134 2515 192 2522 269 2522 
C 429 2522 486 2419 486 2138 
L 486 538 
C 486 218 442 173 32 96 
L 32 0 
L 1568 0 
L 1568 102 
C 1133 102 1024 199 1024 565 
L 1024 2013 
C 1024 2219 1299 2541 1472 2541 
C 1510 2541 1568 2509 1638 2445 
C 1741 2355 1811 2317 1894 2317 
C 2048 2317 2144 2426 2144 2605 
C 2144 2816 2010 2944 1792 2944 
C 1523 2944 1338 2797 1024 2343 
L 1024 2931 
L 992 2944 
C 653 2803 422 2721 45 2599 
L 45 2496 
z
" transform="scale(0.015625)"/>
      <path id="NimbusRomNo9L-Regu-6d" d="M 122 2547 
C 205 2566 256 2573 326 2573 
C 493 2573 550 2470 550 2162 
L 550 539 
C 550 192 461 96 102 96 
L 102 0 
L 1523 0 
L 1523 96 
C 1184 96 1088 166 1088 418 
L 1088 2234 
C 1088 2246 1139 2310 1184 2355 
C 1344 2502 1619 2611 1843 2611 
C 2125 2611 2266 2385 2266 1932 
L 2266 528 
C 2266 167 2195 96 1830 96 
L 1830 0 
L 3264 0 
L 3264 96 
C 2899 96 2803 205 2803 603 
L 2803 2221 
C 2995 2496 3206 2611 3501 2611 
C 3866 2611 3981 2438 3981 1907 
L 3981 557 
C 3981 192 3930 141 3558 96 
L 3558 0 
L 4960 0 
L 4960 96 
L 4794 115 
C 4602 115 4518 230 4518 480 
L 4518 1802 
C 4518 2559 4269 2944 3776 2944 
C 3405 2944 3078 2778 2733 2407 
C 2618 2771 2400 2944 2054 2944 
C 1773 2944 1594 2854 1062 2451 
L 1062 2931 
L 1018 2944 
C 691 2822 474 2752 122 2656 
L 122 2547 
z
" transform="scale(0.015625)"/>
      <path id="NimbusRomNo9L-Regu-64" d="M 2202 -64 
L 3142 269 
L 3142 365 
C 3027 365 3014 365 2995 365 
C 2765 365 2714 435 2714 731 
L 2714 4364 
L 2682 4377 
C 2374 4268 2150 4204 1741 4096 
L 1741 3994 
C 1792 4000 1830 4000 1882 4000 
C 2118 4000 2176 3936 2176 3672 
L 2176 2669 
C 1933 2874 1760 2944 1504 2944 
C 768 2944 173 2221 173 1312 
C 173 493 653 -64 1357 -64 
C 1715 -64 1958 64 2176 365 
L 2176 -45 
L 2202 -64 
z
M 2176 653 
C 2176 608 2131 531 2067 461 
C 1952 333 1792 269 1606 269 
C 1075 269 723 781 723 1568 
C 723 2291 1037 2765 1523 2765 
C 1862 2765 2176 2464 2176 2125 
L 2176 653 
z
" transform="scale(0.015625)"/>
      <path id="NimbusRomNo9L-Regu-75" d="M 3066 320 
L 3034 320 
C 2739 320 2669 390 2669 685 
L 2669 2880 
L 1658 2880 
L 1658 2758 
C 2054 2758 2131 2694 2131 2375 
L 2131 875 
C 2131 697 2099 607 2010 537 
C 1837 397 1638 320 1446 320 
C 1197 320 992 537 992 805 
L 992 2880 
L 58 2880 
L 58 2778 
C 365 2778 454 2682 454 2387 
L 454 770 
C 454 263 762 -64 1229 -64 
C 1466 -64 1715 38 1888 211 
L 2163 486 
L 2163 -45 
L 2189 -58 
C 2509 70 2739 141 3066 230 
L 3066 320 
z
" transform="scale(0.015625)"/>
      <path id="NimbusRomNo9L-Regu-70" d="M 58 2516 
C 115 2522 160 2522 218 2522 
C 435 2522 480 2458 480 2155 
L 480 -855 
C 480 -1189 410 -1261 32 -1299 
L 32 -1408 
L 1581 -1408 
L 1581 -1293 
C 1101 -1293 1018 -1222 1018 -816 
L 1018 199 
C 1242 -13 1395 -77 1664 -77 
C 2419 -77 3008 643 3008 1575 
C 3008 2372 2560 2944 1939 2944 
C 1581 2944 1299 2784 1018 2438 
L 1018 2931 
L 979 2944 
C 634 2810 410 2726 58 2618 
L 58 2516 
z
M 1018 2136 
C 1018 2329 1376 2560 1670 2560 
C 2144 2560 2458 2071 2458 1324 
C 2458 611 2144 128 1683 128 
C 1382 128 1018 359 1018 552 
L 1018 2136 
z
" transform="scale(0.015625)"/>
      <path id="NimbusRomNo9L-Regu-1e" d="M 1549 3264 
L 608 4206 
C 493 4320 435 4352 339 4352 
C 205 4352 122 4275 122 4155 
C 122 4053 192 3957 307 3882 
L 1293 3264 
L 1549 3264 
z
" transform="scale(0.015625)"/>
      <path id="NimbusRomNo9L-ReguItal-4d" d="M 5587 4147 
L 4518 4147 
L 2368 992 
L 2016 4147 
L 858 4147 
L 858 4032 
C 1178 4032 1331 3960 1331 3808 
C 1331 3757 1306 3661 1267 3545 
C 1254 3519 1235 3449 1210 3353 
C 1203 3334 1197 3309 1190 3283 
L 512 902 
C 314 236 218 109 -115 70 
L -115 -32 
L 1152 -32 
L 1152 70 
C 826 96 698 172 698 352 
C 698 416 723 582 755 691 
L 1510 3462 
L 1901 -32 
L 2010 -32 
L 4422 3558 
L 3597 550 
C 3494 211 3366 115 2950 70 
L 2950 -32 
L 4698 -32 
L 4698 70 
C 4262 109 4205 147 4205 346 
C 4205 454 4218 537 4275 736 
L 5062 3572 
C 5178 3956 5210 3988 5587 4045 
L 5587 4147 
z
" transform="scale(0.015625)"/>
      <path id="NimbusRomNo9L-ReguItal-41" d="M 3610 134 
C 3245 166 3206 217 3123 682 
L 2522 4288 
L 2355 4288 
L 499 1103 
C -6 256 -70 185 -326 134 
L -326 32 
L 870 32 
L 870 134 
C 544 166 493 198 493 357 
C 493 478 512 536 621 753 
L 986 1472 
L 2394 1472 
L 2522 638 
C 2528 580 2534 523 2534 472 
C 2534 230 2445 173 2035 134 
L 2035 32 
L 3610 32 
L 3610 134 
z
M 1120 1702 
L 2080 3358 
L 2362 1702 
L 1120 1702 
z
" transform="scale(0.015625)"/>
     </defs>
     <use xlink:href="#NimbusRomNo9L-Regu-48" transform="scale(0.996264)"/>
     <use xlink:href="#NimbusRomNo9L-Regu-69" transform="translate(71.929985 0)scale(0.996264)"/>
     <use xlink:href="#NimbusRomNo9L-Regu-73" transform="translate(99.625154 0)scale(0.996264)"/>
     <use xlink:href="#NimbusRomNo9L-Regu-74" transform="translate(138.378861 0)scale(0.996264)"/>
     <use xlink:href="#NimbusRomNo9L-Regu-6f" transform="translate(166.07403 0)scale(0.996264)"/>
     <use xlink:href="#NimbusRomNo9L-Regu-67" transform="translate(215.887231 0)scale(0.996264)"/>
     <use xlink:href="#NimbusRomNo9L-Regu-72" transform="translate(265.700431 0)scale(0.996264)"/>
     <use xlink:href="#NimbusRomNo9L-Regu-61" transform="translate(298.875661 0)scale(0.996264)"/>
     <use xlink:href="#NimbusRomNo9L-Regu-6d" transform="translate(343.10923 0)scale(0.996264)"/>
     <use xlink:href="#NimbusRomNo9L-Regu-6d" transform="translate(420.6176 0)scale(0.996264)"/>
     <use xlink:href="#NimbusRomNo9L-Regu-65" transform="translate(498.12597 0)scale(0.996264)"/>
     <use xlink:href="#NimbusRomNo9L-Regu-64" transform="translate(567.266139 0)scale(0.996264)"/>
     <use xlink:href="#NimbusRomNo9L-Regu-75" transform="translate(617.079339 0)scale(0.996264)"/>
     <use xlink:href="#NimbusRomNo9L-Regu-70" transform="translate(691.79914 0)scale(0.996264)"/>
     <use xlink:href="#NimbusRomNo9L-Regu-61" transform="translate(741.612341 0)scale(0.996264)"/>
     <use xlink:href="#NimbusRomNo9L-Regu-72" transform="translate(785.845909 0)scale(0.996264)"/>
     <use xlink:href="#NimbusRomNo9L-Regu-61" transform="translate(819.021139 0)scale(0.996264)"/>
     <use xlink:href="#NimbusRomNo9L-Regu-6d" transform="translate(863.254708 0)scale(0.996264)"/>
     <use xlink:href="#NimbusRomNo9L-Regu-1e" transform="translate(946.292255 0.498056)scale(0.996264)"/>
     <use xlink:href="#NimbusRomNo9L-Regu-65" transform="translate(940.763078 0)scale(0.996264)"/>
     <use xlink:href="#NimbusRomNo9L-Regu-74" transform="translate(984.996646 0)scale(0.996264)"/>
     <use xlink:href="#NimbusRomNo9L-Regu-72" transform="translate(1012.691816 0)scale(0.996264)"/>
     <use xlink:href="#NimbusRomNo9L-Regu-65" transform="translate(1045.867046 0)scale(0.996264)"/>
     <use xlink:href="#NimbusRomNo9L-ReguItal-4d" transform="translate(1115.007215 0)scale(0.996264)"/>
     <use xlink:href="#NimbusRomNo9L-ReguItal-41" transform="translate(1195.504924 -15.270966)scale(0.737241)"/>
    </g>
   </g>
  </g>
 </g>
 <defs>
  <clipPath id="p34cf15fe37">
   <rect x="34.955367" y="17.765242" width="334.8" height="217.44"/>
  </clipPath>
 </defs>
</svg>
