<?xml version="1.0" encoding="utf-8" standalone="no"?>
<!DOCTYPE svg PUBLIC "-//W3C//DTD SVG 1.1//EN"
  "http://www.w3.org/Graphics/SVG/1.1/DTD/svg11.dtd">
<svg xmlns:xlink="http://www.w3.org/1999/xlink" width="377.255383pt" height="264.618267pt" viewBox="0 0 377.255383 264.618267" xmlns="http://www.w3.org/2000/svg" version="1.1">
 <metadata>
  <rdf:RDF xmlns:dc="http://purl.org/dc/elements/1.1/" xmlns:cc="http://creativecommons.org/ns#" xmlns:rdf="http://www.w3.org/1999/02/22-rdf-syntax-ns#">
   <cc:Work>
    <dc:type rdf:resource="http://purl.org/dc/dcmitype/StillImage"/>
    <dc:date>2022-05-19T16:09:10.036095</dc:date>
    <dc:format>image/svg+xml</dc:format>
    <dc:creator>
     <cc:Agent>
      <dc:title>Matplotlib v3.5.2, https://matplotlib.org/</dc:title>
     </cc:Agent>
    </dc:creator>
   </cc:Work>
  </rdf:RDF>
 </metadata>
 <defs>
  <style type="text/css">*{stroke-linejoin: round; stroke-linecap: butt}</style>
 </defs>
 <g id="figure_1">
  <g id="patch_1">
   <path d="M 0 264.618267 
L 377.255383 264.618267 
L 377.255383 0 
L 0 0 
L 0 264.618267 
z
" style="fill: none"/>
  </g>
  <g id="axes_1">
   <g id="patch_2">
    <path d="M 34.955367 235.695454 
L 369.755367 235.695454 
L 369.755367 18.255454 
L 34.955367 18.255454 
z
" style="fill: #ffffff"/>
   </g>
   <g id="patch_3">
    <path d="M 50.173548 235.695454 
L 53.217185 235.695454 
L 53.217185 232.038311 
L 50.173548 232.038311 
z
" clip-path="url(#padee607b72)"/>
   </g>
   <g id="patch_4">
    <path d="M 53.217185 235.695454 
L 56.260821 235.695454 
L 56.260821 223.352597 
L 53.217185 223.352597 
z
" clip-path="url(#padee607b72)"/>
   </g>
   <g id="patch_5">
    <path d="M 56.260821 235.695454 
L 59.304458 235.695454 
L 59.304458 218.781168 
L 56.260821 218.781168 
z
" clip-path="url(#padee607b72)"/>
   </g>
   <g id="patch_6">
    <path d="M 59.304458 235.695454 
L 62.348094 235.695454 
L 62.348094 218.324025 
L 59.304458 218.324025 
z
" clip-path="url(#padee607b72)"/>
   </g>
   <g id="patch_7">
    <path d="M 62.348094 235.695454 
L 65.39173 235.695454 
L 65.39173 217.40974 
L 62.348094 217.40974 
z
" clip-path="url(#padee607b72)"/>
   </g>
   <g id="patch_8">
    <path d="M 65.39173 235.695454 
L 68.435367 235.695454 
L 68.435367 204.60974 
L 65.39173 204.60974 
z
" clip-path="url(#padee607b72)"/>
   </g>
   <g id="patch_9">
    <path d="M 68.435367 235.695454 
L 71.479003 235.695454 
L 71.479003 199.124025 
L 68.435367 199.124025 
z
" clip-path="url(#padee607b72)"/>
   </g>
   <g id="patch_10">
    <path d="M 71.479003 235.695454 
L 74.522639 235.695454 
L 74.522639 188.152597 
L 71.479003 188.152597 
z
" clip-path="url(#padee607b72)"/>
   </g>
   <g id="patch_11">
    <path d="M 74.522639 235.695454 
L 77.566276 235.695454 
L 77.566276 189.981168 
L 74.522639 189.981168 
z
" clip-path="url(#padee607b72)"/>
   </g>
   <g id="patch_12">
    <path d="M 77.566276 235.695454 
L 80.609912 235.695454 
L 80.609912 185.40974 
L 77.566276 185.40974 
z
" clip-path="url(#padee607b72)"/>
   </g>
   <g id="patch_13">
    <path d="M 80.609912 235.695454 
L 83.653548 235.695454 
L 83.653548 184.038311 
L 80.609912 184.038311 
z
" clip-path="url(#padee607b72)"/>
   </g>
   <g id="patch_14">
    <path d="M 83.653548 235.695454 
L 86.697185 235.695454 
L 86.697185 194.095454 
L 83.653548 194.095454 
z
" clip-path="url(#padee607b72)"/>
   </g>
   <g id="patch_15">
    <path d="M 86.697185 235.695454 
L 89.740821 235.695454 
L 89.740821 174.895454 
L 86.697185 174.895454 
z
" clip-path="url(#padee607b72)"/>
   </g>
   <g id="patch_16">
    <path d="M 89.740821 235.695454 
L 92.784458 235.695454 
L 92.784458 156.60974 
L 89.740821 156.60974 
z
" clip-path="url(#padee607b72)"/>
   </g>
   <g id="patch_17">
    <path d="M 92.784458 235.695454 
L 95.828094 235.695454 
L 95.828094 164.381168 
L 92.784458 164.381168 
z
" clip-path="url(#padee607b72)"/>
   </g>
   <g id="patch_18">
    <path d="M 95.828094 235.695454 
L 98.87173 235.695454 
L 98.87173 152.495454 
L 95.828094 152.495454 
z
" clip-path="url(#padee607b72)"/>
   </g>
   <g id="patch_19">
    <path d="M 98.87173 235.695454 
L 101.915367 235.695454 
L 101.915367 146.552597 
L 98.87173 146.552597 
z
" clip-path="url(#padee607b72)"/>
   </g>
   <g id="patch_20">
    <path d="M 101.915367 235.695454 
L 104.959003 235.695454 
L 104.959003 151.581168 
L 101.915367 151.581168 
z
" clip-path="url(#padee607b72)"/>
   </g>
   <g id="patch_21">
    <path d="M 104.959003 235.695454 
L 108.002639 235.695454 
L 108.002639 136.495454 
L 104.959003 136.495454 
z
" clip-path="url(#padee607b72)"/>
   </g>
   <g id="patch_22">
    <path d="M 108.002639 235.695454 
L 111.046276 235.695454 
L 111.046276 147.00974 
L 108.002639 147.00974 
z
" clip-path="url(#padee607b72)"/>
   </g>
   <g id="patch_23">
    <path d="M 111.046276 235.695454 
L 114.089912 235.695454 
L 114.089912 131.466883 
L 111.046276 131.466883 
z
" clip-path="url(#padee607b72)"/>
   </g>
   <g id="patch_24">
    <path d="M 114.089912 235.695454 
L 117.133548 235.695454 
L 117.133548 119.124025 
L 114.089912 119.124025 
z
" clip-path="url(#padee607b72)"/>
   </g>
   <g id="patch_25">
    <path d="M 117.133548 235.695454 
L 120.177185 235.695454 
L 120.177185 111.80974 
L 117.133548 111.80974 
z
" clip-path="url(#padee607b72)"/>
   </g>
   <g id="patch_26">
    <path d="M 120.177185 235.695454 
L 123.220821 235.695454 
L 123.220821 95.352597 
L 120.177185 95.352597 
z
" clip-path="url(#padee607b72)"/>
   </g>
   <g id="patch_27">
    <path d="M 123.220821 235.695454 
L 126.264458 235.695454 
L 126.264458 100.381168 
L 123.220821 100.381168 
z
" clip-path="url(#padee607b72)"/>
   </g>
   <g id="patch_28">
    <path d="M 126.264458 235.695454 
L 129.308094 235.695454 
L 129.308094 75.695454 
L 126.264458 75.695454 
z
" clip-path="url(#padee607b72)"/>
   </g>
   <g id="patch_29">
    <path d="M 129.308094 235.695454 
L 132.35173 235.695454 
L 132.35173 67.924025 
L 129.308094 67.924025 
z
" clip-path="url(#padee607b72)"/>
   </g>
   <g id="patch_30">
    <path d="M 132.35173 235.695454 
L 135.395367 235.695454 
L 135.395367 72.038311 
L 132.35173 72.038311 
z
" clip-path="url(#padee607b72)"/>
   </g>
   <g id="patch_31">
    <path d="M 135.395367 235.695454 
L 138.439003 235.695454 
L 138.439003 74.781168 
L 135.395367 74.781168 
z
" clip-path="url(#padee607b72)"/>
   </g>
   <g id="patch_32">
    <path d="M 138.439003 235.695454 
L 141.482639 235.695454 
L 141.482639 75.238311 
L 138.439003 75.238311 
z
" clip-path="url(#padee607b72)"/>
   </g>
   <g id="patch_33">
    <path d="M 141.482639 235.695454 
L 144.526276 235.695454 
L 144.526276 28.60974 
L 141.482639 28.60974 
z
" clip-path="url(#padee607b72)"/>
   </g>
   <g id="patch_34">
    <path d="M 144.526276 235.695454 
L 147.569912 235.695454 
L 147.569912 52.838311 
L 144.526276 52.838311 
z
" clip-path="url(#padee607b72)"/>
   </g>
   <g id="patch_35">
    <path d="M 147.569912 235.695454 
L 150.613548 235.695454 
L 150.613548 79.80974 
L 147.569912 79.80974 
z
" clip-path="url(#padee607b72)"/>
   </g>
   <g id="patch_36">
    <path d="M 150.613548 235.695454 
L 153.657185 235.695454 
L 153.657185 84.838311 
L 150.613548 84.838311 
z
" clip-path="url(#padee607b72)"/>
   </g>
   <g id="patch_37">
    <path d="M 153.657185 235.695454 
L 156.700821 235.695454 
L 156.700821 98.095454 
L 153.657185 98.095454 
z
" clip-path="url(#padee607b72)"/>
   </g>
   <g id="patch_38">
    <path d="M 156.700821 235.695454 
L 159.744458 235.695454 
L 159.744458 117.295454 
L 156.700821 117.295454 
z
" clip-path="url(#padee607b72)"/>
   </g>
   <g id="patch_39">
    <path d="M 159.744458 235.695454 
L 162.788094 235.695454 
L 162.788094 122.324025 
L 159.744458 122.324025 
z
" clip-path="url(#padee607b72)"/>
   </g>
   <g id="patch_40">
    <path d="M 162.788094 235.695454 
L 165.83173 235.695454 
L 165.83173 125.066883 
L 162.788094 125.066883 
z
" clip-path="url(#padee607b72)"/>
   </g>
   <g id="patch_41">
    <path d="M 165.83173 235.695454 
L 168.875367 235.695454 
L 168.875367 120.952597 
L 165.83173 120.952597 
z
" clip-path="url(#padee607b72)"/>
   </g>
   <g id="patch_42">
    <path d="M 168.875367 235.695454 
L 171.919003 235.695454 
L 171.919003 129.181168 
L 168.875367 129.181168 
z
" clip-path="url(#padee607b72)"/>
   </g>
   <g id="patch_43">
    <path d="M 171.919003 235.695454 
L 174.962639 235.695454 
L 174.962639 149.752597 
L 171.919003 149.752597 
z
" clip-path="url(#padee607b72)"/>
   </g>
   <g id="patch_44">
    <path d="M 174.962639 235.695454 
L 178.006276 235.695454 
L 178.006276 162.552597 
L 174.962639 162.552597 
z
" clip-path="url(#padee607b72)"/>
   </g>
   <g id="patch_45">
    <path d="M 178.006276 235.695454 
L 181.049912 235.695454 
L 181.049912 164.381168 
L 178.006276 164.381168 
z
" clip-path="url(#padee607b72)"/>
   </g>
   <g id="patch_46">
    <path d="M 181.049912 235.695454 
L 184.093548 235.695454 
L 184.093548 180.381168 
L 181.049912 180.381168 
z
" clip-path="url(#padee607b72)"/>
   </g>
   <g id="patch_47">
    <path d="M 184.093548 235.695454 
L 187.137185 235.695454 
L 187.137185 185.40974 
L 184.093548 185.40974 
z
" clip-path="url(#padee607b72)"/>
   </g>
   <g id="patch_48">
    <path d="M 187.137185 235.695454 
L 190.180821 235.695454 
L 190.180821 200.038311 
L 187.137185 200.038311 
z
" clip-path="url(#padee607b72)"/>
   </g>
   <g id="patch_49">
    <path d="M 190.180821 235.695454 
L 193.224458 235.695454 
L 193.224458 197.752597 
L 190.180821 197.752597 
z
" clip-path="url(#padee607b72)"/>
   </g>
   <g id="patch_50">
    <path d="M 193.224458 235.695454 
L 196.268094 235.695454 
L 196.268094 205.524025 
L 193.224458 205.524025 
z
" clip-path="url(#padee607b72)"/>
   </g>
   <g id="patch_51">
    <path d="M 196.268094 235.695454 
L 199.31173 235.695454 
L 199.31173 202.781168 
L 196.268094 202.781168 
z
" clip-path="url(#padee607b72)"/>
   </g>
   <g id="patch_52">
    <path d="M 199.31173 235.695454 
L 202.355367 235.695454 
L 202.355367 209.181168 
L 199.31173 209.181168 
z
" clip-path="url(#padee607b72)"/>
   </g>
   <g id="patch_53">
    <path d="M 202.355367 235.695454 
L 205.399003 235.695454 
L 205.399003 212.381168 
L 202.355367 212.381168 
z
" clip-path="url(#padee607b72)"/>
   </g>
   <g id="patch_54">
    <path d="M 205.399003 235.695454 
L 208.442639 235.695454 
L 208.442639 205.066883 
L 205.399003 205.066883 
z
" clip-path="url(#padee607b72)"/>
   </g>
   <g id="patch_55">
    <path d="M 208.442639 235.695454 
L 211.486276 235.695454 
L 211.486276 211.924025 
L 208.442639 211.924025 
z
" clip-path="url(#padee607b72)"/>
   </g>
   <g id="patch_56">
    <path d="M 211.486276 235.695454 
L 214.529912 235.695454 
L 214.529912 220.60974 
L 211.486276 220.60974 
z
" clip-path="url(#padee607b72)"/>
   </g>
   <g id="patch_57">
    <path d="M 214.529912 235.695454 
L 217.573548 235.695454 
L 217.573548 227.466883 
L 214.529912 227.466883 
z
" clip-path="url(#padee607b72)"/>
   </g>
   <g id="patch_58">
    <path d="M 217.573548 235.695454 
L 220.617185 235.695454 
L 220.617185 222.895454 
L 217.573548 222.895454 
z
" clip-path="url(#padee607b72)"/>
   </g>
   <g id="patch_59">
    <path d="M 220.617185 235.695454 
L 223.660821 235.695454 
L 223.660821 222.438311 
L 220.617185 222.438311 
z
" clip-path="url(#padee607b72)"/>
   </g>
   <g id="patch_60">
    <path d="M 223.660821 235.695454 
L 226.704458 235.695454 
L 226.704458 233.40974 
L 223.660821 233.40974 
z
" clip-path="url(#padee607b72)"/>
   </g>
   <g id="patch_61">
    <path d="M 226.704458 235.695454 
L 229.748094 235.695454 
L 229.748094 235.238311 
L 226.704458 235.238311 
z
" clip-path="url(#padee607b72)"/>
   </g>
   <g id="patch_62">
    <path d="M 229.748094 235.695454 
L 232.79173 235.695454 
L 232.79173 235.238311 
L 229.748094 235.238311 
z
" clip-path="url(#padee607b72)"/>
   </g>
   <g id="patch_63">
    <path d="M 232.79173 235.695454 
L 235.835367 235.695454 
L 235.835367 235.695454 
L 232.79173 235.695454 
z
" clip-path="url(#padee607b72)"/>
   </g>
   <g id="patch_64">
    <path d="M 235.835367 235.695454 
L 238.879003 235.695454 
L 238.879003 235.695454 
L 235.835367 235.695454 
z
" clip-path="url(#padee607b72)"/>
   </g>
   <g id="patch_65">
    <path d="M 238.879003 235.695454 
L 241.922639 235.695454 
L 241.922639 235.695454 
L 238.879003 235.695454 
z
" clip-path="url(#padee607b72)"/>
   </g>
   <g id="patch_66">
    <path d="M 241.922639 235.695454 
L 244.966276 235.695454 
L 244.966276 235.238311 
L 241.922639 235.238311 
z
" clip-path="url(#padee607b72)"/>
   </g>
   <g id="patch_67">
    <path d="M 244.966276 235.695454 
L 248.009912 235.695454 
L 248.009912 235.238311 
L 244.966276 235.238311 
z
" clip-path="url(#padee607b72)"/>
   </g>
   <g id="patch_68">
    <path d="M 248.009912 235.695454 
L 251.053548 235.695454 
L 251.053548 235.695454 
L 248.009912 235.695454 
z
" clip-path="url(#padee607b72)"/>
   </g>
   <g id="patch_69">
    <path d="M 251.053548 235.695454 
L 254.097185 235.695454 
L 254.097185 235.695454 
L 251.053548 235.695454 
z
" clip-path="url(#padee607b72)"/>
   </g>
   <g id="patch_70">
    <path d="M 254.097185 235.695454 
L 257.140821 235.695454 
L 257.140821 235.695454 
L 254.097185 235.695454 
z
" clip-path="url(#padee607b72)"/>
   </g>
   <g id="patch_71">
    <path d="M 257.140821 235.695454 
L 260.184458 235.695454 
L 260.184458 235.238311 
L 257.140821 235.238311 
z
" clip-path="url(#padee607b72)"/>
   </g>
   <g id="patch_72">
    <path d="M 260.184458 235.695454 
L 263.228094 235.695454 
L 263.228094 235.695454 
L 260.184458 235.695454 
z
" clip-path="url(#padee607b72)"/>
   </g>
   <g id="patch_73">
    <path d="M 263.228094 235.695454 
L 266.27173 235.695454 
L 266.27173 235.695454 
L 263.228094 235.695454 
z
" clip-path="url(#padee607b72)"/>
   </g>
   <g id="patch_74">
    <path d="M 266.27173 235.695454 
L 269.315367 235.695454 
L 269.315367 235.238311 
L 266.27173 235.238311 
z
" clip-path="url(#padee607b72)"/>
   </g>
   <g id="patch_75">
    <path d="M 269.315367 235.695454 
L 272.359003 235.695454 
L 272.359003 235.695454 
L 269.315367 235.695454 
z
" clip-path="url(#padee607b72)"/>
   </g>
   <g id="patch_76">
    <path d="M 272.359003 235.695454 
L 275.402639 235.695454 
L 275.402639 235.238311 
L 272.359003 235.238311 
z
" clip-path="url(#padee607b72)"/>
   </g>
   <g id="patch_77">
    <path d="M 275.402639 235.695454 
L 278.446276 235.695454 
L 278.446276 235.695454 
L 275.402639 235.695454 
z
" clip-path="url(#padee607b72)"/>
   </g>
   <g id="patch_78">
    <path d="M 278.446276 235.695454 
L 281.489912 235.695454 
L 281.489912 235.695454 
L 278.446276 235.695454 
z
" clip-path="url(#padee607b72)"/>
   </g>
   <g id="patch_79">
    <path d="M 281.489912 235.695454 
L 284.533548 235.695454 
L 284.533548 235.238311 
L 281.489912 235.238311 
z
" clip-path="url(#padee607b72)"/>
   </g>
   <g id="patch_80">
    <path d="M 284.533548 235.695454 
L 287.577185 235.695454 
L 287.577185 235.695454 
L 284.533548 235.695454 
z
" clip-path="url(#padee607b72)"/>
   </g>
   <g id="patch_81">
    <path d="M 287.577185 235.695454 
L 290.620821 235.695454 
L 290.620821 235.238311 
L 287.577185 235.238311 
z
" clip-path="url(#padee607b72)"/>
   </g>
   <g id="patch_82">
    <path d="M 290.620821 235.695454 
L 293.664458 235.695454 
L 293.664458 235.695454 
L 290.620821 235.695454 
z
" clip-path="url(#padee607b72)"/>
   </g>
   <g id="patch_83">
    <path d="M 293.664458 235.695454 
L 296.708094 235.695454 
L 296.708094 235.695454 
L 293.664458 235.695454 
z
" clip-path="url(#padee607b72)"/>
   </g>
   <g id="patch_84">
    <path d="M 296.708094 235.695454 
L 299.75173 235.695454 
L 299.75173 235.695454 
L 296.708094 235.695454 
z
" clip-path="url(#padee607b72)"/>
   </g>
   <g id="patch_85">
    <path d="M 299.75173 235.695454 
L 302.795367 235.695454 
L 302.795367 235.238311 
L 299.75173 235.238311 
z
" clip-path="url(#padee607b72)"/>
   </g>
   <g id="patch_86">
    <path d="M 302.795367 235.695454 
L 305.839003 235.695454 
L 305.839003 235.695454 
L 302.795367 235.695454 
z
" clip-path="url(#padee607b72)"/>
   </g>
   <g id="patch_87">
    <path d="M 305.839003 235.695454 
L 308.882639 235.695454 
L 308.882639 235.238311 
L 305.839003 235.238311 
z
" clip-path="url(#padee607b72)"/>
   </g>
   <g id="patch_88">
    <path d="M 308.882639 235.695454 
L 311.926276 235.695454 
L 311.926276 235.695454 
L 308.882639 235.695454 
z
" clip-path="url(#padee607b72)"/>
   </g>
   <g id="patch_89">
    <path d="M 311.926276 235.695454 
L 314.969912 235.695454 
L 314.969912 235.238311 
L 311.926276 235.238311 
z
" clip-path="url(#padee607b72)"/>
   </g>
   <g id="patch_90">
    <path d="M 314.969912 235.695454 
L 318.013548 235.695454 
L 318.013548 235.238311 
L 314.969912 235.238311 
z
" clip-path="url(#padee607b72)"/>
   </g>
   <g id="patch_91">
    <path d="M 318.013548 235.695454 
L 321.057185 235.695454 
L 321.057185 235.238311 
L 318.013548 235.238311 
z
" clip-path="url(#padee607b72)"/>
   </g>
   <g id="patch_92">
    <path d="M 321.057185 235.695454 
L 324.100821 235.695454 
L 324.100821 235.695454 
L 321.057185 235.695454 
z
" clip-path="url(#padee607b72)"/>
   </g>
   <g id="patch_93">
    <path d="M 324.100821 235.695454 
L 327.144458 235.695454 
L 327.144458 234.781168 
L 324.100821 234.781168 
z
" clip-path="url(#padee607b72)"/>
   </g>
   <g id="patch_94">
    <path d="M 327.144458 235.695454 
L 330.188094 235.695454 
L 330.188094 235.695454 
L 327.144458 235.695454 
z
" clip-path="url(#padee607b72)"/>
   </g>
   <g id="patch_95">
    <path d="M 330.188094 235.695454 
L 333.23173 235.695454 
L 333.23173 234.781168 
L 330.188094 234.781168 
z
" clip-path="url(#padee607b72)"/>
   </g>
   <g id="patch_96">
    <path d="M 333.23173 235.695454 
L 336.275367 235.695454 
L 336.275367 235.695454 
L 333.23173 235.695454 
z
" clip-path="url(#padee607b72)"/>
   </g>
   <g id="patch_97">
    <path d="M 336.275367 235.695454 
L 339.319003 235.695454 
L 339.319003 234.781168 
L 336.275367 234.781168 
z
" clip-path="url(#padee607b72)"/>
   </g>
   <g id="patch_98">
    <path d="M 339.319003 235.695454 
L 342.362639 235.695454 
L 342.362639 235.238311 
L 339.319003 235.238311 
z
" clip-path="url(#padee607b72)"/>
   </g>
   <g id="patch_99">
    <path d="M 342.362639 235.695454 
L 345.406276 235.695454 
L 345.406276 234.324025 
L 342.362639 234.324025 
z
" clip-path="url(#padee607b72)"/>
   </g>
   <g id="patch_100">
    <path d="M 345.406276 235.695454 
L 348.449912 235.695454 
L 348.449912 234.324025 
L 345.406276 234.324025 
z
" clip-path="url(#padee607b72)"/>
   </g>
   <g id="patch_101">
    <path d="M 348.449912 235.695454 
L 351.493548 235.695454 
L 351.493548 234.324025 
L 348.449912 234.324025 
z
" clip-path="url(#padee607b72)"/>
   </g>
   <g id="patch_102">
    <path d="M 351.493548 235.695454 
L 354.537185 235.695454 
L 354.537185 233.866883 
L 351.493548 233.866883 
z
" clip-path="url(#padee607b72)"/>
   </g>
   <g id="matplotlib.axis_1">
    <g id="xtick_1">
     <g id="line2d_1">
      <defs>
       <path id="m133b96160e" d="M 0 0 
L 0 -3 
" style="stroke: #000000; stroke-width: 0.5"/>
      </defs>
      <g>
       <use xlink:href="#m133b96160e" x="39.001981" y="235.695454" style="stroke: #000000; stroke-width: 0.5"/>
      </g>
     </g>
     <g id="line2d_2">
      <defs>
       <path id="m23d367c3ea" d="M 0 0 
L 0 3 
" style="stroke: #000000; stroke-width: 0.5"/>
      </defs>
      <g>
       <use xlink:href="#m23d367c3ea" x="39.001981" y="18.255454" style="stroke: #000000; stroke-width: 0.5"/>
      </g>
     </g>
     <g id="text_1">
      <!-- $\mathdefault{25.0}$ -->
      <g transform="translate(30.150226 245.950032)scale(0.1 -0.1)">
       <defs>
        <path id="NimbusRomNo9L-Regu-32" d="M 3040 875 
L 2957 907 
C 2720 544 2637 486 2349 486 
L 819 486 
L 1894 1609 
C 2464 2202 2714 2687 2714 3185 
C 2714 3823 2195 4313 1530 4313 
C 1178 4313 845 4173 608 3918 
C 403 3700 307 3496 198 3043 
L 333 3011 
C 589 3636 819 3840 1261 3840 
C 1798 3840 2163 3476 2163 2940 
C 2163 2443 1869 1850 1331 1282 
L 192 77 
L 192 0 
L 2688 0 
L 3040 875 
z
" transform="scale(0.015625)"/>
        <path id="NimbusRomNo9L-Regu-35" d="M 1158 3776 
L 2413 3776 
C 2515 3776 2541 3789 2560 3834 
L 2803 4403 
L 2746 4448 
C 2650 4314 2586 4282 2451 4282 
L 1114 4282 
L 416 2759 
C 410 2746 410 2740 410 2727 
C 410 2695 435 2676 486 2676 
C 691 2676 947 2631 1210 2547 
C 1946 2309 2285 1910 2285 1274 
C 2285 656 1894 173 1395 173 
C 1267 173 1158 218 966 360 
C 762 508 614 572 480 572 
C 294 572 205 495 205 334 
C 205 90 506 -64 986 -64 
C 1523 -64 1984 110 2304 438 
C 2598 728 2733 1094 2733 1583 
C 2733 2046 2611 2342 2291 2663 
C 2010 2947 1645 3094 890 3229 
L 1158 3776 
z
" transform="scale(0.015625)"/>
        <path id="CMMI10-3a" d="M 1229 338 
C 1229 522 1075 675 890 675 
C 704 675 550 522 550 338 
C 550 153 704 0 890 0 
C 1075 0 1229 153 1229 338 
z
" transform="scale(0.015625)"/>
        <path id="NimbusRomNo9L-Regu-30" d="M 1626 4352 
C 1274 4352 1005 4244 768 4020 
C 397 3661 154 2925 154 2176 
C 154 1479 365 730 666 372 
C 902 90 1229 -64 1600 -64 
C 1926 -64 2202 45 2432 269 
C 2803 621 3046 1364 3046 2138 
C 3046 3450 2464 4352 1626 4352 
z
M 1606 4186 
C 2144 4186 2432 3463 2432 2125 
C 2432 788 2150 103 1600 103 
C 1050 103 768 788 768 2119 
C 768 3476 1056 4186 1606 4186 
z
" transform="scale(0.015625)"/>
       </defs>
       <use xlink:href="#NimbusRomNo9L-Regu-32" transform="scale(0.996264)"/>
       <use xlink:href="#NimbusRomNo9L-Regu-35" transform="translate(49.8132 0)scale(0.996264)"/>
       <use xlink:href="#CMMI10-3a" transform="translate(99.626401 0)scale(0.996264)"/>
       <use xlink:href="#NimbusRomNo9L-Regu-30" transform="translate(127.221908 0)scale(0.996264)"/>
      </g>
     </g>
    </g>
    <g id="xtick_2">
     <g id="line2d_3">
      <g>
       <use xlink:href="#m133b96160e" x="79.727187" y="235.695454" style="stroke: #000000; stroke-width: 0.5"/>
      </g>
     </g>
     <g id="line2d_4">
      <g>
       <use xlink:href="#m23d367c3ea" x="79.727187" y="18.255454" style="stroke: #000000; stroke-width: 0.5"/>
      </g>
     </g>
     <g id="text_2">
      <!-- $\mathdefault{27.5}$ -->
      <g transform="translate(70.875432 245.950032)scale(0.1 -0.1)">
       <defs>
        <path id="NimbusRomNo9L-Regu-37" d="M 2874 4250 
L 506 4250 
L 128 3310 
L 237 3258 
C 512 3693 627 3776 979 3776 
L 2368 3776 
L 1101 -32 
L 1517 -32 
L 2874 4148 
L 2874 4250 
z
" transform="scale(0.015625)"/>
       </defs>
       <use xlink:href="#NimbusRomNo9L-Regu-32" transform="scale(0.996264)"/>
       <use xlink:href="#NimbusRomNo9L-Regu-37" transform="translate(49.8132 0)scale(0.996264)"/>
       <use xlink:href="#CMMI10-3a" transform="translate(99.626401 0)scale(0.996264)"/>
       <use xlink:href="#NimbusRomNo9L-Regu-35" transform="translate(127.221908 0)scale(0.996264)"/>
      </g>
     </g>
    </g>
    <g id="xtick_3">
     <g id="line2d_5">
      <g>
       <use xlink:href="#m133b96160e" x="120.452393" y="235.695454" style="stroke: #000000; stroke-width: 0.5"/>
      </g>
     </g>
     <g id="line2d_6">
      <g>
       <use xlink:href="#m23d367c3ea" x="120.452393" y="18.255454" style="stroke: #000000; stroke-width: 0.5"/>
      </g>
     </g>
     <g id="text_3">
      <!-- $\mathdefault{30.0}$ -->
      <g transform="translate(111.600638 245.950032)scale(0.1 -0.1)">
       <defs>
        <path id="NimbusRomNo9L-Regu-33" d="M 979 2138 
C 1357 2138 1504 2125 1658 2068 
C 2054 1927 2304 1562 2304 1120 
C 2304 583 1939 167 1466 167 
C 1293 167 1165 212 928 365 
C 736 480 627 525 518 525 
C 371 525 275 436 275 301 
C 275 77 550 -64 998 -64 
C 1491 -64 1997 103 2298 365 
C 2598 628 2765 999 2765 1428 
C 2765 1754 2662 2055 2477 2253 
C 2349 2394 2227 2471 1946 2592 
C 2387 2893 2547 3130 2547 3476 
C 2547 3994 2138 4352 1549 4352 
C 1229 4352 947 4244 717 4039 
C 525 3866 429 3699 288 3315 
L 384 3290 
C 646 3757 934 3968 1338 3968 
C 1754 3968 2042 3687 2042 3284 
C 2042 3053 1946 2823 1786 2663 
C 1594 2471 1414 2375 979 2221 
L 979 2138 
z
" transform="scale(0.015625)"/>
       </defs>
       <use xlink:href="#NimbusRomNo9L-Regu-33" transform="scale(0.996264)"/>
       <use xlink:href="#NimbusRomNo9L-Regu-30" transform="translate(49.8132 0)scale(0.996264)"/>
       <use xlink:href="#CMMI10-3a" transform="translate(99.626401 0)scale(0.996264)"/>
       <use xlink:href="#NimbusRomNo9L-Regu-30" transform="translate(127.221908 0)scale(0.996264)"/>
      </g>
     </g>
    </g>
    <g id="xtick_4">
     <g id="line2d_7">
      <g>
       <use xlink:href="#m133b96160e" x="161.177599" y="235.695454" style="stroke: #000000; stroke-width: 0.5"/>
      </g>
     </g>
     <g id="line2d_8">
      <g>
       <use xlink:href="#m23d367c3ea" x="161.177599" y="18.255454" style="stroke: #000000; stroke-width: 0.5"/>
      </g>
     </g>
     <g id="text_4">
      <!-- $\mathdefault{32.5}$ -->
      <g transform="translate(152.325844 245.950032)scale(0.1 -0.1)">
       <use xlink:href="#NimbusRomNo9L-Regu-33" transform="scale(0.996264)"/>
       <use xlink:href="#NimbusRomNo9L-Regu-32" transform="translate(49.8132 0)scale(0.996264)"/>
       <use xlink:href="#CMMI10-3a" transform="translate(99.626401 0)scale(0.996264)"/>
       <use xlink:href="#NimbusRomNo9L-Regu-35" transform="translate(127.221908 0)scale(0.996264)"/>
      </g>
     </g>
    </g>
    <g id="xtick_5">
     <g id="line2d_9">
      <g>
       <use xlink:href="#m133b96160e" x="201.902804" y="235.695454" style="stroke: #000000; stroke-width: 0.5"/>
      </g>
     </g>
     <g id="line2d_10">
      <g>
       <use xlink:href="#m23d367c3ea" x="201.902804" y="18.255454" style="stroke: #000000; stroke-width: 0.5"/>
      </g>
     </g>
     <g id="text_5">
      <!-- $\mathdefault{35.0}$ -->
      <g transform="translate(193.05105 245.950032)scale(0.1 -0.1)">
       <use xlink:href="#NimbusRomNo9L-Regu-33" transform="scale(0.996264)"/>
       <use xlink:href="#NimbusRomNo9L-Regu-35" transform="translate(49.8132 0)scale(0.996264)"/>
       <use xlink:href="#CMMI10-3a" transform="translate(99.626401 0)scale(0.996264)"/>
       <use xlink:href="#NimbusRomNo9L-Regu-30" transform="translate(127.221908 0)scale(0.996264)"/>
      </g>
     </g>
    </g>
    <g id="xtick_6">
     <g id="line2d_11">
      <g>
       <use xlink:href="#m133b96160e" x="242.62801" y="235.695454" style="stroke: #000000; stroke-width: 0.5"/>
      </g>
     </g>
     <g id="line2d_12">
      <g>
       <use xlink:href="#m23d367c3ea" x="242.62801" y="18.255454" style="stroke: #000000; stroke-width: 0.5"/>
      </g>
     </g>
     <g id="text_6">
      <!-- $\mathdefault{37.5}$ -->
      <g transform="translate(233.776256 245.950032)scale(0.1 -0.1)">
       <use xlink:href="#NimbusRomNo9L-Regu-33" transform="scale(0.996264)"/>
       <use xlink:href="#NimbusRomNo9L-Regu-37" transform="translate(49.8132 0)scale(0.996264)"/>
       <use xlink:href="#CMMI10-3a" transform="translate(99.626401 0)scale(0.996264)"/>
       <use xlink:href="#NimbusRomNo9L-Regu-35" transform="translate(127.221908 0)scale(0.996264)"/>
      </g>
     </g>
    </g>
    <g id="xtick_7">
     <g id="line2d_13">
      <g>
       <use xlink:href="#m133b96160e" x="283.353216" y="235.695454" style="stroke: #000000; stroke-width: 0.5"/>
      </g>
     </g>
     <g id="line2d_14">
      <g>
       <use xlink:href="#m23d367c3ea" x="283.353216" y="18.255454" style="stroke: #000000; stroke-width: 0.5"/>
      </g>
     </g>
     <g id="text_7">
      <!-- $\mathdefault{40.0}$ -->
      <g transform="translate(274.501462 245.950032)scale(0.1 -0.1)">
       <defs>
        <path id="NimbusRomNo9L-Regu-34" d="M 3021 1497 
L 2368 1497 
L 2368 4352 
L 2086 4352 
L 77 1497 
L 77 1088 
L 1875 1088 
L 1875 32 
L 2368 32 
L 2368 1088 
L 3021 1088 
L 3021 1497 
z
M 1869 1497 
L 333 1497 
L 1869 3698 
L 1869 1497 
z
" transform="scale(0.015625)"/>
       </defs>
       <use xlink:href="#NimbusRomNo9L-Regu-34" transform="scale(0.996264)"/>
       <use xlink:href="#NimbusRomNo9L-Regu-30" transform="translate(49.8132 0)scale(0.996264)"/>
       <use xlink:href="#CMMI10-3a" transform="translate(99.626401 0)scale(0.996264)"/>
       <use xlink:href="#NimbusRomNo9L-Regu-30" transform="translate(127.221908 0)scale(0.996264)"/>
      </g>
     </g>
    </g>
    <g id="xtick_8">
     <g id="line2d_15">
      <g>
       <use xlink:href="#m133b96160e" x="324.078422" y="235.695454" style="stroke: #000000; stroke-width: 0.5"/>
      </g>
     </g>
     <g id="line2d_16">
      <g>
       <use xlink:href="#m23d367c3ea" x="324.078422" y="18.255454" style="stroke: #000000; stroke-width: 0.5"/>
      </g>
     </g>
     <g id="text_8">
      <!-- $\mathdefault{42.5}$ -->
      <g transform="translate(315.226667 245.950032)scale(0.1 -0.1)">
       <use xlink:href="#NimbusRomNo9L-Regu-34" transform="scale(0.996264)"/>
       <use xlink:href="#NimbusRomNo9L-Regu-32" transform="translate(49.8132 0)scale(0.996264)"/>
       <use xlink:href="#CMMI10-3a" transform="translate(99.626401 0)scale(0.996264)"/>
       <use xlink:href="#NimbusRomNo9L-Regu-35" transform="translate(127.221908 0)scale(0.996264)"/>
      </g>
     </g>
    </g>
    <g id="xtick_9">
     <g id="line2d_17">
      <g>
       <use xlink:href="#m133b96160e" x="364.803628" y="235.695454" style="stroke: #000000; stroke-width: 0.5"/>
      </g>
     </g>
     <g id="line2d_18">
      <g>
       <use xlink:href="#m23d367c3ea" x="364.803628" y="18.255454" style="stroke: #000000; stroke-width: 0.5"/>
      </g>
     </g>
     <g id="text_9">
      <!-- $\mathdefault{45.0}$ -->
      <g transform="translate(355.951873 245.950032)scale(0.1 -0.1)">
       <use xlink:href="#NimbusRomNo9L-Regu-34" transform="scale(0.996264)"/>
       <use xlink:href="#NimbusRomNo9L-Regu-35" transform="translate(49.8132 0)scale(0.996264)"/>
       <use xlink:href="#CMMI10-3a" transform="translate(99.626401 0)scale(0.996264)"/>
       <use xlink:href="#NimbusRomNo9L-Regu-30" transform="translate(127.221908 0)scale(0.996264)"/>
      </g>
     </g>
    </g>
    <g id="xtick_10">
     <g id="line2d_19">
      <defs>
       <path id="mdf5ecb3490" d="M 0 0 
L 0 -1.5 
" style="stroke: #000000; stroke-width: 0.5"/>
      </defs>
      <g>
       <use xlink:href="#mdf5ecb3490" x="47.147022" y="235.695454" style="stroke: #000000; stroke-width: 0.5"/>
      </g>
     </g>
     <g id="line2d_20">
      <defs>
       <path id="mbb25b0b987" d="M 0 0 
L 0 1.5 
" style="stroke: #000000; stroke-width: 0.5"/>
      </defs>
      <g>
       <use xlink:href="#mbb25b0b987" x="47.147022" y="18.255454" style="stroke: #000000; stroke-width: 0.5"/>
      </g>
     </g>
    </g>
    <g id="xtick_11">
     <g id="line2d_21">
      <g>
       <use xlink:href="#mdf5ecb3490" x="55.292063" y="235.695454" style="stroke: #000000; stroke-width: 0.5"/>
      </g>
     </g>
     <g id="line2d_22">
      <g>
       <use xlink:href="#mbb25b0b987" x="55.292063" y="18.255454" style="stroke: #000000; stroke-width: 0.5"/>
      </g>
     </g>
    </g>
    <g id="xtick_12">
     <g id="line2d_23">
      <g>
       <use xlink:href="#mdf5ecb3490" x="63.437105" y="235.695454" style="stroke: #000000; stroke-width: 0.5"/>
      </g>
     </g>
     <g id="line2d_24">
      <g>
       <use xlink:href="#mbb25b0b987" x="63.437105" y="18.255454" style="stroke: #000000; stroke-width: 0.5"/>
      </g>
     </g>
    </g>
    <g id="xtick_13">
     <g id="line2d_25">
      <g>
       <use xlink:href="#mdf5ecb3490" x="71.582146" y="235.695454" style="stroke: #000000; stroke-width: 0.5"/>
      </g>
     </g>
     <g id="line2d_26">
      <g>
       <use xlink:href="#mbb25b0b987" x="71.582146" y="18.255454" style="stroke: #000000; stroke-width: 0.5"/>
      </g>
     </g>
    </g>
    <g id="xtick_14">
     <g id="line2d_27">
      <g>
       <use xlink:href="#mdf5ecb3490" x="87.872228" y="235.695454" style="stroke: #000000; stroke-width: 0.5"/>
      </g>
     </g>
     <g id="line2d_28">
      <g>
       <use xlink:href="#mbb25b0b987" x="87.872228" y="18.255454" style="stroke: #000000; stroke-width: 0.5"/>
      </g>
     </g>
    </g>
    <g id="xtick_15">
     <g id="line2d_29">
      <g>
       <use xlink:href="#mdf5ecb3490" x="96.017269" y="235.695454" style="stroke: #000000; stroke-width: 0.5"/>
      </g>
     </g>
     <g id="line2d_30">
      <g>
       <use xlink:href="#mbb25b0b987" x="96.017269" y="18.255454" style="stroke: #000000; stroke-width: 0.5"/>
      </g>
     </g>
    </g>
    <g id="xtick_16">
     <g id="line2d_31">
      <g>
       <use xlink:href="#mdf5ecb3490" x="104.16231" y="235.695454" style="stroke: #000000; stroke-width: 0.5"/>
      </g>
     </g>
     <g id="line2d_32">
      <g>
       <use xlink:href="#mbb25b0b987" x="104.16231" y="18.255454" style="stroke: #000000; stroke-width: 0.5"/>
      </g>
     </g>
    </g>
    <g id="xtick_17">
     <g id="line2d_33">
      <g>
       <use xlink:href="#mdf5ecb3490" x="112.307352" y="235.695454" style="stroke: #000000; stroke-width: 0.5"/>
      </g>
     </g>
     <g id="line2d_34">
      <g>
       <use xlink:href="#mbb25b0b987" x="112.307352" y="18.255454" style="stroke: #000000; stroke-width: 0.5"/>
      </g>
     </g>
    </g>
    <g id="xtick_18">
     <g id="line2d_35">
      <g>
       <use xlink:href="#mdf5ecb3490" x="128.597434" y="235.695454" style="stroke: #000000; stroke-width: 0.5"/>
      </g>
     </g>
     <g id="line2d_36">
      <g>
       <use xlink:href="#mbb25b0b987" x="128.597434" y="18.255454" style="stroke: #000000; stroke-width: 0.5"/>
      </g>
     </g>
    </g>
    <g id="xtick_19">
     <g id="line2d_37">
      <g>
       <use xlink:href="#mdf5ecb3490" x="136.742475" y="235.695454" style="stroke: #000000; stroke-width: 0.5"/>
      </g>
     </g>
     <g id="line2d_38">
      <g>
       <use xlink:href="#mbb25b0b987" x="136.742475" y="18.255454" style="stroke: #000000; stroke-width: 0.5"/>
      </g>
     </g>
    </g>
    <g id="xtick_20">
     <g id="line2d_39">
      <g>
       <use xlink:href="#mdf5ecb3490" x="144.887516" y="235.695454" style="stroke: #000000; stroke-width: 0.5"/>
      </g>
     </g>
     <g id="line2d_40">
      <g>
       <use xlink:href="#mbb25b0b987" x="144.887516" y="18.255454" style="stroke: #000000; stroke-width: 0.5"/>
      </g>
     </g>
    </g>
    <g id="xtick_21">
     <g id="line2d_41">
      <g>
       <use xlink:href="#mdf5ecb3490" x="153.032557" y="235.695454" style="stroke: #000000; stroke-width: 0.5"/>
      </g>
     </g>
     <g id="line2d_42">
      <g>
       <use xlink:href="#mbb25b0b987" x="153.032557" y="18.255454" style="stroke: #000000; stroke-width: 0.5"/>
      </g>
     </g>
    </g>
    <g id="xtick_22">
     <g id="line2d_43">
      <g>
       <use xlink:href="#mdf5ecb3490" x="169.32264" y="235.695454" style="stroke: #000000; stroke-width: 0.5"/>
      </g>
     </g>
     <g id="line2d_44">
      <g>
       <use xlink:href="#mbb25b0b987" x="169.32264" y="18.255454" style="stroke: #000000; stroke-width: 0.5"/>
      </g>
     </g>
    </g>
    <g id="xtick_23">
     <g id="line2d_45">
      <g>
       <use xlink:href="#mdf5ecb3490" x="177.467681" y="235.695454" style="stroke: #000000; stroke-width: 0.5"/>
      </g>
     </g>
     <g id="line2d_46">
      <g>
       <use xlink:href="#mbb25b0b987" x="177.467681" y="18.255454" style="stroke: #000000; stroke-width: 0.5"/>
      </g>
     </g>
    </g>
    <g id="xtick_24">
     <g id="line2d_47">
      <g>
       <use xlink:href="#mdf5ecb3490" x="185.612722" y="235.695454" style="stroke: #000000; stroke-width: 0.5"/>
      </g>
     </g>
     <g id="line2d_48">
      <g>
       <use xlink:href="#mbb25b0b987" x="185.612722" y="18.255454" style="stroke: #000000; stroke-width: 0.5"/>
      </g>
     </g>
    </g>
    <g id="xtick_25">
     <g id="line2d_49">
      <g>
       <use xlink:href="#mdf5ecb3490" x="193.757763" y="235.695454" style="stroke: #000000; stroke-width: 0.5"/>
      </g>
     </g>
     <g id="line2d_50">
      <g>
       <use xlink:href="#mbb25b0b987" x="193.757763" y="18.255454" style="stroke: #000000; stroke-width: 0.5"/>
      </g>
     </g>
    </g>
    <g id="xtick_26">
     <g id="line2d_51">
      <g>
       <use xlink:href="#mdf5ecb3490" x="210.047846" y="235.695454" style="stroke: #000000; stroke-width: 0.5"/>
      </g>
     </g>
     <g id="line2d_52">
      <g>
       <use xlink:href="#mbb25b0b987" x="210.047846" y="18.255454" style="stroke: #000000; stroke-width: 0.5"/>
      </g>
     </g>
    </g>
    <g id="xtick_27">
     <g id="line2d_53">
      <g>
       <use xlink:href="#mdf5ecb3490" x="218.192887" y="235.695454" style="stroke: #000000; stroke-width: 0.5"/>
      </g>
     </g>
     <g id="line2d_54">
      <g>
       <use xlink:href="#mbb25b0b987" x="218.192887" y="18.255454" style="stroke: #000000; stroke-width: 0.5"/>
      </g>
     </g>
    </g>
    <g id="xtick_28">
     <g id="line2d_55">
      <g>
       <use xlink:href="#mdf5ecb3490" x="226.337928" y="235.695454" style="stroke: #000000; stroke-width: 0.5"/>
      </g>
     </g>
     <g id="line2d_56">
      <g>
       <use xlink:href="#mbb25b0b987" x="226.337928" y="18.255454" style="stroke: #000000; stroke-width: 0.5"/>
      </g>
     </g>
    </g>
    <g id="xtick_29">
     <g id="line2d_57">
      <g>
       <use xlink:href="#mdf5ecb3490" x="234.482969" y="235.695454" style="stroke: #000000; stroke-width: 0.5"/>
      </g>
     </g>
     <g id="line2d_58">
      <g>
       <use xlink:href="#mbb25b0b987" x="234.482969" y="18.255454" style="stroke: #000000; stroke-width: 0.5"/>
      </g>
     </g>
    </g>
    <g id="xtick_30">
     <g id="line2d_59">
      <g>
       <use xlink:href="#mdf5ecb3490" x="250.773052" y="235.695454" style="stroke: #000000; stroke-width: 0.5"/>
      </g>
     </g>
     <g id="line2d_60">
      <g>
       <use xlink:href="#mbb25b0b987" x="250.773052" y="18.255454" style="stroke: #000000; stroke-width: 0.5"/>
      </g>
     </g>
    </g>
    <g id="xtick_31">
     <g id="line2d_61">
      <g>
       <use xlink:href="#mdf5ecb3490" x="258.918093" y="235.695454" style="stroke: #000000; stroke-width: 0.5"/>
      </g>
     </g>
     <g id="line2d_62">
      <g>
       <use xlink:href="#mbb25b0b987" x="258.918093" y="18.255454" style="stroke: #000000; stroke-width: 0.5"/>
      </g>
     </g>
    </g>
    <g id="xtick_32">
     <g id="line2d_63">
      <g>
       <use xlink:href="#mdf5ecb3490" x="267.063134" y="235.695454" style="stroke: #000000; stroke-width: 0.5"/>
      </g>
     </g>
     <g id="line2d_64">
      <g>
       <use xlink:href="#mbb25b0b987" x="267.063134" y="18.255454" style="stroke: #000000; stroke-width: 0.5"/>
      </g>
     </g>
    </g>
    <g id="xtick_33">
     <g id="line2d_65">
      <g>
       <use xlink:href="#mdf5ecb3490" x="275.208175" y="235.695454" style="stroke: #000000; stroke-width: 0.5"/>
      </g>
     </g>
     <g id="line2d_66">
      <g>
       <use xlink:href="#mbb25b0b987" x="275.208175" y="18.255454" style="stroke: #000000; stroke-width: 0.5"/>
      </g>
     </g>
    </g>
    <g id="xtick_34">
     <g id="line2d_67">
      <g>
       <use xlink:href="#mdf5ecb3490" x="291.498257" y="235.695454" style="stroke: #000000; stroke-width: 0.5"/>
      </g>
     </g>
     <g id="line2d_68">
      <g>
       <use xlink:href="#mbb25b0b987" x="291.498257" y="18.255454" style="stroke: #000000; stroke-width: 0.5"/>
      </g>
     </g>
    </g>
    <g id="xtick_35">
     <g id="line2d_69">
      <g>
       <use xlink:href="#mdf5ecb3490" x="299.643299" y="235.695454" style="stroke: #000000; stroke-width: 0.5"/>
      </g>
     </g>
     <g id="line2d_70">
      <g>
       <use xlink:href="#mbb25b0b987" x="299.643299" y="18.255454" style="stroke: #000000; stroke-width: 0.5"/>
      </g>
     </g>
    </g>
    <g id="xtick_36">
     <g id="line2d_71">
      <g>
       <use xlink:href="#mdf5ecb3490" x="307.78834" y="235.695454" style="stroke: #000000; stroke-width: 0.5"/>
      </g>
     </g>
     <g id="line2d_72">
      <g>
       <use xlink:href="#mbb25b0b987" x="307.78834" y="18.255454" style="stroke: #000000; stroke-width: 0.5"/>
      </g>
     </g>
    </g>
    <g id="xtick_37">
     <g id="line2d_73">
      <g>
       <use xlink:href="#mdf5ecb3490" x="315.933381" y="235.695454" style="stroke: #000000; stroke-width: 0.5"/>
      </g>
     </g>
     <g id="line2d_74">
      <g>
       <use xlink:href="#mbb25b0b987" x="315.933381" y="18.255454" style="stroke: #000000; stroke-width: 0.5"/>
      </g>
     </g>
    </g>
    <g id="xtick_38">
     <g id="line2d_75">
      <g>
       <use xlink:href="#mdf5ecb3490" x="332.223463" y="235.695454" style="stroke: #000000; stroke-width: 0.5"/>
      </g>
     </g>
     <g id="line2d_76">
      <g>
       <use xlink:href="#mbb25b0b987" x="332.223463" y="18.255454" style="stroke: #000000; stroke-width: 0.5"/>
      </g>
     </g>
    </g>
    <g id="xtick_39">
     <g id="line2d_77">
      <g>
       <use xlink:href="#mdf5ecb3490" x="340.368504" y="235.695454" style="stroke: #000000; stroke-width: 0.5"/>
      </g>
     </g>
     <g id="line2d_78">
      <g>
       <use xlink:href="#mbb25b0b987" x="340.368504" y="18.255454" style="stroke: #000000; stroke-width: 0.5"/>
      </g>
     </g>
    </g>
    <g id="xtick_40">
     <g id="line2d_79">
      <g>
       <use xlink:href="#mdf5ecb3490" x="348.513546" y="235.695454" style="stroke: #000000; stroke-width: 0.5"/>
      </g>
     </g>
     <g id="line2d_80">
      <g>
       <use xlink:href="#mbb25b0b987" x="348.513546" y="18.255454" style="stroke: #000000; stroke-width: 0.5"/>
      </g>
     </g>
    </g>
    <g id="xtick_41">
     <g id="line2d_81">
      <g>
       <use xlink:href="#mdf5ecb3490" x="356.658587" y="235.695454" style="stroke: #000000; stroke-width: 0.5"/>
      </g>
     </g>
     <g id="line2d_82">
      <g>
       <use xlink:href="#mbb25b0b987" x="356.658587" y="18.255454" style="stroke: #000000; stroke-width: 0.5"/>
      </g>
     </g>
    </g>
    <g id="text_10">
     <!-- Masse (GeV) -->
     <g transform="translate(175.660794 258.861438)scale(0.1 -0.1)">
      <defs>
       <path id="NimbusRomNo9L-Regu-4d" d="M 4314 3667 
L 4314 751 
C 4314 217 4237 134 3731 134 
L 3731 0 
L 5523 0 
L 5523 134 
C 5056 134 4966 223 4966 681 
L 4966 3536 
C 4966 3993 5050 4077 5523 4115 
L 5523 4237 
L 4250 4237 
L 2835 1004 
L 1357 4237 
L 90 4237 
L 90 4096 
C 614 4096 698 4019 698 3550 
L 698 943 
C 698 282 608 159 77 121 
L 77 0 
L 1581 0 
L 1581 134 
C 1088 134 979 282 979 931 
L 979 3520 
L 2586 0 
L 2675 0 
L 4314 3667 
z
" transform="scale(0.015625)"/>
       <path id="NimbusRomNo9L-Regu-61" d="M 2829 423 
C 2720 333 2643 301 2547 301 
C 2400 301 2355 390 2355 672 
L 2355 1920 
C 2355 2253 2323 2438 2227 2592 
C 2086 2822 1811 2944 1434 2944 
C 832 2944 358 2630 358 2227 
C 358 2080 486 1952 634 1952 
C 787 1952 922 2080 922 2221 
C 922 2246 915 2278 909 2323 
C 896 2381 890 2432 890 2477 
C 890 2650 1094 2790 1350 2790 
C 1664 2790 1837 2605 1837 2259 
L 1837 1869 
C 851 1472 742 1421 467 1178 
C 326 1050 237 832 237 621 
C 237 218 518 -64 909 -64 
C 1190 -64 1453 70 1843 403 
C 1875 70 1990 -64 2253 -64 
C 2470 -64 2605 13 2829 256 
L 2829 423 
z
M 1837 783 
C 1837 584 1805 526 1670 449 
C 1517 359 1338 301 1203 301 
C 979 301 800 520 800 796 
L 800 822 
C 800 1201 1062 1433 1837 1715 
L 1837 783 
z
" transform="scale(0.015625)"/>
       <path id="NimbusRomNo9L-Regu-73" d="M 2016 2010 
L 1990 2880 
L 1920 2880 
L 1907 2867 
C 1850 2822 1843 2816 1818 2816 
C 1779 2816 1715 2829 1645 2861 
C 1504 2915 1363 2944 1197 2944 
C 691 2944 326 2616 326 2154 
C 326 1796 531 1539 1075 1231 
L 1446 1020 
C 1670 892 1779 737 1779 539 
C 1779 256 1574 77 1248 77 
C 1030 77 832 159 710 298 
C 576 455 518 600 435 960 
L 333 960 
L 333 -39 
L 416 -39 
C 461 33 486 48 563 48 
C 621 48 710 35 858 -2 
C 1037 -39 1210 -64 1325 -64 
C 1818 -64 2227 308 2227 757 
C 2227 1077 2074 1289 1690 1520 
L 998 1930 
C 819 2033 723 2194 723 2367 
C 723 2624 922 2803 1216 2803 
C 1581 2803 1773 2583 1920 2010 
L 2016 2010 
z
" transform="scale(0.015625)"/>
       <path id="NimbusRomNo9L-Regu-65" d="M 2611 1053 
C 2304 564 2029 378 1619 378 
C 1254 378 979 564 794 930 
C 678 1174 634 1386 621 1779 
L 2592 1779 
C 2541 2193 2477 2377 2317 2581 
C 2125 2811 1830 2944 1498 2944 
C 1178 2944 877 2829 634 2611 
C 333 2349 160 1894 160 1370 
C 160 486 621 -64 1357 -64 
C 1965 -64 2445 315 2714 1008 
L 2611 1053 
z
M 634 1984 
C 704 2479 922 2714 1312 2714 
C 1702 2714 1856 2535 1939 1984 
L 634 1984 
z
" transform="scale(0.015625)"/>
       <path id="NimbusRomNo9L-Regu-28" d="M 1888 4326 
C 1414 4019 1222 3853 986 3558 
C 531 3002 307 2362 307 1613 
C 307 800 544 173 1107 -480 
C 1370 -787 1536 -928 1869 -1133 
L 1946 -1030 
C 1434 -627 1254 -403 1082 77 
C 928 506 858 992 858 1632 
C 858 2304 941 2829 1114 3226 
C 1293 3622 1485 3853 1946 4224 
L 1888 4326 
z
" transform="scale(0.015625)"/>
       <path id="NimbusRomNo9L-Regu-47" d="M 4538 2304 
L 2906 2304 
L 2906 2176 
C 3181 2176 3258 2157 3334 2105 
C 3430 2047 3469 1898 3469 1621 
L 3469 574 
C 3469 367 3078 192 2618 192 
C 1574 192 934 922 934 2112 
C 934 2714 1114 3296 1395 3610 
C 1677 3924 2074 4096 2509 4096 
C 2867 4096 3181 3975 3430 3744 
C 3622 3565 3725 3392 3885 3002 
L 4032 3002 
L 3981 4352 
L 3840 4352 
C 3802 4231 3686 4141 3552 4141 
C 3488 4141 3386 4160 3270 4205 
C 2982 4301 2688 4352 2400 4352 
C 1120 4352 205 3412 205 2106 
C 205 1479 378 999 736 621 
C 1165 180 1779 -64 2483 -64 
C 3034 -64 3834 160 4090 385 
L 4090 1694 
C 4090 2073 4166 2157 4538 2189 
L 4538 2304 
z
" transform="scale(0.015625)"/>
       <path id="NimbusRomNo9L-Regu-56" d="M 4461 4231 
L 3149 4231 
L 3149 4096 
C 3501 4096 3616 4026 3616 3846 
C 3616 3744 3571 3572 3494 3380 
L 2554 1033 
L 1587 3199 
C 1376 3667 1325 3814 1325 3910 
C 1325 4032 1414 4096 1619 4096 
C 1645 4096 1715 4096 1805 4109 
L 1805 4231 
L 102 4231 
L 102 4096 
C 416 4096 506 4007 781 3439 
L 2355 -64 
L 2451 -64 
L 3872 3521 
C 4083 4026 4154 4096 4461 4096 
L 4461 4231 
z
" transform="scale(0.015625)"/>
       <path id="NimbusRomNo9L-Regu-29" d="M 243 -1133 
C 717 -826 909 -659 1146 -365 
C 1600 192 1824 832 1824 1581 
C 1824 2400 1587 3021 1024 3674 
C 762 3981 595 4122 262 4326 
L 186 4224 
C 698 3821 870 3597 1050 3117 
C 1203 2688 1274 2202 1274 1562 
C 1274 896 1190 365 1018 -26 
C 838 -429 646 -659 186 -1030 
L 243 -1133 
z
" transform="scale(0.015625)"/>
      </defs>
      <use xlink:href="#NimbusRomNo9L-Regu-4d" transform="scale(0.996264)"/>
      <use xlink:href="#NimbusRomNo9L-Regu-61" transform="translate(88.566907 0)scale(0.996264)"/>
      <use xlink:href="#NimbusRomNo9L-Regu-73" transform="translate(132.800475 0)scale(0.996264)"/>
      <use xlink:href="#NimbusRomNo9L-Regu-73" transform="translate(171.554182 0)scale(0.996264)"/>
      <use xlink:href="#NimbusRomNo9L-Regu-65" transform="translate(210.307888 0)scale(0.996264)"/>
      <use xlink:href="#NimbusRomNo9L-Regu-28" transform="translate(279.448057 0)scale(0.996264)"/>
      <use xlink:href="#NimbusRomNo9L-Regu-47" transform="translate(312.623286 0)scale(0.996264)"/>
      <use xlink:href="#NimbusRomNo9L-Regu-65" transform="translate(384.553271 0)scale(0.996264)"/>
      <use xlink:href="#NimbusRomNo9L-Regu-56" transform="translate(428.78684 0)scale(0.996264)"/>
      <use xlink:href="#NimbusRomNo9L-Regu-29" transform="translate(500.716825 0)scale(0.996264)"/>
     </g>
    </g>
   </g>
   <g id="matplotlib.axis_2">
    <g id="ytick_1">
     <g id="line2d_83">
      <defs>
       <path id="md889f95e64" d="M 0 0 
L 3 0 
" style="stroke: #000000; stroke-width: 0.5"/>
      </defs>
      <g>
       <use xlink:href="#md889f95e64" x="34.955367" y="235.695454" style="stroke: #000000; stroke-width: 0.5"/>
      </g>
     </g>
     <g id="line2d_84">
      <defs>
       <path id="m75a2a751d8" d="M 0 0 
L -3 0 
" style="stroke: #000000; stroke-width: 0.5"/>
      </defs>
      <g>
       <use xlink:href="#m75a2a751d8" x="369.755367" y="235.695454" style="stroke: #000000; stroke-width: 0.5"/>
      </g>
     </g>
     <g id="text_11">
      <!-- $\mathdefault{0}$ -->
      <g transform="translate(26.474047 239.072743)scale(0.1 -0.1)">
       <use xlink:href="#NimbusRomNo9L-Regu-30" transform="scale(0.996264)"/>
      </g>
     </g>
    </g>
    <g id="ytick_2">
     <g id="line2d_85">
      <g>
       <use xlink:href="#md889f95e64" x="34.955367" y="189.981168" style="stroke: #000000; stroke-width: 0.5"/>
      </g>
     </g>
     <g id="line2d_86">
      <g>
       <use xlink:href="#m75a2a751d8" x="369.755367" y="189.981168" style="stroke: #000000; stroke-width: 0.5"/>
      </g>
     </g>
     <g id="text_12">
      <!-- $\mathdefault{100}$ -->
      <g transform="translate(16.511406 193.358457)scale(0.1 -0.1)">
       <defs>
        <path id="NimbusRomNo9L-Regu-31" d="M 1862 4339 
L 710 3757 
L 710 3667 
C 787 3699 858 3725 883 3738 
C 998 3783 1107 3808 1171 3808 
C 1306 3808 1363 3711 1363 3505 
L 1363 592 
C 1363 379 1312 232 1210 173 
C 1114 116 1024 96 755 96 
L 755 0 
L 2522 0 
L 2522 96 
C 2016 96 1914 160 1914 470 
L 1914 4327 
L 1862 4339 
z
" transform="scale(0.015625)"/>
       </defs>
       <use xlink:href="#NimbusRomNo9L-Regu-31" transform="scale(0.996264)"/>
       <use xlink:href="#NimbusRomNo9L-Regu-30" transform="translate(49.8132 0)scale(0.996264)"/>
       <use xlink:href="#NimbusRomNo9L-Regu-30" transform="translate(99.626401 0)scale(0.996264)"/>
      </g>
     </g>
    </g>
    <g id="ytick_3">
     <g id="line2d_87">
      <g>
       <use xlink:href="#md889f95e64" x="34.955367" y="144.266883" style="stroke: #000000; stroke-width: 0.5"/>
      </g>
     </g>
     <g id="line2d_88">
      <g>
       <use xlink:href="#m75a2a751d8" x="369.755367" y="144.266883" style="stroke: #000000; stroke-width: 0.5"/>
      </g>
     </g>
     <g id="text_13">
      <!-- $\mathdefault{200}$ -->
      <g transform="translate(16.511406 147.644171)scale(0.1 -0.1)">
       <use xlink:href="#NimbusRomNo9L-Regu-32" transform="scale(0.996264)"/>
       <use xlink:href="#NimbusRomNo9L-Regu-30" transform="translate(49.8132 0)scale(0.996264)"/>
       <use xlink:href="#NimbusRomNo9L-Regu-30" transform="translate(99.626401 0)scale(0.996264)"/>
      </g>
     </g>
    </g>
    <g id="ytick_4">
     <g id="line2d_89">
      <g>
       <use xlink:href="#md889f95e64" x="34.955367" y="98.552597" style="stroke: #000000; stroke-width: 0.5"/>
      </g>
     </g>
     <g id="line2d_90">
      <g>
       <use xlink:href="#m75a2a751d8" x="369.755367" y="98.552597" style="stroke: #000000; stroke-width: 0.5"/>
      </g>
     </g>
     <g id="text_14">
      <!-- $\mathdefault{300}$ -->
      <g transform="translate(16.511406 101.929886)scale(0.1 -0.1)">
       <use xlink:href="#NimbusRomNo9L-Regu-33" transform="scale(0.996264)"/>
       <use xlink:href="#NimbusRomNo9L-Regu-30" transform="translate(49.8132 0)scale(0.996264)"/>
       <use xlink:href="#NimbusRomNo9L-Regu-30" transform="translate(99.626401 0)scale(0.996264)"/>
      </g>
     </g>
    </g>
    <g id="ytick_5">
     <g id="line2d_91">
      <g>
       <use xlink:href="#md889f95e64" x="34.955367" y="52.838311" style="stroke: #000000; stroke-width: 0.5"/>
      </g>
     </g>
     <g id="line2d_92">
      <g>
       <use xlink:href="#m75a2a751d8" x="369.755367" y="52.838311" style="stroke: #000000; stroke-width: 0.5"/>
      </g>
     </g>
     <g id="text_15">
      <!-- $\mathdefault{400}$ -->
      <g transform="translate(16.511406 56.2156)scale(0.1 -0.1)">
       <use xlink:href="#NimbusRomNo9L-Regu-34" transform="scale(0.996264)"/>
       <use xlink:href="#NimbusRomNo9L-Regu-30" transform="translate(49.8132 0)scale(0.996264)"/>
       <use xlink:href="#NimbusRomNo9L-Regu-30" transform="translate(99.626401 0)scale(0.996264)"/>
      </g>
     </g>
    </g>
    <g id="ytick_6">
     <g id="line2d_93">
      <defs>
       <path id="m21eae5efe8" d="M 0 0 
L 1.5 0 
" style="stroke: #000000; stroke-width: 0.5"/>
      </defs>
      <g>
       <use xlink:href="#m21eae5efe8" x="34.955367" y="226.552597" style="stroke: #000000; stroke-width: 0.5"/>
      </g>
     </g>
     <g id="line2d_94">
      <defs>
       <path id="ma2eb2b8a3e" d="M 0 0 
L -1.5 0 
" style="stroke: #000000; stroke-width: 0.5"/>
      </defs>
      <g>
       <use xlink:href="#ma2eb2b8a3e" x="369.755367" y="226.552597" style="stroke: #000000; stroke-width: 0.5"/>
      </g>
     </g>
    </g>
    <g id="ytick_7">
     <g id="line2d_95">
      <g>
       <use xlink:href="#m21eae5efe8" x="34.955367" y="217.40974" style="stroke: #000000; stroke-width: 0.5"/>
      </g>
     </g>
     <g id="line2d_96">
      <g>
       <use xlink:href="#ma2eb2b8a3e" x="369.755367" y="217.40974" style="stroke: #000000; stroke-width: 0.5"/>
      </g>
     </g>
    </g>
    <g id="ytick_8">
     <g id="line2d_97">
      <g>
       <use xlink:href="#m21eae5efe8" x="34.955367" y="208.266883" style="stroke: #000000; stroke-width: 0.5"/>
      </g>
     </g>
     <g id="line2d_98">
      <g>
       <use xlink:href="#ma2eb2b8a3e" x="369.755367" y="208.266883" style="stroke: #000000; stroke-width: 0.5"/>
      </g>
     </g>
    </g>
    <g id="ytick_9">
     <g id="line2d_99">
      <g>
       <use xlink:href="#m21eae5efe8" x="34.955367" y="199.124025" style="stroke: #000000; stroke-width: 0.5"/>
      </g>
     </g>
     <g id="line2d_100">
      <g>
       <use xlink:href="#ma2eb2b8a3e" x="369.755367" y="199.124025" style="stroke: #000000; stroke-width: 0.5"/>
      </g>
     </g>
    </g>
    <g id="ytick_10">
     <g id="line2d_101">
      <g>
       <use xlink:href="#m21eae5efe8" x="34.955367" y="180.838311" style="stroke: #000000; stroke-width: 0.5"/>
      </g>
     </g>
     <g id="line2d_102">
      <g>
       <use xlink:href="#ma2eb2b8a3e" x="369.755367" y="180.838311" style="stroke: #000000; stroke-width: 0.5"/>
      </g>
     </g>
    </g>
    <g id="ytick_11">
     <g id="line2d_103">
      <g>
       <use xlink:href="#m21eae5efe8" x="34.955367" y="171.695454" style="stroke: #000000; stroke-width: 0.5"/>
      </g>
     </g>
     <g id="line2d_104">
      <g>
       <use xlink:href="#ma2eb2b8a3e" x="369.755367" y="171.695454" style="stroke: #000000; stroke-width: 0.5"/>
      </g>
     </g>
    </g>
    <g id="ytick_12">
     <g id="line2d_105">
      <g>
       <use xlink:href="#m21eae5efe8" x="34.955367" y="162.552597" style="stroke: #000000; stroke-width: 0.5"/>
      </g>
     </g>
     <g id="line2d_106">
      <g>
       <use xlink:href="#ma2eb2b8a3e" x="369.755367" y="162.552597" style="stroke: #000000; stroke-width: 0.5"/>
      </g>
     </g>
    </g>
    <g id="ytick_13">
     <g id="line2d_107">
      <g>
       <use xlink:href="#m21eae5efe8" x="34.955367" y="153.40974" style="stroke: #000000; stroke-width: 0.5"/>
      </g>
     </g>
     <g id="line2d_108">
      <g>
       <use xlink:href="#ma2eb2b8a3e" x="369.755367" y="153.40974" style="stroke: #000000; stroke-width: 0.5"/>
      </g>
     </g>
    </g>
    <g id="ytick_14">
     <g id="line2d_109">
      <g>
       <use xlink:href="#m21eae5efe8" x="34.955367" y="135.124025" style="stroke: #000000; stroke-width: 0.5"/>
      </g>
     </g>
     <g id="line2d_110">
      <g>
       <use xlink:href="#ma2eb2b8a3e" x="369.755367" y="135.124025" style="stroke: #000000; stroke-width: 0.5"/>
      </g>
     </g>
    </g>
    <g id="ytick_15">
     <g id="line2d_111">
      <g>
       <use xlink:href="#m21eae5efe8" x="34.955367" y="125.981168" style="stroke: #000000; stroke-width: 0.5"/>
      </g>
     </g>
     <g id="line2d_112">
      <g>
       <use xlink:href="#ma2eb2b8a3e" x="369.755367" y="125.981168" style="stroke: #000000; stroke-width: 0.5"/>
      </g>
     </g>
    </g>
    <g id="ytick_16">
     <g id="line2d_113">
      <g>
       <use xlink:href="#m21eae5efe8" x="34.955367" y="116.838311" style="stroke: #000000; stroke-width: 0.5"/>
      </g>
     </g>
     <g id="line2d_114">
      <g>
       <use xlink:href="#ma2eb2b8a3e" x="369.755367" y="116.838311" style="stroke: #000000; stroke-width: 0.5"/>
      </g>
     </g>
    </g>
    <g id="ytick_17">
     <g id="line2d_115">
      <g>
       <use xlink:href="#m21eae5efe8" x="34.955367" y="107.695454" style="stroke: #000000; stroke-width: 0.5"/>
      </g>
     </g>
     <g id="line2d_116">
      <g>
       <use xlink:href="#ma2eb2b8a3e" x="369.755367" y="107.695454" style="stroke: #000000; stroke-width: 0.5"/>
      </g>
     </g>
    </g>
    <g id="ytick_18">
     <g id="line2d_117">
      <g>
       <use xlink:href="#m21eae5efe8" x="34.955367" y="89.40974" style="stroke: #000000; stroke-width: 0.5"/>
      </g>
     </g>
     <g id="line2d_118">
      <g>
       <use xlink:href="#ma2eb2b8a3e" x="369.755367" y="89.40974" style="stroke: #000000; stroke-width: 0.5"/>
      </g>
     </g>
    </g>
    <g id="ytick_19">
     <g id="line2d_119">
      <g>
       <use xlink:href="#m21eae5efe8" x="34.955367" y="80.266883" style="stroke: #000000; stroke-width: 0.5"/>
      </g>
     </g>
     <g id="line2d_120">
      <g>
       <use xlink:href="#ma2eb2b8a3e" x="369.755367" y="80.266883" style="stroke: #000000; stroke-width: 0.5"/>
      </g>
     </g>
    </g>
    <g id="ytick_20">
     <g id="line2d_121">
      <g>
       <use xlink:href="#m21eae5efe8" x="34.955367" y="71.124025" style="stroke: #000000; stroke-width: 0.5"/>
      </g>
     </g>
     <g id="line2d_122">
      <g>
       <use xlink:href="#ma2eb2b8a3e" x="369.755367" y="71.124025" style="stroke: #000000; stroke-width: 0.5"/>
      </g>
     </g>
    </g>
    <g id="ytick_21">
     <g id="line2d_123">
      <g>
       <use xlink:href="#m21eae5efe8" x="34.955367" y="61.981168" style="stroke: #000000; stroke-width: 0.5"/>
      </g>
     </g>
     <g id="line2d_124">
      <g>
       <use xlink:href="#ma2eb2b8a3e" x="369.755367" y="61.981168" style="stroke: #000000; stroke-width: 0.5"/>
      </g>
     </g>
    </g>
    <g id="ytick_22">
     <g id="line2d_125">
      <g>
       <use xlink:href="#m21eae5efe8" x="34.955367" y="43.695454" style="stroke: #000000; stroke-width: 0.5"/>
      </g>
     </g>
     <g id="line2d_126">
      <g>
       <use xlink:href="#ma2eb2b8a3e" x="369.755367" y="43.695454" style="stroke: #000000; stroke-width: 0.5"/>
      </g>
     </g>
    </g>
    <g id="ytick_23">
     <g id="line2d_127">
      <g>
       <use xlink:href="#m21eae5efe8" x="34.955367" y="34.552597" style="stroke: #000000; stroke-width: 0.5"/>
      </g>
     </g>
     <g id="line2d_128">
      <g>
       <use xlink:href="#ma2eb2b8a3e" x="369.755367" y="34.552597" style="stroke: #000000; stroke-width: 0.5"/>
      </g>
     </g>
    </g>
    <g id="ytick_24">
     <g id="line2d_129">
      <g>
       <use xlink:href="#m21eae5efe8" x="34.955367" y="25.40974" style="stroke: #000000; stroke-width: 0.5"/>
      </g>
     </g>
     <g id="line2d_130">
      <g>
       <use xlink:href="#ma2eb2b8a3e" x="369.755367" y="25.40974" style="stroke: #000000; stroke-width: 0.5"/>
      </g>
     </g>
    </g>
    <g id="text_16">
     <!-- N -->
     <g transform="translate(10.354578 130.571953)rotate(-90)scale(0.1 -0.1)">
      <defs>
       <path id="NimbusRomNo9L-Regu-4e" d="M 3917 -64 
L 3917 3287 
C 3917 3669 3981 3905 4102 3987 
C 4192 4051 4282 4077 4525 4102 
L 4525 4224 
L 3021 4224 
L 3021 4102 
C 3264 4083 3354 4057 3450 4000 
C 3578 3911 3635 3681 3635 3286 
L 3635 1136 
L 1171 4224 
L 77 4224 
L 77 4102 
C 352 4102 442 4051 698 3751 
L 698 938 
C 698 281 608 159 77 121 
L 77 0 
L 1581 0 
L 1581 134 
C 1088 134 979 281 979 928 
L 979 3439 
L 3808 -64 
L 3917 -64 
z
" transform="scale(0.015625)"/>
      </defs>
      <use xlink:href="#NimbusRomNo9L-Regu-4e" transform="scale(0.996264)"/>
     </g>
    </g>
   </g>
   <g id="patch_103">
    <path d="M 34.955367 235.695454 
L 34.955367 18.255454 
" style="fill: none; stroke: #000000; stroke-width: 0.5; stroke-linejoin: miter; stroke-linecap: square"/>
   </g>
   <g id="patch_104">
    <path d="M 369.755367 235.695454 
L 369.755367 18.255454 
" style="fill: none; stroke: #000000; stroke-width: 0.5; stroke-linejoin: miter; stroke-linecap: square"/>
   </g>
   <g id="patch_105">
    <path d="M 34.955367 235.695454 
L 369.755367 235.695454 
" style="fill: none; stroke: #000000; stroke-width: 0.5; stroke-linejoin: miter; stroke-linecap: square"/>
   </g>
   <g id="patch_106">
    <path d="M 34.955367 18.255454 
L 369.755367 18.255454 
" style="fill: none; stroke: #000000; stroke-width: 0.5; stroke-linejoin: miter; stroke-linecap: square"/>
   </g>
   <g id="text_17">
    <!-- Histogramme du paramtre $\tan \beta$ -->
    <g transform="translate(124.204622 12.255454)scale(0.12 -0.12)">
     <defs>
      <path id="NimbusRomNo9L-Regu-48" d="M 1338 2304 
L 1338 3533 
C 1338 3990 1408 4059 1901 4104 
L 1901 4224 
L 122 4224 
L 122 4104 
C 614 4059 685 3989 685 3527 
L 685 749 
C 685 210 621 134 122 134 
L 122 0 
L 1901 0 
L 1901 121 
C 1421 159 1338 242 1338 699 
L 1338 2022 
L 3277 2022 
L 3277 757 
C 3277 211 3213 134 2714 134 
L 2714 0 
L 4493 0 
L 4493 121 
C 4013 159 3930 242 3930 696 
L 3930 3529 
C 3930 3989 4000 4059 4493 4104 
L 4493 4224 
L 2714 4224 
L 2714 4104 
C 3206 4059 3277 3990 3277 3533 
L 3277 2304 
L 1338 2304 
z
" transform="scale(0.015625)"/>
      <path id="NimbusRomNo9L-Regu-69" d="M 1120 2929 
L 128 2579 
L 128 2484 
L 179 2490 
C 256 2502 339 2509 397 2509 
C 550 2509 608 2406 608 2125 
L 608 640 
C 608 179 544 109 102 109 
L 102 0 
L 1619 0 
L 1619 96 
C 1197 128 1146 191 1146 650 
L 1146 2910 
L 1120 2929 
z
M 819 4352 
C 646 4352 499 4205 499 4026 
C 499 3847 640 3699 819 3699 
C 1005 3699 1152 3840 1152 4026 
C 1152 4205 1005 4352 819 4352 
z
" transform="scale(0.015625)"/>
      <path id="NimbusRomNo9L-Regu-74" d="M 1632 2880 
L 986 2880 
L 986 3622 
C 986 3686 979 3706 941 3706 
C 896 3648 858 3590 813 3526 
C 570 3174 294 2867 192 2841 
C 122 2794 83 2748 83 2715 
C 83 2695 90 2682 109 2682 
L 448 2682 
L 448 751 
C 448 212 640 -64 1018 -64 
C 1331 -64 1574 90 1786 423 
L 1702 493 
C 1568 333 1459 269 1318 269 
C 1082 269 986 443 986 847 
L 986 2682 
L 1632 2682 
L 1632 2880 
z
" transform="scale(0.015625)"/>
      <path id="NimbusRomNo9L-Regu-6f" d="M 1600 2944 
C 768 2944 186 2330 186 1446 
C 186 582 781 -64 1587 -64 
C 2394 -64 3008 614 3008 1498 
C 3008 2336 2419 2944 1600 2944 
z
M 1517 2765 
C 2054 2765 2432 2150 2432 1274 
C 2432 550 2144 115 1664 115 
C 1414 115 1178 269 1043 525 
C 864 858 762 1306 762 1760 
C 762 2368 1062 2765 1517 2765 
z
" transform="scale(0.015625)"/>
      <path id="NimbusRomNo9L-Regu-67" d="M 3008 2496 
L 3008 2746 
L 2515 2746 
C 2387 2746 2291 2763 2163 2802 
L 2022 2847 
C 1850 2903 1677 2931 1510 2931 
C 915 2931 442 2467 442 1881 
C 442 1476 614 1230 1037 1018 
C 915 906 800 799 762 768 
C 550 588 467 463 467 338 
C 467 206 544 131 806 6 
C 352 -329 179 -543 179 -781 
C 179 -1124 678 -1408 1286 -1408 
C 1766 -1408 2266 -1238 2598 -962 
C 2842 -759 2950 -548 2950 -299 
C 2950 108 2650 384 2176 384 
L 1350 384 
C 1011 384 851 443 851 548 
C 851 678 1062 908 1235 960 
C 1293 953 1338 947 1357 947 
C 1478 934 1562 928 1600 928 
C 1837 928 2093 1026 2291 1203 
C 2502 1387 2598 1617 2598 1945 
C 2598 2135 2566 2286 2477 2496 
L 3008 2496 
z
M 941 -13 
C 1152 -58 1664 -96 1978 -96 
C 2560 -96 2771 -180 2771 -414 
C 2771 -791 2285 -1043 1562 -1043 
C 998 -1043 627 -855 627 -570 
C 627 -420 672 -336 941 -13 
z
M 973 2145 
C 973 2526 1152 2752 1446 2752 
C 1645 2752 1811 2642 1914 2449 
C 2029 2223 2106 1927 2106 1675 
C 2106 1314 1920 1088 1626 1088 
C 1242 1088 973 1507 973 2126 
L 973 2145 
z
" transform="scale(0.015625)"/>
      <path id="NimbusRomNo9L-Regu-72" d="M 45 2496 
C 134 2515 192 2522 269 2522 
C 429 2522 486 2419 486 2138 
L 486 538 
C 486 218 442 173 32 96 
L 32 0 
L 1568 0 
L 1568 102 
C 1133 102 1024 199 1024 565 
L 1024 2013 
C 1024 2219 1299 2541 1472 2541 
C 1510 2541 1568 2509 1638 2445 
C 1741 2355 1811 2317 1894 2317 
C 2048 2317 2144 2426 2144 2605 
C 2144 2816 2010 2944 1792 2944 
C 1523 2944 1338 2797 1024 2343 
L 1024 2931 
L 992 2944 
C 653 2803 422 2721 45 2599 
L 45 2496 
z
" transform="scale(0.015625)"/>
      <path id="NimbusRomNo9L-Regu-6d" d="M 122 2547 
C 205 2566 256 2573 326 2573 
C 493 2573 550 2470 550 2162 
L 550 539 
C 550 192 461 96 102 96 
L 102 0 
L 1523 0 
L 1523 96 
C 1184 96 1088 166 1088 418 
L 1088 2234 
C 1088 2246 1139 2310 1184 2355 
C 1344 2502 1619 2611 1843 2611 
C 2125 2611 2266 2385 2266 1932 
L 2266 528 
C 2266 167 2195 96 1830 96 
L 1830 0 
L 3264 0 
L 3264 96 
C 2899 96 2803 205 2803 603 
L 2803 2221 
C 2995 2496 3206 2611 3501 2611 
C 3866 2611 3981 2438 3981 1907 
L 3981 557 
C 3981 192 3930 141 3558 96 
L 3558 0 
L 4960 0 
L 4960 96 
L 4794 115 
C 4602 115 4518 230 4518 480 
L 4518 1802 
C 4518 2559 4269 2944 3776 2944 
C 3405 2944 3078 2778 2733 2407 
C 2618 2771 2400 2944 2054 2944 
C 1773 2944 1594 2854 1062 2451 
L 1062 2931 
L 1018 2944 
C 691 2822 474 2752 122 2656 
L 122 2547 
z
" transform="scale(0.015625)"/>
      <path id="NimbusRomNo9L-Regu-64" d="M 2202 -64 
L 3142 269 
L 3142 365 
C 3027 365 3014 365 2995 365 
C 2765 365 2714 435 2714 731 
L 2714 4364 
L 2682 4377 
C 2374 4268 2150 4204 1741 4096 
L 1741 3994 
C 1792 4000 1830 4000 1882 4000 
C 2118 4000 2176 3936 2176 3672 
L 2176 2669 
C 1933 2874 1760 2944 1504 2944 
C 768 2944 173 2221 173 1312 
C 173 493 653 -64 1357 -64 
C 1715 -64 1958 64 2176 365 
L 2176 -45 
L 2202 -64 
z
M 2176 653 
C 2176 608 2131 531 2067 461 
C 1952 333 1792 269 1606 269 
C 1075 269 723 781 723 1568 
C 723 2291 1037 2765 1523 2765 
C 1862 2765 2176 2464 2176 2125 
L 2176 653 
z
" transform="scale(0.015625)"/>
      <path id="NimbusRomNo9L-Regu-75" d="M 3066 320 
L 3034 320 
C 2739 320 2669 390 2669 685 
L 2669 2880 
L 1658 2880 
L 1658 2758 
C 2054 2758 2131 2694 2131 2375 
L 2131 875 
C 2131 697 2099 607 2010 537 
C 1837 397 1638 320 1446 320 
C 1197 320 992 537 992 805 
L 992 2880 
L 58 2880 
L 58 2778 
C 365 2778 454 2682 454 2387 
L 454 770 
C 454 263 762 -64 1229 -64 
C 1466 -64 1715 38 1888 211 
L 2163 486 
L 2163 -45 
L 2189 -58 
C 2509 70 2739 141 3066 230 
L 3066 320 
z
" transform="scale(0.015625)"/>
      <path id="NimbusRomNo9L-Regu-70" d="M 58 2516 
C 115 2522 160 2522 218 2522 
C 435 2522 480 2458 480 2155 
L 480 -855 
C 480 -1189 410 -1261 32 -1299 
L 32 -1408 
L 1581 -1408 
L 1581 -1293 
C 1101 -1293 1018 -1222 1018 -816 
L 1018 199 
C 1242 -13 1395 -77 1664 -77 
C 2419 -77 3008 643 3008 1575 
C 3008 2372 2560 2944 1939 2944 
C 1581 2944 1299 2784 1018 2438 
L 1018 2931 
L 979 2944 
C 634 2810 410 2726 58 2618 
L 58 2516 
z
M 1018 2136 
C 1018 2329 1376 2560 1670 2560 
C 2144 2560 2458 2071 2458 1324 
C 2458 611 2144 128 1683 128 
C 1382 128 1018 359 1018 552 
L 1018 2136 
z
" transform="scale(0.015625)"/>
      <path id="NimbusRomNo9L-Regu-1e" d="M 1549 3264 
L 608 4206 
C 493 4320 435 4352 339 4352 
C 205 4352 122 4275 122 4155 
C 122 4053 192 3957 307 3882 
L 1293 3264 
L 1549 3264 
z
" transform="scale(0.015625)"/>
      <path id="NimbusRomNo9L-Regu-6e" d="M 102 2579 
C 141 2598 205 2605 275 2605 
C 454 2605 512 2509 512 2195 
L 512 608 
C 512 243 442 154 115 128 
L 115 32 
L 1472 32 
L 1472 128 
C 1146 154 1050 230 1050 461 
L 1050 2259 
C 1357 2547 1498 2624 1709 2624 
C 2022 2624 2176 2426 2176 2003 
L 2176 666 
C 2176 262 2093 154 1773 128 
L 1773 32 
L 3104 32 
L 3104 128 
C 2790 160 2714 237 2714 550 
L 2714 2016 
C 2714 2618 2432 2976 1958 2976 
C 1664 2976 1466 2867 1030 2458 
L 1030 2963 
L 986 2976 
C 672 2861 454 2790 102 2688 
L 102 2579 
z
" transform="scale(0.015625)"/>
      <path id="StandardSymL-62" d="M 506 -386 
C 506 -725 454 -1165 390 -1408 
L 915 -1408 
C 998 -1260 1018 -1086 1018 -586 
L 1018 286 
C 1357 32 1638 -64 2010 -64 
C 2771 -64 3296 490 3296 1302 
C 3296 1976 2957 2448 2253 2744 
C 2739 3010 2970 3309 2970 3678 
C 2970 4256 2400 4736 1715 4736 
C 1024 4736 506 4282 506 3675 
L 506 -386 
z
M 1018 3741 
C 1018 4187 1286 4500 1664 4500 
C 2067 4500 2355 4122 2355 3601 
C 2355 3256 2176 2884 2010 2884 
C 1990 2884 1971 2884 1869 2915 
C 1773 2937 1722 2944 1670 2944 
C 1517 2944 1395 2842 1395 2721 
C 1395 2600 1510 2524 1677 2524 
C 1715 2524 1747 2529 1811 2539 
C 1888 2554 1952 2560 2003 2560 
C 2086 2560 2131 2547 2170 2510 
C 2458 2245 2630 1768 2630 1253 
C 2630 625 2349 254 1875 254 
C 1555 254 1235 400 1018 645 
L 1018 3741 
z
" transform="scale(0.015625)"/>
     </defs>
     <use xlink:href="#NimbusRomNo9L-Regu-48" transform="scale(0.996264)"/>
     <use xlink:href="#NimbusRomNo9L-Regu-69" transform="translate(71.929985 0)scale(0.996264)"/>
     <use xlink:href="#NimbusRomNo9L-Regu-73" transform="translate(99.625154 0)scale(0.996264)"/>
     <use xlink:href="#NimbusRomNo9L-Regu-74" transform="translate(138.378861 0)scale(0.996264)"/>
     <use xlink:href="#NimbusRomNo9L-Regu-6f" transform="translate(166.07403 0)scale(0.996264)"/>
     <use xlink:href="#NimbusRomNo9L-Regu-67" transform="translate(215.887231 0)scale(0.996264)"/>
     <use xlink:href="#NimbusRomNo9L-Regu-72" transform="translate(265.700431 0)scale(0.996264)"/>
     <use xlink:href="#NimbusRomNo9L-Regu-61" transform="translate(298.875661 0)scale(0.996264)"/>
     <use xlink:href="#NimbusRomNo9L-Regu-6d" transform="translate(343.10923 0)scale(0.996264)"/>
     <use xlink:href="#NimbusRomNo9L-Regu-6d" transform="translate(420.6176 0)scale(0.996264)"/>
     <use xlink:href="#NimbusRomNo9L-Regu-65" transform="translate(498.12597 0)scale(0.996264)"/>
     <use xlink:href="#NimbusRomNo9L-Regu-64" transform="translate(567.266139 0)scale(0.996264)"/>
     <use xlink:href="#NimbusRomNo9L-Regu-75" transform="translate(617.079339 0)scale(0.996264)"/>
     <use xlink:href="#NimbusRomNo9L-Regu-70" transform="translate(691.79914 0)scale(0.996264)"/>
     <use xlink:href="#NimbusRomNo9L-Regu-61" transform="translate(741.612341 0)scale(0.996264)"/>
     <use xlink:href="#NimbusRomNo9L-Regu-72" transform="translate(785.845909 0)scale(0.996264)"/>
     <use xlink:href="#NimbusRomNo9L-Regu-61" transform="translate(819.021139 0)scale(0.996264)"/>
     <use xlink:href="#NimbusRomNo9L-Regu-6d" transform="translate(863.254708 0)scale(0.996264)"/>
     <use xlink:href="#NimbusRomNo9L-Regu-1e" transform="translate(946.292255 0.498056)scale(0.996264)"/>
     <use xlink:href="#NimbusRomNo9L-Regu-65" transform="translate(940.763078 0)scale(0.996264)"/>
     <use xlink:href="#NimbusRomNo9L-Regu-74" transform="translate(984.996646 0)scale(0.996264)"/>
     <use xlink:href="#NimbusRomNo9L-Regu-72" transform="translate(1012.691816 0)scale(0.996264)"/>
     <use xlink:href="#NimbusRomNo9L-Regu-65" transform="translate(1045.867046 0)scale(0.996264)"/>
     <use xlink:href="#NimbusRomNo9L-Regu-74" transform="translate(1115.007215 0)scale(0.996264)"/>
     <use xlink:href="#NimbusRomNo9L-Regu-61" transform="translate(1142.702384 0)scale(0.996264)"/>
     <use xlink:href="#NimbusRomNo9L-Regu-6e" transform="translate(1186.935953 0)scale(0.996264)"/>
     <use xlink:href="#StandardSymL-62" transform="translate(1247.818727 0)scale(0.996264)"/>
    </g>
   </g>
  </g>
 </g>
 <defs>
  <clipPath id="padee607b72">
   <rect x="34.955367" y="18.255454" width="334.8" height="217.44"/>
  </clipPath>
 </defs>
</svg>
