<?xml version="1.0" encoding="utf-8" standalone="no"?>
<!DOCTYPE svg PUBLIC "-//W3C//DTD SVG 1.1//EN"
  "http://www.w3.org/Graphics/SVG/1.1/DTD/svg11.dtd">
<svg xmlns:xlink="http://www.w3.org/1999/xlink" width="432pt" height="288pt" viewBox="0 0 432 288" xmlns="http://www.w3.org/2000/svg" version="1.1">
 <metadata>
  <rdf:RDF xmlns:dc="http://purl.org/dc/elements/1.1/" xmlns:cc="http://creativecommons.org/ns#" xmlns:rdf="http://www.w3.org/1999/02/22-rdf-syntax-ns#">
   <cc:Work>
    <dc:type rdf:resource="http://purl.org/dc/dcmitype/StillImage"/>
    <dc:date>2022-06-22T14:06:28.186574</dc:date>
    <dc:format>image/svg+xml</dc:format>
    <dc:creator>
     <cc:Agent>
      <dc:title>Matplotlib v3.5.0, https://matplotlib.org/</dc:title>
     </cc:Agent>
    </dc:creator>
   </cc:Work>
  </rdf:RDF>
 </metadata>
 <defs>
  <style type="text/css">*{stroke-linejoin: round; stroke-linecap: butt}</style>
 </defs>
 <g id="figure_1">
  <g id="patch_1">
   <path d="M 0 288 
L 432 288 
L 432 0 
L 0 0 
L 0 288 
z
" style="fill: none"/>
  </g>
  <g id="axes_1">
   <g id="patch_2">
    <path d="M 22.72524 88.384455 
L 428.99976 88.384455 
L 428.99976 36.212595 
L 22.72524 36.212595 
z
" style="fill: #ffffff"/>
   </g>
   <g id="patch_3">
    <path d="M 41.192264 88.384455 
L 44.885668 88.384455 
L 44.885668 53.189153 
L 41.192264 53.189153 
z
" clip-path="url(#p3418fc0872)" style="fill: #1f77b4"/>
   </g>
   <g id="patch_4">
    <path d="M 44.885668 88.384455 
L 48.579073 88.384455 
L 48.579073 42.837593 
L 44.885668 42.837593 
z
" clip-path="url(#p3418fc0872)" style="fill: #1f77b4"/>
   </g>
   <g id="patch_5">
    <path d="M 48.579073 88.384455 
L 52.272478 88.384455 
L 52.272478 57.329776 
L 48.579073 57.329776 
z
" clip-path="url(#p3418fc0872)" style="fill: #1f77b4"/>
   </g>
   <g id="patch_6">
    <path d="M 52.272478 88.384455 
L 55.965883 88.384455 
L 55.965883 59.400088 
L 52.272478 59.400088 
z
" clip-path="url(#p3418fc0872)" style="fill: #1f77b4"/>
   </g>
   <g id="patch_7">
    <path d="M 55.965883 88.384455 
L 59.659287 88.384455 
L 59.659287 42.837593 
L 55.965883 42.837593 
z
" clip-path="url(#p3418fc0872)" style="fill: #1f77b4"/>
   </g>
   <g id="patch_8">
    <path d="M 59.659287 88.384455 
L 63.352692 88.384455 
L 63.352692 46.978217 
L 59.659287 46.978217 
z
" clip-path="url(#p3418fc0872)" style="fill: #1f77b4"/>
   </g>
   <g id="patch_9">
    <path d="M 63.352692 88.384455 
L 67.046097 88.384455 
L 67.046097 59.400088 
L 63.352692 59.400088 
z
" clip-path="url(#p3418fc0872)" style="fill: #1f77b4"/>
   </g>
   <g id="patch_10">
    <path d="M 67.046097 88.384455 
L 70.739501 88.384455 
L 70.739501 51.118841 
L 67.046097 51.118841 
z
" clip-path="url(#p3418fc0872)" style="fill: #1f77b4"/>
   </g>
   <g id="patch_11">
    <path d="M 70.739501 88.384455 
L 74.432906 88.384455 
L 74.432906 61.4704 
L 70.739501 61.4704 
z
" clip-path="url(#p3418fc0872)" style="fill: #1f77b4"/>
   </g>
   <g id="patch_12">
    <path d="M 74.432906 88.384455 
L 78.126311 88.384455 
L 78.126311 51.118841 
L 74.432906 51.118841 
z
" clip-path="url(#p3418fc0872)" style="fill: #1f77b4"/>
   </g>
   <g id="patch_13">
    <path d="M 78.126311 88.384455 
L 81.819716 88.384455 
L 81.819716 57.329776 
L 78.126311 57.329776 
z
" clip-path="url(#p3418fc0872)" style="fill: #1f77b4"/>
   </g>
   <g id="patch_14">
    <path d="M 81.819716 88.384455 
L 85.51312 88.384455 
L 85.51312 71.82196 
L 81.819716 71.82196 
z
" clip-path="url(#p3418fc0872)" style="fill: #1f77b4"/>
   </g>
   <g id="patch_15">
    <path d="M 85.51312 88.384455 
L 89.206525 88.384455 
L 89.206525 67.681336 
L 85.51312 67.681336 
z
" clip-path="url(#p3418fc0872)" style="fill: #1f77b4"/>
   </g>
   <g id="patch_16">
    <path d="M 89.206525 88.384455 
L 92.89993 88.384455 
L 92.89993 67.681336 
L 89.206525 67.681336 
z
" clip-path="url(#p3418fc0872)" style="fill: #1f77b4"/>
   </g>
   <g id="patch_17">
    <path d="M 92.89993 88.384455 
L 96.593335 88.384455 
L 96.593335 67.681336 
L 92.89993 67.681336 
z
" clip-path="url(#p3418fc0872)" style="fill: #1f77b4"/>
   </g>
   <g id="patch_18">
    <path d="M 96.593335 88.384455 
L 100.286739 88.384455 
L 100.286739 65.611024 
L 96.593335 65.611024 
z
" clip-path="url(#p3418fc0872)" style="fill: #1f77b4"/>
   </g>
   <g id="patch_19">
    <path d="M 100.286739 88.384455 
L 103.980144 88.384455 
L 103.980144 69.751648 
L 100.286739 69.751648 
z
" clip-path="url(#p3418fc0872)" style="fill: #1f77b4"/>
   </g>
   <g id="patch_20">
    <path d="M 103.980144 88.384455 
L 107.673549 88.384455 
L 107.673549 69.751648 
L 103.980144 69.751648 
z
" clip-path="url(#p3418fc0872)" style="fill: #1f77b4"/>
   </g>
   <g id="patch_21">
    <path d="M 107.673549 88.384455 
L 111.366953 88.384455 
L 111.366953 75.962584 
L 107.673549 75.962584 
z
" clip-path="url(#p3418fc0872)" style="fill: #1f77b4"/>
   </g>
   <g id="patch_22">
    <path d="M 111.366953 88.384455 
L 115.060358 88.384455 
L 115.060358 73.892272 
L 111.366953 73.892272 
z
" clip-path="url(#p3418fc0872)" style="fill: #1f77b4"/>
   </g>
   <g id="patch_23">
    <path d="M 115.060358 88.384455 
L 118.753763 88.384455 
L 118.753763 71.82196 
L 115.060358 71.82196 
z
" clip-path="url(#p3418fc0872)" style="fill: #1f77b4"/>
   </g>
   <g id="patch_24">
    <path d="M 118.753763 88.384455 
L 122.447168 88.384455 
L 122.447168 78.032895 
L 118.753763 78.032895 
z
" clip-path="url(#p3418fc0872)" style="fill: #1f77b4"/>
   </g>
   <g id="patch_25">
    <path d="M 122.447168 88.384455 
L 126.140572 88.384455 
L 126.140572 75.962584 
L 122.447168 75.962584 
z
" clip-path="url(#p3418fc0872)" style="fill: #1f77b4"/>
   </g>
   <g id="patch_26">
    <path d="M 126.140572 88.384455 
L 129.833977 88.384455 
L 129.833977 84.243831 
L 126.140572 84.243831 
z
" clip-path="url(#p3418fc0872)" style="fill: #1f77b4"/>
   </g>
   <g id="patch_27">
    <path d="M 129.833977 88.384455 
L 133.527382 88.384455 
L 133.527382 82.173519 
L 129.833977 82.173519 
z
" clip-path="url(#p3418fc0872)" style="fill: #1f77b4"/>
   </g>
   <g id="patch_28">
    <path d="M 133.527382 88.384455 
L 137.220787 88.384455 
L 137.220787 82.173519 
L 133.527382 82.173519 
z
" clip-path="url(#p3418fc0872)" style="fill: #1f77b4"/>
   </g>
   <g id="patch_29">
    <path d="M 137.220787 88.384455 
L 140.914191 88.384455 
L 140.914191 80.103207 
L 137.220787 80.103207 
z
" clip-path="url(#p3418fc0872)" style="fill: #1f77b4"/>
   </g>
   <g id="patch_30">
    <path d="M 140.914191 88.384455 
L 144.607596 88.384455 
L 144.607596 73.892272 
L 140.914191 73.892272 
z
" clip-path="url(#p3418fc0872)" style="fill: #1f77b4"/>
   </g>
   <g id="patch_31">
    <path d="M 144.607596 88.384455 
L 148.301001 88.384455 
L 148.301001 78.032895 
L 144.607596 78.032895 
z
" clip-path="url(#p3418fc0872)" style="fill: #1f77b4"/>
   </g>
   <g id="patch_32">
    <path d="M 148.301001 88.384455 
L 151.994405 88.384455 
L 151.994405 84.243831 
L 148.301001 84.243831 
z
" clip-path="url(#p3418fc0872)" style="fill: #1f77b4"/>
   </g>
   <g id="patch_33">
    <path d="M 151.994405 88.384455 
L 155.68781 88.384455 
L 155.68781 84.243831 
L 151.994405 84.243831 
z
" clip-path="url(#p3418fc0872)" style="fill: #1f77b4"/>
   </g>
   <g id="patch_34">
    <path d="M 155.68781 88.384455 
L 159.381215 88.384455 
L 159.381215 78.032895 
L 155.68781 78.032895 
z
" clip-path="url(#p3418fc0872)" style="fill: #1f77b4"/>
   </g>
   <g id="patch_35">
    <path d="M 159.381215 88.384455 
L 163.07462 88.384455 
L 163.07462 82.173519 
L 159.381215 82.173519 
z
" clip-path="url(#p3418fc0872)" style="fill: #1f77b4"/>
   </g>
   <g id="patch_36">
    <path d="M 163.07462 88.384455 
L 166.768024 88.384455 
L 166.768024 75.962584 
L 163.07462 75.962584 
z
" clip-path="url(#p3418fc0872)" style="fill: #1f77b4"/>
   </g>
   <g id="patch_37">
    <path d="M 166.768024 88.384455 
L 170.461429 88.384455 
L 170.461429 73.892272 
L 166.768024 73.892272 
z
" clip-path="url(#p3418fc0872)" style="fill: #1f77b4"/>
   </g>
   <g id="patch_38">
    <path d="M 170.461429 88.384455 
L 174.154834 88.384455 
L 174.154834 82.173519 
L 170.461429 82.173519 
z
" clip-path="url(#p3418fc0872)" style="fill: #1f77b4"/>
   </g>
   <g id="patch_39">
    <path d="M 174.154834 88.384455 
L 177.848239 88.384455 
L 177.848239 78.032895 
L 174.154834 78.032895 
z
" clip-path="url(#p3418fc0872)" style="fill: #1f77b4"/>
   </g>
   <g id="patch_40">
    <path d="M 177.848239 88.384455 
L 181.541643 88.384455 
L 181.541643 80.103207 
L 177.848239 80.103207 
z
" clip-path="url(#p3418fc0872)" style="fill: #1f77b4"/>
   </g>
   <g id="patch_41">
    <path d="M 181.541643 88.384455 
L 185.235048 88.384455 
L 185.235048 78.032895 
L 181.541643 78.032895 
z
" clip-path="url(#p3418fc0872)" style="fill: #1f77b4"/>
   </g>
   <g id="patch_42">
    <path d="M 185.235048 88.384455 
L 188.928453 88.384455 
L 188.928453 80.103207 
L 185.235048 80.103207 
z
" clip-path="url(#p3418fc0872)" style="fill: #1f77b4"/>
   </g>
   <g id="patch_43">
    <path d="M 188.928453 88.384455 
L 192.621857 88.384455 
L 192.621857 75.962584 
L 188.928453 75.962584 
z
" clip-path="url(#p3418fc0872)" style="fill: #1f77b4"/>
   </g>
   <g id="patch_44">
    <path d="M 192.621857 88.384455 
L 196.315262 88.384455 
L 196.315262 80.103207 
L 192.621857 80.103207 
z
" clip-path="url(#p3418fc0872)" style="fill: #1f77b4"/>
   </g>
   <g id="patch_45">
    <path d="M 196.315262 88.384455 
L 200.008667 88.384455 
L 200.008667 86.314143 
L 196.315262 86.314143 
z
" clip-path="url(#p3418fc0872)" style="fill: #1f77b4"/>
   </g>
   <g id="patch_46">
    <path d="M 200.008667 88.384455 
L 203.702072 88.384455 
L 203.702072 82.173519 
L 200.008667 82.173519 
z
" clip-path="url(#p3418fc0872)" style="fill: #1f77b4"/>
   </g>
   <g id="patch_47">
    <path d="M 203.702072 88.384455 
L 207.395476 88.384455 
L 207.395476 75.962584 
L 203.702072 75.962584 
z
" clip-path="url(#p3418fc0872)" style="fill: #1f77b4"/>
   </g>
   <g id="patch_48">
    <path d="M 207.395476 88.384455 
L 211.088881 88.384455 
L 211.088881 75.962584 
L 207.395476 75.962584 
z
" clip-path="url(#p3418fc0872)" style="fill: #1f77b4"/>
   </g>
   <g id="patch_49">
    <path d="M 211.088881 88.384455 
L 214.782286 88.384455 
L 214.782286 78.032895 
L 211.088881 78.032895 
z
" clip-path="url(#p3418fc0872)" style="fill: #1f77b4"/>
   </g>
   <g id="patch_50">
    <path d="M 214.782286 88.384455 
L 218.475691 88.384455 
L 218.475691 82.173519 
L 214.782286 82.173519 
z
" clip-path="url(#p3418fc0872)" style="fill: #1f77b4"/>
   </g>
   <g id="patch_51">
    <path d="M 218.475691 88.384455 
L 222.169095 88.384455 
L 222.169095 75.962584 
L 218.475691 75.962584 
z
" clip-path="url(#p3418fc0872)" style="fill: #1f77b4"/>
   </g>
   <g id="patch_52">
    <path d="M 222.169095 88.384455 
L 225.8625 88.384455 
L 225.8625 80.103207 
L 222.169095 80.103207 
z
" clip-path="url(#p3418fc0872)" style="fill: #1f77b4"/>
   </g>
   <g id="patch_53">
    <path d="M 225.8625 88.384455 
L 229.555905 88.384455 
L 229.555905 86.314143 
L 225.8625 86.314143 
z
" clip-path="url(#p3418fc0872)" style="fill: #1f77b4"/>
   </g>
   <g id="patch_54">
    <path d="M 229.555905 88.384455 
L 233.249309 88.384455 
L 233.249309 84.243831 
L 229.555905 84.243831 
z
" clip-path="url(#p3418fc0872)" style="fill: #1f77b4"/>
   </g>
   <g id="patch_55">
    <path d="M 233.249309 88.384455 
L 236.942714 88.384455 
L 236.942714 73.892272 
L 233.249309 73.892272 
z
" clip-path="url(#p3418fc0872)" style="fill: #1f77b4"/>
   </g>
   <g id="patch_56">
    <path d="M 236.942714 88.384455 
L 240.636119 88.384455 
L 240.636119 82.173519 
L 236.942714 82.173519 
z
" clip-path="url(#p3418fc0872)" style="fill: #1f77b4"/>
   </g>
   <g id="patch_57">
    <path d="M 240.636119 88.384455 
L 244.329524 88.384455 
L 244.329524 78.032895 
L 240.636119 78.032895 
z
" clip-path="url(#p3418fc0872)" style="fill: #1f77b4"/>
   </g>
   <g id="patch_58">
    <path d="M 244.329524 88.384455 
L 248.022928 88.384455 
L 248.022928 78.032895 
L 244.329524 78.032895 
z
" clip-path="url(#p3418fc0872)" style="fill: #1f77b4"/>
   </g>
   <g id="patch_59">
    <path d="M 248.022928 88.384455 
L 251.716333 88.384455 
L 251.716333 78.032895 
L 248.022928 78.032895 
z
" clip-path="url(#p3418fc0872)" style="fill: #1f77b4"/>
   </g>
   <g id="patch_60">
    <path d="M 251.716333 88.384455 
L 255.409738 88.384455 
L 255.409738 80.103207 
L 251.716333 80.103207 
z
" clip-path="url(#p3418fc0872)" style="fill: #1f77b4"/>
   </g>
   <g id="patch_61">
    <path d="M 255.409738 88.384455 
L 259.103143 88.384455 
L 259.103143 75.962584 
L 255.409738 75.962584 
z
" clip-path="url(#p3418fc0872)" style="fill: #1f77b4"/>
   </g>
   <g id="patch_62">
    <path d="M 259.103143 88.384455 
L 262.796547 88.384455 
L 262.796547 78.032895 
L 259.103143 78.032895 
z
" clip-path="url(#p3418fc0872)" style="fill: #1f77b4"/>
   </g>
   <g id="patch_63">
    <path d="M 262.796547 88.384455 
L 266.489952 88.384455 
L 266.489952 82.173519 
L 262.796547 82.173519 
z
" clip-path="url(#p3418fc0872)" style="fill: #1f77b4"/>
   </g>
   <g id="patch_64">
    <path d="M 266.489952 88.384455 
L 270.183357 88.384455 
L 270.183357 84.243831 
L 266.489952 84.243831 
z
" clip-path="url(#p3418fc0872)" style="fill: #1f77b4"/>
   </g>
   <g id="patch_65">
    <path d="M 270.183357 88.384455 
L 273.876761 88.384455 
L 273.876761 80.103207 
L 270.183357 80.103207 
z
" clip-path="url(#p3418fc0872)" style="fill: #1f77b4"/>
   </g>
   <g id="patch_66">
    <path d="M 273.876761 88.384455 
L 277.570166 88.384455 
L 277.570166 78.032895 
L 273.876761 78.032895 
z
" clip-path="url(#p3418fc0872)" style="fill: #1f77b4"/>
   </g>
   <g id="patch_67">
    <path d="M 277.570166 88.384455 
L 281.263571 88.384455 
L 281.263571 82.173519 
L 277.570166 82.173519 
z
" clip-path="url(#p3418fc0872)" style="fill: #1f77b4"/>
   </g>
   <g id="patch_68">
    <path d="M 281.263571 88.384455 
L 284.956976 88.384455 
L 284.956976 78.032895 
L 281.263571 78.032895 
z
" clip-path="url(#p3418fc0872)" style="fill: #1f77b4"/>
   </g>
   <g id="patch_69">
    <path d="M 284.956976 88.384455 
L 288.65038 88.384455 
L 288.65038 78.032895 
L 284.956976 78.032895 
z
" clip-path="url(#p3418fc0872)" style="fill: #1f77b4"/>
   </g>
   <g id="patch_70">
    <path d="M 288.65038 88.384455 
L 292.343785 88.384455 
L 292.343785 78.032895 
L 288.65038 78.032895 
z
" clip-path="url(#p3418fc0872)" style="fill: #1f77b4"/>
   </g>
   <g id="patch_71">
    <path d="M 292.343785 88.384455 
L 296.03719 88.384455 
L 296.03719 82.173519 
L 292.343785 82.173519 
z
" clip-path="url(#p3418fc0872)" style="fill: #1f77b4"/>
   </g>
   <g id="patch_72">
    <path d="M 296.03719 88.384455 
L 299.730595 88.384455 
L 299.730595 75.962584 
L 296.03719 75.962584 
z
" clip-path="url(#p3418fc0872)" style="fill: #1f77b4"/>
   </g>
   <g id="patch_73">
    <path d="M 299.730595 88.384455 
L 303.423999 88.384455 
L 303.423999 80.103207 
L 299.730595 80.103207 
z
" clip-path="url(#p3418fc0872)" style="fill: #1f77b4"/>
   </g>
   <g id="patch_74">
    <path d="M 303.423999 88.384455 
L 307.117404 88.384455 
L 307.117404 78.032895 
L 303.423999 78.032895 
z
" clip-path="url(#p3418fc0872)" style="fill: #1f77b4"/>
   </g>
   <g id="patch_75">
    <path d="M 307.117404 88.384455 
L 310.810809 88.384455 
L 310.810809 82.173519 
L 307.117404 82.173519 
z
" clip-path="url(#p3418fc0872)" style="fill: #1f77b4"/>
   </g>
   <g id="patch_76">
    <path d="M 310.810809 88.384455 
L 314.504213 88.384455 
L 314.504213 80.103207 
L 310.810809 80.103207 
z
" clip-path="url(#p3418fc0872)" style="fill: #1f77b4"/>
   </g>
   <g id="patch_77">
    <path d="M 314.504213 88.384455 
L 318.197618 88.384455 
L 318.197618 75.962584 
L 314.504213 75.962584 
z
" clip-path="url(#p3418fc0872)" style="fill: #1f77b4"/>
   </g>
   <g id="patch_78">
    <path d="M 318.197618 88.384455 
L 321.891023 88.384455 
L 321.891023 78.032895 
L 318.197618 78.032895 
z
" clip-path="url(#p3418fc0872)" style="fill: #1f77b4"/>
   </g>
   <g id="patch_79">
    <path d="M 321.891023 88.384455 
L 325.584428 88.384455 
L 325.584428 80.103207 
L 321.891023 80.103207 
z
" clip-path="url(#p3418fc0872)" style="fill: #1f77b4"/>
   </g>
   <g id="patch_80">
    <path d="M 325.584428 88.384455 
L 329.277832 88.384455 
L 329.277832 78.032895 
L 325.584428 78.032895 
z
" clip-path="url(#p3418fc0872)" style="fill: #1f77b4"/>
   </g>
   <g id="patch_81">
    <path d="M 329.277832 88.384455 
L 332.971237 88.384455 
L 332.971237 82.173519 
L 329.277832 82.173519 
z
" clip-path="url(#p3418fc0872)" style="fill: #1f77b4"/>
   </g>
   <g id="patch_82">
    <path d="M 332.971237 88.384455 
L 336.664642 88.384455 
L 336.664642 80.103207 
L 332.971237 80.103207 
z
" clip-path="url(#p3418fc0872)" style="fill: #1f77b4"/>
   </g>
   <g id="patch_83">
    <path d="M 336.664642 88.384455 
L 340.358047 88.384455 
L 340.358047 84.243831 
L 336.664642 84.243831 
z
" clip-path="url(#p3418fc0872)" style="fill: #1f77b4"/>
   </g>
   <g id="patch_84">
    <path d="M 340.358047 88.384455 
L 344.051451 88.384455 
L 344.051451 78.032895 
L 340.358047 78.032895 
z
" clip-path="url(#p3418fc0872)" style="fill: #1f77b4"/>
   </g>
   <g id="patch_85">
    <path d="M 344.051451 88.384455 
L 347.744856 88.384455 
L 347.744856 84.243831 
L 344.051451 84.243831 
z
" clip-path="url(#p3418fc0872)" style="fill: #1f77b4"/>
   </g>
   <g id="patch_86">
    <path d="M 347.744856 88.384455 
L 351.438261 88.384455 
L 351.438261 82.173519 
L 347.744856 82.173519 
z
" clip-path="url(#p3418fc0872)" style="fill: #1f77b4"/>
   </g>
   <g id="patch_87">
    <path d="M 351.438261 88.384455 
L 355.131665 88.384455 
L 355.131665 82.173519 
L 351.438261 82.173519 
z
" clip-path="url(#p3418fc0872)" style="fill: #1f77b4"/>
   </g>
   <g id="patch_88">
    <path d="M 355.131665 88.384455 
L 358.82507 88.384455 
L 358.82507 84.243831 
L 355.131665 84.243831 
z
" clip-path="url(#p3418fc0872)" style="fill: #1f77b4"/>
   </g>
   <g id="patch_89">
    <path d="M 358.82507 88.384455 
L 362.518475 88.384455 
L 362.518475 84.243831 
L 358.82507 84.243831 
z
" clip-path="url(#p3418fc0872)" style="fill: #1f77b4"/>
   </g>
   <g id="patch_90">
    <path d="M 362.518475 88.384455 
L 366.21188 88.384455 
L 366.21188 82.173519 
L 362.518475 82.173519 
z
" clip-path="url(#p3418fc0872)" style="fill: #1f77b4"/>
   </g>
   <g id="patch_91">
    <path d="M 366.21188 88.384455 
L 369.905284 88.384455 
L 369.905284 80.103207 
L 366.21188 80.103207 
z
" clip-path="url(#p3418fc0872)" style="fill: #1f77b4"/>
   </g>
   <g id="patch_92">
    <path d="M 369.905284 88.384455 
L 373.598689 88.384455 
L 373.598689 88.384455 
L 369.905284 88.384455 
z
" clip-path="url(#p3418fc0872)" style="fill: #1f77b4"/>
   </g>
   <g id="patch_93">
    <path d="M 373.598689 88.384455 
L 377.292094 88.384455 
L 377.292094 84.243831 
L 373.598689 84.243831 
z
" clip-path="url(#p3418fc0872)" style="fill: #1f77b4"/>
   </g>
   <g id="patch_94">
    <path d="M 377.292094 88.384455 
L 380.985499 88.384455 
L 380.985499 80.103207 
L 377.292094 80.103207 
z
" clip-path="url(#p3418fc0872)" style="fill: #1f77b4"/>
   </g>
   <g id="patch_95">
    <path d="M 380.985499 88.384455 
L 384.678903 88.384455 
L 384.678903 82.173519 
L 380.985499 82.173519 
z
" clip-path="url(#p3418fc0872)" style="fill: #1f77b4"/>
   </g>
   <g id="patch_96">
    <path d="M 384.678903 88.384455 
L 388.372308 88.384455 
L 388.372308 75.962584 
L 384.678903 75.962584 
z
" clip-path="url(#p3418fc0872)" style="fill: #1f77b4"/>
   </g>
   <g id="patch_97">
    <path d="M 388.372308 88.384455 
L 392.065713 88.384455 
L 392.065713 88.384455 
L 388.372308 88.384455 
z
" clip-path="url(#p3418fc0872)" style="fill: #1f77b4"/>
   </g>
   <g id="patch_98">
    <path d="M 392.065713 88.384455 
L 395.759117 88.384455 
L 395.759117 80.103207 
L 392.065713 80.103207 
z
" clip-path="url(#p3418fc0872)" style="fill: #1f77b4"/>
   </g>
   <g id="patch_99">
    <path d="M 395.759117 88.384455 
L 399.452522 88.384455 
L 399.452522 78.032895 
L 395.759117 78.032895 
z
" clip-path="url(#p3418fc0872)" style="fill: #1f77b4"/>
   </g>
   <g id="patch_100">
    <path d="M 399.452522 88.384455 
L 403.145927 88.384455 
L 403.145927 82.173519 
L 399.452522 82.173519 
z
" clip-path="url(#p3418fc0872)" style="fill: #1f77b4"/>
   </g>
   <g id="patch_101">
    <path d="M 403.145927 88.384455 
L 406.839332 88.384455 
L 406.839332 82.173519 
L 403.145927 82.173519 
z
" clip-path="url(#p3418fc0872)" style="fill: #1f77b4"/>
   </g>
   <g id="patch_102">
    <path d="M 406.839332 88.384455 
L 410.532736 88.384455 
L 410.532736 75.962584 
L 406.839332 75.962584 
z
" clip-path="url(#p3418fc0872)" style="fill: #1f77b4"/>
   </g>
   <g id="matplotlib.axis_1">
    <g id="xtick_1">
     <g id="line2d_1">
      <defs>
       <path id="m165a15e083" d="M 0 0 
L 0 3.5 
" style="stroke: #000000; stroke-width: 0.8"/>
      </defs>
      <g>
       <use xlink:href="#m165a15e083" x="37.377166" y="88.384455" style="stroke: #000000; stroke-width: 0.8"/>
      </g>
     </g>
     <g id="text_1">
      <!-- 0 -->
      <g transform="translate(34.195916 102.982892)scale(0.1 -0.1)">
       <defs>
        <path id="DejaVuSans-30" d="M 2034 4250 
Q 1547 4250 1301 3770 
Q 1056 3291 1056 2328 
Q 1056 1369 1301 889 
Q 1547 409 2034 409 
Q 2525 409 2770 889 
Q 3016 1369 3016 2328 
Q 3016 3291 2770 3770 
Q 2525 4250 2034 4250 
z
M 2034 4750 
Q 2819 4750 3233 4129 
Q 3647 3509 3647 2328 
Q 3647 1150 3233 529 
Q 2819 -91 2034 -91 
Q 1250 -91 836 529 
Q 422 1150 422 2328 
Q 422 3509 836 4129 
Q 1250 4750 2034 4750 
z
" transform="scale(0.015625)"/>
       </defs>
       <use xlink:href="#DejaVuSans-30"/>
      </g>
     </g>
    </g>
    <g id="xtick_2">
     <g id="line2d_2">
      <g>
       <use xlink:href="#m165a15e083" x="112.045348" y="88.384455" style="stroke: #000000; stroke-width: 0.8"/>
      </g>
     </g>
     <g id="text_2">
      <!-- 1000 -->
      <g transform="translate(99.320348 102.982892)scale(0.1 -0.1)">
       <defs>
        <path id="DejaVuSans-31" d="M 794 531 
L 1825 531 
L 1825 4091 
L 703 3866 
L 703 4441 
L 1819 4666 
L 2450 4666 
L 2450 531 
L 3481 531 
L 3481 0 
L 794 0 
L 794 531 
z
" transform="scale(0.015625)"/>
       </defs>
       <use xlink:href="#DejaVuSans-31"/>
       <use xlink:href="#DejaVuSans-30" x="63.623047"/>
       <use xlink:href="#DejaVuSans-30" x="127.246094"/>
       <use xlink:href="#DejaVuSans-30" x="190.869141"/>
      </g>
     </g>
    </g>
    <g id="xtick_3">
     <g id="line2d_3">
      <g>
       <use xlink:href="#m165a15e083" x="186.713531" y="88.384455" style="stroke: #000000; stroke-width: 0.8"/>
      </g>
     </g>
     <g id="text_3">
      <!-- 2000 -->
      <g transform="translate(173.988531 102.982892)scale(0.1 -0.1)">
       <defs>
        <path id="DejaVuSans-32" d="M 1228 531 
L 3431 531 
L 3431 0 
L 469 0 
L 469 531 
Q 828 903 1448 1529 
Q 2069 2156 2228 2338 
Q 2531 2678 2651 2914 
Q 2772 3150 2772 3378 
Q 2772 3750 2511 3984 
Q 2250 4219 1831 4219 
Q 1534 4219 1204 4116 
Q 875 4013 500 3803 
L 500 4441 
Q 881 4594 1212 4672 
Q 1544 4750 1819 4750 
Q 2544 4750 2975 4387 
Q 3406 4025 3406 3419 
Q 3406 3131 3298 2873 
Q 3191 2616 2906 2266 
Q 2828 2175 2409 1742 
Q 1991 1309 1228 531 
z
" transform="scale(0.015625)"/>
       </defs>
       <use xlink:href="#DejaVuSans-32"/>
       <use xlink:href="#DejaVuSans-30" x="63.623047"/>
       <use xlink:href="#DejaVuSans-30" x="127.246094"/>
       <use xlink:href="#DejaVuSans-30" x="190.869141"/>
      </g>
     </g>
    </g>
    <g id="xtick_4">
     <g id="line2d_4">
      <g>
       <use xlink:href="#m165a15e083" x="261.381713" y="88.384455" style="stroke: #000000; stroke-width: 0.8"/>
      </g>
     </g>
     <g id="text_4">
      <!-- 3000 -->
      <g transform="translate(248.656713 102.982892)scale(0.1 -0.1)">
       <defs>
        <path id="DejaVuSans-33" d="M 2597 2516 
Q 3050 2419 3304 2112 
Q 3559 1806 3559 1356 
Q 3559 666 3084 287 
Q 2609 -91 1734 -91 
Q 1441 -91 1130 -33 
Q 819 25 488 141 
L 488 750 
Q 750 597 1062 519 
Q 1375 441 1716 441 
Q 2309 441 2620 675 
Q 2931 909 2931 1356 
Q 2931 1769 2642 2001 
Q 2353 2234 1838 2234 
L 1294 2234 
L 1294 2753 
L 1863 2753 
Q 2328 2753 2575 2939 
Q 2822 3125 2822 3475 
Q 2822 3834 2567 4026 
Q 2313 4219 1838 4219 
Q 1578 4219 1281 4162 
Q 984 4106 628 3988 
L 628 4550 
Q 988 4650 1302 4700 
Q 1616 4750 1894 4750 
Q 2613 4750 3031 4423 
Q 3450 4097 3450 3541 
Q 3450 3153 3228 2886 
Q 3006 2619 2597 2516 
z
" transform="scale(0.015625)"/>
       </defs>
       <use xlink:href="#DejaVuSans-33"/>
       <use xlink:href="#DejaVuSans-30" x="63.623047"/>
       <use xlink:href="#DejaVuSans-30" x="127.246094"/>
       <use xlink:href="#DejaVuSans-30" x="190.869141"/>
      </g>
     </g>
    </g>
    <g id="xtick_5">
     <g id="line2d_5">
      <g>
       <use xlink:href="#m165a15e083" x="336.049895" y="88.384455" style="stroke: #000000; stroke-width: 0.8"/>
      </g>
     </g>
     <g id="text_5">
      <!-- 4000 -->
      <g transform="translate(323.324895 102.982892)scale(0.1 -0.1)">
       <defs>
        <path id="DejaVuSans-34" d="M 2419 4116 
L 825 1625 
L 2419 1625 
L 2419 4116 
z
M 2253 4666 
L 3047 4666 
L 3047 1625 
L 3713 1625 
L 3713 1100 
L 3047 1100 
L 3047 0 
L 2419 0 
L 2419 1100 
L 313 1100 
L 313 1709 
L 2253 4666 
z
" transform="scale(0.015625)"/>
       </defs>
       <use xlink:href="#DejaVuSans-34"/>
       <use xlink:href="#DejaVuSans-30" x="63.623047"/>
       <use xlink:href="#DejaVuSans-30" x="127.246094"/>
       <use xlink:href="#DejaVuSans-30" x="190.869141"/>
      </g>
     </g>
    </g>
    <g id="xtick_6">
     <g id="line2d_6">
      <g>
       <use xlink:href="#m165a15e083" x="410.718078" y="88.384455" style="stroke: #000000; stroke-width: 0.8"/>
      </g>
     </g>
     <g id="text_6">
      <!-- 5000 -->
      <g transform="translate(397.993078 102.982892)scale(0.1 -0.1)">
       <defs>
        <path id="DejaVuSans-35" d="M 691 4666 
L 3169 4666 
L 3169 4134 
L 1269 4134 
L 1269 2991 
Q 1406 3038 1543 3061 
Q 1681 3084 1819 3084 
Q 2600 3084 3056 2656 
Q 3513 2228 3513 1497 
Q 3513 744 3044 326 
Q 2575 -91 1722 -91 
Q 1428 -91 1123 -41 
Q 819 9 494 109 
L 494 744 
Q 775 591 1075 516 
Q 1375 441 1709 441 
Q 2250 441 2565 725 
Q 2881 1009 2881 1497 
Q 2881 1984 2565 2268 
Q 2250 2553 1709 2553 
Q 1456 2553 1204 2497 
Q 953 2441 691 2322 
L 691 4666 
z
" transform="scale(0.015625)"/>
       </defs>
       <use xlink:href="#DejaVuSans-35"/>
       <use xlink:href="#DejaVuSans-30" x="63.623047"/>
       <use xlink:href="#DejaVuSans-30" x="127.246094"/>
       <use xlink:href="#DejaVuSans-30" x="190.869141"/>
      </g>
     </g>
    </g>
   </g>
   <g id="matplotlib.axis_2">
    <g id="ytick_1">
     <g id="line2d_7">
      <defs>
       <path id="m0a15551346" d="M 0 0 
L -3.5 0 
" style="stroke: #000000; stroke-width: 0.8"/>
      </defs>
      <g>
       <use xlink:href="#m0a15551346" x="22.72524" y="88.384455" style="stroke: #000000; stroke-width: 0.8"/>
      </g>
     </g>
     <g id="text_7">
      <!-- 0 -->
      <g transform="translate(9.36274 92.183674)scale(0.1 -0.1)">
       <use xlink:href="#DejaVuSans-30"/>
      </g>
     </g>
    </g>
    <g id="ytick_2">
     <g id="line2d_8">
      <g>
       <use xlink:href="#m0a15551346" x="22.72524" y="46.978217" style="stroke: #000000; stroke-width: 0.8"/>
      </g>
     </g>
     <g id="text_8">
      <!-- 20 -->
      <g transform="translate(3.00024 50.777436)scale(0.1 -0.1)">
       <use xlink:href="#DejaVuSans-32"/>
       <use xlink:href="#DejaVuSans-30" x="63.623047"/>
      </g>
     </g>
    </g>
   </g>
   <g id="patch_103">
    <path d="M 22.72524 88.384455 
L 22.72524 36.212595 
" style="fill: none; stroke: #000000; stroke-width: 0.8; stroke-linejoin: miter; stroke-linecap: square"/>
   </g>
   <g id="patch_104">
    <path d="M 428.99976 88.384455 
L 428.99976 36.212595 
" style="fill: none; stroke: #000000; stroke-width: 0.8; stroke-linejoin: miter; stroke-linecap: square"/>
   </g>
   <g id="patch_105">
    <path d="M 22.72524 88.384455 
L 428.99976 88.384455 
" style="fill: none; stroke: #000000; stroke-width: 0.8; stroke-linejoin: miter; stroke-linecap: square"/>
   </g>
   <g id="patch_106">
    <path d="M 22.72524 36.212595 
L 428.99976 36.212595 
" style="fill: none; stroke: #000000; stroke-width: 0.8; stroke-linejoin: miter; stroke-linecap: square"/>
   </g>
   <g id="text_9">
    <!-- $M_1$ -->
    <g transform="translate(217.8225 30.212595)scale(0.12 -0.12)">
     <defs>
      <path id="DejaVuSans-Oblique-4d" d="M 1081 4666 
L 2028 4666 
L 2572 1522 
L 4378 4666 
L 5350 4666 
L 4441 0 
L 3828 0 
L 4622 4091 
L 2791 897 
L 2175 897 
L 1581 4103 
L 788 0 
L 172 0 
L 1081 4666 
z
" transform="scale(0.015625)"/>
     </defs>
     <use xlink:href="#DejaVuSans-Oblique-4d" transform="translate(0 0.09375)"/>
     <use xlink:href="#DejaVuSans-31" transform="translate(86.279297 -16.3125)scale(0.7)"/>
    </g>
   </g>
  </g>
  <g id="axes_2">
   <g id="patch_107">
    <path d="M 22.72524 178.353045 
L 428.99976 178.353045 
L 428.99976 126.181185 
L 22.72524 126.181185 
z
" style="fill: #ffffff"/>
   </g>
   <g id="patch_108">
    <path d="M 41.192264 178.353045 
L 44.885668 178.353045 
L 44.885668 136.946807 
L 41.192264 136.946807 
z
" clip-path="url(#p8085c41f89)" style="fill: #1f77b4"/>
   </g>
   <g id="patch_109">
    <path d="M 44.885668 178.353045 
L 48.579073 178.353045 
L 48.579073 147.298366 
L 44.885668 147.298366 
z
" clip-path="url(#p8085c41f89)" style="fill: #1f77b4"/>
   </g>
   <g id="patch_110">
    <path d="M 48.579073 178.353045 
L 52.272478 178.353045 
L 52.272478 155.579614 
L 48.579073 155.579614 
z
" clip-path="url(#p8085c41f89)" style="fill: #1f77b4"/>
   </g>
   <g id="patch_111">
    <path d="M 52.272478 178.353045 
L 55.965883 178.353045 
L 55.965883 155.579614 
L 52.272478 155.579614 
z
" clip-path="url(#p8085c41f89)" style="fill: #1f77b4"/>
   </g>
   <g id="patch_112">
    <path d="M 55.965883 178.353045 
L 59.659287 178.353045 
L 59.659287 128.665559 
L 55.965883 128.665559 
z
" clip-path="url(#p8085c41f89)" style="fill: #1f77b4"/>
   </g>
   <g id="patch_113">
    <path d="M 59.659287 178.353045 
L 63.352692 178.353045 
L 63.352692 145.228055 
L 59.659287 145.228055 
z
" clip-path="url(#p8085c41f89)" style="fill: #1f77b4"/>
   </g>
   <g id="patch_114">
    <path d="M 63.352692 178.353045 
L 67.046097 178.353045 
L 67.046097 132.806183 
L 63.352692 132.806183 
z
" clip-path="url(#p8085c41f89)" style="fill: #1f77b4"/>
   </g>
   <g id="patch_115">
    <path d="M 67.046097 178.353045 
L 70.739501 178.353045 
L 70.739501 155.579614 
L 67.046097 155.579614 
z
" clip-path="url(#p8085c41f89)" style="fill: #1f77b4"/>
   </g>
   <g id="patch_116">
    <path d="M 70.739501 178.353045 
L 74.432906 178.353045 
L 74.432906 145.228055 
L 70.739501 145.228055 
z
" clip-path="url(#p8085c41f89)" style="fill: #1f77b4"/>
   </g>
   <g id="patch_117">
    <path d="M 74.432906 178.353045 
L 78.126311 178.353045 
L 78.126311 168.001485 
L 74.432906 168.001485 
z
" clip-path="url(#p8085c41f89)" style="fill: #1f77b4"/>
   </g>
   <g id="patch_118">
    <path d="M 78.126311 178.353045 
L 81.819716 178.353045 
L 81.819716 151.43899 
L 78.126311 151.43899 
z
" clip-path="url(#p8085c41f89)" style="fill: #1f77b4"/>
   </g>
   <g id="patch_119">
    <path d="M 81.819716 178.353045 
L 85.51312 178.353045 
L 85.51312 159.720238 
L 81.819716 159.720238 
z
" clip-path="url(#p8085c41f89)" style="fill: #1f77b4"/>
   </g>
   <g id="patch_120">
    <path d="M 85.51312 178.353045 
L 89.206525 178.353045 
L 89.206525 155.579614 
L 85.51312 155.579614 
z
" clip-path="url(#p8085c41f89)" style="fill: #1f77b4"/>
   </g>
   <g id="patch_121">
    <path d="M 89.206525 178.353045 
L 92.89993 178.353045 
L 92.89993 157.649926 
L 89.206525 157.649926 
z
" clip-path="url(#p8085c41f89)" style="fill: #1f77b4"/>
   </g>
   <g id="patch_122">
    <path d="M 92.89993 178.353045 
L 96.593335 178.353045 
L 96.593335 165.931174 
L 92.89993 165.931174 
z
" clip-path="url(#p8085c41f89)" style="fill: #1f77b4"/>
   </g>
   <g id="patch_123">
    <path d="M 96.593335 178.353045 
L 100.286739 178.353045 
L 100.286739 161.79055 
L 96.593335 161.79055 
z
" clip-path="url(#p8085c41f89)" style="fill: #1f77b4"/>
   </g>
   <g id="patch_124">
    <path d="M 100.286739 178.353045 
L 103.980144 178.353045 
L 103.980144 157.649926 
L 100.286739 157.649926 
z
" clip-path="url(#p8085c41f89)" style="fill: #1f77b4"/>
   </g>
   <g id="patch_125">
    <path d="M 103.980144 178.353045 
L 107.673549 178.353045 
L 107.673549 165.931174 
L 103.980144 165.931174 
z
" clip-path="url(#p8085c41f89)" style="fill: #1f77b4"/>
   </g>
   <g id="patch_126">
    <path d="M 107.673549 178.353045 
L 111.366953 178.353045 
L 111.366953 161.79055 
L 107.673549 161.79055 
z
" clip-path="url(#p8085c41f89)" style="fill: #1f77b4"/>
   </g>
   <g id="patch_127">
    <path d="M 111.366953 178.353045 
L 115.060358 178.353045 
L 115.060358 168.001485 
L 111.366953 168.001485 
z
" clip-path="url(#p8085c41f89)" style="fill: #1f77b4"/>
   </g>
   <g id="patch_128">
    <path d="M 115.060358 178.353045 
L 118.753763 178.353045 
L 118.753763 163.860862 
L 115.060358 163.860862 
z
" clip-path="url(#p8085c41f89)" style="fill: #1f77b4"/>
   </g>
   <g id="patch_129">
    <path d="M 118.753763 178.353045 
L 122.447168 178.353045 
L 122.447168 155.579614 
L 118.753763 155.579614 
z
" clip-path="url(#p8085c41f89)" style="fill: #1f77b4"/>
   </g>
   <g id="patch_130">
    <path d="M 122.447168 178.353045 
L 126.140572 178.353045 
L 126.140572 163.860862 
L 122.447168 163.860862 
z
" clip-path="url(#p8085c41f89)" style="fill: #1f77b4"/>
   </g>
   <g id="patch_131">
    <path d="M 126.140572 178.353045 
L 129.833977 178.353045 
L 129.833977 174.212421 
L 126.140572 174.212421 
z
" clip-path="url(#p8085c41f89)" style="fill: #1f77b4"/>
   </g>
   <g id="patch_132">
    <path d="M 129.833977 178.353045 
L 133.527382 178.353045 
L 133.527382 165.931174 
L 129.833977 165.931174 
z
" clip-path="url(#p8085c41f89)" style="fill: #1f77b4"/>
   </g>
   <g id="patch_133">
    <path d="M 133.527382 178.353045 
L 137.220787 178.353045 
L 137.220787 176.282733 
L 133.527382 176.282733 
z
" clip-path="url(#p8085c41f89)" style="fill: #1f77b4"/>
   </g>
   <g id="patch_134">
    <path d="M 137.220787 178.353045 
L 140.914191 178.353045 
L 140.914191 174.212421 
L 137.220787 174.212421 
z
" clip-path="url(#p8085c41f89)" style="fill: #1f77b4"/>
   </g>
   <g id="patch_135">
    <path d="M 140.914191 178.353045 
L 144.607596 178.353045 
L 144.607596 178.353045 
L 140.914191 178.353045 
z
" clip-path="url(#p8085c41f89)" style="fill: #1f77b4"/>
   </g>
   <g id="patch_136">
    <path d="M 144.607596 178.353045 
L 148.301001 178.353045 
L 148.301001 165.931174 
L 144.607596 165.931174 
z
" clip-path="url(#p8085c41f89)" style="fill: #1f77b4"/>
   </g>
   <g id="patch_137">
    <path d="M 148.301001 178.353045 
L 151.994405 178.353045 
L 151.994405 168.001485 
L 148.301001 168.001485 
z
" clip-path="url(#p8085c41f89)" style="fill: #1f77b4"/>
   </g>
   <g id="patch_138">
    <path d="M 151.994405 178.353045 
L 155.68781 178.353045 
L 155.68781 165.931174 
L 151.994405 165.931174 
z
" clip-path="url(#p8085c41f89)" style="fill: #1f77b4"/>
   </g>
   <g id="patch_139">
    <path d="M 155.68781 178.353045 
L 159.381215 178.353045 
L 159.381215 165.931174 
L 155.68781 165.931174 
z
" clip-path="url(#p8085c41f89)" style="fill: #1f77b4"/>
   </g>
   <g id="patch_140">
    <path d="M 159.381215 178.353045 
L 163.07462 178.353045 
L 163.07462 172.142109 
L 159.381215 172.142109 
z
" clip-path="url(#p8085c41f89)" style="fill: #1f77b4"/>
   </g>
   <g id="patch_141">
    <path d="M 163.07462 178.353045 
L 166.768024 178.353045 
L 166.768024 176.282733 
L 163.07462 176.282733 
z
" clip-path="url(#p8085c41f89)" style="fill: #1f77b4"/>
   </g>
   <g id="patch_142">
    <path d="M 166.768024 178.353045 
L 170.461429 178.353045 
L 170.461429 172.142109 
L 166.768024 172.142109 
z
" clip-path="url(#p8085c41f89)" style="fill: #1f77b4"/>
   </g>
   <g id="patch_143">
    <path d="M 170.461429 178.353045 
L 174.154834 178.353045 
L 174.154834 163.860862 
L 170.461429 163.860862 
z
" clip-path="url(#p8085c41f89)" style="fill: #1f77b4"/>
   </g>
   <g id="patch_144">
    <path d="M 174.154834 178.353045 
L 177.848239 178.353045 
L 177.848239 172.142109 
L 174.154834 172.142109 
z
" clip-path="url(#p8085c41f89)" style="fill: #1f77b4"/>
   </g>
   <g id="patch_145">
    <path d="M 177.848239 178.353045 
L 181.541643 178.353045 
L 181.541643 168.001485 
L 177.848239 168.001485 
z
" clip-path="url(#p8085c41f89)" style="fill: #1f77b4"/>
   </g>
   <g id="patch_146">
    <path d="M 181.541643 178.353045 
L 185.235048 178.353045 
L 185.235048 165.931174 
L 181.541643 165.931174 
z
" clip-path="url(#p8085c41f89)" style="fill: #1f77b4"/>
   </g>
   <g id="patch_147">
    <path d="M 185.235048 178.353045 
L 188.928453 178.353045 
L 188.928453 172.142109 
L 185.235048 172.142109 
z
" clip-path="url(#p8085c41f89)" style="fill: #1f77b4"/>
   </g>
   <g id="patch_148">
    <path d="M 188.928453 178.353045 
L 192.621857 178.353045 
L 192.621857 168.001485 
L 188.928453 168.001485 
z
" clip-path="url(#p8085c41f89)" style="fill: #1f77b4"/>
   </g>
   <g id="patch_149">
    <path d="M 192.621857 178.353045 
L 196.315262 178.353045 
L 196.315262 176.282733 
L 192.621857 176.282733 
z
" clip-path="url(#p8085c41f89)" style="fill: #1f77b4"/>
   </g>
   <g id="patch_150">
    <path d="M 196.315262 178.353045 
L 200.008667 178.353045 
L 200.008667 174.212421 
L 196.315262 174.212421 
z
" clip-path="url(#p8085c41f89)" style="fill: #1f77b4"/>
   </g>
   <g id="patch_151">
    <path d="M 200.008667 178.353045 
L 203.702072 178.353045 
L 203.702072 168.001485 
L 200.008667 168.001485 
z
" clip-path="url(#p8085c41f89)" style="fill: #1f77b4"/>
   </g>
   <g id="patch_152">
    <path d="M 203.702072 178.353045 
L 207.395476 178.353045 
L 207.395476 155.579614 
L 203.702072 155.579614 
z
" clip-path="url(#p8085c41f89)" style="fill: #1f77b4"/>
   </g>
   <g id="patch_153">
    <path d="M 207.395476 178.353045 
L 211.088881 178.353045 
L 211.088881 170.071797 
L 207.395476 170.071797 
z
" clip-path="url(#p8085c41f89)" style="fill: #1f77b4"/>
   </g>
   <g id="patch_154">
    <path d="M 211.088881 178.353045 
L 214.782286 178.353045 
L 214.782286 174.212421 
L 211.088881 174.212421 
z
" clip-path="url(#p8085c41f89)" style="fill: #1f77b4"/>
   </g>
   <g id="patch_155">
    <path d="M 214.782286 178.353045 
L 218.475691 178.353045 
L 218.475691 174.212421 
L 214.782286 174.212421 
z
" clip-path="url(#p8085c41f89)" style="fill: #1f77b4"/>
   </g>
   <g id="patch_156">
    <path d="M 218.475691 178.353045 
L 222.169095 178.353045 
L 222.169095 174.212421 
L 218.475691 174.212421 
z
" clip-path="url(#p8085c41f89)" style="fill: #1f77b4"/>
   </g>
   <g id="patch_157">
    <path d="M 222.169095 178.353045 
L 225.8625 178.353045 
L 225.8625 161.79055 
L 222.169095 161.79055 
z
" clip-path="url(#p8085c41f89)" style="fill: #1f77b4"/>
   </g>
   <g id="patch_158">
    <path d="M 225.8625 178.353045 
L 229.555905 178.353045 
L 229.555905 159.720238 
L 225.8625 159.720238 
z
" clip-path="url(#p8085c41f89)" style="fill: #1f77b4"/>
   </g>
   <g id="patch_159">
    <path d="M 229.555905 178.353045 
L 233.249309 178.353045 
L 233.249309 170.071797 
L 229.555905 170.071797 
z
" clip-path="url(#p8085c41f89)" style="fill: #1f77b4"/>
   </g>
   <g id="patch_160">
    <path d="M 233.249309 178.353045 
L 236.942714 178.353045 
L 236.942714 174.212421 
L 233.249309 174.212421 
z
" clip-path="url(#p8085c41f89)" style="fill: #1f77b4"/>
   </g>
   <g id="patch_161">
    <path d="M 236.942714 178.353045 
L 240.636119 178.353045 
L 240.636119 163.860862 
L 236.942714 163.860862 
z
" clip-path="url(#p8085c41f89)" style="fill: #1f77b4"/>
   </g>
   <g id="patch_162">
    <path d="M 240.636119 178.353045 
L 244.329524 178.353045 
L 244.329524 168.001485 
L 240.636119 168.001485 
z
" clip-path="url(#p8085c41f89)" style="fill: #1f77b4"/>
   </g>
   <g id="patch_163">
    <path d="M 244.329524 178.353045 
L 248.022928 178.353045 
L 248.022928 168.001485 
L 244.329524 168.001485 
z
" clip-path="url(#p8085c41f89)" style="fill: #1f77b4"/>
   </g>
   <g id="patch_164">
    <path d="M 248.022928 178.353045 
L 251.716333 178.353045 
L 251.716333 174.212421 
L 248.022928 174.212421 
z
" clip-path="url(#p8085c41f89)" style="fill: #1f77b4"/>
   </g>
   <g id="patch_165">
    <path d="M 251.716333 178.353045 
L 255.409738 178.353045 
L 255.409738 170.071797 
L 251.716333 170.071797 
z
" clip-path="url(#p8085c41f89)" style="fill: #1f77b4"/>
   </g>
   <g id="patch_166">
    <path d="M 255.409738 178.353045 
L 259.103143 178.353045 
L 259.103143 176.282733 
L 255.409738 176.282733 
z
" clip-path="url(#p8085c41f89)" style="fill: #1f77b4"/>
   </g>
   <g id="patch_167">
    <path d="M 259.103143 178.353045 
L 262.796547 178.353045 
L 262.796547 170.071797 
L 259.103143 170.071797 
z
" clip-path="url(#p8085c41f89)" style="fill: #1f77b4"/>
   </g>
   <g id="patch_168">
    <path d="M 262.796547 178.353045 
L 266.489952 178.353045 
L 266.489952 174.212421 
L 262.796547 174.212421 
z
" clip-path="url(#p8085c41f89)" style="fill: #1f77b4"/>
   </g>
   <g id="patch_169">
    <path d="M 266.489952 178.353045 
L 270.183357 178.353045 
L 270.183357 165.931174 
L 266.489952 165.931174 
z
" clip-path="url(#p8085c41f89)" style="fill: #1f77b4"/>
   </g>
   <g id="patch_170">
    <path d="M 270.183357 178.353045 
L 273.876761 178.353045 
L 273.876761 168.001485 
L 270.183357 168.001485 
z
" clip-path="url(#p8085c41f89)" style="fill: #1f77b4"/>
   </g>
   <g id="patch_171">
    <path d="M 273.876761 178.353045 
L 277.570166 178.353045 
L 277.570166 165.931174 
L 273.876761 165.931174 
z
" clip-path="url(#p8085c41f89)" style="fill: #1f77b4"/>
   </g>
   <g id="patch_172">
    <path d="M 277.570166 178.353045 
L 281.263571 178.353045 
L 281.263571 168.001485 
L 277.570166 168.001485 
z
" clip-path="url(#p8085c41f89)" style="fill: #1f77b4"/>
   </g>
   <g id="patch_173">
    <path d="M 281.263571 178.353045 
L 284.956976 178.353045 
L 284.956976 165.931174 
L 281.263571 165.931174 
z
" clip-path="url(#p8085c41f89)" style="fill: #1f77b4"/>
   </g>
   <g id="patch_174">
    <path d="M 284.956976 178.353045 
L 288.65038 178.353045 
L 288.65038 174.212421 
L 284.956976 174.212421 
z
" clip-path="url(#p8085c41f89)" style="fill: #1f77b4"/>
   </g>
   <g id="patch_175">
    <path d="M 288.65038 178.353045 
L 292.343785 178.353045 
L 292.343785 172.142109 
L 288.65038 172.142109 
z
" clip-path="url(#p8085c41f89)" style="fill: #1f77b4"/>
   </g>
   <g id="patch_176">
    <path d="M 292.343785 178.353045 
L 296.03719 178.353045 
L 296.03719 168.001485 
L 292.343785 168.001485 
z
" clip-path="url(#p8085c41f89)" style="fill: #1f77b4"/>
   </g>
   <g id="patch_177">
    <path d="M 296.03719 178.353045 
L 299.730595 178.353045 
L 299.730595 168.001485 
L 296.03719 168.001485 
z
" clip-path="url(#p8085c41f89)" style="fill: #1f77b4"/>
   </g>
   <g id="patch_178">
    <path d="M 299.730595 178.353045 
L 303.423999 178.353045 
L 303.423999 170.071797 
L 299.730595 170.071797 
z
" clip-path="url(#p8085c41f89)" style="fill: #1f77b4"/>
   </g>
   <g id="patch_179">
    <path d="M 303.423999 178.353045 
L 307.117404 178.353045 
L 307.117404 161.79055 
L 303.423999 161.79055 
z
" clip-path="url(#p8085c41f89)" style="fill: #1f77b4"/>
   </g>
   <g id="patch_180">
    <path d="M 307.117404 178.353045 
L 310.810809 178.353045 
L 310.810809 170.071797 
L 307.117404 170.071797 
z
" clip-path="url(#p8085c41f89)" style="fill: #1f77b4"/>
   </g>
   <g id="patch_181">
    <path d="M 310.810809 178.353045 
L 314.504213 178.353045 
L 314.504213 170.071797 
L 310.810809 170.071797 
z
" clip-path="url(#p8085c41f89)" style="fill: #1f77b4"/>
   </g>
   <g id="patch_182">
    <path d="M 314.504213 178.353045 
L 318.197618 178.353045 
L 318.197618 170.071797 
L 314.504213 170.071797 
z
" clip-path="url(#p8085c41f89)" style="fill: #1f77b4"/>
   </g>
   <g id="patch_183">
    <path d="M 318.197618 178.353045 
L 321.891023 178.353045 
L 321.891023 178.353045 
L 318.197618 178.353045 
z
" clip-path="url(#p8085c41f89)" style="fill: #1f77b4"/>
   </g>
   <g id="patch_184">
    <path d="M 321.891023 178.353045 
L 325.584428 178.353045 
L 325.584428 176.282733 
L 321.891023 176.282733 
z
" clip-path="url(#p8085c41f89)" style="fill: #1f77b4"/>
   </g>
   <g id="patch_185">
    <path d="M 325.584428 178.353045 
L 329.277832 178.353045 
L 329.277832 170.071797 
L 325.584428 170.071797 
z
" clip-path="url(#p8085c41f89)" style="fill: #1f77b4"/>
   </g>
   <g id="patch_186">
    <path d="M 329.277832 178.353045 
L 332.971237 178.353045 
L 332.971237 168.001485 
L 329.277832 168.001485 
z
" clip-path="url(#p8085c41f89)" style="fill: #1f77b4"/>
   </g>
   <g id="patch_187">
    <path d="M 332.971237 178.353045 
L 336.664642 178.353045 
L 336.664642 174.212421 
L 332.971237 174.212421 
z
" clip-path="url(#p8085c41f89)" style="fill: #1f77b4"/>
   </g>
   <g id="patch_188">
    <path d="M 336.664642 178.353045 
L 340.358047 178.353045 
L 340.358047 170.071797 
L 336.664642 170.071797 
z
" clip-path="url(#p8085c41f89)" style="fill: #1f77b4"/>
   </g>
   <g id="patch_189">
    <path d="M 340.358047 178.353045 
L 344.051451 178.353045 
L 344.051451 170.071797 
L 340.358047 170.071797 
z
" clip-path="url(#p8085c41f89)" style="fill: #1f77b4"/>
   </g>
   <g id="patch_190">
    <path d="M 344.051451 178.353045 
L 347.744856 178.353045 
L 347.744856 168.001485 
L 344.051451 168.001485 
z
" clip-path="url(#p8085c41f89)" style="fill: #1f77b4"/>
   </g>
   <g id="patch_191">
    <path d="M 347.744856 178.353045 
L 351.438261 178.353045 
L 351.438261 172.142109 
L 347.744856 172.142109 
z
" clip-path="url(#p8085c41f89)" style="fill: #1f77b4"/>
   </g>
   <g id="patch_192">
    <path d="M 351.438261 178.353045 
L 355.131665 178.353045 
L 355.131665 174.212421 
L 351.438261 174.212421 
z
" clip-path="url(#p8085c41f89)" style="fill: #1f77b4"/>
   </g>
   <g id="patch_193">
    <path d="M 355.131665 178.353045 
L 358.82507 178.353045 
L 358.82507 161.79055 
L 355.131665 161.79055 
z
" clip-path="url(#p8085c41f89)" style="fill: #1f77b4"/>
   </g>
   <g id="patch_194">
    <path d="M 358.82507 178.353045 
L 362.518475 178.353045 
L 362.518475 172.142109 
L 358.82507 172.142109 
z
" clip-path="url(#p8085c41f89)" style="fill: #1f77b4"/>
   </g>
   <g id="patch_195">
    <path d="M 362.518475 178.353045 
L 366.21188 178.353045 
L 366.21188 163.860862 
L 362.518475 163.860862 
z
" clip-path="url(#p8085c41f89)" style="fill: #1f77b4"/>
   </g>
   <g id="patch_196">
    <path d="M 366.21188 178.353045 
L 369.905284 178.353045 
L 369.905284 170.071797 
L 366.21188 170.071797 
z
" clip-path="url(#p8085c41f89)" style="fill: #1f77b4"/>
   </g>
   <g id="patch_197">
    <path d="M 369.905284 178.353045 
L 373.598689 178.353045 
L 373.598689 176.282733 
L 369.905284 176.282733 
z
" clip-path="url(#p8085c41f89)" style="fill: #1f77b4"/>
   </g>
   <g id="patch_198">
    <path d="M 373.598689 178.353045 
L 377.292094 178.353045 
L 377.292094 165.931174 
L 373.598689 165.931174 
z
" clip-path="url(#p8085c41f89)" style="fill: #1f77b4"/>
   </g>
   <g id="patch_199">
    <path d="M 377.292094 178.353045 
L 380.985499 178.353045 
L 380.985499 163.860862 
L 377.292094 163.860862 
z
" clip-path="url(#p8085c41f89)" style="fill: #1f77b4"/>
   </g>
   <g id="patch_200">
    <path d="M 380.985499 178.353045 
L 384.678903 178.353045 
L 384.678903 168.001485 
L 380.985499 168.001485 
z
" clip-path="url(#p8085c41f89)" style="fill: #1f77b4"/>
   </g>
   <g id="patch_201">
    <path d="M 384.678903 178.353045 
L 388.372308 178.353045 
L 388.372308 174.212421 
L 384.678903 174.212421 
z
" clip-path="url(#p8085c41f89)" style="fill: #1f77b4"/>
   </g>
   <g id="patch_202">
    <path d="M 388.372308 178.353045 
L 392.065713 178.353045 
L 392.065713 161.79055 
L 388.372308 161.79055 
z
" clip-path="url(#p8085c41f89)" style="fill: #1f77b4"/>
   </g>
   <g id="patch_203">
    <path d="M 392.065713 178.353045 
L 395.759117 178.353045 
L 395.759117 165.931174 
L 392.065713 165.931174 
z
" clip-path="url(#p8085c41f89)" style="fill: #1f77b4"/>
   </g>
   <g id="patch_204">
    <path d="M 395.759117 178.353045 
L 399.452522 178.353045 
L 399.452522 161.79055 
L 395.759117 161.79055 
z
" clip-path="url(#p8085c41f89)" style="fill: #1f77b4"/>
   </g>
   <g id="patch_205">
    <path d="M 399.452522 178.353045 
L 403.145927 178.353045 
L 403.145927 170.071797 
L 399.452522 170.071797 
z
" clip-path="url(#p8085c41f89)" style="fill: #1f77b4"/>
   </g>
   <g id="patch_206">
    <path d="M 403.145927 178.353045 
L 406.839332 178.353045 
L 406.839332 168.001485 
L 403.145927 168.001485 
z
" clip-path="url(#p8085c41f89)" style="fill: #1f77b4"/>
   </g>
   <g id="patch_207">
    <path d="M 406.839332 178.353045 
L 410.532736 178.353045 
L 410.532736 168.001485 
L 406.839332 168.001485 
z
" clip-path="url(#p8085c41f89)" style="fill: #1f77b4"/>
   </g>
   <g id="matplotlib.axis_3">
    <g id="xtick_7">
     <g id="line2d_9">
      <g>
       <use xlink:href="#m165a15e083" x="36.945395" y="178.353045" style="stroke: #000000; stroke-width: 0.8"/>
      </g>
     </g>
     <g id="text_10">
      <!-- 0 -->
      <g transform="translate(33.764145 192.951482)scale(0.1 -0.1)">
       <use xlink:href="#DejaVuSans-30"/>
      </g>
     </g>
    </g>
    <g id="xtick_8">
     <g id="line2d_10">
      <g>
       <use xlink:href="#m165a15e083" x="112.079694" y="178.353045" style="stroke: #000000; stroke-width: 0.8"/>
      </g>
     </g>
     <g id="text_11">
      <!-- 1000 -->
      <g transform="translate(99.354694 192.951482)scale(0.1 -0.1)">
       <use xlink:href="#DejaVuSans-31"/>
       <use xlink:href="#DejaVuSans-30" x="63.623047"/>
       <use xlink:href="#DejaVuSans-30" x="127.246094"/>
       <use xlink:href="#DejaVuSans-30" x="190.869141"/>
      </g>
     </g>
    </g>
    <g id="xtick_9">
     <g id="line2d_11">
      <g>
       <use xlink:href="#m165a15e083" x="187.213994" y="178.353045" style="stroke: #000000; stroke-width: 0.8"/>
      </g>
     </g>
     <g id="text_12">
      <!-- 2000 -->
      <g transform="translate(174.488994 192.951482)scale(0.1 -0.1)">
       <use xlink:href="#DejaVuSans-32"/>
       <use xlink:href="#DejaVuSans-30" x="63.623047"/>
       <use xlink:href="#DejaVuSans-30" x="127.246094"/>
       <use xlink:href="#DejaVuSans-30" x="190.869141"/>
      </g>
     </g>
    </g>
    <g id="xtick_10">
     <g id="line2d_12">
      <g>
       <use xlink:href="#m165a15e083" x="262.348293" y="178.353045" style="stroke: #000000; stroke-width: 0.8"/>
      </g>
     </g>
     <g id="text_13">
      <!-- 3000 -->
      <g transform="translate(249.623293 192.951482)scale(0.1 -0.1)">
       <use xlink:href="#DejaVuSans-33"/>
       <use xlink:href="#DejaVuSans-30" x="63.623047"/>
       <use xlink:href="#DejaVuSans-30" x="127.246094"/>
       <use xlink:href="#DejaVuSans-30" x="190.869141"/>
      </g>
     </g>
    </g>
    <g id="xtick_11">
     <g id="line2d_13">
      <g>
       <use xlink:href="#m165a15e083" x="337.482592" y="178.353045" style="stroke: #000000; stroke-width: 0.8"/>
      </g>
     </g>
     <g id="text_14">
      <!-- 4000 -->
      <g transform="translate(324.757592 192.951482)scale(0.1 -0.1)">
       <use xlink:href="#DejaVuSans-34"/>
       <use xlink:href="#DejaVuSans-30" x="63.623047"/>
       <use xlink:href="#DejaVuSans-30" x="127.246094"/>
       <use xlink:href="#DejaVuSans-30" x="190.869141"/>
      </g>
     </g>
    </g>
    <g id="xtick_12">
     <g id="line2d_14">
      <g>
       <use xlink:href="#m165a15e083" x="412.616891" y="178.353045" style="stroke: #000000; stroke-width: 0.8"/>
      </g>
     </g>
     <g id="text_15">
      <!-- 5000 -->
      <g transform="translate(399.891891 192.951482)scale(0.1 -0.1)">
       <use xlink:href="#DejaVuSans-35"/>
       <use xlink:href="#DejaVuSans-30" x="63.623047"/>
       <use xlink:href="#DejaVuSans-30" x="127.246094"/>
       <use xlink:href="#DejaVuSans-30" x="190.869141"/>
      </g>
     </g>
    </g>
   </g>
   <g id="matplotlib.axis_4">
    <g id="ytick_3">
     <g id="line2d_15">
      <g>
       <use xlink:href="#m0a15551346" x="22.72524" y="178.353045" style="stroke: #000000; stroke-width: 0.8"/>
      </g>
     </g>
     <g id="text_16">
      <!-- 0 -->
      <g transform="translate(9.36274 182.152264)scale(0.1 -0.1)">
       <use xlink:href="#DejaVuSans-30"/>
      </g>
     </g>
    </g>
    <g id="ytick_4">
     <g id="line2d_16">
      <g>
       <use xlink:href="#m0a15551346" x="22.72524" y="136.946807" style="stroke: #000000; stroke-width: 0.8"/>
      </g>
     </g>
     <g id="text_17">
      <!-- 20 -->
      <g transform="translate(3.00024 140.746026)scale(0.1 -0.1)">
       <use xlink:href="#DejaVuSans-32"/>
       <use xlink:href="#DejaVuSans-30" x="63.623047"/>
      </g>
     </g>
    </g>
   </g>
   <g id="patch_208">
    <path d="M 22.72524 178.353045 
L 22.72524 126.181185 
" style="fill: none; stroke: #000000; stroke-width: 0.8; stroke-linejoin: miter; stroke-linecap: square"/>
   </g>
   <g id="patch_209">
    <path d="M 428.99976 178.353045 
L 428.99976 126.181185 
" style="fill: none; stroke: #000000; stroke-width: 0.8; stroke-linejoin: miter; stroke-linecap: square"/>
   </g>
   <g id="patch_210">
    <path d="M 22.72524 178.353045 
L 428.99976 178.353045 
" style="fill: none; stroke: #000000; stroke-width: 0.8; stroke-linejoin: miter; stroke-linecap: square"/>
   </g>
   <g id="patch_211">
    <path d="M 22.72524 126.181185 
L 428.99976 126.181185 
" style="fill: none; stroke: #000000; stroke-width: 0.8; stroke-linejoin: miter; stroke-linecap: square"/>
   </g>
   <g id="text_18">
    <!-- $M_2$ -->
    <g transform="translate(217.8225 120.181185)scale(0.12 -0.12)">
     <use xlink:href="#DejaVuSans-Oblique-4d" transform="translate(0 0.09375)"/>
     <use xlink:href="#DejaVuSans-32" transform="translate(86.279297 -16.3125)scale(0.7)"/>
    </g>
   </g>
  </g>
  <g id="axes_3">
   <g id="patch_212">
    <path d="M 22.72524 268.321635 
L 428.99976 268.321635 
L 428.99976 216.149775 
L 22.72524 216.149775 
z
" style="fill: #ffffff"/>
   </g>
   <g id="patch_213">
    <path d="M 41.192264 268.321635 
L 44.885668 268.321635 
L 44.885668 257.970075 
L 41.192264 257.970075 
z
" clip-path="url(#p1b99d570c6)" style="fill: #1f77b4"/>
   </g>
   <g id="patch_214">
    <path d="M 44.885668 268.321635 
L 48.579073 268.321635 
L 48.579073 266.251323 
L 44.885668 266.251323 
z
" clip-path="url(#p1b99d570c6)" style="fill: #1f77b4"/>
   </g>
   <g id="patch_215">
    <path d="M 48.579073 268.321635 
L 52.272478 268.321635 
L 52.272478 264.181011 
L 48.579073 264.181011 
z
" clip-path="url(#p1b99d570c6)" style="fill: #1f77b4"/>
   </g>
   <g id="patch_216">
    <path d="M 52.272478 268.321635 
L 55.965883 268.321635 
L 55.965883 266.251323 
L 52.272478 266.251323 
z
" clip-path="url(#p1b99d570c6)" style="fill: #1f77b4"/>
   </g>
   <g id="patch_217">
    <path d="M 55.965883 268.321635 
L 59.659287 268.321635 
L 59.659287 266.251323 
L 55.965883 266.251323 
z
" clip-path="url(#p1b99d570c6)" style="fill: #1f77b4"/>
   </g>
   <g id="patch_218">
    <path d="M 59.659287 268.321635 
L 63.352692 268.321635 
L 63.352692 257.970075 
L 59.659287 257.970075 
z
" clip-path="url(#p1b99d570c6)" style="fill: #1f77b4"/>
   </g>
   <g id="patch_219">
    <path d="M 63.352692 268.321635 
L 67.046097 268.321635 
L 67.046097 264.181011 
L 63.352692 264.181011 
z
" clip-path="url(#p1b99d570c6)" style="fill: #1f77b4"/>
   </g>
   <g id="patch_220">
    <path d="M 67.046097 268.321635 
L 70.739501 268.321635 
L 70.739501 262.110699 
L 67.046097 262.110699 
z
" clip-path="url(#p1b99d570c6)" style="fill: #1f77b4"/>
   </g>
   <g id="patch_221">
    <path d="M 70.739501 268.321635 
L 74.432906 268.321635 
L 74.432906 266.251323 
L 70.739501 266.251323 
z
" clip-path="url(#p1b99d570c6)" style="fill: #1f77b4"/>
   </g>
   <g id="patch_222">
    <path d="M 74.432906 268.321635 
L 78.126311 268.321635 
L 78.126311 268.321635 
L 74.432906 268.321635 
z
" clip-path="url(#p1b99d570c6)" style="fill: #1f77b4"/>
   </g>
   <g id="patch_223">
    <path d="M 78.126311 268.321635 
L 81.819716 268.321635 
L 81.819716 260.040387 
L 78.126311 260.040387 
z
" clip-path="url(#p1b99d570c6)" style="fill: #1f77b4"/>
   </g>
   <g id="patch_224">
    <path d="M 81.819716 268.321635 
L 85.51312 268.321635 
L 85.51312 262.110699 
L 81.819716 262.110699 
z
" clip-path="url(#p1b99d570c6)" style="fill: #1f77b4"/>
   </g>
   <g id="patch_225">
    <path d="M 85.51312 268.321635 
L 89.206525 268.321635 
L 89.206525 264.181011 
L 85.51312 264.181011 
z
" clip-path="url(#p1b99d570c6)" style="fill: #1f77b4"/>
   </g>
   <g id="patch_226">
    <path d="M 89.206525 268.321635 
L 92.89993 268.321635 
L 92.89993 264.181011 
L 89.206525 264.181011 
z
" clip-path="url(#p1b99d570c6)" style="fill: #1f77b4"/>
   </g>
   <g id="patch_227">
    <path d="M 92.89993 268.321635 
L 96.593335 268.321635 
L 96.593335 253.829452 
L 92.89993 253.829452 
z
" clip-path="url(#p1b99d570c6)" style="fill: #1f77b4"/>
   </g>
   <g id="patch_228">
    <path d="M 96.593335 268.321635 
L 100.286739 268.321635 
L 100.286739 262.110699 
L 96.593335 262.110699 
z
" clip-path="url(#p1b99d570c6)" style="fill: #1f77b4"/>
   </g>
   <g id="patch_229">
    <path d="M 100.286739 268.321635 
L 103.980144 268.321635 
L 103.980144 264.181011 
L 100.286739 264.181011 
z
" clip-path="url(#p1b99d570c6)" style="fill: #1f77b4"/>
   </g>
   <g id="patch_230">
    <path d="M 103.980144 268.321635 
L 107.673549 268.321635 
L 107.673549 266.251323 
L 103.980144 266.251323 
z
" clip-path="url(#p1b99d570c6)" style="fill: #1f77b4"/>
   </g>
   <g id="patch_231">
    <path d="M 107.673549 268.321635 
L 111.366953 268.321635 
L 111.366953 264.181011 
L 107.673549 264.181011 
z
" clip-path="url(#p1b99d570c6)" style="fill: #1f77b4"/>
   </g>
   <g id="patch_232">
    <path d="M 111.366953 268.321635 
L 115.060358 268.321635 
L 115.060358 264.181011 
L 111.366953 264.181011 
z
" clip-path="url(#p1b99d570c6)" style="fill: #1f77b4"/>
   </g>
   <g id="patch_233">
    <path d="M 115.060358 268.321635 
L 118.753763 268.321635 
L 118.753763 257.970075 
L 115.060358 257.970075 
z
" clip-path="url(#p1b99d570c6)" style="fill: #1f77b4"/>
   </g>
   <g id="patch_234">
    <path d="M 118.753763 268.321635 
L 122.447168 268.321635 
L 122.447168 264.181011 
L 118.753763 264.181011 
z
" clip-path="url(#p1b99d570c6)" style="fill: #1f77b4"/>
   </g>
   <g id="patch_235">
    <path d="M 122.447168 268.321635 
L 126.140572 268.321635 
L 126.140572 266.251323 
L 122.447168 266.251323 
z
" clip-path="url(#p1b99d570c6)" style="fill: #1f77b4"/>
   </g>
   <g id="patch_236">
    <path d="M 126.140572 268.321635 
L 129.833977 268.321635 
L 129.833977 260.040387 
L 126.140572 260.040387 
z
" clip-path="url(#p1b99d570c6)" style="fill: #1f77b4"/>
   </g>
   <g id="patch_237">
    <path d="M 129.833977 268.321635 
L 133.527382 268.321635 
L 133.527382 266.251323 
L 129.833977 266.251323 
z
" clip-path="url(#p1b99d570c6)" style="fill: #1f77b4"/>
   </g>
   <g id="patch_238">
    <path d="M 133.527382 268.321635 
L 137.220787 268.321635 
L 137.220787 264.181011 
L 133.527382 264.181011 
z
" clip-path="url(#p1b99d570c6)" style="fill: #1f77b4"/>
   </g>
   <g id="patch_239">
    <path d="M 137.220787 268.321635 
L 140.914191 268.321635 
L 140.914191 257.970075 
L 137.220787 257.970075 
z
" clip-path="url(#p1b99d570c6)" style="fill: #1f77b4"/>
   </g>
   <g id="patch_240">
    <path d="M 140.914191 268.321635 
L 144.607596 268.321635 
L 144.607596 255.899764 
L 140.914191 255.899764 
z
" clip-path="url(#p1b99d570c6)" style="fill: #1f77b4"/>
   </g>
   <g id="patch_241">
    <path d="M 144.607596 268.321635 
L 148.301001 268.321635 
L 148.301001 262.110699 
L 144.607596 262.110699 
z
" clip-path="url(#p1b99d570c6)" style="fill: #1f77b4"/>
   </g>
   <g id="patch_242">
    <path d="M 148.301001 268.321635 
L 151.994405 268.321635 
L 151.994405 262.110699 
L 148.301001 262.110699 
z
" clip-path="url(#p1b99d570c6)" style="fill: #1f77b4"/>
   </g>
   <g id="patch_243">
    <path d="M 151.994405 268.321635 
L 155.68781 268.321635 
L 155.68781 264.181011 
L 151.994405 264.181011 
z
" clip-path="url(#p1b99d570c6)" style="fill: #1f77b4"/>
   </g>
   <g id="patch_244">
    <path d="M 155.68781 268.321635 
L 159.381215 268.321635 
L 159.381215 260.040387 
L 155.68781 260.040387 
z
" clip-path="url(#p1b99d570c6)" style="fill: #1f77b4"/>
   </g>
   <g id="patch_245">
    <path d="M 159.381215 268.321635 
L 163.07462 268.321635 
L 163.07462 262.110699 
L 159.381215 262.110699 
z
" clip-path="url(#p1b99d570c6)" style="fill: #1f77b4"/>
   </g>
   <g id="patch_246">
    <path d="M 163.07462 268.321635 
L 166.768024 268.321635 
L 166.768024 262.110699 
L 163.07462 262.110699 
z
" clip-path="url(#p1b99d570c6)" style="fill: #1f77b4"/>
   </g>
   <g id="patch_247">
    <path d="M 166.768024 268.321635 
L 170.461429 268.321635 
L 170.461429 262.110699 
L 166.768024 262.110699 
z
" clip-path="url(#p1b99d570c6)" style="fill: #1f77b4"/>
   </g>
   <g id="patch_248">
    <path d="M 170.461429 268.321635 
L 174.154834 268.321635 
L 174.154834 266.251323 
L 170.461429 266.251323 
z
" clip-path="url(#p1b99d570c6)" style="fill: #1f77b4"/>
   </g>
   <g id="patch_249">
    <path d="M 174.154834 268.321635 
L 177.848239 268.321635 
L 177.848239 257.970075 
L 174.154834 257.970075 
z
" clip-path="url(#p1b99d570c6)" style="fill: #1f77b4"/>
   </g>
   <g id="patch_250">
    <path d="M 177.848239 268.321635 
L 181.541643 268.321635 
L 181.541643 257.970075 
L 177.848239 257.970075 
z
" clip-path="url(#p1b99d570c6)" style="fill: #1f77b4"/>
   </g>
   <g id="patch_251">
    <path d="M 181.541643 268.321635 
L 185.235048 268.321635 
L 185.235048 260.040387 
L 181.541643 260.040387 
z
" clip-path="url(#p1b99d570c6)" style="fill: #1f77b4"/>
   </g>
   <g id="patch_252">
    <path d="M 185.235048 268.321635 
L 188.928453 268.321635 
L 188.928453 255.899764 
L 185.235048 255.899764 
z
" clip-path="url(#p1b99d570c6)" style="fill: #1f77b4"/>
   </g>
   <g id="patch_253">
    <path d="M 188.928453 268.321635 
L 192.621857 268.321635 
L 192.621857 262.110699 
L 188.928453 262.110699 
z
" clip-path="url(#p1b99d570c6)" style="fill: #1f77b4"/>
   </g>
   <g id="patch_254">
    <path d="M 192.621857 268.321635 
L 196.315262 268.321635 
L 196.315262 253.829452 
L 192.621857 253.829452 
z
" clip-path="url(#p1b99d570c6)" style="fill: #1f77b4"/>
   </g>
   <g id="patch_255">
    <path d="M 196.315262 268.321635 
L 200.008667 268.321635 
L 200.008667 255.899764 
L 196.315262 255.899764 
z
" clip-path="url(#p1b99d570c6)" style="fill: #1f77b4"/>
   </g>
   <g id="patch_256">
    <path d="M 200.008667 268.321635 
L 203.702072 268.321635 
L 203.702072 253.829452 
L 200.008667 253.829452 
z
" clip-path="url(#p1b99d570c6)" style="fill: #1f77b4"/>
   </g>
   <g id="patch_257">
    <path d="M 203.702072 268.321635 
L 207.395476 268.321635 
L 207.395476 260.040387 
L 203.702072 260.040387 
z
" clip-path="url(#p1b99d570c6)" style="fill: #1f77b4"/>
   </g>
   <g id="patch_258">
    <path d="M 207.395476 268.321635 
L 211.088881 268.321635 
L 211.088881 255.899764 
L 207.395476 255.899764 
z
" clip-path="url(#p1b99d570c6)" style="fill: #1f77b4"/>
   </g>
   <g id="patch_259">
    <path d="M 211.088881 268.321635 
L 214.782286 268.321635 
L 214.782286 264.181011 
L 211.088881 264.181011 
z
" clip-path="url(#p1b99d570c6)" style="fill: #1f77b4"/>
   </g>
   <g id="patch_260">
    <path d="M 214.782286 268.321635 
L 218.475691 268.321635 
L 218.475691 251.75914 
L 214.782286 251.75914 
z
" clip-path="url(#p1b99d570c6)" style="fill: #1f77b4"/>
   </g>
   <g id="patch_261">
    <path d="M 218.475691 268.321635 
L 222.169095 268.321635 
L 222.169095 260.040387 
L 218.475691 260.040387 
z
" clip-path="url(#p1b99d570c6)" style="fill: #1f77b4"/>
   </g>
   <g id="patch_262">
    <path d="M 222.169095 268.321635 
L 225.8625 268.321635 
L 225.8625 260.040387 
L 222.169095 260.040387 
z
" clip-path="url(#p1b99d570c6)" style="fill: #1f77b4"/>
   </g>
   <g id="patch_263">
    <path d="M 225.8625 268.321635 
L 229.555905 268.321635 
L 229.555905 255.899764 
L 225.8625 255.899764 
z
" clip-path="url(#p1b99d570c6)" style="fill: #1f77b4"/>
   </g>
   <g id="patch_264">
    <path d="M 229.555905 268.321635 
L 233.249309 268.321635 
L 233.249309 255.899764 
L 229.555905 255.899764 
z
" clip-path="url(#p1b99d570c6)" style="fill: #1f77b4"/>
   </g>
   <g id="patch_265">
    <path d="M 233.249309 268.321635 
L 236.942714 268.321635 
L 236.942714 257.970075 
L 233.249309 257.970075 
z
" clip-path="url(#p1b99d570c6)" style="fill: #1f77b4"/>
   </g>
   <g id="patch_266">
    <path d="M 236.942714 268.321635 
L 240.636119 268.321635 
L 240.636119 262.110699 
L 236.942714 262.110699 
z
" clip-path="url(#p1b99d570c6)" style="fill: #1f77b4"/>
   </g>
   <g id="patch_267">
    <path d="M 240.636119 268.321635 
L 244.329524 268.321635 
L 244.329524 264.181011 
L 240.636119 264.181011 
z
" clip-path="url(#p1b99d570c6)" style="fill: #1f77b4"/>
   </g>
   <g id="patch_268">
    <path d="M 244.329524 268.321635 
L 248.022928 268.321635 
L 248.022928 255.899764 
L 244.329524 255.899764 
z
" clip-path="url(#p1b99d570c6)" style="fill: #1f77b4"/>
   </g>
   <g id="patch_269">
    <path d="M 248.022928 268.321635 
L 251.716333 268.321635 
L 251.716333 257.970075 
L 248.022928 257.970075 
z
" clip-path="url(#p1b99d570c6)" style="fill: #1f77b4"/>
   </g>
   <g id="patch_270">
    <path d="M 251.716333 268.321635 
L 255.409738 268.321635 
L 255.409738 251.75914 
L 251.716333 251.75914 
z
" clip-path="url(#p1b99d570c6)" style="fill: #1f77b4"/>
   </g>
   <g id="patch_271">
    <path d="M 255.409738 268.321635 
L 259.103143 268.321635 
L 259.103143 253.829452 
L 255.409738 253.829452 
z
" clip-path="url(#p1b99d570c6)" style="fill: #1f77b4"/>
   </g>
   <g id="patch_272">
    <path d="M 259.103143 268.321635 
L 262.796547 268.321635 
L 262.796547 255.899764 
L 259.103143 255.899764 
z
" clip-path="url(#p1b99d570c6)" style="fill: #1f77b4"/>
   </g>
   <g id="patch_273">
    <path d="M 262.796547 268.321635 
L 266.489952 268.321635 
L 266.489952 253.829452 
L 262.796547 253.829452 
z
" clip-path="url(#p1b99d570c6)" style="fill: #1f77b4"/>
   </g>
   <g id="patch_274">
    <path d="M 266.489952 268.321635 
L 270.183357 268.321635 
L 270.183357 260.040387 
L 266.489952 260.040387 
z
" clip-path="url(#p1b99d570c6)" style="fill: #1f77b4"/>
   </g>
   <g id="patch_275">
    <path d="M 270.183357 268.321635 
L 273.876761 268.321635 
L 273.876761 257.970075 
L 270.183357 257.970075 
z
" clip-path="url(#p1b99d570c6)" style="fill: #1f77b4"/>
   </g>
   <g id="patch_276">
    <path d="M 273.876761 268.321635 
L 277.570166 268.321635 
L 277.570166 253.829452 
L 273.876761 253.829452 
z
" clip-path="url(#p1b99d570c6)" style="fill: #1f77b4"/>
   </g>
   <g id="patch_277">
    <path d="M 277.570166 268.321635 
L 281.263571 268.321635 
L 281.263571 255.899764 
L 277.570166 255.899764 
z
" clip-path="url(#p1b99d570c6)" style="fill: #1f77b4"/>
   </g>
   <g id="patch_278">
    <path d="M 281.263571 268.321635 
L 284.956976 268.321635 
L 284.956976 251.75914 
L 281.263571 251.75914 
z
" clip-path="url(#p1b99d570c6)" style="fill: #1f77b4"/>
   </g>
   <g id="patch_279">
    <path d="M 284.956976 268.321635 
L 288.65038 268.321635 
L 288.65038 245.548204 
L 284.956976 245.548204 
z
" clip-path="url(#p1b99d570c6)" style="fill: #1f77b4"/>
   </g>
   <g id="patch_280">
    <path d="M 288.65038 268.321635 
L 292.343785 268.321635 
L 292.343785 247.618516 
L 288.65038 247.618516 
z
" clip-path="url(#p1b99d570c6)" style="fill: #1f77b4"/>
   </g>
   <g id="patch_281">
    <path d="M 292.343785 268.321635 
L 296.03719 268.321635 
L 296.03719 249.688828 
L 292.343785 249.688828 
z
" clip-path="url(#p1b99d570c6)" style="fill: #1f77b4"/>
   </g>
   <g id="patch_282">
    <path d="M 296.03719 268.321635 
L 299.730595 268.321635 
L 299.730595 249.688828 
L 296.03719 249.688828 
z
" clip-path="url(#p1b99d570c6)" style="fill: #1f77b4"/>
   </g>
   <g id="patch_283">
    <path d="M 299.730595 268.321635 
L 303.423999 268.321635 
L 303.423999 260.040387 
L 299.730595 260.040387 
z
" clip-path="url(#p1b99d570c6)" style="fill: #1f77b4"/>
   </g>
   <g id="patch_284">
    <path d="M 303.423999 268.321635 
L 307.117404 268.321635 
L 307.117404 253.829452 
L 303.423999 253.829452 
z
" clip-path="url(#p1b99d570c6)" style="fill: #1f77b4"/>
   </g>
   <g id="patch_285">
    <path d="M 307.117404 268.321635 
L 310.810809 268.321635 
L 310.810809 255.899764 
L 307.117404 255.899764 
z
" clip-path="url(#p1b99d570c6)" style="fill: #1f77b4"/>
   </g>
   <g id="patch_286">
    <path d="M 310.810809 268.321635 
L 314.504213 268.321635 
L 314.504213 251.75914 
L 310.810809 251.75914 
z
" clip-path="url(#p1b99d570c6)" style="fill: #1f77b4"/>
   </g>
   <g id="patch_287">
    <path d="M 314.504213 268.321635 
L 318.197618 268.321635 
L 318.197618 247.618516 
L 314.504213 247.618516 
z
" clip-path="url(#p1b99d570c6)" style="fill: #1f77b4"/>
   </g>
   <g id="patch_288">
    <path d="M 318.197618 268.321635 
L 321.891023 268.321635 
L 321.891023 253.829452 
L 318.197618 253.829452 
z
" clip-path="url(#p1b99d570c6)" style="fill: #1f77b4"/>
   </g>
   <g id="patch_289">
    <path d="M 321.891023 268.321635 
L 325.584428 268.321635 
L 325.584428 245.548204 
L 321.891023 245.548204 
z
" clip-path="url(#p1b99d570c6)" style="fill: #1f77b4"/>
   </g>
   <g id="patch_290">
    <path d="M 325.584428 268.321635 
L 329.277832 268.321635 
L 329.277832 251.75914 
L 325.584428 251.75914 
z
" clip-path="url(#p1b99d570c6)" style="fill: #1f77b4"/>
   </g>
   <g id="patch_291">
    <path d="M 329.277832 268.321635 
L 332.971237 268.321635 
L 332.971237 243.477892 
L 329.277832 243.477892 
z
" clip-path="url(#p1b99d570c6)" style="fill: #1f77b4"/>
   </g>
   <g id="patch_292">
    <path d="M 332.971237 268.321635 
L 336.664642 268.321635 
L 336.664642 239.337268 
L 332.971237 239.337268 
z
" clip-path="url(#p1b99d570c6)" style="fill: #1f77b4"/>
   </g>
   <g id="patch_293">
    <path d="M 336.664642 268.321635 
L 340.358047 268.321635 
L 340.358047 251.75914 
L 336.664642 251.75914 
z
" clip-path="url(#p1b99d570c6)" style="fill: #1f77b4"/>
   </g>
   <g id="patch_294">
    <path d="M 340.358047 268.321635 
L 344.051451 268.321635 
L 344.051451 249.688828 
L 340.358047 249.688828 
z
" clip-path="url(#p1b99d570c6)" style="fill: #1f77b4"/>
   </g>
   <g id="patch_295">
    <path d="M 344.051451 268.321635 
L 347.744856 268.321635 
L 347.744856 239.337268 
L 344.051451 239.337268 
z
" clip-path="url(#p1b99d570c6)" style="fill: #1f77b4"/>
   </g>
   <g id="patch_296">
    <path d="M 347.744856 268.321635 
L 351.438261 268.321635 
L 351.438261 255.899764 
L 347.744856 255.899764 
z
" clip-path="url(#p1b99d570c6)" style="fill: #1f77b4"/>
   </g>
   <g id="patch_297">
    <path d="M 351.438261 268.321635 
L 355.131665 268.321635 
L 355.131665 251.75914 
L 351.438261 251.75914 
z
" clip-path="url(#p1b99d570c6)" style="fill: #1f77b4"/>
   </g>
   <g id="patch_298">
    <path d="M 355.131665 268.321635 
L 358.82507 268.321635 
L 358.82507 247.618516 
L 355.131665 247.618516 
z
" clip-path="url(#p1b99d570c6)" style="fill: #1f77b4"/>
   </g>
   <g id="patch_299">
    <path d="M 358.82507 268.321635 
L 362.518475 268.321635 
L 362.518475 260.040387 
L 358.82507 260.040387 
z
" clip-path="url(#p1b99d570c6)" style="fill: #1f77b4"/>
   </g>
   <g id="patch_300">
    <path d="M 362.518475 268.321635 
L 366.21188 268.321635 
L 366.21188 251.75914 
L 362.518475 251.75914 
z
" clip-path="url(#p1b99d570c6)" style="fill: #1f77b4"/>
   </g>
   <g id="patch_301">
    <path d="M 366.21188 268.321635 
L 369.905284 268.321635 
L 369.905284 237.266956 
L 366.21188 237.266956 
z
" clip-path="url(#p1b99d570c6)" style="fill: #1f77b4"/>
   </g>
   <g id="patch_302">
    <path d="M 369.905284 268.321635 
L 373.598689 268.321635 
L 373.598689 231.056021 
L 369.905284 231.056021 
z
" clip-path="url(#p1b99d570c6)" style="fill: #1f77b4"/>
   </g>
   <g id="patch_303">
    <path d="M 373.598689 268.321635 
L 377.292094 268.321635 
L 377.292094 239.337268 
L 373.598689 239.337268 
z
" clip-path="url(#p1b99d570c6)" style="fill: #1f77b4"/>
   </g>
   <g id="patch_304">
    <path d="M 377.292094 268.321635 
L 380.985499 268.321635 
L 380.985499 245.548204 
L 377.292094 245.548204 
z
" clip-path="url(#p1b99d570c6)" style="fill: #1f77b4"/>
   </g>
   <g id="patch_305">
    <path d="M 380.985499 268.321635 
L 384.678903 268.321635 
L 384.678903 235.196645 
L 380.985499 235.196645 
z
" clip-path="url(#p1b99d570c6)" style="fill: #1f77b4"/>
   </g>
   <g id="patch_306">
    <path d="M 384.678903 268.321635 
L 388.372308 268.321635 
L 388.372308 251.75914 
L 384.678903 251.75914 
z
" clip-path="url(#p1b99d570c6)" style="fill: #1f77b4"/>
   </g>
   <g id="patch_307">
    <path d="M 388.372308 268.321635 
L 392.065713 268.321635 
L 392.065713 255.899764 
L 388.372308 255.899764 
z
" clip-path="url(#p1b99d570c6)" style="fill: #1f77b4"/>
   </g>
   <g id="patch_308">
    <path d="M 392.065713 268.321635 
L 395.759117 268.321635 
L 395.759117 257.970075 
L 392.065713 257.970075 
z
" clip-path="url(#p1b99d570c6)" style="fill: #1f77b4"/>
   </g>
   <g id="patch_309">
    <path d="M 395.759117 268.321635 
L 399.452522 268.321635 
L 399.452522 241.40758 
L 395.759117 241.40758 
z
" clip-path="url(#p1b99d570c6)" style="fill: #1f77b4"/>
   </g>
   <g id="patch_310">
    <path d="M 399.452522 268.321635 
L 403.145927 268.321635 
L 403.145927 243.477892 
L 399.452522 243.477892 
z
" clip-path="url(#p1b99d570c6)" style="fill: #1f77b4"/>
   </g>
   <g id="patch_311">
    <path d="M 403.145927 268.321635 
L 406.839332 268.321635 
L 406.839332 253.829452 
L 403.145927 253.829452 
z
" clip-path="url(#p1b99d570c6)" style="fill: #1f77b4"/>
   </g>
   <g id="patch_312">
    <path d="M 406.839332 268.321635 
L 410.532736 268.321635 
L 410.532736 241.40758 
L 406.839332 241.40758 
z
" clip-path="url(#p1b99d570c6)" style="fill: #1f77b4"/>
   </g>
   <g id="matplotlib.axis_5">
    <g id="xtick_13">
     <g id="line2d_17">
      <g>
       <use xlink:href="#m165a15e083" x="23.331441" y="268.321635" style="stroke: #000000; stroke-width: 0.8"/>
      </g>
     </g>
     <g id="text_19">
      <!-- 0 -->
      <g transform="translate(20.150191 282.920073)scale(0.1 -0.1)">
       <use xlink:href="#DejaVuSans-30"/>
      </g>
     </g>
    </g>
    <g id="xtick_14">
     <g id="line2d_18">
      <g>
       <use xlink:href="#m165a15e083" x="100.835128" y="268.321635" style="stroke: #000000; stroke-width: 0.8"/>
      </g>
     </g>
     <g id="text_20">
      <!-- 1000 -->
      <g transform="translate(88.110128 282.920073)scale(0.1 -0.1)">
       <use xlink:href="#DejaVuSans-31"/>
       <use xlink:href="#DejaVuSans-30" x="63.623047"/>
       <use xlink:href="#DejaVuSans-30" x="127.246094"/>
       <use xlink:href="#DejaVuSans-30" x="190.869141"/>
      </g>
     </g>
    </g>
    <g id="xtick_15">
     <g id="line2d_19">
      <g>
       <use xlink:href="#m165a15e083" x="178.338816" y="268.321635" style="stroke: #000000; stroke-width: 0.8"/>
      </g>
     </g>
     <g id="text_21">
      <!-- 2000 -->
      <g transform="translate(165.613816 282.920073)scale(0.1 -0.1)">
       <use xlink:href="#DejaVuSans-32"/>
       <use xlink:href="#DejaVuSans-30" x="63.623047"/>
       <use xlink:href="#DejaVuSans-30" x="127.246094"/>
       <use xlink:href="#DejaVuSans-30" x="190.869141"/>
      </g>
     </g>
    </g>
    <g id="xtick_16">
     <g id="line2d_20">
      <g>
       <use xlink:href="#m165a15e083" x="255.842503" y="268.321635" style="stroke: #000000; stroke-width: 0.8"/>
      </g>
     </g>
     <g id="text_22">
      <!-- 3000 -->
      <g transform="translate(243.117503 282.920073)scale(0.1 -0.1)">
       <use xlink:href="#DejaVuSans-33"/>
       <use xlink:href="#DejaVuSans-30" x="63.623047"/>
       <use xlink:href="#DejaVuSans-30" x="127.246094"/>
       <use xlink:href="#DejaVuSans-30" x="190.869141"/>
      </g>
     </g>
    </g>
    <g id="xtick_17">
     <g id="line2d_21">
      <g>
       <use xlink:href="#m165a15e083" x="333.34619" y="268.321635" style="stroke: #000000; stroke-width: 0.8"/>
      </g>
     </g>
     <g id="text_23">
      <!-- 4000 -->
      <g transform="translate(320.62119 282.920073)scale(0.1 -0.1)">
       <use xlink:href="#DejaVuSans-34"/>
       <use xlink:href="#DejaVuSans-30" x="63.623047"/>
       <use xlink:href="#DejaVuSans-30" x="127.246094"/>
       <use xlink:href="#DejaVuSans-30" x="190.869141"/>
      </g>
     </g>
    </g>
    <g id="xtick_18">
     <g id="line2d_22">
      <g>
       <use xlink:href="#m165a15e083" x="410.849878" y="268.321635" style="stroke: #000000; stroke-width: 0.8"/>
      </g>
     </g>
     <g id="text_24">
      <!-- 5000 -->
      <g transform="translate(398.124878 282.920073)scale(0.1 -0.1)">
       <use xlink:href="#DejaVuSans-35"/>
       <use xlink:href="#DejaVuSans-30" x="63.623047"/>
       <use xlink:href="#DejaVuSans-30" x="127.246094"/>
       <use xlink:href="#DejaVuSans-30" x="190.869141"/>
      </g>
     </g>
    </g>
   </g>
   <g id="matplotlib.axis_6">
    <g id="ytick_5">
     <g id="line2d_23">
      <g>
       <use xlink:href="#m0a15551346" x="22.72524" y="268.321635" style="stroke: #000000; stroke-width: 0.8"/>
      </g>
     </g>
     <g id="text_25">
      <!-- 0 -->
      <g transform="translate(9.36274 272.120854)scale(0.1 -0.1)">
       <use xlink:href="#DejaVuSans-30"/>
      </g>
     </g>
    </g>
    <g id="ytick_6">
     <g id="line2d_24">
      <g>
       <use xlink:href="#m0a15551346" x="22.72524" y="226.915397" style="stroke: #000000; stroke-width: 0.8"/>
      </g>
     </g>
     <g id="text_26">
      <!-- 20 -->
      <g transform="translate(3.00024 230.714616)scale(0.1 -0.1)">
       <use xlink:href="#DejaVuSans-32"/>
       <use xlink:href="#DejaVuSans-30" x="63.623047"/>
      </g>
     </g>
    </g>
   </g>
   <g id="patch_313">
    <path d="M 22.72524 268.321635 
L 22.72524 216.149775 
" style="fill: none; stroke: #000000; stroke-width: 0.8; stroke-linejoin: miter; stroke-linecap: square"/>
   </g>
   <g id="patch_314">
    <path d="M 428.99976 268.321635 
L 428.99976 216.149775 
" style="fill: none; stroke: #000000; stroke-width: 0.8; stroke-linejoin: miter; stroke-linecap: square"/>
   </g>
   <g id="patch_315">
    <path d="M 22.72524 268.321635 
L 428.99976 268.321635 
" style="fill: none; stroke: #000000; stroke-width: 0.8; stroke-linejoin: miter; stroke-linecap: square"/>
   </g>
   <g id="patch_316">
    <path d="M 22.72524 216.149775 
L 428.99976 216.149775 
" style="fill: none; stroke: #000000; stroke-width: 0.8; stroke-linejoin: miter; stroke-linecap: square"/>
   </g>
   <g id="text_27">
    <!-- $M_3$ -->
    <g transform="translate(217.8225 210.149775)scale(0.12 -0.12)">
     <use xlink:href="#DejaVuSans-Oblique-4d" transform="translate(0 0.09375)"/>
     <use xlink:href="#DejaVuSans-33" transform="translate(86.279297 -16.3125)scale(0.7)"/>
    </g>
   </g>
  </g>
  <g id="text_28">
   <!-- Histogramme des paramtres de masse -->
   <g transform="translate(95.4525 12.598365)scale(0.12 -0.12)">
    <defs>
     <path id="DejaVuSans-48" d="M 628 4666 
L 1259 4666 
L 1259 2753 
L 3553 2753 
L 3553 4666 
L 4184 4666 
L 4184 0 
L 3553 0 
L 3553 2222 
L 1259 2222 
L 1259 0 
L 628 0 
L 628 4666 
z
" transform="scale(0.015625)"/>
     <path id="DejaVuSans-69" d="M 603 3500 
L 1178 3500 
L 1178 0 
L 603 0 
L 603 3500 
z
M 603 4863 
L 1178 4863 
L 1178 4134 
L 603 4134 
L 603 4863 
z
" transform="scale(0.015625)"/>
     <path id="DejaVuSans-73" d="M 2834 3397 
L 2834 2853 
Q 2591 2978 2328 3040 
Q 2066 3103 1784 3103 
Q 1356 3103 1142 2972 
Q 928 2841 928 2578 
Q 928 2378 1081 2264 
Q 1234 2150 1697 2047 
L 1894 2003 
Q 2506 1872 2764 1633 
Q 3022 1394 3022 966 
Q 3022 478 2636 193 
Q 2250 -91 1575 -91 
Q 1294 -91 989 -36 
Q 684 19 347 128 
L 347 722 
Q 666 556 975 473 
Q 1284 391 1588 391 
Q 1994 391 2212 530 
Q 2431 669 2431 922 
Q 2431 1156 2273 1281 
Q 2116 1406 1581 1522 
L 1381 1569 
Q 847 1681 609 1914 
Q 372 2147 372 2553 
Q 372 3047 722 3315 
Q 1072 3584 1716 3584 
Q 2034 3584 2315 3537 
Q 2597 3491 2834 3397 
z
" transform="scale(0.015625)"/>
     <path id="DejaVuSans-74" d="M 1172 4494 
L 1172 3500 
L 2356 3500 
L 2356 3053 
L 1172 3053 
L 1172 1153 
Q 1172 725 1289 603 
Q 1406 481 1766 481 
L 2356 481 
L 2356 0 
L 1766 0 
Q 1100 0 847 248 
Q 594 497 594 1153 
L 594 3053 
L 172 3053 
L 172 3500 
L 594 3500 
L 594 4494 
L 1172 4494 
z
" transform="scale(0.015625)"/>
     <path id="DejaVuSans-6f" d="M 1959 3097 
Q 1497 3097 1228 2736 
Q 959 2375 959 1747 
Q 959 1119 1226 758 
Q 1494 397 1959 397 
Q 2419 397 2687 759 
Q 2956 1122 2956 1747 
Q 2956 2369 2687 2733 
Q 2419 3097 1959 3097 
z
M 1959 3584 
Q 2709 3584 3137 3096 
Q 3566 2609 3566 1747 
Q 3566 888 3137 398 
Q 2709 -91 1959 -91 
Q 1206 -91 779 398 
Q 353 888 353 1747 
Q 353 2609 779 3096 
Q 1206 3584 1959 3584 
z
" transform="scale(0.015625)"/>
     <path id="DejaVuSans-67" d="M 2906 1791 
Q 2906 2416 2648 2759 
Q 2391 3103 1925 3103 
Q 1463 3103 1205 2759 
Q 947 2416 947 1791 
Q 947 1169 1205 825 
Q 1463 481 1925 481 
Q 2391 481 2648 825 
Q 2906 1169 2906 1791 
z
M 3481 434 
Q 3481 -459 3084 -895 
Q 2688 -1331 1869 -1331 
Q 1566 -1331 1297 -1286 
Q 1028 -1241 775 -1147 
L 775 -588 
Q 1028 -725 1275 -790 
Q 1522 -856 1778 -856 
Q 2344 -856 2625 -561 
Q 2906 -266 2906 331 
L 2906 616 
Q 2728 306 2450 153 
Q 2172 0 1784 0 
Q 1141 0 747 490 
Q 353 981 353 1791 
Q 353 2603 747 3093 
Q 1141 3584 1784 3584 
Q 2172 3584 2450 3431 
Q 2728 3278 2906 2969 
L 2906 3500 
L 3481 3500 
L 3481 434 
z
" transform="scale(0.015625)"/>
     <path id="DejaVuSans-72" d="M 2631 2963 
Q 2534 3019 2420 3045 
Q 2306 3072 2169 3072 
Q 1681 3072 1420 2755 
Q 1159 2438 1159 1844 
L 1159 0 
L 581 0 
L 581 3500 
L 1159 3500 
L 1159 2956 
Q 1341 3275 1631 3429 
Q 1922 3584 2338 3584 
Q 2397 3584 2469 3576 
Q 2541 3569 2628 3553 
L 2631 2963 
z
" transform="scale(0.015625)"/>
     <path id="DejaVuSans-61" d="M 2194 1759 
Q 1497 1759 1228 1600 
Q 959 1441 959 1056 
Q 959 750 1161 570 
Q 1363 391 1709 391 
Q 2188 391 2477 730 
Q 2766 1069 2766 1631 
L 2766 1759 
L 2194 1759 
z
M 3341 1997 
L 3341 0 
L 2766 0 
L 2766 531 
Q 2569 213 2275 61 
Q 1981 -91 1556 -91 
Q 1019 -91 701 211 
Q 384 513 384 1019 
Q 384 1609 779 1909 
Q 1175 2209 1959 2209 
L 2766 2209 
L 2766 2266 
Q 2766 2663 2505 2880 
Q 2244 3097 1772 3097 
Q 1472 3097 1187 3025 
Q 903 2953 641 2809 
L 641 3341 
Q 956 3463 1253 3523 
Q 1550 3584 1831 3584 
Q 2591 3584 2966 3190 
Q 3341 2797 3341 1997 
z
" transform="scale(0.015625)"/>
     <path id="DejaVuSans-6d" d="M 3328 2828 
Q 3544 3216 3844 3400 
Q 4144 3584 4550 3584 
Q 5097 3584 5394 3201 
Q 5691 2819 5691 2113 
L 5691 0 
L 5113 0 
L 5113 2094 
Q 5113 2597 4934 2840 
Q 4756 3084 4391 3084 
Q 3944 3084 3684 2787 
Q 3425 2491 3425 1978 
L 3425 0 
L 2847 0 
L 2847 2094 
Q 2847 2600 2669 2842 
Q 2491 3084 2119 3084 
Q 1678 3084 1418 2786 
Q 1159 2488 1159 1978 
L 1159 0 
L 581 0 
L 581 3500 
L 1159 3500 
L 1159 2956 
Q 1356 3278 1631 3431 
Q 1906 3584 2284 3584 
Q 2666 3584 2933 3390 
Q 3200 3197 3328 2828 
z
" transform="scale(0.015625)"/>
     <path id="DejaVuSans-65" d="M 3597 1894 
L 3597 1613 
L 953 1613 
Q 991 1019 1311 708 
Q 1631 397 2203 397 
Q 2534 397 2845 478 
Q 3156 559 3463 722 
L 3463 178 
Q 3153 47 2828 -22 
Q 2503 -91 2169 -91 
Q 1331 -91 842 396 
Q 353 884 353 1716 
Q 353 2575 817 3079 
Q 1281 3584 2069 3584 
Q 2775 3584 3186 3129 
Q 3597 2675 3597 1894 
z
M 3022 2063 
Q 3016 2534 2758 2815 
Q 2500 3097 2075 3097 
Q 1594 3097 1305 2825 
Q 1016 2553 972 2059 
L 3022 2063 
z
" transform="scale(0.015625)"/>
     <path id="DejaVuSans-20" transform="scale(0.015625)"/>
     <path id="DejaVuSans-64" d="M 2906 2969 
L 2906 4863 
L 3481 4863 
L 3481 0 
L 2906 0 
L 2906 525 
Q 2725 213 2448 61 
Q 2172 -91 1784 -91 
Q 1150 -91 751 415 
Q 353 922 353 1747 
Q 353 2572 751 3078 
Q 1150 3584 1784 3584 
Q 2172 3584 2448 3432 
Q 2725 3281 2906 2969 
z
M 947 1747 
Q 947 1113 1208 752 
Q 1469 391 1925 391 
Q 2381 391 2643 752 
Q 2906 1113 2906 1747 
Q 2906 2381 2643 2742 
Q 2381 3103 1925 3103 
Q 1469 3103 1208 2742 
Q 947 2381 947 1747 
z
" transform="scale(0.015625)"/>
     <path id="DejaVuSans-70" d="M 1159 525 
L 1159 -1331 
L 581 -1331 
L 581 3500 
L 1159 3500 
L 1159 2969 
Q 1341 3281 1617 3432 
Q 1894 3584 2278 3584 
Q 2916 3584 3314 3078 
Q 3713 2572 3713 1747 
Q 3713 922 3314 415 
Q 2916 -91 2278 -91 
Q 1894 -91 1617 61 
Q 1341 213 1159 525 
z
M 3116 1747 
Q 3116 2381 2855 2742 
Q 2594 3103 2138 3103 
Q 1681 3103 1420 2742 
Q 1159 2381 1159 1747 
Q 1159 1113 1420 752 
Q 1681 391 2138 391 
Q 2594 391 2855 752 
Q 3116 1113 3116 1747 
z
" transform="scale(0.015625)"/>
     <path id="DejaVuSans-e8" d="M 3597 1894 
L 3597 1613 
L 953 1613 
Q 991 1019 1311 708 
Q 1631 397 2203 397 
Q 2534 397 2845 478 
Q 3156 559 3463 722 
L 3463 178 
Q 3153 47 2828 -22 
Q 2503 -91 2169 -91 
Q 1331 -91 842 396 
Q 353 884 353 1716 
Q 353 2575 817 3079 
Q 1281 3584 2069 3584 
Q 2775 3584 3186 3129 
Q 3597 2675 3597 1894 
z
M 3022 2063 
Q 3016 2534 2758 2815 
Q 2500 3097 2075 3097 
Q 1594 3097 1305 2825 
Q 1016 2553 972 2059 
L 3022 2063 
z
M 1579 5119 
L 2460 3950 
L 1982 3950 
L 963 5119 
L 1579 5119 
z
" transform="scale(0.015625)"/>
    </defs>
    <use xlink:href="#DejaVuSans-48"/>
    <use xlink:href="#DejaVuSans-69" x="75.195312"/>
    <use xlink:href="#DejaVuSans-73" x="102.978516"/>
    <use xlink:href="#DejaVuSans-74" x="155.078125"/>
    <use xlink:href="#DejaVuSans-6f" x="194.287109"/>
    <use xlink:href="#DejaVuSans-67" x="255.46875"/>
    <use xlink:href="#DejaVuSans-72" x="318.945312"/>
    <use xlink:href="#DejaVuSans-61" x="360.058594"/>
    <use xlink:href="#DejaVuSans-6d" x="421.337891"/>
    <use xlink:href="#DejaVuSans-6d" x="518.75"/>
    <use xlink:href="#DejaVuSans-65" x="616.162109"/>
    <use xlink:href="#DejaVuSans-20" x="677.685547"/>
    <use xlink:href="#DejaVuSans-64" x="709.472656"/>
    <use xlink:href="#DejaVuSans-65" x="772.949219"/>
    <use xlink:href="#DejaVuSans-73" x="834.472656"/>
    <use xlink:href="#DejaVuSans-20" x="886.572266"/>
    <use xlink:href="#DejaVuSans-70" x="918.359375"/>
    <use xlink:href="#DejaVuSans-61" x="981.835938"/>
    <use xlink:href="#DejaVuSans-72" x="1043.115234"/>
    <use xlink:href="#DejaVuSans-61" x="1084.228516"/>
    <use xlink:href="#DejaVuSans-6d" x="1145.507812"/>
    <use xlink:href="#DejaVuSans-e8" x="1242.919922"/>
    <use xlink:href="#DejaVuSans-74" x="1304.443359"/>
    <use xlink:href="#DejaVuSans-72" x="1343.652344"/>
    <use xlink:href="#DejaVuSans-65" x="1382.515625"/>
    <use xlink:href="#DejaVuSans-73" x="1444.039062"/>
    <use xlink:href="#DejaVuSans-20" x="1496.138672"/>
    <use xlink:href="#DejaVuSans-64" x="1527.925781"/>
    <use xlink:href="#DejaVuSans-65" x="1591.402344"/>
    <use xlink:href="#DejaVuSans-20" x="1652.925781"/>
    <use xlink:href="#DejaVuSans-6d" x="1684.712891"/>
    <use xlink:href="#DejaVuSans-61" x="1782.125"/>
    <use xlink:href="#DejaVuSans-73" x="1843.404297"/>
    <use xlink:href="#DejaVuSans-73" x="1895.503906"/>
    <use xlink:href="#DejaVuSans-65" x="1947.603516"/>
   </g>
  </g>
  <g id="text_29">
   <!-- Masse (GeV) -->
   <g transform="translate(184.474219 302.4)scale(0.1 -0.1)">
    <defs>
     <path id="DejaVuSans-4d" d="M 628 4666 
L 1569 4666 
L 2759 1491 
L 3956 4666 
L 4897 4666 
L 4897 0 
L 4281 0 
L 4281 4097 
L 3078 897 
L 2444 897 
L 1241 4097 
L 1241 0 
L 628 0 
L 628 4666 
z
" transform="scale(0.015625)"/>
     <path id="DejaVuSans-28" d="M 1984 4856 
Q 1566 4138 1362 3434 
Q 1159 2731 1159 2009 
Q 1159 1288 1364 580 
Q 1569 -128 1984 -844 
L 1484 -844 
Q 1016 -109 783 600 
Q 550 1309 550 2009 
Q 550 2706 781 3412 
Q 1013 4119 1484 4856 
L 1984 4856 
z
" transform="scale(0.015625)"/>
     <path id="DejaVuSans-47" d="M 3809 666 
L 3809 1919 
L 2778 1919 
L 2778 2438 
L 4434 2438 
L 4434 434 
Q 4069 175 3628 42 
Q 3188 -91 2688 -91 
Q 1594 -91 976 548 
Q 359 1188 359 2328 
Q 359 3472 976 4111 
Q 1594 4750 2688 4750 
Q 3144 4750 3555 4637 
Q 3966 4525 4313 4306 
L 4313 3634 
Q 3963 3931 3569 4081 
Q 3175 4231 2741 4231 
Q 1884 4231 1454 3753 
Q 1025 3275 1025 2328 
Q 1025 1384 1454 906 
Q 1884 428 2741 428 
Q 3075 428 3337 486 
Q 3600 544 3809 666 
z
" transform="scale(0.015625)"/>
     <path id="DejaVuSans-56" d="M 1831 0 
L 50 4666 
L 709 4666 
L 2188 738 
L 3669 4666 
L 4325 4666 
L 2547 0 
L 1831 0 
z
" transform="scale(0.015625)"/>
     <path id="DejaVuSans-29" d="M 513 4856 
L 1013 4856 
Q 1481 4119 1714 3412 
Q 1947 2706 1947 2009 
Q 1947 1309 1714 600 
Q 1481 -109 1013 -844 
L 513 -844 
Q 928 -128 1133 580 
Q 1338 1288 1338 2009 
Q 1338 2731 1133 3434 
Q 928 4138 513 4856 
z
" transform="scale(0.015625)"/>
    </defs>
    <use xlink:href="#DejaVuSans-4d"/>
    <use xlink:href="#DejaVuSans-61" x="86.279297"/>
    <use xlink:href="#DejaVuSans-73" x="147.558594"/>
    <use xlink:href="#DejaVuSans-73" x="199.658203"/>
    <use xlink:href="#DejaVuSans-65" x="251.757812"/>
    <use xlink:href="#DejaVuSans-20" x="313.28125"/>
    <use xlink:href="#DejaVuSans-28" x="345.068359"/>
    <use xlink:href="#DejaVuSans-47" x="384.082031"/>
    <use xlink:href="#DejaVuSans-65" x="461.572266"/>
    <use xlink:href="#DejaVuSans-56" x="523.095703"/>
    <use xlink:href="#DejaVuSans-29" x="591.503906"/>
   </g>
  </g>
  <g id="text_30">
   <!-- N -->
   <g transform="translate(-9.681563 147.740625)rotate(-90)scale(0.1 -0.1)">
    <defs>
     <path id="DejaVuSans-4e" d="M 628 4666 
L 1478 4666 
L 3547 763 
L 3547 4666 
L 4159 4666 
L 4159 0 
L 3309 0 
L 1241 3903 
L 1241 0 
L 628 0 
L 628 4666 
z
" transform="scale(0.015625)"/>
    </defs>
    <use xlink:href="#DejaVuSans-4e"/>
   </g>
  </g>
 </g>
 <defs>
  <clipPath id="p3418fc0872">
   <rect x="22.72524" y="36.212595" width="406.27452" height="52.17186"/>
  </clipPath>
  <clipPath id="p8085c41f89">
   <rect x="22.72524" y="126.181185" width="406.27452" height="52.17186"/>
  </clipPath>
  <clipPath id="p1b99d570c6">
   <rect x="22.72524" y="216.149775" width="406.27452" height="52.17186"/>
  </clipPath>
 </defs>
</svg>
