<?xml version="1.0" encoding="utf-8" standalone="no"?>
<!DOCTYPE svg PUBLIC "-//W3C//DTD SVG 1.1//EN"
  "http://www.w3.org/Graphics/SVG/1.1/DTD/svg11.dtd">
<svg xmlns:xlink="http://www.w3.org/1999/xlink" width="432pt" height="288pt" viewBox="0 0 432 288" xmlns="http://www.w3.org/2000/svg" version="1.1">
 <metadata>
  <rdf:RDF xmlns:dc="http://purl.org/dc/elements/1.1/" xmlns:cc="http://creativecommons.org/ns#" xmlns:rdf="http://www.w3.org/1999/02/22-rdf-syntax-ns#">
   <cc:Work>
    <dc:type rdf:resource="http://purl.org/dc/dcmitype/StillImage"/>
    <dc:date>2022-06-22T14:06:19.039187</dc:date>
    <dc:format>image/svg+xml</dc:format>
    <dc:creator>
     <cc:Agent>
      <dc:title>Matplotlib v3.5.0, https://matplotlib.org/</dc:title>
     </cc:Agent>
    </dc:creator>
   </cc:Work>
  </rdf:RDF>
 </metadata>
 <defs>
  <style type="text/css">*{stroke-linejoin: round; stroke-linecap: butt}</style>
 </defs>
 <g id="figure_1">
  <g id="patch_1">
   <path d="M 0 288 
L 432 288 
L 432 0 
L 0 0 
L 0 288 
z
" style="fill: none"/>
  </g>
  <g id="axes_1">
   <g id="patch_2">
    <path d="M 22.72524 133.12875 
L 423.166439 133.12875 
L 423.166439 39.57447 
L 22.72524 39.57447 
z
" style="fill: #ffffff"/>
   </g>
   <g id="patch_3">
    <path d="M 40.927113 133.12875 
L 44.567487 133.12875 
L 44.567487 102.500861 
L 40.927113 102.500861 
z
" clip-path="url(#p7df49fed76)" style="fill: #1f77b4"/>
   </g>
   <g id="patch_4">
    <path d="M 44.567487 133.12875 
L 48.207862 133.12875 
L 48.207862 55.16685 
L 44.567487 55.16685 
z
" clip-path="url(#p7df49fed76)" style="fill: #1f77b4"/>
   </g>
   <g id="patch_5">
    <path d="M 48.207862 133.12875 
L 51.848236 133.12875 
L 51.848236 77.441679 
L 48.207862 77.441679 
z
" clip-path="url(#p7df49fed76)" style="fill: #1f77b4"/>
   </g>
   <g id="patch_6">
    <path d="M 51.848236 133.12875 
L 55.488611 133.12875 
L 55.488611 71.872971 
L 51.848236 71.872971 
z
" clip-path="url(#p7df49fed76)" style="fill: #1f77b4"/>
   </g>
   <g id="patch_7">
    <path d="M 55.488611 133.12875 
L 59.128985 133.12875 
L 59.128985 88.579093 
L 55.488611 88.579093 
z
" clip-path="url(#p7df49fed76)" style="fill: #1f77b4"/>
   </g>
   <g id="patch_8">
    <path d="M 59.128985 133.12875 
L 62.76936 133.12875 
L 62.76936 74.657325 
L 59.128985 74.657325 
z
" clip-path="url(#p7df49fed76)" style="fill: #1f77b4"/>
   </g>
   <g id="patch_9">
    <path d="M 62.76936 133.12875 
L 66.409734 133.12875 
L 66.409734 44.029436 
L 62.76936 44.029436 
z
" clip-path="url(#p7df49fed76)" style="fill: #1f77b4"/>
   </g>
   <g id="patch_10">
    <path d="M 66.409734 133.12875 
L 70.050109 133.12875 
L 70.050109 46.813789 
L 66.409734 46.813789 
z
" clip-path="url(#p7df49fed76)" style="fill: #1f77b4"/>
   </g>
   <g id="patch_11">
    <path d="M 70.050109 133.12875 
L 73.690483 133.12875 
L 73.690483 63.519911 
L 70.050109 63.519911 
z
" clip-path="url(#p7df49fed76)" style="fill: #1f77b4"/>
   </g>
   <g id="patch_12">
    <path d="M 73.690483 133.12875 
L 77.330858 133.12875 
L 77.330858 88.579093 
L 73.690483 88.579093 
z
" clip-path="url(#p7df49fed76)" style="fill: #1f77b4"/>
   </g>
   <g id="patch_13">
    <path d="M 77.330858 133.12875 
L 80.971233 133.12875 
L 80.971233 52.382496 
L 77.330858 52.382496 
z
" clip-path="url(#p7df49fed76)" style="fill: #1f77b4"/>
   </g>
   <g id="patch_14">
    <path d="M 80.971233 133.12875 
L 84.611607 133.12875 
L 84.611607 108.069568 
L 80.971233 108.069568 
z
" clip-path="url(#p7df49fed76)" style="fill: #1f77b4"/>
   </g>
   <g id="patch_15">
    <path d="M 84.611607 133.12875 
L 88.251982 133.12875 
L 88.251982 102.500861 
L 84.611607 102.500861 
z
" clip-path="url(#p7df49fed76)" style="fill: #1f77b4"/>
   </g>
   <g id="patch_16">
    <path d="M 88.251982 133.12875 
L 91.892356 133.12875 
L 91.892356 88.579093 
L 88.251982 88.579093 
z
" clip-path="url(#p7df49fed76)" style="fill: #1f77b4"/>
   </g>
   <g id="patch_17">
    <path d="M 91.892356 133.12875 
L 95.532731 133.12875 
L 95.532731 94.1478 
L 91.892356 94.1478 
z
" clip-path="url(#p7df49fed76)" style="fill: #1f77b4"/>
   </g>
   <g id="patch_18">
    <path d="M 95.532731 133.12875 
L 99.173105 133.12875 
L 99.173105 80.226032 
L 95.532731 80.226032 
z
" clip-path="url(#p7df49fed76)" style="fill: #1f77b4"/>
   </g>
   <g id="patch_19">
    <path d="M 99.173105 133.12875 
L 102.81348 133.12875 
L 102.81348 116.422629 
L 99.173105 116.422629 
z
" clip-path="url(#p7df49fed76)" style="fill: #1f77b4"/>
   </g>
   <g id="patch_20">
    <path d="M 102.81348 133.12875 
L 106.453854 133.12875 
L 106.453854 99.716507 
L 102.81348 99.716507 
z
" clip-path="url(#p7df49fed76)" style="fill: #1f77b4"/>
   </g>
   <g id="patch_21">
    <path d="M 106.453854 133.12875 
L 110.094229 133.12875 
L 110.094229 91.363446 
L 106.453854 91.363446 
z
" clip-path="url(#p7df49fed76)" style="fill: #1f77b4"/>
   </g>
   <g id="patch_22">
    <path d="M 110.094229 133.12875 
L 113.734603 133.12875 
L 113.734603 116.422629 
L 110.094229 116.422629 
z
" clip-path="url(#p7df49fed76)" style="fill: #1f77b4"/>
   </g>
   <g id="patch_23">
    <path d="M 113.734603 133.12875 
L 117.374978 133.12875 
L 117.374978 108.069568 
L 113.734603 108.069568 
z
" clip-path="url(#p7df49fed76)" style="fill: #1f77b4"/>
   </g>
   <g id="patch_24">
    <path d="M 117.374978 133.12875 
L 121.015352 133.12875 
L 121.015352 94.1478 
L 117.374978 94.1478 
z
" clip-path="url(#p7df49fed76)" style="fill: #1f77b4"/>
   </g>
   <g id="patch_25">
    <path d="M 121.015352 133.12875 
L 124.655727 133.12875 
L 124.655727 119.206982 
L 121.015352 119.206982 
z
" clip-path="url(#p7df49fed76)" style="fill: #1f77b4"/>
   </g>
   <g id="patch_26">
    <path d="M 124.655727 133.12875 
L 128.296102 133.12875 
L 128.296102 94.1478 
L 124.655727 94.1478 
z
" clip-path="url(#p7df49fed76)" style="fill: #1f77b4"/>
   </g>
   <g id="patch_27">
    <path d="M 128.296102 133.12875 
L 131.936476 133.12875 
L 131.936476 105.285214 
L 128.296102 105.285214 
z
" clip-path="url(#p7df49fed76)" style="fill: #1f77b4"/>
   </g>
   <g id="patch_28">
    <path d="M 131.936476 133.12875 
L 135.576851 133.12875 
L 135.576851 127.560043 
L 131.936476 127.560043 
z
" clip-path="url(#p7df49fed76)" style="fill: #1f77b4"/>
   </g>
   <g id="patch_29">
    <path d="M 135.576851 133.12875 
L 139.217225 133.12875 
L 139.217225 130.344396 
L 135.576851 130.344396 
z
" clip-path="url(#p7df49fed76)" style="fill: #1f77b4"/>
   </g>
   <g id="patch_30">
    <path d="M 139.217225 133.12875 
L 142.8576 133.12875 
L 142.8576 121.991336 
L 139.217225 121.991336 
z
" clip-path="url(#p7df49fed76)" style="fill: #1f77b4"/>
   </g>
   <g id="patch_31">
    <path d="M 142.8576 133.12875 
L 146.497974 133.12875 
L 146.497974 124.775689 
L 142.8576 124.775689 
z
" clip-path="url(#p7df49fed76)" style="fill: #1f77b4"/>
   </g>
   <g id="patch_32">
    <path d="M 146.497974 133.12875 
L 150.138349 133.12875 
L 150.138349 124.775689 
L 146.497974 124.775689 
z
" clip-path="url(#p7df49fed76)" style="fill: #1f77b4"/>
   </g>
   <g id="patch_33">
    <path d="M 150.138349 133.12875 
L 153.778723 133.12875 
L 153.778723 119.206982 
L 150.138349 119.206982 
z
" clip-path="url(#p7df49fed76)" style="fill: #1f77b4"/>
   </g>
   <g id="patch_34">
    <path d="M 153.778723 133.12875 
L 157.419098 133.12875 
L 157.419098 119.206982 
L 153.778723 119.206982 
z
" clip-path="url(#p7df49fed76)" style="fill: #1f77b4"/>
   </g>
   <g id="patch_35">
    <path d="M 157.419098 133.12875 
L 161.059472 133.12875 
L 161.059472 124.775689 
L 157.419098 124.775689 
z
" clip-path="url(#p7df49fed76)" style="fill: #1f77b4"/>
   </g>
   <g id="patch_36">
    <path d="M 161.059472 133.12875 
L 164.699847 133.12875 
L 164.699847 121.991336 
L 161.059472 121.991336 
z
" clip-path="url(#p7df49fed76)" style="fill: #1f77b4"/>
   </g>
   <g id="patch_37">
    <path d="M 164.699847 133.12875 
L 168.340221 133.12875 
L 168.340221 124.775689 
L 164.699847 124.775689 
z
" clip-path="url(#p7df49fed76)" style="fill: #1f77b4"/>
   </g>
   <g id="patch_38">
    <path d="M 168.340221 133.12875 
L 171.980596 133.12875 
L 171.980596 127.560043 
L 168.340221 127.560043 
z
" clip-path="url(#p7df49fed76)" style="fill: #1f77b4"/>
   </g>
   <g id="patch_39">
    <path d="M 171.980596 133.12875 
L 175.62097 133.12875 
L 175.62097 121.991336 
L 171.980596 121.991336 
z
" clip-path="url(#p7df49fed76)" style="fill: #1f77b4"/>
   </g>
   <g id="patch_40">
    <path d="M 175.62097 133.12875 
L 179.261345 133.12875 
L 179.261345 124.775689 
L 175.62097 124.775689 
z
" clip-path="url(#p7df49fed76)" style="fill: #1f77b4"/>
   </g>
   <g id="patch_41">
    <path d="M 179.261345 133.12875 
L 182.90172 133.12875 
L 182.90172 133.12875 
L 179.261345 133.12875 
z
" clip-path="url(#p7df49fed76)" style="fill: #1f77b4"/>
   </g>
   <g id="patch_42">
    <path d="M 182.90172 133.12875 
L 186.542094 133.12875 
L 186.542094 119.206982 
L 182.90172 119.206982 
z
" clip-path="url(#p7df49fed76)" style="fill: #1f77b4"/>
   </g>
   <g id="patch_43">
    <path d="M 186.542094 133.12875 
L 190.182469 133.12875 
L 190.182469 121.991336 
L 186.542094 121.991336 
z
" clip-path="url(#p7df49fed76)" style="fill: #1f77b4"/>
   </g>
   <g id="patch_44">
    <path d="M 190.182469 133.12875 
L 193.822843 133.12875 
L 193.822843 124.775689 
L 190.182469 124.775689 
z
" clip-path="url(#p7df49fed76)" style="fill: #1f77b4"/>
   </g>
   <g id="patch_45">
    <path d="M 193.822843 133.12875 
L 197.463218 133.12875 
L 197.463218 130.344396 
L 193.822843 130.344396 
z
" clip-path="url(#p7df49fed76)" style="fill: #1f77b4"/>
   </g>
   <g id="patch_46">
    <path d="M 197.463218 133.12875 
L 201.103592 133.12875 
L 201.103592 127.560043 
L 197.463218 127.560043 
z
" clip-path="url(#p7df49fed76)" style="fill: #1f77b4"/>
   </g>
   <g id="patch_47">
    <path d="M 201.103592 133.12875 
L 204.743967 133.12875 
L 204.743967 130.344396 
L 201.103592 130.344396 
z
" clip-path="url(#p7df49fed76)" style="fill: #1f77b4"/>
   </g>
   <g id="patch_48">
    <path d="M 204.743967 133.12875 
L 208.384341 133.12875 
L 208.384341 119.206982 
L 204.743967 119.206982 
z
" clip-path="url(#p7df49fed76)" style="fill: #1f77b4"/>
   </g>
   <g id="patch_49">
    <path d="M 208.384341 133.12875 
L 212.024716 133.12875 
L 212.024716 121.991336 
L 208.384341 121.991336 
z
" clip-path="url(#p7df49fed76)" style="fill: #1f77b4"/>
   </g>
   <g id="patch_50">
    <path d="M 212.024716 133.12875 
L 215.66509 133.12875 
L 215.66509 116.422629 
L 212.024716 116.422629 
z
" clip-path="url(#p7df49fed76)" style="fill: #1f77b4"/>
   </g>
   <g id="patch_51">
    <path d="M 215.66509 133.12875 
L 219.305465 133.12875 
L 219.305465 124.775689 
L 215.66509 124.775689 
z
" clip-path="url(#p7df49fed76)" style="fill: #1f77b4"/>
   </g>
   <g id="patch_52">
    <path d="M 219.305465 133.12875 
L 222.945839 133.12875 
L 222.945839 127.560043 
L 219.305465 127.560043 
z
" clip-path="url(#p7df49fed76)" style="fill: #1f77b4"/>
   </g>
   <g id="patch_53">
    <path d="M 222.945839 133.12875 
L 226.586214 133.12875 
L 226.586214 133.12875 
L 222.945839 133.12875 
z
" clip-path="url(#p7df49fed76)" style="fill: #1f77b4"/>
   </g>
   <g id="patch_54">
    <path d="M 226.586214 133.12875 
L 230.226588 133.12875 
L 230.226588 119.206982 
L 226.586214 119.206982 
z
" clip-path="url(#p7df49fed76)" style="fill: #1f77b4"/>
   </g>
   <g id="patch_55">
    <path d="M 230.226588 133.12875 
L 233.866963 133.12875 
L 233.866963 119.206982 
L 230.226588 119.206982 
z
" clip-path="url(#p7df49fed76)" style="fill: #1f77b4"/>
   </g>
   <g id="patch_56">
    <path d="M 233.866963 133.12875 
L 237.507338 133.12875 
L 237.507338 124.775689 
L 233.866963 124.775689 
z
" clip-path="url(#p7df49fed76)" style="fill: #1f77b4"/>
   </g>
   <g id="patch_57">
    <path d="M 237.507338 133.12875 
L 241.147712 133.12875 
L 241.147712 119.206982 
L 237.507338 119.206982 
z
" clip-path="url(#p7df49fed76)" style="fill: #1f77b4"/>
   </g>
   <g id="patch_58">
    <path d="M 241.147712 133.12875 
L 244.788087 133.12875 
L 244.788087 121.991336 
L 241.147712 121.991336 
z
" clip-path="url(#p7df49fed76)" style="fill: #1f77b4"/>
   </g>
   <g id="patch_59">
    <path d="M 244.788087 133.12875 
L 248.428461 133.12875 
L 248.428461 130.344396 
L 244.788087 130.344396 
z
" clip-path="url(#p7df49fed76)" style="fill: #1f77b4"/>
   </g>
   <g id="patch_60">
    <path d="M 248.428461 133.12875 
L 252.068836 133.12875 
L 252.068836 130.344396 
L 248.428461 130.344396 
z
" clip-path="url(#p7df49fed76)" style="fill: #1f77b4"/>
   </g>
   <g id="patch_61">
    <path d="M 252.068836 133.12875 
L 255.70921 133.12875 
L 255.70921 130.344396 
L 252.068836 130.344396 
z
" clip-path="url(#p7df49fed76)" style="fill: #1f77b4"/>
   </g>
   <g id="patch_62">
    <path d="M 255.70921 133.12875 
L 259.349585 133.12875 
L 259.349585 133.12875 
L 255.70921 133.12875 
z
" clip-path="url(#p7df49fed76)" style="fill: #1f77b4"/>
   </g>
   <g id="patch_63">
    <path d="M 259.349585 133.12875 
L 262.989959 133.12875 
L 262.989959 130.344396 
L 259.349585 130.344396 
z
" clip-path="url(#p7df49fed76)" style="fill: #1f77b4"/>
   </g>
   <g id="patch_64">
    <path d="M 262.989959 133.12875 
L 266.630334 133.12875 
L 266.630334 121.991336 
L 262.989959 121.991336 
z
" clip-path="url(#p7df49fed76)" style="fill: #1f77b4"/>
   </g>
   <g id="patch_65">
    <path d="M 266.630334 133.12875 
L 270.270708 133.12875 
L 270.270708 119.206982 
L 266.630334 119.206982 
z
" clip-path="url(#p7df49fed76)" style="fill: #1f77b4"/>
   </g>
   <g id="patch_66">
    <path d="M 270.270708 133.12875 
L 273.911083 133.12875 
L 273.911083 124.775689 
L 270.270708 124.775689 
z
" clip-path="url(#p7df49fed76)" style="fill: #1f77b4"/>
   </g>
   <g id="patch_67">
    <path d="M 273.911083 133.12875 
L 277.551457 133.12875 
L 277.551457 124.775689 
L 273.911083 124.775689 
z
" clip-path="url(#p7df49fed76)" style="fill: #1f77b4"/>
   </g>
   <g id="patch_68">
    <path d="M 277.551457 133.12875 
L 281.191832 133.12875 
L 281.191832 121.991336 
L 277.551457 121.991336 
z
" clip-path="url(#p7df49fed76)" style="fill: #1f77b4"/>
   </g>
   <g id="patch_69">
    <path d="M 281.191832 133.12875 
L 284.832206 133.12875 
L 284.832206 133.12875 
L 281.191832 133.12875 
z
" clip-path="url(#p7df49fed76)" style="fill: #1f77b4"/>
   </g>
   <g id="patch_70">
    <path d="M 284.832206 133.12875 
L 288.472581 133.12875 
L 288.472581 121.991336 
L 284.832206 121.991336 
z
" clip-path="url(#p7df49fed76)" style="fill: #1f77b4"/>
   </g>
   <g id="patch_71">
    <path d="M 288.472581 133.12875 
L 292.112956 133.12875 
L 292.112956 130.344396 
L 288.472581 130.344396 
z
" clip-path="url(#p7df49fed76)" style="fill: #1f77b4"/>
   </g>
   <g id="patch_72">
    <path d="M 292.112956 133.12875 
L 295.75333 133.12875 
L 295.75333 130.344396 
L 292.112956 130.344396 
z
" clip-path="url(#p7df49fed76)" style="fill: #1f77b4"/>
   </g>
   <g id="patch_73">
    <path d="M 295.75333 133.12875 
L 299.393705 133.12875 
L 299.393705 127.560043 
L 295.75333 127.560043 
z
" clip-path="url(#p7df49fed76)" style="fill: #1f77b4"/>
   </g>
   <g id="patch_74">
    <path d="M 299.393705 133.12875 
L 303.034079 133.12875 
L 303.034079 124.775689 
L 299.393705 124.775689 
z
" clip-path="url(#p7df49fed76)" style="fill: #1f77b4"/>
   </g>
   <g id="patch_75">
    <path d="M 303.034079 133.12875 
L 306.674454 133.12875 
L 306.674454 119.206982 
L 303.034079 119.206982 
z
" clip-path="url(#p7df49fed76)" style="fill: #1f77b4"/>
   </g>
   <g id="patch_76">
    <path d="M 306.674454 133.12875 
L 310.314828 133.12875 
L 310.314828 121.991336 
L 306.674454 121.991336 
z
" clip-path="url(#p7df49fed76)" style="fill: #1f77b4"/>
   </g>
   <g id="patch_77">
    <path d="M 310.314828 133.12875 
L 313.955203 133.12875 
L 313.955203 130.344396 
L 310.314828 130.344396 
z
" clip-path="url(#p7df49fed76)" style="fill: #1f77b4"/>
   </g>
   <g id="patch_78">
    <path d="M 313.955203 133.12875 
L 317.595577 133.12875 
L 317.595577 124.775689 
L 313.955203 124.775689 
z
" clip-path="url(#p7df49fed76)" style="fill: #1f77b4"/>
   </g>
   <g id="patch_79">
    <path d="M 317.595577 133.12875 
L 321.235952 133.12875 
L 321.235952 130.344396 
L 317.595577 130.344396 
z
" clip-path="url(#p7df49fed76)" style="fill: #1f77b4"/>
   </g>
   <g id="patch_80">
    <path d="M 321.235952 133.12875 
L 324.876326 133.12875 
L 324.876326 130.344396 
L 321.235952 130.344396 
z
" clip-path="url(#p7df49fed76)" style="fill: #1f77b4"/>
   </g>
   <g id="patch_81">
    <path d="M 324.876326 133.12875 
L 328.516701 133.12875 
L 328.516701 127.560043 
L 324.876326 127.560043 
z
" clip-path="url(#p7df49fed76)" style="fill: #1f77b4"/>
   </g>
   <g id="patch_82">
    <path d="M 328.516701 133.12875 
L 332.157075 133.12875 
L 332.157075 130.344396 
L 328.516701 130.344396 
z
" clip-path="url(#p7df49fed76)" style="fill: #1f77b4"/>
   </g>
   <g id="patch_83">
    <path d="M 332.157075 133.12875 
L 335.79745 133.12875 
L 335.79745 130.344396 
L 332.157075 130.344396 
z
" clip-path="url(#p7df49fed76)" style="fill: #1f77b4"/>
   </g>
   <g id="patch_84">
    <path d="M 335.79745 133.12875 
L 339.437825 133.12875 
L 339.437825 130.344396 
L 335.79745 130.344396 
z
" clip-path="url(#p7df49fed76)" style="fill: #1f77b4"/>
   </g>
   <g id="patch_85">
    <path d="M 339.437825 133.12875 
L 343.078199 133.12875 
L 343.078199 133.12875 
L 339.437825 133.12875 
z
" clip-path="url(#p7df49fed76)" style="fill: #1f77b4"/>
   </g>
   <g id="patch_86">
    <path d="M 343.078199 133.12875 
L 346.718574 133.12875 
L 346.718574 127.560043 
L 343.078199 127.560043 
z
" clip-path="url(#p7df49fed76)" style="fill: #1f77b4"/>
   </g>
   <g id="patch_87">
    <path d="M 346.718574 133.12875 
L 350.358948 133.12875 
L 350.358948 124.775689 
L 346.718574 124.775689 
z
" clip-path="url(#p7df49fed76)" style="fill: #1f77b4"/>
   </g>
   <g id="patch_88">
    <path d="M 350.358948 133.12875 
L 353.999323 133.12875 
L 353.999323 127.560043 
L 350.358948 127.560043 
z
" clip-path="url(#p7df49fed76)" style="fill: #1f77b4"/>
   </g>
   <g id="patch_89">
    <path d="M 353.999323 133.12875 
L 357.639697 133.12875 
L 357.639697 127.560043 
L 353.999323 127.560043 
z
" clip-path="url(#p7df49fed76)" style="fill: #1f77b4"/>
   </g>
   <g id="patch_90">
    <path d="M 357.639697 133.12875 
L 361.280072 133.12875 
L 361.280072 130.344396 
L 357.639697 130.344396 
z
" clip-path="url(#p7df49fed76)" style="fill: #1f77b4"/>
   </g>
   <g id="patch_91">
    <path d="M 361.280072 133.12875 
L 364.920446 133.12875 
L 364.920446 130.344396 
L 361.280072 130.344396 
z
" clip-path="url(#p7df49fed76)" style="fill: #1f77b4"/>
   </g>
   <g id="patch_92">
    <path d="M 364.920446 133.12875 
L 368.560821 133.12875 
L 368.560821 133.12875 
L 364.920446 133.12875 
z
" clip-path="url(#p7df49fed76)" style="fill: #1f77b4"/>
   </g>
   <g id="patch_93">
    <path d="M 368.560821 133.12875 
L 372.201195 133.12875 
L 372.201195 133.12875 
L 368.560821 133.12875 
z
" clip-path="url(#p7df49fed76)" style="fill: #1f77b4"/>
   </g>
   <g id="patch_94">
    <path d="M 372.201195 133.12875 
L 375.84157 133.12875 
L 375.84157 130.344396 
L 372.201195 130.344396 
z
" clip-path="url(#p7df49fed76)" style="fill: #1f77b4"/>
   </g>
   <g id="patch_95">
    <path d="M 375.84157 133.12875 
L 379.481944 133.12875 
L 379.481944 130.344396 
L 375.84157 130.344396 
z
" clip-path="url(#p7df49fed76)" style="fill: #1f77b4"/>
   </g>
   <g id="patch_96">
    <path d="M 379.481944 133.12875 
L 383.122319 133.12875 
L 383.122319 127.560043 
L 379.481944 127.560043 
z
" clip-path="url(#p7df49fed76)" style="fill: #1f77b4"/>
   </g>
   <g id="patch_97">
    <path d="M 383.122319 133.12875 
L 386.762693 133.12875 
L 386.762693 130.344396 
L 383.122319 130.344396 
z
" clip-path="url(#p7df49fed76)" style="fill: #1f77b4"/>
   </g>
   <g id="patch_98">
    <path d="M 386.762693 133.12875 
L 390.403068 133.12875 
L 390.403068 124.775689 
L 386.762693 124.775689 
z
" clip-path="url(#p7df49fed76)" style="fill: #1f77b4"/>
   </g>
   <g id="patch_99">
    <path d="M 390.403068 133.12875 
L 394.043443 133.12875 
L 394.043443 124.775689 
L 390.403068 124.775689 
z
" clip-path="url(#p7df49fed76)" style="fill: #1f77b4"/>
   </g>
   <g id="patch_100">
    <path d="M 394.043443 133.12875 
L 397.683817 133.12875 
L 397.683817 133.12875 
L 394.043443 133.12875 
z
" clip-path="url(#p7df49fed76)" style="fill: #1f77b4"/>
   </g>
   <g id="patch_101">
    <path d="M 397.683817 133.12875 
L 401.324192 133.12875 
L 401.324192 127.560043 
L 397.683817 127.560043 
z
" clip-path="url(#p7df49fed76)" style="fill: #1f77b4"/>
   </g>
   <g id="patch_102">
    <path d="M 401.324192 133.12875 
L 404.964566 133.12875 
L 404.964566 130.344396 
L 401.324192 130.344396 
z
" clip-path="url(#p7df49fed76)" style="fill: #1f77b4"/>
   </g>
   <g id="matplotlib.axis_1">
    <g id="xtick_1">
     <g id="line2d_1">
      <defs>
       <path id="m8a6b0c0fdd" d="M 0 0 
L 0 3.5 
" style="stroke: #000000; stroke-width: 0.8"/>
      </defs>
      <g>
       <use xlink:href="#m8a6b0c0fdd" x="40.482565" y="133.12875" style="stroke: #000000; stroke-width: 0.8"/>
      </g>
     </g>
     <g id="text_1">
      <!-- 0 -->
      <g transform="translate(37.301315 147.727187)scale(0.1 -0.1)">
       <defs>
        <path id="DejaVuSans-30" d="M 2034 4250 
Q 1547 4250 1301 3770 
Q 1056 3291 1056 2328 
Q 1056 1369 1301 889 
Q 1547 409 2034 409 
Q 2525 409 2770 889 
Q 3016 1369 3016 2328 
Q 3016 3291 2770 3770 
Q 2525 4250 2034 4250 
z
M 2034 4750 
Q 2819 4750 3233 4129 
Q 3647 3509 3647 2328 
Q 3647 1150 3233 529 
Q 2819 -91 2034 -91 
Q 1250 -91 836 529 
Q 422 1150 422 2328 
Q 422 3509 836 4129 
Q 1250 4750 2034 4750 
z
" transform="scale(0.015625)"/>
       </defs>
       <use xlink:href="#DejaVuSans-30"/>
      </g>
     </g>
    </g>
    <g id="xtick_2">
     <g id="line2d_2">
      <g>
       <use xlink:href="#m8a6b0c0fdd" x="115.637161" y="133.12875" style="stroke: #000000; stroke-width: 0.8"/>
      </g>
     </g>
     <g id="text_2">
      <!-- 1000 -->
      <g transform="translate(102.912161 147.727187)scale(0.1 -0.1)">
       <defs>
        <path id="DejaVuSans-31" d="M 794 531 
L 1825 531 
L 1825 4091 
L 703 3866 
L 703 4441 
L 1819 4666 
L 2450 4666 
L 2450 531 
L 3481 531 
L 3481 0 
L 794 0 
L 794 531 
z
" transform="scale(0.015625)"/>
       </defs>
       <use xlink:href="#DejaVuSans-31"/>
       <use xlink:href="#DejaVuSans-30" x="63.623047"/>
       <use xlink:href="#DejaVuSans-30" x="127.246094"/>
       <use xlink:href="#DejaVuSans-30" x="190.869141"/>
      </g>
     </g>
    </g>
    <g id="xtick_3">
     <g id="line2d_3">
      <g>
       <use xlink:href="#m8a6b0c0fdd" x="190.791756" y="133.12875" style="stroke: #000000; stroke-width: 0.8"/>
      </g>
     </g>
     <g id="text_3">
      <!-- 2000 -->
      <g transform="translate(178.066756 147.727187)scale(0.1 -0.1)">
       <defs>
        <path id="DejaVuSans-32" d="M 1228 531 
L 3431 531 
L 3431 0 
L 469 0 
L 469 531 
Q 828 903 1448 1529 
Q 2069 2156 2228 2338 
Q 2531 2678 2651 2914 
Q 2772 3150 2772 3378 
Q 2772 3750 2511 3984 
Q 2250 4219 1831 4219 
Q 1534 4219 1204 4116 
Q 875 4013 500 3803 
L 500 4441 
Q 881 4594 1212 4672 
Q 1544 4750 1819 4750 
Q 2544 4750 2975 4387 
Q 3406 4025 3406 3419 
Q 3406 3131 3298 2873 
Q 3191 2616 2906 2266 
Q 2828 2175 2409 1742 
Q 1991 1309 1228 531 
z
" transform="scale(0.015625)"/>
       </defs>
       <use xlink:href="#DejaVuSans-32"/>
       <use xlink:href="#DejaVuSans-30" x="63.623047"/>
       <use xlink:href="#DejaVuSans-30" x="127.246094"/>
       <use xlink:href="#DejaVuSans-30" x="190.869141"/>
      </g>
     </g>
    </g>
    <g id="xtick_4">
     <g id="line2d_4">
      <g>
       <use xlink:href="#m8a6b0c0fdd" x="265.946351" y="133.12875" style="stroke: #000000; stroke-width: 0.8"/>
      </g>
     </g>
     <g id="text_4">
      <!-- 3000 -->
      <g transform="translate(253.221351 147.727187)scale(0.1 -0.1)">
       <defs>
        <path id="DejaVuSans-33" d="M 2597 2516 
Q 3050 2419 3304 2112 
Q 3559 1806 3559 1356 
Q 3559 666 3084 287 
Q 2609 -91 1734 -91 
Q 1441 -91 1130 -33 
Q 819 25 488 141 
L 488 750 
Q 750 597 1062 519 
Q 1375 441 1716 441 
Q 2309 441 2620 675 
Q 2931 909 2931 1356 
Q 2931 1769 2642 2001 
Q 2353 2234 1838 2234 
L 1294 2234 
L 1294 2753 
L 1863 2753 
Q 2328 2753 2575 2939 
Q 2822 3125 2822 3475 
Q 2822 3834 2567 4026 
Q 2313 4219 1838 4219 
Q 1578 4219 1281 4162 
Q 984 4106 628 3988 
L 628 4550 
Q 988 4650 1302 4700 
Q 1616 4750 1894 4750 
Q 2613 4750 3031 4423 
Q 3450 4097 3450 3541 
Q 3450 3153 3228 2886 
Q 3006 2619 2597 2516 
z
" transform="scale(0.015625)"/>
       </defs>
       <use xlink:href="#DejaVuSans-33"/>
       <use xlink:href="#DejaVuSans-30" x="63.623047"/>
       <use xlink:href="#DejaVuSans-30" x="127.246094"/>
       <use xlink:href="#DejaVuSans-30" x="190.869141"/>
      </g>
     </g>
    </g>
    <g id="xtick_5">
     <g id="line2d_5">
      <g>
       <use xlink:href="#m8a6b0c0fdd" x="341.100946" y="133.12875" style="stroke: #000000; stroke-width: 0.8"/>
      </g>
     </g>
     <g id="text_5">
      <!-- 4000 -->
      <g transform="translate(328.375946 147.727187)scale(0.1 -0.1)">
       <defs>
        <path id="DejaVuSans-34" d="M 2419 4116 
L 825 1625 
L 2419 1625 
L 2419 4116 
z
M 2253 4666 
L 3047 4666 
L 3047 1625 
L 3713 1625 
L 3713 1100 
L 3047 1100 
L 3047 0 
L 2419 0 
L 2419 1100 
L 313 1100 
L 313 1709 
L 2253 4666 
z
" transform="scale(0.015625)"/>
       </defs>
       <use xlink:href="#DejaVuSans-34"/>
       <use xlink:href="#DejaVuSans-30" x="63.623047"/>
       <use xlink:href="#DejaVuSans-30" x="127.246094"/>
       <use xlink:href="#DejaVuSans-30" x="190.869141"/>
      </g>
     </g>
    </g>
    <g id="xtick_6">
     <g id="line2d_6">
      <g>
       <use xlink:href="#m8a6b0c0fdd" x="416.255541" y="133.12875" style="stroke: #000000; stroke-width: 0.8"/>
      </g>
     </g>
     <g id="text_6">
      <!-- 5000 -->
      <g transform="translate(403.530541 147.727187)scale(0.1 -0.1)">
       <defs>
        <path id="DejaVuSans-35" d="M 691 4666 
L 3169 4666 
L 3169 4134 
L 1269 4134 
L 1269 2991 
Q 1406 3038 1543 3061 
Q 1681 3084 1819 3084 
Q 2600 3084 3056 2656 
Q 3513 2228 3513 1497 
Q 3513 744 3044 326 
Q 2575 -91 1722 -91 
Q 1428 -91 1123 -41 
Q 819 9 494 109 
L 494 744 
Q 775 591 1075 516 
Q 1375 441 1709 441 
Q 2250 441 2565 725 
Q 2881 1009 2881 1497 
Q 2881 1984 2565 2268 
Q 2250 2553 1709 2553 
Q 1456 2553 1204 2497 
Q 953 2441 691 2322 
L 691 4666 
z
" transform="scale(0.015625)"/>
       </defs>
       <use xlink:href="#DejaVuSans-35"/>
       <use xlink:href="#DejaVuSans-30" x="63.623047"/>
       <use xlink:href="#DejaVuSans-30" x="127.246094"/>
       <use xlink:href="#DejaVuSans-30" x="190.869141"/>
      </g>
     </g>
    </g>
   </g>
   <g id="matplotlib.axis_2">
    <g id="ytick_1">
     <g id="line2d_7">
      <defs>
       <path id="me3bbd5c6aa" d="M 0 0 
L -3.5 0 
" style="stroke: #000000; stroke-width: 0.8"/>
      </defs>
      <g>
       <use xlink:href="#me3bbd5c6aa" x="22.72524" y="133.12875" style="stroke: #000000; stroke-width: 0.8"/>
      </g>
     </g>
     <g id="text_7">
      <!-- 0 -->
      <g transform="translate(9.36274 136.927969)scale(0.1 -0.1)">
       <use xlink:href="#DejaVuSans-30"/>
      </g>
     </g>
    </g>
    <g id="ytick_2">
     <g id="line2d_8">
      <g>
       <use xlink:href="#me3bbd5c6aa" x="22.72524" y="105.285214" style="stroke: #000000; stroke-width: 0.8"/>
      </g>
     </g>
     <g id="text_8">
      <!-- 10 -->
      <g transform="translate(3.00024 109.084433)scale(0.1 -0.1)">
       <use xlink:href="#DejaVuSans-31"/>
       <use xlink:href="#DejaVuSans-30" x="63.623047"/>
      </g>
     </g>
    </g>
    <g id="ytick_3">
     <g id="line2d_9">
      <g>
       <use xlink:href="#me3bbd5c6aa" x="22.72524" y="77.441679" style="stroke: #000000; stroke-width: 0.8"/>
      </g>
     </g>
     <g id="text_9">
      <!-- 20 -->
      <g transform="translate(3.00024 81.240897)scale(0.1 -0.1)">
       <use xlink:href="#DejaVuSans-32"/>
       <use xlink:href="#DejaVuSans-30" x="63.623047"/>
      </g>
     </g>
    </g>
    <g id="ytick_4">
     <g id="line2d_10">
      <g>
       <use xlink:href="#me3bbd5c6aa" x="22.72524" y="49.598143" style="stroke: #000000; stroke-width: 0.8"/>
      </g>
     </g>
     <g id="text_10">
      <!-- 30 -->
      <g transform="translate(3.00024 53.397362)scale(0.1 -0.1)">
       <use xlink:href="#DejaVuSans-33"/>
       <use xlink:href="#DejaVuSans-30" x="63.623047"/>
      </g>
     </g>
    </g>
   </g>
   <g id="patch_103">
    <path d="M 22.72524 133.12875 
L 22.72524 39.57447 
" style="fill: none; stroke: #000000; stroke-width: 0.8; stroke-linejoin: miter; stroke-linecap: square"/>
   </g>
   <g id="patch_104">
    <path d="M 423.166439 133.12875 
L 423.166439 39.57447 
" style="fill: none; stroke: #000000; stroke-width: 0.8; stroke-linejoin: miter; stroke-linecap: square"/>
   </g>
   <g id="patch_105">
    <path d="M 22.72524 133.12875 
L 423.166439 133.12875 
" style="fill: none; stroke: #000000; stroke-width: 0.8; stroke-linejoin: miter; stroke-linecap: square"/>
   </g>
   <g id="patch_106">
    <path d="M 22.72524 39.57447 
L 423.166439 39.57447 
" style="fill: none; stroke: #000000; stroke-width: 0.8; stroke-linejoin: miter; stroke-linecap: square"/>
   </g>
   <g id="text_11">
    <!-- $\widetilde{\chi_1^\pm}$ -->
    <g transform="translate(213.765839 33.57447)scale(0.12 -0.12)">
     <defs>
      <path id="STIXSizeFourSym-Regular-303" d="M -1171 4934 
L -986 4934 
Q -1120 4410 -1824 4150 
Q -2528 3891 -3552 3891 
Q -5293 3891 -7962 4294 
Q -9389 4512 -10355 4512 
Q -11149 4512 -11936 4345 
Q -12723 4179 -12870 3891 
L -13056 3891 
Q -12954 4250 -12486 4496 
Q -12019 4742 -11452 4838 
Q -10886 4934 -10266 4934 
Q -9741 4934 -8537 4822 
Q -7334 4710 -6138 4525 
Q -5523 4429 -4649 4371 
Q -3776 4314 -3373 4314 
Q -2573 4314 -1933 4474 
Q -1293 4634 -1171 4934 
z
" transform="scale(0.015625)"/>
      <path id="DejaVuSans-Oblique-3c7" d="M 1922 -781 
L 1691 416 
L 394 -1334 
L -284 -1334 
L 1553 1141 
L 1269 2613 
Q 1194 3006 713 3006 
L 559 3006 
L 653 3500 
L 872 3494 
Q 1675 3472 1775 2950 
L 2006 1753 
L 3303 3503 
L 3981 3503 
L 2144 1028 
L 2428 -444 
Q 2503 -838 2984 -838 
L 3138 -838 
L 3044 -1331 
L 2825 -1325 
Q 2022 -1303 1922 -781 
z
" transform="scale(0.015625)"/>
      <path id="DejaVuSans-b1" d="M 2944 4013 
L 2944 2803 
L 4684 2803 
L 4684 2272 
L 2944 2272 
L 2944 1063 
L 2419 1063 
L 2419 2272 
L 678 2272 
L 678 2803 
L 2419 2803 
L 2419 4013 
L 2944 4013 
z
M 678 531 
L 4684 531 
L 4684 0 
L 678 0 
L 678 531 
z
" transform="scale(0.015625)"/>
     </defs>
     <use xlink:href="#STIXSizeFourSym-Regular-303" transform="translate(183.813001 45.546875)scale(0.807633)"/>
     <use xlink:href="#DejaVuSans-Oblique-3c7" transform="translate(0 0.123437)"/>
     <use xlink:href="#DejaVuSans-b1" transform="translate(77.290091 38.404687)scale(0.7)"/>
     <use xlink:href="#DejaVuSans-31" transform="translate(59.179688 -27.220313)scale(0.7)"/>
    </g>
   </g>
  </g>
  <g id="axes_2">
   <g id="patch_107">
    <path d="M 22.72524 268.321635 
L 423.166439 268.321635 
L 423.166439 174.767355 
L 22.72524 174.767355 
z
" style="fill: #ffffff"/>
   </g>
   <g id="patch_108">
    <path d="M 40.927113 268.321635 
L 44.567487 268.321635 
L 44.567487 262.752928 
L 40.927113 262.752928 
z
" clip-path="url(#p810c4e068b)" style="fill: #1f77b4"/>
   </g>
   <g id="patch_109">
    <path d="M 44.567487 268.321635 
L 48.207862 268.321635 
L 48.207862 265.537281 
L 44.567487 265.537281 
z
" clip-path="url(#p810c4e068b)" style="fill: #1f77b4"/>
   </g>
   <g id="patch_110">
    <path d="M 48.207862 268.321635 
L 51.848236 268.321635 
L 51.848236 257.184221 
L 48.207862 257.184221 
z
" clip-path="url(#p810c4e068b)" style="fill: #1f77b4"/>
   </g>
   <g id="patch_111">
    <path d="M 51.848236 268.321635 
L 55.488611 268.321635 
L 55.488611 265.537281 
L 51.848236 265.537281 
z
" clip-path="url(#p810c4e068b)" style="fill: #1f77b4"/>
   </g>
   <g id="patch_112">
    <path d="M 55.488611 268.321635 
L 59.128985 268.321635 
L 59.128985 259.968574 
L 55.488611 259.968574 
z
" clip-path="url(#p810c4e068b)" style="fill: #1f77b4"/>
   </g>
   <g id="patch_113">
    <path d="M 59.128985 268.321635 
L 62.76936 268.321635 
L 62.76936 259.968574 
L 59.128985 259.968574 
z
" clip-path="url(#p810c4e068b)" style="fill: #1f77b4"/>
   </g>
   <g id="patch_114">
    <path d="M 62.76936 268.321635 
L 66.409734 268.321635 
L 66.409734 265.537281 
L 62.76936 265.537281 
z
" clip-path="url(#p810c4e068b)" style="fill: #1f77b4"/>
   </g>
   <g id="patch_115">
    <path d="M 66.409734 268.321635 
L 70.050109 268.321635 
L 70.050109 257.184221 
L 66.409734 257.184221 
z
" clip-path="url(#p810c4e068b)" style="fill: #1f77b4"/>
   </g>
   <g id="patch_116">
    <path d="M 70.050109 268.321635 
L 73.690483 268.321635 
L 73.690483 262.752928 
L 70.050109 262.752928 
z
" clip-path="url(#p810c4e068b)" style="fill: #1f77b4"/>
   </g>
   <g id="patch_117">
    <path d="M 73.690483 268.321635 
L 77.330858 268.321635 
L 77.330858 259.968574 
L 73.690483 259.968574 
z
" clip-path="url(#p810c4e068b)" style="fill: #1f77b4"/>
   </g>
   <g id="patch_118">
    <path d="M 77.330858 268.321635 
L 80.971233 268.321635 
L 80.971233 257.184221 
L 77.330858 257.184221 
z
" clip-path="url(#p810c4e068b)" style="fill: #1f77b4"/>
   </g>
   <g id="patch_119">
    <path d="M 80.971233 268.321635 
L 84.611607 268.321635 
L 84.611607 251.615514 
L 80.971233 251.615514 
z
" clip-path="url(#p810c4e068b)" style="fill: #1f77b4"/>
   </g>
   <g id="patch_120">
    <path d="M 84.611607 268.321635 
L 88.251982 268.321635 
L 88.251982 237.693746 
L 84.611607 237.693746 
z
" clip-path="url(#p810c4e068b)" style="fill: #1f77b4"/>
   </g>
   <g id="patch_121">
    <path d="M 88.251982 268.321635 
L 91.892356 268.321635 
L 91.892356 262.752928 
L 88.251982 262.752928 
z
" clip-path="url(#p810c4e068b)" style="fill: #1f77b4"/>
   </g>
   <g id="patch_122">
    <path d="M 91.892356 268.321635 
L 95.532731 268.321635 
L 95.532731 246.046806 
L 91.892356 246.046806 
z
" clip-path="url(#p810c4e068b)" style="fill: #1f77b4"/>
   </g>
   <g id="patch_123">
    <path d="M 95.532731 268.321635 
L 99.173105 268.321635 
L 99.173105 243.262453 
L 95.532731 243.262453 
z
" clip-path="url(#p810c4e068b)" style="fill: #1f77b4"/>
   </g>
   <g id="patch_124">
    <path d="M 99.173105 268.321635 
L 102.81348 268.321635 
L 102.81348 254.399867 
L 99.173105 254.399867 
z
" clip-path="url(#p810c4e068b)" style="fill: #1f77b4"/>
   </g>
   <g id="patch_125">
    <path d="M 102.81348 268.321635 
L 106.453854 268.321635 
L 106.453854 237.693746 
L 102.81348 237.693746 
z
" clip-path="url(#p810c4e068b)" style="fill: #1f77b4"/>
   </g>
   <g id="patch_126">
    <path d="M 106.453854 268.321635 
L 110.094229 268.321635 
L 110.094229 240.478099 
L 106.453854 240.478099 
z
" clip-path="url(#p810c4e068b)" style="fill: #1f77b4"/>
   </g>
   <g id="patch_127">
    <path d="M 110.094229 268.321635 
L 113.734603 268.321635 
L 113.734603 243.262453 
L 110.094229 243.262453 
z
" clip-path="url(#p810c4e068b)" style="fill: #1f77b4"/>
   </g>
   <g id="patch_128">
    <path d="M 113.734603 268.321635 
L 117.374978 268.321635 
L 117.374978 254.399867 
L 113.734603 254.399867 
z
" clip-path="url(#p810c4e068b)" style="fill: #1f77b4"/>
   </g>
   <g id="patch_129">
    <path d="M 117.374978 268.321635 
L 121.015352 268.321635 
L 121.015352 240.478099 
L 117.374978 240.478099 
z
" clip-path="url(#p810c4e068b)" style="fill: #1f77b4"/>
   </g>
   <g id="patch_130">
    <path d="M 121.015352 268.321635 
L 124.655727 268.321635 
L 124.655727 248.83116 
L 121.015352 248.83116 
z
" clip-path="url(#p810c4e068b)" style="fill: #1f77b4"/>
   </g>
   <g id="patch_131">
    <path d="M 124.655727 268.321635 
L 128.296102 268.321635 
L 128.296102 240.478099 
L 124.655727 240.478099 
z
" clip-path="url(#p810c4e068b)" style="fill: #1f77b4"/>
   </g>
   <g id="patch_132">
    <path d="M 128.296102 268.321635 
L 131.936476 268.321635 
L 131.936476 248.83116 
L 128.296102 248.83116 
z
" clip-path="url(#p810c4e068b)" style="fill: #1f77b4"/>
   </g>
   <g id="patch_133">
    <path d="M 131.936476 268.321635 
L 135.576851 268.321635 
L 135.576851 251.615514 
L 131.936476 251.615514 
z
" clip-path="url(#p810c4e068b)" style="fill: #1f77b4"/>
   </g>
   <g id="patch_134">
    <path d="M 135.576851 268.321635 
L 139.217225 268.321635 
L 139.217225 243.262453 
L 135.576851 243.262453 
z
" clip-path="url(#p810c4e068b)" style="fill: #1f77b4"/>
   </g>
   <g id="patch_135">
    <path d="M 139.217225 268.321635 
L 142.8576 268.321635 
L 142.8576 254.399867 
L 139.217225 254.399867 
z
" clip-path="url(#p810c4e068b)" style="fill: #1f77b4"/>
   </g>
   <g id="patch_136">
    <path d="M 142.8576 268.321635 
L 146.497974 268.321635 
L 146.497974 243.262453 
L 142.8576 243.262453 
z
" clip-path="url(#p810c4e068b)" style="fill: #1f77b4"/>
   </g>
   <g id="patch_137">
    <path d="M 146.497974 268.321635 
L 150.138349 268.321635 
L 150.138349 220.987624 
L 146.497974 220.987624 
z
" clip-path="url(#p810c4e068b)" style="fill: #1f77b4"/>
   </g>
   <g id="patch_138">
    <path d="M 150.138349 268.321635 
L 153.778723 268.321635 
L 153.778723 251.615514 
L 150.138349 251.615514 
z
" clip-path="url(#p810c4e068b)" style="fill: #1f77b4"/>
   </g>
   <g id="patch_139">
    <path d="M 153.778723 268.321635 
L 157.419098 268.321635 
L 157.419098 229.340685 
L 153.778723 229.340685 
z
" clip-path="url(#p810c4e068b)" style="fill: #1f77b4"/>
   </g>
   <g id="patch_140">
    <path d="M 157.419098 268.321635 
L 161.059472 268.321635 
L 161.059472 254.399867 
L 157.419098 254.399867 
z
" clip-path="url(#p810c4e068b)" style="fill: #1f77b4"/>
   </g>
   <g id="patch_141">
    <path d="M 161.059472 268.321635 
L 164.699847 268.321635 
L 164.699847 257.184221 
L 161.059472 257.184221 
z
" clip-path="url(#p810c4e068b)" style="fill: #1f77b4"/>
   </g>
   <g id="patch_142">
    <path d="M 164.699847 268.321635 
L 168.340221 268.321635 
L 168.340221 234.909392 
L 164.699847 234.909392 
z
" clip-path="url(#p810c4e068b)" style="fill: #1f77b4"/>
   </g>
   <g id="patch_143">
    <path d="M 168.340221 268.321635 
L 171.980596 268.321635 
L 171.980596 248.83116 
L 168.340221 248.83116 
z
" clip-path="url(#p810c4e068b)" style="fill: #1f77b4"/>
   </g>
   <g id="patch_144">
    <path d="M 171.980596 268.321635 
L 175.62097 268.321635 
L 175.62097 229.340685 
L 171.980596 229.340685 
z
" clip-path="url(#p810c4e068b)" style="fill: #1f77b4"/>
   </g>
   <g id="patch_145">
    <path d="M 175.62097 268.321635 
L 179.261345 268.321635 
L 179.261345 234.909392 
L 175.62097 234.909392 
z
" clip-path="url(#p810c4e068b)" style="fill: #1f77b4"/>
   </g>
   <g id="patch_146">
    <path d="M 179.261345 268.321635 
L 182.90172 268.321635 
L 182.90172 234.909392 
L 179.261345 234.909392 
z
" clip-path="url(#p810c4e068b)" style="fill: #1f77b4"/>
   </g>
   <g id="patch_147">
    <path d="M 182.90172 268.321635 
L 186.542094 268.321635 
L 186.542094 237.693746 
L 182.90172 237.693746 
z
" clip-path="url(#p810c4e068b)" style="fill: #1f77b4"/>
   </g>
   <g id="patch_148">
    <path d="M 186.542094 268.321635 
L 190.182469 268.321635 
L 190.182469 237.693746 
L 186.542094 237.693746 
z
" clip-path="url(#p810c4e068b)" style="fill: #1f77b4"/>
   </g>
   <g id="patch_149">
    <path d="M 190.182469 268.321635 
L 193.822843 268.321635 
L 193.822843 218.203271 
L 190.182469 218.203271 
z
" clip-path="url(#p810c4e068b)" style="fill: #1f77b4"/>
   </g>
   <g id="patch_150">
    <path d="M 193.822843 268.321635 
L 197.463218 268.321635 
L 197.463218 223.771978 
L 193.822843 223.771978 
z
" clip-path="url(#p810c4e068b)" style="fill: #1f77b4"/>
   </g>
   <g id="patch_151">
    <path d="M 197.463218 268.321635 
L 201.103592 268.321635 
L 201.103592 240.478099 
L 197.463218 240.478099 
z
" clip-path="url(#p810c4e068b)" style="fill: #1f77b4"/>
   </g>
   <g id="patch_152">
    <path d="M 201.103592 268.321635 
L 204.743967 268.321635 
L 204.743967 229.340685 
L 201.103592 229.340685 
z
" clip-path="url(#p810c4e068b)" style="fill: #1f77b4"/>
   </g>
   <g id="patch_153">
    <path d="M 204.743967 268.321635 
L 208.384341 268.321635 
L 208.384341 240.478099 
L 204.743967 240.478099 
z
" clip-path="url(#p810c4e068b)" style="fill: #1f77b4"/>
   </g>
   <g id="patch_154">
    <path d="M 208.384341 268.321635 
L 212.024716 268.321635 
L 212.024716 246.046806 
L 208.384341 246.046806 
z
" clip-path="url(#p810c4e068b)" style="fill: #1f77b4"/>
   </g>
   <g id="patch_155">
    <path d="M 212.024716 268.321635 
L 215.66509 268.321635 
L 215.66509 246.046806 
L 212.024716 246.046806 
z
" clip-path="url(#p810c4e068b)" style="fill: #1f77b4"/>
   </g>
   <g id="patch_156">
    <path d="M 215.66509 268.321635 
L 219.305465 268.321635 
L 219.305465 265.537281 
L 215.66509 265.537281 
z
" clip-path="url(#p810c4e068b)" style="fill: #1f77b4"/>
   </g>
   <g id="patch_157">
    <path d="M 219.305465 268.321635 
L 222.945839 268.321635 
L 222.945839 246.046806 
L 219.305465 246.046806 
z
" clip-path="url(#p810c4e068b)" style="fill: #1f77b4"/>
   </g>
   <g id="patch_158">
    <path d="M 222.945839 268.321635 
L 226.586214 268.321635 
L 226.586214 248.83116 
L 222.945839 248.83116 
z
" clip-path="url(#p810c4e068b)" style="fill: #1f77b4"/>
   </g>
   <g id="patch_159">
    <path d="M 226.586214 268.321635 
L 230.226588 268.321635 
L 230.226588 254.399867 
L 226.586214 254.399867 
z
" clip-path="url(#p810c4e068b)" style="fill: #1f77b4"/>
   </g>
   <g id="patch_160">
    <path d="M 230.226588 268.321635 
L 233.866963 268.321635 
L 233.866963 254.399867 
L 230.226588 254.399867 
z
" clip-path="url(#p810c4e068b)" style="fill: #1f77b4"/>
   </g>
   <g id="patch_161">
    <path d="M 233.866963 268.321635 
L 237.507338 268.321635 
L 237.507338 243.262453 
L 233.866963 243.262453 
z
" clip-path="url(#p810c4e068b)" style="fill: #1f77b4"/>
   </g>
   <g id="patch_162">
    <path d="M 237.507338 268.321635 
L 241.147712 268.321635 
L 241.147712 254.399867 
L 237.507338 254.399867 
z
" clip-path="url(#p810c4e068b)" style="fill: #1f77b4"/>
   </g>
   <g id="patch_163">
    <path d="M 241.147712 268.321635 
L 244.788087 268.321635 
L 244.788087 257.184221 
L 241.147712 257.184221 
z
" clip-path="url(#p810c4e068b)" style="fill: #1f77b4"/>
   </g>
   <g id="patch_164">
    <path d="M 244.788087 268.321635 
L 248.428461 268.321635 
L 248.428461 251.615514 
L 244.788087 251.615514 
z
" clip-path="url(#p810c4e068b)" style="fill: #1f77b4"/>
   </g>
   <g id="patch_165">
    <path d="M 248.428461 268.321635 
L 252.068836 268.321635 
L 252.068836 248.83116 
L 248.428461 248.83116 
z
" clip-path="url(#p810c4e068b)" style="fill: #1f77b4"/>
   </g>
   <g id="patch_166">
    <path d="M 252.068836 268.321635 
L 255.70921 268.321635 
L 255.70921 254.399867 
L 252.068836 254.399867 
z
" clip-path="url(#p810c4e068b)" style="fill: #1f77b4"/>
   </g>
   <g id="patch_167">
    <path d="M 255.70921 268.321635 
L 259.349585 268.321635 
L 259.349585 257.184221 
L 255.70921 257.184221 
z
" clip-path="url(#p810c4e068b)" style="fill: #1f77b4"/>
   </g>
   <g id="patch_168">
    <path d="M 259.349585 268.321635 
L 262.989959 268.321635 
L 262.989959 259.968574 
L 259.349585 259.968574 
z
" clip-path="url(#p810c4e068b)" style="fill: #1f77b4"/>
   </g>
   <g id="patch_169">
    <path d="M 262.989959 268.321635 
L 266.630334 268.321635 
L 266.630334 248.83116 
L 262.989959 248.83116 
z
" clip-path="url(#p810c4e068b)" style="fill: #1f77b4"/>
   </g>
   <g id="patch_170">
    <path d="M 266.630334 268.321635 
L 270.270708 268.321635 
L 270.270708 257.184221 
L 266.630334 257.184221 
z
" clip-path="url(#p810c4e068b)" style="fill: #1f77b4"/>
   </g>
   <g id="patch_171">
    <path d="M 270.270708 268.321635 
L 273.911083 268.321635 
L 273.911083 254.399867 
L 270.270708 254.399867 
z
" clip-path="url(#p810c4e068b)" style="fill: #1f77b4"/>
   </g>
   <g id="patch_172">
    <path d="M 273.911083 268.321635 
L 277.551457 268.321635 
L 277.551457 262.752928 
L 273.911083 262.752928 
z
" clip-path="url(#p810c4e068b)" style="fill: #1f77b4"/>
   </g>
   <g id="patch_173">
    <path d="M 277.551457 268.321635 
L 281.191832 268.321635 
L 281.191832 259.968574 
L 277.551457 259.968574 
z
" clip-path="url(#p810c4e068b)" style="fill: #1f77b4"/>
   </g>
   <g id="patch_174">
    <path d="M 281.191832 268.321635 
L 284.832206 268.321635 
L 284.832206 259.968574 
L 281.191832 259.968574 
z
" clip-path="url(#p810c4e068b)" style="fill: #1f77b4"/>
   </g>
   <g id="patch_175">
    <path d="M 284.832206 268.321635 
L 288.472581 268.321635 
L 288.472581 246.046806 
L 284.832206 246.046806 
z
" clip-path="url(#p810c4e068b)" style="fill: #1f77b4"/>
   </g>
   <g id="patch_176">
    <path d="M 288.472581 268.321635 
L 292.112956 268.321635 
L 292.112956 265.537281 
L 288.472581 265.537281 
z
" clip-path="url(#p810c4e068b)" style="fill: #1f77b4"/>
   </g>
   <g id="patch_177">
    <path d="M 292.112956 268.321635 
L 295.75333 268.321635 
L 295.75333 251.615514 
L 292.112956 251.615514 
z
" clip-path="url(#p810c4e068b)" style="fill: #1f77b4"/>
   </g>
   <g id="patch_178">
    <path d="M 295.75333 268.321635 
L 299.393705 268.321635 
L 299.393705 254.399867 
L 295.75333 254.399867 
z
" clip-path="url(#p810c4e068b)" style="fill: #1f77b4"/>
   </g>
   <g id="patch_179">
    <path d="M 299.393705 268.321635 
L 303.034079 268.321635 
L 303.034079 251.615514 
L 299.393705 251.615514 
z
" clip-path="url(#p810c4e068b)" style="fill: #1f77b4"/>
   </g>
   <g id="patch_180">
    <path d="M 303.034079 268.321635 
L 306.674454 268.321635 
L 306.674454 257.184221 
L 303.034079 257.184221 
z
" clip-path="url(#p810c4e068b)" style="fill: #1f77b4"/>
   </g>
   <g id="patch_181">
    <path d="M 306.674454 268.321635 
L 310.314828 268.321635 
L 310.314828 259.968574 
L 306.674454 259.968574 
z
" clip-path="url(#p810c4e068b)" style="fill: #1f77b4"/>
   </g>
   <g id="patch_182">
    <path d="M 310.314828 268.321635 
L 313.955203 268.321635 
L 313.955203 262.752928 
L 310.314828 262.752928 
z
" clip-path="url(#p810c4e068b)" style="fill: #1f77b4"/>
   </g>
   <g id="patch_183">
    <path d="M 313.955203 268.321635 
L 317.595577 268.321635 
L 317.595577 259.968574 
L 313.955203 259.968574 
z
" clip-path="url(#p810c4e068b)" style="fill: #1f77b4"/>
   </g>
   <g id="patch_184">
    <path d="M 317.595577 268.321635 
L 321.235952 268.321635 
L 321.235952 262.752928 
L 317.595577 262.752928 
z
" clip-path="url(#p810c4e068b)" style="fill: #1f77b4"/>
   </g>
   <g id="patch_185">
    <path d="M 321.235952 268.321635 
L 324.876326 268.321635 
L 324.876326 262.752928 
L 321.235952 262.752928 
z
" clip-path="url(#p810c4e068b)" style="fill: #1f77b4"/>
   </g>
   <g id="patch_186">
    <path d="M 324.876326 268.321635 
L 328.516701 268.321635 
L 328.516701 259.968574 
L 324.876326 259.968574 
z
" clip-path="url(#p810c4e068b)" style="fill: #1f77b4"/>
   </g>
   <g id="patch_187">
    <path d="M 328.516701 268.321635 
L 332.157075 268.321635 
L 332.157075 262.752928 
L 328.516701 262.752928 
z
" clip-path="url(#p810c4e068b)" style="fill: #1f77b4"/>
   </g>
   <g id="patch_188">
    <path d="M 332.157075 268.321635 
L 335.79745 268.321635 
L 335.79745 254.399867 
L 332.157075 254.399867 
z
" clip-path="url(#p810c4e068b)" style="fill: #1f77b4"/>
   </g>
   <g id="patch_189">
    <path d="M 335.79745 268.321635 
L 339.437825 268.321635 
L 339.437825 248.83116 
L 335.79745 248.83116 
z
" clip-path="url(#p810c4e068b)" style="fill: #1f77b4"/>
   </g>
   <g id="patch_190">
    <path d="M 339.437825 268.321635 
L 343.078199 268.321635 
L 343.078199 257.184221 
L 339.437825 257.184221 
z
" clip-path="url(#p810c4e068b)" style="fill: #1f77b4"/>
   </g>
   <g id="patch_191">
    <path d="M 343.078199 268.321635 
L 346.718574 268.321635 
L 346.718574 259.968574 
L 343.078199 259.968574 
z
" clip-path="url(#p810c4e068b)" style="fill: #1f77b4"/>
   </g>
   <g id="patch_192">
    <path d="M 346.718574 268.321635 
L 350.358948 268.321635 
L 350.358948 257.184221 
L 346.718574 257.184221 
z
" clip-path="url(#p810c4e068b)" style="fill: #1f77b4"/>
   </g>
   <g id="patch_193">
    <path d="M 350.358948 268.321635 
L 353.999323 268.321635 
L 353.999323 265.537281 
L 350.358948 265.537281 
z
" clip-path="url(#p810c4e068b)" style="fill: #1f77b4"/>
   </g>
   <g id="patch_194">
    <path d="M 353.999323 268.321635 
L 357.639697 268.321635 
L 357.639697 265.537281 
L 353.999323 265.537281 
z
" clip-path="url(#p810c4e068b)" style="fill: #1f77b4"/>
   </g>
   <g id="patch_195">
    <path d="M 357.639697 268.321635 
L 361.280072 268.321635 
L 361.280072 257.184221 
L 357.639697 257.184221 
z
" clip-path="url(#p810c4e068b)" style="fill: #1f77b4"/>
   </g>
   <g id="patch_196">
    <path d="M 361.280072 268.321635 
L 364.920446 268.321635 
L 364.920446 248.83116 
L 361.280072 248.83116 
z
" clip-path="url(#p810c4e068b)" style="fill: #1f77b4"/>
   </g>
   <g id="patch_197">
    <path d="M 364.920446 268.321635 
L 368.560821 268.321635 
L 368.560821 248.83116 
L 364.920446 248.83116 
z
" clip-path="url(#p810c4e068b)" style="fill: #1f77b4"/>
   </g>
   <g id="patch_198">
    <path d="M 368.560821 268.321635 
L 372.201195 268.321635 
L 372.201195 265.537281 
L 368.560821 265.537281 
z
" clip-path="url(#p810c4e068b)" style="fill: #1f77b4"/>
   </g>
   <g id="patch_199">
    <path d="M 372.201195 268.321635 
L 375.84157 268.321635 
L 375.84157 257.184221 
L 372.201195 257.184221 
z
" clip-path="url(#p810c4e068b)" style="fill: #1f77b4"/>
   </g>
   <g id="patch_200">
    <path d="M 375.84157 268.321635 
L 379.481944 268.321635 
L 379.481944 254.399867 
L 375.84157 254.399867 
z
" clip-path="url(#p810c4e068b)" style="fill: #1f77b4"/>
   </g>
   <g id="patch_201">
    <path d="M 379.481944 268.321635 
L 383.122319 268.321635 
L 383.122319 265.537281 
L 379.481944 265.537281 
z
" clip-path="url(#p810c4e068b)" style="fill: #1f77b4"/>
   </g>
   <g id="patch_202">
    <path d="M 383.122319 268.321635 
L 386.762693 268.321635 
L 386.762693 259.968574 
L 383.122319 259.968574 
z
" clip-path="url(#p810c4e068b)" style="fill: #1f77b4"/>
   </g>
   <g id="patch_203">
    <path d="M 386.762693 268.321635 
L 390.403068 268.321635 
L 390.403068 254.399867 
L 386.762693 254.399867 
z
" clip-path="url(#p810c4e068b)" style="fill: #1f77b4"/>
   </g>
   <g id="patch_204">
    <path d="M 390.403068 268.321635 
L 394.043443 268.321635 
L 394.043443 257.184221 
L 390.403068 257.184221 
z
" clip-path="url(#p810c4e068b)" style="fill: #1f77b4"/>
   </g>
   <g id="patch_205">
    <path d="M 394.043443 268.321635 
L 397.683817 268.321635 
L 397.683817 265.537281 
L 394.043443 265.537281 
z
" clip-path="url(#p810c4e068b)" style="fill: #1f77b4"/>
   </g>
   <g id="patch_206">
    <path d="M 397.683817 268.321635 
L 401.324192 268.321635 
L 401.324192 259.968574 
L 397.683817 259.968574 
z
" clip-path="url(#p810c4e068b)" style="fill: #1f77b4"/>
   </g>
   <g id="patch_207">
    <path d="M 401.324192 268.321635 
L 404.964566 268.321635 
L 404.964566 257.184221 
L 401.324192 257.184221 
z
" clip-path="url(#p810c4e068b)" style="fill: #1f77b4"/>
   </g>
   <g id="matplotlib.axis_3">
    <g id="xtick_7">
     <g id="line2d_11">
      <g>
       <use xlink:href="#m8a6b0c0fdd" x="23.789593" y="268.321635" style="stroke: #000000; stroke-width: 0.8"/>
      </g>
     </g>
     <g id="text_12">
      <!-- 0 -->
      <g transform="translate(20.608343 282.920073)scale(0.1 -0.1)">
       <use xlink:href="#DejaVuSans-30"/>
      </g>
     </g>
    </g>
    <g id="xtick_8">
     <g id="line2d_12">
      <g>
       <use xlink:href="#m8a6b0c0fdd" x="100.685683" y="268.321635" style="stroke: #000000; stroke-width: 0.8"/>
      </g>
     </g>
     <g id="text_13">
      <!-- 2000 -->
      <g transform="translate(87.960683 282.920073)scale(0.1 -0.1)">
       <use xlink:href="#DejaVuSans-32"/>
       <use xlink:href="#DejaVuSans-30" x="63.623047"/>
       <use xlink:href="#DejaVuSans-30" x="127.246094"/>
       <use xlink:href="#DejaVuSans-30" x="190.869141"/>
      </g>
     </g>
    </g>
    <g id="xtick_9">
     <g id="line2d_13">
      <g>
       <use xlink:href="#m8a6b0c0fdd" x="177.581773" y="268.321635" style="stroke: #000000; stroke-width: 0.8"/>
      </g>
     </g>
     <g id="text_14">
      <!-- 4000 -->
      <g transform="translate(164.856773 282.920073)scale(0.1 -0.1)">
       <use xlink:href="#DejaVuSans-34"/>
       <use xlink:href="#DejaVuSans-30" x="63.623047"/>
       <use xlink:href="#DejaVuSans-30" x="127.246094"/>
       <use xlink:href="#DejaVuSans-30" x="190.869141"/>
      </g>
     </g>
    </g>
    <g id="xtick_10">
     <g id="line2d_14">
      <g>
       <use xlink:href="#m8a6b0c0fdd" x="254.477863" y="268.321635" style="stroke: #000000; stroke-width: 0.8"/>
      </g>
     </g>
     <g id="text_15">
      <!-- 6000 -->
      <g transform="translate(241.752863 282.920073)scale(0.1 -0.1)">
       <defs>
        <path id="DejaVuSans-36" d="M 2113 2584 
Q 1688 2584 1439 2293 
Q 1191 2003 1191 1497 
Q 1191 994 1439 701 
Q 1688 409 2113 409 
Q 2538 409 2786 701 
Q 3034 994 3034 1497 
Q 3034 2003 2786 2293 
Q 2538 2584 2113 2584 
z
M 3366 4563 
L 3366 3988 
Q 3128 4100 2886 4159 
Q 2644 4219 2406 4219 
Q 1781 4219 1451 3797 
Q 1122 3375 1075 2522 
Q 1259 2794 1537 2939 
Q 1816 3084 2150 3084 
Q 2853 3084 3261 2657 
Q 3669 2231 3669 1497 
Q 3669 778 3244 343 
Q 2819 -91 2113 -91 
Q 1303 -91 875 529 
Q 447 1150 447 2328 
Q 447 3434 972 4092 
Q 1497 4750 2381 4750 
Q 2619 4750 2861 4703 
Q 3103 4656 3366 4563 
z
" transform="scale(0.015625)"/>
       </defs>
       <use xlink:href="#DejaVuSans-36"/>
       <use xlink:href="#DejaVuSans-30" x="63.623047"/>
       <use xlink:href="#DejaVuSans-30" x="127.246094"/>
       <use xlink:href="#DejaVuSans-30" x="190.869141"/>
      </g>
     </g>
    </g>
    <g id="xtick_11">
     <g id="line2d_15">
      <g>
       <use xlink:href="#m8a6b0c0fdd" x="331.373953" y="268.321635" style="stroke: #000000; stroke-width: 0.8"/>
      </g>
     </g>
     <g id="text_16">
      <!-- 8000 -->
      <g transform="translate(318.648953 282.920073)scale(0.1 -0.1)">
       <defs>
        <path id="DejaVuSans-38" d="M 2034 2216 
Q 1584 2216 1326 1975 
Q 1069 1734 1069 1313 
Q 1069 891 1326 650 
Q 1584 409 2034 409 
Q 2484 409 2743 651 
Q 3003 894 3003 1313 
Q 3003 1734 2745 1975 
Q 2488 2216 2034 2216 
z
M 1403 2484 
Q 997 2584 770 2862 
Q 544 3141 544 3541 
Q 544 4100 942 4425 
Q 1341 4750 2034 4750 
Q 2731 4750 3128 4425 
Q 3525 4100 3525 3541 
Q 3525 3141 3298 2862 
Q 3072 2584 2669 2484 
Q 3125 2378 3379 2068 
Q 3634 1759 3634 1313 
Q 3634 634 3220 271 
Q 2806 -91 2034 -91 
Q 1263 -91 848 271 
Q 434 634 434 1313 
Q 434 1759 690 2068 
Q 947 2378 1403 2484 
z
M 1172 3481 
Q 1172 3119 1398 2916 
Q 1625 2713 2034 2713 
Q 2441 2713 2670 2916 
Q 2900 3119 2900 3481 
Q 2900 3844 2670 4047 
Q 2441 4250 2034 4250 
Q 1625 4250 1398 4047 
Q 1172 3844 1172 3481 
z
" transform="scale(0.015625)"/>
       </defs>
       <use xlink:href="#DejaVuSans-38"/>
       <use xlink:href="#DejaVuSans-30" x="63.623047"/>
       <use xlink:href="#DejaVuSans-30" x="127.246094"/>
       <use xlink:href="#DejaVuSans-30" x="190.869141"/>
      </g>
     </g>
    </g>
    <g id="xtick_12">
     <g id="line2d_16">
      <g>
       <use xlink:href="#m8a6b0c0fdd" x="408.270043" y="268.321635" style="stroke: #000000; stroke-width: 0.8"/>
      </g>
     </g>
     <g id="text_17">
      <!-- 10000 -->
      <g transform="translate(392.363793 282.920073)scale(0.1 -0.1)">
       <use xlink:href="#DejaVuSans-31"/>
       <use xlink:href="#DejaVuSans-30" x="63.623047"/>
       <use xlink:href="#DejaVuSans-30" x="127.246094"/>
       <use xlink:href="#DejaVuSans-30" x="190.869141"/>
       <use xlink:href="#DejaVuSans-30" x="254.492188"/>
      </g>
     </g>
    </g>
   </g>
   <g id="matplotlib.axis_4">
    <g id="ytick_5">
     <g id="line2d_17">
      <g>
       <use xlink:href="#me3bbd5c6aa" x="22.72524" y="268.321635" style="stroke: #000000; stroke-width: 0.8"/>
      </g>
     </g>
     <g id="text_18">
      <!-- 0 -->
      <g transform="translate(9.36274 272.120854)scale(0.1 -0.1)">
       <use xlink:href="#DejaVuSans-30"/>
      </g>
     </g>
    </g>
    <g id="ytick_6">
     <g id="line2d_18">
      <g>
       <use xlink:href="#me3bbd5c6aa" x="22.72524" y="240.478099" style="stroke: #000000; stroke-width: 0.8"/>
      </g>
     </g>
     <g id="text_19">
      <!-- 10 -->
      <g transform="translate(3.00024 244.277318)scale(0.1 -0.1)">
       <use xlink:href="#DejaVuSans-31"/>
       <use xlink:href="#DejaVuSans-30" x="63.623047"/>
      </g>
     </g>
    </g>
    <g id="ytick_7">
     <g id="line2d_19">
      <g>
       <use xlink:href="#me3bbd5c6aa" x="22.72524" y="212.634564" style="stroke: #000000; stroke-width: 0.8"/>
      </g>
     </g>
     <g id="text_20">
      <!-- 20 -->
      <g transform="translate(3.00024 216.433782)scale(0.1 -0.1)">
       <use xlink:href="#DejaVuSans-32"/>
       <use xlink:href="#DejaVuSans-30" x="63.623047"/>
      </g>
     </g>
    </g>
    <g id="ytick_8">
     <g id="line2d_20">
      <g>
       <use xlink:href="#me3bbd5c6aa" x="22.72524" y="184.791028" style="stroke: #000000; stroke-width: 0.8"/>
      </g>
     </g>
     <g id="text_21">
      <!-- 30 -->
      <g transform="translate(3.00024 188.590247)scale(0.1 -0.1)">
       <use xlink:href="#DejaVuSans-33"/>
       <use xlink:href="#DejaVuSans-30" x="63.623047"/>
      </g>
     </g>
    </g>
   </g>
   <g id="patch_208">
    <path d="M 22.72524 268.321635 
L 22.72524 174.767355 
" style="fill: none; stroke: #000000; stroke-width: 0.8; stroke-linejoin: miter; stroke-linecap: square"/>
   </g>
   <g id="patch_209">
    <path d="M 423.166439 268.321635 
L 423.166439 174.767355 
" style="fill: none; stroke: #000000; stroke-width: 0.8; stroke-linejoin: miter; stroke-linecap: square"/>
   </g>
   <g id="patch_210">
    <path d="M 22.72524 268.321635 
L 423.166439 268.321635 
" style="fill: none; stroke: #000000; stroke-width: 0.8; stroke-linejoin: miter; stroke-linecap: square"/>
   </g>
   <g id="patch_211">
    <path d="M 22.72524 174.767355 
L 423.166439 174.767355 
" style="fill: none; stroke: #000000; stroke-width: 0.8; stroke-linejoin: miter; stroke-linecap: square"/>
   </g>
   <g id="text_22">
    <!-- $\widetilde{\chi_2^\pm}$ -->
    <g transform="translate(213.765839 168.767355)scale(0.12 -0.12)">
     <use xlink:href="#STIXSizeFourSym-Regular-303" transform="translate(183.813001 45.546875)scale(0.807633)"/>
     <use xlink:href="#DejaVuSans-Oblique-3c7" transform="translate(0 0.123437)"/>
     <use xlink:href="#DejaVuSans-b1" transform="translate(77.290091 38.404687)scale(0.7)"/>
     <use xlink:href="#DejaVuSans-32" transform="translate(59.179688 -27.220313)scale(0.7)"/>
    </g>
   </g>
  </g>
  <g id="text_23">
   <!-- Histogramme de la masse des charginos -->
   <g transform="translate(93.653438 12.118365)scale(0.12 -0.12)">
    <defs>
     <path id="DejaVuSans-48" d="M 628 4666 
L 1259 4666 
L 1259 2753 
L 3553 2753 
L 3553 4666 
L 4184 4666 
L 4184 0 
L 3553 0 
L 3553 2222 
L 1259 2222 
L 1259 0 
L 628 0 
L 628 4666 
z
" transform="scale(0.015625)"/>
     <path id="DejaVuSans-69" d="M 603 3500 
L 1178 3500 
L 1178 0 
L 603 0 
L 603 3500 
z
M 603 4863 
L 1178 4863 
L 1178 4134 
L 603 4134 
L 603 4863 
z
" transform="scale(0.015625)"/>
     <path id="DejaVuSans-73" d="M 2834 3397 
L 2834 2853 
Q 2591 2978 2328 3040 
Q 2066 3103 1784 3103 
Q 1356 3103 1142 2972 
Q 928 2841 928 2578 
Q 928 2378 1081 2264 
Q 1234 2150 1697 2047 
L 1894 2003 
Q 2506 1872 2764 1633 
Q 3022 1394 3022 966 
Q 3022 478 2636 193 
Q 2250 -91 1575 -91 
Q 1294 -91 989 -36 
Q 684 19 347 128 
L 347 722 
Q 666 556 975 473 
Q 1284 391 1588 391 
Q 1994 391 2212 530 
Q 2431 669 2431 922 
Q 2431 1156 2273 1281 
Q 2116 1406 1581 1522 
L 1381 1569 
Q 847 1681 609 1914 
Q 372 2147 372 2553 
Q 372 3047 722 3315 
Q 1072 3584 1716 3584 
Q 2034 3584 2315 3537 
Q 2597 3491 2834 3397 
z
" transform="scale(0.015625)"/>
     <path id="DejaVuSans-74" d="M 1172 4494 
L 1172 3500 
L 2356 3500 
L 2356 3053 
L 1172 3053 
L 1172 1153 
Q 1172 725 1289 603 
Q 1406 481 1766 481 
L 2356 481 
L 2356 0 
L 1766 0 
Q 1100 0 847 248 
Q 594 497 594 1153 
L 594 3053 
L 172 3053 
L 172 3500 
L 594 3500 
L 594 4494 
L 1172 4494 
z
" transform="scale(0.015625)"/>
     <path id="DejaVuSans-6f" d="M 1959 3097 
Q 1497 3097 1228 2736 
Q 959 2375 959 1747 
Q 959 1119 1226 758 
Q 1494 397 1959 397 
Q 2419 397 2687 759 
Q 2956 1122 2956 1747 
Q 2956 2369 2687 2733 
Q 2419 3097 1959 3097 
z
M 1959 3584 
Q 2709 3584 3137 3096 
Q 3566 2609 3566 1747 
Q 3566 888 3137 398 
Q 2709 -91 1959 -91 
Q 1206 -91 779 398 
Q 353 888 353 1747 
Q 353 2609 779 3096 
Q 1206 3584 1959 3584 
z
" transform="scale(0.015625)"/>
     <path id="DejaVuSans-67" d="M 2906 1791 
Q 2906 2416 2648 2759 
Q 2391 3103 1925 3103 
Q 1463 3103 1205 2759 
Q 947 2416 947 1791 
Q 947 1169 1205 825 
Q 1463 481 1925 481 
Q 2391 481 2648 825 
Q 2906 1169 2906 1791 
z
M 3481 434 
Q 3481 -459 3084 -895 
Q 2688 -1331 1869 -1331 
Q 1566 -1331 1297 -1286 
Q 1028 -1241 775 -1147 
L 775 -588 
Q 1028 -725 1275 -790 
Q 1522 -856 1778 -856 
Q 2344 -856 2625 -561 
Q 2906 -266 2906 331 
L 2906 616 
Q 2728 306 2450 153 
Q 2172 0 1784 0 
Q 1141 0 747 490 
Q 353 981 353 1791 
Q 353 2603 747 3093 
Q 1141 3584 1784 3584 
Q 2172 3584 2450 3431 
Q 2728 3278 2906 2969 
L 2906 3500 
L 3481 3500 
L 3481 434 
z
" transform="scale(0.015625)"/>
     <path id="DejaVuSans-72" d="M 2631 2963 
Q 2534 3019 2420 3045 
Q 2306 3072 2169 3072 
Q 1681 3072 1420 2755 
Q 1159 2438 1159 1844 
L 1159 0 
L 581 0 
L 581 3500 
L 1159 3500 
L 1159 2956 
Q 1341 3275 1631 3429 
Q 1922 3584 2338 3584 
Q 2397 3584 2469 3576 
Q 2541 3569 2628 3553 
L 2631 2963 
z
" transform="scale(0.015625)"/>
     <path id="DejaVuSans-61" d="M 2194 1759 
Q 1497 1759 1228 1600 
Q 959 1441 959 1056 
Q 959 750 1161 570 
Q 1363 391 1709 391 
Q 2188 391 2477 730 
Q 2766 1069 2766 1631 
L 2766 1759 
L 2194 1759 
z
M 3341 1997 
L 3341 0 
L 2766 0 
L 2766 531 
Q 2569 213 2275 61 
Q 1981 -91 1556 -91 
Q 1019 -91 701 211 
Q 384 513 384 1019 
Q 384 1609 779 1909 
Q 1175 2209 1959 2209 
L 2766 2209 
L 2766 2266 
Q 2766 2663 2505 2880 
Q 2244 3097 1772 3097 
Q 1472 3097 1187 3025 
Q 903 2953 641 2809 
L 641 3341 
Q 956 3463 1253 3523 
Q 1550 3584 1831 3584 
Q 2591 3584 2966 3190 
Q 3341 2797 3341 1997 
z
" transform="scale(0.015625)"/>
     <path id="DejaVuSans-6d" d="M 3328 2828 
Q 3544 3216 3844 3400 
Q 4144 3584 4550 3584 
Q 5097 3584 5394 3201 
Q 5691 2819 5691 2113 
L 5691 0 
L 5113 0 
L 5113 2094 
Q 5113 2597 4934 2840 
Q 4756 3084 4391 3084 
Q 3944 3084 3684 2787 
Q 3425 2491 3425 1978 
L 3425 0 
L 2847 0 
L 2847 2094 
Q 2847 2600 2669 2842 
Q 2491 3084 2119 3084 
Q 1678 3084 1418 2786 
Q 1159 2488 1159 1978 
L 1159 0 
L 581 0 
L 581 3500 
L 1159 3500 
L 1159 2956 
Q 1356 3278 1631 3431 
Q 1906 3584 2284 3584 
Q 2666 3584 2933 3390 
Q 3200 3197 3328 2828 
z
" transform="scale(0.015625)"/>
     <path id="DejaVuSans-65" d="M 3597 1894 
L 3597 1613 
L 953 1613 
Q 991 1019 1311 708 
Q 1631 397 2203 397 
Q 2534 397 2845 478 
Q 3156 559 3463 722 
L 3463 178 
Q 3153 47 2828 -22 
Q 2503 -91 2169 -91 
Q 1331 -91 842 396 
Q 353 884 353 1716 
Q 353 2575 817 3079 
Q 1281 3584 2069 3584 
Q 2775 3584 3186 3129 
Q 3597 2675 3597 1894 
z
M 3022 2063 
Q 3016 2534 2758 2815 
Q 2500 3097 2075 3097 
Q 1594 3097 1305 2825 
Q 1016 2553 972 2059 
L 3022 2063 
z
" transform="scale(0.015625)"/>
     <path id="DejaVuSans-20" transform="scale(0.015625)"/>
     <path id="DejaVuSans-64" d="M 2906 2969 
L 2906 4863 
L 3481 4863 
L 3481 0 
L 2906 0 
L 2906 525 
Q 2725 213 2448 61 
Q 2172 -91 1784 -91 
Q 1150 -91 751 415 
Q 353 922 353 1747 
Q 353 2572 751 3078 
Q 1150 3584 1784 3584 
Q 2172 3584 2448 3432 
Q 2725 3281 2906 2969 
z
M 947 1747 
Q 947 1113 1208 752 
Q 1469 391 1925 391 
Q 2381 391 2643 752 
Q 2906 1113 2906 1747 
Q 2906 2381 2643 2742 
Q 2381 3103 1925 3103 
Q 1469 3103 1208 2742 
Q 947 2381 947 1747 
z
" transform="scale(0.015625)"/>
     <path id="DejaVuSans-6c" d="M 603 4863 
L 1178 4863 
L 1178 0 
L 603 0 
L 603 4863 
z
" transform="scale(0.015625)"/>
     <path id="DejaVuSans-63" d="M 3122 3366 
L 3122 2828 
Q 2878 2963 2633 3030 
Q 2388 3097 2138 3097 
Q 1578 3097 1268 2742 
Q 959 2388 959 1747 
Q 959 1106 1268 751 
Q 1578 397 2138 397 
Q 2388 397 2633 464 
Q 2878 531 3122 666 
L 3122 134 
Q 2881 22 2623 -34 
Q 2366 -91 2075 -91 
Q 1284 -91 818 406 
Q 353 903 353 1747 
Q 353 2603 823 3093 
Q 1294 3584 2113 3584 
Q 2378 3584 2631 3529 
Q 2884 3475 3122 3366 
z
" transform="scale(0.015625)"/>
     <path id="DejaVuSans-68" d="M 3513 2113 
L 3513 0 
L 2938 0 
L 2938 2094 
Q 2938 2591 2744 2837 
Q 2550 3084 2163 3084 
Q 1697 3084 1428 2787 
Q 1159 2491 1159 1978 
L 1159 0 
L 581 0 
L 581 4863 
L 1159 4863 
L 1159 2956 
Q 1366 3272 1645 3428 
Q 1925 3584 2291 3584 
Q 2894 3584 3203 3211 
Q 3513 2838 3513 2113 
z
" transform="scale(0.015625)"/>
     <path id="DejaVuSans-6e" d="M 3513 2113 
L 3513 0 
L 2938 0 
L 2938 2094 
Q 2938 2591 2744 2837 
Q 2550 3084 2163 3084 
Q 1697 3084 1428 2787 
Q 1159 2491 1159 1978 
L 1159 0 
L 581 0 
L 581 3500 
L 1159 3500 
L 1159 2956 
Q 1366 3272 1645 3428 
Q 1925 3584 2291 3584 
Q 2894 3584 3203 3211 
Q 3513 2838 3513 2113 
z
" transform="scale(0.015625)"/>
    </defs>
    <use xlink:href="#DejaVuSans-48"/>
    <use xlink:href="#DejaVuSans-69" x="75.195312"/>
    <use xlink:href="#DejaVuSans-73" x="102.978516"/>
    <use xlink:href="#DejaVuSans-74" x="155.078125"/>
    <use xlink:href="#DejaVuSans-6f" x="194.287109"/>
    <use xlink:href="#DejaVuSans-67" x="255.46875"/>
    <use xlink:href="#DejaVuSans-72" x="318.945312"/>
    <use xlink:href="#DejaVuSans-61" x="360.058594"/>
    <use xlink:href="#DejaVuSans-6d" x="421.337891"/>
    <use xlink:href="#DejaVuSans-6d" x="518.75"/>
    <use xlink:href="#DejaVuSans-65" x="616.162109"/>
    <use xlink:href="#DejaVuSans-20" x="677.685547"/>
    <use xlink:href="#DejaVuSans-64" x="709.472656"/>
    <use xlink:href="#DejaVuSans-65" x="772.949219"/>
    <use xlink:href="#DejaVuSans-20" x="834.472656"/>
    <use xlink:href="#DejaVuSans-6c" x="866.259766"/>
    <use xlink:href="#DejaVuSans-61" x="894.042969"/>
    <use xlink:href="#DejaVuSans-20" x="955.322266"/>
    <use xlink:href="#DejaVuSans-6d" x="987.109375"/>
    <use xlink:href="#DejaVuSans-61" x="1084.521484"/>
    <use xlink:href="#DejaVuSans-73" x="1145.800781"/>
    <use xlink:href="#DejaVuSans-73" x="1197.900391"/>
    <use xlink:href="#DejaVuSans-65" x="1250"/>
    <use xlink:href="#DejaVuSans-20" x="1311.523438"/>
    <use xlink:href="#DejaVuSans-64" x="1343.310547"/>
    <use xlink:href="#DejaVuSans-65" x="1406.787109"/>
    <use xlink:href="#DejaVuSans-73" x="1468.310547"/>
    <use xlink:href="#DejaVuSans-20" x="1520.410156"/>
    <use xlink:href="#DejaVuSans-63" x="1552.197266"/>
    <use xlink:href="#DejaVuSans-68" x="1607.177734"/>
    <use xlink:href="#DejaVuSans-61" x="1670.556641"/>
    <use xlink:href="#DejaVuSans-72" x="1731.835938"/>
    <use xlink:href="#DejaVuSans-67" x="1771.199219"/>
    <use xlink:href="#DejaVuSans-69" x="1834.675781"/>
    <use xlink:href="#DejaVuSans-6e" x="1862.458984"/>
    <use xlink:href="#DejaVuSans-6f" x="1925.837891"/>
    <use xlink:href="#DejaVuSans-73" x="1987.019531"/>
   </g>
  </g>
  <g id="text_24">
   <!-- Masse (GeV) -->
   <g transform="translate(184.474219 302.4)scale(0.1 -0.1)">
    <defs>
     <path id="DejaVuSans-4d" d="M 628 4666 
L 1569 4666 
L 2759 1491 
L 3956 4666 
L 4897 4666 
L 4897 0 
L 4281 0 
L 4281 4097 
L 3078 897 
L 2444 897 
L 1241 4097 
L 1241 0 
L 628 0 
L 628 4666 
z
" transform="scale(0.015625)"/>
     <path id="DejaVuSans-28" d="M 1984 4856 
Q 1566 4138 1362 3434 
Q 1159 2731 1159 2009 
Q 1159 1288 1364 580 
Q 1569 -128 1984 -844 
L 1484 -844 
Q 1016 -109 783 600 
Q 550 1309 550 2009 
Q 550 2706 781 3412 
Q 1013 4119 1484 4856 
L 1984 4856 
z
" transform="scale(0.015625)"/>
     <path id="DejaVuSans-47" d="M 3809 666 
L 3809 1919 
L 2778 1919 
L 2778 2438 
L 4434 2438 
L 4434 434 
Q 4069 175 3628 42 
Q 3188 -91 2688 -91 
Q 1594 -91 976 548 
Q 359 1188 359 2328 
Q 359 3472 976 4111 
Q 1594 4750 2688 4750 
Q 3144 4750 3555 4637 
Q 3966 4525 4313 4306 
L 4313 3634 
Q 3963 3931 3569 4081 
Q 3175 4231 2741 4231 
Q 1884 4231 1454 3753 
Q 1025 3275 1025 2328 
Q 1025 1384 1454 906 
Q 1884 428 2741 428 
Q 3075 428 3337 486 
Q 3600 544 3809 666 
z
" transform="scale(0.015625)"/>
     <path id="DejaVuSans-56" d="M 1831 0 
L 50 4666 
L 709 4666 
L 2188 738 
L 3669 4666 
L 4325 4666 
L 2547 0 
L 1831 0 
z
" transform="scale(0.015625)"/>
     <path id="DejaVuSans-29" d="M 513 4856 
L 1013 4856 
Q 1481 4119 1714 3412 
Q 1947 2706 1947 2009 
Q 1947 1309 1714 600 
Q 1481 -109 1013 -844 
L 513 -844 
Q 928 -128 1133 580 
Q 1338 1288 1338 2009 
Q 1338 2731 1133 3434 
Q 928 4138 513 4856 
z
" transform="scale(0.015625)"/>
    </defs>
    <use xlink:href="#DejaVuSans-4d"/>
    <use xlink:href="#DejaVuSans-61" x="86.279297"/>
    <use xlink:href="#DejaVuSans-73" x="147.558594"/>
    <use xlink:href="#DejaVuSans-73" x="199.658203"/>
    <use xlink:href="#DejaVuSans-65" x="251.757812"/>
    <use xlink:href="#DejaVuSans-20" x="313.28125"/>
    <use xlink:href="#DejaVuSans-28" x="345.068359"/>
    <use xlink:href="#DejaVuSans-47" x="384.082031"/>
    <use xlink:href="#DejaVuSans-65" x="461.572266"/>
    <use xlink:href="#DejaVuSans-56" x="523.095703"/>
    <use xlink:href="#DejaVuSans-29" x="591.503906"/>
   </g>
  </g>
  <g id="text_25">
   <!-- N -->
   <g transform="translate(-9.681563 147.740625)rotate(-90)scale(0.1 -0.1)">
    <defs>
     <path id="DejaVuSans-4e" d="M 628 4666 
L 1478 4666 
L 3547 763 
L 3547 4666 
L 4159 4666 
L 4159 0 
L 3309 0 
L 1241 3903 
L 1241 0 
L 628 0 
L 628 4666 
z
" transform="scale(0.015625)"/>
    </defs>
    <use xlink:href="#DejaVuSans-4e"/>
   </g>
  </g>
 </g>
 <defs>
  <clipPath id="p7df49fed76">
   <rect x="22.72524" y="39.57447" width="400.441199" height="93.55428"/>
  </clipPath>
  <clipPath id="p810c4e068b">
   <rect x="22.72524" y="174.767355" width="400.441199" height="93.55428"/>
  </clipPath>
 </defs>
</svg>
