<?xml version="1.0" encoding="utf-8" standalone="no"?>
<!DOCTYPE svg PUBLIC "-//W3C//DTD SVG 1.1//EN"
  "http://www.w3.org/Graphics/SVG/1.1/DTD/svg11.dtd">
<svg xmlns:xlink="http://www.w3.org/1999/xlink" width="432pt" height="288pt" viewBox="0 0 432 288" xmlns="http://www.w3.org/2000/svg" version="1.1">
 <metadata>
  <rdf:RDF xmlns:dc="http://purl.org/dc/elements/1.1/" xmlns:cc="http://creativecommons.org/ns#" xmlns:rdf="http://www.w3.org/1999/02/22-rdf-syntax-ns#">
   <cc:Work>
    <dc:type rdf:resource="http://purl.org/dc/dcmitype/StillImage"/>
    <dc:date>2022-06-22T14:06:22.924102</dc:date>
    <dc:format>image/svg+xml</dc:format>
    <dc:creator>
     <cc:Agent>
      <dc:title>Matplotlib v3.5.0, https://matplotlib.org/</dc:title>
     </cc:Agent>
    </dc:creator>
   </cc:Work>
  </rdf:RDF>
 </metadata>
 <defs>
  <style type="text/css">*{stroke-linejoin: round; stroke-linecap: butt}</style>
 </defs>
 <g id="figure_1">
  <g id="patch_1">
   <path d="M 0 288 
L 432 288 
L 432 0 
L 0 0 
L 0 288 
z
" style="fill: none"/>
  </g>
  <g id="axes_1">
   <g id="patch_2">
    <path d="M 22.72524 88.081955 
L 422.850099 88.081955 
L 422.850099 35.758845 
L 22.72524 35.758845 
z
" style="fill: #ffffff"/>
   </g>
   <g id="patch_3">
    <path d="M 40.912734 88.081955 
L 44.550232 88.081955 
L 44.550232 86.088694 
L 40.912734 86.088694 
z
" clip-path="url(#p56e190625f)" style="fill: #1f77b4"/>
   </g>
   <g id="patch_4">
    <path d="M 44.550232 88.081955 
L 48.187731 88.081955 
L 48.187731 84.095432 
L 44.550232 84.095432 
z
" clip-path="url(#p56e190625f)" style="fill: #1f77b4"/>
   </g>
   <g id="patch_5">
    <path d="M 48.187731 88.081955 
L 51.82523 88.081955 
L 51.82523 86.088694 
L 48.187731 86.088694 
z
" clip-path="url(#p56e190625f)" style="fill: #1f77b4"/>
   </g>
   <g id="patch_6">
    <path d="M 51.82523 88.081955 
L 55.462728 88.081955 
L 55.462728 84.095432 
L 51.82523 84.095432 
z
" clip-path="url(#p56e190625f)" style="fill: #1f77b4"/>
   </g>
   <g id="patch_7">
    <path d="M 55.462728 88.081955 
L 59.100227 88.081955 
L 59.100227 80.10891 
L 55.462728 80.10891 
z
" clip-path="url(#p56e190625f)" style="fill: #1f77b4"/>
   </g>
   <g id="patch_8">
    <path d="M 59.100227 88.081955 
L 62.737726 88.081955 
L 62.737726 86.088694 
L 59.100227 86.088694 
z
" clip-path="url(#p56e190625f)" style="fill: #1f77b4"/>
   </g>
   <g id="patch_9">
    <path d="M 62.737726 88.081955 
L 66.375225 88.081955 
L 66.375225 88.081955 
L 62.737726 88.081955 
z
" clip-path="url(#p56e190625f)" style="fill: #1f77b4"/>
   </g>
   <g id="patch_10">
    <path d="M 66.375225 88.081955 
L 70.012723 88.081955 
L 70.012723 84.095432 
L 66.375225 84.095432 
z
" clip-path="url(#p56e190625f)" style="fill: #1f77b4"/>
   </g>
   <g id="patch_11">
    <path d="M 70.012723 88.081955 
L 73.650222 88.081955 
L 73.650222 84.095432 
L 70.012723 84.095432 
z
" clip-path="url(#p56e190625f)" style="fill: #1f77b4"/>
   </g>
   <g id="patch_12">
    <path d="M 73.650222 88.081955 
L 77.287721 88.081955 
L 77.287721 86.088694 
L 73.650222 86.088694 
z
" clip-path="url(#p56e190625f)" style="fill: #1f77b4"/>
   </g>
   <g id="patch_13">
    <path d="M 77.287721 88.081955 
L 80.925219 88.081955 
L 80.925219 82.102171 
L 77.287721 82.102171 
z
" clip-path="url(#p56e190625f)" style="fill: #1f77b4"/>
   </g>
   <g id="patch_14">
    <path d="M 80.925219 88.081955 
L 84.562718 88.081955 
L 84.562718 84.095432 
L 80.925219 84.095432 
z
" clip-path="url(#p56e190625f)" style="fill: #1f77b4"/>
   </g>
   <g id="patch_15">
    <path d="M 84.562718 88.081955 
L 88.200217 88.081955 
L 88.200217 86.088694 
L 84.562718 86.088694 
z
" clip-path="url(#p56e190625f)" style="fill: #1f77b4"/>
   </g>
   <g id="patch_16">
    <path d="M 88.200217 88.081955 
L 91.837716 88.081955 
L 91.837716 86.088694 
L 88.200217 86.088694 
z
" clip-path="url(#p56e190625f)" style="fill: #1f77b4"/>
   </g>
   <g id="patch_17">
    <path d="M 91.837716 88.081955 
L 95.475214 88.081955 
L 95.475214 78.115648 
L 91.837716 78.115648 
z
" clip-path="url(#p56e190625f)" style="fill: #1f77b4"/>
   </g>
   <g id="patch_18">
    <path d="M 95.475214 88.081955 
L 99.112713 88.081955 
L 99.112713 76.122387 
L 95.475214 76.122387 
z
" clip-path="url(#p56e190625f)" style="fill: #1f77b4"/>
   </g>
   <g id="patch_19">
    <path d="M 99.112713 88.081955 
L 102.750212 88.081955 
L 102.750212 80.10891 
L 99.112713 80.10891 
z
" clip-path="url(#p56e190625f)" style="fill: #1f77b4"/>
   </g>
   <g id="patch_20">
    <path d="M 102.750212 88.081955 
L 106.38771 88.081955 
L 106.38771 82.102171 
L 102.750212 82.102171 
z
" clip-path="url(#p56e190625f)" style="fill: #1f77b4"/>
   </g>
   <g id="patch_21">
    <path d="M 106.38771 88.081955 
L 110.025209 88.081955 
L 110.025209 76.122387 
L 106.38771 76.122387 
z
" clip-path="url(#p56e190625f)" style="fill: #1f77b4"/>
   </g>
   <g id="patch_22">
    <path d="M 110.025209 88.081955 
L 113.662708 88.081955 
L 113.662708 84.095432 
L 110.025209 84.095432 
z
" clip-path="url(#p56e190625f)" style="fill: #1f77b4"/>
   </g>
   <g id="patch_23">
    <path d="M 113.662708 88.081955 
L 117.300207 88.081955 
L 117.300207 82.102171 
L 113.662708 82.102171 
z
" clip-path="url(#p56e190625f)" style="fill: #1f77b4"/>
   </g>
   <g id="patch_24">
    <path d="M 117.300207 88.081955 
L 120.937705 88.081955 
L 120.937705 78.115648 
L 117.300207 78.115648 
z
" clip-path="url(#p56e190625f)" style="fill: #1f77b4"/>
   </g>
   <g id="patch_25">
    <path d="M 120.937705 88.081955 
L 124.575204 88.081955 
L 124.575204 82.102171 
L 120.937705 82.102171 
z
" clip-path="url(#p56e190625f)" style="fill: #1f77b4"/>
   </g>
   <g id="patch_26">
    <path d="M 124.575204 88.081955 
L 128.212703 88.081955 
L 128.212703 70.142603 
L 124.575204 70.142603 
z
" clip-path="url(#p56e190625f)" style="fill: #1f77b4"/>
   </g>
   <g id="patch_27">
    <path d="M 128.212703 88.081955 
L 131.850202 88.081955 
L 131.850202 78.115648 
L 128.212703 78.115648 
z
" clip-path="url(#p56e190625f)" style="fill: #1f77b4"/>
   </g>
   <g id="patch_28">
    <path d="M 131.850202 88.081955 
L 135.4877 88.081955 
L 135.4877 74.129126 
L 131.850202 74.129126 
z
" clip-path="url(#p56e190625f)" style="fill: #1f77b4"/>
   </g>
   <g id="patch_29">
    <path d="M 135.4877 88.081955 
L 139.125199 88.081955 
L 139.125199 70.142603 
L 135.4877 70.142603 
z
" clip-path="url(#p56e190625f)" style="fill: #1f77b4"/>
   </g>
   <g id="patch_30">
    <path d="M 139.125199 88.081955 
L 142.762698 88.081955 
L 142.762698 72.135864 
L 139.125199 72.135864 
z
" clip-path="url(#p56e190625f)" style="fill: #1f77b4"/>
   </g>
   <g id="patch_31">
    <path d="M 142.762698 88.081955 
L 146.400196 88.081955 
L 146.400196 66.15608 
L 142.762698 66.15608 
z
" clip-path="url(#p56e190625f)" style="fill: #1f77b4"/>
   </g>
   <g id="patch_32">
    <path d="M 146.400196 88.081955 
L 150.037695 88.081955 
L 150.037695 78.115648 
L 146.400196 78.115648 
z
" clip-path="url(#p56e190625f)" style="fill: #1f77b4"/>
   </g>
   <g id="patch_33">
    <path d="M 150.037695 88.081955 
L 153.675194 88.081955 
L 153.675194 80.10891 
L 150.037695 80.10891 
z
" clip-path="url(#p56e190625f)" style="fill: #1f77b4"/>
   </g>
   <g id="patch_34">
    <path d="M 153.675194 88.081955 
L 157.312693 88.081955 
L 157.312693 66.15608 
L 153.675194 66.15608 
z
" clip-path="url(#p56e190625f)" style="fill: #1f77b4"/>
   </g>
   <g id="patch_35">
    <path d="M 157.312693 88.081955 
L 160.950191 88.081955 
L 160.950191 68.149342 
L 157.312693 68.149342 
z
" clip-path="url(#p56e190625f)" style="fill: #1f77b4"/>
   </g>
   <g id="patch_36">
    <path d="M 160.950191 88.081955 
L 164.58769 88.081955 
L 164.58769 74.129126 
L 160.950191 74.129126 
z
" clip-path="url(#p56e190625f)" style="fill: #1f77b4"/>
   </g>
   <g id="patch_37">
    <path d="M 164.58769 88.081955 
L 168.225189 88.081955 
L 168.225189 70.142603 
L 164.58769 70.142603 
z
" clip-path="url(#p56e190625f)" style="fill: #1f77b4"/>
   </g>
   <g id="patch_38">
    <path d="M 168.225189 88.081955 
L 171.862687 88.081955 
L 171.862687 64.162819 
L 168.225189 64.162819 
z
" clip-path="url(#p56e190625f)" style="fill: #1f77b4"/>
   </g>
   <g id="patch_39">
    <path d="M 171.862687 88.081955 
L 175.500186 88.081955 
L 175.500186 58.183035 
L 171.862687 58.183035 
z
" clip-path="url(#p56e190625f)" style="fill: #1f77b4"/>
   </g>
   <g id="patch_40">
    <path d="M 175.500186 88.081955 
L 179.137685 88.081955 
L 179.137685 78.115648 
L 175.500186 78.115648 
z
" clip-path="url(#p56e190625f)" style="fill: #1f77b4"/>
   </g>
   <g id="patch_41">
    <path d="M 179.137685 88.081955 
L 182.775184 88.081955 
L 182.775184 64.162819 
L 179.137685 64.162819 
z
" clip-path="url(#p56e190625f)" style="fill: #1f77b4"/>
   </g>
   <g id="patch_42">
    <path d="M 182.775184 88.081955 
L 186.412682 88.081955 
L 186.412682 68.149342 
L 182.775184 68.149342 
z
" clip-path="url(#p56e190625f)" style="fill: #1f77b4"/>
   </g>
   <g id="patch_43">
    <path d="M 186.412682 88.081955 
L 190.050181 88.081955 
L 190.050181 74.129126 
L 186.412682 74.129126 
z
" clip-path="url(#p56e190625f)" style="fill: #1f77b4"/>
   </g>
   <g id="patch_44">
    <path d="M 190.050181 88.081955 
L 193.68768 88.081955 
L 193.68768 64.162819 
L 190.050181 64.162819 
z
" clip-path="url(#p56e190625f)" style="fill: #1f77b4"/>
   </g>
   <g id="patch_45">
    <path d="M 193.68768 88.081955 
L 197.325178 88.081955 
L 197.325178 66.15608 
L 193.68768 66.15608 
z
" clip-path="url(#p56e190625f)" style="fill: #1f77b4"/>
   </g>
   <g id="patch_46">
    <path d="M 197.325178 88.081955 
L 200.962677 88.081955 
L 200.962677 72.135864 
L 197.325178 72.135864 
z
" clip-path="url(#p56e190625f)" style="fill: #1f77b4"/>
   </g>
   <g id="patch_47">
    <path d="M 200.962677 88.081955 
L 204.600176 88.081955 
L 204.600176 58.183035 
L 200.962677 58.183035 
z
" clip-path="url(#p56e190625f)" style="fill: #1f77b4"/>
   </g>
   <g id="patch_48">
    <path d="M 204.600176 88.081955 
L 208.237675 88.081955 
L 208.237675 76.122387 
L 204.600176 76.122387 
z
" clip-path="url(#p56e190625f)" style="fill: #1f77b4"/>
   </g>
   <g id="patch_49">
    <path d="M 208.237675 88.081955 
L 211.875173 88.081955 
L 211.875173 58.183035 
L 208.237675 58.183035 
z
" clip-path="url(#p56e190625f)" style="fill: #1f77b4"/>
   </g>
   <g id="patch_50">
    <path d="M 211.875173 88.081955 
L 215.512672 88.081955 
L 215.512672 66.15608 
L 211.875173 66.15608 
z
" clip-path="url(#p56e190625f)" style="fill: #1f77b4"/>
   </g>
   <g id="patch_51">
    <path d="M 215.512672 88.081955 
L 219.150171 88.081955 
L 219.150171 72.135864 
L 215.512672 72.135864 
z
" clip-path="url(#p56e190625f)" style="fill: #1f77b4"/>
   </g>
   <g id="patch_52">
    <path d="M 219.150171 88.081955 
L 222.787669 88.081955 
L 222.787669 54.196512 
L 219.150171 54.196512 
z
" clip-path="url(#p56e190625f)" style="fill: #1f77b4"/>
   </g>
   <g id="patch_53">
    <path d="M 222.787669 88.081955 
L 226.425168 88.081955 
L 226.425168 78.115648 
L 222.787669 78.115648 
z
" clip-path="url(#p56e190625f)" style="fill: #1f77b4"/>
   </g>
   <g id="patch_54">
    <path d="M 226.425168 88.081955 
L 230.062667 88.081955 
L 230.062667 70.142603 
L 226.425168 70.142603 
z
" clip-path="url(#p56e190625f)" style="fill: #1f77b4"/>
   </g>
   <g id="patch_55">
    <path d="M 230.062667 88.081955 
L 233.700166 88.081955 
L 233.700166 74.129126 
L 230.062667 74.129126 
z
" clip-path="url(#p56e190625f)" style="fill: #1f77b4"/>
   </g>
   <g id="patch_56">
    <path d="M 233.700166 88.081955 
L 237.337664 88.081955 
L 237.337664 68.149342 
L 233.700166 68.149342 
z
" clip-path="url(#p56e190625f)" style="fill: #1f77b4"/>
   </g>
   <g id="patch_57">
    <path d="M 237.337664 88.081955 
L 240.975163 88.081955 
L 240.975163 74.129126 
L 237.337664 74.129126 
z
" clip-path="url(#p56e190625f)" style="fill: #1f77b4"/>
   </g>
   <g id="patch_58">
    <path d="M 240.975163 88.081955 
L 244.612662 88.081955 
L 244.612662 80.10891 
L 240.975163 80.10891 
z
" clip-path="url(#p56e190625f)" style="fill: #1f77b4"/>
   </g>
   <g id="patch_59">
    <path d="M 244.612662 88.081955 
L 248.25016 88.081955 
L 248.25016 68.149342 
L 244.612662 68.149342 
z
" clip-path="url(#p56e190625f)" style="fill: #1f77b4"/>
   </g>
   <g id="patch_60">
    <path d="M 248.25016 88.081955 
L 251.887659 88.081955 
L 251.887659 64.162819 
L 248.25016 64.162819 
z
" clip-path="url(#p56e190625f)" style="fill: #1f77b4"/>
   </g>
   <g id="patch_61">
    <path d="M 251.887659 88.081955 
L 255.525158 88.081955 
L 255.525158 66.15608 
L 251.887659 66.15608 
z
" clip-path="url(#p56e190625f)" style="fill: #1f77b4"/>
   </g>
   <g id="patch_62">
    <path d="M 255.525158 88.081955 
L 259.162657 88.081955 
L 259.162657 80.10891 
L 255.525158 80.10891 
z
" clip-path="url(#p56e190625f)" style="fill: #1f77b4"/>
   </g>
   <g id="patch_63">
    <path d="M 259.162657 88.081955 
L 262.800155 88.081955 
L 262.800155 74.129126 
L 259.162657 74.129126 
z
" clip-path="url(#p56e190625f)" style="fill: #1f77b4"/>
   </g>
   <g id="patch_64">
    <path d="M 262.800155 88.081955 
L 266.437654 88.081955 
L 266.437654 64.162819 
L 262.800155 64.162819 
z
" clip-path="url(#p56e190625f)" style="fill: #1f77b4"/>
   </g>
   <g id="patch_65">
    <path d="M 266.437654 88.081955 
L 270.075153 88.081955 
L 270.075153 70.142603 
L 266.437654 70.142603 
z
" clip-path="url(#p56e190625f)" style="fill: #1f77b4"/>
   </g>
   <g id="patch_66">
    <path d="M 270.075153 88.081955 
L 273.712651 88.081955 
L 273.712651 68.149342 
L 270.075153 68.149342 
z
" clip-path="url(#p56e190625f)" style="fill: #1f77b4"/>
   </g>
   <g id="patch_67">
    <path d="M 273.712651 88.081955 
L 277.35015 88.081955 
L 277.35015 72.135864 
L 273.712651 72.135864 
z
" clip-path="url(#p56e190625f)" style="fill: #1f77b4"/>
   </g>
   <g id="patch_68">
    <path d="M 277.35015 88.081955 
L 280.987649 88.081955 
L 280.987649 68.149342 
L 277.35015 68.149342 
z
" clip-path="url(#p56e190625f)" style="fill: #1f77b4"/>
   </g>
   <g id="patch_69">
    <path d="M 280.987649 88.081955 
L 284.625148 88.081955 
L 284.625148 78.115648 
L 280.987649 78.115648 
z
" clip-path="url(#p56e190625f)" style="fill: #1f77b4"/>
   </g>
   <g id="patch_70">
    <path d="M 284.625148 88.081955 
L 288.262646 88.081955 
L 288.262646 80.10891 
L 284.625148 80.10891 
z
" clip-path="url(#p56e190625f)" style="fill: #1f77b4"/>
   </g>
   <g id="patch_71">
    <path d="M 288.262646 88.081955 
L 291.900145 88.081955 
L 291.900145 74.129126 
L 288.262646 74.129126 
z
" clip-path="url(#p56e190625f)" style="fill: #1f77b4"/>
   </g>
   <g id="patch_72">
    <path d="M 291.900145 88.081955 
L 295.537644 88.081955 
L 295.537644 76.122387 
L 291.900145 76.122387 
z
" clip-path="url(#p56e190625f)" style="fill: #1f77b4"/>
   </g>
   <g id="patch_73">
    <path d="M 295.537644 88.081955 
L 299.175143 88.081955 
L 299.175143 72.135864 
L 295.537644 72.135864 
z
" clip-path="url(#p56e190625f)" style="fill: #1f77b4"/>
   </g>
   <g id="patch_74">
    <path d="M 299.175143 88.081955 
L 302.812641 88.081955 
L 302.812641 66.15608 
L 299.175143 66.15608 
z
" clip-path="url(#p56e190625f)" style="fill: #1f77b4"/>
   </g>
   <g id="patch_75">
    <path d="M 302.812641 88.081955 
L 306.45014 88.081955 
L 306.45014 76.122387 
L 302.812641 76.122387 
z
" clip-path="url(#p56e190625f)" style="fill: #1f77b4"/>
   </g>
   <g id="patch_76">
    <path d="M 306.45014 88.081955 
L 310.087639 88.081955 
L 310.087639 78.115648 
L 306.45014 78.115648 
z
" clip-path="url(#p56e190625f)" style="fill: #1f77b4"/>
   </g>
   <g id="patch_77">
    <path d="M 310.087639 88.081955 
L 313.725137 88.081955 
L 313.725137 80.10891 
L 310.087639 80.10891 
z
" clip-path="url(#p56e190625f)" style="fill: #1f77b4"/>
   </g>
   <g id="patch_78">
    <path d="M 313.725137 88.081955 
L 317.362636 88.081955 
L 317.362636 76.122387 
L 313.725137 76.122387 
z
" clip-path="url(#p56e190625f)" style="fill: #1f77b4"/>
   </g>
   <g id="patch_79">
    <path d="M 317.362636 88.081955 
L 321.000135 88.081955 
L 321.000135 86.088694 
L 317.362636 86.088694 
z
" clip-path="url(#p56e190625f)" style="fill: #1f77b4"/>
   </g>
   <g id="patch_80">
    <path d="M 321.000135 88.081955 
L 324.637634 88.081955 
L 324.637634 84.095432 
L 321.000135 84.095432 
z
" clip-path="url(#p56e190625f)" style="fill: #1f77b4"/>
   </g>
   <g id="patch_81">
    <path d="M 324.637634 88.081955 
L 328.275132 88.081955 
L 328.275132 76.122387 
L 324.637634 76.122387 
z
" clip-path="url(#p56e190625f)" style="fill: #1f77b4"/>
   </g>
   <g id="patch_82">
    <path d="M 328.275132 88.081955 
L 331.912631 88.081955 
L 331.912631 70.142603 
L 328.275132 70.142603 
z
" clip-path="url(#p56e190625f)" style="fill: #1f77b4"/>
   </g>
   <g id="patch_83">
    <path d="M 331.912631 88.081955 
L 335.55013 88.081955 
L 335.55013 80.10891 
L 331.912631 80.10891 
z
" clip-path="url(#p56e190625f)" style="fill: #1f77b4"/>
   </g>
   <g id="patch_84">
    <path d="M 335.55013 88.081955 
L 339.187628 88.081955 
L 339.187628 70.142603 
L 335.55013 70.142603 
z
" clip-path="url(#p56e190625f)" style="fill: #1f77b4"/>
   </g>
   <g id="patch_85">
    <path d="M 339.187628 88.081955 
L 342.825127 88.081955 
L 342.825127 76.122387 
L 339.187628 76.122387 
z
" clip-path="url(#p56e190625f)" style="fill: #1f77b4"/>
   </g>
   <g id="patch_86">
    <path d="M 342.825127 88.081955 
L 346.462626 88.081955 
L 346.462626 82.102171 
L 342.825127 82.102171 
z
" clip-path="url(#p56e190625f)" style="fill: #1f77b4"/>
   </g>
   <g id="patch_87">
    <path d="M 346.462626 88.081955 
L 350.100125 88.081955 
L 350.100125 78.115648 
L 346.462626 78.115648 
z
" clip-path="url(#p56e190625f)" style="fill: #1f77b4"/>
   </g>
   <g id="patch_88">
    <path d="M 350.100125 88.081955 
L 353.737623 88.081955 
L 353.737623 82.102171 
L 350.100125 82.102171 
z
" clip-path="url(#p56e190625f)" style="fill: #1f77b4"/>
   </g>
   <g id="patch_89">
    <path d="M 353.737623 88.081955 
L 357.375122 88.081955 
L 357.375122 82.102171 
L 353.737623 82.102171 
z
" clip-path="url(#p56e190625f)" style="fill: #1f77b4"/>
   </g>
   <g id="patch_90">
    <path d="M 357.375122 88.081955 
L 361.012621 88.081955 
L 361.012621 84.095432 
L 357.375122 84.095432 
z
" clip-path="url(#p56e190625f)" style="fill: #1f77b4"/>
   </g>
   <g id="patch_91">
    <path d="M 361.012621 88.081955 
L 364.650119 88.081955 
L 364.650119 86.088694 
L 361.012621 86.088694 
z
" clip-path="url(#p56e190625f)" style="fill: #1f77b4"/>
   </g>
   <g id="patch_92">
    <path d="M 364.650119 88.081955 
L 368.287618 88.081955 
L 368.287618 84.095432 
L 364.650119 84.095432 
z
" clip-path="url(#p56e190625f)" style="fill: #1f77b4"/>
   </g>
   <g id="patch_93">
    <path d="M 368.287618 88.081955 
L 371.925117 88.081955 
L 371.925117 80.10891 
L 368.287618 80.10891 
z
" clip-path="url(#p56e190625f)" style="fill: #1f77b4"/>
   </g>
   <g id="patch_94">
    <path d="M 371.925117 88.081955 
L 375.562616 88.081955 
L 375.562616 86.088694 
L 371.925117 86.088694 
z
" clip-path="url(#p56e190625f)" style="fill: #1f77b4"/>
   </g>
   <g id="patch_95">
    <path d="M 375.562616 88.081955 
L 379.200114 88.081955 
L 379.200114 84.095432 
L 375.562616 84.095432 
z
" clip-path="url(#p56e190625f)" style="fill: #1f77b4"/>
   </g>
   <g id="patch_96">
    <path d="M 379.200114 88.081955 
L 382.837613 88.081955 
L 382.837613 86.088694 
L 379.200114 86.088694 
z
" clip-path="url(#p56e190625f)" style="fill: #1f77b4"/>
   </g>
   <g id="patch_97">
    <path d="M 382.837613 88.081955 
L 386.475112 88.081955 
L 386.475112 84.095432 
L 382.837613 84.095432 
z
" clip-path="url(#p56e190625f)" style="fill: #1f77b4"/>
   </g>
   <g id="patch_98">
    <path d="M 386.475112 88.081955 
L 390.11261 88.081955 
L 390.11261 78.115648 
L 386.475112 78.115648 
z
" clip-path="url(#p56e190625f)" style="fill: #1f77b4"/>
   </g>
   <g id="patch_99">
    <path d="M 390.11261 88.081955 
L 393.750109 88.081955 
L 393.750109 86.088694 
L 390.11261 86.088694 
z
" clip-path="url(#p56e190625f)" style="fill: #1f77b4"/>
   </g>
   <g id="patch_100">
    <path d="M 393.750109 88.081955 
L 397.387608 88.081955 
L 397.387608 88.081955 
L 393.750109 88.081955 
z
" clip-path="url(#p56e190625f)" style="fill: #1f77b4"/>
   </g>
   <g id="patch_101">
    <path d="M 397.387608 88.081955 
L 401.025107 88.081955 
L 401.025107 86.088694 
L 397.387608 86.088694 
z
" clip-path="url(#p56e190625f)" style="fill: #1f77b4"/>
   </g>
   <g id="patch_102">
    <path d="M 401.025107 88.081955 
L 404.662605 88.081955 
L 404.662605 86.088694 
L 401.025107 86.088694 
z
" clip-path="url(#p56e190625f)" style="fill: #1f77b4"/>
   </g>
   <g id="matplotlib.axis_1">
    <g id="xtick_1">
     <g id="line2d_1">
      <defs>
       <path id="mcf79326066" d="M 0 0 
L 0 3.5 
" style="stroke: #000000; stroke-width: 0.8"/>
      </defs>
      <g>
       <use xlink:href="#mcf79326066" x="78.697531" y="88.081955" style="stroke: #000000; stroke-width: 0.8"/>
      </g>
     </g>
     <g id="text_1">
      <!-- 500 -->
      <g transform="translate(69.153781 102.680393)scale(0.1 -0.1)">
       <defs>
        <path id="DejaVuSans-35" d="M 691 4666 
L 3169 4666 
L 3169 4134 
L 1269 4134 
L 1269 2991 
Q 1406 3038 1543 3061 
Q 1681 3084 1819 3084 
Q 2600 3084 3056 2656 
Q 3513 2228 3513 1497 
Q 3513 744 3044 326 
Q 2575 -91 1722 -91 
Q 1428 -91 1123 -41 
Q 819 9 494 109 
L 494 744 
Q 775 591 1075 516 
Q 1375 441 1709 441 
Q 2250 441 2565 725 
Q 2881 1009 2881 1497 
Q 2881 1984 2565 2268 
Q 2250 2553 1709 2553 
Q 1456 2553 1204 2497 
Q 953 2441 691 2322 
L 691 4666 
z
" transform="scale(0.015625)"/>
        <path id="DejaVuSans-30" d="M 2034 4250 
Q 1547 4250 1301 3770 
Q 1056 3291 1056 2328 
Q 1056 1369 1301 889 
Q 1547 409 2034 409 
Q 2525 409 2770 889 
Q 3016 1369 3016 2328 
Q 3016 3291 2770 3770 
Q 2525 4250 2034 4250 
z
M 2034 4750 
Q 2819 4750 3233 4129 
Q 3647 3509 3647 2328 
Q 3647 1150 3233 529 
Q 2819 -91 2034 -91 
Q 1250 -91 836 529 
Q 422 1150 422 2328 
Q 422 3509 836 4129 
Q 1250 4750 2034 4750 
z
" transform="scale(0.015625)"/>
       </defs>
       <use xlink:href="#DejaVuSans-35"/>
       <use xlink:href="#DejaVuSans-30" x="63.623047"/>
       <use xlink:href="#DejaVuSans-30" x="127.246094"/>
      </g>
     </g>
    </g>
    <g id="xtick_2">
     <g id="line2d_2">
      <g>
       <use xlink:href="#mcf79326066" x="143.346526" y="88.081955" style="stroke: #000000; stroke-width: 0.8"/>
      </g>
     </g>
     <g id="text_2">
      <!-- 1000 -->
      <g transform="translate(130.621526 102.680393)scale(0.1 -0.1)">
       <defs>
        <path id="DejaVuSans-31" d="M 794 531 
L 1825 531 
L 1825 4091 
L 703 3866 
L 703 4441 
L 1819 4666 
L 2450 4666 
L 2450 531 
L 3481 531 
L 3481 0 
L 794 0 
L 794 531 
z
" transform="scale(0.015625)"/>
       </defs>
       <use xlink:href="#DejaVuSans-31"/>
       <use xlink:href="#DejaVuSans-30" x="63.623047"/>
       <use xlink:href="#DejaVuSans-30" x="127.246094"/>
       <use xlink:href="#DejaVuSans-30" x="190.869141"/>
      </g>
     </g>
    </g>
    <g id="xtick_3">
     <g id="line2d_3">
      <g>
       <use xlink:href="#mcf79326066" x="207.99552" y="88.081955" style="stroke: #000000; stroke-width: 0.8"/>
      </g>
     </g>
     <g id="text_3">
      <!-- 1500 -->
      <g transform="translate(195.27052 102.680393)scale(0.1 -0.1)">
       <use xlink:href="#DejaVuSans-31"/>
       <use xlink:href="#DejaVuSans-35" x="63.623047"/>
       <use xlink:href="#DejaVuSans-30" x="127.246094"/>
       <use xlink:href="#DejaVuSans-30" x="190.869141"/>
      </g>
     </g>
    </g>
    <g id="xtick_4">
     <g id="line2d_4">
      <g>
       <use xlink:href="#mcf79326066" x="272.644515" y="88.081955" style="stroke: #000000; stroke-width: 0.8"/>
      </g>
     </g>
     <g id="text_4">
      <!-- 2000 -->
      <g transform="translate(259.919515 102.680393)scale(0.1 -0.1)">
       <defs>
        <path id="DejaVuSans-32" d="M 1228 531 
L 3431 531 
L 3431 0 
L 469 0 
L 469 531 
Q 828 903 1448 1529 
Q 2069 2156 2228 2338 
Q 2531 2678 2651 2914 
Q 2772 3150 2772 3378 
Q 2772 3750 2511 3984 
Q 2250 4219 1831 4219 
Q 1534 4219 1204 4116 
Q 875 4013 500 3803 
L 500 4441 
Q 881 4594 1212 4672 
Q 1544 4750 1819 4750 
Q 2544 4750 2975 4387 
Q 3406 4025 3406 3419 
Q 3406 3131 3298 2873 
Q 3191 2616 2906 2266 
Q 2828 2175 2409 1742 
Q 1991 1309 1228 531 
z
" transform="scale(0.015625)"/>
       </defs>
       <use xlink:href="#DejaVuSans-32"/>
       <use xlink:href="#DejaVuSans-30" x="63.623047"/>
       <use xlink:href="#DejaVuSans-30" x="127.246094"/>
       <use xlink:href="#DejaVuSans-30" x="190.869141"/>
      </g>
     </g>
    </g>
    <g id="xtick_5">
     <g id="line2d_5">
      <g>
       <use xlink:href="#mcf79326066" x="337.293509" y="88.081955" style="stroke: #000000; stroke-width: 0.8"/>
      </g>
     </g>
     <g id="text_5">
      <!-- 2500 -->
      <g transform="translate(324.568509 102.680393)scale(0.1 -0.1)">
       <use xlink:href="#DejaVuSans-32"/>
       <use xlink:href="#DejaVuSans-35" x="63.623047"/>
       <use xlink:href="#DejaVuSans-30" x="127.246094"/>
       <use xlink:href="#DejaVuSans-30" x="190.869141"/>
      </g>
     </g>
    </g>
    <g id="xtick_6">
     <g id="line2d_6">
      <g>
       <use xlink:href="#mcf79326066" x="401.942504" y="88.081955" style="stroke: #000000; stroke-width: 0.8"/>
      </g>
     </g>
     <g id="text_6">
      <!-- 3000 -->
      <g transform="translate(389.217504 102.680393)scale(0.1 -0.1)">
       <defs>
        <path id="DejaVuSans-33" d="M 2597 2516 
Q 3050 2419 3304 2112 
Q 3559 1806 3559 1356 
Q 3559 666 3084 287 
Q 2609 -91 1734 -91 
Q 1441 -91 1130 -33 
Q 819 25 488 141 
L 488 750 
Q 750 597 1062 519 
Q 1375 441 1716 441 
Q 2309 441 2620 675 
Q 2931 909 2931 1356 
Q 2931 1769 2642 2001 
Q 2353 2234 1838 2234 
L 1294 2234 
L 1294 2753 
L 1863 2753 
Q 2328 2753 2575 2939 
Q 2822 3125 2822 3475 
Q 2822 3834 2567 4026 
Q 2313 4219 1838 4219 
Q 1578 4219 1281 4162 
Q 984 4106 628 3988 
L 628 4550 
Q 988 4650 1302 4700 
Q 1616 4750 1894 4750 
Q 2613 4750 3031 4423 
Q 3450 4097 3450 3541 
Q 3450 3153 3228 2886 
Q 3006 2619 2597 2516 
z
" transform="scale(0.015625)"/>
       </defs>
       <use xlink:href="#DejaVuSans-33"/>
       <use xlink:href="#DejaVuSans-30" x="63.623047"/>
       <use xlink:href="#DejaVuSans-30" x="127.246094"/>
       <use xlink:href="#DejaVuSans-30" x="190.869141"/>
      </g>
     </g>
    </g>
   </g>
   <g id="matplotlib.axis_2">
    <g id="ytick_1">
     <g id="line2d_7">
      <defs>
       <path id="m9136297e03" d="M 0 0 
L -3.5 0 
" style="stroke: #000000; stroke-width: 0.8"/>
      </defs>
      <g>
       <use xlink:href="#m9136297e03" x="22.72524" y="88.081955" style="stroke: #000000; stroke-width: 0.8"/>
      </g>
     </g>
     <g id="text_7">
      <!-- 0 -->
      <g transform="translate(9.36274 91.881174)scale(0.1 -0.1)">
       <use xlink:href="#DejaVuSans-30"/>
      </g>
     </g>
    </g>
    <g id="ytick_2">
     <g id="line2d_8">
      <g>
       <use xlink:href="#m9136297e03" x="22.72524" y="48.216728" style="stroke: #000000; stroke-width: 0.8"/>
      </g>
     </g>
     <g id="text_8">
      <!-- 20 -->
      <g transform="translate(3.00024 52.015947)scale(0.1 -0.1)">
       <use xlink:href="#DejaVuSans-32"/>
       <use xlink:href="#DejaVuSans-30" x="63.623047"/>
      </g>
     </g>
    </g>
   </g>
   <g id="patch_103">
    <path d="M 22.72524 88.081955 
L 22.72524 35.758845 
" style="fill: none; stroke: #000000; stroke-width: 0.8; stroke-linejoin: miter; stroke-linecap: square"/>
   </g>
   <g id="patch_104">
    <path d="M 422.850099 88.081955 
L 422.850099 35.758845 
" style="fill: none; stroke: #000000; stroke-width: 0.8; stroke-linejoin: miter; stroke-linecap: square"/>
   </g>
   <g id="patch_105">
    <path d="M 22.72524 88.081955 
L 422.850099 88.081955 
" style="fill: none; stroke: #000000; stroke-width: 0.8; stroke-linejoin: miter; stroke-linecap: square"/>
   </g>
   <g id="patch_106">
    <path d="M 22.72524 35.758845 
L 422.850099 35.758845 
" style="fill: none; stroke: #000000; stroke-width: 0.8; stroke-linejoin: miter; stroke-linecap: square"/>
   </g>
   <g id="text_9">
    <!-- $\nu_1$ -->
    <g transform="translate(216.547669 29.758845)scale(0.12 -0.12)">
     <defs>
      <path id="DejaVuSans-Oblique-3bd" d="M 959 0 
L 572 3500 
L 1191 3500 
L 1522 563 
Q 1972 950 2391 1488 
Q 2706 1891 2788 2241 
Q 2825 2406 2809 2719 
Q 2794 3091 2544 3500 
L 3125 3500 
L 3125 3500 
Q 3288 3222 3353 2834 
Q 3416 2478 3369 2234 
Q 3250 1622 2719 1075 
Q 2025 363 1572 0 
L 959 0 
z
" transform="scale(0.015625)"/>
     </defs>
     <use xlink:href="#DejaVuSans-Oblique-3bd" transform="translate(0 0.3125)"/>
     <use xlink:href="#DejaVuSans-31" transform="translate(55.859375 -16.09375)scale(0.7)"/>
    </g>
   </g>
  </g>
  <g id="axes_2">
   <g id="patch_107">
    <path d="M 22.72524 178.201795 
L 422.850099 178.201795 
L 422.850099 125.878685 
L 22.72524 125.878685 
z
" style="fill: #ffffff"/>
   </g>
   <g id="patch_108">
    <path d="M 40.912734 178.201795 
L 44.550232 178.201795 
L 44.550232 176.208534 
L 40.912734 176.208534 
z
" clip-path="url(#p25495b91a8)" style="fill: #1f77b4"/>
   </g>
   <g id="patch_109">
    <path d="M 44.550232 178.201795 
L 48.187731 178.201795 
L 48.187731 178.201795 
L 44.550232 178.201795 
z
" clip-path="url(#p25495b91a8)" style="fill: #1f77b4"/>
   </g>
   <g id="patch_110">
    <path d="M 48.187731 178.201795 
L 51.82523 178.201795 
L 51.82523 178.201795 
L 48.187731 178.201795 
z
" clip-path="url(#p25495b91a8)" style="fill: #1f77b4"/>
   </g>
   <g id="patch_111">
    <path d="M 51.82523 178.201795 
L 55.462728 178.201795 
L 55.462728 178.201795 
L 51.82523 178.201795 
z
" clip-path="url(#p25495b91a8)" style="fill: #1f77b4"/>
   </g>
   <g id="patch_112">
    <path d="M 55.462728 178.201795 
L 59.100227 178.201795 
L 59.100227 178.201795 
L 55.462728 178.201795 
z
" clip-path="url(#p25495b91a8)" style="fill: #1f77b4"/>
   </g>
   <g id="patch_113">
    <path d="M 59.100227 178.201795 
L 62.737726 178.201795 
L 62.737726 174.215272 
L 59.100227 174.215272 
z
" clip-path="url(#p25495b91a8)" style="fill: #1f77b4"/>
   </g>
   <g id="patch_114">
    <path d="M 62.737726 178.201795 
L 66.375225 178.201795 
L 66.375225 178.201795 
L 62.737726 178.201795 
z
" clip-path="url(#p25495b91a8)" style="fill: #1f77b4"/>
   </g>
   <g id="patch_115">
    <path d="M 66.375225 178.201795 
L 70.012723 178.201795 
L 70.012723 176.208534 
L 66.375225 176.208534 
z
" clip-path="url(#p25495b91a8)" style="fill: #1f77b4"/>
   </g>
   <g id="patch_116">
    <path d="M 70.012723 178.201795 
L 73.650222 178.201795 
L 73.650222 176.208534 
L 70.012723 176.208534 
z
" clip-path="url(#p25495b91a8)" style="fill: #1f77b4"/>
   </g>
   <g id="patch_117">
    <path d="M 73.650222 178.201795 
L 77.287721 178.201795 
L 77.287721 178.201795 
L 73.650222 178.201795 
z
" clip-path="url(#p25495b91a8)" style="fill: #1f77b4"/>
   </g>
   <g id="patch_118">
    <path d="M 77.287721 178.201795 
L 80.925219 178.201795 
L 80.925219 176.208534 
L 77.287721 176.208534 
z
" clip-path="url(#p25495b91a8)" style="fill: #1f77b4"/>
   </g>
   <g id="patch_119">
    <path d="M 80.925219 178.201795 
L 84.562718 178.201795 
L 84.562718 176.208534 
L 80.925219 176.208534 
z
" clip-path="url(#p25495b91a8)" style="fill: #1f77b4"/>
   </g>
   <g id="patch_120">
    <path d="M 84.562718 178.201795 
L 88.200217 178.201795 
L 88.200217 178.201795 
L 84.562718 178.201795 
z
" clip-path="url(#p25495b91a8)" style="fill: #1f77b4"/>
   </g>
   <g id="patch_121">
    <path d="M 88.200217 178.201795 
L 91.837716 178.201795 
L 91.837716 178.201795 
L 88.200217 178.201795 
z
" clip-path="url(#p25495b91a8)" style="fill: #1f77b4"/>
   </g>
   <g id="patch_122">
    <path d="M 91.837716 178.201795 
L 95.475214 178.201795 
L 95.475214 178.201795 
L 91.837716 178.201795 
z
" clip-path="url(#p25495b91a8)" style="fill: #1f77b4"/>
   </g>
   <g id="patch_123">
    <path d="M 95.475214 178.201795 
L 99.112713 178.201795 
L 99.112713 176.208534 
L 95.475214 176.208534 
z
" clip-path="url(#p25495b91a8)" style="fill: #1f77b4"/>
   </g>
   <g id="patch_124">
    <path d="M 99.112713 178.201795 
L 102.750212 178.201795 
L 102.750212 176.208534 
L 99.112713 176.208534 
z
" clip-path="url(#p25495b91a8)" style="fill: #1f77b4"/>
   </g>
   <g id="patch_125">
    <path d="M 102.750212 178.201795 
L 106.38771 178.201795 
L 106.38771 178.201795 
L 102.750212 178.201795 
z
" clip-path="url(#p25495b91a8)" style="fill: #1f77b4"/>
   </g>
   <g id="patch_126">
    <path d="M 106.38771 178.201795 
L 110.025209 178.201795 
L 110.025209 178.201795 
L 106.38771 178.201795 
z
" clip-path="url(#p25495b91a8)" style="fill: #1f77b4"/>
   </g>
   <g id="patch_127">
    <path d="M 110.025209 178.201795 
L 113.662708 178.201795 
L 113.662708 176.208534 
L 110.025209 176.208534 
z
" clip-path="url(#p25495b91a8)" style="fill: #1f77b4"/>
   </g>
   <g id="patch_128">
    <path d="M 113.662708 178.201795 
L 117.300207 178.201795 
L 117.300207 170.22875 
L 113.662708 170.22875 
z
" clip-path="url(#p25495b91a8)" style="fill: #1f77b4"/>
   </g>
   <g id="patch_129">
    <path d="M 117.300207 178.201795 
L 120.937705 178.201795 
L 120.937705 174.215272 
L 117.300207 174.215272 
z
" clip-path="url(#p25495b91a8)" style="fill: #1f77b4"/>
   </g>
   <g id="patch_130">
    <path d="M 120.937705 178.201795 
L 124.575204 178.201795 
L 124.575204 178.201795 
L 120.937705 178.201795 
z
" clip-path="url(#p25495b91a8)" style="fill: #1f77b4"/>
   </g>
   <g id="patch_131">
    <path d="M 124.575204 178.201795 
L 128.212703 178.201795 
L 128.212703 170.22875 
L 124.575204 170.22875 
z
" clip-path="url(#p25495b91a8)" style="fill: #1f77b4"/>
   </g>
   <g id="patch_132">
    <path d="M 128.212703 178.201795 
L 131.850202 178.201795 
L 131.850202 174.215272 
L 128.212703 174.215272 
z
" clip-path="url(#p25495b91a8)" style="fill: #1f77b4"/>
   </g>
   <g id="patch_133">
    <path d="M 131.850202 178.201795 
L 135.4877 178.201795 
L 135.4877 170.22875 
L 131.850202 170.22875 
z
" clip-path="url(#p25495b91a8)" style="fill: #1f77b4"/>
   </g>
   <g id="patch_134">
    <path d="M 135.4877 178.201795 
L 139.125199 178.201795 
L 139.125199 178.201795 
L 135.4877 178.201795 
z
" clip-path="url(#p25495b91a8)" style="fill: #1f77b4"/>
   </g>
   <g id="patch_135">
    <path d="M 139.125199 178.201795 
L 142.762698 178.201795 
L 142.762698 168.235488 
L 139.125199 168.235488 
z
" clip-path="url(#p25495b91a8)" style="fill: #1f77b4"/>
   </g>
   <g id="patch_136">
    <path d="M 142.762698 178.201795 
L 146.400196 178.201795 
L 146.400196 172.222011 
L 142.762698 172.222011 
z
" clip-path="url(#p25495b91a8)" style="fill: #1f77b4"/>
   </g>
   <g id="patch_137">
    <path d="M 146.400196 178.201795 
L 150.037695 178.201795 
L 150.037695 172.222011 
L 146.400196 172.222011 
z
" clip-path="url(#p25495b91a8)" style="fill: #1f77b4"/>
   </g>
   <g id="patch_138">
    <path d="M 150.037695 178.201795 
L 153.675194 178.201795 
L 153.675194 170.22875 
L 150.037695 170.22875 
z
" clip-path="url(#p25495b91a8)" style="fill: #1f77b4"/>
   </g>
   <g id="patch_139">
    <path d="M 153.675194 178.201795 
L 157.312693 178.201795 
L 157.312693 174.215272 
L 153.675194 174.215272 
z
" clip-path="url(#p25495b91a8)" style="fill: #1f77b4"/>
   </g>
   <g id="patch_140">
    <path d="M 157.312693 178.201795 
L 160.950191 178.201795 
L 160.950191 172.222011 
L 157.312693 172.222011 
z
" clip-path="url(#p25495b91a8)" style="fill: #1f77b4"/>
   </g>
   <g id="patch_141">
    <path d="M 160.950191 178.201795 
L 164.58769 178.201795 
L 164.58769 176.208534 
L 160.950191 176.208534 
z
" clip-path="url(#p25495b91a8)" style="fill: #1f77b4"/>
   </g>
   <g id="patch_142">
    <path d="M 164.58769 178.201795 
L 168.225189 178.201795 
L 168.225189 178.201795 
L 164.58769 178.201795 
z
" clip-path="url(#p25495b91a8)" style="fill: #1f77b4"/>
   </g>
   <g id="patch_143">
    <path d="M 168.225189 178.201795 
L 171.862687 178.201795 
L 171.862687 172.222011 
L 168.225189 172.222011 
z
" clip-path="url(#p25495b91a8)" style="fill: #1f77b4"/>
   </g>
   <g id="patch_144">
    <path d="M 171.862687 178.201795 
L 175.500186 178.201795 
L 175.500186 170.22875 
L 171.862687 170.22875 
z
" clip-path="url(#p25495b91a8)" style="fill: #1f77b4"/>
   </g>
   <g id="patch_145">
    <path d="M 175.500186 178.201795 
L 179.137685 178.201795 
L 179.137685 170.22875 
L 175.500186 170.22875 
z
" clip-path="url(#p25495b91a8)" style="fill: #1f77b4"/>
   </g>
   <g id="patch_146">
    <path d="M 179.137685 178.201795 
L 182.775184 178.201795 
L 182.775184 168.235488 
L 179.137685 168.235488 
z
" clip-path="url(#p25495b91a8)" style="fill: #1f77b4"/>
   </g>
   <g id="patch_147">
    <path d="M 182.775184 178.201795 
L 186.412682 178.201795 
L 186.412682 164.248966 
L 182.775184 164.248966 
z
" clip-path="url(#p25495b91a8)" style="fill: #1f77b4"/>
   </g>
   <g id="patch_148">
    <path d="M 186.412682 178.201795 
L 190.050181 178.201795 
L 190.050181 174.215272 
L 186.412682 174.215272 
z
" clip-path="url(#p25495b91a8)" style="fill: #1f77b4"/>
   </g>
   <g id="patch_149">
    <path d="M 190.050181 178.201795 
L 193.68768 178.201795 
L 193.68768 174.215272 
L 190.050181 174.215272 
z
" clip-path="url(#p25495b91a8)" style="fill: #1f77b4"/>
   </g>
   <g id="patch_150">
    <path d="M 193.68768 178.201795 
L 197.325178 178.201795 
L 197.325178 162.255704 
L 193.68768 162.255704 
z
" clip-path="url(#p25495b91a8)" style="fill: #1f77b4"/>
   </g>
   <g id="patch_151">
    <path d="M 197.325178 178.201795 
L 200.962677 178.201795 
L 200.962677 162.255704 
L 197.325178 162.255704 
z
" clip-path="url(#p25495b91a8)" style="fill: #1f77b4"/>
   </g>
   <g id="patch_152">
    <path d="M 200.962677 178.201795 
L 204.600176 178.201795 
L 204.600176 166.242227 
L 200.962677 166.242227 
z
" clip-path="url(#p25495b91a8)" style="fill: #1f77b4"/>
   </g>
   <g id="patch_153">
    <path d="M 204.600176 178.201795 
L 208.237675 178.201795 
L 208.237675 162.255704 
L 204.600176 162.255704 
z
" clip-path="url(#p25495b91a8)" style="fill: #1f77b4"/>
   </g>
   <g id="patch_154">
    <path d="M 208.237675 178.201795 
L 211.875173 178.201795 
L 211.875173 160.262443 
L 208.237675 160.262443 
z
" clip-path="url(#p25495b91a8)" style="fill: #1f77b4"/>
   </g>
   <g id="patch_155">
    <path d="M 211.875173 178.201795 
L 215.512672 178.201795 
L 215.512672 164.248966 
L 211.875173 164.248966 
z
" clip-path="url(#p25495b91a8)" style="fill: #1f77b4"/>
   </g>
   <g id="patch_156">
    <path d="M 215.512672 178.201795 
L 219.150171 178.201795 
L 219.150171 158.269182 
L 215.512672 158.269182 
z
" clip-path="url(#p25495b91a8)" style="fill: #1f77b4"/>
   </g>
   <g id="patch_157">
    <path d="M 219.150171 178.201795 
L 222.787669 178.201795 
L 222.787669 154.282659 
L 219.150171 154.282659 
z
" clip-path="url(#p25495b91a8)" style="fill: #1f77b4"/>
   </g>
   <g id="patch_158">
    <path d="M 222.787669 178.201795 
L 226.425168 178.201795 
L 226.425168 170.22875 
L 222.787669 170.22875 
z
" clip-path="url(#p25495b91a8)" style="fill: #1f77b4"/>
   </g>
   <g id="patch_159">
    <path d="M 226.425168 178.201795 
L 230.062667 178.201795 
L 230.062667 168.235488 
L 226.425168 168.235488 
z
" clip-path="url(#p25495b91a8)" style="fill: #1f77b4"/>
   </g>
   <g id="patch_160">
    <path d="M 230.062667 178.201795 
L 233.700166 178.201795 
L 233.700166 162.255704 
L 230.062667 162.255704 
z
" clip-path="url(#p25495b91a8)" style="fill: #1f77b4"/>
   </g>
   <g id="patch_161">
    <path d="M 233.700166 178.201795 
L 237.337664 178.201795 
L 237.337664 160.262443 
L 233.700166 160.262443 
z
" clip-path="url(#p25495b91a8)" style="fill: #1f77b4"/>
   </g>
   <g id="patch_162">
    <path d="M 237.337664 178.201795 
L 240.975163 178.201795 
L 240.975163 156.27592 
L 237.337664 156.27592 
z
" clip-path="url(#p25495b91a8)" style="fill: #1f77b4"/>
   </g>
   <g id="patch_163">
    <path d="M 240.975163 178.201795 
L 244.612662 178.201795 
L 244.612662 160.262443 
L 240.975163 160.262443 
z
" clip-path="url(#p25495b91a8)" style="fill: #1f77b4"/>
   </g>
   <g id="patch_164">
    <path d="M 244.612662 178.201795 
L 248.25016 178.201795 
L 248.25016 162.255704 
L 244.612662 162.255704 
z
" clip-path="url(#p25495b91a8)" style="fill: #1f77b4"/>
   </g>
   <g id="patch_165">
    <path d="M 248.25016 178.201795 
L 251.887659 178.201795 
L 251.887659 164.248966 
L 248.25016 164.248966 
z
" clip-path="url(#p25495b91a8)" style="fill: #1f77b4"/>
   </g>
   <g id="patch_166">
    <path d="M 251.887659 178.201795 
L 255.525158 178.201795 
L 255.525158 156.27592 
L 251.887659 156.27592 
z
" clip-path="url(#p25495b91a8)" style="fill: #1f77b4"/>
   </g>
   <g id="patch_167">
    <path d="M 255.525158 178.201795 
L 259.162657 178.201795 
L 259.162657 156.27592 
L 255.525158 156.27592 
z
" clip-path="url(#p25495b91a8)" style="fill: #1f77b4"/>
   </g>
   <g id="patch_168">
    <path d="M 259.162657 178.201795 
L 262.800155 178.201795 
L 262.800155 160.262443 
L 259.162657 160.262443 
z
" clip-path="url(#p25495b91a8)" style="fill: #1f77b4"/>
   </g>
   <g id="patch_169">
    <path d="M 262.800155 178.201795 
L 266.437654 178.201795 
L 266.437654 152.289398 
L 262.800155 152.289398 
z
" clip-path="url(#p25495b91a8)" style="fill: #1f77b4"/>
   </g>
   <g id="patch_170">
    <path d="M 266.437654 178.201795 
L 270.075153 178.201795 
L 270.075153 164.248966 
L 266.437654 164.248966 
z
" clip-path="url(#p25495b91a8)" style="fill: #1f77b4"/>
   </g>
   <g id="patch_171">
    <path d="M 270.075153 178.201795 
L 273.712651 178.201795 
L 273.712651 156.27592 
L 270.075153 156.27592 
z
" clip-path="url(#p25495b91a8)" style="fill: #1f77b4"/>
   </g>
   <g id="patch_172">
    <path d="M 273.712651 178.201795 
L 277.35015 178.201795 
L 277.35015 164.248966 
L 273.712651 164.248966 
z
" clip-path="url(#p25495b91a8)" style="fill: #1f77b4"/>
   </g>
   <g id="patch_173">
    <path d="M 277.35015 178.201795 
L 280.987649 178.201795 
L 280.987649 174.215272 
L 277.35015 174.215272 
z
" clip-path="url(#p25495b91a8)" style="fill: #1f77b4"/>
   </g>
   <g id="patch_174">
    <path d="M 280.987649 178.201795 
L 284.625148 178.201795 
L 284.625148 150.296136 
L 280.987649 150.296136 
z
" clip-path="url(#p25495b91a8)" style="fill: #1f77b4"/>
   </g>
   <g id="patch_175">
    <path d="M 284.625148 178.201795 
L 288.262646 178.201795 
L 288.262646 146.309614 
L 284.625148 146.309614 
z
" clip-path="url(#p25495b91a8)" style="fill: #1f77b4"/>
   </g>
   <g id="patch_176">
    <path d="M 288.262646 178.201795 
L 291.900145 178.201795 
L 291.900145 150.296136 
L 288.262646 150.296136 
z
" clip-path="url(#p25495b91a8)" style="fill: #1f77b4"/>
   </g>
   <g id="patch_177">
    <path d="M 291.900145 178.201795 
L 295.537644 178.201795 
L 295.537644 170.22875 
L 291.900145 170.22875 
z
" clip-path="url(#p25495b91a8)" style="fill: #1f77b4"/>
   </g>
   <g id="patch_178">
    <path d="M 295.537644 178.201795 
L 299.175143 178.201795 
L 299.175143 158.269182 
L 295.537644 158.269182 
z
" clip-path="url(#p25495b91a8)" style="fill: #1f77b4"/>
   </g>
   <g id="patch_179">
    <path d="M 299.175143 178.201795 
L 302.812641 178.201795 
L 302.812641 152.289398 
L 299.175143 152.289398 
z
" clip-path="url(#p25495b91a8)" style="fill: #1f77b4"/>
   </g>
   <g id="patch_180">
    <path d="M 302.812641 178.201795 
L 306.45014 178.201795 
L 306.45014 164.248966 
L 302.812641 164.248966 
z
" clip-path="url(#p25495b91a8)" style="fill: #1f77b4"/>
   </g>
   <g id="patch_181">
    <path d="M 306.45014 178.201795 
L 310.087639 178.201795 
L 310.087639 158.269182 
L 306.45014 158.269182 
z
" clip-path="url(#p25495b91a8)" style="fill: #1f77b4"/>
   </g>
   <g id="patch_182">
    <path d="M 310.087639 178.201795 
L 313.725137 178.201795 
L 313.725137 164.248966 
L 310.087639 164.248966 
z
" clip-path="url(#p25495b91a8)" style="fill: #1f77b4"/>
   </g>
   <g id="patch_183">
    <path d="M 313.725137 178.201795 
L 317.362636 178.201795 
L 317.362636 140.32983 
L 313.725137 140.32983 
z
" clip-path="url(#p25495b91a8)" style="fill: #1f77b4"/>
   </g>
   <g id="patch_184">
    <path d="M 317.362636 178.201795 
L 321.000135 178.201795 
L 321.000135 148.302875 
L 317.362636 148.302875 
z
" clip-path="url(#p25495b91a8)" style="fill: #1f77b4"/>
   </g>
   <g id="patch_185">
    <path d="M 321.000135 178.201795 
L 324.637634 178.201795 
L 324.637634 168.235488 
L 321.000135 168.235488 
z
" clip-path="url(#p25495b91a8)" style="fill: #1f77b4"/>
   </g>
   <g id="patch_186">
    <path d="M 324.637634 178.201795 
L 328.275132 178.201795 
L 328.275132 158.269182 
L 324.637634 158.269182 
z
" clip-path="url(#p25495b91a8)" style="fill: #1f77b4"/>
   </g>
   <g id="patch_187">
    <path d="M 328.275132 178.201795 
L 331.912631 178.201795 
L 331.912631 148.302875 
L 328.275132 148.302875 
z
" clip-path="url(#p25495b91a8)" style="fill: #1f77b4"/>
   </g>
   <g id="patch_188">
    <path d="M 331.912631 178.201795 
L 335.55013 178.201795 
L 335.55013 148.302875 
L 331.912631 148.302875 
z
" clip-path="url(#p25495b91a8)" style="fill: #1f77b4"/>
   </g>
   <g id="patch_189">
    <path d="M 335.55013 178.201795 
L 339.187628 178.201795 
L 339.187628 152.289398 
L 335.55013 152.289398 
z
" clip-path="url(#p25495b91a8)" style="fill: #1f77b4"/>
   </g>
   <g id="patch_190">
    <path d="M 339.187628 178.201795 
L 342.825127 178.201795 
L 342.825127 160.262443 
L 339.187628 160.262443 
z
" clip-path="url(#p25495b91a8)" style="fill: #1f77b4"/>
   </g>
   <g id="patch_191">
    <path d="M 342.825127 178.201795 
L 346.462626 178.201795 
L 346.462626 164.248966 
L 342.825127 164.248966 
z
" clip-path="url(#p25495b91a8)" style="fill: #1f77b4"/>
   </g>
   <g id="patch_192">
    <path d="M 346.462626 178.201795 
L 350.100125 178.201795 
L 350.100125 162.255704 
L 346.462626 162.255704 
z
" clip-path="url(#p25495b91a8)" style="fill: #1f77b4"/>
   </g>
   <g id="patch_193">
    <path d="M 350.100125 178.201795 
L 353.737623 178.201795 
L 353.737623 144.316352 
L 350.100125 144.316352 
z
" clip-path="url(#p25495b91a8)" style="fill: #1f77b4"/>
   </g>
   <g id="patch_194">
    <path d="M 353.737623 178.201795 
L 357.375122 178.201795 
L 357.375122 164.248966 
L 353.737623 164.248966 
z
" clip-path="url(#p25495b91a8)" style="fill: #1f77b4"/>
   </g>
   <g id="patch_195">
    <path d="M 357.375122 178.201795 
L 361.012621 178.201795 
L 361.012621 162.255704 
L 357.375122 162.255704 
z
" clip-path="url(#p25495b91a8)" style="fill: #1f77b4"/>
   </g>
   <g id="patch_196">
    <path d="M 361.012621 178.201795 
L 364.650119 178.201795 
L 364.650119 160.262443 
L 361.012621 160.262443 
z
" clip-path="url(#p25495b91a8)" style="fill: #1f77b4"/>
   </g>
   <g id="patch_197">
    <path d="M 364.650119 178.201795 
L 368.287618 178.201795 
L 368.287618 154.282659 
L 364.650119 154.282659 
z
" clip-path="url(#p25495b91a8)" style="fill: #1f77b4"/>
   </g>
   <g id="patch_198">
    <path d="M 368.287618 178.201795 
L 371.925117 178.201795 
L 371.925117 160.262443 
L 368.287618 160.262443 
z
" clip-path="url(#p25495b91a8)" style="fill: #1f77b4"/>
   </g>
   <g id="patch_199">
    <path d="M 371.925117 178.201795 
L 375.562616 178.201795 
L 375.562616 158.269182 
L 371.925117 158.269182 
z
" clip-path="url(#p25495b91a8)" style="fill: #1f77b4"/>
   </g>
   <g id="patch_200">
    <path d="M 375.562616 178.201795 
L 379.200114 178.201795 
L 379.200114 166.242227 
L 375.562616 166.242227 
z
" clip-path="url(#p25495b91a8)" style="fill: #1f77b4"/>
   </g>
   <g id="patch_201">
    <path d="M 379.200114 178.201795 
L 382.837613 178.201795 
L 382.837613 168.235488 
L 379.200114 168.235488 
z
" clip-path="url(#p25495b91a8)" style="fill: #1f77b4"/>
   </g>
   <g id="patch_202">
    <path d="M 382.837613 178.201795 
L 386.475112 178.201795 
L 386.475112 170.22875 
L 382.837613 170.22875 
z
" clip-path="url(#p25495b91a8)" style="fill: #1f77b4"/>
   </g>
   <g id="patch_203">
    <path d="M 386.475112 178.201795 
L 390.11261 178.201795 
L 390.11261 170.22875 
L 386.475112 170.22875 
z
" clip-path="url(#p25495b91a8)" style="fill: #1f77b4"/>
   </g>
   <g id="patch_204">
    <path d="M 390.11261 178.201795 
L 393.750109 178.201795 
L 393.750109 170.22875 
L 390.11261 170.22875 
z
" clip-path="url(#p25495b91a8)" style="fill: #1f77b4"/>
   </g>
   <g id="patch_205">
    <path d="M 393.750109 178.201795 
L 397.387608 178.201795 
L 397.387608 168.235488 
L 393.750109 168.235488 
z
" clip-path="url(#p25495b91a8)" style="fill: #1f77b4"/>
   </g>
   <g id="patch_206">
    <path d="M 397.387608 178.201795 
L 401.025107 178.201795 
L 401.025107 174.215272 
L 397.387608 174.215272 
z
" clip-path="url(#p25495b91a8)" style="fill: #1f77b4"/>
   </g>
   <g id="patch_207">
    <path d="M 401.025107 178.201795 
L 404.662605 178.201795 
L 404.662605 172.222011 
L 401.025107 172.222011 
z
" clip-path="url(#p25495b91a8)" style="fill: #1f77b4"/>
   </g>
   <g id="matplotlib.axis_3">
    <g id="xtick_7">
     <g id="line2d_9">
      <g>
       <use xlink:href="#mcf79326066" x="93.961636" y="178.201795" style="stroke: #000000; stroke-width: 0.8"/>
      </g>
     </g>
     <g id="text_10">
      <!-- 1000 -->
      <g transform="translate(81.236636 192.800232)scale(0.1 -0.1)">
       <use xlink:href="#DejaVuSans-31"/>
       <use xlink:href="#DejaVuSans-30" x="63.623047"/>
       <use xlink:href="#DejaVuSans-30" x="127.246094"/>
       <use xlink:href="#DejaVuSans-30" x="190.869141"/>
      </g>
     </g>
    </g>
    <g id="xtick_8">
     <g id="line2d_10">
      <g>
       <use xlink:href="#mcf79326066" x="165.914847" y="178.201795" style="stroke: #000000; stroke-width: 0.8"/>
      </g>
     </g>
     <g id="text_11">
      <!-- 1500 -->
      <g transform="translate(153.189847 192.800232)scale(0.1 -0.1)">
       <use xlink:href="#DejaVuSans-31"/>
       <use xlink:href="#DejaVuSans-35" x="63.623047"/>
       <use xlink:href="#DejaVuSans-30" x="127.246094"/>
       <use xlink:href="#DejaVuSans-30" x="190.869141"/>
      </g>
     </g>
    </g>
    <g id="xtick_9">
     <g id="line2d_11">
      <g>
       <use xlink:href="#mcf79326066" x="237.868058" y="178.201795" style="stroke: #000000; stroke-width: 0.8"/>
      </g>
     </g>
     <g id="text_12">
      <!-- 2000 -->
      <g transform="translate(225.143058 192.800232)scale(0.1 -0.1)">
       <use xlink:href="#DejaVuSans-32"/>
       <use xlink:href="#DejaVuSans-30" x="63.623047"/>
       <use xlink:href="#DejaVuSans-30" x="127.246094"/>
       <use xlink:href="#DejaVuSans-30" x="190.869141"/>
      </g>
     </g>
    </g>
    <g id="xtick_10">
     <g id="line2d_12">
      <g>
       <use xlink:href="#mcf79326066" x="309.821268" y="178.201795" style="stroke: #000000; stroke-width: 0.8"/>
      </g>
     </g>
     <g id="text_13">
      <!-- 2500 -->
      <g transform="translate(297.096268 192.800232)scale(0.1 -0.1)">
       <use xlink:href="#DejaVuSans-32"/>
       <use xlink:href="#DejaVuSans-35" x="63.623047"/>
       <use xlink:href="#DejaVuSans-30" x="127.246094"/>
       <use xlink:href="#DejaVuSans-30" x="190.869141"/>
      </g>
     </g>
    </g>
    <g id="xtick_11">
     <g id="line2d_13">
      <g>
       <use xlink:href="#mcf79326066" x="381.774479" y="178.201795" style="stroke: #000000; stroke-width: 0.8"/>
      </g>
     </g>
     <g id="text_14">
      <!-- 3000 -->
      <g transform="translate(369.049479 192.800232)scale(0.1 -0.1)">
       <use xlink:href="#DejaVuSans-33"/>
       <use xlink:href="#DejaVuSans-30" x="63.623047"/>
       <use xlink:href="#DejaVuSans-30" x="127.246094"/>
       <use xlink:href="#DejaVuSans-30" x="190.869141"/>
      </g>
     </g>
    </g>
   </g>
   <g id="matplotlib.axis_4">
    <g id="ytick_3">
     <g id="line2d_14">
      <g>
       <use xlink:href="#m9136297e03" x="22.72524" y="178.201795" style="stroke: #000000; stroke-width: 0.8"/>
      </g>
     </g>
     <g id="text_15">
      <!-- 0 -->
      <g transform="translate(9.36274 182.001014)scale(0.1 -0.1)">
       <use xlink:href="#DejaVuSans-30"/>
      </g>
     </g>
    </g>
    <g id="ytick_4">
     <g id="line2d_15">
      <g>
       <use xlink:href="#m9136297e03" x="22.72524" y="138.336568" style="stroke: #000000; stroke-width: 0.8"/>
      </g>
     </g>
     <g id="text_16">
      <!-- 20 -->
      <g transform="translate(3.00024 142.135787)scale(0.1 -0.1)">
       <use xlink:href="#DejaVuSans-32"/>
       <use xlink:href="#DejaVuSans-30" x="63.623047"/>
      </g>
     </g>
    </g>
   </g>
   <g id="patch_208">
    <path d="M 22.72524 178.201795 
L 22.72524 125.878685 
" style="fill: none; stroke: #000000; stroke-width: 0.8; stroke-linejoin: miter; stroke-linecap: square"/>
   </g>
   <g id="patch_209">
    <path d="M 422.850099 178.201795 
L 422.850099 125.878685 
" style="fill: none; stroke: #000000; stroke-width: 0.8; stroke-linejoin: miter; stroke-linecap: square"/>
   </g>
   <g id="patch_210">
    <path d="M 22.72524 178.201795 
L 422.850099 178.201795 
" style="fill: none; stroke: #000000; stroke-width: 0.8; stroke-linejoin: miter; stroke-linecap: square"/>
   </g>
   <g id="patch_211">
    <path d="M 22.72524 125.878685 
L 422.850099 125.878685 
" style="fill: none; stroke: #000000; stroke-width: 0.8; stroke-linejoin: miter; stroke-linecap: square"/>
   </g>
   <g id="text_17">
    <!-- $\nu_2$ -->
    <g transform="translate(216.547669 119.878685)scale(0.12 -0.12)">
     <use xlink:href="#DejaVuSans-Oblique-3bd" transform="translate(0 0.3125)"/>
     <use xlink:href="#DejaVuSans-32" transform="translate(55.859375 -16.09375)scale(0.7)"/>
    </g>
   </g>
  </g>
  <g id="axes_3">
   <g id="patch_212">
    <path d="M 22.72524 268.321635 
L 422.850099 268.321635 
L 422.850099 215.998525 
L 22.72524 215.998525 
z
" style="fill: #ffffff"/>
   </g>
   <g id="patch_213">
    <path d="M 40.912734 268.321635 
L 44.550232 268.321635 
L 44.550232 266.328374 
L 40.912734 266.328374 
z
" clip-path="url(#p009aa6f19c)" style="fill: #1f77b4"/>
   </g>
   <g id="patch_214">
    <path d="M 44.550232 268.321635 
L 48.187731 268.321635 
L 48.187731 268.321635 
L 44.550232 268.321635 
z
" clip-path="url(#p009aa6f19c)" style="fill: #1f77b4"/>
   </g>
   <g id="patch_215">
    <path d="M 48.187731 268.321635 
L 51.82523 268.321635 
L 51.82523 268.321635 
L 48.187731 268.321635 
z
" clip-path="url(#p009aa6f19c)" style="fill: #1f77b4"/>
   </g>
   <g id="patch_216">
    <path d="M 51.82523 268.321635 
L 55.462728 268.321635 
L 55.462728 266.328374 
L 51.82523 266.328374 
z
" clip-path="url(#p009aa6f19c)" style="fill: #1f77b4"/>
   </g>
   <g id="patch_217">
    <path d="M 55.462728 268.321635 
L 59.100227 268.321635 
L 59.100227 268.321635 
L 55.462728 268.321635 
z
" clip-path="url(#p009aa6f19c)" style="fill: #1f77b4"/>
   </g>
   <g id="patch_218">
    <path d="M 59.100227 268.321635 
L 62.737726 268.321635 
L 62.737726 268.321635 
L 59.100227 268.321635 
z
" clip-path="url(#p009aa6f19c)" style="fill: #1f77b4"/>
   </g>
   <g id="patch_219">
    <path d="M 62.737726 268.321635 
L 66.375225 268.321635 
L 66.375225 268.321635 
L 62.737726 268.321635 
z
" clip-path="url(#p009aa6f19c)" style="fill: #1f77b4"/>
   </g>
   <g id="patch_220">
    <path d="M 66.375225 268.321635 
L 70.012723 268.321635 
L 70.012723 266.328374 
L 66.375225 266.328374 
z
" clip-path="url(#p009aa6f19c)" style="fill: #1f77b4"/>
   </g>
   <g id="patch_221">
    <path d="M 70.012723 268.321635 
L 73.650222 268.321635 
L 73.650222 266.328374 
L 70.012723 266.328374 
z
" clip-path="url(#p009aa6f19c)" style="fill: #1f77b4"/>
   </g>
   <g id="patch_222">
    <path d="M 73.650222 268.321635 
L 77.287721 268.321635 
L 77.287721 266.328374 
L 73.650222 266.328374 
z
" clip-path="url(#p009aa6f19c)" style="fill: #1f77b4"/>
   </g>
   <g id="patch_223">
    <path d="M 77.287721 268.321635 
L 80.925219 268.321635 
L 80.925219 268.321635 
L 77.287721 268.321635 
z
" clip-path="url(#p009aa6f19c)" style="fill: #1f77b4"/>
   </g>
   <g id="patch_224">
    <path d="M 80.925219 268.321635 
L 84.562718 268.321635 
L 84.562718 266.328374 
L 80.925219 266.328374 
z
" clip-path="url(#p009aa6f19c)" style="fill: #1f77b4"/>
   </g>
   <g id="patch_225">
    <path d="M 84.562718 268.321635 
L 88.200217 268.321635 
L 88.200217 268.321635 
L 84.562718 268.321635 
z
" clip-path="url(#p009aa6f19c)" style="fill: #1f77b4"/>
   </g>
   <g id="patch_226">
    <path d="M 88.200217 268.321635 
L 91.837716 268.321635 
L 91.837716 268.321635 
L 88.200217 268.321635 
z
" clip-path="url(#p009aa6f19c)" style="fill: #1f77b4"/>
   </g>
   <g id="patch_227">
    <path d="M 91.837716 268.321635 
L 95.475214 268.321635 
L 95.475214 268.321635 
L 91.837716 268.321635 
z
" clip-path="url(#p009aa6f19c)" style="fill: #1f77b4"/>
   </g>
   <g id="patch_228">
    <path d="M 95.475214 268.321635 
L 99.112713 268.321635 
L 99.112713 266.328374 
L 95.475214 266.328374 
z
" clip-path="url(#p009aa6f19c)" style="fill: #1f77b4"/>
   </g>
   <g id="patch_229">
    <path d="M 99.112713 268.321635 
L 102.750212 268.321635 
L 102.750212 266.328374 
L 99.112713 266.328374 
z
" clip-path="url(#p009aa6f19c)" style="fill: #1f77b4"/>
   </g>
   <g id="patch_230">
    <path d="M 102.750212 268.321635 
L 106.38771 268.321635 
L 106.38771 268.321635 
L 102.750212 268.321635 
z
" clip-path="url(#p009aa6f19c)" style="fill: #1f77b4"/>
   </g>
   <g id="patch_231">
    <path d="M 106.38771 268.321635 
L 110.025209 268.321635 
L 110.025209 268.321635 
L 106.38771 268.321635 
z
" clip-path="url(#p009aa6f19c)" style="fill: #1f77b4"/>
   </g>
   <g id="patch_232">
    <path d="M 110.025209 268.321635 
L 113.662708 268.321635 
L 113.662708 268.321635 
L 110.025209 268.321635 
z
" clip-path="url(#p009aa6f19c)" style="fill: #1f77b4"/>
   </g>
   <g id="patch_233">
    <path d="M 113.662708 268.321635 
L 117.300207 268.321635 
L 117.300207 264.335112 
L 113.662708 264.335112 
z
" clip-path="url(#p009aa6f19c)" style="fill: #1f77b4"/>
   </g>
   <g id="patch_234">
    <path d="M 117.300207 268.321635 
L 120.937705 268.321635 
L 120.937705 268.321635 
L 117.300207 268.321635 
z
" clip-path="url(#p009aa6f19c)" style="fill: #1f77b4"/>
   </g>
   <g id="patch_235">
    <path d="M 120.937705 268.321635 
L 124.575204 268.321635 
L 124.575204 264.335112 
L 120.937705 264.335112 
z
" clip-path="url(#p009aa6f19c)" style="fill: #1f77b4"/>
   </g>
   <g id="patch_236">
    <path d="M 124.575204 268.321635 
L 128.212703 268.321635 
L 128.212703 268.321635 
L 124.575204 268.321635 
z
" clip-path="url(#p009aa6f19c)" style="fill: #1f77b4"/>
   </g>
   <g id="patch_237">
    <path d="M 128.212703 268.321635 
L 131.850202 268.321635 
L 131.850202 268.321635 
L 128.212703 268.321635 
z
" clip-path="url(#p009aa6f19c)" style="fill: #1f77b4"/>
   </g>
   <g id="patch_238">
    <path d="M 131.850202 268.321635 
L 135.4877 268.321635 
L 135.4877 266.328374 
L 131.850202 266.328374 
z
" clip-path="url(#p009aa6f19c)" style="fill: #1f77b4"/>
   </g>
   <g id="patch_239">
    <path d="M 135.4877 268.321635 
L 139.125199 268.321635 
L 139.125199 266.328374 
L 135.4877 266.328374 
z
" clip-path="url(#p009aa6f19c)" style="fill: #1f77b4"/>
   </g>
   <g id="patch_240">
    <path d="M 139.125199 268.321635 
L 142.762698 268.321635 
L 142.762698 264.335112 
L 139.125199 264.335112 
z
" clip-path="url(#p009aa6f19c)" style="fill: #1f77b4"/>
   </g>
   <g id="patch_241">
    <path d="M 142.762698 268.321635 
L 146.400196 268.321635 
L 146.400196 266.328374 
L 142.762698 266.328374 
z
" clip-path="url(#p009aa6f19c)" style="fill: #1f77b4"/>
   </g>
   <g id="patch_242">
    <path d="M 146.400196 268.321635 
L 150.037695 268.321635 
L 150.037695 264.335112 
L 146.400196 264.335112 
z
" clip-path="url(#p009aa6f19c)" style="fill: #1f77b4"/>
   </g>
   <g id="patch_243">
    <path d="M 150.037695 268.321635 
L 153.675194 268.321635 
L 153.675194 266.328374 
L 150.037695 266.328374 
z
" clip-path="url(#p009aa6f19c)" style="fill: #1f77b4"/>
   </g>
   <g id="patch_244">
    <path d="M 153.675194 268.321635 
L 157.312693 268.321635 
L 157.312693 264.335112 
L 153.675194 264.335112 
z
" clip-path="url(#p009aa6f19c)" style="fill: #1f77b4"/>
   </g>
   <g id="patch_245">
    <path d="M 157.312693 268.321635 
L 160.950191 268.321635 
L 160.950191 264.335112 
L 157.312693 264.335112 
z
" clip-path="url(#p009aa6f19c)" style="fill: #1f77b4"/>
   </g>
   <g id="patch_246">
    <path d="M 160.950191 268.321635 
L 164.58769 268.321635 
L 164.58769 264.335112 
L 160.950191 264.335112 
z
" clip-path="url(#p009aa6f19c)" style="fill: #1f77b4"/>
   </g>
   <g id="patch_247">
    <path d="M 164.58769 268.321635 
L 168.225189 268.321635 
L 168.225189 266.328374 
L 164.58769 266.328374 
z
" clip-path="url(#p009aa6f19c)" style="fill: #1f77b4"/>
   </g>
   <g id="patch_248">
    <path d="M 168.225189 268.321635 
L 171.862687 268.321635 
L 171.862687 264.335112 
L 168.225189 264.335112 
z
" clip-path="url(#p009aa6f19c)" style="fill: #1f77b4"/>
   </g>
   <g id="patch_249">
    <path d="M 171.862687 268.321635 
L 175.500186 268.321635 
L 175.500186 266.328374 
L 171.862687 266.328374 
z
" clip-path="url(#p009aa6f19c)" style="fill: #1f77b4"/>
   </g>
   <g id="patch_250">
    <path d="M 175.500186 268.321635 
L 179.137685 268.321635 
L 179.137685 268.321635 
L 175.500186 268.321635 
z
" clip-path="url(#p009aa6f19c)" style="fill: #1f77b4"/>
   </g>
   <g id="patch_251">
    <path d="M 179.137685 268.321635 
L 182.775184 268.321635 
L 182.775184 266.328374 
L 179.137685 266.328374 
z
" clip-path="url(#p009aa6f19c)" style="fill: #1f77b4"/>
   </g>
   <g id="patch_252">
    <path d="M 182.775184 268.321635 
L 186.412682 268.321635 
L 186.412682 268.321635 
L 182.775184 268.321635 
z
" clip-path="url(#p009aa6f19c)" style="fill: #1f77b4"/>
   </g>
   <g id="patch_253">
    <path d="M 186.412682 268.321635 
L 190.050181 268.321635 
L 190.050181 264.335112 
L 186.412682 264.335112 
z
" clip-path="url(#p009aa6f19c)" style="fill: #1f77b4"/>
   </g>
   <g id="patch_254">
    <path d="M 190.050181 268.321635 
L 193.68768 268.321635 
L 193.68768 262.341851 
L 190.050181 262.341851 
z
" clip-path="url(#p009aa6f19c)" style="fill: #1f77b4"/>
   </g>
   <g id="patch_255">
    <path d="M 193.68768 268.321635 
L 197.325178 268.321635 
L 197.325178 260.34859 
L 193.68768 260.34859 
z
" clip-path="url(#p009aa6f19c)" style="fill: #1f77b4"/>
   </g>
   <g id="patch_256">
    <path d="M 197.325178 268.321635 
L 200.962677 268.321635 
L 200.962677 266.328374 
L 197.325178 266.328374 
z
" clip-path="url(#p009aa6f19c)" style="fill: #1f77b4"/>
   </g>
   <g id="patch_257">
    <path d="M 200.962677 268.321635 
L 204.600176 268.321635 
L 204.600176 264.335112 
L 200.962677 264.335112 
z
" clip-path="url(#p009aa6f19c)" style="fill: #1f77b4"/>
   </g>
   <g id="patch_258">
    <path d="M 204.600176 268.321635 
L 208.237675 268.321635 
L 208.237675 266.328374 
L 204.600176 266.328374 
z
" clip-path="url(#p009aa6f19c)" style="fill: #1f77b4"/>
   </g>
   <g id="patch_259">
    <path d="M 208.237675 268.321635 
L 211.875173 268.321635 
L 211.875173 258.355328 
L 208.237675 258.355328 
z
" clip-path="url(#p009aa6f19c)" style="fill: #1f77b4"/>
   </g>
   <g id="patch_260">
    <path d="M 211.875173 268.321635 
L 215.512672 268.321635 
L 215.512672 262.341851 
L 211.875173 262.341851 
z
" clip-path="url(#p009aa6f19c)" style="fill: #1f77b4"/>
   </g>
   <g id="patch_261">
    <path d="M 215.512672 268.321635 
L 219.150171 268.321635 
L 219.150171 264.335112 
L 215.512672 264.335112 
z
" clip-path="url(#p009aa6f19c)" style="fill: #1f77b4"/>
   </g>
   <g id="patch_262">
    <path d="M 219.150171 268.321635 
L 222.787669 268.321635 
L 222.787669 264.335112 
L 219.150171 264.335112 
z
" clip-path="url(#p009aa6f19c)" style="fill: #1f77b4"/>
   </g>
   <g id="patch_263">
    <path d="M 222.787669 268.321635 
L 226.425168 268.321635 
L 226.425168 256.362067 
L 222.787669 256.362067 
z
" clip-path="url(#p009aa6f19c)" style="fill: #1f77b4"/>
   </g>
   <g id="patch_264">
    <path d="M 226.425168 268.321635 
L 230.062667 268.321635 
L 230.062667 264.335112 
L 226.425168 264.335112 
z
" clip-path="url(#p009aa6f19c)" style="fill: #1f77b4"/>
   </g>
   <g id="patch_265">
    <path d="M 230.062667 268.321635 
L 233.700166 268.321635 
L 233.700166 258.355328 
L 230.062667 258.355328 
z
" clip-path="url(#p009aa6f19c)" style="fill: #1f77b4"/>
   </g>
   <g id="patch_266">
    <path d="M 233.700166 268.321635 
L 237.337664 268.321635 
L 237.337664 256.362067 
L 233.700166 256.362067 
z
" clip-path="url(#p009aa6f19c)" style="fill: #1f77b4"/>
   </g>
   <g id="patch_267">
    <path d="M 237.337664 268.321635 
L 240.975163 268.321635 
L 240.975163 256.362067 
L 237.337664 256.362067 
z
" clip-path="url(#p009aa6f19c)" style="fill: #1f77b4"/>
   </g>
   <g id="patch_268">
    <path d="M 240.975163 268.321635 
L 244.612662 268.321635 
L 244.612662 258.355328 
L 240.975163 258.355328 
z
" clip-path="url(#p009aa6f19c)" style="fill: #1f77b4"/>
   </g>
   <g id="patch_269">
    <path d="M 244.612662 268.321635 
L 248.25016 268.321635 
L 248.25016 264.335112 
L 244.612662 264.335112 
z
" clip-path="url(#p009aa6f19c)" style="fill: #1f77b4"/>
   </g>
   <g id="patch_270">
    <path d="M 248.25016 268.321635 
L 251.887659 268.321635 
L 251.887659 258.355328 
L 248.25016 258.355328 
z
" clip-path="url(#p009aa6f19c)" style="fill: #1f77b4"/>
   </g>
   <g id="patch_271">
    <path d="M 251.887659 268.321635 
L 255.525158 268.321635 
L 255.525158 252.375544 
L 251.887659 252.375544 
z
" clip-path="url(#p009aa6f19c)" style="fill: #1f77b4"/>
   </g>
   <g id="patch_272">
    <path d="M 255.525158 268.321635 
L 259.162657 268.321635 
L 259.162657 256.362067 
L 255.525158 256.362067 
z
" clip-path="url(#p009aa6f19c)" style="fill: #1f77b4"/>
   </g>
   <g id="patch_273">
    <path d="M 259.162657 268.321635 
L 262.800155 268.321635 
L 262.800155 260.34859 
L 259.162657 260.34859 
z
" clip-path="url(#p009aa6f19c)" style="fill: #1f77b4"/>
   </g>
   <g id="patch_274">
    <path d="M 262.800155 268.321635 
L 266.437654 268.321635 
L 266.437654 262.341851 
L 262.800155 262.341851 
z
" clip-path="url(#p009aa6f19c)" style="fill: #1f77b4"/>
   </g>
   <g id="patch_275">
    <path d="M 266.437654 268.321635 
L 270.075153 268.321635 
L 270.075153 260.34859 
L 266.437654 260.34859 
z
" clip-path="url(#p009aa6f19c)" style="fill: #1f77b4"/>
   </g>
   <g id="patch_276">
    <path d="M 270.075153 268.321635 
L 273.712651 268.321635 
L 273.712651 254.368806 
L 270.075153 254.368806 
z
" clip-path="url(#p009aa6f19c)" style="fill: #1f77b4"/>
   </g>
   <g id="patch_277">
    <path d="M 273.712651 268.321635 
L 277.35015 268.321635 
L 277.35015 256.362067 
L 273.712651 256.362067 
z
" clip-path="url(#p009aa6f19c)" style="fill: #1f77b4"/>
   </g>
   <g id="patch_278">
    <path d="M 277.35015 268.321635 
L 280.987649 268.321635 
L 280.987649 258.355328 
L 277.35015 258.355328 
z
" clip-path="url(#p009aa6f19c)" style="fill: #1f77b4"/>
   </g>
   <g id="patch_279">
    <path d="M 280.987649 268.321635 
L 284.625148 268.321635 
L 284.625148 262.341851 
L 280.987649 262.341851 
z
" clip-path="url(#p009aa6f19c)" style="fill: #1f77b4"/>
   </g>
   <g id="patch_280">
    <path d="M 284.625148 268.321635 
L 288.262646 268.321635 
L 288.262646 260.34859 
L 284.625148 260.34859 
z
" clip-path="url(#p009aa6f19c)" style="fill: #1f77b4"/>
   </g>
   <g id="patch_281">
    <path d="M 288.262646 268.321635 
L 291.900145 268.321635 
L 291.900145 250.382283 
L 288.262646 250.382283 
z
" clip-path="url(#p009aa6f19c)" style="fill: #1f77b4"/>
   </g>
   <g id="patch_282">
    <path d="M 291.900145 268.321635 
L 295.537644 268.321635 
L 295.537644 250.382283 
L 291.900145 250.382283 
z
" clip-path="url(#p009aa6f19c)" style="fill: #1f77b4"/>
   </g>
   <g id="patch_283">
    <path d="M 295.537644 268.321635 
L 299.175143 268.321635 
L 299.175143 238.422715 
L 295.537644 238.422715 
z
" clip-path="url(#p009aa6f19c)" style="fill: #1f77b4"/>
   </g>
   <g id="patch_284">
    <path d="M 299.175143 268.321635 
L 302.812641 268.321635 
L 302.812641 248.389022 
L 299.175143 248.389022 
z
" clip-path="url(#p009aa6f19c)" style="fill: #1f77b4"/>
   </g>
   <g id="patch_285">
    <path d="M 302.812641 268.321635 
L 306.45014 268.321635 
L 306.45014 248.389022 
L 302.812641 248.389022 
z
" clip-path="url(#p009aa6f19c)" style="fill: #1f77b4"/>
   </g>
   <g id="patch_286">
    <path d="M 306.45014 268.321635 
L 310.087639 268.321635 
L 310.087639 240.415976 
L 306.45014 240.415976 
z
" clip-path="url(#p009aa6f19c)" style="fill: #1f77b4"/>
   </g>
   <g id="patch_287">
    <path d="M 310.087639 268.321635 
L 313.725137 268.321635 
L 313.725137 250.382283 
L 310.087639 250.382283 
z
" clip-path="url(#p009aa6f19c)" style="fill: #1f77b4"/>
   </g>
   <g id="patch_288">
    <path d="M 313.725137 268.321635 
L 317.362636 268.321635 
L 317.362636 252.375544 
L 313.725137 252.375544 
z
" clip-path="url(#p009aa6f19c)" style="fill: #1f77b4"/>
   </g>
   <g id="patch_289">
    <path d="M 317.362636 268.321635 
L 321.000135 268.321635 
L 321.000135 254.368806 
L 317.362636 254.368806 
z
" clip-path="url(#p009aa6f19c)" style="fill: #1f77b4"/>
   </g>
   <g id="patch_290">
    <path d="M 321.000135 268.321635 
L 324.637634 268.321635 
L 324.637634 250.382283 
L 321.000135 250.382283 
z
" clip-path="url(#p009aa6f19c)" style="fill: #1f77b4"/>
   </g>
   <g id="patch_291">
    <path d="M 324.637634 268.321635 
L 328.275132 268.321635 
L 328.275132 246.39576 
L 324.637634 246.39576 
z
" clip-path="url(#p009aa6f19c)" style="fill: #1f77b4"/>
   </g>
   <g id="patch_292">
    <path d="M 328.275132 268.321635 
L 331.912631 268.321635 
L 331.912631 256.362067 
L 328.275132 256.362067 
z
" clip-path="url(#p009aa6f19c)" style="fill: #1f77b4"/>
   </g>
   <g id="patch_293">
    <path d="M 331.912631 268.321635 
L 335.55013 268.321635 
L 335.55013 242.409238 
L 331.912631 242.409238 
z
" clip-path="url(#p009aa6f19c)" style="fill: #1f77b4"/>
   </g>
   <g id="patch_294">
    <path d="M 335.55013 268.321635 
L 339.187628 268.321635 
L 339.187628 246.39576 
L 335.55013 246.39576 
z
" clip-path="url(#p009aa6f19c)" style="fill: #1f77b4"/>
   </g>
   <g id="patch_295">
    <path d="M 339.187628 268.321635 
L 342.825127 268.321635 
L 342.825127 242.409238 
L 339.187628 242.409238 
z
" clip-path="url(#p009aa6f19c)" style="fill: #1f77b4"/>
   </g>
   <g id="patch_296">
    <path d="M 342.825127 268.321635 
L 346.462626 268.321635 
L 346.462626 244.402499 
L 342.825127 244.402499 
z
" clip-path="url(#p009aa6f19c)" style="fill: #1f77b4"/>
   </g>
   <g id="patch_297">
    <path d="M 346.462626 268.321635 
L 350.100125 268.321635 
L 350.100125 244.402499 
L 346.462626 244.402499 
z
" clip-path="url(#p009aa6f19c)" style="fill: #1f77b4"/>
   </g>
   <g id="patch_298">
    <path d="M 350.100125 268.321635 
L 353.737623 268.321635 
L 353.737623 238.422715 
L 350.100125 238.422715 
z
" clip-path="url(#p009aa6f19c)" style="fill: #1f77b4"/>
   </g>
   <g id="patch_299">
    <path d="M 353.737623 268.321635 
L 357.375122 268.321635 
L 357.375122 232.442931 
L 353.737623 232.442931 
z
" clip-path="url(#p009aa6f19c)" style="fill: #1f77b4"/>
   </g>
   <g id="patch_300">
    <path d="M 357.375122 268.321635 
L 361.012621 268.321635 
L 361.012621 236.429454 
L 357.375122 236.429454 
z
" clip-path="url(#p009aa6f19c)" style="fill: #1f77b4"/>
   </g>
   <g id="patch_301">
    <path d="M 361.012621 268.321635 
L 364.650119 268.321635 
L 364.650119 232.442931 
L 361.012621 232.442931 
z
" clip-path="url(#p009aa6f19c)" style="fill: #1f77b4"/>
   </g>
   <g id="patch_302">
    <path d="M 364.650119 268.321635 
L 368.287618 268.321635 
L 368.287618 230.44967 
L 364.650119 230.44967 
z
" clip-path="url(#p009aa6f19c)" style="fill: #1f77b4"/>
   </g>
   <g id="patch_303">
    <path d="M 368.287618 268.321635 
L 371.925117 268.321635 
L 371.925117 220.483363 
L 368.287618 220.483363 
z
" clip-path="url(#p009aa6f19c)" style="fill: #1f77b4"/>
   </g>
   <g id="patch_304">
    <path d="M 371.925117 268.321635 
L 375.562616 268.321635 
L 375.562616 238.422715 
L 371.925117 238.422715 
z
" clip-path="url(#p009aa6f19c)" style="fill: #1f77b4"/>
   </g>
   <g id="patch_305">
    <path d="M 375.562616 268.321635 
L 379.200114 268.321635 
L 379.200114 236.429454 
L 375.562616 236.429454 
z
" clip-path="url(#p009aa6f19c)" style="fill: #1f77b4"/>
   </g>
   <g id="patch_306">
    <path d="M 379.200114 268.321635 
L 382.837613 268.321635 
L 382.837613 218.490102 
L 379.200114 218.490102 
z
" clip-path="url(#p009aa6f19c)" style="fill: #1f77b4"/>
   </g>
   <g id="patch_307">
    <path d="M 382.837613 268.321635 
L 386.475112 268.321635 
L 386.475112 226.463147 
L 382.837613 226.463147 
z
" clip-path="url(#p009aa6f19c)" style="fill: #1f77b4"/>
   </g>
   <g id="patch_308">
    <path d="M 386.475112 268.321635 
L 390.11261 268.321635 
L 390.11261 232.442931 
L 386.475112 232.442931 
z
" clip-path="url(#p009aa6f19c)" style="fill: #1f77b4"/>
   </g>
   <g id="patch_309">
    <path d="M 390.11261 268.321635 
L 393.750109 268.321635 
L 393.750109 228.456408 
L 390.11261 228.456408 
z
" clip-path="url(#p009aa6f19c)" style="fill: #1f77b4"/>
   </g>
   <g id="patch_310">
    <path d="M 393.750109 268.321635 
L 397.387608 268.321635 
L 397.387608 220.483363 
L 393.750109 220.483363 
z
" clip-path="url(#p009aa6f19c)" style="fill: #1f77b4"/>
   </g>
   <g id="patch_311">
    <path d="M 397.387608 268.321635 
L 401.025107 268.321635 
L 401.025107 232.442931 
L 397.387608 232.442931 
z
" clip-path="url(#p009aa6f19c)" style="fill: #1f77b4"/>
   </g>
   <g id="patch_312">
    <path d="M 401.025107 268.321635 
L 404.662605 268.321635 
L 404.662605 264.335112 
L 401.025107 264.335112 
z
" clip-path="url(#p009aa6f19c)" style="fill: #1f77b4"/>
   </g>
   <g id="matplotlib.axis_5">
    <g id="xtick_12">
     <g id="line2d_16">
      <g>
       <use xlink:href="#mcf79326066" x="23.69192" y="268.321635" style="stroke: #000000; stroke-width: 0.8"/>
      </g>
     </g>
     <g id="text_18">
      <!-- 1250 -->
      <g transform="translate(10.96692 282.920073)scale(0.1 -0.1)">
       <use xlink:href="#DejaVuSans-31"/>
       <use xlink:href="#DejaVuSans-32" x="63.623047"/>
       <use xlink:href="#DejaVuSans-35" x="127.246094"/>
       <use xlink:href="#DejaVuSans-30" x="190.869141"/>
      </g>
     </g>
    </g>
    <g id="xtick_13">
     <g id="line2d_17">
      <g>
       <use xlink:href="#mcf79326066" x="72.762594" y="268.321635" style="stroke: #000000; stroke-width: 0.8"/>
      </g>
     </g>
     <g id="text_19">
      <!-- 1500 -->
      <g transform="translate(60.037594 282.920073)scale(0.1 -0.1)">
       <use xlink:href="#DejaVuSans-31"/>
       <use xlink:href="#DejaVuSans-35" x="63.623047"/>
       <use xlink:href="#DejaVuSans-30" x="127.246094"/>
       <use xlink:href="#DejaVuSans-30" x="190.869141"/>
      </g>
     </g>
    </g>
    <g id="xtick_14">
     <g id="line2d_18">
      <g>
       <use xlink:href="#mcf79326066" x="121.833268" y="268.321635" style="stroke: #000000; stroke-width: 0.8"/>
      </g>
     </g>
     <g id="text_20">
      <!-- 1750 -->
      <g transform="translate(109.108268 282.920073)scale(0.1 -0.1)">
       <defs>
        <path id="DejaVuSans-37" d="M 525 4666 
L 3525 4666 
L 3525 4397 
L 1831 0 
L 1172 0 
L 2766 4134 
L 525 4134 
L 525 4666 
z
" transform="scale(0.015625)"/>
       </defs>
       <use xlink:href="#DejaVuSans-31"/>
       <use xlink:href="#DejaVuSans-37" x="63.623047"/>
       <use xlink:href="#DejaVuSans-35" x="127.246094"/>
       <use xlink:href="#DejaVuSans-30" x="190.869141"/>
      </g>
     </g>
    </g>
    <g id="xtick_15">
     <g id="line2d_19">
      <g>
       <use xlink:href="#mcf79326066" x="170.903942" y="268.321635" style="stroke: #000000; stroke-width: 0.8"/>
      </g>
     </g>
     <g id="text_21">
      <!-- 2000 -->
      <g transform="translate(158.178942 282.920073)scale(0.1 -0.1)">
       <use xlink:href="#DejaVuSans-32"/>
       <use xlink:href="#DejaVuSans-30" x="63.623047"/>
       <use xlink:href="#DejaVuSans-30" x="127.246094"/>
       <use xlink:href="#DejaVuSans-30" x="190.869141"/>
      </g>
     </g>
    </g>
    <g id="xtick_16">
     <g id="line2d_20">
      <g>
       <use xlink:href="#mcf79326066" x="219.974617" y="268.321635" style="stroke: #000000; stroke-width: 0.8"/>
      </g>
     </g>
     <g id="text_22">
      <!-- 2250 -->
      <g transform="translate(207.249617 282.920073)scale(0.1 -0.1)">
       <use xlink:href="#DejaVuSans-32"/>
       <use xlink:href="#DejaVuSans-32" x="63.623047"/>
       <use xlink:href="#DejaVuSans-35" x="127.246094"/>
       <use xlink:href="#DejaVuSans-30" x="190.869141"/>
      </g>
     </g>
    </g>
    <g id="xtick_17">
     <g id="line2d_21">
      <g>
       <use xlink:href="#mcf79326066" x="269.045291" y="268.321635" style="stroke: #000000; stroke-width: 0.8"/>
      </g>
     </g>
     <g id="text_23">
      <!-- 2500 -->
      <g transform="translate(256.320291 282.920073)scale(0.1 -0.1)">
       <use xlink:href="#DejaVuSans-32"/>
       <use xlink:href="#DejaVuSans-35" x="63.623047"/>
       <use xlink:href="#DejaVuSans-30" x="127.246094"/>
       <use xlink:href="#DejaVuSans-30" x="190.869141"/>
      </g>
     </g>
    </g>
    <g id="xtick_18">
     <g id="line2d_22">
      <g>
       <use xlink:href="#mcf79326066" x="318.115965" y="268.321635" style="stroke: #000000; stroke-width: 0.8"/>
      </g>
     </g>
     <g id="text_24">
      <!-- 2750 -->
      <g transform="translate(305.390965 282.920073)scale(0.1 -0.1)">
       <use xlink:href="#DejaVuSans-32"/>
       <use xlink:href="#DejaVuSans-37" x="63.623047"/>
       <use xlink:href="#DejaVuSans-35" x="127.246094"/>
       <use xlink:href="#DejaVuSans-30" x="190.869141"/>
      </g>
     </g>
    </g>
    <g id="xtick_19">
     <g id="line2d_23">
      <g>
       <use xlink:href="#mcf79326066" x="367.186639" y="268.321635" style="stroke: #000000; stroke-width: 0.8"/>
      </g>
     </g>
     <g id="text_25">
      <!-- 3000 -->
      <g transform="translate(354.461639 282.920073)scale(0.1 -0.1)">
       <use xlink:href="#DejaVuSans-33"/>
       <use xlink:href="#DejaVuSans-30" x="63.623047"/>
       <use xlink:href="#DejaVuSans-30" x="127.246094"/>
       <use xlink:href="#DejaVuSans-30" x="190.869141"/>
      </g>
     </g>
    </g>
    <g id="xtick_20">
     <g id="line2d_24">
      <g>
       <use xlink:href="#mcf79326066" x="416.257313" y="268.321635" style="stroke: #000000; stroke-width: 0.8"/>
      </g>
     </g>
     <g id="text_26">
      <!-- 3250 -->
      <g transform="translate(403.532313 282.920073)scale(0.1 -0.1)">
       <use xlink:href="#DejaVuSans-33"/>
       <use xlink:href="#DejaVuSans-32" x="63.623047"/>
       <use xlink:href="#DejaVuSans-35" x="127.246094"/>
       <use xlink:href="#DejaVuSans-30" x="190.869141"/>
      </g>
     </g>
    </g>
   </g>
   <g id="matplotlib.axis_6">
    <g id="ytick_5">
     <g id="line2d_25">
      <g>
       <use xlink:href="#m9136297e03" x="22.72524" y="268.321635" style="stroke: #000000; stroke-width: 0.8"/>
      </g>
     </g>
     <g id="text_27">
      <!-- 0 -->
      <g transform="translate(9.36274 272.120854)scale(0.1 -0.1)">
       <use xlink:href="#DejaVuSans-30"/>
      </g>
     </g>
    </g>
    <g id="ytick_6">
     <g id="line2d_26">
      <g>
       <use xlink:href="#m9136297e03" x="22.72524" y="228.456408" style="stroke: #000000; stroke-width: 0.8"/>
      </g>
     </g>
     <g id="text_28">
      <!-- 20 -->
      <g transform="translate(3.00024 232.255627)scale(0.1 -0.1)">
       <use xlink:href="#DejaVuSans-32"/>
       <use xlink:href="#DejaVuSans-30" x="63.623047"/>
      </g>
     </g>
    </g>
   </g>
   <g id="patch_313">
    <path d="M 22.72524 268.321635 
L 22.72524 215.998525 
" style="fill: none; stroke: #000000; stroke-width: 0.8; stroke-linejoin: miter; stroke-linecap: square"/>
   </g>
   <g id="patch_314">
    <path d="M 422.850099 268.321635 
L 422.850099 215.998525 
" style="fill: none; stroke: #000000; stroke-width: 0.8; stroke-linejoin: miter; stroke-linecap: square"/>
   </g>
   <g id="patch_315">
    <path d="M 22.72524 268.321635 
L 422.850099 268.321635 
" style="fill: none; stroke: #000000; stroke-width: 0.8; stroke-linejoin: miter; stroke-linecap: square"/>
   </g>
   <g id="patch_316">
    <path d="M 22.72524 215.998525 
L 422.850099 215.998525 
" style="fill: none; stroke: #000000; stroke-width: 0.8; stroke-linejoin: miter; stroke-linecap: square"/>
   </g>
   <g id="text_29">
    <!-- $\nu_3$ -->
    <g transform="translate(216.547669 209.998525)scale(0.12 -0.12)">
     <use xlink:href="#DejaVuSans-Oblique-3bd" transform="translate(0 0.3125)"/>
     <use xlink:href="#DejaVuSans-33" transform="translate(55.859375 -16.09375)scale(0.7)"/>
    </g>
   </g>
  </g>
  <g id="text_30">
   <!-- Histogramme des $\nu$ -->
   <g transform="translate(157.5 12.12024)scale(0.12 -0.12)">
    <defs>
     <path id="DejaVuSans-48" d="M 628 4666 
L 1259 4666 
L 1259 2753 
L 3553 2753 
L 3553 4666 
L 4184 4666 
L 4184 0 
L 3553 0 
L 3553 2222 
L 1259 2222 
L 1259 0 
L 628 0 
L 628 4666 
z
" transform="scale(0.015625)"/>
     <path id="DejaVuSans-69" d="M 603 3500 
L 1178 3500 
L 1178 0 
L 603 0 
L 603 3500 
z
M 603 4863 
L 1178 4863 
L 1178 4134 
L 603 4134 
L 603 4863 
z
" transform="scale(0.015625)"/>
     <path id="DejaVuSans-73" d="M 2834 3397 
L 2834 2853 
Q 2591 2978 2328 3040 
Q 2066 3103 1784 3103 
Q 1356 3103 1142 2972 
Q 928 2841 928 2578 
Q 928 2378 1081 2264 
Q 1234 2150 1697 2047 
L 1894 2003 
Q 2506 1872 2764 1633 
Q 3022 1394 3022 966 
Q 3022 478 2636 193 
Q 2250 -91 1575 -91 
Q 1294 -91 989 -36 
Q 684 19 347 128 
L 347 722 
Q 666 556 975 473 
Q 1284 391 1588 391 
Q 1994 391 2212 530 
Q 2431 669 2431 922 
Q 2431 1156 2273 1281 
Q 2116 1406 1581 1522 
L 1381 1569 
Q 847 1681 609 1914 
Q 372 2147 372 2553 
Q 372 3047 722 3315 
Q 1072 3584 1716 3584 
Q 2034 3584 2315 3537 
Q 2597 3491 2834 3397 
z
" transform="scale(0.015625)"/>
     <path id="DejaVuSans-74" d="M 1172 4494 
L 1172 3500 
L 2356 3500 
L 2356 3053 
L 1172 3053 
L 1172 1153 
Q 1172 725 1289 603 
Q 1406 481 1766 481 
L 2356 481 
L 2356 0 
L 1766 0 
Q 1100 0 847 248 
Q 594 497 594 1153 
L 594 3053 
L 172 3053 
L 172 3500 
L 594 3500 
L 594 4494 
L 1172 4494 
z
" transform="scale(0.015625)"/>
     <path id="DejaVuSans-6f" d="M 1959 3097 
Q 1497 3097 1228 2736 
Q 959 2375 959 1747 
Q 959 1119 1226 758 
Q 1494 397 1959 397 
Q 2419 397 2687 759 
Q 2956 1122 2956 1747 
Q 2956 2369 2687 2733 
Q 2419 3097 1959 3097 
z
M 1959 3584 
Q 2709 3584 3137 3096 
Q 3566 2609 3566 1747 
Q 3566 888 3137 398 
Q 2709 -91 1959 -91 
Q 1206 -91 779 398 
Q 353 888 353 1747 
Q 353 2609 779 3096 
Q 1206 3584 1959 3584 
z
" transform="scale(0.015625)"/>
     <path id="DejaVuSans-67" d="M 2906 1791 
Q 2906 2416 2648 2759 
Q 2391 3103 1925 3103 
Q 1463 3103 1205 2759 
Q 947 2416 947 1791 
Q 947 1169 1205 825 
Q 1463 481 1925 481 
Q 2391 481 2648 825 
Q 2906 1169 2906 1791 
z
M 3481 434 
Q 3481 -459 3084 -895 
Q 2688 -1331 1869 -1331 
Q 1566 -1331 1297 -1286 
Q 1028 -1241 775 -1147 
L 775 -588 
Q 1028 -725 1275 -790 
Q 1522 -856 1778 -856 
Q 2344 -856 2625 -561 
Q 2906 -266 2906 331 
L 2906 616 
Q 2728 306 2450 153 
Q 2172 0 1784 0 
Q 1141 0 747 490 
Q 353 981 353 1791 
Q 353 2603 747 3093 
Q 1141 3584 1784 3584 
Q 2172 3584 2450 3431 
Q 2728 3278 2906 2969 
L 2906 3500 
L 3481 3500 
L 3481 434 
z
" transform="scale(0.015625)"/>
     <path id="DejaVuSans-72" d="M 2631 2963 
Q 2534 3019 2420 3045 
Q 2306 3072 2169 3072 
Q 1681 3072 1420 2755 
Q 1159 2438 1159 1844 
L 1159 0 
L 581 0 
L 581 3500 
L 1159 3500 
L 1159 2956 
Q 1341 3275 1631 3429 
Q 1922 3584 2338 3584 
Q 2397 3584 2469 3576 
Q 2541 3569 2628 3553 
L 2631 2963 
z
" transform="scale(0.015625)"/>
     <path id="DejaVuSans-61" d="M 2194 1759 
Q 1497 1759 1228 1600 
Q 959 1441 959 1056 
Q 959 750 1161 570 
Q 1363 391 1709 391 
Q 2188 391 2477 730 
Q 2766 1069 2766 1631 
L 2766 1759 
L 2194 1759 
z
M 3341 1997 
L 3341 0 
L 2766 0 
L 2766 531 
Q 2569 213 2275 61 
Q 1981 -91 1556 -91 
Q 1019 -91 701 211 
Q 384 513 384 1019 
Q 384 1609 779 1909 
Q 1175 2209 1959 2209 
L 2766 2209 
L 2766 2266 
Q 2766 2663 2505 2880 
Q 2244 3097 1772 3097 
Q 1472 3097 1187 3025 
Q 903 2953 641 2809 
L 641 3341 
Q 956 3463 1253 3523 
Q 1550 3584 1831 3584 
Q 2591 3584 2966 3190 
Q 3341 2797 3341 1997 
z
" transform="scale(0.015625)"/>
     <path id="DejaVuSans-6d" d="M 3328 2828 
Q 3544 3216 3844 3400 
Q 4144 3584 4550 3584 
Q 5097 3584 5394 3201 
Q 5691 2819 5691 2113 
L 5691 0 
L 5113 0 
L 5113 2094 
Q 5113 2597 4934 2840 
Q 4756 3084 4391 3084 
Q 3944 3084 3684 2787 
Q 3425 2491 3425 1978 
L 3425 0 
L 2847 0 
L 2847 2094 
Q 2847 2600 2669 2842 
Q 2491 3084 2119 3084 
Q 1678 3084 1418 2786 
Q 1159 2488 1159 1978 
L 1159 0 
L 581 0 
L 581 3500 
L 1159 3500 
L 1159 2956 
Q 1356 3278 1631 3431 
Q 1906 3584 2284 3584 
Q 2666 3584 2933 3390 
Q 3200 3197 3328 2828 
z
" transform="scale(0.015625)"/>
     <path id="DejaVuSans-65" d="M 3597 1894 
L 3597 1613 
L 953 1613 
Q 991 1019 1311 708 
Q 1631 397 2203 397 
Q 2534 397 2845 478 
Q 3156 559 3463 722 
L 3463 178 
Q 3153 47 2828 -22 
Q 2503 -91 2169 -91 
Q 1331 -91 842 396 
Q 353 884 353 1716 
Q 353 2575 817 3079 
Q 1281 3584 2069 3584 
Q 2775 3584 3186 3129 
Q 3597 2675 3597 1894 
z
M 3022 2063 
Q 3016 2534 2758 2815 
Q 2500 3097 2075 3097 
Q 1594 3097 1305 2825 
Q 1016 2553 972 2059 
L 3022 2063 
z
" transform="scale(0.015625)"/>
     <path id="DejaVuSans-20" transform="scale(0.015625)"/>
     <path id="DejaVuSans-64" d="M 2906 2969 
L 2906 4863 
L 3481 4863 
L 3481 0 
L 2906 0 
L 2906 525 
Q 2725 213 2448 61 
Q 2172 -91 1784 -91 
Q 1150 -91 751 415 
Q 353 922 353 1747 
Q 353 2572 751 3078 
Q 1150 3584 1784 3584 
Q 2172 3584 2448 3432 
Q 2725 3281 2906 2969 
z
M 947 1747 
Q 947 1113 1208 752 
Q 1469 391 1925 391 
Q 2381 391 2643 752 
Q 2906 1113 2906 1747 
Q 2906 2381 2643 2742 
Q 2381 3103 1925 3103 
Q 1469 3103 1208 2742 
Q 947 2381 947 1747 
z
" transform="scale(0.015625)"/>
    </defs>
    <use xlink:href="#DejaVuSans-48" transform="translate(0 0.015625)"/>
    <use xlink:href="#DejaVuSans-69" transform="translate(75.195312 0.015625)"/>
    <use xlink:href="#DejaVuSans-73" transform="translate(102.978516 0.015625)"/>
    <use xlink:href="#DejaVuSans-74" transform="translate(155.078125 0.015625)"/>
    <use xlink:href="#DejaVuSans-6f" transform="translate(194.287109 0.015625)"/>
    <use xlink:href="#DejaVuSans-67" transform="translate(255.46875 0.015625)"/>
    <use xlink:href="#DejaVuSans-72" transform="translate(318.945312 0.015625)"/>
    <use xlink:href="#DejaVuSans-61" transform="translate(360.058594 0.015625)"/>
    <use xlink:href="#DejaVuSans-6d" transform="translate(421.337891 0.015625)"/>
    <use xlink:href="#DejaVuSans-6d" transform="translate(518.75 0.015625)"/>
    <use xlink:href="#DejaVuSans-65" transform="translate(616.162109 0.015625)"/>
    <use xlink:href="#DejaVuSans-20" transform="translate(677.685547 0.015625)"/>
    <use xlink:href="#DejaVuSans-64" transform="translate(709.472656 0.015625)"/>
    <use xlink:href="#DejaVuSans-65" transform="translate(772.949219 0.015625)"/>
    <use xlink:href="#DejaVuSans-73" transform="translate(834.472656 0.015625)"/>
    <use xlink:href="#DejaVuSans-20" transform="translate(886.572266 0.015625)"/>
    <use xlink:href="#DejaVuSans-Oblique-3bd" transform="translate(918.359375 0.015625)"/>
   </g>
  </g>
  <g id="text_31">
   <!-- Masse (GeV) -->
   <g transform="translate(184.474219 302.4)scale(0.1 -0.1)">
    <defs>
     <path id="DejaVuSans-4d" d="M 628 4666 
L 1569 4666 
L 2759 1491 
L 3956 4666 
L 4897 4666 
L 4897 0 
L 4281 0 
L 4281 4097 
L 3078 897 
L 2444 897 
L 1241 4097 
L 1241 0 
L 628 0 
L 628 4666 
z
" transform="scale(0.015625)"/>
     <path id="DejaVuSans-28" d="M 1984 4856 
Q 1566 4138 1362 3434 
Q 1159 2731 1159 2009 
Q 1159 1288 1364 580 
Q 1569 -128 1984 -844 
L 1484 -844 
Q 1016 -109 783 600 
Q 550 1309 550 2009 
Q 550 2706 781 3412 
Q 1013 4119 1484 4856 
L 1984 4856 
z
" transform="scale(0.015625)"/>
     <path id="DejaVuSans-47" d="M 3809 666 
L 3809 1919 
L 2778 1919 
L 2778 2438 
L 4434 2438 
L 4434 434 
Q 4069 175 3628 42 
Q 3188 -91 2688 -91 
Q 1594 -91 976 548 
Q 359 1188 359 2328 
Q 359 3472 976 4111 
Q 1594 4750 2688 4750 
Q 3144 4750 3555 4637 
Q 3966 4525 4313 4306 
L 4313 3634 
Q 3963 3931 3569 4081 
Q 3175 4231 2741 4231 
Q 1884 4231 1454 3753 
Q 1025 3275 1025 2328 
Q 1025 1384 1454 906 
Q 1884 428 2741 428 
Q 3075 428 3337 486 
Q 3600 544 3809 666 
z
" transform="scale(0.015625)"/>
     <path id="DejaVuSans-56" d="M 1831 0 
L 50 4666 
L 709 4666 
L 2188 738 
L 3669 4666 
L 4325 4666 
L 2547 0 
L 1831 0 
z
" transform="scale(0.015625)"/>
     <path id="DejaVuSans-29" d="M 513 4856 
L 1013 4856 
Q 1481 4119 1714 3412 
Q 1947 2706 1947 2009 
Q 1947 1309 1714 600 
Q 1481 -109 1013 -844 
L 513 -844 
Q 928 -128 1133 580 
Q 1338 1288 1338 2009 
Q 1338 2731 1133 3434 
Q 928 4138 513 4856 
z
" transform="scale(0.015625)"/>
    </defs>
    <use xlink:href="#DejaVuSans-4d"/>
    <use xlink:href="#DejaVuSans-61" x="86.279297"/>
    <use xlink:href="#DejaVuSans-73" x="147.558594"/>
    <use xlink:href="#DejaVuSans-73" x="199.658203"/>
    <use xlink:href="#DejaVuSans-65" x="251.757812"/>
    <use xlink:href="#DejaVuSans-20" x="313.28125"/>
    <use xlink:href="#DejaVuSans-28" x="345.068359"/>
    <use xlink:href="#DejaVuSans-47" x="384.082031"/>
    <use xlink:href="#DejaVuSans-65" x="461.572266"/>
    <use xlink:href="#DejaVuSans-56" x="523.095703"/>
    <use xlink:href="#DejaVuSans-29" x="591.503906"/>
   </g>
  </g>
  <g id="text_32">
   <!-- N -->
   <g transform="translate(-9.681563 147.740625)rotate(-90)scale(0.1 -0.1)">
    <defs>
     <path id="DejaVuSans-4e" d="M 628 4666 
L 1478 4666 
L 3547 763 
L 3547 4666 
L 4159 4666 
L 4159 0 
L 3309 0 
L 1241 3903 
L 1241 0 
L 628 0 
L 628 4666 
z
" transform="scale(0.015625)"/>
    </defs>
    <use xlink:href="#DejaVuSans-4e"/>
   </g>
  </g>
 </g>
 <defs>
  <clipPath id="p56e190625f">
   <rect x="22.72524" y="35.758845" width="400.124859" height="52.32311"/>
  </clipPath>
  <clipPath id="p25495b91a8">
   <rect x="22.72524" y="125.878685" width="400.124859" height="52.32311"/>
  </clipPath>
  <clipPath id="p009aa6f19c">
   <rect x="22.72524" y="215.998525" width="400.124859" height="52.32311"/>
  </clipPath>
 </defs>
</svg>
