<?xml version="1.0" encoding="utf-8" standalone="no"?>
<!DOCTYPE svg PUBLIC "-//W3C//DTD SVG 1.1//EN"
  "http://www.w3.org/Graphics/SVG/1.1/DTD/svg11.dtd">
<svg xmlns:xlink="http://www.w3.org/1999/xlink" width="453.47976pt" height="308.756589pt" viewBox="0 0 453.47976 308.756589" xmlns="http://www.w3.org/2000/svg" version="1.1">
 <metadata>
  <rdf:RDF xmlns:dc="http://purl.org/dc/elements/1.1/" xmlns:cc="http://creativecommons.org/ns#" xmlns:rdf="http://www.w3.org/1999/02/22-rdf-syntax-ns#">
   <cc:Work>
    <dc:type rdf:resource="http://purl.org/dc/dcmitype/StillImage"/>
    <dc:date>2022-06-09T10:25:20.473679</dc:date>
    <dc:format>image/svg+xml</dc:format>
    <dc:creator>
     <cc:Agent>
      <dc:title>Matplotlib v3.5.2, https://matplotlib.org/</dc:title>
     </cc:Agent>
    </dc:creator>
   </cc:Work>
  </rdf:RDF>
 </metadata>
 <defs>
  <style type="text/css">*{stroke-linejoin: round; stroke-linecap: butt}</style>
 </defs>
 <g id="figure_1">
  <g id="patch_1">
   <path d="M 0 308.756589 
L 453.47976 308.756589 
L 453.47976 0 
L 0 0 
L 0 308.756589 
z
" style="fill: none"/>
  </g>
  <g id="axes_1">
   <g id="patch_2">
    <path d="M 47.30552 137.565072 
L 449.87976 137.565072 
L 449.87976 32.494206 
L 47.30552 32.494206 
z
" style="fill: #ffffff"/>
   </g>
   <g id="matplotlib.axis_1">
    <g id="xtick_1">
     <g id="line2d_1">
      <defs>
       <path id="m8416c25d58" d="M 0 0 
L 0 -3 
" style="stroke: #000000; stroke-width: 0.5"/>
      </defs>
      <g>
       <use xlink:href="#m8416c25d58" x="61.906925" y="137.565072" style="stroke: #000000; stroke-width: 0.5"/>
      </g>
     </g>
     <g id="line2d_2">
      <defs>
       <path id="mf4963caa61" d="M 0 0 
L 0 3 
" style="stroke: #000000; stroke-width: 0.5"/>
      </defs>
      <g>
       <use xlink:href="#mf4963caa61" x="61.906925" y="32.494206" style="stroke: #000000; stroke-width: 0.5"/>
      </g>
     </g>
     <g id="text_1">
      <!-- $\mathdefault{0}$ -->
      <g transform="translate(59.416265 147.81965)scale(0.1 -0.1)">
       <defs>
        <path id="NimbusRomNo9L-Regu-30" d="M 1626 4352 
C 1274 4352 1005 4244 768 4020 
C 397 3661 154 2925 154 2176 
C 154 1479 365 730 666 372 
C 902 90 1229 -64 1600 -64 
C 1926 -64 2202 45 2432 269 
C 2803 621 3046 1364 3046 2138 
C 3046 3450 2464 4352 1626 4352 
z
M 1606 4186 
C 2144 4186 2432 3463 2432 2125 
C 2432 788 2150 103 1600 103 
C 1050 103 768 788 768 2119 
C 768 3476 1056 4186 1606 4186 
z
" transform="scale(0.015625)"/>
       </defs>
       <use xlink:href="#NimbusRomNo9L-Regu-30" transform="scale(0.996264)"/>
      </g>
     </g>
    </g>
    <g id="xtick_2">
     <g id="line2d_3">
      <g>
       <use xlink:href="#m8416c25d58" x="135.841747" y="137.565072" style="stroke: #000000; stroke-width: 0.5"/>
      </g>
     </g>
     <g id="line2d_4">
      <g>
       <use xlink:href="#mf4963caa61" x="135.841747" y="32.494206" style="stroke: #000000; stroke-width: 0.5"/>
      </g>
     </g>
     <g id="text_2">
      <!-- $\mathdefault{1000}$ -->
      <g transform="translate(125.879107 147.81965)scale(0.1 -0.1)">
       <defs>
        <path id="NimbusRomNo9L-Regu-31" d="M 1862 4339 
L 710 3757 
L 710 3667 
C 787 3699 858 3725 883 3738 
C 998 3783 1107 3808 1171 3808 
C 1306 3808 1363 3711 1363 3505 
L 1363 592 
C 1363 379 1312 232 1210 173 
C 1114 116 1024 96 755 96 
L 755 0 
L 2522 0 
L 2522 96 
C 2016 96 1914 160 1914 470 
L 1914 4327 
L 1862 4339 
z
" transform="scale(0.015625)"/>
       </defs>
       <use xlink:href="#NimbusRomNo9L-Regu-31" transform="scale(0.996264)"/>
       <use xlink:href="#NimbusRomNo9L-Regu-30" transform="translate(49.8132 0)scale(0.996264)"/>
       <use xlink:href="#NimbusRomNo9L-Regu-30" transform="translate(99.626401 0)scale(0.996264)"/>
       <use xlink:href="#NimbusRomNo9L-Regu-30" transform="translate(149.439601 0)scale(0.996264)"/>
      </g>
     </g>
    </g>
    <g id="xtick_3">
     <g id="line2d_5">
      <g>
       <use xlink:href="#m8416c25d58" x="209.776569" y="137.565072" style="stroke: #000000; stroke-width: 0.5"/>
      </g>
     </g>
     <g id="line2d_6">
      <g>
       <use xlink:href="#mf4963caa61" x="209.776569" y="32.494206" style="stroke: #000000; stroke-width: 0.5"/>
      </g>
     </g>
     <g id="text_3">
      <!-- $\mathdefault{2000}$ -->
      <g transform="translate(199.813929 147.81965)scale(0.1 -0.1)">
       <defs>
        <path id="NimbusRomNo9L-Regu-32" d="M 3040 875 
L 2957 907 
C 2720 544 2637 486 2349 486 
L 819 486 
L 1894 1609 
C 2464 2202 2714 2687 2714 3185 
C 2714 3823 2195 4313 1530 4313 
C 1178 4313 845 4173 608 3918 
C 403 3700 307 3496 198 3043 
L 333 3011 
C 589 3636 819 3840 1261 3840 
C 1798 3840 2163 3476 2163 2940 
C 2163 2443 1869 1850 1331 1282 
L 192 77 
L 192 0 
L 2688 0 
L 3040 875 
z
" transform="scale(0.015625)"/>
       </defs>
       <use xlink:href="#NimbusRomNo9L-Regu-32" transform="scale(0.996264)"/>
       <use xlink:href="#NimbusRomNo9L-Regu-30" transform="translate(49.8132 0)scale(0.996264)"/>
       <use xlink:href="#NimbusRomNo9L-Regu-30" transform="translate(99.626401 0)scale(0.996264)"/>
       <use xlink:href="#NimbusRomNo9L-Regu-30" transform="translate(149.439601 0)scale(0.996264)"/>
      </g>
     </g>
    </g>
    <g id="xtick_4">
     <g id="line2d_7">
      <g>
       <use xlink:href="#m8416c25d58" x="283.711391" y="137.565072" style="stroke: #000000; stroke-width: 0.5"/>
      </g>
     </g>
     <g id="line2d_8">
      <g>
       <use xlink:href="#mf4963caa61" x="283.711391" y="32.494206" style="stroke: #000000; stroke-width: 0.5"/>
      </g>
     </g>
     <g id="text_4">
      <!-- $\mathdefault{3000}$ -->
      <g transform="translate(273.748751 147.81965)scale(0.1 -0.1)">
       <defs>
        <path id="NimbusRomNo9L-Regu-33" d="M 979 2138 
C 1357 2138 1504 2125 1658 2068 
C 2054 1927 2304 1562 2304 1120 
C 2304 583 1939 167 1466 167 
C 1293 167 1165 212 928 365 
C 736 480 627 525 518 525 
C 371 525 275 436 275 301 
C 275 77 550 -64 998 -64 
C 1491 -64 1997 103 2298 365 
C 2598 628 2765 999 2765 1428 
C 2765 1754 2662 2055 2477 2253 
C 2349 2394 2227 2471 1946 2592 
C 2387 2893 2547 3130 2547 3476 
C 2547 3994 2138 4352 1549 4352 
C 1229 4352 947 4244 717 4039 
C 525 3866 429 3699 288 3315 
L 384 3290 
C 646 3757 934 3968 1338 3968 
C 1754 3968 2042 3687 2042 3284 
C 2042 3053 1946 2823 1786 2663 
C 1594 2471 1414 2375 979 2221 
L 979 2138 
z
" transform="scale(0.015625)"/>
       </defs>
       <use xlink:href="#NimbusRomNo9L-Regu-33" transform="scale(0.996264)"/>
       <use xlink:href="#NimbusRomNo9L-Regu-30" transform="translate(49.8132 0)scale(0.996264)"/>
       <use xlink:href="#NimbusRomNo9L-Regu-30" transform="translate(99.626401 0)scale(0.996264)"/>
       <use xlink:href="#NimbusRomNo9L-Regu-30" transform="translate(149.439601 0)scale(0.996264)"/>
      </g>
     </g>
    </g>
    <g id="xtick_5">
     <g id="line2d_9">
      <g>
       <use xlink:href="#m8416c25d58" x="357.646213" y="137.565072" style="stroke: #000000; stroke-width: 0.5"/>
      </g>
     </g>
     <g id="line2d_10">
      <g>
       <use xlink:href="#mf4963caa61" x="357.646213" y="32.494206" style="stroke: #000000; stroke-width: 0.5"/>
      </g>
     </g>
     <g id="text_5">
      <!-- $\mathdefault{4000}$ -->
      <g transform="translate(347.683573 147.81965)scale(0.1 -0.1)">
       <defs>
        <path id="NimbusRomNo9L-Regu-34" d="M 3021 1497 
L 2368 1497 
L 2368 4352 
L 2086 4352 
L 77 1497 
L 77 1088 
L 1875 1088 
L 1875 32 
L 2368 32 
L 2368 1088 
L 3021 1088 
L 3021 1497 
z
M 1869 1497 
L 333 1497 
L 1869 3698 
L 1869 1497 
z
" transform="scale(0.015625)"/>
       </defs>
       <use xlink:href="#NimbusRomNo9L-Regu-34" transform="scale(0.996264)"/>
       <use xlink:href="#NimbusRomNo9L-Regu-30" transform="translate(49.8132 0)scale(0.996264)"/>
       <use xlink:href="#NimbusRomNo9L-Regu-30" transform="translate(99.626401 0)scale(0.996264)"/>
       <use xlink:href="#NimbusRomNo9L-Regu-30" transform="translate(149.439601 0)scale(0.996264)"/>
      </g>
     </g>
    </g>
    <g id="xtick_6">
     <g id="line2d_11">
      <g>
       <use xlink:href="#m8416c25d58" x="431.581035" y="137.565072" style="stroke: #000000; stroke-width: 0.5"/>
      </g>
     </g>
     <g id="line2d_12">
      <g>
       <use xlink:href="#mf4963caa61" x="431.581035" y="32.494206" style="stroke: #000000; stroke-width: 0.5"/>
      </g>
     </g>
     <g id="text_6">
      <!-- $\mathdefault{5000}$ -->
      <g transform="translate(421.618395 147.81965)scale(0.1 -0.1)">
       <defs>
        <path id="NimbusRomNo9L-Regu-35" d="M 1158 3776 
L 2413 3776 
C 2515 3776 2541 3789 2560 3834 
L 2803 4403 
L 2746 4448 
C 2650 4314 2586 4282 2451 4282 
L 1114 4282 
L 416 2759 
C 410 2746 410 2740 410 2727 
C 410 2695 435 2676 486 2676 
C 691 2676 947 2631 1210 2547 
C 1946 2309 2285 1910 2285 1274 
C 2285 656 1894 173 1395 173 
C 1267 173 1158 218 966 360 
C 762 508 614 572 480 572 
C 294 572 205 495 205 334 
C 205 90 506 -64 986 -64 
C 1523 -64 1984 110 2304 438 
C 2598 728 2733 1094 2733 1583 
C 2733 2046 2611 2342 2291 2663 
C 2010 2947 1645 3094 890 3229 
L 1158 3776 
z
" transform="scale(0.015625)"/>
       </defs>
       <use xlink:href="#NimbusRomNo9L-Regu-35" transform="scale(0.996264)"/>
       <use xlink:href="#NimbusRomNo9L-Regu-30" transform="translate(49.8132 0)scale(0.996264)"/>
       <use xlink:href="#NimbusRomNo9L-Regu-30" transform="translate(99.626401 0)scale(0.996264)"/>
       <use xlink:href="#NimbusRomNo9L-Regu-30" transform="translate(149.439601 0)scale(0.996264)"/>
      </g>
     </g>
    </g>
    <g id="xtick_7">
     <g id="line2d_13">
      <defs>
       <path id="m6bba2171c3" d="M 0 0 
L 0 -1.5 
" style="stroke: #000000; stroke-width: 0.5"/>
      </defs>
      <g>
       <use xlink:href="#m6bba2171c3" x="76.693889" y="137.565072" style="stroke: #000000; stroke-width: 0.5"/>
      </g>
     </g>
     <g id="line2d_14">
      <defs>
       <path id="m04f5491f97" d="M 0 0 
L 0 1.5 
" style="stroke: #000000; stroke-width: 0.5"/>
      </defs>
      <g>
       <use xlink:href="#m04f5491f97" x="76.693889" y="32.494206" style="stroke: #000000; stroke-width: 0.5"/>
      </g>
     </g>
    </g>
    <g id="xtick_8">
     <g id="line2d_15">
      <g>
       <use xlink:href="#m6bba2171c3" x="91.480854" y="137.565072" style="stroke: #000000; stroke-width: 0.5"/>
      </g>
     </g>
     <g id="line2d_16">
      <g>
       <use xlink:href="#m04f5491f97" x="91.480854" y="32.494206" style="stroke: #000000; stroke-width: 0.5"/>
      </g>
     </g>
    </g>
    <g id="xtick_9">
     <g id="line2d_17">
      <g>
       <use xlink:href="#m6bba2171c3" x="106.267818" y="137.565072" style="stroke: #000000; stroke-width: 0.5"/>
      </g>
     </g>
     <g id="line2d_18">
      <g>
       <use xlink:href="#m04f5491f97" x="106.267818" y="32.494206" style="stroke: #000000; stroke-width: 0.5"/>
      </g>
     </g>
    </g>
    <g id="xtick_10">
     <g id="line2d_19">
      <g>
       <use xlink:href="#m6bba2171c3" x="121.054783" y="137.565072" style="stroke: #000000; stroke-width: 0.5"/>
      </g>
     </g>
     <g id="line2d_20">
      <g>
       <use xlink:href="#m04f5491f97" x="121.054783" y="32.494206" style="stroke: #000000; stroke-width: 0.5"/>
      </g>
     </g>
    </g>
    <g id="xtick_11">
     <g id="line2d_21">
      <g>
       <use xlink:href="#m6bba2171c3" x="150.628711" y="137.565072" style="stroke: #000000; stroke-width: 0.5"/>
      </g>
     </g>
     <g id="line2d_22">
      <g>
       <use xlink:href="#m04f5491f97" x="150.628711" y="32.494206" style="stroke: #000000; stroke-width: 0.5"/>
      </g>
     </g>
    </g>
    <g id="xtick_12">
     <g id="line2d_23">
      <g>
       <use xlink:href="#m6bba2171c3" x="165.415676" y="137.565072" style="stroke: #000000; stroke-width: 0.5"/>
      </g>
     </g>
     <g id="line2d_24">
      <g>
       <use xlink:href="#m04f5491f97" x="165.415676" y="32.494206" style="stroke: #000000; stroke-width: 0.5"/>
      </g>
     </g>
    </g>
    <g id="xtick_13">
     <g id="line2d_25">
      <g>
       <use xlink:href="#m6bba2171c3" x="180.20264" y="137.565072" style="stroke: #000000; stroke-width: 0.5"/>
      </g>
     </g>
     <g id="line2d_26">
      <g>
       <use xlink:href="#m04f5491f97" x="180.20264" y="32.494206" style="stroke: #000000; stroke-width: 0.5"/>
      </g>
     </g>
    </g>
    <g id="xtick_14">
     <g id="line2d_27">
      <g>
       <use xlink:href="#m6bba2171c3" x="194.989605" y="137.565072" style="stroke: #000000; stroke-width: 0.5"/>
      </g>
     </g>
     <g id="line2d_28">
      <g>
       <use xlink:href="#m04f5491f97" x="194.989605" y="32.494206" style="stroke: #000000; stroke-width: 0.5"/>
      </g>
     </g>
    </g>
    <g id="xtick_15">
     <g id="line2d_29">
      <g>
       <use xlink:href="#m6bba2171c3" x="224.563533" y="137.565072" style="stroke: #000000; stroke-width: 0.5"/>
      </g>
     </g>
     <g id="line2d_30">
      <g>
       <use xlink:href="#m04f5491f97" x="224.563533" y="32.494206" style="stroke: #000000; stroke-width: 0.5"/>
      </g>
     </g>
    </g>
    <g id="xtick_16">
     <g id="line2d_31">
      <g>
       <use xlink:href="#m6bba2171c3" x="239.350498" y="137.565072" style="stroke: #000000; stroke-width: 0.5"/>
      </g>
     </g>
     <g id="line2d_32">
      <g>
       <use xlink:href="#m04f5491f97" x="239.350498" y="32.494206" style="stroke: #000000; stroke-width: 0.5"/>
      </g>
     </g>
    </g>
    <g id="xtick_17">
     <g id="line2d_33">
      <g>
       <use xlink:href="#m6bba2171c3" x="254.137462" y="137.565072" style="stroke: #000000; stroke-width: 0.5"/>
      </g>
     </g>
     <g id="line2d_34">
      <g>
       <use xlink:href="#m04f5491f97" x="254.137462" y="32.494206" style="stroke: #000000; stroke-width: 0.5"/>
      </g>
     </g>
    </g>
    <g id="xtick_18">
     <g id="line2d_35">
      <g>
       <use xlink:href="#m6bba2171c3" x="268.924427" y="137.565072" style="stroke: #000000; stroke-width: 0.5"/>
      </g>
     </g>
     <g id="line2d_36">
      <g>
       <use xlink:href="#m04f5491f97" x="268.924427" y="32.494206" style="stroke: #000000; stroke-width: 0.5"/>
      </g>
     </g>
    </g>
    <g id="xtick_19">
     <g id="line2d_37">
      <g>
       <use xlink:href="#m6bba2171c3" x="298.498355" y="137.565072" style="stroke: #000000; stroke-width: 0.5"/>
      </g>
     </g>
     <g id="line2d_38">
      <g>
       <use xlink:href="#m04f5491f97" x="298.498355" y="32.494206" style="stroke: #000000; stroke-width: 0.5"/>
      </g>
     </g>
    </g>
    <g id="xtick_20">
     <g id="line2d_39">
      <g>
       <use xlink:href="#m6bba2171c3" x="313.28532" y="137.565072" style="stroke: #000000; stroke-width: 0.5"/>
      </g>
     </g>
     <g id="line2d_40">
      <g>
       <use xlink:href="#m04f5491f97" x="313.28532" y="32.494206" style="stroke: #000000; stroke-width: 0.5"/>
      </g>
     </g>
    </g>
    <g id="xtick_21">
     <g id="line2d_41">
      <g>
       <use xlink:href="#m6bba2171c3" x="328.072284" y="137.565072" style="stroke: #000000; stroke-width: 0.5"/>
      </g>
     </g>
     <g id="line2d_42">
      <g>
       <use xlink:href="#m04f5491f97" x="328.072284" y="32.494206" style="stroke: #000000; stroke-width: 0.5"/>
      </g>
     </g>
    </g>
    <g id="xtick_22">
     <g id="line2d_43">
      <g>
       <use xlink:href="#m6bba2171c3" x="342.859249" y="137.565072" style="stroke: #000000; stroke-width: 0.5"/>
      </g>
     </g>
     <g id="line2d_44">
      <g>
       <use xlink:href="#m04f5491f97" x="342.859249" y="32.494206" style="stroke: #000000; stroke-width: 0.5"/>
      </g>
     </g>
    </g>
    <g id="xtick_23">
     <g id="line2d_45">
      <g>
       <use xlink:href="#m6bba2171c3" x="372.433177" y="137.565072" style="stroke: #000000; stroke-width: 0.5"/>
      </g>
     </g>
     <g id="line2d_46">
      <g>
       <use xlink:href="#m04f5491f97" x="372.433177" y="32.494206" style="stroke: #000000; stroke-width: 0.5"/>
      </g>
     </g>
    </g>
    <g id="xtick_24">
     <g id="line2d_47">
      <g>
       <use xlink:href="#m6bba2171c3" x="387.220142" y="137.565072" style="stroke: #000000; stroke-width: 0.5"/>
      </g>
     </g>
     <g id="line2d_48">
      <g>
       <use xlink:href="#m04f5491f97" x="387.220142" y="32.494206" style="stroke: #000000; stroke-width: 0.5"/>
      </g>
     </g>
    </g>
    <g id="xtick_25">
     <g id="line2d_49">
      <g>
       <use xlink:href="#m6bba2171c3" x="402.007106" y="137.565072" style="stroke: #000000; stroke-width: 0.5"/>
      </g>
     </g>
     <g id="line2d_50">
      <g>
       <use xlink:href="#m04f5491f97" x="402.007106" y="32.494206" style="stroke: #000000; stroke-width: 0.5"/>
      </g>
     </g>
    </g>
    <g id="xtick_26">
     <g id="line2d_51">
      <g>
       <use xlink:href="#m6bba2171c3" x="416.794071" y="137.565072" style="stroke: #000000; stroke-width: 0.5"/>
      </g>
     </g>
     <g id="line2d_52">
      <g>
       <use xlink:href="#m04f5491f97" x="416.794071" y="32.494206" style="stroke: #000000; stroke-width: 0.5"/>
      </g>
     </g>
    </g>
    <g id="xtick_27">
     <g id="line2d_53">
      <g>
       <use xlink:href="#m6bba2171c3" x="446.367999" y="137.565072" style="stroke: #000000; stroke-width: 0.5"/>
      </g>
     </g>
     <g id="line2d_54">
      <g>
       <use xlink:href="#m04f5491f97" x="446.367999" y="32.494206" style="stroke: #000000; stroke-width: 0.5"/>
      </g>
     </g>
    </g>
   </g>
   <g id="matplotlib.axis_2">
    <g id="ytick_1">
     <g id="line2d_55">
      <defs>
       <path id="md4d5f62f23" d="M 0 0 
L 3 0 
" style="stroke: #000000; stroke-width: 0.5"/>
      </defs>
      <g>
       <use xlink:href="#md4d5f62f23" x="47.30552" y="137.565072" style="stroke: #000000; stroke-width: 0.5"/>
      </g>
     </g>
     <g id="line2d_56">
      <defs>
       <path id="me98ed74742" d="M 0 0 
L -3 0 
" style="stroke: #000000; stroke-width: 0.5"/>
      </defs>
      <g>
       <use xlink:href="#me98ed74742" x="449.87976" y="137.565072" style="stroke: #000000; stroke-width: 0.5"/>
      </g>
     </g>
     <g id="text_7">
      <!-- $\mathdefault{0}$ -->
      <g transform="translate(38.8242 140.942361)scale(0.1 -0.1)">
       <use xlink:href="#NimbusRomNo9L-Regu-30" transform="scale(0.996264)"/>
      </g>
     </g>
    </g>
    <g id="ytick_2">
     <g id="line2d_57">
      <g>
       <use xlink:href="#md4d5f62f23" x="47.30552" y="98.756659" style="stroke: #000000; stroke-width: 0.5"/>
      </g>
     </g>
     <g id="line2d_58">
      <g>
       <use xlink:href="#me98ed74742" x="449.87976" y="98.756659" style="stroke: #000000; stroke-width: 0.5"/>
      </g>
     </g>
     <g id="text_8">
      <!-- $\mathdefault{2000}$ -->
      <g transform="translate(23.88024 102.133948)scale(0.1 -0.1)">
       <use xlink:href="#NimbusRomNo9L-Regu-32" transform="scale(0.996264)"/>
       <use xlink:href="#NimbusRomNo9L-Regu-30" transform="translate(49.8132 0)scale(0.996264)"/>
       <use xlink:href="#NimbusRomNo9L-Regu-30" transform="translate(99.626401 0)scale(0.996264)"/>
       <use xlink:href="#NimbusRomNo9L-Regu-30" transform="translate(149.439601 0)scale(0.996264)"/>
      </g>
     </g>
    </g>
    <g id="ytick_3">
     <g id="line2d_59">
      <g>
       <use xlink:href="#md4d5f62f23" x="47.30552" y="59.948247" style="stroke: #000000; stroke-width: 0.5"/>
      </g>
     </g>
     <g id="line2d_60">
      <g>
       <use xlink:href="#me98ed74742" x="449.87976" y="59.948247" style="stroke: #000000; stroke-width: 0.5"/>
      </g>
     </g>
     <g id="text_9">
      <!-- $\mathdefault{4000}$ -->
      <g transform="translate(23.88024 63.325536)scale(0.1 -0.1)">
       <use xlink:href="#NimbusRomNo9L-Regu-34" transform="scale(0.996264)"/>
       <use xlink:href="#NimbusRomNo9L-Regu-30" transform="translate(49.8132 0)scale(0.996264)"/>
       <use xlink:href="#NimbusRomNo9L-Regu-30" transform="translate(99.626401 0)scale(0.996264)"/>
       <use xlink:href="#NimbusRomNo9L-Regu-30" transform="translate(149.439601 0)scale(0.996264)"/>
      </g>
     </g>
    </g>
    <g id="ytick_4">
     <g id="line2d_61">
      <defs>
       <path id="m8dbc605033" d="M 0 0 
L 1.5 0 
" style="stroke: #000000; stroke-width: 0.5"/>
      </defs>
      <g>
       <use xlink:href="#m8dbc605033" x="47.30552" y="127.862969" style="stroke: #000000; stroke-width: 0.5"/>
      </g>
     </g>
     <g id="line2d_62">
      <defs>
       <path id="mb5e237cdb7" d="M 0 0 
L -1.5 0 
" style="stroke: #000000; stroke-width: 0.5"/>
      </defs>
      <g>
       <use xlink:href="#mb5e237cdb7" x="449.87976" y="127.862969" style="stroke: #000000; stroke-width: 0.5"/>
      </g>
     </g>
    </g>
    <g id="ytick_5">
     <g id="line2d_63">
      <g>
       <use xlink:href="#m8dbc605033" x="47.30552" y="118.160866" style="stroke: #000000; stroke-width: 0.5"/>
      </g>
     </g>
     <g id="line2d_64">
      <g>
       <use xlink:href="#mb5e237cdb7" x="449.87976" y="118.160866" style="stroke: #000000; stroke-width: 0.5"/>
      </g>
     </g>
    </g>
    <g id="ytick_6">
     <g id="line2d_65">
      <g>
       <use xlink:href="#m8dbc605033" x="47.30552" y="108.458763" style="stroke: #000000; stroke-width: 0.5"/>
      </g>
     </g>
     <g id="line2d_66">
      <g>
       <use xlink:href="#mb5e237cdb7" x="449.87976" y="108.458763" style="stroke: #000000; stroke-width: 0.5"/>
      </g>
     </g>
    </g>
    <g id="ytick_7">
     <g id="line2d_67">
      <g>
       <use xlink:href="#m8dbc605033" x="47.30552" y="89.054556" style="stroke: #000000; stroke-width: 0.5"/>
      </g>
     </g>
     <g id="line2d_68">
      <g>
       <use xlink:href="#mb5e237cdb7" x="449.87976" y="89.054556" style="stroke: #000000; stroke-width: 0.5"/>
      </g>
     </g>
    </g>
    <g id="ytick_8">
     <g id="line2d_69">
      <g>
       <use xlink:href="#m8dbc605033" x="47.30552" y="79.352453" style="stroke: #000000; stroke-width: 0.5"/>
      </g>
     </g>
     <g id="line2d_70">
      <g>
       <use xlink:href="#mb5e237cdb7" x="449.87976" y="79.352453" style="stroke: #000000; stroke-width: 0.5"/>
      </g>
     </g>
    </g>
    <g id="ytick_9">
     <g id="line2d_71">
      <g>
       <use xlink:href="#m8dbc605033" x="47.30552" y="69.65035" style="stroke: #000000; stroke-width: 0.5"/>
      </g>
     </g>
     <g id="line2d_72">
      <g>
       <use xlink:href="#mb5e237cdb7" x="449.87976" y="69.65035" style="stroke: #000000; stroke-width: 0.5"/>
      </g>
     </g>
    </g>
    <g id="ytick_10">
     <g id="line2d_73">
      <g>
       <use xlink:href="#m8dbc605033" x="47.30552" y="50.246144" style="stroke: #000000; stroke-width: 0.5"/>
      </g>
     </g>
     <g id="line2d_74">
      <g>
       <use xlink:href="#mb5e237cdb7" x="449.87976" y="50.246144" style="stroke: #000000; stroke-width: 0.5"/>
      </g>
     </g>
    </g>
    <g id="ytick_11">
     <g id="line2d_75">
      <g>
       <use xlink:href="#m8dbc605033" x="47.30552" y="40.544041" style="stroke: #000000; stroke-width: 0.5"/>
      </g>
     </g>
     <g id="line2d_76">
      <g>
       <use xlink:href="#mb5e237cdb7" x="449.87976" y="40.544041" style="stroke: #000000; stroke-width: 0.5"/>
      </g>
     </g>
    </g>
   </g>
   <g id="patch_3">
    <path d="M 65.946434 137.565072 
L 65.946434 132.11249 
L 69.602697 132.11249 
L 69.602697 131.549768 
L 73.258961 131.549768 
L 73.258961 131.918448 
L 76.915224 131.918448 
L 76.915224 131.278109 
L 80.571488 131.278109 
L 80.571488 131.627385 
L 84.227751 131.627385 
L 84.227751 130.676579 
L 95.196542 130.63777 
L 95.196542 129.260072 
L 98.852806 129.260072 
L 98.852806 129.764581 
L 102.509069 129.764581 
L 102.509069 129.454114 
L 106.165333 129.454114 
L 106.165333 128.386882 
L 109.821596 128.386882 
L 109.821596 129.318284 
L 113.47786 129.318284 
L 113.47786 128.367478 
L 128.102914 128.348074 
L 128.102914 128.483903 
L 131.759178 128.483903 
L 131.759178 128.134628 
L 135.415441 128.134628 
L 135.415441 128.32867 
L 142.727968 128.32867 
L 142.727968 127.765948 
L 146.384232 127.765948 
L 146.384232 127.45548 
L 153.696759 127.494289 
L 153.696759 127.106205 
L 157.353022 127.106205 
L 157.353022 127.785352 
L 161.009286 127.785352 
L 161.009286 127.261438 
L 164.66555 127.261438 
L 164.66555 127.571906 
L 168.321813 127.571906 
L 168.321813 126.892759 
L 179.290604 126.970375 
L 179.290604 127.028588 
L 182.946867 127.028588 
L 182.946867 128.270457 
L 186.603131 128.270457 
L 186.603131 127.727139 
L 190.259394 127.727139 
L 190.259394 127.59131 
L 193.915658 127.59131 
L 193.915658 126.931567 
L 197.571922 126.931567 
L 197.571922 126.174803 
L 201.228185 126.174803 
L 201.228185 127.59131 
L 204.884449 127.59131 
L 204.884449 126.640504 
L 208.540712 126.640504 
L 208.540712 127.494289 
L 212.196976 127.494289 
L 212.196976 127.95999 
L 215.853239 127.95999 
L 215.853239 126.776333 
L 219.509503 126.776333 
L 219.509503 128.406287 
L 223.165766 128.406287 
L 223.165766 127.921181 
L 226.82203 127.921181 
L 226.82203 127.106205 
L 230.478294 127.106205 
L 230.478294 127.377864 
L 234.134557 127.377864 
L 234.134557 127.203226 
L 237.790821 127.203226 
L 237.790821 127.494289 
L 241.447084 127.494289 
L 241.447084 127.261438 
L 245.103348 127.261438 
L 245.103348 128.037607 
L 256.072139 128.095819 
L 256.072139 127.416672 
L 259.728402 127.416672 
L 259.728402 128.425691 
L 263.384666 128.425691 
L 263.384666 127.785352 
L 267.040929 127.785352 
L 267.040929 127.921181 
L 270.697193 127.921181 
L 270.697193 127.630118 
L 274.353456 127.630118 
L 274.353456 127.067396 
L 278.00972 127.067396 
L 278.00972 126.85395 
L 285.322247 126.950971 
L 285.322247 127.416672 
L 288.978511 127.416672 
L 288.978511 127.533097 
L 292.634774 127.533097 
L 292.634774 127.82416 
L 296.291038 127.82416 
L 296.291038 127.630118 
L 299.947301 127.630118 
L 299.947301 126.950971 
L 307.259828 126.85395 
L 307.259828 127.45548 
L 310.916092 127.45548 
L 310.916092 127.862969 
L 314.572355 127.862969 
L 314.572355 126.931567 
L 318.228619 126.931567 
L 318.228619 127.145013 
L 321.884883 127.145013 
L 321.884883 127.494289 
L 329.19741 127.513693 
L 329.19741 127.047992 
L 332.853673 127.047992 
L 332.853673 126.6211 
L 336.509937 126.6211 
L 336.509937 126.98978 
L 340.1662 126.98978 
L 340.1662 127.688331 
L 347.478727 127.610714 
L 347.478727 127.474885 
L 351.134991 127.474885 
L 351.134991 127.979394 
L 354.791255 127.979394 
L 354.791255 126.912163 
L 358.447518 126.912163 
L 358.447518 127.45548 
L 362.103782 127.45548 
L 362.103782 127.067396 
L 365.760045 127.067396 
L 365.760045 127.261438 
L 369.416309 127.261438 
L 369.416309 127.494289 
L 373.072572 127.494289 
L 373.072572 127.95999 
L 376.728836 127.95999 
L 376.728836 127.067396 
L 380.385099 127.067396 
L 380.385099 127.610714 
L 384.041363 127.610714 
L 384.041363 127.164417 
L 387.697627 127.164417 
L 387.697627 127.59131 
L 391.35389 127.59131 
L 391.35389 127.009184 
L 398.666417 126.931567 
L 398.666417 127.300247 
L 402.322681 127.300247 
L 402.322681 127.843565 
L 405.978944 127.843565 
L 405.978944 127.668927 
L 409.635208 127.668927 
L 409.635208 126.98978 
L 413.291471 126.98978 
L 413.291471 127.242034 
L 416.947735 127.242034 
L 416.947735 126.776333 
L 420.603999 126.776333 
L 420.603999 128.348074 
L 424.260262 128.348074 
L 424.260262 127.494289 
L 427.916526 127.494289 
L 427.916526 127.727139 
L 431.572789 127.727139 
L 431.572789 137.565072 
L 431.572789 137.565072 
" clip-path="url(#pf216162f05)" style="fill: none; stroke: #0000ff; stroke-linejoin: miter"/>
   </g>
   <g id="patch_4">
    <path d="M 65.604349 137.565072 
L 65.604349 46.753387 
L 69.264115 46.753387 
L 69.264115 44.444286 
L 72.923881 44.444286 
L 72.923881 46.733982 
L 76.583647 46.733982 
L 76.583647 44.483094 
L 80.243413 44.483094 
L 80.243413 46.442919 
L 83.903178 46.442919 
L 83.903178 45.395092 
L 87.562944 45.395092 
L 87.562944 48.208702 
L 91.22271 48.208702 
L 91.22271 49.974485 
L 94.882476 49.974485 
L 94.882476 48.596786 
L 98.542242 48.596786 
L 98.542242 49.217721 
L 102.202007 49.217721 
L 102.202007 46.268281 
L 105.861773 46.268281 
L 105.861773 50.362569 
L 109.521539 50.362569 
L 109.521539 48.693807 
L 113.181305 48.693807 
L 113.181305 50.149123 
L 116.841071 50.149123 
L 116.841071 49.35355 
L 120.500837 49.35355 
L 120.500837 51.022312 
L 124.160602 51.022312 
L 124.160602 48.946062 
L 127.820368 48.946062 
L 127.820368 48.519169 
L 131.480134 48.519169 
L 131.480134 49.217721 
L 135.1399 49.217721 
L 135.1399 50.576015 
L 138.799666 50.576015 
L 138.799666 49.081891 
L 142.459431 49.081891 
L 142.459431 53.195583 
L 146.119197 53.195583 
L 146.119197 49.566996 
L 149.778963 49.566996 
L 149.778963 50.847674 
L 153.438729 50.847674 
L 153.438729 52.147756 
L 157.098495 52.147756 
L 157.098495 52.749286 
L 160.758261 52.749286 
L 160.758261 51.720863 
L 168.077792 51.740268 
L 168.077792 52.050735 
L 171.737558 52.050735 
L 171.737558 50.517803 
L 175.397324 50.517803 
L 175.397324 49.935676 
L 179.05709 49.935676 
L 179.05709 50.537207 
L 182.716855 50.537207 
L 182.716855 51.817884 
L 186.376621 51.817884 
L 186.376621 52.283585 
L 190.036387 52.283585 
L 190.036387 50.401377 
L 193.696153 50.401377 
L 193.696153 48.926658 
L 197.355919 48.926658 
L 197.355919 49.372954 
L 204.67545 49.431167 
L 204.67545 51.19695 
L 208.335216 51.19695 
L 208.335216 51.06112 
L 215.654748 51.022312 
L 215.654748 50.847674 
L 219.314514 50.847674 
L 219.314514 50.09091 
L 226.634045 50.168527 
L 226.634045 51.099929 
L 230.293811 51.099929 
L 230.293811 49.547592 
L 233.953577 49.547592 
L 233.953577 51.235758 
L 237.613343 51.235758 
L 237.613343 49.275933 
L 241.273108 49.275933 
L 241.273108 50.265548 
L 244.932874 50.265548 
L 244.932874 51.022312 
L 248.59264 51.022312 
L 248.59264 52.555244 
L 252.252406 52.555244 
L 252.252406 51.099929 
L 255.912172 51.099929 
L 255.912172 50.537207 
L 259.571938 50.537207 
L 259.571938 49.955081 
L 263.231703 49.955081 
L 263.231703 49.72223 
L 266.891469 49.72223 
L 266.891469 51.158141 
L 270.551235 51.158141 
L 270.551235 50.071506 
L 274.211001 50.071506 
L 274.211001 47.898235 
L 277.870767 47.898235 
L 277.870767 49.469975 
L 281.530532 49.469975 
L 281.530532 51.041716 
L 288.850064 51.119333 
L 288.850064 52.497032 
L 292.50983 52.497032 
L 292.50983 49.896868 
L 296.169596 49.896868 
L 296.169596 48.441552 
L 299.829362 48.441552 
L 299.829362 49.916272 
L 303.489127 49.916272 
L 303.489127 49.586401 
L 307.148893 49.586401 
L 307.148893 51.138737 
L 310.808659 51.138737 
L 310.808659 52.031331 
L 314.468425 52.031331 
L 314.468425 49.72223 
L 318.128191 49.72223 
L 318.128191 51.837289 
L 321.787956 51.837289 
L 321.787956 49.741634 
L 325.447722 49.741634 
L 325.447722 50.187931 
L 329.107488 50.187931 
L 329.107488 50.983504 
L 332.767254 50.983504 
L 332.767254 51.701459 
L 336.42702 51.701459 
L 336.42702 52.031331 
L 340.086786 52.031331 
L 340.086786 49.392359 
L 343.746551 49.392359 
L 343.746551 49.644613 
L 347.406317 49.644613 
L 347.406317 51.79848 
L 351.066083 51.79848 
L 351.066083 51.410396 
L 354.725849 51.410396 
L 354.725849 52.070139 
L 358.385615 52.070139 
L 358.385615 51.720863 
L 362.04538 51.720863 
L 362.04538 50.808866 
L 369.364912 50.731249 
L 369.364912 52.108947 
L 373.024678 52.108947 
L 373.024678 51.06112 
L 376.684444 51.06112 
L 376.684444 51.19695 
L 380.344209 51.19695 
L 380.344209 50.944695 
L 384.003975 50.944695 
L 384.003975 48.674403 
L 387.663741 48.674403 
L 387.663741 50.09091 
L 391.323507 50.09091 
L 391.323507 51.255162 
L 394.983273 51.255162 
L 394.983273 51.507417 
L 398.643039 51.507417 
L 398.643039 52.400011 
L 402.302804 52.400011 
L 402.302804 48.907253 
L 405.96257 48.907253 
L 405.96257 49.314742 
L 413.282102 49.314742 
L 413.282102 50.576015 
L 416.941868 50.576015 
L 416.941868 50.905887 
L 420.601633 50.905887 
L 420.601633 51.410396 
L 424.261399 51.410396 
L 424.261399 51.080525 
L 427.921165 51.080525 
L 427.921165 53.13737 
L 431.580931 53.13737 
L 431.580931 137.565072 
L 431.580931 137.565072 
" clip-path="url(#pf216162f05)" style="fill: none; stroke: #ff0000; stroke-linejoin: miter"/>
   </g>
   <g id="patch_5">
    <path d="M 47.30552 137.565072 
L 47.30552 32.494206 
" style="fill: none; stroke: #000000; stroke-width: 0.5; stroke-linejoin: miter; stroke-linecap: square"/>
   </g>
   <g id="patch_6">
    <path d="M 449.87976 137.565072 
L 449.87976 32.494206 
" style="fill: none; stroke: #000000; stroke-width: 0.5; stroke-linejoin: miter; stroke-linecap: square"/>
   </g>
   <g id="patch_7">
    <path d="M 47.30552 137.565072 
L 449.87976 137.565072 
" style="fill: none; stroke: #000000; stroke-width: 0.5; stroke-linejoin: miter; stroke-linecap: square"/>
   </g>
   <g id="patch_8">
    <path d="M 47.30552 32.494206 
L 449.87976 32.494206 
" style="fill: none; stroke: #000000; stroke-width: 0.5; stroke-linejoin: miter; stroke-linecap: square"/>
   </g>
   <g id="text_10">
    <!-- $m_{\widetilde{q_{1L}}}$ -->
    <g transform="translate(238.353084 26.494206)scale(0.12 -0.12)">
     <defs>
      <path id="NimbusRomNo9L-ReguItal-6d" d="M 4410 756 
C 4346 680 4294 616 4275 591 
C 4096 362 3962 255 3866 255 
C 3814 255 3782 293 3782 357 
C 3782 389 3808 490 3846 643 
L 4282 2238 
C 4288 2264 4301 2378 4301 2416 
C 4301 2645 4141 2816 3923 2816 
C 3802 2816 3674 2772 3520 2677 
C 3206 2474 2944 2168 2502 1468 
C 2662 1952 2758 2314 2758 2435 
C 2758 2658 2611 2816 2394 2816 
C 2003 2816 1555 2397 966 1474 
L 1338 2803 
L 1318 2815 
C 960 2739 826 2713 294 2618 
L 294 2516 
L 454 2516 
C 621 2516 704 2472 704 2377 
C 704 2306 557 1728 326 921 
C 179 401 160 337 77 13 
L 557 13 
C 864 1023 960 1258 1178 1589 
C 1536 2129 1920 2484 2138 2484 
C 2221 2484 2266 2427 2266 2326 
C 2266 2268 2061 1499 1658 13 
L 2138 13 
C 2394 1004 2522 1322 2848 1773 
C 3162 2204 3482 2484 3667 2484 
C 3738 2484 3795 2420 3795 2351 
C 3795 2319 3782 2244 3750 2129 
L 3379 667 
C 3322 433 3296 311 3296 248 
C 3296 57 3386 -44 3552 -44 
C 3853 -44 4134 165 4474 635 
L 4506 680 
L 4410 756 
z
" transform="scale(0.015625)"/>
      <path id="CMEX10-66" d="M 6330 4800 
C 6157 4710 5222 4233 4410 4233 
C 3942 4233 3661 4349 3219 4542 
C 2912 4671 2598 4800 2157 4800 
C 1408 4800 666 4440 0 4118 
L 64 3990 
C 237 4080 1171 4557 1984 4557 
C 2451 4557 2733 4441 3174 4248 
C 3482 4119 3795 3990 4237 3990 
C 4986 3990 5728 4350 6394 4672 
L 6330 4800 
z
" transform="scale(0.015625)"/>
      <path id="NimbusRomNo9L-ReguItal-71" d="M 2502 -1165 
L 2394 -1165 
C 2157 -1165 2022 -1101 2029 -980 
C 2029 -960 2035 -936 2042 -910 
L 3091 2721 
L 2624 2721 
L 2528 2426 
C 2426 2716 2298 2816 2035 2816 
C 1190 2816 160 1662 160 710 
C 160 264 410 -18 813 -18 
C 1267 -18 1562 215 2131 1014 
L 1562 -842 
C 1478 -1096 1376 -1146 960 -1178 
L 960 -1280 
L 2502 -1280 
L 2502 -1165 
z
M 2054 2676 
C 2266 2676 2432 2507 2432 2294 
C 2432 1776 1997 888 1562 532 
C 1395 395 1222 320 1069 320 
C 851 320 710 508 710 801 
C 710 1264 1043 1957 1459 2370 
C 1658 2563 1869 2676 2054 2676 
z
" transform="scale(0.015625)"/>
      <path id="NimbusRomNo9L-ReguItal-4c" d="M 2579 4160 
L 832 4160 
L 832 4058 
C 1229 4020 1325 3969 1325 3785 
C 1325 3695 1299 3548 1254 3390 
L 467 574 
C 352 204 307 166 -51 102 
L -51 0 
L 3206 0 
L 3578 1141 
L 3450 1179 
C 3226 721 3053 516 2771 377 
C 2547 268 2285 230 1728 230 
C 1242 230 1082 281 1082 447 
C 1082 492 1114 645 1146 766 
L 1933 3598 
C 2029 3923 2195 4045 2579 4045 
L 2579 4160 
z
" transform="scale(0.015625)"/>
     </defs>
     <use xlink:href="#NimbusRomNo9L-ReguItal-6d" transform="scale(0.996264)"/>
     <use xlink:href="#CMEX10-66" transform="translate(85.399174 -21.022165)scale(0.737241)"/>
     <use xlink:href="#NimbusRomNo9L-ReguItal-71" transform="translate(71.929985 -21.353746)scale(0.737241)"/>
     <use xlink:href="#NimbusRomNo9L-Regu-31" transform="translate(108.792027 -35.983227)scale(0.597764)"/>
     <use xlink:href="#NimbusRomNo9L-ReguItal-4c" transform="translate(138.680251 -35.983227)scale(0.597764)"/>
    </g>
   </g>
   <g id="legend_1">
    <g id="patch_9">
     <path d="M 392.95448 48.494206 
L 412.95448 48.494206 
L 412.95448 41.494206 
L 392.95448 41.494206 
L 392.95448 48.494206 
z
" style="fill: none; stroke: #0000ff; stroke-linejoin: miter"/>
    </g>
    <g id="text_11">
     <!-- good -->
     <g transform="translate(420.95448 48.494206)scale(0.1 -0.1)">
      <defs>
       <path id="NimbusRomNo9L-Regu-67" d="M 3008 2496 
L 3008 2746 
L 2515 2746 
C 2387 2746 2291 2763 2163 2802 
L 2022 2847 
C 1850 2903 1677 2931 1510 2931 
C 915 2931 442 2467 442 1881 
C 442 1476 614 1230 1037 1018 
C 915 906 800 799 762 768 
C 550 588 467 463 467 338 
C 467 206 544 131 806 6 
C 352 -329 179 -543 179 -781 
C 179 -1124 678 -1408 1286 -1408 
C 1766 -1408 2266 -1238 2598 -962 
C 2842 -759 2950 -548 2950 -299 
C 2950 108 2650 384 2176 384 
L 1350 384 
C 1011 384 851 443 851 548 
C 851 678 1062 908 1235 960 
C 1293 953 1338 947 1357 947 
C 1478 934 1562 928 1600 928 
C 1837 928 2093 1026 2291 1203 
C 2502 1387 2598 1617 2598 1945 
C 2598 2135 2566 2286 2477 2496 
L 3008 2496 
z
M 941 -13 
C 1152 -58 1664 -96 1978 -96 
C 2560 -96 2771 -180 2771 -414 
C 2771 -791 2285 -1043 1562 -1043 
C 998 -1043 627 -855 627 -570 
C 627 -420 672 -336 941 -13 
z
M 973 2145 
C 973 2526 1152 2752 1446 2752 
C 1645 2752 1811 2642 1914 2449 
C 2029 2223 2106 1927 2106 1675 
C 2106 1314 1920 1088 1626 1088 
C 1242 1088 973 1507 973 2126 
L 973 2145 
z
" transform="scale(0.015625)"/>
       <path id="NimbusRomNo9L-Regu-6f" d="M 1600 2944 
C 768 2944 186 2330 186 1446 
C 186 582 781 -64 1587 -64 
C 2394 -64 3008 614 3008 1498 
C 3008 2336 2419 2944 1600 2944 
z
M 1517 2765 
C 2054 2765 2432 2150 2432 1274 
C 2432 550 2144 115 1664 115 
C 1414 115 1178 269 1043 525 
C 864 858 762 1306 762 1760 
C 762 2368 1062 2765 1517 2765 
z
" transform="scale(0.015625)"/>
       <path id="NimbusRomNo9L-Regu-64" d="M 2202 -64 
L 3142 269 
L 3142 365 
C 3027 365 3014 365 2995 365 
C 2765 365 2714 435 2714 731 
L 2714 4364 
L 2682 4377 
C 2374 4268 2150 4204 1741 4096 
L 1741 3994 
C 1792 4000 1830 4000 1882 4000 
C 2118 4000 2176 3936 2176 3672 
L 2176 2669 
C 1933 2874 1760 2944 1504 2944 
C 768 2944 173 2221 173 1312 
C 173 493 653 -64 1357 -64 
C 1715 -64 1958 64 2176 365 
L 2176 -45 
L 2202 -64 
z
M 2176 653 
C 2176 608 2131 531 2067 461 
C 1952 333 1792 269 1606 269 
C 1075 269 723 781 723 1568 
C 723 2291 1037 2765 1523 2765 
C 1862 2765 2176 2464 2176 2125 
L 2176 653 
z
" transform="scale(0.015625)"/>
      </defs>
      <use xlink:href="#NimbusRomNo9L-Regu-67" transform="scale(0.996264)"/>
      <use xlink:href="#NimbusRomNo9L-Regu-6f" transform="translate(49.8132 0)scale(0.996264)"/>
      <use xlink:href="#NimbusRomNo9L-Regu-6f" transform="translate(99.626401 0)scale(0.996264)"/>
      <use xlink:href="#NimbusRomNo9L-Regu-64" transform="translate(149.439601 0)scale(0.996264)"/>
     </g>
    </g>
    <g id="patch_10">
     <path d="M 392.95448 62.651034 
L 412.95448 62.651034 
L 412.95448 55.651034 
L 392.95448 55.651034 
L 392.95448 62.651034 
z
" style="fill: none; stroke: #ff0000; stroke-linejoin: miter"/>
    </g>
    <g id="text_12">
     <!-- bad -->
     <g transform="translate(420.95448 62.651034)scale(0.1 -0.1)">
      <defs>
       <path id="NimbusRomNo9L-Regu-62" d="M 979 4364 
L 947 4377 
C 678 4281 506 4230 205 4147 
L 19 4096 
L 19 3994 
C 58 4000 83 4000 128 4000 
C 384 4000 442 3942 442 3673 
L 442 347 
C 442 147 986 -64 1498 -64 
C 2342 -64 2995 640 2995 1555 
C 2995 2342 2509 2944 1869 2944 
C 1478 2944 1107 2714 979 2400 
L 979 4364 
z
M 979 2061 
C 979 2310 1280 2541 1613 2541 
C 2112 2541 2432 2042 2432 1261 
C 2432 550 2125 141 1600 141 
C 1267 141 979 288 979 448 
L 979 2061 
z
" transform="scale(0.015625)"/>
       <path id="NimbusRomNo9L-Regu-61" d="M 2829 423 
C 2720 333 2643 301 2547 301 
C 2400 301 2355 390 2355 672 
L 2355 1920 
C 2355 2253 2323 2438 2227 2592 
C 2086 2822 1811 2944 1434 2944 
C 832 2944 358 2630 358 2227 
C 358 2080 486 1952 634 1952 
C 787 1952 922 2080 922 2221 
C 922 2246 915 2278 909 2323 
C 896 2381 890 2432 890 2477 
C 890 2650 1094 2790 1350 2790 
C 1664 2790 1837 2605 1837 2259 
L 1837 1869 
C 851 1472 742 1421 467 1178 
C 326 1050 237 832 237 621 
C 237 218 518 -64 909 -64 
C 1190 -64 1453 70 1843 403 
C 1875 70 1990 -64 2253 -64 
C 2470 -64 2605 13 2829 256 
L 2829 423 
z
M 1837 783 
C 1837 584 1805 526 1670 449 
C 1517 359 1338 301 1203 301 
C 979 301 800 520 800 796 
L 800 822 
C 800 1201 1062 1433 1837 1715 
L 1837 783 
z
" transform="scale(0.015625)"/>
      </defs>
      <use xlink:href="#NimbusRomNo9L-Regu-62" transform="scale(0.996264)"/>
      <use xlink:href="#NimbusRomNo9L-Regu-61" transform="translate(49.8132 0)scale(0.996264)"/>
      <use xlink:href="#NimbusRomNo9L-Regu-64" transform="translate(94.046769 0)scale(0.996264)"/>
     </g>
    </g>
   </g>
  </g>
  <g id="axes_2">
   <g id="patch_11">
    <path d="M 47.30552 273.188114 
L 449.87976 273.188114 
L 449.87976 168.117247 
L 47.30552 168.117247 
z
" style="fill: #ffffff"/>
   </g>
   <g id="matplotlib.axis_3">
    <g id="xtick_28">
     <g id="line2d_77">
      <g>
       <use xlink:href="#m8416c25d58" x="61.905408" y="273.188114" style="stroke: #000000; stroke-width: 0.5"/>
      </g>
     </g>
     <g id="line2d_78">
      <g>
       <use xlink:href="#mf4963caa61" x="61.905408" y="168.117247" style="stroke: #000000; stroke-width: 0.5"/>
      </g>
     </g>
     <g id="text_13">
      <!-- $\mathdefault{0}$ -->
      <g transform="translate(59.414747 283.442691)scale(0.1 -0.1)">
       <use xlink:href="#NimbusRomNo9L-Regu-30" transform="scale(0.996264)"/>
      </g>
     </g>
    </g>
    <g id="xtick_29">
     <g id="line2d_79">
      <g>
       <use xlink:href="#m8416c25d58" x="135.840647" y="273.188114" style="stroke: #000000; stroke-width: 0.5"/>
      </g>
     </g>
     <g id="line2d_80">
      <g>
       <use xlink:href="#mf4963caa61" x="135.840647" y="168.117247" style="stroke: #000000; stroke-width: 0.5"/>
      </g>
     </g>
     <g id="text_14">
      <!-- $\mathdefault{1000}$ -->
      <g transform="translate(125.878007 283.442691)scale(0.1 -0.1)">
       <use xlink:href="#NimbusRomNo9L-Regu-31" transform="scale(0.996264)"/>
       <use xlink:href="#NimbusRomNo9L-Regu-30" transform="translate(49.8132 0)scale(0.996264)"/>
       <use xlink:href="#NimbusRomNo9L-Regu-30" transform="translate(99.626401 0)scale(0.996264)"/>
       <use xlink:href="#NimbusRomNo9L-Regu-30" transform="translate(149.439601 0)scale(0.996264)"/>
      </g>
     </g>
    </g>
    <g id="xtick_30">
     <g id="line2d_81">
      <g>
       <use xlink:href="#m8416c25d58" x="209.775887" y="273.188114" style="stroke: #000000; stroke-width: 0.5"/>
      </g>
     </g>
     <g id="line2d_82">
      <g>
       <use xlink:href="#mf4963caa61" x="209.775887" y="168.117247" style="stroke: #000000; stroke-width: 0.5"/>
      </g>
     </g>
     <g id="text_15">
      <!-- $\mathdefault{2000}$ -->
      <g transform="translate(199.813247 283.442691)scale(0.1 -0.1)">
       <use xlink:href="#NimbusRomNo9L-Regu-32" transform="scale(0.996264)"/>
       <use xlink:href="#NimbusRomNo9L-Regu-30" transform="translate(49.8132 0)scale(0.996264)"/>
       <use xlink:href="#NimbusRomNo9L-Regu-30" transform="translate(99.626401 0)scale(0.996264)"/>
       <use xlink:href="#NimbusRomNo9L-Regu-30" transform="translate(149.439601 0)scale(0.996264)"/>
      </g>
     </g>
    </g>
    <g id="xtick_31">
     <g id="line2d_83">
      <g>
       <use xlink:href="#m8416c25d58" x="283.711127" y="273.188114" style="stroke: #000000; stroke-width: 0.5"/>
      </g>
     </g>
     <g id="line2d_84">
      <g>
       <use xlink:href="#mf4963caa61" x="283.711127" y="168.117247" style="stroke: #000000; stroke-width: 0.5"/>
      </g>
     </g>
     <g id="text_16">
      <!-- $\mathdefault{3000}$ -->
      <g transform="translate(273.748487 283.442691)scale(0.1 -0.1)">
       <use xlink:href="#NimbusRomNo9L-Regu-33" transform="scale(0.996264)"/>
       <use xlink:href="#NimbusRomNo9L-Regu-30" transform="translate(49.8132 0)scale(0.996264)"/>
       <use xlink:href="#NimbusRomNo9L-Regu-30" transform="translate(99.626401 0)scale(0.996264)"/>
       <use xlink:href="#NimbusRomNo9L-Regu-30" transform="translate(149.439601 0)scale(0.996264)"/>
      </g>
     </g>
    </g>
    <g id="xtick_32">
     <g id="line2d_85">
      <g>
       <use xlink:href="#m8416c25d58" x="357.646367" y="273.188114" style="stroke: #000000; stroke-width: 0.5"/>
      </g>
     </g>
     <g id="line2d_86">
      <g>
       <use xlink:href="#mf4963caa61" x="357.646367" y="168.117247" style="stroke: #000000; stroke-width: 0.5"/>
      </g>
     </g>
     <g id="text_17">
      <!-- $\mathdefault{4000}$ -->
      <g transform="translate(347.683727 283.442691)scale(0.1 -0.1)">
       <use xlink:href="#NimbusRomNo9L-Regu-34" transform="scale(0.996264)"/>
       <use xlink:href="#NimbusRomNo9L-Regu-30" transform="translate(49.8132 0)scale(0.996264)"/>
       <use xlink:href="#NimbusRomNo9L-Regu-30" transform="translate(99.626401 0)scale(0.996264)"/>
       <use xlink:href="#NimbusRomNo9L-Regu-30" transform="translate(149.439601 0)scale(0.996264)"/>
      </g>
     </g>
    </g>
    <g id="xtick_33">
     <g id="line2d_87">
      <g>
       <use xlink:href="#m8416c25d58" x="431.581607" y="273.188114" style="stroke: #000000; stroke-width: 0.5"/>
      </g>
     </g>
     <g id="line2d_88">
      <g>
       <use xlink:href="#mf4963caa61" x="431.581607" y="168.117247" style="stroke: #000000; stroke-width: 0.5"/>
      </g>
     </g>
     <g id="text_18">
      <!-- $\mathdefault{5000}$ -->
      <g transform="translate(421.618967 283.442691)scale(0.1 -0.1)">
       <use xlink:href="#NimbusRomNo9L-Regu-35" transform="scale(0.996264)"/>
       <use xlink:href="#NimbusRomNo9L-Regu-30" transform="translate(49.8132 0)scale(0.996264)"/>
       <use xlink:href="#NimbusRomNo9L-Regu-30" transform="translate(99.626401 0)scale(0.996264)"/>
       <use xlink:href="#NimbusRomNo9L-Regu-30" transform="translate(149.439601 0)scale(0.996264)"/>
      </g>
     </g>
    </g>
    <g id="xtick_34">
     <g id="line2d_89">
      <g>
       <use xlink:href="#m6bba2171c3" x="76.692455" y="273.188114" style="stroke: #000000; stroke-width: 0.5"/>
      </g>
     </g>
     <g id="line2d_90">
      <g>
       <use xlink:href="#m04f5491f97" x="76.692455" y="168.117247" style="stroke: #000000; stroke-width: 0.5"/>
      </g>
     </g>
    </g>
    <g id="xtick_35">
     <g id="line2d_91">
      <g>
       <use xlink:href="#m6bba2171c3" x="91.479503" y="273.188114" style="stroke: #000000; stroke-width: 0.5"/>
      </g>
     </g>
     <g id="line2d_92">
      <g>
       <use xlink:href="#m04f5491f97" x="91.479503" y="168.117247" style="stroke: #000000; stroke-width: 0.5"/>
      </g>
     </g>
    </g>
    <g id="xtick_36">
     <g id="line2d_93">
      <g>
       <use xlink:href="#m6bba2171c3" x="106.266551" y="273.188114" style="stroke: #000000; stroke-width: 0.5"/>
      </g>
     </g>
     <g id="line2d_94">
      <g>
       <use xlink:href="#m04f5491f97" x="106.266551" y="168.117247" style="stroke: #000000; stroke-width: 0.5"/>
      </g>
     </g>
    </g>
    <g id="xtick_37">
     <g id="line2d_95">
      <g>
       <use xlink:href="#m6bba2171c3" x="121.053599" y="273.188114" style="stroke: #000000; stroke-width: 0.5"/>
      </g>
     </g>
     <g id="line2d_96">
      <g>
       <use xlink:href="#m04f5491f97" x="121.053599" y="168.117247" style="stroke: #000000; stroke-width: 0.5"/>
      </g>
     </g>
    </g>
    <g id="xtick_38">
     <g id="line2d_97">
      <g>
       <use xlink:href="#m6bba2171c3" x="150.627695" y="273.188114" style="stroke: #000000; stroke-width: 0.5"/>
      </g>
     </g>
     <g id="line2d_98">
      <g>
       <use xlink:href="#m04f5491f97" x="150.627695" y="168.117247" style="stroke: #000000; stroke-width: 0.5"/>
      </g>
     </g>
    </g>
    <g id="xtick_39">
     <g id="line2d_99">
      <g>
       <use xlink:href="#m6bba2171c3" x="165.414743" y="273.188114" style="stroke: #000000; stroke-width: 0.5"/>
      </g>
     </g>
     <g id="line2d_100">
      <g>
       <use xlink:href="#m04f5491f97" x="165.414743" y="168.117247" style="stroke: #000000; stroke-width: 0.5"/>
      </g>
     </g>
    </g>
    <g id="xtick_40">
     <g id="line2d_101">
      <g>
       <use xlink:href="#m6bba2171c3" x="180.201791" y="273.188114" style="stroke: #000000; stroke-width: 0.5"/>
      </g>
     </g>
     <g id="line2d_102">
      <g>
       <use xlink:href="#m04f5491f97" x="180.201791" y="168.117247" style="stroke: #000000; stroke-width: 0.5"/>
      </g>
     </g>
    </g>
    <g id="xtick_41">
     <g id="line2d_103">
      <g>
       <use xlink:href="#m6bba2171c3" x="194.988839" y="273.188114" style="stroke: #000000; stroke-width: 0.5"/>
      </g>
     </g>
     <g id="line2d_104">
      <g>
       <use xlink:href="#m04f5491f97" x="194.988839" y="168.117247" style="stroke: #000000; stroke-width: 0.5"/>
      </g>
     </g>
    </g>
    <g id="xtick_42">
     <g id="line2d_105">
      <g>
       <use xlink:href="#m6bba2171c3" x="224.562935" y="273.188114" style="stroke: #000000; stroke-width: 0.5"/>
      </g>
     </g>
     <g id="line2d_106">
      <g>
       <use xlink:href="#m04f5491f97" x="224.562935" y="168.117247" style="stroke: #000000; stroke-width: 0.5"/>
      </g>
     </g>
    </g>
    <g id="xtick_43">
     <g id="line2d_107">
      <g>
       <use xlink:href="#m6bba2171c3" x="239.349983" y="273.188114" style="stroke: #000000; stroke-width: 0.5"/>
      </g>
     </g>
     <g id="line2d_108">
      <g>
       <use xlink:href="#m04f5491f97" x="239.349983" y="168.117247" style="stroke: #000000; stroke-width: 0.5"/>
      </g>
     </g>
    </g>
    <g id="xtick_44">
     <g id="line2d_109">
      <g>
       <use xlink:href="#m6bba2171c3" x="254.137031" y="273.188114" style="stroke: #000000; stroke-width: 0.5"/>
      </g>
     </g>
     <g id="line2d_110">
      <g>
       <use xlink:href="#m04f5491f97" x="254.137031" y="168.117247" style="stroke: #000000; stroke-width: 0.5"/>
      </g>
     </g>
    </g>
    <g id="xtick_45">
     <g id="line2d_111">
      <g>
       <use xlink:href="#m6bba2171c3" x="268.924079" y="273.188114" style="stroke: #000000; stroke-width: 0.5"/>
      </g>
     </g>
     <g id="line2d_112">
      <g>
       <use xlink:href="#m04f5491f97" x="268.924079" y="168.117247" style="stroke: #000000; stroke-width: 0.5"/>
      </g>
     </g>
    </g>
    <g id="xtick_46">
     <g id="line2d_113">
      <g>
       <use xlink:href="#m6bba2171c3" x="298.498175" y="273.188114" style="stroke: #000000; stroke-width: 0.5"/>
      </g>
     </g>
     <g id="line2d_114">
      <g>
       <use xlink:href="#m04f5491f97" x="298.498175" y="168.117247" style="stroke: #000000; stroke-width: 0.5"/>
      </g>
     </g>
    </g>
    <g id="xtick_47">
     <g id="line2d_115">
      <g>
       <use xlink:href="#m6bba2171c3" x="313.285223" y="273.188114" style="stroke: #000000; stroke-width: 0.5"/>
      </g>
     </g>
     <g id="line2d_116">
      <g>
       <use xlink:href="#m04f5491f97" x="313.285223" y="168.117247" style="stroke: #000000; stroke-width: 0.5"/>
      </g>
     </g>
    </g>
    <g id="xtick_48">
     <g id="line2d_117">
      <g>
       <use xlink:href="#m6bba2171c3" x="328.072271" y="273.188114" style="stroke: #000000; stroke-width: 0.5"/>
      </g>
     </g>
     <g id="line2d_118">
      <g>
       <use xlink:href="#m04f5491f97" x="328.072271" y="168.117247" style="stroke: #000000; stroke-width: 0.5"/>
      </g>
     </g>
    </g>
    <g id="xtick_49">
     <g id="line2d_119">
      <g>
       <use xlink:href="#m6bba2171c3" x="342.859319" y="273.188114" style="stroke: #000000; stroke-width: 0.5"/>
      </g>
     </g>
     <g id="line2d_120">
      <g>
       <use xlink:href="#m04f5491f97" x="342.859319" y="168.117247" style="stroke: #000000; stroke-width: 0.5"/>
      </g>
     </g>
    </g>
    <g id="xtick_50">
     <g id="line2d_121">
      <g>
       <use xlink:href="#m6bba2171c3" x="372.433415" y="273.188114" style="stroke: #000000; stroke-width: 0.5"/>
      </g>
     </g>
     <g id="line2d_122">
      <g>
       <use xlink:href="#m04f5491f97" x="372.433415" y="168.117247" style="stroke: #000000; stroke-width: 0.5"/>
      </g>
     </g>
    </g>
    <g id="xtick_51">
     <g id="line2d_123">
      <g>
       <use xlink:href="#m6bba2171c3" x="387.220463" y="273.188114" style="stroke: #000000; stroke-width: 0.5"/>
      </g>
     </g>
     <g id="line2d_124">
      <g>
       <use xlink:href="#m04f5491f97" x="387.220463" y="168.117247" style="stroke: #000000; stroke-width: 0.5"/>
      </g>
     </g>
    </g>
    <g id="xtick_52">
     <g id="line2d_125">
      <g>
       <use xlink:href="#m6bba2171c3" x="402.007511" y="273.188114" style="stroke: #000000; stroke-width: 0.5"/>
      </g>
     </g>
     <g id="line2d_126">
      <g>
       <use xlink:href="#m04f5491f97" x="402.007511" y="168.117247" style="stroke: #000000; stroke-width: 0.5"/>
      </g>
     </g>
    </g>
    <g id="xtick_53">
     <g id="line2d_127">
      <g>
       <use xlink:href="#m6bba2171c3" x="416.794559" y="273.188114" style="stroke: #000000; stroke-width: 0.5"/>
      </g>
     </g>
     <g id="line2d_128">
      <g>
       <use xlink:href="#m04f5491f97" x="416.794559" y="168.117247" style="stroke: #000000; stroke-width: 0.5"/>
      </g>
     </g>
    </g>
    <g id="xtick_54">
     <g id="line2d_129">
      <g>
       <use xlink:href="#m6bba2171c3" x="446.368655" y="273.188114" style="stroke: #000000; stroke-width: 0.5"/>
      </g>
     </g>
     <g id="line2d_130">
      <g>
       <use xlink:href="#m04f5491f97" x="446.368655" y="168.117247" style="stroke: #000000; stroke-width: 0.5"/>
      </g>
     </g>
    </g>
   </g>
   <g id="matplotlib.axis_4">
    <g id="ytick_12">
     <g id="line2d_131">
      <g>
       <use xlink:href="#md4d5f62f23" x="47.30552" y="273.188114" style="stroke: #000000; stroke-width: 0.5"/>
      </g>
     </g>
     <g id="line2d_132">
      <g>
       <use xlink:href="#me98ed74742" x="449.87976" y="273.188114" style="stroke: #000000; stroke-width: 0.5"/>
      </g>
     </g>
     <g id="text_19">
      <!-- $\mathdefault{0}$ -->
      <g transform="translate(38.8242 276.565402)scale(0.1 -0.1)">
       <use xlink:href="#NimbusRomNo9L-Regu-30" transform="scale(0.996264)"/>
      </g>
     </g>
    </g>
    <g id="ytick_13">
     <g id="line2d_133">
      <g>
       <use xlink:href="#md4d5f62f23" x="47.30552" y="234.379701" style="stroke: #000000; stroke-width: 0.5"/>
      </g>
     </g>
     <g id="line2d_134">
      <g>
       <use xlink:href="#me98ed74742" x="449.87976" y="234.379701" style="stroke: #000000; stroke-width: 0.5"/>
      </g>
     </g>
     <g id="text_20">
      <!-- $\mathdefault{2000}$ -->
      <g transform="translate(23.88024 237.75699)scale(0.1 -0.1)">
       <use xlink:href="#NimbusRomNo9L-Regu-32" transform="scale(0.996264)"/>
       <use xlink:href="#NimbusRomNo9L-Regu-30" transform="translate(49.8132 0)scale(0.996264)"/>
       <use xlink:href="#NimbusRomNo9L-Regu-30" transform="translate(99.626401 0)scale(0.996264)"/>
       <use xlink:href="#NimbusRomNo9L-Regu-30" transform="translate(149.439601 0)scale(0.996264)"/>
      </g>
     </g>
    </g>
    <g id="ytick_14">
     <g id="line2d_135">
      <g>
       <use xlink:href="#md4d5f62f23" x="47.30552" y="195.571288" style="stroke: #000000; stroke-width: 0.5"/>
      </g>
     </g>
     <g id="line2d_136">
      <g>
       <use xlink:href="#me98ed74742" x="449.87976" y="195.571288" style="stroke: #000000; stroke-width: 0.5"/>
      </g>
     </g>
     <g id="text_21">
      <!-- $\mathdefault{4000}$ -->
      <g transform="translate(23.88024 198.948577)scale(0.1 -0.1)">
       <use xlink:href="#NimbusRomNo9L-Regu-34" transform="scale(0.996264)"/>
       <use xlink:href="#NimbusRomNo9L-Regu-30" transform="translate(49.8132 0)scale(0.996264)"/>
       <use xlink:href="#NimbusRomNo9L-Regu-30" transform="translate(99.626401 0)scale(0.996264)"/>
       <use xlink:href="#NimbusRomNo9L-Regu-30" transform="translate(149.439601 0)scale(0.996264)"/>
      </g>
     </g>
    </g>
    <g id="ytick_15">
     <g id="line2d_137">
      <g>
       <use xlink:href="#m8dbc605033" x="47.30552" y="263.48601" style="stroke: #000000; stroke-width: 0.5"/>
      </g>
     </g>
     <g id="line2d_138">
      <g>
       <use xlink:href="#mb5e237cdb7" x="449.87976" y="263.48601" style="stroke: #000000; stroke-width: 0.5"/>
      </g>
     </g>
    </g>
    <g id="ytick_16">
     <g id="line2d_139">
      <g>
       <use xlink:href="#m8dbc605033" x="47.30552" y="253.783907" style="stroke: #000000; stroke-width: 0.5"/>
      </g>
     </g>
     <g id="line2d_140">
      <g>
       <use xlink:href="#mb5e237cdb7" x="449.87976" y="253.783907" style="stroke: #000000; stroke-width: 0.5"/>
      </g>
     </g>
    </g>
    <g id="ytick_17">
     <g id="line2d_141">
      <g>
       <use xlink:href="#m8dbc605033" x="47.30552" y="244.081804" style="stroke: #000000; stroke-width: 0.5"/>
      </g>
     </g>
     <g id="line2d_142">
      <g>
       <use xlink:href="#mb5e237cdb7" x="449.87976" y="244.081804" style="stroke: #000000; stroke-width: 0.5"/>
      </g>
     </g>
    </g>
    <g id="ytick_18">
     <g id="line2d_143">
      <g>
       <use xlink:href="#m8dbc605033" x="47.30552" y="224.677598" style="stroke: #000000; stroke-width: 0.5"/>
      </g>
     </g>
     <g id="line2d_144">
      <g>
       <use xlink:href="#mb5e237cdb7" x="449.87976" y="224.677598" style="stroke: #000000; stroke-width: 0.5"/>
      </g>
     </g>
    </g>
    <g id="ytick_19">
     <g id="line2d_145">
      <g>
       <use xlink:href="#m8dbc605033" x="47.30552" y="214.975495" style="stroke: #000000; stroke-width: 0.5"/>
      </g>
     </g>
     <g id="line2d_146">
      <g>
       <use xlink:href="#mb5e237cdb7" x="449.87976" y="214.975495" style="stroke: #000000; stroke-width: 0.5"/>
      </g>
     </g>
    </g>
    <g id="ytick_20">
     <g id="line2d_147">
      <g>
       <use xlink:href="#m8dbc605033" x="47.30552" y="205.273392" style="stroke: #000000; stroke-width: 0.5"/>
      </g>
     </g>
     <g id="line2d_148">
      <g>
       <use xlink:href="#mb5e237cdb7" x="449.87976" y="205.273392" style="stroke: #000000; stroke-width: 0.5"/>
      </g>
     </g>
    </g>
    <g id="ytick_21">
     <g id="line2d_149">
      <g>
       <use xlink:href="#m8dbc605033" x="47.30552" y="185.869185" style="stroke: #000000; stroke-width: 0.5"/>
      </g>
     </g>
     <g id="line2d_150">
      <g>
       <use xlink:href="#mb5e237cdb7" x="449.87976" y="185.869185" style="stroke: #000000; stroke-width: 0.5"/>
      </g>
     </g>
    </g>
    <g id="ytick_22">
     <g id="line2d_151">
      <g>
       <use xlink:href="#m8dbc605033" x="47.30552" y="176.167082" style="stroke: #000000; stroke-width: 0.5"/>
      </g>
     </g>
     <g id="line2d_152">
      <g>
       <use xlink:href="#mb5e237cdb7" x="449.87976" y="176.167082" style="stroke: #000000; stroke-width: 0.5"/>
      </g>
     </g>
    </g>
   </g>
   <g id="patch_12">
    <path d="M 66.386561 273.188114 
L 66.386561 273.03288 
L 80.99385 272.955263 
L 80.99385 272.644796 
L 88.297494 272.683604 
L 88.297494 272.43135 
L 91.949316 272.43135 
L 91.949316 272.237307 
L 102.904783 272.237307 
L 102.904783 271.965649 
L 106.556605 271.965649 
L 106.556605 271.519352 
L 110.208427 271.519352 
L 110.208427 271.111863 
L 113.860249 271.111863 
L 113.860249 270.665567 
L 117.512072 270.665567 
L 117.512072 270.393908 
L 121.163894 270.393908 
L 121.163894 270.238674 
L 124.815716 270.238674 
L 124.815716 270.374504 
L 128.467538 270.374504 
L 128.467538 269.365485 
L 132.11936 269.365485 
L 132.11936 268.996805 
L 135.771183 268.996805 
L 135.771183 269.171443 
L 139.423005 269.171443 
L 139.423005 268.686338 
L 143.074827 268.686338 
L 143.074827 267.987786 
L 150.378471 267.948978 
L 150.378471 266.765321 
L 154.030293 266.765321 
L 154.030293 266.881747 
L 157.682116 266.881747 
L 157.682116 266.163791 
L 164.98576 266.105578 
L 164.98576 266.357833 
L 168.637582 266.357833 
L 168.637582 265.154772 
L 172.289404 265.154772 
L 172.289404 265.659282 
L 175.941227 265.659282 
L 175.941227 265.212985 
L 179.593049 265.212985 
L 179.593049 264.980134 
L 183.244871 264.980134 
L 183.244871 264.708475 
L 186.896693 264.708475 
L 186.896693 264.126349 
L 194.200338 264.087541 
L 194.200338 264.630859 
L 197.85216 264.630859 
L 197.85216 263.99052 
L 201.503982 263.99052 
L 201.503982 263.136735 
L 205.155804 263.136735 
L 205.155804 262.729246 
L 208.807626 262.729246 
L 208.807626 263.505415 
L 212.459449 263.505415 
L 212.459449 263.311373 
L 216.111271 263.311373 
L 216.111271 262.690438 
L 219.763093 262.690438 
L 219.763093 262.011291 
L 223.414915 262.011291 
L 223.414915 262.787459 
L 227.066737 262.787459 
L 227.066737 262.185929 
L 230.71856 262.185929 
L 230.71856 261.836653 
L 238.022204 261.856057 
L 238.022204 261.720228 
L 241.674026 261.720228 
L 241.674026 261.91427 
L 245.325848 261.91427 
L 245.325848 262.205333 
L 248.977671 262.205333 
L 248.977671 261.138101 
L 252.629493 261.138101 
L 252.629493 261.021676 
L 256.281315 261.021676 
L 256.281315 261.77844 
L 263.584959 261.836653 
L 263.584959 260.381337 
L 267.236782 260.381337 
L 267.236782 261.215718 
L 270.888604 261.215718 
L 270.888604 260.07087 
L 274.540426 260.07087 
L 274.540426 261.215718 
L 278.192248 261.215718 
L 278.192248 261.079889 
L 281.84407 261.079889 
L 281.84407 259.954445 
L 285.495893 259.954445 
L 285.495893 260.245508 
L 289.147715 260.245508 
L 289.147715 259.120064 
L 292.799537 259.120064 
L 292.799537 259.70219 
L 296.451359 259.70219 
L 296.451359 260.652996 
L 300.103181 260.652996 
L 300.103181 260.323125 
L 303.755004 260.323125 
L 303.755004 261.235122 
L 307.406826 261.235122 
L 307.406826 258.712576 
L 311.058648 258.712576 
L 311.058648 260.187295 
L 314.71047 260.187295 
L 314.71047 259.314106 
L 318.362292 259.314106 
L 318.362292 260.012657 
L 322.014115 260.012657 
L 322.014115 260.187295 
L 325.665937 260.187295 
L 325.665937 259.663382 
L 332.969581 259.643978 
L 332.969581 259.391723 
L 336.621403 259.391723 
L 336.621403 258.829001 
L 340.273226 258.829001 
L 340.273226 259.042447 
L 343.925048 259.042447 
L 343.925048 259.275298 
L 347.57687 259.275298 
L 347.57687 260.2067 
L 351.228692 260.2067 
L 351.228692 259.294702 
L 358.532337 259.294702 
L 358.532337 259.527552 
L 365.835981 259.449936 
L 365.835981 259.896232 
L 369.487803 259.896232 
L 369.487803 259.275298 
L 373.139625 259.275298 
L 373.139625 259.003639 
L 376.791448 259.003639 
L 376.791448 259.935041 
L 380.44327 259.935041 
L 380.44327 259.217085 
L 384.095092 259.217085 
L 384.095092 258.770788 
L 387.746914 258.770788 
L 387.746914 260.245508 
L 391.398736 260.245508 
L 391.398736 259.197681 
L 395.050559 259.197681 
L 395.050559 259.33351 
L 402.354203 259.314106 
L 402.354203 258.984235 
L 406.006025 258.984235 
L 406.006025 259.33351 
L 409.657847 259.33351 
L 409.657847 258.460321 
L 416.961492 258.402108 
L 416.961492 259.120064 
L 420.613314 259.120064 
L 420.613314 258.654363 
L 424.265136 258.654363 
L 424.265136 259.391723 
L 427.916958 259.391723 
L 427.916958 259.876828 
L 431.56878 259.876828 
L 431.56878 273.188114 
L 431.56878 273.188114 
" clip-path="url(#p31294ea708)" style="fill: none; stroke: #0000ff; stroke-linejoin: miter"/>
   </g>
   <g id="patch_13">
    <path d="M 65.604349 273.188114 
L 65.604349 174.459512 
L 69.264115 174.459512 
L 69.264115 176.128274 
L 72.923881 176.128274 
L 72.923881 176.555166 
L 76.583647 176.555166 
L 76.583647 178.398566 
L 80.243413 178.398566 
L 80.243413 175.352105 
L 83.903178 175.352105 
L 83.903178 173.120622 
L 87.562944 173.120622 
L 87.562944 176.496954 
L 91.22271 176.496954 
L 91.22271 177.81644 
L 94.882476 177.81644 
L 94.882476 176.555166 
L 98.542242 176.555166 
L 98.542242 176.147678 
L 102.202007 176.147678 
L 102.202007 176.438741 
L 105.861773 176.438741 
L 105.861773 177.544781 
L 109.521539 177.544781 
L 109.521539 180.067328 
L 113.181305 180.067328 
L 113.181305 179.75686 
L 116.841071 179.75686 
L 116.841071 179.194138 
L 120.500837 179.194138 
L 120.500837 178.204524 
L 124.160602 178.204524 
L 124.160602 179.349372 
L 127.820368 179.349372 
L 127.820368 180.474816 
L 131.480134 180.474816 
L 131.480134 179.077713 
L 135.1399 179.077713 
L 135.1399 181.813706 
L 138.799666 181.813706 
L 138.799666 182.085365 
L 142.459431 182.085365 
L 142.459431 180.183753 
L 146.119197 180.183753 
L 146.119197 183.288426 
L 149.778963 183.288426 
L 149.778963 182.958554 
L 153.438729 182.958554 
L 153.438729 179.368776 
L 157.098495 179.368776 
L 157.098495 180.26137 
L 160.758261 180.26137 
L 160.758261 184.64672 
L 164.418026 184.64672 
L 164.418026 183.986977 
L 168.077792 183.986977 
L 168.077792 183.463064 
L 171.737558 183.463064 
L 171.737558 182.298811 
L 179.05709 182.240599 
L 179.05709 182.512258 
L 182.716855 182.512258 
L 182.716855 184.879571 
L 186.376621 184.879571 
L 186.376621 185.364676 
L 190.036387 185.364676 
L 190.036387 182.919746 
L 193.696153 182.919746 
L 193.696153 184.724337 
L 197.355919 184.724337 
L 197.355919 185.15123 
L 201.015684 185.15123 
L 201.015684 185.636335 
L 204.67545 185.636335 
L 204.67545 188.93505 
L 208.335216 188.93505 
L 208.335216 187.09165 
L 211.994982 187.09165 
L 211.994982 186.800587 
L 215.654748 186.800587 
L 215.654748 184.452678 
L 219.314514 184.452678 
L 219.314514 188.702199 
L 222.974279 188.702199 
L 222.974279 188.546966 
L 226.634045 188.546966 
L 226.634045 188.760412 
L 233.953577 188.760412 
L 233.953577 186.063227 
L 237.613343 186.063227 
L 237.613343 187.052842 
L 241.273108 187.052842 
L 241.273108 187.537947 
L 244.932874 187.537947 
L 244.932874 188.488753 
L 248.59264 188.488753 
L 248.59264 187.208076 
L 252.252406 187.208076 
L 252.252406 188.488753 
L 255.912172 188.488753 
L 255.912172 188.857433 
L 259.571938 188.857433 
L 259.571938 189.497772 
L 263.231703 189.497772 
L 263.231703 189.109688 
L 270.551235 189.206709 
L 270.551235 189.711218 
L 274.211001 189.711218 
L 274.211001 192.059127 
L 277.870767 192.059127 
L 277.870767 189.264921 
L 281.530532 189.264921 
L 281.530532 188.100669 
L 285.190298 188.100669 
L 285.190298 188.217094 
L 288.850064 188.217094 
L 288.850064 190.856066 
L 292.50983 190.856066 
L 292.50983 190.235132 
L 296.169596 190.235132 
L 296.169596 189.361942 
L 299.829362 189.361942 
L 299.829362 191.205342 
L 303.489127 191.205342 
L 303.489127 188.682795 
L 307.148893 188.682795 
L 307.148893 187.557351 
L 310.808659 187.557351 
L 310.808659 189.032071 
L 314.468425 189.032071 
L 314.468425 192.233765 
L 318.128191 192.233765 
L 318.128191 190.312749 
L 321.787956 190.312749 
L 321.787956 189.614197 
L 325.447722 189.614197 
L 325.447722 188.158882 
L 329.107488 188.158882 
L 329.107488 192.291978 
L 332.767254 192.291978 
L 332.767254 191.341171 
L 336.42702 191.341171 
L 336.42702 188.100669 
L 340.086786 188.100669 
L 340.086786 187.731989 
L 343.746551 187.731989 
L 343.746551 192.466615 
L 347.406317 192.466615 
L 347.406317 189.711218 
L 351.066083 189.711218 
L 351.066083 188.527562 
L 354.725849 188.527562 
L 354.725849 191.438192 
L 358.385615 191.438192 
L 358.385615 189.517176 
L 362.04538 189.517176 
L 362.04538 189.691814 
L 365.705146 189.691814 
L 365.705146 189.109688 
L 369.364912 189.109688 
L 369.364912 188.352924 
L 373.024678 188.352924 
L 373.024678 190.390365 
L 376.684444 190.390365 
L 376.684444 192.214361 
L 380.344209 192.214361 
L 380.344209 188.973858 
L 384.003975 188.973858 
L 384.003975 190.157515 
L 387.663741 190.157515 
L 387.663741 189.012667 
L 391.323507 189.012667 
L 391.323507 188.79922 
L 394.983273 188.79922 
L 394.983273 191.515809 
L 398.643039 191.515809 
L 398.643039 189.264921 
L 402.302804 189.264921 
L 402.302804 191.574022 
L 405.96257 191.574022 
L 405.96257 190.991896 
L 409.622336 190.991896 
L 409.622336 189.67241 
L 413.282102 189.67241 
L 413.282102 189.478368 
L 416.941868 189.478368 
L 416.941868 190.40977 
L 420.601633 190.40977 
L 420.601633 189.284326 
L 424.261399 189.284326 
L 424.261399 189.090284 
L 427.921165 189.090284 
L 427.921165 188.43054 
L 431.580931 188.43054 
L 431.580931 273.188114 
L 431.580931 273.188114 
" clip-path="url(#p31294ea708)" style="fill: none; stroke: #ff0000; stroke-linejoin: miter"/>
   </g>
   <g id="patch_14">
    <path d="M 47.30552 273.188114 
L 47.30552 168.117247 
" style="fill: none; stroke: #000000; stroke-width: 0.5; stroke-linejoin: miter; stroke-linecap: square"/>
   </g>
   <g id="patch_15">
    <path d="M 449.87976 273.188114 
L 449.87976 168.117247 
" style="fill: none; stroke: #000000; stroke-width: 0.5; stroke-linejoin: miter; stroke-linecap: square"/>
   </g>
   <g id="patch_16">
    <path d="M 47.30552 273.188114 
L 449.87976 273.188114 
" style="fill: none; stroke: #000000; stroke-width: 0.5; stroke-linejoin: miter; stroke-linecap: square"/>
   </g>
   <g id="patch_17">
    <path d="M 47.30552 168.117247 
L 449.87976 168.117247 
" style="fill: none; stroke: #000000; stroke-width: 0.5; stroke-linejoin: miter; stroke-linecap: square"/>
   </g>
   <g id="text_22">
    <!-- $m_{\widetilde{q_{3L}}}$ -->
    <g transform="translate(238.353084 162.117247)scale(0.12 -0.12)">
     <use xlink:href="#NimbusRomNo9L-ReguItal-6d" transform="scale(0.996264)"/>
     <use xlink:href="#CMEX10-66" transform="translate(85.399174 -21.022165)scale(0.737241)"/>
     <use xlink:href="#NimbusRomNo9L-ReguItal-71" transform="translate(71.929985 -21.353746)scale(0.737241)"/>
     <use xlink:href="#NimbusRomNo9L-Regu-33" transform="translate(108.792027 -35.983227)scale(0.597764)"/>
     <use xlink:href="#NimbusRomNo9L-ReguItal-4c" transform="translate(138.680251 -35.983227)scale(0.597764)"/>
    </g>
   </g>
   <g id="legend_2">
    <g id="patch_18">
     <path d="M 392.95448 184.117247 
L 412.95448 184.117247 
L 412.95448 177.117247 
L 392.95448 177.117247 
L 392.95448 184.117247 
z
" style="fill: none; stroke: #0000ff; stroke-linejoin: miter"/>
    </g>
    <g id="text_23">
     <!-- good -->
     <g transform="translate(420.95448 184.117247)scale(0.1 -0.1)">
      <use xlink:href="#NimbusRomNo9L-Regu-67" transform="scale(0.996264)"/>
      <use xlink:href="#NimbusRomNo9L-Regu-6f" transform="translate(49.8132 0)scale(0.996264)"/>
      <use xlink:href="#NimbusRomNo9L-Regu-6f" transform="translate(99.626401 0)scale(0.996264)"/>
      <use xlink:href="#NimbusRomNo9L-Regu-64" transform="translate(149.439601 0)scale(0.996264)"/>
     </g>
    </g>
    <g id="patch_19">
     <path d="M 392.95448 198.274076 
L 412.95448 198.274076 
L 412.95448 191.274076 
L 392.95448 191.274076 
L 392.95448 198.274076 
z
" style="fill: none; stroke: #ff0000; stroke-linejoin: miter"/>
    </g>
    <g id="text_24">
     <!-- bad -->
     <g transform="translate(420.95448 198.274076)scale(0.1 -0.1)">
      <use xlink:href="#NimbusRomNo9L-Regu-62" transform="scale(0.996264)"/>
      <use xlink:href="#NimbusRomNo9L-Regu-61" transform="translate(49.8132 0)scale(0.996264)"/>
      <use xlink:href="#NimbusRomNo9L-Regu-64" transform="translate(94.046769 0)scale(0.996264)"/>
     </g>
    </g>
   </g>
  </g>
  <g id="text_25">
   <!-- Histogramme des paramtres de masse -->
   <g transform="translate(143.917802 11.765242)scale(0.12 -0.12)">
    <defs>
     <path id="NimbusRomNo9L-Regu-48" d="M 1338 2304 
L 1338 3533 
C 1338 3990 1408 4059 1901 4104 
L 1901 4224 
L 122 4224 
L 122 4104 
C 614 4059 685 3989 685 3527 
L 685 749 
C 685 210 621 134 122 134 
L 122 0 
L 1901 0 
L 1901 121 
C 1421 159 1338 242 1338 699 
L 1338 2022 
L 3277 2022 
L 3277 757 
C 3277 211 3213 134 2714 134 
L 2714 0 
L 4493 0 
L 4493 121 
C 4013 159 3930 242 3930 696 
L 3930 3529 
C 3930 3989 4000 4059 4493 4104 
L 4493 4224 
L 2714 4224 
L 2714 4104 
C 3206 4059 3277 3990 3277 3533 
L 3277 2304 
L 1338 2304 
z
" transform="scale(0.015625)"/>
     <path id="NimbusRomNo9L-Regu-69" d="M 1120 2929 
L 128 2579 
L 128 2484 
L 179 2490 
C 256 2502 339 2509 397 2509 
C 550 2509 608 2406 608 2125 
L 608 640 
C 608 179 544 109 102 109 
L 102 0 
L 1619 0 
L 1619 96 
C 1197 128 1146 191 1146 650 
L 1146 2910 
L 1120 2929 
z
M 819 4352 
C 646 4352 499 4205 499 4026 
C 499 3847 640 3699 819 3699 
C 1005 3699 1152 3840 1152 4026 
C 1152 4205 1005 4352 819 4352 
z
" transform="scale(0.015625)"/>
     <path id="NimbusRomNo9L-Regu-73" d="M 2016 2010 
L 1990 2880 
L 1920 2880 
L 1907 2867 
C 1850 2822 1843 2816 1818 2816 
C 1779 2816 1715 2829 1645 2861 
C 1504 2915 1363 2944 1197 2944 
C 691 2944 326 2616 326 2154 
C 326 1796 531 1539 1075 1231 
L 1446 1020 
C 1670 892 1779 737 1779 539 
C 1779 256 1574 77 1248 77 
C 1030 77 832 159 710 298 
C 576 455 518 600 435 960 
L 333 960 
L 333 -39 
L 416 -39 
C 461 33 486 48 563 48 
C 621 48 710 35 858 -2 
C 1037 -39 1210 -64 1325 -64 
C 1818 -64 2227 308 2227 757 
C 2227 1077 2074 1289 1690 1520 
L 998 1930 
C 819 2033 723 2194 723 2367 
C 723 2624 922 2803 1216 2803 
C 1581 2803 1773 2583 1920 2010 
L 2016 2010 
z
" transform="scale(0.015625)"/>
     <path id="NimbusRomNo9L-Regu-74" d="M 1632 2880 
L 986 2880 
L 986 3622 
C 986 3686 979 3706 941 3706 
C 896 3648 858 3590 813 3526 
C 570 3174 294 2867 192 2841 
C 122 2794 83 2748 83 2715 
C 83 2695 90 2682 109 2682 
L 448 2682 
L 448 751 
C 448 212 640 -64 1018 -64 
C 1331 -64 1574 90 1786 423 
L 1702 493 
C 1568 333 1459 269 1318 269 
C 1082 269 986 443 986 847 
L 986 2682 
L 1632 2682 
L 1632 2880 
z
" transform="scale(0.015625)"/>
     <path id="NimbusRomNo9L-Regu-72" d="M 45 2496 
C 134 2515 192 2522 269 2522 
C 429 2522 486 2419 486 2138 
L 486 538 
C 486 218 442 173 32 96 
L 32 0 
L 1568 0 
L 1568 102 
C 1133 102 1024 199 1024 565 
L 1024 2013 
C 1024 2219 1299 2541 1472 2541 
C 1510 2541 1568 2509 1638 2445 
C 1741 2355 1811 2317 1894 2317 
C 2048 2317 2144 2426 2144 2605 
C 2144 2816 2010 2944 1792 2944 
C 1523 2944 1338 2797 1024 2343 
L 1024 2931 
L 992 2944 
C 653 2803 422 2721 45 2599 
L 45 2496 
z
" transform="scale(0.015625)"/>
     <path id="NimbusRomNo9L-Regu-6d" d="M 122 2547 
C 205 2566 256 2573 326 2573 
C 493 2573 550 2470 550 2162 
L 550 539 
C 550 192 461 96 102 96 
L 102 0 
L 1523 0 
L 1523 96 
C 1184 96 1088 166 1088 418 
L 1088 2234 
C 1088 2246 1139 2310 1184 2355 
C 1344 2502 1619 2611 1843 2611 
C 2125 2611 2266 2385 2266 1932 
L 2266 528 
C 2266 167 2195 96 1830 96 
L 1830 0 
L 3264 0 
L 3264 96 
C 2899 96 2803 205 2803 603 
L 2803 2221 
C 2995 2496 3206 2611 3501 2611 
C 3866 2611 3981 2438 3981 1907 
L 3981 557 
C 3981 192 3930 141 3558 96 
L 3558 0 
L 4960 0 
L 4960 96 
L 4794 115 
C 4602 115 4518 230 4518 480 
L 4518 1802 
C 4518 2559 4269 2944 3776 2944 
C 3405 2944 3078 2778 2733 2407 
C 2618 2771 2400 2944 2054 2944 
C 1773 2944 1594 2854 1062 2451 
L 1062 2931 
L 1018 2944 
C 691 2822 474 2752 122 2656 
L 122 2547 
z
" transform="scale(0.015625)"/>
     <path id="NimbusRomNo9L-Regu-65" d="M 2611 1053 
C 2304 564 2029 378 1619 378 
C 1254 378 979 564 794 930 
C 678 1174 634 1386 621 1779 
L 2592 1779 
C 2541 2193 2477 2377 2317 2581 
C 2125 2811 1830 2944 1498 2944 
C 1178 2944 877 2829 634 2611 
C 333 2349 160 1894 160 1370 
C 160 486 621 -64 1357 -64 
C 1965 -64 2445 315 2714 1008 
L 2611 1053 
z
M 634 1984 
C 704 2479 922 2714 1312 2714 
C 1702 2714 1856 2535 1939 1984 
L 634 1984 
z
" transform="scale(0.015625)"/>
     <path id="NimbusRomNo9L-Regu-70" d="M 58 2516 
C 115 2522 160 2522 218 2522 
C 435 2522 480 2458 480 2155 
L 480 -855 
C 480 -1189 410 -1261 32 -1299 
L 32 -1408 
L 1581 -1408 
L 1581 -1293 
C 1101 -1293 1018 -1222 1018 -816 
L 1018 199 
C 1242 -13 1395 -77 1664 -77 
C 2419 -77 3008 643 3008 1575 
C 3008 2372 2560 2944 1939 2944 
C 1581 2944 1299 2784 1018 2438 
L 1018 2931 
L 979 2944 
C 634 2810 410 2726 58 2618 
L 58 2516 
z
M 1018 2136 
C 1018 2329 1376 2560 1670 2560 
C 2144 2560 2458 2071 2458 1324 
C 2458 611 2144 128 1683 128 
C 1382 128 1018 359 1018 552 
L 1018 2136 
z
" transform="scale(0.015625)"/>
     <path id="NimbusRomNo9L-Regu-1e" d="M 1549 3264 
L 608 4206 
C 493 4320 435 4352 339 4352 
C 205 4352 122 4275 122 4155 
C 122 4053 192 3957 307 3882 
L 1293 3264 
L 1549 3264 
z
" transform="scale(0.015625)"/>
    </defs>
    <use xlink:href="#NimbusRomNo9L-Regu-48" transform="scale(0.996264)"/>
    <use xlink:href="#NimbusRomNo9L-Regu-69" transform="translate(71.929985 0)scale(0.996264)"/>
    <use xlink:href="#NimbusRomNo9L-Regu-73" transform="translate(99.625154 0)scale(0.996264)"/>
    <use xlink:href="#NimbusRomNo9L-Regu-74" transform="translate(138.378861 0)scale(0.996264)"/>
    <use xlink:href="#NimbusRomNo9L-Regu-6f" transform="translate(166.07403 0)scale(0.996264)"/>
    <use xlink:href="#NimbusRomNo9L-Regu-67" transform="translate(215.887231 0)scale(0.996264)"/>
    <use xlink:href="#NimbusRomNo9L-Regu-72" transform="translate(265.700431 0)scale(0.996264)"/>
    <use xlink:href="#NimbusRomNo9L-Regu-61" transform="translate(298.875661 0)scale(0.996264)"/>
    <use xlink:href="#NimbusRomNo9L-Regu-6d" transform="translate(343.10923 0)scale(0.996264)"/>
    <use xlink:href="#NimbusRomNo9L-Regu-6d" transform="translate(420.6176 0)scale(0.996264)"/>
    <use xlink:href="#NimbusRomNo9L-Regu-65" transform="translate(498.12597 0)scale(0.996264)"/>
    <use xlink:href="#NimbusRomNo9L-Regu-64" transform="translate(567.266139 0)scale(0.996264)"/>
    <use xlink:href="#NimbusRomNo9L-Regu-65" transform="translate(617.079339 0)scale(0.996264)"/>
    <use xlink:href="#NimbusRomNo9L-Regu-73" transform="translate(661.312908 0)scale(0.996264)"/>
    <use xlink:href="#NimbusRomNo9L-Regu-70" transform="translate(724.973214 0)scale(0.996264)"/>
    <use xlink:href="#NimbusRomNo9L-Regu-61" transform="translate(774.786415 0)scale(0.996264)"/>
    <use xlink:href="#NimbusRomNo9L-Regu-72" transform="translate(819.019984 0)scale(0.996264)"/>
    <use xlink:href="#NimbusRomNo9L-Regu-61" transform="translate(852.195213 0)scale(0.996264)"/>
    <use xlink:href="#NimbusRomNo9L-Regu-6d" transform="translate(896.428782 0)scale(0.996264)"/>
    <use xlink:href="#NimbusRomNo9L-Regu-1e" transform="translate(979.466329 0.498056)scale(0.996264)"/>
    <use xlink:href="#NimbusRomNo9L-Regu-65" transform="translate(973.937152 0)scale(0.996264)"/>
    <use xlink:href="#NimbusRomNo9L-Regu-74" transform="translate(1018.170721 0)scale(0.996264)"/>
    <use xlink:href="#NimbusRomNo9L-Regu-72" transform="translate(1045.86589 0)scale(0.996264)"/>
    <use xlink:href="#NimbusRomNo9L-Regu-65" transform="translate(1079.04112 0)scale(0.996264)"/>
    <use xlink:href="#NimbusRomNo9L-Regu-73" transform="translate(1123.274689 0)scale(0.996264)"/>
    <use xlink:href="#NimbusRomNo9L-Regu-64" transform="translate(1186.934995 0)scale(0.996264)"/>
    <use xlink:href="#NimbusRomNo9L-Regu-65" transform="translate(1236.748196 0)scale(0.996264)"/>
    <use xlink:href="#NimbusRomNo9L-Regu-6d" transform="translate(1305.888365 0)scale(0.996264)"/>
    <use xlink:href="#NimbusRomNo9L-Regu-61" transform="translate(1383.396735 0)scale(0.996264)"/>
    <use xlink:href="#NimbusRomNo9L-Regu-73" transform="translate(1427.630304 0)scale(0.996264)"/>
    <use xlink:href="#NimbusRomNo9L-Regu-73" transform="translate(1466.38401 0)scale(0.996264)"/>
    <use xlink:href="#NimbusRomNo9L-Regu-65" transform="translate(1505.137716 0)scale(0.996264)"/>
   </g>
  </g>
  <g id="text_26">
   <!-- Masse (GeV) -->
   <g transform="translate(210.185427 302.99976)scale(0.1 -0.1)">
    <defs>
     <path id="NimbusRomNo9L-Regu-4d" d="M 4314 3667 
L 4314 751 
C 4314 217 4237 134 3731 134 
L 3731 0 
L 5523 0 
L 5523 134 
C 5056 134 4966 223 4966 681 
L 4966 3536 
C 4966 3993 5050 4077 5523 4115 
L 5523 4237 
L 4250 4237 
L 2835 1004 
L 1357 4237 
L 90 4237 
L 90 4096 
C 614 4096 698 4019 698 3550 
L 698 943 
C 698 282 608 159 77 121 
L 77 0 
L 1581 0 
L 1581 134 
C 1088 134 979 282 979 931 
L 979 3520 
L 2586 0 
L 2675 0 
L 4314 3667 
z
" transform="scale(0.015625)"/>
     <path id="NimbusRomNo9L-Regu-28" d="M 1888 4326 
C 1414 4019 1222 3853 986 3558 
C 531 3002 307 2362 307 1613 
C 307 800 544 173 1107 -480 
C 1370 -787 1536 -928 1869 -1133 
L 1946 -1030 
C 1434 -627 1254 -403 1082 77 
C 928 506 858 992 858 1632 
C 858 2304 941 2829 1114 3226 
C 1293 3622 1485 3853 1946 4224 
L 1888 4326 
z
" transform="scale(0.015625)"/>
     <path id="NimbusRomNo9L-Regu-47" d="M 4538 2304 
L 2906 2304 
L 2906 2176 
C 3181 2176 3258 2157 3334 2105 
C 3430 2047 3469 1898 3469 1621 
L 3469 574 
C 3469 367 3078 192 2618 192 
C 1574 192 934 922 934 2112 
C 934 2714 1114 3296 1395 3610 
C 1677 3924 2074 4096 2509 4096 
C 2867 4096 3181 3975 3430 3744 
C 3622 3565 3725 3392 3885 3002 
L 4032 3002 
L 3981 4352 
L 3840 4352 
C 3802 4231 3686 4141 3552 4141 
C 3488 4141 3386 4160 3270 4205 
C 2982 4301 2688 4352 2400 4352 
C 1120 4352 205 3412 205 2106 
C 205 1479 378 999 736 621 
C 1165 180 1779 -64 2483 -64 
C 3034 -64 3834 160 4090 385 
L 4090 1694 
C 4090 2073 4166 2157 4538 2189 
L 4538 2304 
z
" transform="scale(0.015625)"/>
     <path id="NimbusRomNo9L-Regu-56" d="M 4461 4231 
L 3149 4231 
L 3149 4096 
C 3501 4096 3616 4026 3616 3846 
C 3616 3744 3571 3572 3494 3380 
L 2554 1033 
L 1587 3199 
C 1376 3667 1325 3814 1325 3910 
C 1325 4032 1414 4096 1619 4096 
C 1645 4096 1715 4096 1805 4109 
L 1805 4231 
L 102 4231 
L 102 4096 
C 416 4096 506 4007 781 3439 
L 2355 -64 
L 2451 -64 
L 3872 3521 
C 4083 4026 4154 4096 4461 4096 
L 4461 4231 
z
" transform="scale(0.015625)"/>
     <path id="NimbusRomNo9L-Regu-29" d="M 243 -1133 
C 717 -826 909 -659 1146 -365 
C 1600 192 1824 832 1824 1581 
C 1824 2400 1587 3021 1024 3674 
C 762 3981 595 4122 262 4326 
L 186 4224 
C 698 3821 870 3597 1050 3117 
C 1203 2688 1274 2202 1274 1562 
C 1274 896 1190 365 1018 -26 
C 838 -429 646 -659 186 -1030 
L 243 -1133 
z
" transform="scale(0.015625)"/>
    </defs>
    <use xlink:href="#NimbusRomNo9L-Regu-4d" transform="scale(0.996264)"/>
    <use xlink:href="#NimbusRomNo9L-Regu-61" transform="translate(88.566907 0)scale(0.996264)"/>
    <use xlink:href="#NimbusRomNo9L-Regu-73" transform="translate(132.800475 0)scale(0.996264)"/>
    <use xlink:href="#NimbusRomNo9L-Regu-73" transform="translate(171.554182 0)scale(0.996264)"/>
    <use xlink:href="#NimbusRomNo9L-Regu-65" transform="translate(210.307888 0)scale(0.996264)"/>
    <use xlink:href="#NimbusRomNo9L-Regu-28" transform="translate(279.448057 0)scale(0.996264)"/>
    <use xlink:href="#NimbusRomNo9L-Regu-47" transform="translate(312.623286 0)scale(0.996264)"/>
    <use xlink:href="#NimbusRomNo9L-Regu-65" transform="translate(384.553271 0)scale(0.996264)"/>
    <use xlink:href="#NimbusRomNo9L-Regu-56" transform="translate(428.78684 0)scale(0.996264)"/>
    <use xlink:href="#NimbusRomNo9L-Regu-29" transform="translate(500.716825 0)scale(0.996264)"/>
   </g>
  </g>
  <g id="text_27">
   <!-- N -->
   <g transform="translate(10.354578 148.196258)rotate(-90)scale(0.1 -0.1)">
    <defs>
     <path id="NimbusRomNo9L-Regu-4e" d="M 3917 -64 
L 3917 3287 
C 3917 3669 3981 3905 4102 3987 
C 4192 4051 4282 4077 4525 4102 
L 4525 4224 
L 3021 4224 
L 3021 4102 
C 3264 4083 3354 4057 3450 4000 
C 3578 3911 3635 3681 3635 3286 
L 3635 1136 
L 1171 4224 
L 77 4224 
L 77 4102 
C 352 4102 442 4051 698 3751 
L 698 938 
C 698 281 608 159 77 121 
L 77 0 
L 1581 0 
L 1581 134 
C 1088 134 979 281 979 928 
L 979 3439 
L 3808 -64 
L 3917 -64 
z
" transform="scale(0.015625)"/>
    </defs>
    <use xlink:href="#NimbusRomNo9L-Regu-4e" transform="scale(0.996264)"/>
   </g>
  </g>
 </g>
 <defs>
  <clipPath id="pf216162f05">
   <rect x="47.30552" y="32.494206" width="402.57424" height="105.070866"/>
  </clipPath>
  <clipPath id="p31294ea708">
   <rect x="47.30552" y="168.117247" width="402.57424" height="105.070866"/>
  </clipPath>
 </defs>
</svg>
