<?xml version="1.0" encoding="utf-8" standalone="no"?>
<!DOCTYPE svg PUBLIC "-//W3C//DTD SVG 1.1//EN"
  "http://www.w3.org/Graphics/SVG/1.1/DTD/svg11.dtd">
<svg xmlns:xlink="http://www.w3.org/1999/xlink" width="378.336687pt" height="264.128055pt" viewBox="0 0 378.336687 264.128055" xmlns="http://www.w3.org/2000/svg" version="1.1">
 <metadata>
  <rdf:RDF xmlns:dc="http://purl.org/dc/elements/1.1/" xmlns:cc="http://creativecommons.org/ns#" xmlns:rdf="http://www.w3.org/1999/02/22-rdf-syntax-ns#">
   <cc:Work>
    <dc:type rdf:resource="http://purl.org/dc/dcmitype/StillImage"/>
    <dc:date>2022-06-23T14:39:26.596204</dc:date>
    <dc:format>image/svg+xml</dc:format>
    <dc:creator>
     <cc:Agent>
      <dc:title>Matplotlib v3.5.2, https://matplotlib.org/</dc:title>
     </cc:Agent>
    </dc:creator>
   </cc:Work>
  </rdf:RDF>
 </metadata>
 <defs>
  <style type="text/css">*{stroke-linejoin: round; stroke-linecap: butt}</style>
 </defs>
 <g id="figure_1">
  <g id="patch_1">
   <path d="M 0 264.128055 
L 378.336687 264.128055 
L 378.336687 0 
L 0 0 
L 0 264.128055 
z
" style="fill: none"/>
  </g>
  <g id="axes_1">
   <g id="patch_2">
    <path d="M 39.936687 235.205242 
L 374.736687 235.205242 
L 374.736687 17.765242 
L 39.936687 17.765242 
z
" style="fill: #ffffff"/>
   </g>
   <g id="patch_3">
    <path d="M 55.154868 235.205242 
L 58.198505 235.205242 
L 58.198505 219.145347 
L 55.154868 219.145347 
z
" clip-path="url(#p9b953adaa4)" style="fill: #0000ff"/>
   </g>
   <g id="patch_4">
    <path d="M 58.198505 235.205242 
L 61.242141 235.205242 
L 61.242141 217.086386 
L 58.198505 217.086386 
z
" clip-path="url(#p9b953adaa4)" style="fill: #0000ff"/>
   </g>
   <g id="patch_5">
    <path d="M 61.242141 235.205242 
L 64.285778 235.205242 
L 64.285778 216.766103 
L 61.242141 216.766103 
z
" clip-path="url(#p9b953adaa4)" style="fill: #0000ff"/>
   </g>
   <g id="patch_6">
    <path d="M 64.285778 235.205242 
L 67.329414 235.205242 
L 67.329414 215.896764 
L 64.285778 215.896764 
z
" clip-path="url(#p9b953adaa4)" style="fill: #0000ff"/>
   </g>
   <g id="patch_7">
    <path d="M 67.329414 235.205242 
L 70.37305 235.205242 
L 70.37305 214.524124 
L 67.329414 214.524124 
z
" clip-path="url(#p9b953adaa4)" style="fill: #0000ff"/>
   </g>
   <g id="patch_8">
    <path d="M 70.37305 235.205242 
L 73.416687 235.205242 
L 73.416687 216.171292 
L 70.37305 216.171292 
z
" clip-path="url(#p9b953adaa4)" style="fill: #0000ff"/>
   </g>
   <g id="patch_9">
    <path d="M 73.416687 235.205242 
L 76.460323 235.205242 
L 76.460323 214.386859 
L 73.416687 214.386859 
z
" clip-path="url(#p9b953adaa4)" style="fill: #0000ff"/>
   </g>
   <g id="patch_10">
    <path d="M 76.460323 235.205242 
L 79.503959 235.205242 
L 79.503959 214.844406 
L 76.460323 214.844406 
z
" clip-path="url(#p9b953adaa4)" style="fill: #0000ff"/>
   </g>
   <g id="patch_11">
    <path d="M 79.503959 235.205242 
L 82.547596 235.205242 
L 82.547596 211.641578 
L 79.503959 211.641578 
z
" clip-path="url(#p9b953adaa4)" style="fill: #0000ff"/>
   </g>
   <g id="patch_12">
    <path d="M 82.547596 235.205242 
L 85.591232 235.205242 
L 85.591232 212.05337 
L 82.547596 212.05337 
z
" clip-path="url(#p9b953adaa4)" style="fill: #0000ff"/>
   </g>
   <g id="patch_13">
    <path d="M 85.591232 235.205242 
L 88.634868 235.205242 
L 88.634868 209.857145 
L 85.591232 209.857145 
z
" clip-path="url(#p9b953adaa4)" style="fill: #0000ff"/>
   </g>
   <g id="patch_14">
    <path d="M 88.634868 235.205242 
L 91.678505 235.205242 
L 91.678505 207.798185 
L 88.634868 207.798185 
z
" clip-path="url(#p9b953adaa4)" style="fill: #0000ff"/>
   </g>
   <g id="patch_15">
    <path d="M 91.678505 235.205242 
L 94.722141 235.205242 
L 94.722141 209.262335 
L 91.678505 209.262335 
z
" clip-path="url(#p9b953adaa4)" style="fill: #0000ff"/>
   </g>
   <g id="patch_16">
    <path d="M 94.722141 235.205242 
L 97.765778 235.205242 
L 97.765778 206.654317 
L 94.722141 206.654317 
z
" clip-path="url(#p9b953adaa4)" style="fill: #0000ff"/>
   </g>
   <g id="patch_17">
    <path d="M 97.765778 235.205242 
L 100.809414 235.205242 
L 100.809414 207.798185 
L 97.765778 207.798185 
z
" clip-path="url(#p9b953adaa4)" style="fill: #0000ff"/>
   </g>
   <g id="patch_18">
    <path d="M 100.809414 235.205242 
L 103.85305 235.205242 
L 103.85305 205.373186 
L 100.809414 205.373186 
z
" clip-path="url(#p9b953adaa4)" style="fill: #0000ff"/>
   </g>
   <g id="patch_19">
    <path d="M 103.85305 235.205242 
L 106.896687 235.205242 
L 106.896687 206.700072 
L 103.85305 206.700072 
z
" clip-path="url(#p9b953adaa4)" style="fill: #0000ff"/>
   </g>
   <g id="patch_20">
    <path d="M 106.896687 235.205242 
L 109.940323 235.205242 
L 109.940323 204.0463 
L 106.896687 204.0463 
z
" clip-path="url(#p9b953adaa4)" style="fill: #0000ff"/>
   </g>
   <g id="patch_21">
    <path d="M 109.940323 235.205242 
L 112.983959 235.205242 
L 112.983959 204.869885 
L 109.940323 204.869885 
z
" clip-path="url(#p9b953adaa4)" style="fill: #0000ff"/>
   </g>
   <g id="patch_22">
    <path d="M 112.983959 235.205242 
L 116.027596 235.205242 
L 116.027596 203.954791 
L 112.983959 203.954791 
z
" clip-path="url(#p9b953adaa4)" style="fill: #0000ff"/>
   </g>
   <g id="patch_23">
    <path d="M 116.027596 235.205242 
L 119.071232 235.205242 
L 119.071232 202.902433 
L 116.027596 202.902433 
z
" clip-path="url(#p9b953adaa4)" style="fill: #0000ff"/>
   </g>
   <g id="patch_24">
    <path d="M 119.071232 235.205242 
L 122.114868 235.205242 
L 122.114868 199.608096 
L 119.071232 199.608096 
z
" clip-path="url(#p9b953adaa4)" style="fill: #0000ff"/>
   </g>
   <g id="patch_25">
    <path d="M 122.114868 235.205242 
L 125.158505 235.205242 
L 125.158505 201.89583 
L 122.114868 201.89583 
z
" clip-path="url(#p9b953adaa4)" style="fill: #0000ff"/>
   </g>
   <g id="patch_26">
    <path d="M 125.158505 235.205242 
L 128.202141 235.205242 
L 128.202141 200.751963 
L 125.158505 200.751963 
z
" clip-path="url(#p9b953adaa4)" style="fill: #0000ff"/>
   </g>
   <g id="patch_27">
    <path d="M 128.202141 235.205242 
L 131.245778 235.205242 
L 131.245778 200.797717 
L 128.202141 200.797717 
z
" clip-path="url(#p9b953adaa4)" style="fill: #0000ff"/>
   </g>
   <g id="patch_28">
    <path d="M 131.245778 235.205242 
L 134.289414 235.205242 
L 134.289414 200.477435 
L 131.245778 200.477435 
z
" clip-path="url(#p9b953adaa4)" style="fill: #0000ff"/>
   </g>
   <g id="patch_29">
    <path d="M 134.289414 235.205242 
L 137.33305 235.205242 
L 137.33305 199.882624 
L 134.289414 199.882624 
z
" clip-path="url(#p9b953adaa4)" style="fill: #0000ff"/>
   </g>
   <g id="patch_30">
    <path d="M 137.33305 235.205242 
L 140.376687 235.205242 
L 140.376687 198.96753 
L 137.33305 198.96753 
z
" clip-path="url(#p9b953adaa4)" style="fill: #0000ff"/>
   </g>
   <g id="patch_31">
    <path d="M 140.376687 235.205242 
L 143.420323 235.205242 
L 143.420323 195.307155 
L 140.376687 195.307155 
z
" clip-path="url(#p9b953adaa4)" style="fill: #0000ff"/>
   </g>
   <g id="patch_32">
    <path d="M 143.420323 235.205242 
L 146.463959 235.205242 
L 146.463959 198.372719 
L 143.420323 198.372719 
z
" clip-path="url(#p9b953adaa4)" style="fill: #0000ff"/>
   </g>
   <g id="patch_33">
    <path d="M 146.463959 235.205242 
L 149.507596 235.205242 
L 149.507596 197.366116 
L 146.463959 197.366116 
z
" clip-path="url(#p9b953adaa4)" style="fill: #0000ff"/>
   </g>
   <g id="patch_34">
    <path d="M 149.507596 235.205242 
L 152.551232 235.205242 
L 152.551232 195.490174 
L 149.507596 195.490174 
z
" clip-path="url(#p9b953adaa4)" style="fill: #0000ff"/>
   </g>
   <g id="patch_35">
    <path d="M 152.551232 235.205242 
L 155.594868 235.205242 
L 155.594868 194.117533 
L 152.551232 194.117533 
z
" clip-path="url(#p9b953adaa4)" style="fill: #0000ff"/>
   </g>
   <g id="patch_36">
    <path d="M 155.594868 235.205242 
L 158.638505 235.205242 
L 158.638505 194.895363 
L 155.594868 194.895363 
z
" clip-path="url(#p9b953adaa4)" style="fill: #0000ff"/>
   </g>
   <g id="patch_37">
    <path d="M 158.638505 235.205242 
L 161.682141 235.205242 
L 161.682141 197.823663 
L 158.638505 197.823663 
z
" clip-path="url(#p9b953adaa4)" style="fill: #0000ff"/>
   </g>
   <g id="patch_38">
    <path d="M 161.682141 235.205242 
L 164.725778 235.205242 
L 164.725778 195.490174 
L 161.682141 195.490174 
z
" clip-path="url(#p9b953adaa4)" style="fill: #0000ff"/>
   </g>
   <g id="patch_39">
    <path d="M 164.725778 235.205242 
L 167.769414 235.205242 
L 167.769414 194.163288 
L 164.725778 194.163288 
z
" clip-path="url(#p9b953adaa4)" style="fill: #0000ff"/>
   </g>
   <g id="patch_40">
    <path d="M 167.769414 235.205242 
L 170.81305 235.205242 
L 170.81305 195.993475 
L 167.769414 195.993475 
z
" clip-path="url(#p9b953adaa4)" style="fill: #0000ff"/>
   </g>
   <g id="patch_41">
    <path d="M 170.81305 235.205242 
L 173.856687 235.205242 
L 173.856687 194.437816 
L 170.81305 194.437816 
z
" clip-path="url(#p9b953adaa4)" style="fill: #0000ff"/>
   </g>
   <g id="patch_42">
    <path d="M 173.856687 235.205242 
L 176.900323 235.205242 
L 176.900323 194.666589 
L 173.856687 194.666589 
z
" clip-path="url(#p9b953adaa4)" style="fill: #0000ff"/>
   </g>
   <g id="patch_43">
    <path d="M 176.900323 235.205242 
L 179.943959 235.205242 
L 179.943959 192.012817 
L 176.900323 192.012817 
z
" clip-path="url(#p9b953adaa4)" style="fill: #0000ff"/>
   </g>
   <g id="patch_44">
    <path d="M 179.943959 235.205242 
L 182.987596 235.205242 
L 182.987596 189.587819 
L 179.943959 189.587819 
z
" clip-path="url(#p9b953adaa4)" style="fill: #0000ff"/>
   </g>
   <g id="patch_45">
    <path d="M 182.987596 235.205242 
L 186.031232 235.205242 
L 186.031232 186.613764 
L 182.987596 186.613764 
z
" clip-path="url(#p9b953adaa4)" style="fill: #0000ff"/>
   </g>
   <g id="patch_46">
    <path d="M 186.031232 235.205242 
L 189.074868 235.205242 
L 189.074868 184.829332 
L 186.031232 184.829332 
z
" clip-path="url(#p9b953adaa4)" style="fill: #0000ff"/>
   </g>
   <g id="patch_47">
    <path d="M 189.074868 235.205242 
L 192.118505 235.205242 
L 192.118505 177.142544 
L 189.074868 177.142544 
z
" clip-path="url(#p9b953adaa4)" style="fill: #0000ff"/>
   </g>
   <g id="patch_48">
    <path d="M 192.118505 235.205242 
L 195.162141 235.205242 
L 195.162141 165.520854 
L 192.118505 165.520854 
z
" clip-path="url(#p9b953adaa4)" style="fill: #0000ff"/>
   </g>
   <g id="patch_49">
    <path d="M 195.162141 235.205242 
L 198.205778 235.205242 
L 198.205778 137.015683 
L 195.162141 137.015683 
z
" clip-path="url(#p9b953adaa4)" style="fill: #0000ff"/>
   </g>
   <g id="patch_50">
    <path d="M 198.205778 235.205242 
L 201.249414 235.205242 
L 201.249414 100.137406 
L 198.205778 100.137406 
z
" clip-path="url(#p9b953adaa4)" style="fill: #0000ff"/>
   </g>
   <g id="patch_51">
    <path d="M 201.249414 235.205242 
L 204.29305 235.205242 
L 204.29305 54.794511 
L 201.249414 54.794511 
z
" clip-path="url(#p9b953adaa4)" style="fill: #0000ff"/>
   </g>
   <g id="patch_52">
    <path d="M 204.29305 235.205242 
L 207.336687 235.205242 
L 207.336687 30.269998 
L 204.29305 30.269998 
z
" clip-path="url(#p9b953adaa4)" style="fill: #0000ff"/>
   </g>
   <g id="patch_53">
    <path d="M 207.336687 235.205242 
L 210.380323 235.205242 
L 210.380323 28.119528 
L 207.336687 28.119528 
z
" clip-path="url(#p9b953adaa4)" style="fill: #0000ff"/>
   </g>
   <g id="patch_54">
    <path d="M 210.380323 235.205242 
L 213.423959 235.205242 
L 213.423959 53.559134 
L 210.380323 53.559134 
z
" clip-path="url(#p9b953adaa4)" style="fill: #0000ff"/>
   </g>
   <g id="patch_55">
    <path d="M 213.423959 235.205242 
L 216.467596 235.205242 
L 216.467596 87.737885 
L 213.423959 87.737885 
z
" clip-path="url(#p9b953adaa4)" style="fill: #0000ff"/>
   </g>
   <g id="patch_56">
    <path d="M 216.467596 235.205242 
L 219.511232 235.205242 
L 219.511232 128.68833 
L 216.467596 128.68833 
z
" clip-path="url(#p9b953adaa4)" style="fill: #0000ff"/>
   </g>
   <g id="patch_57">
    <path d="M 219.511232 235.205242 
L 222.554868 235.205242 
L 222.554868 148.774638 
L 219.511232 148.774638 
z
" clip-path="url(#p9b953adaa4)" style="fill: #0000ff"/>
   </g>
   <g id="patch_58">
    <path d="M 222.554868 235.205242 
L 225.598505 235.205242 
L 225.598505 167.945852 
L 222.554868 167.945852 
z
" clip-path="url(#p9b953adaa4)" style="fill: #0000ff"/>
   </g>
   <g id="patch_59">
    <path d="M 225.598505 235.205242 
L 228.642141 235.205242 
L 228.642141 178.881222 
L 225.598505 178.881222 
z
" clip-path="url(#p9b953adaa4)" style="fill: #0000ff"/>
   </g>
   <g id="patch_60">
    <path d="M 228.642141 235.205242 
L 231.685778 235.205242 
L 231.685778 180.208108 
L 228.642141 180.208108 
z
" clip-path="url(#p9b953adaa4)" style="fill: #0000ff"/>
   </g>
   <g id="patch_61">
    <path d="M 231.685778 235.205242 
L 234.729414 235.205242 
L 234.729414 185.835935 
L 231.685778 185.835935 
z
" clip-path="url(#p9b953adaa4)" style="fill: #0000ff"/>
   </g>
   <g id="patch_62">
    <path d="M 234.729414 235.205242 
L 237.77305 235.205242 
L 237.77305 186.430746 
L 234.729414 186.430746 
z
" clip-path="url(#p9b953adaa4)" style="fill: #0000ff"/>
   </g>
   <g id="patch_63">
    <path d="M 237.77305 235.205242 
L 240.816687 235.205242 
L 240.816687 186.522255 
L 237.77305 186.522255 
z
" clip-path="url(#p9b953adaa4)" style="fill: #0000ff"/>
   </g>
   <g id="patch_64">
    <path d="M 240.816687 235.205242 
L 243.860323 235.205242 
L 243.860323 188.352442 
L 240.816687 188.352442 
z
" clip-path="url(#p9b953adaa4)" style="fill: #0000ff"/>
   </g>
   <g id="patch_65">
    <path d="M 243.860323 235.205242 
L 246.903959 235.205242 
L 246.903959 188.169424 
L 243.860323 188.169424 
z
" clip-path="url(#p9b953adaa4)" style="fill: #0000ff"/>
   </g>
   <g id="patch_66">
    <path d="M 246.903959 235.205242 
L 249.947596 235.205242 
L 249.947596 187.300085 
L 246.903959 187.300085 
z
" clip-path="url(#p9b953adaa4)" style="fill: #0000ff"/>
   </g>
   <g id="patch_67">
    <path d="M 249.947596 235.205242 
L 252.991232 235.205242 
L 252.991232 188.077914 
L 249.947596 188.077914 
z
" clip-path="url(#p9b953adaa4)" style="fill: #0000ff"/>
   </g>
   <g id="patch_68">
    <path d="M 252.991232 235.205242 
L 256.034868 235.205242 
L 256.034868 189.359046 
L 252.991232 189.359046 
z
" clip-path="url(#p9b953adaa4)" style="fill: #0000ff"/>
   </g>
   <g id="patch_69">
    <path d="M 256.034868 235.205242 
L 259.078505 235.205242 
L 259.078505 190.86895 
L 256.034868 190.86895 
z
" clip-path="url(#p9b953adaa4)" style="fill: #0000ff"/>
   </g>
   <g id="patch_70">
    <path d="M 259.078505 235.205242 
L 262.122141 235.205242 
L 262.122141 185.652916 
L 259.078505 185.652916 
z
" clip-path="url(#p9b953adaa4)" style="fill: #0000ff"/>
   </g>
   <g id="patch_71">
    <path d="M 262.122141 235.205242 
L 265.165778 235.205242 
L 265.165778 191.006214 
L 262.122141 191.006214 
z
" clip-path="url(#p9b953adaa4)" style="fill: #0000ff"/>
   </g>
   <g id="patch_72">
    <path d="M 265.165778 235.205242 
L 268.209414 235.205242 
L 268.209414 190.045366 
L 265.165778 190.045366 
z
" clip-path="url(#p9b953adaa4)" style="fill: #0000ff"/>
   </g>
   <g id="patch_73">
    <path d="M 268.209414 235.205242 
L 271.25305 235.205242 
L 271.25305 190.86895 
L 268.209414 190.86895 
z
" clip-path="url(#p9b953adaa4)" style="fill: #0000ff"/>
   </g>
   <g id="patch_74">
    <path d="M 271.25305 235.205242 
L 274.296687 235.205242 
L 274.296687 192.607628 
L 271.25305 192.607628 
z
" clip-path="url(#p9b953adaa4)" style="fill: #0000ff"/>
   </g>
   <g id="patch_75">
    <path d="M 274.296687 235.205242 
L 277.340323 235.205242 
L 277.340323 192.653383 
L 274.296687 192.653383 
z
" clip-path="url(#p9b953adaa4)" style="fill: #0000ff"/>
   </g>
   <g id="patch_76">
    <path d="M 277.340323 235.205242 
L 280.383959 235.205242 
L 280.383959 194.529325 
L 277.340323 194.529325 
z
" clip-path="url(#p9b953adaa4)" style="fill: #0000ff"/>
   </g>
   <g id="patch_77">
    <path d="M 280.383959 235.205242 
L 283.427596 235.205242 
L 283.427596 193.980269 
L 280.383959 193.980269 
z
" clip-path="url(#p9b953adaa4)" style="fill: #0000ff"/>
   </g>
   <g id="patch_78">
    <path d="M 283.427596 235.205242 
L 286.471232 235.205242 
L 286.471232 192.012817 
L 283.427596 192.012817 
z
" clip-path="url(#p9b953adaa4)" style="fill: #0000ff"/>
   </g>
   <g id="patch_79">
    <path d="M 286.471232 235.205242 
L 289.514868 235.205242 
L 289.514868 195.718947 
L 286.471232 195.718947 
z
" clip-path="url(#p9b953adaa4)" style="fill: #0000ff"/>
   </g>
   <g id="patch_80">
    <path d="M 289.514868 235.205242 
L 292.558505 235.205242 
L 292.558505 195.993475 
L 289.514868 195.993475 
z
" clip-path="url(#p9b953adaa4)" style="fill: #0000ff"/>
   </g>
   <g id="patch_81">
    <path d="M 292.558505 235.205242 
L 295.602141 235.205242 
L 295.602141 195.947721 
L 292.558505 195.947721 
z
" clip-path="url(#p9b953adaa4)" style="fill: #0000ff"/>
   </g>
   <g id="patch_82">
    <path d="M 295.602141 235.205242 
L 298.645778 235.205242 
L 298.645778 194.986872 
L 295.602141 194.986872 
z
" clip-path="url(#p9b953adaa4)" style="fill: #0000ff"/>
   </g>
   <g id="patch_83">
    <path d="M 298.645778 235.205242 
L 301.689414 235.205242 
L 301.689414 199.059039 
L 298.645778 199.059039 
z
" clip-path="url(#p9b953adaa4)" style="fill: #0000ff"/>
   </g>
   <g id="patch_84">
    <path d="M 301.689414 235.205242 
L 304.73305 235.205242 
L 304.73305 198.006681 
L 301.689414 198.006681 
z
" clip-path="url(#p9b953adaa4)" style="fill: #0000ff"/>
   </g>
   <g id="patch_85">
    <path d="M 304.73305 235.205242 
L 307.776687 235.205242 
L 307.776687 200.477435 
L 304.73305 200.477435 
z
" clip-path="url(#p9b953adaa4)" style="fill: #0000ff"/>
   </g>
   <g id="patch_86">
    <path d="M 307.776687 235.205242 
L 310.820323 235.205242 
L 310.820323 202.124603 
L 307.776687 202.124603 
z
" clip-path="url(#p9b953adaa4)" style="fill: #0000ff"/>
   </g>
   <g id="patch_87">
    <path d="M 310.820323 235.205242 
L 313.863959 235.205242 
L 313.863959 202.307622 
L 310.820323 202.307622 
z
" clip-path="url(#p9b953adaa4)" style="fill: #0000ff"/>
   </g>
   <g id="patch_88">
    <path d="M 313.863959 235.205242 
L 316.907596 235.205242 
L 316.907596 203.817527 
L 313.863959 203.817527 
z
" clip-path="url(#p9b953adaa4)" style="fill: #0000ff"/>
   </g>
   <g id="patch_89">
    <path d="M 316.907596 235.205242 
L 319.951232 235.205242 
L 319.951232 205.144413 
L 316.907596 205.144413 
z
" clip-path="url(#p9b953adaa4)" style="fill: #0000ff"/>
   </g>
   <g id="patch_90">
    <path d="M 319.951232 235.205242 
L 322.994868 235.205242 
L 322.994868 207.798185 
L 319.951232 207.798185 
z
" clip-path="url(#p9b953adaa4)" style="fill: #0000ff"/>
   </g>
   <g id="patch_91">
    <path d="M 322.994868 235.205242 
L 326.038505 235.205242 
L 326.038505 206.517053 
L 322.994868 206.517053 
z
" clip-path="url(#p9b953adaa4)" style="fill: #0000ff"/>
   </g>
   <g id="patch_92">
    <path d="M 326.038505 235.205242 
L 329.082141 235.205242 
L 329.082141 206.105261 
L 326.038505 206.105261 
z
" clip-path="url(#p9b953adaa4)" style="fill: #0000ff"/>
   </g>
   <g id="patch_93">
    <path d="M 329.082141 235.205242 
L 332.125778 235.205242 
L 332.125778 209.811391 
L 329.082141 209.811391 
z
" clip-path="url(#p9b953adaa4)" style="fill: #0000ff"/>
   </g>
   <g id="patch_94">
    <path d="M 332.125778 235.205242 
L 335.169414 235.205242 
L 335.169414 210.406202 
L 332.125778 210.406202 
z
" clip-path="url(#p9b953adaa4)" style="fill: #0000ff"/>
   </g>
   <g id="patch_95">
    <path d="M 335.169414 235.205242 
L 338.21305 235.205242 
L 338.21305 210.634975 
L 335.169414 210.634975 
z
" clip-path="url(#p9b953adaa4)" style="fill: #0000ff"/>
   </g>
   <g id="patch_96">
    <path d="M 338.21305 235.205242 
L 341.256687 235.205242 
L 341.256687 211.916106 
L 338.21305 211.916106 
z
" clip-path="url(#p9b953adaa4)" style="fill: #0000ff"/>
   </g>
   <g id="patch_97">
    <path d="M 341.256687 235.205242 
L 344.300323 235.205242 
L 344.300323 213.975067 
L 341.256687 213.975067 
z
" clip-path="url(#p9b953adaa4)" style="fill: #0000ff"/>
   </g>
   <g id="patch_98">
    <path d="M 344.300323 235.205242 
L 347.343959 235.205242 
L 347.343959 212.465163 
L 344.300323 212.465163 
z
" clip-path="url(#p9b953adaa4)" style="fill: #0000ff"/>
   </g>
   <g id="patch_99">
    <path d="M 347.343959 235.205242 
L 350.387596 235.205242 
L 350.387596 214.707142 
L 347.343959 214.707142 
z
" clip-path="url(#p9b953adaa4)" style="fill: #0000ff"/>
   </g>
   <g id="patch_100">
    <path d="M 350.387596 235.205242 
L 353.431232 235.205242 
L 353.431232 217.818461 
L 350.387596 217.818461 
z
" clip-path="url(#p9b953adaa4)" style="fill: #0000ff"/>
   </g>
   <g id="patch_101">
    <path d="M 353.431232 235.205242 
L 356.474868 235.205242 
L 356.474868 215.851009 
L 353.431232 215.851009 
z
" clip-path="url(#p9b953adaa4)" style="fill: #0000ff"/>
   </g>
   <g id="patch_102">
    <path d="M 356.474868 235.205242 
L 359.518505 235.205242 
L 359.518505 218.321763 
L 356.474868 218.321763 
z
" clip-path="url(#p9b953adaa4)" style="fill: #0000ff"/>
   </g>
   <g id="matplotlib.axis_1">
    <g id="xtick_1">
     <g id="line2d_1">
      <defs>
       <path id="mcacdc57ce6" d="M 0 0 
L 0 -3 
" style="stroke: #000000; stroke-width: 0.5"/>
      </defs>
      <g>
       <use xlink:href="#mcacdc57ce6" x="55.153344" y="235.205242" style="stroke: #000000; stroke-width: 0.5"/>
      </g>
     </g>
     <g id="line2d_2">
      <defs>
       <path id="m9f670989b5" d="M 0 0 
L 0 3 
" style="stroke: #000000; stroke-width: 0.5"/>
      </defs>
      <g>
       <use xlink:href="#m9f670989b5" x="55.153344" y="17.765242" style="stroke: #000000; stroke-width: 0.5"/>
      </g>
     </g>
     <g id="text_1">
      <!-- $\mathdefault{−10000}$ -->
      <g transform="translate(38.82961 245.45982)scale(0.1 -0.1)">
       <defs>
        <path id="CMSY10-0" d="M 4218 1472 
C 4326 1472 4442 1472 4442 1600 
C 4442 1728 4326 1728 4218 1728 
L 755 1728 
C 646 1728 531 1728 531 1600 
C 531 1472 646 1472 755 1472 
L 4218 1472 
z
" transform="scale(0.015625)"/>
        <path id="NimbusRomNo9L-Regu-31" d="M 1862 4339 
L 710 3757 
L 710 3667 
C 787 3699 858 3725 883 3738 
C 998 3783 1107 3808 1171 3808 
C 1306 3808 1363 3711 1363 3505 
L 1363 592 
C 1363 379 1312 232 1210 173 
C 1114 116 1024 96 755 96 
L 755 0 
L 2522 0 
L 2522 96 
C 2016 96 1914 160 1914 470 
L 1914 4327 
L 1862 4339 
z
" transform="scale(0.015625)"/>
        <path id="NimbusRomNo9L-Regu-30" d="M 1626 4352 
C 1274 4352 1005 4244 768 4020 
C 397 3661 154 2925 154 2176 
C 154 1479 365 730 666 372 
C 902 90 1229 -64 1600 -64 
C 1926 -64 2202 45 2432 269 
C 2803 621 3046 1364 3046 2138 
C 3046 3450 2464 4352 1626 4352 
z
M 1606 4186 
C 2144 4186 2432 3463 2432 2125 
C 2432 788 2150 103 1600 103 
C 1050 103 768 788 768 2119 
C 768 3476 1056 4186 1606 4186 
z
" transform="scale(0.015625)"/>
       </defs>
       <use xlink:href="#CMSY10-0" transform="scale(0.996264)"/>
       <use xlink:href="#NimbusRomNo9L-Regu-31" transform="translate(77.408707 0)scale(0.996264)"/>
       <use xlink:href="#NimbusRomNo9L-Regu-30" transform="translate(127.221908 0)scale(0.996264)"/>
       <use xlink:href="#NimbusRomNo9L-Regu-30" transform="translate(177.035108 0)scale(0.996264)"/>
       <use xlink:href="#NimbusRomNo9L-Regu-30" transform="translate(226.848309 0)scale(0.996264)"/>
       <use xlink:href="#NimbusRomNo9L-Regu-30" transform="translate(276.661509 0)scale(0.996264)"/>
      </g>
     </g>
    </g>
    <g id="xtick_2">
     <g id="line2d_3">
      <g>
       <use xlink:href="#mcacdc57ce6" x="93.199156" y="235.205242" style="stroke: #000000; stroke-width: 0.5"/>
      </g>
     </g>
     <g id="line2d_4">
      <g>
       <use xlink:href="#m9f670989b5" x="93.199156" y="17.765242" style="stroke: #000000; stroke-width: 0.5"/>
      </g>
     </g>
     <g id="text_2">
      <!-- $\mathdefault{−7500}$ -->
      <g transform="translate(79.366081 245.45982)scale(0.1 -0.1)">
       <defs>
        <path id="NimbusRomNo9L-Regu-37" d="M 2874 4250 
L 506 4250 
L 128 3310 
L 237 3258 
C 512 3693 627 3776 979 3776 
L 2368 3776 
L 1101 -32 
L 1517 -32 
L 2874 4148 
L 2874 4250 
z
" transform="scale(0.015625)"/>
        <path id="NimbusRomNo9L-Regu-35" d="M 1158 3776 
L 2413 3776 
C 2515 3776 2541 3789 2560 3834 
L 2803 4403 
L 2746 4448 
C 2650 4314 2586 4282 2451 4282 
L 1114 4282 
L 416 2759 
C 410 2746 410 2740 410 2727 
C 410 2695 435 2676 486 2676 
C 691 2676 947 2631 1210 2547 
C 1946 2309 2285 1910 2285 1274 
C 2285 656 1894 173 1395 173 
C 1267 173 1158 218 966 360 
C 762 508 614 572 480 572 
C 294 572 205 495 205 334 
C 205 90 506 -64 986 -64 
C 1523 -64 1984 110 2304 438 
C 2598 728 2733 1094 2733 1583 
C 2733 2046 2611 2342 2291 2663 
C 2010 2947 1645 3094 890 3229 
L 1158 3776 
z
" transform="scale(0.015625)"/>
       </defs>
       <use xlink:href="#CMSY10-0" transform="scale(0.996264)"/>
       <use xlink:href="#NimbusRomNo9L-Regu-37" transform="translate(77.408707 0)scale(0.996264)"/>
       <use xlink:href="#NimbusRomNo9L-Regu-35" transform="translate(127.221908 0)scale(0.996264)"/>
       <use xlink:href="#NimbusRomNo9L-Regu-30" transform="translate(177.035108 0)scale(0.996264)"/>
       <use xlink:href="#NimbusRomNo9L-Regu-30" transform="translate(226.848309 0)scale(0.996264)"/>
      </g>
     </g>
    </g>
    <g id="xtick_3">
     <g id="line2d_5">
      <g>
       <use xlink:href="#mcacdc57ce6" x="131.244967" y="235.205242" style="stroke: #000000; stroke-width: 0.5"/>
      </g>
     </g>
     <g id="line2d_6">
      <g>
       <use xlink:href="#m9f670989b5" x="131.244967" y="17.765242" style="stroke: #000000; stroke-width: 0.5"/>
      </g>
     </g>
     <g id="text_3">
      <!-- $\mathdefault{−5000}$ -->
      <g transform="translate(117.411892 245.45982)scale(0.1 -0.1)">
       <use xlink:href="#CMSY10-0" transform="scale(0.996264)"/>
       <use xlink:href="#NimbusRomNo9L-Regu-35" transform="translate(77.408707 0)scale(0.996264)"/>
       <use xlink:href="#NimbusRomNo9L-Regu-30" transform="translate(127.221908 0)scale(0.996264)"/>
       <use xlink:href="#NimbusRomNo9L-Regu-30" transform="translate(177.035108 0)scale(0.996264)"/>
       <use xlink:href="#NimbusRomNo9L-Regu-30" transform="translate(226.848309 0)scale(0.996264)"/>
      </g>
     </g>
    </g>
    <g id="xtick_4">
     <g id="line2d_7">
      <g>
       <use xlink:href="#mcacdc57ce6" x="169.290778" y="235.205242" style="stroke: #000000; stroke-width: 0.5"/>
      </g>
     </g>
     <g id="line2d_8">
      <g>
       <use xlink:href="#m9f670989b5" x="169.290778" y="17.765242" style="stroke: #000000; stroke-width: 0.5"/>
      </g>
     </g>
     <g id="text_4">
      <!-- $\mathdefault{−2500}$ -->
      <g transform="translate(155.457703 245.45982)scale(0.1 -0.1)">
       <defs>
        <path id="NimbusRomNo9L-Regu-32" d="M 3040 875 
L 2957 907 
C 2720 544 2637 486 2349 486 
L 819 486 
L 1894 1609 
C 2464 2202 2714 2687 2714 3185 
C 2714 3823 2195 4313 1530 4313 
C 1178 4313 845 4173 608 3918 
C 403 3700 307 3496 198 3043 
L 333 3011 
C 589 3636 819 3840 1261 3840 
C 1798 3840 2163 3476 2163 2940 
C 2163 2443 1869 1850 1331 1282 
L 192 77 
L 192 0 
L 2688 0 
L 3040 875 
z
" transform="scale(0.015625)"/>
       </defs>
       <use xlink:href="#CMSY10-0" transform="scale(0.996264)"/>
       <use xlink:href="#NimbusRomNo9L-Regu-32" transform="translate(77.408707 0)scale(0.996264)"/>
       <use xlink:href="#NimbusRomNo9L-Regu-35" transform="translate(127.221908 0)scale(0.996264)"/>
       <use xlink:href="#NimbusRomNo9L-Regu-30" transform="translate(177.035108 0)scale(0.996264)"/>
       <use xlink:href="#NimbusRomNo9L-Regu-30" transform="translate(226.848309 0)scale(0.996264)"/>
      </g>
     </g>
    </g>
    <g id="xtick_5">
     <g id="line2d_9">
      <g>
       <use xlink:href="#mcacdc57ce6" x="207.336589" y="235.205242" style="stroke: #000000; stroke-width: 0.5"/>
      </g>
     </g>
     <g id="line2d_10">
      <g>
       <use xlink:href="#m9f670989b5" x="207.336589" y="17.765242" style="stroke: #000000; stroke-width: 0.5"/>
      </g>
     </g>
     <g id="text_5">
      <!-- $\mathdefault{0}$ -->
      <g transform="translate(204.845929 245.45982)scale(0.1 -0.1)">
       <use xlink:href="#NimbusRomNo9L-Regu-30" transform="scale(0.996264)"/>
      </g>
     </g>
    </g>
    <g id="xtick_6">
     <g id="line2d_11">
      <g>
       <use xlink:href="#mcacdc57ce6" x="245.382401" y="235.205242" style="stroke: #000000; stroke-width: 0.5"/>
      </g>
     </g>
     <g id="line2d_12">
      <g>
       <use xlink:href="#m9f670989b5" x="245.382401" y="17.765242" style="stroke: #000000; stroke-width: 0.5"/>
      </g>
     </g>
     <g id="text_6">
      <!-- $\mathdefault{2500}$ -->
      <g transform="translate(235.41976 245.45982)scale(0.1 -0.1)">
       <use xlink:href="#NimbusRomNo9L-Regu-32" transform="scale(0.996264)"/>
       <use xlink:href="#NimbusRomNo9L-Regu-35" transform="translate(49.8132 0)scale(0.996264)"/>
       <use xlink:href="#NimbusRomNo9L-Regu-30" transform="translate(99.626401 0)scale(0.996264)"/>
       <use xlink:href="#NimbusRomNo9L-Regu-30" transform="translate(149.439601 0)scale(0.996264)"/>
      </g>
     </g>
    </g>
    <g id="xtick_7">
     <g id="line2d_13">
      <g>
       <use xlink:href="#mcacdc57ce6" x="283.428212" y="235.205242" style="stroke: #000000; stroke-width: 0.5"/>
      </g>
     </g>
     <g id="line2d_14">
      <g>
       <use xlink:href="#m9f670989b5" x="283.428212" y="17.765242" style="stroke: #000000; stroke-width: 0.5"/>
      </g>
     </g>
     <g id="text_7">
      <!-- $\mathdefault{5000}$ -->
      <g transform="translate(273.465572 245.45982)scale(0.1 -0.1)">
       <use xlink:href="#NimbusRomNo9L-Regu-35" transform="scale(0.996264)"/>
       <use xlink:href="#NimbusRomNo9L-Regu-30" transform="translate(49.8132 0)scale(0.996264)"/>
       <use xlink:href="#NimbusRomNo9L-Regu-30" transform="translate(99.626401 0)scale(0.996264)"/>
       <use xlink:href="#NimbusRomNo9L-Regu-30" transform="translate(149.439601 0)scale(0.996264)"/>
      </g>
     </g>
    </g>
    <g id="xtick_8">
     <g id="line2d_15">
      <g>
       <use xlink:href="#mcacdc57ce6" x="321.474023" y="235.205242" style="stroke: #000000; stroke-width: 0.5"/>
      </g>
     </g>
     <g id="line2d_16">
      <g>
       <use xlink:href="#m9f670989b5" x="321.474023" y="17.765242" style="stroke: #000000; stroke-width: 0.5"/>
      </g>
     </g>
     <g id="text_8">
      <!-- $\mathdefault{7500}$ -->
      <g transform="translate(311.511383 245.45982)scale(0.1 -0.1)">
       <use xlink:href="#NimbusRomNo9L-Regu-37" transform="scale(0.996264)"/>
       <use xlink:href="#NimbusRomNo9L-Regu-35" transform="translate(49.8132 0)scale(0.996264)"/>
       <use xlink:href="#NimbusRomNo9L-Regu-30" transform="translate(99.626401 0)scale(0.996264)"/>
       <use xlink:href="#NimbusRomNo9L-Regu-30" transform="translate(149.439601 0)scale(0.996264)"/>
      </g>
     </g>
    </g>
    <g id="xtick_9">
     <g id="line2d_17">
      <g>
       <use xlink:href="#mcacdc57ce6" x="359.519834" y="235.205242" style="stroke: #000000; stroke-width: 0.5"/>
      </g>
     </g>
     <g id="line2d_18">
      <g>
       <use xlink:href="#m9f670989b5" x="359.519834" y="17.765242" style="stroke: #000000; stroke-width: 0.5"/>
      </g>
     </g>
     <g id="text_9">
      <!-- $\mathdefault{10000}$ -->
      <g transform="translate(347.066534 245.45982)scale(0.1 -0.1)">
       <use xlink:href="#NimbusRomNo9L-Regu-31" transform="scale(0.996264)"/>
       <use xlink:href="#NimbusRomNo9L-Regu-30" transform="translate(49.8132 0)scale(0.996264)"/>
       <use xlink:href="#NimbusRomNo9L-Regu-30" transform="translate(99.626401 0)scale(0.996264)"/>
       <use xlink:href="#NimbusRomNo9L-Regu-30" transform="translate(149.439601 0)scale(0.996264)"/>
       <use xlink:href="#NimbusRomNo9L-Regu-30" transform="translate(199.252802 0)scale(0.996264)"/>
      </g>
     </g>
    </g>
    <g id="xtick_10">
     <g id="line2d_19">
      <defs>
       <path id="mcf8c49f221" d="M 0 0 
L 0 -1.5 
" style="stroke: #000000; stroke-width: 0.5"/>
      </defs>
      <g>
       <use xlink:href="#mcf8c49f221" x="47.544182" y="235.205242" style="stroke: #000000; stroke-width: 0.5"/>
      </g>
     </g>
     <g id="line2d_20">
      <defs>
       <path id="mde16870f04" d="M 0 0 
L 0 1.5 
" style="stroke: #000000; stroke-width: 0.5"/>
      </defs>
      <g>
       <use xlink:href="#mde16870f04" x="47.544182" y="17.765242" style="stroke: #000000; stroke-width: 0.5"/>
      </g>
     </g>
    </g>
    <g id="xtick_11">
     <g id="line2d_21">
      <g>
       <use xlink:href="#mcf8c49f221" x="62.762507" y="235.205242" style="stroke: #000000; stroke-width: 0.5"/>
      </g>
     </g>
     <g id="line2d_22">
      <g>
       <use xlink:href="#mde16870f04" x="62.762507" y="17.765242" style="stroke: #000000; stroke-width: 0.5"/>
      </g>
     </g>
    </g>
    <g id="xtick_12">
     <g id="line2d_23">
      <g>
       <use xlink:href="#mcf8c49f221" x="70.371669" y="235.205242" style="stroke: #000000; stroke-width: 0.5"/>
      </g>
     </g>
     <g id="line2d_24">
      <g>
       <use xlink:href="#mde16870f04" x="70.371669" y="17.765242" style="stroke: #000000; stroke-width: 0.5"/>
      </g>
     </g>
    </g>
    <g id="xtick_13">
     <g id="line2d_25">
      <g>
       <use xlink:href="#mcf8c49f221" x="77.980831" y="235.205242" style="stroke: #000000; stroke-width: 0.5"/>
      </g>
     </g>
     <g id="line2d_26">
      <g>
       <use xlink:href="#mde16870f04" x="77.980831" y="17.765242" style="stroke: #000000; stroke-width: 0.5"/>
      </g>
     </g>
    </g>
    <g id="xtick_14">
     <g id="line2d_27">
      <g>
       <use xlink:href="#mcf8c49f221" x="85.589993" y="235.205242" style="stroke: #000000; stroke-width: 0.5"/>
      </g>
     </g>
     <g id="line2d_28">
      <g>
       <use xlink:href="#mde16870f04" x="85.589993" y="17.765242" style="stroke: #000000; stroke-width: 0.5"/>
      </g>
     </g>
    </g>
    <g id="xtick_15">
     <g id="line2d_29">
      <g>
       <use xlink:href="#mcf8c49f221" x="100.808318" y="235.205242" style="stroke: #000000; stroke-width: 0.5"/>
      </g>
     </g>
     <g id="line2d_30">
      <g>
       <use xlink:href="#mde16870f04" x="100.808318" y="17.765242" style="stroke: #000000; stroke-width: 0.5"/>
      </g>
     </g>
    </g>
    <g id="xtick_16">
     <g id="line2d_31">
      <g>
       <use xlink:href="#mcf8c49f221" x="108.41748" y="235.205242" style="stroke: #000000; stroke-width: 0.5"/>
      </g>
     </g>
     <g id="line2d_32">
      <g>
       <use xlink:href="#mde16870f04" x="108.41748" y="17.765242" style="stroke: #000000; stroke-width: 0.5"/>
      </g>
     </g>
    </g>
    <g id="xtick_17">
     <g id="line2d_33">
      <g>
       <use xlink:href="#mcf8c49f221" x="116.026642" y="235.205242" style="stroke: #000000; stroke-width: 0.5"/>
      </g>
     </g>
     <g id="line2d_34">
      <g>
       <use xlink:href="#mde16870f04" x="116.026642" y="17.765242" style="stroke: #000000; stroke-width: 0.5"/>
      </g>
     </g>
    </g>
    <g id="xtick_18">
     <g id="line2d_35">
      <g>
       <use xlink:href="#mcf8c49f221" x="123.635805" y="235.205242" style="stroke: #000000; stroke-width: 0.5"/>
      </g>
     </g>
     <g id="line2d_36">
      <g>
       <use xlink:href="#mde16870f04" x="123.635805" y="17.765242" style="stroke: #000000; stroke-width: 0.5"/>
      </g>
     </g>
    </g>
    <g id="xtick_19">
     <g id="line2d_37">
      <g>
       <use xlink:href="#mcf8c49f221" x="138.854129" y="235.205242" style="stroke: #000000; stroke-width: 0.5"/>
      </g>
     </g>
     <g id="line2d_38">
      <g>
       <use xlink:href="#mde16870f04" x="138.854129" y="17.765242" style="stroke: #000000; stroke-width: 0.5"/>
      </g>
     </g>
    </g>
    <g id="xtick_20">
     <g id="line2d_39">
      <g>
       <use xlink:href="#mcf8c49f221" x="146.463291" y="235.205242" style="stroke: #000000; stroke-width: 0.5"/>
      </g>
     </g>
     <g id="line2d_40">
      <g>
       <use xlink:href="#mde16870f04" x="146.463291" y="17.765242" style="stroke: #000000; stroke-width: 0.5"/>
      </g>
     </g>
    </g>
    <g id="xtick_21">
     <g id="line2d_41">
      <g>
       <use xlink:href="#mcf8c49f221" x="154.072454" y="235.205242" style="stroke: #000000; stroke-width: 0.5"/>
      </g>
     </g>
     <g id="line2d_42">
      <g>
       <use xlink:href="#mde16870f04" x="154.072454" y="17.765242" style="stroke: #000000; stroke-width: 0.5"/>
      </g>
     </g>
    </g>
    <g id="xtick_22">
     <g id="line2d_43">
      <g>
       <use xlink:href="#mcf8c49f221" x="161.681616" y="235.205242" style="stroke: #000000; stroke-width: 0.5"/>
      </g>
     </g>
     <g id="line2d_44">
      <g>
       <use xlink:href="#mde16870f04" x="161.681616" y="17.765242" style="stroke: #000000; stroke-width: 0.5"/>
      </g>
     </g>
    </g>
    <g id="xtick_23">
     <g id="line2d_45">
      <g>
       <use xlink:href="#mcf8c49f221" x="176.89994" y="235.205242" style="stroke: #000000; stroke-width: 0.5"/>
      </g>
     </g>
     <g id="line2d_46">
      <g>
       <use xlink:href="#mde16870f04" x="176.89994" y="17.765242" style="stroke: #000000; stroke-width: 0.5"/>
      </g>
     </g>
    </g>
    <g id="xtick_24">
     <g id="line2d_47">
      <g>
       <use xlink:href="#mcf8c49f221" x="184.509103" y="235.205242" style="stroke: #000000; stroke-width: 0.5"/>
      </g>
     </g>
     <g id="line2d_48">
      <g>
       <use xlink:href="#mde16870f04" x="184.509103" y="17.765242" style="stroke: #000000; stroke-width: 0.5"/>
      </g>
     </g>
    </g>
    <g id="xtick_25">
     <g id="line2d_49">
      <g>
       <use xlink:href="#mcf8c49f221" x="192.118265" y="235.205242" style="stroke: #000000; stroke-width: 0.5"/>
      </g>
     </g>
     <g id="line2d_50">
      <g>
       <use xlink:href="#mde16870f04" x="192.118265" y="17.765242" style="stroke: #000000; stroke-width: 0.5"/>
      </g>
     </g>
    </g>
    <g id="xtick_26">
     <g id="line2d_51">
      <g>
       <use xlink:href="#mcf8c49f221" x="199.727427" y="235.205242" style="stroke: #000000; stroke-width: 0.5"/>
      </g>
     </g>
     <g id="line2d_52">
      <g>
       <use xlink:href="#mde16870f04" x="199.727427" y="17.765242" style="stroke: #000000; stroke-width: 0.5"/>
      </g>
     </g>
    </g>
    <g id="xtick_27">
     <g id="line2d_53">
      <g>
       <use xlink:href="#mcf8c49f221" x="214.945752" y="235.205242" style="stroke: #000000; stroke-width: 0.5"/>
      </g>
     </g>
     <g id="line2d_54">
      <g>
       <use xlink:href="#mde16870f04" x="214.945752" y="17.765242" style="stroke: #000000; stroke-width: 0.5"/>
      </g>
     </g>
    </g>
    <g id="xtick_28">
     <g id="line2d_55">
      <g>
       <use xlink:href="#mcf8c49f221" x="222.554914" y="235.205242" style="stroke: #000000; stroke-width: 0.5"/>
      </g>
     </g>
     <g id="line2d_56">
      <g>
       <use xlink:href="#mde16870f04" x="222.554914" y="17.765242" style="stroke: #000000; stroke-width: 0.5"/>
      </g>
     </g>
    </g>
    <g id="xtick_29">
     <g id="line2d_57">
      <g>
       <use xlink:href="#mcf8c49f221" x="230.164076" y="235.205242" style="stroke: #000000; stroke-width: 0.5"/>
      </g>
     </g>
     <g id="line2d_58">
      <g>
       <use xlink:href="#mde16870f04" x="230.164076" y="17.765242" style="stroke: #000000; stroke-width: 0.5"/>
      </g>
     </g>
    </g>
    <g id="xtick_30">
     <g id="line2d_59">
      <g>
       <use xlink:href="#mcf8c49f221" x="237.773238" y="235.205242" style="stroke: #000000; stroke-width: 0.5"/>
      </g>
     </g>
     <g id="line2d_60">
      <g>
       <use xlink:href="#mde16870f04" x="237.773238" y="17.765242" style="stroke: #000000; stroke-width: 0.5"/>
      </g>
     </g>
    </g>
    <g id="xtick_31">
     <g id="line2d_61">
      <g>
       <use xlink:href="#mcf8c49f221" x="252.991563" y="235.205242" style="stroke: #000000; stroke-width: 0.5"/>
      </g>
     </g>
     <g id="line2d_62">
      <g>
       <use xlink:href="#mde16870f04" x="252.991563" y="17.765242" style="stroke: #000000; stroke-width: 0.5"/>
      </g>
     </g>
    </g>
    <g id="xtick_32">
     <g id="line2d_63">
      <g>
       <use xlink:href="#mcf8c49f221" x="260.600725" y="235.205242" style="stroke: #000000; stroke-width: 0.5"/>
      </g>
     </g>
     <g id="line2d_64">
      <g>
       <use xlink:href="#mde16870f04" x="260.600725" y="17.765242" style="stroke: #000000; stroke-width: 0.5"/>
      </g>
     </g>
    </g>
    <g id="xtick_33">
     <g id="line2d_65">
      <g>
       <use xlink:href="#mcf8c49f221" x="268.209887" y="235.205242" style="stroke: #000000; stroke-width: 0.5"/>
      </g>
     </g>
     <g id="line2d_66">
      <g>
       <use xlink:href="#mde16870f04" x="268.209887" y="17.765242" style="stroke: #000000; stroke-width: 0.5"/>
      </g>
     </g>
    </g>
    <g id="xtick_34">
     <g id="line2d_67">
      <g>
       <use xlink:href="#mcf8c49f221" x="275.81905" y="235.205242" style="stroke: #000000; stroke-width: 0.5"/>
      </g>
     </g>
     <g id="line2d_68">
      <g>
       <use xlink:href="#mde16870f04" x="275.81905" y="17.765242" style="stroke: #000000; stroke-width: 0.5"/>
      </g>
     </g>
    </g>
    <g id="xtick_35">
     <g id="line2d_69">
      <g>
       <use xlink:href="#mcf8c49f221" x="291.037374" y="235.205242" style="stroke: #000000; stroke-width: 0.5"/>
      </g>
     </g>
     <g id="line2d_70">
      <g>
       <use xlink:href="#mde16870f04" x="291.037374" y="17.765242" style="stroke: #000000; stroke-width: 0.5"/>
      </g>
     </g>
    </g>
    <g id="xtick_36">
     <g id="line2d_71">
      <g>
       <use xlink:href="#mcf8c49f221" x="298.646536" y="235.205242" style="stroke: #000000; stroke-width: 0.5"/>
      </g>
     </g>
     <g id="line2d_72">
      <g>
       <use xlink:href="#mde16870f04" x="298.646536" y="17.765242" style="stroke: #000000; stroke-width: 0.5"/>
      </g>
     </g>
    </g>
    <g id="xtick_37">
     <g id="line2d_73">
      <g>
       <use xlink:href="#mcf8c49f221" x="306.255699" y="235.205242" style="stroke: #000000; stroke-width: 0.5"/>
      </g>
     </g>
     <g id="line2d_74">
      <g>
       <use xlink:href="#mde16870f04" x="306.255699" y="17.765242" style="stroke: #000000; stroke-width: 0.5"/>
      </g>
     </g>
    </g>
    <g id="xtick_38">
     <g id="line2d_75">
      <g>
       <use xlink:href="#mcf8c49f221" x="313.864861" y="235.205242" style="stroke: #000000; stroke-width: 0.5"/>
      </g>
     </g>
     <g id="line2d_76">
      <g>
       <use xlink:href="#mde16870f04" x="313.864861" y="17.765242" style="stroke: #000000; stroke-width: 0.5"/>
      </g>
     </g>
    </g>
    <g id="xtick_39">
     <g id="line2d_77">
      <g>
       <use xlink:href="#mcf8c49f221" x="329.083185" y="235.205242" style="stroke: #000000; stroke-width: 0.5"/>
      </g>
     </g>
     <g id="line2d_78">
      <g>
       <use xlink:href="#mde16870f04" x="329.083185" y="17.765242" style="stroke: #000000; stroke-width: 0.5"/>
      </g>
     </g>
    </g>
    <g id="xtick_40">
     <g id="line2d_79">
      <g>
       <use xlink:href="#mcf8c49f221" x="336.692347" y="235.205242" style="stroke: #000000; stroke-width: 0.5"/>
      </g>
     </g>
     <g id="line2d_80">
      <g>
       <use xlink:href="#mde16870f04" x="336.692347" y="17.765242" style="stroke: #000000; stroke-width: 0.5"/>
      </g>
     </g>
    </g>
    <g id="xtick_41">
     <g id="line2d_81">
      <g>
       <use xlink:href="#mcf8c49f221" x="344.30151" y="235.205242" style="stroke: #000000; stroke-width: 0.5"/>
      </g>
     </g>
     <g id="line2d_82">
      <g>
       <use xlink:href="#mde16870f04" x="344.30151" y="17.765242" style="stroke: #000000; stroke-width: 0.5"/>
      </g>
     </g>
    </g>
    <g id="xtick_42">
     <g id="line2d_83">
      <g>
       <use xlink:href="#mcf8c49f221" x="351.910672" y="235.205242" style="stroke: #000000; stroke-width: 0.5"/>
      </g>
     </g>
     <g id="line2d_84">
      <g>
       <use xlink:href="#mde16870f04" x="351.910672" y="17.765242" style="stroke: #000000; stroke-width: 0.5"/>
      </g>
     </g>
    </g>
    <g id="xtick_43">
     <g id="line2d_85">
      <g>
       <use xlink:href="#mcf8c49f221" x="367.128996" y="235.205242" style="stroke: #000000; stroke-width: 0.5"/>
      </g>
     </g>
     <g id="line2d_86">
      <g>
       <use xlink:href="#mde16870f04" x="367.128996" y="17.765242" style="stroke: #000000; stroke-width: 0.5"/>
      </g>
     </g>
    </g>
    <g id="text_10">
     <!-- Masse (GeV) -->
     <g transform="translate(180.642114 258.371226)scale(0.1 -0.1)">
      <defs>
       <path id="NimbusRomNo9L-Regu-4d" d="M 4314 3667 
L 4314 751 
C 4314 217 4237 134 3731 134 
L 3731 0 
L 5523 0 
L 5523 134 
C 5056 134 4966 223 4966 681 
L 4966 3536 
C 4966 3993 5050 4077 5523 4115 
L 5523 4237 
L 4250 4237 
L 2835 1004 
L 1357 4237 
L 90 4237 
L 90 4096 
C 614 4096 698 4019 698 3550 
L 698 943 
C 698 282 608 159 77 121 
L 77 0 
L 1581 0 
L 1581 134 
C 1088 134 979 282 979 931 
L 979 3520 
L 2586 0 
L 2675 0 
L 4314 3667 
z
" transform="scale(0.015625)"/>
       <path id="NimbusRomNo9L-Regu-61" d="M 2829 423 
C 2720 333 2643 301 2547 301 
C 2400 301 2355 390 2355 672 
L 2355 1920 
C 2355 2253 2323 2438 2227 2592 
C 2086 2822 1811 2944 1434 2944 
C 832 2944 358 2630 358 2227 
C 358 2080 486 1952 634 1952 
C 787 1952 922 2080 922 2221 
C 922 2246 915 2278 909 2323 
C 896 2381 890 2432 890 2477 
C 890 2650 1094 2790 1350 2790 
C 1664 2790 1837 2605 1837 2259 
L 1837 1869 
C 851 1472 742 1421 467 1178 
C 326 1050 237 832 237 621 
C 237 218 518 -64 909 -64 
C 1190 -64 1453 70 1843 403 
C 1875 70 1990 -64 2253 -64 
C 2470 -64 2605 13 2829 256 
L 2829 423 
z
M 1837 783 
C 1837 584 1805 526 1670 449 
C 1517 359 1338 301 1203 301 
C 979 301 800 520 800 796 
L 800 822 
C 800 1201 1062 1433 1837 1715 
L 1837 783 
z
" transform="scale(0.015625)"/>
       <path id="NimbusRomNo9L-Regu-73" d="M 2016 2010 
L 1990 2880 
L 1920 2880 
L 1907 2867 
C 1850 2822 1843 2816 1818 2816 
C 1779 2816 1715 2829 1645 2861 
C 1504 2915 1363 2944 1197 2944 
C 691 2944 326 2616 326 2154 
C 326 1796 531 1539 1075 1231 
L 1446 1020 
C 1670 892 1779 737 1779 539 
C 1779 256 1574 77 1248 77 
C 1030 77 832 159 710 298 
C 576 455 518 600 435 960 
L 333 960 
L 333 -39 
L 416 -39 
C 461 33 486 48 563 48 
C 621 48 710 35 858 -2 
C 1037 -39 1210 -64 1325 -64 
C 1818 -64 2227 308 2227 757 
C 2227 1077 2074 1289 1690 1520 
L 998 1930 
C 819 2033 723 2194 723 2367 
C 723 2624 922 2803 1216 2803 
C 1581 2803 1773 2583 1920 2010 
L 2016 2010 
z
" transform="scale(0.015625)"/>
       <path id="NimbusRomNo9L-Regu-65" d="M 2611 1053 
C 2304 564 2029 378 1619 378 
C 1254 378 979 564 794 930 
C 678 1174 634 1386 621 1779 
L 2592 1779 
C 2541 2193 2477 2377 2317 2581 
C 2125 2811 1830 2944 1498 2944 
C 1178 2944 877 2829 634 2611 
C 333 2349 160 1894 160 1370 
C 160 486 621 -64 1357 -64 
C 1965 -64 2445 315 2714 1008 
L 2611 1053 
z
M 634 1984 
C 704 2479 922 2714 1312 2714 
C 1702 2714 1856 2535 1939 1984 
L 634 1984 
z
" transform="scale(0.015625)"/>
       <path id="NimbusRomNo9L-Regu-28" d="M 1888 4326 
C 1414 4019 1222 3853 986 3558 
C 531 3002 307 2362 307 1613 
C 307 800 544 173 1107 -480 
C 1370 -787 1536 -928 1869 -1133 
L 1946 -1030 
C 1434 -627 1254 -403 1082 77 
C 928 506 858 992 858 1632 
C 858 2304 941 2829 1114 3226 
C 1293 3622 1485 3853 1946 4224 
L 1888 4326 
z
" transform="scale(0.015625)"/>
       <path id="NimbusRomNo9L-Regu-47" d="M 4538 2304 
L 2906 2304 
L 2906 2176 
C 3181 2176 3258 2157 3334 2105 
C 3430 2047 3469 1898 3469 1621 
L 3469 574 
C 3469 367 3078 192 2618 192 
C 1574 192 934 922 934 2112 
C 934 2714 1114 3296 1395 3610 
C 1677 3924 2074 4096 2509 4096 
C 2867 4096 3181 3975 3430 3744 
C 3622 3565 3725 3392 3885 3002 
L 4032 3002 
L 3981 4352 
L 3840 4352 
C 3802 4231 3686 4141 3552 4141 
C 3488 4141 3386 4160 3270 4205 
C 2982 4301 2688 4352 2400 4352 
C 1120 4352 205 3412 205 2106 
C 205 1479 378 999 736 621 
C 1165 180 1779 -64 2483 -64 
C 3034 -64 3834 160 4090 385 
L 4090 1694 
C 4090 2073 4166 2157 4538 2189 
L 4538 2304 
z
" transform="scale(0.015625)"/>
       <path id="NimbusRomNo9L-Regu-56" d="M 4461 4231 
L 3149 4231 
L 3149 4096 
C 3501 4096 3616 4026 3616 3846 
C 3616 3744 3571 3572 3494 3380 
L 2554 1033 
L 1587 3199 
C 1376 3667 1325 3814 1325 3910 
C 1325 4032 1414 4096 1619 4096 
C 1645 4096 1715 4096 1805 4109 
L 1805 4231 
L 102 4231 
L 102 4096 
C 416 4096 506 4007 781 3439 
L 2355 -64 
L 2451 -64 
L 3872 3521 
C 4083 4026 4154 4096 4461 4096 
L 4461 4231 
z
" transform="scale(0.015625)"/>
       <path id="NimbusRomNo9L-Regu-29" d="M 243 -1133 
C 717 -826 909 -659 1146 -365 
C 1600 192 1824 832 1824 1581 
C 1824 2400 1587 3021 1024 3674 
C 762 3981 595 4122 262 4326 
L 186 4224 
C 698 3821 870 3597 1050 3117 
C 1203 2688 1274 2202 1274 1562 
C 1274 896 1190 365 1018 -26 
C 838 -429 646 -659 186 -1030 
L 243 -1133 
z
" transform="scale(0.015625)"/>
      </defs>
      <use xlink:href="#NimbusRomNo9L-Regu-4d" transform="scale(0.996264)"/>
      <use xlink:href="#NimbusRomNo9L-Regu-61" transform="translate(88.566907 0)scale(0.996264)"/>
      <use xlink:href="#NimbusRomNo9L-Regu-73" transform="translate(132.800475 0)scale(0.996264)"/>
      <use xlink:href="#NimbusRomNo9L-Regu-73" transform="translate(171.554182 0)scale(0.996264)"/>
      <use xlink:href="#NimbusRomNo9L-Regu-65" transform="translate(210.307888 0)scale(0.996264)"/>
      <use xlink:href="#NimbusRomNo9L-Regu-28" transform="translate(279.448057 0)scale(0.996264)"/>
      <use xlink:href="#NimbusRomNo9L-Regu-47" transform="translate(312.623286 0)scale(0.996264)"/>
      <use xlink:href="#NimbusRomNo9L-Regu-65" transform="translate(384.553271 0)scale(0.996264)"/>
      <use xlink:href="#NimbusRomNo9L-Regu-56" transform="translate(428.78684 0)scale(0.996264)"/>
      <use xlink:href="#NimbusRomNo9L-Regu-29" transform="translate(500.716825 0)scale(0.996264)"/>
     </g>
    </g>
   </g>
   <g id="matplotlib.axis_2">
    <g id="ytick_1">
     <g id="line2d_87">
      <defs>
       <path id="m2ac22c9e2c" d="M 0 0 
L 3 0 
" style="stroke: #000000; stroke-width: 0.5"/>
      </defs>
      <g>
       <use xlink:href="#m2ac22c9e2c" x="39.936687" y="235.205242" style="stroke: #000000; stroke-width: 0.5"/>
      </g>
     </g>
     <g id="line2d_88">
      <defs>
       <path id="m91ecceb5b8" d="M 0 0 
L -3 0 
" style="stroke: #000000; stroke-width: 0.5"/>
      </defs>
      <g>
       <use xlink:href="#m91ecceb5b8" x="374.736687" y="235.205242" style="stroke: #000000; stroke-width: 0.5"/>
      </g>
     </g>
     <g id="text_11">
      <!-- $\mathdefault{0}$ -->
      <g transform="translate(31.455367 238.582531)scale(0.1 -0.1)">
       <use xlink:href="#NimbusRomNo9L-Regu-30" transform="scale(0.996264)"/>
      </g>
     </g>
    </g>
    <g id="ytick_2">
     <g id="line2d_89">
      <g>
       <use xlink:href="#m2ac22c9e2c" x="39.936687" y="189.450555" style="stroke: #000000; stroke-width: 0.5"/>
      </g>
     </g>
     <g id="line2d_90">
      <g>
       <use xlink:href="#m91ecceb5b8" x="374.736687" y="189.450555" style="stroke: #000000; stroke-width: 0.5"/>
      </g>
     </g>
     <g id="text_12">
      <!-- $\mathdefault{1000}$ -->
      <g transform="translate(16.511406 192.827844)scale(0.1 -0.1)">
       <use xlink:href="#NimbusRomNo9L-Regu-31" transform="scale(0.996264)"/>
       <use xlink:href="#NimbusRomNo9L-Regu-30" transform="translate(49.8132 0)scale(0.996264)"/>
       <use xlink:href="#NimbusRomNo9L-Regu-30" transform="translate(99.626401 0)scale(0.996264)"/>
       <use xlink:href="#NimbusRomNo9L-Regu-30" transform="translate(149.439601 0)scale(0.996264)"/>
      </g>
     </g>
    </g>
    <g id="ytick_3">
     <g id="line2d_91">
      <g>
       <use xlink:href="#m2ac22c9e2c" x="39.936687" y="143.695868" style="stroke: #000000; stroke-width: 0.5"/>
      </g>
     </g>
     <g id="line2d_92">
      <g>
       <use xlink:href="#m91ecceb5b8" x="374.736687" y="143.695868" style="stroke: #000000; stroke-width: 0.5"/>
      </g>
     </g>
     <g id="text_13">
      <!-- $\mathdefault{2000}$ -->
      <g transform="translate(16.511406 147.073157)scale(0.1 -0.1)">
       <use xlink:href="#NimbusRomNo9L-Regu-32" transform="scale(0.996264)"/>
       <use xlink:href="#NimbusRomNo9L-Regu-30" transform="translate(49.8132 0)scale(0.996264)"/>
       <use xlink:href="#NimbusRomNo9L-Regu-30" transform="translate(99.626401 0)scale(0.996264)"/>
       <use xlink:href="#NimbusRomNo9L-Regu-30" transform="translate(149.439601 0)scale(0.996264)"/>
      </g>
     </g>
    </g>
    <g id="ytick_4">
     <g id="line2d_93">
      <g>
       <use xlink:href="#m2ac22c9e2c" x="39.936687" y="97.941181" style="stroke: #000000; stroke-width: 0.5"/>
      </g>
     </g>
     <g id="line2d_94">
      <g>
       <use xlink:href="#m91ecceb5b8" x="374.736687" y="97.941181" style="stroke: #000000; stroke-width: 0.5"/>
      </g>
     </g>
     <g id="text_14">
      <!-- $\mathdefault{3000}$ -->
      <g transform="translate(16.511406 101.318469)scale(0.1 -0.1)">
       <defs>
        <path id="NimbusRomNo9L-Regu-33" d="M 979 2138 
C 1357 2138 1504 2125 1658 2068 
C 2054 1927 2304 1562 2304 1120 
C 2304 583 1939 167 1466 167 
C 1293 167 1165 212 928 365 
C 736 480 627 525 518 525 
C 371 525 275 436 275 301 
C 275 77 550 -64 998 -64 
C 1491 -64 1997 103 2298 365 
C 2598 628 2765 999 2765 1428 
C 2765 1754 2662 2055 2477 2253 
C 2349 2394 2227 2471 1946 2592 
C 2387 2893 2547 3130 2547 3476 
C 2547 3994 2138 4352 1549 4352 
C 1229 4352 947 4244 717 4039 
C 525 3866 429 3699 288 3315 
L 384 3290 
C 646 3757 934 3968 1338 3968 
C 1754 3968 2042 3687 2042 3284 
C 2042 3053 1946 2823 1786 2663 
C 1594 2471 1414 2375 979 2221 
L 979 2138 
z
" transform="scale(0.015625)"/>
       </defs>
       <use xlink:href="#NimbusRomNo9L-Regu-33" transform="scale(0.996264)"/>
       <use xlink:href="#NimbusRomNo9L-Regu-30" transform="translate(49.8132 0)scale(0.996264)"/>
       <use xlink:href="#NimbusRomNo9L-Regu-30" transform="translate(99.626401 0)scale(0.996264)"/>
       <use xlink:href="#NimbusRomNo9L-Regu-30" transform="translate(149.439601 0)scale(0.996264)"/>
      </g>
     </g>
    </g>
    <g id="ytick_5">
     <g id="line2d_95">
      <g>
       <use xlink:href="#m2ac22c9e2c" x="39.936687" y="52.186493" style="stroke: #000000; stroke-width: 0.5"/>
      </g>
     </g>
     <g id="line2d_96">
      <g>
       <use xlink:href="#m91ecceb5b8" x="374.736687" y="52.186493" style="stroke: #000000; stroke-width: 0.5"/>
      </g>
     </g>
     <g id="text_15">
      <!-- $\mathdefault{4000}$ -->
      <g transform="translate(16.511406 55.563782)scale(0.1 -0.1)">
       <defs>
        <path id="NimbusRomNo9L-Regu-34" d="M 3021 1497 
L 2368 1497 
L 2368 4352 
L 2086 4352 
L 77 1497 
L 77 1088 
L 1875 1088 
L 1875 32 
L 2368 32 
L 2368 1088 
L 3021 1088 
L 3021 1497 
z
M 1869 1497 
L 333 1497 
L 1869 3698 
L 1869 1497 
z
" transform="scale(0.015625)"/>
       </defs>
       <use xlink:href="#NimbusRomNo9L-Regu-34" transform="scale(0.996264)"/>
       <use xlink:href="#NimbusRomNo9L-Regu-30" transform="translate(49.8132 0)scale(0.996264)"/>
       <use xlink:href="#NimbusRomNo9L-Regu-30" transform="translate(99.626401 0)scale(0.996264)"/>
       <use xlink:href="#NimbusRomNo9L-Regu-30" transform="translate(149.439601 0)scale(0.996264)"/>
      </g>
     </g>
    </g>
    <g id="ytick_6">
     <g id="line2d_97">
      <defs>
       <path id="m69caee476f" d="M 0 0 
L 1.5 0 
" style="stroke: #000000; stroke-width: 0.5"/>
      </defs>
      <g>
       <use xlink:href="#m69caee476f" x="39.936687" y="226.054305" style="stroke: #000000; stroke-width: 0.5"/>
      </g>
     </g>
     <g id="line2d_98">
      <defs>
       <path id="ma6291f3abd" d="M 0 0 
L -1.5 0 
" style="stroke: #000000; stroke-width: 0.5"/>
      </defs>
      <g>
       <use xlink:href="#ma6291f3abd" x="374.736687" y="226.054305" style="stroke: #000000; stroke-width: 0.5"/>
      </g>
     </g>
    </g>
    <g id="ytick_7">
     <g id="line2d_99">
      <g>
       <use xlink:href="#m69caee476f" x="39.936687" y="216.903367" style="stroke: #000000; stroke-width: 0.5"/>
      </g>
     </g>
     <g id="line2d_100">
      <g>
       <use xlink:href="#ma6291f3abd" x="374.736687" y="216.903367" style="stroke: #000000; stroke-width: 0.5"/>
      </g>
     </g>
    </g>
    <g id="ytick_8">
     <g id="line2d_101">
      <g>
       <use xlink:href="#m69caee476f" x="39.936687" y="207.75243" style="stroke: #000000; stroke-width: 0.5"/>
      </g>
     </g>
     <g id="line2d_102">
      <g>
       <use xlink:href="#ma6291f3abd" x="374.736687" y="207.75243" style="stroke: #000000; stroke-width: 0.5"/>
      </g>
     </g>
    </g>
    <g id="ytick_9">
     <g id="line2d_103">
      <g>
       <use xlink:href="#m69caee476f" x="39.936687" y="198.601492" style="stroke: #000000; stroke-width: 0.5"/>
      </g>
     </g>
     <g id="line2d_104">
      <g>
       <use xlink:href="#ma6291f3abd" x="374.736687" y="198.601492" style="stroke: #000000; stroke-width: 0.5"/>
      </g>
     </g>
    </g>
    <g id="ytick_10">
     <g id="line2d_105">
      <g>
       <use xlink:href="#m69caee476f" x="39.936687" y="180.299618" style="stroke: #000000; stroke-width: 0.5"/>
      </g>
     </g>
     <g id="line2d_106">
      <g>
       <use xlink:href="#ma6291f3abd" x="374.736687" y="180.299618" style="stroke: #000000; stroke-width: 0.5"/>
      </g>
     </g>
    </g>
    <g id="ytick_11">
     <g id="line2d_107">
      <g>
       <use xlink:href="#m69caee476f" x="39.936687" y="171.14868" style="stroke: #000000; stroke-width: 0.5"/>
      </g>
     </g>
     <g id="line2d_108">
      <g>
       <use xlink:href="#ma6291f3abd" x="374.736687" y="171.14868" style="stroke: #000000; stroke-width: 0.5"/>
      </g>
     </g>
    </g>
    <g id="ytick_12">
     <g id="line2d_109">
      <g>
       <use xlink:href="#m69caee476f" x="39.936687" y="161.997743" style="stroke: #000000; stroke-width: 0.5"/>
      </g>
     </g>
     <g id="line2d_110">
      <g>
       <use xlink:href="#ma6291f3abd" x="374.736687" y="161.997743" style="stroke: #000000; stroke-width: 0.5"/>
      </g>
     </g>
    </g>
    <g id="ytick_13">
     <g id="line2d_111">
      <g>
       <use xlink:href="#m69caee476f" x="39.936687" y="152.846805" style="stroke: #000000; stroke-width: 0.5"/>
      </g>
     </g>
     <g id="line2d_112">
      <g>
       <use xlink:href="#ma6291f3abd" x="374.736687" y="152.846805" style="stroke: #000000; stroke-width: 0.5"/>
      </g>
     </g>
    </g>
    <g id="ytick_14">
     <g id="line2d_113">
      <g>
       <use xlink:href="#m69caee476f" x="39.936687" y="134.54493" style="stroke: #000000; stroke-width: 0.5"/>
      </g>
     </g>
     <g id="line2d_114">
      <g>
       <use xlink:href="#ma6291f3abd" x="374.736687" y="134.54493" style="stroke: #000000; stroke-width: 0.5"/>
      </g>
     </g>
    </g>
    <g id="ytick_15">
     <g id="line2d_115">
      <g>
       <use xlink:href="#m69caee476f" x="39.936687" y="125.393993" style="stroke: #000000; stroke-width: 0.5"/>
      </g>
     </g>
     <g id="line2d_116">
      <g>
       <use xlink:href="#ma6291f3abd" x="374.736687" y="125.393993" style="stroke: #000000; stroke-width: 0.5"/>
      </g>
     </g>
    </g>
    <g id="ytick_16">
     <g id="line2d_117">
      <g>
       <use xlink:href="#m69caee476f" x="39.936687" y="116.243055" style="stroke: #000000; stroke-width: 0.5"/>
      </g>
     </g>
     <g id="line2d_118">
      <g>
       <use xlink:href="#ma6291f3abd" x="374.736687" y="116.243055" style="stroke: #000000; stroke-width: 0.5"/>
      </g>
     </g>
    </g>
    <g id="ytick_17">
     <g id="line2d_119">
      <g>
       <use xlink:href="#m69caee476f" x="39.936687" y="107.092118" style="stroke: #000000; stroke-width: 0.5"/>
      </g>
     </g>
     <g id="line2d_120">
      <g>
       <use xlink:href="#ma6291f3abd" x="374.736687" y="107.092118" style="stroke: #000000; stroke-width: 0.5"/>
      </g>
     </g>
    </g>
    <g id="ytick_18">
     <g id="line2d_121">
      <g>
       <use xlink:href="#m69caee476f" x="39.936687" y="88.790243" style="stroke: #000000; stroke-width: 0.5"/>
      </g>
     </g>
     <g id="line2d_122">
      <g>
       <use xlink:href="#ma6291f3abd" x="374.736687" y="88.790243" style="stroke: #000000; stroke-width: 0.5"/>
      </g>
     </g>
    </g>
    <g id="ytick_19">
     <g id="line2d_123">
      <g>
       <use xlink:href="#m69caee476f" x="39.936687" y="79.639306" style="stroke: #000000; stroke-width: 0.5"/>
      </g>
     </g>
     <g id="line2d_124">
      <g>
       <use xlink:href="#ma6291f3abd" x="374.736687" y="79.639306" style="stroke: #000000; stroke-width: 0.5"/>
      </g>
     </g>
    </g>
    <g id="ytick_20">
     <g id="line2d_125">
      <g>
       <use xlink:href="#m69caee476f" x="39.936687" y="70.488368" style="stroke: #000000; stroke-width: 0.5"/>
      </g>
     </g>
     <g id="line2d_126">
      <g>
       <use xlink:href="#ma6291f3abd" x="374.736687" y="70.488368" style="stroke: #000000; stroke-width: 0.5"/>
      </g>
     </g>
    </g>
    <g id="ytick_21">
     <g id="line2d_127">
      <g>
       <use xlink:href="#m69caee476f" x="39.936687" y="61.337431" style="stroke: #000000; stroke-width: 0.5"/>
      </g>
     </g>
     <g id="line2d_128">
      <g>
       <use xlink:href="#ma6291f3abd" x="374.736687" y="61.337431" style="stroke: #000000; stroke-width: 0.5"/>
      </g>
     </g>
    </g>
    <g id="ytick_22">
     <g id="line2d_129">
      <g>
       <use xlink:href="#m69caee476f" x="39.936687" y="43.035556" style="stroke: #000000; stroke-width: 0.5"/>
      </g>
     </g>
     <g id="line2d_130">
      <g>
       <use xlink:href="#ma6291f3abd" x="374.736687" y="43.035556" style="stroke: #000000; stroke-width: 0.5"/>
      </g>
     </g>
    </g>
    <g id="ytick_23">
     <g id="line2d_131">
      <g>
       <use xlink:href="#m69caee476f" x="39.936687" y="33.884618" style="stroke: #000000; stroke-width: 0.5"/>
      </g>
     </g>
     <g id="line2d_132">
      <g>
       <use xlink:href="#ma6291f3abd" x="374.736687" y="33.884618" style="stroke: #000000; stroke-width: 0.5"/>
      </g>
     </g>
    </g>
    <g id="ytick_24">
     <g id="line2d_133">
      <g>
       <use xlink:href="#m69caee476f" x="39.936687" y="24.733681" style="stroke: #000000; stroke-width: 0.5"/>
      </g>
     </g>
     <g id="line2d_134">
      <g>
       <use xlink:href="#ma6291f3abd" x="374.736687" y="24.733681" style="stroke: #000000; stroke-width: 0.5"/>
      </g>
     </g>
    </g>
    <g id="text_16">
     <!-- N -->
     <g transform="translate(10.354578 130.081741)rotate(-90)scale(0.1 -0.1)">
      <defs>
       <path id="NimbusRomNo9L-Regu-4e" d="M 3917 -64 
L 3917 3287 
C 3917 3669 3981 3905 4102 3987 
C 4192 4051 4282 4077 4525 4102 
L 4525 4224 
L 3021 4224 
L 3021 4102 
C 3264 4083 3354 4057 3450 4000 
C 3578 3911 3635 3681 3635 3286 
L 3635 1136 
L 1171 4224 
L 77 4224 
L 77 4102 
C 352 4102 442 4051 698 3751 
L 698 938 
C 698 281 608 159 77 121 
L 77 0 
L 1581 0 
L 1581 134 
C 1088 134 979 281 979 928 
L 979 3439 
L 3808 -64 
L 3917 -64 
z
" transform="scale(0.015625)"/>
      </defs>
      <use xlink:href="#NimbusRomNo9L-Regu-4e" transform="scale(0.996264)"/>
     </g>
    </g>
   </g>
   <g id="patch_103">
    <path d="M 39.936687 235.205242 
L 39.936687 17.765242 
" style="fill: none; stroke: #000000; stroke-width: 0.5; stroke-linejoin: miter; stroke-linecap: square"/>
   </g>
   <g id="patch_104">
    <path d="M 374.736687 235.205242 
L 374.736687 17.765242 
" style="fill: none; stroke: #000000; stroke-width: 0.5; stroke-linejoin: miter; stroke-linecap: square"/>
   </g>
   <g id="patch_105">
    <path d="M 39.936687 235.205242 
L 374.736687 235.205242 
" style="fill: none; stroke: #000000; stroke-width: 0.5; stroke-linejoin: miter; stroke-linecap: square"/>
   </g>
   <g id="patch_106">
    <path d="M 39.936687 17.765242 
L 374.736687 17.765242 
" style="fill: none; stroke: #000000; stroke-width: 0.5; stroke-linejoin: miter; stroke-linecap: square"/>
   </g>
   <g id="text_17">
    <!-- Histogramme du paramètre $\mu$ -->
    <g transform="translate(136.843848 11.765242)scale(0.12 -0.12)">
     <defs>
      <path id="NimbusRomNo9L-Regu-48" d="M 1338 2304 
L 1338 3533 
C 1338 3990 1408 4059 1901 4104 
L 1901 4224 
L 122 4224 
L 122 4104 
C 614 4059 685 3989 685 3527 
L 685 749 
C 685 210 621 134 122 134 
L 122 0 
L 1901 0 
L 1901 121 
C 1421 159 1338 242 1338 699 
L 1338 2022 
L 3277 2022 
L 3277 757 
C 3277 211 3213 134 2714 134 
L 2714 0 
L 4493 0 
L 4493 121 
C 4013 159 3930 242 3930 696 
L 3930 3529 
C 3930 3989 4000 4059 4493 4104 
L 4493 4224 
L 2714 4224 
L 2714 4104 
C 3206 4059 3277 3990 3277 3533 
L 3277 2304 
L 1338 2304 
z
" transform="scale(0.015625)"/>
      <path id="NimbusRomNo9L-Regu-69" d="M 1120 2929 
L 128 2579 
L 128 2484 
L 179 2490 
C 256 2502 339 2509 397 2509 
C 550 2509 608 2406 608 2125 
L 608 640 
C 608 179 544 109 102 109 
L 102 0 
L 1619 0 
L 1619 96 
C 1197 128 1146 191 1146 650 
L 1146 2910 
L 1120 2929 
z
M 819 4352 
C 646 4352 499 4205 499 4026 
C 499 3847 640 3699 819 3699 
C 1005 3699 1152 3840 1152 4026 
C 1152 4205 1005 4352 819 4352 
z
" transform="scale(0.015625)"/>
      <path id="NimbusRomNo9L-Regu-74" d="M 1632 2880 
L 986 2880 
L 986 3622 
C 986 3686 979 3706 941 3706 
C 896 3648 858 3590 813 3526 
C 570 3174 294 2867 192 2841 
C 122 2794 83 2748 83 2715 
C 83 2695 90 2682 109 2682 
L 448 2682 
L 448 751 
C 448 212 640 -64 1018 -64 
C 1331 -64 1574 90 1786 423 
L 1702 493 
C 1568 333 1459 269 1318 269 
C 1082 269 986 443 986 847 
L 986 2682 
L 1632 2682 
L 1632 2880 
z
" transform="scale(0.015625)"/>
      <path id="NimbusRomNo9L-Regu-6f" d="M 1600 2944 
C 768 2944 186 2330 186 1446 
C 186 582 781 -64 1587 -64 
C 2394 -64 3008 614 3008 1498 
C 3008 2336 2419 2944 1600 2944 
z
M 1517 2765 
C 2054 2765 2432 2150 2432 1274 
C 2432 550 2144 115 1664 115 
C 1414 115 1178 269 1043 525 
C 864 858 762 1306 762 1760 
C 762 2368 1062 2765 1517 2765 
z
" transform="scale(0.015625)"/>
      <path id="NimbusRomNo9L-Regu-67" d="M 3008 2496 
L 3008 2746 
L 2515 2746 
C 2387 2746 2291 2763 2163 2802 
L 2022 2847 
C 1850 2903 1677 2931 1510 2931 
C 915 2931 442 2467 442 1881 
C 442 1476 614 1230 1037 1018 
C 915 906 800 799 762 768 
C 550 588 467 463 467 338 
C 467 206 544 131 806 6 
C 352 -329 179 -543 179 -781 
C 179 -1124 678 -1408 1286 -1408 
C 1766 -1408 2266 -1238 2598 -962 
C 2842 -759 2950 -548 2950 -299 
C 2950 108 2650 384 2176 384 
L 1350 384 
C 1011 384 851 443 851 548 
C 851 678 1062 908 1235 960 
C 1293 953 1338 947 1357 947 
C 1478 934 1562 928 1600 928 
C 1837 928 2093 1026 2291 1203 
C 2502 1387 2598 1617 2598 1945 
C 2598 2135 2566 2286 2477 2496 
L 3008 2496 
z
M 941 -13 
C 1152 -58 1664 -96 1978 -96 
C 2560 -96 2771 -180 2771 -414 
C 2771 -791 2285 -1043 1562 -1043 
C 998 -1043 627 -855 627 -570 
C 627 -420 672 -336 941 -13 
z
M 973 2145 
C 973 2526 1152 2752 1446 2752 
C 1645 2752 1811 2642 1914 2449 
C 2029 2223 2106 1927 2106 1675 
C 2106 1314 1920 1088 1626 1088 
C 1242 1088 973 1507 973 2126 
L 973 2145 
z
" transform="scale(0.015625)"/>
      <path id="NimbusRomNo9L-Regu-72" d="M 45 2496 
C 134 2515 192 2522 269 2522 
C 429 2522 486 2419 486 2138 
L 486 538 
C 486 218 442 173 32 96 
L 32 0 
L 1568 0 
L 1568 102 
C 1133 102 1024 199 1024 565 
L 1024 2013 
C 1024 2219 1299 2541 1472 2541 
C 1510 2541 1568 2509 1638 2445 
C 1741 2355 1811 2317 1894 2317 
C 2048 2317 2144 2426 2144 2605 
C 2144 2816 2010 2944 1792 2944 
C 1523 2944 1338 2797 1024 2343 
L 1024 2931 
L 992 2944 
C 653 2803 422 2721 45 2599 
L 45 2496 
z
" transform="scale(0.015625)"/>
      <path id="NimbusRomNo9L-Regu-6d" d="M 122 2547 
C 205 2566 256 2573 326 2573 
C 493 2573 550 2470 550 2162 
L 550 539 
C 550 192 461 96 102 96 
L 102 0 
L 1523 0 
L 1523 96 
C 1184 96 1088 166 1088 418 
L 1088 2234 
C 1088 2246 1139 2310 1184 2355 
C 1344 2502 1619 2611 1843 2611 
C 2125 2611 2266 2385 2266 1932 
L 2266 528 
C 2266 167 2195 96 1830 96 
L 1830 0 
L 3264 0 
L 3264 96 
C 2899 96 2803 205 2803 603 
L 2803 2221 
C 2995 2496 3206 2611 3501 2611 
C 3866 2611 3981 2438 3981 1907 
L 3981 557 
C 3981 192 3930 141 3558 96 
L 3558 0 
L 4960 0 
L 4960 96 
L 4794 115 
C 4602 115 4518 230 4518 480 
L 4518 1802 
C 4518 2559 4269 2944 3776 2944 
C 3405 2944 3078 2778 2733 2407 
C 2618 2771 2400 2944 2054 2944 
C 1773 2944 1594 2854 1062 2451 
L 1062 2931 
L 1018 2944 
C 691 2822 474 2752 122 2656 
L 122 2547 
z
" transform="scale(0.015625)"/>
      <path id="NimbusRomNo9L-Regu-64" d="M 2202 -64 
L 3142 269 
L 3142 365 
C 3027 365 3014 365 2995 365 
C 2765 365 2714 435 2714 731 
L 2714 4364 
L 2682 4377 
C 2374 4268 2150 4204 1741 4096 
L 1741 3994 
C 1792 4000 1830 4000 1882 4000 
C 2118 4000 2176 3936 2176 3672 
L 2176 2669 
C 1933 2874 1760 2944 1504 2944 
C 768 2944 173 2221 173 1312 
C 173 493 653 -64 1357 -64 
C 1715 -64 1958 64 2176 365 
L 2176 -45 
L 2202 -64 
z
M 2176 653 
C 2176 608 2131 531 2067 461 
C 1952 333 1792 269 1606 269 
C 1075 269 723 781 723 1568 
C 723 2291 1037 2765 1523 2765 
C 1862 2765 2176 2464 2176 2125 
L 2176 653 
z
" transform="scale(0.015625)"/>
      <path id="NimbusRomNo9L-Regu-75" d="M 3066 320 
L 3034 320 
C 2739 320 2669 390 2669 685 
L 2669 2880 
L 1658 2880 
L 1658 2758 
C 2054 2758 2131 2694 2131 2375 
L 2131 875 
C 2131 697 2099 607 2010 537 
C 1837 397 1638 320 1446 320 
C 1197 320 992 537 992 805 
L 992 2880 
L 58 2880 
L 58 2778 
C 365 2778 454 2682 454 2387 
L 454 770 
C 454 263 762 -64 1229 -64 
C 1466 -64 1715 38 1888 211 
L 2163 486 
L 2163 -45 
L 2189 -58 
C 2509 70 2739 141 3066 230 
L 3066 320 
z
" transform="scale(0.015625)"/>
      <path id="NimbusRomNo9L-Regu-70" d="M 58 2516 
C 115 2522 160 2522 218 2522 
C 435 2522 480 2458 480 2155 
L 480 -855 
C 480 -1189 410 -1261 32 -1299 
L 32 -1408 
L 1581 -1408 
L 1581 -1293 
C 1101 -1293 1018 -1222 1018 -816 
L 1018 199 
C 1242 -13 1395 -77 1664 -77 
C 2419 -77 3008 643 3008 1575 
C 3008 2372 2560 2944 1939 2944 
C 1581 2944 1299 2784 1018 2438 
L 1018 2931 
L 979 2944 
C 634 2810 410 2726 58 2618 
L 58 2516 
z
M 1018 2136 
C 1018 2329 1376 2560 1670 2560 
C 2144 2560 2458 2071 2458 1324 
C 2458 611 2144 128 1683 128 
C 1382 128 1018 359 1018 552 
L 1018 2136 
z
" transform="scale(0.015625)"/>
      <path id="NimbusRomNo9L-Regu-1e" d="M 1549 3264 
L 608 4206 
C 493 4320 435 4352 339 4352 
C 205 4352 122 4275 122 4155 
C 122 4053 192 3957 307 3882 
L 1293 3264 
L 1549 3264 
z
" transform="scale(0.015625)"/>
      <path id="StandardSymL-6d" d="M 2829 3168 
L 2259 3168 
L 2266 818 
C 2035 517 1818 388 1549 388 
C 1178 388 960 646 960 1086 
L 960 3168 
L 397 3168 
L 397 113 
C 397 -20 371 -179 326 -371 
C 218 -766 211 -804 211 -950 
C 211 -1218 346 -1408 531 -1408 
C 717 -1408 845 -1214 845 -928 
C 845 -791 826 -706 723 -330 
C 659 -96 646 -31 646 151 
L 646 229 
C 915 6 1062 -64 1280 -64 
C 1600 -64 1926 129 2266 513 
C 2317 314 2349 240 2413 148 
C 2509 17 2682 -64 2867 -64 
C 3264 -64 3539 204 3629 672 
L 3456 672 
C 3430 453 3296 280 3149 280 
C 2957 280 2829 506 2829 847 
L 2829 3168 
z
" transform="scale(0.015625)"/>
     </defs>
     <use xlink:href="#NimbusRomNo9L-Regu-48" transform="scale(0.996264)"/>
     <use xlink:href="#NimbusRomNo9L-Regu-69" transform="translate(71.929985 0)scale(0.996264)"/>
     <use xlink:href="#NimbusRomNo9L-Regu-73" transform="translate(99.625154 0)scale(0.996264)"/>
     <use xlink:href="#NimbusRomNo9L-Regu-74" transform="translate(138.378861 0)scale(0.996264)"/>
     <use xlink:href="#NimbusRomNo9L-Regu-6f" transform="translate(166.07403 0)scale(0.996264)"/>
     <use xlink:href="#NimbusRomNo9L-Regu-67" transform="translate(215.887231 0)scale(0.996264)"/>
     <use xlink:href="#NimbusRomNo9L-Regu-72" transform="translate(265.700431 0)scale(0.996264)"/>
     <use xlink:href="#NimbusRomNo9L-Regu-61" transform="translate(298.875661 0)scale(0.996264)"/>
     <use xlink:href="#NimbusRomNo9L-Regu-6d" transform="translate(343.10923 0)scale(0.996264)"/>
     <use xlink:href="#NimbusRomNo9L-Regu-6d" transform="translate(420.6176 0)scale(0.996264)"/>
     <use xlink:href="#NimbusRomNo9L-Regu-65" transform="translate(498.12597 0)scale(0.996264)"/>
     <use xlink:href="#NimbusRomNo9L-Regu-64" transform="translate(567.266139 0)scale(0.996264)"/>
     <use xlink:href="#NimbusRomNo9L-Regu-75" transform="translate(617.079339 0)scale(0.996264)"/>
     <use xlink:href="#NimbusRomNo9L-Regu-70" transform="translate(691.79914 0)scale(0.996264)"/>
     <use xlink:href="#NimbusRomNo9L-Regu-61" transform="translate(741.612341 0)scale(0.996264)"/>
     <use xlink:href="#NimbusRomNo9L-Regu-72" transform="translate(785.845909 0)scale(0.996264)"/>
     <use xlink:href="#NimbusRomNo9L-Regu-61" transform="translate(819.021139 0)scale(0.996264)"/>
     <use xlink:href="#NimbusRomNo9L-Regu-6d" transform="translate(863.254708 0)scale(0.996264)"/>
     <use xlink:href="#NimbusRomNo9L-Regu-1e" transform="translate(946.292255 0.498056)scale(0.996264)"/>
     <use xlink:href="#NimbusRomNo9L-Regu-65" transform="translate(940.763078 0)scale(0.996264)"/>
     <use xlink:href="#NimbusRomNo9L-Regu-74" transform="translate(984.996646 0)scale(0.996264)"/>
     <use xlink:href="#NimbusRomNo9L-Regu-72" transform="translate(1012.691816 0)scale(0.996264)"/>
     <use xlink:href="#NimbusRomNo9L-Regu-65" transform="translate(1045.867046 0)scale(0.996264)"/>
     <use xlink:href="#StandardSymL-6d" transform="translate(1117.497829 0)scale(0.996264)"/>
    </g>
   </g>
  </g>
 </g>
 <defs>
  <clipPath id="p9b953adaa4">
   <rect x="39.936687" y="17.765242" width="334.8" height="217.44"/>
  </clipPath>
 </defs>
</svg>
