<?xml version="1.0" encoding="utf-8" standalone="no"?>
<!DOCTYPE svg PUBLIC "-//W3C//DTD SVG 1.1//EN"
  "http://www.w3.org/Graphics/SVG/1.1/DTD/svg11.dtd">
<svg xmlns:xlink="http://www.w3.org/1999/xlink" width="432pt" height="288pt" viewBox="0 0 432 288" xmlns="http://www.w3.org/2000/svg" version="1.1">
 <metadata>
  <rdf:RDF xmlns:dc="http://purl.org/dc/elements/1.1/" xmlns:cc="http://creativecommons.org/ns#" xmlns:rdf="http://www.w3.org/1999/02/22-rdf-syntax-ns#">
   <cc:Work>
    <dc:type rdf:resource="http://purl.org/dc/dcmitype/StillImage"/>
    <dc:date>2022-06-21T02:10:12.643594</dc:date>
    <dc:format>image/svg+xml</dc:format>
    <dc:creator>
     <cc:Agent>
      <dc:title>Matplotlib v3.5.0, https://matplotlib.org/</dc:title>
     </cc:Agent>
    </dc:creator>
   </cc:Work>
  </rdf:RDF>
 </metadata>
 <defs>
  <style type="text/css">*{stroke-linejoin: round; stroke-linecap: butt}</style>
 </defs>
 <g id="figure_1">
  <g id="patch_1">
   <path d="M 0 288 
L 432 288 
L 432 0 
L 0 0 
L 0 288 
z
" style="fill: none"/>
  </g>
  <g id="axes_1">
   <g id="patch_2">
    <path d="M 29.08774 88.384455 
L 428.99976 88.384455 
L 428.99976 36.212595 
L 29.08774 36.212595 
z
" style="fill: #ffffff"/>
   </g>
   <g id="patch_3">
    <path d="M 47.265559 88.384455 
L 50.901123 88.384455 
L 50.901123 40.436031 
L 47.265559 40.436031 
z
" clip-path="url(#p4a2f33c36d)" style="fill: #1f77b4"/>
   </g>
   <g id="patch_4">
    <path d="M 50.901123 88.384455 
L 54.536687 88.384455 
L 54.536687 44.41103 
L 50.901123 44.41103 
z
" clip-path="url(#p4a2f33c36d)" style="fill: #1f77b4"/>
   </g>
   <g id="patch_5">
    <path d="M 54.536687 88.384455 
L 58.172251 88.384455 
L 58.172251 44.162593 
L 54.536687 44.162593 
z
" clip-path="url(#p4a2f33c36d)" style="fill: #1f77b4"/>
   </g>
   <g id="patch_6">
    <path d="M 58.172251 88.384455 
L 61.807814 88.384455 
L 61.807814 49.379779 
L 58.172251 49.379779 
z
" clip-path="url(#p4a2f33c36d)" style="fill: #1f77b4"/>
   </g>
   <g id="patch_7">
    <path d="M 61.807814 88.384455 
L 65.443378 88.384455 
L 65.443378 55.590714 
L 61.807814 55.590714 
z
" clip-path="url(#p4a2f33c36d)" style="fill: #1f77b4"/>
   </g>
   <g id="patch_8">
    <path d="M 65.443378 88.384455 
L 69.078942 88.384455 
L 69.078942 46.646967 
L 65.443378 46.646967 
z
" clip-path="url(#p4a2f33c36d)" style="fill: #1f77b4"/>
   </g>
   <g id="patch_9">
    <path d="M 69.078942 88.384455 
L 72.714506 88.384455 
L 72.714506 45.901655 
L 69.078942 45.901655 
z
" clip-path="url(#p4a2f33c36d)" style="fill: #1f77b4"/>
   </g>
   <g id="patch_10">
    <path d="M 72.714506 88.384455 
L 76.35007 88.384455 
L 76.35007 47.889154 
L 72.714506 47.889154 
z
" clip-path="url(#p4a2f33c36d)" style="fill: #1f77b4"/>
   </g>
   <g id="patch_11">
    <path d="M 76.35007 88.384455 
L 79.985633 88.384455 
L 79.985633 49.379779 
L 76.35007 49.379779 
z
" clip-path="url(#p4a2f33c36d)" style="fill: #1f77b4"/>
   </g>
   <g id="patch_12">
    <path d="M 79.985633 88.384455 
L 83.621197 88.384455 
L 83.621197 52.361028 
L 79.985633 52.361028 
z
" clip-path="url(#p4a2f33c36d)" style="fill: #1f77b4"/>
   </g>
   <g id="patch_13">
    <path d="M 83.621197 88.384455 
L 87.256761 88.384455 
L 87.256761 62.050088 
L 83.621197 62.050088 
z
" clip-path="url(#p4a2f33c36d)" style="fill: #1f77b4"/>
   </g>
   <g id="patch_14">
    <path d="M 87.256761 88.384455 
L 90.892325 88.384455 
L 90.892325 59.068838 
L 87.256761 59.068838 
z
" clip-path="url(#p4a2f33c36d)" style="fill: #1f77b4"/>
   </g>
   <g id="patch_15">
    <path d="M 90.892325 88.384455 
L 94.527889 88.384455 
L 94.527889 61.304775 
L 90.892325 61.304775 
z
" clip-path="url(#p4a2f33c36d)" style="fill: #1f77b4"/>
   </g>
   <g id="patch_16">
    <path d="M 94.527889 88.384455 
L 98.163453 88.384455 
L 98.163453 61.553213 
L 94.527889 61.553213 
z
" clip-path="url(#p4a2f33c36d)" style="fill: #1f77b4"/>
   </g>
   <g id="patch_17">
    <path d="M 98.163453 88.384455 
L 101.799016 88.384455 
L 101.799016 63.292275 
L 98.163453 63.292275 
z
" clip-path="url(#p4a2f33c36d)" style="fill: #1f77b4"/>
   </g>
   <g id="patch_18">
    <path d="M 101.799016 88.384455 
L 105.43458 88.384455 
L 105.43458 68.012586 
L 101.799016 68.012586 
z
" clip-path="url(#p4a2f33c36d)" style="fill: #1f77b4"/>
   </g>
   <g id="patch_19">
    <path d="M 105.43458 88.384455 
L 109.070144 88.384455 
L 109.070144 69.254773 
L 105.43458 69.254773 
z
" clip-path="url(#p4a2f33c36d)" style="fill: #1f77b4"/>
   </g>
   <g id="patch_20">
    <path d="M 109.070144 88.384455 
L 112.705708 88.384455 
L 112.705708 66.521961 
L 109.070144 66.521961 
z
" clip-path="url(#p4a2f33c36d)" style="fill: #1f77b4"/>
   </g>
   <g id="patch_21">
    <path d="M 112.705708 88.384455 
L 116.341272 88.384455 
L 116.341272 68.509461 
L 112.705708 68.509461 
z
" clip-path="url(#p4a2f33c36d)" style="fill: #1f77b4"/>
   </g>
   <g id="patch_22">
    <path d="M 116.341272 88.384455 
L 119.976835 88.384455 
L 119.976835 69.50321 
L 116.341272 69.50321 
z
" clip-path="url(#p4a2f33c36d)" style="fill: #1f77b4"/>
   </g>
   <g id="patch_23">
    <path d="M 119.976835 88.384455 
L 123.612399 88.384455 
L 123.612399 75.217271 
L 119.976835 75.217271 
z
" clip-path="url(#p4a2f33c36d)" style="fill: #1f77b4"/>
   </g>
   <g id="patch_24">
    <path d="M 123.612399 88.384455 
L 127.247963 88.384455 
L 127.247963 72.236022 
L 123.612399 72.236022 
z
" clip-path="url(#p4a2f33c36d)" style="fill: #1f77b4"/>
   </g>
   <g id="patch_25">
    <path d="M 127.247963 88.384455 
L 130.883527 88.384455 
L 130.883527 72.732897 
L 127.247963 72.732897 
z
" clip-path="url(#p4a2f33c36d)" style="fill: #1f77b4"/>
   </g>
   <g id="patch_26">
    <path d="M 130.883527 88.384455 
L 134.519091 88.384455 
L 134.519091 72.981334 
L 130.883527 72.981334 
z
" clip-path="url(#p4a2f33c36d)" style="fill: #1f77b4"/>
   </g>
   <g id="patch_27">
    <path d="M 134.519091 88.384455 
L 138.154655 88.384455 
L 138.154655 75.962584 
L 134.519091 75.962584 
z
" clip-path="url(#p4a2f33c36d)" style="fill: #1f77b4"/>
   </g>
   <g id="patch_28">
    <path d="M 138.154655 88.384455 
L 141.790218 88.384455 
L 141.790218 72.48446 
L 138.154655 72.48446 
z
" clip-path="url(#p4a2f33c36d)" style="fill: #1f77b4"/>
   </g>
   <g id="patch_29">
    <path d="M 141.790218 88.384455 
L 145.425782 88.384455 
L 145.425782 77.453208 
L 141.790218 77.453208 
z
" clip-path="url(#p4a2f33c36d)" style="fill: #1f77b4"/>
   </g>
   <g id="patch_30">
    <path d="M 145.425782 88.384455 
L 149.061346 88.384455 
L 149.061346 77.453208 
L 145.425782 77.453208 
z
" clip-path="url(#p4a2f33c36d)" style="fill: #1f77b4"/>
   </g>
   <g id="patch_31">
    <path d="M 149.061346 88.384455 
L 152.69691 88.384455 
L 152.69691 78.446958 
L 149.061346 78.446958 
z
" clip-path="url(#p4a2f33c36d)" style="fill: #1f77b4"/>
   </g>
   <g id="patch_32">
    <path d="M 152.69691 88.384455 
L 156.332474 88.384455 
L 156.332474 77.204771 
L 152.69691 77.204771 
z
" clip-path="url(#p4a2f33c36d)" style="fill: #1f77b4"/>
   </g>
   <g id="patch_33">
    <path d="M 156.332474 88.384455 
L 159.968037 88.384455 
L 159.968037 78.943833 
L 156.332474 78.943833 
z
" clip-path="url(#p4a2f33c36d)" style="fill: #1f77b4"/>
   </g>
   <g id="patch_34">
    <path d="M 159.968037 88.384455 
L 163.603601 88.384455 
L 163.603601 77.950083 
L 159.968037 77.950083 
z
" clip-path="url(#p4a2f33c36d)" style="fill: #1f77b4"/>
   </g>
   <g id="patch_35">
    <path d="M 163.603601 88.384455 
L 167.239165 88.384455 
L 167.239165 76.956333 
L 163.603601 76.956333 
z
" clip-path="url(#p4a2f33c36d)" style="fill: #1f77b4"/>
   </g>
   <g id="patch_36">
    <path d="M 167.239165 88.384455 
L 170.874729 88.384455 
L 170.874729 80.931332 
L 167.239165 80.931332 
z
" clip-path="url(#p4a2f33c36d)" style="fill: #1f77b4"/>
   </g>
   <g id="patch_37">
    <path d="M 170.874729 88.384455 
L 174.510293 88.384455 
L 174.510293 79.937582 
L 170.874729 79.937582 
z
" clip-path="url(#p4a2f33c36d)" style="fill: #1f77b4"/>
   </g>
   <g id="patch_38">
    <path d="M 174.510293 88.384455 
L 178.145857 88.384455 
L 178.145857 81.925082 
L 174.510293 81.925082 
z
" clip-path="url(#p4a2f33c36d)" style="fill: #1f77b4"/>
   </g>
   <g id="patch_39">
    <path d="M 178.145857 88.384455 
L 181.78142 88.384455 
L 181.78142 76.707896 
L 178.145857 76.707896 
z
" clip-path="url(#p4a2f33c36d)" style="fill: #1f77b4"/>
   </g>
   <g id="patch_40">
    <path d="M 181.78142 88.384455 
L 185.416984 88.384455 
L 185.416984 79.689145 
L 181.78142 79.689145 
z
" clip-path="url(#p4a2f33c36d)" style="fill: #1f77b4"/>
   </g>
   <g id="patch_41">
    <path d="M 185.416984 88.384455 
L 189.052548 88.384455 
L 189.052548 77.701646 
L 185.416984 77.701646 
z
" clip-path="url(#p4a2f33c36d)" style="fill: #1f77b4"/>
   </g>
   <g id="patch_42">
    <path d="M 189.052548 88.384455 
L 192.688112 88.384455 
L 192.688112 79.937582 
L 189.052548 79.937582 
z
" clip-path="url(#p4a2f33c36d)" style="fill: #1f77b4"/>
   </g>
   <g id="patch_43">
    <path d="M 192.688112 88.384455 
L 196.323676 88.384455 
L 196.323676 78.695395 
L 192.688112 78.695395 
z
" clip-path="url(#p4a2f33c36d)" style="fill: #1f77b4"/>
   </g>
   <g id="patch_44">
    <path d="M 196.323676 88.384455 
L 199.959239 88.384455 
L 199.959239 77.701646 
L 196.323676 77.701646 
z
" clip-path="url(#p4a2f33c36d)" style="fill: #1f77b4"/>
   </g>
   <g id="patch_45">
    <path d="M 199.959239 88.384455 
L 203.594803 88.384455 
L 203.594803 77.453208 
L 199.959239 77.453208 
z
" clip-path="url(#p4a2f33c36d)" style="fill: #1f77b4"/>
   </g>
   <g id="patch_46">
    <path d="M 203.594803 88.384455 
L 207.230367 88.384455 
L 207.230367 78.943833 
L 203.594803 78.943833 
z
" clip-path="url(#p4a2f33c36d)" style="fill: #1f77b4"/>
   </g>
   <g id="patch_47">
    <path d="M 207.230367 88.384455 
L 210.865931 88.384455 
L 210.865931 78.446958 
L 207.230367 78.446958 
z
" clip-path="url(#p4a2f33c36d)" style="fill: #1f77b4"/>
   </g>
   <g id="patch_48">
    <path d="M 210.865931 88.384455 
L 214.501495 88.384455 
L 214.501495 75.962584 
L 210.865931 75.962584 
z
" clip-path="url(#p4a2f33c36d)" style="fill: #1f77b4"/>
   </g>
   <g id="patch_49">
    <path d="M 214.501495 88.384455 
L 218.137059 88.384455 
L 218.137059 77.950083 
L 214.501495 77.950083 
z
" clip-path="url(#p4a2f33c36d)" style="fill: #1f77b4"/>
   </g>
   <g id="patch_50">
    <path d="M 218.137059 88.384455 
L 221.772622 88.384455 
L 221.772622 81.428207 
L 218.137059 81.428207 
z
" clip-path="url(#p4a2f33c36d)" style="fill: #1f77b4"/>
   </g>
   <g id="patch_51">
    <path d="M 221.772622 88.384455 
L 225.408186 88.384455 
L 225.408186 76.459458 
L 221.772622 76.459458 
z
" clip-path="url(#p4a2f33c36d)" style="fill: #1f77b4"/>
   </g>
   <g id="patch_52">
    <path d="M 225.408186 88.384455 
L 229.04375 88.384455 
L 229.04375 78.695395 
L 225.408186 78.695395 
z
" clip-path="url(#p4a2f33c36d)" style="fill: #1f77b4"/>
   </g>
   <g id="patch_53">
    <path d="M 229.04375 88.384455 
L 232.679314 88.384455 
L 232.679314 77.950083 
L 229.04375 77.950083 
z
" clip-path="url(#p4a2f33c36d)" style="fill: #1f77b4"/>
   </g>
   <g id="patch_54">
    <path d="M 232.679314 88.384455 
L 236.314878 88.384455 
L 236.314878 78.446958 
L 232.679314 78.446958 
z
" clip-path="url(#p4a2f33c36d)" style="fill: #1f77b4"/>
   </g>
   <g id="patch_55">
    <path d="M 236.314878 88.384455 
L 239.950441 88.384455 
L 239.950441 80.434457 
L 236.314878 80.434457 
z
" clip-path="url(#p4a2f33c36d)" style="fill: #1f77b4"/>
   </g>
   <g id="patch_56">
    <path d="M 239.950441 88.384455 
L 243.586005 88.384455 
L 243.586005 78.19852 
L 239.950441 78.19852 
z
" clip-path="url(#p4a2f33c36d)" style="fill: #1f77b4"/>
   </g>
   <g id="patch_57">
    <path d="M 243.586005 88.384455 
L 247.221569 88.384455 
L 247.221569 79.19227 
L 243.586005 79.19227 
z
" clip-path="url(#p4a2f33c36d)" style="fill: #1f77b4"/>
   </g>
   <g id="patch_58">
    <path d="M 247.221569 88.384455 
L 250.857133 88.384455 
L 250.857133 78.943833 
L 247.221569 78.943833 
z
" clip-path="url(#p4a2f33c36d)" style="fill: #1f77b4"/>
   </g>
   <g id="patch_59">
    <path d="M 250.857133 88.384455 
L 254.492697 88.384455 
L 254.492697 80.931332 
L 250.857133 80.931332 
z
" clip-path="url(#p4a2f33c36d)" style="fill: #1f77b4"/>
   </g>
   <g id="patch_60">
    <path d="M 254.492697 88.384455 
L 258.128261 88.384455 
L 258.128261 80.682895 
L 254.492697 80.682895 
z
" clip-path="url(#p4a2f33c36d)" style="fill: #1f77b4"/>
   </g>
   <g id="patch_61">
    <path d="M 258.128261 88.384455 
L 261.763824 88.384455 
L 261.763824 78.695395 
L 258.128261 78.695395 
z
" clip-path="url(#p4a2f33c36d)" style="fill: #1f77b4"/>
   </g>
   <g id="patch_62">
    <path d="M 261.763824 88.384455 
L 265.399388 88.384455 
L 265.399388 79.440708 
L 261.763824 79.440708 
z
" clip-path="url(#p4a2f33c36d)" style="fill: #1f77b4"/>
   </g>
   <g id="patch_63">
    <path d="M 265.399388 88.384455 
L 269.034952 88.384455 
L 269.034952 76.956333 
L 265.399388 76.956333 
z
" clip-path="url(#p4a2f33c36d)" style="fill: #1f77b4"/>
   </g>
   <g id="patch_64">
    <path d="M 269.034952 88.384455 
L 272.670516 88.384455 
L 272.670516 76.956333 
L 269.034952 76.956333 
z
" clip-path="url(#p4a2f33c36d)" style="fill: #1f77b4"/>
   </g>
   <g id="patch_65">
    <path d="M 272.670516 88.384455 
L 276.30608 88.384455 
L 276.30608 78.943833 
L 272.670516 78.943833 
z
" clip-path="url(#p4a2f33c36d)" style="fill: #1f77b4"/>
   </g>
   <g id="patch_66">
    <path d="M 276.30608 88.384455 
L 279.941643 88.384455 
L 279.941643 78.19852 
L 276.30608 78.19852 
z
" clip-path="url(#p4a2f33c36d)" style="fill: #1f77b4"/>
   </g>
   <g id="patch_67">
    <path d="M 279.941643 88.384455 
L 283.577207 88.384455 
L 283.577207 81.428207 
L 279.941643 81.428207 
z
" clip-path="url(#p4a2f33c36d)" style="fill: #1f77b4"/>
   </g>
   <g id="patch_68">
    <path d="M 283.577207 88.384455 
L 287.212771 88.384455 
L 287.212771 80.931332 
L 283.577207 80.931332 
z
" clip-path="url(#p4a2f33c36d)" style="fill: #1f77b4"/>
   </g>
   <g id="patch_69">
    <path d="M 287.212771 88.384455 
L 290.848335 88.384455 
L 290.848335 77.950083 
L 287.212771 77.950083 
z
" clip-path="url(#p4a2f33c36d)" style="fill: #1f77b4"/>
   </g>
   <g id="patch_70">
    <path d="M 290.848335 88.384455 
L 294.483899 88.384455 
L 294.483899 81.428207 
L 290.848335 81.428207 
z
" clip-path="url(#p4a2f33c36d)" style="fill: #1f77b4"/>
   </g>
   <g id="patch_71">
    <path d="M 294.483899 88.384455 
L 298.119463 88.384455 
L 298.119463 78.695395 
L 294.483899 78.695395 
z
" clip-path="url(#p4a2f33c36d)" style="fill: #1f77b4"/>
   </g>
   <g id="patch_72">
    <path d="M 298.119463 88.384455 
L 301.755026 88.384455 
L 301.755026 80.434457 
L 298.119463 80.434457 
z
" clip-path="url(#p4a2f33c36d)" style="fill: #1f77b4"/>
   </g>
   <g id="patch_73">
    <path d="M 301.755026 88.384455 
L 305.39059 88.384455 
L 305.39059 78.446958 
L 301.755026 78.446958 
z
" clip-path="url(#p4a2f33c36d)" style="fill: #1f77b4"/>
   </g>
   <g id="patch_74">
    <path d="M 305.39059 88.384455 
L 309.026154 88.384455 
L 309.026154 78.19852 
L 305.39059 78.19852 
z
" clip-path="url(#p4a2f33c36d)" style="fill: #1f77b4"/>
   </g>
   <g id="patch_75">
    <path d="M 309.026154 88.384455 
L 312.661718 88.384455 
L 312.661718 81.17977 
L 309.026154 81.17977 
z
" clip-path="url(#p4a2f33c36d)" style="fill: #1f77b4"/>
   </g>
   <g id="patch_76">
    <path d="M 312.661718 88.384455 
L 316.297282 88.384455 
L 316.297282 78.446958 
L 312.661718 78.446958 
z
" clip-path="url(#p4a2f33c36d)" style="fill: #1f77b4"/>
   </g>
   <g id="patch_77">
    <path d="M 316.297282 88.384455 
L 319.932845 88.384455 
L 319.932845 79.689145 
L 316.297282 79.689145 
z
" clip-path="url(#p4a2f33c36d)" style="fill: #1f77b4"/>
   </g>
   <g id="patch_78">
    <path d="M 319.932845 88.384455 
L 323.568409 88.384455 
L 323.568409 80.18602 
L 319.932845 80.18602 
z
" clip-path="url(#p4a2f33c36d)" style="fill: #1f77b4"/>
   </g>
   <g id="patch_79">
    <path d="M 323.568409 88.384455 
L 327.203973 88.384455 
L 327.203973 80.434457 
L 323.568409 80.434457 
z
" clip-path="url(#p4a2f33c36d)" style="fill: #1f77b4"/>
   </g>
   <g id="patch_80">
    <path d="M 327.203973 88.384455 
L 330.839537 88.384455 
L 330.839537 73.975084 
L 327.203973 73.975084 
z
" clip-path="url(#p4a2f33c36d)" style="fill: #1f77b4"/>
   </g>
   <g id="patch_81">
    <path d="M 330.839537 88.384455 
L 334.475101 88.384455 
L 334.475101 76.707896 
L 330.839537 76.707896 
z
" clip-path="url(#p4a2f33c36d)" style="fill: #1f77b4"/>
   </g>
   <g id="patch_82">
    <path d="M 334.475101 88.384455 
L 338.110665 88.384455 
L 338.110665 80.18602 
L 334.475101 80.18602 
z
" clip-path="url(#p4a2f33c36d)" style="fill: #1f77b4"/>
   </g>
   <g id="patch_83">
    <path d="M 338.110665 88.384455 
L 341.746228 88.384455 
L 341.746228 78.695395 
L 338.110665 78.695395 
z
" clip-path="url(#p4a2f33c36d)" style="fill: #1f77b4"/>
   </g>
   <g id="patch_84">
    <path d="M 341.746228 88.384455 
L 345.381792 88.384455 
L 345.381792 78.695395 
L 341.746228 78.695395 
z
" clip-path="url(#p4a2f33c36d)" style="fill: #1f77b4"/>
   </g>
   <g id="patch_85">
    <path d="M 345.381792 88.384455 
L 349.017356 88.384455 
L 349.017356 79.937582 
L 345.381792 79.937582 
z
" clip-path="url(#p4a2f33c36d)" style="fill: #1f77b4"/>
   </g>
   <g id="patch_86">
    <path d="M 349.017356 88.384455 
L 352.65292 88.384455 
L 352.65292 79.19227 
L 349.017356 79.19227 
z
" clip-path="url(#p4a2f33c36d)" style="fill: #1f77b4"/>
   </g>
   <g id="patch_87">
    <path d="M 352.65292 88.384455 
L 356.288484 88.384455 
L 356.288484 76.707896 
L 352.65292 76.707896 
z
" clip-path="url(#p4a2f33c36d)" style="fill: #1f77b4"/>
   </g>
   <g id="patch_88">
    <path d="M 356.288484 88.384455 
L 359.924047 88.384455 
L 359.924047 79.440708 
L 356.288484 79.440708 
z
" clip-path="url(#p4a2f33c36d)" style="fill: #1f77b4"/>
   </g>
   <g id="patch_89">
    <path d="M 359.924047 88.384455 
L 363.559611 88.384455 
L 363.559611 81.17977 
L 359.924047 81.17977 
z
" clip-path="url(#p4a2f33c36d)" style="fill: #1f77b4"/>
   </g>
   <g id="patch_90">
    <path d="M 363.559611 88.384455 
L 367.195175 88.384455 
L 367.195175 79.19227 
L 363.559611 79.19227 
z
" clip-path="url(#p4a2f33c36d)" style="fill: #1f77b4"/>
   </g>
   <g id="patch_91">
    <path d="M 367.195175 88.384455 
L 370.830739 88.384455 
L 370.830739 79.689145 
L 367.195175 79.689145 
z
" clip-path="url(#p4a2f33c36d)" style="fill: #1f77b4"/>
   </g>
   <g id="patch_92">
    <path d="M 370.830739 88.384455 
L 374.466303 88.384455 
L 374.466303 80.18602 
L 370.830739 80.18602 
z
" clip-path="url(#p4a2f33c36d)" style="fill: #1f77b4"/>
   </g>
   <g id="patch_93">
    <path d="M 374.466303 88.384455 
L 378.101867 88.384455 
L 378.101867 80.434457 
L 374.466303 80.434457 
z
" clip-path="url(#p4a2f33c36d)" style="fill: #1f77b4"/>
   </g>
   <g id="patch_94">
    <path d="M 378.101867 88.384455 
L 381.73743 88.384455 
L 381.73743 77.204771 
L 378.101867 77.204771 
z
" clip-path="url(#p4a2f33c36d)" style="fill: #1f77b4"/>
   </g>
   <g id="patch_95">
    <path d="M 381.73743 88.384455 
L 385.372994 88.384455 
L 385.372994 80.18602 
L 381.73743 80.18602 
z
" clip-path="url(#p4a2f33c36d)" style="fill: #1f77b4"/>
   </g>
   <g id="patch_96">
    <path d="M 385.372994 88.384455 
L 389.008558 88.384455 
L 389.008558 80.682895 
L 385.372994 80.682895 
z
" clip-path="url(#p4a2f33c36d)" style="fill: #1f77b4"/>
   </g>
   <g id="patch_97">
    <path d="M 389.008558 88.384455 
L 392.644122 88.384455 
L 392.644122 79.19227 
L 389.008558 79.19227 
z
" clip-path="url(#p4a2f33c36d)" style="fill: #1f77b4"/>
   </g>
   <g id="patch_98">
    <path d="M 392.644122 88.384455 
L 396.279686 88.384455 
L 396.279686 77.453208 
L 392.644122 77.453208 
z
" clip-path="url(#p4a2f33c36d)" style="fill: #1f77b4"/>
   </g>
   <g id="patch_99">
    <path d="M 396.279686 88.384455 
L 399.915249 88.384455 
L 399.915249 78.446958 
L 396.279686 78.446958 
z
" clip-path="url(#p4a2f33c36d)" style="fill: #1f77b4"/>
   </g>
   <g id="patch_100">
    <path d="M 399.915249 88.384455 
L 403.550813 88.384455 
L 403.550813 80.18602 
L 399.915249 80.18602 
z
" clip-path="url(#p4a2f33c36d)" style="fill: #1f77b4"/>
   </g>
   <g id="patch_101">
    <path d="M 403.550813 88.384455 
L 407.186377 88.384455 
L 407.186377 77.701646 
L 403.550813 77.701646 
z
" clip-path="url(#p4a2f33c36d)" style="fill: #1f77b4"/>
   </g>
   <g id="patch_102">
    <path d="M 407.186377 88.384455 
L 410.821941 88.384455 
L 410.821941 78.695395 
L 407.186377 78.695395 
z
" clip-path="url(#p4a2f33c36d)" style="fill: #1f77b4"/>
   </g>
   <g id="matplotlib.axis_1">
    <g id="xtick_1">
     <g id="line2d_1">
      <defs>
       <path id="mde3fdde557" d="M 0 0 
L 0 3.5 
" style="stroke: #000000; stroke-width: 0.8"/>
      </defs>
      <g>
       <use xlink:href="#mde3fdde557" x="43.57163" y="88.384455" style="stroke: #000000; stroke-width: 0.8"/>
      </g>
     </g>
     <g id="text_1">
      <!-- 0 -->
      <g transform="translate(40.39038 102.982892)scale(0.1 -0.1)">
       <defs>
        <path id="DejaVuSans-30" d="M 2034 4250 
Q 1547 4250 1301 3770 
Q 1056 3291 1056 2328 
Q 1056 1369 1301 889 
Q 1547 409 2034 409 
Q 2525 409 2770 889 
Q 3016 1369 3016 2328 
Q 3016 3291 2770 3770 
Q 2525 4250 2034 4250 
z
M 2034 4750 
Q 2819 4750 3233 4129 
Q 3647 3509 3647 2328 
Q 3647 1150 3233 529 
Q 2819 -91 2034 -91 
Q 1250 -91 836 529 
Q 422 1150 422 2328 
Q 422 3509 836 4129 
Q 1250 4750 2034 4750 
z
" transform="scale(0.015625)"/>
       </defs>
       <use xlink:href="#DejaVuSans-30"/>
      </g>
     </g>
    </g>
    <g id="xtick_2">
     <g id="line2d_2">
      <g>
       <use xlink:href="#mde3fdde557" x="117.02402" y="88.384455" style="stroke: #000000; stroke-width: 0.8"/>
      </g>
     </g>
     <g id="text_2">
      <!-- 1000 -->
      <g transform="translate(104.29902 102.982892)scale(0.1 -0.1)">
       <defs>
        <path id="DejaVuSans-31" d="M 794 531 
L 1825 531 
L 1825 4091 
L 703 3866 
L 703 4441 
L 1819 4666 
L 2450 4666 
L 2450 531 
L 3481 531 
L 3481 0 
L 794 0 
L 794 531 
z
" transform="scale(0.015625)"/>
       </defs>
       <use xlink:href="#DejaVuSans-31"/>
       <use xlink:href="#DejaVuSans-30" x="63.623047"/>
       <use xlink:href="#DejaVuSans-30" x="127.246094"/>
       <use xlink:href="#DejaVuSans-30" x="190.869141"/>
      </g>
     </g>
    </g>
    <g id="xtick_3">
     <g id="line2d_3">
      <g>
       <use xlink:href="#mde3fdde557" x="190.476409" y="88.384455" style="stroke: #000000; stroke-width: 0.8"/>
      </g>
     </g>
     <g id="text_3">
      <!-- 2000 -->
      <g transform="translate(177.751409 102.982892)scale(0.1 -0.1)">
       <defs>
        <path id="DejaVuSans-32" d="M 1228 531 
L 3431 531 
L 3431 0 
L 469 0 
L 469 531 
Q 828 903 1448 1529 
Q 2069 2156 2228 2338 
Q 2531 2678 2651 2914 
Q 2772 3150 2772 3378 
Q 2772 3750 2511 3984 
Q 2250 4219 1831 4219 
Q 1534 4219 1204 4116 
Q 875 4013 500 3803 
L 500 4441 
Q 881 4594 1212 4672 
Q 1544 4750 1819 4750 
Q 2544 4750 2975 4387 
Q 3406 4025 3406 3419 
Q 3406 3131 3298 2873 
Q 3191 2616 2906 2266 
Q 2828 2175 2409 1742 
Q 1991 1309 1228 531 
z
" transform="scale(0.015625)"/>
       </defs>
       <use xlink:href="#DejaVuSans-32"/>
       <use xlink:href="#DejaVuSans-30" x="63.623047"/>
       <use xlink:href="#DejaVuSans-30" x="127.246094"/>
       <use xlink:href="#DejaVuSans-30" x="190.869141"/>
      </g>
     </g>
    </g>
    <g id="xtick_4">
     <g id="line2d_4">
      <g>
       <use xlink:href="#mde3fdde557" x="263.928799" y="88.384455" style="stroke: #000000; stroke-width: 0.8"/>
      </g>
     </g>
     <g id="text_4">
      <!-- 3000 -->
      <g transform="translate(251.203799 102.982892)scale(0.1 -0.1)">
       <defs>
        <path id="DejaVuSans-33" d="M 2597 2516 
Q 3050 2419 3304 2112 
Q 3559 1806 3559 1356 
Q 3559 666 3084 287 
Q 2609 -91 1734 -91 
Q 1441 -91 1130 -33 
Q 819 25 488 141 
L 488 750 
Q 750 597 1062 519 
Q 1375 441 1716 441 
Q 2309 441 2620 675 
Q 2931 909 2931 1356 
Q 2931 1769 2642 2001 
Q 2353 2234 1838 2234 
L 1294 2234 
L 1294 2753 
L 1863 2753 
Q 2328 2753 2575 2939 
Q 2822 3125 2822 3475 
Q 2822 3834 2567 4026 
Q 2313 4219 1838 4219 
Q 1578 4219 1281 4162 
Q 984 4106 628 3988 
L 628 4550 
Q 988 4650 1302 4700 
Q 1616 4750 1894 4750 
Q 2613 4750 3031 4423 
Q 3450 4097 3450 3541 
Q 3450 3153 3228 2886 
Q 3006 2619 2597 2516 
z
" transform="scale(0.015625)"/>
       </defs>
       <use xlink:href="#DejaVuSans-33"/>
       <use xlink:href="#DejaVuSans-30" x="63.623047"/>
       <use xlink:href="#DejaVuSans-30" x="127.246094"/>
       <use xlink:href="#DejaVuSans-30" x="190.869141"/>
      </g>
     </g>
    </g>
    <g id="xtick_5">
     <g id="line2d_5">
      <g>
       <use xlink:href="#mde3fdde557" x="337.381189" y="88.384455" style="stroke: #000000; stroke-width: 0.8"/>
      </g>
     </g>
     <g id="text_5">
      <!-- 4000 -->
      <g transform="translate(324.656189 102.982892)scale(0.1 -0.1)">
       <defs>
        <path id="DejaVuSans-34" d="M 2419 4116 
L 825 1625 
L 2419 1625 
L 2419 4116 
z
M 2253 4666 
L 3047 4666 
L 3047 1625 
L 3713 1625 
L 3713 1100 
L 3047 1100 
L 3047 0 
L 2419 0 
L 2419 1100 
L 313 1100 
L 313 1709 
L 2253 4666 
z
" transform="scale(0.015625)"/>
       </defs>
       <use xlink:href="#DejaVuSans-34"/>
       <use xlink:href="#DejaVuSans-30" x="63.623047"/>
       <use xlink:href="#DejaVuSans-30" x="127.246094"/>
       <use xlink:href="#DejaVuSans-30" x="190.869141"/>
      </g>
     </g>
    </g>
    <g id="xtick_6">
     <g id="line2d_6">
      <g>
       <use xlink:href="#mde3fdde557" x="410.833579" y="88.384455" style="stroke: #000000; stroke-width: 0.8"/>
      </g>
     </g>
     <g id="text_6">
      <!-- 5000 -->
      <g transform="translate(398.108579 102.982892)scale(0.1 -0.1)">
       <defs>
        <path id="DejaVuSans-35" d="M 691 4666 
L 3169 4666 
L 3169 4134 
L 1269 4134 
L 1269 2991 
Q 1406 3038 1543 3061 
Q 1681 3084 1819 3084 
Q 2600 3084 3056 2656 
Q 3513 2228 3513 1497 
Q 3513 744 3044 326 
Q 2575 -91 1722 -91 
Q 1428 -91 1123 -41 
Q 819 9 494 109 
L 494 744 
Q 775 591 1075 516 
Q 1375 441 1709 441 
Q 2250 441 2565 725 
Q 2881 1009 2881 1497 
Q 2881 1984 2565 2268 
Q 2250 2553 1709 2553 
Q 1456 2553 1204 2497 
Q 953 2441 691 2322 
L 691 4666 
z
" transform="scale(0.015625)"/>
       </defs>
       <use xlink:href="#DejaVuSans-35"/>
       <use xlink:href="#DejaVuSans-30" x="63.623047"/>
       <use xlink:href="#DejaVuSans-30" x="127.246094"/>
       <use xlink:href="#DejaVuSans-30" x="190.869141"/>
      </g>
     </g>
    </g>
   </g>
   <g id="matplotlib.axis_2">
    <g id="ytick_1">
     <g id="line2d_7">
      <defs>
       <path id="m4b17c672d6" d="M 0 0 
L -3.5 0 
" style="stroke: #000000; stroke-width: 0.8"/>
      </defs>
      <g>
       <use xlink:href="#m4b17c672d6" x="29.08774" y="88.384455" style="stroke: #000000; stroke-width: 0.8"/>
      </g>
     </g>
     <g id="text_7">
      <!-- 0 -->
      <g transform="translate(15.72524 92.183674)scale(0.1 -0.1)">
       <use xlink:href="#DejaVuSans-30"/>
      </g>
     </g>
    </g>
    <g id="ytick_2">
     <g id="line2d_8">
      <g>
       <use xlink:href="#m4b17c672d6" x="29.08774" y="38.696969" style="stroke: #000000; stroke-width: 0.8"/>
      </g>
     </g>
     <g id="text_8">
      <!-- 200 -->
      <g transform="translate(3.00024 42.496188)scale(0.1 -0.1)">
       <use xlink:href="#DejaVuSans-32"/>
       <use xlink:href="#DejaVuSans-30" x="63.623047"/>
       <use xlink:href="#DejaVuSans-30" x="127.246094"/>
      </g>
     </g>
    </g>
   </g>
   <g id="patch_103">
    <path d="M 29.08774 88.384455 
L 29.08774 36.212595 
" style="fill: none; stroke: #000000; stroke-width: 0.8; stroke-linejoin: miter; stroke-linecap: square"/>
   </g>
   <g id="patch_104">
    <path d="M 428.99976 88.384455 
L 428.99976 36.212595 
" style="fill: none; stroke: #000000; stroke-width: 0.8; stroke-linejoin: miter; stroke-linecap: square"/>
   </g>
   <g id="patch_105">
    <path d="M 29.08774 88.384455 
L 428.99976 88.384455 
" style="fill: none; stroke: #000000; stroke-width: 0.8; stroke-linejoin: miter; stroke-linecap: square"/>
   </g>
   <g id="patch_106">
    <path d="M 29.08774 36.212595 
L 428.99976 36.212595 
" style="fill: none; stroke: #000000; stroke-width: 0.8; stroke-linejoin: miter; stroke-linecap: square"/>
   </g>
   <g id="text_9">
    <!-- $M_1$ -->
    <g transform="translate(221.00375 30.212595)scale(0.12 -0.12)">
     <defs>
      <path id="DejaVuSans-Oblique-4d" d="M 1081 4666 
L 2028 4666 
L 2572 1522 
L 4378 4666 
L 5350 4666 
L 4441 0 
L 3828 0 
L 4622 4091 
L 2791 897 
L 2175 897 
L 1581 4103 
L 788 0 
L 172 0 
L 1081 4666 
z
" transform="scale(0.015625)"/>
     </defs>
     <use xlink:href="#DejaVuSans-Oblique-4d" transform="translate(0 0.09375)"/>
     <use xlink:href="#DejaVuSans-31" transform="translate(86.279297 -16.3125)scale(0.7)"/>
    </g>
   </g>
  </g>
  <g id="axes_2">
   <g id="patch_107">
    <path d="M 29.08774 178.353045 
L 428.99976 178.353045 
L 428.99976 126.181185 
L 29.08774 126.181185 
z
" style="fill: #ffffff"/>
   </g>
   <g id="patch_108">
    <path d="M 47.265559 178.353045 
L 50.901123 178.353045 
L 50.901123 129.907746 
L 47.265559 129.907746 
z
" clip-path="url(#pa394db4651)" style="fill: #1f77b4"/>
   </g>
   <g id="patch_109">
    <path d="M 50.901123 178.353045 
L 54.536687 178.353045 
L 54.536687 128.665559 
L 50.901123 128.665559 
z
" clip-path="url(#pa394db4651)" style="fill: #1f77b4"/>
   </g>
   <g id="patch_110">
    <path d="M 54.536687 178.353045 
L 58.172251 178.353045 
L 58.172251 132.392121 
L 54.536687 132.392121 
z
" clip-path="url(#pa394db4651)" style="fill: #1f77b4"/>
   </g>
   <g id="patch_111">
    <path d="M 58.172251 178.353045 
L 61.807814 178.353045 
L 61.807814 134.876495 
L 58.172251 134.876495 
z
" clip-path="url(#pa394db4651)" style="fill: #1f77b4"/>
   </g>
   <g id="patch_112">
    <path d="M 61.807814 178.353045 
L 65.443378 178.353045 
L 65.443378 135.621807 
L 61.807814 135.621807 
z
" clip-path="url(#pa394db4651)" style="fill: #1f77b4"/>
   </g>
   <g id="patch_113">
    <path d="M 65.443378 178.353045 
L 69.078942 178.353045 
L 69.078942 141.335868 
L 65.443378 141.335868 
z
" clip-path="url(#pa394db4651)" style="fill: #1f77b4"/>
   </g>
   <g id="patch_114">
    <path d="M 69.078942 178.353045 
L 72.714506 178.353045 
L 72.714506 142.826493 
L 69.078942 142.826493 
z
" clip-path="url(#pa394db4651)" style="fill: #1f77b4"/>
   </g>
   <g id="patch_115">
    <path d="M 72.714506 178.353045 
L 76.35007 178.353045 
L 76.35007 142.08118 
L 72.714506 142.08118 
z
" clip-path="url(#pa394db4651)" style="fill: #1f77b4"/>
   </g>
   <g id="patch_116">
    <path d="M 76.35007 178.353045 
L 79.985633 178.353045 
L 79.985633 140.590556 
L 76.35007 140.590556 
z
" clip-path="url(#pa394db4651)" style="fill: #1f77b4"/>
   </g>
   <g id="patch_117">
    <path d="M 79.985633 178.353045 
L 83.621197 178.353045 
L 83.621197 146.304617 
L 79.985633 146.304617 
z
" clip-path="url(#pa394db4651)" style="fill: #1f77b4"/>
   </g>
   <g id="patch_118">
    <path d="M 83.621197 178.353045 
L 87.256761 178.353045 
L 87.256761 146.304617 
L 83.621197 146.304617 
z
" clip-path="url(#pa394db4651)" style="fill: #1f77b4"/>
   </g>
   <g id="patch_119">
    <path d="M 87.256761 178.353045 
L 90.892325 178.353045 
L 90.892325 147.546804 
L 87.256761 147.546804 
z
" clip-path="url(#pa394db4651)" style="fill: #1f77b4"/>
   </g>
   <g id="patch_120">
    <path d="M 90.892325 178.353045 
L 94.527889 178.353045 
L 94.527889 152.515552 
L 90.892325 152.515552 
z
" clip-path="url(#pa394db4651)" style="fill: #1f77b4"/>
   </g>
   <g id="patch_121">
    <path d="M 94.527889 178.353045 
L 98.163453 178.353045 
L 98.163453 155.496802 
L 94.527889 155.496802 
z
" clip-path="url(#pa394db4651)" style="fill: #1f77b4"/>
   </g>
   <g id="patch_122">
    <path d="M 98.163453 178.353045 
L 101.799016 178.353045 
L 101.799016 157.235864 
L 98.163453 157.235864 
z
" clip-path="url(#pa394db4651)" style="fill: #1f77b4"/>
   </g>
   <g id="patch_123">
    <path d="M 101.799016 178.353045 
L 105.43458 178.353045 
L 105.43458 156.242114 
L 101.799016 156.242114 
z
" clip-path="url(#pa394db4651)" style="fill: #1f77b4"/>
   </g>
   <g id="patch_124">
    <path d="M 105.43458 178.353045 
L 109.070144 178.353045 
L 109.070144 159.720238 
L 105.43458 159.720238 
z
" clip-path="url(#pa394db4651)" style="fill: #1f77b4"/>
   </g>
   <g id="patch_125">
    <path d="M 109.070144 178.353045 
L 112.705708 178.353045 
L 112.705708 161.707737 
L 109.070144 161.707737 
z
" clip-path="url(#pa394db4651)" style="fill: #1f77b4"/>
   </g>
   <g id="patch_126">
    <path d="M 112.705708 178.353045 
L 116.341272 178.353045 
L 116.341272 157.732738 
L 112.705708 157.732738 
z
" clip-path="url(#pa394db4651)" style="fill: #1f77b4"/>
   </g>
   <g id="patch_127">
    <path d="M 116.341272 178.353045 
L 119.976835 178.353045 
L 119.976835 166.428048 
L 116.341272 166.428048 
z
" clip-path="url(#pa394db4651)" style="fill: #1f77b4"/>
   </g>
   <g id="patch_128">
    <path d="M 119.976835 178.353045 
L 123.612399 178.353045 
L 123.612399 163.446799 
L 119.976835 163.446799 
z
" clip-path="url(#pa394db4651)" style="fill: #1f77b4"/>
   </g>
   <g id="patch_129">
    <path d="M 123.612399 178.353045 
L 127.247963 178.353045 
L 127.247963 161.4593 
L 123.612399 161.4593 
z
" clip-path="url(#pa394db4651)" style="fill: #1f77b4"/>
   </g>
   <g id="patch_130">
    <path d="M 127.247963 178.353045 
L 130.883527 178.353045 
L 130.883527 162.701487 
L 127.247963 162.701487 
z
" clip-path="url(#pa394db4651)" style="fill: #1f77b4"/>
   </g>
   <g id="patch_131">
    <path d="M 130.883527 178.353045 
L 134.519091 178.353045 
L 134.519091 162.45305 
L 130.883527 162.45305 
z
" clip-path="url(#pa394db4651)" style="fill: #1f77b4"/>
   </g>
   <g id="patch_132">
    <path d="M 134.519091 178.353045 
L 138.154655 178.353045 
L 138.154655 161.707737 
L 134.519091 161.707737 
z
" clip-path="url(#pa394db4651)" style="fill: #1f77b4"/>
   </g>
   <g id="patch_133">
    <path d="M 138.154655 178.353045 
L 141.790218 178.353045 
L 141.790218 165.434299 
L 138.154655 165.434299 
z
" clip-path="url(#pa394db4651)" style="fill: #1f77b4"/>
   </g>
   <g id="patch_134">
    <path d="M 141.790218 178.353045 
L 145.425782 178.353045 
L 145.425782 168.16711 
L 141.790218 168.16711 
z
" clip-path="url(#pa394db4651)" style="fill: #1f77b4"/>
   </g>
   <g id="patch_135">
    <path d="M 145.425782 178.353045 
L 149.061346 178.353045 
L 149.061346 166.676486 
L 145.425782 166.676486 
z
" clip-path="url(#pa394db4651)" style="fill: #1f77b4"/>
   </g>
   <g id="patch_136">
    <path d="M 149.061346 178.353045 
L 152.69691 178.353045 
L 152.69691 168.16711 
L 149.061346 168.16711 
z
" clip-path="url(#pa394db4651)" style="fill: #1f77b4"/>
   </g>
   <g id="patch_137">
    <path d="M 152.69691 178.353045 
L 156.332474 178.353045 
L 156.332474 164.440549 
L 152.69691 164.440549 
z
" clip-path="url(#pa394db4651)" style="fill: #1f77b4"/>
   </g>
   <g id="patch_138">
    <path d="M 156.332474 178.353045 
L 159.968037 178.353045 
L 159.968037 167.421798 
L 156.332474 167.421798 
z
" clip-path="url(#pa394db4651)" style="fill: #1f77b4"/>
   </g>
   <g id="patch_139">
    <path d="M 159.968037 178.353045 
L 163.603601 178.353045 
L 163.603601 168.415548 
L 159.968037 168.415548 
z
" clip-path="url(#pa394db4651)" style="fill: #1f77b4"/>
   </g>
   <g id="patch_140">
    <path d="M 163.603601 178.353045 
L 167.239165 178.353045 
L 167.239165 166.428048 
L 163.603601 166.428048 
z
" clip-path="url(#pa394db4651)" style="fill: #1f77b4"/>
   </g>
   <g id="patch_141">
    <path d="M 167.239165 178.353045 
L 170.874729 178.353045 
L 170.874729 168.16711 
L 167.239165 168.16711 
z
" clip-path="url(#pa394db4651)" style="fill: #1f77b4"/>
   </g>
   <g id="patch_142">
    <path d="M 170.874729 178.353045 
L 174.510293 178.353045 
L 174.510293 168.912423 
L 170.874729 168.912423 
z
" clip-path="url(#pa394db4651)" style="fill: #1f77b4"/>
   </g>
   <g id="patch_143">
    <path d="M 174.510293 178.353045 
L 178.145857 178.353045 
L 178.145857 167.421798 
L 174.510293 167.421798 
z
" clip-path="url(#pa394db4651)" style="fill: #1f77b4"/>
   </g>
   <g id="patch_144">
    <path d="M 178.145857 178.353045 
L 181.78142 178.353045 
L 181.78142 170.651485 
L 178.145857 170.651485 
z
" clip-path="url(#pa394db4651)" style="fill: #1f77b4"/>
   </g>
   <g id="patch_145">
    <path d="M 181.78142 178.353045 
L 185.416984 178.353045 
L 185.416984 168.16711 
L 181.78142 168.16711 
z
" clip-path="url(#pa394db4651)" style="fill: #1f77b4"/>
   </g>
   <g id="patch_146">
    <path d="M 185.416984 178.353045 
L 189.052548 178.353045 
L 189.052548 165.682736 
L 185.416984 165.682736 
z
" clip-path="url(#pa394db4651)" style="fill: #1f77b4"/>
   </g>
   <g id="patch_147">
    <path d="M 189.052548 178.353045 
L 192.688112 178.353045 
L 192.688112 167.173361 
L 189.052548 167.173361 
z
" clip-path="url(#pa394db4651)" style="fill: #1f77b4"/>
   </g>
   <g id="patch_148">
    <path d="M 192.688112 178.353045 
L 196.323676 178.353045 
L 196.323676 166.428048 
L 192.688112 166.428048 
z
" clip-path="url(#pa394db4651)" style="fill: #1f77b4"/>
   </g>
   <g id="patch_149">
    <path d="M 196.323676 178.353045 
L 199.959239 178.353045 
L 199.959239 167.918673 
L 196.323676 167.918673 
z
" clip-path="url(#pa394db4651)" style="fill: #1f77b4"/>
   </g>
   <g id="patch_150">
    <path d="M 199.959239 178.353045 
L 203.594803 178.353045 
L 203.594803 169.906172 
L 199.959239 169.906172 
z
" clip-path="url(#pa394db4651)" style="fill: #1f77b4"/>
   </g>
   <g id="patch_151">
    <path d="M 203.594803 178.353045 
L 207.230367 178.353045 
L 207.230367 166.924923 
L 203.594803 166.924923 
z
" clip-path="url(#pa394db4651)" style="fill: #1f77b4"/>
   </g>
   <g id="patch_152">
    <path d="M 207.230367 178.353045 
L 210.865931 178.353045 
L 210.865931 169.409298 
L 207.230367 169.409298 
z
" clip-path="url(#pa394db4651)" style="fill: #1f77b4"/>
   </g>
   <g id="patch_153">
    <path d="M 210.865931 178.353045 
L 214.501495 178.353045 
L 214.501495 170.15461 
L 210.865931 170.15461 
z
" clip-path="url(#pa394db4651)" style="fill: #1f77b4"/>
   </g>
   <g id="patch_154">
    <path d="M 214.501495 178.353045 
L 218.137059 178.353045 
L 218.137059 168.912423 
L 214.501495 168.912423 
z
" clip-path="url(#pa394db4651)" style="fill: #1f77b4"/>
   </g>
   <g id="patch_155">
    <path d="M 218.137059 178.353045 
L 221.772622 178.353045 
L 221.772622 169.657735 
L 218.137059 169.657735 
z
" clip-path="url(#pa394db4651)" style="fill: #1f77b4"/>
   </g>
   <g id="patch_156">
    <path d="M 221.772622 178.353045 
L 225.408186 178.353045 
L 225.408186 166.676486 
L 221.772622 166.676486 
z
" clip-path="url(#pa394db4651)" style="fill: #1f77b4"/>
   </g>
   <g id="patch_157">
    <path d="M 225.408186 178.353045 
L 229.04375 178.353045 
L 229.04375 171.14836 
L 225.408186 171.14836 
z
" clip-path="url(#pa394db4651)" style="fill: #1f77b4"/>
   </g>
   <g id="patch_158">
    <path d="M 229.04375 178.353045 
L 232.679314 178.353045 
L 232.679314 170.15461 
L 229.04375 170.15461 
z
" clip-path="url(#pa394db4651)" style="fill: #1f77b4"/>
   </g>
   <g id="patch_159">
    <path d="M 232.679314 178.353045 
L 236.314878 178.353045 
L 236.314878 167.670236 
L 232.679314 167.670236 
z
" clip-path="url(#pa394db4651)" style="fill: #1f77b4"/>
   </g>
   <g id="patch_160">
    <path d="M 236.314878 178.353045 
L 239.950441 178.353045 
L 239.950441 168.415548 
L 236.314878 168.415548 
z
" clip-path="url(#pa394db4651)" style="fill: #1f77b4"/>
   </g>
   <g id="patch_161">
    <path d="M 239.950441 178.353045 
L 243.586005 178.353045 
L 243.586005 166.924923 
L 239.950441 166.924923 
z
" clip-path="url(#pa394db4651)" style="fill: #1f77b4"/>
   </g>
   <g id="patch_162">
    <path d="M 243.586005 178.353045 
L 247.221569 178.353045 
L 247.221569 167.670236 
L 243.586005 167.670236 
z
" clip-path="url(#pa394db4651)" style="fill: #1f77b4"/>
   </g>
   <g id="patch_163">
    <path d="M 247.221569 178.353045 
L 250.857133 178.353045 
L 250.857133 169.657735 
L 247.221569 169.657735 
z
" clip-path="url(#pa394db4651)" style="fill: #1f77b4"/>
   </g>
   <g id="patch_164">
    <path d="M 250.857133 178.353045 
L 254.492697 178.353045 
L 254.492697 169.16086 
L 250.857133 169.16086 
z
" clip-path="url(#pa394db4651)" style="fill: #1f77b4"/>
   </g>
   <g id="patch_165">
    <path d="M 254.492697 178.353045 
L 258.128261 178.353045 
L 258.128261 169.657735 
L 254.492697 169.657735 
z
" clip-path="url(#pa394db4651)" style="fill: #1f77b4"/>
   </g>
   <g id="patch_166">
    <path d="M 258.128261 178.353045 
L 261.763824 178.353045 
L 261.763824 167.918673 
L 258.128261 167.918673 
z
" clip-path="url(#pa394db4651)" style="fill: #1f77b4"/>
   </g>
   <g id="patch_167">
    <path d="M 261.763824 178.353045 
L 265.399388 178.353045 
L 265.399388 171.396797 
L 261.763824 171.396797 
z
" clip-path="url(#pa394db4651)" style="fill: #1f77b4"/>
   </g>
   <g id="patch_168">
    <path d="M 265.399388 178.353045 
L 269.034952 178.353045 
L 269.034952 168.912423 
L 265.399388 168.912423 
z
" clip-path="url(#pa394db4651)" style="fill: #1f77b4"/>
   </g>
   <g id="patch_169">
    <path d="M 269.034952 178.353045 
L 272.670516 178.353045 
L 272.670516 168.663985 
L 269.034952 168.663985 
z
" clip-path="url(#pa394db4651)" style="fill: #1f77b4"/>
   </g>
   <g id="patch_170">
    <path d="M 272.670516 178.353045 
L 276.30608 178.353045 
L 276.30608 167.421798 
L 272.670516 167.421798 
z
" clip-path="url(#pa394db4651)" style="fill: #1f77b4"/>
   </g>
   <g id="patch_171">
    <path d="M 276.30608 178.353045 
L 279.941643 178.353045 
L 279.941643 168.663985 
L 276.30608 168.663985 
z
" clip-path="url(#pa394db4651)" style="fill: #1f77b4"/>
   </g>
   <g id="patch_172">
    <path d="M 279.941643 178.353045 
L 283.577207 178.353045 
L 283.577207 169.657735 
L 279.941643 169.657735 
z
" clip-path="url(#pa394db4651)" style="fill: #1f77b4"/>
   </g>
   <g id="patch_173">
    <path d="M 283.577207 178.353045 
L 287.212771 178.353045 
L 287.212771 166.676486 
L 283.577207 166.676486 
z
" clip-path="url(#pa394db4651)" style="fill: #1f77b4"/>
   </g>
   <g id="patch_174">
    <path d="M 287.212771 178.353045 
L 290.848335 178.353045 
L 290.848335 169.409298 
L 287.212771 169.409298 
z
" clip-path="url(#pa394db4651)" style="fill: #1f77b4"/>
   </g>
   <g id="patch_175">
    <path d="M 290.848335 178.353045 
L 294.483899 178.353045 
L 294.483899 169.657735 
L 290.848335 169.657735 
z
" clip-path="url(#pa394db4651)" style="fill: #1f77b4"/>
   </g>
   <g id="patch_176">
    <path d="M 294.483899 178.353045 
L 298.119463 178.353045 
L 298.119463 170.15461 
L 294.483899 170.15461 
z
" clip-path="url(#pa394db4651)" style="fill: #1f77b4"/>
   </g>
   <g id="patch_177">
    <path d="M 298.119463 178.353045 
L 301.755026 178.353045 
L 301.755026 167.918673 
L 298.119463 167.918673 
z
" clip-path="url(#pa394db4651)" style="fill: #1f77b4"/>
   </g>
   <g id="patch_178">
    <path d="M 301.755026 178.353045 
L 305.39059 178.353045 
L 305.39059 169.409298 
L 301.755026 169.409298 
z
" clip-path="url(#pa394db4651)" style="fill: #1f77b4"/>
   </g>
   <g id="patch_179">
    <path d="M 305.39059 178.353045 
L 309.026154 178.353045 
L 309.026154 170.651485 
L 305.39059 170.651485 
z
" clip-path="url(#pa394db4651)" style="fill: #1f77b4"/>
   </g>
   <g id="patch_180">
    <path d="M 309.026154 178.353045 
L 312.661718 178.353045 
L 312.661718 168.912423 
L 309.026154 168.912423 
z
" clip-path="url(#pa394db4651)" style="fill: #1f77b4"/>
   </g>
   <g id="patch_181">
    <path d="M 312.661718 178.353045 
L 316.297282 178.353045 
L 316.297282 168.912423 
L 312.661718 168.912423 
z
" clip-path="url(#pa394db4651)" style="fill: #1f77b4"/>
   </g>
   <g id="patch_182">
    <path d="M 316.297282 178.353045 
L 319.932845 178.353045 
L 319.932845 170.403047 
L 316.297282 170.403047 
z
" clip-path="url(#pa394db4651)" style="fill: #1f77b4"/>
   </g>
   <g id="patch_183">
    <path d="M 319.932845 178.353045 
L 323.568409 178.353045 
L 323.568409 167.670236 
L 319.932845 167.670236 
z
" clip-path="url(#pa394db4651)" style="fill: #1f77b4"/>
   </g>
   <g id="patch_184">
    <path d="M 323.568409 178.353045 
L 327.203973 178.353045 
L 327.203973 166.924923 
L 323.568409 166.924923 
z
" clip-path="url(#pa394db4651)" style="fill: #1f77b4"/>
   </g>
   <g id="patch_185">
    <path d="M 327.203973 178.353045 
L 330.839537 178.353045 
L 330.839537 168.415548 
L 327.203973 168.415548 
z
" clip-path="url(#pa394db4651)" style="fill: #1f77b4"/>
   </g>
   <g id="patch_186">
    <path d="M 330.839537 178.353045 
L 334.475101 178.353045 
L 334.475101 168.663985 
L 330.839537 168.663985 
z
" clip-path="url(#pa394db4651)" style="fill: #1f77b4"/>
   </g>
   <g id="patch_187">
    <path d="M 334.475101 178.353045 
L 338.110665 178.353045 
L 338.110665 168.912423 
L 334.475101 168.912423 
z
" clip-path="url(#pa394db4651)" style="fill: #1f77b4"/>
   </g>
   <g id="patch_188">
    <path d="M 338.110665 178.353045 
L 341.746228 178.353045 
L 341.746228 171.14836 
L 338.110665 171.14836 
z
" clip-path="url(#pa394db4651)" style="fill: #1f77b4"/>
   </g>
   <g id="patch_189">
    <path d="M 341.746228 178.353045 
L 345.381792 178.353045 
L 345.381792 170.15461 
L 341.746228 170.15461 
z
" clip-path="url(#pa394db4651)" style="fill: #1f77b4"/>
   </g>
   <g id="patch_190">
    <path d="M 345.381792 178.353045 
L 349.017356 178.353045 
L 349.017356 170.15461 
L 345.381792 170.15461 
z
" clip-path="url(#pa394db4651)" style="fill: #1f77b4"/>
   </g>
   <g id="patch_191">
    <path d="M 349.017356 178.353045 
L 352.65292 178.353045 
L 352.65292 170.899922 
L 349.017356 170.899922 
z
" clip-path="url(#pa394db4651)" style="fill: #1f77b4"/>
   </g>
   <g id="patch_192">
    <path d="M 352.65292 178.353045 
L 356.288484 178.353045 
L 356.288484 172.887422 
L 352.65292 172.887422 
z
" clip-path="url(#pa394db4651)" style="fill: #1f77b4"/>
   </g>
   <g id="patch_193">
    <path d="M 356.288484 178.353045 
L 359.924047 178.353045 
L 359.924047 171.396797 
L 356.288484 171.396797 
z
" clip-path="url(#pa394db4651)" style="fill: #1f77b4"/>
   </g>
   <g id="patch_194">
    <path d="M 359.924047 178.353045 
L 363.559611 178.353045 
L 363.559611 169.409298 
L 359.924047 169.409298 
z
" clip-path="url(#pa394db4651)" style="fill: #1f77b4"/>
   </g>
   <g id="patch_195">
    <path d="M 363.559611 178.353045 
L 367.195175 178.353045 
L 367.195175 171.14836 
L 363.559611 171.14836 
z
" clip-path="url(#pa394db4651)" style="fill: #1f77b4"/>
   </g>
   <g id="patch_196">
    <path d="M 367.195175 178.353045 
L 370.830739 178.353045 
L 370.830739 171.396797 
L 367.195175 171.396797 
z
" clip-path="url(#pa394db4651)" style="fill: #1f77b4"/>
   </g>
   <g id="patch_197">
    <path d="M 370.830739 178.353045 
L 374.466303 178.353045 
L 374.466303 167.670236 
L 370.830739 167.670236 
z
" clip-path="url(#pa394db4651)" style="fill: #1f77b4"/>
   </g>
   <g id="patch_198">
    <path d="M 374.466303 178.353045 
L 378.101867 178.353045 
L 378.101867 169.657735 
L 374.466303 169.657735 
z
" clip-path="url(#pa394db4651)" style="fill: #1f77b4"/>
   </g>
   <g id="patch_199">
    <path d="M 378.101867 178.353045 
L 381.73743 178.353045 
L 381.73743 169.16086 
L 378.101867 169.16086 
z
" clip-path="url(#pa394db4651)" style="fill: #1f77b4"/>
   </g>
   <g id="patch_200">
    <path d="M 381.73743 178.353045 
L 385.372994 178.353045 
L 385.372994 165.434299 
L 381.73743 165.434299 
z
" clip-path="url(#pa394db4651)" style="fill: #1f77b4"/>
   </g>
   <g id="patch_201">
    <path d="M 385.372994 178.353045 
L 389.008558 178.353045 
L 389.008558 166.179611 
L 385.372994 166.179611 
z
" clip-path="url(#pa394db4651)" style="fill: #1f77b4"/>
   </g>
   <g id="patch_202">
    <path d="M 389.008558 178.353045 
L 392.644122 178.353045 
L 392.644122 171.14836 
L 389.008558 171.14836 
z
" clip-path="url(#pa394db4651)" style="fill: #1f77b4"/>
   </g>
   <g id="patch_203">
    <path d="M 392.644122 178.353045 
L 396.279686 178.353045 
L 396.279686 167.421798 
L 392.644122 167.421798 
z
" clip-path="url(#pa394db4651)" style="fill: #1f77b4"/>
   </g>
   <g id="patch_204">
    <path d="M 396.279686 178.353045 
L 399.915249 178.353045 
L 399.915249 168.415548 
L 396.279686 168.415548 
z
" clip-path="url(#pa394db4651)" style="fill: #1f77b4"/>
   </g>
   <g id="patch_205">
    <path d="M 399.915249 178.353045 
L 403.550813 178.353045 
L 403.550813 169.906172 
L 399.915249 169.906172 
z
" clip-path="url(#pa394db4651)" style="fill: #1f77b4"/>
   </g>
   <g id="patch_206">
    <path d="M 403.550813 178.353045 
L 407.186377 178.353045 
L 407.186377 171.396797 
L 403.550813 171.396797 
z
" clip-path="url(#pa394db4651)" style="fill: #1f77b4"/>
   </g>
   <g id="patch_207">
    <path d="M 407.186377 178.353045 
L 410.821941 178.353045 
L 410.821941 166.676486 
L 407.186377 166.676486 
z
" clip-path="url(#pa394db4651)" style="fill: #1f77b4"/>
   </g>
   <g id="matplotlib.axis_3">
    <g id="xtick_7">
     <g id="line2d_9">
      <g>
       <use xlink:href="#mde3fdde557" x="43.58003" y="178.353045" style="stroke: #000000; stroke-width: 0.8"/>
      </g>
     </g>
     <g id="text_10">
      <!-- 0 -->
      <g transform="translate(40.39878 192.951482)scale(0.1 -0.1)">
       <use xlink:href="#DejaVuSans-30"/>
      </g>
     </g>
    </g>
    <g id="xtick_8">
     <g id="line2d_10">
      <g>
       <use xlink:href="#mde3fdde557" x="117.054577" y="178.353045" style="stroke: #000000; stroke-width: 0.8"/>
      </g>
     </g>
     <g id="text_11">
      <!-- 1000 -->
      <g transform="translate(104.329577 192.951482)scale(0.1 -0.1)">
       <use xlink:href="#DejaVuSans-31"/>
       <use xlink:href="#DejaVuSans-30" x="63.623047"/>
       <use xlink:href="#DejaVuSans-30" x="127.246094"/>
       <use xlink:href="#DejaVuSans-30" x="190.869141"/>
      </g>
     </g>
    </g>
    <g id="xtick_9">
     <g id="line2d_11">
      <g>
       <use xlink:href="#mde3fdde557" x="190.529125" y="178.353045" style="stroke: #000000; stroke-width: 0.8"/>
      </g>
     </g>
     <g id="text_12">
      <!-- 2000 -->
      <g transform="translate(177.804125 192.951482)scale(0.1 -0.1)">
       <use xlink:href="#DejaVuSans-32"/>
       <use xlink:href="#DejaVuSans-30" x="63.623047"/>
       <use xlink:href="#DejaVuSans-30" x="127.246094"/>
       <use xlink:href="#DejaVuSans-30" x="190.869141"/>
      </g>
     </g>
    </g>
    <g id="xtick_10">
     <g id="line2d_12">
      <g>
       <use xlink:href="#mde3fdde557" x="264.003673" y="178.353045" style="stroke: #000000; stroke-width: 0.8"/>
      </g>
     </g>
     <g id="text_13">
      <!-- 3000 -->
      <g transform="translate(251.278673 192.951482)scale(0.1 -0.1)">
       <use xlink:href="#DejaVuSans-33"/>
       <use xlink:href="#DejaVuSans-30" x="63.623047"/>
       <use xlink:href="#DejaVuSans-30" x="127.246094"/>
       <use xlink:href="#DejaVuSans-30" x="190.869141"/>
      </g>
     </g>
    </g>
    <g id="xtick_11">
     <g id="line2d_13">
      <g>
       <use xlink:href="#mde3fdde557" x="337.47822" y="178.353045" style="stroke: #000000; stroke-width: 0.8"/>
      </g>
     </g>
     <g id="text_14">
      <!-- 4000 -->
      <g transform="translate(324.75322 192.951482)scale(0.1 -0.1)">
       <use xlink:href="#DejaVuSans-34"/>
       <use xlink:href="#DejaVuSans-30" x="63.623047"/>
       <use xlink:href="#DejaVuSans-30" x="127.246094"/>
       <use xlink:href="#DejaVuSans-30" x="190.869141"/>
      </g>
     </g>
    </g>
    <g id="xtick_12">
     <g id="line2d_14">
      <g>
       <use xlink:href="#mde3fdde557" x="410.952768" y="178.353045" style="stroke: #000000; stroke-width: 0.8"/>
      </g>
     </g>
     <g id="text_15">
      <!-- 5000 -->
      <g transform="translate(398.227768 192.951482)scale(0.1 -0.1)">
       <use xlink:href="#DejaVuSans-35"/>
       <use xlink:href="#DejaVuSans-30" x="63.623047"/>
       <use xlink:href="#DejaVuSans-30" x="127.246094"/>
       <use xlink:href="#DejaVuSans-30" x="190.869141"/>
      </g>
     </g>
    </g>
   </g>
   <g id="matplotlib.axis_4">
    <g id="ytick_3">
     <g id="line2d_15">
      <g>
       <use xlink:href="#m4b17c672d6" x="29.08774" y="178.353045" style="stroke: #000000; stroke-width: 0.8"/>
      </g>
     </g>
     <g id="text_16">
      <!-- 0 -->
      <g transform="translate(15.72524 182.152264)scale(0.1 -0.1)">
       <use xlink:href="#DejaVuSans-30"/>
      </g>
     </g>
    </g>
    <g id="ytick_4">
     <g id="line2d_16">
      <g>
       <use xlink:href="#m4b17c672d6" x="29.08774" y="128.665559" style="stroke: #000000; stroke-width: 0.8"/>
      </g>
     </g>
     <g id="text_17">
      <!-- 200 -->
      <g transform="translate(3.00024 132.464778)scale(0.1 -0.1)">
       <use xlink:href="#DejaVuSans-32"/>
       <use xlink:href="#DejaVuSans-30" x="63.623047"/>
       <use xlink:href="#DejaVuSans-30" x="127.246094"/>
      </g>
     </g>
    </g>
   </g>
   <g id="patch_208">
    <path d="M 29.08774 178.353045 
L 29.08774 126.181185 
" style="fill: none; stroke: #000000; stroke-width: 0.8; stroke-linejoin: miter; stroke-linecap: square"/>
   </g>
   <g id="patch_209">
    <path d="M 428.99976 178.353045 
L 428.99976 126.181185 
" style="fill: none; stroke: #000000; stroke-width: 0.8; stroke-linejoin: miter; stroke-linecap: square"/>
   </g>
   <g id="patch_210">
    <path d="M 29.08774 178.353045 
L 428.99976 178.353045 
" style="fill: none; stroke: #000000; stroke-width: 0.8; stroke-linejoin: miter; stroke-linecap: square"/>
   </g>
   <g id="patch_211">
    <path d="M 29.08774 126.181185 
L 428.99976 126.181185 
" style="fill: none; stroke: #000000; stroke-width: 0.8; stroke-linejoin: miter; stroke-linecap: square"/>
   </g>
   <g id="text_18">
    <!-- $M_2$ -->
    <g transform="translate(221.00375 120.181185)scale(0.12 -0.12)">
     <use xlink:href="#DejaVuSans-Oblique-4d" transform="translate(0 0.09375)"/>
     <use xlink:href="#DejaVuSans-32" transform="translate(86.279297 -16.3125)scale(0.7)"/>
    </g>
   </g>
  </g>
  <g id="axes_3">
   <g id="patch_212">
    <path d="M 29.08774 268.321635 
L 428.99976 268.321635 
L 428.99976 216.149775 
L 29.08774 216.149775 
z
" style="fill: #ffffff"/>
   </g>
   <g id="patch_213">
    <path d="M 47.265559 268.321635 
L 50.901123 268.321635 
L 50.901123 268.073198 
L 47.265559 268.073198 
z
" clip-path="url(#pa98d3ea413)" style="fill: #1f77b4"/>
   </g>
   <g id="patch_214">
    <path d="M 50.901123 268.321635 
L 54.536687 268.321635 
L 54.536687 267.82476 
L 50.901123 267.82476 
z
" clip-path="url(#pa98d3ea413)" style="fill: #1f77b4"/>
   </g>
   <g id="patch_215">
    <path d="M 54.536687 268.321635 
L 58.172251 268.321635 
L 58.172251 266.334136 
L 54.536687 266.334136 
z
" clip-path="url(#pa98d3ea413)" style="fill: #1f77b4"/>
   </g>
   <g id="patch_216">
    <path d="M 58.172251 268.321635 
L 61.807814 268.321635 
L 61.807814 264.346636 
L 58.172251 264.346636 
z
" clip-path="url(#pa98d3ea413)" style="fill: #1f77b4"/>
   </g>
   <g id="patch_217">
    <path d="M 61.807814 268.321635 
L 65.443378 268.321635 
L 65.443378 265.588823 
L 61.807814 265.588823 
z
" clip-path="url(#pa98d3ea413)" style="fill: #1f77b4"/>
   </g>
   <g id="patch_218">
    <path d="M 65.443378 268.321635 
L 69.078942 268.321635 
L 69.078942 264.346636 
L 65.443378 264.346636 
z
" clip-path="url(#pa98d3ea413)" style="fill: #1f77b4"/>
   </g>
   <g id="patch_219">
    <path d="M 69.078942 268.321635 
L 72.714506 268.321635 
L 72.714506 265.091948 
L 69.078942 265.091948 
z
" clip-path="url(#pa98d3ea413)" style="fill: #1f77b4"/>
   </g>
   <g id="patch_220">
    <path d="M 72.714506 268.321635 
L 76.35007 268.321635 
L 76.35007 263.352886 
L 72.714506 263.352886 
z
" clip-path="url(#pa98d3ea413)" style="fill: #1f77b4"/>
   </g>
   <g id="patch_221">
    <path d="M 76.35007 268.321635 
L 79.985633 268.321635 
L 79.985633 265.340386 
L 76.35007 265.340386 
z
" clip-path="url(#pa98d3ea413)" style="fill: #1f77b4"/>
   </g>
   <g id="patch_222">
    <path d="M 79.985633 268.321635 
L 83.621197 268.321635 
L 83.621197 264.098199 
L 79.985633 264.098199 
z
" clip-path="url(#pa98d3ea413)" style="fill: #1f77b4"/>
   </g>
   <g id="patch_223">
    <path d="M 83.621197 268.321635 
L 87.256761 268.321635 
L 87.256761 264.098199 
L 83.621197 264.098199 
z
" clip-path="url(#pa98d3ea413)" style="fill: #1f77b4"/>
   </g>
   <g id="patch_224">
    <path d="M 87.256761 268.321635 
L 90.892325 268.321635 
L 90.892325 262.359137 
L 87.256761 262.359137 
z
" clip-path="url(#pa98d3ea413)" style="fill: #1f77b4"/>
   </g>
   <g id="patch_225">
    <path d="M 90.892325 268.321635 
L 94.527889 268.321635 
L 94.527889 265.091948 
L 90.892325 265.091948 
z
" clip-path="url(#pa98d3ea413)" style="fill: #1f77b4"/>
   </g>
   <g id="patch_226">
    <path d="M 94.527889 268.321635 
L 98.163453 268.321635 
L 98.163453 263.352886 
L 94.527889 263.352886 
z
" clip-path="url(#pa98d3ea413)" style="fill: #1f77b4"/>
   </g>
   <g id="patch_227">
    <path d="M 98.163453 268.321635 
L 101.799016 268.321635 
L 101.799016 262.607574 
L 98.163453 262.607574 
z
" clip-path="url(#pa98d3ea413)" style="fill: #1f77b4"/>
   </g>
   <g id="patch_228">
    <path d="M 101.799016 268.321635 
L 105.43458 268.321635 
L 105.43458 262.359137 
L 101.799016 262.359137 
z
" clip-path="url(#pa98d3ea413)" style="fill: #1f77b4"/>
   </g>
   <g id="patch_229">
    <path d="M 105.43458 268.321635 
L 109.070144 268.321635 
L 109.070144 264.595074 
L 105.43458 264.595074 
z
" clip-path="url(#pa98d3ea413)" style="fill: #1f77b4"/>
   </g>
   <g id="patch_230">
    <path d="M 109.070144 268.321635 
L 112.705708 268.321635 
L 112.705708 262.110699 
L 109.070144 262.110699 
z
" clip-path="url(#pa98d3ea413)" style="fill: #1f77b4"/>
   </g>
   <g id="patch_231">
    <path d="M 112.705708 268.321635 
L 116.341272 268.321635 
L 116.341272 260.620075 
L 112.705708 260.620075 
z
" clip-path="url(#pa98d3ea413)" style="fill: #1f77b4"/>
   </g>
   <g id="patch_232">
    <path d="M 116.341272 268.321635 
L 119.976835 268.321635 
L 119.976835 260.620075 
L 116.341272 260.620075 
z
" clip-path="url(#pa98d3ea413)" style="fill: #1f77b4"/>
   </g>
   <g id="patch_233">
    <path d="M 119.976835 268.321635 
L 123.612399 268.321635 
L 123.612399 262.607574 
L 119.976835 262.607574 
z
" clip-path="url(#pa98d3ea413)" style="fill: #1f77b4"/>
   </g>
   <g id="patch_234">
    <path d="M 123.612399 268.321635 
L 127.247963 268.321635 
L 127.247963 261.862262 
L 123.612399 261.862262 
z
" clip-path="url(#pa98d3ea413)" style="fill: #1f77b4"/>
   </g>
   <g id="patch_235">
    <path d="M 127.247963 268.321635 
L 130.883527 268.321635 
L 130.883527 261.11695 
L 127.247963 261.11695 
z
" clip-path="url(#pa98d3ea413)" style="fill: #1f77b4"/>
   </g>
   <g id="patch_236">
    <path d="M 130.883527 268.321635 
L 134.519091 268.321635 
L 134.519091 262.359137 
L 130.883527 262.359137 
z
" clip-path="url(#pa98d3ea413)" style="fill: #1f77b4"/>
   </g>
   <g id="patch_237">
    <path d="M 134.519091 268.321635 
L 138.154655 268.321635 
L 138.154655 261.11695 
L 134.519091 261.11695 
z
" clip-path="url(#pa98d3ea413)" style="fill: #1f77b4"/>
   </g>
   <g id="patch_238">
    <path d="M 138.154655 268.321635 
L 141.790218 268.321635 
L 141.790218 263.601324 
L 138.154655 263.601324 
z
" clip-path="url(#pa98d3ea413)" style="fill: #1f77b4"/>
   </g>
   <g id="patch_239">
    <path d="M 141.790218 268.321635 
L 145.425782 268.321635 
L 145.425782 263.104449 
L 141.790218 263.104449 
z
" clip-path="url(#pa98d3ea413)" style="fill: #1f77b4"/>
   </g>
   <g id="patch_240">
    <path d="M 145.425782 268.321635 
L 149.061346 268.321635 
L 149.061346 262.110699 
L 145.425782 262.110699 
z
" clip-path="url(#pa98d3ea413)" style="fill: #1f77b4"/>
   </g>
   <g id="patch_241">
    <path d="M 149.061346 268.321635 
L 152.69691 268.321635 
L 152.69691 259.874762 
L 149.061346 259.874762 
z
" clip-path="url(#pa98d3ea413)" style="fill: #1f77b4"/>
   </g>
   <g id="patch_242">
    <path d="M 152.69691 268.321635 
L 156.332474 268.321635 
L 156.332474 258.881013 
L 152.69691 258.881013 
z
" clip-path="url(#pa98d3ea413)" style="fill: #1f77b4"/>
   </g>
   <g id="patch_243">
    <path d="M 156.332474 268.321635 
L 159.968037 268.321635 
L 159.968037 259.377888 
L 156.332474 259.377888 
z
" clip-path="url(#pa98d3ea413)" style="fill: #1f77b4"/>
   </g>
   <g id="patch_244">
    <path d="M 159.968037 268.321635 
L 163.603601 268.321635 
L 163.603601 256.148201 
L 159.968037 256.148201 
z
" clip-path="url(#pa98d3ea413)" style="fill: #1f77b4"/>
   </g>
   <g id="patch_245">
    <path d="M 163.603601 268.321635 
L 167.239165 268.321635 
L 167.239165 258.881013 
L 163.603601 258.881013 
z
" clip-path="url(#pa98d3ea413)" style="fill: #1f77b4"/>
   </g>
   <g id="patch_246">
    <path d="M 167.239165 268.321635 
L 170.874729 268.321635 
L 170.874729 260.1232 
L 167.239165 260.1232 
z
" clip-path="url(#pa98d3ea413)" style="fill: #1f77b4"/>
   </g>
   <g id="patch_247">
    <path d="M 170.874729 268.321635 
L 174.510293 268.321635 
L 174.510293 257.638826 
L 170.874729 257.638826 
z
" clip-path="url(#pa98d3ea413)" style="fill: #1f77b4"/>
   </g>
   <g id="patch_248">
    <path d="M 174.510293 268.321635 
L 178.145857 268.321635 
L 178.145857 259.626325 
L 174.510293 259.626325 
z
" clip-path="url(#pa98d3ea413)" style="fill: #1f77b4"/>
   </g>
   <g id="patch_249">
    <path d="M 178.145857 268.321635 
L 181.78142 268.321635 
L 181.78142 257.887263 
L 178.145857 257.887263 
z
" clip-path="url(#pa98d3ea413)" style="fill: #1f77b4"/>
   </g>
   <g id="patch_250">
    <path d="M 181.78142 268.321635 
L 185.416984 268.321635 
L 185.416984 256.893513 
L 181.78142 256.893513 
z
" clip-path="url(#pa98d3ea413)" style="fill: #1f77b4"/>
   </g>
   <g id="patch_251">
    <path d="M 185.416984 268.321635 
L 189.052548 268.321635 
L 189.052548 256.645076 
L 185.416984 256.645076 
z
" clip-path="url(#pa98d3ea413)" style="fill: #1f77b4"/>
   </g>
   <g id="patch_252">
    <path d="M 189.052548 268.321635 
L 192.688112 268.321635 
L 192.688112 256.645076 
L 189.052548 256.645076 
z
" clip-path="url(#pa98d3ea413)" style="fill: #1f77b4"/>
   </g>
   <g id="patch_253">
    <path d="M 192.688112 268.321635 
L 196.323676 268.321635 
L 196.323676 256.645076 
L 192.688112 256.645076 
z
" clip-path="url(#pa98d3ea413)" style="fill: #1f77b4"/>
   </g>
   <g id="patch_254">
    <path d="M 196.323676 268.321635 
L 199.959239 268.321635 
L 199.959239 259.12945 
L 196.323676 259.12945 
z
" clip-path="url(#pa98d3ea413)" style="fill: #1f77b4"/>
   </g>
   <g id="patch_255">
    <path d="M 199.959239 268.321635 
L 203.594803 268.321635 
L 203.594803 255.402889 
L 199.959239 255.402889 
z
" clip-path="url(#pa98d3ea413)" style="fill: #1f77b4"/>
   </g>
   <g id="patch_256">
    <path d="M 203.594803 268.321635 
L 207.230367 268.321635 
L 207.230367 257.390388 
L 203.594803 257.390388 
z
" clip-path="url(#pa98d3ea413)" style="fill: #1f77b4"/>
   </g>
   <g id="patch_257">
    <path d="M 207.230367 268.321635 
L 210.865931 268.321635 
L 210.865931 258.1357 
L 207.230367 258.1357 
z
" clip-path="url(#pa98d3ea413)" style="fill: #1f77b4"/>
   </g>
   <g id="patch_258">
    <path d="M 210.865931 268.321635 
L 214.501495 268.321635 
L 214.501495 257.887263 
L 210.865931 257.887263 
z
" clip-path="url(#pa98d3ea413)" style="fill: #1f77b4"/>
   </g>
   <g id="patch_259">
    <path d="M 214.501495 268.321635 
L 218.137059 268.321635 
L 218.137059 257.390388 
L 214.501495 257.390388 
z
" clip-path="url(#pa98d3ea413)" style="fill: #1f77b4"/>
   </g>
   <g id="patch_260">
    <path d="M 218.137059 268.321635 
L 221.772622 268.321635 
L 221.772622 255.899764 
L 218.137059 255.899764 
z
" clip-path="url(#pa98d3ea413)" style="fill: #1f77b4"/>
   </g>
   <g id="patch_261">
    <path d="M 221.772622 268.321635 
L 225.408186 268.321635 
L 225.408186 258.881013 
L 221.772622 258.881013 
z
" clip-path="url(#pa98d3ea413)" style="fill: #1f77b4"/>
   </g>
   <g id="patch_262">
    <path d="M 225.408186 268.321635 
L 229.04375 268.321635 
L 229.04375 259.626325 
L 225.408186 259.626325 
z
" clip-path="url(#pa98d3ea413)" style="fill: #1f77b4"/>
   </g>
   <g id="patch_263">
    <path d="M 229.04375 268.321635 
L 232.679314 268.321635 
L 232.679314 254.657576 
L 229.04375 254.657576 
z
" clip-path="url(#pa98d3ea413)" style="fill: #1f77b4"/>
   </g>
   <g id="patch_264">
    <path d="M 232.679314 268.321635 
L 236.314878 268.321635 
L 236.314878 257.390388 
L 232.679314 257.390388 
z
" clip-path="url(#pa98d3ea413)" style="fill: #1f77b4"/>
   </g>
   <g id="patch_265">
    <path d="M 236.314878 268.321635 
L 239.950441 268.321635 
L 239.950441 253.663827 
L 236.314878 253.663827 
z
" clip-path="url(#pa98d3ea413)" style="fill: #1f77b4"/>
   </g>
   <g id="patch_266">
    <path d="M 239.950441 268.321635 
L 243.586005 268.321635 
L 243.586005 254.657576 
L 239.950441 254.657576 
z
" clip-path="url(#pa98d3ea413)" style="fill: #1f77b4"/>
   </g>
   <g id="patch_267">
    <path d="M 243.586005 268.321635 
L 247.221569 268.321635 
L 247.221569 254.906014 
L 243.586005 254.906014 
z
" clip-path="url(#pa98d3ea413)" style="fill: #1f77b4"/>
   </g>
   <g id="patch_268">
    <path d="M 247.221569 268.321635 
L 250.857133 268.321635 
L 250.857133 255.899764 
L 247.221569 255.899764 
z
" clip-path="url(#pa98d3ea413)" style="fill: #1f77b4"/>
   </g>
   <g id="patch_269">
    <path d="M 250.857133 268.321635 
L 254.492697 268.321635 
L 254.492697 252.42164 
L 250.857133 252.42164 
z
" clip-path="url(#pa98d3ea413)" style="fill: #1f77b4"/>
   </g>
   <g id="patch_270">
    <path d="M 254.492697 268.321635 
L 258.128261 268.321635 
L 258.128261 253.415389 
L 254.492697 253.415389 
z
" clip-path="url(#pa98d3ea413)" style="fill: #1f77b4"/>
   </g>
   <g id="patch_271">
    <path d="M 258.128261 268.321635 
L 261.763824 268.321635 
L 261.763824 252.42164 
L 258.128261 252.42164 
z
" clip-path="url(#pa98d3ea413)" style="fill: #1f77b4"/>
   </g>
   <g id="patch_272">
    <path d="M 261.763824 268.321635 
L 265.399388 268.321635 
L 265.399388 254.160702 
L 261.763824 254.160702 
z
" clip-path="url(#pa98d3ea413)" style="fill: #1f77b4"/>
   </g>
   <g id="patch_273">
    <path d="M 265.399388 268.321635 
L 269.034952 268.321635 
L 269.034952 255.402889 
L 265.399388 255.402889 
z
" clip-path="url(#pa98d3ea413)" style="fill: #1f77b4"/>
   </g>
   <g id="patch_274">
    <path d="M 269.034952 268.321635 
L 272.670516 268.321635 
L 272.670516 251.676327 
L 269.034952 251.676327 
z
" clip-path="url(#pa98d3ea413)" style="fill: #1f77b4"/>
   </g>
   <g id="patch_275">
    <path d="M 272.670516 268.321635 
L 276.30608 268.321635 
L 276.30608 250.682578 
L 272.670516 250.682578 
z
" clip-path="url(#pa98d3ea413)" style="fill: #1f77b4"/>
   </g>
   <g id="patch_276">
    <path d="M 276.30608 268.321635 
L 279.941643 268.321635 
L 279.941643 254.160702 
L 276.30608 254.160702 
z
" clip-path="url(#pa98d3ea413)" style="fill: #1f77b4"/>
   </g>
   <g id="patch_277">
    <path d="M 279.941643 268.321635 
L 283.577207 268.321635 
L 283.577207 247.701328 
L 279.941643 247.701328 
z
" clip-path="url(#pa98d3ea413)" style="fill: #1f77b4"/>
   </g>
   <g id="patch_278">
    <path d="M 283.577207 268.321635 
L 287.212771 268.321635 
L 287.212771 252.173202 
L 283.577207 252.173202 
z
" clip-path="url(#pa98d3ea413)" style="fill: #1f77b4"/>
   </g>
   <g id="patch_279">
    <path d="M 287.212771 268.321635 
L 290.848335 268.321635 
L 290.848335 248.446641 
L 287.212771 248.446641 
z
" clip-path="url(#pa98d3ea413)" style="fill: #1f77b4"/>
   </g>
   <g id="patch_280">
    <path d="M 290.848335 268.321635 
L 294.483899 268.321635 
L 294.483899 248.943516 
L 290.848335 248.943516 
z
" clip-path="url(#pa98d3ea413)" style="fill: #1f77b4"/>
   </g>
   <g id="patch_281">
    <path d="M 294.483899 268.321635 
L 298.119463 268.321635 
L 298.119463 253.663827 
L 294.483899 253.663827 
z
" clip-path="url(#pa98d3ea413)" style="fill: #1f77b4"/>
   </g>
   <g id="patch_282">
    <path d="M 298.119463 268.321635 
L 301.755026 268.321635 
L 301.755026 250.682578 
L 298.119463 250.682578 
z
" clip-path="url(#pa98d3ea413)" style="fill: #1f77b4"/>
   </g>
   <g id="patch_283">
    <path d="M 301.755026 268.321635 
L 305.39059 268.321635 
L 305.39059 250.931015 
L 301.755026 250.931015 
z
" clip-path="url(#pa98d3ea413)" style="fill: #1f77b4"/>
   </g>
   <g id="patch_284">
    <path d="M 305.39059 268.321635 
L 309.026154 268.321635 
L 309.026154 248.943516 
L 305.39059 248.943516 
z
" clip-path="url(#pa98d3ea413)" style="fill: #1f77b4"/>
   </g>
   <g id="patch_285">
    <path d="M 309.026154 268.321635 
L 312.661718 268.321635 
L 312.661718 245.713829 
L 309.026154 245.713829 
z
" clip-path="url(#pa98d3ea413)" style="fill: #1f77b4"/>
   </g>
   <g id="patch_286">
    <path d="M 312.661718 268.321635 
L 316.297282 268.321635 
L 316.297282 247.701328 
L 312.661718 247.701328 
z
" clip-path="url(#pa98d3ea413)" style="fill: #1f77b4"/>
   </g>
   <g id="patch_287">
    <path d="M 316.297282 268.321635 
L 319.932845 268.321635 
L 319.932845 245.713829 
L 316.297282 245.713829 
z
" clip-path="url(#pa98d3ea413)" style="fill: #1f77b4"/>
   </g>
   <g id="patch_288">
    <path d="M 319.932845 268.321635 
L 323.568409 268.321635 
L 323.568409 245.216954 
L 319.932845 245.216954 
z
" clip-path="url(#pa98d3ea413)" style="fill: #1f77b4"/>
   </g>
   <g id="patch_289">
    <path d="M 323.568409 268.321635 
L 327.203973 268.321635 
L 327.203973 247.949766 
L 323.568409 247.949766 
z
" clip-path="url(#pa98d3ea413)" style="fill: #1f77b4"/>
   </g>
   <g id="patch_290">
    <path d="M 327.203973 268.321635 
L 330.839537 268.321635 
L 330.839537 245.962266 
L 327.203973 245.962266 
z
" clip-path="url(#pa98d3ea413)" style="fill: #1f77b4"/>
   </g>
   <g id="patch_291">
    <path d="M 330.839537 268.321635 
L 334.475101 268.321635 
L 334.475101 249.191953 
L 330.839537 249.191953 
z
" clip-path="url(#pa98d3ea413)" style="fill: #1f77b4"/>
   </g>
   <g id="patch_292">
    <path d="M 334.475101 268.321635 
L 338.110665 268.321635 
L 338.110665 245.713829 
L 334.475101 245.713829 
z
" clip-path="url(#pa98d3ea413)" style="fill: #1f77b4"/>
   </g>
   <g id="patch_293">
    <path d="M 338.110665 268.321635 
L 341.746228 268.321635 
L 341.746228 244.720079 
L 338.110665 244.720079 
z
" clip-path="url(#pa98d3ea413)" style="fill: #1f77b4"/>
   </g>
   <g id="patch_294">
    <path d="M 341.746228 268.321635 
L 345.381792 268.321635 
L 345.381792 241.73883 
L 341.746228 241.73883 
z
" clip-path="url(#pa98d3ea413)" style="fill: #1f77b4"/>
   </g>
   <g id="patch_295">
    <path d="M 345.381792 268.321635 
L 349.017356 268.321635 
L 349.017356 242.981017 
L 345.381792 242.981017 
z
" clip-path="url(#pa98d3ea413)" style="fill: #1f77b4"/>
   </g>
   <g id="patch_296">
    <path d="M 349.017356 268.321635 
L 352.65292 268.321635 
L 352.65292 243.229455 
L 349.017356 243.229455 
z
" clip-path="url(#pa98d3ea413)" style="fill: #1f77b4"/>
   </g>
   <g id="patch_297">
    <path d="M 352.65292 268.321635 
L 356.288484 268.321635 
L 356.288484 244.720079 
L 352.65292 244.720079 
z
" clip-path="url(#pa98d3ea413)" style="fill: #1f77b4"/>
   </g>
   <g id="patch_298">
    <path d="M 356.288484 268.321635 
L 359.924047 268.321635 
L 359.924047 241.73883 
L 356.288484 241.73883 
z
" clip-path="url(#pa98d3ea413)" style="fill: #1f77b4"/>
   </g>
   <g id="patch_299">
    <path d="M 359.924047 268.321635 
L 363.559611 268.321635 
L 363.559611 247.949766 
L 359.924047 247.949766 
z
" clip-path="url(#pa98d3ea413)" style="fill: #1f77b4"/>
   </g>
   <g id="patch_300">
    <path d="M 363.559611 268.321635 
L 367.195175 268.321635 
L 367.195175 239.502893 
L 363.559611 239.502893 
z
" clip-path="url(#pa98d3ea413)" style="fill: #1f77b4"/>
   </g>
   <g id="patch_301">
    <path d="M 367.195175 268.321635 
L 370.830739 268.321635 
L 370.830739 244.471642 
L 367.195175 244.471642 
z
" clip-path="url(#pa98d3ea413)" style="fill: #1f77b4"/>
   </g>
   <g id="patch_302">
    <path d="M 370.830739 268.321635 
L 374.466303 268.321635 
L 374.466303 238.757581 
L 370.830739 238.757581 
z
" clip-path="url(#pa98d3ea413)" style="fill: #1f77b4"/>
   </g>
   <g id="patch_303">
    <path d="M 374.466303 268.321635 
L 378.101867 268.321635 
L 378.101867 241.73883 
L 374.466303 241.73883 
z
" clip-path="url(#pa98d3ea413)" style="fill: #1f77b4"/>
   </g>
   <g id="patch_304">
    <path d="M 378.101867 268.321635 
L 381.73743 268.321635 
L 381.73743 238.757581 
L 378.101867 238.757581 
z
" clip-path="url(#pa98d3ea413)" style="fill: #1f77b4"/>
   </g>
   <g id="patch_305">
    <path d="M 381.73743 268.321635 
L 385.372994 268.321635 
L 385.372994 241.987268 
L 381.73743 241.987268 
z
" clip-path="url(#pa98d3ea413)" style="fill: #1f77b4"/>
   </g>
   <g id="patch_306">
    <path d="M 385.372994 268.321635 
L 389.008558 268.321635 
L 389.008558 233.788832 
L 385.372994 233.788832 
z
" clip-path="url(#pa98d3ea413)" style="fill: #1f77b4"/>
   </g>
   <g id="patch_307">
    <path d="M 389.008558 268.321635 
L 392.644122 268.321635 
L 392.644122 239.502893 
L 389.008558 239.502893 
z
" clip-path="url(#pa98d3ea413)" style="fill: #1f77b4"/>
   </g>
   <g id="patch_308">
    <path d="M 392.644122 268.321635 
L 396.279686 268.321635 
L 396.279686 236.273207 
L 392.644122 236.273207 
z
" clip-path="url(#pa98d3ea413)" style="fill: #1f77b4"/>
   </g>
   <g id="patch_309">
    <path d="M 396.279686 268.321635 
L 399.915249 268.321635 
L 399.915249 237.018519 
L 396.279686 237.018519 
z
" clip-path="url(#pa98d3ea413)" style="fill: #1f77b4"/>
   </g>
   <g id="patch_310">
    <path d="M 399.915249 268.321635 
L 403.550813 268.321635 
L 403.550813 239.006018 
L 399.915249 239.006018 
z
" clip-path="url(#pa98d3ea413)" style="fill: #1f77b4"/>
   </g>
   <g id="patch_311">
    <path d="M 403.550813 268.321635 
L 407.186377 268.321635 
L 407.186377 241.490393 
L 403.550813 241.490393 
z
" clip-path="url(#pa98d3ea413)" style="fill: #1f77b4"/>
   </g>
   <g id="patch_312">
    <path d="M 407.186377 268.321635 
L 410.821941 268.321635 
L 410.821941 234.285707 
L 407.186377 234.285707 
z
" clip-path="url(#pa98d3ea413)" style="fill: #1f77b4"/>
   </g>
   <g id="matplotlib.axis_5">
    <g id="xtick_13">
     <g id="line2d_17">
      <g>
       <use xlink:href="#mde3fdde557" x="41.633573" y="268.321635" style="stroke: #000000; stroke-width: 0.8"/>
      </g>
     </g>
     <g id="text_19">
      <!-- 0 -->
      <g transform="translate(38.452323 282.920073)scale(0.1 -0.1)">
       <use xlink:href="#DejaVuSans-30"/>
      </g>
     </g>
    </g>
    <g id="xtick_14">
     <g id="line2d_18">
      <g>
       <use xlink:href="#mde3fdde557" x="115.47156" y="268.321635" style="stroke: #000000; stroke-width: 0.8"/>
      </g>
     </g>
     <g id="text_20">
      <!-- 1000 -->
      <g transform="translate(102.74656 282.920073)scale(0.1 -0.1)">
       <use xlink:href="#DejaVuSans-31"/>
       <use xlink:href="#DejaVuSans-30" x="63.623047"/>
       <use xlink:href="#DejaVuSans-30" x="127.246094"/>
       <use xlink:href="#DejaVuSans-30" x="190.869141"/>
      </g>
     </g>
    </g>
    <g id="xtick_15">
     <g id="line2d_19">
      <g>
       <use xlink:href="#mde3fdde557" x="189.309548" y="268.321635" style="stroke: #000000; stroke-width: 0.8"/>
      </g>
     </g>
     <g id="text_21">
      <!-- 2000 -->
      <g transform="translate(176.584548 282.920073)scale(0.1 -0.1)">
       <use xlink:href="#DejaVuSans-32"/>
       <use xlink:href="#DejaVuSans-30" x="63.623047"/>
       <use xlink:href="#DejaVuSans-30" x="127.246094"/>
       <use xlink:href="#DejaVuSans-30" x="190.869141"/>
      </g>
     </g>
    </g>
    <g id="xtick_16">
     <g id="line2d_20">
      <g>
       <use xlink:href="#mde3fdde557" x="263.147535" y="268.321635" style="stroke: #000000; stroke-width: 0.8"/>
      </g>
     </g>
     <g id="text_22">
      <!-- 3000 -->
      <g transform="translate(250.422535 282.920073)scale(0.1 -0.1)">
       <use xlink:href="#DejaVuSans-33"/>
       <use xlink:href="#DejaVuSans-30" x="63.623047"/>
       <use xlink:href="#DejaVuSans-30" x="127.246094"/>
       <use xlink:href="#DejaVuSans-30" x="190.869141"/>
      </g>
     </g>
    </g>
    <g id="xtick_17">
     <g id="line2d_21">
      <g>
       <use xlink:href="#mde3fdde557" x="336.985522" y="268.321635" style="stroke: #000000; stroke-width: 0.8"/>
      </g>
     </g>
     <g id="text_23">
      <!-- 4000 -->
      <g transform="translate(324.260522 282.920073)scale(0.1 -0.1)">
       <use xlink:href="#DejaVuSans-34"/>
       <use xlink:href="#DejaVuSans-30" x="63.623047"/>
       <use xlink:href="#DejaVuSans-30" x="127.246094"/>
       <use xlink:href="#DejaVuSans-30" x="190.869141"/>
      </g>
     </g>
    </g>
    <g id="xtick_18">
     <g id="line2d_22">
      <g>
       <use xlink:href="#mde3fdde557" x="410.823509" y="268.321635" style="stroke: #000000; stroke-width: 0.8"/>
      </g>
     </g>
     <g id="text_24">
      <!-- 5000 -->
      <g transform="translate(398.098509 282.920073)scale(0.1 -0.1)">
       <use xlink:href="#DejaVuSans-35"/>
       <use xlink:href="#DejaVuSans-30" x="63.623047"/>
       <use xlink:href="#DejaVuSans-30" x="127.246094"/>
       <use xlink:href="#DejaVuSans-30" x="190.869141"/>
      </g>
     </g>
    </g>
   </g>
   <g id="matplotlib.axis_6">
    <g id="ytick_5">
     <g id="line2d_23">
      <g>
       <use xlink:href="#m4b17c672d6" x="29.08774" y="268.321635" style="stroke: #000000; stroke-width: 0.8"/>
      </g>
     </g>
     <g id="text_25">
      <!-- 0 -->
      <g transform="translate(15.72524 272.120854)scale(0.1 -0.1)">
       <use xlink:href="#DejaVuSans-30"/>
      </g>
     </g>
    </g>
    <g id="ytick_6">
     <g id="line2d_24">
      <g>
       <use xlink:href="#m4b17c672d6" x="29.08774" y="218.634149" style="stroke: #000000; stroke-width: 0.8"/>
      </g>
     </g>
     <g id="text_26">
      <!-- 200 -->
      <g transform="translate(3.00024 222.433368)scale(0.1 -0.1)">
       <use xlink:href="#DejaVuSans-32"/>
       <use xlink:href="#DejaVuSans-30" x="63.623047"/>
       <use xlink:href="#DejaVuSans-30" x="127.246094"/>
      </g>
     </g>
    </g>
   </g>
   <g id="patch_313">
    <path d="M 29.08774 268.321635 
L 29.08774 216.149775 
" style="fill: none; stroke: #000000; stroke-width: 0.8; stroke-linejoin: miter; stroke-linecap: square"/>
   </g>
   <g id="patch_314">
    <path d="M 428.99976 268.321635 
L 428.99976 216.149775 
" style="fill: none; stroke: #000000; stroke-width: 0.8; stroke-linejoin: miter; stroke-linecap: square"/>
   </g>
   <g id="patch_315">
    <path d="M 29.08774 268.321635 
L 428.99976 268.321635 
" style="fill: none; stroke: #000000; stroke-width: 0.8; stroke-linejoin: miter; stroke-linecap: square"/>
   </g>
   <g id="patch_316">
    <path d="M 29.08774 216.149775 
L 428.99976 216.149775 
" style="fill: none; stroke: #000000; stroke-width: 0.8; stroke-linejoin: miter; stroke-linecap: square"/>
   </g>
   <g id="text_27">
    <!-- $M_3$ -->
    <g transform="translate(221.00375 210.149775)scale(0.12 -0.12)">
     <use xlink:href="#DejaVuSans-Oblique-4d" transform="translate(0 0.09375)"/>
     <use xlink:href="#DejaVuSans-33" transform="translate(86.279297 -16.3125)scale(0.7)"/>
    </g>
   </g>
  </g>
  <g id="text_28">
   <!-- Histogramme des paramtres de masse -->
   <g transform="translate(95.4525 12.598365)scale(0.12 -0.12)">
    <defs>
     <path id="DejaVuSans-48" d="M 628 4666 
L 1259 4666 
L 1259 2753 
L 3553 2753 
L 3553 4666 
L 4184 4666 
L 4184 0 
L 3553 0 
L 3553 2222 
L 1259 2222 
L 1259 0 
L 628 0 
L 628 4666 
z
" transform="scale(0.015625)"/>
     <path id="DejaVuSans-69" d="M 603 3500 
L 1178 3500 
L 1178 0 
L 603 0 
L 603 3500 
z
M 603 4863 
L 1178 4863 
L 1178 4134 
L 603 4134 
L 603 4863 
z
" transform="scale(0.015625)"/>
     <path id="DejaVuSans-73" d="M 2834 3397 
L 2834 2853 
Q 2591 2978 2328 3040 
Q 2066 3103 1784 3103 
Q 1356 3103 1142 2972 
Q 928 2841 928 2578 
Q 928 2378 1081 2264 
Q 1234 2150 1697 2047 
L 1894 2003 
Q 2506 1872 2764 1633 
Q 3022 1394 3022 966 
Q 3022 478 2636 193 
Q 2250 -91 1575 -91 
Q 1294 -91 989 -36 
Q 684 19 347 128 
L 347 722 
Q 666 556 975 473 
Q 1284 391 1588 391 
Q 1994 391 2212 530 
Q 2431 669 2431 922 
Q 2431 1156 2273 1281 
Q 2116 1406 1581 1522 
L 1381 1569 
Q 847 1681 609 1914 
Q 372 2147 372 2553 
Q 372 3047 722 3315 
Q 1072 3584 1716 3584 
Q 2034 3584 2315 3537 
Q 2597 3491 2834 3397 
z
" transform="scale(0.015625)"/>
     <path id="DejaVuSans-74" d="M 1172 4494 
L 1172 3500 
L 2356 3500 
L 2356 3053 
L 1172 3053 
L 1172 1153 
Q 1172 725 1289 603 
Q 1406 481 1766 481 
L 2356 481 
L 2356 0 
L 1766 0 
Q 1100 0 847 248 
Q 594 497 594 1153 
L 594 3053 
L 172 3053 
L 172 3500 
L 594 3500 
L 594 4494 
L 1172 4494 
z
" transform="scale(0.015625)"/>
     <path id="DejaVuSans-6f" d="M 1959 3097 
Q 1497 3097 1228 2736 
Q 959 2375 959 1747 
Q 959 1119 1226 758 
Q 1494 397 1959 397 
Q 2419 397 2687 759 
Q 2956 1122 2956 1747 
Q 2956 2369 2687 2733 
Q 2419 3097 1959 3097 
z
M 1959 3584 
Q 2709 3584 3137 3096 
Q 3566 2609 3566 1747 
Q 3566 888 3137 398 
Q 2709 -91 1959 -91 
Q 1206 -91 779 398 
Q 353 888 353 1747 
Q 353 2609 779 3096 
Q 1206 3584 1959 3584 
z
" transform="scale(0.015625)"/>
     <path id="DejaVuSans-67" d="M 2906 1791 
Q 2906 2416 2648 2759 
Q 2391 3103 1925 3103 
Q 1463 3103 1205 2759 
Q 947 2416 947 1791 
Q 947 1169 1205 825 
Q 1463 481 1925 481 
Q 2391 481 2648 825 
Q 2906 1169 2906 1791 
z
M 3481 434 
Q 3481 -459 3084 -895 
Q 2688 -1331 1869 -1331 
Q 1566 -1331 1297 -1286 
Q 1028 -1241 775 -1147 
L 775 -588 
Q 1028 -725 1275 -790 
Q 1522 -856 1778 -856 
Q 2344 -856 2625 -561 
Q 2906 -266 2906 331 
L 2906 616 
Q 2728 306 2450 153 
Q 2172 0 1784 0 
Q 1141 0 747 490 
Q 353 981 353 1791 
Q 353 2603 747 3093 
Q 1141 3584 1784 3584 
Q 2172 3584 2450 3431 
Q 2728 3278 2906 2969 
L 2906 3500 
L 3481 3500 
L 3481 434 
z
" transform="scale(0.015625)"/>
     <path id="DejaVuSans-72" d="M 2631 2963 
Q 2534 3019 2420 3045 
Q 2306 3072 2169 3072 
Q 1681 3072 1420 2755 
Q 1159 2438 1159 1844 
L 1159 0 
L 581 0 
L 581 3500 
L 1159 3500 
L 1159 2956 
Q 1341 3275 1631 3429 
Q 1922 3584 2338 3584 
Q 2397 3584 2469 3576 
Q 2541 3569 2628 3553 
L 2631 2963 
z
" transform="scale(0.015625)"/>
     <path id="DejaVuSans-61" d="M 2194 1759 
Q 1497 1759 1228 1600 
Q 959 1441 959 1056 
Q 959 750 1161 570 
Q 1363 391 1709 391 
Q 2188 391 2477 730 
Q 2766 1069 2766 1631 
L 2766 1759 
L 2194 1759 
z
M 3341 1997 
L 3341 0 
L 2766 0 
L 2766 531 
Q 2569 213 2275 61 
Q 1981 -91 1556 -91 
Q 1019 -91 701 211 
Q 384 513 384 1019 
Q 384 1609 779 1909 
Q 1175 2209 1959 2209 
L 2766 2209 
L 2766 2266 
Q 2766 2663 2505 2880 
Q 2244 3097 1772 3097 
Q 1472 3097 1187 3025 
Q 903 2953 641 2809 
L 641 3341 
Q 956 3463 1253 3523 
Q 1550 3584 1831 3584 
Q 2591 3584 2966 3190 
Q 3341 2797 3341 1997 
z
" transform="scale(0.015625)"/>
     <path id="DejaVuSans-6d" d="M 3328 2828 
Q 3544 3216 3844 3400 
Q 4144 3584 4550 3584 
Q 5097 3584 5394 3201 
Q 5691 2819 5691 2113 
L 5691 0 
L 5113 0 
L 5113 2094 
Q 5113 2597 4934 2840 
Q 4756 3084 4391 3084 
Q 3944 3084 3684 2787 
Q 3425 2491 3425 1978 
L 3425 0 
L 2847 0 
L 2847 2094 
Q 2847 2600 2669 2842 
Q 2491 3084 2119 3084 
Q 1678 3084 1418 2786 
Q 1159 2488 1159 1978 
L 1159 0 
L 581 0 
L 581 3500 
L 1159 3500 
L 1159 2956 
Q 1356 3278 1631 3431 
Q 1906 3584 2284 3584 
Q 2666 3584 2933 3390 
Q 3200 3197 3328 2828 
z
" transform="scale(0.015625)"/>
     <path id="DejaVuSans-65" d="M 3597 1894 
L 3597 1613 
L 953 1613 
Q 991 1019 1311 708 
Q 1631 397 2203 397 
Q 2534 397 2845 478 
Q 3156 559 3463 722 
L 3463 178 
Q 3153 47 2828 -22 
Q 2503 -91 2169 -91 
Q 1331 -91 842 396 
Q 353 884 353 1716 
Q 353 2575 817 3079 
Q 1281 3584 2069 3584 
Q 2775 3584 3186 3129 
Q 3597 2675 3597 1894 
z
M 3022 2063 
Q 3016 2534 2758 2815 
Q 2500 3097 2075 3097 
Q 1594 3097 1305 2825 
Q 1016 2553 972 2059 
L 3022 2063 
z
" transform="scale(0.015625)"/>
     <path id="DejaVuSans-20" transform="scale(0.015625)"/>
     <path id="DejaVuSans-64" d="M 2906 2969 
L 2906 4863 
L 3481 4863 
L 3481 0 
L 2906 0 
L 2906 525 
Q 2725 213 2448 61 
Q 2172 -91 1784 -91 
Q 1150 -91 751 415 
Q 353 922 353 1747 
Q 353 2572 751 3078 
Q 1150 3584 1784 3584 
Q 2172 3584 2448 3432 
Q 2725 3281 2906 2969 
z
M 947 1747 
Q 947 1113 1208 752 
Q 1469 391 1925 391 
Q 2381 391 2643 752 
Q 2906 1113 2906 1747 
Q 2906 2381 2643 2742 
Q 2381 3103 1925 3103 
Q 1469 3103 1208 2742 
Q 947 2381 947 1747 
z
" transform="scale(0.015625)"/>
     <path id="DejaVuSans-70" d="M 1159 525 
L 1159 -1331 
L 581 -1331 
L 581 3500 
L 1159 3500 
L 1159 2969 
Q 1341 3281 1617 3432 
Q 1894 3584 2278 3584 
Q 2916 3584 3314 3078 
Q 3713 2572 3713 1747 
Q 3713 922 3314 415 
Q 2916 -91 2278 -91 
Q 1894 -91 1617 61 
Q 1341 213 1159 525 
z
M 3116 1747 
Q 3116 2381 2855 2742 
Q 2594 3103 2138 3103 
Q 1681 3103 1420 2742 
Q 1159 2381 1159 1747 
Q 1159 1113 1420 752 
Q 1681 391 2138 391 
Q 2594 391 2855 752 
Q 3116 1113 3116 1747 
z
" transform="scale(0.015625)"/>
     <path id="DejaVuSans-e8" d="M 3597 1894 
L 3597 1613 
L 953 1613 
Q 991 1019 1311 708 
Q 1631 397 2203 397 
Q 2534 397 2845 478 
Q 3156 559 3463 722 
L 3463 178 
Q 3153 47 2828 -22 
Q 2503 -91 2169 -91 
Q 1331 -91 842 396 
Q 353 884 353 1716 
Q 353 2575 817 3079 
Q 1281 3584 2069 3584 
Q 2775 3584 3186 3129 
Q 3597 2675 3597 1894 
z
M 3022 2063 
Q 3016 2534 2758 2815 
Q 2500 3097 2075 3097 
Q 1594 3097 1305 2825 
Q 1016 2553 972 2059 
L 3022 2063 
z
M 1579 5119 
L 2460 3950 
L 1982 3950 
L 963 5119 
L 1579 5119 
z
" transform="scale(0.015625)"/>
    </defs>
    <use xlink:href="#DejaVuSans-48"/>
    <use xlink:href="#DejaVuSans-69" x="75.195312"/>
    <use xlink:href="#DejaVuSans-73" x="102.978516"/>
    <use xlink:href="#DejaVuSans-74" x="155.078125"/>
    <use xlink:href="#DejaVuSans-6f" x="194.287109"/>
    <use xlink:href="#DejaVuSans-67" x="255.46875"/>
    <use xlink:href="#DejaVuSans-72" x="318.945312"/>
    <use xlink:href="#DejaVuSans-61" x="360.058594"/>
    <use xlink:href="#DejaVuSans-6d" x="421.337891"/>
    <use xlink:href="#DejaVuSans-6d" x="518.75"/>
    <use xlink:href="#DejaVuSans-65" x="616.162109"/>
    <use xlink:href="#DejaVuSans-20" x="677.685547"/>
    <use xlink:href="#DejaVuSans-64" x="709.472656"/>
    <use xlink:href="#DejaVuSans-65" x="772.949219"/>
    <use xlink:href="#DejaVuSans-73" x="834.472656"/>
    <use xlink:href="#DejaVuSans-20" x="886.572266"/>
    <use xlink:href="#DejaVuSans-70" x="918.359375"/>
    <use xlink:href="#DejaVuSans-61" x="981.835938"/>
    <use xlink:href="#DejaVuSans-72" x="1043.115234"/>
    <use xlink:href="#DejaVuSans-61" x="1084.228516"/>
    <use xlink:href="#DejaVuSans-6d" x="1145.507812"/>
    <use xlink:href="#DejaVuSans-e8" x="1242.919922"/>
    <use xlink:href="#DejaVuSans-74" x="1304.443359"/>
    <use xlink:href="#DejaVuSans-72" x="1343.652344"/>
    <use xlink:href="#DejaVuSans-65" x="1382.515625"/>
    <use xlink:href="#DejaVuSans-73" x="1444.039062"/>
    <use xlink:href="#DejaVuSans-20" x="1496.138672"/>
    <use xlink:href="#DejaVuSans-64" x="1527.925781"/>
    <use xlink:href="#DejaVuSans-65" x="1591.402344"/>
    <use xlink:href="#DejaVuSans-20" x="1652.925781"/>
    <use xlink:href="#DejaVuSans-6d" x="1684.712891"/>
    <use xlink:href="#DejaVuSans-61" x="1782.125"/>
    <use xlink:href="#DejaVuSans-73" x="1843.404297"/>
    <use xlink:href="#DejaVuSans-73" x="1895.503906"/>
    <use xlink:href="#DejaVuSans-65" x="1947.603516"/>
   </g>
  </g>
  <g id="text_29">
   <!-- Masse (GeV) -->
   <g transform="translate(184.474219 302.4)scale(0.1 -0.1)">
    <defs>
     <path id="DejaVuSans-4d" d="M 628 4666 
L 1569 4666 
L 2759 1491 
L 3956 4666 
L 4897 4666 
L 4897 0 
L 4281 0 
L 4281 4097 
L 3078 897 
L 2444 897 
L 1241 4097 
L 1241 0 
L 628 0 
L 628 4666 
z
" transform="scale(0.015625)"/>
     <path id="DejaVuSans-28" d="M 1984 4856 
Q 1566 4138 1362 3434 
Q 1159 2731 1159 2009 
Q 1159 1288 1364 580 
Q 1569 -128 1984 -844 
L 1484 -844 
Q 1016 -109 783 600 
Q 550 1309 550 2009 
Q 550 2706 781 3412 
Q 1013 4119 1484 4856 
L 1984 4856 
z
" transform="scale(0.015625)"/>
     <path id="DejaVuSans-47" d="M 3809 666 
L 3809 1919 
L 2778 1919 
L 2778 2438 
L 4434 2438 
L 4434 434 
Q 4069 175 3628 42 
Q 3188 -91 2688 -91 
Q 1594 -91 976 548 
Q 359 1188 359 2328 
Q 359 3472 976 4111 
Q 1594 4750 2688 4750 
Q 3144 4750 3555 4637 
Q 3966 4525 4313 4306 
L 4313 3634 
Q 3963 3931 3569 4081 
Q 3175 4231 2741 4231 
Q 1884 4231 1454 3753 
Q 1025 3275 1025 2328 
Q 1025 1384 1454 906 
Q 1884 428 2741 428 
Q 3075 428 3337 486 
Q 3600 544 3809 666 
z
" transform="scale(0.015625)"/>
     <path id="DejaVuSans-56" d="M 1831 0 
L 50 4666 
L 709 4666 
L 2188 738 
L 3669 4666 
L 4325 4666 
L 2547 0 
L 1831 0 
z
" transform="scale(0.015625)"/>
     <path id="DejaVuSans-29" d="M 513 4856 
L 1013 4856 
Q 1481 4119 1714 3412 
Q 1947 2706 1947 2009 
Q 1947 1309 1714 600 
Q 1481 -109 1013 -844 
L 513 -844 
Q 928 -128 1133 580 
Q 1338 1288 1338 2009 
Q 1338 2731 1133 3434 
Q 928 4138 513 4856 
z
" transform="scale(0.015625)"/>
    </defs>
    <use xlink:href="#DejaVuSans-4d"/>
    <use xlink:href="#DejaVuSans-61" x="86.279297"/>
    <use xlink:href="#DejaVuSans-73" x="147.558594"/>
    <use xlink:href="#DejaVuSans-73" x="199.658203"/>
    <use xlink:href="#DejaVuSans-65" x="251.757812"/>
    <use xlink:href="#DejaVuSans-20" x="313.28125"/>
    <use xlink:href="#DejaVuSans-28" x="345.068359"/>
    <use xlink:href="#DejaVuSans-47" x="384.082031"/>
    <use xlink:href="#DejaVuSans-65" x="461.572266"/>
    <use xlink:href="#DejaVuSans-56" x="523.095703"/>
    <use xlink:href="#DejaVuSans-29" x="591.503906"/>
   </g>
  </g>
  <g id="text_30">
   <!-- N -->
   <g transform="translate(-9.681563 147.740625)rotate(-90)scale(0.1 -0.1)">
    <defs>
     <path id="DejaVuSans-4e" d="M 628 4666 
L 1478 4666 
L 3547 763 
L 3547 4666 
L 4159 4666 
L 4159 0 
L 3309 0 
L 1241 3903 
L 1241 0 
L 628 0 
L 628 4666 
z
" transform="scale(0.015625)"/>
    </defs>
    <use xlink:href="#DejaVuSans-4e"/>
   </g>
  </g>
 </g>
 <defs>
  <clipPath id="p4a2f33c36d">
   <rect x="29.08774" y="36.212595" width="399.91202" height="52.17186"/>
  </clipPath>
  <clipPath id="pa394db4651">
   <rect x="29.08774" y="126.181185" width="399.91202" height="52.17186"/>
  </clipPath>
  <clipPath id="pa98d3ea413">
   <rect x="29.08774" y="216.149775" width="399.91202" height="52.17186"/>
  </clipPath>
 </defs>
</svg>
