<?xml version="1.0" encoding="utf-8" standalone="no"?>
<!DOCTYPE svg PUBLIC "-//W3C//DTD SVG 1.1//EN"
  "http://www.w3.org/Graphics/SVG/1.1/DTD/svg11.dtd">
<svg xmlns:xlink="http://www.w3.org/1999/xlink" width="432pt" height="288pt" viewBox="0 0 432 288" xmlns="http://www.w3.org/2000/svg" version="1.1">
 <metadata>
  <rdf:RDF xmlns:dc="http://purl.org/dc/elements/1.1/" xmlns:cc="http://creativecommons.org/ns#" xmlns:rdf="http://www.w3.org/1999/02/22-rdf-syntax-ns#">
   <cc:Work>
    <dc:type rdf:resource="http://purl.org/dc/dcmitype/StillImage"/>
    <dc:date>2022-06-21T02:10:23.396134</dc:date>
    <dc:format>image/svg+xml</dc:format>
    <dc:creator>
     <cc:Agent>
      <dc:title>Matplotlib v3.5.0, https://matplotlib.org/</dc:title>
     </cc:Agent>
    </dc:creator>
   </cc:Work>
  </rdf:RDF>
 </metadata>
 <defs>
  <style type="text/css">*{stroke-linejoin: round; stroke-linecap: butt}</style>
 </defs>
 <g id="figure_1">
  <g id="patch_1">
   <path d="M 0 288 
L 432 288 
L 432 0 
L 0 0 
L 0 288 
z
" style="fill: none"/>
  </g>
  <g id="axes_1">
   <g id="patch_2">
    <path d="M 54 252 
L 388.8 252 
L 388.8 34.56 
L 54 34.56 
z
" style="fill: #ffffff"/>
   </g>
   <g id="patch_3">
    <path d="M 69.218182 252 
L 72.261818 252 
L 72.261818 207.465438 
L 69.218182 207.465438 
z
" clip-path="url(#p5af798662d)" style="fill: #1f77b4"/>
   </g>
   <g id="patch_4">
    <path d="M 72.261818 252 
L 75.305455 252 
L 75.305455 187.424885 
L 72.261818 187.424885 
z
" clip-path="url(#p5af798662d)" style="fill: #1f77b4"/>
   </g>
   <g id="patch_5">
    <path d="M 75.305455 252 
L 78.349091 252 
L 78.349091 198.558525 
L 75.305455 198.558525 
z
" clip-path="url(#p5af798662d)" style="fill: #1f77b4"/>
   </g>
   <g id="patch_6">
    <path d="M 78.349091 252 
L 81.392727 252 
L 81.392727 207.465438 
L 78.349091 207.465438 
z
" clip-path="url(#p5af798662d)" style="fill: #1f77b4"/>
   </g>
   <g id="patch_7">
    <path d="M 81.392727 252 
L 84.436364 252 
L 84.436364 189.651613 
L 81.392727 189.651613 
z
" clip-path="url(#p5af798662d)" style="fill: #1f77b4"/>
   </g>
   <g id="patch_8">
    <path d="M 84.436364 252 
L 87.48 252 
L 87.48 203.011982 
L 84.436364 203.011982 
z
" clip-path="url(#p5af798662d)" style="fill: #1f77b4"/>
   </g>
   <g id="patch_9">
    <path d="M 87.48 252 
L 90.523636 252 
L 90.523636 194.105069 
L 87.48 194.105069 
z
" clip-path="url(#p5af798662d)" style="fill: #1f77b4"/>
   </g>
   <g id="patch_10">
    <path d="M 90.523636 252 
L 93.567273 252 
L 93.567273 149.570507 
L 90.523636 149.570507 
z
" clip-path="url(#p5af798662d)" style="fill: #1f77b4"/>
   </g>
   <g id="patch_11">
    <path d="M 93.567273 252 
L 96.610909 252 
L 96.610909 165.157604 
L 93.567273 165.157604 
z
" clip-path="url(#p5af798662d)" style="fill: #1f77b4"/>
   </g>
   <g id="patch_12">
    <path d="M 96.610909 252 
L 99.654545 252 
L 99.654545 154.023963 
L 96.610909 154.023963 
z
" clip-path="url(#p5af798662d)" style="fill: #1f77b4"/>
   </g>
   <g id="patch_13">
    <path d="M 99.654545 252 
L 102.698182 252 
L 102.698182 162.930876 
L 99.654545 162.930876 
z
" clip-path="url(#p5af798662d)" style="fill: #1f77b4"/>
   </g>
   <g id="patch_14">
    <path d="M 102.698182 252 
L 105.741818 252 
L 105.741818 160.704147 
L 102.698182 160.704147 
z
" clip-path="url(#p5af798662d)" style="fill: #1f77b4"/>
   </g>
   <g id="patch_15">
    <path d="M 105.741818 252 
L 108.785455 252 
L 108.785455 145.117051 
L 105.741818 145.117051 
z
" clip-path="url(#p5af798662d)" style="fill: #1f77b4"/>
   </g>
   <g id="patch_16">
    <path d="M 108.785455 252 
L 111.829091 252 
L 111.829091 133.98341 
L 108.785455 133.98341 
z
" clip-path="url(#p5af798662d)" style="fill: #1f77b4"/>
   </g>
   <g id="patch_17">
    <path d="M 111.829091 252 
L 114.872727 252 
L 114.872727 169.61106 
L 111.829091 169.61106 
z
" clip-path="url(#p5af798662d)" style="fill: #1f77b4"/>
   </g>
   <g id="patch_18">
    <path d="M 114.872727 252 
L 117.916364 252 
L 117.916364 154.023963 
L 114.872727 154.023963 
z
" clip-path="url(#p5af798662d)" style="fill: #1f77b4"/>
   </g>
   <g id="patch_19">
    <path d="M 117.916364 252 
L 120.96 252 
L 120.96 131.756682 
L 117.916364 131.756682 
z
" clip-path="url(#p5af798662d)" style="fill: #1f77b4"/>
   </g>
   <g id="patch_20">
    <path d="M 120.96 252 
L 124.003636 252 
L 124.003636 125.076498 
L 120.96 125.076498 
z
" clip-path="url(#p5af798662d)" style="fill: #1f77b4"/>
   </g>
   <g id="patch_21">
    <path d="M 124.003636 252 
L 127.047273 252 
L 127.047273 120.623041 
L 124.003636 120.623041 
z
" clip-path="url(#p5af798662d)" style="fill: #1f77b4"/>
   </g>
   <g id="patch_22">
    <path d="M 127.047273 252 
L 130.090909 252 
L 130.090909 118.396313 
L 127.047273 118.396313 
z
" clip-path="url(#p5af798662d)" style="fill: #1f77b4"/>
   </g>
   <g id="patch_23">
    <path d="M 130.090909 252 
L 133.134545 252 
L 133.134545 165.157604 
L 130.090909 165.157604 
z
" clip-path="url(#p5af798662d)" style="fill: #1f77b4"/>
   </g>
   <g id="patch_24">
    <path d="M 133.134545 252 
L 136.178182 252 
L 136.178182 127.303226 
L 133.134545 127.303226 
z
" clip-path="url(#p5af798662d)" style="fill: #1f77b4"/>
   </g>
   <g id="patch_25">
    <path d="M 136.178182 252 
L 139.221818 252 
L 139.221818 127.303226 
L 136.178182 127.303226 
z
" clip-path="url(#p5af798662d)" style="fill: #1f77b4"/>
   </g>
   <g id="patch_26">
    <path d="M 139.221818 252 
L 142.265455 252 
L 142.265455 107.262673 
L 139.221818 107.262673 
z
" clip-path="url(#p5af798662d)" style="fill: #1f77b4"/>
   </g>
   <g id="patch_27">
    <path d="M 142.265455 252 
L 145.309091 252 
L 145.309091 118.396313 
L 142.265455 118.396313 
z
" clip-path="url(#p5af798662d)" style="fill: #1f77b4"/>
   </g>
   <g id="patch_28">
    <path d="M 145.309091 252 
L 148.352727 252 
L 148.352727 102.809217 
L 145.309091 102.809217 
z
" clip-path="url(#p5af798662d)" style="fill: #1f77b4"/>
   </g>
   <g id="patch_29">
    <path d="M 148.352727 252 
L 151.396364 252 
L 151.396364 98.35576 
L 148.352727 98.35576 
z
" clip-path="url(#p5af798662d)" style="fill: #1f77b4"/>
   </g>
   <g id="patch_30">
    <path d="M 151.396364 252 
L 154.44 252 
L 154.44 105.035945 
L 151.396364 105.035945 
z
" clip-path="url(#p5af798662d)" style="fill: #1f77b4"/>
   </g>
   <g id="patch_31">
    <path d="M 154.44 252 
L 157.483636 252 
L 157.483636 89.448848 
L 154.44 89.448848 
z
" clip-path="url(#p5af798662d)" style="fill: #1f77b4"/>
   </g>
   <g id="patch_32">
    <path d="M 157.483636 252 
L 160.527273 252 
L 160.527273 73.861751 
L 157.483636 73.861751 
z
" clip-path="url(#p5af798662d)" style="fill: #1f77b4"/>
   </g>
   <g id="patch_33">
    <path d="M 160.527273 252 
L 163.570909 252 
L 163.570909 100.582488 
L 160.527273 100.582488 
z
" clip-path="url(#p5af798662d)" style="fill: #1f77b4"/>
   </g>
   <g id="patch_34">
    <path d="M 163.570909 252 
L 166.614545 252 
L 166.614545 78.315207 
L 163.570909 78.315207 
z
" clip-path="url(#p5af798662d)" style="fill: #1f77b4"/>
   </g>
   <g id="patch_35">
    <path d="M 166.614545 252 
L 169.658182 252 
L 169.658182 76.088479 
L 166.614545 76.088479 
z
" clip-path="url(#p5af798662d)" style="fill: #1f77b4"/>
   </g>
   <g id="patch_36">
    <path d="M 169.658182 252 
L 172.701818 252 
L 172.701818 89.448848 
L 169.658182 89.448848 
z
" clip-path="url(#p5af798662d)" style="fill: #1f77b4"/>
   </g>
   <g id="patch_37">
    <path d="M 172.701818 252 
L 175.745455 252 
L 175.745455 71.635023 
L 172.701818 71.635023 
z
" clip-path="url(#p5af798662d)" style="fill: #1f77b4"/>
   </g>
   <g id="patch_38">
    <path d="M 175.745455 252 
L 178.789091 252 
L 178.789091 60.501382 
L 175.745455 60.501382 
z
" clip-path="url(#p5af798662d)" style="fill: #1f77b4"/>
   </g>
   <g id="patch_39">
    <path d="M 178.789091 252 
L 181.832727 252 
L 181.832727 87.22212 
L 178.789091 87.22212 
z
" clip-path="url(#p5af798662d)" style="fill: #1f77b4"/>
   </g>
   <g id="patch_40">
    <path d="M 181.832727 252 
L 184.876364 252 
L 184.876364 89.448848 
L 181.832727 89.448848 
z
" clip-path="url(#p5af798662d)" style="fill: #1f77b4"/>
   </g>
   <g id="patch_41">
    <path d="M 184.876364 252 
L 187.92 252 
L 187.92 91.675576 
L 184.876364 91.675576 
z
" clip-path="url(#p5af798662d)" style="fill: #1f77b4"/>
   </g>
   <g id="patch_42">
    <path d="M 187.92 252 
L 190.963636 252 
L 190.963636 64.954839 
L 187.92 64.954839 
z
" clip-path="url(#p5af798662d)" style="fill: #1f77b4"/>
   </g>
   <g id="patch_43">
    <path d="M 190.963636 252 
L 194.007273 252 
L 194.007273 111.716129 
L 190.963636 111.716129 
z
" clip-path="url(#p5af798662d)" style="fill: #1f77b4"/>
   </g>
   <g id="patch_44">
    <path d="M 194.007273 252 
L 197.050909 252 
L 197.050909 60.501382 
L 194.007273 60.501382 
z
" clip-path="url(#p5af798662d)" style="fill: #1f77b4"/>
   </g>
   <g id="patch_45">
    <path d="M 197.050909 252 
L 200.094545 252 
L 200.094545 80.541935 
L 197.050909 80.541935 
z
" clip-path="url(#p5af798662d)" style="fill: #1f77b4"/>
   </g>
   <g id="patch_46">
    <path d="M 200.094545 252 
L 203.138182 252 
L 203.138182 87.22212 
L 200.094545 87.22212 
z
" clip-path="url(#p5af798662d)" style="fill: #1f77b4"/>
   </g>
   <g id="patch_47">
    <path d="M 203.138182 252 
L 206.181818 252 
L 206.181818 78.315207 
L 203.138182 78.315207 
z
" clip-path="url(#p5af798662d)" style="fill: #1f77b4"/>
   </g>
   <g id="patch_48">
    <path d="M 206.181818 252 
L 209.225455 252 
L 209.225455 69.408295 
L 206.181818 69.408295 
z
" clip-path="url(#p5af798662d)" style="fill: #1f77b4"/>
   </g>
   <g id="patch_49">
    <path d="M 209.225455 252 
L 212.269091 252 
L 212.269091 87.22212 
L 209.225455 87.22212 
z
" clip-path="url(#p5af798662d)" style="fill: #1f77b4"/>
   </g>
   <g id="patch_50">
    <path d="M 212.269091 252 
L 215.312727 252 
L 215.312727 116.169585 
L 212.269091 116.169585 
z
" clip-path="url(#p5af798662d)" style="fill: #1f77b4"/>
   </g>
   <g id="patch_51">
    <path d="M 215.312727 252 
L 218.356364 252 
L 218.356364 82.768664 
L 215.312727 82.768664 
z
" clip-path="url(#p5af798662d)" style="fill: #1f77b4"/>
   </g>
   <g id="patch_52">
    <path d="M 218.356364 252 
L 221.4 252 
L 221.4 98.35576 
L 218.356364 98.35576 
z
" clip-path="url(#p5af798662d)" style="fill: #1f77b4"/>
   </g>
   <g id="patch_53">
    <path d="M 221.4 252 
L 224.443636 252 
L 224.443636 116.169585 
L 221.4 116.169585 
z
" clip-path="url(#p5af798662d)" style="fill: #1f77b4"/>
   </g>
   <g id="patch_54">
    <path d="M 224.443636 252 
L 227.487273 252 
L 227.487273 62.728111 
L 224.443636 62.728111 
z
" clip-path="url(#p5af798662d)" style="fill: #1f77b4"/>
   </g>
   <g id="patch_55">
    <path d="M 227.487273 252 
L 230.530909 252 
L 230.530909 76.088479 
L 227.487273 76.088479 
z
" clip-path="url(#p5af798662d)" style="fill: #1f77b4"/>
   </g>
   <g id="patch_56">
    <path d="M 230.530909 252 
L 233.574545 252 
L 233.574545 53.821198 
L 230.530909 53.821198 
z
" clip-path="url(#p5af798662d)" style="fill: #1f77b4"/>
   </g>
   <g id="patch_57">
    <path d="M 233.574545 252 
L 236.618182 252 
L 236.618182 102.809217 
L 233.574545 102.809217 
z
" clip-path="url(#p5af798662d)" style="fill: #1f77b4"/>
   </g>
   <g id="patch_58">
    <path d="M 236.618182 252 
L 239.661818 252 
L 239.661818 105.035945 
L 236.618182 105.035945 
z
" clip-path="url(#p5af798662d)" style="fill: #1f77b4"/>
   </g>
   <g id="patch_59">
    <path d="M 239.661818 252 
L 242.705455 252 
L 242.705455 98.35576 
L 239.661818 98.35576 
z
" clip-path="url(#p5af798662d)" style="fill: #1f77b4"/>
   </g>
   <g id="patch_60">
    <path d="M 242.705455 252 
L 245.749091 252 
L 245.749091 76.088479 
L 242.705455 76.088479 
z
" clip-path="url(#p5af798662d)" style="fill: #1f77b4"/>
   </g>
   <g id="patch_61">
    <path d="M 245.749091 252 
L 248.792727 252 
L 248.792727 93.902304 
L 245.749091 93.902304 
z
" clip-path="url(#p5af798662d)" style="fill: #1f77b4"/>
   </g>
   <g id="patch_62">
    <path d="M 248.792727 252 
L 251.836364 252 
L 251.836364 93.902304 
L 248.792727 93.902304 
z
" clip-path="url(#p5af798662d)" style="fill: #1f77b4"/>
   </g>
   <g id="patch_63">
    <path d="M 251.836364 252 
L 254.88 252 
L 254.88 109.489401 
L 251.836364 109.489401 
z
" clip-path="url(#p5af798662d)" style="fill: #1f77b4"/>
   </g>
   <g id="patch_64">
    <path d="M 254.88 252 
L 257.923636 252 
L 257.923636 111.716129 
L 254.88 111.716129 
z
" clip-path="url(#p5af798662d)" style="fill: #1f77b4"/>
   </g>
   <g id="patch_65">
    <path d="M 257.923636 252 
L 260.967273 252 
L 260.967273 89.448848 
L 257.923636 89.448848 
z
" clip-path="url(#p5af798662d)" style="fill: #1f77b4"/>
   </g>
   <g id="patch_66">
    <path d="M 260.967273 252 
L 264.010909 252 
L 264.010909 91.675576 
L 260.967273 91.675576 
z
" clip-path="url(#p5af798662d)" style="fill: #1f77b4"/>
   </g>
   <g id="patch_67">
    <path d="M 264.010909 252 
L 267.054545 252 
L 267.054545 111.716129 
L 264.010909 111.716129 
z
" clip-path="url(#p5af798662d)" style="fill: #1f77b4"/>
   </g>
   <g id="patch_68">
    <path d="M 267.054545 252 
L 270.098182 252 
L 270.098182 118.396313 
L 267.054545 118.396313 
z
" clip-path="url(#p5af798662d)" style="fill: #1f77b4"/>
   </g>
   <g id="patch_69">
    <path d="M 270.098182 252 
L 273.141818 252 
L 273.141818 76.088479 
L 270.098182 76.088479 
z
" clip-path="url(#p5af798662d)" style="fill: #1f77b4"/>
   </g>
   <g id="patch_70">
    <path d="M 273.141818 252 
L 276.185455 252 
L 276.185455 44.914286 
L 273.141818 44.914286 
z
" clip-path="url(#p5af798662d)" style="fill: #1f77b4"/>
   </g>
   <g id="patch_71">
    <path d="M 276.185455 252 
L 279.229091 252 
L 279.229091 84.995392 
L 276.185455 84.995392 
z
" clip-path="url(#p5af798662d)" style="fill: #1f77b4"/>
   </g>
   <g id="patch_72">
    <path d="M 279.229091 252 
L 282.272727 252 
L 282.272727 91.675576 
L 279.229091 91.675576 
z
" clip-path="url(#p5af798662d)" style="fill: #1f77b4"/>
   </g>
   <g id="patch_73">
    <path d="M 282.272727 252 
L 285.316364 252 
L 285.316364 80.541935 
L 282.272727 80.541935 
z
" clip-path="url(#p5af798662d)" style="fill: #1f77b4"/>
   </g>
   <g id="patch_74">
    <path d="M 285.316364 252 
L 288.36 252 
L 288.36 129.529954 
L 285.316364 129.529954 
z
" clip-path="url(#p5af798662d)" style="fill: #1f77b4"/>
   </g>
   <g id="patch_75">
    <path d="M 288.36 252 
L 291.403636 252 
L 291.403636 73.861751 
L 288.36 73.861751 
z
" clip-path="url(#p5af798662d)" style="fill: #1f77b4"/>
   </g>
   <g id="patch_76">
    <path d="M 291.403636 252 
L 294.447273 252 
L 294.447273 111.716129 
L 291.403636 111.716129 
z
" clip-path="url(#p5af798662d)" style="fill: #1f77b4"/>
   </g>
   <g id="patch_77">
    <path d="M 294.447273 252 
L 297.490909 252 
L 297.490909 125.076498 
L 294.447273 125.076498 
z
" clip-path="url(#p5af798662d)" style="fill: #1f77b4"/>
   </g>
   <g id="patch_78">
    <path d="M 297.490909 252 
L 300.534545 252 
L 300.534545 118.396313 
L 297.490909 118.396313 
z
" clip-path="url(#p5af798662d)" style="fill: #1f77b4"/>
   </g>
   <g id="patch_79">
    <path d="M 300.534545 252 
L 303.578182 252 
L 303.578182 129.529954 
L 300.534545 129.529954 
z
" clip-path="url(#p5af798662d)" style="fill: #1f77b4"/>
   </g>
   <g id="patch_80">
    <path d="M 303.578182 252 
L 306.621818 252 
L 306.621818 120.623041 
L 303.578182 120.623041 
z
" clip-path="url(#p5af798662d)" style="fill: #1f77b4"/>
   </g>
   <g id="patch_81">
    <path d="M 306.621818 252 
L 309.665455 252 
L 309.665455 100.582488 
L 306.621818 100.582488 
z
" clip-path="url(#p5af798662d)" style="fill: #1f77b4"/>
   </g>
   <g id="patch_82">
    <path d="M 309.665455 252 
L 312.709091 252 
L 312.709091 109.489401 
L 309.665455 109.489401 
z
" clip-path="url(#p5af798662d)" style="fill: #1f77b4"/>
   </g>
   <g id="patch_83">
    <path d="M 312.709091 252 
L 315.752727 252 
L 315.752727 165.157604 
L 312.709091 165.157604 
z
" clip-path="url(#p5af798662d)" style="fill: #1f77b4"/>
   </g>
   <g id="patch_84">
    <path d="M 315.752727 252 
L 318.796364 252 
L 318.796364 138.436866 
L 315.752727 138.436866 
z
" clip-path="url(#p5af798662d)" style="fill: #1f77b4"/>
   </g>
   <g id="patch_85">
    <path d="M 318.796364 252 
L 321.84 252 
L 321.84 133.98341 
L 318.796364 133.98341 
z
" clip-path="url(#p5af798662d)" style="fill: #1f77b4"/>
   </g>
   <g id="patch_86">
    <path d="M 321.84 252 
L 324.883636 252 
L 324.883636 154.023963 
L 321.84 154.023963 
z
" clip-path="url(#p5af798662d)" style="fill: #1f77b4"/>
   </g>
   <g id="patch_87">
    <path d="M 324.883636 252 
L 327.927273 252 
L 327.927273 174.064516 
L 324.883636 174.064516 
z
" clip-path="url(#p5af798662d)" style="fill: #1f77b4"/>
   </g>
   <g id="patch_88">
    <path d="M 327.927273 252 
L 330.970909 252 
L 330.970909 147.343779 
L 327.927273 147.343779 
z
" clip-path="url(#p5af798662d)" style="fill: #1f77b4"/>
   </g>
   <g id="patch_89">
    <path d="M 330.970909 252 
L 334.014545 252 
L 334.014545 133.98341 
L 330.970909 133.98341 
z
" clip-path="url(#p5af798662d)" style="fill: #1f77b4"/>
   </g>
   <g id="patch_90">
    <path d="M 334.014545 252 
L 337.058182 252 
L 337.058182 154.023963 
L 334.014545 154.023963 
z
" clip-path="url(#p5af798662d)" style="fill: #1f77b4"/>
   </g>
   <g id="patch_91">
    <path d="M 337.058182 252 
L 340.101818 252 
L 340.101818 142.890323 
L 337.058182 142.890323 
z
" clip-path="url(#p5af798662d)" style="fill: #1f77b4"/>
   </g>
   <g id="patch_92">
    <path d="M 340.101818 252 
L 343.145455 252 
L 343.145455 133.98341 
L 340.101818 133.98341 
z
" clip-path="url(#p5af798662d)" style="fill: #1f77b4"/>
   </g>
   <g id="patch_93">
    <path d="M 343.145455 252 
L 346.189091 252 
L 346.189091 171.837788 
L 343.145455 171.837788 
z
" clip-path="url(#p5af798662d)" style="fill: #1f77b4"/>
   </g>
   <g id="patch_94">
    <path d="M 346.189091 252 
L 349.232727 252 
L 349.232727 169.61106 
L 346.189091 169.61106 
z
" clip-path="url(#p5af798662d)" style="fill: #1f77b4"/>
   </g>
   <g id="patch_95">
    <path d="M 349.232727 252 
L 352.276364 252 
L 352.276364 174.064516 
L 349.232727 174.064516 
z
" clip-path="url(#p5af798662d)" style="fill: #1f77b4"/>
   </g>
   <g id="patch_96">
    <path d="M 352.276364 252 
L 355.32 252 
L 355.32 180.7447 
L 352.276364 180.7447 
z
" clip-path="url(#p5af798662d)" style="fill: #1f77b4"/>
   </g>
   <g id="patch_97">
    <path d="M 355.32 252 
L 358.363636 252 
L 358.363636 198.558525 
L 355.32 198.558525 
z
" clip-path="url(#p5af798662d)" style="fill: #1f77b4"/>
   </g>
   <g id="patch_98">
    <path d="M 358.363636 252 
L 361.407273 252 
L 361.407273 185.198157 
L 358.363636 185.198157 
z
" clip-path="url(#p5af798662d)" style="fill: #1f77b4"/>
   </g>
   <g id="patch_99">
    <path d="M 361.407273 252 
L 364.450909 252 
L 364.450909 214.145622 
L 361.407273 214.145622 
z
" clip-path="url(#p5af798662d)" style="fill: #1f77b4"/>
   </g>
   <g id="patch_100">
    <path d="M 364.450909 252 
L 367.494545 252 
L 367.494545 174.064516 
L 364.450909 174.064516 
z
" clip-path="url(#p5af798662d)" style="fill: #1f77b4"/>
   </g>
   <g id="patch_101">
    <path d="M 367.494545 252 
L 370.538182 252 
L 370.538182 203.011982 
L 367.494545 203.011982 
z
" clip-path="url(#p5af798662d)" style="fill: #1f77b4"/>
   </g>
   <g id="patch_102">
    <path d="M 370.538182 252 
L 373.581818 252 
L 373.581818 220.825806 
L 370.538182 220.825806 
z
" clip-path="url(#p5af798662d)" style="fill: #1f77b4"/>
   </g>
   <g id="matplotlib.axis_1">
    <g id="xtick_1">
     <g id="line2d_1">
      <defs>
       <path id="mdb52242d7b" d="M 0 0 
L 0 3.5 
" style="stroke: #000000; stroke-width: 0.8"/>
      </defs>
      <g>
       <use xlink:href="#mdb52242d7b" x="68.872147" y="252" style="stroke: #000000; stroke-width: 0.8"/>
      </g>
     </g>
     <g id="text_1">
      <!-- −10000 -->
      <g transform="translate(48.776053 266.598437)scale(0.1 -0.1)">
       <defs>
        <path id="DejaVuSans-2212" d="M 678 2272 
L 4684 2272 
L 4684 1741 
L 678 1741 
L 678 2272 
z
" transform="scale(0.015625)"/>
        <path id="DejaVuSans-31" d="M 794 531 
L 1825 531 
L 1825 4091 
L 703 3866 
L 703 4441 
L 1819 4666 
L 2450 4666 
L 2450 531 
L 3481 531 
L 3481 0 
L 794 0 
L 794 531 
z
" transform="scale(0.015625)"/>
        <path id="DejaVuSans-30" d="M 2034 4250 
Q 1547 4250 1301 3770 
Q 1056 3291 1056 2328 
Q 1056 1369 1301 889 
Q 1547 409 2034 409 
Q 2525 409 2770 889 
Q 3016 1369 3016 2328 
Q 3016 3291 2770 3770 
Q 2525 4250 2034 4250 
z
M 2034 4750 
Q 2819 4750 3233 4129 
Q 3647 3509 3647 2328 
Q 3647 1150 3233 529 
Q 2819 -91 2034 -91 
Q 1250 -91 836 529 
Q 422 1150 422 2328 
Q 422 3509 836 4129 
Q 1250 4750 2034 4750 
z
" transform="scale(0.015625)"/>
       </defs>
       <use xlink:href="#DejaVuSans-2212"/>
       <use xlink:href="#DejaVuSans-31" x="83.789062"/>
       <use xlink:href="#DejaVuSans-30" x="147.412109"/>
       <use xlink:href="#DejaVuSans-30" x="211.035156"/>
       <use xlink:href="#DejaVuSans-30" x="274.658203"/>
       <use xlink:href="#DejaVuSans-30" x="338.28125"/>
      </g>
     </g>
    </g>
    <g id="xtick_2">
     <g id="line2d_2">
      <g>
       <use xlink:href="#mdb52242d7b" x="106.962963" y="252" style="stroke: #000000; stroke-width: 0.8"/>
      </g>
     </g>
     <g id="text_2">
      <!-- −7500 -->
      <g transform="translate(90.048119 266.598437)scale(0.1 -0.1)">
       <defs>
        <path id="DejaVuSans-37" d="M 525 4666 
L 3525 4666 
L 3525 4397 
L 1831 0 
L 1172 0 
L 2766 4134 
L 525 4134 
L 525 4666 
z
" transform="scale(0.015625)"/>
        <path id="DejaVuSans-35" d="M 691 4666 
L 3169 4666 
L 3169 4134 
L 1269 4134 
L 1269 2991 
Q 1406 3038 1543 3061 
Q 1681 3084 1819 3084 
Q 2600 3084 3056 2656 
Q 3513 2228 3513 1497 
Q 3513 744 3044 326 
Q 2575 -91 1722 -91 
Q 1428 -91 1123 -41 
Q 819 9 494 109 
L 494 744 
Q 775 591 1075 516 
Q 1375 441 1709 441 
Q 2250 441 2565 725 
Q 2881 1009 2881 1497 
Q 2881 1984 2565 2268 
Q 2250 2553 1709 2553 
Q 1456 2553 1204 2497 
Q 953 2441 691 2322 
L 691 4666 
z
" transform="scale(0.015625)"/>
       </defs>
       <use xlink:href="#DejaVuSans-2212"/>
       <use xlink:href="#DejaVuSans-37" x="83.789062"/>
       <use xlink:href="#DejaVuSans-35" x="147.412109"/>
       <use xlink:href="#DejaVuSans-30" x="211.035156"/>
       <use xlink:href="#DejaVuSans-30" x="274.658203"/>
      </g>
     </g>
    </g>
    <g id="xtick_3">
     <g id="line2d_3">
      <g>
       <use xlink:href="#mdb52242d7b" x="145.053779" y="252" style="stroke: #000000; stroke-width: 0.8"/>
      </g>
     </g>
     <g id="text_3">
      <!-- −5000 -->
      <g transform="translate(128.138935 266.598437)scale(0.1 -0.1)">
       <use xlink:href="#DejaVuSans-2212"/>
       <use xlink:href="#DejaVuSans-35" x="83.789062"/>
       <use xlink:href="#DejaVuSans-30" x="147.412109"/>
       <use xlink:href="#DejaVuSans-30" x="211.035156"/>
       <use xlink:href="#DejaVuSans-30" x="274.658203"/>
      </g>
     </g>
    </g>
    <g id="xtick_4">
     <g id="line2d_4">
      <g>
       <use xlink:href="#mdb52242d7b" x="183.144595" y="252" style="stroke: #000000; stroke-width: 0.8"/>
      </g>
     </g>
     <g id="text_4">
      <!-- −2500 -->
      <g transform="translate(166.229751 266.598437)scale(0.1 -0.1)">
       <defs>
        <path id="DejaVuSans-32" d="M 1228 531 
L 3431 531 
L 3431 0 
L 469 0 
L 469 531 
Q 828 903 1448 1529 
Q 2069 2156 2228 2338 
Q 2531 2678 2651 2914 
Q 2772 3150 2772 3378 
Q 2772 3750 2511 3984 
Q 2250 4219 1831 4219 
Q 1534 4219 1204 4116 
Q 875 4013 500 3803 
L 500 4441 
Q 881 4594 1212 4672 
Q 1544 4750 1819 4750 
Q 2544 4750 2975 4387 
Q 3406 4025 3406 3419 
Q 3406 3131 3298 2873 
Q 3191 2616 2906 2266 
Q 2828 2175 2409 1742 
Q 1991 1309 1228 531 
z
" transform="scale(0.015625)"/>
       </defs>
       <use xlink:href="#DejaVuSans-2212"/>
       <use xlink:href="#DejaVuSans-32" x="83.789062"/>
       <use xlink:href="#DejaVuSans-35" x="147.412109"/>
       <use xlink:href="#DejaVuSans-30" x="211.035156"/>
       <use xlink:href="#DejaVuSans-30" x="274.658203"/>
      </g>
     </g>
    </g>
    <g id="xtick_5">
     <g id="line2d_5">
      <g>
       <use xlink:href="#mdb52242d7b" x="221.23541" y="252" style="stroke: #000000; stroke-width: 0.8"/>
      </g>
     </g>
     <g id="text_5">
      <!-- 0 -->
      <g transform="translate(218.05416 266.598437)scale(0.1 -0.1)">
       <use xlink:href="#DejaVuSans-30"/>
      </g>
     </g>
    </g>
    <g id="xtick_6">
     <g id="line2d_6">
      <g>
       <use xlink:href="#mdb52242d7b" x="259.326226" y="252" style="stroke: #000000; stroke-width: 0.8"/>
      </g>
     </g>
     <g id="text_6">
      <!-- 2500 -->
      <g transform="translate(246.601226 266.598437)scale(0.1 -0.1)">
       <use xlink:href="#DejaVuSans-32"/>
       <use xlink:href="#DejaVuSans-35" x="63.623047"/>
       <use xlink:href="#DejaVuSans-30" x="127.246094"/>
       <use xlink:href="#DejaVuSans-30" x="190.869141"/>
      </g>
     </g>
    </g>
    <g id="xtick_7">
     <g id="line2d_7">
      <g>
       <use xlink:href="#mdb52242d7b" x="297.417042" y="252" style="stroke: #000000; stroke-width: 0.8"/>
      </g>
     </g>
     <g id="text_7">
      <!-- 5000 -->
      <g transform="translate(284.692042 266.598437)scale(0.1 -0.1)">
       <use xlink:href="#DejaVuSans-35"/>
       <use xlink:href="#DejaVuSans-30" x="63.623047"/>
       <use xlink:href="#DejaVuSans-30" x="127.246094"/>
       <use xlink:href="#DejaVuSans-30" x="190.869141"/>
      </g>
     </g>
    </g>
    <g id="xtick_8">
     <g id="line2d_8">
      <g>
       <use xlink:href="#mdb52242d7b" x="335.507858" y="252" style="stroke: #000000; stroke-width: 0.8"/>
      </g>
     </g>
     <g id="text_8">
      <!-- 7500 -->
      <g transform="translate(322.782858 266.598437)scale(0.1 -0.1)">
       <use xlink:href="#DejaVuSans-37"/>
       <use xlink:href="#DejaVuSans-35" x="63.623047"/>
       <use xlink:href="#DejaVuSans-30" x="127.246094"/>
       <use xlink:href="#DejaVuSans-30" x="190.869141"/>
      </g>
     </g>
    </g>
    <g id="xtick_9">
     <g id="line2d_9">
      <g>
       <use xlink:href="#mdb52242d7b" x="373.598674" y="252" style="stroke: #000000; stroke-width: 0.8"/>
      </g>
     </g>
     <g id="text_9">
      <!-- 10000 -->
      <g transform="translate(357.692424 266.598437)scale(0.1 -0.1)">
       <use xlink:href="#DejaVuSans-31"/>
       <use xlink:href="#DejaVuSans-30" x="63.623047"/>
       <use xlink:href="#DejaVuSans-30" x="127.246094"/>
       <use xlink:href="#DejaVuSans-30" x="190.869141"/>
       <use xlink:href="#DejaVuSans-30" x="254.492188"/>
      </g>
     </g>
    </g>
    <g id="text_10">
     <!-- Masse (GeV) -->
     <g transform="translate(189.874219 280.276563)scale(0.1 -0.1)">
      <defs>
       <path id="DejaVuSans-4d" d="M 628 4666 
L 1569 4666 
L 2759 1491 
L 3956 4666 
L 4897 4666 
L 4897 0 
L 4281 0 
L 4281 4097 
L 3078 897 
L 2444 897 
L 1241 4097 
L 1241 0 
L 628 0 
L 628 4666 
z
" transform="scale(0.015625)"/>
       <path id="DejaVuSans-61" d="M 2194 1759 
Q 1497 1759 1228 1600 
Q 959 1441 959 1056 
Q 959 750 1161 570 
Q 1363 391 1709 391 
Q 2188 391 2477 730 
Q 2766 1069 2766 1631 
L 2766 1759 
L 2194 1759 
z
M 3341 1997 
L 3341 0 
L 2766 0 
L 2766 531 
Q 2569 213 2275 61 
Q 1981 -91 1556 -91 
Q 1019 -91 701 211 
Q 384 513 384 1019 
Q 384 1609 779 1909 
Q 1175 2209 1959 2209 
L 2766 2209 
L 2766 2266 
Q 2766 2663 2505 2880 
Q 2244 3097 1772 3097 
Q 1472 3097 1187 3025 
Q 903 2953 641 2809 
L 641 3341 
Q 956 3463 1253 3523 
Q 1550 3584 1831 3584 
Q 2591 3584 2966 3190 
Q 3341 2797 3341 1997 
z
" transform="scale(0.015625)"/>
       <path id="DejaVuSans-73" d="M 2834 3397 
L 2834 2853 
Q 2591 2978 2328 3040 
Q 2066 3103 1784 3103 
Q 1356 3103 1142 2972 
Q 928 2841 928 2578 
Q 928 2378 1081 2264 
Q 1234 2150 1697 2047 
L 1894 2003 
Q 2506 1872 2764 1633 
Q 3022 1394 3022 966 
Q 3022 478 2636 193 
Q 2250 -91 1575 -91 
Q 1294 -91 989 -36 
Q 684 19 347 128 
L 347 722 
Q 666 556 975 473 
Q 1284 391 1588 391 
Q 1994 391 2212 530 
Q 2431 669 2431 922 
Q 2431 1156 2273 1281 
Q 2116 1406 1581 1522 
L 1381 1569 
Q 847 1681 609 1914 
Q 372 2147 372 2553 
Q 372 3047 722 3315 
Q 1072 3584 1716 3584 
Q 2034 3584 2315 3537 
Q 2597 3491 2834 3397 
z
" transform="scale(0.015625)"/>
       <path id="DejaVuSans-65" d="M 3597 1894 
L 3597 1613 
L 953 1613 
Q 991 1019 1311 708 
Q 1631 397 2203 397 
Q 2534 397 2845 478 
Q 3156 559 3463 722 
L 3463 178 
Q 3153 47 2828 -22 
Q 2503 -91 2169 -91 
Q 1331 -91 842 396 
Q 353 884 353 1716 
Q 353 2575 817 3079 
Q 1281 3584 2069 3584 
Q 2775 3584 3186 3129 
Q 3597 2675 3597 1894 
z
M 3022 2063 
Q 3016 2534 2758 2815 
Q 2500 3097 2075 3097 
Q 1594 3097 1305 2825 
Q 1016 2553 972 2059 
L 3022 2063 
z
" transform="scale(0.015625)"/>
       <path id="DejaVuSans-20" transform="scale(0.015625)"/>
       <path id="DejaVuSans-28" d="M 1984 4856 
Q 1566 4138 1362 3434 
Q 1159 2731 1159 2009 
Q 1159 1288 1364 580 
Q 1569 -128 1984 -844 
L 1484 -844 
Q 1016 -109 783 600 
Q 550 1309 550 2009 
Q 550 2706 781 3412 
Q 1013 4119 1484 4856 
L 1984 4856 
z
" transform="scale(0.015625)"/>
       <path id="DejaVuSans-47" d="M 3809 666 
L 3809 1919 
L 2778 1919 
L 2778 2438 
L 4434 2438 
L 4434 434 
Q 4069 175 3628 42 
Q 3188 -91 2688 -91 
Q 1594 -91 976 548 
Q 359 1188 359 2328 
Q 359 3472 976 4111 
Q 1594 4750 2688 4750 
Q 3144 4750 3555 4637 
Q 3966 4525 4313 4306 
L 4313 3634 
Q 3963 3931 3569 4081 
Q 3175 4231 2741 4231 
Q 1884 4231 1454 3753 
Q 1025 3275 1025 2328 
Q 1025 1384 1454 906 
Q 1884 428 2741 428 
Q 3075 428 3337 486 
Q 3600 544 3809 666 
z
" transform="scale(0.015625)"/>
       <path id="DejaVuSans-56" d="M 1831 0 
L 50 4666 
L 709 4666 
L 2188 738 
L 3669 4666 
L 4325 4666 
L 2547 0 
L 1831 0 
z
" transform="scale(0.015625)"/>
       <path id="DejaVuSans-29" d="M 513 4856 
L 1013 4856 
Q 1481 4119 1714 3412 
Q 1947 2706 1947 2009 
Q 1947 1309 1714 600 
Q 1481 -109 1013 -844 
L 513 -844 
Q 928 -128 1133 580 
Q 1338 1288 1338 2009 
Q 1338 2731 1133 3434 
Q 928 4138 513 4856 
z
" transform="scale(0.015625)"/>
      </defs>
      <use xlink:href="#DejaVuSans-4d"/>
      <use xlink:href="#DejaVuSans-61" x="86.279297"/>
      <use xlink:href="#DejaVuSans-73" x="147.558594"/>
      <use xlink:href="#DejaVuSans-73" x="199.658203"/>
      <use xlink:href="#DejaVuSans-65" x="251.757812"/>
      <use xlink:href="#DejaVuSans-20" x="313.28125"/>
      <use xlink:href="#DejaVuSans-28" x="345.068359"/>
      <use xlink:href="#DejaVuSans-47" x="384.082031"/>
      <use xlink:href="#DejaVuSans-65" x="461.572266"/>
      <use xlink:href="#DejaVuSans-56" x="523.095703"/>
      <use xlink:href="#DejaVuSans-29" x="591.503906"/>
     </g>
    </g>
   </g>
   <g id="matplotlib.axis_2">
    <g id="ytick_1">
     <g id="line2d_10">
      <defs>
       <path id="m580b334d92" d="M 0 0 
L -3.5 0 
" style="stroke: #000000; stroke-width: 0.8"/>
      </defs>
      <g>
       <use xlink:href="#m580b334d92" x="54" y="252" style="stroke: #000000; stroke-width: 0.8"/>
      </g>
     </g>
     <g id="text_11">
      <!-- 0 -->
      <g transform="translate(40.6375 255.799219)scale(0.1 -0.1)">
       <use xlink:href="#DejaVuSans-30"/>
      </g>
     </g>
    </g>
    <g id="ytick_2">
     <g id="line2d_11">
      <g>
       <use xlink:href="#m580b334d92" x="54" y="207.465438" style="stroke: #000000; stroke-width: 0.8"/>
      </g>
     </g>
     <g id="text_12">
      <!-- 20 -->
      <g transform="translate(34.275 211.264657)scale(0.1 -0.1)">
       <use xlink:href="#DejaVuSans-32"/>
       <use xlink:href="#DejaVuSans-30" x="63.623047"/>
      </g>
     </g>
    </g>
    <g id="ytick_3">
     <g id="line2d_12">
      <g>
       <use xlink:href="#m580b334d92" x="54" y="162.930876" style="stroke: #000000; stroke-width: 0.8"/>
      </g>
     </g>
     <g id="text_13">
      <!-- 40 -->
      <g transform="translate(34.275 166.730094)scale(0.1 -0.1)">
       <defs>
        <path id="DejaVuSans-34" d="M 2419 4116 
L 825 1625 
L 2419 1625 
L 2419 4116 
z
M 2253 4666 
L 3047 4666 
L 3047 1625 
L 3713 1625 
L 3713 1100 
L 3047 1100 
L 3047 0 
L 2419 0 
L 2419 1100 
L 313 1100 
L 313 1709 
L 2253 4666 
z
" transform="scale(0.015625)"/>
       </defs>
       <use xlink:href="#DejaVuSans-34"/>
       <use xlink:href="#DejaVuSans-30" x="63.623047"/>
      </g>
     </g>
    </g>
    <g id="ytick_4">
     <g id="line2d_13">
      <g>
       <use xlink:href="#m580b334d92" x="54" y="118.396313" style="stroke: #000000; stroke-width: 0.8"/>
      </g>
     </g>
     <g id="text_14">
      <!-- 60 -->
      <g transform="translate(34.275 122.195532)scale(0.1 -0.1)">
       <defs>
        <path id="DejaVuSans-36" d="M 2113 2584 
Q 1688 2584 1439 2293 
Q 1191 2003 1191 1497 
Q 1191 994 1439 701 
Q 1688 409 2113 409 
Q 2538 409 2786 701 
Q 3034 994 3034 1497 
Q 3034 2003 2786 2293 
Q 2538 2584 2113 2584 
z
M 3366 4563 
L 3366 3988 
Q 3128 4100 2886 4159 
Q 2644 4219 2406 4219 
Q 1781 4219 1451 3797 
Q 1122 3375 1075 2522 
Q 1259 2794 1537 2939 
Q 1816 3084 2150 3084 
Q 2853 3084 3261 2657 
Q 3669 2231 3669 1497 
Q 3669 778 3244 343 
Q 2819 -91 2113 -91 
Q 1303 -91 875 529 
Q 447 1150 447 2328 
Q 447 3434 972 4092 
Q 1497 4750 2381 4750 
Q 2619 4750 2861 4703 
Q 3103 4656 3366 4563 
z
" transform="scale(0.015625)"/>
       </defs>
       <use xlink:href="#DejaVuSans-36"/>
       <use xlink:href="#DejaVuSans-30" x="63.623047"/>
      </g>
     </g>
    </g>
    <g id="ytick_5">
     <g id="line2d_14">
      <g>
       <use xlink:href="#m580b334d92" x="54" y="73.861751" style="stroke: #000000; stroke-width: 0.8"/>
      </g>
     </g>
     <g id="text_15">
      <!-- 80 -->
      <g transform="translate(34.275 77.66097)scale(0.1 -0.1)">
       <defs>
        <path id="DejaVuSans-38" d="M 2034 2216 
Q 1584 2216 1326 1975 
Q 1069 1734 1069 1313 
Q 1069 891 1326 650 
Q 1584 409 2034 409 
Q 2484 409 2743 651 
Q 3003 894 3003 1313 
Q 3003 1734 2745 1975 
Q 2488 2216 2034 2216 
z
M 1403 2484 
Q 997 2584 770 2862 
Q 544 3141 544 3541 
Q 544 4100 942 4425 
Q 1341 4750 2034 4750 
Q 2731 4750 3128 4425 
Q 3525 4100 3525 3541 
Q 3525 3141 3298 2862 
Q 3072 2584 2669 2484 
Q 3125 2378 3379 2068 
Q 3634 1759 3634 1313 
Q 3634 634 3220 271 
Q 2806 -91 2034 -91 
Q 1263 -91 848 271 
Q 434 634 434 1313 
Q 434 1759 690 2068 
Q 947 2378 1403 2484 
z
M 1172 3481 
Q 1172 3119 1398 2916 
Q 1625 2713 2034 2713 
Q 2441 2713 2670 2916 
Q 2900 3119 2900 3481 
Q 2900 3844 2670 4047 
Q 2441 4250 2034 4250 
Q 1625 4250 1398 4047 
Q 1172 3844 1172 3481 
z
" transform="scale(0.015625)"/>
       </defs>
       <use xlink:href="#DejaVuSans-38"/>
       <use xlink:href="#DejaVuSans-30" x="63.623047"/>
      </g>
     </g>
    </g>
    <g id="text_16">
     <!-- N -->
     <g transform="translate(28.195312 147.020625)rotate(-90)scale(0.1 -0.1)">
      <defs>
       <path id="DejaVuSans-4e" d="M 628 4666 
L 1478 4666 
L 3547 763 
L 3547 4666 
L 4159 4666 
L 4159 0 
L 3309 0 
L 1241 3903 
L 1241 0 
L 628 0 
L 628 4666 
z
" transform="scale(0.015625)"/>
      </defs>
      <use xlink:href="#DejaVuSans-4e"/>
     </g>
    </g>
   </g>
   <g id="patch_103">
    <path d="M 54 252 
L 54 34.56 
" style="fill: none; stroke: #000000; stroke-width: 0.8; stroke-linejoin: miter; stroke-linecap: square"/>
   </g>
   <g id="patch_104">
    <path d="M 388.8 252 
L 388.8 34.56 
" style="fill: none; stroke: #000000; stroke-width: 0.8; stroke-linejoin: miter; stroke-linecap: square"/>
   </g>
   <g id="patch_105">
    <path d="M 54 252 
L 388.8 252 
" style="fill: none; stroke: #000000; stroke-width: 0.8; stroke-linejoin: miter; stroke-linecap: square"/>
   </g>
   <g id="patch_106">
    <path d="M 54 34.56 
L 388.8 34.56 
" style="fill: none; stroke: #000000; stroke-width: 0.8; stroke-linejoin: miter; stroke-linecap: square"/>
   </g>
   <g id="text_17">
    <!-- Histogramme de $T_{e33}$ -->
    <g transform="translate(157.62 28.56)scale(0.12 -0.12)">
     <defs>
      <path id="DejaVuSans-48" d="M 628 4666 
L 1259 4666 
L 1259 2753 
L 3553 2753 
L 3553 4666 
L 4184 4666 
L 4184 0 
L 3553 0 
L 3553 2222 
L 1259 2222 
L 1259 0 
L 628 0 
L 628 4666 
z
" transform="scale(0.015625)"/>
      <path id="DejaVuSans-69" d="M 603 3500 
L 1178 3500 
L 1178 0 
L 603 0 
L 603 3500 
z
M 603 4863 
L 1178 4863 
L 1178 4134 
L 603 4134 
L 603 4863 
z
" transform="scale(0.015625)"/>
      <path id="DejaVuSans-74" d="M 1172 4494 
L 1172 3500 
L 2356 3500 
L 2356 3053 
L 1172 3053 
L 1172 1153 
Q 1172 725 1289 603 
Q 1406 481 1766 481 
L 2356 481 
L 2356 0 
L 1766 0 
Q 1100 0 847 248 
Q 594 497 594 1153 
L 594 3053 
L 172 3053 
L 172 3500 
L 594 3500 
L 594 4494 
L 1172 4494 
z
" transform="scale(0.015625)"/>
      <path id="DejaVuSans-6f" d="M 1959 3097 
Q 1497 3097 1228 2736 
Q 959 2375 959 1747 
Q 959 1119 1226 758 
Q 1494 397 1959 397 
Q 2419 397 2687 759 
Q 2956 1122 2956 1747 
Q 2956 2369 2687 2733 
Q 2419 3097 1959 3097 
z
M 1959 3584 
Q 2709 3584 3137 3096 
Q 3566 2609 3566 1747 
Q 3566 888 3137 398 
Q 2709 -91 1959 -91 
Q 1206 -91 779 398 
Q 353 888 353 1747 
Q 353 2609 779 3096 
Q 1206 3584 1959 3584 
z
" transform="scale(0.015625)"/>
      <path id="DejaVuSans-67" d="M 2906 1791 
Q 2906 2416 2648 2759 
Q 2391 3103 1925 3103 
Q 1463 3103 1205 2759 
Q 947 2416 947 1791 
Q 947 1169 1205 825 
Q 1463 481 1925 481 
Q 2391 481 2648 825 
Q 2906 1169 2906 1791 
z
M 3481 434 
Q 3481 -459 3084 -895 
Q 2688 -1331 1869 -1331 
Q 1566 -1331 1297 -1286 
Q 1028 -1241 775 -1147 
L 775 -588 
Q 1028 -725 1275 -790 
Q 1522 -856 1778 -856 
Q 2344 -856 2625 -561 
Q 2906 -266 2906 331 
L 2906 616 
Q 2728 306 2450 153 
Q 2172 0 1784 0 
Q 1141 0 747 490 
Q 353 981 353 1791 
Q 353 2603 747 3093 
Q 1141 3584 1784 3584 
Q 2172 3584 2450 3431 
Q 2728 3278 2906 2969 
L 2906 3500 
L 3481 3500 
L 3481 434 
z
" transform="scale(0.015625)"/>
      <path id="DejaVuSans-72" d="M 2631 2963 
Q 2534 3019 2420 3045 
Q 2306 3072 2169 3072 
Q 1681 3072 1420 2755 
Q 1159 2438 1159 1844 
L 1159 0 
L 581 0 
L 581 3500 
L 1159 3500 
L 1159 2956 
Q 1341 3275 1631 3429 
Q 1922 3584 2338 3584 
Q 2397 3584 2469 3576 
Q 2541 3569 2628 3553 
L 2631 2963 
z
" transform="scale(0.015625)"/>
      <path id="DejaVuSans-6d" d="M 3328 2828 
Q 3544 3216 3844 3400 
Q 4144 3584 4550 3584 
Q 5097 3584 5394 3201 
Q 5691 2819 5691 2113 
L 5691 0 
L 5113 0 
L 5113 2094 
Q 5113 2597 4934 2840 
Q 4756 3084 4391 3084 
Q 3944 3084 3684 2787 
Q 3425 2491 3425 1978 
L 3425 0 
L 2847 0 
L 2847 2094 
Q 2847 2600 2669 2842 
Q 2491 3084 2119 3084 
Q 1678 3084 1418 2786 
Q 1159 2488 1159 1978 
L 1159 0 
L 581 0 
L 581 3500 
L 1159 3500 
L 1159 2956 
Q 1356 3278 1631 3431 
Q 1906 3584 2284 3584 
Q 2666 3584 2933 3390 
Q 3200 3197 3328 2828 
z
" transform="scale(0.015625)"/>
      <path id="DejaVuSans-64" d="M 2906 2969 
L 2906 4863 
L 3481 4863 
L 3481 0 
L 2906 0 
L 2906 525 
Q 2725 213 2448 61 
Q 2172 -91 1784 -91 
Q 1150 -91 751 415 
Q 353 922 353 1747 
Q 353 2572 751 3078 
Q 1150 3584 1784 3584 
Q 2172 3584 2448 3432 
Q 2725 3281 2906 2969 
z
M 947 1747 
Q 947 1113 1208 752 
Q 1469 391 1925 391 
Q 2381 391 2643 752 
Q 2906 1113 2906 1747 
Q 2906 2381 2643 2742 
Q 2381 3103 1925 3103 
Q 1469 3103 1208 2742 
Q 947 2381 947 1747 
z
" transform="scale(0.015625)"/>
      <path id="DejaVuSans-Oblique-54" d="M 378 4666 
L 4325 4666 
L 4225 4134 
L 2559 4134 
L 1759 0 
L 1125 0 
L 1925 4134 
L 275 4134 
L 378 4666 
z
" transform="scale(0.015625)"/>
      <path id="DejaVuSans-Oblique-65" d="M 3078 2063 
Q 3088 2113 3092 2166 
Q 3097 2219 3097 2272 
Q 3097 2653 2873 2875 
Q 2650 3097 2266 3097 
Q 1838 3097 1509 2826 
Q 1181 2556 1013 2059 
L 3078 2063 
z
M 3578 1613 
L 903 1613 
Q 884 1494 878 1425 
Q 872 1356 872 1306 
Q 872 872 1139 634 
Q 1406 397 1894 397 
Q 2269 397 2603 481 
Q 2938 566 3225 728 
L 3116 159 
Q 2806 34 2476 -28 
Q 2147 -91 1806 -91 
Q 1078 -91 686 257 
Q 294 606 294 1247 
Q 294 1794 489 2264 
Q 684 2734 1063 3103 
Q 1306 3334 1642 3459 
Q 1978 3584 2356 3584 
Q 2950 3584 3301 3228 
Q 3653 2872 3653 2272 
Q 3653 2128 3634 1964 
Q 3616 1800 3578 1613 
z
" transform="scale(0.015625)"/>
      <path id="DejaVuSans-33" d="M 2597 2516 
Q 3050 2419 3304 2112 
Q 3559 1806 3559 1356 
Q 3559 666 3084 287 
Q 2609 -91 1734 -91 
Q 1441 -91 1130 -33 
Q 819 25 488 141 
L 488 750 
Q 750 597 1062 519 
Q 1375 441 1716 441 
Q 2309 441 2620 675 
Q 2931 909 2931 1356 
Q 2931 1769 2642 2001 
Q 2353 2234 1838 2234 
L 1294 2234 
L 1294 2753 
L 1863 2753 
Q 2328 2753 2575 2939 
Q 2822 3125 2822 3475 
Q 2822 3834 2567 4026 
Q 2313 4219 1838 4219 
Q 1578 4219 1281 4162 
Q 984 4106 628 3988 
L 628 4550 
Q 988 4650 1302 4700 
Q 1616 4750 1894 4750 
Q 2613 4750 3031 4423 
Q 3450 4097 3450 3541 
Q 3450 3153 3228 2886 
Q 3006 2619 2597 2516 
z
" transform="scale(0.015625)"/>
     </defs>
     <use xlink:href="#DejaVuSans-48" transform="translate(0 0.015625)"/>
     <use xlink:href="#DejaVuSans-69" transform="translate(75.195312 0.015625)"/>
     <use xlink:href="#DejaVuSans-73" transform="translate(102.978516 0.015625)"/>
     <use xlink:href="#DejaVuSans-74" transform="translate(155.078125 0.015625)"/>
     <use xlink:href="#DejaVuSans-6f" transform="translate(194.287109 0.015625)"/>
     <use xlink:href="#DejaVuSans-67" transform="translate(255.46875 0.015625)"/>
     <use xlink:href="#DejaVuSans-72" transform="translate(318.945312 0.015625)"/>
     <use xlink:href="#DejaVuSans-61" transform="translate(360.058594 0.015625)"/>
     <use xlink:href="#DejaVuSans-6d" transform="translate(421.337891 0.015625)"/>
     <use xlink:href="#DejaVuSans-6d" transform="translate(518.75 0.015625)"/>
     <use xlink:href="#DejaVuSans-65" transform="translate(616.162109 0.015625)"/>
     <use xlink:href="#DejaVuSans-20" transform="translate(677.685547 0.015625)"/>
     <use xlink:href="#DejaVuSans-64" transform="translate(709.472656 0.015625)"/>
     <use xlink:href="#DejaVuSans-65" transform="translate(772.949219 0.015625)"/>
     <use xlink:href="#DejaVuSans-20" transform="translate(834.472656 0.015625)"/>
     <use xlink:href="#DejaVuSans-Oblique-54" transform="translate(866.259766 0.015625)"/>
     <use xlink:href="#DejaVuSans-Oblique-65" transform="translate(927.34375 -16.390625)scale(0.7)"/>
     <use xlink:href="#DejaVuSans-33" transform="translate(970.410156 -16.390625)scale(0.7)"/>
     <use xlink:href="#DejaVuSans-33" transform="translate(1014.946289 -16.390625)scale(0.7)"/>
    </g>
   </g>
  </g>
 </g>
 <defs>
  <clipPath id="p5af798662d">
   <rect x="54" y="34.56" width="334.8" height="217.44"/>
  </clipPath>
 </defs>
</svg>
