<?xml version="1.0" encoding="utf-8" standalone="no"?>
<!DOCTYPE svg PUBLIC "-//W3C//DTD SVG 1.1//EN"
  "http://www.w3.org/Graphics/SVG/1.1/DTD/svg11.dtd">
<svg xmlns:xlink="http://www.w3.org/1999/xlink" width="432pt" height="288pt" viewBox="0 0 432 288" xmlns="http://www.w3.org/2000/svg" version="1.1">
 <metadata>
  <rdf:RDF xmlns:dc="http://purl.org/dc/elements/1.1/" xmlns:cc="http://creativecommons.org/ns#" xmlns:rdf="http://www.w3.org/1999/02/22-rdf-syntax-ns#">
   <cc:Work>
    <dc:type rdf:resource="http://purl.org/dc/dcmitype/StillImage"/>
    <dc:date>2022-06-21T02:10:12.149899</dc:date>
    <dc:format>image/svg+xml</dc:format>
    <dc:creator>
     <cc:Agent>
      <dc:title>Matplotlib v3.5.0, https://matplotlib.org/</dc:title>
     </cc:Agent>
    </dc:creator>
   </cc:Work>
  </rdf:RDF>
 </metadata>
 <defs>
  <style type="text/css">*{stroke-linejoin: round; stroke-linecap: butt}</style>
 </defs>
 <g id="figure_1">
  <g id="patch_1">
   <path d="M 0 288 
L 432 288 
L 432 0 
L 0 0 
L 0 288 
z
" style="fill: none"/>
  </g>
  <g id="axes_1">
   <g id="patch_2">
    <path d="M 54 252 
L 388.8 252 
L 388.8 34.56 
L 54 34.56 
z
" style="fill: #ffffff"/>
   </g>
   <g id="patch_3">
    <path d="M 69.218182 252 
L 72.261818 252 
L 72.261818 234.464516 
L 69.218182 234.464516 
z
" clip-path="url(#p6a5d1a86d5)" style="fill: #1f77b4"/>
   </g>
   <g id="patch_4">
    <path d="M 72.261818 252 
L 75.305455 252 
L 75.305455 241.1447 
L 72.261818 241.1447 
z
" clip-path="url(#p6a5d1a86d5)" style="fill: #1f77b4"/>
   </g>
   <g id="patch_5">
    <path d="M 75.305455 252 
L 78.349091 252 
L 78.349091 236.969585 
L 75.305455 236.969585 
z
" clip-path="url(#p6a5d1a86d5)" style="fill: #1f77b4"/>
   </g>
   <g id="patch_6">
    <path d="M 78.349091 252 
L 81.392727 252 
L 81.392727 238.639631 
L 78.349091 238.639631 
z
" clip-path="url(#p6a5d1a86d5)" style="fill: #1f77b4"/>
   </g>
   <g id="patch_7">
    <path d="M 81.392727 252 
L 84.436364 252 
L 84.436364 234.464516 
L 81.392727 234.464516 
z
" clip-path="url(#p6a5d1a86d5)" style="fill: #1f77b4"/>
   </g>
   <g id="patch_8">
    <path d="M 84.436364 252 
L 87.48 252 
L 87.48 236.969585 
L 84.436364 236.969585 
z
" clip-path="url(#p6a5d1a86d5)" style="fill: #1f77b4"/>
   </g>
   <g id="patch_9">
    <path d="M 87.48 252 
L 90.523636 252 
L 90.523636 229.454378 
L 87.48 229.454378 
z
" clip-path="url(#p6a5d1a86d5)" style="fill: #1f77b4"/>
   </g>
   <g id="patch_10">
    <path d="M 90.523636 252 
L 93.567273 252 
L 93.567273 237.804608 
L 90.523636 237.804608 
z
" clip-path="url(#p6a5d1a86d5)" style="fill: #1f77b4"/>
   </g>
   <g id="patch_11">
    <path d="M 93.567273 252 
L 96.610909 252 
L 96.610909 229.454378 
L 93.567273 229.454378 
z
" clip-path="url(#p6a5d1a86d5)" style="fill: #1f77b4"/>
   </g>
   <g id="patch_12">
    <path d="M 96.610909 252 
L 99.654545 252 
L 99.654545 236.134562 
L 96.610909 236.134562 
z
" clip-path="url(#p6a5d1a86d5)" style="fill: #1f77b4"/>
   </g>
   <g id="patch_13">
    <path d="M 99.654545 252 
L 102.698182 252 
L 102.698182 235.299539 
L 99.654545 235.299539 
z
" clip-path="url(#p6a5d1a86d5)" style="fill: #1f77b4"/>
   </g>
   <g id="patch_14">
    <path d="M 102.698182 252 
L 105.741818 252 
L 105.741818 236.969585 
L 102.698182 236.969585 
z
" clip-path="url(#p6a5d1a86d5)" style="fill: #1f77b4"/>
   </g>
   <g id="patch_15">
    <path d="M 105.741818 252 
L 108.785455 252 
L 108.785455 236.134562 
L 105.741818 236.134562 
z
" clip-path="url(#p6a5d1a86d5)" style="fill: #1f77b4"/>
   </g>
   <g id="patch_16">
    <path d="M 108.785455 252 
L 111.829091 252 
L 111.829091 230.289401 
L 108.785455 230.289401 
z
" clip-path="url(#p6a5d1a86d5)" style="fill: #1f77b4"/>
   </g>
   <g id="patch_17">
    <path d="M 111.829091 252 
L 114.872727 252 
L 114.872727 226.114286 
L 111.829091 226.114286 
z
" clip-path="url(#p6a5d1a86d5)" style="fill: #1f77b4"/>
   </g>
   <g id="patch_18">
    <path d="M 114.872727 252 
L 117.916364 252 
L 117.916364 230.289401 
L 114.872727 230.289401 
z
" clip-path="url(#p6a5d1a86d5)" style="fill: #1f77b4"/>
   </g>
   <g id="patch_19">
    <path d="M 117.916364 252 
L 120.96 252 
L 120.96 233.629493 
L 117.916364 233.629493 
z
" clip-path="url(#p6a5d1a86d5)" style="fill: #1f77b4"/>
   </g>
   <g id="patch_20">
    <path d="M 120.96 252 
L 124.003636 252 
L 124.003636 230.289401 
L 120.96 230.289401 
z
" clip-path="url(#p6a5d1a86d5)" style="fill: #1f77b4"/>
   </g>
   <g id="patch_21">
    <path d="M 124.003636 252 
L 127.047273 252 
L 127.047273 229.454378 
L 124.003636 229.454378 
z
" clip-path="url(#p6a5d1a86d5)" style="fill: #1f77b4"/>
   </g>
   <g id="patch_22">
    <path d="M 127.047273 252 
L 130.090909 252 
L 130.090909 224.44424 
L 127.047273 224.44424 
z
" clip-path="url(#p6a5d1a86d5)" style="fill: #1f77b4"/>
   </g>
   <g id="patch_23">
    <path d="M 130.090909 252 
L 133.134545 252 
L 133.134545 231.959447 
L 130.090909 231.959447 
z
" clip-path="url(#p6a5d1a86d5)" style="fill: #1f77b4"/>
   </g>
   <g id="patch_24">
    <path d="M 133.134545 252 
L 136.178182 252 
L 136.178182 221.104147 
L 133.134545 221.104147 
z
" clip-path="url(#p6a5d1a86d5)" style="fill: #1f77b4"/>
   </g>
   <g id="patch_25">
    <path d="M 136.178182 252 
L 139.221818 252 
L 139.221818 234.464516 
L 136.178182 234.464516 
z
" clip-path="url(#p6a5d1a86d5)" style="fill: #1f77b4"/>
   </g>
   <g id="patch_26">
    <path d="M 139.221818 252 
L 142.265455 252 
L 142.265455 217.764055 
L 139.221818 217.764055 
z
" clip-path="url(#p6a5d1a86d5)" style="fill: #1f77b4"/>
   </g>
   <g id="patch_27">
    <path d="M 142.265455 252 
L 145.309091 252 
L 145.309091 217.764055 
L 142.265455 217.764055 
z
" clip-path="url(#p6a5d1a86d5)" style="fill: #1f77b4"/>
   </g>
   <g id="patch_28">
    <path d="M 145.309091 252 
L 148.352727 252 
L 148.352727 213.58894 
L 145.309091 213.58894 
z
" clip-path="url(#p6a5d1a86d5)" style="fill: #1f77b4"/>
   </g>
   <g id="patch_29">
    <path d="M 148.352727 252 
L 151.396364 252 
L 151.396364 216.929032 
L 148.352727 216.929032 
z
" clip-path="url(#p6a5d1a86d5)" style="fill: #1f77b4"/>
   </g>
   <g id="patch_30">
    <path d="M 151.396364 252 
L 154.44 252 
L 154.44 216.094009 
L 151.396364 216.094009 
z
" clip-path="url(#p6a5d1a86d5)" style="fill: #1f77b4"/>
   </g>
   <g id="patch_31">
    <path d="M 154.44 252 
L 157.483636 252 
L 157.483636 213.58894 
L 154.44 213.58894 
z
" clip-path="url(#p6a5d1a86d5)" style="fill: #1f77b4"/>
   </g>
   <g id="patch_32">
    <path d="M 157.483636 252 
L 160.527273 252 
L 160.527273 221.939171 
L 157.483636 221.939171 
z
" clip-path="url(#p6a5d1a86d5)" style="fill: #1f77b4"/>
   </g>
   <g id="patch_33">
    <path d="M 160.527273 252 
L 163.570909 252 
L 163.570909 221.104147 
L 160.527273 221.104147 
z
" clip-path="url(#p6a5d1a86d5)" style="fill: #1f77b4"/>
   </g>
   <g id="patch_34">
    <path d="M 163.570909 252 
L 166.614545 252 
L 166.614545 204.403687 
L 163.570909 204.403687 
z
" clip-path="url(#p6a5d1a86d5)" style="fill: #1f77b4"/>
   </g>
   <g id="patch_35">
    <path d="M 166.614545 252 
L 169.658182 252 
L 169.658182 212.753917 
L 166.614545 212.753917 
z
" clip-path="url(#p6a5d1a86d5)" style="fill: #1f77b4"/>
   </g>
   <g id="patch_36">
    <path d="M 169.658182 252 
L 172.701818 252 
L 172.701818 206.908756 
L 169.658182 206.908756 
z
" clip-path="url(#p6a5d1a86d5)" style="fill: #1f77b4"/>
   </g>
   <g id="patch_37">
    <path d="M 172.701818 252 
L 175.745455 252 
L 175.745455 211.083871 
L 172.701818 211.083871 
z
" clip-path="url(#p6a5d1a86d5)" style="fill: #1f77b4"/>
   </g>
   <g id="patch_38">
    <path d="M 175.745455 252 
L 178.789091 252 
L 178.789091 213.58894 
L 175.745455 213.58894 
z
" clip-path="url(#p6a5d1a86d5)" style="fill: #1f77b4"/>
   </g>
   <g id="patch_39">
    <path d="M 178.789091 252 
L 181.832727 252 
L 181.832727 206.908756 
L 178.789091 206.908756 
z
" clip-path="url(#p6a5d1a86d5)" style="fill: #1f77b4"/>
   </g>
   <g id="patch_40">
    <path d="M 181.832727 252 
L 184.876364 252 
L 184.876364 205.23871 
L 181.832727 205.23871 
z
" clip-path="url(#p6a5d1a86d5)" style="fill: #1f77b4"/>
   </g>
   <g id="patch_41">
    <path d="M 184.876364 252 
L 187.92 252 
L 187.92 198.558525 
L 184.876364 198.558525 
z
" clip-path="url(#p6a5d1a86d5)" style="fill: #1f77b4"/>
   </g>
   <g id="patch_42">
    <path d="M 187.92 252 
L 190.963636 252 
L 190.963636 193.548387 
L 187.92 193.548387 
z
" clip-path="url(#p6a5d1a86d5)" style="fill: #1f77b4"/>
   </g>
   <g id="patch_43">
    <path d="M 190.963636 252 
L 194.007273 252 
L 194.007273 207.743779 
L 190.963636 207.743779 
z
" clip-path="url(#p6a5d1a86d5)" style="fill: #1f77b4"/>
   </g>
   <g id="patch_44">
    <path d="M 194.007273 252 
L 197.050909 252 
L 197.050909 192.713364 
L 194.007273 192.713364 
z
" clip-path="url(#p6a5d1a86d5)" style="fill: #1f77b4"/>
   </g>
   <g id="patch_45">
    <path d="M 197.050909 252 
L 200.094545 252 
L 200.094545 198.558525 
L 197.050909 198.558525 
z
" clip-path="url(#p6a5d1a86d5)" style="fill: #1f77b4"/>
   </g>
   <g id="patch_46">
    <path d="M 200.094545 252 
L 203.138182 252 
L 203.138182 186.868203 
L 200.094545 186.868203 
z
" clip-path="url(#p6a5d1a86d5)" style="fill: #1f77b4"/>
   </g>
   <g id="patch_47">
    <path d="M 203.138182 252 
L 206.181818 252 
L 206.181818 173.507834 
L 203.138182 173.507834 
z
" clip-path="url(#p6a5d1a86d5)" style="fill: #1f77b4"/>
   </g>
   <g id="patch_48">
    <path d="M 206.181818 252 
L 209.225455 252 
L 209.225455 156.807373 
L 206.181818 156.807373 
z
" clip-path="url(#p6a5d1a86d5)" style="fill: #1f77b4"/>
   </g>
   <g id="patch_49">
    <path d="M 209.225455 252 
L 212.269091 252 
L 212.269091 140.106912 
L 209.225455 140.106912 
z
" clip-path="url(#p6a5d1a86d5)" style="fill: #1f77b4"/>
   </g>
   <g id="patch_50">
    <path d="M 212.269091 252 
L 215.312727 252 
L 215.312727 90.00553 
L 212.269091 90.00553 
z
" clip-path="url(#p6a5d1a86d5)" style="fill: #1f77b4"/>
   </g>
   <g id="patch_51">
    <path d="M 215.312727 252 
L 218.356364 252 
L 218.356364 69.129954 
L 215.312727 69.129954 
z
" clip-path="url(#p6a5d1a86d5)" style="fill: #1f77b4"/>
   </g>
   <g id="patch_52">
    <path d="M 218.356364 252 
L 221.4 252 
L 221.4 44.914286 
L 218.356364 44.914286 
z
" clip-path="url(#p6a5d1a86d5)" style="fill: #1f77b4"/>
   </g>
   <g id="patch_53">
    <path d="M 221.4 252 
L 224.443636 252 
L 224.443636 59.9447 
L 221.4 59.9447 
z
" clip-path="url(#p6a5d1a86d5)" style="fill: #1f77b4"/>
   </g>
   <g id="patch_54">
    <path d="M 224.443636 252 
L 227.487273 252 
L 227.487273 82.490323 
L 224.443636 82.490323 
z
" clip-path="url(#p6a5d1a86d5)" style="fill: #1f77b4"/>
   </g>
   <g id="patch_55">
    <path d="M 227.487273 252 
L 230.530909 252 
L 230.530909 105.870968 
L 227.487273 105.870968 
z
" clip-path="url(#p6a5d1a86d5)" style="fill: #1f77b4"/>
   </g>
   <g id="patch_56">
    <path d="M 230.530909 252 
L 233.574545 252 
L 233.574545 117.56129 
L 230.530909 117.56129 
z
" clip-path="url(#p6a5d1a86d5)" style="fill: #1f77b4"/>
   </g>
   <g id="patch_57">
    <path d="M 233.574545 252 
L 236.618182 252 
L 236.618182 143.447005 
L 233.574545 143.447005 
z
" clip-path="url(#p6a5d1a86d5)" style="fill: #1f77b4"/>
   </g>
   <g id="patch_58">
    <path d="M 236.618182 252 
L 239.661818 252 
L 239.661818 180.188018 
L 236.618182 180.188018 
z
" clip-path="url(#p6a5d1a86d5)" style="fill: #1f77b4"/>
   </g>
   <g id="patch_59">
    <path d="M 239.661818 252 
L 242.705455 252 
L 242.705455 181.858065 
L 239.661818 181.858065 
z
" clip-path="url(#p6a5d1a86d5)" style="fill: #1f77b4"/>
   </g>
   <g id="patch_60">
    <path d="M 242.705455 252 
L 245.749091 252 
L 245.749091 186.868203 
L 242.705455 186.868203 
z
" clip-path="url(#p6a5d1a86d5)" style="fill: #1f77b4"/>
   </g>
   <g id="patch_61">
    <path d="M 245.749091 252 
L 248.792727 252 
L 248.792727 191.878341 
L 245.749091 191.878341 
z
" clip-path="url(#p6a5d1a86d5)" style="fill: #1f77b4"/>
   </g>
   <g id="patch_62">
    <path d="M 248.792727 252 
L 251.836364 252 
L 251.836364 198.558525 
L 248.792727 198.558525 
z
" clip-path="url(#p6a5d1a86d5)" style="fill: #1f77b4"/>
   </g>
   <g id="patch_63">
    <path d="M 251.836364 252 
L 254.88 252 
L 254.88 197.723502 
L 251.836364 197.723502 
z
" clip-path="url(#p6a5d1a86d5)" style="fill: #1f77b4"/>
   </g>
   <g id="patch_64">
    <path d="M 254.88 252 
L 257.923636 252 
L 257.923636 193.548387 
L 254.88 193.548387 
z
" clip-path="url(#p6a5d1a86d5)" style="fill: #1f77b4"/>
   </g>
   <g id="patch_65">
    <path d="M 257.923636 252 
L 260.967273 252 
L 260.967273 181.023041 
L 257.923636 181.023041 
z
" clip-path="url(#p6a5d1a86d5)" style="fill: #1f77b4"/>
   </g>
   <g id="patch_66">
    <path d="M 260.967273 252 
L 264.010909 252 
L 264.010909 193.548387 
L 260.967273 193.548387 
z
" clip-path="url(#p6a5d1a86d5)" style="fill: #1f77b4"/>
   </g>
   <g id="patch_67">
    <path d="M 264.010909 252 
L 267.054545 252 
L 267.054545 202.733641 
L 264.010909 202.733641 
z
" clip-path="url(#p6a5d1a86d5)" style="fill: #1f77b4"/>
   </g>
   <g id="patch_68">
    <path d="M 267.054545 252 
L 270.098182 252 
L 270.098182 202.733641 
L 267.054545 202.733641 
z
" clip-path="url(#p6a5d1a86d5)" style="fill: #1f77b4"/>
   </g>
   <g id="patch_69">
    <path d="M 270.098182 252 
L 273.141818 252 
L 273.141818 200.228571 
L 270.098182 200.228571 
z
" clip-path="url(#p6a5d1a86d5)" style="fill: #1f77b4"/>
   </g>
   <g id="patch_70">
    <path d="M 273.141818 252 
L 276.185455 252 
L 276.185455 209.413825 
L 273.141818 209.413825 
z
" clip-path="url(#p6a5d1a86d5)" style="fill: #1f77b4"/>
   </g>
   <g id="patch_71">
    <path d="M 276.185455 252 
L 279.229091 252 
L 279.229091 211.918894 
L 276.185455 211.918894 
z
" clip-path="url(#p6a5d1a86d5)" style="fill: #1f77b4"/>
   </g>
   <g id="patch_72">
    <path d="M 279.229091 252 
L 282.272727 252 
L 282.272727 195.218433 
L 279.229091 195.218433 
z
" clip-path="url(#p6a5d1a86d5)" style="fill: #1f77b4"/>
   </g>
   <g id="patch_73">
    <path d="M 282.272727 252 
L 285.316364 252 
L 285.316364 215.258986 
L 282.272727 215.258986 
z
" clip-path="url(#p6a5d1a86d5)" style="fill: #1f77b4"/>
   </g>
   <g id="patch_74">
    <path d="M 285.316364 252 
L 288.36 252 
L 288.36 209.413825 
L 285.316364 209.413825 
z
" clip-path="url(#p6a5d1a86d5)" style="fill: #1f77b4"/>
   </g>
   <g id="patch_75">
    <path d="M 288.36 252 
L 291.403636 252 
L 291.403636 196.053456 
L 288.36 196.053456 
z
" clip-path="url(#p6a5d1a86d5)" style="fill: #1f77b4"/>
   </g>
   <g id="patch_76">
    <path d="M 291.403636 252 
L 294.447273 252 
L 294.447273 196.888479 
L 291.403636 196.888479 
z
" clip-path="url(#p6a5d1a86d5)" style="fill: #1f77b4"/>
   </g>
   <g id="patch_77">
    <path d="M 294.447273 252 
L 297.490909 252 
L 297.490909 208.578802 
L 294.447273 208.578802 
z
" clip-path="url(#p6a5d1a86d5)" style="fill: #1f77b4"/>
   </g>
   <g id="patch_78">
    <path d="M 297.490909 252 
L 300.534545 252 
L 300.534545 204.403687 
L 297.490909 204.403687 
z
" clip-path="url(#p6a5d1a86d5)" style="fill: #1f77b4"/>
   </g>
   <g id="patch_79">
    <path d="M 300.534545 252 
L 303.578182 252 
L 303.578182 207.743779 
L 300.534545 207.743779 
z
" clip-path="url(#p6a5d1a86d5)" style="fill: #1f77b4"/>
   </g>
   <g id="patch_80">
    <path d="M 303.578182 252 
L 306.621818 252 
L 306.621818 207.743779 
L 303.578182 207.743779 
z
" clip-path="url(#p6a5d1a86d5)" style="fill: #1f77b4"/>
   </g>
   <g id="patch_81">
    <path d="M 306.621818 252 
L 309.665455 252 
L 309.665455 214.423963 
L 306.621818 214.423963 
z
" clip-path="url(#p6a5d1a86d5)" style="fill: #1f77b4"/>
   </g>
   <g id="patch_82">
    <path d="M 309.665455 252 
L 312.709091 252 
L 312.709091 213.58894 
L 309.665455 213.58894 
z
" clip-path="url(#p6a5d1a86d5)" style="fill: #1f77b4"/>
   </g>
   <g id="patch_83">
    <path d="M 312.709091 252 
L 315.752727 252 
L 315.752727 228.619355 
L 312.709091 228.619355 
z
" clip-path="url(#p6a5d1a86d5)" style="fill: #1f77b4"/>
   </g>
   <g id="patch_84">
    <path d="M 315.752727 252 
L 318.796364 252 
L 318.796364 208.578802 
L 315.752727 208.578802 
z
" clip-path="url(#p6a5d1a86d5)" style="fill: #1f77b4"/>
   </g>
   <g id="patch_85">
    <path d="M 318.796364 252 
L 321.84 252 
L 321.84 221.939171 
L 318.796364 221.939171 
z
" clip-path="url(#p6a5d1a86d5)" style="fill: #1f77b4"/>
   </g>
   <g id="patch_86">
    <path d="M 321.84 252 
L 324.883636 252 
L 324.883636 226.114286 
L 321.84 226.114286 
z
" clip-path="url(#p6a5d1a86d5)" style="fill: #1f77b4"/>
   </g>
   <g id="patch_87">
    <path d="M 324.883636 252 
L 327.927273 252 
L 327.927273 216.094009 
L 324.883636 216.094009 
z
" clip-path="url(#p6a5d1a86d5)" style="fill: #1f77b4"/>
   </g>
   <g id="patch_88">
    <path d="M 327.927273 252 
L 330.970909 252 
L 330.970909 215.258986 
L 327.927273 215.258986 
z
" clip-path="url(#p6a5d1a86d5)" style="fill: #1f77b4"/>
   </g>
   <g id="patch_89">
    <path d="M 330.970909 252 
L 334.014545 252 
L 334.014545 217.764055 
L 330.970909 217.764055 
z
" clip-path="url(#p6a5d1a86d5)" style="fill: #1f77b4"/>
   </g>
   <g id="patch_90">
    <path d="M 334.014545 252 
L 337.058182 252 
L 337.058182 223.609217 
L 334.014545 223.609217 
z
" clip-path="url(#p6a5d1a86d5)" style="fill: #1f77b4"/>
   </g>
   <g id="patch_91">
    <path d="M 337.058182 252 
L 340.101818 252 
L 340.101818 217.764055 
L 337.058182 217.764055 
z
" clip-path="url(#p6a5d1a86d5)" style="fill: #1f77b4"/>
   </g>
   <g id="patch_92">
    <path d="M 340.101818 252 
L 343.145455 252 
L 343.145455 222.774194 
L 340.101818 222.774194 
z
" clip-path="url(#p6a5d1a86d5)" style="fill: #1f77b4"/>
   </g>
   <g id="patch_93">
    <path d="M 343.145455 252 
L 346.189091 252 
L 346.189091 231.124424 
L 343.145455 231.124424 
z
" clip-path="url(#p6a5d1a86d5)" style="fill: #1f77b4"/>
   </g>
   <g id="patch_94">
    <path d="M 346.189091 252 
L 349.232727 252 
L 349.232727 218.599078 
L 346.189091 218.599078 
z
" clip-path="url(#p6a5d1a86d5)" style="fill: #1f77b4"/>
   </g>
   <g id="patch_95">
    <path d="M 349.232727 252 
L 352.276364 252 
L 352.276364 226.949309 
L 349.232727 226.949309 
z
" clip-path="url(#p6a5d1a86d5)" style="fill: #1f77b4"/>
   </g>
   <g id="patch_96">
    <path d="M 352.276364 252 
L 355.32 252 
L 355.32 231.124424 
L 352.276364 231.124424 
z
" clip-path="url(#p6a5d1a86d5)" style="fill: #1f77b4"/>
   </g>
   <g id="patch_97">
    <path d="M 355.32 252 
L 358.363636 252 
L 358.363636 228.619355 
L 355.32 228.619355 
z
" clip-path="url(#p6a5d1a86d5)" style="fill: #1f77b4"/>
   </g>
   <g id="patch_98">
    <path d="M 358.363636 252 
L 361.407273 252 
L 361.407273 221.104147 
L 358.363636 221.104147 
z
" clip-path="url(#p6a5d1a86d5)" style="fill: #1f77b4"/>
   </g>
   <g id="patch_99">
    <path d="M 361.407273 252 
L 364.450909 252 
L 364.450909 225.279263 
L 361.407273 225.279263 
z
" clip-path="url(#p6a5d1a86d5)" style="fill: #1f77b4"/>
   </g>
   <g id="patch_100">
    <path d="M 364.450909 252 
L 367.494545 252 
L 367.494545 236.969585 
L 364.450909 236.969585 
z
" clip-path="url(#p6a5d1a86d5)" style="fill: #1f77b4"/>
   </g>
   <g id="patch_101">
    <path d="M 367.494545 252 
L 370.538182 252 
L 370.538182 224.44424 
L 367.494545 224.44424 
z
" clip-path="url(#p6a5d1a86d5)" style="fill: #1f77b4"/>
   </g>
   <g id="patch_102">
    <path d="M 370.538182 252 
L 373.581818 252 
L 373.581818 221.104147 
L 370.538182 221.104147 
z
" clip-path="url(#p6a5d1a86d5)" style="fill: #1f77b4"/>
   </g>
   <g id="matplotlib.axis_1">
    <g id="xtick_1">
     <g id="line2d_1">
      <defs>
       <path id="m89aee995bf" d="M 0 0 
L 0 3.5 
" style="stroke: #000000; stroke-width: 0.8"/>
      </defs>
      <g>
       <use xlink:href="#m89aee995bf" x="69.103843" y="252" style="stroke: #000000; stroke-width: 0.8"/>
      </g>
     </g>
     <g id="text_1">
      <!-- −10000 -->
      <g transform="translate(49.007749 266.598437)scale(0.1 -0.1)">
       <defs>
        <path id="DejaVuSans-2212" d="M 678 2272 
L 4684 2272 
L 4684 1741 
L 678 1741 
L 678 2272 
z
" transform="scale(0.015625)"/>
        <path id="DejaVuSans-31" d="M 794 531 
L 1825 531 
L 1825 4091 
L 703 3866 
L 703 4441 
L 1819 4666 
L 2450 4666 
L 2450 531 
L 3481 531 
L 3481 0 
L 794 0 
L 794 531 
z
" transform="scale(0.015625)"/>
        <path id="DejaVuSans-30" d="M 2034 4250 
Q 1547 4250 1301 3770 
Q 1056 3291 1056 2328 
Q 1056 1369 1301 889 
Q 1547 409 2034 409 
Q 2525 409 2770 889 
Q 3016 1369 3016 2328 
Q 3016 3291 2770 3770 
Q 2525 4250 2034 4250 
z
M 2034 4750 
Q 2819 4750 3233 4129 
Q 3647 3509 3647 2328 
Q 3647 1150 3233 529 
Q 2819 -91 2034 -91 
Q 1250 -91 836 529 
Q 422 1150 422 2328 
Q 422 3509 836 4129 
Q 1250 4750 2034 4750 
z
" transform="scale(0.015625)"/>
       </defs>
       <use xlink:href="#DejaVuSans-2212"/>
       <use xlink:href="#DejaVuSans-31" x="83.789062"/>
       <use xlink:href="#DejaVuSans-30" x="147.412109"/>
       <use xlink:href="#DejaVuSans-30" x="211.035156"/>
       <use xlink:href="#DejaVuSans-30" x="274.658203"/>
       <use xlink:href="#DejaVuSans-30" x="338.28125"/>
      </g>
     </g>
    </g>
    <g id="xtick_2">
     <g id="line2d_2">
      <g>
       <use xlink:href="#m89aee995bf" x="107.196778" y="252" style="stroke: #000000; stroke-width: 0.8"/>
      </g>
     </g>
     <g id="text_2">
      <!-- −7500 -->
      <g transform="translate(90.281934 266.598437)scale(0.1 -0.1)">
       <defs>
        <path id="DejaVuSans-37" d="M 525 4666 
L 3525 4666 
L 3525 4397 
L 1831 0 
L 1172 0 
L 2766 4134 
L 525 4134 
L 525 4666 
z
" transform="scale(0.015625)"/>
        <path id="DejaVuSans-35" d="M 691 4666 
L 3169 4666 
L 3169 4134 
L 1269 4134 
L 1269 2991 
Q 1406 3038 1543 3061 
Q 1681 3084 1819 3084 
Q 2600 3084 3056 2656 
Q 3513 2228 3513 1497 
Q 3513 744 3044 326 
Q 2575 -91 1722 -91 
Q 1428 -91 1123 -41 
Q 819 9 494 109 
L 494 744 
Q 775 591 1075 516 
Q 1375 441 1709 441 
Q 2250 441 2565 725 
Q 2881 1009 2881 1497 
Q 2881 1984 2565 2268 
Q 2250 2553 1709 2553 
Q 1456 2553 1204 2497 
Q 953 2441 691 2322 
L 691 4666 
z
" transform="scale(0.015625)"/>
       </defs>
       <use xlink:href="#DejaVuSans-2212"/>
       <use xlink:href="#DejaVuSans-37" x="83.789062"/>
       <use xlink:href="#DejaVuSans-35" x="147.412109"/>
       <use xlink:href="#DejaVuSans-30" x="211.035156"/>
       <use xlink:href="#DejaVuSans-30" x="274.658203"/>
      </g>
     </g>
    </g>
    <g id="xtick_3">
     <g id="line2d_3">
      <g>
       <use xlink:href="#m89aee995bf" x="145.289713" y="252" style="stroke: #000000; stroke-width: 0.8"/>
      </g>
     </g>
     <g id="text_3">
      <!-- −5000 -->
      <g transform="translate(128.374869 266.598437)scale(0.1 -0.1)">
       <use xlink:href="#DejaVuSans-2212"/>
       <use xlink:href="#DejaVuSans-35" x="83.789062"/>
       <use xlink:href="#DejaVuSans-30" x="147.412109"/>
       <use xlink:href="#DejaVuSans-30" x="211.035156"/>
       <use xlink:href="#DejaVuSans-30" x="274.658203"/>
      </g>
     </g>
    </g>
    <g id="xtick_4">
     <g id="line2d_4">
      <g>
       <use xlink:href="#m89aee995bf" x="183.382648" y="252" style="stroke: #000000; stroke-width: 0.8"/>
      </g>
     </g>
     <g id="text_4">
      <!-- −2500 -->
      <g transform="translate(166.467804 266.598437)scale(0.1 -0.1)">
       <defs>
        <path id="DejaVuSans-32" d="M 1228 531 
L 3431 531 
L 3431 0 
L 469 0 
L 469 531 
Q 828 903 1448 1529 
Q 2069 2156 2228 2338 
Q 2531 2678 2651 2914 
Q 2772 3150 2772 3378 
Q 2772 3750 2511 3984 
Q 2250 4219 1831 4219 
Q 1534 4219 1204 4116 
Q 875 4013 500 3803 
L 500 4441 
Q 881 4594 1212 4672 
Q 1544 4750 1819 4750 
Q 2544 4750 2975 4387 
Q 3406 4025 3406 3419 
Q 3406 3131 3298 2873 
Q 3191 2616 2906 2266 
Q 2828 2175 2409 1742 
Q 1991 1309 1228 531 
z
" transform="scale(0.015625)"/>
       </defs>
       <use xlink:href="#DejaVuSans-2212"/>
       <use xlink:href="#DejaVuSans-32" x="83.789062"/>
       <use xlink:href="#DejaVuSans-35" x="147.412109"/>
       <use xlink:href="#DejaVuSans-30" x="211.035156"/>
       <use xlink:href="#DejaVuSans-30" x="274.658203"/>
      </g>
     </g>
    </g>
    <g id="xtick_5">
     <g id="line2d_5">
      <g>
       <use xlink:href="#m89aee995bf" x="221.475583" y="252" style="stroke: #000000; stroke-width: 0.8"/>
      </g>
     </g>
     <g id="text_5">
      <!-- 0 -->
      <g transform="translate(218.294333 266.598437)scale(0.1 -0.1)">
       <use xlink:href="#DejaVuSans-30"/>
      </g>
     </g>
    </g>
    <g id="xtick_6">
     <g id="line2d_6">
      <g>
       <use xlink:href="#m89aee995bf" x="259.568518" y="252" style="stroke: #000000; stroke-width: 0.8"/>
      </g>
     </g>
     <g id="text_6">
      <!-- 2500 -->
      <g transform="translate(246.843518 266.598437)scale(0.1 -0.1)">
       <use xlink:href="#DejaVuSans-32"/>
       <use xlink:href="#DejaVuSans-35" x="63.623047"/>
       <use xlink:href="#DejaVuSans-30" x="127.246094"/>
       <use xlink:href="#DejaVuSans-30" x="190.869141"/>
      </g>
     </g>
    </g>
    <g id="xtick_7">
     <g id="line2d_7">
      <g>
       <use xlink:href="#m89aee995bf" x="297.661453" y="252" style="stroke: #000000; stroke-width: 0.8"/>
      </g>
     </g>
     <g id="text_7">
      <!-- 5000 -->
      <g transform="translate(284.936453 266.598437)scale(0.1 -0.1)">
       <use xlink:href="#DejaVuSans-35"/>
       <use xlink:href="#DejaVuSans-30" x="63.623047"/>
       <use xlink:href="#DejaVuSans-30" x="127.246094"/>
       <use xlink:href="#DejaVuSans-30" x="190.869141"/>
      </g>
     </g>
    </g>
    <g id="xtick_8">
     <g id="line2d_8">
      <g>
       <use xlink:href="#m89aee995bf" x="335.754388" y="252" style="stroke: #000000; stroke-width: 0.8"/>
      </g>
     </g>
     <g id="text_8">
      <!-- 7500 -->
      <g transform="translate(323.029388 266.598437)scale(0.1 -0.1)">
       <use xlink:href="#DejaVuSans-37"/>
       <use xlink:href="#DejaVuSans-35" x="63.623047"/>
       <use xlink:href="#DejaVuSans-30" x="127.246094"/>
       <use xlink:href="#DejaVuSans-30" x="190.869141"/>
      </g>
     </g>
    </g>
    <g id="xtick_9">
     <g id="line2d_9">
      <g>
       <use xlink:href="#m89aee995bf" x="373.847323" y="252" style="stroke: #000000; stroke-width: 0.8"/>
      </g>
     </g>
     <g id="text_9">
      <!-- 10000 -->
      <g transform="translate(357.941073 266.598437)scale(0.1 -0.1)">
       <use xlink:href="#DejaVuSans-31"/>
       <use xlink:href="#DejaVuSans-30" x="63.623047"/>
       <use xlink:href="#DejaVuSans-30" x="127.246094"/>
       <use xlink:href="#DejaVuSans-30" x="190.869141"/>
       <use xlink:href="#DejaVuSans-30" x="254.492188"/>
      </g>
     </g>
    </g>
    <g id="text_10">
     <!-- Masse (GeV) -->
     <g transform="translate(189.874219 280.276563)scale(0.1 -0.1)">
      <defs>
       <path id="DejaVuSans-4d" d="M 628 4666 
L 1569 4666 
L 2759 1491 
L 3956 4666 
L 4897 4666 
L 4897 0 
L 4281 0 
L 4281 4097 
L 3078 897 
L 2444 897 
L 1241 4097 
L 1241 0 
L 628 0 
L 628 4666 
z
" transform="scale(0.015625)"/>
       <path id="DejaVuSans-61" d="M 2194 1759 
Q 1497 1759 1228 1600 
Q 959 1441 959 1056 
Q 959 750 1161 570 
Q 1363 391 1709 391 
Q 2188 391 2477 730 
Q 2766 1069 2766 1631 
L 2766 1759 
L 2194 1759 
z
M 3341 1997 
L 3341 0 
L 2766 0 
L 2766 531 
Q 2569 213 2275 61 
Q 1981 -91 1556 -91 
Q 1019 -91 701 211 
Q 384 513 384 1019 
Q 384 1609 779 1909 
Q 1175 2209 1959 2209 
L 2766 2209 
L 2766 2266 
Q 2766 2663 2505 2880 
Q 2244 3097 1772 3097 
Q 1472 3097 1187 3025 
Q 903 2953 641 2809 
L 641 3341 
Q 956 3463 1253 3523 
Q 1550 3584 1831 3584 
Q 2591 3584 2966 3190 
Q 3341 2797 3341 1997 
z
" transform="scale(0.015625)"/>
       <path id="DejaVuSans-73" d="M 2834 3397 
L 2834 2853 
Q 2591 2978 2328 3040 
Q 2066 3103 1784 3103 
Q 1356 3103 1142 2972 
Q 928 2841 928 2578 
Q 928 2378 1081 2264 
Q 1234 2150 1697 2047 
L 1894 2003 
Q 2506 1872 2764 1633 
Q 3022 1394 3022 966 
Q 3022 478 2636 193 
Q 2250 -91 1575 -91 
Q 1294 -91 989 -36 
Q 684 19 347 128 
L 347 722 
Q 666 556 975 473 
Q 1284 391 1588 391 
Q 1994 391 2212 530 
Q 2431 669 2431 922 
Q 2431 1156 2273 1281 
Q 2116 1406 1581 1522 
L 1381 1569 
Q 847 1681 609 1914 
Q 372 2147 372 2553 
Q 372 3047 722 3315 
Q 1072 3584 1716 3584 
Q 2034 3584 2315 3537 
Q 2597 3491 2834 3397 
z
" transform="scale(0.015625)"/>
       <path id="DejaVuSans-65" d="M 3597 1894 
L 3597 1613 
L 953 1613 
Q 991 1019 1311 708 
Q 1631 397 2203 397 
Q 2534 397 2845 478 
Q 3156 559 3463 722 
L 3463 178 
Q 3153 47 2828 -22 
Q 2503 -91 2169 -91 
Q 1331 -91 842 396 
Q 353 884 353 1716 
Q 353 2575 817 3079 
Q 1281 3584 2069 3584 
Q 2775 3584 3186 3129 
Q 3597 2675 3597 1894 
z
M 3022 2063 
Q 3016 2534 2758 2815 
Q 2500 3097 2075 3097 
Q 1594 3097 1305 2825 
Q 1016 2553 972 2059 
L 3022 2063 
z
" transform="scale(0.015625)"/>
       <path id="DejaVuSans-20" transform="scale(0.015625)"/>
       <path id="DejaVuSans-28" d="M 1984 4856 
Q 1566 4138 1362 3434 
Q 1159 2731 1159 2009 
Q 1159 1288 1364 580 
Q 1569 -128 1984 -844 
L 1484 -844 
Q 1016 -109 783 600 
Q 550 1309 550 2009 
Q 550 2706 781 3412 
Q 1013 4119 1484 4856 
L 1984 4856 
z
" transform="scale(0.015625)"/>
       <path id="DejaVuSans-47" d="M 3809 666 
L 3809 1919 
L 2778 1919 
L 2778 2438 
L 4434 2438 
L 4434 434 
Q 4069 175 3628 42 
Q 3188 -91 2688 -91 
Q 1594 -91 976 548 
Q 359 1188 359 2328 
Q 359 3472 976 4111 
Q 1594 4750 2688 4750 
Q 3144 4750 3555 4637 
Q 3966 4525 4313 4306 
L 4313 3634 
Q 3963 3931 3569 4081 
Q 3175 4231 2741 4231 
Q 1884 4231 1454 3753 
Q 1025 3275 1025 2328 
Q 1025 1384 1454 906 
Q 1884 428 2741 428 
Q 3075 428 3337 486 
Q 3600 544 3809 666 
z
" transform="scale(0.015625)"/>
       <path id="DejaVuSans-56" d="M 1831 0 
L 50 4666 
L 709 4666 
L 2188 738 
L 3669 4666 
L 4325 4666 
L 2547 0 
L 1831 0 
z
" transform="scale(0.015625)"/>
       <path id="DejaVuSans-29" d="M 513 4856 
L 1013 4856 
Q 1481 4119 1714 3412 
Q 1947 2706 1947 2009 
Q 1947 1309 1714 600 
Q 1481 -109 1013 -844 
L 513 -844 
Q 928 -128 1133 580 
Q 1338 1288 1338 2009 
Q 1338 2731 1133 3434 
Q 928 4138 513 4856 
z
" transform="scale(0.015625)"/>
      </defs>
      <use xlink:href="#DejaVuSans-4d"/>
      <use xlink:href="#DejaVuSans-61" x="86.279297"/>
      <use xlink:href="#DejaVuSans-73" x="147.558594"/>
      <use xlink:href="#DejaVuSans-73" x="199.658203"/>
      <use xlink:href="#DejaVuSans-65" x="251.757812"/>
      <use xlink:href="#DejaVuSans-20" x="313.28125"/>
      <use xlink:href="#DejaVuSans-28" x="345.068359"/>
      <use xlink:href="#DejaVuSans-47" x="384.082031"/>
      <use xlink:href="#DejaVuSans-65" x="461.572266"/>
      <use xlink:href="#DejaVuSans-56" x="523.095703"/>
      <use xlink:href="#DejaVuSans-29" x="591.503906"/>
     </g>
    </g>
   </g>
   <g id="matplotlib.axis_2">
    <g id="ytick_1">
     <g id="line2d_10">
      <defs>
       <path id="md1c5d0b912" d="M 0 0 
L -3.5 0 
" style="stroke: #000000; stroke-width: 0.8"/>
      </defs>
      <g>
       <use xlink:href="#md1c5d0b912" x="54" y="252" style="stroke: #000000; stroke-width: 0.8"/>
      </g>
     </g>
     <g id="text_11">
      <!-- 0 -->
      <g transform="translate(40.6375 255.799219)scale(0.1 -0.1)">
       <use xlink:href="#DejaVuSans-30"/>
      </g>
     </g>
    </g>
    <g id="ytick_2">
     <g id="line2d_11">
      <g>
       <use xlink:href="#md1c5d0b912" x="54" y="210.248848" style="stroke: #000000; stroke-width: 0.8"/>
      </g>
     </g>
     <g id="text_12">
      <!-- 50 -->
      <g transform="translate(34.275 214.048067)scale(0.1 -0.1)">
       <use xlink:href="#DejaVuSans-35"/>
       <use xlink:href="#DejaVuSans-30" x="63.623047"/>
      </g>
     </g>
    </g>
    <g id="ytick_3">
     <g id="line2d_12">
      <g>
       <use xlink:href="#md1c5d0b912" x="54" y="168.497696" style="stroke: #000000; stroke-width: 0.8"/>
      </g>
     </g>
     <g id="text_13">
      <!-- 100 -->
      <g transform="translate(27.9125 172.296915)scale(0.1 -0.1)">
       <use xlink:href="#DejaVuSans-31"/>
       <use xlink:href="#DejaVuSans-30" x="63.623047"/>
       <use xlink:href="#DejaVuSans-30" x="127.246094"/>
      </g>
     </g>
    </g>
    <g id="ytick_4">
     <g id="line2d_13">
      <g>
       <use xlink:href="#md1c5d0b912" x="54" y="126.746544" style="stroke: #000000; stroke-width: 0.8"/>
      </g>
     </g>
     <g id="text_14">
      <!-- 150 -->
      <g transform="translate(27.9125 130.545763)scale(0.1 -0.1)">
       <use xlink:href="#DejaVuSans-31"/>
       <use xlink:href="#DejaVuSans-35" x="63.623047"/>
       <use xlink:href="#DejaVuSans-30" x="127.246094"/>
      </g>
     </g>
    </g>
    <g id="ytick_5">
     <g id="line2d_14">
      <g>
       <use xlink:href="#md1c5d0b912" x="54" y="84.995392" style="stroke: #000000; stroke-width: 0.8"/>
      </g>
     </g>
     <g id="text_15">
      <!-- 200 -->
      <g transform="translate(27.9125 88.79461)scale(0.1 -0.1)">
       <use xlink:href="#DejaVuSans-32"/>
       <use xlink:href="#DejaVuSans-30" x="63.623047"/>
       <use xlink:href="#DejaVuSans-30" x="127.246094"/>
      </g>
     </g>
    </g>
    <g id="ytick_6">
     <g id="line2d_15">
      <g>
       <use xlink:href="#md1c5d0b912" x="54" y="43.24424" style="stroke: #000000; stroke-width: 0.8"/>
      </g>
     </g>
     <g id="text_16">
      <!-- 250 -->
      <g transform="translate(27.9125 47.043458)scale(0.1 -0.1)">
       <use xlink:href="#DejaVuSans-32"/>
       <use xlink:href="#DejaVuSans-35" x="63.623047"/>
       <use xlink:href="#DejaVuSans-30" x="127.246094"/>
      </g>
     </g>
    </g>
    <g id="text_17">
     <!-- N -->
     <g transform="translate(21.832812 147.020625)rotate(-90)scale(0.1 -0.1)">
      <defs>
       <path id="DejaVuSans-4e" d="M 628 4666 
L 1478 4666 
L 3547 763 
L 3547 4666 
L 4159 4666 
L 4159 0 
L 3309 0 
L 1241 3903 
L 1241 0 
L 628 0 
L 628 4666 
z
" transform="scale(0.015625)"/>
      </defs>
      <use xlink:href="#DejaVuSans-4e"/>
     </g>
    </g>
   </g>
   <g id="patch_103">
    <path d="M 54 252 
L 54 34.56 
" style="fill: none; stroke: #000000; stroke-width: 0.8; stroke-linejoin: miter; stroke-linecap: square"/>
   </g>
   <g id="patch_104">
    <path d="M 388.8 252 
L 388.8 34.56 
" style="fill: none; stroke: #000000; stroke-width: 0.8; stroke-linejoin: miter; stroke-linecap: square"/>
   </g>
   <g id="patch_105">
    <path d="M 54 252 
L 388.8 252 
" style="fill: none; stroke: #000000; stroke-width: 0.8; stroke-linejoin: miter; stroke-linecap: square"/>
   </g>
   <g id="patch_106">
    <path d="M 54 34.56 
L 388.8 34.56 
" style="fill: none; stroke: #000000; stroke-width: 0.8; stroke-linejoin: miter; stroke-linecap: square"/>
   </g>
   <g id="text_18">
    <!-- Histogramme du paramètre $\mu$ -->
    <g transform="translate(131.88 28.56)scale(0.12 -0.12)">
     <defs>
      <path id="DejaVuSans-48" d="M 628 4666 
L 1259 4666 
L 1259 2753 
L 3553 2753 
L 3553 4666 
L 4184 4666 
L 4184 0 
L 3553 0 
L 3553 2222 
L 1259 2222 
L 1259 0 
L 628 0 
L 628 4666 
z
" transform="scale(0.015625)"/>
      <path id="DejaVuSans-69" d="M 603 3500 
L 1178 3500 
L 1178 0 
L 603 0 
L 603 3500 
z
M 603 4863 
L 1178 4863 
L 1178 4134 
L 603 4134 
L 603 4863 
z
" transform="scale(0.015625)"/>
      <path id="DejaVuSans-74" d="M 1172 4494 
L 1172 3500 
L 2356 3500 
L 2356 3053 
L 1172 3053 
L 1172 1153 
Q 1172 725 1289 603 
Q 1406 481 1766 481 
L 2356 481 
L 2356 0 
L 1766 0 
Q 1100 0 847 248 
Q 594 497 594 1153 
L 594 3053 
L 172 3053 
L 172 3500 
L 594 3500 
L 594 4494 
L 1172 4494 
z
" transform="scale(0.015625)"/>
      <path id="DejaVuSans-6f" d="M 1959 3097 
Q 1497 3097 1228 2736 
Q 959 2375 959 1747 
Q 959 1119 1226 758 
Q 1494 397 1959 397 
Q 2419 397 2687 759 
Q 2956 1122 2956 1747 
Q 2956 2369 2687 2733 
Q 2419 3097 1959 3097 
z
M 1959 3584 
Q 2709 3584 3137 3096 
Q 3566 2609 3566 1747 
Q 3566 888 3137 398 
Q 2709 -91 1959 -91 
Q 1206 -91 779 398 
Q 353 888 353 1747 
Q 353 2609 779 3096 
Q 1206 3584 1959 3584 
z
" transform="scale(0.015625)"/>
      <path id="DejaVuSans-67" d="M 2906 1791 
Q 2906 2416 2648 2759 
Q 2391 3103 1925 3103 
Q 1463 3103 1205 2759 
Q 947 2416 947 1791 
Q 947 1169 1205 825 
Q 1463 481 1925 481 
Q 2391 481 2648 825 
Q 2906 1169 2906 1791 
z
M 3481 434 
Q 3481 -459 3084 -895 
Q 2688 -1331 1869 -1331 
Q 1566 -1331 1297 -1286 
Q 1028 -1241 775 -1147 
L 775 -588 
Q 1028 -725 1275 -790 
Q 1522 -856 1778 -856 
Q 2344 -856 2625 -561 
Q 2906 -266 2906 331 
L 2906 616 
Q 2728 306 2450 153 
Q 2172 0 1784 0 
Q 1141 0 747 490 
Q 353 981 353 1791 
Q 353 2603 747 3093 
Q 1141 3584 1784 3584 
Q 2172 3584 2450 3431 
Q 2728 3278 2906 2969 
L 2906 3500 
L 3481 3500 
L 3481 434 
z
" transform="scale(0.015625)"/>
      <path id="DejaVuSans-72" d="M 2631 2963 
Q 2534 3019 2420 3045 
Q 2306 3072 2169 3072 
Q 1681 3072 1420 2755 
Q 1159 2438 1159 1844 
L 1159 0 
L 581 0 
L 581 3500 
L 1159 3500 
L 1159 2956 
Q 1341 3275 1631 3429 
Q 1922 3584 2338 3584 
Q 2397 3584 2469 3576 
Q 2541 3569 2628 3553 
L 2631 2963 
z
" transform="scale(0.015625)"/>
      <path id="DejaVuSans-6d" d="M 3328 2828 
Q 3544 3216 3844 3400 
Q 4144 3584 4550 3584 
Q 5097 3584 5394 3201 
Q 5691 2819 5691 2113 
L 5691 0 
L 5113 0 
L 5113 2094 
Q 5113 2597 4934 2840 
Q 4756 3084 4391 3084 
Q 3944 3084 3684 2787 
Q 3425 2491 3425 1978 
L 3425 0 
L 2847 0 
L 2847 2094 
Q 2847 2600 2669 2842 
Q 2491 3084 2119 3084 
Q 1678 3084 1418 2786 
Q 1159 2488 1159 1978 
L 1159 0 
L 581 0 
L 581 3500 
L 1159 3500 
L 1159 2956 
Q 1356 3278 1631 3431 
Q 1906 3584 2284 3584 
Q 2666 3584 2933 3390 
Q 3200 3197 3328 2828 
z
" transform="scale(0.015625)"/>
      <path id="DejaVuSans-64" d="M 2906 2969 
L 2906 4863 
L 3481 4863 
L 3481 0 
L 2906 0 
L 2906 525 
Q 2725 213 2448 61 
Q 2172 -91 1784 -91 
Q 1150 -91 751 415 
Q 353 922 353 1747 
Q 353 2572 751 3078 
Q 1150 3584 1784 3584 
Q 2172 3584 2448 3432 
Q 2725 3281 2906 2969 
z
M 947 1747 
Q 947 1113 1208 752 
Q 1469 391 1925 391 
Q 2381 391 2643 752 
Q 2906 1113 2906 1747 
Q 2906 2381 2643 2742 
Q 2381 3103 1925 3103 
Q 1469 3103 1208 2742 
Q 947 2381 947 1747 
z
" transform="scale(0.015625)"/>
      <path id="DejaVuSans-75" d="M 544 1381 
L 544 3500 
L 1119 3500 
L 1119 1403 
Q 1119 906 1312 657 
Q 1506 409 1894 409 
Q 2359 409 2629 706 
Q 2900 1003 2900 1516 
L 2900 3500 
L 3475 3500 
L 3475 0 
L 2900 0 
L 2900 538 
Q 2691 219 2414 64 
Q 2138 -91 1772 -91 
Q 1169 -91 856 284 
Q 544 659 544 1381 
z
M 1991 3584 
L 1991 3584 
z
" transform="scale(0.015625)"/>
      <path id="DejaVuSans-70" d="M 1159 525 
L 1159 -1331 
L 581 -1331 
L 581 3500 
L 1159 3500 
L 1159 2969 
Q 1341 3281 1617 3432 
Q 1894 3584 2278 3584 
Q 2916 3584 3314 3078 
Q 3713 2572 3713 1747 
Q 3713 922 3314 415 
Q 2916 -91 2278 -91 
Q 1894 -91 1617 61 
Q 1341 213 1159 525 
z
M 3116 1747 
Q 3116 2381 2855 2742 
Q 2594 3103 2138 3103 
Q 1681 3103 1420 2742 
Q 1159 2381 1159 1747 
Q 1159 1113 1420 752 
Q 1681 391 2138 391 
Q 2594 391 2855 752 
Q 3116 1113 3116 1747 
z
" transform="scale(0.015625)"/>
      <path id="DejaVuSans-e8" d="M 3597 1894 
L 3597 1613 
L 953 1613 
Q 991 1019 1311 708 
Q 1631 397 2203 397 
Q 2534 397 2845 478 
Q 3156 559 3463 722 
L 3463 178 
Q 3153 47 2828 -22 
Q 2503 -91 2169 -91 
Q 1331 -91 842 396 
Q 353 884 353 1716 
Q 353 2575 817 3079 
Q 1281 3584 2069 3584 
Q 2775 3584 3186 3129 
Q 3597 2675 3597 1894 
z
M 3022 2063 
Q 3016 2534 2758 2815 
Q 2500 3097 2075 3097 
Q 1594 3097 1305 2825 
Q 1016 2553 972 2059 
L 3022 2063 
z
M 1579 5119 
L 2460 3950 
L 1982 3950 
L 963 5119 
L 1579 5119 
z
" transform="scale(0.015625)"/>
      <path id="DejaVuSans-Oblique-3bc" d="M -84 -1331 
L 856 3500 
L 1434 3500 
L 1009 1322 
Q 997 1256 987 1175 
Q 978 1094 978 1013 
Q 978 722 1161 565 
Q 1344 409 1684 409 
Q 2147 409 2431 671 
Q 2716 934 2816 1459 
L 3213 3500 
L 3788 3500 
L 3266 809 
Q 3253 750 3248 706 
Q 3244 663 3244 628 
Q 3244 531 3283 486 
Q 3322 441 3406 441 
Q 3438 441 3492 456 
Q 3547 472 3647 513 
L 3559 50 
Q 3422 -19 3297 -55 
Q 3172 -91 3053 -91 
Q 2847 -91 2730 40 
Q 2613 172 2613 403 
Q 2438 153 2195 31 
Q 1953 -91 1625 -91 
Q 1334 -91 1117 43 
Q 900 178 831 397 
L 494 -1331 
L -84 -1331 
z
" transform="scale(0.015625)"/>
     </defs>
     <use xlink:href="#DejaVuSans-48" transform="translate(0 0.015625)"/>
     <use xlink:href="#DejaVuSans-69" transform="translate(75.195312 0.015625)"/>
     <use xlink:href="#DejaVuSans-73" transform="translate(102.978516 0.015625)"/>
     <use xlink:href="#DejaVuSans-74" transform="translate(155.078125 0.015625)"/>
     <use xlink:href="#DejaVuSans-6f" transform="translate(194.287109 0.015625)"/>
     <use xlink:href="#DejaVuSans-67" transform="translate(255.46875 0.015625)"/>
     <use xlink:href="#DejaVuSans-72" transform="translate(318.945312 0.015625)"/>
     <use xlink:href="#DejaVuSans-61" transform="translate(360.058594 0.015625)"/>
     <use xlink:href="#DejaVuSans-6d" transform="translate(421.337891 0.015625)"/>
     <use xlink:href="#DejaVuSans-6d" transform="translate(518.75 0.015625)"/>
     <use xlink:href="#DejaVuSans-65" transform="translate(616.162109 0.015625)"/>
     <use xlink:href="#DejaVuSans-20" transform="translate(677.685547 0.015625)"/>
     <use xlink:href="#DejaVuSans-64" transform="translate(709.472656 0.015625)"/>
     <use xlink:href="#DejaVuSans-75" transform="translate(772.949219 0.015625)"/>
     <use xlink:href="#DejaVuSans-20" transform="translate(836.328125 0.015625)"/>
     <use xlink:href="#DejaVuSans-70" transform="translate(868.115234 0.015625)"/>
     <use xlink:href="#DejaVuSans-61" transform="translate(931.591797 0.015625)"/>
     <use xlink:href="#DejaVuSans-72" transform="translate(992.871094 0.015625)"/>
     <use xlink:href="#DejaVuSans-61" transform="translate(1033.984375 0.015625)"/>
     <use xlink:href="#DejaVuSans-6d" transform="translate(1095.263672 0.015625)"/>
     <use xlink:href="#DejaVuSans-e8" transform="translate(1192.675781 0.015625)"/>
     <use xlink:href="#DejaVuSans-74" transform="translate(1254.199219 0.015625)"/>
     <use xlink:href="#DejaVuSans-72" transform="translate(1293.408203 0.015625)"/>
     <use xlink:href="#DejaVuSans-65" transform="translate(1334.521484 0.015625)"/>
     <use xlink:href="#DejaVuSans-20" transform="translate(1396.044922 0.015625)"/>
     <use xlink:href="#DejaVuSans-Oblique-3bc" transform="translate(1427.832031 0.015625)"/>
    </g>
   </g>
  </g>
 </g>
 <defs>
  <clipPath id="p6a5d1a86d5">
   <rect x="54" y="34.56" width="334.8" height="217.44"/>
  </clipPath>
 </defs>
</svg>
