<?xml version="1.0" encoding="utf-8" standalone="no"?>
<!DOCTYPE svg PUBLIC "-//W3C//DTD SVG 1.1//EN"
  "http://www.w3.org/Graphics/SVG/1.1/DTD/svg11.dtd">
<svg xmlns:xlink="http://www.w3.org/1999/xlink" width="432pt" height="288pt" viewBox="0 0 432 288" xmlns="http://www.w3.org/2000/svg" version="1.1">
 <metadata>
  <rdf:RDF xmlns:dc="http://purl.org/dc/elements/1.1/" xmlns:cc="http://creativecommons.org/ns#" xmlns:rdf="http://www.w3.org/1999/02/22-rdf-syntax-ns#">
   <cc:Work>
    <dc:type rdf:resource="http://purl.org/dc/dcmitype/StillImage"/>
    <dc:date>2022-06-21T02:10:03.481195</dc:date>
    <dc:format>image/svg+xml</dc:format>
    <dc:creator>
     <cc:Agent>
      <dc:title>Matplotlib v3.5.0, https://matplotlib.org/</dc:title>
     </cc:Agent>
    </dc:creator>
   </cc:Work>
  </rdf:RDF>
 </metadata>
 <defs>
  <style type="text/css">*{stroke-linejoin: round; stroke-linecap: butt}</style>
 </defs>
 <g id="figure_1">
  <g id="patch_1">
   <path d="M 0 288 
L 432 288 
L 432 0 
L 0 0 
L 0 288 
z
" style="fill: none"/>
  </g>
  <g id="axes_1">
   <g id="patch_2">
    <path d="M 29.08774 133.12875 
L 428.99976 133.12875 
L 428.99976 39.57447 
L 29.08774 39.57447 
z
" style="fill: #ffffff"/>
   </g>
   <g id="patch_3">
    <path d="M 47.265559 133.12875 
L 50.901123 133.12875 
L 50.901123 93.634373 
L 47.265559 93.634373 
z
" clip-path="url(#p1d8c66e638)" style="fill: #1f77b4"/>
   </g>
   <g id="patch_4">
    <path d="M 50.901123 133.12875 
L 54.536687 133.12875 
L 54.536687 52.244266 
L 50.901123 52.244266 
z
" clip-path="url(#p1d8c66e638)" style="fill: #1f77b4"/>
   </g>
   <g id="patch_5">
    <path d="M 54.536687 133.12875 
L 58.172251 133.12875 
L 58.172251 44.029436 
L 54.536687 44.029436 
z
" clip-path="url(#p1d8c66e638)" style="fill: #1f77b4"/>
   </g>
   <g id="patch_6">
    <path d="M 58.172251 133.12875 
L 61.807814 133.12875 
L 61.807814 45.293256 
L 58.172251 45.293256 
z
" clip-path="url(#p1d8c66e638)" style="fill: #1f77b4"/>
   </g>
   <g id="patch_7">
    <path d="M 61.807814 133.12875 
L 65.443378 133.12875 
L 65.443378 51.296401 
L 61.807814 51.296401 
z
" clip-path="url(#p1d8c66e638)" style="fill: #1f77b4"/>
   </g>
   <g id="patch_8">
    <path d="M 65.443378 133.12875 
L 69.078942 133.12875 
L 69.078942 49.400671 
L 65.443378 49.400671 
z
" clip-path="url(#p1d8c66e638)" style="fill: #1f77b4"/>
   </g>
   <g id="patch_9">
    <path d="M 69.078942 133.12875 
L 72.714506 133.12875 
L 72.714506 57.931456 
L 69.078942 57.931456 
z
" clip-path="url(#p1d8c66e638)" style="fill: #1f77b4"/>
   </g>
   <g id="patch_10">
    <path d="M 72.714506 133.12875 
L 76.35007 133.12875 
L 76.35007 67.094152 
L 72.714506 67.094152 
z
" clip-path="url(#p1d8c66e638)" style="fill: #1f77b4"/>
   </g>
   <g id="patch_11">
    <path d="M 76.35007 133.12875 
L 79.985633 133.12875 
L 79.985633 60.775052 
L 76.35007 60.775052 
z
" clip-path="url(#p1d8c66e638)" style="fill: #1f77b4"/>
   </g>
   <g id="patch_12">
    <path d="M 79.985633 133.12875 
L 83.621197 133.12875 
L 83.621197 62.670782 
L 79.985633 62.670782 
z
" clip-path="url(#p1d8c66e638)" style="fill: #1f77b4"/>
   </g>
   <g id="patch_13">
    <path d="M 83.621197 133.12875 
L 87.256761 133.12875 
L 87.256761 68.042017 
L 83.621197 68.042017 
z
" clip-path="url(#p1d8c66e638)" style="fill: #1f77b4"/>
   </g>
   <g id="patch_14">
    <path d="M 87.256761 133.12875 
L 90.892325 133.12875 
L 90.892325 72.465387 
L 87.256761 72.465387 
z
" clip-path="url(#p1d8c66e638)" style="fill: #1f77b4"/>
   </g>
   <g id="patch_15">
    <path d="M 90.892325 133.12875 
L 94.527889 133.12875 
L 94.527889 72.781342 
L 90.892325 72.781342 
z
" clip-path="url(#p1d8c66e638)" style="fill: #1f77b4"/>
   </g>
   <g id="patch_16">
    <path d="M 94.527889 133.12875 
L 98.163453 133.12875 
L 98.163453 80.048307 
L 94.527889 80.048307 
z
" clip-path="url(#p1d8c66e638)" style="fill: #1f77b4"/>
   </g>
   <g id="patch_17">
    <path d="M 98.163453 133.12875 
L 101.799016 133.12875 
L 101.799016 91.106733 
L 98.163453 91.106733 
z
" clip-path="url(#p1d8c66e638)" style="fill: #1f77b4"/>
   </g>
   <g id="patch_18">
    <path d="M 101.799016 133.12875 
L 105.43458 133.12875 
L 105.43458 90.158868 
L 101.799016 90.158868 
z
" clip-path="url(#p1d8c66e638)" style="fill: #1f77b4"/>
   </g>
   <g id="patch_19">
    <path d="M 105.43458 133.12875 
L 109.070144 133.12875 
L 109.070144 94.582238 
L 105.43458 94.582238 
z
" clip-path="url(#p1d8c66e638)" style="fill: #1f77b4"/>
   </g>
   <g id="patch_20">
    <path d="M 109.070144 133.12875 
L 112.705708 133.12875 
L 112.705708 98.689653 
L 109.070144 98.689653 
z
" clip-path="url(#p1d8c66e638)" style="fill: #1f77b4"/>
   </g>
   <g id="patch_21">
    <path d="M 112.705708 133.12875 
L 116.341272 133.12875 
L 116.341272 99.953473 
L 112.705708 99.953473 
z
" clip-path="url(#p1d8c66e638)" style="fill: #1f77b4"/>
   </g>
   <g id="patch_22">
    <path d="M 116.341272 133.12875 
L 119.976835 133.12875 
L 119.976835 101.849203 
L 116.341272 101.849203 
z
" clip-path="url(#p1d8c66e638)" style="fill: #1f77b4"/>
   </g>
   <g id="patch_23">
    <path d="M 119.976835 133.12875 
L 123.612399 133.12875 
L 123.612399 101.849203 
L 119.976835 101.849203 
z
" clip-path="url(#p1d8c66e638)" style="fill: #1f77b4"/>
   </g>
   <g id="patch_24">
    <path d="M 123.612399 133.12875 
L 127.247963 133.12875 
L 127.247963 109.116169 
L 123.612399 109.116169 
z
" clip-path="url(#p1d8c66e638)" style="fill: #1f77b4"/>
   </g>
   <g id="patch_25">
    <path d="M 127.247963 133.12875 
L 130.883527 133.12875 
L 130.883527 114.171449 
L 127.247963 114.171449 
z
" clip-path="url(#p1d8c66e638)" style="fill: #1f77b4"/>
   </g>
   <g id="patch_26">
    <path d="M 130.883527 133.12875 
L 134.519091 133.12875 
L 134.519091 112.275719 
L 130.883527 112.275719 
z
" clip-path="url(#p1d8c66e638)" style="fill: #1f77b4"/>
   </g>
   <g id="patch_27">
    <path d="M 134.519091 133.12875 
L 138.154655 133.12875 
L 138.154655 108.800214 
L 134.519091 108.800214 
z
" clip-path="url(#p1d8c66e638)" style="fill: #1f77b4"/>
   </g>
   <g id="patch_28">
    <path d="M 138.154655 133.12875 
L 141.790218 133.12875 
L 141.790218 115.751224 
L 138.154655 115.751224 
z
" clip-path="url(#p1d8c66e638)" style="fill: #1f77b4"/>
   </g>
   <g id="patch_29">
    <path d="M 141.790218 133.12875 
L 145.425782 133.12875 
L 145.425782 117.962909 
L 141.790218 117.962909 
z
" clip-path="url(#p1d8c66e638)" style="fill: #1f77b4"/>
   </g>
   <g id="patch_30">
    <path d="M 145.425782 133.12875 
L 149.061346 133.12875 
L 149.061346 116.383134 
L 145.425782 116.383134 
z
" clip-path="url(#p1d8c66e638)" style="fill: #1f77b4"/>
   </g>
   <g id="patch_31">
    <path d="M 149.061346 133.12875 
L 152.69691 133.12875 
L 152.69691 117.015044 
L 149.061346 117.015044 
z
" clip-path="url(#p1d8c66e638)" style="fill: #1f77b4"/>
   </g>
   <g id="patch_32">
    <path d="M 152.69691 133.12875 
L 156.332474 133.12875 
L 156.332474 118.278864 
L 152.69691 118.278864 
z
" clip-path="url(#p1d8c66e638)" style="fill: #1f77b4"/>
   </g>
   <g id="patch_33">
    <path d="M 156.332474 133.12875 
L 159.968037 133.12875 
L 159.968037 120.806504 
L 156.332474 120.806504 
z
" clip-path="url(#p1d8c66e638)" style="fill: #1f77b4"/>
   </g>
   <g id="patch_34">
    <path d="M 159.968037 133.12875 
L 163.603601 133.12875 
L 163.603601 121.754369 
L 159.968037 121.754369 
z
" clip-path="url(#p1d8c66e638)" style="fill: #1f77b4"/>
   </g>
   <g id="patch_35">
    <path d="M 163.603601 133.12875 
L 167.239165 133.12875 
L 167.239165 120.806504 
L 163.603601 120.806504 
z
" clip-path="url(#p1d8c66e638)" style="fill: #1f77b4"/>
   </g>
   <g id="patch_36">
    <path d="M 167.239165 133.12875 
L 170.874729 133.12875 
L 170.874729 119.858639 
L 167.239165 119.858639 
z
" clip-path="url(#p1d8c66e638)" style="fill: #1f77b4"/>
   </g>
   <g id="patch_37">
    <path d="M 170.874729 133.12875 
L 174.510293 133.12875 
L 174.510293 121.754369 
L 170.874729 121.754369 
z
" clip-path="url(#p1d8c66e638)" style="fill: #1f77b4"/>
   </g>
   <g id="patch_38">
    <path d="M 174.510293 133.12875 
L 178.145857 133.12875 
L 178.145857 124.28201 
L 174.510293 124.28201 
z
" clip-path="url(#p1d8c66e638)" style="fill: #1f77b4"/>
   </g>
   <g id="patch_39">
    <path d="M 178.145857 133.12875 
L 181.78142 133.12875 
L 181.78142 122.702234 
L 178.145857 122.702234 
z
" clip-path="url(#p1d8c66e638)" style="fill: #1f77b4"/>
   </g>
   <g id="patch_40">
    <path d="M 181.78142 133.12875 
L 185.416984 133.12875 
L 185.416984 120.806504 
L 181.78142 120.806504 
z
" clip-path="url(#p1d8c66e638)" style="fill: #1f77b4"/>
   </g>
   <g id="patch_41">
    <path d="M 185.416984 133.12875 
L 189.052548 133.12875 
L 189.052548 122.702234 
L 185.416984 122.702234 
z
" clip-path="url(#p1d8c66e638)" style="fill: #1f77b4"/>
   </g>
   <g id="patch_42">
    <path d="M 189.052548 133.12875 
L 192.688112 133.12875 
L 192.688112 124.28201 
L 189.052548 124.28201 
z
" clip-path="url(#p1d8c66e638)" style="fill: #1f77b4"/>
   </g>
   <g id="patch_43">
    <path d="M 192.688112 133.12875 
L 196.323676 133.12875 
L 196.323676 123.01819 
L 192.688112 123.01819 
z
" clip-path="url(#p1d8c66e638)" style="fill: #1f77b4"/>
   </g>
   <g id="patch_44">
    <path d="M 196.323676 133.12875 
L 199.959239 133.12875 
L 199.959239 120.490549 
L 196.323676 120.490549 
z
" clip-path="url(#p1d8c66e638)" style="fill: #1f77b4"/>
   </g>
   <g id="patch_45">
    <path d="M 199.959239 133.12875 
L 203.594803 133.12875 
L 203.594803 123.01819 
L 199.959239 123.01819 
z
" clip-path="url(#p1d8c66e638)" style="fill: #1f77b4"/>
   </g>
   <g id="patch_46">
    <path d="M 203.594803 133.12875 
L 207.230367 133.12875 
L 207.230367 124.91392 
L 203.594803 124.91392 
z
" clip-path="url(#p1d8c66e638)" style="fill: #1f77b4"/>
   </g>
   <g id="patch_47">
    <path d="M 207.230367 133.12875 
L 210.865931 133.12875 
L 210.865931 125.229875 
L 207.230367 125.229875 
z
" clip-path="url(#p1d8c66e638)" style="fill: #1f77b4"/>
   </g>
   <g id="patch_48">
    <path d="M 210.865931 133.12875 
L 214.501495 133.12875 
L 214.501495 124.91392 
L 210.865931 124.91392 
z
" clip-path="url(#p1d8c66e638)" style="fill: #1f77b4"/>
   </g>
   <g id="patch_49">
    <path d="M 214.501495 133.12875 
L 218.137059 133.12875 
L 218.137059 124.597965 
L 214.501495 124.597965 
z
" clip-path="url(#p1d8c66e638)" style="fill: #1f77b4"/>
   </g>
   <g id="patch_50">
    <path d="M 218.137059 133.12875 
L 221.772622 133.12875 
L 221.772622 127.757515 
L 218.137059 127.757515 
z
" clip-path="url(#p1d8c66e638)" style="fill: #1f77b4"/>
   </g>
   <g id="patch_51">
    <path d="M 221.772622 133.12875 
L 225.408186 133.12875 
L 225.408186 125.54583 
L 221.772622 125.54583 
z
" clip-path="url(#p1d8c66e638)" style="fill: #1f77b4"/>
   </g>
   <g id="patch_52">
    <path d="M 225.408186 133.12875 
L 229.04375 133.12875 
L 229.04375 124.597965 
L 225.408186 124.597965 
z
" clip-path="url(#p1d8c66e638)" style="fill: #1f77b4"/>
   </g>
   <g id="patch_53">
    <path d="M 229.04375 133.12875 
L 232.679314 133.12875 
L 232.679314 126.493695 
L 229.04375 126.493695 
z
" clip-path="url(#p1d8c66e638)" style="fill: #1f77b4"/>
   </g>
   <g id="patch_54">
    <path d="M 232.679314 133.12875 
L 236.314878 133.12875 
L 236.314878 124.28201 
L 232.679314 124.28201 
z
" clip-path="url(#p1d8c66e638)" style="fill: #1f77b4"/>
   </g>
   <g id="patch_55">
    <path d="M 236.314878 133.12875 
L 239.950441 133.12875 
L 239.950441 125.229875 
L 236.314878 125.229875 
z
" clip-path="url(#p1d8c66e638)" style="fill: #1f77b4"/>
   </g>
   <g id="patch_56">
    <path d="M 239.950441 133.12875 
L 243.586005 133.12875 
L 243.586005 124.28201 
L 239.950441 124.28201 
z
" clip-path="url(#p1d8c66e638)" style="fill: #1f77b4"/>
   </g>
   <g id="patch_57">
    <path d="M 243.586005 133.12875 
L 247.221569 133.12875 
L 247.221569 126.17774 
L 243.586005 126.17774 
z
" clip-path="url(#p1d8c66e638)" style="fill: #1f77b4"/>
   </g>
   <g id="patch_58">
    <path d="M 247.221569 133.12875 
L 250.857133 133.12875 
L 250.857133 126.80965 
L 247.221569 126.80965 
z
" clip-path="url(#p1d8c66e638)" style="fill: #1f77b4"/>
   </g>
   <g id="patch_59">
    <path d="M 250.857133 133.12875 
L 254.492697 133.12875 
L 254.492697 123.334145 
L 250.857133 123.334145 
z
" clip-path="url(#p1d8c66e638)" style="fill: #1f77b4"/>
   </g>
   <g id="patch_60">
    <path d="M 254.492697 133.12875 
L 258.128261 133.12875 
L 258.128261 125.861785 
L 254.492697 125.861785 
z
" clip-path="url(#p1d8c66e638)" style="fill: #1f77b4"/>
   </g>
   <g id="patch_61">
    <path d="M 258.128261 133.12875 
L 261.763824 133.12875 
L 261.763824 129.021335 
L 258.128261 129.021335 
z
" clip-path="url(#p1d8c66e638)" style="fill: #1f77b4"/>
   </g>
   <g id="patch_62">
    <path d="M 261.763824 133.12875 
L 265.399388 133.12875 
L 265.399388 127.44156 
L 261.763824 127.44156 
z
" clip-path="url(#p1d8c66e638)" style="fill: #1f77b4"/>
   </g>
   <g id="patch_63">
    <path d="M 265.399388 133.12875 
L 269.034952 133.12875 
L 269.034952 128.07347 
L 265.399388 128.07347 
z
" clip-path="url(#p1d8c66e638)" style="fill: #1f77b4"/>
   </g>
   <g id="patch_64">
    <path d="M 269.034952 133.12875 
L 272.670516 133.12875 
L 272.670516 127.44156 
L 269.034952 127.44156 
z
" clip-path="url(#p1d8c66e638)" style="fill: #1f77b4"/>
   </g>
   <g id="patch_65">
    <path d="M 272.670516 133.12875 
L 276.30608 133.12875 
L 276.30608 126.493695 
L 272.670516 126.493695 
z
" clip-path="url(#p1d8c66e638)" style="fill: #1f77b4"/>
   </g>
   <g id="patch_66">
    <path d="M 276.30608 133.12875 
L 279.941643 133.12875 
L 279.941643 127.125605 
L 276.30608 127.125605 
z
" clip-path="url(#p1d8c66e638)" style="fill: #1f77b4"/>
   </g>
   <g id="patch_67">
    <path d="M 279.941643 133.12875 
L 283.577207 133.12875 
L 283.577207 126.80965 
L 279.941643 126.80965 
z
" clip-path="url(#p1d8c66e638)" style="fill: #1f77b4"/>
   </g>
   <g id="patch_68">
    <path d="M 283.577207 133.12875 
L 287.212771 133.12875 
L 287.212771 129.33729 
L 283.577207 129.33729 
z
" clip-path="url(#p1d8c66e638)" style="fill: #1f77b4"/>
   </g>
   <g id="patch_69">
    <path d="M 287.212771 133.12875 
L 290.848335 133.12875 
L 290.848335 126.493695 
L 287.212771 126.493695 
z
" clip-path="url(#p1d8c66e638)" style="fill: #1f77b4"/>
   </g>
   <g id="patch_70">
    <path d="M 290.848335 133.12875 
L 294.483899 133.12875 
L 294.483899 128.07347 
L 290.848335 128.07347 
z
" clip-path="url(#p1d8c66e638)" style="fill: #1f77b4"/>
   </g>
   <g id="patch_71">
    <path d="M 294.483899 133.12875 
L 298.119463 133.12875 
L 298.119463 128.389425 
L 294.483899 128.389425 
z
" clip-path="url(#p1d8c66e638)" style="fill: #1f77b4"/>
   </g>
   <g id="patch_72">
    <path d="M 298.119463 133.12875 
L 301.755026 133.12875 
L 301.755026 128.70538 
L 298.119463 128.70538 
z
" clip-path="url(#p1d8c66e638)" style="fill: #1f77b4"/>
   </g>
   <g id="patch_73">
    <path d="M 301.755026 133.12875 
L 305.39059 133.12875 
L 305.39059 131.548975 
L 301.755026 131.548975 
z
" clip-path="url(#p1d8c66e638)" style="fill: #1f77b4"/>
   </g>
   <g id="patch_74">
    <path d="M 305.39059 133.12875 
L 309.026154 133.12875 
L 309.026154 128.389425 
L 305.39059 128.389425 
z
" clip-path="url(#p1d8c66e638)" style="fill: #1f77b4"/>
   </g>
   <g id="patch_75">
    <path d="M 309.026154 133.12875 
L 312.661718 133.12875 
L 312.661718 126.80965 
L 309.026154 126.80965 
z
" clip-path="url(#p1d8c66e638)" style="fill: #1f77b4"/>
   </g>
   <g id="patch_76">
    <path d="M 312.661718 133.12875 
L 316.297282 133.12875 
L 316.297282 129.653245 
L 312.661718 129.653245 
z
" clip-path="url(#p1d8c66e638)" style="fill: #1f77b4"/>
   </g>
   <g id="patch_77">
    <path d="M 316.297282 133.12875 
L 319.932845 133.12875 
L 319.932845 129.9692 
L 316.297282 129.9692 
z
" clip-path="url(#p1d8c66e638)" style="fill: #1f77b4"/>
   </g>
   <g id="patch_78">
    <path d="M 319.932845 133.12875 
L 323.568409 133.12875 
L 323.568409 126.80965 
L 319.932845 126.80965 
z
" clip-path="url(#p1d8c66e638)" style="fill: #1f77b4"/>
   </g>
   <g id="patch_79">
    <path d="M 323.568409 133.12875 
L 327.203973 133.12875 
L 327.203973 130.917065 
L 323.568409 130.917065 
z
" clip-path="url(#p1d8c66e638)" style="fill: #1f77b4"/>
   </g>
   <g id="patch_80">
    <path d="M 327.203973 133.12875 
L 330.839537 133.12875 
L 330.839537 131.548975 
L 327.203973 131.548975 
z
" clip-path="url(#p1d8c66e638)" style="fill: #1f77b4"/>
   </g>
   <g id="patch_81">
    <path d="M 330.839537 133.12875 
L 334.475101 133.12875 
L 334.475101 128.389425 
L 330.839537 128.389425 
z
" clip-path="url(#p1d8c66e638)" style="fill: #1f77b4"/>
   </g>
   <g id="patch_82">
    <path d="M 334.475101 133.12875 
L 338.110665 133.12875 
L 338.110665 128.389425 
L 334.475101 128.389425 
z
" clip-path="url(#p1d8c66e638)" style="fill: #1f77b4"/>
   </g>
   <g id="patch_83">
    <path d="M 338.110665 133.12875 
L 341.746228 133.12875 
L 341.746228 131.86493 
L 338.110665 131.86493 
z
" clip-path="url(#p1d8c66e638)" style="fill: #1f77b4"/>
   </g>
   <g id="patch_84">
    <path d="M 341.746228 133.12875 
L 345.381792 133.12875 
L 345.381792 131.86493 
L 341.746228 131.86493 
z
" clip-path="url(#p1d8c66e638)" style="fill: #1f77b4"/>
   </g>
   <g id="patch_85">
    <path d="M 345.381792 133.12875 
L 349.017356 133.12875 
L 349.017356 128.07347 
L 345.381792 128.07347 
z
" clip-path="url(#p1d8c66e638)" style="fill: #1f77b4"/>
   </g>
   <g id="patch_86">
    <path d="M 349.017356 133.12875 
L 352.65292 133.12875 
L 352.65292 130.60111 
L 349.017356 130.60111 
z
" clip-path="url(#p1d8c66e638)" style="fill: #1f77b4"/>
   </g>
   <g id="patch_87">
    <path d="M 352.65292 133.12875 
L 356.288484 133.12875 
L 356.288484 129.9692 
L 352.65292 129.9692 
z
" clip-path="url(#p1d8c66e638)" style="fill: #1f77b4"/>
   </g>
   <g id="patch_88">
    <path d="M 356.288484 133.12875 
L 359.924047 133.12875 
L 359.924047 131.23302 
L 356.288484 131.23302 
z
" clip-path="url(#p1d8c66e638)" style="fill: #1f77b4"/>
   </g>
   <g id="patch_89">
    <path d="M 359.924047 133.12875 
L 363.559611 133.12875 
L 363.559611 130.285155 
L 359.924047 130.285155 
z
" clip-path="url(#p1d8c66e638)" style="fill: #1f77b4"/>
   </g>
   <g id="patch_90">
    <path d="M 363.559611 133.12875 
L 367.195175 133.12875 
L 367.195175 130.60111 
L 363.559611 130.60111 
z
" clip-path="url(#p1d8c66e638)" style="fill: #1f77b4"/>
   </g>
   <g id="patch_91">
    <path d="M 367.195175 133.12875 
L 370.830739 133.12875 
L 370.830739 129.9692 
L 367.195175 129.9692 
z
" clip-path="url(#p1d8c66e638)" style="fill: #1f77b4"/>
   </g>
   <g id="patch_92">
    <path d="M 370.830739 133.12875 
L 374.466303 133.12875 
L 374.466303 130.285155 
L 370.830739 130.285155 
z
" clip-path="url(#p1d8c66e638)" style="fill: #1f77b4"/>
   </g>
   <g id="patch_93">
    <path d="M 374.466303 133.12875 
L 378.101867 133.12875 
L 378.101867 130.285155 
L 374.466303 130.285155 
z
" clip-path="url(#p1d8c66e638)" style="fill: #1f77b4"/>
   </g>
   <g id="patch_94">
    <path d="M 378.101867 133.12875 
L 381.73743 133.12875 
L 381.73743 131.23302 
L 378.101867 131.23302 
z
" clip-path="url(#p1d8c66e638)" style="fill: #1f77b4"/>
   </g>
   <g id="patch_95">
    <path d="M 381.73743 133.12875 
L 385.372994 133.12875 
L 385.372994 128.389425 
L 381.73743 128.389425 
z
" clip-path="url(#p1d8c66e638)" style="fill: #1f77b4"/>
   </g>
   <g id="patch_96">
    <path d="M 385.372994 133.12875 
L 389.008558 133.12875 
L 389.008558 130.60111 
L 385.372994 130.60111 
z
" clip-path="url(#p1d8c66e638)" style="fill: #1f77b4"/>
   </g>
   <g id="patch_97">
    <path d="M 389.008558 133.12875 
L 392.644122 133.12875 
L 392.644122 131.23302 
L 389.008558 131.23302 
z
" clip-path="url(#p1d8c66e638)" style="fill: #1f77b4"/>
   </g>
   <g id="patch_98">
    <path d="M 392.644122 133.12875 
L 396.279686 133.12875 
L 396.279686 130.917065 
L 392.644122 130.917065 
z
" clip-path="url(#p1d8c66e638)" style="fill: #1f77b4"/>
   </g>
   <g id="patch_99">
    <path d="M 396.279686 133.12875 
L 399.915249 133.12875 
L 399.915249 130.917065 
L 396.279686 130.917065 
z
" clip-path="url(#p1d8c66e638)" style="fill: #1f77b4"/>
   </g>
   <g id="patch_100">
    <path d="M 399.915249 133.12875 
L 403.550813 133.12875 
L 403.550813 131.548975 
L 399.915249 131.548975 
z
" clip-path="url(#p1d8c66e638)" style="fill: #1f77b4"/>
   </g>
   <g id="patch_101">
    <path d="M 403.550813 133.12875 
L 407.186377 133.12875 
L 407.186377 130.917065 
L 403.550813 130.917065 
z
" clip-path="url(#p1d8c66e638)" style="fill: #1f77b4"/>
   </g>
   <g id="patch_102">
    <path d="M 407.186377 133.12875 
L 410.821941 133.12875 
L 410.821941 131.548975 
L 407.186377 131.548975 
z
" clip-path="url(#p1d8c66e638)" style="fill: #1f77b4"/>
   </g>
   <g id="matplotlib.axis_1">
    <g id="xtick_1">
     <g id="line2d_1">
      <defs>
       <path id="m16f9bca962" d="M 0 0 
L 0 3.5 
" style="stroke: #000000; stroke-width: 0.8"/>
      </defs>
      <g>
       <use xlink:href="#m16f9bca962" x="47.259303" y="133.12875" style="stroke: #000000; stroke-width: 0.8"/>
      </g>
     </g>
     <g id="text_1">
      <!-- 0 -->
      <g transform="translate(44.078053 147.727187)scale(0.1 -0.1)">
       <defs>
        <path id="DejaVuSans-30" d="M 2034 4250 
Q 1547 4250 1301 3770 
Q 1056 3291 1056 2328 
Q 1056 1369 1301 889 
Q 1547 409 2034 409 
Q 2525 409 2770 889 
Q 3016 1369 3016 2328 
Q 3016 3291 2770 3770 
Q 2525 4250 2034 4250 
z
M 2034 4750 
Q 2819 4750 3233 4129 
Q 3647 3509 3647 2328 
Q 3647 1150 3233 529 
Q 2819 -91 2034 -91 
Q 1250 -91 836 529 
Q 422 1150 422 2328 
Q 422 3509 836 4129 
Q 1250 4750 2034 4750 
z
" transform="scale(0.015625)"/>
       </defs>
       <use xlink:href="#DejaVuSans-30"/>
      </g>
     </g>
    </g>
    <g id="xtick_2">
     <g id="line2d_2">
      <g>
       <use xlink:href="#m16f9bca962" x="120.891968" y="133.12875" style="stroke: #000000; stroke-width: 0.8"/>
      </g>
     </g>
     <g id="text_2">
      <!-- 1000 -->
      <g transform="translate(108.166968 147.727187)scale(0.1 -0.1)">
       <defs>
        <path id="DejaVuSans-31" d="M 794 531 
L 1825 531 
L 1825 4091 
L 703 3866 
L 703 4441 
L 1819 4666 
L 2450 4666 
L 2450 531 
L 3481 531 
L 3481 0 
L 794 0 
L 794 531 
z
" transform="scale(0.015625)"/>
       </defs>
       <use xlink:href="#DejaVuSans-31"/>
       <use xlink:href="#DejaVuSans-30" x="63.623047"/>
       <use xlink:href="#DejaVuSans-30" x="127.246094"/>
       <use xlink:href="#DejaVuSans-30" x="190.869141"/>
      </g>
     </g>
    </g>
    <g id="xtick_3">
     <g id="line2d_3">
      <g>
       <use xlink:href="#m16f9bca962" x="194.524633" y="133.12875" style="stroke: #000000; stroke-width: 0.8"/>
      </g>
     </g>
     <g id="text_3">
      <!-- 2000 -->
      <g transform="translate(181.799633 147.727187)scale(0.1 -0.1)">
       <defs>
        <path id="DejaVuSans-32" d="M 1228 531 
L 3431 531 
L 3431 0 
L 469 0 
L 469 531 
Q 828 903 1448 1529 
Q 2069 2156 2228 2338 
Q 2531 2678 2651 2914 
Q 2772 3150 2772 3378 
Q 2772 3750 2511 3984 
Q 2250 4219 1831 4219 
Q 1534 4219 1204 4116 
Q 875 4013 500 3803 
L 500 4441 
Q 881 4594 1212 4672 
Q 1544 4750 1819 4750 
Q 2544 4750 2975 4387 
Q 3406 4025 3406 3419 
Q 3406 3131 3298 2873 
Q 3191 2616 2906 2266 
Q 2828 2175 2409 1742 
Q 1991 1309 1228 531 
z
" transform="scale(0.015625)"/>
       </defs>
       <use xlink:href="#DejaVuSans-32"/>
       <use xlink:href="#DejaVuSans-30" x="63.623047"/>
       <use xlink:href="#DejaVuSans-30" x="127.246094"/>
       <use xlink:href="#DejaVuSans-30" x="190.869141"/>
      </g>
     </g>
    </g>
    <g id="xtick_4">
     <g id="line2d_4">
      <g>
       <use xlink:href="#m16f9bca962" x="268.157297" y="133.12875" style="stroke: #000000; stroke-width: 0.8"/>
      </g>
     </g>
     <g id="text_4">
      <!-- 3000 -->
      <g transform="translate(255.432297 147.727187)scale(0.1 -0.1)">
       <defs>
        <path id="DejaVuSans-33" d="M 2597 2516 
Q 3050 2419 3304 2112 
Q 3559 1806 3559 1356 
Q 3559 666 3084 287 
Q 2609 -91 1734 -91 
Q 1441 -91 1130 -33 
Q 819 25 488 141 
L 488 750 
Q 750 597 1062 519 
Q 1375 441 1716 441 
Q 2309 441 2620 675 
Q 2931 909 2931 1356 
Q 2931 1769 2642 2001 
Q 2353 2234 1838 2234 
L 1294 2234 
L 1294 2753 
L 1863 2753 
Q 2328 2753 2575 2939 
Q 2822 3125 2822 3475 
Q 2822 3834 2567 4026 
Q 2313 4219 1838 4219 
Q 1578 4219 1281 4162 
Q 984 4106 628 3988 
L 628 4550 
Q 988 4650 1302 4700 
Q 1616 4750 1894 4750 
Q 2613 4750 3031 4423 
Q 3450 4097 3450 3541 
Q 3450 3153 3228 2886 
Q 3006 2619 2597 2516 
z
" transform="scale(0.015625)"/>
       </defs>
       <use xlink:href="#DejaVuSans-33"/>
       <use xlink:href="#DejaVuSans-30" x="63.623047"/>
       <use xlink:href="#DejaVuSans-30" x="127.246094"/>
       <use xlink:href="#DejaVuSans-30" x="190.869141"/>
      </g>
     </g>
    </g>
    <g id="xtick_5">
     <g id="line2d_5">
      <g>
       <use xlink:href="#m16f9bca962" x="341.789962" y="133.12875" style="stroke: #000000; stroke-width: 0.8"/>
      </g>
     </g>
     <g id="text_5">
      <!-- 4000 -->
      <g transform="translate(329.064962 147.727187)scale(0.1 -0.1)">
       <defs>
        <path id="DejaVuSans-34" d="M 2419 4116 
L 825 1625 
L 2419 1625 
L 2419 4116 
z
M 2253 4666 
L 3047 4666 
L 3047 1625 
L 3713 1625 
L 3713 1100 
L 3047 1100 
L 3047 0 
L 2419 0 
L 2419 1100 
L 313 1100 
L 313 1709 
L 2253 4666 
z
" transform="scale(0.015625)"/>
       </defs>
       <use xlink:href="#DejaVuSans-34"/>
       <use xlink:href="#DejaVuSans-30" x="63.623047"/>
       <use xlink:href="#DejaVuSans-30" x="127.246094"/>
       <use xlink:href="#DejaVuSans-30" x="190.869141"/>
      </g>
     </g>
    </g>
    <g id="xtick_6">
     <g id="line2d_6">
      <g>
       <use xlink:href="#m16f9bca962" x="415.422626" y="133.12875" style="stroke: #000000; stroke-width: 0.8"/>
      </g>
     </g>
     <g id="text_6">
      <!-- 5000 -->
      <g transform="translate(402.697626 147.727187)scale(0.1 -0.1)">
       <defs>
        <path id="DejaVuSans-35" d="M 691 4666 
L 3169 4666 
L 3169 4134 
L 1269 4134 
L 1269 2991 
Q 1406 3038 1543 3061 
Q 1681 3084 1819 3084 
Q 2600 3084 3056 2656 
Q 3513 2228 3513 1497 
Q 3513 744 3044 326 
Q 2575 -91 1722 -91 
Q 1428 -91 1123 -41 
Q 819 9 494 109 
L 494 744 
Q 775 591 1075 516 
Q 1375 441 1709 441 
Q 2250 441 2565 725 
Q 2881 1009 2881 1497 
Q 2881 1984 2565 2268 
Q 2250 2553 1709 2553 
Q 1456 2553 1204 2497 
Q 953 2441 691 2322 
L 691 4666 
z
" transform="scale(0.015625)"/>
       </defs>
       <use xlink:href="#DejaVuSans-35"/>
       <use xlink:href="#DejaVuSans-30" x="63.623047"/>
       <use xlink:href="#DejaVuSans-30" x="127.246094"/>
       <use xlink:href="#DejaVuSans-30" x="190.869141"/>
      </g>
     </g>
    </g>
   </g>
   <g id="matplotlib.axis_2">
    <g id="ytick_1">
     <g id="line2d_7">
      <defs>
       <path id="mb58afb5049" d="M 0 0 
L -3.5 0 
" style="stroke: #000000; stroke-width: 0.8"/>
      </defs>
      <g>
       <use xlink:href="#mb58afb5049" x="29.08774" y="133.12875" style="stroke: #000000; stroke-width: 0.8"/>
      </g>
     </g>
     <g id="text_7">
      <!-- 0 -->
      <g transform="translate(15.72524 136.927969)scale(0.1 -0.1)">
       <use xlink:href="#DejaVuSans-30"/>
      </g>
     </g>
    </g>
    <g id="ytick_2">
     <g id="line2d_8">
      <g>
       <use xlink:href="#mb58afb5049" x="29.08774" y="101.533248" style="stroke: #000000; stroke-width: 0.8"/>
      </g>
     </g>
     <g id="text_8">
      <!-- 100 -->
      <g transform="translate(3.00024 105.332467)scale(0.1 -0.1)">
       <use xlink:href="#DejaVuSans-31"/>
       <use xlink:href="#DejaVuSans-30" x="63.623047"/>
       <use xlink:href="#DejaVuSans-30" x="127.246094"/>
      </g>
     </g>
    </g>
    <g id="ytick_3">
     <g id="line2d_9">
      <g>
       <use xlink:href="#mb58afb5049" x="29.08774" y="69.937747" style="stroke: #000000; stroke-width: 0.8"/>
      </g>
     </g>
     <g id="text_9">
      <!-- 200 -->
      <g transform="translate(3.00024 73.736966)scale(0.1 -0.1)">
       <use xlink:href="#DejaVuSans-32"/>
       <use xlink:href="#DejaVuSans-30" x="63.623047"/>
       <use xlink:href="#DejaVuSans-30" x="127.246094"/>
      </g>
     </g>
    </g>
   </g>
   <g id="patch_103">
    <path d="M 29.08774 133.12875 
L 29.08774 39.57447 
" style="fill: none; stroke: #000000; stroke-width: 0.8; stroke-linejoin: miter; stroke-linecap: square"/>
   </g>
   <g id="patch_104">
    <path d="M 428.99976 133.12875 
L 428.99976 39.57447 
" style="fill: none; stroke: #000000; stroke-width: 0.8; stroke-linejoin: miter; stroke-linecap: square"/>
   </g>
   <g id="patch_105">
    <path d="M 29.08774 133.12875 
L 428.99976 133.12875 
" style="fill: none; stroke: #000000; stroke-width: 0.8; stroke-linejoin: miter; stroke-linecap: square"/>
   </g>
   <g id="patch_106">
    <path d="M 29.08774 39.57447 
L 428.99976 39.57447 
" style="fill: none; stroke: #000000; stroke-width: 0.8; stroke-linejoin: miter; stroke-linecap: square"/>
   </g>
   <g id="text_10">
    <!-- $\widetilde{\chi_1^\pm}$ -->
    <g transform="translate(219.86375 33.57447)scale(0.12 -0.12)">
     <defs>
      <path id="STIXSizeFourSym-Regular-303" d="M -1171 4934 
L -986 4934 
Q -1120 4410 -1824 4150 
Q -2528 3891 -3552 3891 
Q -5293 3891 -7962 4294 
Q -9389 4512 -10355 4512 
Q -11149 4512 -11936 4345 
Q -12723 4179 -12870 3891 
L -13056 3891 
Q -12954 4250 -12486 4496 
Q -12019 4742 -11452 4838 
Q -10886 4934 -10266 4934 
Q -9741 4934 -8537 4822 
Q -7334 4710 -6138 4525 
Q -5523 4429 -4649 4371 
Q -3776 4314 -3373 4314 
Q -2573 4314 -1933 4474 
Q -1293 4634 -1171 4934 
z
" transform="scale(0.015625)"/>
      <path id="DejaVuSans-Oblique-3c7" d="M 1922 -781 
L 1691 416 
L 394 -1334 
L -284 -1334 
L 1553 1141 
L 1269 2613 
Q 1194 3006 713 3006 
L 559 3006 
L 653 3500 
L 872 3494 
Q 1675 3472 1775 2950 
L 2006 1753 
L 3303 3503 
L 3981 3503 
L 2144 1028 
L 2428 -444 
Q 2503 -838 2984 -838 
L 3138 -838 
L 3044 -1331 
L 2825 -1325 
Q 2022 -1303 1922 -781 
z
" transform="scale(0.015625)"/>
      <path id="DejaVuSans-b1" d="M 2944 4013 
L 2944 2803 
L 4684 2803 
L 4684 2272 
L 2944 2272 
L 2944 1063 
L 2419 1063 
L 2419 2272 
L 678 2272 
L 678 2803 
L 2419 2803 
L 2419 4013 
L 2944 4013 
z
M 678 531 
L 4684 531 
L 4684 0 
L 678 0 
L 678 531 
z
" transform="scale(0.015625)"/>
     </defs>
     <use xlink:href="#STIXSizeFourSym-Regular-303" transform="translate(183.813001 45.546875)scale(0.807633)"/>
     <use xlink:href="#DejaVuSans-Oblique-3c7" transform="translate(0 0.123437)"/>
     <use xlink:href="#DejaVuSans-b1" transform="translate(77.290091 38.404687)scale(0.7)"/>
     <use xlink:href="#DejaVuSans-31" transform="translate(59.179688 -27.220313)scale(0.7)"/>
    </g>
   </g>
  </g>
  <g id="axes_2">
   <g id="patch_107">
    <path d="M 29.08774 268.321635 
L 428.99976 268.321635 
L 428.99976 174.767355 
L 29.08774 174.767355 
z
" style="fill: #ffffff"/>
   </g>
   <g id="patch_108">
    <path d="M 47.265559 268.321635 
L 50.901123 268.321635 
L 50.901123 264.21422 
L 47.265559 264.21422 
z
" clip-path="url(#p457c4429ed)" style="fill: #1f77b4"/>
   </g>
   <g id="patch_109">
    <path d="M 50.901123 268.321635 
L 54.536687 268.321635 
L 54.536687 259.15894 
L 50.901123 259.15894 
z
" clip-path="url(#p457c4429ed)" style="fill: #1f77b4"/>
   </g>
   <g id="patch_110">
    <path d="M 54.536687 268.321635 
L 58.172251 268.321635 
L 58.172251 261.68658 
L 54.536687 261.68658 
z
" clip-path="url(#p457c4429ed)" style="fill: #1f77b4"/>
   </g>
   <g id="patch_111">
    <path d="M 58.172251 268.321635 
L 61.807814 268.321635 
L 61.807814 256.631299 
L 58.172251 256.631299 
z
" clip-path="url(#p457c4429ed)" style="fill: #1f77b4"/>
   </g>
   <g id="patch_112">
    <path d="M 61.807814 268.321635 
L 65.443378 268.321635 
L 65.443378 257.579164 
L 61.807814 257.579164 
z
" clip-path="url(#p457c4429ed)" style="fill: #1f77b4"/>
   </g>
   <g id="patch_113">
    <path d="M 65.443378 268.321635 
L 69.078942 268.321635 
L 69.078942 251.576019 
L 65.443378 251.576019 
z
" clip-path="url(#p457c4429ed)" style="fill: #1f77b4"/>
   </g>
   <g id="patch_114">
    <path d="M 69.078942 268.321635 
L 72.714506 268.321635 
L 72.714506 249.364334 
L 69.078942 249.364334 
z
" clip-path="url(#p457c4429ed)" style="fill: #1f77b4"/>
   </g>
   <g id="patch_115">
    <path d="M 72.714506 268.321635 
L 76.35007 268.321635 
L 76.35007 249.364334 
L 72.714506 249.364334 
z
" clip-path="url(#p457c4429ed)" style="fill: #1f77b4"/>
   </g>
   <g id="patch_116">
    <path d="M 76.35007 268.321635 
L 79.985633 268.321635 
L 79.985633 250.312199 
L 76.35007 250.312199 
z
" clip-path="url(#p457c4429ed)" style="fill: #1f77b4"/>
   </g>
   <g id="patch_117">
    <path d="M 79.985633 268.321635 
L 83.621197 268.321635 
L 83.621197 248.100514 
L 79.985633 248.100514 
z
" clip-path="url(#p457c4429ed)" style="fill: #1f77b4"/>
   </g>
   <g id="patch_118">
    <path d="M 83.621197 268.321635 
L 87.256761 268.321635 
L 87.256761 243.361189 
L 83.621197 243.361189 
z
" clip-path="url(#p457c4429ed)" style="fill: #1f77b4"/>
   </g>
   <g id="patch_119">
    <path d="M 87.256761 268.321635 
L 90.892325 268.321635 
L 90.892325 234.514448 
L 87.256761 234.514448 
z
" clip-path="url(#p457c4429ed)" style="fill: #1f77b4"/>
   </g>
   <g id="patch_120">
    <path d="M 90.892325 268.321635 
L 94.527889 268.321635 
L 94.527889 241.781414 
L 90.892325 241.781414 
z
" clip-path="url(#p457c4429ed)" style="fill: #1f77b4"/>
   </g>
   <g id="patch_121">
    <path d="M 94.527889 268.321635 
L 98.163453 268.321635 
L 98.163453 245.572874 
L 94.527889 245.572874 
z
" clip-path="url(#p457c4429ed)" style="fill: #1f77b4"/>
   </g>
   <g id="patch_122">
    <path d="M 98.163453 268.321635 
L 101.799016 268.321635 
L 101.799016 242.413324 
L 98.163453 242.413324 
z
" clip-path="url(#p457c4429ed)" style="fill: #1f77b4"/>
   </g>
   <g id="patch_123">
    <path d="M 101.799016 268.321635 
L 105.43458 268.321635 
L 105.43458 238.937819 
L 101.799016 238.937819 
z
" clip-path="url(#p457c4429ed)" style="fill: #1f77b4"/>
   </g>
   <g id="patch_124">
    <path d="M 105.43458 268.321635 
L 109.070144 268.321635 
L 109.070144 240.517594 
L 105.43458 240.517594 
z
" clip-path="url(#p457c4429ed)" style="fill: #1f77b4"/>
   </g>
   <g id="patch_125">
    <path d="M 109.070144 268.321635 
L 112.705708 268.321635 
L 112.705708 243.361189 
L 109.070144 243.361189 
z
" clip-path="url(#p457c4429ed)" style="fill: #1f77b4"/>
   </g>
   <g id="patch_126">
    <path d="M 112.705708 268.321635 
L 116.341272 268.321635 
L 116.341272 243.045234 
L 112.705708 243.045234 
z
" clip-path="url(#p457c4429ed)" style="fill: #1f77b4"/>
   </g>
   <g id="patch_127">
    <path d="M 116.341272 268.321635 
L 119.976835 268.321635 
L 119.976835 236.094223 
L 116.341272 236.094223 
z
" clip-path="url(#p457c4429ed)" style="fill: #1f77b4"/>
   </g>
   <g id="patch_128">
    <path d="M 119.976835 268.321635 
L 123.612399 268.321635 
L 123.612399 240.517594 
L 119.976835 240.517594 
z
" clip-path="url(#p457c4429ed)" style="fill: #1f77b4"/>
   </g>
   <g id="patch_129">
    <path d="M 123.612399 268.321635 
L 127.247963 268.321635 
L 127.247963 235.778268 
L 123.612399 235.778268 
z
" clip-path="url(#p457c4429ed)" style="fill: #1f77b4"/>
   </g>
   <g id="patch_130">
    <path d="M 127.247963 268.321635 
L 130.883527 268.321635 
L 130.883527 237.989954 
L 127.247963 237.989954 
z
" clip-path="url(#p457c4429ed)" style="fill: #1f77b4"/>
   </g>
   <g id="patch_131">
    <path d="M 130.883527 268.321635 
L 134.519091 268.321635 
L 134.519091 235.146358 
L 130.883527 235.146358 
z
" clip-path="url(#p457c4429ed)" style="fill: #1f77b4"/>
   </g>
   <g id="patch_132">
    <path d="M 134.519091 268.321635 
L 138.154655 268.321635 
L 138.154655 238.305909 
L 134.519091 238.305909 
z
" clip-path="url(#p457c4429ed)" style="fill: #1f77b4"/>
   </g>
   <g id="patch_133">
    <path d="M 138.154655 268.321635 
L 141.790218 268.321635 
L 141.790218 232.302763 
L 138.154655 232.302763 
z
" clip-path="url(#p457c4429ed)" style="fill: #1f77b4"/>
   </g>
   <g id="patch_134">
    <path d="M 141.790218 268.321635 
L 145.425782 268.321635 
L 145.425782 238.937819 
L 141.790218 238.937819 
z
" clip-path="url(#p457c4429ed)" style="fill: #1f77b4"/>
   </g>
   <g id="patch_135">
    <path d="M 145.425782 268.321635 
L 149.061346 268.321635 
L 149.061346 241.781414 
L 145.425782 241.781414 
z
" clip-path="url(#p457c4429ed)" style="fill: #1f77b4"/>
   </g>
   <g id="patch_136">
    <path d="M 149.061346 268.321635 
L 152.69691 268.321635 
L 152.69691 237.042088 
L 149.061346 237.042088 
z
" clip-path="url(#p457c4429ed)" style="fill: #1f77b4"/>
   </g>
   <g id="patch_137">
    <path d="M 152.69691 268.321635 
L 156.332474 268.321635 
L 156.332474 235.462313 
L 152.69691 235.462313 
z
" clip-path="url(#p457c4429ed)" style="fill: #1f77b4"/>
   </g>
   <g id="patch_138">
    <path d="M 156.332474 268.321635 
L 159.968037 268.321635 
L 159.968037 236.410178 
L 156.332474 236.410178 
z
" clip-path="url(#p457c4429ed)" style="fill: #1f77b4"/>
   </g>
   <g id="patch_139">
    <path d="M 159.968037 268.321635 
L 163.603601 268.321635 
L 163.603601 233.566583 
L 159.968037 233.566583 
z
" clip-path="url(#p457c4429ed)" style="fill: #1f77b4"/>
   </g>
   <g id="patch_140">
    <path d="M 163.603601 268.321635 
L 167.239165 268.321635 
L 167.239165 237.042088 
L 163.603601 237.042088 
z
" clip-path="url(#p457c4429ed)" style="fill: #1f77b4"/>
   </g>
   <g id="patch_141">
    <path d="M 167.239165 268.321635 
L 170.874729 268.321635 
L 170.874729 237.673999 
L 167.239165 237.673999 
z
" clip-path="url(#p457c4429ed)" style="fill: #1f77b4"/>
   </g>
   <g id="patch_142">
    <path d="M 170.874729 268.321635 
L 174.510293 268.321635 
L 174.510293 238.305909 
L 170.874729 238.305909 
z
" clip-path="url(#p457c4429ed)" style="fill: #1f77b4"/>
   </g>
   <g id="patch_143">
    <path d="M 174.510293 268.321635 
L 178.145857 268.321635 
L 178.145857 235.462313 
L 174.510293 235.462313 
z
" clip-path="url(#p457c4429ed)" style="fill: #1f77b4"/>
   </g>
   <g id="patch_144">
    <path d="M 178.145857 268.321635 
L 181.78142 268.321635 
L 181.78142 232.618718 
L 178.145857 232.618718 
z
" clip-path="url(#p457c4429ed)" style="fill: #1f77b4"/>
   </g>
   <g id="patch_145">
    <path d="M 181.78142 268.321635 
L 185.416984 268.321635 
L 185.416984 232.302763 
L 181.78142 232.302763 
z
" clip-path="url(#p457c4429ed)" style="fill: #1f77b4"/>
   </g>
   <g id="patch_146">
    <path d="M 185.416984 268.321635 
L 189.052548 268.321635 
L 189.052548 236.094223 
L 185.416984 236.094223 
z
" clip-path="url(#p457c4429ed)" style="fill: #1f77b4"/>
   </g>
   <g id="patch_147">
    <path d="M 189.052548 268.321635 
L 192.688112 268.321635 
L 192.688112 241.781414 
L 189.052548 241.781414 
z
" clip-path="url(#p457c4429ed)" style="fill: #1f77b4"/>
   </g>
   <g id="patch_148">
    <path d="M 192.688112 268.321635 
L 196.323676 268.321635 
L 196.323676 242.729279 
L 192.688112 242.729279 
z
" clip-path="url(#p457c4429ed)" style="fill: #1f77b4"/>
   </g>
   <g id="patch_149">
    <path d="M 196.323676 268.321635 
L 199.959239 268.321635 
L 199.959239 237.042088 
L 196.323676 237.042088 
z
" clip-path="url(#p457c4429ed)" style="fill: #1f77b4"/>
   </g>
   <g id="patch_150">
    <path d="M 199.959239 268.321635 
L 203.594803 268.321635 
L 203.594803 238.621864 
L 199.959239 238.621864 
z
" clip-path="url(#p457c4429ed)" style="fill: #1f77b4"/>
   </g>
   <g id="patch_151">
    <path d="M 203.594803 268.321635 
L 207.230367 268.321635 
L 207.230367 233.566583 
L 203.594803 233.566583 
z
" clip-path="url(#p457c4429ed)" style="fill: #1f77b4"/>
   </g>
   <g id="patch_152">
    <path d="M 207.230367 268.321635 
L 210.865931 268.321635 
L 210.865931 227.563438 
L 207.230367 227.563438 
z
" clip-path="url(#p457c4429ed)" style="fill: #1f77b4"/>
   </g>
   <g id="patch_153">
    <path d="M 210.865931 268.321635 
L 214.501495 268.321635 
L 214.501495 235.146358 
L 210.865931 235.146358 
z
" clip-path="url(#p457c4429ed)" style="fill: #1f77b4"/>
   </g>
   <g id="patch_154">
    <path d="M 214.501495 268.321635 
L 218.137059 268.321635 
L 218.137059 223.456023 
L 214.501495 223.456023 
z
" clip-path="url(#p457c4429ed)" style="fill: #1f77b4"/>
   </g>
   <g id="patch_155">
    <path d="M 218.137059 268.321635 
L 221.772622 268.321635 
L 221.772622 237.673999 
L 218.137059 237.673999 
z
" clip-path="url(#p457c4429ed)" style="fill: #1f77b4"/>
   </g>
   <g id="patch_156">
    <path d="M 221.772622 268.321635 
L 225.408186 268.321635 
L 225.408186 244.940964 
L 221.772622 244.940964 
z
" clip-path="url(#p457c4429ed)" style="fill: #1f77b4"/>
   </g>
   <g id="patch_157">
    <path d="M 225.408186 268.321635 
L 229.04375 268.321635 
L 229.04375 253.155794 
L 225.408186 253.155794 
z
" clip-path="url(#p457c4429ed)" style="fill: #1f77b4"/>
   </g>
   <g id="patch_158">
    <path d="M 229.04375 268.321635 
L 232.679314 268.321635 
L 232.679314 252.523884 
L 229.04375 252.523884 
z
" clip-path="url(#p457c4429ed)" style="fill: #1f77b4"/>
   </g>
   <g id="patch_159">
    <path d="M 232.679314 268.321635 
L 236.314878 268.321635 
L 236.314878 251.576019 
L 232.679314 251.576019 
z
" clip-path="url(#p457c4429ed)" style="fill: #1f77b4"/>
   </g>
   <g id="patch_160">
    <path d="M 236.314878 268.321635 
L 239.950441 268.321635 
L 239.950441 255.999389 
L 236.314878 255.999389 
z
" clip-path="url(#p457c4429ed)" style="fill: #1f77b4"/>
   </g>
   <g id="patch_161">
    <path d="M 239.950441 268.321635 
L 243.586005 268.321635 
L 243.586005 255.683434 
L 239.950441 255.683434 
z
" clip-path="url(#p457c4429ed)" style="fill: #1f77b4"/>
   </g>
   <g id="patch_162">
    <path d="M 243.586005 268.321635 
L 247.221569 268.321635 
L 247.221569 259.15894 
L 243.586005 259.15894 
z
" clip-path="url(#p457c4429ed)" style="fill: #1f77b4"/>
   </g>
   <g id="patch_163">
    <path d="M 247.221569 268.321635 
L 250.857133 268.321635 
L 250.857133 255.051524 
L 247.221569 255.051524 
z
" clip-path="url(#p457c4429ed)" style="fill: #1f77b4"/>
   </g>
   <g id="patch_164">
    <path d="M 250.857133 268.321635 
L 254.492697 268.321635 
L 254.492697 255.051524 
L 250.857133 255.051524 
z
" clip-path="url(#p457c4429ed)" style="fill: #1f77b4"/>
   </g>
   <g id="patch_165">
    <path d="M 254.492697 268.321635 
L 258.128261 268.321635 
L 258.128261 256.315344 
L 254.492697 256.315344 
z
" clip-path="url(#p457c4429ed)" style="fill: #1f77b4"/>
   </g>
   <g id="patch_166">
    <path d="M 258.128261 268.321635 
L 261.763824 268.321635 
L 261.763824 258.52703 
L 258.128261 258.52703 
z
" clip-path="url(#p457c4429ed)" style="fill: #1f77b4"/>
   </g>
   <g id="patch_167">
    <path d="M 261.763824 268.321635 
L 265.399388 268.321635 
L 265.399388 257.895119 
L 261.763824 257.895119 
z
" clip-path="url(#p457c4429ed)" style="fill: #1f77b4"/>
   </g>
   <g id="patch_168">
    <path d="M 265.399388 268.321635 
L 269.034952 268.321635 
L 269.034952 259.474895 
L 265.399388 259.474895 
z
" clip-path="url(#p457c4429ed)" style="fill: #1f77b4"/>
   </g>
   <g id="patch_169">
    <path d="M 269.034952 268.321635 
L 272.670516 268.321635 
L 272.670516 256.947254 
L 269.034952 256.947254 
z
" clip-path="url(#p457c4429ed)" style="fill: #1f77b4"/>
   </g>
   <g id="patch_170">
    <path d="M 272.670516 268.321635 
L 276.30608 268.321635 
L 276.30608 255.999389 
L 272.670516 255.999389 
z
" clip-path="url(#p457c4429ed)" style="fill: #1f77b4"/>
   </g>
   <g id="patch_171">
    <path d="M 276.30608 268.321635 
L 279.941643 268.321635 
L 279.941643 258.211075 
L 276.30608 258.211075 
z
" clip-path="url(#p457c4429ed)" style="fill: #1f77b4"/>
   </g>
   <g id="patch_172">
    <path d="M 279.941643 268.321635 
L 283.577207 268.321635 
L 283.577207 258.842985 
L 279.941643 258.842985 
z
" clip-path="url(#p457c4429ed)" style="fill: #1f77b4"/>
   </g>
   <g id="patch_173">
    <path d="M 283.577207 268.321635 
L 287.212771 268.321635 
L 287.212771 260.106805 
L 283.577207 260.106805 
z
" clip-path="url(#p457c4429ed)" style="fill: #1f77b4"/>
   </g>
   <g id="patch_174">
    <path d="M 287.212771 268.321635 
L 290.848335 268.321635 
L 290.848335 259.474895 
L 287.212771 259.474895 
z
" clip-path="url(#p457c4429ed)" style="fill: #1f77b4"/>
   </g>
   <g id="patch_175">
    <path d="M 290.848335 268.321635 
L 294.483899 268.321635 
L 294.483899 261.05467 
L 290.848335 261.05467 
z
" clip-path="url(#p457c4429ed)" style="fill: #1f77b4"/>
   </g>
   <g id="patch_176">
    <path d="M 294.483899 268.321635 
L 298.119463 268.321635 
L 298.119463 255.367479 
L 294.483899 255.367479 
z
" clip-path="url(#p457c4429ed)" style="fill: #1f77b4"/>
   </g>
   <g id="patch_177">
    <path d="M 298.119463 268.321635 
L 301.755026 268.321635 
L 301.755026 255.367479 
L 298.119463 255.367479 
z
" clip-path="url(#p457c4429ed)" style="fill: #1f77b4"/>
   </g>
   <g id="patch_178">
    <path d="M 301.755026 268.321635 
L 305.39059 268.321635 
L 305.39059 259.15894 
L 301.755026 259.15894 
z
" clip-path="url(#p457c4429ed)" style="fill: #1f77b4"/>
   </g>
   <g id="patch_179">
    <path d="M 305.39059 268.321635 
L 309.026154 268.321635 
L 309.026154 255.683434 
L 305.39059 255.683434 
z
" clip-path="url(#p457c4429ed)" style="fill: #1f77b4"/>
   </g>
   <g id="patch_180">
    <path d="M 309.026154 268.321635 
L 312.661718 268.321635 
L 312.661718 259.15894 
L 309.026154 259.15894 
z
" clip-path="url(#p457c4429ed)" style="fill: #1f77b4"/>
   </g>
   <g id="patch_181">
    <path d="M 312.661718 268.321635 
L 316.297282 268.321635 
L 316.297282 259.474895 
L 312.661718 259.474895 
z
" clip-path="url(#p457c4429ed)" style="fill: #1f77b4"/>
   </g>
   <g id="patch_182">
    <path d="M 316.297282 268.321635 
L 319.932845 268.321635 
L 319.932845 258.52703 
L 316.297282 258.52703 
z
" clip-path="url(#p457c4429ed)" style="fill: #1f77b4"/>
   </g>
   <g id="patch_183">
    <path d="M 319.932845 268.321635 
L 323.568409 268.321635 
L 323.568409 261.370625 
L 319.932845 261.370625 
z
" clip-path="url(#p457c4429ed)" style="fill: #1f77b4"/>
   </g>
   <g id="patch_184">
    <path d="M 323.568409 268.321635 
L 327.203973 268.321635 
L 327.203973 258.211075 
L 323.568409 258.211075 
z
" clip-path="url(#p457c4429ed)" style="fill: #1f77b4"/>
   </g>
   <g id="patch_185">
    <path d="M 327.203973 268.321635 
L 330.839537 268.321635 
L 330.839537 257.579164 
L 327.203973 257.579164 
z
" clip-path="url(#p457c4429ed)" style="fill: #1f77b4"/>
   </g>
   <g id="patch_186">
    <path d="M 330.839537 268.321635 
L 334.475101 268.321635 
L 334.475101 262.31849 
L 330.839537 262.31849 
z
" clip-path="url(#p457c4429ed)" style="fill: #1f77b4"/>
   </g>
   <g id="patch_187">
    <path d="M 334.475101 268.321635 
L 338.110665 268.321635 
L 338.110665 260.106805 
L 334.475101 260.106805 
z
" clip-path="url(#p457c4429ed)" style="fill: #1f77b4"/>
   </g>
   <g id="patch_188">
    <path d="M 338.110665 268.321635 
L 341.746228 268.321635 
L 341.746228 260.738715 
L 338.110665 260.738715 
z
" clip-path="url(#p457c4429ed)" style="fill: #1f77b4"/>
   </g>
   <g id="patch_189">
    <path d="M 341.746228 268.321635 
L 345.381792 268.321635 
L 345.381792 262.002535 
L 341.746228 262.002535 
z
" clip-path="url(#p457c4429ed)" style="fill: #1f77b4"/>
   </g>
   <g id="patch_190">
    <path d="M 345.381792 268.321635 
L 349.017356 268.321635 
L 349.017356 255.999389 
L 345.381792 255.999389 
z
" clip-path="url(#p457c4429ed)" style="fill: #1f77b4"/>
   </g>
   <g id="patch_191">
    <path d="M 349.017356 268.321635 
L 352.65292 268.321635 
L 352.65292 260.738715 
L 349.017356 260.738715 
z
" clip-path="url(#p457c4429ed)" style="fill: #1f77b4"/>
   </g>
   <g id="patch_192">
    <path d="M 352.65292 268.321635 
L 356.288484 268.321635 
L 356.288484 262.002535 
L 352.65292 262.002535 
z
" clip-path="url(#p457c4429ed)" style="fill: #1f77b4"/>
   </g>
   <g id="patch_193">
    <path d="M 356.288484 268.321635 
L 359.924047 268.321635 
L 359.924047 259.79085 
L 356.288484 259.79085 
z
" clip-path="url(#p457c4429ed)" style="fill: #1f77b4"/>
   </g>
   <g id="patch_194">
    <path d="M 359.924047 268.321635 
L 363.559611 268.321635 
L 363.559611 258.842985 
L 359.924047 258.842985 
z
" clip-path="url(#p457c4429ed)" style="fill: #1f77b4"/>
   </g>
   <g id="patch_195">
    <path d="M 363.559611 268.321635 
L 367.195175 268.321635 
L 367.195175 263.266355 
L 363.559611 263.266355 
z
" clip-path="url(#p457c4429ed)" style="fill: #1f77b4"/>
   </g>
   <g id="patch_196">
    <path d="M 367.195175 268.321635 
L 370.830739 268.321635 
L 370.830739 259.79085 
L 367.195175 259.79085 
z
" clip-path="url(#p457c4429ed)" style="fill: #1f77b4"/>
   </g>
   <g id="patch_197">
    <path d="M 370.830739 268.321635 
L 374.466303 268.321635 
L 374.466303 260.738715 
L 370.830739 260.738715 
z
" clip-path="url(#p457c4429ed)" style="fill: #1f77b4"/>
   </g>
   <g id="patch_198">
    <path d="M 374.466303 268.321635 
L 378.101867 268.321635 
L 378.101867 260.106805 
L 374.466303 260.106805 
z
" clip-path="url(#p457c4429ed)" style="fill: #1f77b4"/>
   </g>
   <g id="patch_199">
    <path d="M 378.101867 268.321635 
L 381.73743 268.321635 
L 381.73743 260.106805 
L 378.101867 260.106805 
z
" clip-path="url(#p457c4429ed)" style="fill: #1f77b4"/>
   </g>
   <g id="patch_200">
    <path d="M 381.73743 268.321635 
L 385.372994 268.321635 
L 385.372994 261.370625 
L 381.73743 261.370625 
z
" clip-path="url(#p457c4429ed)" style="fill: #1f77b4"/>
   </g>
   <g id="patch_201">
    <path d="M 385.372994 268.321635 
L 389.008558 268.321635 
L 389.008558 260.42276 
L 385.372994 260.42276 
z
" clip-path="url(#p457c4429ed)" style="fill: #1f77b4"/>
   </g>
   <g id="patch_202">
    <path d="M 389.008558 268.321635 
L 392.644122 268.321635 
L 392.644122 262.002535 
L 389.008558 262.002535 
z
" clip-path="url(#p457c4429ed)" style="fill: #1f77b4"/>
   </g>
   <g id="patch_203">
    <path d="M 392.644122 268.321635 
L 396.279686 268.321635 
L 396.279686 262.002535 
L 392.644122 262.002535 
z
" clip-path="url(#p457c4429ed)" style="fill: #1f77b4"/>
   </g>
   <g id="patch_204">
    <path d="M 396.279686 268.321635 
L 399.915249 268.321635 
L 399.915249 260.738715 
L 396.279686 260.738715 
z
" clip-path="url(#p457c4429ed)" style="fill: #1f77b4"/>
   </g>
   <g id="patch_205">
    <path d="M 399.915249 268.321635 
L 403.550813 268.321635 
L 403.550813 262.31849 
L 399.915249 262.31849 
z
" clip-path="url(#p457c4429ed)" style="fill: #1f77b4"/>
   </g>
   <g id="patch_206">
    <path d="M 403.550813 268.321635 
L 407.186377 268.321635 
L 407.186377 259.15894 
L 403.550813 259.15894 
z
" clip-path="url(#p457c4429ed)" style="fill: #1f77b4"/>
   </g>
   <g id="patch_207">
    <path d="M 407.186377 268.321635 
L 410.821941 268.321635 
L 410.821941 261.05467 
L 407.186377 261.05467 
z
" clip-path="url(#p457c4429ed)" style="fill: #1f77b4"/>
   </g>
   <g id="matplotlib.axis_3">
    <g id="xtick_7">
     <g id="line2d_10">
      <g>
       <use xlink:href="#m16f9bca962" x="42.160868" y="268.321635" style="stroke: #000000; stroke-width: 0.8"/>
      </g>
     </g>
     <g id="text_11">
      <!-- 0 -->
      <g transform="translate(38.979618 282.920073)scale(0.1 -0.1)">
       <use xlink:href="#DejaVuSans-30"/>
      </g>
     </g>
    </g>
    <g id="xtick_8">
     <g id="line2d_11">
      <g>
       <use xlink:href="#m16f9bca962" x="116.082842" y="268.321635" style="stroke: #000000; stroke-width: 0.8"/>
      </g>
     </g>
     <g id="text_12">
      <!-- 2000 -->
      <g transform="translate(103.357842 282.920073)scale(0.1 -0.1)">
       <use xlink:href="#DejaVuSans-32"/>
       <use xlink:href="#DejaVuSans-30" x="63.623047"/>
       <use xlink:href="#DejaVuSans-30" x="127.246094"/>
       <use xlink:href="#DejaVuSans-30" x="190.869141"/>
      </g>
     </g>
    </g>
    <g id="xtick_9">
     <g id="line2d_12">
      <g>
       <use xlink:href="#m16f9bca962" x="190.004817" y="268.321635" style="stroke: #000000; stroke-width: 0.8"/>
      </g>
     </g>
     <g id="text_13">
      <!-- 4000 -->
      <g transform="translate(177.279817 282.920073)scale(0.1 -0.1)">
       <use xlink:href="#DejaVuSans-34"/>
       <use xlink:href="#DejaVuSans-30" x="63.623047"/>
       <use xlink:href="#DejaVuSans-30" x="127.246094"/>
       <use xlink:href="#DejaVuSans-30" x="190.869141"/>
      </g>
     </g>
    </g>
    <g id="xtick_10">
     <g id="line2d_13">
      <g>
       <use xlink:href="#m16f9bca962" x="263.926791" y="268.321635" style="stroke: #000000; stroke-width: 0.8"/>
      </g>
     </g>
     <g id="text_14">
      <!-- 6000 -->
      <g transform="translate(251.201791 282.920073)scale(0.1 -0.1)">
       <defs>
        <path id="DejaVuSans-36" d="M 2113 2584 
Q 1688 2584 1439 2293 
Q 1191 2003 1191 1497 
Q 1191 994 1439 701 
Q 1688 409 2113 409 
Q 2538 409 2786 701 
Q 3034 994 3034 1497 
Q 3034 2003 2786 2293 
Q 2538 2584 2113 2584 
z
M 3366 4563 
L 3366 3988 
Q 3128 4100 2886 4159 
Q 2644 4219 2406 4219 
Q 1781 4219 1451 3797 
Q 1122 3375 1075 2522 
Q 1259 2794 1537 2939 
Q 1816 3084 2150 3084 
Q 2853 3084 3261 2657 
Q 3669 2231 3669 1497 
Q 3669 778 3244 343 
Q 2819 -91 2113 -91 
Q 1303 -91 875 529 
Q 447 1150 447 2328 
Q 447 3434 972 4092 
Q 1497 4750 2381 4750 
Q 2619 4750 2861 4703 
Q 3103 4656 3366 4563 
z
" transform="scale(0.015625)"/>
       </defs>
       <use xlink:href="#DejaVuSans-36"/>
       <use xlink:href="#DejaVuSans-30" x="63.623047"/>
       <use xlink:href="#DejaVuSans-30" x="127.246094"/>
       <use xlink:href="#DejaVuSans-30" x="190.869141"/>
      </g>
     </g>
    </g>
    <g id="xtick_11">
     <g id="line2d_14">
      <g>
       <use xlink:href="#m16f9bca962" x="337.848766" y="268.321635" style="stroke: #000000; stroke-width: 0.8"/>
      </g>
     </g>
     <g id="text_15">
      <!-- 8000 -->
      <g transform="translate(325.123766 282.920073)scale(0.1 -0.1)">
       <defs>
        <path id="DejaVuSans-38" d="M 2034 2216 
Q 1584 2216 1326 1975 
Q 1069 1734 1069 1313 
Q 1069 891 1326 650 
Q 1584 409 2034 409 
Q 2484 409 2743 651 
Q 3003 894 3003 1313 
Q 3003 1734 2745 1975 
Q 2488 2216 2034 2216 
z
M 1403 2484 
Q 997 2584 770 2862 
Q 544 3141 544 3541 
Q 544 4100 942 4425 
Q 1341 4750 2034 4750 
Q 2731 4750 3128 4425 
Q 3525 4100 3525 3541 
Q 3525 3141 3298 2862 
Q 3072 2584 2669 2484 
Q 3125 2378 3379 2068 
Q 3634 1759 3634 1313 
Q 3634 634 3220 271 
Q 2806 -91 2034 -91 
Q 1263 -91 848 271 
Q 434 634 434 1313 
Q 434 1759 690 2068 
Q 947 2378 1403 2484 
z
M 1172 3481 
Q 1172 3119 1398 2916 
Q 1625 2713 2034 2713 
Q 2441 2713 2670 2916 
Q 2900 3119 2900 3481 
Q 2900 3844 2670 4047 
Q 2441 4250 2034 4250 
Q 1625 4250 1398 4047 
Q 1172 3844 1172 3481 
z
" transform="scale(0.015625)"/>
       </defs>
       <use xlink:href="#DejaVuSans-38"/>
       <use xlink:href="#DejaVuSans-30" x="63.623047"/>
       <use xlink:href="#DejaVuSans-30" x="127.246094"/>
       <use xlink:href="#DejaVuSans-30" x="190.869141"/>
      </g>
     </g>
    </g>
    <g id="xtick_12">
     <g id="line2d_15">
      <g>
       <use xlink:href="#m16f9bca962" x="411.77074" y="268.321635" style="stroke: #000000; stroke-width: 0.8"/>
      </g>
     </g>
     <g id="text_16">
      <!-- 10000 -->
      <g transform="translate(395.86449 282.920073)scale(0.1 -0.1)">
       <use xlink:href="#DejaVuSans-31"/>
       <use xlink:href="#DejaVuSans-30" x="63.623047"/>
       <use xlink:href="#DejaVuSans-30" x="127.246094"/>
       <use xlink:href="#DejaVuSans-30" x="190.869141"/>
       <use xlink:href="#DejaVuSans-30" x="254.492188"/>
      </g>
     </g>
    </g>
   </g>
   <g id="matplotlib.axis_4">
    <g id="ytick_4">
     <g id="line2d_16">
      <g>
       <use xlink:href="#mb58afb5049" x="29.08774" y="268.321635" style="stroke: #000000; stroke-width: 0.8"/>
      </g>
     </g>
     <g id="text_17">
      <!-- 0 -->
      <g transform="translate(15.72524 272.120854)scale(0.1 -0.1)">
       <use xlink:href="#DejaVuSans-30"/>
      </g>
     </g>
    </g>
    <g id="ytick_5">
     <g id="line2d_17">
      <g>
       <use xlink:href="#mb58afb5049" x="29.08774" y="236.726133" style="stroke: #000000; stroke-width: 0.8"/>
      </g>
     </g>
     <g id="text_18">
      <!-- 100 -->
      <g transform="translate(3.00024 240.525352)scale(0.1 -0.1)">
       <use xlink:href="#DejaVuSans-31"/>
       <use xlink:href="#DejaVuSans-30" x="63.623047"/>
       <use xlink:href="#DejaVuSans-30" x="127.246094"/>
      </g>
     </g>
    </g>
    <g id="ytick_6">
     <g id="line2d_18">
      <g>
       <use xlink:href="#mb58afb5049" x="29.08774" y="205.130632" style="stroke: #000000; stroke-width: 0.8"/>
      </g>
     </g>
     <g id="text_19">
      <!-- 200 -->
      <g transform="translate(3.00024 208.929851)scale(0.1 -0.1)">
       <use xlink:href="#DejaVuSans-32"/>
       <use xlink:href="#DejaVuSans-30" x="63.623047"/>
       <use xlink:href="#DejaVuSans-30" x="127.246094"/>
      </g>
     </g>
    </g>
   </g>
   <g id="patch_208">
    <path d="M 29.08774 268.321635 
L 29.08774 174.767355 
" style="fill: none; stroke: #000000; stroke-width: 0.8; stroke-linejoin: miter; stroke-linecap: square"/>
   </g>
   <g id="patch_209">
    <path d="M 428.99976 268.321635 
L 428.99976 174.767355 
" style="fill: none; stroke: #000000; stroke-width: 0.8; stroke-linejoin: miter; stroke-linecap: square"/>
   </g>
   <g id="patch_210">
    <path d="M 29.08774 268.321635 
L 428.99976 268.321635 
" style="fill: none; stroke: #000000; stroke-width: 0.8; stroke-linejoin: miter; stroke-linecap: square"/>
   </g>
   <g id="patch_211">
    <path d="M 29.08774 174.767355 
L 428.99976 174.767355 
" style="fill: none; stroke: #000000; stroke-width: 0.8; stroke-linejoin: miter; stroke-linecap: square"/>
   </g>
   <g id="text_20">
    <!-- $\widetilde{\chi_2^\pm}$ -->
    <g transform="translate(219.86375 168.767355)scale(0.12 -0.12)">
     <use xlink:href="#STIXSizeFourSym-Regular-303" transform="translate(183.813001 45.546875)scale(0.807633)"/>
     <use xlink:href="#DejaVuSans-Oblique-3c7" transform="translate(0 0.123437)"/>
     <use xlink:href="#DejaVuSans-b1" transform="translate(77.290091 38.404687)scale(0.7)"/>
     <use xlink:href="#DejaVuSans-32" transform="translate(59.179688 -27.220313)scale(0.7)"/>
    </g>
   </g>
  </g>
  <g id="text_21">
   <!-- Histogramme de la masse des charginos -->
   <g transform="translate(93.653438 12.118365)scale(0.12 -0.12)">
    <defs>
     <path id="DejaVuSans-48" d="M 628 4666 
L 1259 4666 
L 1259 2753 
L 3553 2753 
L 3553 4666 
L 4184 4666 
L 4184 0 
L 3553 0 
L 3553 2222 
L 1259 2222 
L 1259 0 
L 628 0 
L 628 4666 
z
" transform="scale(0.015625)"/>
     <path id="DejaVuSans-69" d="M 603 3500 
L 1178 3500 
L 1178 0 
L 603 0 
L 603 3500 
z
M 603 4863 
L 1178 4863 
L 1178 4134 
L 603 4134 
L 603 4863 
z
" transform="scale(0.015625)"/>
     <path id="DejaVuSans-73" d="M 2834 3397 
L 2834 2853 
Q 2591 2978 2328 3040 
Q 2066 3103 1784 3103 
Q 1356 3103 1142 2972 
Q 928 2841 928 2578 
Q 928 2378 1081 2264 
Q 1234 2150 1697 2047 
L 1894 2003 
Q 2506 1872 2764 1633 
Q 3022 1394 3022 966 
Q 3022 478 2636 193 
Q 2250 -91 1575 -91 
Q 1294 -91 989 -36 
Q 684 19 347 128 
L 347 722 
Q 666 556 975 473 
Q 1284 391 1588 391 
Q 1994 391 2212 530 
Q 2431 669 2431 922 
Q 2431 1156 2273 1281 
Q 2116 1406 1581 1522 
L 1381 1569 
Q 847 1681 609 1914 
Q 372 2147 372 2553 
Q 372 3047 722 3315 
Q 1072 3584 1716 3584 
Q 2034 3584 2315 3537 
Q 2597 3491 2834 3397 
z
" transform="scale(0.015625)"/>
     <path id="DejaVuSans-74" d="M 1172 4494 
L 1172 3500 
L 2356 3500 
L 2356 3053 
L 1172 3053 
L 1172 1153 
Q 1172 725 1289 603 
Q 1406 481 1766 481 
L 2356 481 
L 2356 0 
L 1766 0 
Q 1100 0 847 248 
Q 594 497 594 1153 
L 594 3053 
L 172 3053 
L 172 3500 
L 594 3500 
L 594 4494 
L 1172 4494 
z
" transform="scale(0.015625)"/>
     <path id="DejaVuSans-6f" d="M 1959 3097 
Q 1497 3097 1228 2736 
Q 959 2375 959 1747 
Q 959 1119 1226 758 
Q 1494 397 1959 397 
Q 2419 397 2687 759 
Q 2956 1122 2956 1747 
Q 2956 2369 2687 2733 
Q 2419 3097 1959 3097 
z
M 1959 3584 
Q 2709 3584 3137 3096 
Q 3566 2609 3566 1747 
Q 3566 888 3137 398 
Q 2709 -91 1959 -91 
Q 1206 -91 779 398 
Q 353 888 353 1747 
Q 353 2609 779 3096 
Q 1206 3584 1959 3584 
z
" transform="scale(0.015625)"/>
     <path id="DejaVuSans-67" d="M 2906 1791 
Q 2906 2416 2648 2759 
Q 2391 3103 1925 3103 
Q 1463 3103 1205 2759 
Q 947 2416 947 1791 
Q 947 1169 1205 825 
Q 1463 481 1925 481 
Q 2391 481 2648 825 
Q 2906 1169 2906 1791 
z
M 3481 434 
Q 3481 -459 3084 -895 
Q 2688 -1331 1869 -1331 
Q 1566 -1331 1297 -1286 
Q 1028 -1241 775 -1147 
L 775 -588 
Q 1028 -725 1275 -790 
Q 1522 -856 1778 -856 
Q 2344 -856 2625 -561 
Q 2906 -266 2906 331 
L 2906 616 
Q 2728 306 2450 153 
Q 2172 0 1784 0 
Q 1141 0 747 490 
Q 353 981 353 1791 
Q 353 2603 747 3093 
Q 1141 3584 1784 3584 
Q 2172 3584 2450 3431 
Q 2728 3278 2906 2969 
L 2906 3500 
L 3481 3500 
L 3481 434 
z
" transform="scale(0.015625)"/>
     <path id="DejaVuSans-72" d="M 2631 2963 
Q 2534 3019 2420 3045 
Q 2306 3072 2169 3072 
Q 1681 3072 1420 2755 
Q 1159 2438 1159 1844 
L 1159 0 
L 581 0 
L 581 3500 
L 1159 3500 
L 1159 2956 
Q 1341 3275 1631 3429 
Q 1922 3584 2338 3584 
Q 2397 3584 2469 3576 
Q 2541 3569 2628 3553 
L 2631 2963 
z
" transform="scale(0.015625)"/>
     <path id="DejaVuSans-61" d="M 2194 1759 
Q 1497 1759 1228 1600 
Q 959 1441 959 1056 
Q 959 750 1161 570 
Q 1363 391 1709 391 
Q 2188 391 2477 730 
Q 2766 1069 2766 1631 
L 2766 1759 
L 2194 1759 
z
M 3341 1997 
L 3341 0 
L 2766 0 
L 2766 531 
Q 2569 213 2275 61 
Q 1981 -91 1556 -91 
Q 1019 -91 701 211 
Q 384 513 384 1019 
Q 384 1609 779 1909 
Q 1175 2209 1959 2209 
L 2766 2209 
L 2766 2266 
Q 2766 2663 2505 2880 
Q 2244 3097 1772 3097 
Q 1472 3097 1187 3025 
Q 903 2953 641 2809 
L 641 3341 
Q 956 3463 1253 3523 
Q 1550 3584 1831 3584 
Q 2591 3584 2966 3190 
Q 3341 2797 3341 1997 
z
" transform="scale(0.015625)"/>
     <path id="DejaVuSans-6d" d="M 3328 2828 
Q 3544 3216 3844 3400 
Q 4144 3584 4550 3584 
Q 5097 3584 5394 3201 
Q 5691 2819 5691 2113 
L 5691 0 
L 5113 0 
L 5113 2094 
Q 5113 2597 4934 2840 
Q 4756 3084 4391 3084 
Q 3944 3084 3684 2787 
Q 3425 2491 3425 1978 
L 3425 0 
L 2847 0 
L 2847 2094 
Q 2847 2600 2669 2842 
Q 2491 3084 2119 3084 
Q 1678 3084 1418 2786 
Q 1159 2488 1159 1978 
L 1159 0 
L 581 0 
L 581 3500 
L 1159 3500 
L 1159 2956 
Q 1356 3278 1631 3431 
Q 1906 3584 2284 3584 
Q 2666 3584 2933 3390 
Q 3200 3197 3328 2828 
z
" transform="scale(0.015625)"/>
     <path id="DejaVuSans-65" d="M 3597 1894 
L 3597 1613 
L 953 1613 
Q 991 1019 1311 708 
Q 1631 397 2203 397 
Q 2534 397 2845 478 
Q 3156 559 3463 722 
L 3463 178 
Q 3153 47 2828 -22 
Q 2503 -91 2169 -91 
Q 1331 -91 842 396 
Q 353 884 353 1716 
Q 353 2575 817 3079 
Q 1281 3584 2069 3584 
Q 2775 3584 3186 3129 
Q 3597 2675 3597 1894 
z
M 3022 2063 
Q 3016 2534 2758 2815 
Q 2500 3097 2075 3097 
Q 1594 3097 1305 2825 
Q 1016 2553 972 2059 
L 3022 2063 
z
" transform="scale(0.015625)"/>
     <path id="DejaVuSans-20" transform="scale(0.015625)"/>
     <path id="DejaVuSans-64" d="M 2906 2969 
L 2906 4863 
L 3481 4863 
L 3481 0 
L 2906 0 
L 2906 525 
Q 2725 213 2448 61 
Q 2172 -91 1784 -91 
Q 1150 -91 751 415 
Q 353 922 353 1747 
Q 353 2572 751 3078 
Q 1150 3584 1784 3584 
Q 2172 3584 2448 3432 
Q 2725 3281 2906 2969 
z
M 947 1747 
Q 947 1113 1208 752 
Q 1469 391 1925 391 
Q 2381 391 2643 752 
Q 2906 1113 2906 1747 
Q 2906 2381 2643 2742 
Q 2381 3103 1925 3103 
Q 1469 3103 1208 2742 
Q 947 2381 947 1747 
z
" transform="scale(0.015625)"/>
     <path id="DejaVuSans-6c" d="M 603 4863 
L 1178 4863 
L 1178 0 
L 603 0 
L 603 4863 
z
" transform="scale(0.015625)"/>
     <path id="DejaVuSans-63" d="M 3122 3366 
L 3122 2828 
Q 2878 2963 2633 3030 
Q 2388 3097 2138 3097 
Q 1578 3097 1268 2742 
Q 959 2388 959 1747 
Q 959 1106 1268 751 
Q 1578 397 2138 397 
Q 2388 397 2633 464 
Q 2878 531 3122 666 
L 3122 134 
Q 2881 22 2623 -34 
Q 2366 -91 2075 -91 
Q 1284 -91 818 406 
Q 353 903 353 1747 
Q 353 2603 823 3093 
Q 1294 3584 2113 3584 
Q 2378 3584 2631 3529 
Q 2884 3475 3122 3366 
z
" transform="scale(0.015625)"/>
     <path id="DejaVuSans-68" d="M 3513 2113 
L 3513 0 
L 2938 0 
L 2938 2094 
Q 2938 2591 2744 2837 
Q 2550 3084 2163 3084 
Q 1697 3084 1428 2787 
Q 1159 2491 1159 1978 
L 1159 0 
L 581 0 
L 581 4863 
L 1159 4863 
L 1159 2956 
Q 1366 3272 1645 3428 
Q 1925 3584 2291 3584 
Q 2894 3584 3203 3211 
Q 3513 2838 3513 2113 
z
" transform="scale(0.015625)"/>
     <path id="DejaVuSans-6e" d="M 3513 2113 
L 3513 0 
L 2938 0 
L 2938 2094 
Q 2938 2591 2744 2837 
Q 2550 3084 2163 3084 
Q 1697 3084 1428 2787 
Q 1159 2491 1159 1978 
L 1159 0 
L 581 0 
L 581 3500 
L 1159 3500 
L 1159 2956 
Q 1366 3272 1645 3428 
Q 1925 3584 2291 3584 
Q 2894 3584 3203 3211 
Q 3513 2838 3513 2113 
z
" transform="scale(0.015625)"/>
    </defs>
    <use xlink:href="#DejaVuSans-48"/>
    <use xlink:href="#DejaVuSans-69" x="75.195312"/>
    <use xlink:href="#DejaVuSans-73" x="102.978516"/>
    <use xlink:href="#DejaVuSans-74" x="155.078125"/>
    <use xlink:href="#DejaVuSans-6f" x="194.287109"/>
    <use xlink:href="#DejaVuSans-67" x="255.46875"/>
    <use xlink:href="#DejaVuSans-72" x="318.945312"/>
    <use xlink:href="#DejaVuSans-61" x="360.058594"/>
    <use xlink:href="#DejaVuSans-6d" x="421.337891"/>
    <use xlink:href="#DejaVuSans-6d" x="518.75"/>
    <use xlink:href="#DejaVuSans-65" x="616.162109"/>
    <use xlink:href="#DejaVuSans-20" x="677.685547"/>
    <use xlink:href="#DejaVuSans-64" x="709.472656"/>
    <use xlink:href="#DejaVuSans-65" x="772.949219"/>
    <use xlink:href="#DejaVuSans-20" x="834.472656"/>
    <use xlink:href="#DejaVuSans-6c" x="866.259766"/>
    <use xlink:href="#DejaVuSans-61" x="894.042969"/>
    <use xlink:href="#DejaVuSans-20" x="955.322266"/>
    <use xlink:href="#DejaVuSans-6d" x="987.109375"/>
    <use xlink:href="#DejaVuSans-61" x="1084.521484"/>
    <use xlink:href="#DejaVuSans-73" x="1145.800781"/>
    <use xlink:href="#DejaVuSans-73" x="1197.900391"/>
    <use xlink:href="#DejaVuSans-65" x="1250"/>
    <use xlink:href="#DejaVuSans-20" x="1311.523438"/>
    <use xlink:href="#DejaVuSans-64" x="1343.310547"/>
    <use xlink:href="#DejaVuSans-65" x="1406.787109"/>
    <use xlink:href="#DejaVuSans-73" x="1468.310547"/>
    <use xlink:href="#DejaVuSans-20" x="1520.410156"/>
    <use xlink:href="#DejaVuSans-63" x="1552.197266"/>
    <use xlink:href="#DejaVuSans-68" x="1607.177734"/>
    <use xlink:href="#DejaVuSans-61" x="1670.556641"/>
    <use xlink:href="#DejaVuSans-72" x="1731.835938"/>
    <use xlink:href="#DejaVuSans-67" x="1771.199219"/>
    <use xlink:href="#DejaVuSans-69" x="1834.675781"/>
    <use xlink:href="#DejaVuSans-6e" x="1862.458984"/>
    <use xlink:href="#DejaVuSans-6f" x="1925.837891"/>
    <use xlink:href="#DejaVuSans-73" x="1987.019531"/>
   </g>
  </g>
  <g id="text_22">
   <!-- Masse (GeV) -->
   <g transform="translate(184.474219 302.4)scale(0.1 -0.1)">
    <defs>
     <path id="DejaVuSans-4d" d="M 628 4666 
L 1569 4666 
L 2759 1491 
L 3956 4666 
L 4897 4666 
L 4897 0 
L 4281 0 
L 4281 4097 
L 3078 897 
L 2444 897 
L 1241 4097 
L 1241 0 
L 628 0 
L 628 4666 
z
" transform="scale(0.015625)"/>
     <path id="DejaVuSans-28" d="M 1984 4856 
Q 1566 4138 1362 3434 
Q 1159 2731 1159 2009 
Q 1159 1288 1364 580 
Q 1569 -128 1984 -844 
L 1484 -844 
Q 1016 -109 783 600 
Q 550 1309 550 2009 
Q 550 2706 781 3412 
Q 1013 4119 1484 4856 
L 1984 4856 
z
" transform="scale(0.015625)"/>
     <path id="DejaVuSans-47" d="M 3809 666 
L 3809 1919 
L 2778 1919 
L 2778 2438 
L 4434 2438 
L 4434 434 
Q 4069 175 3628 42 
Q 3188 -91 2688 -91 
Q 1594 -91 976 548 
Q 359 1188 359 2328 
Q 359 3472 976 4111 
Q 1594 4750 2688 4750 
Q 3144 4750 3555 4637 
Q 3966 4525 4313 4306 
L 4313 3634 
Q 3963 3931 3569 4081 
Q 3175 4231 2741 4231 
Q 1884 4231 1454 3753 
Q 1025 3275 1025 2328 
Q 1025 1384 1454 906 
Q 1884 428 2741 428 
Q 3075 428 3337 486 
Q 3600 544 3809 666 
z
" transform="scale(0.015625)"/>
     <path id="DejaVuSans-56" d="M 1831 0 
L 50 4666 
L 709 4666 
L 2188 738 
L 3669 4666 
L 4325 4666 
L 2547 0 
L 1831 0 
z
" transform="scale(0.015625)"/>
     <path id="DejaVuSans-29" d="M 513 4856 
L 1013 4856 
Q 1481 4119 1714 3412 
Q 1947 2706 1947 2009 
Q 1947 1309 1714 600 
Q 1481 -109 1013 -844 
L 513 -844 
Q 928 -128 1133 580 
Q 1338 1288 1338 2009 
Q 1338 2731 1133 3434 
Q 928 4138 513 4856 
z
" transform="scale(0.015625)"/>
    </defs>
    <use xlink:href="#DejaVuSans-4d"/>
    <use xlink:href="#DejaVuSans-61" x="86.279297"/>
    <use xlink:href="#DejaVuSans-73" x="147.558594"/>
    <use xlink:href="#DejaVuSans-73" x="199.658203"/>
    <use xlink:href="#DejaVuSans-65" x="251.757812"/>
    <use xlink:href="#DejaVuSans-20" x="313.28125"/>
    <use xlink:href="#DejaVuSans-28" x="345.068359"/>
    <use xlink:href="#DejaVuSans-47" x="384.082031"/>
    <use xlink:href="#DejaVuSans-65" x="461.572266"/>
    <use xlink:href="#DejaVuSans-56" x="523.095703"/>
    <use xlink:href="#DejaVuSans-29" x="591.503906"/>
   </g>
  </g>
  <g id="text_23">
   <!-- N -->
   <g transform="translate(-9.681563 147.740625)rotate(-90)scale(0.1 -0.1)">
    <defs>
     <path id="DejaVuSans-4e" d="M 628 4666 
L 1478 4666 
L 3547 763 
L 3547 4666 
L 4159 4666 
L 4159 0 
L 3309 0 
L 1241 3903 
L 1241 0 
L 628 0 
L 628 4666 
z
" transform="scale(0.015625)"/>
    </defs>
    <use xlink:href="#DejaVuSans-4e"/>
   </g>
  </g>
 </g>
 <defs>
  <clipPath id="p1d8c66e638">
   <rect x="29.08774" y="39.57447" width="399.91202" height="93.55428"/>
  </clipPath>
  <clipPath id="p457c4429ed">
   <rect x="29.08774" y="174.767355" width="399.91202" height="93.55428"/>
  </clipPath>
 </defs>
</svg>
