<?xml version="1.0" encoding="utf-8" standalone="no"?>
<!DOCTYPE svg PUBLIC "-//W3C//DTD SVG 1.1//EN"
  "http://www.w3.org/Graphics/SVG/1.1/DTD/svg11.dtd">
<svg xmlns:xlink="http://www.w3.org/1999/xlink" width="432pt" height="288pt" viewBox="0 0 432 288" xmlns="http://www.w3.org/2000/svg" version="1.1">
 <metadata>
  <rdf:RDF xmlns:dc="http://purl.org/dc/elements/1.1/" xmlns:cc="http://creativecommons.org/ns#" xmlns:rdf="http://www.w3.org/1999/02/22-rdf-syntax-ns#">
   <cc:Work>
    <dc:type rdf:resource="http://purl.org/dc/dcmitype/StillImage"/>
    <dc:date>2022-06-21T02:10:07.662472</dc:date>
    <dc:format>image/svg+xml</dc:format>
    <dc:creator>
     <cc:Agent>
      <dc:title>Matplotlib v3.5.0, https://matplotlib.org/</dc:title>
     </cc:Agent>
    </dc:creator>
   </cc:Work>
  </rdf:RDF>
 </metadata>
 <defs>
  <style type="text/css">*{stroke-linejoin: round; stroke-linecap: butt}</style>
 </defs>
 <g id="figure_1">
  <g id="patch_1">
   <path d="M 0 288 
L 432 288 
L 432 0 
L 0 0 
L 0 288 
z
" style="fill: none"/>
  </g>
  <g id="axes_1">
   <g id="patch_2">
    <path d="M 29.08774 88.081955 
L 428.99976 88.081955 
L 428.99976 35.758845 
L 29.08774 35.758845 
z
" style="fill: #ffffff"/>
   </g>
   <g id="patch_3">
    <path d="M 47.265559 88.081955 
L 50.901123 88.081955 
L 50.901123 87.036538 
L 47.265559 87.036538 
z
" clip-path="url(#p9551e692b9)" style="fill: #1f77b4"/>
   </g>
   <g id="patch_4">
    <path d="M 50.901123 88.081955 
L 54.536687 88.081955 
L 54.536687 87.733483 
L 50.901123 87.733483 
z
" clip-path="url(#p9551e692b9)" style="fill: #1f77b4"/>
   </g>
   <g id="patch_5">
    <path d="M 54.536687 88.081955 
L 58.172251 88.081955 
L 58.172251 87.210774 
L 54.536687 87.210774 
z
" clip-path="url(#p9551e692b9)" style="fill: #1f77b4"/>
   </g>
   <g id="patch_6">
    <path d="M 58.172251 88.081955 
L 61.807814 88.081955 
L 61.807814 87.036538 
L 58.172251 87.036538 
z
" clip-path="url(#p9551e692b9)" style="fill: #1f77b4"/>
   </g>
   <g id="patch_7">
    <path d="M 61.807814 88.081955 
L 65.443378 88.081955 
L 65.443378 86.688066 
L 61.807814 86.688066 
z
" clip-path="url(#p9551e692b9)" style="fill: #1f77b4"/>
   </g>
   <g id="patch_8">
    <path d="M 65.443378 88.081955 
L 69.078942 88.081955 
L 69.078942 85.642649 
L 65.443378 85.642649 
z
" clip-path="url(#p9551e692b9)" style="fill: #1f77b4"/>
   </g>
   <g id="patch_9">
    <path d="M 69.078942 88.081955 
L 72.714506 88.081955 
L 72.714506 86.165358 
L 69.078942 86.165358 
z
" clip-path="url(#p9551e692b9)" style="fill: #1f77b4"/>
   </g>
   <g id="patch_10">
    <path d="M 72.714506 88.081955 
L 76.35007 88.081955 
L 76.35007 85.468413 
L 72.714506 85.468413 
z
" clip-path="url(#p9551e692b9)" style="fill: #1f77b4"/>
   </g>
   <g id="patch_11">
    <path d="M 76.35007 88.081955 
L 79.985633 88.081955 
L 79.985633 85.991121 
L 76.35007 85.991121 
z
" clip-path="url(#p9551e692b9)" style="fill: #1f77b4"/>
   </g>
   <g id="patch_12">
    <path d="M 79.985633 88.081955 
L 83.621197 88.081955 
L 83.621197 84.24876 
L 79.985633 84.24876 
z
" clip-path="url(#p9551e692b9)" style="fill: #1f77b4"/>
   </g>
   <g id="patch_13">
    <path d="M 83.621197 88.081955 
L 87.256761 88.081955 
L 87.256761 84.945705 
L 83.621197 84.945705 
z
" clip-path="url(#p9551e692b9)" style="fill: #1f77b4"/>
   </g>
   <g id="patch_14">
    <path d="M 87.256761 88.081955 
L 90.892325 88.081955 
L 90.892325 82.157927 
L 87.256761 82.157927 
z
" clip-path="url(#p9551e692b9)" style="fill: #1f77b4"/>
   </g>
   <g id="patch_15">
    <path d="M 90.892325 88.081955 
L 94.527889 88.081955 
L 94.527889 84.422996 
L 90.892325 84.422996 
z
" clip-path="url(#p9551e692b9)" style="fill: #1f77b4"/>
   </g>
   <g id="patch_16">
    <path d="M 94.527889 88.081955 
L 98.163453 88.081955 
L 98.163453 82.680635 
L 94.527889 82.680635 
z
" clip-path="url(#p9551e692b9)" style="fill: #1f77b4"/>
   </g>
   <g id="patch_17">
    <path d="M 98.163453 88.081955 
L 101.799016 88.081955 
L 101.799016 82.854871 
L 98.163453 82.854871 
z
" clip-path="url(#p9551e692b9)" style="fill: #1f77b4"/>
   </g>
   <g id="patch_18">
    <path d="M 101.799016 88.081955 
L 105.43458 88.081955 
L 105.43458 81.809454 
L 101.799016 81.809454 
z
" clip-path="url(#p9551e692b9)" style="fill: #1f77b4"/>
   </g>
   <g id="patch_19">
    <path d="M 105.43458 88.081955 
L 109.070144 88.081955 
L 109.070144 80.938274 
L 105.43458 80.938274 
z
" clip-path="url(#p9551e692b9)" style="fill: #1f77b4"/>
   </g>
   <g id="patch_20">
    <path d="M 109.070144 88.081955 
L 112.705708 88.081955 
L 112.705708 79.892857 
L 109.070144 79.892857 
z
" clip-path="url(#p9551e692b9)" style="fill: #1f77b4"/>
   </g>
   <g id="patch_21">
    <path d="M 112.705708 88.081955 
L 116.341272 88.081955 
L 116.341272 81.11251 
L 112.705708 81.11251 
z
" clip-path="url(#p9551e692b9)" style="fill: #1f77b4"/>
   </g>
   <g id="patch_22">
    <path d="M 116.341272 88.081955 
L 119.976835 88.081955 
L 119.976835 77.279315 
L 116.341272 77.279315 
z
" clip-path="url(#p9551e692b9)" style="fill: #1f77b4"/>
   </g>
   <g id="patch_23">
    <path d="M 119.976835 88.081955 
L 123.612399 88.081955 
L 123.612399 77.976259 
L 119.976835 77.976259 
z
" clip-path="url(#p9551e692b9)" style="fill: #1f77b4"/>
   </g>
   <g id="patch_24">
    <path d="M 123.612399 88.081955 
L 127.247963 88.081955 
L 127.247963 79.370148 
L 123.612399 79.370148 
z
" clip-path="url(#p9551e692b9)" style="fill: #1f77b4"/>
   </g>
   <g id="patch_25">
    <path d="M 127.247963 88.081955 
L 130.883527 88.081955 
L 130.883527 78.84744 
L 127.247963 78.84744 
z
" clip-path="url(#p9551e692b9)" style="fill: #1f77b4"/>
   </g>
   <g id="patch_26">
    <path d="M 130.883527 88.081955 
L 134.519091 88.081955 
L 134.519091 75.014245 
L 130.883527 75.014245 
z
" clip-path="url(#p9551e692b9)" style="fill: #1f77b4"/>
   </g>
   <g id="patch_27">
    <path d="M 134.519091 88.081955 
L 138.154655 88.081955 
L 138.154655 77.976259 
L 134.519091 77.976259 
z
" clip-path="url(#p9551e692b9)" style="fill: #1f77b4"/>
   </g>
   <g id="patch_28">
    <path d="M 138.154655 88.081955 
L 141.790218 88.081955 
L 141.790218 77.627787 
L 138.154655 77.627787 
z
" clip-path="url(#p9551e692b9)" style="fill: #1f77b4"/>
   </g>
   <g id="patch_29">
    <path d="M 141.790218 88.081955 
L 145.425782 88.081955 
L 145.425782 75.885426 
L 141.790218 75.885426 
z
" clip-path="url(#p9551e692b9)" style="fill: #1f77b4"/>
   </g>
   <g id="patch_30">
    <path d="M 145.425782 88.081955 
L 149.061346 88.081955 
L 149.061346 77.105079 
L 145.425782 77.105079 
z
" clip-path="url(#p9551e692b9)" style="fill: #1f77b4"/>
   </g>
   <g id="patch_31">
    <path d="M 149.061346 88.081955 
L 152.69691 88.081955 
L 152.69691 74.317301 
L 149.061346 74.317301 
z
" clip-path="url(#p9551e692b9)" style="fill: #1f77b4"/>
   </g>
   <g id="patch_32">
    <path d="M 152.69691 88.081955 
L 156.332474 88.081955 
L 156.332474 73.620356 
L 152.69691 73.620356 
z
" clip-path="url(#p9551e692b9)" style="fill: #1f77b4"/>
   </g>
   <g id="patch_33">
    <path d="M 156.332474 88.081955 
L 159.968037 88.081955 
L 159.968037 75.362717 
L 156.332474 75.362717 
z
" clip-path="url(#p9551e692b9)" style="fill: #1f77b4"/>
   </g>
   <g id="patch_34">
    <path d="M 159.968037 88.081955 
L 163.603601 88.081955 
L 163.603601 75.014245 
L 159.968037 75.014245 
z
" clip-path="url(#p9551e692b9)" style="fill: #1f77b4"/>
   </g>
   <g id="patch_35">
    <path d="M 163.603601 88.081955 
L 167.239165 88.081955 
L 167.239165 77.627787 
L 163.603601 77.627787 
z
" clip-path="url(#p9551e692b9)" style="fill: #1f77b4"/>
   </g>
   <g id="patch_36">
    <path d="M 167.239165 88.081955 
L 170.874729 88.081955 
L 170.874729 75.188481 
L 167.239165 75.188481 
z
" clip-path="url(#p9551e692b9)" style="fill: #1f77b4"/>
   </g>
   <g id="patch_37">
    <path d="M 170.874729 88.081955 
L 174.510293 88.081955 
L 174.510293 73.968828 
L 170.874729 73.968828 
z
" clip-path="url(#p9551e692b9)" style="fill: #1f77b4"/>
   </g>
   <g id="patch_38">
    <path d="M 174.510293 88.081955 
L 178.145857 88.081955 
L 178.145857 73.271884 
L 174.510293 73.271884 
z
" clip-path="url(#p9551e692b9)" style="fill: #1f77b4"/>
   </g>
   <g id="patch_39">
    <path d="M 178.145857 88.081955 
L 181.78142 88.081955 
L 181.78142 72.574939 
L 178.145857 72.574939 
z
" clip-path="url(#p9551e692b9)" style="fill: #1f77b4"/>
   </g>
   <g id="patch_40">
    <path d="M 181.78142 88.081955 
L 185.416984 88.081955 
L 185.416984 75.536954 
L 181.78142 75.536954 
z
" clip-path="url(#p9551e692b9)" style="fill: #1f77b4"/>
   </g>
   <g id="patch_41">
    <path d="M 185.416984 88.081955 
L 189.052548 88.081955 
L 189.052548 71.006814 
L 185.416984 71.006814 
z
" clip-path="url(#p9551e692b9)" style="fill: #1f77b4"/>
   </g>
   <g id="patch_42">
    <path d="M 189.052548 88.081955 
L 192.688112 88.081955 
L 192.688112 70.30987 
L 189.052548 70.30987 
z
" clip-path="url(#p9551e692b9)" style="fill: #1f77b4"/>
   </g>
   <g id="patch_43">
    <path d="M 192.688112 88.081955 
L 196.323676 88.081955 
L 196.323676 69.961397 
L 192.688112 69.961397 
z
" clip-path="url(#p9551e692b9)" style="fill: #1f77b4"/>
   </g>
   <g id="patch_44">
    <path d="M 196.323676 88.081955 
L 199.959239 88.081955 
L 199.959239 72.226467 
L 196.323676 72.226467 
z
" clip-path="url(#p9551e692b9)" style="fill: #1f77b4"/>
   </g>
   <g id="patch_45">
    <path d="M 199.959239 88.081955 
L 203.594803 88.081955 
L 203.594803 70.30987 
L 199.959239 70.30987 
z
" clip-path="url(#p9551e692b9)" style="fill: #1f77b4"/>
   </g>
   <g id="patch_46">
    <path d="M 203.594803 88.081955 
L 207.230367 88.081955 
L 207.230367 70.30987 
L 203.594803 70.30987 
z
" clip-path="url(#p9551e692b9)" style="fill: #1f77b4"/>
   </g>
   <g id="patch_47">
    <path d="M 207.230367 88.081955 
L 210.865931 88.081955 
L 210.865931 66.999383 
L 207.230367 66.999383 
z
" clip-path="url(#p9551e692b9)" style="fill: #1f77b4"/>
   </g>
   <g id="patch_48">
    <path d="M 210.865931 88.081955 
L 214.501495 88.081955 
L 214.501495 73.097648 
L 210.865931 73.097648 
z
" clip-path="url(#p9551e692b9)" style="fill: #1f77b4"/>
   </g>
   <g id="patch_49">
    <path d="M 214.501495 88.081955 
L 218.137059 88.081955 
L 218.137059 68.0448 
L 214.501495 68.0448 
z
" clip-path="url(#p9551e692b9)" style="fill: #1f77b4"/>
   </g>
   <g id="patch_50">
    <path d="M 218.137059 88.081955 
L 221.772622 88.081955 
L 221.772622 69.090217 
L 218.137059 69.090217 
z
" clip-path="url(#p9551e692b9)" style="fill: #1f77b4"/>
   </g>
   <g id="patch_51">
    <path d="M 221.772622 88.081955 
L 225.408186 88.081955 
L 225.408186 71.006814 
L 221.772622 71.006814 
z
" clip-path="url(#p9551e692b9)" style="fill: #1f77b4"/>
   </g>
   <g id="patch_52">
    <path d="M 225.408186 88.081955 
L 229.04375 88.081955 
L 229.04375 72.226467 
L 225.408186 72.226467 
z
" clip-path="url(#p9551e692b9)" style="fill: #1f77b4"/>
   </g>
   <g id="patch_53">
    <path d="M 229.04375 88.081955 
L 232.679314 88.081955 
L 232.679314 71.877995 
L 229.04375 71.877995 
z
" clip-path="url(#p9551e692b9)" style="fill: #1f77b4"/>
   </g>
   <g id="patch_54">
    <path d="M 232.679314 88.081955 
L 236.314878 88.081955 
L 236.314878 69.090217 
L 232.679314 69.090217 
z
" clip-path="url(#p9551e692b9)" style="fill: #1f77b4"/>
   </g>
   <g id="patch_55">
    <path d="M 236.314878 88.081955 
L 239.950441 88.081955 
L 239.950441 71.877995 
L 236.314878 71.877995 
z
" clip-path="url(#p9551e692b9)" style="fill: #1f77b4"/>
   </g>
   <g id="patch_56">
    <path d="M 239.950441 88.081955 
L 243.586005 88.081955 
L 243.586005 69.612925 
L 239.950441 69.612925 
z
" clip-path="url(#p9551e692b9)" style="fill: #1f77b4"/>
   </g>
   <g id="patch_57">
    <path d="M 243.586005 88.081955 
L 247.221569 88.081955 
L 247.221569 70.484106 
L 243.586005 70.484106 
z
" clip-path="url(#p9551e692b9)" style="fill: #1f77b4"/>
   </g>
   <g id="patch_58">
    <path d="M 247.221569 88.081955 
L 250.857133 88.081955 
L 250.857133 67.522092 
L 247.221569 67.522092 
z
" clip-path="url(#p9551e692b9)" style="fill: #1f77b4"/>
   </g>
   <g id="patch_59">
    <path d="M 250.857133 88.081955 
L 254.492697 88.081955 
L 254.492697 73.097648 
L 250.857133 73.097648 
z
" clip-path="url(#p9551e692b9)" style="fill: #1f77b4"/>
   </g>
   <g id="patch_60">
    <path d="M 254.492697 88.081955 
L 258.128261 88.081955 
L 258.128261 72.226467 
L 254.492697 72.226467 
z
" clip-path="url(#p9551e692b9)" style="fill: #1f77b4"/>
   </g>
   <g id="patch_61">
    <path d="M 258.128261 88.081955 
L 261.763824 88.081955 
L 261.763824 74.491537 
L 258.128261 74.491537 
z
" clip-path="url(#p9551e692b9)" style="fill: #1f77b4"/>
   </g>
   <g id="patch_62">
    <path d="M 261.763824 88.081955 
L 265.399388 88.081955 
L 265.399388 69.787161 
L 261.763824 69.787161 
z
" clip-path="url(#p9551e692b9)" style="fill: #1f77b4"/>
   </g>
   <g id="patch_63">
    <path d="M 265.399388 88.081955 
L 269.034952 88.081955 
L 269.034952 73.097648 
L 265.399388 73.097648 
z
" clip-path="url(#p9551e692b9)" style="fill: #1f77b4"/>
   </g>
   <g id="patch_64">
    <path d="M 269.034952 88.081955 
L 272.670516 88.081955 
L 272.670516 72.052231 
L 269.034952 72.052231 
z
" clip-path="url(#p9551e692b9)" style="fill: #1f77b4"/>
   </g>
   <g id="patch_65">
    <path d="M 272.670516 88.081955 
L 276.30608 88.081955 
L 276.30608 71.355286 
L 272.670516 71.355286 
z
" clip-path="url(#p9551e692b9)" style="fill: #1f77b4"/>
   </g>
   <g id="patch_66">
    <path d="M 276.30608 88.081955 
L 279.941643 88.081955 
L 279.941643 73.620356 
L 276.30608 73.620356 
z
" clip-path="url(#p9551e692b9)" style="fill: #1f77b4"/>
   </g>
   <g id="patch_67">
    <path d="M 279.941643 88.081955 
L 283.577207 88.081955 
L 283.577207 71.006814 
L 279.941643 71.006814 
z
" clip-path="url(#p9551e692b9)" style="fill: #1f77b4"/>
   </g>
   <g id="patch_68">
    <path d="M 283.577207 88.081955 
L 287.212771 88.081955 
L 287.212771 73.271884 
L 283.577207 73.271884 
z
" clip-path="url(#p9551e692b9)" style="fill: #1f77b4"/>
   </g>
   <g id="patch_69">
    <path d="M 287.212771 88.081955 
L 290.848335 88.081955 
L 290.848335 74.840009 
L 287.212771 74.840009 
z
" clip-path="url(#p9551e692b9)" style="fill: #1f77b4"/>
   </g>
   <g id="patch_70">
    <path d="M 290.848335 88.081955 
L 294.483899 88.081955 
L 294.483899 73.620356 
L 290.848335 73.620356 
z
" clip-path="url(#p9551e692b9)" style="fill: #1f77b4"/>
   </g>
   <g id="patch_71">
    <path d="M 294.483899 88.081955 
L 298.119463 88.081955 
L 298.119463 74.491537 
L 294.483899 74.491537 
z
" clip-path="url(#p9551e692b9)" style="fill: #1f77b4"/>
   </g>
   <g id="patch_72">
    <path d="M 298.119463 88.081955 
L 301.755026 88.081955 
L 301.755026 74.840009 
L 298.119463 74.840009 
z
" clip-path="url(#p9551e692b9)" style="fill: #1f77b4"/>
   </g>
   <g id="patch_73">
    <path d="M 301.755026 88.081955 
L 305.39059 88.081955 
L 305.39059 75.014245 
L 301.755026 75.014245 
z
" clip-path="url(#p9551e692b9)" style="fill: #1f77b4"/>
   </g>
   <g id="patch_74">
    <path d="M 305.39059 88.081955 
L 309.026154 88.081955 
L 309.026154 76.58237 
L 305.39059 76.58237 
z
" clip-path="url(#p9551e692b9)" style="fill: #1f77b4"/>
   </g>
   <g id="patch_75">
    <path d="M 309.026154 88.081955 
L 312.661718 88.081955 
L 312.661718 75.362717 
L 309.026154 75.362717 
z
" clip-path="url(#p9551e692b9)" style="fill: #1f77b4"/>
   </g>
   <g id="patch_76">
    <path d="M 312.661718 88.081955 
L 316.297282 88.081955 
L 316.297282 75.885426 
L 312.661718 75.885426 
z
" clip-path="url(#p9551e692b9)" style="fill: #1f77b4"/>
   </g>
   <g id="patch_77">
    <path d="M 316.297282 88.081955 
L 319.932845 88.081955 
L 319.932845 77.279315 
L 316.297282 77.279315 
z
" clip-path="url(#p9551e692b9)" style="fill: #1f77b4"/>
   </g>
   <g id="patch_78">
    <path d="M 319.932845 88.081955 
L 323.568409 88.081955 
L 323.568409 77.453551 
L 319.932845 77.453551 
z
" clip-path="url(#p9551e692b9)" style="fill: #1f77b4"/>
   </g>
   <g id="patch_79">
    <path d="M 323.568409 88.081955 
L 327.203973 88.081955 
L 327.203973 78.150496 
L 323.568409 78.150496 
z
" clip-path="url(#p9551e692b9)" style="fill: #1f77b4"/>
   </g>
   <g id="patch_80">
    <path d="M 327.203973 88.081955 
L 330.839537 88.081955 
L 330.839537 79.544385 
L 327.203973 79.544385 
z
" clip-path="url(#p9551e692b9)" style="fill: #1f77b4"/>
   </g>
   <g id="patch_81">
    <path d="M 330.839537 88.081955 
L 334.475101 88.081955 
L 334.475101 79.718621 
L 330.839537 79.718621 
z
" clip-path="url(#p9551e692b9)" style="fill: #1f77b4"/>
   </g>
   <g id="patch_82">
    <path d="M 334.475101 88.081955 
L 338.110665 88.081955 
L 338.110665 80.764038 
L 334.475101 80.764038 
z
" clip-path="url(#p9551e692b9)" style="fill: #1f77b4"/>
   </g>
   <g id="patch_83">
    <path d="M 338.110665 88.081955 
L 341.746228 88.081955 
L 341.746228 79.370148 
L 338.110665 79.370148 
z
" clip-path="url(#p9551e692b9)" style="fill: #1f77b4"/>
   </g>
   <g id="patch_84">
    <path d="M 341.746228 88.081955 
L 345.381792 88.081955 
L 345.381792 81.286746 
L 341.746228 81.286746 
z
" clip-path="url(#p9551e692b9)" style="fill: #1f77b4"/>
   </g>
   <g id="patch_85">
    <path d="M 345.381792 88.081955 
L 349.017356 88.081955 
L 349.017356 82.157927 
L 345.381792 82.157927 
z
" clip-path="url(#p9551e692b9)" style="fill: #1f77b4"/>
   </g>
   <g id="patch_86">
    <path d="M 349.017356 88.081955 
L 352.65292 88.081955 
L 352.65292 82.157927 
L 349.017356 82.157927 
z
" clip-path="url(#p9551e692b9)" style="fill: #1f77b4"/>
   </g>
   <g id="patch_87">
    <path d="M 352.65292 88.081955 
L 356.288484 88.081955 
L 356.288484 83.551816 
L 352.65292 83.551816 
z
" clip-path="url(#p9551e692b9)" style="fill: #1f77b4"/>
   </g>
   <g id="patch_88">
    <path d="M 356.288484 88.081955 
L 359.924047 88.081955 
L 359.924047 81.460982 
L 356.288484 81.460982 
z
" clip-path="url(#p9551e692b9)" style="fill: #1f77b4"/>
   </g>
   <g id="patch_89">
    <path d="M 359.924047 88.081955 
L 363.559611 88.081955 
L 363.559611 83.900288 
L 359.924047 83.900288 
z
" clip-path="url(#p9551e692b9)" style="fill: #1f77b4"/>
   </g>
   <g id="patch_90">
    <path d="M 363.559611 88.081955 
L 367.195175 88.081955 
L 367.195175 84.422996 
L 363.559611 84.422996 
z
" clip-path="url(#p9551e692b9)" style="fill: #1f77b4"/>
   </g>
   <g id="patch_91">
    <path d="M 367.195175 88.081955 
L 370.830739 88.081955 
L 370.830739 82.680635 
L 367.195175 82.680635 
z
" clip-path="url(#p9551e692b9)" style="fill: #1f77b4"/>
   </g>
   <g id="patch_92">
    <path d="M 370.830739 88.081955 
L 374.466303 88.081955 
L 374.466303 85.816885 
L 370.830739 85.816885 
z
" clip-path="url(#p9551e692b9)" style="fill: #1f77b4"/>
   </g>
   <g id="patch_93">
    <path d="M 374.466303 88.081955 
L 378.101867 88.081955 
L 378.101867 85.119941 
L 374.466303 85.119941 
z
" clip-path="url(#p9551e692b9)" style="fill: #1f77b4"/>
   </g>
   <g id="patch_94">
    <path d="M 378.101867 88.081955 
L 381.73743 88.081955 
L 381.73743 86.51383 
L 378.101867 86.51383 
z
" clip-path="url(#p9551e692b9)" style="fill: #1f77b4"/>
   </g>
   <g id="patch_95">
    <path d="M 381.73743 88.081955 
L 385.372994 88.081955 
L 385.372994 85.468413 
L 381.73743 85.468413 
z
" clip-path="url(#p9551e692b9)" style="fill: #1f77b4"/>
   </g>
   <g id="patch_96">
    <path d="M 385.372994 88.081955 
L 389.008558 88.081955 
L 389.008558 86.339594 
L 385.372994 86.339594 
z
" clip-path="url(#p9551e692b9)" style="fill: #1f77b4"/>
   </g>
   <g id="patch_97">
    <path d="M 389.008558 88.081955 
L 392.644122 88.081955 
L 392.644122 85.468413 
L 389.008558 85.468413 
z
" clip-path="url(#p9551e692b9)" style="fill: #1f77b4"/>
   </g>
   <g id="patch_98">
    <path d="M 392.644122 88.081955 
L 396.279686 88.081955 
L 396.279686 87.38501 
L 392.644122 87.38501 
z
" clip-path="url(#p9551e692b9)" style="fill: #1f77b4"/>
   </g>
   <g id="patch_99">
    <path d="M 396.279686 88.081955 
L 399.915249 88.081955 
L 399.915249 86.51383 
L 396.279686 86.51383 
z
" clip-path="url(#p9551e692b9)" style="fill: #1f77b4"/>
   </g>
   <g id="patch_100">
    <path d="M 399.915249 88.081955 
L 403.550813 88.081955 
L 403.550813 87.733483 
L 399.915249 87.733483 
z
" clip-path="url(#p9551e692b9)" style="fill: #1f77b4"/>
   </g>
   <g id="patch_101">
    <path d="M 403.550813 88.081955 
L 407.186377 88.081955 
L 407.186377 87.733483 
L 403.550813 87.733483 
z
" clip-path="url(#p9551e692b9)" style="fill: #1f77b4"/>
   </g>
   <g id="patch_102">
    <path d="M 407.186377 88.081955 
L 410.821941 88.081955 
L 410.821941 87.733483 
L 407.186377 87.733483 
z
" clip-path="url(#p9551e692b9)" style="fill: #1f77b4"/>
   </g>
   <g id="matplotlib.axis_1">
    <g id="xtick_1">
     <g id="line2d_1">
      <defs>
       <path id="me203ee654c" d="M 0 0 
L 0 3.5 
" style="stroke: #000000; stroke-width: 0.8"/>
      </defs>
      <g>
       <use xlink:href="#me203ee654c" x="89.434756" y="88.081955" style="stroke: #000000; stroke-width: 0.8"/>
      </g>
     </g>
     <g id="text_1">
      <!-- 500 -->
      <g transform="translate(79.891006 102.680393)scale(0.1 -0.1)">
       <defs>
        <path id="DejaVuSans-35" d="M 691 4666 
L 3169 4666 
L 3169 4134 
L 1269 4134 
L 1269 2991 
Q 1406 3038 1543 3061 
Q 1681 3084 1819 3084 
Q 2600 3084 3056 2656 
Q 3513 2228 3513 1497 
Q 3513 744 3044 326 
Q 2575 -91 1722 -91 
Q 1428 -91 1123 -41 
Q 819 9 494 109 
L 494 744 
Q 775 591 1075 516 
Q 1375 441 1709 441 
Q 2250 441 2565 725 
Q 2881 1009 2881 1497 
Q 2881 1984 2565 2268 
Q 2250 2553 1709 2553 
Q 1456 2553 1204 2497 
Q 953 2441 691 2322 
L 691 4666 
z
" transform="scale(0.015625)"/>
        <path id="DejaVuSans-30" d="M 2034 4250 
Q 1547 4250 1301 3770 
Q 1056 3291 1056 2328 
Q 1056 1369 1301 889 
Q 1547 409 2034 409 
Q 2525 409 2770 889 
Q 3016 1369 3016 2328 
Q 3016 3291 2770 3770 
Q 2525 4250 2034 4250 
z
M 2034 4750 
Q 2819 4750 3233 4129 
Q 3647 3509 3647 2328 
Q 3647 1150 3233 529 
Q 2819 -91 2034 -91 
Q 1250 -91 836 529 
Q 422 1150 422 2328 
Q 422 3509 836 4129 
Q 1250 4750 2034 4750 
z
" transform="scale(0.015625)"/>
       </defs>
       <use xlink:href="#DejaVuSans-35"/>
       <use xlink:href="#DejaVuSans-30" x="63.623047"/>
       <use xlink:href="#DejaVuSans-30" x="127.246094"/>
      </g>
     </g>
    </g>
    <g id="xtick_2">
     <g id="line2d_2">
      <g>
       <use xlink:href="#me203ee654c" x="151.548002" y="88.081955" style="stroke: #000000; stroke-width: 0.8"/>
      </g>
     </g>
     <g id="text_2">
      <!-- 1000 -->
      <g transform="translate(138.823002 102.680393)scale(0.1 -0.1)">
       <defs>
        <path id="DejaVuSans-31" d="M 794 531 
L 1825 531 
L 1825 4091 
L 703 3866 
L 703 4441 
L 1819 4666 
L 2450 4666 
L 2450 531 
L 3481 531 
L 3481 0 
L 794 0 
L 794 531 
z
" transform="scale(0.015625)"/>
       </defs>
       <use xlink:href="#DejaVuSans-31"/>
       <use xlink:href="#DejaVuSans-30" x="63.623047"/>
       <use xlink:href="#DejaVuSans-30" x="127.246094"/>
       <use xlink:href="#DejaVuSans-30" x="190.869141"/>
      </g>
     </g>
    </g>
    <g id="xtick_3">
     <g id="line2d_3">
      <g>
       <use xlink:href="#me203ee654c" x="213.661248" y="88.081955" style="stroke: #000000; stroke-width: 0.8"/>
      </g>
     </g>
     <g id="text_3">
      <!-- 1500 -->
      <g transform="translate(200.936248 102.680393)scale(0.1 -0.1)">
       <use xlink:href="#DejaVuSans-31"/>
       <use xlink:href="#DejaVuSans-35" x="63.623047"/>
       <use xlink:href="#DejaVuSans-30" x="127.246094"/>
       <use xlink:href="#DejaVuSans-30" x="190.869141"/>
      </g>
     </g>
    </g>
    <g id="xtick_4">
     <g id="line2d_4">
      <g>
       <use xlink:href="#me203ee654c" x="275.774494" y="88.081955" style="stroke: #000000; stroke-width: 0.8"/>
      </g>
     </g>
     <g id="text_4">
      <!-- 2000 -->
      <g transform="translate(263.049494 102.680393)scale(0.1 -0.1)">
       <defs>
        <path id="DejaVuSans-32" d="M 1228 531 
L 3431 531 
L 3431 0 
L 469 0 
L 469 531 
Q 828 903 1448 1529 
Q 2069 2156 2228 2338 
Q 2531 2678 2651 2914 
Q 2772 3150 2772 3378 
Q 2772 3750 2511 3984 
Q 2250 4219 1831 4219 
Q 1534 4219 1204 4116 
Q 875 4013 500 3803 
L 500 4441 
Q 881 4594 1212 4672 
Q 1544 4750 1819 4750 
Q 2544 4750 2975 4387 
Q 3406 4025 3406 3419 
Q 3406 3131 3298 2873 
Q 3191 2616 2906 2266 
Q 2828 2175 2409 1742 
Q 1991 1309 1228 531 
z
" transform="scale(0.015625)"/>
       </defs>
       <use xlink:href="#DejaVuSans-32"/>
       <use xlink:href="#DejaVuSans-30" x="63.623047"/>
       <use xlink:href="#DejaVuSans-30" x="127.246094"/>
       <use xlink:href="#DejaVuSans-30" x="190.869141"/>
      </g>
     </g>
    </g>
    <g id="xtick_5">
     <g id="line2d_5">
      <g>
       <use xlink:href="#me203ee654c" x="337.88774" y="88.081955" style="stroke: #000000; stroke-width: 0.8"/>
      </g>
     </g>
     <g id="text_5">
      <!-- 2500 -->
      <g transform="translate(325.16274 102.680393)scale(0.1 -0.1)">
       <use xlink:href="#DejaVuSans-32"/>
       <use xlink:href="#DejaVuSans-35" x="63.623047"/>
       <use xlink:href="#DejaVuSans-30" x="127.246094"/>
       <use xlink:href="#DejaVuSans-30" x="190.869141"/>
      </g>
     </g>
    </g>
    <g id="xtick_6">
     <g id="line2d_6">
      <g>
       <use xlink:href="#me203ee654c" x="400.000986" y="88.081955" style="stroke: #000000; stroke-width: 0.8"/>
      </g>
     </g>
     <g id="text_6">
      <!-- 3000 -->
      <g transform="translate(387.275986 102.680393)scale(0.1 -0.1)">
       <defs>
        <path id="DejaVuSans-33" d="M 2597 2516 
Q 3050 2419 3304 2112 
Q 3559 1806 3559 1356 
Q 3559 666 3084 287 
Q 2609 -91 1734 -91 
Q 1441 -91 1130 -33 
Q 819 25 488 141 
L 488 750 
Q 750 597 1062 519 
Q 1375 441 1716 441 
Q 2309 441 2620 675 
Q 2931 909 2931 1356 
Q 2931 1769 2642 2001 
Q 2353 2234 1838 2234 
L 1294 2234 
L 1294 2753 
L 1863 2753 
Q 2328 2753 2575 2939 
Q 2822 3125 2822 3475 
Q 2822 3834 2567 4026 
Q 2313 4219 1838 4219 
Q 1578 4219 1281 4162 
Q 984 4106 628 3988 
L 628 4550 
Q 988 4650 1302 4700 
Q 1616 4750 1894 4750 
Q 2613 4750 3031 4423 
Q 3450 4097 3450 3541 
Q 3450 3153 3228 2886 
Q 3006 2619 2597 2516 
z
" transform="scale(0.015625)"/>
       </defs>
       <use xlink:href="#DejaVuSans-33"/>
       <use xlink:href="#DejaVuSans-30" x="63.623047"/>
       <use xlink:href="#DejaVuSans-30" x="127.246094"/>
       <use xlink:href="#DejaVuSans-30" x="190.869141"/>
      </g>
     </g>
    </g>
   </g>
   <g id="matplotlib.axis_2">
    <g id="ytick_1">
     <g id="line2d_7">
      <defs>
       <path id="m82ff9e5969" d="M 0 0 
L -3.5 0 
" style="stroke: #000000; stroke-width: 0.8"/>
      </defs>
      <g>
       <use xlink:href="#m82ff9e5969" x="29.08774" y="88.081955" style="stroke: #000000; stroke-width: 0.8"/>
      </g>
     </g>
     <g id="text_7">
      <!-- 0 -->
      <g transform="translate(15.72524 91.881174)scale(0.1 -0.1)">
       <use xlink:href="#DejaVuSans-30"/>
      </g>
     </g>
    </g>
    <g id="ytick_2">
     <g id="line2d_8">
      <g>
       <use xlink:href="#m82ff9e5969" x="29.08774" y="53.234729" style="stroke: #000000; stroke-width: 0.8"/>
      </g>
     </g>
     <g id="text_8">
      <!-- 200 -->
      <g transform="translate(3.00024 57.033948)scale(0.1 -0.1)">
       <use xlink:href="#DejaVuSans-32"/>
       <use xlink:href="#DejaVuSans-30" x="63.623047"/>
       <use xlink:href="#DejaVuSans-30" x="127.246094"/>
      </g>
     </g>
    </g>
   </g>
   <g id="patch_103">
    <path d="M 29.08774 88.081955 
L 29.08774 35.758845 
" style="fill: none; stroke: #000000; stroke-width: 0.8; stroke-linejoin: miter; stroke-linecap: square"/>
   </g>
   <g id="patch_104">
    <path d="M 428.99976 88.081955 
L 428.99976 35.758845 
" style="fill: none; stroke: #000000; stroke-width: 0.8; stroke-linejoin: miter; stroke-linecap: square"/>
   </g>
   <g id="patch_105">
    <path d="M 29.08774 88.081955 
L 428.99976 88.081955 
" style="fill: none; stroke: #000000; stroke-width: 0.8; stroke-linejoin: miter; stroke-linecap: square"/>
   </g>
   <g id="patch_106">
    <path d="M 29.08774 35.758845 
L 428.99976 35.758845 
" style="fill: none; stroke: #000000; stroke-width: 0.8; stroke-linejoin: miter; stroke-linecap: square"/>
   </g>
   <g id="text_9">
    <!-- $\nu_1$ -->
    <g transform="translate(222.80375 29.758845)scale(0.12 -0.12)">
     <defs>
      <path id="DejaVuSans-Oblique-3bd" d="M 959 0 
L 572 3500 
L 1191 3500 
L 1522 563 
Q 1972 950 2391 1488 
Q 2706 1891 2788 2241 
Q 2825 2406 2809 2719 
Q 2794 3091 2544 3500 
L 3125 3500 
L 3125 3500 
Q 3288 3222 3353 2834 
Q 3416 2478 3369 2234 
Q 3250 1622 2719 1075 
Q 2025 363 1572 0 
L 959 0 
z
" transform="scale(0.015625)"/>
     </defs>
     <use xlink:href="#DejaVuSans-Oblique-3bd" transform="translate(0 0.3125)"/>
     <use xlink:href="#DejaVuSans-31" transform="translate(55.859375 -16.09375)scale(0.7)"/>
    </g>
   </g>
  </g>
  <g id="axes_2">
   <g id="patch_107">
    <path d="M 29.08774 178.201795 
L 428.99976 178.201795 
L 428.99976 125.878685 
L 29.08774 125.878685 
z
" style="fill: #ffffff"/>
   </g>
   <g id="patch_108">
    <path d="M 47.265559 178.201795 
L 50.901123 178.201795 
L 50.901123 178.027559 
L 47.265559 178.027559 
z
" clip-path="url(#p40616ed312)" style="fill: #1f77b4"/>
   </g>
   <g id="patch_109">
    <path d="M 50.901123 178.201795 
L 54.536687 178.201795 
L 54.536687 178.027559 
L 50.901123 178.027559 
z
" clip-path="url(#p40616ed312)" style="fill: #1f77b4"/>
   </g>
   <g id="patch_110">
    <path d="M 54.536687 178.201795 
L 58.172251 178.201795 
L 58.172251 178.201795 
L 54.536687 178.201795 
z
" clip-path="url(#p40616ed312)" style="fill: #1f77b4"/>
   </g>
   <g id="patch_111">
    <path d="M 58.172251 178.201795 
L 61.807814 178.201795 
L 61.807814 178.027559 
L 58.172251 178.027559 
z
" clip-path="url(#p40616ed312)" style="fill: #1f77b4"/>
   </g>
   <g id="patch_112">
    <path d="M 61.807814 178.201795 
L 65.443378 178.201795 
L 65.443378 177.679087 
L 61.807814 177.679087 
z
" clip-path="url(#p40616ed312)" style="fill: #1f77b4"/>
   </g>
   <g id="patch_113">
    <path d="M 65.443378 178.201795 
L 69.078942 178.201795 
L 69.078942 177.853323 
L 65.443378 177.853323 
z
" clip-path="url(#p40616ed312)" style="fill: #1f77b4"/>
   </g>
   <g id="patch_114">
    <path d="M 69.078942 178.201795 
L 72.714506 178.201795 
L 72.714506 177.679087 
L 69.078942 177.679087 
z
" clip-path="url(#p40616ed312)" style="fill: #1f77b4"/>
   </g>
   <g id="patch_115">
    <path d="M 72.714506 178.201795 
L 76.35007 178.201795 
L 76.35007 177.330614 
L 72.714506 177.330614 
z
" clip-path="url(#p40616ed312)" style="fill: #1f77b4"/>
   </g>
   <g id="patch_116">
    <path d="M 76.35007 178.201795 
L 79.985633 178.201795 
L 79.985633 178.201795 
L 76.35007 178.201795 
z
" clip-path="url(#p40616ed312)" style="fill: #1f77b4"/>
   </g>
   <g id="patch_117">
    <path d="M 79.985633 178.201795 
L 83.621197 178.201795 
L 83.621197 177.50485 
L 79.985633 177.50485 
z
" clip-path="url(#p40616ed312)" style="fill: #1f77b4"/>
   </g>
   <g id="patch_118">
    <path d="M 83.621197 178.201795 
L 87.256761 178.201795 
L 87.256761 177.853323 
L 83.621197 177.853323 
z
" clip-path="url(#p40616ed312)" style="fill: #1f77b4"/>
   </g>
   <g id="patch_119">
    <path d="M 87.256761 178.201795 
L 90.892325 178.201795 
L 90.892325 177.50485 
L 87.256761 177.50485 
z
" clip-path="url(#p40616ed312)" style="fill: #1f77b4"/>
   </g>
   <g id="patch_120">
    <path d="M 90.892325 178.201795 
L 94.527889 178.201795 
L 94.527889 176.63367 
L 90.892325 176.63367 
z
" clip-path="url(#p40616ed312)" style="fill: #1f77b4"/>
   </g>
   <g id="patch_121">
    <path d="M 94.527889 178.201795 
L 98.163453 178.201795 
L 98.163453 176.982142 
L 94.527889 176.982142 
z
" clip-path="url(#p40616ed312)" style="fill: #1f77b4"/>
   </g>
   <g id="patch_122">
    <path d="M 98.163453 178.201795 
L 101.799016 178.201795 
L 101.799016 176.982142 
L 98.163453 176.982142 
z
" clip-path="url(#p40616ed312)" style="fill: #1f77b4"/>
   </g>
   <g id="patch_123">
    <path d="M 101.799016 178.201795 
L 105.43458 178.201795 
L 105.43458 176.459434 
L 101.799016 176.459434 
z
" clip-path="url(#p40616ed312)" style="fill: #1f77b4"/>
   </g>
   <g id="patch_124">
    <path d="M 105.43458 178.201795 
L 109.070144 178.201795 
L 109.070144 176.982142 
L 105.43458 176.982142 
z
" clip-path="url(#p40616ed312)" style="fill: #1f77b4"/>
   </g>
   <g id="patch_125">
    <path d="M 109.070144 178.201795 
L 112.705708 178.201795 
L 112.705708 176.63367 
L 109.070144 176.63367 
z
" clip-path="url(#p40616ed312)" style="fill: #1f77b4"/>
   </g>
   <g id="patch_126">
    <path d="M 112.705708 178.201795 
L 116.341272 178.201795 
L 116.341272 176.807906 
L 112.705708 176.807906 
z
" clip-path="url(#p40616ed312)" style="fill: #1f77b4"/>
   </g>
   <g id="patch_127">
    <path d="M 116.341272 178.201795 
L 119.976835 178.201795 
L 119.976835 176.982142 
L 116.341272 176.982142 
z
" clip-path="url(#p40616ed312)" style="fill: #1f77b4"/>
   </g>
   <g id="patch_128">
    <path d="M 119.976835 178.201795 
L 123.612399 178.201795 
L 123.612399 177.156378 
L 119.976835 177.156378 
z
" clip-path="url(#p40616ed312)" style="fill: #1f77b4"/>
   </g>
   <g id="patch_129">
    <path d="M 123.612399 178.201795 
L 127.247963 178.201795 
L 127.247963 176.110961 
L 123.612399 176.110961 
z
" clip-path="url(#p40616ed312)" style="fill: #1f77b4"/>
   </g>
   <g id="patch_130">
    <path d="M 127.247963 178.201795 
L 130.883527 178.201795 
L 130.883527 176.459434 
L 127.247963 176.459434 
z
" clip-path="url(#p40616ed312)" style="fill: #1f77b4"/>
   </g>
   <g id="patch_131">
    <path d="M 130.883527 178.201795 
L 134.519091 178.201795 
L 134.519091 176.285198 
L 130.883527 176.285198 
z
" clip-path="url(#p40616ed312)" style="fill: #1f77b4"/>
   </g>
   <g id="patch_132">
    <path d="M 134.519091 178.201795 
L 138.154655 178.201795 
L 138.154655 175.065545 
L 134.519091 175.065545 
z
" clip-path="url(#p40616ed312)" style="fill: #1f77b4"/>
   </g>
   <g id="patch_133">
    <path d="M 138.154655 178.201795 
L 141.790218 178.201795 
L 141.790218 174.3686 
L 138.154655 174.3686 
z
" clip-path="url(#p40616ed312)" style="fill: #1f77b4"/>
   </g>
   <g id="patch_134">
    <path d="M 141.790218 178.201795 
L 145.425782 178.201795 
L 145.425782 175.239781 
L 141.790218 175.239781 
z
" clip-path="url(#p40616ed312)" style="fill: #1f77b4"/>
   </g>
   <g id="patch_135">
    <path d="M 145.425782 178.201795 
L 149.061346 178.201795 
L 149.061346 174.542836 
L 145.425782 174.542836 
z
" clip-path="url(#p40616ed312)" style="fill: #1f77b4"/>
   </g>
   <g id="patch_136">
    <path d="M 149.061346 178.201795 
L 152.69691 178.201795 
L 152.69691 173.671656 
L 149.061346 173.671656 
z
" clip-path="url(#p40616ed312)" style="fill: #1f77b4"/>
   </g>
   <g id="patch_137">
    <path d="M 152.69691 178.201795 
L 156.332474 178.201795 
L 156.332474 174.542836 
L 152.69691 174.542836 
z
" clip-path="url(#p40616ed312)" style="fill: #1f77b4"/>
   </g>
   <g id="patch_138">
    <path d="M 156.332474 178.201795 
L 159.968037 178.201795 
L 159.968037 174.717072 
L 156.332474 174.717072 
z
" clip-path="url(#p40616ed312)" style="fill: #1f77b4"/>
   </g>
   <g id="patch_139">
    <path d="M 159.968037 178.201795 
L 163.603601 178.201795 
L 163.603601 174.3686 
L 159.968037 174.3686 
z
" clip-path="url(#p40616ed312)" style="fill: #1f77b4"/>
   </g>
   <g id="patch_140">
    <path d="M 163.603601 178.201795 
L 167.239165 178.201795 
L 167.239165 174.020128 
L 163.603601 174.020128 
z
" clip-path="url(#p40616ed312)" style="fill: #1f77b4"/>
   </g>
   <g id="patch_141">
    <path d="M 167.239165 178.201795 
L 170.874729 178.201795 
L 170.874729 172.452003 
L 167.239165 172.452003 
z
" clip-path="url(#p40616ed312)" style="fill: #1f77b4"/>
   </g>
   <g id="patch_142">
    <path d="M 170.874729 178.201795 
L 174.510293 178.201795 
L 174.510293 174.020128 
L 170.874729 174.020128 
z
" clip-path="url(#p40616ed312)" style="fill: #1f77b4"/>
   </g>
   <g id="patch_143">
    <path d="M 174.510293 178.201795 
L 178.145857 178.201795 
L 178.145857 172.452003 
L 174.510293 172.452003 
z
" clip-path="url(#p40616ed312)" style="fill: #1f77b4"/>
   </g>
   <g id="patch_144">
    <path d="M 178.145857 178.201795 
L 181.78142 178.201795 
L 181.78142 171.755058 
L 178.145857 171.755058 
z
" clip-path="url(#p40616ed312)" style="fill: #1f77b4"/>
   </g>
   <g id="patch_145">
    <path d="M 181.78142 178.201795 
L 185.416984 178.201795 
L 185.416984 171.058114 
L 181.78142 171.058114 
z
" clip-path="url(#p40616ed312)" style="fill: #1f77b4"/>
   </g>
   <g id="patch_146">
    <path d="M 185.416984 178.201795 
L 189.052548 178.201795 
L 189.052548 169.664225 
L 185.416984 169.664225 
z
" clip-path="url(#p40616ed312)" style="fill: #1f77b4"/>
   </g>
   <g id="patch_147">
    <path d="M 189.052548 178.201795 
L 192.688112 178.201795 
L 192.688112 170.535405 
L 189.052548 170.535405 
z
" clip-path="url(#p40616ed312)" style="fill: #1f77b4"/>
   </g>
   <g id="patch_148">
    <path d="M 192.688112 178.201795 
L 196.323676 178.201795 
L 196.323676 170.186933 
L 192.688112 170.186933 
z
" clip-path="url(#p40616ed312)" style="fill: #1f77b4"/>
   </g>
   <g id="patch_149">
    <path d="M 196.323676 178.201795 
L 199.959239 178.201795 
L 199.959239 166.353738 
L 196.323676 166.353738 
z
" clip-path="url(#p40616ed312)" style="fill: #1f77b4"/>
   </g>
   <g id="patch_150">
    <path d="M 199.959239 178.201795 
L 203.594803 178.201795 
L 203.594803 170.012697 
L 199.959239 170.012697 
z
" clip-path="url(#p40616ed312)" style="fill: #1f77b4"/>
   </g>
   <g id="patch_151">
    <path d="M 203.594803 178.201795 
L 207.230367 178.201795 
L 207.230367 171.23235 
L 203.594803 171.23235 
z
" clip-path="url(#p40616ed312)" style="fill: #1f77b4"/>
   </g>
   <g id="patch_152">
    <path d="M 207.230367 178.201795 
L 210.865931 178.201795 
L 210.865931 167.050683 
L 207.230367 167.050683 
z
" clip-path="url(#p40616ed312)" style="fill: #1f77b4"/>
   </g>
   <g id="patch_153">
    <path d="M 210.865931 178.201795 
L 214.501495 178.201795 
L 214.501495 168.793044 
L 210.865931 168.793044 
z
" clip-path="url(#p40616ed312)" style="fill: #1f77b4"/>
   </g>
   <g id="patch_154">
    <path d="M 214.501495 178.201795 
L 218.137059 178.201795 
L 218.137059 167.921863 
L 214.501495 167.921863 
z
" clip-path="url(#p40616ed312)" style="fill: #1f77b4"/>
   </g>
   <g id="patch_155">
    <path d="M 218.137059 178.201795 
L 221.772622 178.201795 
L 221.772622 170.361169 
L 218.137059 170.361169 
z
" clip-path="url(#p40616ed312)" style="fill: #1f77b4"/>
   </g>
   <g id="patch_156">
    <path d="M 221.772622 178.201795 
L 225.408186 178.201795 
L 225.408186 164.785613 
L 221.772622 164.785613 
z
" clip-path="url(#p40616ed312)" style="fill: #1f77b4"/>
   </g>
   <g id="patch_157">
    <path d="M 225.408186 178.201795 
L 229.04375 178.201795 
L 229.04375 166.353738 
L 225.408186 166.353738 
z
" clip-path="url(#p40616ed312)" style="fill: #1f77b4"/>
   </g>
   <g id="patch_158">
    <path d="M 229.04375 178.201795 
L 232.679314 178.201795 
L 232.679314 167.050683 
L 229.04375 167.050683 
z
" clip-path="url(#p40616ed312)" style="fill: #1f77b4"/>
   </g>
   <g id="patch_159">
    <path d="M 232.679314 178.201795 
L 236.314878 178.201795 
L 236.314878 164.785613 
L 232.679314 164.785613 
z
" clip-path="url(#p40616ed312)" style="fill: #1f77b4"/>
   </g>
   <g id="patch_160">
    <path d="M 236.314878 178.201795 
L 239.950441 178.201795 
L 239.950441 165.656794 
L 236.314878 165.656794 
z
" clip-path="url(#p40616ed312)" style="fill: #1f77b4"/>
   </g>
   <g id="patch_161">
    <path d="M 239.950441 178.201795 
L 243.586005 178.201795 
L 243.586005 163.740196 
L 239.950441 163.740196 
z
" clip-path="url(#p40616ed312)" style="fill: #1f77b4"/>
   </g>
   <g id="patch_162">
    <path d="M 243.586005 178.201795 
L 247.221569 178.201795 
L 247.221569 163.740196 
L 243.586005 163.740196 
z
" clip-path="url(#p40616ed312)" style="fill: #1f77b4"/>
   </g>
   <g id="patch_163">
    <path d="M 247.221569 178.201795 
L 250.857133 178.201795 
L 250.857133 160.255474 
L 247.221569 160.255474 
z
" clip-path="url(#p40616ed312)" style="fill: #1f77b4"/>
   </g>
   <g id="patch_164">
    <path d="M 250.857133 178.201795 
L 254.492697 178.201795 
L 254.492697 161.823599 
L 250.857133 161.823599 
z
" clip-path="url(#p40616ed312)" style="fill: #1f77b4"/>
   </g>
   <g id="patch_165">
    <path d="M 254.492697 178.201795 
L 258.128261 178.201795 
L 258.128261 160.778182 
L 254.492697 160.778182 
z
" clip-path="url(#p40616ed312)" style="fill: #1f77b4"/>
   </g>
   <g id="patch_166">
    <path d="M 258.128261 178.201795 
L 261.763824 178.201795 
L 261.763824 162.694779 
L 258.128261 162.694779 
z
" clip-path="url(#p40616ed312)" style="fill: #1f77b4"/>
   </g>
   <g id="patch_167">
    <path d="M 261.763824 178.201795 
L 265.399388 178.201795 
L 265.399388 164.088668 
L 261.763824 164.088668 
z
" clip-path="url(#p40616ed312)" style="fill: #1f77b4"/>
   </g>
   <g id="patch_168">
    <path d="M 265.399388 178.201795 
L 269.034952 178.201795 
L 269.034952 159.907001 
L 265.399388 159.907001 
z
" clip-path="url(#p40616ed312)" style="fill: #1f77b4"/>
   </g>
   <g id="patch_169">
    <path d="M 269.034952 178.201795 
L 272.670516 178.201795 
L 272.670516 159.907001 
L 269.034952 159.907001 
z
" clip-path="url(#p40616ed312)" style="fill: #1f77b4"/>
   </g>
   <g id="patch_170">
    <path d="M 272.670516 178.201795 
L 276.30608 178.201795 
L 276.30608 157.119223 
L 272.670516 157.119223 
z
" clip-path="url(#p40616ed312)" style="fill: #1f77b4"/>
   </g>
   <g id="patch_171">
    <path d="M 276.30608 178.201795 
L 279.941643 178.201795 
L 279.941643 160.255474 
L 276.30608 160.255474 
z
" clip-path="url(#p40616ed312)" style="fill: #1f77b4"/>
   </g>
   <g id="patch_172">
    <path d="M 279.941643 178.201795 
L 283.577207 178.201795 
L 283.577207 159.035821 
L 279.941643 159.035821 
z
" clip-path="url(#p40616ed312)" style="fill: #1f77b4"/>
   </g>
   <g id="patch_173">
    <path d="M 283.577207 178.201795 
L 287.212771 178.201795 
L 287.212771 158.513112 
L 283.577207 158.513112 
z
" clip-path="url(#p40616ed312)" style="fill: #1f77b4"/>
   </g>
   <g id="patch_174">
    <path d="M 287.212771 178.201795 
L 290.848335 178.201795 
L 290.848335 157.641932 
L 287.212771 157.641932 
z
" clip-path="url(#p40616ed312)" style="fill: #1f77b4"/>
   </g>
   <g id="patch_175">
    <path d="M 290.848335 178.201795 
L 294.483899 178.201795 
L 294.483899 159.384293 
L 290.848335 159.384293 
z
" clip-path="url(#p40616ed312)" style="fill: #1f77b4"/>
   </g>
   <g id="patch_176">
    <path d="M 294.483899 178.201795 
L 298.119463 178.201795 
L 298.119463 158.513112 
L 294.483899 158.513112 
z
" clip-path="url(#p40616ed312)" style="fill: #1f77b4"/>
   </g>
   <g id="patch_177">
    <path d="M 298.119463 178.201795 
L 301.755026 178.201795 
L 301.755026 155.376862 
L 298.119463 155.376862 
z
" clip-path="url(#p40616ed312)" style="fill: #1f77b4"/>
   </g>
   <g id="patch_178">
    <path d="M 301.755026 178.201795 
L 305.39059 178.201795 
L 305.39059 154.679917 
L 301.755026 154.679917 
z
" clip-path="url(#p40616ed312)" style="fill: #1f77b4"/>
   </g>
   <g id="patch_179">
    <path d="M 305.39059 178.201795 
L 309.026154 178.201795 
L 309.026154 160.952418 
L 305.39059 160.952418 
z
" clip-path="url(#p40616ed312)" style="fill: #1f77b4"/>
   </g>
   <g id="patch_180">
    <path d="M 309.026154 178.201795 
L 312.661718 178.201795 
L 312.661718 158.513112 
L 309.026154 158.513112 
z
" clip-path="url(#p40616ed312)" style="fill: #1f77b4"/>
   </g>
   <g id="patch_181">
    <path d="M 312.661718 178.201795 
L 316.297282 178.201795 
L 316.297282 158.16464 
L 312.661718 158.16464 
z
" clip-path="url(#p40616ed312)" style="fill: #1f77b4"/>
   </g>
   <g id="patch_182">
    <path d="M 316.297282 178.201795 
L 319.932845 178.201795 
L 319.932845 159.732765 
L 316.297282 159.732765 
z
" clip-path="url(#p40616ed312)" style="fill: #1f77b4"/>
   </g>
   <g id="patch_183">
    <path d="M 319.932845 178.201795 
L 323.568409 178.201795 
L 323.568409 156.770751 
L 319.932845 156.770751 
z
" clip-path="url(#p40616ed312)" style="fill: #1f77b4"/>
   </g>
   <g id="patch_184">
    <path d="M 323.568409 178.201795 
L 327.203973 178.201795 
L 327.203973 156.944987 
L 323.568409 156.944987 
z
" clip-path="url(#p40616ed312)" style="fill: #1f77b4"/>
   </g>
   <g id="patch_185">
    <path d="M 327.203973 178.201795 
L 330.839537 178.201795 
L 330.839537 156.248043 
L 327.203973 156.248043 
z
" clip-path="url(#p40616ed312)" style="fill: #1f77b4"/>
   </g>
   <g id="patch_186">
    <path d="M 330.839537 178.201795 
L 334.475101 178.201795 
L 334.475101 160.081237 
L 330.839537 160.081237 
z
" clip-path="url(#p40616ed312)" style="fill: #1f77b4"/>
   </g>
   <g id="patch_187">
    <path d="M 334.475101 178.201795 
L 338.110665 178.201795 
L 338.110665 157.293459 
L 334.475101 157.293459 
z
" clip-path="url(#p40616ed312)" style="fill: #1f77b4"/>
   </g>
   <g id="patch_188">
    <path d="M 338.110665 178.201795 
L 341.746228 178.201795 
L 341.746228 156.944987 
L 338.110665 156.944987 
z
" clip-path="url(#p40616ed312)" style="fill: #1f77b4"/>
   </g>
   <g id="patch_189">
    <path d="M 341.746228 178.201795 
L 345.381792 178.201795 
L 345.381792 158.513112 
L 341.746228 158.513112 
z
" clip-path="url(#p40616ed312)" style="fill: #1f77b4"/>
   </g>
   <g id="patch_190">
    <path d="M 345.381792 178.201795 
L 349.017356 178.201795 
L 349.017356 157.293459 
L 345.381792 157.293459 
z
" clip-path="url(#p40616ed312)" style="fill: #1f77b4"/>
   </g>
   <g id="patch_191">
    <path d="M 349.017356 178.201795 
L 352.65292 178.201795 
L 352.65292 156.596515 
L 349.017356 156.596515 
z
" clip-path="url(#p40616ed312)" style="fill: #1f77b4"/>
   </g>
   <g id="patch_192">
    <path d="M 352.65292 178.201795 
L 356.288484 178.201795 
L 356.288484 158.687348 
L 352.65292 158.687348 
z
" clip-path="url(#p40616ed312)" style="fill: #1f77b4"/>
   </g>
   <g id="patch_193">
    <path d="M 356.288484 178.201795 
L 359.924047 178.201795 
L 359.924047 159.732765 
L 356.288484 159.732765 
z
" clip-path="url(#p40616ed312)" style="fill: #1f77b4"/>
   </g>
   <g id="patch_194">
    <path d="M 359.924047 178.201795 
L 363.559611 178.201795 
L 363.559611 161.649363 
L 359.924047 161.649363 
z
" clip-path="url(#p40616ed312)" style="fill: #1f77b4"/>
   </g>
   <g id="patch_195">
    <path d="M 363.559611 178.201795 
L 367.195175 178.201795 
L 367.195175 162.346307 
L 363.559611 162.346307 
z
" clip-path="url(#p40616ed312)" style="fill: #1f77b4"/>
   </g>
   <g id="patch_196">
    <path d="M 367.195175 178.201795 
L 370.830739 178.201795 
L 370.830739 162.346307 
L 367.195175 162.346307 
z
" clip-path="url(#p40616ed312)" style="fill: #1f77b4"/>
   </g>
   <g id="patch_197">
    <path d="M 370.830739 178.201795 
L 374.466303 178.201795 
L 374.466303 165.308321 
L 370.830739 165.308321 
z
" clip-path="url(#p40616ed312)" style="fill: #1f77b4"/>
   </g>
   <g id="patch_198">
    <path d="M 374.466303 178.201795 
L 378.101867 178.201795 
L 378.101867 163.56596 
L 374.466303 163.56596 
z
" clip-path="url(#p40616ed312)" style="fill: #1f77b4"/>
   </g>
   <g id="patch_199">
    <path d="M 378.101867 178.201795 
L 381.73743 178.201795 
L 381.73743 166.876447 
L 378.101867 166.876447 
z
" clip-path="url(#p40616ed312)" style="fill: #1f77b4"/>
   </g>
   <g id="patch_200">
    <path d="M 381.73743 178.201795 
L 385.372994 178.201795 
L 385.372994 166.70221 
L 381.73743 166.70221 
z
" clip-path="url(#p40616ed312)" style="fill: #1f77b4"/>
   </g>
   <g id="patch_201">
    <path d="M 385.372994 178.201795 
L 389.008558 178.201795 
L 389.008558 167.399155 
L 385.372994 167.399155 
z
" clip-path="url(#p40616ed312)" style="fill: #1f77b4"/>
   </g>
   <g id="patch_202">
    <path d="M 389.008558 178.201795 
L 392.644122 178.201795 
L 392.644122 170.186933 
L 389.008558 170.186933 
z
" clip-path="url(#p40616ed312)" style="fill: #1f77b4"/>
   </g>
   <g id="patch_203">
    <path d="M 392.644122 178.201795 
L 396.279686 178.201795 
L 396.279686 170.186933 
L 392.644122 170.186933 
z
" clip-path="url(#p40616ed312)" style="fill: #1f77b4"/>
   </g>
   <g id="patch_204">
    <path d="M 396.279686 178.201795 
L 399.915249 178.201795 
L 399.915249 172.10353 
L 396.279686 172.10353 
z
" clip-path="url(#p40616ed312)" style="fill: #1f77b4"/>
   </g>
   <g id="patch_205">
    <path d="M 399.915249 178.201795 
L 403.550813 178.201795 
L 403.550813 174.891309 
L 399.915249 174.891309 
z
" clip-path="url(#p40616ed312)" style="fill: #1f77b4"/>
   </g>
   <g id="patch_206">
    <path d="M 403.550813 178.201795 
L 407.186377 178.201795 
L 407.186377 176.285198 
L 403.550813 176.285198 
z
" clip-path="url(#p40616ed312)" style="fill: #1f77b4"/>
   </g>
   <g id="patch_207">
    <path d="M 407.186377 178.201795 
L 410.821941 178.201795 
L 410.821941 177.853323 
L 407.186377 177.853323 
z
" clip-path="url(#p40616ed312)" style="fill: #1f77b4"/>
   </g>
   <g id="matplotlib.axis_3">
    <g id="xtick_7">
     <g id="line2d_9">
      <g>
       <use xlink:href="#me203ee654c" x="51.939585" y="178.201795" style="stroke: #000000; stroke-width: 0.8"/>
      </g>
     </g>
     <g id="text_10">
      <!-- 500 -->
      <g transform="translate(42.395835 192.800232)scale(0.1 -0.1)">
       <use xlink:href="#DejaVuSans-35"/>
       <use xlink:href="#DejaVuSans-30" x="63.623047"/>
       <use xlink:href="#DejaVuSans-30" x="127.246094"/>
      </g>
     </g>
    </g>
    <g id="xtick_8">
     <g id="line2d_10">
      <g>
       <use xlink:href="#me203ee654c" x="118.694182" y="178.201795" style="stroke: #000000; stroke-width: 0.8"/>
      </g>
     </g>
     <g id="text_11">
      <!-- 1000 -->
      <g transform="translate(105.969182 192.800232)scale(0.1 -0.1)">
       <use xlink:href="#DejaVuSans-31"/>
       <use xlink:href="#DejaVuSans-30" x="63.623047"/>
       <use xlink:href="#DejaVuSans-30" x="127.246094"/>
       <use xlink:href="#DejaVuSans-30" x="190.869141"/>
      </g>
     </g>
    </g>
    <g id="xtick_9">
     <g id="line2d_11">
      <g>
       <use xlink:href="#me203ee654c" x="185.448778" y="178.201795" style="stroke: #000000; stroke-width: 0.8"/>
      </g>
     </g>
     <g id="text_12">
      <!-- 1500 -->
      <g transform="translate(172.723778 192.800232)scale(0.1 -0.1)">
       <use xlink:href="#DejaVuSans-31"/>
       <use xlink:href="#DejaVuSans-35" x="63.623047"/>
       <use xlink:href="#DejaVuSans-30" x="127.246094"/>
       <use xlink:href="#DejaVuSans-30" x="190.869141"/>
      </g>
     </g>
    </g>
    <g id="xtick_10">
     <g id="line2d_12">
      <g>
       <use xlink:href="#me203ee654c" x="252.203374" y="178.201795" style="stroke: #000000; stroke-width: 0.8"/>
      </g>
     </g>
     <g id="text_13">
      <!-- 2000 -->
      <g transform="translate(239.478374 192.800232)scale(0.1 -0.1)">
       <use xlink:href="#DejaVuSans-32"/>
       <use xlink:href="#DejaVuSans-30" x="63.623047"/>
       <use xlink:href="#DejaVuSans-30" x="127.246094"/>
       <use xlink:href="#DejaVuSans-30" x="190.869141"/>
      </g>
     </g>
    </g>
    <g id="xtick_11">
     <g id="line2d_13">
      <g>
       <use xlink:href="#me203ee654c" x="318.95797" y="178.201795" style="stroke: #000000; stroke-width: 0.8"/>
      </g>
     </g>
     <g id="text_14">
      <!-- 2500 -->
      <g transform="translate(306.23297 192.800232)scale(0.1 -0.1)">
       <use xlink:href="#DejaVuSans-32"/>
       <use xlink:href="#DejaVuSans-35" x="63.623047"/>
       <use xlink:href="#DejaVuSans-30" x="127.246094"/>
       <use xlink:href="#DejaVuSans-30" x="190.869141"/>
      </g>
     </g>
    </g>
    <g id="xtick_12">
     <g id="line2d_14">
      <g>
       <use xlink:href="#me203ee654c" x="385.712567" y="178.201795" style="stroke: #000000; stroke-width: 0.8"/>
      </g>
     </g>
     <g id="text_15">
      <!-- 3000 -->
      <g transform="translate(372.987567 192.800232)scale(0.1 -0.1)">
       <use xlink:href="#DejaVuSans-33"/>
       <use xlink:href="#DejaVuSans-30" x="63.623047"/>
       <use xlink:href="#DejaVuSans-30" x="127.246094"/>
       <use xlink:href="#DejaVuSans-30" x="190.869141"/>
      </g>
     </g>
    </g>
   </g>
   <g id="matplotlib.axis_4">
    <g id="ytick_3">
     <g id="line2d_15">
      <g>
       <use xlink:href="#m82ff9e5969" x="29.08774" y="178.201795" style="stroke: #000000; stroke-width: 0.8"/>
      </g>
     </g>
     <g id="text_16">
      <!-- 0 -->
      <g transform="translate(15.72524 182.001014)scale(0.1 -0.1)">
       <use xlink:href="#DejaVuSans-30"/>
      </g>
     </g>
    </g>
    <g id="ytick_4">
     <g id="line2d_16">
      <g>
       <use xlink:href="#m82ff9e5969" x="29.08774" y="143.354569" style="stroke: #000000; stroke-width: 0.8"/>
      </g>
     </g>
     <g id="text_17">
      <!-- 200 -->
      <g transform="translate(3.00024 147.153788)scale(0.1 -0.1)">
       <use xlink:href="#DejaVuSans-32"/>
       <use xlink:href="#DejaVuSans-30" x="63.623047"/>
       <use xlink:href="#DejaVuSans-30" x="127.246094"/>
      </g>
     </g>
    </g>
   </g>
   <g id="patch_208">
    <path d="M 29.08774 178.201795 
L 29.08774 125.878685 
" style="fill: none; stroke: #000000; stroke-width: 0.8; stroke-linejoin: miter; stroke-linecap: square"/>
   </g>
   <g id="patch_209">
    <path d="M 428.99976 178.201795 
L 428.99976 125.878685 
" style="fill: none; stroke: #000000; stroke-width: 0.8; stroke-linejoin: miter; stroke-linecap: square"/>
   </g>
   <g id="patch_210">
    <path d="M 29.08774 178.201795 
L 428.99976 178.201795 
" style="fill: none; stroke: #000000; stroke-width: 0.8; stroke-linejoin: miter; stroke-linecap: square"/>
   </g>
   <g id="patch_211">
    <path d="M 29.08774 125.878685 
L 428.99976 125.878685 
" style="fill: none; stroke: #000000; stroke-width: 0.8; stroke-linejoin: miter; stroke-linecap: square"/>
   </g>
   <g id="text_18">
    <!-- $\nu_2$ -->
    <g transform="translate(222.80375 119.878685)scale(0.12 -0.12)">
     <use xlink:href="#DejaVuSans-Oblique-3bd" transform="translate(0 0.3125)"/>
     <use xlink:href="#DejaVuSans-32" transform="translate(55.859375 -16.09375)scale(0.7)"/>
    </g>
   </g>
  </g>
  <g id="axes_3">
   <g id="patch_212">
    <path d="M 29.08774 268.321635 
L 428.99976 268.321635 
L 428.99976 215.998525 
L 29.08774 215.998525 
z
" style="fill: #ffffff"/>
   </g>
   <g id="patch_213">
    <path d="M 47.265559 268.321635 
L 50.901123 268.321635 
L 50.901123 268.147399 
L 47.265559 268.147399 
z
" clip-path="url(#pff9dae9abe)" style="fill: #1f77b4"/>
   </g>
   <g id="patch_214">
    <path d="M 50.901123 268.321635 
L 54.536687 268.321635 
L 54.536687 268.147399 
L 50.901123 268.147399 
z
" clip-path="url(#pff9dae9abe)" style="fill: #1f77b4"/>
   </g>
   <g id="patch_215">
    <path d="M 54.536687 268.321635 
L 58.172251 268.321635 
L 58.172251 268.321635 
L 54.536687 268.321635 
z
" clip-path="url(#pff9dae9abe)" style="fill: #1f77b4"/>
   </g>
   <g id="patch_216">
    <path d="M 58.172251 268.321635 
L 61.807814 268.321635 
L 61.807814 268.321635 
L 58.172251 268.321635 
z
" clip-path="url(#pff9dae9abe)" style="fill: #1f77b4"/>
   </g>
   <g id="patch_217">
    <path d="M 61.807814 268.321635 
L 65.443378 268.321635 
L 65.443378 268.321635 
L 61.807814 268.321635 
z
" clip-path="url(#pff9dae9abe)" style="fill: #1f77b4"/>
   </g>
   <g id="patch_218">
    <path d="M 65.443378 268.321635 
L 69.078942 268.321635 
L 69.078942 268.321635 
L 65.443378 268.321635 
z
" clip-path="url(#pff9dae9abe)" style="fill: #1f77b4"/>
   </g>
   <g id="patch_219">
    <path d="M 69.078942 268.321635 
L 72.714506 268.321635 
L 72.714506 268.147399 
L 69.078942 268.147399 
z
" clip-path="url(#pff9dae9abe)" style="fill: #1f77b4"/>
   </g>
   <g id="patch_220">
    <path d="M 72.714506 268.321635 
L 76.35007 268.321635 
L 76.35007 268.321635 
L 72.714506 268.321635 
z
" clip-path="url(#pff9dae9abe)" style="fill: #1f77b4"/>
   </g>
   <g id="patch_221">
    <path d="M 76.35007 268.321635 
L 79.985633 268.321635 
L 79.985633 268.321635 
L 76.35007 268.321635 
z
" clip-path="url(#pff9dae9abe)" style="fill: #1f77b4"/>
   </g>
   <g id="patch_222">
    <path d="M 79.985633 268.321635 
L 83.621197 268.321635 
L 83.621197 268.147399 
L 79.985633 268.147399 
z
" clip-path="url(#pff9dae9abe)" style="fill: #1f77b4"/>
   </g>
   <g id="patch_223">
    <path d="M 83.621197 268.321635 
L 87.256761 268.321635 
L 87.256761 268.321635 
L 83.621197 268.321635 
z
" clip-path="url(#pff9dae9abe)" style="fill: #1f77b4"/>
   </g>
   <g id="patch_224">
    <path d="M 87.256761 268.321635 
L 90.892325 268.321635 
L 90.892325 268.147399 
L 87.256761 268.147399 
z
" clip-path="url(#pff9dae9abe)" style="fill: #1f77b4"/>
   </g>
   <g id="patch_225">
    <path d="M 90.892325 268.321635 
L 94.527889 268.321635 
L 94.527889 268.321635 
L 90.892325 268.321635 
z
" clip-path="url(#pff9dae9abe)" style="fill: #1f77b4"/>
   </g>
   <g id="patch_226">
    <path d="M 94.527889 268.321635 
L 98.163453 268.321635 
L 98.163453 268.147399 
L 94.527889 268.147399 
z
" clip-path="url(#pff9dae9abe)" style="fill: #1f77b4"/>
   </g>
   <g id="patch_227">
    <path d="M 98.163453 268.321635 
L 101.799016 268.321635 
L 101.799016 267.973163 
L 98.163453 267.973163 
z
" clip-path="url(#pff9dae9abe)" style="fill: #1f77b4"/>
   </g>
   <g id="patch_228">
    <path d="M 101.799016 268.321635 
L 105.43458 268.321635 
L 105.43458 268.321635 
L 101.799016 268.321635 
z
" clip-path="url(#pff9dae9abe)" style="fill: #1f77b4"/>
   </g>
   <g id="patch_229">
    <path d="M 105.43458 268.321635 
L 109.070144 268.321635 
L 109.070144 268.321635 
L 105.43458 268.321635 
z
" clip-path="url(#pff9dae9abe)" style="fill: #1f77b4"/>
   </g>
   <g id="patch_230">
    <path d="M 109.070144 268.321635 
L 112.705708 268.321635 
L 112.705708 267.798927 
L 109.070144 267.798927 
z
" clip-path="url(#pff9dae9abe)" style="fill: #1f77b4"/>
   </g>
   <g id="patch_231">
    <path d="M 112.705708 268.321635 
L 116.341272 268.321635 
L 116.341272 268.321635 
L 112.705708 268.321635 
z
" clip-path="url(#pff9dae9abe)" style="fill: #1f77b4"/>
   </g>
   <g id="patch_232">
    <path d="M 116.341272 268.321635 
L 119.976835 268.321635 
L 119.976835 268.321635 
L 116.341272 268.321635 
z
" clip-path="url(#pff9dae9abe)" style="fill: #1f77b4"/>
   </g>
   <g id="patch_233">
    <path d="M 119.976835 268.321635 
L 123.612399 268.321635 
L 123.612399 268.147399 
L 119.976835 268.147399 
z
" clip-path="url(#pff9dae9abe)" style="fill: #1f77b4"/>
   </g>
   <g id="patch_234">
    <path d="M 123.612399 268.321635 
L 127.247963 268.321635 
L 127.247963 268.321635 
L 123.612399 268.321635 
z
" clip-path="url(#pff9dae9abe)" style="fill: #1f77b4"/>
   </g>
   <g id="patch_235">
    <path d="M 127.247963 268.321635 
L 130.883527 268.321635 
L 130.883527 268.147399 
L 127.247963 268.147399 
z
" clip-path="url(#pff9dae9abe)" style="fill: #1f77b4"/>
   </g>
   <g id="patch_236">
    <path d="M 130.883527 268.321635 
L 134.519091 268.321635 
L 134.519091 268.147399 
L 130.883527 268.147399 
z
" clip-path="url(#pff9dae9abe)" style="fill: #1f77b4"/>
   </g>
   <g id="patch_237">
    <path d="M 134.519091 268.321635 
L 138.154655 268.321635 
L 138.154655 268.321635 
L 134.519091 268.321635 
z
" clip-path="url(#pff9dae9abe)" style="fill: #1f77b4"/>
   </g>
   <g id="patch_238">
    <path d="M 138.154655 268.321635 
L 141.790218 268.321635 
L 141.790218 268.147399 
L 138.154655 268.147399 
z
" clip-path="url(#pff9dae9abe)" style="fill: #1f77b4"/>
   </g>
   <g id="patch_239">
    <path d="M 141.790218 268.321635 
L 145.425782 268.321635 
L 145.425782 267.798927 
L 141.790218 267.798927 
z
" clip-path="url(#pff9dae9abe)" style="fill: #1f77b4"/>
   </g>
   <g id="patch_240">
    <path d="M 145.425782 268.321635 
L 149.061346 268.321635 
L 149.061346 267.62469 
L 145.425782 267.62469 
z
" clip-path="url(#pff9dae9abe)" style="fill: #1f77b4"/>
   </g>
   <g id="patch_241">
    <path d="M 149.061346 268.321635 
L 152.69691 268.321635 
L 152.69691 267.798927 
L 149.061346 267.798927 
z
" clip-path="url(#pff9dae9abe)" style="fill: #1f77b4"/>
   </g>
   <g id="patch_242">
    <path d="M 152.69691 268.321635 
L 156.332474 268.321635 
L 156.332474 267.798927 
L 152.69691 267.798927 
z
" clip-path="url(#pff9dae9abe)" style="fill: #1f77b4"/>
   </g>
   <g id="patch_243">
    <path d="M 156.332474 268.321635 
L 159.968037 268.321635 
L 159.968037 266.927746 
L 156.332474 266.927746 
z
" clip-path="url(#pff9dae9abe)" style="fill: #1f77b4"/>
   </g>
   <g id="patch_244">
    <path d="M 159.968037 268.321635 
L 163.603601 268.321635 
L 163.603601 267.62469 
L 159.968037 267.62469 
z
" clip-path="url(#pff9dae9abe)" style="fill: #1f77b4"/>
   </g>
   <g id="patch_245">
    <path d="M 163.603601 268.321635 
L 167.239165 268.321635 
L 167.239165 266.75351 
L 163.603601 266.75351 
z
" clip-path="url(#pff9dae9abe)" style="fill: #1f77b4"/>
   </g>
   <g id="patch_246">
    <path d="M 167.239165 268.321635 
L 170.874729 268.321635 
L 170.874729 267.276218 
L 167.239165 267.276218 
z
" clip-path="url(#pff9dae9abe)" style="fill: #1f77b4"/>
   </g>
   <g id="patch_247">
    <path d="M 170.874729 268.321635 
L 174.510293 268.321635 
L 174.510293 267.101982 
L 170.874729 267.101982 
z
" clip-path="url(#pff9dae9abe)" style="fill: #1f77b4"/>
   </g>
   <g id="patch_248">
    <path d="M 174.510293 268.321635 
L 178.145857 268.321635 
L 178.145857 267.276218 
L 174.510293 267.276218 
z
" clip-path="url(#pff9dae9abe)" style="fill: #1f77b4"/>
   </g>
   <g id="patch_249">
    <path d="M 178.145857 268.321635 
L 181.78142 268.321635 
L 181.78142 265.882329 
L 178.145857 265.882329 
z
" clip-path="url(#pff9dae9abe)" style="fill: #1f77b4"/>
   </g>
   <g id="patch_250">
    <path d="M 181.78142 268.321635 
L 185.416984 268.321635 
L 185.416984 266.927746 
L 181.78142 266.927746 
z
" clip-path="url(#pff9dae9abe)" style="fill: #1f77b4"/>
   </g>
   <g id="patch_251">
    <path d="M 185.416984 268.321635 
L 189.052548 268.321635 
L 189.052548 266.927746 
L 185.416984 266.927746 
z
" clip-path="url(#pff9dae9abe)" style="fill: #1f77b4"/>
   </g>
   <g id="patch_252">
    <path d="M 189.052548 268.321635 
L 192.688112 268.321635 
L 192.688112 267.276218 
L 189.052548 267.276218 
z
" clip-path="url(#pff9dae9abe)" style="fill: #1f77b4"/>
   </g>
   <g id="patch_253">
    <path d="M 192.688112 268.321635 
L 196.323676 268.321635 
L 196.323676 266.579274 
L 192.688112 266.579274 
z
" clip-path="url(#pff9dae9abe)" style="fill: #1f77b4"/>
   </g>
   <g id="patch_254">
    <path d="M 196.323676 268.321635 
L 199.959239 268.321635 
L 199.959239 266.405038 
L 196.323676 266.405038 
z
" clip-path="url(#pff9dae9abe)" style="fill: #1f77b4"/>
   </g>
   <g id="patch_255">
    <path d="M 199.959239 268.321635 
L 203.594803 268.321635 
L 203.594803 265.359621 
L 199.959239 265.359621 
z
" clip-path="url(#pff9dae9abe)" style="fill: #1f77b4"/>
   </g>
   <g id="patch_256">
    <path d="M 203.594803 268.321635 
L 207.230367 268.321635 
L 207.230367 264.836912 
L 203.594803 264.836912 
z
" clip-path="url(#pff9dae9abe)" style="fill: #1f77b4"/>
   </g>
   <g id="patch_257">
    <path d="M 207.230367 268.321635 
L 210.865931 268.321635 
L 210.865931 265.882329 
L 207.230367 265.882329 
z
" clip-path="url(#pff9dae9abe)" style="fill: #1f77b4"/>
   </g>
   <g id="patch_258">
    <path d="M 210.865931 268.321635 
L 214.501495 268.321635 
L 214.501495 265.185385 
L 210.865931 265.185385 
z
" clip-path="url(#pff9dae9abe)" style="fill: #1f77b4"/>
   </g>
   <g id="patch_259">
    <path d="M 214.501495 268.321635 
L 218.137059 268.321635 
L 218.137059 265.533857 
L 214.501495 265.533857 
z
" clip-path="url(#pff9dae9abe)" style="fill: #1f77b4"/>
   </g>
   <g id="patch_260">
    <path d="M 218.137059 268.321635 
L 221.772622 268.321635 
L 221.772622 266.75351 
L 218.137059 266.75351 
z
" clip-path="url(#pff9dae9abe)" style="fill: #1f77b4"/>
   </g>
   <g id="patch_261">
    <path d="M 221.772622 268.321635 
L 225.408186 268.321635 
L 225.408186 265.185385 
L 221.772622 265.185385 
z
" clip-path="url(#pff9dae9abe)" style="fill: #1f77b4"/>
   </g>
   <g id="patch_262">
    <path d="M 225.408186 268.321635 
L 229.04375 268.321635 
L 229.04375 264.48844 
L 225.408186 264.48844 
z
" clip-path="url(#pff9dae9abe)" style="fill: #1f77b4"/>
   </g>
   <g id="patch_263">
    <path d="M 229.04375 268.321635 
L 232.679314 268.321635 
L 232.679314 264.48844 
L 229.04375 264.48844 
z
" clip-path="url(#pff9dae9abe)" style="fill: #1f77b4"/>
   </g>
   <g id="patch_264">
    <path d="M 232.679314 268.321635 
L 236.314878 268.321635 
L 236.314878 263.791496 
L 232.679314 263.791496 
z
" clip-path="url(#pff9dae9abe)" style="fill: #1f77b4"/>
   </g>
   <g id="patch_265">
    <path d="M 236.314878 268.321635 
L 239.950441 268.321635 
L 239.950441 265.011149 
L 236.314878 265.011149 
z
" clip-path="url(#pff9dae9abe)" style="fill: #1f77b4"/>
   </g>
   <g id="patch_266">
    <path d="M 239.950441 268.321635 
L 243.586005 268.321635 
L 243.586005 262.571843 
L 239.950441 262.571843 
z
" clip-path="url(#pff9dae9abe)" style="fill: #1f77b4"/>
   </g>
   <g id="patch_267">
    <path d="M 243.586005 268.321635 
L 247.221569 268.321635 
L 247.221569 263.443023 
L 243.586005 263.443023 
z
" clip-path="url(#pff9dae9abe)" style="fill: #1f77b4"/>
   </g>
   <g id="patch_268">
    <path d="M 247.221569 268.321635 
L 250.857133 268.321635 
L 250.857133 262.22337 
L 247.221569 262.22337 
z
" clip-path="url(#pff9dae9abe)" style="fill: #1f77b4"/>
   </g>
   <g id="patch_269">
    <path d="M 250.857133 268.321635 
L 254.492697 268.321635 
L 254.492697 264.314204 
L 250.857133 264.314204 
z
" clip-path="url(#pff9dae9abe)" style="fill: #1f77b4"/>
   </g>
   <g id="patch_270">
    <path d="M 254.492697 268.321635 
L 258.128261 268.321635 
L 258.128261 262.049134 
L 254.492697 262.049134 
z
" clip-path="url(#pff9dae9abe)" style="fill: #1f77b4"/>
   </g>
   <g id="patch_271">
    <path d="M 258.128261 268.321635 
L 261.763824 268.321635 
L 261.763824 261.874898 
L 258.128261 261.874898 
z
" clip-path="url(#pff9dae9abe)" style="fill: #1f77b4"/>
   </g>
   <g id="patch_272">
    <path d="M 261.763824 268.321635 
L 265.399388 268.321635 
L 265.399388 261.700662 
L 261.763824 261.700662 
z
" clip-path="url(#pff9dae9abe)" style="fill: #1f77b4"/>
   </g>
   <g id="patch_273">
    <path d="M 265.399388 268.321635 
L 269.034952 268.321635 
L 269.034952 259.958301 
L 265.399388 259.958301 
z
" clip-path="url(#pff9dae9abe)" style="fill: #1f77b4"/>
   </g>
   <g id="patch_274">
    <path d="M 269.034952 268.321635 
L 272.670516 268.321635 
L 272.670516 261.177954 
L 269.034952 261.177954 
z
" clip-path="url(#pff9dae9abe)" style="fill: #1f77b4"/>
   </g>
   <g id="patch_275">
    <path d="M 272.670516 268.321635 
L 276.30608 268.321635 
L 276.30608 262.22337 
L 272.670516 262.22337 
z
" clip-path="url(#pff9dae9abe)" style="fill: #1f77b4"/>
   </g>
   <g id="patch_276">
    <path d="M 276.30608 268.321635 
L 279.941643 268.321635 
L 279.941643 258.215939 
L 276.30608 258.215939 
z
" clip-path="url(#pff9dae9abe)" style="fill: #1f77b4"/>
   </g>
   <g id="patch_277">
    <path d="M 279.941643 268.321635 
L 283.577207 268.321635 
L 283.577207 261.003718 
L 279.941643 261.003718 
z
" clip-path="url(#pff9dae9abe)" style="fill: #1f77b4"/>
   </g>
   <g id="patch_278">
    <path d="M 283.577207 268.321635 
L 287.212771 268.321635 
L 287.212771 257.170523 
L 283.577207 257.170523 
z
" clip-path="url(#pff9dae9abe)" style="fill: #1f77b4"/>
   </g>
   <g id="patch_279">
    <path d="M 287.212771 268.321635 
L 290.848335 268.321635 
L 290.848335 256.473578 
L 287.212771 256.473578 
z
" clip-path="url(#pff9dae9abe)" style="fill: #1f77b4"/>
   </g>
   <g id="patch_280">
    <path d="M 290.848335 268.321635 
L 294.483899 268.321635 
L 294.483899 255.95087 
L 290.848335 255.95087 
z
" clip-path="url(#pff9dae9abe)" style="fill: #1f77b4"/>
   </g>
   <g id="patch_281">
    <path d="M 294.483899 268.321635 
L 298.119463 268.321635 
L 298.119463 256.125106 
L 294.483899 256.125106 
z
" clip-path="url(#pff9dae9abe)" style="fill: #1f77b4"/>
   </g>
   <g id="patch_282">
    <path d="M 298.119463 268.321635 
L 301.755026 268.321635 
L 301.755026 256.299342 
L 298.119463 256.299342 
z
" clip-path="url(#pff9dae9abe)" style="fill: #1f77b4"/>
   </g>
   <g id="patch_283">
    <path d="M 301.755026 268.321635 
L 305.39059 268.321635 
L 305.39059 255.95087 
L 301.755026 255.95087 
z
" clip-path="url(#pff9dae9abe)" style="fill: #1f77b4"/>
   </g>
   <g id="patch_284">
    <path d="M 305.39059 268.321635 
L 309.026154 268.321635 
L 309.026154 254.556981 
L 305.39059 254.556981 
z
" clip-path="url(#pff9dae9abe)" style="fill: #1f77b4"/>
   </g>
   <g id="patch_285">
    <path d="M 309.026154 268.321635 
L 312.661718 268.321635 
L 312.661718 255.776634 
L 309.026154 255.776634 
z
" clip-path="url(#pff9dae9abe)" style="fill: #1f77b4"/>
   </g>
   <g id="patch_286">
    <path d="M 312.661718 268.321635 
L 316.297282 268.321635 
L 316.297282 251.594966 
L 312.661718 251.594966 
z
" clip-path="url(#pff9dae9abe)" style="fill: #1f77b4"/>
   </g>
   <g id="patch_287">
    <path d="M 316.297282 268.321635 
L 319.932845 268.321635 
L 319.932845 251.769203 
L 316.297282 251.769203 
z
" clip-path="url(#pff9dae9abe)" style="fill: #1f77b4"/>
   </g>
   <g id="patch_288">
    <path d="M 319.932845 268.321635 
L 323.568409 268.321635 
L 323.568409 251.594966 
L 319.932845 251.594966 
z
" clip-path="url(#pff9dae9abe)" style="fill: #1f77b4"/>
   </g>
   <g id="patch_289">
    <path d="M 323.568409 268.321635 
L 327.203973 268.321635 
L 327.203973 249.329897 
L 323.568409 249.329897 
z
" clip-path="url(#pff9dae9abe)" style="fill: #1f77b4"/>
   </g>
   <g id="patch_290">
    <path d="M 327.203973 268.321635 
L 330.839537 268.321635 
L 330.839537 249.852605 
L 327.203973 249.852605 
z
" clip-path="url(#pff9dae9abe)" style="fill: #1f77b4"/>
   </g>
   <g id="patch_291">
    <path d="M 330.839537 268.321635 
L 334.475101 268.321635 
L 334.475101 247.761772 
L 330.839537 247.761772 
z
" clip-path="url(#pff9dae9abe)" style="fill: #1f77b4"/>
   </g>
   <g id="patch_292">
    <path d="M 334.475101 268.321635 
L 338.110665 268.321635 
L 338.110665 247.761772 
L 334.475101 247.761772 
z
" clip-path="url(#pff9dae9abe)" style="fill: #1f77b4"/>
   </g>
   <g id="patch_293">
    <path d="M 338.110665 268.321635 
L 341.746228 268.321635 
L 341.746228 245.670938 
L 338.110665 245.670938 
z
" clip-path="url(#pff9dae9abe)" style="fill: #1f77b4"/>
   </g>
   <g id="patch_294">
    <path d="M 341.746228 268.321635 
L 345.381792 268.321635 
L 345.381792 247.761772 
L 341.746228 247.761772 
z
" clip-path="url(#pff9dae9abe)" style="fill: #1f77b4"/>
   </g>
   <g id="patch_295">
    <path d="M 345.381792 268.321635 
L 349.017356 268.321635 
L 349.017356 244.451285 
L 345.381792 244.451285 
z
" clip-path="url(#pff9dae9abe)" style="fill: #1f77b4"/>
   </g>
   <g id="patch_296">
    <path d="M 349.017356 268.321635 
L 352.65292 268.321635 
L 352.65292 248.981425 
L 349.017356 248.981425 
z
" clip-path="url(#pff9dae9abe)" style="fill: #1f77b4"/>
   </g>
   <g id="patch_297">
    <path d="M 352.65292 268.321635 
L 356.288484 268.321635 
L 356.288484 243.057396 
L 352.65292 243.057396 
z
" clip-path="url(#pff9dae9abe)" style="fill: #1f77b4"/>
   </g>
   <g id="patch_298">
    <path d="M 356.288484 268.321635 
L 359.924047 268.321635 
L 359.924047 239.224201 
L 356.288484 239.224201 
z
" clip-path="url(#pff9dae9abe)" style="fill: #1f77b4"/>
   </g>
   <g id="patch_299">
    <path d="M 359.924047 268.321635 
L 363.559611 268.321635 
L 363.559611 242.186215 
L 359.924047 242.186215 
z
" clip-path="url(#pff9dae9abe)" style="fill: #1f77b4"/>
   </g>
   <g id="patch_300">
    <path d="M 363.559611 268.321635 
L 367.195175 268.321635 
L 367.195175 235.391006 
L 363.559611 235.391006 
z
" clip-path="url(#pff9dae9abe)" style="fill: #1f77b4"/>
   </g>
   <g id="patch_301">
    <path d="M 367.195175 268.321635 
L 370.830739 268.321635 
L 370.830739 237.133368 
L 367.195175 237.133368 
z
" clip-path="url(#pff9dae9abe)" style="fill: #1f77b4"/>
   </g>
   <g id="patch_302">
    <path d="M 370.830739 268.321635 
L 374.466303 268.321635 
L 374.466303 238.527257 
L 370.830739 238.527257 
z
" clip-path="url(#pff9dae9abe)" style="fill: #1f77b4"/>
   </g>
   <g id="patch_303">
    <path d="M 374.466303 268.321635 
L 378.101867 268.321635 
L 378.101867 235.21677 
L 374.466303 235.21677 
z
" clip-path="url(#pff9dae9abe)" style="fill: #1f77b4"/>
   </g>
   <g id="patch_304">
    <path d="M 378.101867 268.321635 
L 381.73743 268.321635 
L 381.73743 233.474409 
L 378.101867 233.474409 
z
" clip-path="url(#pff9dae9abe)" style="fill: #1f77b4"/>
   </g>
   <g id="patch_305">
    <path d="M 381.73743 268.321635 
L 385.372994 268.321635 
L 385.372994 227.027672 
L 381.73743 227.027672 
z
" clip-path="url(#pff9dae9abe)" style="fill: #1f77b4"/>
   </g>
   <g id="patch_306">
    <path d="M 385.372994 268.321635 
L 389.008558 268.321635 
L 389.008558 230.686631 
L 385.372994 230.686631 
z
" clip-path="url(#pff9dae9abe)" style="fill: #1f77b4"/>
   </g>
   <g id="patch_307">
    <path d="M 389.008558 268.321635 
L 392.644122 268.321635 
L 392.644122 226.330728 
L 389.008558 226.330728 
z
" clip-path="url(#pff9dae9abe)" style="fill: #1f77b4"/>
   </g>
   <g id="patch_308">
    <path d="M 392.644122 268.321635 
L 396.279686 268.321635 
L 396.279686 227.201908 
L 392.644122 227.201908 
z
" clip-path="url(#pff9dae9abe)" style="fill: #1f77b4"/>
   </g>
   <g id="patch_309">
    <path d="M 396.279686 268.321635 
L 399.915249 268.321635 
L 399.915249 225.285311 
L 396.279686 225.285311 
z
" clip-path="url(#pff9dae9abe)" style="fill: #1f77b4"/>
   </g>
   <g id="patch_310">
    <path d="M 399.915249 268.321635 
L 403.550813 268.321635 
L 403.550813 225.633783 
L 399.915249 225.633783 
z
" clip-path="url(#pff9dae9abe)" style="fill: #1f77b4"/>
   </g>
   <g id="patch_311">
    <path d="M 403.550813 268.321635 
L 407.186377 268.321635 
L 407.186377 218.490102 
L 403.550813 218.490102 
z
" clip-path="url(#pff9dae9abe)" style="fill: #1f77b4"/>
   </g>
   <g id="patch_312">
    <path d="M 407.186377 268.321635 
L 410.821941 268.321635 
L 410.821941 252.291911 
L 407.186377 252.291911 
z
" clip-path="url(#pff9dae9abe)" style="fill: #1f77b4"/>
   </g>
   <g id="matplotlib.axis_5">
    <g id="xtick_13">
     <g id="line2d_17">
      <g>
       <use xlink:href="#me203ee654c" x="78.376645" y="268.321635" style="stroke: #000000; stroke-width: 0.8"/>
      </g>
     </g>
     <g id="text_19">
      <!-- 1000 -->
      <g transform="translate(65.651645 282.920073)scale(0.1 -0.1)">
       <use xlink:href="#DejaVuSans-31"/>
       <use xlink:href="#DejaVuSans-30" x="63.623047"/>
       <use xlink:href="#DejaVuSans-30" x="127.246094"/>
       <use xlink:href="#DejaVuSans-30" x="190.869141"/>
      </g>
     </g>
    </g>
    <g id="xtick_14">
     <g id="line2d_18">
      <g>
       <use xlink:href="#me203ee654c" x="154.25955" y="268.321635" style="stroke: #000000; stroke-width: 0.8"/>
      </g>
     </g>
     <g id="text_20">
      <!-- 1500 -->
      <g transform="translate(141.53455 282.920073)scale(0.1 -0.1)">
       <use xlink:href="#DejaVuSans-31"/>
       <use xlink:href="#DejaVuSans-35" x="63.623047"/>
       <use xlink:href="#DejaVuSans-30" x="127.246094"/>
       <use xlink:href="#DejaVuSans-30" x="190.869141"/>
      </g>
     </g>
    </g>
    <g id="xtick_15">
     <g id="line2d_19">
      <g>
       <use xlink:href="#me203ee654c" x="230.142455" y="268.321635" style="stroke: #000000; stroke-width: 0.8"/>
      </g>
     </g>
     <g id="text_21">
      <!-- 2000 -->
      <g transform="translate(217.417455 282.920073)scale(0.1 -0.1)">
       <use xlink:href="#DejaVuSans-32"/>
       <use xlink:href="#DejaVuSans-30" x="63.623047"/>
       <use xlink:href="#DejaVuSans-30" x="127.246094"/>
       <use xlink:href="#DejaVuSans-30" x="190.869141"/>
      </g>
     </g>
    </g>
    <g id="xtick_16">
     <g id="line2d_20">
      <g>
       <use xlink:href="#me203ee654c" x="306.025359" y="268.321635" style="stroke: #000000; stroke-width: 0.8"/>
      </g>
     </g>
     <g id="text_22">
      <!-- 2500 -->
      <g transform="translate(293.300359 282.920073)scale(0.1 -0.1)">
       <use xlink:href="#DejaVuSans-32"/>
       <use xlink:href="#DejaVuSans-35" x="63.623047"/>
       <use xlink:href="#DejaVuSans-30" x="127.246094"/>
       <use xlink:href="#DejaVuSans-30" x="190.869141"/>
      </g>
     </g>
    </g>
    <g id="xtick_17">
     <g id="line2d_21">
      <g>
       <use xlink:href="#me203ee654c" x="381.908264" y="268.321635" style="stroke: #000000; stroke-width: 0.8"/>
      </g>
     </g>
     <g id="text_23">
      <!-- 3000 -->
      <g transform="translate(369.183264 282.920073)scale(0.1 -0.1)">
       <use xlink:href="#DejaVuSans-33"/>
       <use xlink:href="#DejaVuSans-30" x="63.623047"/>
       <use xlink:href="#DejaVuSans-30" x="127.246094"/>
       <use xlink:href="#DejaVuSans-30" x="190.869141"/>
      </g>
     </g>
    </g>
   </g>
   <g id="matplotlib.axis_6">
    <g id="ytick_5">
     <g id="line2d_22">
      <g>
       <use xlink:href="#m82ff9e5969" x="29.08774" y="268.321635" style="stroke: #000000; stroke-width: 0.8"/>
      </g>
     </g>
     <g id="text_24">
      <!-- 0 -->
      <g transform="translate(15.72524 272.120854)scale(0.1 -0.1)">
       <use xlink:href="#DejaVuSans-30"/>
      </g>
     </g>
    </g>
    <g id="ytick_6">
     <g id="line2d_23">
      <g>
       <use xlink:href="#m82ff9e5969" x="29.08774" y="233.474409" style="stroke: #000000; stroke-width: 0.8"/>
      </g>
     </g>
     <g id="text_25">
      <!-- 200 -->
      <g transform="translate(3.00024 237.273628)scale(0.1 -0.1)">
       <use xlink:href="#DejaVuSans-32"/>
       <use xlink:href="#DejaVuSans-30" x="63.623047"/>
       <use xlink:href="#DejaVuSans-30" x="127.246094"/>
      </g>
     </g>
    </g>
   </g>
   <g id="patch_313">
    <path d="M 29.08774 268.321635 
L 29.08774 215.998525 
" style="fill: none; stroke: #000000; stroke-width: 0.8; stroke-linejoin: miter; stroke-linecap: square"/>
   </g>
   <g id="patch_314">
    <path d="M 428.99976 268.321635 
L 428.99976 215.998525 
" style="fill: none; stroke: #000000; stroke-width: 0.8; stroke-linejoin: miter; stroke-linecap: square"/>
   </g>
   <g id="patch_315">
    <path d="M 29.08774 268.321635 
L 428.99976 268.321635 
" style="fill: none; stroke: #000000; stroke-width: 0.8; stroke-linejoin: miter; stroke-linecap: square"/>
   </g>
   <g id="patch_316">
    <path d="M 29.08774 215.998525 
L 428.99976 215.998525 
" style="fill: none; stroke: #000000; stroke-width: 0.8; stroke-linejoin: miter; stroke-linecap: square"/>
   </g>
   <g id="text_26">
    <!-- $\nu_3$ -->
    <g transform="translate(222.80375 209.998525)scale(0.12 -0.12)">
     <use xlink:href="#DejaVuSans-Oblique-3bd" transform="translate(0 0.3125)"/>
     <use xlink:href="#DejaVuSans-33" transform="translate(55.859375 -16.09375)scale(0.7)"/>
    </g>
   </g>
  </g>
  <g id="text_27">
   <!-- Histogramme des $\nu$ -->
   <g transform="translate(157.5 12.12024)scale(0.12 -0.12)">
    <defs>
     <path id="DejaVuSans-48" d="M 628 4666 
L 1259 4666 
L 1259 2753 
L 3553 2753 
L 3553 4666 
L 4184 4666 
L 4184 0 
L 3553 0 
L 3553 2222 
L 1259 2222 
L 1259 0 
L 628 0 
L 628 4666 
z
" transform="scale(0.015625)"/>
     <path id="DejaVuSans-69" d="M 603 3500 
L 1178 3500 
L 1178 0 
L 603 0 
L 603 3500 
z
M 603 4863 
L 1178 4863 
L 1178 4134 
L 603 4134 
L 603 4863 
z
" transform="scale(0.015625)"/>
     <path id="DejaVuSans-73" d="M 2834 3397 
L 2834 2853 
Q 2591 2978 2328 3040 
Q 2066 3103 1784 3103 
Q 1356 3103 1142 2972 
Q 928 2841 928 2578 
Q 928 2378 1081 2264 
Q 1234 2150 1697 2047 
L 1894 2003 
Q 2506 1872 2764 1633 
Q 3022 1394 3022 966 
Q 3022 478 2636 193 
Q 2250 -91 1575 -91 
Q 1294 -91 989 -36 
Q 684 19 347 128 
L 347 722 
Q 666 556 975 473 
Q 1284 391 1588 391 
Q 1994 391 2212 530 
Q 2431 669 2431 922 
Q 2431 1156 2273 1281 
Q 2116 1406 1581 1522 
L 1381 1569 
Q 847 1681 609 1914 
Q 372 2147 372 2553 
Q 372 3047 722 3315 
Q 1072 3584 1716 3584 
Q 2034 3584 2315 3537 
Q 2597 3491 2834 3397 
z
" transform="scale(0.015625)"/>
     <path id="DejaVuSans-74" d="M 1172 4494 
L 1172 3500 
L 2356 3500 
L 2356 3053 
L 1172 3053 
L 1172 1153 
Q 1172 725 1289 603 
Q 1406 481 1766 481 
L 2356 481 
L 2356 0 
L 1766 0 
Q 1100 0 847 248 
Q 594 497 594 1153 
L 594 3053 
L 172 3053 
L 172 3500 
L 594 3500 
L 594 4494 
L 1172 4494 
z
" transform="scale(0.015625)"/>
     <path id="DejaVuSans-6f" d="M 1959 3097 
Q 1497 3097 1228 2736 
Q 959 2375 959 1747 
Q 959 1119 1226 758 
Q 1494 397 1959 397 
Q 2419 397 2687 759 
Q 2956 1122 2956 1747 
Q 2956 2369 2687 2733 
Q 2419 3097 1959 3097 
z
M 1959 3584 
Q 2709 3584 3137 3096 
Q 3566 2609 3566 1747 
Q 3566 888 3137 398 
Q 2709 -91 1959 -91 
Q 1206 -91 779 398 
Q 353 888 353 1747 
Q 353 2609 779 3096 
Q 1206 3584 1959 3584 
z
" transform="scale(0.015625)"/>
     <path id="DejaVuSans-67" d="M 2906 1791 
Q 2906 2416 2648 2759 
Q 2391 3103 1925 3103 
Q 1463 3103 1205 2759 
Q 947 2416 947 1791 
Q 947 1169 1205 825 
Q 1463 481 1925 481 
Q 2391 481 2648 825 
Q 2906 1169 2906 1791 
z
M 3481 434 
Q 3481 -459 3084 -895 
Q 2688 -1331 1869 -1331 
Q 1566 -1331 1297 -1286 
Q 1028 -1241 775 -1147 
L 775 -588 
Q 1028 -725 1275 -790 
Q 1522 -856 1778 -856 
Q 2344 -856 2625 -561 
Q 2906 -266 2906 331 
L 2906 616 
Q 2728 306 2450 153 
Q 2172 0 1784 0 
Q 1141 0 747 490 
Q 353 981 353 1791 
Q 353 2603 747 3093 
Q 1141 3584 1784 3584 
Q 2172 3584 2450 3431 
Q 2728 3278 2906 2969 
L 2906 3500 
L 3481 3500 
L 3481 434 
z
" transform="scale(0.015625)"/>
     <path id="DejaVuSans-72" d="M 2631 2963 
Q 2534 3019 2420 3045 
Q 2306 3072 2169 3072 
Q 1681 3072 1420 2755 
Q 1159 2438 1159 1844 
L 1159 0 
L 581 0 
L 581 3500 
L 1159 3500 
L 1159 2956 
Q 1341 3275 1631 3429 
Q 1922 3584 2338 3584 
Q 2397 3584 2469 3576 
Q 2541 3569 2628 3553 
L 2631 2963 
z
" transform="scale(0.015625)"/>
     <path id="DejaVuSans-61" d="M 2194 1759 
Q 1497 1759 1228 1600 
Q 959 1441 959 1056 
Q 959 750 1161 570 
Q 1363 391 1709 391 
Q 2188 391 2477 730 
Q 2766 1069 2766 1631 
L 2766 1759 
L 2194 1759 
z
M 3341 1997 
L 3341 0 
L 2766 0 
L 2766 531 
Q 2569 213 2275 61 
Q 1981 -91 1556 -91 
Q 1019 -91 701 211 
Q 384 513 384 1019 
Q 384 1609 779 1909 
Q 1175 2209 1959 2209 
L 2766 2209 
L 2766 2266 
Q 2766 2663 2505 2880 
Q 2244 3097 1772 3097 
Q 1472 3097 1187 3025 
Q 903 2953 641 2809 
L 641 3341 
Q 956 3463 1253 3523 
Q 1550 3584 1831 3584 
Q 2591 3584 2966 3190 
Q 3341 2797 3341 1997 
z
" transform="scale(0.015625)"/>
     <path id="DejaVuSans-6d" d="M 3328 2828 
Q 3544 3216 3844 3400 
Q 4144 3584 4550 3584 
Q 5097 3584 5394 3201 
Q 5691 2819 5691 2113 
L 5691 0 
L 5113 0 
L 5113 2094 
Q 5113 2597 4934 2840 
Q 4756 3084 4391 3084 
Q 3944 3084 3684 2787 
Q 3425 2491 3425 1978 
L 3425 0 
L 2847 0 
L 2847 2094 
Q 2847 2600 2669 2842 
Q 2491 3084 2119 3084 
Q 1678 3084 1418 2786 
Q 1159 2488 1159 1978 
L 1159 0 
L 581 0 
L 581 3500 
L 1159 3500 
L 1159 2956 
Q 1356 3278 1631 3431 
Q 1906 3584 2284 3584 
Q 2666 3584 2933 3390 
Q 3200 3197 3328 2828 
z
" transform="scale(0.015625)"/>
     <path id="DejaVuSans-65" d="M 3597 1894 
L 3597 1613 
L 953 1613 
Q 991 1019 1311 708 
Q 1631 397 2203 397 
Q 2534 397 2845 478 
Q 3156 559 3463 722 
L 3463 178 
Q 3153 47 2828 -22 
Q 2503 -91 2169 -91 
Q 1331 -91 842 396 
Q 353 884 353 1716 
Q 353 2575 817 3079 
Q 1281 3584 2069 3584 
Q 2775 3584 3186 3129 
Q 3597 2675 3597 1894 
z
M 3022 2063 
Q 3016 2534 2758 2815 
Q 2500 3097 2075 3097 
Q 1594 3097 1305 2825 
Q 1016 2553 972 2059 
L 3022 2063 
z
" transform="scale(0.015625)"/>
     <path id="DejaVuSans-20" transform="scale(0.015625)"/>
     <path id="DejaVuSans-64" d="M 2906 2969 
L 2906 4863 
L 3481 4863 
L 3481 0 
L 2906 0 
L 2906 525 
Q 2725 213 2448 61 
Q 2172 -91 1784 -91 
Q 1150 -91 751 415 
Q 353 922 353 1747 
Q 353 2572 751 3078 
Q 1150 3584 1784 3584 
Q 2172 3584 2448 3432 
Q 2725 3281 2906 2969 
z
M 947 1747 
Q 947 1113 1208 752 
Q 1469 391 1925 391 
Q 2381 391 2643 752 
Q 2906 1113 2906 1747 
Q 2906 2381 2643 2742 
Q 2381 3103 1925 3103 
Q 1469 3103 1208 2742 
Q 947 2381 947 1747 
z
" transform="scale(0.015625)"/>
    </defs>
    <use xlink:href="#DejaVuSans-48" transform="translate(0 0.015625)"/>
    <use xlink:href="#DejaVuSans-69" transform="translate(75.195312 0.015625)"/>
    <use xlink:href="#DejaVuSans-73" transform="translate(102.978516 0.015625)"/>
    <use xlink:href="#DejaVuSans-74" transform="translate(155.078125 0.015625)"/>
    <use xlink:href="#DejaVuSans-6f" transform="translate(194.287109 0.015625)"/>
    <use xlink:href="#DejaVuSans-67" transform="translate(255.46875 0.015625)"/>
    <use xlink:href="#DejaVuSans-72" transform="translate(318.945312 0.015625)"/>
    <use xlink:href="#DejaVuSans-61" transform="translate(360.058594 0.015625)"/>
    <use xlink:href="#DejaVuSans-6d" transform="translate(421.337891 0.015625)"/>
    <use xlink:href="#DejaVuSans-6d" transform="translate(518.75 0.015625)"/>
    <use xlink:href="#DejaVuSans-65" transform="translate(616.162109 0.015625)"/>
    <use xlink:href="#DejaVuSans-20" transform="translate(677.685547 0.015625)"/>
    <use xlink:href="#DejaVuSans-64" transform="translate(709.472656 0.015625)"/>
    <use xlink:href="#DejaVuSans-65" transform="translate(772.949219 0.015625)"/>
    <use xlink:href="#DejaVuSans-73" transform="translate(834.472656 0.015625)"/>
    <use xlink:href="#DejaVuSans-20" transform="translate(886.572266 0.015625)"/>
    <use xlink:href="#DejaVuSans-Oblique-3bd" transform="translate(918.359375 0.015625)"/>
   </g>
  </g>
  <g id="text_28">
   <!-- Masse (GeV) -->
   <g transform="translate(184.474219 302.4)scale(0.1 -0.1)">
    <defs>
     <path id="DejaVuSans-4d" d="M 628 4666 
L 1569 4666 
L 2759 1491 
L 3956 4666 
L 4897 4666 
L 4897 0 
L 4281 0 
L 4281 4097 
L 3078 897 
L 2444 897 
L 1241 4097 
L 1241 0 
L 628 0 
L 628 4666 
z
" transform="scale(0.015625)"/>
     <path id="DejaVuSans-28" d="M 1984 4856 
Q 1566 4138 1362 3434 
Q 1159 2731 1159 2009 
Q 1159 1288 1364 580 
Q 1569 -128 1984 -844 
L 1484 -844 
Q 1016 -109 783 600 
Q 550 1309 550 2009 
Q 550 2706 781 3412 
Q 1013 4119 1484 4856 
L 1984 4856 
z
" transform="scale(0.015625)"/>
     <path id="DejaVuSans-47" d="M 3809 666 
L 3809 1919 
L 2778 1919 
L 2778 2438 
L 4434 2438 
L 4434 434 
Q 4069 175 3628 42 
Q 3188 -91 2688 -91 
Q 1594 -91 976 548 
Q 359 1188 359 2328 
Q 359 3472 976 4111 
Q 1594 4750 2688 4750 
Q 3144 4750 3555 4637 
Q 3966 4525 4313 4306 
L 4313 3634 
Q 3963 3931 3569 4081 
Q 3175 4231 2741 4231 
Q 1884 4231 1454 3753 
Q 1025 3275 1025 2328 
Q 1025 1384 1454 906 
Q 1884 428 2741 428 
Q 3075 428 3337 486 
Q 3600 544 3809 666 
z
" transform="scale(0.015625)"/>
     <path id="DejaVuSans-56" d="M 1831 0 
L 50 4666 
L 709 4666 
L 2188 738 
L 3669 4666 
L 4325 4666 
L 2547 0 
L 1831 0 
z
" transform="scale(0.015625)"/>
     <path id="DejaVuSans-29" d="M 513 4856 
L 1013 4856 
Q 1481 4119 1714 3412 
Q 1947 2706 1947 2009 
Q 1947 1309 1714 600 
Q 1481 -109 1013 -844 
L 513 -844 
Q 928 -128 1133 580 
Q 1338 1288 1338 2009 
Q 1338 2731 1133 3434 
Q 928 4138 513 4856 
z
" transform="scale(0.015625)"/>
    </defs>
    <use xlink:href="#DejaVuSans-4d"/>
    <use xlink:href="#DejaVuSans-61" x="86.279297"/>
    <use xlink:href="#DejaVuSans-73" x="147.558594"/>
    <use xlink:href="#DejaVuSans-73" x="199.658203"/>
    <use xlink:href="#DejaVuSans-65" x="251.757812"/>
    <use xlink:href="#DejaVuSans-20" x="313.28125"/>
    <use xlink:href="#DejaVuSans-28" x="345.068359"/>
    <use xlink:href="#DejaVuSans-47" x="384.082031"/>
    <use xlink:href="#DejaVuSans-65" x="461.572266"/>
    <use xlink:href="#DejaVuSans-56" x="523.095703"/>
    <use xlink:href="#DejaVuSans-29" x="591.503906"/>
   </g>
  </g>
  <g id="text_29">
   <!-- N -->
   <g transform="translate(-9.681563 147.740625)rotate(-90)scale(0.1 -0.1)">
    <defs>
     <path id="DejaVuSans-4e" d="M 628 4666 
L 1478 4666 
L 3547 763 
L 3547 4666 
L 4159 4666 
L 4159 0 
L 3309 0 
L 1241 3903 
L 1241 0 
L 628 0 
L 628 4666 
z
" transform="scale(0.015625)"/>
    </defs>
    <use xlink:href="#DejaVuSans-4e"/>
   </g>
  </g>
 </g>
 <defs>
  <clipPath id="p9551e692b9">
   <rect x="29.08774" y="35.758845" width="399.91202" height="52.32311"/>
  </clipPath>
  <clipPath id="p40616ed312">
   <rect x="29.08774" y="125.878685" width="399.91202" height="52.32311"/>
  </clipPath>
  <clipPath id="pff9dae9abe">
   <rect x="29.08774" y="215.998525" width="399.91202" height="52.32311"/>
  </clipPath>
 </defs>
</svg>
