<?xml version="1.0" encoding="utf-8" standalone="no"?>
<!DOCTYPE svg PUBLIC "-//W3C//DTD SVG 1.1//EN"
  "http://www.w3.org/Graphics/SVG/1.1/DTD/svg11.dtd">
<svg xmlns:xlink="http://www.w3.org/1999/xlink" width="432pt" height="288pt" viewBox="0 0 432 288" xmlns="http://www.w3.org/2000/svg" version="1.1">
 <metadata>
  <rdf:RDF xmlns:dc="http://purl.org/dc/elements/1.1/" xmlns:cc="http://creativecommons.org/ns#" xmlns:rdf="http://www.w3.org/1999/02/22-rdf-syntax-ns#">
   <cc:Work>
    <dc:type rdf:resource="http://purl.org/dc/dcmitype/StillImage"/>
    <dc:date>2022-06-15T17:39:26.074373</dc:date>
    <dc:format>image/svg+xml</dc:format>
    <dc:creator>
     <cc:Agent>
      <dc:title>Matplotlib v3.5.0, https://matplotlib.org/</dc:title>
     </cc:Agent>
    </dc:creator>
   </cc:Work>
  </rdf:RDF>
 </metadata>
 <defs>
  <style type="text/css">*{stroke-linejoin: round; stroke-linecap: butt}</style>
 </defs>
 <g id="figure_1">
  <g id="patch_1">
   <path d="M 0 288 
L 432 288 
L 432 0 
L 0 0 
L 0 288 
z
" style="fill: none"/>
  </g>
  <g id="axes_1">
   <g id="patch_2">
    <path d="M 35.45024 133.12875 
L 428.99976 133.12875 
L 428.99976 39.57447 
L 35.45024 39.57447 
z
" style="fill: #ffffff"/>
   </g>
   <g id="patch_3">
    <path d="M 53.338855 133.12875 
L 56.916577 133.12875 
L 56.916577 92.443811 
L 53.338855 92.443811 
z
" clip-path="url(#p5b9af193eb)" style="fill: #1f77b4"/>
   </g>
   <g id="patch_4">
    <path d="M 56.916577 133.12875 
L 60.4943 133.12875 
L 60.4943 54.288505 
L 56.916577 54.288505 
z
" clip-path="url(#p5b9af193eb)" style="fill: #1f77b4"/>
   </g>
   <g id="patch_5">
    <path d="M 60.4943 133.12875 
L 64.072023 133.12875 
L 64.072023 47.613083 
L 60.4943 47.613083 
z
" clip-path="url(#p5b9af193eb)" style="fill: #1f77b4"/>
   </g>
   <g id="patch_6">
    <path d="M 64.072023 133.12875 
L 67.649746 133.12875 
L 67.649746 44.029436 
L 64.072023 44.029436 
z
" clip-path="url(#p5b9af193eb)" style="fill: #1f77b4"/>
   </g>
   <g id="patch_7">
    <path d="M 67.649746 133.12875 
L 71.227469 133.12875 
L 71.227469 52.039942 
L 67.649746 52.039942 
z
" clip-path="url(#p5b9af193eb)" style="fill: #1f77b4"/>
   </g>
   <g id="patch_8">
    <path d="M 71.227469 133.12875 
L 74.805192 133.12875 
L 74.805192 52.602083 
L 71.227469 52.602083 
z
" clip-path="url(#p5b9af193eb)" style="fill: #1f77b4"/>
   </g>
   <g id="patch_9">
    <path d="M 74.805192 133.12875 
L 78.382915 133.12875 
L 78.382915 58.082955 
L 74.805192 58.082955 
z
" clip-path="url(#p5b9af193eb)" style="fill: #1f77b4"/>
   </g>
   <g id="patch_10">
    <path d="M 78.382915 133.12875 
L 81.960638 133.12875 
L 81.960638 62.299011 
L 78.382915 62.299011 
z
" clip-path="url(#p5b9af193eb)" style="fill: #1f77b4"/>
   </g>
   <g id="patch_11">
    <path d="M 81.960638 133.12875 
L 85.538361 133.12875 
L 85.538361 65.25025 
L 81.960638 65.25025 
z
" clip-path="url(#p5b9af193eb)" style="fill: #1f77b4"/>
   </g>
   <g id="patch_12">
    <path d="M 85.538361 133.12875 
L 89.116084 133.12875 
L 89.116084 63.844898 
L 85.538361 63.844898 
z
" clip-path="url(#p5b9af193eb)" style="fill: #1f77b4"/>
   </g>
   <g id="patch_13">
    <path d="M 89.116084 133.12875 
L 92.693807 133.12875 
L 92.693807 65.601588 
L 89.116084 65.601588 
z
" clip-path="url(#p5b9af193eb)" style="fill: #1f77b4"/>
   </g>
   <g id="patch_14">
    <path d="M 92.693807 133.12875 
L 96.271529 133.12875 
L 96.271529 74.244503 
L 92.693807 74.244503 
z
" clip-path="url(#p5b9af193eb)" style="fill: #1f77b4"/>
   </g>
   <g id="patch_15">
    <path d="M 96.271529 133.12875 
L 99.849252 133.12875 
L 99.849252 76.282263 
L 96.271529 76.282263 
z
" clip-path="url(#p5b9af193eb)" style="fill: #1f77b4"/>
   </g>
   <g id="patch_16">
    <path d="M 99.849252 133.12875 
L 103.426975 133.12875 
L 103.426975 80.287516 
L 99.849252 80.287516 
z
" clip-path="url(#p5b9af193eb)" style="fill: #1f77b4"/>
   </g>
   <g id="patch_17">
    <path d="M 103.426975 133.12875 
L 107.004698 133.12875 
L 107.004698 85.206248 
L 103.426975 85.206248 
z
" clip-path="url(#p5b9af193eb)" style="fill: #1f77b4"/>
   </g>
   <g id="patch_18">
    <path d="M 107.004698 133.12875 
L 110.582421 133.12875 
L 110.582421 91.108726 
L 107.004698 91.108726 
z
" clip-path="url(#p5b9af193eb)" style="fill: #1f77b4"/>
   </g>
   <g id="patch_19">
    <path d="M 110.582421 133.12875 
L 114.160144 133.12875 
L 114.160144 93.076219 
L 110.582421 93.076219 
z
" clip-path="url(#p5b9af193eb)" style="fill: #1f77b4"/>
   </g>
   <g id="patch_20">
    <path d="M 114.160144 133.12875 
L 117.737867 133.12875 
L 117.737867 97.292275 
L 114.160144 97.292275 
z
" clip-path="url(#p5b9af193eb)" style="fill: #1f77b4"/>
   </g>
   <g id="patch_21">
    <path d="M 117.737867 133.12875 
L 121.31559 133.12875 
L 121.31559 96.378796 
L 117.737867 96.378796 
z
" clip-path="url(#p5b9af193eb)" style="fill: #1f77b4"/>
   </g>
   <g id="patch_22">
    <path d="M 121.31559 133.12875 
L 124.893313 133.12875 
L 124.893313 102.211007 
L 121.31559 102.211007 
z
" clip-path="url(#p5b9af193eb)" style="fill: #1f77b4"/>
   </g>
   <g id="patch_23">
    <path d="M 124.893313 133.12875 
L 128.471036 133.12875 
L 128.471036 106.427063 
L 124.893313 106.427063 
z
" clip-path="url(#p5b9af193eb)" style="fill: #1f77b4"/>
   </g>
   <g id="patch_24">
    <path d="M 128.471036 133.12875 
L 132.048759 133.12875 
L 132.048759 105.583852 
L 128.471036 105.583852 
z
" clip-path="url(#p5b9af193eb)" style="fill: #1f77b4"/>
   </g>
   <g id="patch_25">
    <path d="M 132.048759 133.12875 
L 135.626481 133.12875 
L 135.626481 108.675626 
L 132.048759 108.675626 
z
" clip-path="url(#p5b9af193eb)" style="fill: #1f77b4"/>
   </g>
   <g id="patch_26">
    <path d="M 135.626481 133.12875 
L 139.204204 133.12875 
L 139.204204 112.540344 
L 135.626481 112.540344 
z
" clip-path="url(#p5b9af193eb)" style="fill: #1f77b4"/>
   </g>
   <g id="patch_27">
    <path d="M 139.204204 133.12875 
L 142.781927 133.12875 
L 142.781927 112.751147 
L 139.204204 112.751147 
z
" clip-path="url(#p5b9af193eb)" style="fill: #1f77b4"/>
   </g>
   <g id="patch_28">
    <path d="M 142.781927 133.12875 
L 146.35965 133.12875 
L 146.35965 116.334794 
L 142.781927 116.334794 
z
" clip-path="url(#p5b9af193eb)" style="fill: #1f77b4"/>
   </g>
   <g id="patch_29">
    <path d="M 146.35965 133.12875 
L 149.937373 133.12875 
L 149.937373 114.437569 
L 146.35965 114.437569 
z
" clip-path="url(#p5b9af193eb)" style="fill: #1f77b4"/>
   </g>
   <g id="patch_30">
    <path d="M 149.937373 133.12875 
L 153.515096 133.12875 
L 153.515096 118.161752 
L 149.937373 118.161752 
z
" clip-path="url(#p5b9af193eb)" style="fill: #1f77b4"/>
   </g>
   <g id="patch_31">
    <path d="M 153.515096 133.12875 
L 157.092819 133.12875 
L 157.092819 118.934695 
L 153.515096 118.934695 
z
" clip-path="url(#p5b9af193eb)" style="fill: #1f77b4"/>
   </g>
   <g id="patch_32">
    <path d="M 157.092819 133.12875 
L 160.670542 133.12875 
L 160.670542 119.637371 
L 157.092819 119.637371 
z
" clip-path="url(#p5b9af193eb)" style="fill: #1f77b4"/>
   </g>
   <g id="patch_33">
    <path d="M 160.670542 133.12875 
L 164.248265 133.12875 
L 164.248265 121.885934 
L 160.670542 121.885934 
z
" clip-path="url(#p5b9af193eb)" style="fill: #1f77b4"/>
   </g>
   <g id="patch_34">
    <path d="M 164.248265 133.12875 
L 167.825988 133.12875 
L 167.825988 121.253526 
L 164.248265 121.253526 
z
" clip-path="url(#p5b9af193eb)" style="fill: #1f77b4"/>
   </g>
   <g id="patch_35">
    <path d="M 167.825988 133.12875 
L 171.403711 133.12875 
L 171.403711 121.815667 
L 167.825988 121.815667 
z
" clip-path="url(#p5b9af193eb)" style="fill: #1f77b4"/>
   </g>
   <g id="patch_36">
    <path d="M 171.403711 133.12875 
L 174.981433 133.12875 
L 174.981433 122.237272 
L 171.403711 122.237272 
z
" clip-path="url(#p5b9af193eb)" style="fill: #1f77b4"/>
   </g>
   <g id="patch_37">
    <path d="M 174.981433 133.12875 
L 178.559156 133.12875 
L 178.559156 122.237272 
L 174.981433 122.237272 
z
" clip-path="url(#p5b9af193eb)" style="fill: #1f77b4"/>
   </g>
   <g id="patch_38">
    <path d="M 178.559156 133.12875 
L 182.136879 133.12875 
L 182.136879 121.675132 
L 178.559156 121.675132 
z
" clip-path="url(#p5b9af193eb)" style="fill: #1f77b4"/>
   </g>
   <g id="patch_39">
    <path d="M 182.136879 133.12875 
L 185.714602 133.12875 
L 185.714602 120.621118 
L 182.136879 120.621118 
z
" clip-path="url(#p5b9af193eb)" style="fill: #1f77b4"/>
   </g>
   <g id="patch_40">
    <path d="M 185.714602 133.12875 
L 189.292325 133.12875 
L 189.292325 123.783159 
L 185.714602 123.783159 
z
" clip-path="url(#p5b9af193eb)" style="fill: #1f77b4"/>
   </g>
   <g id="patch_41">
    <path d="M 189.292325 133.12875 
L 192.870048 133.12875 
L 192.870048 124.485835 
L 189.292325 124.485835 
z
" clip-path="url(#p5b9af193eb)" style="fill: #1f77b4"/>
   </g>
   <g id="patch_42">
    <path d="M 192.870048 133.12875 
L 196.447771 133.12875 
L 196.447771 122.448075 
L 192.870048 122.448075 
z
" clip-path="url(#p5b9af193eb)" style="fill: #1f77b4"/>
   </g>
   <g id="patch_43">
    <path d="M 196.447771 133.12875 
L 200.025494 133.12875 
L 200.025494 123.431821 
L 196.447771 123.431821 
z
" clip-path="url(#p5b9af193eb)" style="fill: #1f77b4"/>
   </g>
   <g id="patch_44">
    <path d="M 200.025494 133.12875 
L 203.603217 133.12875 
L 203.603217 123.923695 
L 200.025494 123.923695 
z
" clip-path="url(#p5b9af193eb)" style="fill: #1f77b4"/>
   </g>
   <g id="patch_45">
    <path d="M 203.603217 133.12875 
L 207.18094 133.12875 
L 207.18094 123.221019 
L 203.603217 123.221019 
z
" clip-path="url(#p5b9af193eb)" style="fill: #1f77b4"/>
   </g>
   <g id="patch_46">
    <path d="M 207.18094 133.12875 
L 210.758663 133.12875 
L 210.758663 123.642624 
L 207.18094 123.642624 
z
" clip-path="url(#p5b9af193eb)" style="fill: #1f77b4"/>
   </g>
   <g id="patch_47">
    <path d="M 210.758663 133.12875 
L 214.336385 133.12875 
L 214.336385 122.729145 
L 210.758663 122.729145 
z
" clip-path="url(#p5b9af193eb)" style="fill: #1f77b4"/>
   </g>
   <g id="patch_48">
    <path d="M 214.336385 133.12875 
L 217.914108 133.12875 
L 217.914108 124.3453 
L 214.336385 124.3453 
z
" clip-path="url(#p5b9af193eb)" style="fill: #1f77b4"/>
   </g>
   <g id="patch_49">
    <path d="M 217.914108 133.12875 
L 221.491831 133.12875 
L 221.491831 123.783159 
L 217.914108 123.783159 
z
" clip-path="url(#p5b9af193eb)" style="fill: #1f77b4"/>
   </g>
   <g id="patch_50">
    <path d="M 221.491831 133.12875 
L 225.069554 133.12875 
L 225.069554 124.766906 
L 221.491831 124.766906 
z
" clip-path="url(#p5b9af193eb)" style="fill: #1f77b4"/>
   </g>
   <g id="patch_51">
    <path d="M 225.069554 133.12875 
L 228.647277 133.12875 
L 228.647277 123.221019 
L 225.069554 123.221019 
z
" clip-path="url(#p5b9af193eb)" style="fill: #1f77b4"/>
   </g>
   <g id="patch_52">
    <path d="M 228.647277 133.12875 
L 232.225 133.12875 
L 232.225 125.610117 
L 228.647277 125.610117 
z
" clip-path="url(#p5b9af193eb)" style="fill: #1f77b4"/>
   </g>
   <g id="patch_53">
    <path d="M 232.225 133.12875 
L 235.802723 133.12875 
L 235.802723 125.680385 
L 232.225 125.680385 
z
" clip-path="url(#p5b9af193eb)" style="fill: #1f77b4"/>
   </g>
   <g id="patch_54">
    <path d="M 235.802723 133.12875 
L 239.380446 133.12875 
L 239.380446 123.712892 
L 235.802723 123.712892 
z
" clip-path="url(#p5b9af193eb)" style="fill: #1f77b4"/>
   </g>
   <g id="patch_55">
    <path d="M 239.380446 133.12875 
L 242.958169 133.12875 
L 242.958169 124.907441 
L 239.380446 124.907441 
z
" clip-path="url(#p5b9af193eb)" style="fill: #1f77b4"/>
   </g>
   <g id="patch_56">
    <path d="M 242.958169 133.12875 
L 246.535892 133.12875 
L 246.535892 125.610117 
L 242.958169 125.610117 
z
" clip-path="url(#p5b9af193eb)" style="fill: #1f77b4"/>
   </g>
   <g id="patch_57">
    <path d="M 246.535892 133.12875 
L 250.113615 133.12875 
L 250.113615 125.539849 
L 246.535892 125.539849 
z
" clip-path="url(#p5b9af193eb)" style="fill: #1f77b4"/>
   </g>
   <g id="patch_58">
    <path d="M 250.113615 133.12875 
L 253.691337 133.12875 
L 253.691337 126.172258 
L 250.113615 126.172258 
z
" clip-path="url(#p5b9af193eb)" style="fill: #1f77b4"/>
   </g>
   <g id="patch_59">
    <path d="M 253.691337 133.12875 
L 257.26906 133.12875 
L 257.26906 126.10199 
L 253.691337 126.10199 
z
" clip-path="url(#p5b9af193eb)" style="fill: #1f77b4"/>
   </g>
   <g id="patch_60">
    <path d="M 257.26906 133.12875 
L 260.846783 133.12875 
L 260.846783 126.312793 
L 257.26906 126.312793 
z
" clip-path="url(#p5b9af193eb)" style="fill: #1f77b4"/>
   </g>
   <g id="patch_61">
    <path d="M 260.846783 133.12875 
L 264.424506 133.12875 
L 264.424506 126.242525 
L 260.846783 126.242525 
z
" clip-path="url(#p5b9af193eb)" style="fill: #1f77b4"/>
   </g>
   <g id="patch_62">
    <path d="M 264.424506 133.12875 
L 268.002229 133.12875 
L 268.002229 126.312793 
L 264.424506 126.312793 
z
" clip-path="url(#p5b9af193eb)" style="fill: #1f77b4"/>
   </g>
   <g id="patch_63">
    <path d="M 268.002229 133.12875 
L 271.579952 133.12875 
L 271.579952 127.928948 
L 268.002229 127.928948 
z
" clip-path="url(#p5b9af193eb)" style="fill: #1f77b4"/>
   </g>
   <g id="patch_64">
    <path d="M 271.579952 133.12875 
L 275.157675 133.12875 
L 275.157675 124.485835 
L 271.579952 124.485835 
z
" clip-path="url(#p5b9af193eb)" style="fill: #1f77b4"/>
   </g>
   <g id="patch_65">
    <path d="M 275.157675 133.12875 
L 278.735398 133.12875 
L 278.735398 127.156004 
L 275.157675 127.156004 
z
" clip-path="url(#p5b9af193eb)" style="fill: #1f77b4"/>
   </g>
   <g id="patch_66">
    <path d="M 278.735398 133.12875 
L 282.313121 133.12875 
L 282.313121 126.945201 
L 278.735398 126.945201 
z
" clip-path="url(#p5b9af193eb)" style="fill: #1f77b4"/>
   </g>
   <g id="patch_67">
    <path d="M 282.313121 133.12875 
L 285.890844 133.12875 
L 285.890844 127.57761 
L 282.313121 127.57761 
z
" clip-path="url(#p5b9af193eb)" style="fill: #1f77b4"/>
   </g>
   <g id="patch_68">
    <path d="M 285.890844 133.12875 
L 289.468567 133.12875 
L 289.468567 127.226272 
L 285.890844 127.226272 
z
" clip-path="url(#p5b9af193eb)" style="fill: #1f77b4"/>
   </g>
   <g id="patch_69">
    <path d="M 289.468567 133.12875 
L 293.046289 133.12875 
L 293.046289 127.015469 
L 289.468567 127.015469 
z
" clip-path="url(#p5b9af193eb)" style="fill: #1f77b4"/>
   </g>
   <g id="patch_70">
    <path d="M 293.046289 133.12875 
L 296.624012 133.12875 
L 296.624012 128.701891 
L 293.046289 128.701891 
z
" clip-path="url(#p5b9af193eb)" style="fill: #1f77b4"/>
   </g>
   <g id="patch_71">
    <path d="M 296.624012 133.12875 
L 300.201735 133.12875 
L 300.201735 127.718145 
L 296.624012 127.718145 
z
" clip-path="url(#p5b9af193eb)" style="fill: #1f77b4"/>
   </g>
   <g id="patch_72">
    <path d="M 300.201735 133.12875 
L 303.779458 133.12875 
L 303.779458 126.874934 
L 300.201735 126.874934 
z
" clip-path="url(#p5b9af193eb)" style="fill: #1f77b4"/>
   </g>
   <g id="patch_73">
    <path d="M 303.779458 133.12875 
L 307.357181 133.12875 
L 307.357181 128.280286 
L 303.779458 128.280286 
z
" clip-path="url(#p5b9af193eb)" style="fill: #1f77b4"/>
   </g>
   <g id="patch_74">
    <path d="M 307.357181 133.12875 
L 310.934904 133.12875 
L 310.934904 127.507342 
L 307.357181 127.507342 
z
" clip-path="url(#p5b9af193eb)" style="fill: #1f77b4"/>
   </g>
   <g id="patch_75">
    <path d="M 310.934904 133.12875 
L 314.512627 133.12875 
L 314.512627 128.491089 
L 310.934904 128.491089 
z
" clip-path="url(#p5b9af193eb)" style="fill: #1f77b4"/>
   </g>
   <g id="patch_76">
    <path d="M 314.512627 133.12875 
L 318.09035 133.12875 
L 318.09035 128.139751 
L 314.512627 128.139751 
z
" clip-path="url(#p5b9af193eb)" style="fill: #1f77b4"/>
   </g>
   <g id="patch_77">
    <path d="M 318.09035 133.12875 
L 321.668073 133.12875 
L 321.668073 129.193765 
L 318.09035 129.193765 
z
" clip-path="url(#p5b9af193eb)" style="fill: #1f77b4"/>
   </g>
   <g id="patch_78">
    <path d="M 321.668073 133.12875 
L 325.245796 133.12875 
L 325.245796 128.139751 
L 321.668073 128.139751 
z
" clip-path="url(#p5b9af193eb)" style="fill: #1f77b4"/>
   </g>
   <g id="patch_79">
    <path d="M 325.245796 133.12875 
L 328.823519 133.12875 
L 328.823519 128.280286 
L 325.245796 128.280286 
z
" clip-path="url(#p5b9af193eb)" style="fill: #1f77b4"/>
   </g>
   <g id="patch_80">
    <path d="M 328.823519 133.12875 
L 332.401241 133.12875 
L 332.401241 129.61537 
L 328.823519 129.61537 
z
" clip-path="url(#p5b9af193eb)" style="fill: #1f77b4"/>
   </g>
   <g id="patch_81">
    <path d="M 332.401241 133.12875 
L 335.978964 133.12875 
L 335.978964 129.3343 
L 332.401241 129.3343 
z
" clip-path="url(#p5b9af193eb)" style="fill: #1f77b4"/>
   </g>
   <g id="patch_82">
    <path d="M 335.978964 133.12875 
L 339.556687 133.12875 
L 339.556687 128.491089 
L 335.978964 128.491089 
z
" clip-path="url(#p5b9af193eb)" style="fill: #1f77b4"/>
   </g>
   <g id="patch_83">
    <path d="M 339.556687 133.12875 
L 343.13441 133.12875 
L 343.13441 129.404567 
L 339.556687 129.404567 
z
" clip-path="url(#p5b9af193eb)" style="fill: #1f77b4"/>
   </g>
   <g id="patch_84">
    <path d="M 343.13441 133.12875 
L 346.712133 133.12875 
L 346.712133 128.842427 
L 343.13441 128.842427 
z
" clip-path="url(#p5b9af193eb)" style="fill: #1f77b4"/>
   </g>
   <g id="patch_85">
    <path d="M 346.712133 133.12875 
L 350.289856 133.12875 
L 350.289856 128.420821 
L 346.712133 128.420821 
z
" clip-path="url(#p5b9af193eb)" style="fill: #1f77b4"/>
   </g>
   <g id="patch_86">
    <path d="M 350.289856 133.12875 
L 353.867579 133.12875 
L 353.867579 130.247778 
L 350.289856 130.247778 
z
" clip-path="url(#p5b9af193eb)" style="fill: #1f77b4"/>
   </g>
   <g id="patch_87">
    <path d="M 353.867579 133.12875 
L 357.445302 133.12875 
L 357.445302 130.318046 
L 353.867579 130.318046 
z
" clip-path="url(#p5b9af193eb)" style="fill: #1f77b4"/>
   </g>
   <g id="patch_88">
    <path d="M 357.445302 133.12875 
L 361.023025 133.12875 
L 361.023025 129.474835 
L 357.445302 129.474835 
z
" clip-path="url(#p5b9af193eb)" style="fill: #1f77b4"/>
   </g>
   <g id="patch_89">
    <path d="M 361.023025 133.12875 
L 364.600748 133.12875 
L 364.600748 130.458581 
L 361.023025 130.458581 
z
" clip-path="url(#p5b9af193eb)" style="fill: #1f77b4"/>
   </g>
   <g id="patch_90">
    <path d="M 364.600748 133.12875 
L 368.178471 133.12875 
L 368.178471 130.107243 
L 364.600748 130.107243 
z
" clip-path="url(#p5b9af193eb)" style="fill: #1f77b4"/>
   </g>
   <g id="patch_91">
    <path d="M 368.178471 133.12875 
L 371.756193 133.12875 
L 371.756193 130.388314 
L 368.178471 130.388314 
z
" clip-path="url(#p5b9af193eb)" style="fill: #1f77b4"/>
   </g>
   <g id="patch_92">
    <path d="M 371.756193 133.12875 
L 375.333916 133.12875 
L 375.333916 130.669384 
L 371.756193 130.669384 
z
" clip-path="url(#p5b9af193eb)" style="fill: #1f77b4"/>
   </g>
   <g id="patch_93">
    <path d="M 375.333916 133.12875 
L 378.911639 133.12875 
L 378.911639 130.739652 
L 375.333916 130.739652 
z
" clip-path="url(#p5b9af193eb)" style="fill: #1f77b4"/>
   </g>
   <g id="patch_94">
    <path d="M 378.911639 133.12875 
L 382.489362 133.12875 
L 382.489362 130.247778 
L 378.911639 130.247778 
z
" clip-path="url(#p5b9af193eb)" style="fill: #1f77b4"/>
   </g>
   <g id="patch_95">
    <path d="M 382.489362 133.12875 
L 386.067085 133.12875 
L 386.067085 130.739652 
L 382.489362 130.739652 
z
" clip-path="url(#p5b9af193eb)" style="fill: #1f77b4"/>
   </g>
   <g id="patch_96">
    <path d="M 386.067085 133.12875 
L 389.644808 133.12875 
L 389.644808 129.966708 
L 386.067085 129.966708 
z
" clip-path="url(#p5b9af193eb)" style="fill: #1f77b4"/>
   </g>
   <g id="patch_97">
    <path d="M 389.644808 133.12875 
L 393.222531 133.12875 
L 393.222531 130.599116 
L 389.644808 130.599116 
z
" clip-path="url(#p5b9af193eb)" style="fill: #1f77b4"/>
   </g>
   <g id="patch_98">
    <path d="M 393.222531 133.12875 
L 396.800254 133.12875 
L 396.800254 130.669384 
L 393.222531 130.669384 
z
" clip-path="url(#p5b9af193eb)" style="fill: #1f77b4"/>
   </g>
   <g id="patch_99">
    <path d="M 396.800254 133.12875 
L 400.377977 133.12875 
L 400.377977 131.020722 
L 396.800254 131.020722 
z
" clip-path="url(#p5b9af193eb)" style="fill: #1f77b4"/>
   </g>
   <g id="patch_100">
    <path d="M 400.377977 133.12875 
L 403.9557 133.12875 
L 403.9557 131.020722 
L 400.377977 131.020722 
z
" clip-path="url(#p5b9af193eb)" style="fill: #1f77b4"/>
   </g>
   <g id="patch_101">
    <path d="M 403.9557 133.12875 
L 407.533423 133.12875 
L 407.533423 131.793666 
L 403.9557 131.793666 
z
" clip-path="url(#p5b9af193eb)" style="fill: #1f77b4"/>
   </g>
   <g id="patch_102">
    <path d="M 407.533423 133.12875 
L 411.111145 133.12875 
L 411.111145 132.215271 
L 407.533423 132.215271 
z
" clip-path="url(#p5b9af193eb)" style="fill: #1f77b4"/>
   </g>
   <g id="matplotlib.axis_1">
    <g id="xtick_1">
     <g id="line2d_1">
      <defs>
       <path id="m23cf1a6286" d="M 0 0 
L 0 3.5 
" style="stroke: #000000; stroke-width: 0.8"/>
      </defs>
      <g>
       <use xlink:href="#m23cf1a6286" x="53.336396" y="133.12875" style="stroke: #000000; stroke-width: 0.8"/>
      </g>
     </g>
     <g id="text_1">
      <!-- 0 -->
      <g transform="translate(50.155146 147.727187)scale(0.1 -0.1)">
       <defs>
        <path id="DejaVuSans-30" d="M 2034 4250 
Q 1547 4250 1301 3770 
Q 1056 3291 1056 2328 
Q 1056 1369 1301 889 
Q 1547 409 2034 409 
Q 2525 409 2770 889 
Q 3016 1369 3016 2328 
Q 3016 3291 2770 3770 
Q 2525 4250 2034 4250 
z
M 2034 4750 
Q 2819 4750 3233 4129 
Q 3647 3509 3647 2328 
Q 3647 1150 3233 529 
Q 2819 -91 2034 -91 
Q 1250 -91 836 529 
Q 422 1150 422 2328 
Q 422 3509 836 4129 
Q 1250 4750 2034 4750 
z
" transform="scale(0.015625)"/>
       </defs>
       <use xlink:href="#DejaVuSans-30"/>
      </g>
     </g>
    </g>
    <g id="xtick_2">
     <g id="line2d_2">
      <g>
       <use xlink:href="#m23cf1a6286" x="125.562833" y="133.12875" style="stroke: #000000; stroke-width: 0.8"/>
      </g>
     </g>
     <g id="text_2">
      <!-- 1000 -->
      <g transform="translate(112.837833 147.727187)scale(0.1 -0.1)">
       <defs>
        <path id="DejaVuSans-31" d="M 794 531 
L 1825 531 
L 1825 4091 
L 703 3866 
L 703 4441 
L 1819 4666 
L 2450 4666 
L 2450 531 
L 3481 531 
L 3481 0 
L 794 0 
L 794 531 
z
" transform="scale(0.015625)"/>
       </defs>
       <use xlink:href="#DejaVuSans-31"/>
       <use xlink:href="#DejaVuSans-30" x="63.623047"/>
       <use xlink:href="#DejaVuSans-30" x="127.246094"/>
       <use xlink:href="#DejaVuSans-30" x="190.869141"/>
      </g>
     </g>
    </g>
    <g id="xtick_3">
     <g id="line2d_3">
      <g>
       <use xlink:href="#m23cf1a6286" x="197.789271" y="133.12875" style="stroke: #000000; stroke-width: 0.8"/>
      </g>
     </g>
     <g id="text_3">
      <!-- 2000 -->
      <g transform="translate(185.064271 147.727187)scale(0.1 -0.1)">
       <defs>
        <path id="DejaVuSans-32" d="M 1228 531 
L 3431 531 
L 3431 0 
L 469 0 
L 469 531 
Q 828 903 1448 1529 
Q 2069 2156 2228 2338 
Q 2531 2678 2651 2914 
Q 2772 3150 2772 3378 
Q 2772 3750 2511 3984 
Q 2250 4219 1831 4219 
Q 1534 4219 1204 4116 
Q 875 4013 500 3803 
L 500 4441 
Q 881 4594 1212 4672 
Q 1544 4750 1819 4750 
Q 2544 4750 2975 4387 
Q 3406 4025 3406 3419 
Q 3406 3131 3298 2873 
Q 3191 2616 2906 2266 
Q 2828 2175 2409 1742 
Q 1991 1309 1228 531 
z
" transform="scale(0.015625)"/>
       </defs>
       <use xlink:href="#DejaVuSans-32"/>
       <use xlink:href="#DejaVuSans-30" x="63.623047"/>
       <use xlink:href="#DejaVuSans-30" x="127.246094"/>
       <use xlink:href="#DejaVuSans-30" x="190.869141"/>
      </g>
     </g>
    </g>
    <g id="xtick_4">
     <g id="line2d_4">
      <g>
       <use xlink:href="#m23cf1a6286" x="270.015709" y="133.12875" style="stroke: #000000; stroke-width: 0.8"/>
      </g>
     </g>
     <g id="text_4">
      <!-- 3000 -->
      <g transform="translate(257.290709 147.727187)scale(0.1 -0.1)">
       <defs>
        <path id="DejaVuSans-33" d="M 2597 2516 
Q 3050 2419 3304 2112 
Q 3559 1806 3559 1356 
Q 3559 666 3084 287 
Q 2609 -91 1734 -91 
Q 1441 -91 1130 -33 
Q 819 25 488 141 
L 488 750 
Q 750 597 1062 519 
Q 1375 441 1716 441 
Q 2309 441 2620 675 
Q 2931 909 2931 1356 
Q 2931 1769 2642 2001 
Q 2353 2234 1838 2234 
L 1294 2234 
L 1294 2753 
L 1863 2753 
Q 2328 2753 2575 2939 
Q 2822 3125 2822 3475 
Q 2822 3834 2567 4026 
Q 2313 4219 1838 4219 
Q 1578 4219 1281 4162 
Q 984 4106 628 3988 
L 628 4550 
Q 988 4650 1302 4700 
Q 1616 4750 1894 4750 
Q 2613 4750 3031 4423 
Q 3450 4097 3450 3541 
Q 3450 3153 3228 2886 
Q 3006 2619 2597 2516 
z
" transform="scale(0.015625)"/>
       </defs>
       <use xlink:href="#DejaVuSans-33"/>
       <use xlink:href="#DejaVuSans-30" x="63.623047"/>
       <use xlink:href="#DejaVuSans-30" x="127.246094"/>
       <use xlink:href="#DejaVuSans-30" x="190.869141"/>
      </g>
     </g>
    </g>
    <g id="xtick_5">
     <g id="line2d_5">
      <g>
       <use xlink:href="#m23cf1a6286" x="342.242147" y="133.12875" style="stroke: #000000; stroke-width: 0.8"/>
      </g>
     </g>
     <g id="text_5">
      <!-- 4000 -->
      <g transform="translate(329.517147 147.727187)scale(0.1 -0.1)">
       <defs>
        <path id="DejaVuSans-34" d="M 2419 4116 
L 825 1625 
L 2419 1625 
L 2419 4116 
z
M 2253 4666 
L 3047 4666 
L 3047 1625 
L 3713 1625 
L 3713 1100 
L 3047 1100 
L 3047 0 
L 2419 0 
L 2419 1100 
L 313 1100 
L 313 1709 
L 2253 4666 
z
" transform="scale(0.015625)"/>
       </defs>
       <use xlink:href="#DejaVuSans-34"/>
       <use xlink:href="#DejaVuSans-30" x="63.623047"/>
       <use xlink:href="#DejaVuSans-30" x="127.246094"/>
       <use xlink:href="#DejaVuSans-30" x="190.869141"/>
      </g>
     </g>
    </g>
    <g id="xtick_6">
     <g id="line2d_6">
      <g>
       <use xlink:href="#m23cf1a6286" x="414.468585" y="133.12875" style="stroke: #000000; stroke-width: 0.8"/>
      </g>
     </g>
     <g id="text_6">
      <!-- 5000 -->
      <g transform="translate(401.743585 147.727187)scale(0.1 -0.1)">
       <defs>
        <path id="DejaVuSans-35" d="M 691 4666 
L 3169 4666 
L 3169 4134 
L 1269 4134 
L 1269 2991 
Q 1406 3038 1543 3061 
Q 1681 3084 1819 3084 
Q 2600 3084 3056 2656 
Q 3513 2228 3513 1497 
Q 3513 744 3044 326 
Q 2575 -91 1722 -91 
Q 1428 -91 1123 -41 
Q 819 9 494 109 
L 494 744 
Q 775 591 1075 516 
Q 1375 441 1709 441 
Q 2250 441 2565 725 
Q 2881 1009 2881 1497 
Q 2881 1984 2565 2268 
Q 2250 2553 1709 2553 
Q 1456 2553 1204 2497 
Q 953 2441 691 2322 
L 691 4666 
z
" transform="scale(0.015625)"/>
       </defs>
       <use xlink:href="#DejaVuSans-35"/>
       <use xlink:href="#DejaVuSans-30" x="63.623047"/>
       <use xlink:href="#DejaVuSans-30" x="127.246094"/>
       <use xlink:href="#DejaVuSans-30" x="190.869141"/>
      </g>
     </g>
    </g>
   </g>
   <g id="matplotlib.axis_2">
    <g id="ytick_1">
     <g id="line2d_7">
      <defs>
       <path id="m170a2e198b" d="M 0 0 
L -3.5 0 
" style="stroke: #000000; stroke-width: 0.8"/>
      </defs>
      <g>
       <use xlink:href="#m170a2e198b" x="35.45024" y="133.12875" style="stroke: #000000; stroke-width: 0.8"/>
      </g>
     </g>
     <g id="text_7">
      <!-- 0 -->
      <g transform="translate(22.08774 136.927969)scale(0.1 -0.1)">
       <use xlink:href="#DejaVuSans-30"/>
      </g>
     </g>
    </g>
    <g id="ytick_2">
     <g id="line2d_8">
      <g>
       <use xlink:href="#m170a2e198b" x="35.45024" y="97.994951" style="stroke: #000000; stroke-width: 0.8"/>
      </g>
     </g>
     <g id="text_8">
      <!-- 500 -->
      <g transform="translate(9.36274 101.79417)scale(0.1 -0.1)">
       <use xlink:href="#DejaVuSans-35"/>
       <use xlink:href="#DejaVuSans-30" x="63.623047"/>
       <use xlink:href="#DejaVuSans-30" x="127.246094"/>
      </g>
     </g>
    </g>
    <g id="ytick_3">
     <g id="line2d_9">
      <g>
       <use xlink:href="#m170a2e198b" x="35.45024" y="62.861152" style="stroke: #000000; stroke-width: 0.8"/>
      </g>
     </g>
     <g id="text_9">
      <!-- 1000 -->
      <g transform="translate(3.00024 66.660371)scale(0.1 -0.1)">
       <use xlink:href="#DejaVuSans-31"/>
       <use xlink:href="#DejaVuSans-30" x="63.623047"/>
       <use xlink:href="#DejaVuSans-30" x="127.246094"/>
       <use xlink:href="#DejaVuSans-30" x="190.869141"/>
      </g>
     </g>
    </g>
   </g>
   <g id="patch_103">
    <path d="M 35.45024 133.12875 
L 35.45024 39.57447 
" style="fill: none; stroke: #000000; stroke-width: 0.8; stroke-linejoin: miter; stroke-linecap: square"/>
   </g>
   <g id="patch_104">
    <path d="M 428.99976 133.12875 
L 428.99976 39.57447 
" style="fill: none; stroke: #000000; stroke-width: 0.8; stroke-linejoin: miter; stroke-linecap: square"/>
   </g>
   <g id="patch_105">
    <path d="M 35.45024 133.12875 
L 428.99976 133.12875 
" style="fill: none; stroke: #000000; stroke-width: 0.8; stroke-linejoin: miter; stroke-linecap: square"/>
   </g>
   <g id="patch_106">
    <path d="M 35.45024 39.57447 
L 428.99976 39.57447 
" style="fill: none; stroke: #000000; stroke-width: 0.8; stroke-linejoin: miter; stroke-linecap: square"/>
   </g>
   <g id="text_10">
    <!-- $\widetilde{\chi_1^\pm}$ -->
    <g transform="translate(223.045 33.57447)scale(0.12 -0.12)">
     <defs>
      <path id="STIXSizeFourSym-Regular-303" d="M -1171 4934 
L -986 4934 
Q -1120 4410 -1824 4150 
Q -2528 3891 -3552 3891 
Q -5293 3891 -7962 4294 
Q -9389 4512 -10355 4512 
Q -11149 4512 -11936 4345 
Q -12723 4179 -12870 3891 
L -13056 3891 
Q -12954 4250 -12486 4496 
Q -12019 4742 -11452 4838 
Q -10886 4934 -10266 4934 
Q -9741 4934 -8537 4822 
Q -7334 4710 -6138 4525 
Q -5523 4429 -4649 4371 
Q -3776 4314 -3373 4314 
Q -2573 4314 -1933 4474 
Q -1293 4634 -1171 4934 
z
" transform="scale(0.015625)"/>
      <path id="DejaVuSans-Oblique-3c7" d="M 1922 -781 
L 1691 416 
L 394 -1334 
L -284 -1334 
L 1553 1141 
L 1269 2613 
Q 1194 3006 713 3006 
L 559 3006 
L 653 3500 
L 872 3494 
Q 1675 3472 1775 2950 
L 2006 1753 
L 3303 3503 
L 3981 3503 
L 2144 1028 
L 2428 -444 
Q 2503 -838 2984 -838 
L 3138 -838 
L 3044 -1331 
L 2825 -1325 
Q 2022 -1303 1922 -781 
z
" transform="scale(0.015625)"/>
      <path id="DejaVuSans-b1" d="M 2944 4013 
L 2944 2803 
L 4684 2803 
L 4684 2272 
L 2944 2272 
L 2944 1063 
L 2419 1063 
L 2419 2272 
L 678 2272 
L 678 2803 
L 2419 2803 
L 2419 4013 
L 2944 4013 
z
M 678 531 
L 4684 531 
L 4684 0 
L 678 0 
L 678 531 
z
" transform="scale(0.015625)"/>
     </defs>
     <use xlink:href="#STIXSizeFourSym-Regular-303" transform="translate(183.813001 45.546875)scale(0.807633)"/>
     <use xlink:href="#DejaVuSans-Oblique-3c7" transform="translate(0 0.123437)"/>
     <use xlink:href="#DejaVuSans-b1" transform="translate(77.290091 38.404687)scale(0.7)"/>
     <use xlink:href="#DejaVuSans-31" transform="translate(59.179688 -27.220313)scale(0.7)"/>
    </g>
   </g>
  </g>
  <g id="axes_2">
   <g id="patch_107">
    <path d="M 35.45024 268.321635 
L 428.99976 268.321635 
L 428.99976 174.767355 
L 35.45024 174.767355 
z
" style="fill: #ffffff"/>
   </g>
   <g id="patch_108">
    <path d="M 53.338855 268.321635 
L 56.916577 268.321635 
L 56.916577 264.94879 
L 53.338855 264.94879 
z
" clip-path="url(#pe18d6860d5)" style="fill: #1f77b4"/>
   </g>
   <g id="patch_109">
    <path d="M 56.916577 268.321635 
L 60.4943 268.321635 
L 60.4943 262.348889 
L 56.916577 262.348889 
z
" clip-path="url(#pe18d6860d5)" style="fill: #1f77b4"/>
   </g>
   <g id="patch_110">
    <path d="M 60.4943 268.321635 
L 64.072023 268.321635 
L 64.072023 259.538185 
L 60.4943 259.538185 
z
" clip-path="url(#pe18d6860d5)" style="fill: #1f77b4"/>
   </g>
   <g id="patch_111">
    <path d="M 64.072023 268.321635 
L 67.649746 268.321635 
L 67.649746 256.657214 
L 64.072023 256.657214 
z
" clip-path="url(#pe18d6860d5)" style="fill: #1f77b4"/>
   </g>
   <g id="patch_112">
    <path d="M 67.649746 268.321635 
L 71.227469 268.321635 
L 71.227469 252.651961 
L 67.649746 252.651961 
z
" clip-path="url(#pe18d6860d5)" style="fill: #1f77b4"/>
   </g>
   <g id="patch_113">
    <path d="M 71.227469 268.321635 
L 74.805192 268.321635 
L 74.805192 251.176341 
L 71.227469 251.176341 
z
" clip-path="url(#pe18d6860d5)" style="fill: #1f77b4"/>
   </g>
   <g id="patch_114">
    <path d="M 74.805192 268.321635 
L 78.382915 268.321635 
L 78.382915 249.208848 
L 74.805192 249.208848 
z
" clip-path="url(#pe18d6860d5)" style="fill: #1f77b4"/>
   </g>
   <g id="patch_115">
    <path d="M 78.382915 268.321635 
L 81.960638 268.321635 
L 81.960638 249.489919 
L 78.382915 249.489919 
z
" clip-path="url(#pe18d6860d5)" style="fill: #1f77b4"/>
   </g>
   <g id="patch_116">
    <path d="M 81.960638 268.321635 
L 85.538361 268.321635 
L 85.538361 248.85751 
L 81.960638 248.85751 
z
" clip-path="url(#pe18d6860d5)" style="fill: #1f77b4"/>
   </g>
   <g id="patch_117">
    <path d="M 85.538361 268.321635 
L 89.116084 268.321635 
L 89.116084 246.53868 
L 85.538361 246.53868 
z
" clip-path="url(#pe18d6860d5)" style="fill: #1f77b4"/>
   </g>
   <g id="patch_118">
    <path d="M 89.116084 268.321635 
L 92.693807 268.321635 
L 92.693807 244.571187 
L 89.116084 244.571187 
z
" clip-path="url(#pe18d6860d5)" style="fill: #1f77b4"/>
   </g>
   <g id="patch_119">
    <path d="M 92.693807 268.321635 
L 96.271529 268.321635 
L 96.271529 244.430652 
L 92.693807 244.430652 
z
" clip-path="url(#pe18d6860d5)" style="fill: #1f77b4"/>
   </g>
   <g id="patch_120">
    <path d="M 96.271529 268.321635 
L 99.849252 268.321635 
L 99.849252 243.517173 
L 96.271529 243.517173 
z
" clip-path="url(#pe18d6860d5)" style="fill: #1f77b4"/>
   </g>
   <g id="patch_121">
    <path d="M 99.849252 268.321635 
L 103.426975 268.321635 
L 103.426975 245.133328 
L 99.849252 245.133328 
z
" clip-path="url(#pe18d6860d5)" style="fill: #1f77b4"/>
   </g>
   <g id="patch_122">
    <path d="M 103.426975 268.321635 
L 107.004698 268.321635 
L 107.004698 243.165835 
L 103.426975 243.165835 
z
" clip-path="url(#pe18d6860d5)" style="fill: #1f77b4"/>
   </g>
   <g id="patch_123">
    <path d="M 107.004698 268.321635 
L 110.582421 268.321635 
L 110.582421 241.409145 
L 107.004698 241.409145 
z
" clip-path="url(#pe18d6860d5)" style="fill: #1f77b4"/>
   </g>
   <g id="patch_124">
    <path d="M 110.582421 268.321635 
L 114.160144 268.321635 
L 114.160144 239.090314 
L 110.582421 239.090314 
z
" clip-path="url(#pe18d6860d5)" style="fill: #1f77b4"/>
   </g>
   <g id="patch_125">
    <path d="M 114.160144 268.321635 
L 117.737867 268.321635 
L 117.737867 241.479413 
L 114.160144 241.479413 
z
" clip-path="url(#pe18d6860d5)" style="fill: #1f77b4"/>
   </g>
   <g id="patch_126">
    <path d="M 117.737867 268.321635 
L 121.31559 268.321635 
L 121.31559 241.338877 
L 117.737867 241.338877 
z
" clip-path="url(#pe18d6860d5)" style="fill: #1f77b4"/>
   </g>
   <g id="patch_127">
    <path d="M 121.31559 268.321635 
L 124.893313 268.321635 
L 124.893313 238.528173 
L 121.31559 238.528173 
z
" clip-path="url(#pe18d6860d5)" style="fill: #1f77b4"/>
   </g>
   <g id="patch_128">
    <path d="M 124.893313 268.321635 
L 128.471036 268.321635 
L 128.471036 239.301117 
L 124.893313 239.301117 
z
" clip-path="url(#pe18d6860d5)" style="fill: #1f77b4"/>
   </g>
   <g id="patch_129">
    <path d="M 128.471036 268.321635 
L 132.048759 268.321635 
L 132.048759 242.111821 
L 128.471036 242.111821 
z
" clip-path="url(#pe18d6860d5)" style="fill: #1f77b4"/>
   </g>
   <g id="patch_130">
    <path d="M 132.048759 268.321635 
L 135.626481 268.321635 
L 135.626481 237.052554 
L 132.048759 237.052554 
z
" clip-path="url(#pe18d6860d5)" style="fill: #1f77b4"/>
   </g>
   <g id="patch_131">
    <path d="M 135.626481 268.321635 
L 139.204204 268.321635 
L 139.204204 239.090314 
L 135.626481 239.090314 
z
" clip-path="url(#pe18d6860d5)" style="fill: #1f77b4"/>
   </g>
   <g id="patch_132">
    <path d="M 139.204204 268.321635 
L 142.781927 268.321635 
L 142.781927 238.176835 
L 139.204204 238.176835 
z
" clip-path="url(#pe18d6860d5)" style="fill: #1f77b4"/>
   </g>
   <g id="patch_133">
    <path d="M 142.781927 268.321635 
L 146.35965 268.321635 
L 146.35965 238.387638 
L 142.781927 238.387638 
z
" clip-path="url(#pe18d6860d5)" style="fill: #1f77b4"/>
   </g>
   <g id="patch_134">
    <path d="M 146.35965 268.321635 
L 149.937373 268.321635 
L 149.937373 235.366132 
L 146.35965 235.366132 
z
" clip-path="url(#pe18d6860d5)" style="fill: #1f77b4"/>
   </g>
   <g id="patch_135">
    <path d="M 149.937373 268.321635 
L 153.515096 268.321635 
L 153.515096 233.749977 
L 149.937373 233.749977 
z
" clip-path="url(#pe18d6860d5)" style="fill: #1f77b4"/>
   </g>
   <g id="patch_136">
    <path d="M 153.515096 268.321635 
L 157.092819 268.321635 
L 157.092819 234.52292 
L 153.515096 234.52292 
z
" clip-path="url(#pe18d6860d5)" style="fill: #1f77b4"/>
   </g>
   <g id="patch_137">
    <path d="M 157.092819 268.321635 
L 160.670542 268.321635 
L 160.670542 233.96078 
L 157.092819 233.96078 
z
" clip-path="url(#pe18d6860d5)" style="fill: #1f77b4"/>
   </g>
   <g id="patch_138">
    <path d="M 160.670542 268.321635 
L 164.248265 268.321635 
L 164.248265 235.858005 
L 160.670542 235.858005 
z
" clip-path="url(#pe18d6860d5)" style="fill: #1f77b4"/>
   </g>
   <g id="patch_139">
    <path d="M 164.248265 268.321635 
L 167.825988 268.321635 
L 167.825988 235.085061 
L 164.248265 235.085061 
z
" clip-path="url(#pe18d6860d5)" style="fill: #1f77b4"/>
   </g>
   <g id="patch_140">
    <path d="M 167.825988 268.321635 
L 171.403711 268.321635 
L 171.403711 233.328371 
L 167.825988 233.328371 
z
" clip-path="url(#pe18d6860d5)" style="fill: #1f77b4"/>
   </g>
   <g id="patch_141">
    <path d="M 171.403711 268.321635 
L 174.981433 268.321635 
L 174.981433 233.820244 
L 171.403711 233.820244 
z
" clip-path="url(#pe18d6860d5)" style="fill: #1f77b4"/>
   </g>
   <g id="patch_142">
    <path d="M 174.981433 268.321635 
L 178.559156 268.321635 
L 178.559156 233.328371 
L 174.981433 233.328371 
z
" clip-path="url(#pe18d6860d5)" style="fill: #1f77b4"/>
   </g>
   <g id="patch_143">
    <path d="M 178.559156 268.321635 
L 182.136879 268.321635 
L 182.136879 230.587935 
L 178.559156 230.587935 
z
" clip-path="url(#pe18d6860d5)" style="fill: #1f77b4"/>
   </g>
   <g id="patch_144">
    <path d="M 182.136879 268.321635 
L 185.714602 268.321635 
L 185.714602 234.593188 
L 182.136879 234.593188 
z
" clip-path="url(#pe18d6860d5)" style="fill: #1f77b4"/>
   </g>
   <g id="patch_145">
    <path d="M 185.714602 268.321635 
L 189.292325 268.321635 
L 189.292325 232.695963 
L 185.714602 232.695963 
z
" clip-path="url(#pe18d6860d5)" style="fill: #1f77b4"/>
   </g>
   <g id="patch_146">
    <path d="M 189.292325 268.321635 
L 192.870048 268.321635 
L 192.870048 234.874258 
L 189.292325 234.874258 
z
" clip-path="url(#pe18d6860d5)" style="fill: #1f77b4"/>
   </g>
   <g id="patch_147">
    <path d="M 192.870048 268.321635 
L 196.447771 268.321635 
L 196.447771 233.398639 
L 192.870048 233.398639 
z
" clip-path="url(#pe18d6860d5)" style="fill: #1f77b4"/>
   </g>
   <g id="patch_148">
    <path d="M 196.447771 268.321635 
L 200.025494 268.321635 
L 200.025494 232.48516 
L 196.447771 232.48516 
z
" clip-path="url(#pe18d6860d5)" style="fill: #1f77b4"/>
   </g>
   <g id="patch_149">
    <path d="M 200.025494 268.321635 
L 203.603217 268.321635 
L 203.603217 235.085061 
L 200.025494 235.085061 
z
" clip-path="url(#pe18d6860d5)" style="fill: #1f77b4"/>
   </g>
   <g id="patch_150">
    <path d="M 203.603217 268.321635 
L 207.18094 268.321635 
L 207.18094 232.625695 
L 203.603217 232.625695 
z
" clip-path="url(#pe18d6860d5)" style="fill: #1f77b4"/>
   </g>
   <g id="patch_151">
    <path d="M 207.18094 268.321635 
L 210.758663 268.321635 
L 210.758663 234.382385 
L 207.18094 234.382385 
z
" clip-path="url(#pe18d6860d5)" style="fill: #1f77b4"/>
   </g>
   <g id="patch_152">
    <path d="M 210.758663 268.321635 
L 214.336385 268.321635 
L 214.336385 234.312118 
L 210.758663 234.312118 
z
" clip-path="url(#pe18d6860d5)" style="fill: #1f77b4"/>
   </g>
   <g id="patch_153">
    <path d="M 214.336385 268.321635 
L 217.914108 268.321635 
L 217.914108 235.014794 
L 214.336385 235.014794 
z
" clip-path="url(#pe18d6860d5)" style="fill: #1f77b4"/>
   </g>
   <g id="patch_154">
    <path d="M 217.914108 268.321635 
L 221.491831 268.321635 
L 221.491831 232.76623 
L 217.914108 232.76623 
z
" clip-path="url(#pe18d6860d5)" style="fill: #1f77b4"/>
   </g>
   <g id="patch_155">
    <path d="M 221.491831 268.321635 
L 225.069554 268.321635 
L 225.069554 230.4474 
L 221.491831 230.4474 
z
" clip-path="url(#pe18d6860d5)" style="fill: #1f77b4"/>
   </g>
   <g id="patch_156">
    <path d="M 225.069554 268.321635 
L 228.647277 268.321635 
L 228.647277 249.208848 
L 225.069554 249.208848 
z
" clip-path="url(#pe18d6860d5)" style="fill: #1f77b4"/>
   </g>
   <g id="patch_157">
    <path d="M 228.647277 268.321635 
L 232.225 268.321635 
L 232.225 254.408651 
L 228.647277 254.408651 
z
" clip-path="url(#pe18d6860d5)" style="fill: #1f77b4"/>
   </g>
   <g id="patch_158">
    <path d="M 232.225 268.321635 
L 235.802723 268.321635 
L 235.802723 254.830256 
L 232.225 254.830256 
z
" clip-path="url(#pe18d6860d5)" style="fill: #1f77b4"/>
   </g>
   <g id="patch_159">
    <path d="M 235.802723 268.321635 
L 239.380446 268.321635 
L 239.380446 253.284369 
L 235.802723 253.284369 
z
" clip-path="url(#pe18d6860d5)" style="fill: #1f77b4"/>
   </g>
   <g id="patch_160">
    <path d="M 239.380446 268.321635 
L 242.958169 268.321635 
L 242.958169 253.916777 
L 239.380446 253.916777 
z
" clip-path="url(#pe18d6860d5)" style="fill: #1f77b4"/>
   </g>
   <g id="patch_161">
    <path d="M 242.958169 268.321635 
L 246.535892 268.321635 
L 246.535892 256.235608 
L 242.958169 256.235608 
z
" clip-path="url(#pe18d6860d5)" style="fill: #1f77b4"/>
   </g>
   <g id="patch_162">
    <path d="M 246.535892 268.321635 
L 250.113615 268.321635 
L 250.113615 255.532932 
L 246.535892 255.532932 
z
" clip-path="url(#pe18d6860d5)" style="fill: #1f77b4"/>
   </g>
   <g id="patch_163">
    <path d="M 250.113615 268.321635 
L 253.691337 268.321635 
L 253.691337 255.814003 
L 250.113615 255.814003 
z
" clip-path="url(#pe18d6860d5)" style="fill: #1f77b4"/>
   </g>
   <g id="patch_164">
    <path d="M 253.691337 268.321635 
L 257.26906 268.321635 
L 257.26906 255.392397 
L 253.691337 255.392397 
z
" clip-path="url(#pe18d6860d5)" style="fill: #1f77b4"/>
   </g>
   <g id="patch_165">
    <path d="M 257.26906 268.321635 
L 260.846783 268.321635 
L 260.846783 256.376143 
L 257.26906 256.376143 
z
" clip-path="url(#pe18d6860d5)" style="fill: #1f77b4"/>
   </g>
   <g id="patch_166">
    <path d="M 260.846783 268.321635 
L 264.424506 268.321635 
L 264.424506 254.970791 
L 260.846783 254.970791 
z
" clip-path="url(#pe18d6860d5)" style="fill: #1f77b4"/>
   </g>
   <g id="patch_167">
    <path d="M 264.424506 268.321635 
L 268.002229 268.321635 
L 268.002229 256.516679 
L 264.424506 256.516679 
z
" clip-path="url(#pe18d6860d5)" style="fill: #1f77b4"/>
   </g>
   <g id="patch_168">
    <path d="M 268.002229 268.321635 
L 271.579952 268.321635 
L 271.579952 257.078819 
L 268.002229 257.078819 
z
" clip-path="url(#pe18d6860d5)" style="fill: #1f77b4"/>
   </g>
   <g id="patch_169">
    <path d="M 271.579952 268.321635 
L 275.157675 268.321635 
L 275.157675 255.673467 
L 271.579952 255.673467 
z
" clip-path="url(#pe18d6860d5)" style="fill: #1f77b4"/>
   </g>
   <g id="patch_170">
    <path d="M 275.157675 268.321635 
L 278.735398 268.321635 
L 278.735398 257.149087 
L 275.157675 257.149087 
z
" clip-path="url(#pe18d6860d5)" style="fill: #1f77b4"/>
   </g>
   <g id="patch_171">
    <path d="M 278.735398 268.321635 
L 282.313121 268.321635 
L 282.313121 258.343636 
L 278.735398 258.343636 
z
" clip-path="url(#pe18d6860d5)" style="fill: #1f77b4"/>
   </g>
   <g id="patch_172">
    <path d="M 282.313121 268.321635 
L 285.890844 268.321635 
L 285.890844 257.008552 
L 282.313121 257.008552 
z
" clip-path="url(#pe18d6860d5)" style="fill: #1f77b4"/>
   </g>
   <g id="patch_173">
    <path d="M 285.890844 268.321635 
L 289.468567 268.321635 
L 289.468567 258.062566 
L 285.890844 258.062566 
z
" clip-path="url(#pe18d6860d5)" style="fill: #1f77b4"/>
   </g>
   <g id="patch_174">
    <path d="M 289.468567 268.321635 
L 293.046289 268.321635 
L 293.046289 259.186847 
L 289.468567 259.186847 
z
" clip-path="url(#pe18d6860d5)" style="fill: #1f77b4"/>
   </g>
   <g id="patch_175">
    <path d="M 293.046289 268.321635 
L 296.624012 268.321635 
L 296.624012 258.484171 
L 293.046289 258.484171 
z
" clip-path="url(#pe18d6860d5)" style="fill: #1f77b4"/>
   </g>
   <g id="patch_176">
    <path d="M 296.624012 268.321635 
L 300.201735 268.321635 
L 300.201735 258.273368 
L 296.624012 258.273368 
z
" clip-path="url(#pe18d6860d5)" style="fill: #1f77b4"/>
   </g>
   <g id="patch_177">
    <path d="M 300.201735 268.321635 
L 303.779458 268.321635 
L 303.779458 257.289622 
L 300.201735 257.289622 
z
" clip-path="url(#pe18d6860d5)" style="fill: #1f77b4"/>
   </g>
   <g id="patch_178">
    <path d="M 303.779458 268.321635 
L 307.357181 268.321635 
L 307.357181 258.484171 
L 303.779458 258.484171 
z
" clip-path="url(#pe18d6860d5)" style="fill: #1f77b4"/>
   </g>
   <g id="patch_179">
    <path d="M 307.357181 268.321635 
L 310.934904 268.321635 
L 310.934904 258.624706 
L 307.357181 258.624706 
z
" clip-path="url(#pe18d6860d5)" style="fill: #1f77b4"/>
   </g>
   <g id="patch_180">
    <path d="M 310.934904 268.321635 
L 314.512627 268.321635 
L 314.512627 259.046312 
L 310.934904 259.046312 
z
" clip-path="url(#pe18d6860d5)" style="fill: #1f77b4"/>
   </g>
   <g id="patch_181">
    <path d="M 314.512627 268.321635 
L 318.09035 268.321635 
L 318.09035 258.413904 
L 314.512627 258.413904 
z
" clip-path="url(#pe18d6860d5)" style="fill: #1f77b4"/>
   </g>
   <g id="patch_182">
    <path d="M 318.09035 268.321635 
L 321.668073 268.321635 
L 321.668073 259.046312 
L 318.09035 259.046312 
z
" clip-path="url(#pe18d6860d5)" style="fill: #1f77b4"/>
   </g>
   <g id="patch_183">
    <path d="M 321.668073 268.321635 
L 325.245796 268.321635 
L 325.245796 261.224608 
L 321.668073 261.224608 
z
" clip-path="url(#pe18d6860d5)" style="fill: #1f77b4"/>
   </g>
   <g id="patch_184">
    <path d="M 325.245796 268.321635 
L 328.823519 268.321635 
L 328.823519 259.67872 
L 325.245796 259.67872 
z
" clip-path="url(#pe18d6860d5)" style="fill: #1f77b4"/>
   </g>
   <g id="patch_185">
    <path d="M 328.823519 268.321635 
L 332.401241 268.321635 
L 332.401241 258.905777 
L 328.823519 258.905777 
z
" clip-path="url(#pe18d6860d5)" style="fill: #1f77b4"/>
   </g>
   <g id="patch_186">
    <path d="M 332.401241 268.321635 
L 335.978964 268.321635 
L 335.978964 259.538185 
L 332.401241 259.538185 
z
" clip-path="url(#pe18d6860d5)" style="fill: #1f77b4"/>
   </g>
   <g id="patch_187">
    <path d="M 335.978964 268.321635 
L 339.556687 268.321635 
L 339.556687 260.170594 
L 335.978964 260.170594 
z
" clip-path="url(#pe18d6860d5)" style="fill: #1f77b4"/>
   </g>
   <g id="patch_188">
    <path d="M 339.556687 268.321635 
L 343.13441 268.321635 
L 343.13441 260.311129 
L 339.556687 260.311129 
z
" clip-path="url(#pe18d6860d5)" style="fill: #1f77b4"/>
   </g>
   <g id="patch_189">
    <path d="M 343.13441 268.321635 
L 346.712133 268.321635 
L 346.712133 260.170594 
L 343.13441 260.170594 
z
" clip-path="url(#pe18d6860d5)" style="fill: #1f77b4"/>
   </g>
   <g id="patch_190">
    <path d="M 346.712133 268.321635 
L 350.289856 268.321635 
L 350.289856 260.451664 
L 346.712133 260.451664 
z
" clip-path="url(#pe18d6860d5)" style="fill: #1f77b4"/>
   </g>
   <g id="patch_191">
    <path d="M 350.289856 268.321635 
L 353.867579 268.321635 
L 353.867579 260.100326 
L 350.289856 260.100326 
z
" clip-path="url(#pe18d6860d5)" style="fill: #1f77b4"/>
   </g>
   <g id="patch_192">
    <path d="M 353.867579 268.321635 
L 357.445302 268.321635 
L 357.445302 260.943537 
L 353.867579 260.943537 
z
" clip-path="url(#pe18d6860d5)" style="fill: #1f77b4"/>
   </g>
   <g id="patch_193">
    <path d="M 357.445302 268.321635 
L 361.023025 268.321635 
L 361.023025 259.467918 
L 357.445302 259.467918 
z
" clip-path="url(#pe18d6860d5)" style="fill: #1f77b4"/>
   </g>
   <g id="patch_194">
    <path d="M 361.023025 268.321635 
L 364.600748 268.321635 
L 364.600748 259.748988 
L 361.023025 259.748988 
z
" clip-path="url(#pe18d6860d5)" style="fill: #1f77b4"/>
   </g>
   <g id="patch_195">
    <path d="M 364.600748 268.321635 
L 368.178471 268.321635 
L 368.178471 261.505678 
L 364.600748 261.505678 
z
" clip-path="url(#pe18d6860d5)" style="fill: #1f77b4"/>
   </g>
   <g id="patch_196">
    <path d="M 368.178471 268.321635 
L 371.756193 268.321635 
L 371.756193 261.997551 
L 368.178471 261.997551 
z
" clip-path="url(#pe18d6860d5)" style="fill: #1f77b4"/>
   </g>
   <g id="patch_197">
    <path d="M 371.756193 268.321635 
L 375.333916 268.321635 
L 375.333916 260.030058 
L 371.756193 260.030058 
z
" clip-path="url(#pe18d6860d5)" style="fill: #1f77b4"/>
   </g>
   <g id="patch_198">
    <path d="M 375.333916 268.321635 
L 378.911639 268.321635 
L 378.911639 260.732734 
L 375.333916 260.732734 
z
" clip-path="url(#pe18d6860d5)" style="fill: #1f77b4"/>
   </g>
   <g id="patch_199">
    <path d="M 378.911639 268.321635 
L 382.489362 268.321635 
L 382.489362 259.819256 
L 378.911639 259.819256 
z
" clip-path="url(#pe18d6860d5)" style="fill: #1f77b4"/>
   </g>
   <g id="patch_200">
    <path d="M 382.489362 268.321635 
L 386.067085 268.321635 
L 386.067085 260.732734 
L 382.489362 260.732734 
z
" clip-path="url(#pe18d6860d5)" style="fill: #1f77b4"/>
   </g>
   <g id="patch_201">
    <path d="M 386.067085 268.321635 
L 389.644808 268.321635 
L 389.644808 261.084072 
L 386.067085 261.084072 
z
" clip-path="url(#pe18d6860d5)" style="fill: #1f77b4"/>
   </g>
   <g id="patch_202">
    <path d="M 389.644808 268.321635 
L 393.222531 268.321635 
L 393.222531 262.419157 
L 389.644808 262.419157 
z
" clip-path="url(#pe18d6860d5)" style="fill: #1f77b4"/>
   </g>
   <g id="patch_203">
    <path d="M 393.222531 268.321635 
L 396.800254 268.321635 
L 396.800254 261.716481 
L 393.222531 261.716481 
z
" clip-path="url(#pe18d6860d5)" style="fill: #1f77b4"/>
   </g>
   <g id="patch_204">
    <path d="M 396.800254 268.321635 
L 400.377977 268.321635 
L 400.377977 262.91103 
L 396.800254 262.91103 
z
" clip-path="url(#pe18d6860d5)" style="fill: #1f77b4"/>
   </g>
   <g id="patch_205">
    <path d="M 400.377977 268.321635 
L 403.9557 268.321635 
L 403.9557 262.278622 
L 400.377977 262.278622 
z
" clip-path="url(#pe18d6860d5)" style="fill: #1f77b4"/>
   </g>
   <g id="patch_206">
    <path d="M 403.9557 268.321635 
L 407.533423 268.321635 
L 407.533423 261.927284 
L 403.9557 261.927284 
z
" clip-path="url(#pe18d6860d5)" style="fill: #1f77b4"/>
   </g>
   <g id="patch_207">
    <path d="M 407.533423 268.321635 
L 411.111145 268.321635 
L 411.111145 264.105579 
L 407.533423 264.105579 
z
" clip-path="url(#pe18d6860d5)" style="fill: #1f77b4"/>
   </g>
   <g id="matplotlib.axis_3">
    <g id="xtick_7">
     <g id="line2d_10">
      <g>
       <use xlink:href="#m23cf1a6286" x="48.274687" y="268.321635" style="stroke: #000000; stroke-width: 0.8"/>
      </g>
     </g>
     <g id="text_11">
      <!-- 0 -->
      <g transform="translate(45.093437 282.920073)scale(0.1 -0.1)">
       <use xlink:href="#DejaVuSans-30"/>
      </g>
     </g>
    </g>
    <g id="xtick_8">
     <g id="line2d_11">
      <g>
       <use xlink:href="#m23cf1a6286" x="120.851914" y="268.321635" style="stroke: #000000; stroke-width: 0.8"/>
      </g>
     </g>
     <g id="text_12">
      <!-- 2000 -->
      <g transform="translate(108.126914 282.920073)scale(0.1 -0.1)">
       <use xlink:href="#DejaVuSans-32"/>
       <use xlink:href="#DejaVuSans-30" x="63.623047"/>
       <use xlink:href="#DejaVuSans-30" x="127.246094"/>
       <use xlink:href="#DejaVuSans-30" x="190.869141"/>
      </g>
     </g>
    </g>
    <g id="xtick_9">
     <g id="line2d_12">
      <g>
       <use xlink:href="#m23cf1a6286" x="193.429142" y="268.321635" style="stroke: #000000; stroke-width: 0.8"/>
      </g>
     </g>
     <g id="text_13">
      <!-- 4000 -->
      <g transform="translate(180.704142 282.920073)scale(0.1 -0.1)">
       <use xlink:href="#DejaVuSans-34"/>
       <use xlink:href="#DejaVuSans-30" x="63.623047"/>
       <use xlink:href="#DejaVuSans-30" x="127.246094"/>
       <use xlink:href="#DejaVuSans-30" x="190.869141"/>
      </g>
     </g>
    </g>
    <g id="xtick_10">
     <g id="line2d_13">
      <g>
       <use xlink:href="#m23cf1a6286" x="266.006369" y="268.321635" style="stroke: #000000; stroke-width: 0.8"/>
      </g>
     </g>
     <g id="text_14">
      <!-- 6000 -->
      <g transform="translate(253.281369 282.920073)scale(0.1 -0.1)">
       <defs>
        <path id="DejaVuSans-36" d="M 2113 2584 
Q 1688 2584 1439 2293 
Q 1191 2003 1191 1497 
Q 1191 994 1439 701 
Q 1688 409 2113 409 
Q 2538 409 2786 701 
Q 3034 994 3034 1497 
Q 3034 2003 2786 2293 
Q 2538 2584 2113 2584 
z
M 3366 4563 
L 3366 3988 
Q 3128 4100 2886 4159 
Q 2644 4219 2406 4219 
Q 1781 4219 1451 3797 
Q 1122 3375 1075 2522 
Q 1259 2794 1537 2939 
Q 1816 3084 2150 3084 
Q 2853 3084 3261 2657 
Q 3669 2231 3669 1497 
Q 3669 778 3244 343 
Q 2819 -91 2113 -91 
Q 1303 -91 875 529 
Q 447 1150 447 2328 
Q 447 3434 972 4092 
Q 1497 4750 2381 4750 
Q 2619 4750 2861 4703 
Q 3103 4656 3366 4563 
z
" transform="scale(0.015625)"/>
       </defs>
       <use xlink:href="#DejaVuSans-36"/>
       <use xlink:href="#DejaVuSans-30" x="63.623047"/>
       <use xlink:href="#DejaVuSans-30" x="127.246094"/>
       <use xlink:href="#DejaVuSans-30" x="190.869141"/>
      </g>
     </g>
    </g>
    <g id="xtick_11">
     <g id="line2d_14">
      <g>
       <use xlink:href="#m23cf1a6286" x="338.583597" y="268.321635" style="stroke: #000000; stroke-width: 0.8"/>
      </g>
     </g>
     <g id="text_15">
      <!-- 8000 -->
      <g transform="translate(325.858597 282.920073)scale(0.1 -0.1)">
       <defs>
        <path id="DejaVuSans-38" d="M 2034 2216 
Q 1584 2216 1326 1975 
Q 1069 1734 1069 1313 
Q 1069 891 1326 650 
Q 1584 409 2034 409 
Q 2484 409 2743 651 
Q 3003 894 3003 1313 
Q 3003 1734 2745 1975 
Q 2488 2216 2034 2216 
z
M 1403 2484 
Q 997 2584 770 2862 
Q 544 3141 544 3541 
Q 544 4100 942 4425 
Q 1341 4750 2034 4750 
Q 2731 4750 3128 4425 
Q 3525 4100 3525 3541 
Q 3525 3141 3298 2862 
Q 3072 2584 2669 2484 
Q 3125 2378 3379 2068 
Q 3634 1759 3634 1313 
Q 3634 634 3220 271 
Q 2806 -91 2034 -91 
Q 1263 -91 848 271 
Q 434 634 434 1313 
Q 434 1759 690 2068 
Q 947 2378 1403 2484 
z
M 1172 3481 
Q 1172 3119 1398 2916 
Q 1625 2713 2034 2713 
Q 2441 2713 2670 2916 
Q 2900 3119 2900 3481 
Q 2900 3844 2670 4047 
Q 2441 4250 2034 4250 
Q 1625 4250 1398 4047 
Q 1172 3844 1172 3481 
z
" transform="scale(0.015625)"/>
       </defs>
       <use xlink:href="#DejaVuSans-38"/>
       <use xlink:href="#DejaVuSans-30" x="63.623047"/>
       <use xlink:href="#DejaVuSans-30" x="127.246094"/>
       <use xlink:href="#DejaVuSans-30" x="190.869141"/>
      </g>
     </g>
    </g>
    <g id="xtick_12">
     <g id="line2d_15">
      <g>
       <use xlink:href="#m23cf1a6286" x="411.160824" y="268.321635" style="stroke: #000000; stroke-width: 0.8"/>
      </g>
     </g>
     <g id="text_16">
      <!-- 10000 -->
      <g transform="translate(395.254574 282.920073)scale(0.1 -0.1)">
       <use xlink:href="#DejaVuSans-31"/>
       <use xlink:href="#DejaVuSans-30" x="63.623047"/>
       <use xlink:href="#DejaVuSans-30" x="127.246094"/>
       <use xlink:href="#DejaVuSans-30" x="190.869141"/>
       <use xlink:href="#DejaVuSans-30" x="254.492188"/>
      </g>
     </g>
    </g>
   </g>
   <g id="matplotlib.axis_4">
    <g id="ytick_4">
     <g id="line2d_16">
      <g>
       <use xlink:href="#m170a2e198b" x="35.45024" y="268.321635" style="stroke: #000000; stroke-width: 0.8"/>
      </g>
     </g>
     <g id="text_17">
      <!-- 0 -->
      <g transform="translate(22.08774 272.120854)scale(0.1 -0.1)">
       <use xlink:href="#DejaVuSans-30"/>
      </g>
     </g>
    </g>
    <g id="ytick_5">
     <g id="line2d_17">
      <g>
       <use xlink:href="#m170a2e198b" x="35.45024" y="233.187836" style="stroke: #000000; stroke-width: 0.8"/>
      </g>
     </g>
     <g id="text_18">
      <!-- 500 -->
      <g transform="translate(9.36274 236.987055)scale(0.1 -0.1)">
       <use xlink:href="#DejaVuSans-35"/>
       <use xlink:href="#DejaVuSans-30" x="63.623047"/>
       <use xlink:href="#DejaVuSans-30" x="127.246094"/>
      </g>
     </g>
    </g>
    <g id="ytick_6">
     <g id="line2d_18">
      <g>
       <use xlink:href="#m170a2e198b" x="35.45024" y="198.054037" style="stroke: #000000; stroke-width: 0.8"/>
      </g>
     </g>
     <g id="text_19">
      <!-- 1000 -->
      <g transform="translate(3.00024 201.853256)scale(0.1 -0.1)">
       <use xlink:href="#DejaVuSans-31"/>
       <use xlink:href="#DejaVuSans-30" x="63.623047"/>
       <use xlink:href="#DejaVuSans-30" x="127.246094"/>
       <use xlink:href="#DejaVuSans-30" x="190.869141"/>
      </g>
     </g>
    </g>
   </g>
   <g id="patch_208">
    <path d="M 35.45024 268.321635 
L 35.45024 174.767355 
" style="fill: none; stroke: #000000; stroke-width: 0.8; stroke-linejoin: miter; stroke-linecap: square"/>
   </g>
   <g id="patch_209">
    <path d="M 428.99976 268.321635 
L 428.99976 174.767355 
" style="fill: none; stroke: #000000; stroke-width: 0.8; stroke-linejoin: miter; stroke-linecap: square"/>
   </g>
   <g id="patch_210">
    <path d="M 35.45024 268.321635 
L 428.99976 268.321635 
" style="fill: none; stroke: #000000; stroke-width: 0.8; stroke-linejoin: miter; stroke-linecap: square"/>
   </g>
   <g id="patch_211">
    <path d="M 35.45024 174.767355 
L 428.99976 174.767355 
" style="fill: none; stroke: #000000; stroke-width: 0.8; stroke-linejoin: miter; stroke-linecap: square"/>
   </g>
   <g id="text_20">
    <!-- $\widetilde{\chi_2^\pm}$ -->
    <g transform="translate(223.045 168.767355)scale(0.12 -0.12)">
     <use xlink:href="#STIXSizeFourSym-Regular-303" transform="translate(183.813001 45.546875)scale(0.807633)"/>
     <use xlink:href="#DejaVuSans-Oblique-3c7" transform="translate(0 0.123437)"/>
     <use xlink:href="#DejaVuSans-b1" transform="translate(77.290091 38.404687)scale(0.7)"/>
     <use xlink:href="#DejaVuSans-32" transform="translate(59.179688 -27.220313)scale(0.7)"/>
    </g>
   </g>
  </g>
  <g id="text_21">
   <!-- Histogramme de la masse des charginos -->
   <g transform="translate(93.653438 12.118365)scale(0.12 -0.12)">
    <defs>
     <path id="DejaVuSans-48" d="M 628 4666 
L 1259 4666 
L 1259 2753 
L 3553 2753 
L 3553 4666 
L 4184 4666 
L 4184 0 
L 3553 0 
L 3553 2222 
L 1259 2222 
L 1259 0 
L 628 0 
L 628 4666 
z
" transform="scale(0.015625)"/>
     <path id="DejaVuSans-69" d="M 603 3500 
L 1178 3500 
L 1178 0 
L 603 0 
L 603 3500 
z
M 603 4863 
L 1178 4863 
L 1178 4134 
L 603 4134 
L 603 4863 
z
" transform="scale(0.015625)"/>
     <path id="DejaVuSans-73" d="M 2834 3397 
L 2834 2853 
Q 2591 2978 2328 3040 
Q 2066 3103 1784 3103 
Q 1356 3103 1142 2972 
Q 928 2841 928 2578 
Q 928 2378 1081 2264 
Q 1234 2150 1697 2047 
L 1894 2003 
Q 2506 1872 2764 1633 
Q 3022 1394 3022 966 
Q 3022 478 2636 193 
Q 2250 -91 1575 -91 
Q 1294 -91 989 -36 
Q 684 19 347 128 
L 347 722 
Q 666 556 975 473 
Q 1284 391 1588 391 
Q 1994 391 2212 530 
Q 2431 669 2431 922 
Q 2431 1156 2273 1281 
Q 2116 1406 1581 1522 
L 1381 1569 
Q 847 1681 609 1914 
Q 372 2147 372 2553 
Q 372 3047 722 3315 
Q 1072 3584 1716 3584 
Q 2034 3584 2315 3537 
Q 2597 3491 2834 3397 
z
" transform="scale(0.015625)"/>
     <path id="DejaVuSans-74" d="M 1172 4494 
L 1172 3500 
L 2356 3500 
L 2356 3053 
L 1172 3053 
L 1172 1153 
Q 1172 725 1289 603 
Q 1406 481 1766 481 
L 2356 481 
L 2356 0 
L 1766 0 
Q 1100 0 847 248 
Q 594 497 594 1153 
L 594 3053 
L 172 3053 
L 172 3500 
L 594 3500 
L 594 4494 
L 1172 4494 
z
" transform="scale(0.015625)"/>
     <path id="DejaVuSans-6f" d="M 1959 3097 
Q 1497 3097 1228 2736 
Q 959 2375 959 1747 
Q 959 1119 1226 758 
Q 1494 397 1959 397 
Q 2419 397 2687 759 
Q 2956 1122 2956 1747 
Q 2956 2369 2687 2733 
Q 2419 3097 1959 3097 
z
M 1959 3584 
Q 2709 3584 3137 3096 
Q 3566 2609 3566 1747 
Q 3566 888 3137 398 
Q 2709 -91 1959 -91 
Q 1206 -91 779 398 
Q 353 888 353 1747 
Q 353 2609 779 3096 
Q 1206 3584 1959 3584 
z
" transform="scale(0.015625)"/>
     <path id="DejaVuSans-67" d="M 2906 1791 
Q 2906 2416 2648 2759 
Q 2391 3103 1925 3103 
Q 1463 3103 1205 2759 
Q 947 2416 947 1791 
Q 947 1169 1205 825 
Q 1463 481 1925 481 
Q 2391 481 2648 825 
Q 2906 1169 2906 1791 
z
M 3481 434 
Q 3481 -459 3084 -895 
Q 2688 -1331 1869 -1331 
Q 1566 -1331 1297 -1286 
Q 1028 -1241 775 -1147 
L 775 -588 
Q 1028 -725 1275 -790 
Q 1522 -856 1778 -856 
Q 2344 -856 2625 -561 
Q 2906 -266 2906 331 
L 2906 616 
Q 2728 306 2450 153 
Q 2172 0 1784 0 
Q 1141 0 747 490 
Q 353 981 353 1791 
Q 353 2603 747 3093 
Q 1141 3584 1784 3584 
Q 2172 3584 2450 3431 
Q 2728 3278 2906 2969 
L 2906 3500 
L 3481 3500 
L 3481 434 
z
" transform="scale(0.015625)"/>
     <path id="DejaVuSans-72" d="M 2631 2963 
Q 2534 3019 2420 3045 
Q 2306 3072 2169 3072 
Q 1681 3072 1420 2755 
Q 1159 2438 1159 1844 
L 1159 0 
L 581 0 
L 581 3500 
L 1159 3500 
L 1159 2956 
Q 1341 3275 1631 3429 
Q 1922 3584 2338 3584 
Q 2397 3584 2469 3576 
Q 2541 3569 2628 3553 
L 2631 2963 
z
" transform="scale(0.015625)"/>
     <path id="DejaVuSans-61" d="M 2194 1759 
Q 1497 1759 1228 1600 
Q 959 1441 959 1056 
Q 959 750 1161 570 
Q 1363 391 1709 391 
Q 2188 391 2477 730 
Q 2766 1069 2766 1631 
L 2766 1759 
L 2194 1759 
z
M 3341 1997 
L 3341 0 
L 2766 0 
L 2766 531 
Q 2569 213 2275 61 
Q 1981 -91 1556 -91 
Q 1019 -91 701 211 
Q 384 513 384 1019 
Q 384 1609 779 1909 
Q 1175 2209 1959 2209 
L 2766 2209 
L 2766 2266 
Q 2766 2663 2505 2880 
Q 2244 3097 1772 3097 
Q 1472 3097 1187 3025 
Q 903 2953 641 2809 
L 641 3341 
Q 956 3463 1253 3523 
Q 1550 3584 1831 3584 
Q 2591 3584 2966 3190 
Q 3341 2797 3341 1997 
z
" transform="scale(0.015625)"/>
     <path id="DejaVuSans-6d" d="M 3328 2828 
Q 3544 3216 3844 3400 
Q 4144 3584 4550 3584 
Q 5097 3584 5394 3201 
Q 5691 2819 5691 2113 
L 5691 0 
L 5113 0 
L 5113 2094 
Q 5113 2597 4934 2840 
Q 4756 3084 4391 3084 
Q 3944 3084 3684 2787 
Q 3425 2491 3425 1978 
L 3425 0 
L 2847 0 
L 2847 2094 
Q 2847 2600 2669 2842 
Q 2491 3084 2119 3084 
Q 1678 3084 1418 2786 
Q 1159 2488 1159 1978 
L 1159 0 
L 581 0 
L 581 3500 
L 1159 3500 
L 1159 2956 
Q 1356 3278 1631 3431 
Q 1906 3584 2284 3584 
Q 2666 3584 2933 3390 
Q 3200 3197 3328 2828 
z
" transform="scale(0.015625)"/>
     <path id="DejaVuSans-65" d="M 3597 1894 
L 3597 1613 
L 953 1613 
Q 991 1019 1311 708 
Q 1631 397 2203 397 
Q 2534 397 2845 478 
Q 3156 559 3463 722 
L 3463 178 
Q 3153 47 2828 -22 
Q 2503 -91 2169 -91 
Q 1331 -91 842 396 
Q 353 884 353 1716 
Q 353 2575 817 3079 
Q 1281 3584 2069 3584 
Q 2775 3584 3186 3129 
Q 3597 2675 3597 1894 
z
M 3022 2063 
Q 3016 2534 2758 2815 
Q 2500 3097 2075 3097 
Q 1594 3097 1305 2825 
Q 1016 2553 972 2059 
L 3022 2063 
z
" transform="scale(0.015625)"/>
     <path id="DejaVuSans-20" transform="scale(0.015625)"/>
     <path id="DejaVuSans-64" d="M 2906 2969 
L 2906 4863 
L 3481 4863 
L 3481 0 
L 2906 0 
L 2906 525 
Q 2725 213 2448 61 
Q 2172 -91 1784 -91 
Q 1150 -91 751 415 
Q 353 922 353 1747 
Q 353 2572 751 3078 
Q 1150 3584 1784 3584 
Q 2172 3584 2448 3432 
Q 2725 3281 2906 2969 
z
M 947 1747 
Q 947 1113 1208 752 
Q 1469 391 1925 391 
Q 2381 391 2643 752 
Q 2906 1113 2906 1747 
Q 2906 2381 2643 2742 
Q 2381 3103 1925 3103 
Q 1469 3103 1208 2742 
Q 947 2381 947 1747 
z
" transform="scale(0.015625)"/>
     <path id="DejaVuSans-6c" d="M 603 4863 
L 1178 4863 
L 1178 0 
L 603 0 
L 603 4863 
z
" transform="scale(0.015625)"/>
     <path id="DejaVuSans-63" d="M 3122 3366 
L 3122 2828 
Q 2878 2963 2633 3030 
Q 2388 3097 2138 3097 
Q 1578 3097 1268 2742 
Q 959 2388 959 1747 
Q 959 1106 1268 751 
Q 1578 397 2138 397 
Q 2388 397 2633 464 
Q 2878 531 3122 666 
L 3122 134 
Q 2881 22 2623 -34 
Q 2366 -91 2075 -91 
Q 1284 -91 818 406 
Q 353 903 353 1747 
Q 353 2603 823 3093 
Q 1294 3584 2113 3584 
Q 2378 3584 2631 3529 
Q 2884 3475 3122 3366 
z
" transform="scale(0.015625)"/>
     <path id="DejaVuSans-68" d="M 3513 2113 
L 3513 0 
L 2938 0 
L 2938 2094 
Q 2938 2591 2744 2837 
Q 2550 3084 2163 3084 
Q 1697 3084 1428 2787 
Q 1159 2491 1159 1978 
L 1159 0 
L 581 0 
L 581 4863 
L 1159 4863 
L 1159 2956 
Q 1366 3272 1645 3428 
Q 1925 3584 2291 3584 
Q 2894 3584 3203 3211 
Q 3513 2838 3513 2113 
z
" transform="scale(0.015625)"/>
     <path id="DejaVuSans-6e" d="M 3513 2113 
L 3513 0 
L 2938 0 
L 2938 2094 
Q 2938 2591 2744 2837 
Q 2550 3084 2163 3084 
Q 1697 3084 1428 2787 
Q 1159 2491 1159 1978 
L 1159 0 
L 581 0 
L 581 3500 
L 1159 3500 
L 1159 2956 
Q 1366 3272 1645 3428 
Q 1925 3584 2291 3584 
Q 2894 3584 3203 3211 
Q 3513 2838 3513 2113 
z
" transform="scale(0.015625)"/>
    </defs>
    <use xlink:href="#DejaVuSans-48"/>
    <use xlink:href="#DejaVuSans-69" x="75.195312"/>
    <use xlink:href="#DejaVuSans-73" x="102.978516"/>
    <use xlink:href="#DejaVuSans-74" x="155.078125"/>
    <use xlink:href="#DejaVuSans-6f" x="194.287109"/>
    <use xlink:href="#DejaVuSans-67" x="255.46875"/>
    <use xlink:href="#DejaVuSans-72" x="318.945312"/>
    <use xlink:href="#DejaVuSans-61" x="360.058594"/>
    <use xlink:href="#DejaVuSans-6d" x="421.337891"/>
    <use xlink:href="#DejaVuSans-6d" x="518.75"/>
    <use xlink:href="#DejaVuSans-65" x="616.162109"/>
    <use xlink:href="#DejaVuSans-20" x="677.685547"/>
    <use xlink:href="#DejaVuSans-64" x="709.472656"/>
    <use xlink:href="#DejaVuSans-65" x="772.949219"/>
    <use xlink:href="#DejaVuSans-20" x="834.472656"/>
    <use xlink:href="#DejaVuSans-6c" x="866.259766"/>
    <use xlink:href="#DejaVuSans-61" x="894.042969"/>
    <use xlink:href="#DejaVuSans-20" x="955.322266"/>
    <use xlink:href="#DejaVuSans-6d" x="987.109375"/>
    <use xlink:href="#DejaVuSans-61" x="1084.521484"/>
    <use xlink:href="#DejaVuSans-73" x="1145.800781"/>
    <use xlink:href="#DejaVuSans-73" x="1197.900391"/>
    <use xlink:href="#DejaVuSans-65" x="1250"/>
    <use xlink:href="#DejaVuSans-20" x="1311.523438"/>
    <use xlink:href="#DejaVuSans-64" x="1343.310547"/>
    <use xlink:href="#DejaVuSans-65" x="1406.787109"/>
    <use xlink:href="#DejaVuSans-73" x="1468.310547"/>
    <use xlink:href="#DejaVuSans-20" x="1520.410156"/>
    <use xlink:href="#DejaVuSans-63" x="1552.197266"/>
    <use xlink:href="#DejaVuSans-68" x="1607.177734"/>
    <use xlink:href="#DejaVuSans-61" x="1670.556641"/>
    <use xlink:href="#DejaVuSans-72" x="1731.835938"/>
    <use xlink:href="#DejaVuSans-67" x="1771.199219"/>
    <use xlink:href="#DejaVuSans-69" x="1834.675781"/>
    <use xlink:href="#DejaVuSans-6e" x="1862.458984"/>
    <use xlink:href="#DejaVuSans-6f" x="1925.837891"/>
    <use xlink:href="#DejaVuSans-73" x="1987.019531"/>
   </g>
  </g>
  <g id="text_22">
   <!-- Masse (GeV) -->
   <g transform="translate(184.474219 302.4)scale(0.1 -0.1)">
    <defs>
     <path id="DejaVuSans-4d" d="M 628 4666 
L 1569 4666 
L 2759 1491 
L 3956 4666 
L 4897 4666 
L 4897 0 
L 4281 0 
L 4281 4097 
L 3078 897 
L 2444 897 
L 1241 4097 
L 1241 0 
L 628 0 
L 628 4666 
z
" transform="scale(0.015625)"/>
     <path id="DejaVuSans-28" d="M 1984 4856 
Q 1566 4138 1362 3434 
Q 1159 2731 1159 2009 
Q 1159 1288 1364 580 
Q 1569 -128 1984 -844 
L 1484 -844 
Q 1016 -109 783 600 
Q 550 1309 550 2009 
Q 550 2706 781 3412 
Q 1013 4119 1484 4856 
L 1984 4856 
z
" transform="scale(0.015625)"/>
     <path id="DejaVuSans-47" d="M 3809 666 
L 3809 1919 
L 2778 1919 
L 2778 2438 
L 4434 2438 
L 4434 434 
Q 4069 175 3628 42 
Q 3188 -91 2688 -91 
Q 1594 -91 976 548 
Q 359 1188 359 2328 
Q 359 3472 976 4111 
Q 1594 4750 2688 4750 
Q 3144 4750 3555 4637 
Q 3966 4525 4313 4306 
L 4313 3634 
Q 3963 3931 3569 4081 
Q 3175 4231 2741 4231 
Q 1884 4231 1454 3753 
Q 1025 3275 1025 2328 
Q 1025 1384 1454 906 
Q 1884 428 2741 428 
Q 3075 428 3337 486 
Q 3600 544 3809 666 
z
" transform="scale(0.015625)"/>
     <path id="DejaVuSans-56" d="M 1831 0 
L 50 4666 
L 709 4666 
L 2188 738 
L 3669 4666 
L 4325 4666 
L 2547 0 
L 1831 0 
z
" transform="scale(0.015625)"/>
     <path id="DejaVuSans-29" d="M 513 4856 
L 1013 4856 
Q 1481 4119 1714 3412 
Q 1947 2706 1947 2009 
Q 1947 1309 1714 600 
Q 1481 -109 1013 -844 
L 513 -844 
Q 928 -128 1133 580 
Q 1338 1288 1338 2009 
Q 1338 2731 1133 3434 
Q 928 4138 513 4856 
z
" transform="scale(0.015625)"/>
    </defs>
    <use xlink:href="#DejaVuSans-4d"/>
    <use xlink:href="#DejaVuSans-61" x="86.279297"/>
    <use xlink:href="#DejaVuSans-73" x="147.558594"/>
    <use xlink:href="#DejaVuSans-73" x="199.658203"/>
    <use xlink:href="#DejaVuSans-65" x="251.757812"/>
    <use xlink:href="#DejaVuSans-20" x="313.28125"/>
    <use xlink:href="#DejaVuSans-28" x="345.068359"/>
    <use xlink:href="#DejaVuSans-47" x="384.082031"/>
    <use xlink:href="#DejaVuSans-65" x="461.572266"/>
    <use xlink:href="#DejaVuSans-56" x="523.095703"/>
    <use xlink:href="#DejaVuSans-29" x="591.503906"/>
   </g>
  </g>
  <g id="text_23">
   <!-- N -->
   <g transform="translate(-9.681563 147.740625)rotate(-90)scale(0.1 -0.1)">
    <defs>
     <path id="DejaVuSans-4e" d="M 628 4666 
L 1478 4666 
L 3547 763 
L 3547 4666 
L 4159 4666 
L 4159 0 
L 3309 0 
L 1241 3903 
L 1241 0 
L 628 0 
L 628 4666 
z
" transform="scale(0.015625)"/>
    </defs>
    <use xlink:href="#DejaVuSans-4e"/>
   </g>
  </g>
 </g>
 <defs>
  <clipPath id="p5b9af193eb">
   <rect x="35.45024" y="39.57447" width="393.54952" height="93.55428"/>
  </clipPath>
  <clipPath id="pe18d6860d5">
   <rect x="35.45024" y="174.767355" width="393.54952" height="93.55428"/>
  </clipPath>
 </defs>
</svg>
