<?xml version="1.0" encoding="utf-8" standalone="no"?>
<!DOCTYPE svg PUBLIC "-//W3C//DTD SVG 1.1//EN"
  "http://www.w3.org/Graphics/SVG/1.1/DTD/svg11.dtd">
<svg xmlns:xlink="http://www.w3.org/1999/xlink" width="432pt" height="288pt" viewBox="0 0 432 288" xmlns="http://www.w3.org/2000/svg" version="1.1">
 <metadata>
  <rdf:RDF xmlns:dc="http://purl.org/dc/elements/1.1/" xmlns:cc="http://creativecommons.org/ns#" xmlns:rdf="http://www.w3.org/1999/02/22-rdf-syntax-ns#">
   <cc:Work>
    <dc:type rdf:resource="http://purl.org/dc/dcmitype/StillImage"/>
    <dc:date>2022-06-15T17:39:36.107435</dc:date>
    <dc:format>image/svg+xml</dc:format>
    <dc:creator>
     <cc:Agent>
      <dc:title>Matplotlib v3.5.0, https://matplotlib.org/</dc:title>
     </cc:Agent>
    </dc:creator>
   </cc:Work>
  </rdf:RDF>
 </metadata>
 <defs>
  <style type="text/css">*{stroke-linejoin: round; stroke-linecap: butt}</style>
 </defs>
 <g id="figure_1">
  <g id="patch_1">
   <path d="M 0 288 
L 432 288 
L 432 0 
L 0 0 
L 0 288 
z
" style="fill: none"/>
  </g>
  <g id="axes_1">
   <g id="patch_2">
    <path d="M 29.08774 88.384455 
L 428.99976 88.384455 
L 428.99976 36.212595 
L 29.08774 36.212595 
z
" style="fill: #ffffff"/>
   </g>
   <g id="patch_3">
    <path d="M 47.265559 88.384455 
L 50.901123 88.384455 
L 50.901123 39.709708 
L 47.265559 39.709708 
z
" clip-path="url(#pfbc2cc7ed3)" style="fill: #1f77b4"/>
   </g>
   <g id="patch_4">
    <path d="M 50.901123 88.384455 
L 54.536687 88.384455 
L 54.536687 38.696969 
L 50.901123 38.696969 
z
" clip-path="url(#pfbc2cc7ed3)" style="fill: #1f77b4"/>
   </g>
   <g id="patch_5">
    <path d="M 54.536687 88.384455 
L 58.172251 88.384455 
L 58.172251 39.266635 
L 54.536687 39.266635 
z
" clip-path="url(#pfbc2cc7ed3)" style="fill: #1f77b4"/>
   </g>
   <g id="patch_6">
    <path d="M 58.172251 88.384455 
L 61.807814 88.384455 
L 61.807814 41.545296 
L 58.172251 41.545296 
z
" clip-path="url(#pfbc2cc7ed3)" style="fill: #1f77b4"/>
   </g>
   <g id="patch_7">
    <path d="M 61.807814 88.384455 
L 65.443378 88.384455 
L 65.443378 42.747924 
L 61.807814 42.747924 
z
" clip-path="url(#pfbc2cc7ed3)" style="fill: #1f77b4"/>
   </g>
   <g id="patch_8">
    <path d="M 65.443378 88.384455 
L 69.078942 88.384455 
L 69.078942 46.482397 
L 65.443378 46.482397 
z
" clip-path="url(#pfbc2cc7ed3)" style="fill: #1f77b4"/>
   </g>
   <g id="patch_9">
    <path d="M 69.078942 88.384455 
L 72.714506 88.384455 
L 72.714506 50.596647 
L 69.078942 50.596647 
z
" clip-path="url(#pfbc2cc7ed3)" style="fill: #1f77b4"/>
   </g>
   <g id="patch_10">
    <path d="M 72.714506 88.384455 
L 76.35007 88.384455 
L 76.35007 48.254689 
L 72.714506 48.254689 
z
" clip-path="url(#pfbc2cc7ed3)" style="fill: #1f77b4"/>
   </g>
   <g id="patch_11">
    <path d="M 76.35007 88.384455 
L 79.985633 88.384455 
L 79.985633 50.343463 
L 76.35007 50.343463 
z
" clip-path="url(#pfbc2cc7ed3)" style="fill: #1f77b4"/>
   </g>
   <g id="patch_12">
    <path d="M 79.985633 88.384455 
L 83.621197 88.384455 
L 83.621197 53.318382 
L 79.985633 53.318382 
z
" clip-path="url(#pfbc2cc7ed3)" style="fill: #1f77b4"/>
   </g>
   <g id="patch_13">
    <path d="M 83.621197 88.384455 
L 87.256761 88.384455 
L 87.256761 54.584305 
L 83.621197 54.584305 
z
" clip-path="url(#pfbc2cc7ed3)" style="fill: #1f77b4"/>
   </g>
   <g id="patch_14">
    <path d="M 87.256761 88.384455 
L 90.892325 88.384455 
L 90.892325 55.027379 
L 87.256761 55.027379 
z
" clip-path="url(#pfbc2cc7ed3)" style="fill: #1f77b4"/>
   </g>
   <g id="patch_15">
    <path d="M 90.892325 88.384455 
L 94.527889 88.384455 
L 94.527889 60.407552 
L 90.892325 60.407552 
z
" clip-path="url(#pfbc2cc7ed3)" style="fill: #1f77b4"/>
   </g>
   <g id="patch_16">
    <path d="M 94.527889 88.384455 
L 98.163453 88.384455 
L 98.163453 60.850625 
L 94.527889 60.850625 
z
" clip-path="url(#pfbc2cc7ed3)" style="fill: #1f77b4"/>
   </g>
   <g id="patch_17">
    <path d="M 98.163453 88.384455 
L 101.799016 88.384455 
L 101.799016 61.989956 
L 98.163453 61.989956 
z
" clip-path="url(#pfbc2cc7ed3)" style="fill: #1f77b4"/>
   </g>
   <g id="patch_18">
    <path d="M 101.799016 88.384455 
L 105.43458 88.384455 
L 105.43458 61.92666 
L 101.799016 61.92666 
z
" clip-path="url(#pfbc2cc7ed3)" style="fill: #1f77b4"/>
   </g>
   <g id="patch_19">
    <path d="M 105.43458 88.384455 
L 109.070144 88.384455 
L 109.070144 64.331914 
L 105.43458 64.331914 
z
" clip-path="url(#pfbc2cc7ed3)" style="fill: #1f77b4"/>
   </g>
   <g id="patch_20">
    <path d="M 109.070144 88.384455 
L 112.705708 88.384455 
L 112.705708 65.534541 
L 109.070144 65.534541 
z
" clip-path="url(#pfbc2cc7ed3)" style="fill: #1f77b4"/>
   </g>
   <g id="patch_21">
    <path d="M 112.705708 88.384455 
L 116.341272 88.384455 
L 116.341272 67.37013 
L 112.705708 67.37013 
z
" clip-path="url(#pfbc2cc7ed3)" style="fill: #1f77b4"/>
   </g>
   <g id="patch_22">
    <path d="M 116.341272 88.384455 
L 119.976835 88.384455 
L 119.976835 68.129684 
L 116.341272 68.129684 
z
" clip-path="url(#pfbc2cc7ed3)" style="fill: #1f77b4"/>
   </g>
   <g id="patch_23">
    <path d="M 119.976835 88.384455 
L 123.612399 88.384455 
L 123.612399 68.699349 
L 119.976835 68.699349 
z
" clip-path="url(#pfbc2cc7ed3)" style="fill: #1f77b4"/>
   </g>
   <g id="patch_24">
    <path d="M 123.612399 88.384455 
L 127.247963 88.384455 
L 127.247963 72.560415 
L 123.612399 72.560415 
z
" clip-path="url(#pfbc2cc7ed3)" style="fill: #1f77b4"/>
   </g>
   <g id="patch_25">
    <path d="M 127.247963 88.384455 
L 130.883527 88.384455 
L 130.883527 73.319969 
L 127.247963 73.319969 
z
" clip-path="url(#pfbc2cc7ed3)" style="fill: #1f77b4"/>
   </g>
   <g id="patch_26">
    <path d="M 130.883527 88.384455 
L 134.519091 88.384455 
L 134.519091 72.940192 
L 130.883527 72.940192 
z
" clip-path="url(#pfbc2cc7ed3)" style="fill: #1f77b4"/>
   </g>
   <g id="patch_27">
    <path d="M 134.519091 88.384455 
L 138.154655 88.384455 
L 138.154655 73.256673 
L 134.519091 73.256673 
z
" clip-path="url(#pfbc2cc7ed3)" style="fill: #1f77b4"/>
   </g>
   <g id="patch_28">
    <path d="M 138.154655 88.384455 
L 141.790218 88.384455 
L 141.790218 74.079523 
L 138.154655 74.079523 
z
" clip-path="url(#pfbc2cc7ed3)" style="fill: #1f77b4"/>
   </g>
   <g id="patch_29">
    <path d="M 141.790218 88.384455 
L 145.425782 88.384455 
L 145.425782 75.092261 
L 141.790218 75.092261 
z
" clip-path="url(#pfbc2cc7ed3)" style="fill: #1f77b4"/>
   </g>
   <g id="patch_30">
    <path d="M 145.425782 88.384455 
L 149.061346 88.384455 
L 149.061346 75.155558 
L 145.425782 75.155558 
z
" clip-path="url(#pfbc2cc7ed3)" style="fill: #1f77b4"/>
   </g>
   <g id="patch_31">
    <path d="M 149.061346 88.384455 
L 152.69691 88.384455 
L 152.69691 75.218854 
L 149.061346 75.218854 
z
" clip-path="url(#pfbc2cc7ed3)" style="fill: #1f77b4"/>
   </g>
   <g id="patch_32">
    <path d="M 152.69691 88.384455 
L 156.332474 88.384455 
L 156.332474 76.294888 
L 152.69691 76.294888 
z
" clip-path="url(#pfbc2cc7ed3)" style="fill: #1f77b4"/>
   </g>
   <g id="patch_33">
    <path d="M 156.332474 88.384455 
L 159.968037 88.384455 
L 159.968037 76.105 
L 156.332474 76.105 
z
" clip-path="url(#pfbc2cc7ed3)" style="fill: #1f77b4"/>
   </g>
   <g id="patch_34">
    <path d="M 159.968037 88.384455 
L 163.603601 88.384455 
L 163.603601 74.965669 
L 159.968037 74.965669 
z
" clip-path="url(#pfbc2cc7ed3)" style="fill: #1f77b4"/>
   </g>
   <g id="patch_35">
    <path d="M 163.603601 88.384455 
L 167.239165 88.384455 
L 167.239165 76.484777 
L 163.603601 76.484777 
z
" clip-path="url(#pfbc2cc7ed3)" style="fill: #1f77b4"/>
   </g>
   <g id="patch_36">
    <path d="M 167.239165 88.384455 
L 170.874729 88.384455 
L 170.874729 75.155558 
L 167.239165 75.155558 
z
" clip-path="url(#pfbc2cc7ed3)" style="fill: #1f77b4"/>
   </g>
   <g id="patch_37">
    <path d="M 170.874729 88.384455 
L 174.510293 88.384455 
L 174.510293 76.168296 
L 170.874729 76.168296 
z
" clip-path="url(#pfbc2cc7ed3)" style="fill: #1f77b4"/>
   </g>
   <g id="patch_38">
    <path d="M 174.510293 88.384455 
L 178.145857 88.384455 
L 178.145857 76.801258 
L 174.510293 76.801258 
z
" clip-path="url(#pfbc2cc7ed3)" style="fill: #1f77b4"/>
   </g>
   <g id="patch_39">
    <path d="M 178.145857 88.384455 
L 181.78142 88.384455 
L 181.78142 77.940589 
L 178.145857 77.940589 
z
" clip-path="url(#pfbc2cc7ed3)" style="fill: #1f77b4"/>
   </g>
   <g id="patch_40">
    <path d="M 181.78142 88.384455 
L 185.416984 88.384455 
L 185.416984 76.421481 
L 181.78142 76.421481 
z
" clip-path="url(#pfbc2cc7ed3)" style="fill: #1f77b4"/>
   </g>
   <g id="patch_41">
    <path d="M 185.416984 88.384455 
L 189.052548 88.384455 
L 189.052548 75.155558 
L 185.416984 75.155558 
z
" clip-path="url(#pfbc2cc7ed3)" style="fill: #1f77b4"/>
   </g>
   <g id="patch_42">
    <path d="M 189.052548 88.384455 
L 192.688112 88.384455 
L 192.688112 76.105 
L 189.052548 76.105 
z
" clip-path="url(#pfbc2cc7ed3)" style="fill: #1f77b4"/>
   </g>
   <g id="patch_43">
    <path d="M 192.688112 88.384455 
L 196.323676 88.384455 
L 196.323676 77.687404 
L 192.688112 77.687404 
z
" clip-path="url(#pfbc2cc7ed3)" style="fill: #1f77b4"/>
   </g>
   <g id="patch_44">
    <path d="M 196.323676 88.384455 
L 199.959239 88.384455 
L 199.959239 77.307627 
L 196.323676 77.307627 
z
" clip-path="url(#pfbc2cc7ed3)" style="fill: #1f77b4"/>
   </g>
   <g id="patch_45">
    <path d="M 199.959239 88.384455 
L 203.594803 88.384455 
L 203.594803 78.193773 
L 199.959239 78.193773 
z
" clip-path="url(#pfbc2cc7ed3)" style="fill: #1f77b4"/>
   </g>
   <g id="patch_46">
    <path d="M 203.594803 88.384455 
L 207.230367 88.384455 
L 207.230367 76.358185 
L 203.594803 76.358185 
z
" clip-path="url(#pfbc2cc7ed3)" style="fill: #1f77b4"/>
   </g>
   <g id="patch_47">
    <path d="M 207.230367 88.384455 
L 210.865931 88.384455 
L 210.865931 77.117738 
L 207.230367 77.117738 
z
" clip-path="url(#pfbc2cc7ed3)" style="fill: #1f77b4"/>
   </g>
   <g id="patch_48">
    <path d="M 210.865931 88.384455 
L 214.501495 88.384455 
L 214.501495 75.978408 
L 210.865931 75.978408 
z
" clip-path="url(#pfbc2cc7ed3)" style="fill: #1f77b4"/>
   </g>
   <g id="patch_49">
    <path d="M 214.501495 88.384455 
L 218.137059 88.384455 
L 218.137059 77.181035 
L 214.501495 77.181035 
z
" clip-path="url(#pfbc2cc7ed3)" style="fill: #1f77b4"/>
   </g>
   <g id="patch_50">
    <path d="M 218.137059 88.384455 
L 221.772622 88.384455 
L 221.772622 74.902373 
L 218.137059 74.902373 
z
" clip-path="url(#pfbc2cc7ed3)" style="fill: #1f77b4"/>
   </g>
   <g id="patch_51">
    <path d="M 221.772622 88.384455 
L 225.408186 88.384455 
L 225.408186 76.737962 
L 221.772622 76.737962 
z
" clip-path="url(#pfbc2cc7ed3)" style="fill: #1f77b4"/>
   </g>
   <g id="patch_52">
    <path d="M 225.408186 88.384455 
L 229.04375 88.384455 
L 229.04375 77.687404 
L 225.408186 77.687404 
z
" clip-path="url(#pfbc2cc7ed3)" style="fill: #1f77b4"/>
   </g>
   <g id="patch_53">
    <path d="M 229.04375 88.384455 
L 232.679314 88.384455 
L 232.679314 77.054442 
L 229.04375 77.054442 
z
" clip-path="url(#pfbc2cc7ed3)" style="fill: #1f77b4"/>
   </g>
   <g id="patch_54">
    <path d="M 232.679314 88.384455 
L 236.314878 88.384455 
L 236.314878 78.257069 
L 232.679314 78.257069 
z
" clip-path="url(#pfbc2cc7ed3)" style="fill: #1f77b4"/>
   </g>
   <g id="patch_55">
    <path d="M 236.314878 88.384455 
L 239.950441 88.384455 
L 239.950441 75.788519 
L 236.314878 75.788519 
z
" clip-path="url(#pfbc2cc7ed3)" style="fill: #1f77b4"/>
   </g>
   <g id="patch_56">
    <path d="M 239.950441 88.384455 
L 243.586005 88.384455 
L 243.586005 78.130477 
L 239.950441 78.130477 
z
" clip-path="url(#pfbc2cc7ed3)" style="fill: #1f77b4"/>
   </g>
   <g id="patch_57">
    <path d="M 243.586005 88.384455 
L 247.221569 88.384455 
L 247.221569 78.257069 
L 243.586005 78.257069 
z
" clip-path="url(#pfbc2cc7ed3)" style="fill: #1f77b4"/>
   </g>
   <g id="patch_58">
    <path d="M 247.221569 88.384455 
L 250.857133 88.384455 
L 250.857133 76.737962 
L 247.221569 76.737962 
z
" clip-path="url(#pfbc2cc7ed3)" style="fill: #1f77b4"/>
   </g>
   <g id="patch_59">
    <path d="M 250.857133 88.384455 
L 254.492697 88.384455 
L 254.492697 77.624108 
L 250.857133 77.624108 
z
" clip-path="url(#pfbc2cc7ed3)" style="fill: #1f77b4"/>
   </g>
   <g id="patch_60">
    <path d="M 254.492697 88.384455 
L 258.128261 88.384455 
L 258.128261 75.915111 
L 254.492697 75.915111 
z
" clip-path="url(#pfbc2cc7ed3)" style="fill: #1f77b4"/>
   </g>
   <g id="patch_61">
    <path d="M 258.128261 88.384455 
L 261.763824 88.384455 
L 261.763824 76.801258 
L 258.128261 76.801258 
z
" clip-path="url(#pfbc2cc7ed3)" style="fill: #1f77b4"/>
   </g>
   <g id="patch_62">
    <path d="M 261.763824 88.384455 
L 265.399388 88.384455 
L 265.399388 75.092261 
L 261.763824 75.092261 
z
" clip-path="url(#pfbc2cc7ed3)" style="fill: #1f77b4"/>
   </g>
   <g id="patch_63">
    <path d="M 265.399388 88.384455 
L 269.034952 88.384455 
L 269.034952 77.181035 
L 265.399388 77.181035 
z
" clip-path="url(#pfbc2cc7ed3)" style="fill: #1f77b4"/>
   </g>
   <g id="patch_64">
    <path d="M 269.034952 88.384455 
L 272.670516 88.384455 
L 272.670516 76.105 
L 269.034952 76.105 
z
" clip-path="url(#pfbc2cc7ed3)" style="fill: #1f77b4"/>
   </g>
   <g id="patch_65">
    <path d="M 272.670516 88.384455 
L 276.30608 88.384455 
L 276.30608 75.345446 
L 272.670516 75.345446 
z
" clip-path="url(#pfbc2cc7ed3)" style="fill: #1f77b4"/>
   </g>
   <g id="patch_66">
    <path d="M 276.30608 88.384455 
L 279.941643 88.384455 
L 279.941643 75.978408 
L 276.30608 75.978408 
z
" clip-path="url(#pfbc2cc7ed3)" style="fill: #1f77b4"/>
   </g>
   <g id="patch_67">
    <path d="M 279.941643 88.384455 
L 283.577207 88.384455 
L 283.577207 77.181035 
L 279.941643 77.181035 
z
" clip-path="url(#pfbc2cc7ed3)" style="fill: #1f77b4"/>
   </g>
   <g id="patch_68">
    <path d="M 283.577207 88.384455 
L 287.212771 88.384455 
L 287.212771 76.421481 
L 283.577207 76.421481 
z
" clip-path="url(#pfbc2cc7ed3)" style="fill: #1f77b4"/>
   </g>
   <g id="patch_69">
    <path d="M 287.212771 88.384455 
L 290.848335 88.384455 
L 290.848335 76.737962 
L 287.212771 76.737962 
z
" clip-path="url(#pfbc2cc7ed3)" style="fill: #1f77b4"/>
   </g>
   <g id="patch_70">
    <path d="M 290.848335 88.384455 
L 294.483899 88.384455 
L 294.483899 77.117738 
L 290.848335 77.117738 
z
" clip-path="url(#pfbc2cc7ed3)" style="fill: #1f77b4"/>
   </g>
   <g id="patch_71">
    <path d="M 294.483899 88.384455 
L 298.119463 88.384455 
L 298.119463 78.067181 
L 294.483899 78.067181 
z
" clip-path="url(#pfbc2cc7ed3)" style="fill: #1f77b4"/>
   </g>
   <g id="patch_72">
    <path d="M 298.119463 88.384455 
L 301.755026 88.384455 
L 301.755026 77.054442 
L 298.119463 77.054442 
z
" clip-path="url(#pfbc2cc7ed3)" style="fill: #1f77b4"/>
   </g>
   <g id="patch_73">
    <path d="M 301.755026 88.384455 
L 305.39059 88.384455 
L 305.39059 76.674665 
L 301.755026 76.674665 
z
" clip-path="url(#pfbc2cc7ed3)" style="fill: #1f77b4"/>
   </g>
   <g id="patch_74">
    <path d="M 305.39059 88.384455 
L 309.026154 88.384455 
L 309.026154 76.105 
L 305.39059 76.105 
z
" clip-path="url(#pfbc2cc7ed3)" style="fill: #1f77b4"/>
   </g>
   <g id="patch_75">
    <path d="M 309.026154 88.384455 
L 312.661718 88.384455 
L 312.661718 76.484777 
L 309.026154 76.484777 
z
" clip-path="url(#pfbc2cc7ed3)" style="fill: #1f77b4"/>
   </g>
   <g id="patch_76">
    <path d="M 312.661718 88.384455 
L 316.297282 88.384455 
L 316.297282 77.370923 
L 312.661718 77.370923 
z
" clip-path="url(#pfbc2cc7ed3)" style="fill: #1f77b4"/>
   </g>
   <g id="patch_77">
    <path d="M 316.297282 88.384455 
L 319.932845 88.384455 
L 319.932845 76.801258 
L 316.297282 76.801258 
z
" clip-path="url(#pfbc2cc7ed3)" style="fill: #1f77b4"/>
   </g>
   <g id="patch_78">
    <path d="M 319.932845 88.384455 
L 323.568409 88.384455 
L 323.568409 75.978408 
L 319.932845 75.978408 
z
" clip-path="url(#pfbc2cc7ed3)" style="fill: #1f77b4"/>
   </g>
   <g id="patch_79">
    <path d="M 323.568409 88.384455 
L 327.203973 88.384455 
L 327.203973 77.054442 
L 323.568409 77.054442 
z
" clip-path="url(#pfbc2cc7ed3)" style="fill: #1f77b4"/>
   </g>
   <g id="patch_80">
    <path d="M 327.203973 88.384455 
L 330.839537 88.384455 
L 330.839537 77.877292 
L 327.203973 77.877292 
z
" clip-path="url(#pfbc2cc7ed3)" style="fill: #1f77b4"/>
   </g>
   <g id="patch_81">
    <path d="M 330.839537 88.384455 
L 334.475101 88.384455 
L 334.475101 75.725223 
L 330.839537 75.725223 
z
" clip-path="url(#pfbc2cc7ed3)" style="fill: #1f77b4"/>
   </g>
   <g id="patch_82">
    <path d="M 334.475101 88.384455 
L 338.110665 88.384455 
L 338.110665 76.548073 
L 334.475101 76.548073 
z
" clip-path="url(#pfbc2cc7ed3)" style="fill: #1f77b4"/>
   </g>
   <g id="patch_83">
    <path d="M 338.110665 88.384455 
L 341.746228 88.384455 
L 341.746228 76.105 
L 338.110665 76.105 
z
" clip-path="url(#pfbc2cc7ed3)" style="fill: #1f77b4"/>
   </g>
   <g id="patch_84">
    <path d="M 341.746228 88.384455 
L 345.381792 88.384455 
L 345.381792 76.548073 
L 341.746228 76.548073 
z
" clip-path="url(#pfbc2cc7ed3)" style="fill: #1f77b4"/>
   </g>
   <g id="patch_85">
    <path d="M 345.381792 88.384455 
L 349.017356 88.384455 
L 349.017356 75.345446 
L 345.381792 75.345446 
z
" clip-path="url(#pfbc2cc7ed3)" style="fill: #1f77b4"/>
   </g>
   <g id="patch_86">
    <path d="M 349.017356 88.384455 
L 352.65292 88.384455 
L 352.65292 77.687404 
L 349.017356 77.687404 
z
" clip-path="url(#pfbc2cc7ed3)" style="fill: #1f77b4"/>
   </g>
   <g id="patch_87">
    <path d="M 352.65292 88.384455 
L 356.288484 88.384455 
L 356.288484 76.358185 
L 352.65292 76.358185 
z
" clip-path="url(#pfbc2cc7ed3)" style="fill: #1f77b4"/>
   </g>
   <g id="patch_88">
    <path d="M 356.288484 88.384455 
L 359.924047 88.384455 
L 359.924047 78.067181 
L 356.288484 78.067181 
z
" clip-path="url(#pfbc2cc7ed3)" style="fill: #1f77b4"/>
   </g>
   <g id="patch_89">
    <path d="M 359.924047 88.384455 
L 363.559611 88.384455 
L 363.559611 76.991146 
L 359.924047 76.991146 
z
" clip-path="url(#pfbc2cc7ed3)" style="fill: #1f77b4"/>
   </g>
   <g id="patch_90">
    <path d="M 363.559611 88.384455 
L 367.195175 88.384455 
L 367.195175 75.788519 
L 363.559611 75.788519 
z
" clip-path="url(#pfbc2cc7ed3)" style="fill: #1f77b4"/>
   </g>
   <g id="patch_91">
    <path d="M 367.195175 88.384455 
L 370.830739 88.384455 
L 370.830739 77.307627 
L 367.195175 77.307627 
z
" clip-path="url(#pfbc2cc7ed3)" style="fill: #1f77b4"/>
   </g>
   <g id="patch_92">
    <path d="M 370.830739 88.384455 
L 374.466303 88.384455 
L 374.466303 76.801258 
L 370.830739 76.801258 
z
" clip-path="url(#pfbc2cc7ed3)" style="fill: #1f77b4"/>
   </g>
   <g id="patch_93">
    <path d="M 374.466303 88.384455 
L 378.101867 88.384455 
L 378.101867 76.484777 
L 374.466303 76.484777 
z
" clip-path="url(#pfbc2cc7ed3)" style="fill: #1f77b4"/>
   </g>
   <g id="patch_94">
    <path d="M 378.101867 88.384455 
L 381.73743 88.384455 
L 381.73743 78.130477 
L 378.101867 78.130477 
z
" clip-path="url(#pfbc2cc7ed3)" style="fill: #1f77b4"/>
   </g>
   <g id="patch_95">
    <path d="M 381.73743 88.384455 
L 385.372994 88.384455 
L 385.372994 78.193773 
L 381.73743 78.193773 
z
" clip-path="url(#pfbc2cc7ed3)" style="fill: #1f77b4"/>
   </g>
   <g id="patch_96">
    <path d="M 385.372994 88.384455 
L 389.008558 88.384455 
L 389.008558 76.168296 
L 385.372994 76.168296 
z
" clip-path="url(#pfbc2cc7ed3)" style="fill: #1f77b4"/>
   </g>
   <g id="patch_97">
    <path d="M 389.008558 88.384455 
L 392.644122 88.384455 
L 392.644122 77.307627 
L 389.008558 77.307627 
z
" clip-path="url(#pfbc2cc7ed3)" style="fill: #1f77b4"/>
   </g>
   <g id="patch_98">
    <path d="M 392.644122 88.384455 
L 396.279686 88.384455 
L 396.279686 75.915111 
L 392.644122 75.915111 
z
" clip-path="url(#pfbc2cc7ed3)" style="fill: #1f77b4"/>
   </g>
   <g id="patch_99">
    <path d="M 396.279686 88.384455 
L 399.915249 88.384455 
L 399.915249 75.535334 
L 396.279686 75.535334 
z
" clip-path="url(#pfbc2cc7ed3)" style="fill: #1f77b4"/>
   </g>
   <g id="patch_100">
    <path d="M 399.915249 88.384455 
L 403.550813 88.384455 
L 403.550813 77.877292 
L 399.915249 77.877292 
z
" clip-path="url(#pfbc2cc7ed3)" style="fill: #1f77b4"/>
   </g>
   <g id="patch_101">
    <path d="M 403.550813 88.384455 
L 407.186377 88.384455 
L 407.186377 76.864554 
L 403.550813 76.864554 
z
" clip-path="url(#pfbc2cc7ed3)" style="fill: #1f77b4"/>
   </g>
   <g id="patch_102">
    <path d="M 407.186377 88.384455 
L 410.821941 88.384455 
L 410.821941 77.117738 
L 407.186377 77.117738 
z
" clip-path="url(#pfbc2cc7ed3)" style="fill: #1f77b4"/>
   </g>
   <g id="matplotlib.axis_1">
    <g id="xtick_1">
     <g id="line2d_1">
      <defs>
       <path id="md29e626c64" d="M 0 0 
L 0 3.5 
" style="stroke: #000000; stroke-width: 0.8"/>
      </defs>
      <g>
       <use xlink:href="#md29e626c64" x="43.592406" y="88.384455" style="stroke: #000000; stroke-width: 0.8"/>
      </g>
     </g>
     <g id="text_1">
      <!-- 0 -->
      <g transform="translate(40.411156 102.982892)scale(0.1 -0.1)">
       <defs>
        <path id="DejaVuSans-30" d="M 2034 4250 
Q 1547 4250 1301 3770 
Q 1056 3291 1056 2328 
Q 1056 1369 1301 889 
Q 1547 409 2034 409 
Q 2525 409 2770 889 
Q 3016 1369 3016 2328 
Q 3016 3291 2770 3770 
Q 2525 4250 2034 4250 
z
M 2034 4750 
Q 2819 4750 3233 4129 
Q 3647 3509 3647 2328 
Q 3647 1150 3233 529 
Q 2819 -91 2034 -91 
Q 1250 -91 836 529 
Q 422 1150 422 2328 
Q 422 3509 836 4129 
Q 1250 4750 2034 4750 
z
" transform="scale(0.015625)"/>
       </defs>
       <use xlink:href="#DejaVuSans-30"/>
      </g>
     </g>
    </g>
    <g id="xtick_2">
     <g id="line2d_2">
      <g>
       <use xlink:href="#md29e626c64" x="117.041441" y="88.384455" style="stroke: #000000; stroke-width: 0.8"/>
      </g>
     </g>
     <g id="text_2">
      <!-- 1000 -->
      <g transform="translate(104.316441 102.982892)scale(0.1 -0.1)">
       <defs>
        <path id="DejaVuSans-31" d="M 794 531 
L 1825 531 
L 1825 4091 
L 703 3866 
L 703 4441 
L 1819 4666 
L 2450 4666 
L 2450 531 
L 3481 531 
L 3481 0 
L 794 0 
L 794 531 
z
" transform="scale(0.015625)"/>
       </defs>
       <use xlink:href="#DejaVuSans-31"/>
       <use xlink:href="#DejaVuSans-30" x="63.623047"/>
       <use xlink:href="#DejaVuSans-30" x="127.246094"/>
       <use xlink:href="#DejaVuSans-30" x="190.869141"/>
      </g>
     </g>
    </g>
    <g id="xtick_3">
     <g id="line2d_3">
      <g>
       <use xlink:href="#md29e626c64" x="190.490476" y="88.384455" style="stroke: #000000; stroke-width: 0.8"/>
      </g>
     </g>
     <g id="text_3">
      <!-- 2000 -->
      <g transform="translate(177.765476 102.982892)scale(0.1 -0.1)">
       <defs>
        <path id="DejaVuSans-32" d="M 1228 531 
L 3431 531 
L 3431 0 
L 469 0 
L 469 531 
Q 828 903 1448 1529 
Q 2069 2156 2228 2338 
Q 2531 2678 2651 2914 
Q 2772 3150 2772 3378 
Q 2772 3750 2511 3984 
Q 2250 4219 1831 4219 
Q 1534 4219 1204 4116 
Q 875 4013 500 3803 
L 500 4441 
Q 881 4594 1212 4672 
Q 1544 4750 1819 4750 
Q 2544 4750 2975 4387 
Q 3406 4025 3406 3419 
Q 3406 3131 3298 2873 
Q 3191 2616 2906 2266 
Q 2828 2175 2409 1742 
Q 1991 1309 1228 531 
z
" transform="scale(0.015625)"/>
       </defs>
       <use xlink:href="#DejaVuSans-32"/>
       <use xlink:href="#DejaVuSans-30" x="63.623047"/>
       <use xlink:href="#DejaVuSans-30" x="127.246094"/>
       <use xlink:href="#DejaVuSans-30" x="190.869141"/>
      </g>
     </g>
    </g>
    <g id="xtick_4">
     <g id="line2d_4">
      <g>
       <use xlink:href="#md29e626c64" x="263.939511" y="88.384455" style="stroke: #000000; stroke-width: 0.8"/>
      </g>
     </g>
     <g id="text_4">
      <!-- 3000 -->
      <g transform="translate(251.214511 102.982892)scale(0.1 -0.1)">
       <defs>
        <path id="DejaVuSans-33" d="M 2597 2516 
Q 3050 2419 3304 2112 
Q 3559 1806 3559 1356 
Q 3559 666 3084 287 
Q 2609 -91 1734 -91 
Q 1441 -91 1130 -33 
Q 819 25 488 141 
L 488 750 
Q 750 597 1062 519 
Q 1375 441 1716 441 
Q 2309 441 2620 675 
Q 2931 909 2931 1356 
Q 2931 1769 2642 2001 
Q 2353 2234 1838 2234 
L 1294 2234 
L 1294 2753 
L 1863 2753 
Q 2328 2753 2575 2939 
Q 2822 3125 2822 3475 
Q 2822 3834 2567 4026 
Q 2313 4219 1838 4219 
Q 1578 4219 1281 4162 
Q 984 4106 628 3988 
L 628 4550 
Q 988 4650 1302 4700 
Q 1616 4750 1894 4750 
Q 2613 4750 3031 4423 
Q 3450 4097 3450 3541 
Q 3450 3153 3228 2886 
Q 3006 2619 2597 2516 
z
" transform="scale(0.015625)"/>
       </defs>
       <use xlink:href="#DejaVuSans-33"/>
       <use xlink:href="#DejaVuSans-30" x="63.623047"/>
       <use xlink:href="#DejaVuSans-30" x="127.246094"/>
       <use xlink:href="#DejaVuSans-30" x="190.869141"/>
      </g>
     </g>
    </g>
    <g id="xtick_5">
     <g id="line2d_5">
      <g>
       <use xlink:href="#md29e626c64" x="337.388546" y="88.384455" style="stroke: #000000; stroke-width: 0.8"/>
      </g>
     </g>
     <g id="text_5">
      <!-- 4000 -->
      <g transform="translate(324.663546 102.982892)scale(0.1 -0.1)">
       <defs>
        <path id="DejaVuSans-34" d="M 2419 4116 
L 825 1625 
L 2419 1625 
L 2419 4116 
z
M 2253 4666 
L 3047 4666 
L 3047 1625 
L 3713 1625 
L 3713 1100 
L 3047 1100 
L 3047 0 
L 2419 0 
L 2419 1100 
L 313 1100 
L 313 1709 
L 2253 4666 
z
" transform="scale(0.015625)"/>
       </defs>
       <use xlink:href="#DejaVuSans-34"/>
       <use xlink:href="#DejaVuSans-30" x="63.623047"/>
       <use xlink:href="#DejaVuSans-30" x="127.246094"/>
       <use xlink:href="#DejaVuSans-30" x="190.869141"/>
      </g>
     </g>
    </g>
    <g id="xtick_6">
     <g id="line2d_6">
      <g>
       <use xlink:href="#md29e626c64" x="410.837581" y="88.384455" style="stroke: #000000; stroke-width: 0.8"/>
      </g>
     </g>
     <g id="text_6">
      <!-- 5000 -->
      <g transform="translate(398.112581 102.982892)scale(0.1 -0.1)">
       <defs>
        <path id="DejaVuSans-35" d="M 691 4666 
L 3169 4666 
L 3169 4134 
L 1269 4134 
L 1269 2991 
Q 1406 3038 1543 3061 
Q 1681 3084 1819 3084 
Q 2600 3084 3056 2656 
Q 3513 2228 3513 1497 
Q 3513 744 3044 326 
Q 2575 -91 1722 -91 
Q 1428 -91 1123 -41 
Q 819 9 494 109 
L 494 744 
Q 775 591 1075 516 
Q 1375 441 1709 441 
Q 2250 441 2565 725 
Q 2881 1009 2881 1497 
Q 2881 1984 2565 2268 
Q 2250 2553 1709 2553 
Q 1456 2553 1204 2497 
Q 953 2441 691 2322 
L 691 4666 
z
" transform="scale(0.015625)"/>
       </defs>
       <use xlink:href="#DejaVuSans-35"/>
       <use xlink:href="#DejaVuSans-30" x="63.623047"/>
       <use xlink:href="#DejaVuSans-30" x="127.246094"/>
       <use xlink:href="#DejaVuSans-30" x="190.869141"/>
      </g>
     </g>
    </g>
   </g>
   <g id="matplotlib.axis_2">
    <g id="ytick_1">
     <g id="line2d_7">
      <defs>
       <path id="m458770c4c3" d="M 0 0 
L -3.5 0 
" style="stroke: #000000; stroke-width: 0.8"/>
      </defs>
      <g>
       <use xlink:href="#m458770c4c3" x="29.08774" y="88.384455" style="stroke: #000000; stroke-width: 0.8"/>
      </g>
     </g>
     <g id="text_7">
      <!-- 0 -->
      <g transform="translate(15.72524 92.183674)scale(0.1 -0.1)">
       <use xlink:href="#DejaVuSans-30"/>
      </g>
     </g>
    </g>
    <g id="ytick_2">
     <g id="line2d_8">
      <g>
       <use xlink:href="#m458770c4c3" x="29.08774" y="56.736375" style="stroke: #000000; stroke-width: 0.8"/>
      </g>
     </g>
     <g id="text_8">
      <!-- 500 -->
      <g transform="translate(3.00024 60.535594)scale(0.1 -0.1)">
       <use xlink:href="#DejaVuSans-35"/>
       <use xlink:href="#DejaVuSans-30" x="63.623047"/>
       <use xlink:href="#DejaVuSans-30" x="127.246094"/>
      </g>
     </g>
    </g>
   </g>
   <g id="patch_103">
    <path d="M 29.08774 88.384455 
L 29.08774 36.212595 
" style="fill: none; stroke: #000000; stroke-width: 0.8; stroke-linejoin: miter; stroke-linecap: square"/>
   </g>
   <g id="patch_104">
    <path d="M 428.99976 88.384455 
L 428.99976 36.212595 
" style="fill: none; stroke: #000000; stroke-width: 0.8; stroke-linejoin: miter; stroke-linecap: square"/>
   </g>
   <g id="patch_105">
    <path d="M 29.08774 88.384455 
L 428.99976 88.384455 
" style="fill: none; stroke: #000000; stroke-width: 0.8; stroke-linejoin: miter; stroke-linecap: square"/>
   </g>
   <g id="patch_106">
    <path d="M 29.08774 36.212595 
L 428.99976 36.212595 
" style="fill: none; stroke: #000000; stroke-width: 0.8; stroke-linejoin: miter; stroke-linecap: square"/>
   </g>
   <g id="text_9">
    <!-- $M_1$ -->
    <g transform="translate(221.00375 30.212595)scale(0.12 -0.12)">
     <defs>
      <path id="DejaVuSans-Oblique-4d" d="M 1081 4666 
L 2028 4666 
L 2572 1522 
L 4378 4666 
L 5350 4666 
L 4441 0 
L 3828 0 
L 4622 4091 
L 2791 897 
L 2175 897 
L 1581 4103 
L 788 0 
L 172 0 
L 1081 4666 
z
" transform="scale(0.015625)"/>
     </defs>
     <use xlink:href="#DejaVuSans-Oblique-4d" transform="translate(0 0.09375)"/>
     <use xlink:href="#DejaVuSans-31" transform="translate(86.279297 -16.3125)scale(0.7)"/>
    </g>
   </g>
  </g>
  <g id="axes_2">
   <g id="patch_107">
    <path d="M 29.08774 178.353045 
L 428.99976 178.353045 
L 428.99976 126.181185 
L 29.08774 126.181185 
z
" style="fill: #ffffff"/>
   </g>
   <g id="patch_108">
    <path d="M 47.265559 178.353045 
L 50.901123 178.353045 
L 50.901123 128.98204 
L 47.265559 128.98204 
z
" clip-path="url(#pa7435d593d)" style="fill: #1f77b4"/>
   </g>
   <g id="patch_109">
    <path d="M 50.901123 178.353045 
L 54.536687 178.353045 
L 54.536687 130.121371 
L 50.901123 130.121371 
z
" clip-path="url(#pa7435d593d)" style="fill: #1f77b4"/>
   </g>
   <g id="patch_110">
    <path d="M 54.536687 178.353045 
L 58.172251 178.353045 
L 58.172251 129.298521 
L 54.536687 129.298521 
z
" clip-path="url(#pa7435d593d)" style="fill: #1f77b4"/>
   </g>
   <g id="patch_111">
    <path d="M 58.172251 178.353045 
L 61.807814 178.353045 
L 61.807814 133.412771 
L 58.172251 133.412771 
z
" clip-path="url(#pa7435d593d)" style="fill: #1f77b4"/>
   </g>
   <g id="patch_112">
    <path d="M 61.807814 178.353045 
L 65.443378 178.353045 
L 65.443378 133.665956 
L 61.807814 133.665956 
z
" clip-path="url(#pa7435d593d)" style="fill: #1f77b4"/>
   </g>
   <g id="patch_113">
    <path d="M 65.443378 178.353045 
L 69.078942 178.353045 
L 69.078942 135.944618 
L 65.443378 135.944618 
z
" clip-path="url(#pa7435d593d)" style="fill: #1f77b4"/>
   </g>
   <g id="patch_114">
    <path d="M 69.078942 178.353045 
L 72.714506 178.353045 
L 72.714506 137.590318 
L 69.078942 137.590318 
z
" clip-path="url(#pa7435d593d)" style="fill: #1f77b4"/>
   </g>
   <g id="patch_115">
    <path d="M 72.714506 178.353045 
L 76.35007 178.353045 
L 76.35007 140.501941 
L 72.714506 140.501941 
z
" clip-path="url(#pa7435d593d)" style="fill: #1f77b4"/>
   </g>
   <g id="patch_116">
    <path d="M 76.35007 178.353045 
L 79.985633 178.353045 
L 79.985633 138.603056 
L 76.35007 138.603056 
z
" clip-path="url(#pa7435d593d)" style="fill: #1f77b4"/>
   </g>
   <g id="patch_117">
    <path d="M 79.985633 178.353045 
L 83.621197 178.353045 
L 83.621197 141.198199 
L 79.985633 141.198199 
z
" clip-path="url(#pa7435d593d)" style="fill: #1f77b4"/>
   </g>
   <g id="patch_118">
    <path d="M 83.621197 178.353045 
L 87.256761 178.353045 
L 87.256761 144.995969 
L 83.621197 144.995969 
z
" clip-path="url(#pa7435d593d)" style="fill: #1f77b4"/>
   </g>
   <g id="patch_119">
    <path d="M 87.256761 178.353045 
L 90.892325 178.353045 
L 90.892325 145.818819 
L 87.256761 145.818819 
z
" clip-path="url(#pa7435d593d)" style="fill: #1f77b4"/>
   </g>
   <g id="patch_120">
    <path d="M 90.892325 178.353045 
L 94.527889 178.353045 
L 94.527889 149.679884 
L 90.892325 149.679884 
z
" clip-path="url(#pa7435d593d)" style="fill: #1f77b4"/>
   </g>
   <g id="patch_121">
    <path d="M 94.527889 178.353045 
L 98.163453 178.353045 
L 98.163453 150.502735 
L 94.527889 150.502735 
z
" clip-path="url(#pa7435d593d)" style="fill: #1f77b4"/>
   </g>
   <g id="patch_122">
    <path d="M 98.163453 178.353045 
L 101.799016 178.353045 
L 101.799016 152.528212 
L 98.163453 152.528212 
z
" clip-path="url(#pa7435d593d)" style="fill: #1f77b4"/>
   </g>
   <g id="patch_123">
    <path d="M 101.799016 178.353045 
L 105.43458 178.353045 
L 105.43458 153.351062 
L 101.799016 153.351062 
z
" clip-path="url(#pa7435d593d)" style="fill: #1f77b4"/>
   </g>
   <g id="patch_124">
    <path d="M 105.43458 178.353045 
L 109.070144 178.353045 
L 109.070144 154.490393 
L 105.43458 154.490393 
z
" clip-path="url(#pa7435d593d)" style="fill: #1f77b4"/>
   </g>
   <g id="patch_125">
    <path d="M 109.070144 178.353045 
L 112.705708 178.353045 
L 112.705708 158.478051 
L 109.070144 158.478051 
z
" clip-path="url(#pa7435d593d)" style="fill: #1f77b4"/>
   </g>
   <g id="patch_126">
    <path d="M 112.705708 178.353045 
L 116.341272 178.353045 
L 116.341272 160.187047 
L 112.705708 160.187047 
z
" clip-path="url(#pa7435d593d)" style="fill: #1f77b4"/>
   </g>
   <g id="patch_127">
    <path d="M 116.341272 178.353045 
L 119.976835 178.353045 
L 119.976835 159.554085 
L 116.341272 159.554085 
z
" clip-path="url(#pa7435d593d)" style="fill: #1f77b4"/>
   </g>
   <g id="patch_128">
    <path d="M 119.976835 178.353045 
L 123.612399 178.353045 
L 123.612399 159.427493 
L 119.976835 159.427493 
z
" clip-path="url(#pa7435d593d)" style="fill: #1f77b4"/>
   </g>
   <g id="patch_129">
    <path d="M 123.612399 178.353045 
L 127.247963 178.353045 
L 127.247963 162.465709 
L 123.612399 162.465709 
z
" clip-path="url(#pa7435d593d)" style="fill: #1f77b4"/>
   </g>
   <g id="patch_130">
    <path d="M 127.247963 178.353045 
L 130.883527 178.353045 
L 130.883527 163.035374 
L 127.247963 163.035374 
z
" clip-path="url(#pa7435d593d)" style="fill: #1f77b4"/>
   </g>
   <g id="patch_131">
    <path d="M 130.883527 178.353045 
L 134.519091 178.353045 
L 134.519091 164.174705 
L 130.883527 164.174705 
z
" clip-path="url(#pa7435d593d)" style="fill: #1f77b4"/>
   </g>
   <g id="patch_132">
    <path d="M 134.519091 178.353045 
L 138.154655 178.353045 
L 138.154655 162.78219 
L 134.519091 162.78219 
z
" clip-path="url(#pa7435d593d)" style="fill: #1f77b4"/>
   </g>
   <g id="patch_133">
    <path d="M 138.154655 178.353045 
L 141.790218 178.353045 
L 141.790218 165.440628 
L 138.154655 165.440628 
z
" clip-path="url(#pa7435d593d)" style="fill: #1f77b4"/>
   </g>
   <g id="patch_134">
    <path d="M 141.790218 178.353045 
L 145.425782 178.353045 
L 145.425782 165.314036 
L 141.790218 165.314036 
z
" clip-path="url(#pa7435d593d)" style="fill: #1f77b4"/>
   </g>
   <g id="patch_135">
    <path d="M 145.425782 178.353045 
L 149.061346 178.353045 
L 149.061346 165.377332 
L 145.425782 165.377332 
z
" clip-path="url(#pa7435d593d)" style="fill: #1f77b4"/>
   </g>
   <g id="patch_136">
    <path d="M 149.061346 178.353045 
L 152.69691 178.353045 
L 152.69691 166.390071 
L 149.061346 166.390071 
z
" clip-path="url(#pa7435d593d)" style="fill: #1f77b4"/>
   </g>
   <g id="patch_137">
    <path d="M 152.69691 178.353045 
L 156.332474 178.353045 
L 156.332474 166.200182 
L 152.69691 166.200182 
z
" clip-path="url(#pa7435d593d)" style="fill: #1f77b4"/>
   </g>
   <g id="patch_138">
    <path d="M 156.332474 178.353045 
L 159.968037 178.353045 
L 159.968037 165.124148 
L 156.332474 165.124148 
z
" clip-path="url(#pa7435d593d)" style="fill: #1f77b4"/>
   </g>
   <g id="patch_139">
    <path d="M 159.968037 178.353045 
L 163.603601 178.353045 
L 163.603601 166.516663 
L 159.968037 166.516663 
z
" clip-path="url(#pa7435d593d)" style="fill: #1f77b4"/>
   </g>
   <g id="patch_140">
    <path d="M 163.603601 178.353045 
L 167.239165 178.353045 
L 167.239165 166.833144 
L 163.603601 166.833144 
z
" clip-path="url(#pa7435d593d)" style="fill: #1f77b4"/>
   </g>
   <g id="patch_141">
    <path d="M 167.239165 178.353045 
L 170.874729 178.353045 
L 170.874729 165.946998 
L 167.239165 165.946998 
z
" clip-path="url(#pa7435d593d)" style="fill: #1f77b4"/>
   </g>
   <g id="patch_142">
    <path d="M 170.874729 178.353045 
L 174.510293 178.353045 
L 174.510293 165.567221 
L 170.874729 165.567221 
z
" clip-path="url(#pa7435d593d)" style="fill: #1f77b4"/>
   </g>
   <g id="patch_143">
    <path d="M 174.510293 178.353045 
L 178.145857 178.353045 
L 178.145857 166.390071 
L 174.510293 166.390071 
z
" clip-path="url(#pa7435d593d)" style="fill: #1f77b4"/>
   </g>
   <g id="patch_144">
    <path d="M 178.145857 178.353045 
L 181.78142 178.353045 
L 181.78142 165.693813 
L 178.145857 165.693813 
z
" clip-path="url(#pa7435d593d)" style="fill: #1f77b4"/>
   </g>
   <g id="patch_145">
    <path d="M 181.78142 178.353045 
L 185.416984 178.353045 
L 185.416984 167.655994 
L 181.78142 167.655994 
z
" clip-path="url(#pa7435d593d)" style="fill: #1f77b4"/>
   </g>
   <g id="patch_146">
    <path d="M 185.416984 178.353045 
L 189.052548 178.353045 
L 189.052548 167.529402 
L 185.416984 167.529402 
z
" clip-path="url(#pa7435d593d)" style="fill: #1f77b4"/>
   </g>
   <g id="patch_147">
    <path d="M 189.052548 178.353045 
L 192.688112 178.353045 
L 192.688112 164.870963 
L 189.052548 164.870963 
z
" clip-path="url(#pa7435d593d)" style="fill: #1f77b4"/>
   </g>
   <g id="patch_148">
    <path d="M 192.688112 178.353045 
L 196.323676 178.353045 
L 196.323676 166.833144 
L 192.688112 166.833144 
z
" clip-path="url(#pa7435d593d)" style="fill: #1f77b4"/>
   </g>
   <g id="patch_149">
    <path d="M 196.323676 178.353045 
L 199.959239 178.353045 
L 199.959239 166.643255 
L 196.323676 166.643255 
z
" clip-path="url(#pa7435d593d)" style="fill: #1f77b4"/>
   </g>
   <g id="patch_150">
    <path d="M 199.959239 178.353045 
L 203.594803 178.353045 
L 203.594803 165.630517 
L 199.959239 165.630517 
z
" clip-path="url(#pa7435d593d)" style="fill: #1f77b4"/>
   </g>
   <g id="patch_151">
    <path d="M 203.594803 178.353045 
L 207.230367 178.353045 
L 207.230367 165.567221 
L 203.594803 165.567221 
z
" clip-path="url(#pa7435d593d)" style="fill: #1f77b4"/>
   </g>
   <g id="patch_152">
    <path d="M 207.230367 178.353045 
L 210.865931 178.353045 
L 210.865931 167.276217 
L 207.230367 167.276217 
z
" clip-path="url(#pa7435d593d)" style="fill: #1f77b4"/>
   </g>
   <g id="patch_153">
    <path d="M 210.865931 178.353045 
L 214.501495 178.353045 
L 214.501495 165.567221 
L 210.865931 165.567221 
z
" clip-path="url(#pa7435d593d)" style="fill: #1f77b4"/>
   </g>
   <g id="patch_154">
    <path d="M 214.501495 178.353045 
L 218.137059 178.353045 
L 218.137059 166.136886 
L 214.501495 166.136886 
z
" clip-path="url(#pa7435d593d)" style="fill: #1f77b4"/>
   </g>
   <g id="patch_155">
    <path d="M 218.137059 178.353045 
L 221.772622 178.353045 
L 221.772622 164.238001 
L 218.137059 164.238001 
z
" clip-path="url(#pa7435d593d)" style="fill: #1f77b4"/>
   </g>
   <g id="patch_156">
    <path d="M 221.772622 178.353045 
L 225.408186 178.353045 
L 225.408186 167.909179 
L 221.772622 167.909179 
z
" clip-path="url(#pa7435d593d)" style="fill: #1f77b4"/>
   </g>
   <g id="patch_157">
    <path d="M 225.408186 178.353045 
L 229.04375 178.353045 
L 229.04375 166.390071 
L 225.408186 166.390071 
z
" clip-path="url(#pa7435d593d)" style="fill: #1f77b4"/>
   </g>
   <g id="patch_158">
    <path d="M 229.04375 178.353045 
L 232.679314 178.353045 
L 232.679314 166.579959 
L 229.04375 166.579959 
z
" clip-path="url(#pa7435d593d)" style="fill: #1f77b4"/>
   </g>
   <g id="patch_159">
    <path d="M 232.679314 178.353045 
L 236.314878 178.353045 
L 236.314878 164.491186 
L 232.679314 164.491186 
z
" clip-path="url(#pa7435d593d)" style="fill: #1f77b4"/>
   </g>
   <g id="patch_160">
    <path d="M 236.314878 178.353045 
L 239.950441 178.353045 
L 239.950441 165.946998 
L 236.314878 165.946998 
z
" clip-path="url(#pa7435d593d)" style="fill: #1f77b4"/>
   </g>
   <g id="patch_161">
    <path d="M 239.950441 178.353045 
L 243.586005 178.353045 
L 243.586005 167.782586 
L 239.950441 167.782586 
z
" clip-path="url(#pa7435d593d)" style="fill: #1f77b4"/>
   </g>
   <g id="patch_162">
    <path d="M 243.586005 178.353045 
L 247.221569 178.353045 
L 247.221569 166.136886 
L 243.586005 166.136886 
z
" clip-path="url(#pa7435d593d)" style="fill: #1f77b4"/>
   </g>
   <g id="patch_163">
    <path d="M 247.221569 178.353045 
L 250.857133 178.353045 
L 250.857133 166.453367 
L 247.221569 166.453367 
z
" clip-path="url(#pa7435d593d)" style="fill: #1f77b4"/>
   </g>
   <g id="patch_164">
    <path d="M 250.857133 178.353045 
L 254.492697 178.353045 
L 254.492697 167.339513 
L 250.857133 167.339513 
z
" clip-path="url(#pa7435d593d)" style="fill: #1f77b4"/>
   </g>
   <g id="patch_165">
    <path d="M 254.492697 178.353045 
L 258.128261 178.353045 
L 258.128261 166.07359 
L 254.492697 166.07359 
z
" clip-path="url(#pa7435d593d)" style="fill: #1f77b4"/>
   </g>
   <g id="patch_166">
    <path d="M 258.128261 178.353045 
L 261.763824 178.353045 
L 261.763824 166.010294 
L 258.128261 166.010294 
z
" clip-path="url(#pa7435d593d)" style="fill: #1f77b4"/>
   </g>
   <g id="patch_167">
    <path d="M 261.763824 178.353045 
L 265.399388 178.353045 
L 265.399388 167.655994 
L 261.763824 167.655994 
z
" clip-path="url(#pa7435d593d)" style="fill: #1f77b4"/>
   </g>
   <g id="patch_168">
    <path d="M 265.399388 178.353045 
L 269.034952 178.353045 
L 269.034952 166.136886 
L 265.399388 166.136886 
z
" clip-path="url(#pa7435d593d)" style="fill: #1f77b4"/>
   </g>
   <g id="patch_169">
    <path d="M 269.034952 178.353045 
L 272.670516 178.353045 
L 272.670516 166.453367 
L 269.034952 166.453367 
z
" clip-path="url(#pa7435d593d)" style="fill: #1f77b4"/>
   </g>
   <g id="patch_170">
    <path d="M 272.670516 178.353045 
L 276.30608 178.353045 
L 276.30608 166.453367 
L 272.670516 166.453367 
z
" clip-path="url(#pa7435d593d)" style="fill: #1f77b4"/>
   </g>
   <g id="patch_171">
    <path d="M 276.30608 178.353045 
L 279.941643 178.353045 
L 279.941643 166.579959 
L 276.30608 166.579959 
z
" clip-path="url(#pa7435d593d)" style="fill: #1f77b4"/>
   </g>
   <g id="patch_172">
    <path d="M 279.941643 178.353045 
L 283.577207 178.353045 
L 283.577207 165.187444 
L 279.941643 165.187444 
z
" clip-path="url(#pa7435d593d)" style="fill: #1f77b4"/>
   </g>
   <g id="patch_173">
    <path d="M 283.577207 178.353045 
L 287.212771 178.353045 
L 287.212771 166.453367 
L 283.577207 166.453367 
z
" clip-path="url(#pa7435d593d)" style="fill: #1f77b4"/>
   </g>
   <g id="patch_174">
    <path d="M 287.212771 178.353045 
L 290.848335 178.353045 
L 290.848335 168.225659 
L 287.212771 168.225659 
z
" clip-path="url(#pa7435d593d)" style="fill: #1f77b4"/>
   </g>
   <g id="patch_175">
    <path d="M 290.848335 178.353045 
L 294.483899 178.353045 
L 294.483899 166.326775 
L 290.848335 166.326775 
z
" clip-path="url(#pa7435d593d)" style="fill: #1f77b4"/>
   </g>
   <g id="patch_176">
    <path d="M 294.483899 178.353045 
L 298.119463 178.353045 
L 298.119463 164.238001 
L 294.483899 164.238001 
z
" clip-path="url(#pa7435d593d)" style="fill: #1f77b4"/>
   </g>
   <g id="patch_177">
    <path d="M 298.119463 178.353045 
L 301.755026 178.353045 
L 301.755026 165.820405 
L 298.119463 165.820405 
z
" clip-path="url(#pa7435d593d)" style="fill: #1f77b4"/>
   </g>
   <g id="patch_178">
    <path d="M 301.755026 178.353045 
L 305.39059 178.353045 
L 305.39059 166.263478 
L 301.755026 166.263478 
z
" clip-path="url(#pa7435d593d)" style="fill: #1f77b4"/>
   </g>
   <g id="patch_179">
    <path d="M 305.39059 178.353045 
L 309.026154 178.353045 
L 309.026154 167.402809 
L 305.39059 167.402809 
z
" clip-path="url(#pa7435d593d)" style="fill: #1f77b4"/>
   </g>
   <g id="patch_180">
    <path d="M 309.026154 178.353045 
L 312.661718 178.353045 
L 312.661718 165.883701 
L 309.026154 165.883701 
z
" clip-path="url(#pa7435d593d)" style="fill: #1f77b4"/>
   </g>
   <g id="patch_181">
    <path d="M 312.661718 178.353045 
L 316.297282 178.353045 
L 316.297282 164.554482 
L 312.661718 164.554482 
z
" clip-path="url(#pa7435d593d)" style="fill: #1f77b4"/>
   </g>
   <g id="patch_182">
    <path d="M 316.297282 178.353045 
L 319.932845 178.353045 
L 319.932845 166.516663 
L 316.297282 166.516663 
z
" clip-path="url(#pa7435d593d)" style="fill: #1f77b4"/>
   </g>
   <g id="patch_183">
    <path d="M 319.932845 178.353045 
L 323.568409 178.353045 
L 323.568409 166.516663 
L 319.932845 166.516663 
z
" clip-path="url(#pa7435d593d)" style="fill: #1f77b4"/>
   </g>
   <g id="patch_184">
    <path d="M 323.568409 178.353045 
L 327.203973 178.353045 
L 327.203973 167.972475 
L 323.568409 167.972475 
z
" clip-path="url(#pa7435d593d)" style="fill: #1f77b4"/>
   </g>
   <g id="patch_185">
    <path d="M 327.203973 178.353045 
L 330.839537 178.353045 
L 330.839537 165.946998 
L 327.203973 165.946998 
z
" clip-path="url(#pa7435d593d)" style="fill: #1f77b4"/>
   </g>
   <g id="patch_186">
    <path d="M 330.839537 178.353045 
L 334.475101 178.353045 
L 334.475101 167.592698 
L 330.839537 167.592698 
z
" clip-path="url(#pa7435d593d)" style="fill: #1f77b4"/>
   </g>
   <g id="patch_187">
    <path d="M 334.475101 178.353045 
L 338.110665 178.353045 
L 338.110665 167.592698 
L 334.475101 167.592698 
z
" clip-path="url(#pa7435d593d)" style="fill: #1f77b4"/>
   </g>
   <g id="patch_188">
    <path d="M 338.110665 178.353045 
L 341.746228 178.353045 
L 341.746228 165.820405 
L 338.110665 165.820405 
z
" clip-path="url(#pa7435d593d)" style="fill: #1f77b4"/>
   </g>
   <g id="patch_189">
    <path d="M 341.746228 178.353045 
L 345.381792 178.353045 
L 345.381792 165.503924 
L 341.746228 165.503924 
z
" clip-path="url(#pa7435d593d)" style="fill: #1f77b4"/>
   </g>
   <g id="patch_190">
    <path d="M 345.381792 178.353045 
L 349.017356 178.353045 
L 349.017356 166.579959 
L 345.381792 166.579959 
z
" clip-path="url(#pa7435d593d)" style="fill: #1f77b4"/>
   </g>
   <g id="patch_191">
    <path d="M 349.017356 178.353045 
L 352.65292 178.353045 
L 352.65292 166.706552 
L 349.017356 166.706552 
z
" clip-path="url(#pa7435d593d)" style="fill: #1f77b4"/>
   </g>
   <g id="patch_192">
    <path d="M 352.65292 178.353045 
L 356.288484 178.353045 
L 356.288484 165.883701 
L 352.65292 165.883701 
z
" clip-path="url(#pa7435d593d)" style="fill: #1f77b4"/>
   </g>
   <g id="patch_193">
    <path d="M 356.288484 178.353045 
L 359.924047 178.353045 
L 359.924047 168.668732 
L 356.288484 168.668732 
z
" clip-path="url(#pa7435d593d)" style="fill: #1f77b4"/>
   </g>
   <g id="patch_194">
    <path d="M 359.924047 178.353045 
L 363.559611 178.353045 
L 363.559611 166.89644 
L 359.924047 166.89644 
z
" clip-path="url(#pa7435d593d)" style="fill: #1f77b4"/>
   </g>
   <g id="patch_195">
    <path d="M 363.559611 178.353045 
L 367.195175 178.353045 
L 367.195175 168.099067 
L 363.559611 168.099067 
z
" clip-path="url(#pa7435d593d)" style="fill: #1f77b4"/>
   </g>
   <g id="patch_196">
    <path d="M 367.195175 178.353045 
L 370.830739 178.353045 
L 370.830739 166.516663 
L 367.195175 166.516663 
z
" clip-path="url(#pa7435d593d)" style="fill: #1f77b4"/>
   </g>
   <g id="patch_197">
    <path d="M 370.830739 178.353045 
L 374.466303 178.353045 
L 374.466303 166.706552 
L 370.830739 166.706552 
z
" clip-path="url(#pa7435d593d)" style="fill: #1f77b4"/>
   </g>
   <g id="patch_198">
    <path d="M 374.466303 178.353045 
L 378.101867 178.353045 
L 378.101867 168.478844 
L 374.466303 168.478844 
z
" clip-path="url(#pa7435d593d)" style="fill: #1f77b4"/>
   </g>
   <g id="patch_199">
    <path d="M 378.101867 178.353045 
L 381.73743 178.353045 
L 381.73743 167.529402 
L 378.101867 167.529402 
z
" clip-path="url(#pa7435d593d)" style="fill: #1f77b4"/>
   </g>
   <g id="patch_200">
    <path d="M 381.73743 178.353045 
L 385.372994 178.353045 
L 385.372994 167.339513 
L 381.73743 167.339513 
z
" clip-path="url(#pa7435d593d)" style="fill: #1f77b4"/>
   </g>
   <g id="patch_201">
    <path d="M 385.372994 178.353045 
L 389.008558 178.353045 
L 389.008558 167.339513 
L 385.372994 167.339513 
z
" clip-path="url(#pa7435d593d)" style="fill: #1f77b4"/>
   </g>
   <g id="patch_202">
    <path d="M 389.008558 178.353045 
L 392.644122 178.353045 
L 392.644122 166.516663 
L 389.008558 166.516663 
z
" clip-path="url(#pa7435d593d)" style="fill: #1f77b4"/>
   </g>
   <g id="patch_203">
    <path d="M 392.644122 178.353045 
L 396.279686 178.353045 
L 396.279686 166.516663 
L 392.644122 166.516663 
z
" clip-path="url(#pa7435d593d)" style="fill: #1f77b4"/>
   </g>
   <g id="patch_204">
    <path d="M 396.279686 178.353045 
L 399.915249 178.353045 
L 399.915249 166.89644 
L 396.279686 166.89644 
z
" clip-path="url(#pa7435d593d)" style="fill: #1f77b4"/>
   </g>
   <g id="patch_205">
    <path d="M 399.915249 178.353045 
L 403.550813 178.353045 
L 403.550813 167.023032 
L 399.915249 167.023032 
z
" clip-path="url(#pa7435d593d)" style="fill: #1f77b4"/>
   </g>
   <g id="patch_206">
    <path d="M 403.550813 178.353045 
L 407.186377 178.353045 
L 407.186377 165.820405 
L 403.550813 165.820405 
z
" clip-path="url(#pa7435d593d)" style="fill: #1f77b4"/>
   </g>
   <g id="patch_207">
    <path d="M 407.186377 178.353045 
L 410.821941 178.353045 
L 410.821941 167.845882 
L 407.186377 167.845882 
z
" clip-path="url(#pa7435d593d)" style="fill: #1f77b4"/>
   </g>
   <g id="matplotlib.axis_3">
    <g id="xtick_7">
     <g id="line2d_9">
      <g>
       <use xlink:href="#md29e626c64" x="43.590683" y="178.353045" style="stroke: #000000; stroke-width: 0.8"/>
      </g>
     </g>
     <g id="text_10">
      <!-- 0 -->
      <g transform="translate(40.409433 192.951482)scale(0.1 -0.1)">
       <use xlink:href="#DejaVuSans-30"/>
      </g>
     </g>
    </g>
    <g id="xtick_8">
     <g id="line2d_10">
      <g>
       <use xlink:href="#md29e626c64" x="117.038824" y="178.353045" style="stroke: #000000; stroke-width: 0.8"/>
      </g>
     </g>
     <g id="text_11">
      <!-- 1000 -->
      <g transform="translate(104.313824 192.951482)scale(0.1 -0.1)">
       <use xlink:href="#DejaVuSans-31"/>
       <use xlink:href="#DejaVuSans-30" x="63.623047"/>
       <use xlink:href="#DejaVuSans-30" x="127.246094"/>
       <use xlink:href="#DejaVuSans-30" x="190.869141"/>
      </g>
     </g>
    </g>
    <g id="xtick_9">
     <g id="line2d_11">
      <g>
       <use xlink:href="#md29e626c64" x="190.486965" y="178.353045" style="stroke: #000000; stroke-width: 0.8"/>
      </g>
     </g>
     <g id="text_12">
      <!-- 2000 -->
      <g transform="translate(177.761965 192.951482)scale(0.1 -0.1)">
       <use xlink:href="#DejaVuSans-32"/>
       <use xlink:href="#DejaVuSans-30" x="63.623047"/>
       <use xlink:href="#DejaVuSans-30" x="127.246094"/>
       <use xlink:href="#DejaVuSans-30" x="190.869141"/>
      </g>
     </g>
    </g>
    <g id="xtick_10">
     <g id="line2d_12">
      <g>
       <use xlink:href="#md29e626c64" x="263.935107" y="178.353045" style="stroke: #000000; stroke-width: 0.8"/>
      </g>
     </g>
     <g id="text_13">
      <!-- 3000 -->
      <g transform="translate(251.210107 192.951482)scale(0.1 -0.1)">
       <use xlink:href="#DejaVuSans-33"/>
       <use xlink:href="#DejaVuSans-30" x="63.623047"/>
       <use xlink:href="#DejaVuSans-30" x="127.246094"/>
       <use xlink:href="#DejaVuSans-30" x="190.869141"/>
      </g>
     </g>
    </g>
    <g id="xtick_11">
     <g id="line2d_13">
      <g>
       <use xlink:href="#md29e626c64" x="337.383248" y="178.353045" style="stroke: #000000; stroke-width: 0.8"/>
      </g>
     </g>
     <g id="text_14">
      <!-- 4000 -->
      <g transform="translate(324.658248 192.951482)scale(0.1 -0.1)">
       <use xlink:href="#DejaVuSans-34"/>
       <use xlink:href="#DejaVuSans-30" x="63.623047"/>
       <use xlink:href="#DejaVuSans-30" x="127.246094"/>
       <use xlink:href="#DejaVuSans-30" x="190.869141"/>
      </g>
     </g>
    </g>
    <g id="xtick_12">
     <g id="line2d_14">
      <g>
       <use xlink:href="#md29e626c64" x="410.831389" y="178.353045" style="stroke: #000000; stroke-width: 0.8"/>
      </g>
     </g>
     <g id="text_15">
      <!-- 5000 -->
      <g transform="translate(398.106389 192.951482)scale(0.1 -0.1)">
       <use xlink:href="#DejaVuSans-35"/>
       <use xlink:href="#DejaVuSans-30" x="63.623047"/>
       <use xlink:href="#DejaVuSans-30" x="127.246094"/>
       <use xlink:href="#DejaVuSans-30" x="190.869141"/>
      </g>
     </g>
    </g>
   </g>
   <g id="matplotlib.axis_4">
    <g id="ytick_3">
     <g id="line2d_15">
      <g>
       <use xlink:href="#m458770c4c3" x="29.08774" y="178.353045" style="stroke: #000000; stroke-width: 0.8"/>
      </g>
     </g>
     <g id="text_16">
      <!-- 0 -->
      <g transform="translate(15.72524 182.152264)scale(0.1 -0.1)">
       <use xlink:href="#DejaVuSans-30"/>
      </g>
     </g>
    </g>
    <g id="ytick_4">
     <g id="line2d_16">
      <g>
       <use xlink:href="#m458770c4c3" x="29.08774" y="146.704965" style="stroke: #000000; stroke-width: 0.8"/>
      </g>
     </g>
     <g id="text_17">
      <!-- 500 -->
      <g transform="translate(3.00024 150.504184)scale(0.1 -0.1)">
       <use xlink:href="#DejaVuSans-35"/>
       <use xlink:href="#DejaVuSans-30" x="63.623047"/>
       <use xlink:href="#DejaVuSans-30" x="127.246094"/>
      </g>
     </g>
    </g>
   </g>
   <g id="patch_208">
    <path d="M 29.08774 178.353045 
L 29.08774 126.181185 
" style="fill: none; stroke: #000000; stroke-width: 0.8; stroke-linejoin: miter; stroke-linecap: square"/>
   </g>
   <g id="patch_209">
    <path d="M 428.99976 178.353045 
L 428.99976 126.181185 
" style="fill: none; stroke: #000000; stroke-width: 0.8; stroke-linejoin: miter; stroke-linecap: square"/>
   </g>
   <g id="patch_210">
    <path d="M 29.08774 178.353045 
L 428.99976 178.353045 
" style="fill: none; stroke: #000000; stroke-width: 0.8; stroke-linejoin: miter; stroke-linecap: square"/>
   </g>
   <g id="patch_211">
    <path d="M 29.08774 126.181185 
L 428.99976 126.181185 
" style="fill: none; stroke: #000000; stroke-width: 0.8; stroke-linejoin: miter; stroke-linecap: square"/>
   </g>
   <g id="text_18">
    <!-- $M_2$ -->
    <g transform="translate(221.00375 120.181185)scale(0.12 -0.12)">
     <use xlink:href="#DejaVuSans-Oblique-4d" transform="translate(0 0.09375)"/>
     <use xlink:href="#DejaVuSans-32" transform="translate(86.279297 -16.3125)scale(0.7)"/>
    </g>
   </g>
  </g>
  <g id="axes_3">
   <g id="patch_212">
    <path d="M 29.08774 268.321635 
L 428.99976 268.321635 
L 428.99976 216.149775 
L 29.08774 216.149775 
z
" style="fill: #ffffff"/>
   </g>
   <g id="patch_213">
    <path d="M 47.265559 268.321635 
L 50.901123 268.321635 
L 50.901123 267.372193 
L 47.265559 267.372193 
z
" clip-path="url(#p48edd75824)" style="fill: #1f77b4"/>
   </g>
   <g id="patch_214">
    <path d="M 50.901123 268.321635 
L 54.536687 268.321635 
L 54.536687 266.865823 
L 50.901123 266.865823 
z
" clip-path="url(#p48edd75824)" style="fill: #1f77b4"/>
   </g>
   <g id="patch_215">
    <path d="M 54.536687 268.321635 
L 58.172251 268.321635 
L 58.172251 266.359454 
L 54.536687 266.359454 
z
" clip-path="url(#p48edd75824)" style="fill: #1f77b4"/>
   </g>
   <g id="patch_216">
    <path d="M 58.172251 268.321635 
L 61.807814 268.321635 
L 61.807814 265.916381 
L 58.172251 265.916381 
z
" clip-path="url(#p48edd75824)" style="fill: #1f77b4"/>
   </g>
   <g id="patch_217">
    <path d="M 61.807814 268.321635 
L 65.443378 268.321635 
L 65.443378 265.726492 
L 61.807814 265.726492 
z
" clip-path="url(#p48edd75824)" style="fill: #1f77b4"/>
   </g>
   <g id="patch_218">
    <path d="M 65.443378 268.321635 
L 69.078942 268.321635 
L 69.078942 264.840346 
L 65.443378 264.840346 
z
" clip-path="url(#p48edd75824)" style="fill: #1f77b4"/>
   </g>
   <g id="patch_219">
    <path d="M 69.078942 268.321635 
L 72.714506 268.321635 
L 72.714506 264.840346 
L 69.078942 264.840346 
z
" clip-path="url(#p48edd75824)" style="fill: #1f77b4"/>
   </g>
   <g id="patch_220">
    <path d="M 72.714506 268.321635 
L 76.35007 268.321635 
L 76.35007 263.701015 
L 72.714506 263.701015 
z
" clip-path="url(#p48edd75824)" style="fill: #1f77b4"/>
   </g>
   <g id="patch_221">
    <path d="M 76.35007 268.321635 
L 79.985633 268.321635 
L 79.985633 262.941461 
L 76.35007 262.941461 
z
" clip-path="url(#p48edd75824)" style="fill: #1f77b4"/>
   </g>
   <g id="patch_222">
    <path d="M 79.985633 268.321635 
L 83.621197 268.321635 
L 83.621197 262.561684 
L 79.985633 262.561684 
z
" clip-path="url(#p48edd75824)" style="fill: #1f77b4"/>
   </g>
   <g id="patch_223">
    <path d="M 83.621197 268.321635 
L 87.256761 268.321635 
L 87.256761 262.814869 
L 83.621197 262.814869 
z
" clip-path="url(#p48edd75824)" style="fill: #1f77b4"/>
   </g>
   <g id="patch_224">
    <path d="M 87.256761 268.321635 
L 90.892325 268.321635 
L 90.892325 262.118611 
L 87.256761 262.118611 
z
" clip-path="url(#p48edd75824)" style="fill: #1f77b4"/>
   </g>
   <g id="patch_225">
    <path d="M 90.892325 268.321635 
L 94.527889 268.321635 
L 94.527889 260.915984 
L 90.892325 260.915984 
z
" clip-path="url(#p48edd75824)" style="fill: #1f77b4"/>
   </g>
   <g id="patch_226">
    <path d="M 94.527889 268.321635 
L 98.163453 268.321635 
L 98.163453 261.169169 
L 94.527889 261.169169 
z
" clip-path="url(#p48edd75824)" style="fill: #1f77b4"/>
   </g>
   <g id="patch_227">
    <path d="M 98.163453 268.321635 
L 101.799016 268.321635 
L 101.799016 261.359057 
L 98.163453 261.359057 
z
" clip-path="url(#p48edd75824)" style="fill: #1f77b4"/>
   </g>
   <g id="patch_228">
    <path d="M 101.799016 268.321635 
L 105.43458 268.321635 
L 105.43458 261.548946 
L 101.799016 261.548946 
z
" clip-path="url(#p48edd75824)" style="fill: #1f77b4"/>
   </g>
   <g id="patch_229">
    <path d="M 105.43458 268.321635 
L 109.070144 268.321635 
L 109.070144 260.346319 
L 105.43458 260.346319 
z
" clip-path="url(#p48edd75824)" style="fill: #1f77b4"/>
   </g>
   <g id="patch_230">
    <path d="M 109.070144 268.321635 
L 112.705708 268.321635 
L 112.705708 260.15643 
L 109.070144 260.15643 
z
" clip-path="url(#p48edd75824)" style="fill: #1f77b4"/>
   </g>
   <g id="patch_231">
    <path d="M 112.705708 268.321635 
L 116.341272 268.321635 
L 116.341272 261.359057 
L 112.705708 261.359057 
z
" clip-path="url(#p48edd75824)" style="fill: #1f77b4"/>
   </g>
   <g id="patch_232">
    <path d="M 116.341272 268.321635 
L 119.976835 268.321635 
L 119.976835 260.219727 
L 116.341272 260.219727 
z
" clip-path="url(#p48edd75824)" style="fill: #1f77b4"/>
   </g>
   <g id="patch_233">
    <path d="M 119.976835 268.321635 
L 123.612399 268.321635 
L 123.612399 261.232465 
L 119.976835 261.232465 
z
" clip-path="url(#p48edd75824)" style="fill: #1f77b4"/>
   </g>
   <g id="patch_234">
    <path d="M 123.612399 268.321635 
L 127.247963 268.321635 
L 127.247963 260.97928 
L 123.612399 260.97928 
z
" clip-path="url(#p48edd75824)" style="fill: #1f77b4"/>
   </g>
   <g id="patch_235">
    <path d="M 127.247963 268.321635 
L 130.883527 268.321635 
L 130.883527 259.080396 
L 127.247963 259.080396 
z
" clip-path="url(#p48edd75824)" style="fill: #1f77b4"/>
   </g>
   <g id="patch_236">
    <path d="M 130.883527 268.321635 
L 134.519091 268.321635 
L 134.519091 260.409615 
L 130.883527 260.409615 
z
" clip-path="url(#p48edd75824)" style="fill: #1f77b4"/>
   </g>
   <g id="patch_237">
    <path d="M 134.519091 268.321635 
L 138.154655 268.321635 
L 138.154655 258.51073 
L 134.519091 258.51073 
z
" clip-path="url(#p48edd75824)" style="fill: #1f77b4"/>
   </g>
   <g id="patch_238">
    <path d="M 138.154655 268.321635 
L 141.790218 268.321635 
L 141.790218 258.067657 
L 138.154655 258.067657 
z
" clip-path="url(#p48edd75824)" style="fill: #1f77b4"/>
   </g>
   <g id="patch_239">
    <path d="M 141.790218 268.321635 
L 145.425782 268.321635 
L 145.425782 261.169169 
L 141.790218 261.169169 
z
" clip-path="url(#p48edd75824)" style="fill: #1f77b4"/>
   </g>
   <g id="patch_240">
    <path d="M 145.425782 268.321635 
L 149.061346 268.321635 
L 149.061346 260.472911 
L 145.425782 260.472911 
z
" clip-path="url(#p48edd75824)" style="fill: #1f77b4"/>
   </g>
   <g id="patch_241">
    <path d="M 149.061346 268.321635 
L 152.69691 268.321635 
L 152.69691 258.890507 
L 149.061346 258.890507 
z
" clip-path="url(#p48edd75824)" style="fill: #1f77b4"/>
   </g>
   <g id="patch_242">
    <path d="M 152.69691 268.321635 
L 156.332474 268.321635 
L 156.332474 257.814472 
L 152.69691 257.814472 
z
" clip-path="url(#p48edd75824)" style="fill: #1f77b4"/>
   </g>
   <g id="patch_243">
    <path d="M 156.332474 268.321635 
L 159.968037 268.321635 
L 159.968037 257.814472 
L 156.332474 257.814472 
z
" clip-path="url(#p48edd75824)" style="fill: #1f77b4"/>
   </g>
   <g id="patch_244">
    <path d="M 159.968037 268.321635 
L 163.603601 268.321635 
L 163.603601 257.054918 
L 159.968037 257.054918 
z
" clip-path="url(#p48edd75824)" style="fill: #1f77b4"/>
   </g>
   <g id="patch_245">
    <path d="M 163.603601 268.321635 
L 167.239165 268.321635 
L 167.239165 258.574026 
L 163.603601 258.574026 
z
" clip-path="url(#p48edd75824)" style="fill: #1f77b4"/>
   </g>
   <g id="patch_246">
    <path d="M 167.239165 268.321635 
L 170.874729 268.321635 
L 170.874729 256.295365 
L 167.239165 256.295365 
z
" clip-path="url(#p48edd75824)" style="fill: #1f77b4"/>
   </g>
   <g id="patch_247">
    <path d="M 170.874729 268.321635 
L 174.510293 268.321635 
L 174.510293 256.105476 
L 170.874729 256.105476 
z
" clip-path="url(#p48edd75824)" style="fill: #1f77b4"/>
   </g>
   <g id="patch_248">
    <path d="M 174.510293 268.321635 
L 178.145857 268.321635 
L 178.145857 258.194249 
L 174.510293 258.194249 
z
" clip-path="url(#p48edd75824)" style="fill: #1f77b4"/>
   </g>
   <g id="patch_249">
    <path d="M 178.145857 268.321635 
L 181.78142 268.321635 
L 181.78142 257.118215 
L 178.145857 257.118215 
z
" clip-path="url(#p48edd75824)" style="fill: #1f77b4"/>
   </g>
   <g id="patch_250">
    <path d="M 181.78142 268.321635 
L 185.416984 268.321635 
L 185.416984 255.725699 
L 181.78142 255.725699 
z
" clip-path="url(#p48edd75824)" style="fill: #1f77b4"/>
   </g>
   <g id="patch_251">
    <path d="M 185.416984 268.321635 
L 189.052548 268.321635 
L 189.052548 256.928326 
L 185.416984 256.928326 
z
" clip-path="url(#p48edd75824)" style="fill: #1f77b4"/>
   </g>
   <g id="patch_252">
    <path d="M 189.052548 268.321635 
L 192.688112 268.321635 
L 192.688112 256.86503 
L 189.052548 256.86503 
z
" clip-path="url(#p48edd75824)" style="fill: #1f77b4"/>
   </g>
   <g id="patch_253">
    <path d="M 192.688112 268.321635 
L 196.323676 268.321635 
L 196.323676 256.801734 
L 192.688112 256.801734 
z
" clip-path="url(#p48edd75824)" style="fill: #1f77b4"/>
   </g>
   <g id="patch_254">
    <path d="M 196.323676 268.321635 
L 199.959239 268.321635 
L 199.959239 255.21933 
L 196.323676 255.21933 
z
" clip-path="url(#p48edd75824)" style="fill: #1f77b4"/>
   </g>
   <g id="patch_255">
    <path d="M 199.959239 268.321635 
L 203.594803 268.321635 
L 203.594803 255.599107 
L 199.959239 255.599107 
z
" clip-path="url(#p48edd75824)" style="fill: #1f77b4"/>
   </g>
   <g id="patch_256">
    <path d="M 203.594803 268.321635 
L 207.230367 268.321635 
L 207.230367 255.599107 
L 203.594803 255.599107 
z
" clip-path="url(#p48edd75824)" style="fill: #1f77b4"/>
   </g>
   <g id="patch_257">
    <path d="M 207.230367 268.321635 
L 210.865931 268.321635 
L 210.865931 253.953407 
L 207.230367 253.953407 
z
" clip-path="url(#p48edd75824)" style="fill: #1f77b4"/>
   </g>
   <g id="patch_258">
    <path d="M 210.865931 268.321635 
L 214.501495 268.321635 
L 214.501495 253.003964 
L 210.865931 253.003964 
z
" clip-path="url(#p48edd75824)" style="fill: #1f77b4"/>
   </g>
   <g id="patch_259">
    <path d="M 214.501495 268.321635 
L 218.137059 268.321635 
L 218.137059 254.206591 
L 214.501495 254.206591 
z
" clip-path="url(#p48edd75824)" style="fill: #1f77b4"/>
   </g>
   <g id="patch_260">
    <path d="M 218.137059 268.321635 
L 221.772622 268.321635 
L 221.772622 253.826814 
L 218.137059 253.826814 
z
" clip-path="url(#p48edd75824)" style="fill: #1f77b4"/>
   </g>
   <g id="patch_261">
    <path d="M 221.772622 268.321635 
L 225.408186 268.321635 
L 225.408186 254.206591 
L 221.772622 254.206591 
z
" clip-path="url(#p48edd75824)" style="fill: #1f77b4"/>
   </g>
   <g id="patch_262">
    <path d="M 225.408186 268.321635 
L 229.04375 268.321635 
L 229.04375 252.117818 
L 225.408186 252.117818 
z
" clip-path="url(#p48edd75824)" style="fill: #1f77b4"/>
   </g>
   <g id="patch_263">
    <path d="M 229.04375 268.321635 
L 232.679314 268.321635 
L 232.679314 249.396083 
L 229.04375 249.396083 
z
" clip-path="url(#p48edd75824)" style="fill: #1f77b4"/>
   </g>
   <g id="patch_264">
    <path d="M 232.679314 268.321635 
L 236.314878 268.321635 
L 236.314878 250.092341 
L 232.679314 250.092341 
z
" clip-path="url(#p48edd75824)" style="fill: #1f77b4"/>
   </g>
   <g id="patch_265">
    <path d="M 236.314878 268.321635 
L 239.950441 268.321635 
L 239.950441 251.611449 
L 236.314878 251.611449 
z
" clip-path="url(#p48edd75824)" style="fill: #1f77b4"/>
   </g>
   <g id="patch_266">
    <path d="M 239.950441 268.321635 
L 243.586005 268.321635 
L 243.586005 252.497595 
L 239.950441 252.497595 
z
" clip-path="url(#p48edd75824)" style="fill: #1f77b4"/>
   </g>
   <g id="patch_267">
    <path d="M 243.586005 268.321635 
L 247.221569 268.321635 
L 247.221569 250.725302 
L 243.586005 250.725302 
z
" clip-path="url(#p48edd75824)" style="fill: #1f77b4"/>
   </g>
   <g id="patch_268">
    <path d="M 247.221569 268.321635 
L 250.857133 268.321635 
L 250.857133 250.472118 
L 247.221569 250.472118 
z
" clip-path="url(#p48edd75824)" style="fill: #1f77b4"/>
   </g>
   <g id="patch_269">
    <path d="M 250.857133 268.321635 
L 254.492697 268.321635 
L 254.492697 248.256752 
L 250.857133 248.256752 
z
" clip-path="url(#p48edd75824)" style="fill: #1f77b4"/>
   </g>
   <g id="patch_270">
    <path d="M 254.492697 268.321635 
L 258.128261 268.321635 
L 258.128261 249.016306 
L 254.492697 249.016306 
z
" clip-path="url(#p48edd75824)" style="fill: #1f77b4"/>
   </g>
   <g id="patch_271">
    <path d="M 258.128261 268.321635 
L 261.763824 268.321635 
L 261.763824 248.889714 
L 258.128261 248.889714 
z
" clip-path="url(#p48edd75824)" style="fill: #1f77b4"/>
   </g>
   <g id="patch_272">
    <path d="M 261.763824 268.321635 
L 265.399388 268.321635 
L 265.399388 247.687087 
L 261.763824 247.687087 
z
" clip-path="url(#p48edd75824)" style="fill: #1f77b4"/>
   </g>
   <g id="patch_273">
    <path d="M 265.399388 268.321635 
L 269.034952 268.321635 
L 269.034952 249.965749 
L 265.399388 249.965749 
z
" clip-path="url(#p48edd75824)" style="fill: #1f77b4"/>
   </g>
   <g id="patch_274">
    <path d="M 269.034952 268.321635 
L 272.670516 268.321635 
L 272.670516 248.066864 
L 269.034952 248.066864 
z
" clip-path="url(#p48edd75824)" style="fill: #1f77b4"/>
   </g>
   <g id="patch_275">
    <path d="M 272.670516 268.321635 
L 276.30608 268.321635 
L 276.30608 247.687087 
L 272.670516 247.687087 
z
" clip-path="url(#p48edd75824)" style="fill: #1f77b4"/>
   </g>
   <g id="patch_276">
    <path d="M 276.30608 268.321635 
L 279.941643 268.321635 
L 279.941643 247.623791 
L 276.30608 247.623791 
z
" clip-path="url(#p48edd75824)" style="fill: #1f77b4"/>
   </g>
   <g id="patch_277">
    <path d="M 279.941643 268.321635 
L 283.577207 268.321635 
L 283.577207 247.623791 
L 279.941643 247.623791 
z
" clip-path="url(#p48edd75824)" style="fill: #1f77b4"/>
   </g>
   <g id="patch_278">
    <path d="M 283.577207 268.321635 
L 287.212771 268.321635 
L 287.212771 247.370606 
L 283.577207 247.370606 
z
" clip-path="url(#p48edd75824)" style="fill: #1f77b4"/>
   </g>
   <g id="patch_279">
    <path d="M 287.212771 268.321635 
L 290.848335 268.321635 
L 290.848335 245.345129 
L 287.212771 245.345129 
z
" clip-path="url(#p48edd75824)" style="fill: #1f77b4"/>
   </g>
   <g id="patch_280">
    <path d="M 290.848335 268.321635 
L 294.483899 268.321635 
L 294.483899 246.167979 
L 290.848335 246.167979 
z
" clip-path="url(#p48edd75824)" style="fill: #1f77b4"/>
   </g>
   <g id="patch_281">
    <path d="M 294.483899 268.321635 
L 298.119463 268.321635 
L 298.119463 246.421164 
L 294.483899 246.421164 
z
" clip-path="url(#p48edd75824)" style="fill: #1f77b4"/>
   </g>
   <g id="patch_282">
    <path d="M 298.119463 268.321635 
L 301.755026 268.321635 
L 301.755026 246.167979 
L 298.119463 246.167979 
z
" clip-path="url(#p48edd75824)" style="fill: #1f77b4"/>
   </g>
   <g id="patch_283">
    <path d="M 301.755026 268.321635 
L 305.39059 268.321635 
L 305.39059 244.458983 
L 301.755026 244.458983 
z
" clip-path="url(#p48edd75824)" style="fill: #1f77b4"/>
   </g>
   <g id="patch_284">
    <path d="M 305.39059 268.321635 
L 309.026154 268.321635 
L 309.026154 243.129763 
L 305.39059 243.129763 
z
" clip-path="url(#p48edd75824)" style="fill: #1f77b4"/>
   </g>
   <g id="patch_285">
    <path d="M 309.026154 268.321635 
L 312.661718 268.321635 
L 312.661718 244.395686 
L 309.026154 244.395686 
z
" clip-path="url(#p48edd75824)" style="fill: #1f77b4"/>
   </g>
   <g id="patch_286">
    <path d="M 312.661718 268.321635 
L 316.297282 268.321635 
L 316.297282 244.965352 
L 312.661718 244.965352 
z
" clip-path="url(#p48edd75824)" style="fill: #1f77b4"/>
   </g>
   <g id="patch_287">
    <path d="M 316.297282 268.321635 
L 319.932845 268.321635 
L 319.932845 244.648871 
L 316.297282 244.648871 
z
" clip-path="url(#p48edd75824)" style="fill: #1f77b4"/>
   </g>
   <g id="patch_288">
    <path d="M 319.932845 268.321635 
L 323.568409 268.321635 
L 323.568409 244.648871 
L 319.932845 244.648871 
z
" clip-path="url(#p48edd75824)" style="fill: #1f77b4"/>
   </g>
   <g id="patch_289">
    <path d="M 323.568409 268.321635 
L 327.203973 268.321635 
L 327.203973 241.230878 
L 323.568409 241.230878 
z
" clip-path="url(#p48edd75824)" style="fill: #1f77b4"/>
   </g>
   <g id="patch_290">
    <path d="M 327.203973 268.321635 
L 330.839537 268.321635 
L 330.839537 241.230878 
L 327.203973 241.230878 
z
" clip-path="url(#p48edd75824)" style="fill: #1f77b4"/>
   </g>
   <g id="patch_291">
    <path d="M 330.839537 268.321635 
L 334.475101 268.321635 
L 334.475101 241.484063 
L 330.839537 241.484063 
z
" clip-path="url(#p48edd75824)" style="fill: #1f77b4"/>
   </g>
   <g id="patch_292">
    <path d="M 334.475101 268.321635 
L 338.110665 268.321635 
L 338.110665 240.597917 
L 334.475101 240.597917 
z
" clip-path="url(#p48edd75824)" style="fill: #1f77b4"/>
   </g>
   <g id="patch_293">
    <path d="M 338.110665 268.321635 
L 341.746228 268.321635 
L 341.746228 242.370209 
L 338.110665 242.370209 
z
" clip-path="url(#p48edd75824)" style="fill: #1f77b4"/>
   </g>
   <g id="patch_294">
    <path d="M 341.746228 268.321635 
L 345.381792 268.321635 
L 345.381792 243.889317 
L 341.746228 243.889317 
z
" clip-path="url(#p48edd75824)" style="fill: #1f77b4"/>
   </g>
   <g id="patch_295">
    <path d="M 345.381792 268.321635 
L 349.017356 268.321635 
L 349.017356 244.01591 
L 345.381792 244.01591 
z
" clip-path="url(#p48edd75824)" style="fill: #1f77b4"/>
   </g>
   <g id="patch_296">
    <path d="M 349.017356 268.321635 
L 352.65292 268.321635 
L 352.65292 241.990432 
L 349.017356 241.990432 
z
" clip-path="url(#p48edd75824)" style="fill: #1f77b4"/>
   </g>
   <g id="patch_297">
    <path d="M 352.65292 268.321635 
L 356.288484 268.321635 
L 356.288484 240.344732 
L 352.65292 240.344732 
z
" clip-path="url(#p48edd75824)" style="fill: #1f77b4"/>
   </g>
   <g id="patch_298">
    <path d="M 356.288484 268.321635 
L 359.924047 268.321635 
L 359.924047 241.104286 
L 356.288484 241.104286 
z
" clip-path="url(#p48edd75824)" style="fill: #1f77b4"/>
   </g>
   <g id="patch_299">
    <path d="M 359.924047 268.321635 
L 363.559611 268.321635 
L 363.559611 239.838363 
L 359.924047 239.838363 
z
" clip-path="url(#p48edd75824)" style="fill: #1f77b4"/>
   </g>
   <g id="patch_300">
    <path d="M 363.559611 268.321635 
L 367.195175 268.321635 
L 367.195175 237.053332 
L 363.559611 237.053332 
z
" clip-path="url(#p48edd75824)" style="fill: #1f77b4"/>
   </g>
   <g id="patch_301">
    <path d="M 367.195175 268.321635 
L 370.830739 268.321635 
L 370.830739 240.344732 
L 367.195175 240.344732 
z
" clip-path="url(#p48edd75824)" style="fill: #1f77b4"/>
   </g>
   <g id="patch_302">
    <path d="M 370.830739 268.321635 
L 374.466303 268.321635 
L 374.466303 239.078809 
L 370.830739 239.078809 
z
" clip-path="url(#p48edd75824)" style="fill: #1f77b4"/>
   </g>
   <g id="patch_303">
    <path d="M 374.466303 268.321635 
L 378.101867 268.321635 
L 378.101867 240.028251 
L 374.466303 240.028251 
z
" clip-path="url(#p48edd75824)" style="fill: #1f77b4"/>
   </g>
   <g id="patch_304">
    <path d="M 378.101867 268.321635 
L 381.73743 268.321635 
L 381.73743 240.914398 
L 378.101867 240.914398 
z
" clip-path="url(#p48edd75824)" style="fill: #1f77b4"/>
   </g>
   <g id="patch_305">
    <path d="M 381.73743 268.321635 
L 385.372994 268.321635 
L 385.372994 239.648474 
L 381.73743 239.648474 
z
" clip-path="url(#p48edd75824)" style="fill: #1f77b4"/>
   </g>
   <g id="patch_306">
    <path d="M 385.372994 268.321635 
L 389.008558 268.321635 
L 389.008558 237.939478 
L 385.372994 237.939478 
z
" clip-path="url(#p48edd75824)" style="fill: #1f77b4"/>
   </g>
   <g id="patch_307">
    <path d="M 389.008558 268.321635 
L 392.644122 268.321635 
L 392.644122 238.319255 
L 389.008558 238.319255 
z
" clip-path="url(#p48edd75824)" style="fill: #1f77b4"/>
   </g>
   <g id="patch_308">
    <path d="M 392.644122 268.321635 
L 396.279686 268.321635 
L 396.279686 236.990036 
L 392.644122 236.990036 
z
" clip-path="url(#p48edd75824)" style="fill: #1f77b4"/>
   </g>
   <g id="patch_309">
    <path d="M 396.279686 268.321635 
L 399.915249 268.321635 
L 399.915249 238.699032 
L 396.279686 238.699032 
z
" clip-path="url(#p48edd75824)" style="fill: #1f77b4"/>
   </g>
   <g id="patch_310">
    <path d="M 399.915249 268.321635 
L 403.550813 268.321635 
L 403.550813 238.002774 
L 399.915249 238.002774 
z
" clip-path="url(#p48edd75824)" style="fill: #1f77b4"/>
   </g>
   <g id="patch_311">
    <path d="M 403.550813 268.321635 
L 407.186377 268.321635 
L 407.186377 237.686293 
L 403.550813 237.686293 
z
" clip-path="url(#p48edd75824)" style="fill: #1f77b4"/>
   </g>
   <g id="patch_312">
    <path d="M 407.186377 268.321635 
L 410.821941 268.321635 
L 410.821941 236.863443 
L 407.186377 236.863443 
z
" clip-path="url(#p48edd75824)" style="fill: #1f77b4"/>
   </g>
   <g id="matplotlib.axis_5">
    <g id="xtick_13">
     <g id="line2d_17">
      <g>
       <use xlink:href="#md29e626c64" x="43.025916" y="268.321635" style="stroke: #000000; stroke-width: 0.8"/>
      </g>
     </g>
     <g id="text_19">
      <!-- 0 -->
      <g transform="translate(39.844666 282.920073)scale(0.1 -0.1)">
       <use xlink:href="#DejaVuSans-30"/>
      </g>
     </g>
    </g>
    <g id="xtick_14">
     <g id="line2d_18">
      <g>
       <use xlink:href="#md29e626c64" x="116.585633" y="268.321635" style="stroke: #000000; stroke-width: 0.8"/>
      </g>
     </g>
     <g id="text_20">
      <!-- 1000 -->
      <g transform="translate(103.860633 282.920073)scale(0.1 -0.1)">
       <use xlink:href="#DejaVuSans-31"/>
       <use xlink:href="#DejaVuSans-30" x="63.623047"/>
       <use xlink:href="#DejaVuSans-30" x="127.246094"/>
       <use xlink:href="#DejaVuSans-30" x="190.869141"/>
      </g>
     </g>
    </g>
    <g id="xtick_15">
     <g id="line2d_19">
      <g>
       <use xlink:href="#md29e626c64" x="190.14535" y="268.321635" style="stroke: #000000; stroke-width: 0.8"/>
      </g>
     </g>
     <g id="text_21">
      <!-- 2000 -->
      <g transform="translate(177.42035 282.920073)scale(0.1 -0.1)">
       <use xlink:href="#DejaVuSans-32"/>
       <use xlink:href="#DejaVuSans-30" x="63.623047"/>
       <use xlink:href="#DejaVuSans-30" x="127.246094"/>
       <use xlink:href="#DejaVuSans-30" x="190.869141"/>
      </g>
     </g>
    </g>
    <g id="xtick_16">
     <g id="line2d_20">
      <g>
       <use xlink:href="#md29e626c64" x="263.705068" y="268.321635" style="stroke: #000000; stroke-width: 0.8"/>
      </g>
     </g>
     <g id="text_22">
      <!-- 3000 -->
      <g transform="translate(250.980068 282.920073)scale(0.1 -0.1)">
       <use xlink:href="#DejaVuSans-33"/>
       <use xlink:href="#DejaVuSans-30" x="63.623047"/>
       <use xlink:href="#DejaVuSans-30" x="127.246094"/>
       <use xlink:href="#DejaVuSans-30" x="190.869141"/>
      </g>
     </g>
    </g>
    <g id="xtick_17">
     <g id="line2d_21">
      <g>
       <use xlink:href="#md29e626c64" x="337.264785" y="268.321635" style="stroke: #000000; stroke-width: 0.8"/>
      </g>
     </g>
     <g id="text_23">
      <!-- 4000 -->
      <g transform="translate(324.539785 282.920073)scale(0.1 -0.1)">
       <use xlink:href="#DejaVuSans-34"/>
       <use xlink:href="#DejaVuSans-30" x="63.623047"/>
       <use xlink:href="#DejaVuSans-30" x="127.246094"/>
       <use xlink:href="#DejaVuSans-30" x="190.869141"/>
      </g>
     </g>
    </g>
    <g id="xtick_18">
     <g id="line2d_22">
      <g>
       <use xlink:href="#md29e626c64" x="410.824502" y="268.321635" style="stroke: #000000; stroke-width: 0.8"/>
      </g>
     </g>
     <g id="text_24">
      <!-- 5000 -->
      <g transform="translate(398.099502 282.920073)scale(0.1 -0.1)">
       <use xlink:href="#DejaVuSans-35"/>
       <use xlink:href="#DejaVuSans-30" x="63.623047"/>
       <use xlink:href="#DejaVuSans-30" x="127.246094"/>
       <use xlink:href="#DejaVuSans-30" x="190.869141"/>
      </g>
     </g>
    </g>
   </g>
   <g id="matplotlib.axis_6">
    <g id="ytick_5">
     <g id="line2d_23">
      <g>
       <use xlink:href="#m458770c4c3" x="29.08774" y="268.321635" style="stroke: #000000; stroke-width: 0.8"/>
      </g>
     </g>
     <g id="text_25">
      <!-- 0 -->
      <g transform="translate(15.72524 272.120854)scale(0.1 -0.1)">
       <use xlink:href="#DejaVuSans-30"/>
      </g>
     </g>
    </g>
    <g id="ytick_6">
     <g id="line2d_24">
      <g>
       <use xlink:href="#m458770c4c3" x="29.08774" y="236.673555" style="stroke: #000000; stroke-width: 0.8"/>
      </g>
     </g>
     <g id="text_26">
      <!-- 500 -->
      <g transform="translate(3.00024 240.472774)scale(0.1 -0.1)">
       <use xlink:href="#DejaVuSans-35"/>
       <use xlink:href="#DejaVuSans-30" x="63.623047"/>
       <use xlink:href="#DejaVuSans-30" x="127.246094"/>
      </g>
     </g>
    </g>
   </g>
   <g id="patch_313">
    <path d="M 29.08774 268.321635 
L 29.08774 216.149775 
" style="fill: none; stroke: #000000; stroke-width: 0.8; stroke-linejoin: miter; stroke-linecap: square"/>
   </g>
   <g id="patch_314">
    <path d="M 428.99976 268.321635 
L 428.99976 216.149775 
" style="fill: none; stroke: #000000; stroke-width: 0.8; stroke-linejoin: miter; stroke-linecap: square"/>
   </g>
   <g id="patch_315">
    <path d="M 29.08774 268.321635 
L 428.99976 268.321635 
" style="fill: none; stroke: #000000; stroke-width: 0.8; stroke-linejoin: miter; stroke-linecap: square"/>
   </g>
   <g id="patch_316">
    <path d="M 29.08774 216.149775 
L 428.99976 216.149775 
" style="fill: none; stroke: #000000; stroke-width: 0.8; stroke-linejoin: miter; stroke-linecap: square"/>
   </g>
   <g id="text_27">
    <!-- $M_3$ -->
    <g transform="translate(221.00375 210.149775)scale(0.12 -0.12)">
     <use xlink:href="#DejaVuSans-Oblique-4d" transform="translate(0 0.09375)"/>
     <use xlink:href="#DejaVuSans-33" transform="translate(86.279297 -16.3125)scale(0.7)"/>
    </g>
   </g>
  </g>
  <g id="text_28">
   <!-- Histogramme des paramtres de masse -->
   <g transform="translate(95.4525 12.598365)scale(0.12 -0.12)">
    <defs>
     <path id="DejaVuSans-48" d="M 628 4666 
L 1259 4666 
L 1259 2753 
L 3553 2753 
L 3553 4666 
L 4184 4666 
L 4184 0 
L 3553 0 
L 3553 2222 
L 1259 2222 
L 1259 0 
L 628 0 
L 628 4666 
z
" transform="scale(0.015625)"/>
     <path id="DejaVuSans-69" d="M 603 3500 
L 1178 3500 
L 1178 0 
L 603 0 
L 603 3500 
z
M 603 4863 
L 1178 4863 
L 1178 4134 
L 603 4134 
L 603 4863 
z
" transform="scale(0.015625)"/>
     <path id="DejaVuSans-73" d="M 2834 3397 
L 2834 2853 
Q 2591 2978 2328 3040 
Q 2066 3103 1784 3103 
Q 1356 3103 1142 2972 
Q 928 2841 928 2578 
Q 928 2378 1081 2264 
Q 1234 2150 1697 2047 
L 1894 2003 
Q 2506 1872 2764 1633 
Q 3022 1394 3022 966 
Q 3022 478 2636 193 
Q 2250 -91 1575 -91 
Q 1294 -91 989 -36 
Q 684 19 347 128 
L 347 722 
Q 666 556 975 473 
Q 1284 391 1588 391 
Q 1994 391 2212 530 
Q 2431 669 2431 922 
Q 2431 1156 2273 1281 
Q 2116 1406 1581 1522 
L 1381 1569 
Q 847 1681 609 1914 
Q 372 2147 372 2553 
Q 372 3047 722 3315 
Q 1072 3584 1716 3584 
Q 2034 3584 2315 3537 
Q 2597 3491 2834 3397 
z
" transform="scale(0.015625)"/>
     <path id="DejaVuSans-74" d="M 1172 4494 
L 1172 3500 
L 2356 3500 
L 2356 3053 
L 1172 3053 
L 1172 1153 
Q 1172 725 1289 603 
Q 1406 481 1766 481 
L 2356 481 
L 2356 0 
L 1766 0 
Q 1100 0 847 248 
Q 594 497 594 1153 
L 594 3053 
L 172 3053 
L 172 3500 
L 594 3500 
L 594 4494 
L 1172 4494 
z
" transform="scale(0.015625)"/>
     <path id="DejaVuSans-6f" d="M 1959 3097 
Q 1497 3097 1228 2736 
Q 959 2375 959 1747 
Q 959 1119 1226 758 
Q 1494 397 1959 397 
Q 2419 397 2687 759 
Q 2956 1122 2956 1747 
Q 2956 2369 2687 2733 
Q 2419 3097 1959 3097 
z
M 1959 3584 
Q 2709 3584 3137 3096 
Q 3566 2609 3566 1747 
Q 3566 888 3137 398 
Q 2709 -91 1959 -91 
Q 1206 -91 779 398 
Q 353 888 353 1747 
Q 353 2609 779 3096 
Q 1206 3584 1959 3584 
z
" transform="scale(0.015625)"/>
     <path id="DejaVuSans-67" d="M 2906 1791 
Q 2906 2416 2648 2759 
Q 2391 3103 1925 3103 
Q 1463 3103 1205 2759 
Q 947 2416 947 1791 
Q 947 1169 1205 825 
Q 1463 481 1925 481 
Q 2391 481 2648 825 
Q 2906 1169 2906 1791 
z
M 3481 434 
Q 3481 -459 3084 -895 
Q 2688 -1331 1869 -1331 
Q 1566 -1331 1297 -1286 
Q 1028 -1241 775 -1147 
L 775 -588 
Q 1028 -725 1275 -790 
Q 1522 -856 1778 -856 
Q 2344 -856 2625 -561 
Q 2906 -266 2906 331 
L 2906 616 
Q 2728 306 2450 153 
Q 2172 0 1784 0 
Q 1141 0 747 490 
Q 353 981 353 1791 
Q 353 2603 747 3093 
Q 1141 3584 1784 3584 
Q 2172 3584 2450 3431 
Q 2728 3278 2906 2969 
L 2906 3500 
L 3481 3500 
L 3481 434 
z
" transform="scale(0.015625)"/>
     <path id="DejaVuSans-72" d="M 2631 2963 
Q 2534 3019 2420 3045 
Q 2306 3072 2169 3072 
Q 1681 3072 1420 2755 
Q 1159 2438 1159 1844 
L 1159 0 
L 581 0 
L 581 3500 
L 1159 3500 
L 1159 2956 
Q 1341 3275 1631 3429 
Q 1922 3584 2338 3584 
Q 2397 3584 2469 3576 
Q 2541 3569 2628 3553 
L 2631 2963 
z
" transform="scale(0.015625)"/>
     <path id="DejaVuSans-61" d="M 2194 1759 
Q 1497 1759 1228 1600 
Q 959 1441 959 1056 
Q 959 750 1161 570 
Q 1363 391 1709 391 
Q 2188 391 2477 730 
Q 2766 1069 2766 1631 
L 2766 1759 
L 2194 1759 
z
M 3341 1997 
L 3341 0 
L 2766 0 
L 2766 531 
Q 2569 213 2275 61 
Q 1981 -91 1556 -91 
Q 1019 -91 701 211 
Q 384 513 384 1019 
Q 384 1609 779 1909 
Q 1175 2209 1959 2209 
L 2766 2209 
L 2766 2266 
Q 2766 2663 2505 2880 
Q 2244 3097 1772 3097 
Q 1472 3097 1187 3025 
Q 903 2953 641 2809 
L 641 3341 
Q 956 3463 1253 3523 
Q 1550 3584 1831 3584 
Q 2591 3584 2966 3190 
Q 3341 2797 3341 1997 
z
" transform="scale(0.015625)"/>
     <path id="DejaVuSans-6d" d="M 3328 2828 
Q 3544 3216 3844 3400 
Q 4144 3584 4550 3584 
Q 5097 3584 5394 3201 
Q 5691 2819 5691 2113 
L 5691 0 
L 5113 0 
L 5113 2094 
Q 5113 2597 4934 2840 
Q 4756 3084 4391 3084 
Q 3944 3084 3684 2787 
Q 3425 2491 3425 1978 
L 3425 0 
L 2847 0 
L 2847 2094 
Q 2847 2600 2669 2842 
Q 2491 3084 2119 3084 
Q 1678 3084 1418 2786 
Q 1159 2488 1159 1978 
L 1159 0 
L 581 0 
L 581 3500 
L 1159 3500 
L 1159 2956 
Q 1356 3278 1631 3431 
Q 1906 3584 2284 3584 
Q 2666 3584 2933 3390 
Q 3200 3197 3328 2828 
z
" transform="scale(0.015625)"/>
     <path id="DejaVuSans-65" d="M 3597 1894 
L 3597 1613 
L 953 1613 
Q 991 1019 1311 708 
Q 1631 397 2203 397 
Q 2534 397 2845 478 
Q 3156 559 3463 722 
L 3463 178 
Q 3153 47 2828 -22 
Q 2503 -91 2169 -91 
Q 1331 -91 842 396 
Q 353 884 353 1716 
Q 353 2575 817 3079 
Q 1281 3584 2069 3584 
Q 2775 3584 3186 3129 
Q 3597 2675 3597 1894 
z
M 3022 2063 
Q 3016 2534 2758 2815 
Q 2500 3097 2075 3097 
Q 1594 3097 1305 2825 
Q 1016 2553 972 2059 
L 3022 2063 
z
" transform="scale(0.015625)"/>
     <path id="DejaVuSans-20" transform="scale(0.015625)"/>
     <path id="DejaVuSans-64" d="M 2906 2969 
L 2906 4863 
L 3481 4863 
L 3481 0 
L 2906 0 
L 2906 525 
Q 2725 213 2448 61 
Q 2172 -91 1784 -91 
Q 1150 -91 751 415 
Q 353 922 353 1747 
Q 353 2572 751 3078 
Q 1150 3584 1784 3584 
Q 2172 3584 2448 3432 
Q 2725 3281 2906 2969 
z
M 947 1747 
Q 947 1113 1208 752 
Q 1469 391 1925 391 
Q 2381 391 2643 752 
Q 2906 1113 2906 1747 
Q 2906 2381 2643 2742 
Q 2381 3103 1925 3103 
Q 1469 3103 1208 2742 
Q 947 2381 947 1747 
z
" transform="scale(0.015625)"/>
     <path id="DejaVuSans-70" d="M 1159 525 
L 1159 -1331 
L 581 -1331 
L 581 3500 
L 1159 3500 
L 1159 2969 
Q 1341 3281 1617 3432 
Q 1894 3584 2278 3584 
Q 2916 3584 3314 3078 
Q 3713 2572 3713 1747 
Q 3713 922 3314 415 
Q 2916 -91 2278 -91 
Q 1894 -91 1617 61 
Q 1341 213 1159 525 
z
M 3116 1747 
Q 3116 2381 2855 2742 
Q 2594 3103 2138 3103 
Q 1681 3103 1420 2742 
Q 1159 2381 1159 1747 
Q 1159 1113 1420 752 
Q 1681 391 2138 391 
Q 2594 391 2855 752 
Q 3116 1113 3116 1747 
z
" transform="scale(0.015625)"/>
     <path id="DejaVuSans-e8" d="M 3597 1894 
L 3597 1613 
L 953 1613 
Q 991 1019 1311 708 
Q 1631 397 2203 397 
Q 2534 397 2845 478 
Q 3156 559 3463 722 
L 3463 178 
Q 3153 47 2828 -22 
Q 2503 -91 2169 -91 
Q 1331 -91 842 396 
Q 353 884 353 1716 
Q 353 2575 817 3079 
Q 1281 3584 2069 3584 
Q 2775 3584 3186 3129 
Q 3597 2675 3597 1894 
z
M 3022 2063 
Q 3016 2534 2758 2815 
Q 2500 3097 2075 3097 
Q 1594 3097 1305 2825 
Q 1016 2553 972 2059 
L 3022 2063 
z
M 1579 5119 
L 2460 3950 
L 1982 3950 
L 963 5119 
L 1579 5119 
z
" transform="scale(0.015625)"/>
    </defs>
    <use xlink:href="#DejaVuSans-48"/>
    <use xlink:href="#DejaVuSans-69" x="75.195312"/>
    <use xlink:href="#DejaVuSans-73" x="102.978516"/>
    <use xlink:href="#DejaVuSans-74" x="155.078125"/>
    <use xlink:href="#DejaVuSans-6f" x="194.287109"/>
    <use xlink:href="#DejaVuSans-67" x="255.46875"/>
    <use xlink:href="#DejaVuSans-72" x="318.945312"/>
    <use xlink:href="#DejaVuSans-61" x="360.058594"/>
    <use xlink:href="#DejaVuSans-6d" x="421.337891"/>
    <use xlink:href="#DejaVuSans-6d" x="518.75"/>
    <use xlink:href="#DejaVuSans-65" x="616.162109"/>
    <use xlink:href="#DejaVuSans-20" x="677.685547"/>
    <use xlink:href="#DejaVuSans-64" x="709.472656"/>
    <use xlink:href="#DejaVuSans-65" x="772.949219"/>
    <use xlink:href="#DejaVuSans-73" x="834.472656"/>
    <use xlink:href="#DejaVuSans-20" x="886.572266"/>
    <use xlink:href="#DejaVuSans-70" x="918.359375"/>
    <use xlink:href="#DejaVuSans-61" x="981.835938"/>
    <use xlink:href="#DejaVuSans-72" x="1043.115234"/>
    <use xlink:href="#DejaVuSans-61" x="1084.228516"/>
    <use xlink:href="#DejaVuSans-6d" x="1145.507812"/>
    <use xlink:href="#DejaVuSans-e8" x="1242.919922"/>
    <use xlink:href="#DejaVuSans-74" x="1304.443359"/>
    <use xlink:href="#DejaVuSans-72" x="1343.652344"/>
    <use xlink:href="#DejaVuSans-65" x="1382.515625"/>
    <use xlink:href="#DejaVuSans-73" x="1444.039062"/>
    <use xlink:href="#DejaVuSans-20" x="1496.138672"/>
    <use xlink:href="#DejaVuSans-64" x="1527.925781"/>
    <use xlink:href="#DejaVuSans-65" x="1591.402344"/>
    <use xlink:href="#DejaVuSans-20" x="1652.925781"/>
    <use xlink:href="#DejaVuSans-6d" x="1684.712891"/>
    <use xlink:href="#DejaVuSans-61" x="1782.125"/>
    <use xlink:href="#DejaVuSans-73" x="1843.404297"/>
    <use xlink:href="#DejaVuSans-73" x="1895.503906"/>
    <use xlink:href="#DejaVuSans-65" x="1947.603516"/>
   </g>
  </g>
  <g id="text_29">
   <!-- Masse (GeV) -->
   <g transform="translate(184.474219 302.4)scale(0.1 -0.1)">
    <defs>
     <path id="DejaVuSans-4d" d="M 628 4666 
L 1569 4666 
L 2759 1491 
L 3956 4666 
L 4897 4666 
L 4897 0 
L 4281 0 
L 4281 4097 
L 3078 897 
L 2444 897 
L 1241 4097 
L 1241 0 
L 628 0 
L 628 4666 
z
" transform="scale(0.015625)"/>
     <path id="DejaVuSans-28" d="M 1984 4856 
Q 1566 4138 1362 3434 
Q 1159 2731 1159 2009 
Q 1159 1288 1364 580 
Q 1569 -128 1984 -844 
L 1484 -844 
Q 1016 -109 783 600 
Q 550 1309 550 2009 
Q 550 2706 781 3412 
Q 1013 4119 1484 4856 
L 1984 4856 
z
" transform="scale(0.015625)"/>
     <path id="DejaVuSans-47" d="M 3809 666 
L 3809 1919 
L 2778 1919 
L 2778 2438 
L 4434 2438 
L 4434 434 
Q 4069 175 3628 42 
Q 3188 -91 2688 -91 
Q 1594 -91 976 548 
Q 359 1188 359 2328 
Q 359 3472 976 4111 
Q 1594 4750 2688 4750 
Q 3144 4750 3555 4637 
Q 3966 4525 4313 4306 
L 4313 3634 
Q 3963 3931 3569 4081 
Q 3175 4231 2741 4231 
Q 1884 4231 1454 3753 
Q 1025 3275 1025 2328 
Q 1025 1384 1454 906 
Q 1884 428 2741 428 
Q 3075 428 3337 486 
Q 3600 544 3809 666 
z
" transform="scale(0.015625)"/>
     <path id="DejaVuSans-56" d="M 1831 0 
L 50 4666 
L 709 4666 
L 2188 738 
L 3669 4666 
L 4325 4666 
L 2547 0 
L 1831 0 
z
" transform="scale(0.015625)"/>
     <path id="DejaVuSans-29" d="M 513 4856 
L 1013 4856 
Q 1481 4119 1714 3412 
Q 1947 2706 1947 2009 
Q 1947 1309 1714 600 
Q 1481 -109 1013 -844 
L 513 -844 
Q 928 -128 1133 580 
Q 1338 1288 1338 2009 
Q 1338 2731 1133 3434 
Q 928 4138 513 4856 
z
" transform="scale(0.015625)"/>
    </defs>
    <use xlink:href="#DejaVuSans-4d"/>
    <use xlink:href="#DejaVuSans-61" x="86.279297"/>
    <use xlink:href="#DejaVuSans-73" x="147.558594"/>
    <use xlink:href="#DejaVuSans-73" x="199.658203"/>
    <use xlink:href="#DejaVuSans-65" x="251.757812"/>
    <use xlink:href="#DejaVuSans-20" x="313.28125"/>
    <use xlink:href="#DejaVuSans-28" x="345.068359"/>
    <use xlink:href="#DejaVuSans-47" x="384.082031"/>
    <use xlink:href="#DejaVuSans-65" x="461.572266"/>
    <use xlink:href="#DejaVuSans-56" x="523.095703"/>
    <use xlink:href="#DejaVuSans-29" x="591.503906"/>
   </g>
  </g>
  <g id="text_30">
   <!-- N -->
   <g transform="translate(-9.681563 147.740625)rotate(-90)scale(0.1 -0.1)">
    <defs>
     <path id="DejaVuSans-4e" d="M 628 4666 
L 1478 4666 
L 3547 763 
L 3547 4666 
L 4159 4666 
L 4159 0 
L 3309 0 
L 1241 3903 
L 1241 0 
L 628 0 
L 628 4666 
z
" transform="scale(0.015625)"/>
    </defs>
    <use xlink:href="#DejaVuSans-4e"/>
   </g>
  </g>
 </g>
 <defs>
  <clipPath id="pfbc2cc7ed3">
   <rect x="29.08774" y="36.212595" width="399.91202" height="52.17186"/>
  </clipPath>
  <clipPath id="pa7435d593d">
   <rect x="29.08774" y="126.181185" width="399.91202" height="52.17186"/>
  </clipPath>
  <clipPath id="p48edd75824">
   <rect x="29.08774" y="216.149775" width="399.91202" height="52.17186"/>
  </clipPath>
 </defs>
</svg>
