<?xml version="1.0" encoding="utf-8" standalone="no"?>
<!DOCTYPE svg PUBLIC "-//W3C//DTD SVG 1.1//EN"
  "http://www.w3.org/Graphics/SVG/1.1/DTD/svg11.dtd">
<svg xmlns:xlink="http://www.w3.org/1999/xlink" width="432pt" height="288pt" viewBox="0 0 432 288" xmlns="http://www.w3.org/2000/svg" version="1.1">
 <metadata>
  <rdf:RDF xmlns:dc="http://purl.org/dc/elements/1.1/" xmlns:cc="http://creativecommons.org/ns#" xmlns:rdf="http://www.w3.org/1999/02/22-rdf-syntax-ns#">
   <cc:Work>
    <dc:type rdf:resource="http://purl.org/dc/dcmitype/StillImage"/>
    <dc:date>2022-06-15T17:39:30.891591</dc:date>
    <dc:format>image/svg+xml</dc:format>
    <dc:creator>
     <cc:Agent>
      <dc:title>Matplotlib v3.5.0, https://matplotlib.org/</dc:title>
     </cc:Agent>
    </dc:creator>
   </cc:Work>
  </rdf:RDF>
 </metadata>
 <defs>
  <style type="text/css">*{stroke-linejoin: round; stroke-linecap: butt}</style>
 </defs>
 <g id="figure_1">
  <g id="patch_1">
   <path d="M 0 288 
L 432 288 
L 432 0 
L 0 0 
L 0 288 
z
" style="fill: none"/>
  </g>
  <g id="axes_1">
   <g id="patch_2">
    <path d="M 35.45024 88.081955 
L 428.99976 88.081955 
L 428.99976 35.758845 
L 35.45024 35.758845 
z
" style="fill: #ffffff"/>
   </g>
   <g id="patch_3">
    <path d="M 53.338855 88.081955 
L 56.916577 88.081955 
L 56.916577 88.039034 
L 53.338855 88.039034 
z
" clip-path="url(#p4a97a6d650)" style="fill: #1f77b4"/>
   </g>
   <g id="patch_4">
    <path d="M 56.916577 88.081955 
L 60.4943 88.081955 
L 60.4943 88.081955 
L 56.916577 88.081955 
z
" clip-path="url(#p4a97a6d650)" style="fill: #1f77b4"/>
   </g>
   <g id="patch_5">
    <path d="M 60.4943 88.081955 
L 64.072023 88.081955 
L 64.072023 87.996113 
L 60.4943 87.996113 
z
" clip-path="url(#p4a97a6d650)" style="fill: #1f77b4"/>
   </g>
   <g id="patch_6">
    <path d="M 64.072023 88.081955 
L 67.649746 88.081955 
L 67.649746 87.652743 
L 64.072023 87.652743 
z
" clip-path="url(#p4a97a6d650)" style="fill: #1f77b4"/>
   </g>
   <g id="patch_7">
    <path d="M 67.649746 88.081955 
L 71.227469 88.081955 
L 71.227469 87.652743 
L 67.649746 87.652743 
z
" clip-path="url(#p4a97a6d650)" style="fill: #1f77b4"/>
   </g>
   <g id="patch_8">
    <path d="M 71.227469 88.081955 
L 74.805192 88.081955 
L 74.805192 86.83724 
L 71.227469 86.83724 
z
" clip-path="url(#p4a97a6d650)" style="fill: #1f77b4"/>
   </g>
   <g id="patch_9">
    <path d="M 74.805192 88.081955 
L 78.382915 88.081955 
L 78.382915 86.83724 
L 74.805192 86.83724 
z
" clip-path="url(#p4a97a6d650)" style="fill: #1f77b4"/>
   </g>
   <g id="patch_10">
    <path d="M 78.382915 88.081955 
L 81.960638 88.081955 
L 81.960638 85.80713 
L 78.382915 85.80713 
z
" clip-path="url(#p4a97a6d650)" style="fill: #1f77b4"/>
   </g>
   <g id="patch_11">
    <path d="M 81.960638 88.081955 
L 85.538361 88.081955 
L 85.538361 85.463761 
L 81.960638 85.463761 
z
" clip-path="url(#p4a97a6d650)" style="fill: #1f77b4"/>
   </g>
   <g id="patch_12">
    <path d="M 85.538361 88.081955 
L 89.116084 88.081955 
L 89.116084 84.991627 
L 85.538361 84.991627 
z
" clip-path="url(#p4a97a6d650)" style="fill: #1f77b4"/>
   </g>
   <g id="patch_13">
    <path d="M 89.116084 88.081955 
L 92.693807 88.081955 
L 92.693807 84.648258 
L 89.116084 84.648258 
z
" clip-path="url(#p4a97a6d650)" style="fill: #1f77b4"/>
   </g>
   <g id="patch_14">
    <path d="M 92.693807 88.081955 
L 96.271529 88.081955 
L 96.271529 84.519494 
L 92.693807 84.519494 
z
" clip-path="url(#p4a97a6d650)" style="fill: #1f77b4"/>
   </g>
   <g id="patch_15">
    <path d="M 96.271529 88.081955 
L 99.849252 88.081955 
L 99.849252 83.703991 
L 96.271529 83.703991 
z
" clip-path="url(#p4a97a6d650)" style="fill: #1f77b4"/>
   </g>
   <g id="patch_16">
    <path d="M 99.849252 88.081955 
L 103.426975 88.081955 
L 103.426975 82.845566 
L 99.849252 82.845566 
z
" clip-path="url(#p4a97a6d650)" style="fill: #1f77b4"/>
   </g>
   <g id="patch_17">
    <path d="M 103.426975 88.081955 
L 107.004698 88.081955 
L 107.004698 82.673882 
L 103.426975 82.673882 
z
" clip-path="url(#p4a97a6d650)" style="fill: #1f77b4"/>
   </g>
   <g id="patch_18">
    <path d="M 107.004698 88.081955 
L 110.582421 88.081955 
L 110.582421 81.343324 
L 107.004698 81.343324 
z
" clip-path="url(#p4a97a6d650)" style="fill: #1f77b4"/>
   </g>
   <g id="patch_19">
    <path d="M 110.582421 88.081955 
L 114.160144 88.081955 
L 114.160144 81.858378 
L 110.582421 81.858378 
z
" clip-path="url(#p4a97a6d650)" style="fill: #1f77b4"/>
   </g>
   <g id="patch_20">
    <path d="M 114.160144 88.081955 
L 117.737867 88.081955 
L 117.737867 80.098609 
L 114.160144 80.098609 
z
" clip-path="url(#p4a97a6d650)" style="fill: #1f77b4"/>
   </g>
   <g id="patch_21">
    <path d="M 117.737867 88.081955 
L 121.31559 88.081955 
L 121.31559 79.884002 
L 117.737867 79.884002 
z
" clip-path="url(#p4a97a6d650)" style="fill: #1f77b4"/>
   </g>
   <g id="patch_22">
    <path d="M 121.31559 88.081955 
L 124.893313 88.081955 
L 124.893313 79.326027 
L 121.31559 79.326027 
z
" clip-path="url(#p4a97a6d650)" style="fill: #1f77b4"/>
   </g>
   <g id="patch_23">
    <path d="M 124.893313 88.081955 
L 128.471036 88.081955 
L 128.471036 78.210075 
L 124.893313 78.210075 
z
" clip-path="url(#p4a97a6d650)" style="fill: #1f77b4"/>
   </g>
   <g id="patch_24">
    <path d="M 128.471036 88.081955 
L 132.048759 88.081955 
L 132.048759 79.111421 
L 128.471036 79.111421 
z
" clip-path="url(#p4a97a6d650)" style="fill: #1f77b4"/>
   </g>
   <g id="patch_25">
    <path d="M 132.048759 88.081955 
L 135.626481 88.081955 
L 135.626481 77.351651 
L 132.048759 77.351651 
z
" clip-path="url(#p4a97a6d650)" style="fill: #1f77b4"/>
   </g>
   <g id="patch_26">
    <path d="M 135.626481 88.081955 
L 139.204204 88.081955 
L 139.204204 75.377275 
L 135.626481 75.377275 
z
" clip-path="url(#p4a97a6d650)" style="fill: #1f77b4"/>
   </g>
   <g id="patch_27">
    <path d="M 139.204204 88.081955 
L 142.781927 88.081955 
L 142.781927 75.892329 
L 139.204204 75.892329 
z
" clip-path="url(#p4a97a6d650)" style="fill: #1f77b4"/>
   </g>
   <g id="patch_28">
    <path d="M 142.781927 88.081955 
L 146.35965 88.081955 
L 146.35965 75.978172 
L 142.781927 75.978172 
z
" clip-path="url(#p4a97a6d650)" style="fill: #1f77b4"/>
   </g>
   <g id="patch_29">
    <path d="M 146.35965 88.081955 
L 149.937373 88.081955 
L 149.937373 75.248511 
L 146.35965 75.248511 
z
" clip-path="url(#p4a97a6d650)" style="fill: #1f77b4"/>
   </g>
   <g id="patch_30">
    <path d="M 149.937373 88.081955 
L 153.515096 88.081955 
L 153.515096 74.819299 
L 149.937373 74.819299 
z
" clip-path="url(#p4a97a6d650)" style="fill: #1f77b4"/>
   </g>
   <g id="patch_31">
    <path d="M 153.515096 88.081955 
L 157.092819 88.081955 
L 157.092819 74.433008 
L 153.515096 74.433008 
z
" clip-path="url(#p4a97a6d650)" style="fill: #1f77b4"/>
   </g>
   <g id="patch_32">
    <path d="M 157.092819 88.081955 
L 160.670542 88.081955 
L 160.670542 73.10245 
L 157.092819 73.10245 
z
" clip-path="url(#p4a97a6d650)" style="fill: #1f77b4"/>
   </g>
   <g id="patch_33">
    <path d="M 160.670542 88.081955 
L 164.248265 88.081955 
L 164.248265 70.741783 
L 160.670542 70.741783 
z
" clip-path="url(#p4a97a6d650)" style="fill: #1f77b4"/>
   </g>
   <g id="patch_34">
    <path d="M 164.248265 88.081955 
L 167.825988 88.081955 
L 167.825988 72.158183 
L 164.248265 72.158183 
z
" clip-path="url(#p4a97a6d650)" style="fill: #1f77b4"/>
   </g>
   <g id="patch_35">
    <path d="M 167.825988 88.081955 
L 171.403711 88.081955 
L 171.403711 71.68605 
L 167.825988 71.68605 
z
" clip-path="url(#p4a97a6d650)" style="fill: #1f77b4"/>
   </g>
   <g id="patch_36">
    <path d="M 171.403711 88.081955 
L 174.981433 88.081955 
L 174.981433 71.128074 
L 171.403711 71.128074 
z
" clip-path="url(#p4a97a6d650)" style="fill: #1f77b4"/>
   </g>
   <g id="patch_37">
    <path d="M 174.981433 88.081955 
L 178.559156 88.081955 
L 178.559156 68.810328 
L 174.981433 68.810328 
z
" clip-path="url(#p4a97a6d650)" style="fill: #1f77b4"/>
   </g>
   <g id="patch_38">
    <path d="M 178.559156 88.081955 
L 182.136879 88.081955 
L 182.136879 70.698862 
L 178.559156 70.698862 
z
" clip-path="url(#p4a97a6d650)" style="fill: #1f77b4"/>
   </g>
   <g id="patch_39">
    <path d="M 182.136879 88.081955 
L 185.714602 88.081955 
L 185.714602 70.312571 
L 182.136879 70.312571 
z
" clip-path="url(#p4a97a6d650)" style="fill: #1f77b4"/>
   </g>
   <g id="patch_40">
    <path d="M 185.714602 88.081955 
L 189.292325 88.081955 
L 189.292325 67.951904 
L 185.714602 67.951904 
z
" clip-path="url(#p4a97a6d650)" style="fill: #1f77b4"/>
   </g>
   <g id="patch_41">
    <path d="M 189.292325 88.081955 
L 192.870048 88.081955 
L 192.870048 69.325383 
L 189.292325 69.325383 
z
" clip-path="url(#p4a97a6d650)" style="fill: #1f77b4"/>
   </g>
   <g id="patch_42">
    <path d="M 192.870048 88.081955 
L 196.447771 88.081955 
L 196.447771 67.780219 
L 192.870048 67.780219 
z
" clip-path="url(#p4a97a6d650)" style="fill: #1f77b4"/>
   </g>
   <g id="patch_43">
    <path d="M 196.447771 88.081955 
L 200.025494 88.081955 
L 200.025494 68.424037 
L 196.447771 68.424037 
z
" clip-path="url(#p4a97a6d650)" style="fill: #1f77b4"/>
   </g>
   <g id="patch_44">
    <path d="M 200.025494 88.081955 
L 203.603217 88.081955 
L 203.603217 68.424037 
L 200.025494 68.424037 
z
" clip-path="url(#p4a97a6d650)" style="fill: #1f77b4"/>
   </g>
   <g id="patch_45">
    <path d="M 203.603217 88.081955 
L 207.18094 88.081955 
L 207.18094 67.694377 
L 203.603217 67.694377 
z
" clip-path="url(#p4a97a6d650)" style="fill: #1f77b4"/>
   </g>
   <g id="patch_46">
    <path d="M 207.18094 88.081955 
L 210.758663 88.081955 
L 210.758663 68.252353 
L 207.18094 68.252353 
z
" clip-path="url(#p4a97a6d650)" style="fill: #1f77b4"/>
   </g>
   <g id="patch_47">
    <path d="M 210.758663 88.081955 
L 214.336385 88.081955 
L 214.336385 68.037747 
L 210.758663 68.037747 
z
" clip-path="url(#p4a97a6d650)" style="fill: #1f77b4"/>
   </g>
   <g id="patch_48">
    <path d="M 214.336385 88.081955 
L 217.914108 88.081955 
L 217.914108 66.707189 
L 214.336385 66.707189 
z
" clip-path="url(#p4a97a6d650)" style="fill: #1f77b4"/>
   </g>
   <g id="patch_49">
    <path d="M 217.914108 88.081955 
L 221.491831 88.081955 
L 221.491831 66.363819 
L 217.914108 66.363819 
z
" clip-path="url(#p4a97a6d650)" style="fill: #1f77b4"/>
   </g>
   <g id="patch_50">
    <path d="M 221.491831 88.081955 
L 225.069554 88.081955 
L 225.069554 68.466959 
L 221.491831 68.466959 
z
" clip-path="url(#p4a97a6d650)" style="fill: #1f77b4"/>
   </g>
   <g id="patch_51">
    <path d="M 225.069554 88.081955 
L 228.647277 88.081955 
L 228.647277 67.265165 
L 225.069554 67.265165 
z
" clip-path="url(#p4a97a6d650)" style="fill: #1f77b4"/>
   </g>
   <g id="patch_52">
    <path d="M 228.647277 88.081955 
L 232.225 88.081955 
L 232.225 67.265165 
L 228.647277 67.265165 
z
" clip-path="url(#p4a97a6d650)" style="fill: #1f77b4"/>
   </g>
   <g id="patch_53">
    <path d="M 232.225 88.081955 
L 235.802723 88.081955 
L 235.802723 66.320898 
L 232.225 66.320898 
z
" clip-path="url(#p4a97a6d650)" style="fill: #1f77b4"/>
   </g>
   <g id="patch_54">
    <path d="M 235.802723 88.081955 
L 239.380446 88.081955 
L 239.380446 65.462473 
L 235.802723 65.462473 
z
" clip-path="url(#p4a97a6d650)" style="fill: #1f77b4"/>
   </g>
   <g id="patch_55">
    <path d="M 239.380446 88.081955 
L 242.958169 88.081955 
L 242.958169 67.050559 
L 239.380446 67.050559 
z
" clip-path="url(#p4a97a6d650)" style="fill: #1f77b4"/>
   </g>
   <g id="patch_56">
    <path d="M 242.958169 88.081955 
L 246.535892 88.081955 
L 246.535892 65.548316 
L 242.958169 65.548316 
z
" clip-path="url(#p4a97a6d650)" style="fill: #1f77b4"/>
   </g>
   <g id="patch_57">
    <path d="M 246.535892 88.081955 
L 250.113615 88.081955 
L 250.113615 66.277977 
L 246.535892 66.277977 
z
" clip-path="url(#p4a97a6d650)" style="fill: #1f77b4"/>
   </g>
   <g id="patch_58">
    <path d="M 250.113615 88.081955 
L 253.691337 88.081955 
L 253.691337 66.320898 
L 250.113615 66.320898 
z
" clip-path="url(#p4a97a6d650)" style="fill: #1f77b4"/>
   </g>
   <g id="patch_59">
    <path d="M 253.691337 88.081955 
L 257.26906 88.081955 
L 257.26906 67.908983 
L 253.691337 67.908983 
z
" clip-path="url(#p4a97a6d650)" style="fill: #1f77b4"/>
   </g>
   <g id="patch_60">
    <path d="M 257.26906 88.081955 
L 260.846783 88.081955 
L 260.846783 68.080668 
L 257.26906 68.080668 
z
" clip-path="url(#p4a97a6d650)" style="fill: #1f77b4"/>
   </g>
   <g id="patch_61">
    <path d="M 260.846783 88.081955 
L 264.424506 88.081955 
L 264.424506 69.110777 
L 260.846783 69.110777 
z
" clip-path="url(#p4a97a6d650)" style="fill: #1f77b4"/>
   </g>
   <g id="patch_62">
    <path d="M 264.424506 88.081955 
L 268.002229 88.081955 
L 268.002229 69.497068 
L 264.424506 69.497068 
z
" clip-path="url(#p4a97a6d650)" style="fill: #1f77b4"/>
   </g>
   <g id="patch_63">
    <path d="M 268.002229 88.081955 
L 271.579952 88.081955 
L 271.579952 70.183807 
L 268.002229 70.183807 
z
" clip-path="url(#p4a97a6d650)" style="fill: #1f77b4"/>
   </g>
   <g id="patch_64">
    <path d="M 271.579952 88.081955 
L 275.157675 88.081955 
L 275.157675 69.024935 
L 271.579952 69.024935 
z
" clip-path="url(#p4a97a6d650)" style="fill: #1f77b4"/>
   </g>
   <g id="patch_65">
    <path d="M 275.157675 88.081955 
L 278.735398 88.081955 
L 278.735398 67.780219 
L 275.157675 67.780219 
z
" clip-path="url(#p4a97a6d650)" style="fill: #1f77b4"/>
   </g>
   <g id="patch_66">
    <path d="M 278.735398 88.081955 
L 282.313121 88.081955 
L 282.313121 71.814814 
L 278.735398 71.814814 
z
" clip-path="url(#p4a97a6d650)" style="fill: #1f77b4"/>
   </g>
   <g id="patch_67">
    <path d="M 282.313121 88.081955 
L 285.890844 88.081955 
L 285.890844 70.398413 
L 282.313121 70.398413 
z
" clip-path="url(#p4a97a6d650)" style="fill: #1f77b4"/>
   </g>
   <g id="patch_68">
    <path d="M 285.890844 88.081955 
L 289.468567 88.081955 
L 289.468567 72.544474 
L 285.890844 72.544474 
z
" clip-path="url(#p4a97a6d650)" style="fill: #1f77b4"/>
   </g>
   <g id="patch_69">
    <path d="M 289.468567 88.081955 
L 293.046289 88.081955 
L 293.046289 73.44582 
L 289.468567 73.44582 
z
" clip-path="url(#p4a97a6d650)" style="fill: #1f77b4"/>
   </g>
   <g id="patch_70">
    <path d="M 293.046289 88.081955 
L 296.624012 88.081955 
L 296.624012 72.201105 
L 293.046289 72.201105 
z
" clip-path="url(#p4a97a6d650)" style="fill: #1f77b4"/>
   </g>
   <g id="patch_71">
    <path d="M 296.624012 88.081955 
L 300.201735 88.081955 
L 300.201735 73.402899 
L 296.624012 73.402899 
z
" clip-path="url(#p4a97a6d650)" style="fill: #1f77b4"/>
   </g>
   <g id="patch_72">
    <path d="M 300.201735 88.081955 
L 303.779458 88.081955 
L 303.779458 75.076826 
L 300.201735 75.076826 
z
" clip-path="url(#p4a97a6d650)" style="fill: #1f77b4"/>
   </g>
   <g id="patch_73">
    <path d="M 303.779458 88.081955 
L 307.357181 88.081955 
L 307.357181 74.175481 
L 303.779458 74.175481 
z
" clip-path="url(#p4a97a6d650)" style="fill: #1f77b4"/>
   </g>
   <g id="patch_74">
    <path d="M 307.357181 88.081955 
L 310.934904 88.081955 
L 310.934904 73.703347 
L 307.357181 73.703347 
z
" clip-path="url(#p4a97a6d650)" style="fill: #1f77b4"/>
   </g>
   <g id="patch_75">
    <path d="M 310.934904 88.081955 
L 314.512627 88.081955 
L 314.512627 75.591881 
L 310.934904 75.591881 
z
" clip-path="url(#p4a97a6d650)" style="fill: #1f77b4"/>
   </g>
   <g id="patch_76">
    <path d="M 314.512627 88.081955 
L 318.09035 88.081955 
L 318.09035 76.836596 
L 314.512627 76.836596 
z
" clip-path="url(#p4a97a6d650)" style="fill: #1f77b4"/>
   </g>
   <g id="patch_77">
    <path d="M 318.09035 88.081955 
L 321.668073 88.081955 
L 321.668073 76.064014 
L 318.09035 76.064014 
z
" clip-path="url(#p4a97a6d650)" style="fill: #1f77b4"/>
   </g>
   <g id="patch_78">
    <path d="M 321.668073 88.081955 
L 325.245796 88.081955 
L 325.245796 77.609178 
L 321.668073 77.609178 
z
" clip-path="url(#p4a97a6d650)" style="fill: #1f77b4"/>
   </g>
   <g id="patch_79">
    <path d="M 325.245796 88.081955 
L 328.823519 88.081955 
L 328.823519 76.922438 
L 325.245796 76.922438 
z
" clip-path="url(#p4a97a6d650)" style="fill: #1f77b4"/>
   </g>
   <g id="patch_80">
    <path d="M 328.823519 88.081955 
L 332.401241 88.081955 
L 332.401241 78.768051 
L 328.823519 78.768051 
z
" clip-path="url(#p4a97a6d650)" style="fill: #1f77b4"/>
   </g>
   <g id="patch_81">
    <path d="M 332.401241 88.081955 
L 335.978964 88.081955 
L 335.978964 79.969845 
L 332.401241 79.969845 
z
" clip-path="url(#p4a97a6d650)" style="fill: #1f77b4"/>
   </g>
   <g id="patch_82">
    <path d="M 335.978964 88.081955 
L 339.556687 88.081955 
L 339.556687 80.4849 
L 335.978964 80.4849 
z
" clip-path="url(#p4a97a6d650)" style="fill: #1f77b4"/>
   </g>
   <g id="patch_83">
    <path d="M 339.556687 88.081955 
L 343.13441 88.081955 
L 343.13441 79.884002 
L 339.556687 79.884002 
z
" clip-path="url(#p4a97a6d650)" style="fill: #1f77b4"/>
   </g>
   <g id="patch_84">
    <path d="M 343.13441 88.081955 
L 346.712133 88.081955 
L 346.712133 80.87119 
L 343.13441 80.87119 
z
" clip-path="url(#p4a97a6d650)" style="fill: #1f77b4"/>
   </g>
   <g id="patch_85">
    <path d="M 346.712133 88.081955 
L 350.289856 88.081955 
L 350.289856 81.128718 
L 346.712133 81.128718 
z
" clip-path="url(#p4a97a6d650)" style="fill: #1f77b4"/>
   </g>
   <g id="patch_86">
    <path d="M 350.289856 88.081955 
L 353.867579 88.081955 
L 353.867579 82.716803 
L 350.289856 82.716803 
z
" clip-path="url(#p4a97a6d650)" style="fill: #1f77b4"/>
   </g>
   <g id="patch_87">
    <path d="M 353.867579 88.081955 
L 357.445302 88.081955 
L 357.445302 82.072985 
L 353.867579 82.072985 
z
" clip-path="url(#p4a97a6d650)" style="fill: #1f77b4"/>
   </g>
   <g id="patch_88">
    <path d="M 357.445302 88.081955 
L 361.023025 88.081955 
L 361.023025 82.97433 
L 357.445302 82.97433 
z
" clip-path="url(#p4a97a6d650)" style="fill: #1f77b4"/>
   </g>
   <g id="patch_89">
    <path d="M 361.023025 88.081955 
L 364.600748 88.081955 
L 364.600748 83.918597 
L 361.023025 83.918597 
z
" clip-path="url(#p4a97a6d650)" style="fill: #1f77b4"/>
   </g>
   <g id="patch_90">
    <path d="M 364.600748 88.081955 
L 368.178471 88.081955 
L 368.178471 84.433652 
L 364.600748 84.433652 
z
" clip-path="url(#p4a97a6d650)" style="fill: #1f77b4"/>
   </g>
   <g id="patch_91">
    <path d="M 368.178471 88.081955 
L 371.756193 88.081955 
L 371.756193 84.304888 
L 368.178471 84.304888 
z
" clip-path="url(#p4a97a6d650)" style="fill: #1f77b4"/>
   </g>
   <g id="patch_92">
    <path d="M 371.756193 88.081955 
L 375.333916 88.081955 
L 375.333916 85.42084 
L 371.756193 85.42084 
z
" clip-path="url(#p4a97a6d650)" style="fill: #1f77b4"/>
   </g>
   <g id="patch_93">
    <path d="M 375.333916 88.081955 
L 378.911639 88.081955 
L 378.911639 85.249155 
L 375.333916 85.249155 
z
" clip-path="url(#p4a97a6d650)" style="fill: #1f77b4"/>
   </g>
   <g id="patch_94">
    <path d="M 378.911639 88.081955 
L 382.489362 88.081955 
L 382.489362 86.622634 
L 378.911639 86.622634 
z
" clip-path="url(#p4a97a6d650)" style="fill: #1f77b4"/>
   </g>
   <g id="patch_95">
    <path d="M 382.489362 88.081955 
L 386.067085 88.081955 
L 386.067085 85.935894 
L 382.489362 85.935894 
z
" clip-path="url(#p4a97a6d650)" style="fill: #1f77b4"/>
   </g>
   <g id="patch_96">
    <path d="M 386.067085 88.081955 
L 389.644808 88.081955 
L 389.644808 86.579712 
L 386.067085 86.579712 
z
" clip-path="url(#p4a97a6d650)" style="fill: #1f77b4"/>
   </g>
   <g id="patch_97">
    <path d="M 389.644808 88.081955 
L 393.222531 88.081955 
L 393.222531 86.579712 
L 389.644808 86.579712 
z
" clip-path="url(#p4a97a6d650)" style="fill: #1f77b4"/>
   </g>
   <g id="patch_98">
    <path d="M 393.222531 88.081955 
L 396.800254 88.081955 
L 396.800254 87.609822 
L 393.222531 87.609822 
z
" clip-path="url(#p4a97a6d650)" style="fill: #1f77b4"/>
   </g>
   <g id="patch_99">
    <path d="M 396.800254 88.081955 
L 400.377977 88.081955 
L 400.377977 87.5669 
L 396.800254 87.5669 
z
" clip-path="url(#p4a97a6d650)" style="fill: #1f77b4"/>
   </g>
   <g id="patch_100">
    <path d="M 400.377977 88.081955 
L 403.9557 88.081955 
L 403.9557 87.738585 
L 400.377977 87.738585 
z
" clip-path="url(#p4a97a6d650)" style="fill: #1f77b4"/>
   </g>
   <g id="patch_101">
    <path d="M 403.9557 88.081955 
L 407.533423 88.081955 
L 407.533423 87.91027 
L 403.9557 87.91027 
z
" clip-path="url(#p4a97a6d650)" style="fill: #1f77b4"/>
   </g>
   <g id="patch_102">
    <path d="M 407.533423 88.081955 
L 411.111145 88.081955 
L 411.111145 88.039034 
L 407.533423 88.039034 
z
" clip-path="url(#p4a97a6d650)" style="fill: #1f77b4"/>
   </g>
   <g id="matplotlib.axis_1">
    <g id="xtick_1">
     <g id="line2d_1">
      <defs>
       <path id="mba0333d671" d="M 0 0 
L 0 3.5 
" style="stroke: #000000; stroke-width: 0.8"/>
      </defs>
      <g>
       <use xlink:href="#mba0333d671" x="45.005457" y="88.081955" style="stroke: #000000; stroke-width: 0.8"/>
      </g>
     </g>
     <g id="text_1">
      <!-- 0 -->
      <g transform="translate(41.824207 102.680393)scale(0.1 -0.1)">
       <defs>
        <path id="DejaVuSans-30" d="M 2034 4250 
Q 1547 4250 1301 3770 
Q 1056 3291 1056 2328 
Q 1056 1369 1301 889 
Q 1547 409 2034 409 
Q 2525 409 2770 889 
Q 3016 1369 3016 2328 
Q 3016 3291 2770 3770 
Q 2525 4250 2034 4250 
z
M 2034 4750 
Q 2819 4750 3233 4129 
Q 3647 3509 3647 2328 
Q 3647 1150 3233 529 
Q 2819 -91 2034 -91 
Q 1250 -91 836 529 
Q 422 1150 422 2328 
Q 422 3509 836 4129 
Q 1250 4750 2034 4750 
z
" transform="scale(0.015625)"/>
       </defs>
       <use xlink:href="#DejaVuSans-30"/>
      </g>
     </g>
    </g>
    <g id="xtick_2">
     <g id="line2d_2">
      <g>
       <use xlink:href="#mba0333d671" x="103.120385" y="88.081955" style="stroke: #000000; stroke-width: 0.8"/>
      </g>
     </g>
     <g id="text_2">
      <!-- 500 -->
      <g transform="translate(93.576635 102.680393)scale(0.1 -0.1)">
       <defs>
        <path id="DejaVuSans-35" d="M 691 4666 
L 3169 4666 
L 3169 4134 
L 1269 4134 
L 1269 2991 
Q 1406 3038 1543 3061 
Q 1681 3084 1819 3084 
Q 2600 3084 3056 2656 
Q 3513 2228 3513 1497 
Q 3513 744 3044 326 
Q 2575 -91 1722 -91 
Q 1428 -91 1123 -41 
Q 819 9 494 109 
L 494 744 
Q 775 591 1075 516 
Q 1375 441 1709 441 
Q 2250 441 2565 725 
Q 2881 1009 2881 1497 
Q 2881 1984 2565 2268 
Q 2250 2553 1709 2553 
Q 1456 2553 1204 2497 
Q 953 2441 691 2322 
L 691 4666 
z
" transform="scale(0.015625)"/>
       </defs>
       <use xlink:href="#DejaVuSans-35"/>
       <use xlink:href="#DejaVuSans-30" x="63.623047"/>
       <use xlink:href="#DejaVuSans-30" x="127.246094"/>
      </g>
     </g>
    </g>
    <g id="xtick_3">
     <g id="line2d_3">
      <g>
       <use xlink:href="#mba0333d671" x="161.235313" y="88.081955" style="stroke: #000000; stroke-width: 0.8"/>
      </g>
     </g>
     <g id="text_3">
      <!-- 1000 -->
      <g transform="translate(148.510313 102.680393)scale(0.1 -0.1)">
       <defs>
        <path id="DejaVuSans-31" d="M 794 531 
L 1825 531 
L 1825 4091 
L 703 3866 
L 703 4441 
L 1819 4666 
L 2450 4666 
L 2450 531 
L 3481 531 
L 3481 0 
L 794 0 
L 794 531 
z
" transform="scale(0.015625)"/>
       </defs>
       <use xlink:href="#DejaVuSans-31"/>
       <use xlink:href="#DejaVuSans-30" x="63.623047"/>
       <use xlink:href="#DejaVuSans-30" x="127.246094"/>
       <use xlink:href="#DejaVuSans-30" x="190.869141"/>
      </g>
     </g>
    </g>
    <g id="xtick_4">
     <g id="line2d_4">
      <g>
       <use xlink:href="#mba0333d671" x="219.350241" y="88.081955" style="stroke: #000000; stroke-width: 0.8"/>
      </g>
     </g>
     <g id="text_4">
      <!-- 1500 -->
      <g transform="translate(206.625241 102.680393)scale(0.1 -0.1)">
       <use xlink:href="#DejaVuSans-31"/>
       <use xlink:href="#DejaVuSans-35" x="63.623047"/>
       <use xlink:href="#DejaVuSans-30" x="127.246094"/>
       <use xlink:href="#DejaVuSans-30" x="190.869141"/>
      </g>
     </g>
    </g>
    <g id="xtick_5">
     <g id="line2d_5">
      <g>
       <use xlink:href="#mba0333d671" x="277.465169" y="88.081955" style="stroke: #000000; stroke-width: 0.8"/>
      </g>
     </g>
     <g id="text_5">
      <!-- 2000 -->
      <g transform="translate(264.740169 102.680393)scale(0.1 -0.1)">
       <defs>
        <path id="DejaVuSans-32" d="M 1228 531 
L 3431 531 
L 3431 0 
L 469 0 
L 469 531 
Q 828 903 1448 1529 
Q 2069 2156 2228 2338 
Q 2531 2678 2651 2914 
Q 2772 3150 2772 3378 
Q 2772 3750 2511 3984 
Q 2250 4219 1831 4219 
Q 1534 4219 1204 4116 
Q 875 4013 500 3803 
L 500 4441 
Q 881 4594 1212 4672 
Q 1544 4750 1819 4750 
Q 2544 4750 2975 4387 
Q 3406 4025 3406 3419 
Q 3406 3131 3298 2873 
Q 3191 2616 2906 2266 
Q 2828 2175 2409 1742 
Q 1991 1309 1228 531 
z
" transform="scale(0.015625)"/>
       </defs>
       <use xlink:href="#DejaVuSans-32"/>
       <use xlink:href="#DejaVuSans-30" x="63.623047"/>
       <use xlink:href="#DejaVuSans-30" x="127.246094"/>
       <use xlink:href="#DejaVuSans-30" x="190.869141"/>
      </g>
     </g>
    </g>
    <g id="xtick_6">
     <g id="line2d_6">
      <g>
       <use xlink:href="#mba0333d671" x="335.580097" y="88.081955" style="stroke: #000000; stroke-width: 0.8"/>
      </g>
     </g>
     <g id="text_6">
      <!-- 2500 -->
      <g transform="translate(322.855097 102.680393)scale(0.1 -0.1)">
       <use xlink:href="#DejaVuSans-32"/>
       <use xlink:href="#DejaVuSans-35" x="63.623047"/>
       <use xlink:href="#DejaVuSans-30" x="127.246094"/>
       <use xlink:href="#DejaVuSans-30" x="190.869141"/>
      </g>
     </g>
    </g>
    <g id="xtick_7">
     <g id="line2d_7">
      <g>
       <use xlink:href="#mba0333d671" x="393.695026" y="88.081955" style="stroke: #000000; stroke-width: 0.8"/>
      </g>
     </g>
     <g id="text_7">
      <!-- 3000 -->
      <g transform="translate(380.970026 102.680393)scale(0.1 -0.1)">
       <defs>
        <path id="DejaVuSans-33" d="M 2597 2516 
Q 3050 2419 3304 2112 
Q 3559 1806 3559 1356 
Q 3559 666 3084 287 
Q 2609 -91 1734 -91 
Q 1441 -91 1130 -33 
Q 819 25 488 141 
L 488 750 
Q 750 597 1062 519 
Q 1375 441 1716 441 
Q 2309 441 2620 675 
Q 2931 909 2931 1356 
Q 2931 1769 2642 2001 
Q 2353 2234 1838 2234 
L 1294 2234 
L 1294 2753 
L 1863 2753 
Q 2328 2753 2575 2939 
Q 2822 3125 2822 3475 
Q 2822 3834 2567 4026 
Q 2313 4219 1838 4219 
Q 1578 4219 1281 4162 
Q 984 4106 628 3988 
L 628 4550 
Q 988 4650 1302 4700 
Q 1616 4750 1894 4750 
Q 2613 4750 3031 4423 
Q 3450 4097 3450 3541 
Q 3450 3153 3228 2886 
Q 3006 2619 2597 2516 
z
" transform="scale(0.015625)"/>
       </defs>
       <use xlink:href="#DejaVuSans-33"/>
       <use xlink:href="#DejaVuSans-30" x="63.623047"/>
       <use xlink:href="#DejaVuSans-30" x="127.246094"/>
       <use xlink:href="#DejaVuSans-30" x="190.869141"/>
      </g>
     </g>
    </g>
   </g>
   <g id="matplotlib.axis_2">
    <g id="ytick_1">
     <g id="line2d_8">
      <defs>
       <path id="m66f15a41f6" d="M 0 0 
L -3.5 0 
" style="stroke: #000000; stroke-width: 0.8"/>
      </defs>
      <g>
       <use xlink:href="#m66f15a41f6" x="35.45024" y="88.081955" style="stroke: #000000; stroke-width: 0.8"/>
      </g>
     </g>
     <g id="text_8">
      <!-- 0 -->
      <g transform="translate(22.08774 91.881174)scale(0.1 -0.1)">
       <use xlink:href="#DejaVuSans-30"/>
      </g>
     </g>
    </g>
    <g id="ytick_2">
     <g id="line2d_9">
      <g>
       <use xlink:href="#m66f15a41f6" x="35.45024" y="45.160738" style="stroke: #000000; stroke-width: 0.8"/>
      </g>
     </g>
     <g id="text_9">
      <!-- 1000 -->
      <g transform="translate(3.00024 48.959956)scale(0.1 -0.1)">
       <use xlink:href="#DejaVuSans-31"/>
       <use xlink:href="#DejaVuSans-30" x="63.623047"/>
       <use xlink:href="#DejaVuSans-30" x="127.246094"/>
       <use xlink:href="#DejaVuSans-30" x="190.869141"/>
      </g>
     </g>
    </g>
   </g>
   <g id="patch_103">
    <path d="M 35.45024 88.081955 
L 35.45024 35.758845 
" style="fill: none; stroke: #000000; stroke-width: 0.8; stroke-linejoin: miter; stroke-linecap: square"/>
   </g>
   <g id="patch_104">
    <path d="M 428.99976 88.081955 
L 428.99976 35.758845 
" style="fill: none; stroke: #000000; stroke-width: 0.8; stroke-linejoin: miter; stroke-linecap: square"/>
   </g>
   <g id="patch_105">
    <path d="M 35.45024 88.081955 
L 428.99976 88.081955 
" style="fill: none; stroke: #000000; stroke-width: 0.8; stroke-linejoin: miter; stroke-linecap: square"/>
   </g>
   <g id="patch_106">
    <path d="M 35.45024 35.758845 
L 428.99976 35.758845 
" style="fill: none; stroke: #000000; stroke-width: 0.8; stroke-linejoin: miter; stroke-linecap: square"/>
   </g>
   <g id="text_10">
    <!-- $\nu_1$ -->
    <g transform="translate(225.985 29.758845)scale(0.12 -0.12)">
     <defs>
      <path id="DejaVuSans-Oblique-3bd" d="M 959 0 
L 572 3500 
L 1191 3500 
L 1522 563 
Q 1972 950 2391 1488 
Q 2706 1891 2788 2241 
Q 2825 2406 2809 2719 
Q 2794 3091 2544 3500 
L 3125 3500 
L 3125 3500 
Q 3288 3222 3353 2834 
Q 3416 2478 3369 2234 
Q 3250 1622 2719 1075 
Q 2025 363 1572 0 
L 959 0 
z
" transform="scale(0.015625)"/>
     </defs>
     <use xlink:href="#DejaVuSans-Oblique-3bd" transform="translate(0 0.3125)"/>
     <use xlink:href="#DejaVuSans-31" transform="translate(55.859375 -16.09375)scale(0.7)"/>
    </g>
   </g>
  </g>
  <g id="axes_2">
   <g id="patch_107">
    <path d="M 35.45024 178.201795 
L 428.99976 178.201795 
L 428.99976 125.878685 
L 35.45024 125.878685 
z
" style="fill: #ffffff"/>
   </g>
   <g id="patch_108">
    <path d="M 53.338855 178.201795 
L 56.916577 178.201795 
L 56.916577 178.073031 
L 53.338855 178.073031 
z
" clip-path="url(#pd4fbdec65e)" style="fill: #1f77b4"/>
   </g>
   <g id="patch_109">
    <path d="M 56.916577 178.201795 
L 60.4943 178.201795 
L 60.4943 178.073031 
L 56.916577 178.073031 
z
" clip-path="url(#pd4fbdec65e)" style="fill: #1f77b4"/>
   </g>
   <g id="patch_110">
    <path d="M 60.4943 178.201795 
L 64.072023 178.201795 
L 64.072023 178.158874 
L 60.4943 178.158874 
z
" clip-path="url(#pd4fbdec65e)" style="fill: #1f77b4"/>
   </g>
   <g id="patch_111">
    <path d="M 64.072023 178.201795 
L 67.649746 178.201795 
L 67.649746 178.158874 
L 64.072023 178.158874 
z
" clip-path="url(#pd4fbdec65e)" style="fill: #1f77b4"/>
   </g>
   <g id="patch_112">
    <path d="M 67.649746 178.201795 
L 71.227469 178.201795 
L 71.227469 178.03011 
L 67.649746 178.03011 
z
" clip-path="url(#pd4fbdec65e)" style="fill: #1f77b4"/>
   </g>
   <g id="patch_113">
    <path d="M 71.227469 178.201795 
L 74.805192 178.201795 
L 74.805192 178.158874 
L 71.227469 178.158874 
z
" clip-path="url(#pd4fbdec65e)" style="fill: #1f77b4"/>
   </g>
   <g id="patch_114">
    <path d="M 74.805192 178.201795 
L 78.382915 178.201795 
L 78.382915 178.073031 
L 74.805192 178.073031 
z
" clip-path="url(#pd4fbdec65e)" style="fill: #1f77b4"/>
   </g>
   <g id="patch_115">
    <path d="M 78.382915 178.201795 
L 81.960638 178.201795 
L 81.960638 178.158874 
L 78.382915 178.158874 
z
" clip-path="url(#pd4fbdec65e)" style="fill: #1f77b4"/>
   </g>
   <g id="patch_116">
    <path d="M 81.960638 178.201795 
L 85.538361 178.201795 
L 85.538361 177.944268 
L 81.960638 177.944268 
z
" clip-path="url(#pd4fbdec65e)" style="fill: #1f77b4"/>
   </g>
   <g id="patch_117">
    <path d="M 85.538361 178.201795 
L 89.116084 178.201795 
L 89.116084 177.987189 
L 85.538361 177.987189 
z
" clip-path="url(#pd4fbdec65e)" style="fill: #1f77b4"/>
   </g>
   <g id="patch_118">
    <path d="M 89.116084 178.201795 
L 92.693807 178.201795 
L 92.693807 177.901346 
L 89.116084 177.901346 
z
" clip-path="url(#pd4fbdec65e)" style="fill: #1f77b4"/>
   </g>
   <g id="patch_119">
    <path d="M 92.693807 178.201795 
L 96.271529 178.201795 
L 96.271529 177.944268 
L 92.693807 177.944268 
z
" clip-path="url(#pd4fbdec65e)" style="fill: #1f77b4"/>
   </g>
   <g id="patch_120">
    <path d="M 96.271529 178.201795 
L 99.849252 178.201795 
L 99.849252 177.858425 
L 96.271529 177.858425 
z
" clip-path="url(#pd4fbdec65e)" style="fill: #1f77b4"/>
   </g>
   <g id="patch_121">
    <path d="M 99.849252 178.201795 
L 103.426975 178.201795 
L 103.426975 177.557977 
L 99.849252 177.557977 
z
" clip-path="url(#pd4fbdec65e)" style="fill: #1f77b4"/>
   </g>
   <g id="patch_122">
    <path d="M 103.426975 178.201795 
L 107.004698 178.201795 
L 107.004698 177.343371 
L 103.426975 177.343371 
z
" clip-path="url(#pd4fbdec65e)" style="fill: #1f77b4"/>
   </g>
   <g id="patch_123">
    <path d="M 107.004698 178.201795 
L 110.582421 178.201795 
L 110.582421 177.429213 
L 107.004698 177.429213 
z
" clip-path="url(#pd4fbdec65e)" style="fill: #1f77b4"/>
   </g>
   <g id="patch_124">
    <path d="M 110.582421 178.201795 
L 114.160144 178.201795 
L 114.160144 176.828316 
L 110.582421 176.828316 
z
" clip-path="url(#pd4fbdec65e)" style="fill: #1f77b4"/>
   </g>
   <g id="patch_125">
    <path d="M 114.160144 178.201795 
L 117.737867 178.201795 
L 117.737867 177.300449 
L 114.160144 177.300449 
z
" clip-path="url(#pd4fbdec65e)" style="fill: #1f77b4"/>
   </g>
   <g id="patch_126">
    <path d="M 117.737867 178.201795 
L 121.31559 178.201795 
L 121.31559 177.257528 
L 117.737867 177.257528 
z
" clip-path="url(#pd4fbdec65e)" style="fill: #1f77b4"/>
   </g>
   <g id="patch_127">
    <path d="M 121.31559 178.201795 
L 124.893313 178.201795 
L 124.893313 176.527868 
L 121.31559 176.527868 
z
" clip-path="url(#pd4fbdec65e)" style="fill: #1f77b4"/>
   </g>
   <g id="patch_128">
    <path d="M 124.893313 178.201795 
L 128.471036 178.201795 
L 128.471036 176.871237 
L 124.893313 176.871237 
z
" clip-path="url(#pd4fbdec65e)" style="fill: #1f77b4"/>
   </g>
   <g id="patch_129">
    <path d="M 128.471036 178.201795 
L 132.048759 178.201795 
L 132.048759 176.61371 
L 128.471036 176.61371 
z
" clip-path="url(#pd4fbdec65e)" style="fill: #1f77b4"/>
   </g>
   <g id="patch_130">
    <path d="M 132.048759 178.201795 
L 135.626481 178.201795 
L 135.626481 176.399104 
L 132.048759 176.399104 
z
" clip-path="url(#pd4fbdec65e)" style="fill: #1f77b4"/>
   </g>
   <g id="patch_131">
    <path d="M 135.626481 178.201795 
L 139.204204 178.201795 
L 139.204204 176.141577 
L 135.626481 176.141577 
z
" clip-path="url(#pd4fbdec65e)" style="fill: #1f77b4"/>
   </g>
   <g id="patch_132">
    <path d="M 139.204204 178.201795 
L 142.781927 178.201795 
L 142.781927 175.841128 
L 139.204204 175.841128 
z
" clip-path="url(#pd4fbdec65e)" style="fill: #1f77b4"/>
   </g>
   <g id="patch_133">
    <path d="M 142.781927 178.201795 
L 146.35965 178.201795 
L 146.35965 175.969892 
L 142.781927 175.969892 
z
" clip-path="url(#pd4fbdec65e)" style="fill: #1f77b4"/>
   </g>
   <g id="patch_134">
    <path d="M 146.35965 178.201795 
L 149.937373 178.201795 
L 149.937373 174.725176 
L 146.35965 174.725176 
z
" clip-path="url(#pd4fbdec65e)" style="fill: #1f77b4"/>
   </g>
   <g id="patch_135">
    <path d="M 149.937373 178.201795 
L 153.515096 178.201795 
L 153.515096 174.682255 
L 149.937373 174.682255 
z
" clip-path="url(#pd4fbdec65e)" style="fill: #1f77b4"/>
   </g>
   <g id="patch_136">
    <path d="M 153.515096 178.201795 
L 157.092819 178.201795 
L 157.092819 174.982704 
L 153.515096 174.982704 
z
" clip-path="url(#pd4fbdec65e)" style="fill: #1f77b4"/>
   </g>
   <g id="patch_137">
    <path d="M 157.092819 178.201795 
L 160.670542 178.201795 
L 160.670542 174.424728 
L 157.092819 174.424728 
z
" clip-path="url(#pd4fbdec65e)" style="fill: #1f77b4"/>
   </g>
   <g id="patch_138">
    <path d="M 160.670542 178.201795 
L 164.248265 178.201795 
L 164.248265 173.566304 
L 160.670542 173.566304 
z
" clip-path="url(#pd4fbdec65e)" style="fill: #1f77b4"/>
   </g>
   <g id="patch_139">
    <path d="M 164.248265 178.201795 
L 167.825988 178.201795 
L 167.825988 173.480461 
L 164.248265 173.480461 
z
" clip-path="url(#pd4fbdec65e)" style="fill: #1f77b4"/>
   </g>
   <g id="patch_140">
    <path d="M 167.825988 178.201795 
L 171.403711 178.201795 
L 171.403711 172.7508 
L 167.825988 172.7508 
z
" clip-path="url(#pd4fbdec65e)" style="fill: #1f77b4"/>
   </g>
   <g id="patch_141">
    <path d="M 171.403711 178.201795 
L 174.981433 178.201795 
L 174.981433 173.008328 
L 171.403711 173.008328 
z
" clip-path="url(#pd4fbdec65e)" style="fill: #1f77b4"/>
   </g>
   <g id="patch_142">
    <path d="M 174.981433 178.201795 
L 178.559156 178.201795 
L 178.559156 171.763612 
L 174.981433 171.763612 
z
" clip-path="url(#pd4fbdec65e)" style="fill: #1f77b4"/>
   </g>
   <g id="patch_143">
    <path d="M 178.559156 178.201795 
L 182.136879 178.201795 
L 182.136879 171.248558 
L 178.559156 171.248558 
z
" clip-path="url(#pd4fbdec65e)" style="fill: #1f77b4"/>
   </g>
   <g id="patch_144">
    <path d="M 182.136879 178.201795 
L 185.714602 178.201795 
L 185.714602 172.106982 
L 182.136879 172.106982 
z
" clip-path="url(#pd4fbdec65e)" style="fill: #1f77b4"/>
   </g>
   <g id="patch_145">
    <path d="M 185.714602 178.201795 
L 189.292325 178.201795 
L 189.292325 171.377321 
L 185.714602 171.377321 
z
" clip-path="url(#pd4fbdec65e)" style="fill: #1f77b4"/>
   </g>
   <g id="patch_146">
    <path d="M 189.292325 178.201795 
L 192.870048 178.201795 
L 192.870048 170.647661 
L 189.292325 170.647661 
z
" clip-path="url(#pd4fbdec65e)" style="fill: #1f77b4"/>
   </g>
   <g id="patch_147">
    <path d="M 192.870048 178.201795 
L 196.447771 178.201795 
L 196.447771 168.802048 
L 192.870048 168.802048 
z
" clip-path="url(#pd4fbdec65e)" style="fill: #1f77b4"/>
   </g>
   <g id="patch_148">
    <path d="M 196.447771 178.201795 
L 200.025494 178.201795 
L 200.025494 168.802048 
L 196.447771 168.802048 
z
" clip-path="url(#pd4fbdec65e)" style="fill: #1f77b4"/>
   </g>
   <g id="patch_149">
    <path d="M 200.025494 178.201795 
L 203.603217 178.201795 
L 203.603217 169.059576 
L 200.025494 169.059576 
z
" clip-path="url(#pd4fbdec65e)" style="fill: #1f77b4"/>
   </g>
   <g id="patch_150">
    <path d="M 203.603217 178.201795 
L 207.18094 178.201795 
L 207.18094 168.115309 
L 203.603217 168.115309 
z
" clip-path="url(#pd4fbdec65e)" style="fill: #1f77b4"/>
   </g>
   <g id="patch_151">
    <path d="M 207.18094 178.201795 
L 210.758663 178.201795 
L 210.758663 167.428569 
L 207.18094 167.428569 
z
" clip-path="url(#pd4fbdec65e)" style="fill: #1f77b4"/>
   </g>
   <g id="patch_152">
    <path d="M 210.758663 178.201795 
L 214.336385 178.201795 
L 214.336385 169.016654 
L 210.758663 169.016654 
z
" clip-path="url(#pd4fbdec65e)" style="fill: #1f77b4"/>
   </g>
   <g id="patch_153">
    <path d="M 214.336385 178.201795 
L 217.914108 178.201795 
L 217.914108 165.711721 
L 214.336385 165.711721 
z
" clip-path="url(#pd4fbdec65e)" style="fill: #1f77b4"/>
   </g>
   <g id="patch_154">
    <path d="M 217.914108 178.201795 
L 221.491831 178.201795 
L 221.491831 165.582957 
L 217.914108 165.582957 
z
" clip-path="url(#pd4fbdec65e)" style="fill: #1f77b4"/>
   </g>
   <g id="patch_155">
    <path d="M 221.491831 178.201795 
L 225.069554 178.201795 
L 225.069554 165.711721 
L 221.491831 165.711721 
z
" clip-path="url(#pd4fbdec65e)" style="fill: #1f77b4"/>
   </g>
   <g id="patch_156">
    <path d="M 225.069554 178.201795 
L 228.647277 178.201795 
L 228.647277 166.140933 
L 225.069554 166.140933 
z
" clip-path="url(#pd4fbdec65e)" style="fill: #1f77b4"/>
   </g>
   <g id="patch_157">
    <path d="M 228.647277 178.201795 
L 232.225 178.201795 
L 232.225 164.896218 
L 228.647277 164.896218 
z
" clip-path="url(#pd4fbdec65e)" style="fill: #1f77b4"/>
   </g>
   <g id="patch_158">
    <path d="M 232.225 178.201795 
L 235.802723 178.201795 
L 235.802723 162.750157 
L 232.225 162.750157 
z
" clip-path="url(#pd4fbdec65e)" style="fill: #1f77b4"/>
   </g>
   <g id="patch_159">
    <path d="M 235.802723 178.201795 
L 239.380446 178.201795 
L 239.380446 163.351054 
L 235.802723 163.351054 
z
" clip-path="url(#pd4fbdec65e)" style="fill: #1f77b4"/>
   </g>
   <g id="patch_160">
    <path d="M 239.380446 178.201795 
L 242.958169 178.201795 
L 242.958169 164.209478 
L 239.380446 164.209478 
z
" clip-path="url(#pd4fbdec65e)" style="fill: #1f77b4"/>
   </g>
   <g id="patch_161">
    <path d="M 242.958169 178.201795 
L 246.535892 178.201795 
L 246.535892 163.823187 
L 242.958169 163.823187 
z
" clip-path="url(#pd4fbdec65e)" style="fill: #1f77b4"/>
   </g>
   <g id="patch_162">
    <path d="M 246.535892 178.201795 
L 250.113615 178.201795 
L 250.113615 160.775781 
L 246.535892 160.775781 
z
" clip-path="url(#pd4fbdec65e)" style="fill: #1f77b4"/>
   </g>
   <g id="patch_163">
    <path d="M 250.113615 178.201795 
L 253.691337 178.201795 
L 253.691337 161.076229 
L 250.113615 161.076229 
z
" clip-path="url(#pd4fbdec65e)" style="fill: #1f77b4"/>
   </g>
   <g id="patch_164">
    <path d="M 253.691337 178.201795 
L 257.26906 178.201795 
L 257.26906 160.561175 
L 253.691337 160.561175 
z
" clip-path="url(#pd4fbdec65e)" style="fill: #1f77b4"/>
   </g>
   <g id="patch_165">
    <path d="M 257.26906 178.201795 
L 260.846783 178.201795 
L 260.846783 159.573987 
L 257.26906 159.573987 
z
" clip-path="url(#pd4fbdec65e)" style="fill: #1f77b4"/>
   </g>
   <g id="patch_166">
    <path d="M 260.846783 178.201795 
L 264.424506 178.201795 
L 264.424506 159.488144 
L 260.846783 159.488144 
z
" clip-path="url(#pd4fbdec65e)" style="fill: #1f77b4"/>
   </g>
   <g id="patch_167">
    <path d="M 264.424506 178.201795 
L 268.002229 178.201795 
L 268.002229 159.874435 
L 264.424506 159.874435 
z
" clip-path="url(#pd4fbdec65e)" style="fill: #1f77b4"/>
   </g>
   <g id="patch_168">
    <path d="M 268.002229 178.201795 
L 271.579952 178.201795 
L 271.579952 159.144775 
L 268.002229 159.144775 
z
" clip-path="url(#pd4fbdec65e)" style="fill: #1f77b4"/>
   </g>
   <g id="patch_169">
    <path d="M 271.579952 178.201795 
L 275.157675 178.201795 
L 275.157675 157.685453 
L 271.579952 157.685453 
z
" clip-path="url(#pd4fbdec65e)" style="fill: #1f77b4"/>
   </g>
   <g id="patch_170">
    <path d="M 275.157675 178.201795 
L 278.735398 178.201795 
L 278.735398 158.801405 
L 275.157675 158.801405 
z
" clip-path="url(#pd4fbdec65e)" style="fill: #1f77b4"/>
   </g>
   <g id="patch_171">
    <path d="M 278.735398 178.201795 
L 282.313121 178.201795 
L 282.313121 158.157587 
L 278.735398 158.157587 
z
" clip-path="url(#pd4fbdec65e)" style="fill: #1f77b4"/>
   </g>
   <g id="patch_172">
    <path d="M 282.313121 178.201795 
L 285.890844 178.201795 
L 285.890844 155.238944 
L 282.313121 155.238944 
z
" clip-path="url(#pd4fbdec65e)" style="fill: #1f77b4"/>
   </g>
   <g id="patch_173">
    <path d="M 285.890844 178.201795 
L 289.468567 178.201795 
L 289.468567 155.79692 
L 285.890844 155.79692 
z
" clip-path="url(#pd4fbdec65e)" style="fill: #1f77b4"/>
   </g>
   <g id="patch_174">
    <path d="M 289.468567 178.201795 
L 293.046289 178.201795 
L 293.046289 154.165913 
L 289.468567 154.165913 
z
" clip-path="url(#pd4fbdec65e)" style="fill: #1f77b4"/>
   </g>
   <g id="patch_175">
    <path d="M 293.046289 178.201795 
L 296.624012 178.201795 
L 296.624012 156.827029 
L 293.046289 156.827029 
z
" clip-path="url(#pd4fbdec65e)" style="fill: #1f77b4"/>
   </g>
   <g id="patch_176">
    <path d="M 296.624012 178.201795 
L 300.201735 178.201795 
L 300.201735 153.822544 
L 296.624012 153.822544 
z
" clip-path="url(#pd4fbdec65e)" style="fill: #1f77b4"/>
   </g>
   <g id="patch_177">
    <path d="M 300.201735 178.201795 
L 303.779458 178.201795 
L 303.779458 154.638047 
L 300.201735 154.638047 
z
" clip-path="url(#pd4fbdec65e)" style="fill: #1f77b4"/>
   </g>
   <g id="patch_178">
    <path d="M 303.779458 178.201795 
L 307.357181 178.201795 
L 307.357181 153.650859 
L 303.779458 153.650859 
z
" clip-path="url(#pd4fbdec65e)" style="fill: #1f77b4"/>
   </g>
   <g id="patch_179">
    <path d="M 307.357181 178.201795 
L 310.934904 178.201795 
L 310.934904 155.625235 
L 307.357181 155.625235 
z
" clip-path="url(#pd4fbdec65e)" style="fill: #1f77b4"/>
   </g>
   <g id="patch_180">
    <path d="M 310.934904 178.201795 
L 314.512627 178.201795 
L 314.512627 154.938495 
L 310.934904 154.938495 
z
" clip-path="url(#pd4fbdec65e)" style="fill: #1f77b4"/>
   </g>
   <g id="patch_181">
    <path d="M 314.512627 178.201795 
L 318.09035 178.201795 
L 318.09035 153.951307 
L 314.512627 153.951307 
z
" clip-path="url(#pd4fbdec65e)" style="fill: #1f77b4"/>
   </g>
   <g id="patch_182">
    <path d="M 318.09035 178.201795 
L 321.668073 178.201795 
L 321.668073 154.251756 
L 318.09035 154.251756 
z
" clip-path="url(#pd4fbdec65e)" style="fill: #1f77b4"/>
   </g>
   <g id="patch_183">
    <path d="M 321.668073 178.201795 
L 325.245796 178.201795 
L 325.245796 154.03715 
L 321.668073 154.03715 
z
" clip-path="url(#pd4fbdec65e)" style="fill: #1f77b4"/>
   </g>
   <g id="patch_184">
    <path d="M 325.245796 178.201795 
L 328.823519 178.201795 
L 328.823519 154.723889 
L 325.245796 154.723889 
z
" clip-path="url(#pd4fbdec65e)" style="fill: #1f77b4"/>
   </g>
   <g id="patch_185">
    <path d="M 328.823519 178.201795 
L 332.401241 178.201795 
L 332.401241 154.380519 
L 328.823519 154.380519 
z
" clip-path="url(#pd4fbdec65e)" style="fill: #1f77b4"/>
   </g>
   <g id="patch_186">
    <path d="M 332.401241 178.201795 
L 335.978964 178.201795 
L 335.978964 154.895574 
L 332.401241 154.895574 
z
" clip-path="url(#pd4fbdec65e)" style="fill: #1f77b4"/>
   </g>
   <g id="patch_187">
    <path d="M 335.978964 178.201795 
L 339.556687 178.201795 
L 339.556687 153.565016 
L 335.978964 153.565016 
z
" clip-path="url(#pd4fbdec65e)" style="fill: #1f77b4"/>
   </g>
   <g id="patch_188">
    <path d="M 339.556687 178.201795 
L 343.13441 178.201795 
L 343.13441 155.410629 
L 339.556687 155.410629 
z
" clip-path="url(#pd4fbdec65e)" style="fill: #1f77b4"/>
   </g>
   <g id="patch_189">
    <path d="M 343.13441 178.201795 
L 346.712133 178.201795 
L 346.712133 155.668156 
L 343.13441 155.668156 
z
" clip-path="url(#pd4fbdec65e)" style="fill: #1f77b4"/>
   </g>
   <g id="patch_190">
    <path d="M 346.712133 178.201795 
L 350.289856 178.201795 
L 350.289856 154.895574 
L 346.712133 154.895574 
z
" clip-path="url(#pd4fbdec65e)" style="fill: #1f77b4"/>
   </g>
   <g id="patch_191">
    <path d="M 350.289856 178.201795 
L 353.867579 178.201795 
L 353.867579 155.496471 
L 350.289856 155.496471 
z
" clip-path="url(#pd4fbdec65e)" style="fill: #1f77b4"/>
   </g>
   <g id="patch_192">
    <path d="M 353.867579 178.201795 
L 357.445302 178.201795 
L 357.445302 155.711077 
L 353.867579 155.711077 
z
" clip-path="url(#pd4fbdec65e)" style="fill: #1f77b4"/>
   </g>
   <g id="patch_193">
    <path d="M 357.445302 178.201795 
L 361.023025 178.201795 
L 361.023025 157.385005 
L 357.445302 157.385005 
z
" clip-path="url(#pd4fbdec65e)" style="fill: #1f77b4"/>
   </g>
   <g id="patch_194">
    <path d="M 361.023025 178.201795 
L 364.600748 178.201795 
L 364.600748 158.243429 
L 361.023025 158.243429 
z
" clip-path="url(#pd4fbdec65e)" style="fill: #1f77b4"/>
   </g>
   <g id="patch_195">
    <path d="M 364.600748 178.201795 
L 368.178471 178.201795 
L 368.178471 160.561175 
L 364.600748 160.561175 
z
" clip-path="url(#pd4fbdec65e)" style="fill: #1f77b4"/>
   </g>
   <g id="patch_196">
    <path d="M 368.178471 178.201795 
L 371.756193 178.201795 
L 371.756193 160.003199 
L 368.178471 160.003199 
z
" clip-path="url(#pd4fbdec65e)" style="fill: #1f77b4"/>
   </g>
   <g id="patch_197">
    <path d="M 371.756193 178.201795 
L 375.333916 178.201795 
L 375.333916 161.505441 
L 371.756193 161.505441 
z
" clip-path="url(#pd4fbdec65e)" style="fill: #1f77b4"/>
   </g>
   <g id="patch_198">
    <path d="M 375.333916 178.201795 
L 378.911639 178.201795 
L 378.911639 162.664314 
L 375.333916 162.664314 
z
" clip-path="url(#pd4fbdec65e)" style="fill: #1f77b4"/>
   </g>
   <g id="patch_199">
    <path d="M 378.911639 178.201795 
L 382.489362 178.201795 
L 382.489362 162.835999 
L 378.911639 162.835999 
z
" clip-path="url(#pd4fbdec65e)" style="fill: #1f77b4"/>
   </g>
   <g id="patch_200">
    <path d="M 382.489362 178.201795 
L 386.067085 178.201795 
L 386.067085 163.866108 
L 382.489362 163.866108 
z
" clip-path="url(#pd4fbdec65e)" style="fill: #1f77b4"/>
   </g>
   <g id="patch_201">
    <path d="M 386.067085 178.201795 
L 389.644808 178.201795 
L 389.644808 166.827672 
L 386.067085 166.827672 
z
" clip-path="url(#pd4fbdec65e)" style="fill: #1f77b4"/>
   </g>
   <g id="patch_202">
    <path d="M 389.644808 178.201795 
L 393.222531 178.201795 
L 393.222531 169.274182 
L 389.644808 169.274182 
z
" clip-path="url(#pd4fbdec65e)" style="fill: #1f77b4"/>
   </g>
   <g id="patch_203">
    <path d="M 393.222531 178.201795 
L 396.800254 178.201795 
L 396.800254 169.274182 
L 393.222531 169.274182 
z
" clip-path="url(#pd4fbdec65e)" style="fill: #1f77b4"/>
   </g>
   <g id="patch_204">
    <path d="M 396.800254 178.201795 
L 400.377977 178.201795 
L 400.377977 171.506085 
L 396.800254 171.506085 
z
" clip-path="url(#pd4fbdec65e)" style="fill: #1f77b4"/>
   </g>
   <g id="patch_205">
    <path d="M 400.377977 178.201795 
L 403.9557 178.201795 
L 403.9557 174.51057 
L 400.377977 174.51057 
z
" clip-path="url(#pd4fbdec65e)" style="fill: #1f77b4"/>
   </g>
   <g id="patch_206">
    <path d="M 403.9557 178.201795 
L 407.533423 178.201795 
L 407.533423 176.399104 
L 403.9557 176.399104 
z
" clip-path="url(#pd4fbdec65e)" style="fill: #1f77b4"/>
   </g>
   <g id="patch_207">
    <path d="M 407.533423 178.201795 
L 411.111145 178.201795 
L 411.111145 177.944268 
L 407.533423 177.944268 
z
" clip-path="url(#pd4fbdec65e)" style="fill: #1f77b4"/>
   </g>
   <g id="matplotlib.axis_3">
    <g id="xtick_8">
     <g id="line2d_10">
      <g>
       <use xlink:href="#mba0333d671" x="71.406998" y="178.201795" style="stroke: #000000; stroke-width: 0.8"/>
      </g>
     </g>
     <g id="text_11">
      <!-- 500 -->
      <g transform="translate(61.863248 192.800232)scale(0.1 -0.1)">
       <use xlink:href="#DejaVuSans-35"/>
       <use xlink:href="#DejaVuSans-30" x="63.623047"/>
       <use xlink:href="#DejaVuSans-30" x="127.246094"/>
      </g>
     </g>
    </g>
    <g id="xtick_9">
     <g id="line2d_11">
      <g>
       <use xlink:href="#mba0333d671" x="134.447928" y="178.201795" style="stroke: #000000; stroke-width: 0.8"/>
      </g>
     </g>
     <g id="text_12">
      <!-- 1000 -->
      <g transform="translate(121.722928 192.800232)scale(0.1 -0.1)">
       <use xlink:href="#DejaVuSans-31"/>
       <use xlink:href="#DejaVuSans-30" x="63.623047"/>
       <use xlink:href="#DejaVuSans-30" x="127.246094"/>
       <use xlink:href="#DejaVuSans-30" x="190.869141"/>
      </g>
     </g>
    </g>
    <g id="xtick_10">
     <g id="line2d_12">
      <g>
       <use xlink:href="#mba0333d671" x="197.488857" y="178.201795" style="stroke: #000000; stroke-width: 0.8"/>
      </g>
     </g>
     <g id="text_13">
      <!-- 1500 -->
      <g transform="translate(184.763857 192.800232)scale(0.1 -0.1)">
       <use xlink:href="#DejaVuSans-31"/>
       <use xlink:href="#DejaVuSans-35" x="63.623047"/>
       <use xlink:href="#DejaVuSans-30" x="127.246094"/>
       <use xlink:href="#DejaVuSans-30" x="190.869141"/>
      </g>
     </g>
    </g>
    <g id="xtick_11">
     <g id="line2d_13">
      <g>
       <use xlink:href="#mba0333d671" x="260.529787" y="178.201795" style="stroke: #000000; stroke-width: 0.8"/>
      </g>
     </g>
     <g id="text_14">
      <!-- 2000 -->
      <g transform="translate(247.804787 192.800232)scale(0.1 -0.1)">
       <use xlink:href="#DejaVuSans-32"/>
       <use xlink:href="#DejaVuSans-30" x="63.623047"/>
       <use xlink:href="#DejaVuSans-30" x="127.246094"/>
       <use xlink:href="#DejaVuSans-30" x="190.869141"/>
      </g>
     </g>
    </g>
    <g id="xtick_12">
     <g id="line2d_14">
      <g>
       <use xlink:href="#mba0333d671" x="323.570717" y="178.201795" style="stroke: #000000; stroke-width: 0.8"/>
      </g>
     </g>
     <g id="text_15">
      <!-- 2500 -->
      <g transform="translate(310.845717 192.800232)scale(0.1 -0.1)">
       <use xlink:href="#DejaVuSans-32"/>
       <use xlink:href="#DejaVuSans-35" x="63.623047"/>
       <use xlink:href="#DejaVuSans-30" x="127.246094"/>
       <use xlink:href="#DejaVuSans-30" x="190.869141"/>
      </g>
     </g>
    </g>
    <g id="xtick_13">
     <g id="line2d_15">
      <g>
       <use xlink:href="#mba0333d671" x="386.611646" y="178.201795" style="stroke: #000000; stroke-width: 0.8"/>
      </g>
     </g>
     <g id="text_16">
      <!-- 3000 -->
      <g transform="translate(373.886646 192.800232)scale(0.1 -0.1)">
       <use xlink:href="#DejaVuSans-33"/>
       <use xlink:href="#DejaVuSans-30" x="63.623047"/>
       <use xlink:href="#DejaVuSans-30" x="127.246094"/>
       <use xlink:href="#DejaVuSans-30" x="190.869141"/>
      </g>
     </g>
    </g>
   </g>
   <g id="matplotlib.axis_4">
    <g id="ytick_3">
     <g id="line2d_16">
      <g>
       <use xlink:href="#m66f15a41f6" x="35.45024" y="178.201795" style="stroke: #000000; stroke-width: 0.8"/>
      </g>
     </g>
     <g id="text_17">
      <!-- 0 -->
      <g transform="translate(22.08774 182.001014)scale(0.1 -0.1)">
       <use xlink:href="#DejaVuSans-30"/>
      </g>
     </g>
    </g>
    <g id="ytick_4">
     <g id="line2d_17">
      <g>
       <use xlink:href="#m66f15a41f6" x="35.45024" y="135.280578" style="stroke: #000000; stroke-width: 0.8"/>
      </g>
     </g>
     <g id="text_18">
      <!-- 1000 -->
      <g transform="translate(3.00024 139.079796)scale(0.1 -0.1)">
       <use xlink:href="#DejaVuSans-31"/>
       <use xlink:href="#DejaVuSans-30" x="63.623047"/>
       <use xlink:href="#DejaVuSans-30" x="127.246094"/>
       <use xlink:href="#DejaVuSans-30" x="190.869141"/>
      </g>
     </g>
    </g>
   </g>
   <g id="patch_208">
    <path d="M 35.45024 178.201795 
L 35.45024 125.878685 
" style="fill: none; stroke: #000000; stroke-width: 0.8; stroke-linejoin: miter; stroke-linecap: square"/>
   </g>
   <g id="patch_209">
    <path d="M 428.99976 178.201795 
L 428.99976 125.878685 
" style="fill: none; stroke: #000000; stroke-width: 0.8; stroke-linejoin: miter; stroke-linecap: square"/>
   </g>
   <g id="patch_210">
    <path d="M 35.45024 178.201795 
L 428.99976 178.201795 
" style="fill: none; stroke: #000000; stroke-width: 0.8; stroke-linejoin: miter; stroke-linecap: square"/>
   </g>
   <g id="patch_211">
    <path d="M 35.45024 125.878685 
L 428.99976 125.878685 
" style="fill: none; stroke: #000000; stroke-width: 0.8; stroke-linejoin: miter; stroke-linecap: square"/>
   </g>
   <g id="text_19">
    <!-- $\nu_2$ -->
    <g transform="translate(225.985 119.878685)scale(0.12 -0.12)">
     <use xlink:href="#DejaVuSans-Oblique-3bd" transform="translate(0 0.3125)"/>
     <use xlink:href="#DejaVuSans-32" transform="translate(55.859375 -16.09375)scale(0.7)"/>
    </g>
   </g>
  </g>
  <g id="axes_3">
   <g id="patch_212">
    <path d="M 35.45024 268.321635 
L 428.99976 268.321635 
L 428.99976 215.998525 
L 35.45024 215.998525 
z
" style="fill: #ffffff"/>
   </g>
   <g id="patch_213">
    <path d="M 53.338855 268.321635 
L 56.916577 268.321635 
L 56.916577 268.235793 
L 53.338855 268.235793 
z
" clip-path="url(#p12aa806910)" style="fill: #1f77b4"/>
   </g>
   <g id="patch_214">
    <path d="M 56.916577 268.321635 
L 60.4943 268.321635 
L 60.4943 268.321635 
L 56.916577 268.321635 
z
" clip-path="url(#p12aa806910)" style="fill: #1f77b4"/>
   </g>
   <g id="patch_215">
    <path d="M 60.4943 268.321635 
L 64.072023 268.321635 
L 64.072023 268.321635 
L 60.4943 268.321635 
z
" clip-path="url(#p12aa806910)" style="fill: #1f77b4"/>
   </g>
   <g id="patch_216">
    <path d="M 64.072023 268.321635 
L 67.649746 268.321635 
L 67.649746 268.321635 
L 64.072023 268.321635 
z
" clip-path="url(#p12aa806910)" style="fill: #1f77b4"/>
   </g>
   <g id="patch_217">
    <path d="M 67.649746 268.321635 
L 71.227469 268.321635 
L 71.227469 268.321635 
L 67.649746 268.321635 
z
" clip-path="url(#p12aa806910)" style="fill: #1f77b4"/>
   </g>
   <g id="patch_218">
    <path d="M 71.227469 268.321635 
L 74.805192 268.321635 
L 74.805192 268.278714 
L 71.227469 268.278714 
z
" clip-path="url(#p12aa806910)" style="fill: #1f77b4"/>
   </g>
   <g id="patch_219">
    <path d="M 74.805192 268.321635 
L 78.382915 268.321635 
L 78.382915 268.321635 
L 74.805192 268.321635 
z
" clip-path="url(#p12aa806910)" style="fill: #1f77b4"/>
   </g>
   <g id="patch_220">
    <path d="M 78.382915 268.321635 
L 81.960638 268.321635 
L 81.960638 268.192871 
L 78.382915 268.192871 
z
" clip-path="url(#p12aa806910)" style="fill: #1f77b4"/>
   </g>
   <g id="patch_221">
    <path d="M 81.960638 268.321635 
L 85.538361 268.321635 
L 85.538361 268.321635 
L 81.960638 268.321635 
z
" clip-path="url(#p12aa806910)" style="fill: #1f77b4"/>
   </g>
   <g id="patch_222">
    <path d="M 85.538361 268.321635 
L 89.116084 268.321635 
L 89.116084 268.235793 
L 85.538361 268.235793 
z
" clip-path="url(#p12aa806910)" style="fill: #1f77b4"/>
   </g>
   <g id="patch_223">
    <path d="M 89.116084 268.321635 
L 92.693807 268.321635 
L 92.693807 268.235793 
L 89.116084 268.235793 
z
" clip-path="url(#p12aa806910)" style="fill: #1f77b4"/>
   </g>
   <g id="patch_224">
    <path d="M 92.693807 268.321635 
L 96.271529 268.321635 
L 96.271529 268.278714 
L 92.693807 268.278714 
z
" clip-path="url(#p12aa806910)" style="fill: #1f77b4"/>
   </g>
   <g id="patch_225">
    <path d="M 96.271529 268.321635 
L 99.849252 268.321635 
L 99.849252 268.14995 
L 96.271529 268.14995 
z
" clip-path="url(#p12aa806910)" style="fill: #1f77b4"/>
   </g>
   <g id="patch_226">
    <path d="M 99.849252 268.321635 
L 103.426975 268.321635 
L 103.426975 268.192871 
L 99.849252 268.192871 
z
" clip-path="url(#p12aa806910)" style="fill: #1f77b4"/>
   </g>
   <g id="patch_227">
    <path d="M 103.426975 268.321635 
L 107.004698 268.321635 
L 107.004698 268.192871 
L 103.426975 268.192871 
z
" clip-path="url(#p12aa806910)" style="fill: #1f77b4"/>
   </g>
   <g id="patch_228">
    <path d="M 107.004698 268.321635 
L 110.582421 268.321635 
L 110.582421 268.021186 
L 107.004698 268.021186 
z
" clip-path="url(#p12aa806910)" style="fill: #1f77b4"/>
   </g>
   <g id="patch_229">
    <path d="M 110.582421 268.321635 
L 114.160144 268.321635 
L 114.160144 268.321635 
L 110.582421 268.321635 
z
" clip-path="url(#p12aa806910)" style="fill: #1f77b4"/>
   </g>
   <g id="patch_230">
    <path d="M 114.160144 268.321635 
L 117.737867 268.321635 
L 117.737867 267.978265 
L 114.160144 267.978265 
z
" clip-path="url(#p12aa806910)" style="fill: #1f77b4"/>
   </g>
   <g id="patch_231">
    <path d="M 117.737867 268.321635 
L 121.31559 268.321635 
L 121.31559 268.192871 
L 117.737867 268.192871 
z
" clip-path="url(#p12aa806910)" style="fill: #1f77b4"/>
   </g>
   <g id="patch_232">
    <path d="M 121.31559 268.321635 
L 124.893313 268.321635 
L 124.893313 268.192871 
L 121.31559 268.192871 
z
" clip-path="url(#p12aa806910)" style="fill: #1f77b4"/>
   </g>
   <g id="patch_233">
    <path d="M 124.893313 268.321635 
L 128.471036 268.321635 
L 128.471036 267.677817 
L 124.893313 267.677817 
z
" clip-path="url(#p12aa806910)" style="fill: #1f77b4"/>
   </g>
   <g id="patch_234">
    <path d="M 128.471036 268.321635 
L 132.048759 268.321635 
L 132.048759 267.892423 
L 128.471036 267.892423 
z
" clip-path="url(#p12aa806910)" style="fill: #1f77b4"/>
   </g>
   <g id="patch_235">
    <path d="M 132.048759 268.321635 
L 135.626481 268.321635 
L 135.626481 267.849502 
L 132.048759 267.849502 
z
" clip-path="url(#p12aa806910)" style="fill: #1f77b4"/>
   </g>
   <g id="patch_236">
    <path d="M 135.626481 268.321635 
L 139.204204 268.321635 
L 139.204204 267.677817 
L 135.626481 267.677817 
z
" clip-path="url(#p12aa806910)" style="fill: #1f77b4"/>
   </g>
   <g id="patch_237">
    <path d="M 139.204204 268.321635 
L 142.781927 268.321635 
L 142.781927 268.064108 
L 139.204204 268.064108 
z
" clip-path="url(#p12aa806910)" style="fill: #1f77b4"/>
   </g>
   <g id="patch_238">
    <path d="M 142.781927 268.321635 
L 146.35965 268.321635 
L 146.35965 267.80658 
L 142.781927 267.80658 
z
" clip-path="url(#p12aa806910)" style="fill: #1f77b4"/>
   </g>
   <g id="patch_239">
    <path d="M 146.35965 268.321635 
L 149.937373 268.321635 
L 149.937373 267.506132 
L 146.35965 267.506132 
z
" clip-path="url(#p12aa806910)" style="fill: #1f77b4"/>
   </g>
   <g id="patch_240">
    <path d="M 149.937373 268.321635 
L 153.515096 268.321635 
L 153.515096 267.334447 
L 149.937373 267.334447 
z
" clip-path="url(#p12aa806910)" style="fill: #1f77b4"/>
   </g>
   <g id="patch_241">
    <path d="M 153.515096 268.321635 
L 157.092819 268.321635 
L 157.092819 267.334447 
L 153.515096 267.334447 
z
" clip-path="url(#p12aa806910)" style="fill: #1f77b4"/>
   </g>
   <g id="patch_242">
    <path d="M 157.092819 268.321635 
L 160.670542 268.321635 
L 160.670542 267.119841 
L 157.092819 267.119841 
z
" clip-path="url(#p12aa806910)" style="fill: #1f77b4"/>
   </g>
   <g id="patch_243">
    <path d="M 160.670542 268.321635 
L 164.248265 268.321635 
L 164.248265 267.205683 
L 160.670542 267.205683 
z
" clip-path="url(#p12aa806910)" style="fill: #1f77b4"/>
   </g>
   <g id="patch_244">
    <path d="M 164.248265 268.321635 
L 167.825988 268.321635 
L 167.825988 267.033998 
L 164.248265 267.033998 
z
" clip-path="url(#p12aa806910)" style="fill: #1f77b4"/>
   </g>
   <g id="patch_245">
    <path d="M 167.825988 268.321635 
L 171.403711 268.321635 
L 171.403711 267.291526 
L 167.825988 267.291526 
z
" clip-path="url(#p12aa806910)" style="fill: #1f77b4"/>
   </g>
   <g id="patch_246">
    <path d="M 171.403711 268.321635 
L 174.981433 268.321635 
L 174.981433 266.991077 
L 171.403711 266.991077 
z
" clip-path="url(#p12aa806910)" style="fill: #1f77b4"/>
   </g>
   <g id="patch_247">
    <path d="M 174.981433 268.321635 
L 178.559156 268.321635 
L 178.559156 267.248605 
L 174.981433 267.248605 
z
" clip-path="url(#p12aa806910)" style="fill: #1f77b4"/>
   </g>
   <g id="patch_248">
    <path d="M 178.559156 268.321635 
L 182.136879 268.321635 
L 182.136879 266.647708 
L 178.559156 266.647708 
z
" clip-path="url(#p12aa806910)" style="fill: #1f77b4"/>
   </g>
   <g id="patch_249">
    <path d="M 182.136879 268.321635 
L 185.714602 268.321635 
L 185.714602 266.819392 
L 182.136879 266.819392 
z
" clip-path="url(#p12aa806910)" style="fill: #1f77b4"/>
   </g>
   <g id="patch_250">
    <path d="M 185.714602 268.321635 
L 189.292325 268.321635 
L 189.292325 266.04681 
L 185.714602 266.04681 
z
" clip-path="url(#p12aa806910)" style="fill: #1f77b4"/>
   </g>
   <g id="patch_251">
    <path d="M 189.292325 268.321635 
L 192.870048 268.321635 
L 192.870048 265.66052 
L 189.292325 265.66052 
z
" clip-path="url(#p12aa806910)" style="fill: #1f77b4"/>
   </g>
   <g id="patch_252">
    <path d="M 192.870048 268.321635 
L 196.447771 268.321635 
L 196.447771 266.261417 
L 192.870048 266.261417 
z
" clip-path="url(#p12aa806910)" style="fill: #1f77b4"/>
   </g>
   <g id="patch_253">
    <path d="M 196.447771 268.321635 
L 200.025494 268.321635 
L 200.025494 266.003889 
L 196.447771 266.003889 
z
" clip-path="url(#p12aa806910)" style="fill: #1f77b4"/>
   </g>
   <g id="patch_254">
    <path d="M 200.025494 268.321635 
L 203.603217 268.321635 
L 203.603217 265.960968 
L 200.025494 265.960968 
z
" clip-path="url(#p12aa806910)" style="fill: #1f77b4"/>
   </g>
   <g id="patch_255">
    <path d="M 203.603217 268.321635 
L 207.18094 268.321635 
L 207.18094 264.97378 
L 203.603217 264.97378 
z
" clip-path="url(#p12aa806910)" style="fill: #1f77b4"/>
   </g>
   <g id="patch_256">
    <path d="M 207.18094 268.321635 
L 210.758663 268.321635 
L 210.758663 265.617598 
L 207.18094 265.617598 
z
" clip-path="url(#p12aa806910)" style="fill: #1f77b4"/>
   </g>
   <g id="patch_257">
    <path d="M 210.758663 268.321635 
L 214.336385 268.321635 
L 214.336385 265.016701 
L 210.758663 265.016701 
z
" clip-path="url(#p12aa806910)" style="fill: #1f77b4"/>
   </g>
   <g id="patch_258">
    <path d="M 214.336385 268.321635 
L 217.914108 268.321635 
L 217.914108 265.231307 
L 214.336385 265.231307 
z
" clip-path="url(#p12aa806910)" style="fill: #1f77b4"/>
   </g>
   <g id="patch_259">
    <path d="M 217.914108 268.321635 
L 221.491831 268.321635 
L 221.491831 264.802095 
L 217.914108 264.802095 
z
" clip-path="url(#p12aa806910)" style="fill: #1f77b4"/>
   </g>
   <g id="patch_260">
    <path d="M 221.491831 268.321635 
L 225.069554 268.321635 
L 225.069554 263.729065 
L 221.491831 263.729065 
z
" clip-path="url(#p12aa806910)" style="fill: #1f77b4"/>
   </g>
   <g id="patch_261">
    <path d="M 225.069554 268.321635 
L 228.647277 268.321635 
L 228.647277 264.802095 
L 225.069554 264.802095 
z
" clip-path="url(#p12aa806910)" style="fill: #1f77b4"/>
   </g>
   <g id="patch_262">
    <path d="M 228.647277 268.321635 
L 232.225 268.321635 
L 232.225 263.729065 
L 228.647277 263.729065 
z
" clip-path="url(#p12aa806910)" style="fill: #1f77b4"/>
   </g>
   <g id="patch_263">
    <path d="M 232.225 268.321635 
L 235.802723 268.321635 
L 235.802723 263.21401 
L 232.225 263.21401 
z
" clip-path="url(#p12aa806910)" style="fill: #1f77b4"/>
   </g>
   <g id="patch_264">
    <path d="M 235.802723 268.321635 
L 239.380446 268.321635 
L 239.380446 262.87064 
L 235.802723 262.87064 
z
" clip-path="url(#p12aa806910)" style="fill: #1f77b4"/>
   </g>
   <g id="patch_265">
    <path d="M 239.380446 268.321635 
L 242.958169 268.321635 
L 242.958169 262.999404 
L 239.380446 262.999404 
z
" clip-path="url(#p12aa806910)" style="fill: #1f77b4"/>
   </g>
   <g id="patch_266">
    <path d="M 242.958169 268.321635 
L 246.535892 268.321635 
L 246.535892 262.269743 
L 242.958169 262.269743 
z
" clip-path="url(#p12aa806910)" style="fill: #1f77b4"/>
   </g>
   <g id="patch_267">
    <path d="M 246.535892 268.321635 
L 250.113615 268.321635 
L 250.113615 262.183901 
L 246.535892 262.183901 
z
" clip-path="url(#p12aa806910)" style="fill: #1f77b4"/>
   </g>
   <g id="patch_268">
    <path d="M 250.113615 268.321635 
L 253.691337 268.321635 
L 253.691337 261.45424 
L 250.113615 261.45424 
z
" clip-path="url(#p12aa806910)" style="fill: #1f77b4"/>
   </g>
   <g id="patch_269">
    <path d="M 253.691337 268.321635 
L 257.26906 268.321635 
L 257.26906 261.067949 
L 253.691337 261.067949 
z
" clip-path="url(#p12aa806910)" style="fill: #1f77b4"/>
   </g>
   <g id="patch_270">
    <path d="M 257.26906 268.321635 
L 260.846783 268.321635 
L 260.846783 261.025028 
L 257.26906 261.025028 
z
" clip-path="url(#p12aa806910)" style="fill: #1f77b4"/>
   </g>
   <g id="patch_271">
    <path d="M 260.846783 268.321635 
L 264.424506 268.321635 
L 264.424506 261.067949 
L 260.846783 261.067949 
z
" clip-path="url(#p12aa806910)" style="fill: #1f77b4"/>
   </g>
   <g id="patch_272">
    <path d="M 264.424506 268.321635 
L 268.002229 268.321635 
L 268.002229 259.737392 
L 264.424506 259.737392 
z
" clip-path="url(#p12aa806910)" style="fill: #1f77b4"/>
   </g>
   <g id="patch_273">
    <path d="M 268.002229 268.321635 
L 271.579952 268.321635 
L 271.579952 259.608628 
L 268.002229 259.608628 
z
" clip-path="url(#p12aa806910)" style="fill: #1f77b4"/>
   </g>
   <g id="patch_274">
    <path d="M 271.579952 268.321635 
L 275.157675 268.321635 
L 275.157675 259.565707 
L 271.579952 259.565707 
z
" clip-path="url(#p12aa806910)" style="fill: #1f77b4"/>
   </g>
   <g id="patch_275">
    <path d="M 275.157675 268.321635 
L 278.735398 268.321635 
L 278.735398 257.419646 
L 275.157675 257.419646 
z
" clip-path="url(#p12aa806910)" style="fill: #1f77b4"/>
   </g>
   <g id="patch_276">
    <path d="M 278.735398 268.321635 
L 282.313121 268.321635 
L 282.313121 258.707282 
L 278.735398 258.707282 
z
" clip-path="url(#p12aa806910)" style="fill: #1f77b4"/>
   </g>
   <g id="patch_277">
    <path d="M 282.313121 268.321635 
L 285.890844 268.321635 
L 285.890844 257.805937 
L 282.313121 257.805937 
z
" clip-path="url(#p12aa806910)" style="fill: #1f77b4"/>
   </g>
   <g id="patch_278">
    <path d="M 285.890844 268.321635 
L 289.468567 268.321635 
L 289.468567 256.904591 
L 285.890844 256.904591 
z
" clip-path="url(#p12aa806910)" style="fill: #1f77b4"/>
   </g>
   <g id="patch_279">
    <path d="M 289.468567 268.321635 
L 293.046289 268.321635 
L 293.046289 256.046167 
L 289.468567 256.046167 
z
" clip-path="url(#p12aa806910)" style="fill: #1f77b4"/>
   </g>
   <g id="patch_280">
    <path d="M 293.046289 268.321635 
L 296.624012 268.321635 
L 296.624012 255.359427 
L 293.046289 255.359427 
z
" clip-path="url(#p12aa806910)" style="fill: #1f77b4"/>
   </g>
   <g id="patch_281">
    <path d="M 296.624012 268.321635 
L 300.201735 268.321635 
L 300.201735 254.372239 
L 296.624012 254.372239 
z
" clip-path="url(#p12aa806910)" style="fill: #1f77b4"/>
   </g>
   <g id="patch_282">
    <path d="M 300.201735 268.321635 
L 303.779458 268.321635 
L 303.779458 253.427973 
L 300.201735 253.427973 
z
" clip-path="url(#p12aa806910)" style="fill: #1f77b4"/>
   </g>
   <g id="patch_283">
    <path d="M 303.779458 268.321635 
L 307.357181 268.321635 
L 307.357181 252.741233 
L 303.779458 252.741233 
z
" clip-path="url(#p12aa806910)" style="fill: #1f77b4"/>
   </g>
   <g id="patch_284">
    <path d="M 307.357181 268.321635 
L 310.934904 268.321635 
L 310.934904 251.711124 
L 307.357181 251.711124 
z
" clip-path="url(#p12aa806910)" style="fill: #1f77b4"/>
   </g>
   <g id="patch_285">
    <path d="M 310.934904 268.321635 
L 314.512627 268.321635 
L 314.512627 251.92573 
L 310.934904 251.92573 
z
" clip-path="url(#p12aa806910)" style="fill: #1f77b4"/>
   </g>
   <g id="patch_286">
    <path d="M 314.512627 268.321635 
L 318.09035 268.321635 
L 318.09035 252.054494 
L 314.512627 252.054494 
z
" clip-path="url(#p12aa806910)" style="fill: #1f77b4"/>
   </g>
   <g id="patch_287">
    <path d="M 318.09035 268.321635 
L 321.668073 268.321635 
L 321.668073 250.595172 
L 318.09035 250.595172 
z
" clip-path="url(#p12aa806910)" style="fill: #1f77b4"/>
   </g>
   <g id="patch_288">
    <path d="M 321.668073 268.321635 
L 325.245796 268.321635 
L 325.245796 250.294724 
L 321.668073 250.294724 
z
" clip-path="url(#p12aa806910)" style="fill: #1f77b4"/>
   </g>
   <g id="patch_289">
    <path d="M 325.245796 268.321635 
L 328.823519 268.321635 
L 328.823519 248.577875 
L 325.245796 248.577875 
z
" clip-path="url(#p12aa806910)" style="fill: #1f77b4"/>
   </g>
   <g id="patch_290">
    <path d="M 328.823519 268.321635 
L 332.401241 268.321635 
L 332.401241 246.088444 
L 328.823519 246.088444 
z
" clip-path="url(#p12aa806910)" style="fill: #1f77b4"/>
   </g>
   <g id="patch_291">
    <path d="M 332.401241 268.321635 
L 335.978964 268.321635 
L 335.978964 245.959681 
L 332.401241 245.959681 
z
" clip-path="url(#p12aa806910)" style="fill: #1f77b4"/>
   </g>
   <g id="patch_292">
    <path d="M 335.978964 268.321635 
L 339.556687 268.321635 
L 339.556687 247.204396 
L 335.978964 247.204396 
z
" clip-path="url(#p12aa806910)" style="fill: #1f77b4"/>
   </g>
   <g id="patch_293">
    <path d="M 339.556687 268.321635 
L 343.13441 268.321635 
L 343.13441 244.15699 
L 339.556687 244.15699 
z
" clip-path="url(#p12aa806910)" style="fill: #1f77b4"/>
   </g>
   <g id="patch_294">
    <path d="M 343.13441 268.321635 
L 346.712133 268.321635 
L 346.712133 243.298565 
L 343.13441 243.298565 
z
" clip-path="url(#p12aa806910)" style="fill: #1f77b4"/>
   </g>
   <g id="patch_295">
    <path d="M 346.712133 268.321635 
L 350.289856 268.321635 
L 350.289856 239.178128 
L 346.712133 239.178128 
z
" clip-path="url(#p12aa806910)" style="fill: #1f77b4"/>
   </g>
   <g id="patch_296">
    <path d="M 350.289856 268.321635 
L 353.867579 268.321635 
L 353.867579 241.581717 
L 350.289856 241.581717 
z
" clip-path="url(#p12aa806910)" style="fill: #1f77b4"/>
   </g>
   <g id="patch_297">
    <path d="M 353.867579 268.321635 
L 357.445302 268.321635 
L 357.445302 240.29408 
L 353.867579 240.29408 
z
" clip-path="url(#p12aa806910)" style="fill: #1f77b4"/>
   </g>
   <g id="patch_298">
    <path d="M 357.445302 268.321635 
L 361.023025 268.321635 
L 361.023025 236.388249 
L 357.445302 236.388249 
z
" clip-path="url(#p12aa806910)" style="fill: #1f77b4"/>
   </g>
   <g id="patch_299">
    <path d="M 361.023025 268.321635 
L 364.600748 268.321635 
L 364.600748 238.233862 
L 361.023025 238.233862 
z
" clip-path="url(#p12aa806910)" style="fill: #1f77b4"/>
   </g>
   <g id="patch_300">
    <path d="M 364.600748 268.321635 
L 368.178471 268.321635 
L 368.178471 235.01477 
L 364.600748 235.01477 
z
" clip-path="url(#p12aa806910)" style="fill: #1f77b4"/>
   </g>
   <g id="patch_301">
    <path d="M 368.178471 268.321635 
L 371.756193 268.321635 
L 371.756193 234.628479 
L 368.178471 234.628479 
z
" clip-path="url(#p12aa806910)" style="fill: #1f77b4"/>
   </g>
   <g id="patch_302">
    <path d="M 371.756193 268.321635 
L 375.333916 268.321635 
L 375.333916 232.396576 
L 371.756193 232.396576 
z
" clip-path="url(#p12aa806910)" style="fill: #1f77b4"/>
   </g>
   <g id="patch_303">
    <path d="M 375.333916 268.321635 
L 378.911639 268.321635 
L 378.911639 230.937255 
L 375.333916 230.937255 
z
" clip-path="url(#p12aa806910)" style="fill: #1f77b4"/>
   </g>
   <g id="patch_304">
    <path d="M 378.911639 268.321635 
L 382.489362 268.321635 
L 382.489362 226.945581 
L 378.911639 226.945581 
z
" clip-path="url(#p12aa806910)" style="fill: #1f77b4"/>
   </g>
   <g id="patch_305">
    <path d="M 382.489362 268.321635 
L 386.067085 268.321635 
L 386.067085 226.044236 
L 382.489362 226.044236 
z
" clip-path="url(#p12aa806910)" style="fill: #1f77b4"/>
   </g>
   <g id="patch_306">
    <path d="M 386.067085 268.321635 
L 389.644808 268.321635 
L 389.644808 225.48626 
L 386.067085 225.48626 
z
" clip-path="url(#p12aa806910)" style="fill: #1f77b4"/>
   </g>
   <g id="patch_307">
    <path d="M 389.644808 268.321635 
L 393.222531 268.321635 
L 393.222531 222.696381 
L 389.644808 222.696381 
z
" clip-path="url(#p12aa806910)" style="fill: #1f77b4"/>
   </g>
   <g id="patch_308">
    <path d="M 393.222531 268.321635 
L 396.800254 268.321635 
L 396.800254 222.481775 
L 393.222531 222.481775 
z
" clip-path="url(#p12aa806910)" style="fill: #1f77b4"/>
   </g>
   <g id="patch_309">
    <path d="M 396.800254 268.321635 
L 400.377977 268.321635 
L 400.377977 220.035265 
L 396.800254 220.035265 
z
" clip-path="url(#p12aa806910)" style="fill: #1f77b4"/>
   </g>
   <g id="patch_310">
    <path d="M 400.377977 268.321635 
L 403.9557 268.321635 
L 403.9557 218.490102 
L 400.377977 218.490102 
z
" clip-path="url(#p12aa806910)" style="fill: #1f77b4"/>
   </g>
   <g id="patch_311">
    <path d="M 403.9557 268.321635 
L 407.533423 268.321635 
L 407.533423 225.228733 
L 403.9557 225.228733 
z
" clip-path="url(#p12aa806910)" style="fill: #1f77b4"/>
   </g>
   <g id="patch_312">
    <path d="M 407.533423 268.321635 
L 411.111145 268.321635 
L 411.111145 260.638737 
L 407.533423 260.638737 
z
" clip-path="url(#p12aa806910)" style="fill: #1f77b4"/>
   </g>
   <g id="matplotlib.axis_5">
    <g id="xtick_14">
     <g id="line2d_18">
      <g>
       <use xlink:href="#mba0333d671" x="78.128872" y="268.321635" style="stroke: #000000; stroke-width: 0.8"/>
      </g>
     </g>
     <g id="text_20">
      <!-- 1000 -->
      <g transform="translate(65.403872 282.920073)scale(0.1 -0.1)">
       <use xlink:href="#DejaVuSans-31"/>
       <use xlink:href="#DejaVuSans-30" x="63.623047"/>
       <use xlink:href="#DejaVuSans-30" x="127.246094"/>
       <use xlink:href="#DejaVuSans-30" x="190.869141"/>
      </g>
     </g>
    </g>
    <g id="xtick_15">
     <g id="line2d_19">
      <g>
       <use xlink:href="#mba0333d671" x="153.837686" y="268.321635" style="stroke: #000000; stroke-width: 0.8"/>
      </g>
     </g>
     <g id="text_21">
      <!-- 1500 -->
      <g transform="translate(141.112686 282.920073)scale(0.1 -0.1)">
       <use xlink:href="#DejaVuSans-31"/>
       <use xlink:href="#DejaVuSans-35" x="63.623047"/>
       <use xlink:href="#DejaVuSans-30" x="127.246094"/>
       <use xlink:href="#DejaVuSans-30" x="190.869141"/>
      </g>
     </g>
    </g>
    <g id="xtick_16">
     <g id="line2d_20">
      <g>
       <use xlink:href="#mba0333d671" x="229.5465" y="268.321635" style="stroke: #000000; stroke-width: 0.8"/>
      </g>
     </g>
     <g id="text_22">
      <!-- 2000 -->
      <g transform="translate(216.8215 282.920073)scale(0.1 -0.1)">
       <use xlink:href="#DejaVuSans-32"/>
       <use xlink:href="#DejaVuSans-30" x="63.623047"/>
       <use xlink:href="#DejaVuSans-30" x="127.246094"/>
       <use xlink:href="#DejaVuSans-30" x="190.869141"/>
      </g>
     </g>
    </g>
    <g id="xtick_17">
     <g id="line2d_21">
      <g>
       <use xlink:href="#mba0333d671" x="305.255315" y="268.321635" style="stroke: #000000; stroke-width: 0.8"/>
      </g>
     </g>
     <g id="text_23">
      <!-- 2500 -->
      <g transform="translate(292.530315 282.920073)scale(0.1 -0.1)">
       <use xlink:href="#DejaVuSans-32"/>
       <use xlink:href="#DejaVuSans-35" x="63.623047"/>
       <use xlink:href="#DejaVuSans-30" x="127.246094"/>
       <use xlink:href="#DejaVuSans-30" x="190.869141"/>
      </g>
     </g>
    </g>
    <g id="xtick_18">
     <g id="line2d_22">
      <g>
       <use xlink:href="#mba0333d671" x="380.964129" y="268.321635" style="stroke: #000000; stroke-width: 0.8"/>
      </g>
     </g>
     <g id="text_24">
      <!-- 3000 -->
      <g transform="translate(368.239129 282.920073)scale(0.1 -0.1)">
       <use xlink:href="#DejaVuSans-33"/>
       <use xlink:href="#DejaVuSans-30" x="63.623047"/>
       <use xlink:href="#DejaVuSans-30" x="127.246094"/>
       <use xlink:href="#DejaVuSans-30" x="190.869141"/>
      </g>
     </g>
    </g>
   </g>
   <g id="matplotlib.axis_6">
    <g id="ytick_5">
     <g id="line2d_23">
      <g>
       <use xlink:href="#m66f15a41f6" x="35.45024" y="268.321635" style="stroke: #000000; stroke-width: 0.8"/>
      </g>
     </g>
     <g id="text_25">
      <!-- 0 -->
      <g transform="translate(22.08774 272.120854)scale(0.1 -0.1)">
       <use xlink:href="#DejaVuSans-30"/>
      </g>
     </g>
    </g>
    <g id="ytick_6">
     <g id="line2d_24">
      <g>
       <use xlink:href="#m66f15a41f6" x="35.45024" y="225.400418" style="stroke: #000000; stroke-width: 0.8"/>
      </g>
     </g>
     <g id="text_26">
      <!-- 1000 -->
      <g transform="translate(3.00024 229.199636)scale(0.1 -0.1)">
       <use xlink:href="#DejaVuSans-31"/>
       <use xlink:href="#DejaVuSans-30" x="63.623047"/>
       <use xlink:href="#DejaVuSans-30" x="127.246094"/>
       <use xlink:href="#DejaVuSans-30" x="190.869141"/>
      </g>
     </g>
    </g>
   </g>
   <g id="patch_313">
    <path d="M 35.45024 268.321635 
L 35.45024 215.998525 
" style="fill: none; stroke: #000000; stroke-width: 0.8; stroke-linejoin: miter; stroke-linecap: square"/>
   </g>
   <g id="patch_314">
    <path d="M 428.99976 268.321635 
L 428.99976 215.998525 
" style="fill: none; stroke: #000000; stroke-width: 0.8; stroke-linejoin: miter; stroke-linecap: square"/>
   </g>
   <g id="patch_315">
    <path d="M 35.45024 268.321635 
L 428.99976 268.321635 
" style="fill: none; stroke: #000000; stroke-width: 0.8; stroke-linejoin: miter; stroke-linecap: square"/>
   </g>
   <g id="patch_316">
    <path d="M 35.45024 215.998525 
L 428.99976 215.998525 
" style="fill: none; stroke: #000000; stroke-width: 0.8; stroke-linejoin: miter; stroke-linecap: square"/>
   </g>
   <g id="text_27">
    <!-- $\nu_3$ -->
    <g transform="translate(225.985 209.998525)scale(0.12 -0.12)">
     <use xlink:href="#DejaVuSans-Oblique-3bd" transform="translate(0 0.3125)"/>
     <use xlink:href="#DejaVuSans-33" transform="translate(55.859375 -16.09375)scale(0.7)"/>
    </g>
   </g>
  </g>
  <g id="text_28">
   <!-- Histogramme des $\nu$ -->
   <g transform="translate(157.5 12.12024)scale(0.12 -0.12)">
    <defs>
     <path id="DejaVuSans-48" d="M 628 4666 
L 1259 4666 
L 1259 2753 
L 3553 2753 
L 3553 4666 
L 4184 4666 
L 4184 0 
L 3553 0 
L 3553 2222 
L 1259 2222 
L 1259 0 
L 628 0 
L 628 4666 
z
" transform="scale(0.015625)"/>
     <path id="DejaVuSans-69" d="M 603 3500 
L 1178 3500 
L 1178 0 
L 603 0 
L 603 3500 
z
M 603 4863 
L 1178 4863 
L 1178 4134 
L 603 4134 
L 603 4863 
z
" transform="scale(0.015625)"/>
     <path id="DejaVuSans-73" d="M 2834 3397 
L 2834 2853 
Q 2591 2978 2328 3040 
Q 2066 3103 1784 3103 
Q 1356 3103 1142 2972 
Q 928 2841 928 2578 
Q 928 2378 1081 2264 
Q 1234 2150 1697 2047 
L 1894 2003 
Q 2506 1872 2764 1633 
Q 3022 1394 3022 966 
Q 3022 478 2636 193 
Q 2250 -91 1575 -91 
Q 1294 -91 989 -36 
Q 684 19 347 128 
L 347 722 
Q 666 556 975 473 
Q 1284 391 1588 391 
Q 1994 391 2212 530 
Q 2431 669 2431 922 
Q 2431 1156 2273 1281 
Q 2116 1406 1581 1522 
L 1381 1569 
Q 847 1681 609 1914 
Q 372 2147 372 2553 
Q 372 3047 722 3315 
Q 1072 3584 1716 3584 
Q 2034 3584 2315 3537 
Q 2597 3491 2834 3397 
z
" transform="scale(0.015625)"/>
     <path id="DejaVuSans-74" d="M 1172 4494 
L 1172 3500 
L 2356 3500 
L 2356 3053 
L 1172 3053 
L 1172 1153 
Q 1172 725 1289 603 
Q 1406 481 1766 481 
L 2356 481 
L 2356 0 
L 1766 0 
Q 1100 0 847 248 
Q 594 497 594 1153 
L 594 3053 
L 172 3053 
L 172 3500 
L 594 3500 
L 594 4494 
L 1172 4494 
z
" transform="scale(0.015625)"/>
     <path id="DejaVuSans-6f" d="M 1959 3097 
Q 1497 3097 1228 2736 
Q 959 2375 959 1747 
Q 959 1119 1226 758 
Q 1494 397 1959 397 
Q 2419 397 2687 759 
Q 2956 1122 2956 1747 
Q 2956 2369 2687 2733 
Q 2419 3097 1959 3097 
z
M 1959 3584 
Q 2709 3584 3137 3096 
Q 3566 2609 3566 1747 
Q 3566 888 3137 398 
Q 2709 -91 1959 -91 
Q 1206 -91 779 398 
Q 353 888 353 1747 
Q 353 2609 779 3096 
Q 1206 3584 1959 3584 
z
" transform="scale(0.015625)"/>
     <path id="DejaVuSans-67" d="M 2906 1791 
Q 2906 2416 2648 2759 
Q 2391 3103 1925 3103 
Q 1463 3103 1205 2759 
Q 947 2416 947 1791 
Q 947 1169 1205 825 
Q 1463 481 1925 481 
Q 2391 481 2648 825 
Q 2906 1169 2906 1791 
z
M 3481 434 
Q 3481 -459 3084 -895 
Q 2688 -1331 1869 -1331 
Q 1566 -1331 1297 -1286 
Q 1028 -1241 775 -1147 
L 775 -588 
Q 1028 -725 1275 -790 
Q 1522 -856 1778 -856 
Q 2344 -856 2625 -561 
Q 2906 -266 2906 331 
L 2906 616 
Q 2728 306 2450 153 
Q 2172 0 1784 0 
Q 1141 0 747 490 
Q 353 981 353 1791 
Q 353 2603 747 3093 
Q 1141 3584 1784 3584 
Q 2172 3584 2450 3431 
Q 2728 3278 2906 2969 
L 2906 3500 
L 3481 3500 
L 3481 434 
z
" transform="scale(0.015625)"/>
     <path id="DejaVuSans-72" d="M 2631 2963 
Q 2534 3019 2420 3045 
Q 2306 3072 2169 3072 
Q 1681 3072 1420 2755 
Q 1159 2438 1159 1844 
L 1159 0 
L 581 0 
L 581 3500 
L 1159 3500 
L 1159 2956 
Q 1341 3275 1631 3429 
Q 1922 3584 2338 3584 
Q 2397 3584 2469 3576 
Q 2541 3569 2628 3553 
L 2631 2963 
z
" transform="scale(0.015625)"/>
     <path id="DejaVuSans-61" d="M 2194 1759 
Q 1497 1759 1228 1600 
Q 959 1441 959 1056 
Q 959 750 1161 570 
Q 1363 391 1709 391 
Q 2188 391 2477 730 
Q 2766 1069 2766 1631 
L 2766 1759 
L 2194 1759 
z
M 3341 1997 
L 3341 0 
L 2766 0 
L 2766 531 
Q 2569 213 2275 61 
Q 1981 -91 1556 -91 
Q 1019 -91 701 211 
Q 384 513 384 1019 
Q 384 1609 779 1909 
Q 1175 2209 1959 2209 
L 2766 2209 
L 2766 2266 
Q 2766 2663 2505 2880 
Q 2244 3097 1772 3097 
Q 1472 3097 1187 3025 
Q 903 2953 641 2809 
L 641 3341 
Q 956 3463 1253 3523 
Q 1550 3584 1831 3584 
Q 2591 3584 2966 3190 
Q 3341 2797 3341 1997 
z
" transform="scale(0.015625)"/>
     <path id="DejaVuSans-6d" d="M 3328 2828 
Q 3544 3216 3844 3400 
Q 4144 3584 4550 3584 
Q 5097 3584 5394 3201 
Q 5691 2819 5691 2113 
L 5691 0 
L 5113 0 
L 5113 2094 
Q 5113 2597 4934 2840 
Q 4756 3084 4391 3084 
Q 3944 3084 3684 2787 
Q 3425 2491 3425 1978 
L 3425 0 
L 2847 0 
L 2847 2094 
Q 2847 2600 2669 2842 
Q 2491 3084 2119 3084 
Q 1678 3084 1418 2786 
Q 1159 2488 1159 1978 
L 1159 0 
L 581 0 
L 581 3500 
L 1159 3500 
L 1159 2956 
Q 1356 3278 1631 3431 
Q 1906 3584 2284 3584 
Q 2666 3584 2933 3390 
Q 3200 3197 3328 2828 
z
" transform="scale(0.015625)"/>
     <path id="DejaVuSans-65" d="M 3597 1894 
L 3597 1613 
L 953 1613 
Q 991 1019 1311 708 
Q 1631 397 2203 397 
Q 2534 397 2845 478 
Q 3156 559 3463 722 
L 3463 178 
Q 3153 47 2828 -22 
Q 2503 -91 2169 -91 
Q 1331 -91 842 396 
Q 353 884 353 1716 
Q 353 2575 817 3079 
Q 1281 3584 2069 3584 
Q 2775 3584 3186 3129 
Q 3597 2675 3597 1894 
z
M 3022 2063 
Q 3016 2534 2758 2815 
Q 2500 3097 2075 3097 
Q 1594 3097 1305 2825 
Q 1016 2553 972 2059 
L 3022 2063 
z
" transform="scale(0.015625)"/>
     <path id="DejaVuSans-20" transform="scale(0.015625)"/>
     <path id="DejaVuSans-64" d="M 2906 2969 
L 2906 4863 
L 3481 4863 
L 3481 0 
L 2906 0 
L 2906 525 
Q 2725 213 2448 61 
Q 2172 -91 1784 -91 
Q 1150 -91 751 415 
Q 353 922 353 1747 
Q 353 2572 751 3078 
Q 1150 3584 1784 3584 
Q 2172 3584 2448 3432 
Q 2725 3281 2906 2969 
z
M 947 1747 
Q 947 1113 1208 752 
Q 1469 391 1925 391 
Q 2381 391 2643 752 
Q 2906 1113 2906 1747 
Q 2906 2381 2643 2742 
Q 2381 3103 1925 3103 
Q 1469 3103 1208 2742 
Q 947 2381 947 1747 
z
" transform="scale(0.015625)"/>
    </defs>
    <use xlink:href="#DejaVuSans-48" transform="translate(0 0.015625)"/>
    <use xlink:href="#DejaVuSans-69" transform="translate(75.195312 0.015625)"/>
    <use xlink:href="#DejaVuSans-73" transform="translate(102.978516 0.015625)"/>
    <use xlink:href="#DejaVuSans-74" transform="translate(155.078125 0.015625)"/>
    <use xlink:href="#DejaVuSans-6f" transform="translate(194.287109 0.015625)"/>
    <use xlink:href="#DejaVuSans-67" transform="translate(255.46875 0.015625)"/>
    <use xlink:href="#DejaVuSans-72" transform="translate(318.945312 0.015625)"/>
    <use xlink:href="#DejaVuSans-61" transform="translate(360.058594 0.015625)"/>
    <use xlink:href="#DejaVuSans-6d" transform="translate(421.337891 0.015625)"/>
    <use xlink:href="#DejaVuSans-6d" transform="translate(518.75 0.015625)"/>
    <use xlink:href="#DejaVuSans-65" transform="translate(616.162109 0.015625)"/>
    <use xlink:href="#DejaVuSans-20" transform="translate(677.685547 0.015625)"/>
    <use xlink:href="#DejaVuSans-64" transform="translate(709.472656 0.015625)"/>
    <use xlink:href="#DejaVuSans-65" transform="translate(772.949219 0.015625)"/>
    <use xlink:href="#DejaVuSans-73" transform="translate(834.472656 0.015625)"/>
    <use xlink:href="#DejaVuSans-20" transform="translate(886.572266 0.015625)"/>
    <use xlink:href="#DejaVuSans-Oblique-3bd" transform="translate(918.359375 0.015625)"/>
   </g>
  </g>
  <g id="text_29">
   <!-- Masse (GeV) -->
   <g transform="translate(184.474219 302.4)scale(0.1 -0.1)">
    <defs>
     <path id="DejaVuSans-4d" d="M 628 4666 
L 1569 4666 
L 2759 1491 
L 3956 4666 
L 4897 4666 
L 4897 0 
L 4281 0 
L 4281 4097 
L 3078 897 
L 2444 897 
L 1241 4097 
L 1241 0 
L 628 0 
L 628 4666 
z
" transform="scale(0.015625)"/>
     <path id="DejaVuSans-28" d="M 1984 4856 
Q 1566 4138 1362 3434 
Q 1159 2731 1159 2009 
Q 1159 1288 1364 580 
Q 1569 -128 1984 -844 
L 1484 -844 
Q 1016 -109 783 600 
Q 550 1309 550 2009 
Q 550 2706 781 3412 
Q 1013 4119 1484 4856 
L 1984 4856 
z
" transform="scale(0.015625)"/>
     <path id="DejaVuSans-47" d="M 3809 666 
L 3809 1919 
L 2778 1919 
L 2778 2438 
L 4434 2438 
L 4434 434 
Q 4069 175 3628 42 
Q 3188 -91 2688 -91 
Q 1594 -91 976 548 
Q 359 1188 359 2328 
Q 359 3472 976 4111 
Q 1594 4750 2688 4750 
Q 3144 4750 3555 4637 
Q 3966 4525 4313 4306 
L 4313 3634 
Q 3963 3931 3569 4081 
Q 3175 4231 2741 4231 
Q 1884 4231 1454 3753 
Q 1025 3275 1025 2328 
Q 1025 1384 1454 906 
Q 1884 428 2741 428 
Q 3075 428 3337 486 
Q 3600 544 3809 666 
z
" transform="scale(0.015625)"/>
     <path id="DejaVuSans-56" d="M 1831 0 
L 50 4666 
L 709 4666 
L 2188 738 
L 3669 4666 
L 4325 4666 
L 2547 0 
L 1831 0 
z
" transform="scale(0.015625)"/>
     <path id="DejaVuSans-29" d="M 513 4856 
L 1013 4856 
Q 1481 4119 1714 3412 
Q 1947 2706 1947 2009 
Q 1947 1309 1714 600 
Q 1481 -109 1013 -844 
L 513 -844 
Q 928 -128 1133 580 
Q 1338 1288 1338 2009 
Q 1338 2731 1133 3434 
Q 928 4138 513 4856 
z
" transform="scale(0.015625)"/>
    </defs>
    <use xlink:href="#DejaVuSans-4d"/>
    <use xlink:href="#DejaVuSans-61" x="86.279297"/>
    <use xlink:href="#DejaVuSans-73" x="147.558594"/>
    <use xlink:href="#DejaVuSans-73" x="199.658203"/>
    <use xlink:href="#DejaVuSans-65" x="251.757812"/>
    <use xlink:href="#DejaVuSans-20" x="313.28125"/>
    <use xlink:href="#DejaVuSans-28" x="345.068359"/>
    <use xlink:href="#DejaVuSans-47" x="384.082031"/>
    <use xlink:href="#DejaVuSans-65" x="461.572266"/>
    <use xlink:href="#DejaVuSans-56" x="523.095703"/>
    <use xlink:href="#DejaVuSans-29" x="591.503906"/>
   </g>
  </g>
  <g id="text_30">
   <!-- N -->
   <g transform="translate(-9.681563 147.740625)rotate(-90)scale(0.1 -0.1)">
    <defs>
     <path id="DejaVuSans-4e" d="M 628 4666 
L 1478 4666 
L 3547 763 
L 3547 4666 
L 4159 4666 
L 4159 0 
L 3309 0 
L 1241 3903 
L 1241 0 
L 628 0 
L 628 4666 
z
" transform="scale(0.015625)"/>
    </defs>
    <use xlink:href="#DejaVuSans-4e"/>
   </g>
  </g>
 </g>
 <defs>
  <clipPath id="p4a97a6d650">
   <rect x="35.45024" y="35.758845" width="393.54952" height="52.32311"/>
  </clipPath>
  <clipPath id="pd4fbdec65e">
   <rect x="35.45024" y="125.878685" width="393.54952" height="52.32311"/>
  </clipPath>
  <clipPath id="p12aa806910">
   <rect x="35.45024" y="215.998525" width="393.54952" height="52.32311"/>
  </clipPath>
 </defs>
</svg>
