<?xml version="1.0" encoding="utf-8" standalone="no"?>
<!DOCTYPE svg PUBLIC "-//W3C//DTD SVG 1.1//EN"
  "http://www.w3.org/Graphics/SVG/1.1/DTD/svg11.dtd">
<svg xmlns:xlink="http://www.w3.org/1999/xlink" width="432pt" height="288pt" viewBox="0 0 432 288" xmlns="http://www.w3.org/2000/svg" version="1.1">
 <metadata>
  <rdf:RDF xmlns:dc="http://purl.org/dc/elements/1.1/" xmlns:cc="http://creativecommons.org/ns#" xmlns:rdf="http://www.w3.org/1999/02/22-rdf-syntax-ns#">
   <cc:Work>
    <dc:type rdf:resource="http://purl.org/dc/dcmitype/StillImage"/>
    <dc:date>2022-06-10T08:23:39.789785</dc:date>
    <dc:format>image/svg+xml</dc:format>
    <dc:creator>
     <cc:Agent>
      <dc:title>Matplotlib v3.5.0, https://matplotlib.org/</dc:title>
     </cc:Agent>
    </dc:creator>
   </cc:Work>
  </rdf:RDF>
 </metadata>
 <defs>
  <style type="text/css">*{stroke-linejoin: round; stroke-linecap: butt}</style>
 </defs>
 <g id="figure_1">
  <g id="patch_1">
   <path d="M 0 288 
L 432 288 
L 432 0 
L 0 0 
L 0 288 
z
" style="fill: none"/>
  </g>
  <g id="axes_1">
   <g id="patch_2">
    <path d="M 35.45024 88.384455 
L 428.99976 88.384455 
L 428.99976 36.212595 
L 35.45024 36.212595 
z
" style="fill: #ffffff"/>
   </g>
   <g id="patch_3">
    <path d="M 53.338855 88.384455 
L 56.916577 88.384455 
L 56.916577 41.860698 
L 53.338855 41.860698 
z
" clip-path="url(#p6e73fbdfd7)" style="fill: #1f77b4"/>
   </g>
   <g id="patch_4">
    <path d="M 56.916577 88.384455 
L 60.4943 88.384455 
L 60.4943 42.792868 
L 56.916577 42.792868 
z
" clip-path="url(#p6e73fbdfd7)" style="fill: #1f77b4"/>
   </g>
   <g id="patch_5">
    <path d="M 60.4943 88.384455 
L 64.072023 88.384455 
L 64.072023 44.657208 
L 60.4943 44.657208 
z
" clip-path="url(#p6e73fbdfd7)" style="fill: #1f77b4"/>
   </g>
   <g id="patch_6">
    <path d="M 64.072023 88.384455 
L 67.649746 88.384455 
L 67.649746 45.306902 
L 64.072023 45.306902 
z
" clip-path="url(#p6e73fbdfd7)" style="fill: #1f77b4"/>
   </g>
   <g id="patch_7">
    <path d="M 67.649746 88.384455 
L 71.227469 88.384455 
L 71.227469 46.719281 
L 67.649746 46.719281 
z
" clip-path="url(#p6e73fbdfd7)" style="fill: #1f77b4"/>
   </g>
   <g id="patch_8">
    <path d="M 71.227469 88.384455 
L 74.805192 88.384455 
L 74.805192 49.685276 
L 71.227469 49.685276 
z
" clip-path="url(#p6e73fbdfd7)" style="fill: #1f77b4"/>
   </g>
   <g id="patch_9">
    <path d="M 74.805192 88.384455 
L 78.382915 88.384455 
L 78.382915 50.843427 
L 74.805192 50.843427 
z
" clip-path="url(#p6e73fbdfd7)" style="fill: #1f77b4"/>
   </g>
   <g id="patch_10">
    <path d="M 78.382915 88.384455 
L 81.960638 88.384455 
L 81.960638 52.764262 
L 78.382915 52.764262 
z
" clip-path="url(#p6e73fbdfd7)" style="fill: #1f77b4"/>
   </g>
   <g id="patch_11">
    <path d="M 81.960638 88.384455 
L 85.538361 88.384455 
L 85.538361 54.798087 
L 81.960638 54.798087 
z
" clip-path="url(#p6e73fbdfd7)" style="fill: #1f77b4"/>
   </g>
   <g id="patch_12">
    <path d="M 85.538361 88.384455 
L 89.116084 88.384455 
L 89.116084 57.538102 
L 85.538361 57.538102 
z
" clip-path="url(#p6e73fbdfd7)" style="fill: #1f77b4"/>
   </g>
   <g id="patch_13">
    <path d="M 89.116084 88.384455 
L 92.693807 88.384455 
L 92.693807 59.882651 
L 89.116084 59.882651 
z
" clip-path="url(#p6e73fbdfd7)" style="fill: #1f77b4"/>
   </g>
   <g id="patch_14">
    <path d="M 92.693807 88.384455 
L 96.271529 88.384455 
L 96.271529 61.803486 
L 92.693807 61.803486 
z
" clip-path="url(#p6e73fbdfd7)" style="fill: #1f77b4"/>
   </g>
   <g id="patch_15">
    <path d="M 96.271529 88.384455 
L 99.849252 88.384455 
L 99.849252 64.656491 
L 96.271529 64.656491 
z
" clip-path="url(#p6e73fbdfd7)" style="fill: #1f77b4"/>
   </g>
   <g id="patch_16">
    <path d="M 99.849252 88.384455 
L 103.426975 88.384455 
L 103.426975 64.938967 
L 99.849252 64.938967 
z
" clip-path="url(#p6e73fbdfd7)" style="fill: #1f77b4"/>
   </g>
   <g id="patch_17">
    <path d="M 103.426975 88.384455 
L 107.004698 88.384455 
L 107.004698 67.961458 
L 103.426975 67.961458 
z
" clip-path="url(#p6e73fbdfd7)" style="fill: #1f77b4"/>
   </g>
   <g id="patch_18">
    <path d="M 107.004698 88.384455 
L 110.582421 88.384455 
L 110.582421 68.526409 
L 107.004698 68.526409 
z
" clip-path="url(#p6e73fbdfd7)" style="fill: #1f77b4"/>
   </g>
   <g id="patch_19">
    <path d="M 110.582421 88.384455 
L 114.160144 88.384455 
L 114.160144 69.882293 
L 110.582421 69.882293 
z
" clip-path="url(#p6e73fbdfd7)" style="fill: #1f77b4"/>
   </g>
   <g id="patch_20">
    <path d="M 114.160144 88.384455 
L 117.737867 88.384455 
L 117.737867 70.136521 
L 114.160144 70.136521 
z
" clip-path="url(#p6e73fbdfd7)" style="fill: #1f77b4"/>
   </g>
   <g id="patch_21">
    <path d="M 117.737867 88.384455 
L 121.31559 88.384455 
L 121.31559 72.142099 
L 117.737867 72.142099 
z
" clip-path="url(#p6e73fbdfd7)" style="fill: #1f77b4"/>
   </g>
   <g id="patch_22">
    <path d="M 121.31559 88.384455 
L 124.893313 88.384455 
L 124.893313 72.933031 
L 121.31559 72.933031 
z
" clip-path="url(#p6e73fbdfd7)" style="fill: #1f77b4"/>
   </g>
   <g id="patch_23">
    <path d="M 124.893313 88.384455 
L 128.471036 88.384455 
L 128.471036 72.452822 
L 124.893313 72.452822 
z
" clip-path="url(#p6e73fbdfd7)" style="fill: #1f77b4"/>
   </g>
   <g id="patch_24">
    <path d="M 128.471036 88.384455 
L 132.048759 88.384455 
L 132.048759 73.723963 
L 128.471036 73.723963 
z
" clip-path="url(#p6e73fbdfd7)" style="fill: #1f77b4"/>
   </g>
   <g id="patch_25">
    <path d="M 132.048759 88.384455 
L 135.626481 88.384455 
L 135.626481 75.305827 
L 132.048759 75.305827 
z
" clip-path="url(#p6e73fbdfd7)" style="fill: #1f77b4"/>
   </g>
   <g id="patch_26">
    <path d="M 135.626481 88.384455 
L 139.204204 88.384455 
L 139.204204 75.447065 
L 135.626481 75.447065 
z
" clip-path="url(#p6e73fbdfd7)" style="fill: #1f77b4"/>
   </g>
   <g id="patch_27">
    <path d="M 139.204204 88.384455 
L 142.781927 88.384455 
L 142.781927 75.39057 
L 139.204204 75.39057 
z
" clip-path="url(#p6e73fbdfd7)" style="fill: #1f77b4"/>
   </g>
   <g id="patch_28">
    <path d="M 142.781927 88.384455 
L 146.35965 88.384455 
L 146.35965 76.350988 
L 142.781927 76.350988 
z
" clip-path="url(#p6e73fbdfd7)" style="fill: #1f77b4"/>
   </g>
   <g id="patch_29">
    <path d="M 146.35965 88.384455 
L 149.937373 88.384455 
L 149.937373 76.379235 
L 146.35965 76.379235 
z
" clip-path="url(#p6e73fbdfd7)" style="fill: #1f77b4"/>
   </g>
   <g id="patch_30">
    <path d="M 149.937373 88.384455 
L 153.515096 88.384455 
L 153.515096 77.480891 
L 149.937373 77.480891 
z
" clip-path="url(#p6e73fbdfd7)" style="fill: #1f77b4"/>
   </g>
   <g id="patch_31">
    <path d="M 153.515096 88.384455 
L 157.092819 88.384455 
L 157.092819 77.537386 
L 153.515096 77.537386 
z
" clip-path="url(#p6e73fbdfd7)" style="fill: #1f77b4"/>
   </g>
   <g id="patch_32">
    <path d="M 157.092819 88.384455 
L 160.670542 88.384455 
L 160.670542 77.763367 
L 157.092819 77.763367 
z
" clip-path="url(#p6e73fbdfd7)" style="fill: #1f77b4"/>
   </g>
   <g id="patch_33">
    <path d="M 160.670542 88.384455 
L 164.248265 88.384455 
L 164.248265 78.18708 
L 160.670542 78.18708 
z
" clip-path="url(#p6e73fbdfd7)" style="fill: #1f77b4"/>
   </g>
   <g id="patch_34">
    <path d="M 164.248265 88.384455 
L 167.825988 88.384455 
L 167.825988 77.904604 
L 164.248265 77.904604 
z
" clip-path="url(#p6e73fbdfd7)" style="fill: #1f77b4"/>
   </g>
   <g id="patch_35">
    <path d="M 167.825988 88.384455 
L 171.403711 88.384455 
L 171.403711 78.215328 
L 167.825988 78.215328 
z
" clip-path="url(#p6e73fbdfd7)" style="fill: #1f77b4"/>
   </g>
   <g id="patch_36">
    <path d="M 171.403711 88.384455 
L 174.981433 88.384455 
L 174.981433 78.752032 
L 171.403711 78.752032 
z
" clip-path="url(#p6e73fbdfd7)" style="fill: #1f77b4"/>
   </g>
   <g id="patch_37">
    <path d="M 174.981433 88.384455 
L 178.559156 88.384455 
L 178.559156 78.497803 
L 174.981433 78.497803 
z
" clip-path="url(#p6e73fbdfd7)" style="fill: #1f77b4"/>
   </g>
   <g id="patch_38">
    <path d="M 178.559156 88.384455 
L 182.136879 88.384455 
L 182.136879 78.695537 
L 178.559156 78.695537 
z
" clip-path="url(#p6e73fbdfd7)" style="fill: #1f77b4"/>
   </g>
   <g id="patch_39">
    <path d="M 182.136879 88.384455 
L 185.714602 88.384455 
L 185.714602 77.537386 
L 182.136879 77.537386 
z
" clip-path="url(#p6e73fbdfd7)" style="fill: #1f77b4"/>
   </g>
   <g id="patch_40">
    <path d="M 185.714602 88.384455 
L 189.292325 88.384455 
L 189.292325 77.509138 
L 185.714602 77.509138 
z
" clip-path="url(#p6e73fbdfd7)" style="fill: #1f77b4"/>
   </g>
   <g id="patch_41">
    <path d="M 189.292325 88.384455 
L 192.870048 88.384455 
L 192.870048 78.384813 
L 189.292325 78.384813 
z
" clip-path="url(#p6e73fbdfd7)" style="fill: #1f77b4"/>
   </g>
   <g id="patch_42">
    <path d="M 192.870048 88.384455 
L 196.447771 88.384455 
L 196.447771 78.921517 
L 192.870048 78.921517 
z
" clip-path="url(#p6e73fbdfd7)" style="fill: #1f77b4"/>
   </g>
   <g id="patch_43">
    <path d="M 196.447771 88.384455 
L 200.025494 88.384455 
L 200.025494 78.413061 
L 196.447771 78.413061 
z
" clip-path="url(#p6e73fbdfd7)" style="fill: #1f77b4"/>
   </g>
   <g id="patch_44">
    <path d="M 200.025494 88.384455 
L 203.603217 88.384455 
L 203.603217 78.441308 
L 200.025494 78.441308 
z
" clip-path="url(#p6e73fbdfd7)" style="fill: #1f77b4"/>
   </g>
   <g id="patch_45">
    <path d="M 203.603217 88.384455 
L 207.18094 88.384455 
L 207.18094 78.921517 
L 203.603217 78.921517 
z
" clip-path="url(#p6e73fbdfd7)" style="fill: #1f77b4"/>
   </g>
   <g id="patch_46">
    <path d="M 207.18094 88.384455 
L 210.758663 88.384455 
L 210.758663 78.102337 
L 207.18094 78.102337 
z
" clip-path="url(#p6e73fbdfd7)" style="fill: #1f77b4"/>
   </g>
   <g id="patch_47">
    <path d="M 210.758663 88.384455 
L 214.336385 88.384455 
L 214.336385 79.345231 
L 210.758663 79.345231 
z
" clip-path="url(#p6e73fbdfd7)" style="fill: #1f77b4"/>
   </g>
   <g id="patch_48">
    <path d="M 214.336385 88.384455 
L 217.914108 88.384455 
L 217.914108 78.639041 
L 214.336385 78.639041 
z
" clip-path="url(#p6e73fbdfd7)" style="fill: #1f77b4"/>
   </g>
   <g id="patch_49">
    <path d="M 217.914108 88.384455 
L 221.491831 88.384455 
L 221.491831 78.469556 
L 217.914108 78.469556 
z
" clip-path="url(#p6e73fbdfd7)" style="fill: #1f77b4"/>
   </g>
   <g id="patch_50">
    <path d="M 221.491831 88.384455 
L 225.069554 88.384455 
L 225.069554 78.582546 
L 221.491831 78.582546 
z
" clip-path="url(#p6e73fbdfd7)" style="fill: #1f77b4"/>
   </g>
   <g id="patch_51">
    <path d="M 225.069554 88.384455 
L 228.647277 88.384455 
L 228.647277 78.158833 
L 225.069554 78.158833 
z
" clip-path="url(#p6e73fbdfd7)" style="fill: #1f77b4"/>
   </g>
   <g id="patch_52">
    <path d="M 228.647277 88.384455 
L 232.225 88.384455 
L 232.225 78.978012 
L 228.647277 78.978012 
z
" clip-path="url(#p6e73fbdfd7)" style="fill: #1f77b4"/>
   </g>
   <g id="patch_53">
    <path d="M 232.225 88.384455 
L 235.802723 88.384455 
L 235.802723 78.271823 
L 232.225 78.271823 
z
" clip-path="url(#p6e73fbdfd7)" style="fill: #1f77b4"/>
   </g>
   <g id="patch_54">
    <path d="M 235.802723 88.384455 
L 239.380446 88.384455 
L 239.380446 78.667289 
L 235.802723 78.667289 
z
" clip-path="url(#p6e73fbdfd7)" style="fill: #1f77b4"/>
   </g>
   <g id="patch_55">
    <path d="M 239.380446 88.384455 
L 242.958169 88.384455 
L 242.958169 78.921517 
L 239.380446 78.921517 
z
" clip-path="url(#p6e73fbdfd7)" style="fill: #1f77b4"/>
   </g>
   <g id="patch_56">
    <path d="M 242.958169 88.384455 
L 246.535892 88.384455 
L 246.535892 78.865022 
L 242.958169 78.865022 
z
" clip-path="url(#p6e73fbdfd7)" style="fill: #1f77b4"/>
   </g>
   <g id="patch_57">
    <path d="M 246.535892 88.384455 
L 250.113615 88.384455 
L 250.113615 78.469556 
L 246.535892 78.469556 
z
" clip-path="url(#p6e73fbdfd7)" style="fill: #1f77b4"/>
   </g>
   <g id="patch_58">
    <path d="M 250.113615 88.384455 
L 253.691337 88.384455 
L 253.691337 78.526051 
L 250.113615 78.526051 
z
" clip-path="url(#p6e73fbdfd7)" style="fill: #1f77b4"/>
   </g>
   <g id="patch_59">
    <path d="M 253.691337 88.384455 
L 257.26906 88.384455 
L 257.26906 78.526051 
L 253.691337 78.526051 
z
" clip-path="url(#p6e73fbdfd7)" style="fill: #1f77b4"/>
   </g>
   <g id="patch_60">
    <path d="M 257.26906 88.384455 
L 260.846783 88.384455 
L 260.846783 78.667289 
L 257.26906 78.667289 
z
" clip-path="url(#p6e73fbdfd7)" style="fill: #1f77b4"/>
   </g>
   <g id="patch_61">
    <path d="M 260.846783 88.384455 
L 264.424506 88.384455 
L 264.424506 79.768944 
L 260.846783 79.768944 
z
" clip-path="url(#p6e73fbdfd7)" style="fill: #1f77b4"/>
   </g>
   <g id="patch_62">
    <path d="M 264.424506 88.384455 
L 268.002229 88.384455 
L 268.002229 78.30007 
L 264.424506 78.30007 
z
" clip-path="url(#p6e73fbdfd7)" style="fill: #1f77b4"/>
   </g>
   <g id="patch_63">
    <path d="M 268.002229 88.384455 
L 271.579952 88.384455 
L 271.579952 77.565633 
L 268.002229 77.565633 
z
" clip-path="url(#p6e73fbdfd7)" style="fill: #1f77b4"/>
   </g>
   <g id="patch_64">
    <path d="M 271.579952 88.384455 
L 275.157675 88.384455 
L 275.157675 77.452643 
L 271.579952 77.452643 
z
" clip-path="url(#p6e73fbdfd7)" style="fill: #1f77b4"/>
   </g>
   <g id="patch_65">
    <path d="M 275.157675 88.384455 
L 278.735398 88.384455 
L 278.735398 77.452643 
L 275.157675 77.452643 
z
" clip-path="url(#p6e73fbdfd7)" style="fill: #1f77b4"/>
   </g>
   <g id="patch_66">
    <path d="M 278.735398 88.384455 
L 282.313121 88.384455 
L 282.313121 77.226663 
L 278.735398 77.226663 
z
" clip-path="url(#p6e73fbdfd7)" style="fill: #1f77b4"/>
   </g>
   <g id="patch_67">
    <path d="M 282.313121 88.384455 
L 285.890844 88.384455 
L 285.890844 78.89327 
L 282.313121 78.89327 
z
" clip-path="url(#p6e73fbdfd7)" style="fill: #1f77b4"/>
   </g>
   <g id="patch_68">
    <path d="M 285.890844 88.384455 
L 289.468567 88.384455 
L 289.468567 78.18708 
L 285.890844 78.18708 
z
" clip-path="url(#p6e73fbdfd7)" style="fill: #1f77b4"/>
   </g>
   <g id="patch_69">
    <path d="M 289.468567 88.384455 
L 293.046289 88.384455 
L 293.046289 79.00626 
L 289.468567 79.00626 
z
" clip-path="url(#p6e73fbdfd7)" style="fill: #1f77b4"/>
   </g>
   <g id="patch_70">
    <path d="M 293.046289 88.384455 
L 296.624012 88.384455 
L 296.624012 78.526051 
L 293.046289 78.526051 
z
" clip-path="url(#p6e73fbdfd7)" style="fill: #1f77b4"/>
   </g>
   <g id="patch_71">
    <path d="M 296.624012 88.384455 
L 300.201735 88.384455 
L 300.201735 78.158833 
L 296.624012 78.158833 
z
" clip-path="url(#p6e73fbdfd7)" style="fill: #1f77b4"/>
   </g>
   <g id="patch_72">
    <path d="M 300.201735 88.384455 
L 303.779458 88.384455 
L 303.779458 78.384813 
L 300.201735 78.384813 
z
" clip-path="url(#p6e73fbdfd7)" style="fill: #1f77b4"/>
   </g>
   <g id="patch_73">
    <path d="M 303.779458 88.384455 
L 307.357181 88.384455 
L 307.357181 77.876357 
L 303.779458 77.876357 
z
" clip-path="url(#p6e73fbdfd7)" style="fill: #1f77b4"/>
   </g>
   <g id="patch_74">
    <path d="M 307.357181 88.384455 
L 310.934904 88.384455 
L 310.934904 78.978012 
L 307.357181 78.978012 
z
" clip-path="url(#p6e73fbdfd7)" style="fill: #1f77b4"/>
   </g>
   <g id="patch_75">
    <path d="M 310.934904 88.384455 
L 314.512627 88.384455 
L 314.512627 78.215328 
L 310.934904 78.215328 
z
" clip-path="url(#p6e73fbdfd7)" style="fill: #1f77b4"/>
   </g>
   <g id="patch_76">
    <path d="M 314.512627 88.384455 
L 318.09035 88.384455 
L 318.09035 78.18708 
L 314.512627 78.18708 
z
" clip-path="url(#p6e73fbdfd7)" style="fill: #1f77b4"/>
   </g>
   <g id="patch_77">
    <path d="M 318.09035 88.384455 
L 321.668073 88.384455 
L 321.668073 78.441308 
L 318.09035 78.441308 
z
" clip-path="url(#p6e73fbdfd7)" style="fill: #1f77b4"/>
   </g>
   <g id="patch_78">
    <path d="M 321.668073 88.384455 
L 325.245796 88.384455 
L 325.245796 77.452643 
L 321.668073 77.452643 
z
" clip-path="url(#p6e73fbdfd7)" style="fill: #1f77b4"/>
   </g>
   <g id="patch_79">
    <path d="M 325.245796 88.384455 
L 328.823519 88.384455 
L 328.823519 78.667289 
L 325.245796 78.667289 
z
" clip-path="url(#p6e73fbdfd7)" style="fill: #1f77b4"/>
   </g>
   <g id="patch_80">
    <path d="M 328.823519 88.384455 
L 332.401241 88.384455 
L 332.401241 78.497803 
L 328.823519 78.497803 
z
" clip-path="url(#p6e73fbdfd7)" style="fill: #1f77b4"/>
   </g>
   <g id="patch_81">
    <path d="M 332.401241 88.384455 
L 335.978964 88.384455 
L 335.978964 78.017595 
L 332.401241 78.017595 
z
" clip-path="url(#p6e73fbdfd7)" style="fill: #1f77b4"/>
   </g>
   <g id="patch_82">
    <path d="M 335.978964 88.384455 
L 339.556687 88.384455 
L 339.556687 79.062755 
L 335.978964 79.062755 
z
" clip-path="url(#p6e73fbdfd7)" style="fill: #1f77b4"/>
   </g>
   <g id="patch_83">
    <path d="M 339.556687 88.384455 
L 343.13441 88.384455 
L 343.13441 78.18708 
L 339.556687 78.18708 
z
" clip-path="url(#p6e73fbdfd7)" style="fill: #1f77b4"/>
   </g>
   <g id="patch_84">
    <path d="M 343.13441 88.384455 
L 346.712133 88.384455 
L 346.712133 78.695537 
L 343.13441 78.695537 
z
" clip-path="url(#p6e73fbdfd7)" style="fill: #1f77b4"/>
   </g>
   <g id="patch_85">
    <path d="M 346.712133 88.384455 
L 350.289856 88.384455 
L 350.289856 78.723784 
L 346.712133 78.723784 
z
" clip-path="url(#p6e73fbdfd7)" style="fill: #1f77b4"/>
   </g>
   <g id="patch_86">
    <path d="M 350.289856 88.384455 
L 353.867579 88.384455 
L 353.867579 78.215328 
L 350.289856 78.215328 
z
" clip-path="url(#p6e73fbdfd7)" style="fill: #1f77b4"/>
   </g>
   <g id="patch_87">
    <path d="M 353.867579 88.384455 
L 357.445302 88.384455 
L 357.445302 78.243575 
L 353.867579 78.243575 
z
" clip-path="url(#p6e73fbdfd7)" style="fill: #1f77b4"/>
   </g>
   <g id="patch_88">
    <path d="M 357.445302 88.384455 
L 361.023025 88.384455 
L 361.023025 78.949765 
L 357.445302 78.949765 
z
" clip-path="url(#p6e73fbdfd7)" style="fill: #1f77b4"/>
   </g>
   <g id="patch_89">
    <path d="M 361.023025 88.384455 
L 364.600748 88.384455 
L 364.600748 78.469556 
L 361.023025 78.469556 
z
" clip-path="url(#p6e73fbdfd7)" style="fill: #1f77b4"/>
   </g>
   <g id="patch_90">
    <path d="M 364.600748 88.384455 
L 368.178471 88.384455 
L 368.178471 78.639041 
L 364.600748 78.639041 
z
" clip-path="url(#p6e73fbdfd7)" style="fill: #1f77b4"/>
   </g>
   <g id="patch_91">
    <path d="M 368.178471 88.384455 
L 371.756193 88.384455 
L 371.756193 78.695537 
L 368.178471 78.695537 
z
" clip-path="url(#p6e73fbdfd7)" style="fill: #1f77b4"/>
   </g>
   <g id="patch_92">
    <path d="M 371.756193 88.384455 
L 375.333916 88.384455 
L 375.333916 78.752032 
L 371.756193 78.752032 
z
" clip-path="url(#p6e73fbdfd7)" style="fill: #1f77b4"/>
   </g>
   <g id="patch_93">
    <path d="M 375.333916 88.384455 
L 378.911639 88.384455 
L 378.911639 78.780279 
L 375.333916 78.780279 
z
" clip-path="url(#p6e73fbdfd7)" style="fill: #1f77b4"/>
   </g>
   <g id="patch_94">
    <path d="M 378.911639 88.384455 
L 382.489362 88.384455 
L 382.489362 79.486469 
L 378.911639 79.486469 
z
" clip-path="url(#p6e73fbdfd7)" style="fill: #1f77b4"/>
   </g>
   <g id="patch_95">
    <path d="M 382.489362 88.384455 
L 386.067085 88.384455 
L 386.067085 78.639041 
L 382.489362 78.639041 
z
" clip-path="url(#p6e73fbdfd7)" style="fill: #1f77b4"/>
   </g>
   <g id="patch_96">
    <path d="M 386.067085 88.384455 
L 389.644808 88.384455 
L 389.644808 79.288736 
L 386.067085 79.288736 
z
" clip-path="url(#p6e73fbdfd7)" style="fill: #1f77b4"/>
   </g>
   <g id="patch_97">
    <path d="M 389.644808 88.384455 
L 393.222531 88.384455 
L 393.222531 79.316983 
L 389.644808 79.316983 
z
" clip-path="url(#p6e73fbdfd7)" style="fill: #1f77b4"/>
   </g>
   <g id="patch_98">
    <path d="M 393.222531 88.384455 
L 396.800254 88.384455 
L 396.800254 79.23224 
L 393.222531 79.23224 
z
" clip-path="url(#p6e73fbdfd7)" style="fill: #1f77b4"/>
   </g>
   <g id="patch_99">
    <path d="M 396.800254 88.384455 
L 400.377977 88.384455 
L 400.377977 77.932852 
L 396.800254 77.932852 
z
" clip-path="url(#p6e73fbdfd7)" style="fill: #1f77b4"/>
   </g>
   <g id="patch_100">
    <path d="M 400.377977 88.384455 
L 403.9557 88.384455 
L 403.9557 78.610794 
L 400.377977 78.610794 
z
" clip-path="url(#p6e73fbdfd7)" style="fill: #1f77b4"/>
   </g>
   <g id="patch_101">
    <path d="M 403.9557 88.384455 
L 407.533423 88.384455 
L 407.533423 78.413061 
L 403.9557 78.413061 
z
" clip-path="url(#p6e73fbdfd7)" style="fill: #1f77b4"/>
   </g>
   <g id="patch_102">
    <path d="M 407.533423 88.384455 
L 411.111145 88.384455 
L 411.111145 79.542964 
L 407.533423 79.542964 
z
" clip-path="url(#p6e73fbdfd7)" style="fill: #1f77b4"/>
   </g>
   <g id="matplotlib.axis_1">
    <g id="xtick_1">
     <g id="line2d_1">
      <defs>
       <path id="mc85e983090" d="M 0 0 
L 0 3.5 
" style="stroke: #000000; stroke-width: 0.8"/>
      </defs>
      <g>
       <use xlink:href="#mc85e983090" x="49.723654" y="88.384455" style="stroke: #000000; stroke-width: 0.8"/>
      </g>
     </g>
     <g id="text_1">
      <!-- 0 -->
      <g transform="translate(46.542404 102.982892)scale(0.1 -0.1)">
       <defs>
        <path id="DejaVuSans-30" d="M 2034 4250 
Q 1547 4250 1301 3770 
Q 1056 3291 1056 2328 
Q 1056 1369 1301 889 
Q 1547 409 2034 409 
Q 2525 409 2770 889 
Q 3016 1369 3016 2328 
Q 3016 3291 2770 3770 
Q 2525 4250 2034 4250 
z
M 2034 4750 
Q 2819 4750 3233 4129 
Q 3647 3509 3647 2328 
Q 3647 1150 3233 529 
Q 2819 -91 2034 -91 
Q 1250 -91 836 529 
Q 422 1150 422 2328 
Q 422 3509 836 4129 
Q 1250 4750 2034 4750 
z
" transform="scale(0.015625)"/>
       </defs>
       <use xlink:href="#DejaVuSans-30"/>
      </g>
     </g>
    </g>
    <g id="xtick_2">
     <g id="line2d_2">
      <g>
       <use xlink:href="#mc85e983090" x="122.004556" y="88.384455" style="stroke: #000000; stroke-width: 0.8"/>
      </g>
     </g>
     <g id="text_2">
      <!-- 1000 -->
      <g transform="translate(109.279556 102.982892)scale(0.1 -0.1)">
       <defs>
        <path id="DejaVuSans-31" d="M 794 531 
L 1825 531 
L 1825 4091 
L 703 3866 
L 703 4441 
L 1819 4666 
L 2450 4666 
L 2450 531 
L 3481 531 
L 3481 0 
L 794 0 
L 794 531 
z
" transform="scale(0.015625)"/>
       </defs>
       <use xlink:href="#DejaVuSans-31"/>
       <use xlink:href="#DejaVuSans-30" x="63.623047"/>
       <use xlink:href="#DejaVuSans-30" x="127.246094"/>
       <use xlink:href="#DejaVuSans-30" x="190.869141"/>
      </g>
     </g>
    </g>
    <g id="xtick_3">
     <g id="line2d_3">
      <g>
       <use xlink:href="#mc85e983090" x="194.285458" y="88.384455" style="stroke: #000000; stroke-width: 0.8"/>
      </g>
     </g>
     <g id="text_3">
      <!-- 2000 -->
      <g transform="translate(181.560458 102.982892)scale(0.1 -0.1)">
       <defs>
        <path id="DejaVuSans-32" d="M 1228 531 
L 3431 531 
L 3431 0 
L 469 0 
L 469 531 
Q 828 903 1448 1529 
Q 2069 2156 2228 2338 
Q 2531 2678 2651 2914 
Q 2772 3150 2772 3378 
Q 2772 3750 2511 3984 
Q 2250 4219 1831 4219 
Q 1534 4219 1204 4116 
Q 875 4013 500 3803 
L 500 4441 
Q 881 4594 1212 4672 
Q 1544 4750 1819 4750 
Q 2544 4750 2975 4387 
Q 3406 4025 3406 3419 
Q 3406 3131 3298 2873 
Q 3191 2616 2906 2266 
Q 2828 2175 2409 1742 
Q 1991 1309 1228 531 
z
" transform="scale(0.015625)"/>
       </defs>
       <use xlink:href="#DejaVuSans-32"/>
       <use xlink:href="#DejaVuSans-30" x="63.623047"/>
       <use xlink:href="#DejaVuSans-30" x="127.246094"/>
       <use xlink:href="#DejaVuSans-30" x="190.869141"/>
      </g>
     </g>
    </g>
    <g id="xtick_4">
     <g id="line2d_4">
      <g>
       <use xlink:href="#mc85e983090" x="266.56636" y="88.384455" style="stroke: #000000; stroke-width: 0.8"/>
      </g>
     </g>
     <g id="text_4">
      <!-- 3000 -->
      <g transform="translate(253.84136 102.982892)scale(0.1 -0.1)">
       <defs>
        <path id="DejaVuSans-33" d="M 2597 2516 
Q 3050 2419 3304 2112 
Q 3559 1806 3559 1356 
Q 3559 666 3084 287 
Q 2609 -91 1734 -91 
Q 1441 -91 1130 -33 
Q 819 25 488 141 
L 488 750 
Q 750 597 1062 519 
Q 1375 441 1716 441 
Q 2309 441 2620 675 
Q 2931 909 2931 1356 
Q 2931 1769 2642 2001 
Q 2353 2234 1838 2234 
L 1294 2234 
L 1294 2753 
L 1863 2753 
Q 2328 2753 2575 2939 
Q 2822 3125 2822 3475 
Q 2822 3834 2567 4026 
Q 2313 4219 1838 4219 
Q 1578 4219 1281 4162 
Q 984 4106 628 3988 
L 628 4550 
Q 988 4650 1302 4700 
Q 1616 4750 1894 4750 
Q 2613 4750 3031 4423 
Q 3450 4097 3450 3541 
Q 3450 3153 3228 2886 
Q 3006 2619 2597 2516 
z
" transform="scale(0.015625)"/>
       </defs>
       <use xlink:href="#DejaVuSans-33"/>
       <use xlink:href="#DejaVuSans-30" x="63.623047"/>
       <use xlink:href="#DejaVuSans-30" x="127.246094"/>
       <use xlink:href="#DejaVuSans-30" x="190.869141"/>
      </g>
     </g>
    </g>
    <g id="xtick_5">
     <g id="line2d_5">
      <g>
       <use xlink:href="#mc85e983090" x="338.847261" y="88.384455" style="stroke: #000000; stroke-width: 0.8"/>
      </g>
     </g>
     <g id="text_5">
      <!-- 4000 -->
      <g transform="translate(326.122261 102.982892)scale(0.1 -0.1)">
       <defs>
        <path id="DejaVuSans-34" d="M 2419 4116 
L 825 1625 
L 2419 1625 
L 2419 4116 
z
M 2253 4666 
L 3047 4666 
L 3047 1625 
L 3713 1625 
L 3713 1100 
L 3047 1100 
L 3047 0 
L 2419 0 
L 2419 1100 
L 313 1100 
L 313 1709 
L 2253 4666 
z
" transform="scale(0.015625)"/>
       </defs>
       <use xlink:href="#DejaVuSans-34"/>
       <use xlink:href="#DejaVuSans-30" x="63.623047"/>
       <use xlink:href="#DejaVuSans-30" x="127.246094"/>
       <use xlink:href="#DejaVuSans-30" x="190.869141"/>
      </g>
     </g>
    </g>
    <g id="xtick_6">
     <g id="line2d_6">
      <g>
       <use xlink:href="#mc85e983090" x="411.128163" y="88.384455" style="stroke: #000000; stroke-width: 0.8"/>
      </g>
     </g>
     <g id="text_6">
      <!-- 5000 -->
      <g transform="translate(398.403163 102.982892)scale(0.1 -0.1)">
       <defs>
        <path id="DejaVuSans-35" d="M 691 4666 
L 3169 4666 
L 3169 4134 
L 1269 4134 
L 1269 2991 
Q 1406 3038 1543 3061 
Q 1681 3084 1819 3084 
Q 2600 3084 3056 2656 
Q 3513 2228 3513 1497 
Q 3513 744 3044 326 
Q 2575 -91 1722 -91 
Q 1428 -91 1123 -41 
Q 819 9 494 109 
L 494 744 
Q 775 591 1075 516 
Q 1375 441 1709 441 
Q 2250 441 2565 725 
Q 2881 1009 2881 1497 
Q 2881 1984 2565 2268 
Q 2250 2553 1709 2553 
Q 1456 2553 1204 2497 
Q 953 2441 691 2322 
L 691 4666 
z
" transform="scale(0.015625)"/>
       </defs>
       <use xlink:href="#DejaVuSans-35"/>
       <use xlink:href="#DejaVuSans-30" x="63.623047"/>
       <use xlink:href="#DejaVuSans-30" x="127.246094"/>
       <use xlink:href="#DejaVuSans-30" x="190.869141"/>
      </g>
     </g>
    </g>
   </g>
   <g id="matplotlib.axis_2">
    <g id="ytick_1">
     <g id="line2d_7">
      <defs>
       <path id="m49ff29ccc1" d="M 0 0 
L -3.5 0 
" style="stroke: #000000; stroke-width: 0.8"/>
      </defs>
      <g>
       <use xlink:href="#m49ff29ccc1" x="35.45024" y="88.384455" style="stroke: #000000; stroke-width: 0.8"/>
      </g>
     </g>
     <g id="text_7">
      <!-- 0 -->
      <g transform="translate(22.08774 92.183674)scale(0.1 -0.1)">
       <use xlink:href="#DejaVuSans-30"/>
      </g>
     </g>
    </g>
    <g id="ytick_2">
     <g id="line2d_8">
      <g>
       <use xlink:href="#m49ff29ccc1" x="35.45024" y="60.136879" style="stroke: #000000; stroke-width: 0.8"/>
      </g>
     </g>
     <g id="text_8">
      <!-- 1000 -->
      <g transform="translate(3.00024 63.936098)scale(0.1 -0.1)">
       <use xlink:href="#DejaVuSans-31"/>
       <use xlink:href="#DejaVuSans-30" x="63.623047"/>
       <use xlink:href="#DejaVuSans-30" x="127.246094"/>
       <use xlink:href="#DejaVuSans-30" x="190.869141"/>
      </g>
     </g>
    </g>
   </g>
   <g id="patch_103">
    <path d="M 35.45024 88.384455 
L 35.45024 36.212595 
" style="fill: none; stroke: #000000; stroke-width: 0.8; stroke-linejoin: miter; stroke-linecap: square"/>
   </g>
   <g id="patch_104">
    <path d="M 428.99976 88.384455 
L 428.99976 36.212595 
" style="fill: none; stroke: #000000; stroke-width: 0.8; stroke-linejoin: miter; stroke-linecap: square"/>
   </g>
   <g id="patch_105">
    <path d="M 35.45024 88.384455 
L 428.99976 88.384455 
" style="fill: none; stroke: #000000; stroke-width: 0.8; stroke-linejoin: miter; stroke-linecap: square"/>
   </g>
   <g id="patch_106">
    <path d="M 35.45024 36.212595 
L 428.99976 36.212595 
" style="fill: none; stroke: #000000; stroke-width: 0.8; stroke-linejoin: miter; stroke-linecap: square"/>
   </g>
   <g id="text_9">
    <!-- $M_1$ -->
    <g transform="translate(224.185 30.212595)scale(0.12 -0.12)">
     <defs>
      <path id="DejaVuSans-Oblique-4d" d="M 1081 4666 
L 2028 4666 
L 2572 1522 
L 4378 4666 
L 5350 4666 
L 4441 0 
L 3828 0 
L 4622 4091 
L 2791 897 
L 2175 897 
L 1581 4103 
L 788 0 
L 172 0 
L 1081 4666 
z
" transform="scale(0.015625)"/>
     </defs>
     <use xlink:href="#DejaVuSans-Oblique-4d" transform="translate(0 0.09375)"/>
     <use xlink:href="#DejaVuSans-31" transform="translate(86.279297 -16.3125)scale(0.7)"/>
    </g>
   </g>
  </g>
  <g id="axes_2">
   <g id="patch_107">
    <path d="M 35.45024 178.353045 
L 428.99976 178.353045 
L 428.99976 126.181185 
L 35.45024 126.181185 
z
" style="fill: #ffffff"/>
   </g>
   <g id="patch_108">
    <path d="M 53.338855 178.353045 
L 56.916577 178.353045 
L 56.916577 128.665559 
L 53.338855 128.665559 
z
" clip-path="url(#p2491539167)" style="fill: #1f77b4"/>
   </g>
   <g id="patch_109">
    <path d="M 56.916577 178.353045 
L 60.4943 178.353045 
L 60.4943 131.207841 
L 56.916577 131.207841 
z
" clip-path="url(#p2491539167)" style="fill: #1f77b4"/>
   </g>
   <g id="patch_110">
    <path d="M 60.4943 178.353045 
L 64.072023 178.353045 
L 64.072023 133.947856 
L 60.4943 133.947856 
z
" clip-path="url(#p2491539167)" style="fill: #1f77b4"/>
   </g>
   <g id="patch_111">
    <path d="M 64.072023 178.353045 
L 67.649746 178.353045 
L 67.649746 133.834866 
L 64.072023 133.834866 
z
" clip-path="url(#p2491539167)" style="fill: #1f77b4"/>
   </g>
   <g id="patch_112">
    <path d="M 67.649746 178.353045 
L 71.227469 178.353045 
L 71.227469 139.540876 
L 67.649746 139.540876 
z
" clip-path="url(#p2491539167)" style="fill: #1f77b4"/>
   </g>
   <g id="patch_113">
    <path d="M 71.227469 178.353045 
L 74.805192 178.353045 
L 74.805192 140.783769 
L 71.227469 140.783769 
z
" clip-path="url(#p2491539167)" style="fill: #1f77b4"/>
   </g>
   <g id="patch_114">
    <path d="M 74.805192 178.353045 
L 78.382915 178.353045 
L 78.382915 140.105827 
L 74.805192 140.105827 
z
" clip-path="url(#p2491539167)" style="fill: #1f77b4"/>
   </g>
   <g id="patch_115">
    <path d="M 78.382915 178.353045 
L 81.960638 178.353045 
L 81.960638 144.003993 
L 78.382915 144.003993 
z
" clip-path="url(#p2491539167)" style="fill: #1f77b4"/>
   </g>
   <g id="patch_116">
    <path d="M 81.960638 178.353045 
L 85.538361 178.353045 
L 85.538361 147.845663 
L 81.960638 147.845663 
z
" clip-path="url(#p2491539167)" style="fill: #1f77b4"/>
   </g>
   <g id="patch_117">
    <path d="M 85.538361 178.353045 
L 89.116084 178.353045 
L 89.116084 148.495357 
L 85.538361 148.495357 
z
" clip-path="url(#p2491539167)" style="fill: #1f77b4"/>
   </g>
   <g id="patch_118">
    <path d="M 89.116084 178.353045 
L 92.693807 178.353045 
L 92.693807 152.224037 
L 89.116084 152.224037 
z
" clip-path="url(#p2491539167)" style="fill: #1f77b4"/>
   </g>
   <g id="patch_119">
    <path d="M 92.693807 178.353045 
L 96.271529 178.353045 
L 96.271529 151.517848 
L 92.693807 151.517848 
z
" clip-path="url(#p2491539167)" style="fill: #1f77b4"/>
   </g>
   <g id="patch_120">
    <path d="M 96.271529 178.353045 
L 99.849252 178.353045 
L 99.849252 153.805902 
L 96.271529 153.805902 
z
" clip-path="url(#p2491539167)" style="fill: #1f77b4"/>
   </g>
   <g id="patch_121">
    <path d="M 99.849252 178.353045 
L 103.426975 178.353045 
L 103.426975 157.195611 
L 99.849252 157.195611 
z
" clip-path="url(#p2491539167)" style="fill: #1f77b4"/>
   </g>
   <g id="patch_122">
    <path d="M 103.426975 178.353045 
L 107.004698 178.353045 
L 107.004698 159.003456 
L 103.426975 159.003456 
z
" clip-path="url(#p2491539167)" style="fill: #1f77b4"/>
   </g>
   <g id="patch_123">
    <path d="M 107.004698 178.353045 
L 110.582421 178.353045 
L 110.582421 159.87913 
L 107.004698 159.87913 
z
" clip-path="url(#p2491539167)" style="fill: #1f77b4"/>
   </g>
   <g id="patch_124">
    <path d="M 110.582421 178.353045 
L 114.160144 178.353045 
L 114.160144 161.206767 
L 110.582421 161.206767 
z
" clip-path="url(#p2491539167)" style="fill: #1f77b4"/>
   </g>
   <g id="patch_125">
    <path d="M 114.160144 178.353045 
L 117.737867 178.353045 
L 117.737867 162.025946 
L 114.160144 162.025946 
z
" clip-path="url(#p2491539167)" style="fill: #1f77b4"/>
   </g>
   <g id="patch_126">
    <path d="M 117.737867 178.353045 
L 121.31559 178.353045 
L 121.31559 161.884708 
L 117.737867 161.884708 
z
" clip-path="url(#p2491539167)" style="fill: #1f77b4"/>
   </g>
   <g id="patch_127">
    <path d="M 121.31559 178.353045 
L 124.893313 178.353045 
L 124.893313 163.49482 
L 121.31559 163.49482 
z
" clip-path="url(#p2491539167)" style="fill: #1f77b4"/>
   </g>
   <g id="patch_128">
    <path d="M 124.893313 178.353045 
L 128.471036 178.353045 
L 128.471036 164.483485 
L 124.893313 164.483485 
z
" clip-path="url(#p2491539167)" style="fill: #1f77b4"/>
   </g>
   <g id="patch_129">
    <path d="M 128.471036 178.353045 
L 132.048759 178.353045 
L 132.048759 165.217922 
L 128.471036 165.217922 
z
" clip-path="url(#p2491539167)" style="fill: #1f77b4"/>
   </g>
   <g id="patch_130">
    <path d="M 132.048759 178.353045 
L 135.626481 178.353045 
L 135.626481 165.217922 
L 132.048759 165.217922 
z
" clip-path="url(#p2491539167)" style="fill: #1f77b4"/>
   </g>
   <g id="patch_131">
    <path d="M 135.626481 178.353045 
L 139.204204 178.353045 
L 139.204204 166.150092 
L 135.626481 166.150092 
z
" clip-path="url(#p2491539167)" style="fill: #1f77b4"/>
   </g>
   <g id="patch_132">
    <path d="M 139.204204 178.353045 
L 142.781927 178.353045 
L 142.781927 164.907199 
L 139.204204 164.907199 
z
" clip-path="url(#p2491539167)" style="fill: #1f77b4"/>
   </g>
   <g id="patch_133">
    <path d="M 142.781927 178.353045 
L 146.35965 178.353045 
L 146.35965 166.743291 
L 142.781927 166.743291 
z
" clip-path="url(#p2491539167)" style="fill: #1f77b4"/>
   </g>
   <g id="patch_134">
    <path d="M 146.35965 178.353045 
L 149.937373 178.353045 
L 149.937373 166.432568 
L 146.35965 166.432568 
z
" clip-path="url(#p2491539167)" style="fill: #1f77b4"/>
   </g>
   <g id="patch_135">
    <path d="M 149.937373 178.353045 
L 153.515096 178.353045 
L 153.515096 164.963694 
L 149.937373 164.963694 
z
" clip-path="url(#p2491539167)" style="fill: #1f77b4"/>
   </g>
   <g id="patch_136">
    <path d="M 153.515096 178.353045 
L 157.092819 178.353045 
L 157.092819 167.731957 
L 153.515096 167.731957 
z
" clip-path="url(#p2491539167)" style="fill: #1f77b4"/>
   </g>
   <g id="patch_137">
    <path d="M 157.092819 178.353045 
L 160.670542 178.353045 
L 160.670542 167.92969 
L 157.092819 167.92969 
z
" clip-path="url(#p2491539167)" style="fill: #1f77b4"/>
   </g>
   <g id="patch_138">
    <path d="M 160.670542 178.353045 
L 164.248265 178.353045 
L 164.248265 166.912777 
L 160.670542 166.912777 
z
" clip-path="url(#p2491539167)" style="fill: #1f77b4"/>
   </g>
   <g id="patch_139">
    <path d="M 164.248265 178.353045 
L 167.825988 178.353045 
L 167.825988 166.941024 
L 164.248265 166.941024 
z
" clip-path="url(#p2491539167)" style="fill: #1f77b4"/>
   </g>
   <g id="patch_140">
    <path d="M 167.825988 178.353045 
L 171.403711 178.353045 
L 171.403711 167.025767 
L 167.825988 167.025767 
z
" clip-path="url(#p2491539167)" style="fill: #1f77b4"/>
   </g>
   <g id="patch_141">
    <path d="M 171.403711 178.353045 
L 174.981433 178.353045 
L 174.981433 167.675461 
L 171.403711 167.675461 
z
" clip-path="url(#p2491539167)" style="fill: #1f77b4"/>
   </g>
   <g id="patch_142">
    <path d="M 174.981433 178.353045 
L 178.559156 178.353045 
L 178.559156 168.551136 
L 174.981433 168.551136 
z
" clip-path="url(#p2491539167)" style="fill: #1f77b4"/>
   </g>
   <g id="patch_143">
    <path d="M 178.559156 178.353045 
L 182.136879 178.353045 
L 182.136879 167.760204 
L 178.559156 167.760204 
z
" clip-path="url(#p2491539167)" style="fill: #1f77b4"/>
   </g>
   <g id="patch_144">
    <path d="M 182.136879 178.353045 
L 185.714602 178.353045 
L 185.714602 167.92969 
L 182.136879 167.92969 
z
" clip-path="url(#p2491539167)" style="fill: #1f77b4"/>
   </g>
   <g id="patch_145">
    <path d="M 185.714602 178.353045 
L 189.292325 178.353045 
L 189.292325 168.099175 
L 185.714602 168.099175 
z
" clip-path="url(#p2491539167)" style="fill: #1f77b4"/>
   </g>
   <g id="patch_146">
    <path d="M 189.292325 178.353045 
L 192.870048 178.353045 
L 192.870048 167.647214 
L 189.292325 167.647214 
z
" clip-path="url(#p2491539167)" style="fill: #1f77b4"/>
   </g>
   <g id="patch_147">
    <path d="M 192.870048 178.353045 
L 196.447771 178.353045 
L 196.447771 167.816699 
L 192.870048 167.816699 
z
" clip-path="url(#p2491539167)" style="fill: #1f77b4"/>
   </g>
   <g id="patch_148">
    <path d="M 196.447771 178.353045 
L 200.025494 178.353045 
L 200.025494 168.720622 
L 196.447771 168.720622 
z
" clip-path="url(#p2491539167)" style="fill: #1f77b4"/>
   </g>
   <g id="patch_149">
    <path d="M 200.025494 178.353045 
L 203.603217 178.353045 
L 203.603217 167.279995 
L 200.025494 167.279995 
z
" clip-path="url(#p2491539167)" style="fill: #1f77b4"/>
   </g>
   <g id="patch_150">
    <path d="M 203.603217 178.353045 
L 207.18094 178.353045 
L 207.18094 168.381651 
L 203.603217 168.381651 
z
" clip-path="url(#p2491539167)" style="fill: #1f77b4"/>
   </g>
   <g id="patch_151">
    <path d="M 207.18094 178.353045 
L 210.758663 178.353045 
L 210.758663 167.449481 
L 207.18094 167.449481 
z
" clip-path="url(#p2491539167)" style="fill: #1f77b4"/>
   </g>
   <g id="patch_152">
    <path d="M 210.758663 178.353045 
L 214.336385 178.353045 
L 214.336385 168.325156 
L 210.758663 168.325156 
z
" clip-path="url(#p2491539167)" style="fill: #1f77b4"/>
   </g>
   <g id="patch_153">
    <path d="M 214.336385 178.353045 
L 217.914108 178.353045 
L 217.914108 168.748869 
L 214.336385 168.748869 
z
" clip-path="url(#p2491539167)" style="fill: #1f77b4"/>
   </g>
   <g id="patch_154">
    <path d="M 217.914108 178.353045 
L 221.491831 178.353045 
L 221.491831 168.212165 
L 217.914108 168.212165 
z
" clip-path="url(#p2491539167)" style="fill: #1f77b4"/>
   </g>
   <g id="patch_155">
    <path d="M 221.491831 178.353045 
L 225.069554 178.353045 
L 225.069554 168.183918 
L 221.491831 168.183918 
z
" clip-path="url(#p2491539167)" style="fill: #1f77b4"/>
   </g>
   <g id="patch_156">
    <path d="M 225.069554 178.353045 
L 228.647277 178.353045 
L 228.647277 167.025767 
L 225.069554 167.025767 
z
" clip-path="url(#p2491539167)" style="fill: #1f77b4"/>
   </g>
   <g id="patch_157">
    <path d="M 228.647277 178.353045 
L 232.225 178.353045 
L 232.225 168.720622 
L 228.647277 168.720622 
z
" clip-path="url(#p2491539167)" style="fill: #1f77b4"/>
   </g>
   <g id="patch_158">
    <path d="M 232.225 178.353045 
L 235.802723 178.353045 
L 235.802723 167.760204 
L 232.225 167.760204 
z
" clip-path="url(#p2491539167)" style="fill: #1f77b4"/>
   </g>
   <g id="patch_159">
    <path d="M 235.802723 178.353045 
L 239.380446 178.353045 
L 239.380446 167.760204 
L 235.802723 167.760204 
z
" clip-path="url(#p2491539167)" style="fill: #1f77b4"/>
   </g>
   <g id="patch_160">
    <path d="M 239.380446 178.353045 
L 242.958169 178.353045 
L 242.958169 167.788452 
L 239.380446 167.788452 
z
" clip-path="url(#p2491539167)" style="fill: #1f77b4"/>
   </g>
   <g id="patch_161">
    <path d="M 242.958169 178.353045 
L 246.535892 178.353045 
L 246.535892 168.212165 
L 242.958169 168.212165 
z
" clip-path="url(#p2491539167)" style="fill: #1f77b4"/>
   </g>
   <g id="patch_162">
    <path d="M 246.535892 178.353045 
L 250.113615 178.353045 
L 250.113615 168.070927 
L 246.535892 168.070927 
z
" clip-path="url(#p2491539167)" style="fill: #1f77b4"/>
   </g>
   <g id="patch_163">
    <path d="M 250.113615 178.353045 
L 253.691337 178.353045 
L 253.691337 168.296908 
L 250.113615 168.296908 
z
" clip-path="url(#p2491539167)" style="fill: #1f77b4"/>
   </g>
   <g id="patch_164">
    <path d="M 253.691337 178.353045 
L 257.26906 178.353045 
L 257.26906 168.070927 
L 253.691337 168.070927 
z
" clip-path="url(#p2491539167)" style="fill: #1f77b4"/>
   </g>
   <g id="patch_165">
    <path d="M 257.26906 178.353045 
L 260.846783 178.353045 
L 260.846783 169.003097 
L 257.26906 169.003097 
z
" clip-path="url(#p2491539167)" style="fill: #1f77b4"/>
   </g>
   <g id="patch_166">
    <path d="M 260.846783 178.353045 
L 264.424506 178.353045 
L 264.424506 168.438146 
L 260.846783 168.438146 
z
" clip-path="url(#p2491539167)" style="fill: #1f77b4"/>
   </g>
   <g id="patch_167">
    <path d="M 264.424506 178.353045 
L 268.002229 178.353045 
L 268.002229 168.579384 
L 264.424506 168.579384 
z
" clip-path="url(#p2491539167)" style="fill: #1f77b4"/>
   </g>
   <g id="patch_168">
    <path d="M 268.002229 178.353045 
L 271.579952 178.353045 
L 271.579952 167.901442 
L 268.002229 167.901442 
z
" clip-path="url(#p2491539167)" style="fill: #1f77b4"/>
   </g>
   <g id="patch_169">
    <path d="M 271.579952 178.353045 
L 275.157675 178.353045 
L 275.157675 168.26866 
L 271.579952 168.26866 
z
" clip-path="url(#p2491539167)" style="fill: #1f77b4"/>
   </g>
   <g id="patch_170">
    <path d="M 275.157675 178.353045 
L 278.735398 178.353045 
L 278.735398 168.692374 
L 275.157675 168.692374 
z
" clip-path="url(#p2491539167)" style="fill: #1f77b4"/>
   </g>
   <g id="patch_171">
    <path d="M 278.735398 178.353045 
L 282.313121 178.353045 
L 282.313121 168.438146 
L 278.735398 168.438146 
z
" clip-path="url(#p2491539167)" style="fill: #1f77b4"/>
   </g>
   <g id="patch_172">
    <path d="M 282.313121 178.353045 
L 285.890844 178.353045 
L 285.890844 167.92969 
L 282.313121 167.92969 
z
" clip-path="url(#p2491539167)" style="fill: #1f77b4"/>
   </g>
   <g id="patch_173">
    <path d="M 285.890844 178.353045 
L 289.468567 178.353045 
L 289.468567 167.675461 
L 285.890844 167.675461 
z
" clip-path="url(#p2491539167)" style="fill: #1f77b4"/>
   </g>
   <g id="patch_174">
    <path d="M 289.468567 178.353045 
L 293.046289 178.353045 
L 293.046289 168.127423 
L 289.468567 168.127423 
z
" clip-path="url(#p2491539167)" style="fill: #1f77b4"/>
   </g>
   <g id="patch_175">
    <path d="M 293.046289 178.353045 
L 296.624012 178.353045 
L 296.624012 168.86186 
L 293.046289 168.86186 
z
" clip-path="url(#p2491539167)" style="fill: #1f77b4"/>
   </g>
   <g id="patch_176">
    <path d="M 296.624012 178.353045 
L 300.201735 178.353045 
L 300.201735 168.579384 
L 296.624012 168.579384 
z
" clip-path="url(#p2491539167)" style="fill: #1f77b4"/>
   </g>
   <g id="patch_177">
    <path d="M 300.201735 178.353045 
L 303.779458 178.353045 
L 303.779458 168.833612 
L 300.201735 168.833612 
z
" clip-path="url(#p2491539167)" style="fill: #1f77b4"/>
   </g>
   <g id="patch_178">
    <path d="M 303.779458 178.353045 
L 307.357181 178.353045 
L 307.357181 167.873194 
L 303.779458 167.873194 
z
" clip-path="url(#p2491539167)" style="fill: #1f77b4"/>
   </g>
   <g id="patch_179">
    <path d="M 307.357181 178.353045 
L 310.934904 178.353045 
L 310.934904 169.059593 
L 307.357181 169.059593 
z
" clip-path="url(#p2491539167)" style="fill: #1f77b4"/>
   </g>
   <g id="patch_180">
    <path d="M 310.934904 178.353045 
L 314.512627 178.353045 
L 314.512627 167.590719 
L 310.934904 167.590719 
z
" clip-path="url(#p2491539167)" style="fill: #1f77b4"/>
   </g>
   <g id="patch_181">
    <path d="M 314.512627 178.353045 
L 318.09035 178.353045 
L 318.09035 167.901442 
L 314.512627 167.901442 
z
" clip-path="url(#p2491539167)" style="fill: #1f77b4"/>
   </g>
   <g id="patch_182">
    <path d="M 318.09035 178.353045 
L 321.668073 178.353045 
L 321.668073 167.647214 
L 318.09035 167.647214 
z
" clip-path="url(#p2491539167)" style="fill: #1f77b4"/>
   </g>
   <g id="patch_183">
    <path d="M 321.668073 178.353045 
L 325.245796 178.353045 
L 325.245796 167.986185 
L 321.668073 167.986185 
z
" clip-path="url(#p2491539167)" style="fill: #1f77b4"/>
   </g>
   <g id="patch_184">
    <path d="M 325.245796 178.353045 
L 328.823519 178.353045 
L 328.823519 168.381651 
L 325.245796 168.381651 
z
" clip-path="url(#p2491539167)" style="fill: #1f77b4"/>
   </g>
   <g id="patch_185">
    <path d="M 328.823519 178.353045 
L 332.401241 178.353045 
L 332.401241 168.04268 
L 328.823519 168.04268 
z
" clip-path="url(#p2491539167)" style="fill: #1f77b4"/>
   </g>
   <g id="patch_186">
    <path d="M 332.401241 178.353045 
L 335.978964 178.353045 
L 335.978964 167.138757 
L 332.401241 167.138757 
z
" clip-path="url(#p2491539167)" style="fill: #1f77b4"/>
   </g>
   <g id="patch_187">
    <path d="M 335.978964 178.353045 
L 339.556687 178.353045 
L 339.556687 168.26866 
L 335.978964 168.26866 
z
" clip-path="url(#p2491539167)" style="fill: #1f77b4"/>
   </g>
   <g id="patch_188">
    <path d="M 339.556687 178.353045 
L 343.13441 178.353045 
L 343.13441 168.014432 
L 339.556687 168.014432 
z
" clip-path="url(#p2491539167)" style="fill: #1f77b4"/>
   </g>
   <g id="patch_189">
    <path d="M 343.13441 178.353045 
L 346.712133 178.353045 
L 346.712133 168.664127 
L 343.13441 168.664127 
z
" clip-path="url(#p2491539167)" style="fill: #1f77b4"/>
   </g>
   <g id="patch_190">
    <path d="M 346.712133 178.353045 
L 350.289856 178.353045 
L 350.289856 169.031345 
L 346.712133 169.031345 
z
" clip-path="url(#p2491539167)" style="fill: #1f77b4"/>
   </g>
   <g id="patch_191">
    <path d="M 350.289856 178.353045 
L 353.867579 178.353045 
L 353.867579 168.97485 
L 350.289856 168.97485 
z
" clip-path="url(#p2491539167)" style="fill: #1f77b4"/>
   </g>
   <g id="patch_192">
    <path d="M 353.867579 178.353045 
L 357.445302 178.353045 
L 357.445302 168.04268 
L 353.867579 168.04268 
z
" clip-path="url(#p2491539167)" style="fill: #1f77b4"/>
   </g>
   <g id="patch_193">
    <path d="M 357.445302 178.353045 
L 361.023025 178.353045 
L 361.023025 168.127423 
L 357.445302 168.127423 
z
" clip-path="url(#p2491539167)" style="fill: #1f77b4"/>
   </g>
   <g id="patch_194">
    <path d="M 361.023025 178.353045 
L 364.600748 178.353045 
L 364.600748 168.522889 
L 361.023025 168.522889 
z
" clip-path="url(#p2491539167)" style="fill: #1f77b4"/>
   </g>
   <g id="patch_195">
    <path d="M 364.600748 178.353045 
L 368.178471 178.353045 
L 368.178471 169.08784 
L 364.600748 169.08784 
z
" clip-path="url(#p2491539167)" style="fill: #1f77b4"/>
   </g>
   <g id="patch_196">
    <path d="M 368.178471 178.353045 
L 371.756193 178.353045 
L 371.756193 168.720622 
L 368.178471 168.720622 
z
" clip-path="url(#p2491539167)" style="fill: #1f77b4"/>
   </g>
   <g id="patch_197">
    <path d="M 371.756193 178.353045 
L 375.333916 178.353045 
L 375.333916 167.760204 
L 371.756193 167.760204 
z
" clip-path="url(#p2491539167)" style="fill: #1f77b4"/>
   </g>
   <g id="patch_198">
    <path d="M 375.333916 178.353045 
L 378.911639 178.353045 
L 378.911639 168.522889 
L 375.333916 168.522889 
z
" clip-path="url(#p2491539167)" style="fill: #1f77b4"/>
   </g>
   <g id="patch_199">
    <path d="M 378.911639 178.353045 
L 382.489362 178.353045 
L 382.489362 169.031345 
L 378.911639 169.031345 
z
" clip-path="url(#p2491539167)" style="fill: #1f77b4"/>
   </g>
   <g id="patch_200">
    <path d="M 382.489362 178.353045 
L 386.067085 178.353045 
L 386.067085 169.059593 
L 382.489362 169.059593 
z
" clip-path="url(#p2491539167)" style="fill: #1f77b4"/>
   </g>
   <g id="patch_201">
    <path d="M 386.067085 178.353045 
L 389.644808 178.353045 
L 389.644808 169.652792 
L 386.067085 169.652792 
z
" clip-path="url(#p2491539167)" style="fill: #1f77b4"/>
   </g>
   <g id="patch_202">
    <path d="M 389.644808 178.353045 
L 393.222531 178.353045 
L 393.222531 168.353403 
L 389.644808 168.353403 
z
" clip-path="url(#p2491539167)" style="fill: #1f77b4"/>
   </g>
   <g id="patch_203">
    <path d="M 393.222531 178.353045 
L 396.800254 178.353045 
L 396.800254 169.08784 
L 393.222531 169.08784 
z
" clip-path="url(#p2491539167)" style="fill: #1f77b4"/>
   </g>
   <g id="patch_204">
    <path d="M 396.800254 178.353045 
L 400.377977 178.353045 
L 400.377977 169.79403 
L 396.800254 169.79403 
z
" clip-path="url(#p2491539167)" style="fill: #1f77b4"/>
   </g>
   <g id="patch_205">
    <path d="M 400.377977 178.353045 
L 403.9557 178.353045 
L 403.9557 169.90702 
L 400.377977 169.90702 
z
" clip-path="url(#p2491539167)" style="fill: #1f77b4"/>
   </g>
   <g id="patch_206">
    <path d="M 403.9557 178.353045 
L 407.533423 178.353045 
L 407.533423 169.08784 
L 403.9557 169.08784 
z
" clip-path="url(#p2491539167)" style="fill: #1f77b4"/>
   </g>
   <g id="patch_207">
    <path d="M 407.533423 178.353045 
L 411.111145 178.353045 
L 411.111145 168.748869 
L 407.533423 168.748869 
z
" clip-path="url(#p2491539167)" style="fill: #1f77b4"/>
   </g>
   <g id="matplotlib.axis_3">
    <g id="xtick_7">
     <g id="line2d_9">
      <g>
       <use xlink:href="#mc85e983090" x="49.724527" y="178.353045" style="stroke: #000000; stroke-width: 0.8"/>
      </g>
     </g>
     <g id="text_10">
      <!-- 0 -->
      <g transform="translate(46.543277 192.951482)scale(0.1 -0.1)">
       <use xlink:href="#DejaVuSans-30"/>
      </g>
     </g>
    </g>
    <g id="xtick_8">
     <g id="line2d_10">
      <g>
       <use xlink:href="#mc85e983090" x="122.008329" y="178.353045" style="stroke: #000000; stroke-width: 0.8"/>
      </g>
     </g>
     <g id="text_11">
      <!-- 1000 -->
      <g transform="translate(109.283329 192.951482)scale(0.1 -0.1)">
       <use xlink:href="#DejaVuSans-31"/>
       <use xlink:href="#DejaVuSans-30" x="63.623047"/>
       <use xlink:href="#DejaVuSans-30" x="127.246094"/>
       <use xlink:href="#DejaVuSans-30" x="190.869141"/>
      </g>
     </g>
    </g>
    <g id="xtick_9">
     <g id="line2d_11">
      <g>
       <use xlink:href="#mc85e983090" x="194.292132" y="178.353045" style="stroke: #000000; stroke-width: 0.8"/>
      </g>
     </g>
     <g id="text_12">
      <!-- 2000 -->
      <g transform="translate(181.567132 192.951482)scale(0.1 -0.1)">
       <use xlink:href="#DejaVuSans-32"/>
       <use xlink:href="#DejaVuSans-30" x="63.623047"/>
       <use xlink:href="#DejaVuSans-30" x="127.246094"/>
       <use xlink:href="#DejaVuSans-30" x="190.869141"/>
      </g>
     </g>
    </g>
    <g id="xtick_10">
     <g id="line2d_12">
      <g>
       <use xlink:href="#mc85e983090" x="266.575935" y="178.353045" style="stroke: #000000; stroke-width: 0.8"/>
      </g>
     </g>
     <g id="text_13">
      <!-- 3000 -->
      <g transform="translate(253.850935 192.951482)scale(0.1 -0.1)">
       <use xlink:href="#DejaVuSans-33"/>
       <use xlink:href="#DejaVuSans-30" x="63.623047"/>
       <use xlink:href="#DejaVuSans-30" x="127.246094"/>
       <use xlink:href="#DejaVuSans-30" x="190.869141"/>
      </g>
     </g>
    </g>
    <g id="xtick_11">
     <g id="line2d_13">
      <g>
       <use xlink:href="#mc85e983090" x="338.859738" y="178.353045" style="stroke: #000000; stroke-width: 0.8"/>
      </g>
     </g>
     <g id="text_14">
      <!-- 4000 -->
      <g transform="translate(326.134738 192.951482)scale(0.1 -0.1)">
       <use xlink:href="#DejaVuSans-34"/>
       <use xlink:href="#DejaVuSans-30" x="63.623047"/>
       <use xlink:href="#DejaVuSans-30" x="127.246094"/>
       <use xlink:href="#DejaVuSans-30" x="190.869141"/>
      </g>
     </g>
    </g>
    <g id="xtick_12">
     <g id="line2d_14">
      <g>
       <use xlink:href="#mc85e983090" x="411.143541" y="178.353045" style="stroke: #000000; stroke-width: 0.8"/>
      </g>
     </g>
     <g id="text_15">
      <!-- 5000 -->
      <g transform="translate(398.418541 192.951482)scale(0.1 -0.1)">
       <use xlink:href="#DejaVuSans-35"/>
       <use xlink:href="#DejaVuSans-30" x="63.623047"/>
       <use xlink:href="#DejaVuSans-30" x="127.246094"/>
       <use xlink:href="#DejaVuSans-30" x="190.869141"/>
      </g>
     </g>
    </g>
   </g>
   <g id="matplotlib.axis_4">
    <g id="ytick_3">
     <g id="line2d_15">
      <g>
       <use xlink:href="#m49ff29ccc1" x="35.45024" y="178.353045" style="stroke: #000000; stroke-width: 0.8"/>
      </g>
     </g>
     <g id="text_16">
      <!-- 0 -->
      <g transform="translate(22.08774 182.152264)scale(0.1 -0.1)">
       <use xlink:href="#DejaVuSans-30"/>
      </g>
     </g>
    </g>
    <g id="ytick_4">
     <g id="line2d_16">
      <g>
       <use xlink:href="#m49ff29ccc1" x="35.45024" y="150.105469" style="stroke: #000000; stroke-width: 0.8"/>
      </g>
     </g>
     <g id="text_17">
      <!-- 1000 -->
      <g transform="translate(3.00024 153.904688)scale(0.1 -0.1)">
       <use xlink:href="#DejaVuSans-31"/>
       <use xlink:href="#DejaVuSans-30" x="63.623047"/>
       <use xlink:href="#DejaVuSans-30" x="127.246094"/>
       <use xlink:href="#DejaVuSans-30" x="190.869141"/>
      </g>
     </g>
    </g>
   </g>
   <g id="patch_208">
    <path d="M 35.45024 178.353045 
L 35.45024 126.181185 
" style="fill: none; stroke: #000000; stroke-width: 0.8; stroke-linejoin: miter; stroke-linecap: square"/>
   </g>
   <g id="patch_209">
    <path d="M 428.99976 178.353045 
L 428.99976 126.181185 
" style="fill: none; stroke: #000000; stroke-width: 0.8; stroke-linejoin: miter; stroke-linecap: square"/>
   </g>
   <g id="patch_210">
    <path d="M 35.45024 178.353045 
L 428.99976 178.353045 
" style="fill: none; stroke: #000000; stroke-width: 0.8; stroke-linejoin: miter; stroke-linecap: square"/>
   </g>
   <g id="patch_211">
    <path d="M 35.45024 126.181185 
L 428.99976 126.181185 
" style="fill: none; stroke: #000000; stroke-width: 0.8; stroke-linejoin: miter; stroke-linecap: square"/>
   </g>
   <g id="text_18">
    <!-- $M_2$ -->
    <g transform="translate(224.185 120.181185)scale(0.12 -0.12)">
     <use xlink:href="#DejaVuSans-Oblique-4d" transform="translate(0 0.09375)"/>
     <use xlink:href="#DejaVuSans-32" transform="translate(86.279297 -16.3125)scale(0.7)"/>
    </g>
   </g>
  </g>
  <g id="axes_3">
   <g id="patch_212">
    <path d="M 35.45024 268.321635 
L 428.99976 268.321635 
L 428.99976 216.149775 
L 35.45024 216.149775 
z
" style="fill: #ffffff"/>
   </g>
   <g id="patch_213">
    <path d="M 53.338855 268.321635 
L 56.916577 268.321635 
L 56.916577 266.881009 
L 53.338855 266.881009 
z
" clip-path="url(#pca31f2d767)" style="fill: #1f77b4"/>
   </g>
   <g id="patch_214">
    <path d="M 56.916577 268.321635 
L 60.4943 268.321635 
L 60.4943 265.666363 
L 56.916577 265.666363 
z
" clip-path="url(#pca31f2d767)" style="fill: #1f77b4"/>
   </g>
   <g id="patch_215">
    <path d="M 60.4943 268.321635 
L 64.072023 268.321635 
L 64.072023 264.140994 
L 60.4943 264.140994 
z
" clip-path="url(#pca31f2d767)" style="fill: #1f77b4"/>
   </g>
   <g id="patch_216">
    <path d="M 64.072023 268.321635 
L 67.649746 268.321635 
L 67.649746 262.756863 
L 64.072023 262.756863 
z
" clip-path="url(#pca31f2d767)" style="fill: #1f77b4"/>
   </g>
   <g id="patch_217">
    <path d="M 67.649746 268.321635 
L 71.227469 268.321635 
L 71.227469 261.796445 
L 67.649746 261.796445 
z
" clip-path="url(#pca31f2d767)" style="fill: #1f77b4"/>
   </g>
   <g id="patch_218">
    <path d="M 71.227469 268.321635 
L 74.805192 268.321635 
L 74.805192 260.553552 
L 71.227469 260.553552 
z
" clip-path="url(#pca31f2d767)" style="fill: #1f77b4"/>
   </g>
   <g id="patch_219">
    <path d="M 74.805192 268.321635 
L 78.382915 268.321635 
L 78.382915 260.497057 
L 74.805192 260.497057 
z
" clip-path="url(#pca31f2d767)" style="fill: #1f77b4"/>
   </g>
   <g id="patch_220">
    <path d="M 78.382915 268.321635 
L 81.960638 268.321635 
L 81.960638 259.05643 
L 78.382915 259.05643 
z
" clip-path="url(#pca31f2d767)" style="fill: #1f77b4"/>
   </g>
   <g id="patch_221">
    <path d="M 81.960638 268.321635 
L 85.538361 268.321635 
L 85.538361 258.94344 
L 81.960638 258.94344 
z
" clip-path="url(#pca31f2d767)" style="fill: #1f77b4"/>
   </g>
   <g id="patch_222">
    <path d="M 85.538361 268.321635 
L 89.116084 268.321635 
L 89.116084 258.463231 
L 85.538361 258.463231 
z
" clip-path="url(#pca31f2d767)" style="fill: #1f77b4"/>
   </g>
   <g id="patch_223">
    <path d="M 89.116084 268.321635 
L 92.693807 268.321635 
L 92.693807 257.841784 
L 89.116084 257.841784 
z
" clip-path="url(#pca31f2d767)" style="fill: #1f77b4"/>
   </g>
   <g id="patch_224">
    <path d="M 92.693807 268.321635 
L 96.271529 268.321635 
L 96.271529 258.321993 
L 92.693807 258.321993 
z
" clip-path="url(#pca31f2d767)" style="fill: #1f77b4"/>
   </g>
   <g id="patch_225">
    <path d="M 96.271529 268.321635 
L 99.849252 268.321635 
L 99.849252 257.135595 
L 96.271529 257.135595 
z
" clip-path="url(#pca31f2d767)" style="fill: #1f77b4"/>
   </g>
   <g id="patch_226">
    <path d="M 99.849252 268.321635 
L 103.426975 268.321635 
L 103.426975 256.316415 
L 99.849252 256.316415 
z
" clip-path="url(#pca31f2d767)" style="fill: #1f77b4"/>
   </g>
   <g id="patch_227">
    <path d="M 103.426975 268.321635 
L 107.004698 268.321635 
L 107.004698 256.429406 
L 103.426975 256.429406 
z
" clip-path="url(#pca31f2d767)" style="fill: #1f77b4"/>
   </g>
   <g id="patch_228">
    <path d="M 107.004698 268.321635 
L 110.582421 268.321635 
L 110.582421 255.694969 
L 107.004698 255.694969 
z
" clip-path="url(#pca31f2d767)" style="fill: #1f77b4"/>
   </g>
   <g id="patch_229">
    <path d="M 110.582421 268.321635 
L 114.160144 268.321635 
L 114.160144 257.333328 
L 110.582421 257.333328 
z
" clip-path="url(#pca31f2d767)" style="fill: #1f77b4"/>
   </g>
   <g id="patch_230">
    <path d="M 114.160144 268.321635 
L 117.737867 268.321635 
L 117.737867 254.847541 
L 114.160144 254.847541 
z
" clip-path="url(#pca31f2d767)" style="fill: #1f77b4"/>
   </g>
   <g id="patch_231">
    <path d="M 117.737867 268.321635 
L 121.31559 268.321635 
L 121.31559 255.694969 
L 117.737867 255.694969 
z
" clip-path="url(#pca31f2d767)" style="fill: #1f77b4"/>
   </g>
   <g id="patch_232">
    <path d="M 121.31559 268.321635 
L 124.893313 268.321635 
L 124.893313 255.299503 
L 121.31559 255.299503 
z
" clip-path="url(#pca31f2d767)" style="fill: #1f77b4"/>
   </g>
   <g id="patch_233">
    <path d="M 124.893313 268.321635 
L 128.471036 268.321635 
L 128.471036 254.423828 
L 124.893313 254.423828 
z
" clip-path="url(#pca31f2d767)" style="fill: #1f77b4"/>
   </g>
   <g id="patch_234">
    <path d="M 128.471036 268.321635 
L 132.048759 268.321635 
L 132.048759 253.46341 
L 128.471036 253.46341 
z
" clip-path="url(#pca31f2d767)" style="fill: #1f77b4"/>
   </g>
   <g id="patch_235">
    <path d="M 132.048759 268.321635 
L 135.626481 268.321635 
L 135.626481 253.717638 
L 132.048759 253.717638 
z
" clip-path="url(#pca31f2d767)" style="fill: #1f77b4"/>
   </g>
   <g id="patch_236">
    <path d="M 135.626481 268.321635 
L 139.204204 268.321635 
L 139.204204 254.367333 
L 135.626481 254.367333 
z
" clip-path="url(#pca31f2d767)" style="fill: #1f77b4"/>
   </g>
   <g id="patch_237">
    <path d="M 139.204204 268.321635 
L 142.781927 268.321635 
L 142.781927 254.819294 
L 139.204204 254.819294 
z
" clip-path="url(#pca31f2d767)" style="fill: #1f77b4"/>
   </g>
   <g id="patch_238">
    <path d="M 142.781927 268.321635 
L 146.35965 268.321635 
L 146.35965 254.706303 
L 142.781927 254.706303 
z
" clip-path="url(#pca31f2d767)" style="fill: #1f77b4"/>
   </g>
   <g id="patch_239">
    <path d="M 146.35965 268.321635 
L 149.937373 268.321635 
L 149.937373 253.067944 
L 146.35965 253.067944 
z
" clip-path="url(#pca31f2d767)" style="fill: #1f77b4"/>
   </g>
   <g id="patch_240">
    <path d="M 149.937373 268.321635 
L 153.515096 268.321635 
L 153.515096 253.378667 
L 149.937373 253.378667 
z
" clip-path="url(#pca31f2d767)" style="fill: #1f77b4"/>
   </g>
   <g id="patch_241">
    <path d="M 153.515096 268.321635 
L 157.092819 268.321635 
L 157.092819 252.30526 
L 153.515096 252.30526 
z
" clip-path="url(#pca31f2d767)" style="fill: #1f77b4"/>
   </g>
   <g id="patch_242">
    <path d="M 157.092819 268.321635 
L 160.670542 268.321635 
L 160.670542 253.689391 
L 157.092819 253.689391 
z
" clip-path="url(#pca31f2d767)" style="fill: #1f77b4"/>
   </g>
   <g id="patch_243">
    <path d="M 160.670542 268.321635 
L 164.248265 268.321635 
L 164.248265 252.813716 
L 160.670542 252.813716 
z
" clip-path="url(#pca31f2d767)" style="fill: #1f77b4"/>
   </g>
   <g id="patch_244">
    <path d="M 164.248265 268.321635 
L 167.825988 268.321635 
L 167.825988 252.390002 
L 164.248265 252.390002 
z
" clip-path="url(#pca31f2d767)" style="fill: #1f77b4"/>
   </g>
   <g id="patch_245">
    <path d="M 167.825988 268.321635 
L 171.403711 268.321635 
L 171.403711 251.825051 
L 167.825988 251.825051 
z
" clip-path="url(#pca31f2d767)" style="fill: #1f77b4"/>
   </g>
   <g id="patch_246">
    <path d="M 171.403711 268.321635 
L 174.981433 268.321635 
L 174.981433 252.333507 
L 171.403711 252.333507 
z
" clip-path="url(#pca31f2d767)" style="fill: #1f77b4"/>
   </g>
   <g id="patch_247">
    <path d="M 174.981433 268.321635 
L 178.559156 268.321635 
L 178.559156 253.322172 
L 174.981433 253.322172 
z
" clip-path="url(#pca31f2d767)" style="fill: #1f77b4"/>
   </g>
   <g id="patch_248">
    <path d="M 178.559156 268.321635 
L 182.136879 268.321635 
L 182.136879 253.604648 
L 178.559156 253.604648 
z
" clip-path="url(#pca31f2d767)" style="fill: #1f77b4"/>
   </g>
   <g id="patch_249">
    <path d="M 182.136879 268.321635 
L 185.714602 268.321635 
L 185.714602 253.209182 
L 182.136879 253.209182 
z
" clip-path="url(#pca31f2d767)" style="fill: #1f77b4"/>
   </g>
   <g id="patch_250">
    <path d="M 185.714602 268.321635 
L 189.292325 268.321635 
L 189.292325 253.124439 
L 185.714602 253.124439 
z
" clip-path="url(#pca31f2d767)" style="fill: #1f77b4"/>
   </g>
   <g id="patch_251">
    <path d="M 189.292325 268.321635 
L 192.870048 268.321635 
L 192.870048 253.435163 
L 189.292325 253.435163 
z
" clip-path="url(#pca31f2d767)" style="fill: #1f77b4"/>
   </g>
   <g id="patch_252">
    <path d="M 192.870048 268.321635 
L 196.447771 268.321635 
L 196.447771 251.090614 
L 192.870048 251.090614 
z
" clip-path="url(#pca31f2d767)" style="fill: #1f77b4"/>
   </g>
   <g id="patch_253">
    <path d="M 196.447771 268.321635 
L 200.025494 268.321635 
L 200.025494 253.096192 
L 196.447771 253.096192 
z
" clip-path="url(#pca31f2d767)" style="fill: #1f77b4"/>
   </g>
   <g id="patch_254">
    <path d="M 200.025494 268.321635 
L 203.603217 268.321635 
L 203.603217 252.587735 
L 200.025494 252.587735 
z
" clip-path="url(#pca31f2d767)" style="fill: #1f77b4"/>
   </g>
   <g id="patch_255">
    <path d="M 203.603217 268.321635 
L 207.18094 268.321635 
L 207.18094 252.41825 
L 203.603217 252.41825 
z
" clip-path="url(#pca31f2d767)" style="fill: #1f77b4"/>
   </g>
   <g id="patch_256">
    <path d="M 207.18094 268.321635 
L 210.758663 268.321635 
L 210.758663 251.825051 
L 207.18094 251.825051 
z
" clip-path="url(#pca31f2d767)" style="fill: #1f77b4"/>
   </g>
   <g id="patch_257">
    <path d="M 210.758663 268.321635 
L 214.336385 268.321635 
L 214.336385 251.796803 
L 210.758663 251.796803 
z
" clip-path="url(#pca31f2d767)" style="fill: #1f77b4"/>
   </g>
   <g id="patch_258">
    <path d="M 214.336385 268.321635 
L 217.914108 268.321635 
L 217.914108 251.881546 
L 214.336385 251.881546 
z
" clip-path="url(#pca31f2d767)" style="fill: #1f77b4"/>
   </g>
   <g id="patch_259">
    <path d="M 217.914108 268.321635 
L 221.491831 268.321635 
L 221.491831 250.808138 
L 217.914108 250.808138 
z
" clip-path="url(#pca31f2d767)" style="fill: #1f77b4"/>
   </g>
   <g id="patch_260">
    <path d="M 221.491831 268.321635 
L 225.069554 268.321635 
L 225.069554 251.881546 
L 221.491831 251.881546 
z
" clip-path="url(#pca31f2d767)" style="fill: #1f77b4"/>
   </g>
   <g id="patch_261">
    <path d="M 225.069554 268.321635 
L 228.647277 268.321635 
L 228.647277 251.034119 
L 225.069554 251.034119 
z
" clip-path="url(#pca31f2d767)" style="fill: #1f77b4"/>
   </g>
   <g id="patch_262">
    <path d="M 228.647277 268.321635 
L 232.225 268.321635 
L 232.225 252.192269 
L 228.647277 252.192269 
z
" clip-path="url(#pca31f2d767)" style="fill: #1f77b4"/>
   </g>
   <g id="patch_263">
    <path d="M 232.225 268.321635 
L 235.802723 268.321635 
L 235.802723 251.683813 
L 232.225 251.683813 
z
" clip-path="url(#pca31f2d767)" style="fill: #1f77b4"/>
   </g>
   <g id="patch_264">
    <path d="M 235.802723 268.321635 
L 239.380446 268.321635 
L 239.380446 250.695148 
L 235.802723 250.695148 
z
" clip-path="url(#pca31f2d767)" style="fill: #1f77b4"/>
   </g>
   <g id="patch_265">
    <path d="M 239.380446 268.321635 
L 242.958169 268.321635 
L 242.958169 252.785468 
L 239.380446 252.785468 
z
" clip-path="url(#pca31f2d767)" style="fill: #1f77b4"/>
   </g>
   <g id="patch_266">
    <path d="M 242.958169 268.321635 
L 246.535892 268.321635 
L 246.535892 252.107527 
L 242.958169 252.107527 
z
" clip-path="url(#pca31f2d767)" style="fill: #1f77b4"/>
   </g>
   <g id="patch_267">
    <path d="M 246.535892 268.321635 
L 250.113615 268.321635 
L 250.113615 250.751643 
L 246.535892 250.751643 
z
" clip-path="url(#pca31f2d767)" style="fill: #1f77b4"/>
   </g>
   <g id="patch_268">
    <path d="M 250.113615 268.321635 
L 253.691337 268.321635 
L 253.691337 252.390002 
L 250.113615 252.390002 
z
" clip-path="url(#pca31f2d767)" style="fill: #1f77b4"/>
   </g>
   <g id="patch_269">
    <path d="M 253.691337 268.321635 
L 257.26906 268.321635 
L 257.26906 251.231852 
L 253.691337 251.231852 
z
" clip-path="url(#pca31f2d767)" style="fill: #1f77b4"/>
   </g>
   <g id="patch_270">
    <path d="M 257.26906 268.321635 
L 260.846783 268.321635 
L 260.846783 251.457832 
L 257.26906 251.457832 
z
" clip-path="url(#pca31f2d767)" style="fill: #1f77b4"/>
   </g>
   <g id="patch_271">
    <path d="M 260.846783 268.321635 
L 264.424506 268.321635 
L 264.424506 252.164022 
L 260.846783 252.164022 
z
" clip-path="url(#pca31f2d767)" style="fill: #1f77b4"/>
   </g>
   <g id="patch_272">
    <path d="M 264.424506 268.321635 
L 268.002229 268.321635 
L 268.002229 252.107527 
L 264.424506 252.107527 
z
" clip-path="url(#pca31f2d767)" style="fill: #1f77b4"/>
   </g>
   <g id="patch_273">
    <path d="M 268.002229 268.321635 
L 271.579952 268.321635 
L 271.579952 250.525662 
L 268.002229 250.525662 
z
" clip-path="url(#pca31f2d767)" style="fill: #1f77b4"/>
   </g>
   <g id="patch_274">
    <path d="M 271.579952 268.321635 
L 275.157675 268.321635 
L 275.157675 251.316594 
L 271.579952 251.316594 
z
" clip-path="url(#pca31f2d767)" style="fill: #1f77b4"/>
   </g>
   <g id="patch_275">
    <path d="M 275.157675 268.321635 
L 278.735398 268.321635 
L 278.735398 251.740308 
L 275.157675 251.740308 
z
" clip-path="url(#pca31f2d767)" style="fill: #1f77b4"/>
   </g>
   <g id="patch_276">
    <path d="M 278.735398 268.321635 
L 282.313121 268.321635 
L 282.313121 250.638653 
L 278.735398 250.638653 
z
" clip-path="url(#pca31f2d767)" style="fill: #1f77b4"/>
   </g>
   <g id="patch_277">
    <path d="M 282.313121 268.321635 
L 285.890844 268.321635 
L 285.890844 251.881546 
L 282.313121 251.881546 
z
" clip-path="url(#pca31f2d767)" style="fill: #1f77b4"/>
   </g>
   <g id="patch_278">
    <path d="M 285.890844 268.321635 
L 289.468567 268.321635 
L 289.468567 252.728973 
L 285.890844 252.728973 
z
" clip-path="url(#pca31f2d767)" style="fill: #1f77b4"/>
   </g>
   <g id="patch_279">
    <path d="M 289.468567 268.321635 
L 293.046289 268.321635 
L 293.046289 252.390002 
L 289.468567 252.390002 
z
" clip-path="url(#pca31f2d767)" style="fill: #1f77b4"/>
   </g>
   <g id="patch_280">
    <path d="M 293.046289 268.321635 
L 296.624012 268.321635 
L 296.624012 251.966289 
L 293.046289 251.966289 
z
" clip-path="url(#pca31f2d767)" style="fill: #1f77b4"/>
   </g>
   <g id="patch_281">
    <path d="M 296.624012 268.321635 
L 300.201735 268.321635 
L 300.201735 251.288347 
L 296.624012 251.288347 
z
" clip-path="url(#pca31f2d767)" style="fill: #1f77b4"/>
   </g>
   <g id="patch_282">
    <path d="M 300.201735 268.321635 
L 303.779458 268.321635 
L 303.779458 250.949376 
L 300.201735 250.949376 
z
" clip-path="url(#pca31f2d767)" style="fill: #1f77b4"/>
   </g>
   <g id="patch_283">
    <path d="M 303.779458 268.321635 
L 307.357181 268.321635 
L 307.357181 252.135774 
L 303.779458 252.135774 
z
" clip-path="url(#pca31f2d767)" style="fill: #1f77b4"/>
   </g>
   <g id="patch_284">
    <path d="M 307.357181 268.321635 
L 310.934904 268.321635 
L 310.934904 250.864633 
L 307.357181 250.864633 
z
" clip-path="url(#pca31f2d767)" style="fill: #1f77b4"/>
   </g>
   <g id="patch_285">
    <path d="M 310.934904 268.321635 
L 314.512627 268.321635 
L 314.512627 252.41825 
L 310.934904 252.41825 
z
" clip-path="url(#pca31f2d767)" style="fill: #1f77b4"/>
   </g>
   <g id="patch_286">
    <path d="M 314.512627 268.321635 
L 318.09035 268.321635 
L 318.09035 252.587735 
L 314.512627 252.587735 
z
" clip-path="url(#pca31f2d767)" style="fill: #1f77b4"/>
   </g>
   <g id="patch_287">
    <path d="M 318.09035 268.321635 
L 321.668073 268.321635 
L 321.668073 252.587735 
L 318.09035 252.587735 
z
" clip-path="url(#pca31f2d767)" style="fill: #1f77b4"/>
   </g>
   <g id="patch_288">
    <path d="M 321.668073 268.321635 
L 325.245796 268.321635 
L 325.245796 252.474745 
L 321.668073 252.474745 
z
" clip-path="url(#pca31f2d767)" style="fill: #1f77b4"/>
   </g>
   <g id="patch_289">
    <path d="M 325.245796 268.321635 
L 328.823519 268.321635 
L 328.823519 252.333507 
L 325.245796 252.333507 
z
" clip-path="url(#pca31f2d767)" style="fill: #1f77b4"/>
   </g>
   <g id="patch_290">
    <path d="M 328.823519 268.321635 
L 332.401241 268.321635 
L 332.401241 253.858876 
L 328.823519 253.858876 
z
" clip-path="url(#pca31f2d767)" style="fill: #1f77b4"/>
   </g>
   <g id="patch_291">
    <path d="M 332.401241 268.321635 
L 335.978964 268.321635 
L 335.978964 252.502993 
L 332.401241 252.502993 
z
" clip-path="url(#pca31f2d767)" style="fill: #1f77b4"/>
   </g>
   <g id="patch_292">
    <path d="M 335.978964 268.321635 
L 339.556687 268.321635 
L 339.556687 252.192269 
L 335.978964 252.192269 
z
" clip-path="url(#pca31f2d767)" style="fill: #1f77b4"/>
   </g>
   <g id="patch_293">
    <path d="M 339.556687 268.321635 
L 343.13441 268.321635 
L 343.13441 252.248764 
L 339.556687 252.248764 
z
" clip-path="url(#pca31f2d767)" style="fill: #1f77b4"/>
   </g>
   <g id="patch_294">
    <path d="M 343.13441 268.321635 
L 346.712133 268.321635 
L 346.712133 253.915371 
L 343.13441 253.915371 
z
" clip-path="url(#pca31f2d767)" style="fill: #1f77b4"/>
   </g>
   <g id="patch_295">
    <path d="M 346.712133 268.321635 
L 350.289856 268.321635 
L 350.289856 253.322172 
L 346.712133 253.322172 
z
" clip-path="url(#pca31f2d767)" style="fill: #1f77b4"/>
   </g>
   <g id="patch_296">
    <path d="M 350.289856 268.321635 
L 353.867579 268.321635 
L 353.867579 253.435163 
L 350.289856 253.435163 
z
" clip-path="url(#pca31f2d767)" style="fill: #1f77b4"/>
   </g>
   <g id="patch_297">
    <path d="M 353.867579 268.321635 
L 357.445302 268.321635 
L 357.445302 253.124439 
L 353.867579 253.124439 
z
" clip-path="url(#pca31f2d767)" style="fill: #1f77b4"/>
   </g>
   <g id="patch_298">
    <path d="M 357.445302 268.321635 
L 361.023025 268.321635 
L 361.023025 252.841963 
L 357.445302 252.841963 
z
" clip-path="url(#pca31f2d767)" style="fill: #1f77b4"/>
   </g>
   <g id="patch_299">
    <path d="M 361.023025 268.321635 
L 364.600748 268.321635 
L 364.600748 253.717638 
L 361.023025 253.717638 
z
" clip-path="url(#pca31f2d767)" style="fill: #1f77b4"/>
   </g>
   <g id="patch_300">
    <path d="M 364.600748 268.321635 
L 368.178471 268.321635 
L 368.178471 252.672478 
L 364.600748 252.672478 
z
" clip-path="url(#pca31f2d767)" style="fill: #1f77b4"/>
   </g>
   <g id="patch_301">
    <path d="M 368.178471 268.321635 
L 371.756193 268.321635 
L 371.756193 254.056609 
L 368.178471 254.056609 
z
" clip-path="url(#pca31f2d767)" style="fill: #1f77b4"/>
   </g>
   <g id="patch_302">
    <path d="M 371.756193 268.321635 
L 375.333916 268.321635 
L 375.333916 252.64423 
L 371.756193 252.64423 
z
" clip-path="url(#pca31f2d767)" style="fill: #1f77b4"/>
   </g>
   <g id="patch_303">
    <path d="M 375.333916 268.321635 
L 378.911639 268.321635 
L 378.911639 254.367333 
L 375.333916 254.367333 
z
" clip-path="url(#pca31f2d767)" style="fill: #1f77b4"/>
   </g>
   <g id="patch_304">
    <path d="M 378.911639 268.321635 
L 382.489362 268.321635 
L 382.489362 254.1696 
L 378.911639 254.1696 
z
" clip-path="url(#pca31f2d767)" style="fill: #1f77b4"/>
   </g>
   <g id="patch_305">
    <path d="M 382.489362 268.321635 
L 386.067085 268.321635 
L 386.067085 255.017027 
L 382.489362 255.017027 
z
" clip-path="url(#pca31f2d767)" style="fill: #1f77b4"/>
   </g>
   <g id="patch_306">
    <path d="M 386.067085 268.321635 
L 389.644808 268.321635 
L 389.644808 255.384245 
L 386.067085 255.384245 
z
" clip-path="url(#pca31f2d767)" style="fill: #1f77b4"/>
   </g>
   <g id="patch_307">
    <path d="M 389.644808 268.321635 
L 393.222531 268.321635 
L 393.222531 255.045274 
L 389.644808 255.045274 
z
" clip-path="url(#pca31f2d767)" style="fill: #1f77b4"/>
   </g>
   <g id="patch_308">
    <path d="M 393.222531 268.321635 
L 396.800254 268.321635 
L 396.800254 254.1696 
L 393.222531 254.1696 
z
" clip-path="url(#pca31f2d767)" style="fill: #1f77b4"/>
   </g>
   <g id="patch_309">
    <path d="M 396.800254 268.321635 
L 400.377977 268.321635 
L 400.377977 254.423828 
L 396.800254 254.423828 
z
" clip-path="url(#pca31f2d767)" style="fill: #1f77b4"/>
   </g>
   <g id="patch_310">
    <path d="M 400.377977 268.321635 
L 403.9557 268.321635 
L 403.9557 255.920949 
L 400.377977 255.920949 
z
" clip-path="url(#pca31f2d767)" style="fill: #1f77b4"/>
   </g>
   <g id="patch_311">
    <path d="M 403.9557 268.321635 
L 407.533423 268.321635 
L 407.533423 254.1696 
L 403.9557 254.1696 
z
" clip-path="url(#pca31f2d767)" style="fill: #1f77b4"/>
   </g>
   <g id="patch_312">
    <path d="M 407.533423 268.321635 
L 411.111145 268.321635 
L 411.111145 256.401158 
L 407.533423 256.401158 
z
" clip-path="url(#pca31f2d767)" style="fill: #1f77b4"/>
   </g>
   <g id="matplotlib.axis_5">
    <g id="xtick_13">
     <g id="line2d_17">
      <g>
       <use xlink:href="#mc85e983090" x="49.448695" y="268.321635" style="stroke: #000000; stroke-width: 0.8"/>
      </g>
     </g>
     <g id="text_19">
      <!-- 0 -->
      <g transform="translate(46.267445 282.920073)scale(0.1 -0.1)">
       <use xlink:href="#DejaVuSans-30"/>
      </g>
     </g>
    </g>
    <g id="xtick_14">
     <g id="line2d_18">
      <g>
       <use xlink:href="#mc85e983090" x="121.782922" y="268.321635" style="stroke: #000000; stroke-width: 0.8"/>
      </g>
     </g>
     <g id="text_20">
      <!-- 1000 -->
      <g transform="translate(109.057922 282.920073)scale(0.1 -0.1)">
       <use xlink:href="#DejaVuSans-31"/>
       <use xlink:href="#DejaVuSans-30" x="63.623047"/>
       <use xlink:href="#DejaVuSans-30" x="127.246094"/>
       <use xlink:href="#DejaVuSans-30" x="190.869141"/>
      </g>
     </g>
    </g>
    <g id="xtick_15">
     <g id="line2d_19">
      <g>
       <use xlink:href="#mc85e983090" x="194.117149" y="268.321635" style="stroke: #000000; stroke-width: 0.8"/>
      </g>
     </g>
     <g id="text_21">
      <!-- 2000 -->
      <g transform="translate(181.392149 282.920073)scale(0.1 -0.1)">
       <use xlink:href="#DejaVuSans-32"/>
       <use xlink:href="#DejaVuSans-30" x="63.623047"/>
       <use xlink:href="#DejaVuSans-30" x="127.246094"/>
       <use xlink:href="#DejaVuSans-30" x="190.869141"/>
      </g>
     </g>
    </g>
    <g id="xtick_16">
     <g id="line2d_20">
      <g>
       <use xlink:href="#mc85e983090" x="266.451377" y="268.321635" style="stroke: #000000; stroke-width: 0.8"/>
      </g>
     </g>
     <g id="text_22">
      <!-- 3000 -->
      <g transform="translate(253.726377 282.920073)scale(0.1 -0.1)">
       <use xlink:href="#DejaVuSans-33"/>
       <use xlink:href="#DejaVuSans-30" x="63.623047"/>
       <use xlink:href="#DejaVuSans-30" x="127.246094"/>
       <use xlink:href="#DejaVuSans-30" x="190.869141"/>
      </g>
     </g>
    </g>
    <g id="xtick_17">
     <g id="line2d_21">
      <g>
       <use xlink:href="#mc85e983090" x="338.785604" y="268.321635" style="stroke: #000000; stroke-width: 0.8"/>
      </g>
     </g>
     <g id="text_23">
      <!-- 4000 -->
      <g transform="translate(326.060604 282.920073)scale(0.1 -0.1)">
       <use xlink:href="#DejaVuSans-34"/>
       <use xlink:href="#DejaVuSans-30" x="63.623047"/>
       <use xlink:href="#DejaVuSans-30" x="127.246094"/>
       <use xlink:href="#DejaVuSans-30" x="190.869141"/>
      </g>
     </g>
    </g>
    <g id="xtick_18">
     <g id="line2d_22">
      <g>
       <use xlink:href="#mc85e983090" x="411.119831" y="268.321635" style="stroke: #000000; stroke-width: 0.8"/>
      </g>
     </g>
     <g id="text_24">
      <!-- 5000 -->
      <g transform="translate(398.394831 282.920073)scale(0.1 -0.1)">
       <use xlink:href="#DejaVuSans-35"/>
       <use xlink:href="#DejaVuSans-30" x="63.623047"/>
       <use xlink:href="#DejaVuSans-30" x="127.246094"/>
       <use xlink:href="#DejaVuSans-30" x="190.869141"/>
      </g>
     </g>
    </g>
   </g>
   <g id="matplotlib.axis_6">
    <g id="ytick_5">
     <g id="line2d_23">
      <g>
       <use xlink:href="#m49ff29ccc1" x="35.45024" y="268.321635" style="stroke: #000000; stroke-width: 0.8"/>
      </g>
     </g>
     <g id="text_25">
      <!-- 0 -->
      <g transform="translate(22.08774 272.120854)scale(0.1 -0.1)">
       <use xlink:href="#DejaVuSans-30"/>
      </g>
     </g>
    </g>
    <g id="ytick_6">
     <g id="line2d_24">
      <g>
       <use xlink:href="#m49ff29ccc1" x="35.45024" y="240.074059" style="stroke: #000000; stroke-width: 0.8"/>
      </g>
     </g>
     <g id="text_26">
      <!-- 1000 -->
      <g transform="translate(3.00024 243.873278)scale(0.1 -0.1)">
       <use xlink:href="#DejaVuSans-31"/>
       <use xlink:href="#DejaVuSans-30" x="63.623047"/>
       <use xlink:href="#DejaVuSans-30" x="127.246094"/>
       <use xlink:href="#DejaVuSans-30" x="190.869141"/>
      </g>
     </g>
    </g>
   </g>
   <g id="patch_313">
    <path d="M 35.45024 268.321635 
L 35.45024 216.149775 
" style="fill: none; stroke: #000000; stroke-width: 0.8; stroke-linejoin: miter; stroke-linecap: square"/>
   </g>
   <g id="patch_314">
    <path d="M 428.99976 268.321635 
L 428.99976 216.149775 
" style="fill: none; stroke: #000000; stroke-width: 0.8; stroke-linejoin: miter; stroke-linecap: square"/>
   </g>
   <g id="patch_315">
    <path d="M 35.45024 268.321635 
L 428.99976 268.321635 
" style="fill: none; stroke: #000000; stroke-width: 0.8; stroke-linejoin: miter; stroke-linecap: square"/>
   </g>
   <g id="patch_316">
    <path d="M 35.45024 216.149775 
L 428.99976 216.149775 
" style="fill: none; stroke: #000000; stroke-width: 0.8; stroke-linejoin: miter; stroke-linecap: square"/>
   </g>
   <g id="text_27">
    <!-- $M_3$ -->
    <g transform="translate(224.185 210.149775)scale(0.12 -0.12)">
     <use xlink:href="#DejaVuSans-Oblique-4d" transform="translate(0 0.09375)"/>
     <use xlink:href="#DejaVuSans-33" transform="translate(86.279297 -16.3125)scale(0.7)"/>
    </g>
   </g>
  </g>
  <g id="text_28">
   <!-- Histogramme des paramtres de masse -->
   <g transform="translate(95.4525 12.598365)scale(0.12 -0.12)">
    <defs>
     <path id="DejaVuSans-48" d="M 628 4666 
L 1259 4666 
L 1259 2753 
L 3553 2753 
L 3553 4666 
L 4184 4666 
L 4184 0 
L 3553 0 
L 3553 2222 
L 1259 2222 
L 1259 0 
L 628 0 
L 628 4666 
z
" transform="scale(0.015625)"/>
     <path id="DejaVuSans-69" d="M 603 3500 
L 1178 3500 
L 1178 0 
L 603 0 
L 603 3500 
z
M 603 4863 
L 1178 4863 
L 1178 4134 
L 603 4134 
L 603 4863 
z
" transform="scale(0.015625)"/>
     <path id="DejaVuSans-73" d="M 2834 3397 
L 2834 2853 
Q 2591 2978 2328 3040 
Q 2066 3103 1784 3103 
Q 1356 3103 1142 2972 
Q 928 2841 928 2578 
Q 928 2378 1081 2264 
Q 1234 2150 1697 2047 
L 1894 2003 
Q 2506 1872 2764 1633 
Q 3022 1394 3022 966 
Q 3022 478 2636 193 
Q 2250 -91 1575 -91 
Q 1294 -91 989 -36 
Q 684 19 347 128 
L 347 722 
Q 666 556 975 473 
Q 1284 391 1588 391 
Q 1994 391 2212 530 
Q 2431 669 2431 922 
Q 2431 1156 2273 1281 
Q 2116 1406 1581 1522 
L 1381 1569 
Q 847 1681 609 1914 
Q 372 2147 372 2553 
Q 372 3047 722 3315 
Q 1072 3584 1716 3584 
Q 2034 3584 2315 3537 
Q 2597 3491 2834 3397 
z
" transform="scale(0.015625)"/>
     <path id="DejaVuSans-74" d="M 1172 4494 
L 1172 3500 
L 2356 3500 
L 2356 3053 
L 1172 3053 
L 1172 1153 
Q 1172 725 1289 603 
Q 1406 481 1766 481 
L 2356 481 
L 2356 0 
L 1766 0 
Q 1100 0 847 248 
Q 594 497 594 1153 
L 594 3053 
L 172 3053 
L 172 3500 
L 594 3500 
L 594 4494 
L 1172 4494 
z
" transform="scale(0.015625)"/>
     <path id="DejaVuSans-6f" d="M 1959 3097 
Q 1497 3097 1228 2736 
Q 959 2375 959 1747 
Q 959 1119 1226 758 
Q 1494 397 1959 397 
Q 2419 397 2687 759 
Q 2956 1122 2956 1747 
Q 2956 2369 2687 2733 
Q 2419 3097 1959 3097 
z
M 1959 3584 
Q 2709 3584 3137 3096 
Q 3566 2609 3566 1747 
Q 3566 888 3137 398 
Q 2709 -91 1959 -91 
Q 1206 -91 779 398 
Q 353 888 353 1747 
Q 353 2609 779 3096 
Q 1206 3584 1959 3584 
z
" transform="scale(0.015625)"/>
     <path id="DejaVuSans-67" d="M 2906 1791 
Q 2906 2416 2648 2759 
Q 2391 3103 1925 3103 
Q 1463 3103 1205 2759 
Q 947 2416 947 1791 
Q 947 1169 1205 825 
Q 1463 481 1925 481 
Q 2391 481 2648 825 
Q 2906 1169 2906 1791 
z
M 3481 434 
Q 3481 -459 3084 -895 
Q 2688 -1331 1869 -1331 
Q 1566 -1331 1297 -1286 
Q 1028 -1241 775 -1147 
L 775 -588 
Q 1028 -725 1275 -790 
Q 1522 -856 1778 -856 
Q 2344 -856 2625 -561 
Q 2906 -266 2906 331 
L 2906 616 
Q 2728 306 2450 153 
Q 2172 0 1784 0 
Q 1141 0 747 490 
Q 353 981 353 1791 
Q 353 2603 747 3093 
Q 1141 3584 1784 3584 
Q 2172 3584 2450 3431 
Q 2728 3278 2906 2969 
L 2906 3500 
L 3481 3500 
L 3481 434 
z
" transform="scale(0.015625)"/>
     <path id="DejaVuSans-72" d="M 2631 2963 
Q 2534 3019 2420 3045 
Q 2306 3072 2169 3072 
Q 1681 3072 1420 2755 
Q 1159 2438 1159 1844 
L 1159 0 
L 581 0 
L 581 3500 
L 1159 3500 
L 1159 2956 
Q 1341 3275 1631 3429 
Q 1922 3584 2338 3584 
Q 2397 3584 2469 3576 
Q 2541 3569 2628 3553 
L 2631 2963 
z
" transform="scale(0.015625)"/>
     <path id="DejaVuSans-61" d="M 2194 1759 
Q 1497 1759 1228 1600 
Q 959 1441 959 1056 
Q 959 750 1161 570 
Q 1363 391 1709 391 
Q 2188 391 2477 730 
Q 2766 1069 2766 1631 
L 2766 1759 
L 2194 1759 
z
M 3341 1997 
L 3341 0 
L 2766 0 
L 2766 531 
Q 2569 213 2275 61 
Q 1981 -91 1556 -91 
Q 1019 -91 701 211 
Q 384 513 384 1019 
Q 384 1609 779 1909 
Q 1175 2209 1959 2209 
L 2766 2209 
L 2766 2266 
Q 2766 2663 2505 2880 
Q 2244 3097 1772 3097 
Q 1472 3097 1187 3025 
Q 903 2953 641 2809 
L 641 3341 
Q 956 3463 1253 3523 
Q 1550 3584 1831 3584 
Q 2591 3584 2966 3190 
Q 3341 2797 3341 1997 
z
" transform="scale(0.015625)"/>
     <path id="DejaVuSans-6d" d="M 3328 2828 
Q 3544 3216 3844 3400 
Q 4144 3584 4550 3584 
Q 5097 3584 5394 3201 
Q 5691 2819 5691 2113 
L 5691 0 
L 5113 0 
L 5113 2094 
Q 5113 2597 4934 2840 
Q 4756 3084 4391 3084 
Q 3944 3084 3684 2787 
Q 3425 2491 3425 1978 
L 3425 0 
L 2847 0 
L 2847 2094 
Q 2847 2600 2669 2842 
Q 2491 3084 2119 3084 
Q 1678 3084 1418 2786 
Q 1159 2488 1159 1978 
L 1159 0 
L 581 0 
L 581 3500 
L 1159 3500 
L 1159 2956 
Q 1356 3278 1631 3431 
Q 1906 3584 2284 3584 
Q 2666 3584 2933 3390 
Q 3200 3197 3328 2828 
z
" transform="scale(0.015625)"/>
     <path id="DejaVuSans-65" d="M 3597 1894 
L 3597 1613 
L 953 1613 
Q 991 1019 1311 708 
Q 1631 397 2203 397 
Q 2534 397 2845 478 
Q 3156 559 3463 722 
L 3463 178 
Q 3153 47 2828 -22 
Q 2503 -91 2169 -91 
Q 1331 -91 842 396 
Q 353 884 353 1716 
Q 353 2575 817 3079 
Q 1281 3584 2069 3584 
Q 2775 3584 3186 3129 
Q 3597 2675 3597 1894 
z
M 3022 2063 
Q 3016 2534 2758 2815 
Q 2500 3097 2075 3097 
Q 1594 3097 1305 2825 
Q 1016 2553 972 2059 
L 3022 2063 
z
" transform="scale(0.015625)"/>
     <path id="DejaVuSans-20" transform="scale(0.015625)"/>
     <path id="DejaVuSans-64" d="M 2906 2969 
L 2906 4863 
L 3481 4863 
L 3481 0 
L 2906 0 
L 2906 525 
Q 2725 213 2448 61 
Q 2172 -91 1784 -91 
Q 1150 -91 751 415 
Q 353 922 353 1747 
Q 353 2572 751 3078 
Q 1150 3584 1784 3584 
Q 2172 3584 2448 3432 
Q 2725 3281 2906 2969 
z
M 947 1747 
Q 947 1113 1208 752 
Q 1469 391 1925 391 
Q 2381 391 2643 752 
Q 2906 1113 2906 1747 
Q 2906 2381 2643 2742 
Q 2381 3103 1925 3103 
Q 1469 3103 1208 2742 
Q 947 2381 947 1747 
z
" transform="scale(0.015625)"/>
     <path id="DejaVuSans-70" d="M 1159 525 
L 1159 -1331 
L 581 -1331 
L 581 3500 
L 1159 3500 
L 1159 2969 
Q 1341 3281 1617 3432 
Q 1894 3584 2278 3584 
Q 2916 3584 3314 3078 
Q 3713 2572 3713 1747 
Q 3713 922 3314 415 
Q 2916 -91 2278 -91 
Q 1894 -91 1617 61 
Q 1341 213 1159 525 
z
M 3116 1747 
Q 3116 2381 2855 2742 
Q 2594 3103 2138 3103 
Q 1681 3103 1420 2742 
Q 1159 2381 1159 1747 
Q 1159 1113 1420 752 
Q 1681 391 2138 391 
Q 2594 391 2855 752 
Q 3116 1113 3116 1747 
z
" transform="scale(0.015625)"/>
     <path id="DejaVuSans-e8" d="M 3597 1894 
L 3597 1613 
L 953 1613 
Q 991 1019 1311 708 
Q 1631 397 2203 397 
Q 2534 397 2845 478 
Q 3156 559 3463 722 
L 3463 178 
Q 3153 47 2828 -22 
Q 2503 -91 2169 -91 
Q 1331 -91 842 396 
Q 353 884 353 1716 
Q 353 2575 817 3079 
Q 1281 3584 2069 3584 
Q 2775 3584 3186 3129 
Q 3597 2675 3597 1894 
z
M 3022 2063 
Q 3016 2534 2758 2815 
Q 2500 3097 2075 3097 
Q 1594 3097 1305 2825 
Q 1016 2553 972 2059 
L 3022 2063 
z
M 1579 5119 
L 2460 3950 
L 1982 3950 
L 963 5119 
L 1579 5119 
z
" transform="scale(0.015625)"/>
    </defs>
    <use xlink:href="#DejaVuSans-48"/>
    <use xlink:href="#DejaVuSans-69" x="75.195312"/>
    <use xlink:href="#DejaVuSans-73" x="102.978516"/>
    <use xlink:href="#DejaVuSans-74" x="155.078125"/>
    <use xlink:href="#DejaVuSans-6f" x="194.287109"/>
    <use xlink:href="#DejaVuSans-67" x="255.46875"/>
    <use xlink:href="#DejaVuSans-72" x="318.945312"/>
    <use xlink:href="#DejaVuSans-61" x="360.058594"/>
    <use xlink:href="#DejaVuSans-6d" x="421.337891"/>
    <use xlink:href="#DejaVuSans-6d" x="518.75"/>
    <use xlink:href="#DejaVuSans-65" x="616.162109"/>
    <use xlink:href="#DejaVuSans-20" x="677.685547"/>
    <use xlink:href="#DejaVuSans-64" x="709.472656"/>
    <use xlink:href="#DejaVuSans-65" x="772.949219"/>
    <use xlink:href="#DejaVuSans-73" x="834.472656"/>
    <use xlink:href="#DejaVuSans-20" x="886.572266"/>
    <use xlink:href="#DejaVuSans-70" x="918.359375"/>
    <use xlink:href="#DejaVuSans-61" x="981.835938"/>
    <use xlink:href="#DejaVuSans-72" x="1043.115234"/>
    <use xlink:href="#DejaVuSans-61" x="1084.228516"/>
    <use xlink:href="#DejaVuSans-6d" x="1145.507812"/>
    <use xlink:href="#DejaVuSans-e8" x="1242.919922"/>
    <use xlink:href="#DejaVuSans-74" x="1304.443359"/>
    <use xlink:href="#DejaVuSans-72" x="1343.652344"/>
    <use xlink:href="#DejaVuSans-65" x="1382.515625"/>
    <use xlink:href="#DejaVuSans-73" x="1444.039062"/>
    <use xlink:href="#DejaVuSans-20" x="1496.138672"/>
    <use xlink:href="#DejaVuSans-64" x="1527.925781"/>
    <use xlink:href="#DejaVuSans-65" x="1591.402344"/>
    <use xlink:href="#DejaVuSans-20" x="1652.925781"/>
    <use xlink:href="#DejaVuSans-6d" x="1684.712891"/>
    <use xlink:href="#DejaVuSans-61" x="1782.125"/>
    <use xlink:href="#DejaVuSans-73" x="1843.404297"/>
    <use xlink:href="#DejaVuSans-73" x="1895.503906"/>
    <use xlink:href="#DejaVuSans-65" x="1947.603516"/>
   </g>
  </g>
  <g id="text_29">
   <!-- Masse (GeV) -->
   <g transform="translate(184.474219 302.4)scale(0.1 -0.1)">
    <defs>
     <path id="DejaVuSans-4d" d="M 628 4666 
L 1569 4666 
L 2759 1491 
L 3956 4666 
L 4897 4666 
L 4897 0 
L 4281 0 
L 4281 4097 
L 3078 897 
L 2444 897 
L 1241 4097 
L 1241 0 
L 628 0 
L 628 4666 
z
" transform="scale(0.015625)"/>
     <path id="DejaVuSans-28" d="M 1984 4856 
Q 1566 4138 1362 3434 
Q 1159 2731 1159 2009 
Q 1159 1288 1364 580 
Q 1569 -128 1984 -844 
L 1484 -844 
Q 1016 -109 783 600 
Q 550 1309 550 2009 
Q 550 2706 781 3412 
Q 1013 4119 1484 4856 
L 1984 4856 
z
" transform="scale(0.015625)"/>
     <path id="DejaVuSans-47" d="M 3809 666 
L 3809 1919 
L 2778 1919 
L 2778 2438 
L 4434 2438 
L 4434 434 
Q 4069 175 3628 42 
Q 3188 -91 2688 -91 
Q 1594 -91 976 548 
Q 359 1188 359 2328 
Q 359 3472 976 4111 
Q 1594 4750 2688 4750 
Q 3144 4750 3555 4637 
Q 3966 4525 4313 4306 
L 4313 3634 
Q 3963 3931 3569 4081 
Q 3175 4231 2741 4231 
Q 1884 4231 1454 3753 
Q 1025 3275 1025 2328 
Q 1025 1384 1454 906 
Q 1884 428 2741 428 
Q 3075 428 3337 486 
Q 3600 544 3809 666 
z
" transform="scale(0.015625)"/>
     <path id="DejaVuSans-56" d="M 1831 0 
L 50 4666 
L 709 4666 
L 2188 738 
L 3669 4666 
L 4325 4666 
L 2547 0 
L 1831 0 
z
" transform="scale(0.015625)"/>
     <path id="DejaVuSans-29" d="M 513 4856 
L 1013 4856 
Q 1481 4119 1714 3412 
Q 1947 2706 1947 2009 
Q 1947 1309 1714 600 
Q 1481 -109 1013 -844 
L 513 -844 
Q 928 -128 1133 580 
Q 1338 1288 1338 2009 
Q 1338 2731 1133 3434 
Q 928 4138 513 4856 
z
" transform="scale(0.015625)"/>
    </defs>
    <use xlink:href="#DejaVuSans-4d"/>
    <use xlink:href="#DejaVuSans-61" x="86.279297"/>
    <use xlink:href="#DejaVuSans-73" x="147.558594"/>
    <use xlink:href="#DejaVuSans-73" x="199.658203"/>
    <use xlink:href="#DejaVuSans-65" x="251.757812"/>
    <use xlink:href="#DejaVuSans-20" x="313.28125"/>
    <use xlink:href="#DejaVuSans-28" x="345.068359"/>
    <use xlink:href="#DejaVuSans-47" x="384.082031"/>
    <use xlink:href="#DejaVuSans-65" x="461.572266"/>
    <use xlink:href="#DejaVuSans-56" x="523.095703"/>
    <use xlink:href="#DejaVuSans-29" x="591.503906"/>
   </g>
  </g>
  <g id="text_30">
   <!-- N -->
   <g transform="translate(-9.681563 147.740625)rotate(-90)scale(0.1 -0.1)">
    <defs>
     <path id="DejaVuSans-4e" d="M 628 4666 
L 1478 4666 
L 3547 763 
L 3547 4666 
L 4159 4666 
L 4159 0 
L 3309 0 
L 1241 3903 
L 1241 0 
L 628 0 
L 628 4666 
z
" transform="scale(0.015625)"/>
    </defs>
    <use xlink:href="#DejaVuSans-4e"/>
   </g>
  </g>
 </g>
 <defs>
  <clipPath id="p6e73fbdfd7">
   <rect x="35.45024" y="36.212595" width="393.54952" height="52.17186"/>
  </clipPath>
  <clipPath id="p2491539167">
   <rect x="35.45024" y="126.181185" width="393.54952" height="52.17186"/>
  </clipPath>
  <clipPath id="pca31f2d767">
   <rect x="35.45024" y="216.149775" width="393.54952" height="52.17186"/>
  </clipPath>
 </defs>
</svg>
