<?xml version="1.0" encoding="utf-8" standalone="no"?>
<!DOCTYPE svg PUBLIC "-//W3C//DTD SVG 1.1//EN"
  "http://www.w3.org/Graphics/SVG/1.1/DTD/svg11.dtd">
<svg xmlns:xlink="http://www.w3.org/1999/xlink" width="432pt" height="288pt" viewBox="0 0 432 288" xmlns="http://www.w3.org/2000/svg" version="1.1">
 <metadata>
  <rdf:RDF xmlns:dc="http://purl.org/dc/elements/1.1/" xmlns:cc="http://creativecommons.org/ns#" xmlns:rdf="http://www.w3.org/1999/02/22-rdf-syntax-ns#">
   <cc:Work>
    <dc:type rdf:resource="http://purl.org/dc/dcmitype/StillImage"/>
    <dc:date>2022-06-10T08:23:40.663058</dc:date>
    <dc:format>image/svg+xml</dc:format>
    <dc:creator>
     <cc:Agent>
      <dc:title>Matplotlib v3.5.0, https://matplotlib.org/</dc:title>
     </cc:Agent>
    </dc:creator>
   </cc:Work>
  </rdf:RDF>
 </metadata>
 <defs>
  <style type="text/css">*{stroke-linejoin: round; stroke-linecap: butt}</style>
 </defs>
 <g id="figure_1">
  <g id="patch_1">
   <path d="M 0 288 
L 432 288 
L 432 0 
L 0 0 
L 0 288 
z
" style="fill: none"/>
  </g>
  <g id="axes_1">
   <g id="patch_2">
    <path d="M 29.08774 88.384455 
L 428.99976 88.384455 
L 428.99976 36.212595 
L 29.08774 36.212595 
z
" style="fill: #ffffff"/>
   </g>
   <g id="patch_3">
    <path d="M 47.265559 88.384455 
L 50.901123 88.384455 
L 50.901123 58.862345 
L 47.265559 58.862345 
z
" clip-path="url(#pa041104ab1)" style="fill: #1f77b4"/>
   </g>
   <g id="patch_4">
    <path d="M 50.901123 88.384455 
L 54.536687 88.384455 
L 54.536687 58.943006 
L 50.901123 58.943006 
z
" clip-path="url(#pa041104ab1)" style="fill: #1f77b4"/>
   </g>
   <g id="patch_5">
    <path d="M 54.536687 88.384455 
L 58.172251 88.384455 
L 58.172251 54.022655 
L 54.536687 54.022655 
z
" clip-path="url(#pa041104ab1)" style="fill: #1f77b4"/>
   </g>
   <g id="patch_6">
    <path d="M 58.172251 88.384455 
L 61.807814 88.384455 
L 61.807814 57.410438 
L 58.172251 57.410438 
z
" clip-path="url(#pa041104ab1)" style="fill: #1f77b4"/>
   </g>
   <g id="patch_7">
    <path d="M 61.807814 88.384455 
L 65.443378 88.384455 
L 65.443378 53.700009 
L 61.807814 53.700009 
z
" clip-path="url(#pa041104ab1)" style="fill: #1f77b4"/>
   </g>
   <g id="patch_8">
    <path d="M 65.443378 88.384455 
L 69.078942 88.384455 
L 69.078942 52.893394 
L 65.443378 52.893394 
z
" clip-path="url(#pa041104ab1)" style="fill: #1f77b4"/>
   </g>
   <g id="patch_9">
    <path d="M 69.078942 88.384455 
L 72.714506 88.384455 
L 72.714506 57.249115 
L 69.078942 57.249115 
z
" clip-path="url(#pa041104ab1)" style="fill: #1f77b4"/>
   </g>
   <g id="patch_10">
    <path d="M 72.714506 88.384455 
L 76.35007 88.384455 
L 76.35007 52.893394 
L 72.714506 52.893394 
z
" clip-path="url(#pa041104ab1)" style="fill: #1f77b4"/>
   </g>
   <g id="patch_11">
    <path d="M 76.35007 88.384455 
L 79.985633 88.384455 
L 79.985633 52.651409 
L 76.35007 52.651409 
z
" clip-path="url(#pa041104ab1)" style="fill: #1f77b4"/>
   </g>
   <g id="patch_12">
    <path d="M 79.985633 88.384455 
L 83.621197 88.384455 
L 83.621197 52.570748 
L 79.985633 52.570748 
z
" clip-path="url(#pa041104ab1)" style="fill: #1f77b4"/>
   </g>
   <g id="patch_13">
    <path d="M 83.621197 88.384455 
L 87.256761 88.384455 
L 87.256761 52.732071 
L 83.621197 52.732071 
z
" clip-path="url(#pa041104ab1)" style="fill: #1f77b4"/>
   </g>
   <g id="patch_14">
    <path d="M 87.256761 88.384455 
L 90.892325 88.384455 
L 90.892325 50.231564 
L 87.256761 50.231564 
z
" clip-path="url(#pa041104ab1)" style="fill: #1f77b4"/>
   </g>
   <g id="patch_15">
    <path d="M 90.892325 88.384455 
L 94.527889 88.384455 
L 94.527889 50.473549 
L 90.892325 50.473549 
z
" clip-path="url(#pa041104ab1)" style="fill: #1f77b4"/>
   </g>
   <g id="patch_16">
    <path d="M 94.527889 88.384455 
L 98.163453 88.384455 
L 98.163453 53.296701 
L 94.527889 53.296701 
z
" clip-path="url(#pa041104ab1)" style="fill: #1f77b4"/>
   </g>
   <g id="patch_17">
    <path d="M 98.163453 88.384455 
L 101.799016 88.384455 
L 101.799016 49.747595 
L 98.163453 49.747595 
z
" clip-path="url(#pa041104ab1)" style="fill: #1f77b4"/>
   </g>
   <g id="patch_18">
    <path d="M 101.799016 88.384455 
L 105.43458 88.384455 
L 105.43458 49.424949 
L 101.799016 49.424949 
z
" clip-path="url(#pa041104ab1)" style="fill: #1f77b4"/>
   </g>
   <g id="patch_19">
    <path d="M 105.43458 88.384455 
L 109.070144 88.384455 
L 109.070144 47.085766 
L 105.43458 47.085766 
z
" clip-path="url(#pa041104ab1)" style="fill: #1f77b4"/>
   </g>
   <g id="patch_20">
    <path d="M 109.070144 88.384455 
L 112.705708 88.384455 
L 112.705708 47.247089 
L 109.070144 47.247089 
z
" clip-path="url(#pa041104ab1)" style="fill: #1f77b4"/>
   </g>
   <g id="patch_21">
    <path d="M 112.705708 88.384455 
L 116.341272 88.384455 
L 116.341272 46.359812 
L 112.705708 46.359812 
z
" clip-path="url(#pa041104ab1)" style="fill: #1f77b4"/>
   </g>
   <g id="patch_22">
    <path d="M 116.341272 88.384455 
L 119.976835 88.384455 
L 119.976835 45.71452 
L 116.341272 45.71452 
z
" clip-path="url(#pa041104ab1)" style="fill: #1f77b4"/>
   </g>
   <g id="patch_23">
    <path d="M 119.976835 88.384455 
L 123.612399 88.384455 
L 123.612399 42.972029 
L 119.976835 42.972029 
z
" clip-path="url(#pa041104ab1)" style="fill: #1f77b4"/>
   </g>
   <g id="patch_24">
    <path d="M 123.612399 88.384455 
L 127.247963 88.384455 
L 127.247963 47.32775 
L 123.612399 47.32775 
z
" clip-path="url(#pa041104ab1)" style="fill: #1f77b4"/>
   </g>
   <g id="patch_25">
    <path d="M 127.247963 88.384455 
L 130.883527 88.384455 
L 130.883527 45.795182 
L 127.247963 45.795182 
z
" clip-path="url(#pa041104ab1)" style="fill: #1f77b4"/>
   </g>
   <g id="patch_26">
    <path d="M 130.883527 88.384455 
L 134.519091 88.384455 
L 134.519091 43.617321 
L 130.883527 43.617321 
z
" clip-path="url(#pa041104ab1)" style="fill: #1f77b4"/>
   </g>
   <g id="patch_27">
    <path d="M 134.519091 88.384455 
L 138.154655 88.384455 
L 138.154655 47.489073 
L 134.519091 47.489073 
z
" clip-path="url(#pa041104ab1)" style="fill: #1f77b4"/>
   </g>
   <g id="patch_28">
    <path d="M 138.154655 88.384455 
L 141.790218 88.384455 
L 141.790218 46.601797 
L 138.154655 46.601797 
z
" clip-path="url(#pa041104ab1)" style="fill: #1f77b4"/>
   </g>
   <g id="patch_29">
    <path d="M 141.790218 88.384455 
L 145.425782 88.384455 
L 145.425782 46.924443 
L 141.790218 46.924443 
z
" clip-path="url(#pa041104ab1)" style="fill: #1f77b4"/>
   </g>
   <g id="patch_30">
    <path d="M 145.425782 88.384455 
L 149.061346 88.384455 
L 149.061346 42.810706 
L 145.425782 42.810706 
z
" clip-path="url(#pa041104ab1)" style="fill: #1f77b4"/>
   </g>
   <g id="patch_31">
    <path d="M 149.061346 88.384455 
L 152.69691 88.384455 
L 152.69691 44.10129 
L 149.061346 44.10129 
z
" clip-path="url(#pa041104ab1)" style="fill: #1f77b4"/>
   </g>
   <g id="patch_32">
    <path d="M 152.69691 88.384455 
L 156.332474 88.384455 
L 156.332474 42.649383 
L 152.69691 42.649383 
z
" clip-path="url(#pa041104ab1)" style="fill: #1f77b4"/>
   </g>
   <g id="patch_33">
    <path d="M 156.332474 88.384455 
L 159.968037 88.384455 
L 159.968037 40.632845 
L 156.332474 40.632845 
z
" clip-path="url(#pa041104ab1)" style="fill: #1f77b4"/>
   </g>
   <g id="patch_34">
    <path d="M 159.968037 88.384455 
L 163.603601 88.384455 
L 163.603601 43.939967 
L 159.968037 43.939967 
z
" clip-path="url(#pa041104ab1)" style="fill: #1f77b4"/>
   </g>
   <g id="patch_35">
    <path d="M 163.603601 88.384455 
L 167.239165 88.384455 
L 167.239165 40.87483 
L 163.603601 40.87483 
z
" clip-path="url(#pa041104ab1)" style="fill: #1f77b4"/>
   </g>
   <g id="patch_36">
    <path d="M 167.239165 88.384455 
L 170.874729 88.384455 
L 170.874729 39.987553 
L 167.239165 39.987553 
z
" clip-path="url(#pa041104ab1)" style="fill: #1f77b4"/>
   </g>
   <g id="patch_37">
    <path d="M 170.874729 88.384455 
L 174.510293 88.384455 
L 174.510293 41.358799 
L 170.874729 41.358799 
z
" clip-path="url(#pa041104ab1)" style="fill: #1f77b4"/>
   </g>
   <g id="patch_38">
    <path d="M 174.510293 88.384455 
L 178.145857 88.384455 
L 178.145857 44.827243 
L 174.510293 44.827243 
z
" clip-path="url(#pa041104ab1)" style="fill: #1f77b4"/>
   </g>
   <g id="patch_39">
    <path d="M 178.145857 88.384455 
L 181.78142 88.384455 
L 181.78142 44.988567 
L 178.145857 44.988567 
z
" clip-path="url(#pa041104ab1)" style="fill: #1f77b4"/>
   </g>
   <g id="patch_40">
    <path d="M 181.78142 88.384455 
L 185.416984 88.384455 
L 185.416984 40.552184 
L 181.78142 40.552184 
z
" clip-path="url(#pa041104ab1)" style="fill: #1f77b4"/>
   </g>
   <g id="patch_41">
    <path d="M 185.416984 88.384455 
L 189.052548 88.384455 
L 189.052548 40.068215 
L 185.416984 40.068215 
z
" clip-path="url(#pa041104ab1)" style="fill: #1f77b4"/>
   </g>
   <g id="patch_42">
    <path d="M 189.052548 88.384455 
L 192.688112 88.384455 
L 192.688112 41.278137 
L 189.052548 41.278137 
z
" clip-path="url(#pa041104ab1)" style="fill: #1f77b4"/>
   </g>
   <g id="patch_43">
    <path d="M 192.688112 88.384455 
L 196.323676 88.384455 
L 196.323676 39.987553 
L 192.688112 39.987553 
z
" clip-path="url(#pa041104ab1)" style="fill: #1f77b4"/>
   </g>
   <g id="patch_44">
    <path d="M 196.323676 88.384455 
L 199.959239 88.384455 
L 199.959239 43.214013 
L 196.323676 43.214013 
z
" clip-path="url(#pa041104ab1)" style="fill: #1f77b4"/>
   </g>
   <g id="patch_45">
    <path d="M 199.959239 88.384455 
L 203.594803 88.384455 
L 203.594803 39.82623 
L 199.959239 39.82623 
z
" clip-path="url(#pa041104ab1)" style="fill: #1f77b4"/>
   </g>
   <g id="patch_46">
    <path d="M 203.594803 88.384455 
L 207.230367 88.384455 
L 207.230367 42.568721 
L 203.594803 42.568721 
z
" clip-path="url(#pa041104ab1)" style="fill: #1f77b4"/>
   </g>
   <g id="patch_47">
    <path d="M 207.230367 88.384455 
L 210.865931 88.384455 
L 210.865931 39.584246 
L 207.230367 39.584246 
z
" clip-path="url(#pa041104ab1)" style="fill: #1f77b4"/>
   </g>
   <g id="patch_48">
    <path d="M 210.865931 88.384455 
L 214.501495 88.384455 
L 214.501495 41.43946 
L 210.865931 41.43946 
z
" clip-path="url(#pa041104ab1)" style="fill: #1f77b4"/>
   </g>
   <g id="patch_49">
    <path d="M 214.501495 88.384455 
L 218.137059 88.384455 
L 218.137059 40.229538 
L 214.501495 40.229538 
z
" clip-path="url(#pa041104ab1)" style="fill: #1f77b4"/>
   </g>
   <g id="patch_50">
    <path d="M 218.137059 88.384455 
L 221.772622 88.384455 
L 221.772622 41.681445 
L 218.137059 41.681445 
z
" clip-path="url(#pa041104ab1)" style="fill: #1f77b4"/>
   </g>
   <g id="patch_51">
    <path d="M 221.772622 88.384455 
L 225.408186 88.384455 
L 225.408186 41.43946 
L 221.772622 41.43946 
z
" clip-path="url(#pa041104ab1)" style="fill: #1f77b4"/>
   </g>
   <g id="patch_52">
    <path d="M 225.408186 88.384455 
L 229.04375 88.384455 
L 229.04375 42.004091 
L 225.408186 42.004091 
z
" clip-path="url(#pa041104ab1)" style="fill: #1f77b4"/>
   </g>
   <g id="patch_53">
    <path d="M 229.04375 88.384455 
L 232.679314 88.384455 
L 232.679314 40.955491 
L 229.04375 40.955491 
z
" clip-path="url(#pa041104ab1)" style="fill: #1f77b4"/>
   </g>
   <g id="patch_54">
    <path d="M 232.679314 88.384455 
L 236.314878 88.384455 
L 236.314878 41.116814 
L 232.679314 41.116814 
z
" clip-path="url(#pa041104ab1)" style="fill: #1f77b4"/>
   </g>
   <g id="patch_55">
    <path d="M 236.314878 88.384455 
L 239.950441 88.384455 
L 239.950441 40.87483 
L 236.314878 40.87483 
z
" clip-path="url(#pa041104ab1)" style="fill: #1f77b4"/>
   </g>
   <g id="patch_56">
    <path d="M 239.950441 88.384455 
L 243.586005 88.384455 
L 243.586005 44.746582 
L 239.950441 44.746582 
z
" clip-path="url(#pa041104ab1)" style="fill: #1f77b4"/>
   </g>
   <g id="patch_57">
    <path d="M 243.586005 88.384455 
L 247.221569 88.384455 
L 247.221569 41.036153 
L 243.586005 41.036153 
z
" clip-path="url(#pa041104ab1)" style="fill: #1f77b4"/>
   </g>
   <g id="patch_58">
    <path d="M 247.221569 88.384455 
L 250.857133 88.384455 
L 250.857133 39.100277 
L 247.221569 39.100277 
z
" clip-path="url(#pa041104ab1)" style="fill: #1f77b4"/>
   </g>
   <g id="patch_59">
    <path d="M 250.857133 88.384455 
L 254.492697 88.384455 
L 254.492697 39.987553 
L 250.857133 39.987553 
z
" clip-path="url(#pa041104ab1)" style="fill: #1f77b4"/>
   </g>
   <g id="patch_60">
    <path d="M 254.492697 88.384455 
L 258.128261 88.384455 
L 258.128261 45.069228 
L 254.492697 45.069228 
z
" clip-path="url(#pa041104ab1)" style="fill: #1f77b4"/>
   </g>
   <g id="patch_61">
    <path d="M 258.128261 88.384455 
L 261.763824 88.384455 
L 261.763824 38.696969 
L 258.128261 38.696969 
z
" clip-path="url(#pa041104ab1)" style="fill: #1f77b4"/>
   </g>
   <g id="patch_62">
    <path d="M 261.763824 88.384455 
L 265.399388 88.384455 
L 265.399388 42.004091 
L 261.763824 42.004091 
z
" clip-path="url(#pa041104ab1)" style="fill: #1f77b4"/>
   </g>
   <g id="patch_63">
    <path d="M 265.399388 88.384455 
L 269.034952 88.384455 
L 269.034952 42.730044 
L 265.399388 42.730044 
z
" clip-path="url(#pa041104ab1)" style="fill: #1f77b4"/>
   </g>
   <g id="patch_64">
    <path d="M 269.034952 88.384455 
L 272.670516 88.384455 
L 272.670516 45.14989 
L 269.034952 45.14989 
z
" clip-path="url(#pa041104ab1)" style="fill: #1f77b4"/>
   </g>
   <g id="patch_65">
    <path d="M 272.670516 88.384455 
L 276.30608 88.384455 
L 276.30608 45.875843 
L 272.670516 45.875843 
z
" clip-path="url(#pa041104ab1)" style="fill: #1f77b4"/>
   </g>
   <g id="patch_66">
    <path d="M 276.30608 88.384455 
L 279.941643 88.384455 
L 279.941643 44.66592 
L 276.30608 44.66592 
z
" clip-path="url(#pa041104ab1)" style="fill: #1f77b4"/>
   </g>
   <g id="patch_67">
    <path d="M 279.941643 88.384455 
L 283.577207 88.384455 
L 283.577207 40.713507 
L 279.941643 40.713507 
z
" clip-path="url(#pa041104ab1)" style="fill: #1f77b4"/>
   </g>
   <g id="patch_68">
    <path d="M 283.577207 88.384455 
L 287.212771 88.384455 
L 287.212771 45.311213 
L 283.577207 45.311213 
z
" clip-path="url(#pa041104ab1)" style="fill: #1f77b4"/>
   </g>
   <g id="patch_69">
    <path d="M 287.212771 88.384455 
L 290.848335 88.384455 
L 290.848335 43.697982 
L 287.212771 43.697982 
z
" clip-path="url(#pa041104ab1)" style="fill: #1f77b4"/>
   </g>
   <g id="patch_70">
    <path d="M 290.848335 88.384455 
L 294.483899 88.384455 
L 294.483899 46.440474 
L 290.848335 46.440474 
z
" clip-path="url(#pa041104ab1)" style="fill: #1f77b4"/>
   </g>
   <g id="patch_71">
    <path d="M 294.483899 88.384455 
L 298.119463 88.384455 
L 298.119463 45.069228 
L 294.483899 45.069228 
z
" clip-path="url(#pa041104ab1)" style="fill: #1f77b4"/>
   </g>
   <g id="patch_72">
    <path d="M 298.119463 88.384455 
L 301.755026 88.384455 
L 301.755026 43.214013 
L 298.119463 43.214013 
z
" clip-path="url(#pa041104ab1)" style="fill: #1f77b4"/>
   </g>
   <g id="patch_73">
    <path d="M 301.755026 88.384455 
L 305.39059 88.384455 
L 305.39059 46.521135 
L 301.755026 46.521135 
z
" clip-path="url(#pa041104ab1)" style="fill: #1f77b4"/>
   </g>
   <g id="patch_74">
    <path d="M 305.39059 88.384455 
L 309.026154 88.384455 
L 309.026154 46.279151 
L 305.39059 46.279151 
z
" clip-path="url(#pa041104ab1)" style="fill: #1f77b4"/>
   </g>
   <g id="patch_75">
    <path d="M 309.026154 88.384455 
L 312.661718 88.384455 
L 312.661718 47.166427 
L 309.026154 47.166427 
z
" clip-path="url(#pa041104ab1)" style="fill: #1f77b4"/>
   </g>
   <g id="patch_76">
    <path d="M 312.661718 88.384455 
L 316.297282 88.384455 
L 316.297282 48.618334 
L 312.661718 48.618334 
z
" clip-path="url(#pa041104ab1)" style="fill: #1f77b4"/>
   </g>
   <g id="patch_77">
    <path d="M 316.297282 88.384455 
L 319.932845 88.384455 
L 319.932845 47.32775 
L 316.297282 47.32775 
z
" clip-path="url(#pa041104ab1)" style="fill: #1f77b4"/>
   </g>
   <g id="patch_78">
    <path d="M 319.932845 88.384455 
L 323.568409 88.384455 
L 323.568409 47.166427 
L 319.932845 47.166427 
z
" clip-path="url(#pa041104ab1)" style="fill: #1f77b4"/>
   </g>
   <g id="patch_79">
    <path d="M 323.568409 88.384455 
L 327.203973 88.384455 
L 327.203973 45.14989 
L 323.568409 45.14989 
z
" clip-path="url(#pa041104ab1)" style="fill: #1f77b4"/>
   </g>
   <g id="patch_80">
    <path d="M 327.203973 88.384455 
L 330.839537 88.384455 
L 330.839537 48.860319 
L 327.203973 48.860319 
z
" clip-path="url(#pa041104ab1)" style="fill: #1f77b4"/>
   </g>
   <g id="patch_81">
    <path d="M 330.839537 88.384455 
L 334.475101 88.384455 
L 334.475101 46.601797 
L 330.839537 46.601797 
z
" clip-path="url(#pa041104ab1)" style="fill: #1f77b4"/>
   </g>
   <g id="patch_82">
    <path d="M 334.475101 88.384455 
L 338.110665 88.384455 
L 338.110665 51.038179 
L 334.475101 51.038179 
z
" clip-path="url(#pa041104ab1)" style="fill: #1f77b4"/>
   </g>
   <g id="patch_83">
    <path d="M 338.110665 88.384455 
L 341.746228 88.384455 
L 341.746228 49.182965 
L 338.110665 49.182965 
z
" clip-path="url(#pa041104ab1)" style="fill: #1f77b4"/>
   </g>
   <g id="patch_84">
    <path d="M 341.746228 88.384455 
L 345.381792 88.384455 
L 345.381792 51.441487 
L 341.746228 51.441487 
z
" clip-path="url(#pa041104ab1)" style="fill: #1f77b4"/>
   </g>
   <g id="patch_85">
    <path d="M 345.381792 88.384455 
L 349.017356 88.384455 
L 349.017356 52.248102 
L 345.381792 52.248102 
z
" clip-path="url(#pa041104ab1)" style="fill: #1f77b4"/>
   </g>
   <g id="patch_86">
    <path d="M 349.017356 88.384455 
L 352.65292 88.384455 
L 352.65292 49.666934 
L 349.017356 49.666934 
z
" clip-path="url(#pa041104ab1)" style="fill: #1f77b4"/>
   </g>
   <g id="patch_87">
    <path d="M 352.65292 88.384455 
L 356.288484 88.384455 
L 356.288484 52.248102 
L 352.65292 52.248102 
z
" clip-path="url(#pa041104ab1)" style="fill: #1f77b4"/>
   </g>
   <g id="patch_88">
    <path d="M 356.288484 88.384455 
L 359.924047 88.384455 
L 359.924047 53.296701 
L 356.288484 53.296701 
z
" clip-path="url(#pa041104ab1)" style="fill: #1f77b4"/>
   </g>
   <g id="patch_89">
    <path d="M 359.924047 88.384455 
L 363.559611 88.384455 
L 363.559611 54.264639 
L 359.924047 54.264639 
z
" clip-path="url(#pa041104ab1)" style="fill: #1f77b4"/>
   </g>
   <g id="patch_90">
    <path d="M 363.559611 88.384455 
L 367.195175 88.384455 
L 367.195175 50.312226 
L 363.559611 50.312226 
z
" clip-path="url(#pa041104ab1)" style="fill: #1f77b4"/>
   </g>
   <g id="patch_91">
    <path d="M 367.195175 88.384455 
L 370.830739 88.384455 
L 370.830739 56.684484 
L 367.195175 56.684484 
z
" clip-path="url(#pa041104ab1)" style="fill: #1f77b4"/>
   </g>
   <g id="patch_92">
    <path d="M 370.830739 88.384455 
L 374.466303 88.384455 
L 374.466303 53.21604 
L 370.830739 53.21604 
z
" clip-path="url(#pa041104ab1)" style="fill: #1f77b4"/>
   </g>
   <g id="patch_93">
    <path d="M 374.466303 88.384455 
L 378.101867 88.384455 
L 378.101867 55.232577 
L 374.466303 55.232577 
z
" clip-path="url(#pa041104ab1)" style="fill: #1f77b4"/>
   </g>
   <g id="patch_94">
    <path d="M 378.101867 88.384455 
L 381.73743 88.384455 
L 381.73743 52.248102 
L 378.101867 52.248102 
z
" clip-path="url(#pa041104ab1)" style="fill: #1f77b4"/>
   </g>
   <g id="patch_95">
    <path d="M 381.73743 88.384455 
L 385.372994 88.384455 
L 385.372994 55.716546 
L 381.73743 55.716546 
z
" clip-path="url(#pa041104ab1)" style="fill: #1f77b4"/>
   </g>
   <g id="patch_96">
    <path d="M 385.372994 88.384455 
L 389.008558 88.384455 
L 389.008558 59.426976 
L 385.372994 59.426976 
z
" clip-path="url(#pa041104ab1)" style="fill: #1f77b4"/>
   </g>
   <g id="patch_97">
    <path d="M 389.008558 88.384455 
L 392.644122 88.384455 
L 392.644122 59.507637 
L 389.008558 59.507637 
z
" clip-path="url(#pa041104ab1)" style="fill: #1f77b4"/>
   </g>
   <g id="patch_98">
    <path d="M 392.644122 88.384455 
L 396.279686 88.384455 
L 396.279686 61.201529 
L 392.644122 61.201529 
z
" clip-path="url(#pa041104ab1)" style="fill: #1f77b4"/>
   </g>
   <g id="patch_99">
    <path d="M 396.279686 88.384455 
L 399.915249 88.384455 
L 399.915249 58.459037 
L 396.279686 58.459037 
z
" clip-path="url(#pa041104ab1)" style="fill: #1f77b4"/>
   </g>
   <g id="patch_100">
    <path d="M 399.915249 88.384455 
L 403.550813 88.384455 
L 403.550813 59.830283 
L 399.915249 59.830283 
z
" clip-path="url(#pa041104ab1)" style="fill: #1f77b4"/>
   </g>
   <g id="patch_101">
    <path d="M 403.550813 88.384455 
L 407.186377 88.384455 
L 407.186377 64.266666 
L 403.550813 64.266666 
z
" clip-path="url(#pa041104ab1)" style="fill: #1f77b4"/>
   </g>
   <g id="patch_102">
    <path d="M 407.186377 88.384455 
L 410.821941 88.384455 
L 410.821941 62.33079 
L 407.186377 62.33079 
z
" clip-path="url(#pa041104ab1)" style="fill: #1f77b4"/>
   </g>
   <g id="matplotlib.axis_1">
    <g id="xtick_1">
     <g id="line2d_1">
      <defs>
       <path id="me9de05713b" d="M 0 0 
L 0 3.5 
" style="stroke: #000000; stroke-width: 0.8"/>
      </defs>
      <g>
       <use xlink:href="#me9de05713b" x="47.264583" y="88.384455" style="stroke: #000000; stroke-width: 0.8"/>
      </g>
     </g>
     <g id="text_1">
      <!-- −10000 -->
      <g transform="translate(27.168489 102.982892)scale(0.1 -0.1)">
       <defs>
        <path id="DejaVuSans-2212" d="M 678 2272 
L 4684 2272 
L 4684 1741 
L 678 1741 
L 678 2272 
z
" transform="scale(0.015625)"/>
        <path id="DejaVuSans-31" d="M 794 531 
L 1825 531 
L 1825 4091 
L 703 3866 
L 703 4441 
L 1819 4666 
L 2450 4666 
L 2450 531 
L 3481 531 
L 3481 0 
L 794 0 
L 794 531 
z
" transform="scale(0.015625)"/>
        <path id="DejaVuSans-30" d="M 2034 4250 
Q 1547 4250 1301 3770 
Q 1056 3291 1056 2328 
Q 1056 1369 1301 889 
Q 1547 409 2034 409 
Q 2525 409 2770 889 
Q 3016 1369 3016 2328 
Q 3016 3291 2770 3770 
Q 2525 4250 2034 4250 
z
M 2034 4750 
Q 2819 4750 3233 4129 
Q 3647 3509 3647 2328 
Q 3647 1150 3233 529 
Q 2819 -91 2034 -91 
Q 1250 -91 836 529 
Q 422 1150 422 2328 
Q 422 3509 836 4129 
Q 1250 4750 2034 4750 
z
" transform="scale(0.015625)"/>
       </defs>
       <use xlink:href="#DejaVuSans-2212"/>
       <use xlink:href="#DejaVuSans-31" x="83.789062"/>
       <use xlink:href="#DejaVuSans-30" x="147.412109"/>
       <use xlink:href="#DejaVuSans-30" x="211.035156"/>
       <use xlink:href="#DejaVuSans-30" x="274.658203"/>
       <use xlink:href="#DejaVuSans-30" x="338.28125"/>
      </g>
     </g>
    </g>
    <g id="xtick_2">
     <g id="line2d_2">
      <g>
       <use xlink:href="#me9de05713b" x="92.712923" y="88.384455" style="stroke: #000000; stroke-width: 0.8"/>
      </g>
     </g>
     <g id="text_2">
      <!-- −7500 -->
      <g transform="translate(75.79808 102.982892)scale(0.1 -0.1)">
       <defs>
        <path id="DejaVuSans-37" d="M 525 4666 
L 3525 4666 
L 3525 4397 
L 1831 0 
L 1172 0 
L 2766 4134 
L 525 4134 
L 525 4666 
z
" transform="scale(0.015625)"/>
        <path id="DejaVuSans-35" d="M 691 4666 
L 3169 4666 
L 3169 4134 
L 1269 4134 
L 1269 2991 
Q 1406 3038 1543 3061 
Q 1681 3084 1819 3084 
Q 2600 3084 3056 2656 
Q 3513 2228 3513 1497 
Q 3513 744 3044 326 
Q 2575 -91 1722 -91 
Q 1428 -91 1123 -41 
Q 819 9 494 109 
L 494 744 
Q 775 591 1075 516 
Q 1375 441 1709 441 
Q 2250 441 2565 725 
Q 2881 1009 2881 1497 
Q 2881 1984 2565 2268 
Q 2250 2553 1709 2553 
Q 1456 2553 1204 2497 
Q 953 2441 691 2322 
L 691 4666 
z
" transform="scale(0.015625)"/>
       </defs>
       <use xlink:href="#DejaVuSans-2212"/>
       <use xlink:href="#DejaVuSans-37" x="83.789062"/>
       <use xlink:href="#DejaVuSans-35" x="147.412109"/>
       <use xlink:href="#DejaVuSans-30" x="211.035156"/>
       <use xlink:href="#DejaVuSans-30" x="274.658203"/>
      </g>
     </g>
    </g>
    <g id="xtick_3">
     <g id="line2d_3">
      <g>
       <use xlink:href="#me9de05713b" x="138.161264" y="88.384455" style="stroke: #000000; stroke-width: 0.8"/>
      </g>
     </g>
     <g id="text_3">
      <!-- −5000 -->
      <g transform="translate(121.24642 102.982892)scale(0.1 -0.1)">
       <use xlink:href="#DejaVuSans-2212"/>
       <use xlink:href="#DejaVuSans-35" x="83.789062"/>
       <use xlink:href="#DejaVuSans-30" x="147.412109"/>
       <use xlink:href="#DejaVuSans-30" x="211.035156"/>
       <use xlink:href="#DejaVuSans-30" x="274.658203"/>
      </g>
     </g>
    </g>
    <g id="xtick_4">
     <g id="line2d_4">
      <g>
       <use xlink:href="#me9de05713b" x="183.609604" y="88.384455" style="stroke: #000000; stroke-width: 0.8"/>
      </g>
     </g>
     <g id="text_4">
      <!-- −2500 -->
      <g transform="translate(166.69476 102.982892)scale(0.1 -0.1)">
       <defs>
        <path id="DejaVuSans-32" d="M 1228 531 
L 3431 531 
L 3431 0 
L 469 0 
L 469 531 
Q 828 903 1448 1529 
Q 2069 2156 2228 2338 
Q 2531 2678 2651 2914 
Q 2772 3150 2772 3378 
Q 2772 3750 2511 3984 
Q 2250 4219 1831 4219 
Q 1534 4219 1204 4116 
Q 875 4013 500 3803 
L 500 4441 
Q 881 4594 1212 4672 
Q 1544 4750 1819 4750 
Q 2544 4750 2975 4387 
Q 3406 4025 3406 3419 
Q 3406 3131 3298 2873 
Q 3191 2616 2906 2266 
Q 2828 2175 2409 1742 
Q 1991 1309 1228 531 
z
" transform="scale(0.015625)"/>
       </defs>
       <use xlink:href="#DejaVuSans-2212"/>
       <use xlink:href="#DejaVuSans-32" x="83.789062"/>
       <use xlink:href="#DejaVuSans-35" x="147.412109"/>
       <use xlink:href="#DejaVuSans-30" x="211.035156"/>
       <use xlink:href="#DejaVuSans-30" x="274.658203"/>
      </g>
     </g>
    </g>
    <g id="xtick_5">
     <g id="line2d_5">
      <g>
       <use xlink:href="#me9de05713b" x="229.057944" y="88.384455" style="stroke: #000000; stroke-width: 0.8"/>
      </g>
     </g>
     <g id="text_5">
      <!-- 0 -->
      <g transform="translate(225.876694 102.982892)scale(0.1 -0.1)">
       <use xlink:href="#DejaVuSans-30"/>
      </g>
     </g>
    </g>
    <g id="xtick_6">
     <g id="line2d_6">
      <g>
       <use xlink:href="#me9de05713b" x="274.506285" y="88.384455" style="stroke: #000000; stroke-width: 0.8"/>
      </g>
     </g>
     <g id="text_6">
      <!-- 2500 -->
      <g transform="translate(261.781285 102.982892)scale(0.1 -0.1)">
       <use xlink:href="#DejaVuSans-32"/>
       <use xlink:href="#DejaVuSans-35" x="63.623047"/>
       <use xlink:href="#DejaVuSans-30" x="127.246094"/>
       <use xlink:href="#DejaVuSans-30" x="190.869141"/>
      </g>
     </g>
    </g>
    <g id="xtick_7">
     <g id="line2d_7">
      <g>
       <use xlink:href="#me9de05713b" x="319.954625" y="88.384455" style="stroke: #000000; stroke-width: 0.8"/>
      </g>
     </g>
     <g id="text_7">
      <!-- 5000 -->
      <g transform="translate(307.229625 102.982892)scale(0.1 -0.1)">
       <use xlink:href="#DejaVuSans-35"/>
       <use xlink:href="#DejaVuSans-30" x="63.623047"/>
       <use xlink:href="#DejaVuSans-30" x="127.246094"/>
       <use xlink:href="#DejaVuSans-30" x="190.869141"/>
      </g>
     </g>
    </g>
    <g id="xtick_8">
     <g id="line2d_8">
      <g>
       <use xlink:href="#me9de05713b" x="365.402965" y="88.384455" style="stroke: #000000; stroke-width: 0.8"/>
      </g>
     </g>
     <g id="text_8">
      <!-- 7500 -->
      <g transform="translate(352.677965 102.982892)scale(0.1 -0.1)">
       <use xlink:href="#DejaVuSans-37"/>
       <use xlink:href="#DejaVuSans-35" x="63.623047"/>
       <use xlink:href="#DejaVuSans-30" x="127.246094"/>
       <use xlink:href="#DejaVuSans-30" x="190.869141"/>
      </g>
     </g>
    </g>
    <g id="xtick_9">
     <g id="line2d_9">
      <g>
       <use xlink:href="#me9de05713b" x="410.851306" y="88.384455" style="stroke: #000000; stroke-width: 0.8"/>
      </g>
     </g>
     <g id="text_9">
      <!-- 10000 -->
      <g transform="translate(394.945056 102.982892)scale(0.1 -0.1)">
       <use xlink:href="#DejaVuSans-31"/>
       <use xlink:href="#DejaVuSans-30" x="63.623047"/>
       <use xlink:href="#DejaVuSans-30" x="127.246094"/>
       <use xlink:href="#DejaVuSans-30" x="190.869141"/>
       <use xlink:href="#DejaVuSans-30" x="254.492188"/>
      </g>
     </g>
    </g>
   </g>
   <g id="matplotlib.axis_2">
    <g id="ytick_1">
     <g id="line2d_10">
      <defs>
       <path id="m23b0bcdb14" d="M 0 0 
L -3.5 0 
" style="stroke: #000000; stroke-width: 0.8"/>
      </defs>
      <g>
       <use xlink:href="#m23b0bcdb14" x="29.08774" y="88.384455" style="stroke: #000000; stroke-width: 0.8"/>
      </g>
     </g>
     <g id="text_10">
      <!-- 0 -->
      <g transform="translate(15.72524 92.183674)scale(0.1 -0.1)">
       <use xlink:href="#DejaVuSans-30"/>
      </g>
     </g>
    </g>
    <g id="ytick_2">
     <g id="line2d_11">
      <g>
       <use xlink:href="#m23b0bcdb14" x="29.08774" y="48.053704" style="stroke: #000000; stroke-width: 0.8"/>
      </g>
     </g>
     <g id="text_11">
      <!-- 500 -->
      <g transform="translate(3.00024 51.852922)scale(0.1 -0.1)">
       <use xlink:href="#DejaVuSans-35"/>
       <use xlink:href="#DejaVuSans-30" x="63.623047"/>
       <use xlink:href="#DejaVuSans-30" x="127.246094"/>
      </g>
     </g>
    </g>
   </g>
   <g id="patch_103">
    <path d="M 29.08774 88.384455 
L 29.08774 36.212595 
" style="fill: none; stroke: #000000; stroke-width: 0.8; stroke-linejoin: miter; stroke-linecap: square"/>
   </g>
   <g id="patch_104">
    <path d="M 428.99976 88.384455 
L 428.99976 36.212595 
" style="fill: none; stroke: #000000; stroke-width: 0.8; stroke-linejoin: miter; stroke-linecap: square"/>
   </g>
   <g id="patch_105">
    <path d="M 29.08774 88.384455 
L 428.99976 88.384455 
" style="fill: none; stroke: #000000; stroke-width: 0.8; stroke-linejoin: miter; stroke-linecap: square"/>
   </g>
   <g id="patch_106">
    <path d="M 29.08774 36.212595 
L 428.99976 36.212595 
" style="fill: none; stroke: #000000; stroke-width: 0.8; stroke-linejoin: miter; stroke-linecap: square"/>
   </g>
   <g id="text_12">
    <!-- $A_t$ -->
    <g transform="translate(223.10375 30.212595)scale(0.12 -0.12)">
     <defs>
      <path id="DejaVuSans-Oblique-41" d="M 2356 4666 
L 3072 4666 
L 3938 0 
L 3278 0 
L 3084 1197 
L 984 1197 
L 325 0 
L -341 0 
L 2356 4666 
z
M 2584 4044 
L 1275 1722 
L 2988 1722 
L 2584 4044 
z
" transform="scale(0.015625)"/>
      <path id="DejaVuSans-Oblique-74" d="M 2706 3500 
L 2619 3053 
L 1472 3053 
L 1100 1153 
Q 1081 1047 1072 975 
Q 1063 903 1063 863 
Q 1063 663 1183 572 
Q 1303 481 1569 481 
L 2150 481 
L 2053 0 
L 1503 0 
Q 991 0 739 200 
Q 488 400 488 806 
Q 488 878 497 964 
Q 506 1050 525 1153 
L 897 3053 
L 409 3053 
L 500 3500 
L 978 3500 
L 1172 4494 
L 1747 4494 
L 1556 3500 
L 2706 3500 
z
" transform="scale(0.015625)"/>
     </defs>
     <use xlink:href="#DejaVuSans-Oblique-41" transform="translate(0 0.09375)"/>
     <use xlink:href="#DejaVuSans-Oblique-74" transform="translate(68.408203 -16.3125)scale(0.7)"/>
    </g>
   </g>
  </g>
  <g id="axes_2">
   <g id="patch_107">
    <path d="M 29.08774 178.353045 
L 428.99976 178.353045 
L 428.99976 126.181185 
L 29.08774 126.181185 
z
" style="fill: #ffffff"/>
   </g>
   <g id="patch_108">
    <path d="M 47.265559 178.353045 
L 50.901123 178.353045 
L 50.901123 140.280816 
L 47.265559 140.280816 
z
" clip-path="url(#p1d4bf69560)" style="fill: #1f77b4"/>
   </g>
   <g id="patch_109">
    <path d="M 50.901123 178.353045 
L 54.536687 178.353045 
L 54.536687 140.038831 
L 50.901123 140.038831 
z
" clip-path="url(#p1d4bf69560)" style="fill: #1f77b4"/>
   </g>
   <g id="patch_110">
    <path d="M 54.536687 178.353045 
L 58.172251 178.353045 
L 58.172251 140.603462 
L 54.536687 140.603462 
z
" clip-path="url(#p1d4bf69560)" style="fill: #1f77b4"/>
   </g>
   <g id="patch_111">
    <path d="M 58.172251 178.353045 
L 61.807814 178.353045 
L 61.807814 141.006769 
L 58.172251 141.006769 
z
" clip-path="url(#p1d4bf69560)" style="fill: #1f77b4"/>
   </g>
   <g id="patch_112">
    <path d="M 61.807814 178.353045 
L 65.443378 178.353045 
L 65.443378 139.232216 
L 61.807814 139.232216 
z
" clip-path="url(#p1d4bf69560)" style="fill: #1f77b4"/>
   </g>
   <g id="patch_113">
    <path d="M 65.443378 178.353045 
L 69.078942 178.353045 
L 69.078942 141.087431 
L 65.443378 141.087431 
z
" clip-path="url(#p1d4bf69560)" style="fill: #1f77b4"/>
   </g>
   <g id="patch_114">
    <path d="M 69.078942 178.353045 
L 72.714506 178.353045 
L 72.714506 139.232216 
L 69.078942 139.232216 
z
" clip-path="url(#p1d4bf69560)" style="fill: #1f77b4"/>
   </g>
   <g id="patch_115">
    <path d="M 72.714506 178.353045 
L 76.35007 178.353045 
L 76.35007 142.458676 
L 72.714506 142.458676 
z
" clip-path="url(#p1d4bf69560)" style="fill: #1f77b4"/>
   </g>
   <g id="patch_116">
    <path d="M 76.35007 178.353045 
L 79.985633 178.353045 
L 79.985633 140.684123 
L 76.35007 140.684123 
z
" clip-path="url(#p1d4bf69560)" style="fill: #1f77b4"/>
   </g>
   <g id="patch_117">
    <path d="M 79.985633 178.353045 
L 83.621197 178.353045 
L 83.621197 140.926108 
L 79.985633 140.926108 
z
" clip-path="url(#p1d4bf69560)" style="fill: #1f77b4"/>
   </g>
   <g id="patch_118">
    <path d="M 83.621197 178.353045 
L 87.256761 178.353045 
L 87.256761 139.232216 
L 83.621197 139.232216 
z
" clip-path="url(#p1d4bf69560)" style="fill: #1f77b4"/>
   </g>
   <g id="patch_119">
    <path d="M 87.256761 178.353045 
L 90.892325 178.353045 
L 90.892325 138.586924 
L 87.256761 138.586924 
z
" clip-path="url(#p1d4bf69560)" style="fill: #1f77b4"/>
   </g>
   <g id="patch_120">
    <path d="M 90.892325 178.353045 
L 94.527889 178.353045 
L 94.527889 139.151555 
L 90.892325 139.151555 
z
" clip-path="url(#p1d4bf69560)" style="fill: #1f77b4"/>
   </g>
   <g id="patch_121">
    <path d="M 94.527889 178.353045 
L 98.163453 178.353045 
L 98.163453 141.329415 
L 94.527889 141.329415 
z
" clip-path="url(#p1d4bf69560)" style="fill: #1f77b4"/>
   </g>
   <g id="patch_122">
    <path d="M 98.163453 178.353045 
L 101.799016 178.353045 
L 101.799016 141.974707 
L 98.163453 141.974707 
z
" clip-path="url(#p1d4bf69560)" style="fill: #1f77b4"/>
   </g>
   <g id="patch_123">
    <path d="M 101.799016 178.353045 
L 105.43458 178.353045 
L 105.43458 135.925095 
L 101.799016 135.925095 
z
" clip-path="url(#p1d4bf69560)" style="fill: #1f77b4"/>
   </g>
   <g id="patch_124">
    <path d="M 105.43458 178.353045 
L 109.070144 178.353045 
L 109.070144 138.183617 
L 105.43458 138.183617 
z
" clip-path="url(#p1d4bf69560)" style="fill: #1f77b4"/>
   </g>
   <g id="patch_125">
    <path d="M 109.070144 178.353045 
L 112.705708 178.353045 
L 112.705708 139.796847 
L 109.070144 139.796847 
z
" clip-path="url(#p1d4bf69560)" style="fill: #1f77b4"/>
   </g>
   <g id="patch_126">
    <path d="M 112.705708 178.353045 
L 116.341272 178.353045 
L 116.341272 134.553849 
L 112.705708 134.553849 
z
" clip-path="url(#p1d4bf69560)" style="fill: #1f77b4"/>
   </g>
   <g id="patch_127">
    <path d="M 116.341272 178.353045 
L 119.976835 178.353045 
L 119.976835 137.780309 
L 116.341272 137.780309 
z
" clip-path="url(#p1d4bf69560)" style="fill: #1f77b4"/>
   </g>
   <g id="patch_128">
    <path d="M 119.976835 178.353045 
L 123.612399 178.353045 
L 123.612399 138.183617 
L 119.976835 138.183617 
z
" clip-path="url(#p1d4bf69560)" style="fill: #1f77b4"/>
   </g>
   <g id="patch_129">
    <path d="M 123.612399 178.353045 
L 127.247963 178.353045 
L 127.247963 140.764785 
L 123.612399 140.764785 
z
" clip-path="url(#p1d4bf69560)" style="fill: #1f77b4"/>
   </g>
   <g id="patch_130">
    <path d="M 127.247963 178.353045 
L 130.883527 178.353045 
L 130.883527 141.490738 
L 127.247963 141.490738 
z
" clip-path="url(#p1d4bf69560)" style="fill: #1f77b4"/>
   </g>
   <g id="patch_131">
    <path d="M 130.883527 178.353045 
L 134.519091 178.353045 
L 134.519091 135.602449 
L 130.883527 135.602449 
z
" clip-path="url(#p1d4bf69560)" style="fill: #1f77b4"/>
   </g>
   <g id="patch_132">
    <path d="M 134.519091 178.353045 
L 138.154655 178.353045 
L 138.154655 137.618986 
L 134.519091 137.618986 
z
" clip-path="url(#p1d4bf69560)" style="fill: #1f77b4"/>
   </g>
   <g id="patch_133">
    <path d="M 138.154655 178.353045 
L 141.790218 178.353045 
L 141.790218 132.053342 
L 138.154655 132.053342 
z
" clip-path="url(#p1d4bf69560)" style="fill: #1f77b4"/>
   </g>
   <g id="patch_134">
    <path d="M 141.790218 178.353045 
L 145.425782 178.353045 
L 145.425782 137.780309 
L 141.790218 137.780309 
z
" clip-path="url(#p1d4bf69560)" style="fill: #1f77b4"/>
   </g>
   <g id="patch_135">
    <path d="M 145.425782 178.353045 
L 149.061346 178.353045 
L 149.061346 137.457663 
L 145.425782 137.457663 
z
" clip-path="url(#p1d4bf69560)" style="fill: #1f77b4"/>
   </g>
   <g id="patch_136">
    <path d="M 149.061346 178.353045 
L 152.69691 178.353045 
L 152.69691 138.90957 
L 149.061346 138.90957 
z
" clip-path="url(#p1d4bf69560)" style="fill: #1f77b4"/>
   </g>
   <g id="patch_137">
    <path d="M 152.69691 178.353045 
L 156.332474 178.353045 
L 156.332474 136.73171 
L 152.69691 136.73171 
z
" clip-path="url(#p1d4bf69560)" style="fill: #1f77b4"/>
   </g>
   <g id="patch_138">
    <path d="M 156.332474 178.353045 
L 159.968037 178.353045 
L 159.968037 135.037818 
L 156.332474 135.037818 
z
" clip-path="url(#p1d4bf69560)" style="fill: #1f77b4"/>
   </g>
   <g id="patch_139">
    <path d="M 159.968037 178.353045 
L 163.603601 178.353045 
L 163.603601 134.06988 
L 159.968037 134.06988 
z
" clip-path="url(#p1d4bf69560)" style="fill: #1f77b4"/>
   </g>
   <g id="patch_140">
    <path d="M 163.603601 178.353045 
L 167.239165 178.353045 
L 167.239165 136.247741 
L 163.603601 136.247741 
z
" clip-path="url(#p1d4bf69560)" style="fill: #1f77b4"/>
   </g>
   <g id="patch_141">
    <path d="M 167.239165 178.353045 
L 170.874729 178.353045 
L 170.874729 137.860971 
L 167.239165 137.860971 
z
" clip-path="url(#p1d4bf69560)" style="fill: #1f77b4"/>
   </g>
   <g id="patch_142">
    <path d="M 170.874729 178.353045 
L 174.510293 178.353045 
L 174.510293 132.295327 
L 170.874729 132.295327 
z
" clip-path="url(#p1d4bf69560)" style="fill: #1f77b4"/>
   </g>
   <g id="patch_143">
    <path d="M 174.510293 178.353045 
L 178.145857 178.353045 
L 178.145857 137.054356 
L 174.510293 137.054356 
z
" clip-path="url(#p1d4bf69560)" style="fill: #1f77b4"/>
   </g>
   <g id="patch_144">
    <path d="M 178.145857 178.353045 
L 181.78142 178.353045 
L 181.78142 133.827895 
L 178.145857 133.827895 
z
" clip-path="url(#p1d4bf69560)" style="fill: #1f77b4"/>
   </g>
   <g id="patch_145">
    <path d="M 181.78142 178.353045 
L 185.416984 178.353045 
L 185.416984 135.199141 
L 181.78142 135.199141 
z
" clip-path="url(#p1d4bf69560)" style="fill: #1f77b4"/>
   </g>
   <g id="patch_146">
    <path d="M 185.416984 178.353045 
L 189.052548 178.353045 
L 189.052548 133.747234 
L 185.416984 133.747234 
z
" clip-path="url(#p1d4bf69560)" style="fill: #1f77b4"/>
   </g>
   <g id="patch_147">
    <path d="M 189.052548 178.353045 
L 192.688112 178.353045 
L 192.688112 138.264278 
L 189.052548 138.264278 
z
" clip-path="url(#p1d4bf69560)" style="fill: #1f77b4"/>
   </g>
   <g id="patch_148">
    <path d="M 192.688112 178.353045 
L 196.323676 178.353045 
L 196.323676 139.151555 
L 192.688112 139.151555 
z
" clip-path="url(#p1d4bf69560)" style="fill: #1f77b4"/>
   </g>
   <g id="patch_149">
    <path d="M 196.323676 178.353045 
L 199.959239 178.353045 
L 199.959239 137.780309 
L 196.323676 137.780309 
z
" clip-path="url(#p1d4bf69560)" style="fill: #1f77b4"/>
   </g>
   <g id="patch_150">
    <path d="M 199.959239 178.353045 
L 203.594803 178.353045 
L 203.594803 134.392526 
L 199.959239 134.392526 
z
" clip-path="url(#p1d4bf69560)" style="fill: #1f77b4"/>
   </g>
   <g id="patch_151">
    <path d="M 203.594803 178.353045 
L 207.230367 178.353045 
L 207.230367 134.795833 
L 203.594803 134.795833 
z
" clip-path="url(#p1d4bf69560)" style="fill: #1f77b4"/>
   </g>
   <g id="patch_152">
    <path d="M 207.230367 178.353045 
L 210.865931 178.353045 
L 210.865931 135.763772 
L 207.230367 135.763772 
z
" clip-path="url(#p1d4bf69560)" style="fill: #1f77b4"/>
   </g>
   <g id="patch_153">
    <path d="M 210.865931 178.353045 
L 214.501495 178.353045 
L 214.501495 134.63451 
L 210.865931 134.63451 
z
" clip-path="url(#p1d4bf69560)" style="fill: #1f77b4"/>
   </g>
   <g id="patch_154">
    <path d="M 214.501495 178.353045 
L 218.137059 178.353045 
L 218.137059 133.908557 
L 214.501495 133.908557 
z
" clip-path="url(#p1d4bf69560)" style="fill: #1f77b4"/>
   </g>
   <g id="patch_155">
    <path d="M 218.137059 178.353045 
L 221.772622 178.353045 
L 221.772622 134.150541 
L 218.137059 134.150541 
z
" clip-path="url(#p1d4bf69560)" style="fill: #1f77b4"/>
   </g>
   <g id="patch_156">
    <path d="M 221.772622 178.353045 
L 225.408186 178.353045 
L 225.408186 132.698634 
L 221.772622 132.698634 
z
" clip-path="url(#p1d4bf69560)" style="fill: #1f77b4"/>
   </g>
   <g id="patch_157">
    <path d="M 225.408186 178.353045 
L 229.04375 178.353045 
L 229.04375 136.651048 
L 225.408186 136.651048 
z
" clip-path="url(#p1d4bf69560)" style="fill: #1f77b4"/>
   </g>
   <g id="patch_158">
    <path d="M 229.04375 178.353045 
L 232.679314 178.353045 
L 232.679314 134.473187 
L 229.04375 134.473187 
z
" clip-path="url(#p1d4bf69560)" style="fill: #1f77b4"/>
   </g>
   <g id="patch_159">
    <path d="M 232.679314 178.353045 
L 236.314878 178.353045 
L 236.314878 140.684123 
L 232.679314 140.684123 
z
" clip-path="url(#p1d4bf69560)" style="fill: #1f77b4"/>
   </g>
   <g id="patch_160">
    <path d="M 236.314878 178.353045 
L 239.950441 178.353045 
L 239.950441 135.11848 
L 236.314878 135.11848 
z
" clip-path="url(#p1d4bf69560)" style="fill: #1f77b4"/>
   </g>
   <g id="patch_161">
    <path d="M 239.950441 178.353045 
L 243.586005 178.353045 
L 243.586005 134.63451 
L 239.950441 134.63451 
z
" clip-path="url(#p1d4bf69560)" style="fill: #1f77b4"/>
   </g>
   <g id="patch_162">
    <path d="M 243.586005 178.353045 
L 247.221569 178.353045 
L 247.221569 134.311864 
L 243.586005 134.311864 
z
" clip-path="url(#p1d4bf69560)" style="fill: #1f77b4"/>
   </g>
   <g id="patch_163">
    <path d="M 247.221569 178.353045 
L 250.857133 178.353045 
L 250.857133 136.247741 
L 247.221569 136.247741 
z
" clip-path="url(#p1d4bf69560)" style="fill: #1f77b4"/>
   </g>
   <g id="patch_164">
    <path d="M 250.857133 178.353045 
L 254.492697 178.353045 
L 254.492697 134.150541 
L 250.857133 134.150541 
z
" clip-path="url(#p1d4bf69560)" style="fill: #1f77b4"/>
   </g>
   <g id="patch_165">
    <path d="M 254.492697 178.353045 
L 258.128261 178.353045 
L 258.128261 136.73171 
L 254.492697 136.73171 
z
" clip-path="url(#p1d4bf69560)" style="fill: #1f77b4"/>
   </g>
   <g id="patch_166">
    <path d="M 258.128261 178.353045 
L 261.763824 178.353045 
L 261.763824 134.311864 
L 258.128261 134.311864 
z
" clip-path="url(#p1d4bf69560)" style="fill: #1f77b4"/>
   </g>
   <g id="patch_167">
    <path d="M 261.763824 178.353045 
L 265.399388 178.353045 
L 265.399388 135.360464 
L 261.763824 135.360464 
z
" clip-path="url(#p1d4bf69560)" style="fill: #1f77b4"/>
   </g>
   <g id="patch_168">
    <path d="M 265.399388 178.353045 
L 269.034952 178.353045 
L 269.034952 134.553849 
L 265.399388 134.553849 
z
" clip-path="url(#p1d4bf69560)" style="fill: #1f77b4"/>
   </g>
   <g id="patch_169">
    <path d="M 269.034952 178.353045 
L 272.670516 178.353045 
L 272.670516 133.343926 
L 269.034952 133.343926 
z
" clip-path="url(#p1d4bf69560)" style="fill: #1f77b4"/>
   </g>
   <g id="patch_170">
    <path d="M 272.670516 178.353045 
L 276.30608 178.353045 
L 276.30608 136.973694 
L 272.670516 136.973694 
z
" clip-path="url(#p1d4bf69560)" style="fill: #1f77b4"/>
   </g>
   <g id="patch_171">
    <path d="M 276.30608 178.353045 
L 279.941643 178.353045 
L 279.941643 137.29634 
L 276.30608 137.29634 
z
" clip-path="url(#p1d4bf69560)" style="fill: #1f77b4"/>
   </g>
   <g id="patch_172">
    <path d="M 279.941643 178.353045 
L 283.577207 178.353045 
L 283.577207 138.506263 
L 279.941643 138.506263 
z
" clip-path="url(#p1d4bf69560)" style="fill: #1f77b4"/>
   </g>
   <g id="patch_173">
    <path d="M 283.577207 178.353045 
L 287.212771 178.353045 
L 287.212771 134.876495 
L 283.577207 134.876495 
z
" clip-path="url(#p1d4bf69560)" style="fill: #1f77b4"/>
   </g>
   <g id="patch_174">
    <path d="M 287.212771 178.353045 
L 290.848335 178.353045 
L 290.848335 135.360464 
L 287.212771 135.360464 
z
" clip-path="url(#p1d4bf69560)" style="fill: #1f77b4"/>
   </g>
   <g id="patch_175">
    <path d="M 290.848335 178.353045 
L 294.483899 178.353045 
L 294.483899 139.232216 
L 290.848335 139.232216 
z
" clip-path="url(#p1d4bf69560)" style="fill: #1f77b4"/>
   </g>
   <g id="patch_176">
    <path d="M 294.483899 178.353045 
L 298.119463 178.353045 
L 298.119463 136.167079 
L 294.483899 136.167079 
z
" clip-path="url(#p1d4bf69560)" style="fill: #1f77b4"/>
   </g>
   <g id="patch_177">
    <path d="M 298.119463 178.353045 
L 301.755026 178.353045 
L 301.755026 136.167079 
L 298.119463 136.167079 
z
" clip-path="url(#p1d4bf69560)" style="fill: #1f77b4"/>
   </g>
   <g id="patch_178">
    <path d="M 301.755026 178.353045 
L 305.39059 178.353045 
L 305.39059 141.813384 
L 301.755026 141.813384 
z
" clip-path="url(#p1d4bf69560)" style="fill: #1f77b4"/>
   </g>
   <g id="patch_179">
    <path d="M 305.39059 178.353045 
L 309.026154 178.353045 
L 309.026154 134.392526 
L 305.39059 134.392526 
z
" clip-path="url(#p1d4bf69560)" style="fill: #1f77b4"/>
   </g>
   <g id="patch_180">
    <path d="M 309.026154 178.353045 
L 312.661718 178.353045 
L 312.661718 136.005756 
L 309.026154 136.005756 
z
" clip-path="url(#p1d4bf69560)" style="fill: #1f77b4"/>
   </g>
   <g id="patch_181">
    <path d="M 312.661718 178.353045 
L 316.297282 178.353045 
L 316.297282 136.489725 
L 312.661718 136.489725 
z
" clip-path="url(#p1d4bf69560)" style="fill: #1f77b4"/>
   </g>
   <g id="patch_182">
    <path d="M 316.297282 178.353045 
L 319.932845 178.353045 
L 319.932845 133.747234 
L 316.297282 133.747234 
z
" clip-path="url(#p1d4bf69560)" style="fill: #1f77b4"/>
   </g>
   <g id="patch_183">
    <path d="M 319.932845 178.353045 
L 323.568409 178.353045 
L 323.568409 137.215679 
L 319.932845 137.215679 
z
" clip-path="url(#p1d4bf69560)" style="fill: #1f77b4"/>
   </g>
   <g id="patch_184">
    <path d="M 323.568409 178.353045 
L 327.203973 178.353045 
L 327.203973 135.763772 
L 323.568409 135.763772 
z
" clip-path="url(#p1d4bf69560)" style="fill: #1f77b4"/>
   </g>
   <g id="patch_185">
    <path d="M 327.203973 178.353045 
L 330.839537 178.353045 
L 330.839537 136.328402 
L 327.203973 136.328402 
z
" clip-path="url(#p1d4bf69560)" style="fill: #1f77b4"/>
   </g>
   <g id="patch_186">
    <path d="M 330.839537 178.353045 
L 334.475101 178.353045 
L 334.475101 135.68311 
L 330.839537 135.68311 
z
" clip-path="url(#p1d4bf69560)" style="fill: #1f77b4"/>
   </g>
   <g id="patch_187">
    <path d="M 334.475101 178.353045 
L 338.110665 178.353045 
L 338.110665 138.748247 
L 334.475101 138.748247 
z
" clip-path="url(#p1d4bf69560)" style="fill: #1f77b4"/>
   </g>
   <g id="patch_188">
    <path d="M 338.110665 178.353045 
L 341.746228 178.353045 
L 341.746228 137.29634 
L 338.110665 137.29634 
z
" clip-path="url(#p1d4bf69560)" style="fill: #1f77b4"/>
   </g>
   <g id="patch_189">
    <path d="M 341.746228 178.353045 
L 345.381792 178.353045 
L 345.381792 134.795833 
L 341.746228 134.795833 
z
" clip-path="url(#p1d4bf69560)" style="fill: #1f77b4"/>
   </g>
   <g id="patch_190">
    <path d="M 345.381792 178.353045 
L 349.017356 178.353045 
L 349.017356 137.215679 
L 345.381792 137.215679 
z
" clip-path="url(#p1d4bf69560)" style="fill: #1f77b4"/>
   </g>
   <g id="patch_191">
    <path d="M 349.017356 178.353045 
L 352.65292 178.353045 
L 352.65292 138.022294 
L 349.017356 138.022294 
z
" clip-path="url(#p1d4bf69560)" style="fill: #1f77b4"/>
   </g>
   <g id="patch_192">
    <path d="M 352.65292 178.353045 
L 356.288484 178.353045 
L 356.288484 140.361477 
L 352.65292 140.361477 
z
" clip-path="url(#p1d4bf69560)" style="fill: #1f77b4"/>
   </g>
   <g id="patch_193">
    <path d="M 356.288484 178.353045 
L 359.924047 178.353045 
L 359.924047 141.168092 
L 356.288484 141.168092 
z
" clip-path="url(#p1d4bf69560)" style="fill: #1f77b4"/>
   </g>
   <g id="patch_194">
    <path d="M 359.924047 178.353045 
L 363.559611 178.353045 
L 363.559611 138.748247 
L 359.924047 138.748247 
z
" clip-path="url(#p1d4bf69560)" style="fill: #1f77b4"/>
   </g>
   <g id="patch_195">
    <path d="M 363.559611 178.353045 
L 367.195175 178.353045 
L 367.195175 137.699648 
L 363.559611 137.699648 
z
" clip-path="url(#p1d4bf69560)" style="fill: #1f77b4"/>
   </g>
   <g id="patch_196">
    <path d="M 367.195175 178.353045 
L 370.830739 178.353045 
L 370.830739 139.635524 
L 367.195175 139.635524 
z
" clip-path="url(#p1d4bf69560)" style="fill: #1f77b4"/>
   </g>
   <g id="patch_197">
    <path d="M 370.830739 178.353045 
L 374.466303 178.353045 
L 374.466303 139.312878 
L 370.830739 139.312878 
z
" clip-path="url(#p1d4bf69560)" style="fill: #1f77b4"/>
   </g>
   <g id="patch_198">
    <path d="M 374.466303 178.353045 
L 378.101867 178.353045 
L 378.101867 140.684123 
L 374.466303 140.684123 
z
" clip-path="url(#p1d4bf69560)" style="fill: #1f77b4"/>
   </g>
   <g id="patch_199">
    <path d="M 378.101867 178.353045 
L 381.73743 178.353045 
L 381.73743 141.168092 
L 378.101867 141.168092 
z
" clip-path="url(#p1d4bf69560)" style="fill: #1f77b4"/>
   </g>
   <g id="patch_200">
    <path d="M 381.73743 178.353045 
L 385.372994 178.353045 
L 385.372994 140.038831 
L 381.73743 140.038831 
z
" clip-path="url(#p1d4bf69560)" style="fill: #1f77b4"/>
   </g>
   <g id="patch_201">
    <path d="M 385.372994 178.353045 
L 389.008558 178.353045 
L 389.008558 140.845446 
L 385.372994 140.845446 
z
" clip-path="url(#p1d4bf69560)" style="fill: #1f77b4"/>
   </g>
   <g id="patch_202">
    <path d="M 389.008558 178.353045 
L 392.644122 178.353045 
L 392.644122 141.894046 
L 389.008558 141.894046 
z
" clip-path="url(#p1d4bf69560)" style="fill: #1f77b4"/>
   </g>
   <g id="patch_203">
    <path d="M 392.644122 178.353045 
L 396.279686 178.353045 
L 396.279686 145.604475 
L 392.644122 145.604475 
z
" clip-path="url(#p1d4bf69560)" style="fill: #1f77b4"/>
   </g>
   <g id="patch_204">
    <path d="M 396.279686 178.353045 
L 399.915249 178.353045 
L 399.915249 141.087431 
L 396.279686 141.087431 
z
" clip-path="url(#p1d4bf69560)" style="fill: #1f77b4"/>
   </g>
   <g id="patch_205">
    <path d="M 399.915249 178.353045 
L 403.550813 178.353045 
L 403.550813 141.490738 
L 399.915249 141.490738 
z
" clip-path="url(#p1d4bf69560)" style="fill: #1f77b4"/>
   </g>
   <g id="patch_206">
    <path d="M 403.550813 178.353045 
L 407.186377 178.353045 
L 407.186377 141.974707 
L 403.550813 141.974707 
z
" clip-path="url(#p1d4bf69560)" style="fill: #1f77b4"/>
   </g>
   <g id="patch_207">
    <path d="M 407.186377 178.353045 
L 410.821941 178.353045 
L 410.821941 143.18463 
L 407.186377 143.18463 
z
" clip-path="url(#p1d4bf69560)" style="fill: #1f77b4"/>
   </g>
   <g id="matplotlib.axis_3">
    <g id="xtick_10">
     <g id="line2d_12">
      <g>
       <use xlink:href="#me9de05713b" x="47.265477" y="178.353045" style="stroke: #000000; stroke-width: 0.8"/>
      </g>
     </g>
     <g id="text_13">
      <!-- −10000 -->
      <g transform="translate(27.169384 192.951482)scale(0.1 -0.1)">
       <use xlink:href="#DejaVuSans-2212"/>
       <use xlink:href="#DejaVuSans-31" x="83.789062"/>
       <use xlink:href="#DejaVuSans-30" x="147.412109"/>
       <use xlink:href="#DejaVuSans-30" x="211.035156"/>
       <use xlink:href="#DejaVuSans-30" x="274.658203"/>
       <use xlink:href="#DejaVuSans-30" x="338.28125"/>
      </g>
     </g>
    </g>
    <g id="xtick_11">
     <g id="line2d_13">
      <g>
       <use xlink:href="#me9de05713b" x="92.710688" y="178.353045" style="stroke: #000000; stroke-width: 0.8"/>
      </g>
     </g>
     <g id="text_14">
      <!-- −7500 -->
      <g transform="translate(75.795844 192.951482)scale(0.1 -0.1)">
       <use xlink:href="#DejaVuSans-2212"/>
       <use xlink:href="#DejaVuSans-37" x="83.789062"/>
       <use xlink:href="#DejaVuSans-35" x="147.412109"/>
       <use xlink:href="#DejaVuSans-30" x="211.035156"/>
       <use xlink:href="#DejaVuSans-30" x="274.658203"/>
      </g>
     </g>
    </g>
    <g id="xtick_12">
     <g id="line2d_14">
      <g>
       <use xlink:href="#me9de05713b" x="138.155899" y="178.353045" style="stroke: #000000; stroke-width: 0.8"/>
      </g>
     </g>
     <g id="text_15">
      <!-- −5000 -->
      <g transform="translate(121.241055 192.951482)scale(0.1 -0.1)">
       <use xlink:href="#DejaVuSans-2212"/>
       <use xlink:href="#DejaVuSans-35" x="83.789062"/>
       <use xlink:href="#DejaVuSans-30" x="147.412109"/>
       <use xlink:href="#DejaVuSans-30" x="211.035156"/>
       <use xlink:href="#DejaVuSans-30" x="274.658203"/>
      </g>
     </g>
    </g>
    <g id="xtick_13">
     <g id="line2d_15">
      <g>
       <use xlink:href="#me9de05713b" x="183.60111" y="178.353045" style="stroke: #000000; stroke-width: 0.8"/>
      </g>
     </g>
     <g id="text_16">
      <!-- −2500 -->
      <g transform="translate(166.686266 192.951482)scale(0.1 -0.1)">
       <use xlink:href="#DejaVuSans-2212"/>
       <use xlink:href="#DejaVuSans-32" x="83.789062"/>
       <use xlink:href="#DejaVuSans-35" x="147.412109"/>
       <use xlink:href="#DejaVuSans-30" x="211.035156"/>
       <use xlink:href="#DejaVuSans-30" x="274.658203"/>
      </g>
     </g>
    </g>
    <g id="xtick_14">
     <g id="line2d_16">
      <g>
       <use xlink:href="#me9de05713b" x="229.04632" y="178.353045" style="stroke: #000000; stroke-width: 0.8"/>
      </g>
     </g>
     <g id="text_17">
      <!-- 0 -->
      <g transform="translate(225.86507 192.951482)scale(0.1 -0.1)">
       <use xlink:href="#DejaVuSans-30"/>
      </g>
     </g>
    </g>
    <g id="xtick_15">
     <g id="line2d_17">
      <g>
       <use xlink:href="#me9de05713b" x="274.491531" y="178.353045" style="stroke: #000000; stroke-width: 0.8"/>
      </g>
     </g>
     <g id="text_18">
      <!-- 2500 -->
      <g transform="translate(261.766531 192.951482)scale(0.1 -0.1)">
       <use xlink:href="#DejaVuSans-32"/>
       <use xlink:href="#DejaVuSans-35" x="63.623047"/>
       <use xlink:href="#DejaVuSans-30" x="127.246094"/>
       <use xlink:href="#DejaVuSans-30" x="190.869141"/>
      </g>
     </g>
    </g>
    <g id="xtick_16">
     <g id="line2d_18">
      <g>
       <use xlink:href="#me9de05713b" x="319.936742" y="178.353045" style="stroke: #000000; stroke-width: 0.8"/>
      </g>
     </g>
     <g id="text_19">
      <!-- 5000 -->
      <g transform="translate(307.211742 192.951482)scale(0.1 -0.1)">
       <use xlink:href="#DejaVuSans-35"/>
       <use xlink:href="#DejaVuSans-30" x="63.623047"/>
       <use xlink:href="#DejaVuSans-30" x="127.246094"/>
       <use xlink:href="#DejaVuSans-30" x="190.869141"/>
      </g>
     </g>
    </g>
    <g id="xtick_17">
     <g id="line2d_19">
      <g>
       <use xlink:href="#me9de05713b" x="365.381953" y="178.353045" style="stroke: #000000; stroke-width: 0.8"/>
      </g>
     </g>
     <g id="text_20">
      <!-- 7500 -->
      <g transform="translate(352.656953 192.951482)scale(0.1 -0.1)">
       <use xlink:href="#DejaVuSans-37"/>
       <use xlink:href="#DejaVuSans-35" x="63.623047"/>
       <use xlink:href="#DejaVuSans-30" x="127.246094"/>
       <use xlink:href="#DejaVuSans-30" x="190.869141"/>
      </g>
     </g>
    </g>
    <g id="xtick_18">
     <g id="line2d_20">
      <g>
       <use xlink:href="#me9de05713b" x="410.827163" y="178.353045" style="stroke: #000000; stroke-width: 0.8"/>
      </g>
     </g>
     <g id="text_21">
      <!-- 10000 -->
      <g transform="translate(394.920913 192.951482)scale(0.1 -0.1)">
       <use xlink:href="#DejaVuSans-31"/>
       <use xlink:href="#DejaVuSans-30" x="63.623047"/>
       <use xlink:href="#DejaVuSans-30" x="127.246094"/>
       <use xlink:href="#DejaVuSans-30" x="190.869141"/>
       <use xlink:href="#DejaVuSans-30" x="254.492188"/>
      </g>
     </g>
    </g>
   </g>
   <g id="matplotlib.axis_4">
    <g id="ytick_3">
     <g id="line2d_21">
      <g>
       <use xlink:href="#m23b0bcdb14" x="29.08774" y="178.353045" style="stroke: #000000; stroke-width: 0.8"/>
      </g>
     </g>
     <g id="text_22">
      <!-- 0 -->
      <g transform="translate(15.72524 182.152264)scale(0.1 -0.1)">
       <use xlink:href="#DejaVuSans-30"/>
      </g>
     </g>
    </g>
    <g id="ytick_4">
     <g id="line2d_22">
      <g>
       <use xlink:href="#m23b0bcdb14" x="29.08774" y="138.022294" style="stroke: #000000; stroke-width: 0.8"/>
      </g>
     </g>
     <g id="text_23">
      <!-- 500 -->
      <g transform="translate(3.00024 141.821512)scale(0.1 -0.1)">
       <use xlink:href="#DejaVuSans-35"/>
       <use xlink:href="#DejaVuSans-30" x="63.623047"/>
       <use xlink:href="#DejaVuSans-30" x="127.246094"/>
      </g>
     </g>
    </g>
   </g>
   <g id="patch_208">
    <path d="M 29.08774 178.353045 
L 29.08774 126.181185 
" style="fill: none; stroke: #000000; stroke-width: 0.8; stroke-linejoin: miter; stroke-linecap: square"/>
   </g>
   <g id="patch_209">
    <path d="M 428.99976 178.353045 
L 428.99976 126.181185 
" style="fill: none; stroke: #000000; stroke-width: 0.8; stroke-linejoin: miter; stroke-linecap: square"/>
   </g>
   <g id="patch_210">
    <path d="M 29.08774 178.353045 
L 428.99976 178.353045 
" style="fill: none; stroke: #000000; stroke-width: 0.8; stroke-linejoin: miter; stroke-linecap: square"/>
   </g>
   <g id="patch_211">
    <path d="M 29.08774 126.181185 
L 428.99976 126.181185 
" style="fill: none; stroke: #000000; stroke-width: 0.8; stroke-linejoin: miter; stroke-linecap: square"/>
   </g>
   <g id="text_24">
    <!-- $A_b$ -->
    <g transform="translate(222.08375 120.181185)scale(0.12 -0.12)">
     <defs>
      <path id="DejaVuSans-Oblique-62" d="M 3169 2138 
Q 3169 2591 2961 2847 
Q 2753 3103 2388 3103 
Q 2122 3103 1889 2973 
Q 1656 2844 1484 2597 
Q 1303 2338 1198 1995 
Q 1094 1653 1094 1313 
Q 1094 881 1298 636 
Q 1503 391 1863 391 
Q 2134 391 2365 517 
Q 2597 644 2772 891 
Q 2950 1147 3059 1487 
Q 3169 1828 3169 2138 
z
M 1381 2969 
Q 1594 3256 1914 3420 
Q 2234 3584 2584 3584 
Q 3122 3584 3439 3221 
Q 3756 2859 3756 2241 
Q 3756 1734 3570 1259 
Q 3384 784 3041 416 
Q 2816 172 2522 40 
Q 2228 -91 1906 -91 
Q 1566 -91 1316 65 
Q 1066 222 909 531 
L 806 0 
L 231 0 
L 1178 4863 
L 1753 4863 
L 1381 2969 
z
" transform="scale(0.015625)"/>
     </defs>
     <use xlink:href="#DejaVuSans-Oblique-41" transform="translate(0 0.09375)"/>
     <use xlink:href="#DejaVuSans-Oblique-62" transform="translate(68.408203 -16.3125)scale(0.7)"/>
    </g>
   </g>
  </g>
  <g id="axes_3">
   <g id="patch_212">
    <path d="M 29.08774 268.321635 
L 428.99976 268.321635 
L 428.99976 216.149775 
L 29.08774 216.149775 
z
" style="fill: #ffffff"/>
   </g>
   <g id="patch_213">
    <path d="M 47.265559 268.321635 
L 50.901123 268.321635 
L 50.901123 232.023959 
L 47.265559 232.023959 
z
" clip-path="url(#pfe9caa8b0d)" style="fill: #1f77b4"/>
   </g>
   <g id="patch_214">
    <path d="M 50.901123 268.321635 
L 54.536687 268.321635 
L 54.536687 230.733375 
L 50.901123 230.733375 
z
" clip-path="url(#pfe9caa8b0d)" style="fill: #1f77b4"/>
   </g>
   <g id="patch_215">
    <path d="M 54.536687 268.321635 
L 58.172251 268.321635 
L 58.172251 228.152207 
L 54.536687 228.152207 
z
" clip-path="url(#pfe9caa8b0d)" style="fill: #1f77b4"/>
   </g>
   <g id="patch_216">
    <path d="M 58.172251 268.321635 
L 61.807814 268.321635 
L 61.807814 231.53999 
L 58.172251 231.53999 
z
" clip-path="url(#pfe9caa8b0d)" style="fill: #1f77b4"/>
   </g>
   <g id="patch_217">
    <path d="M 61.807814 268.321635 
L 65.443378 268.321635 
L 65.443378 229.92676 
L 61.807814 229.92676 
z
" clip-path="url(#pfe9caa8b0d)" style="fill: #1f77b4"/>
   </g>
   <g id="patch_218">
    <path d="M 65.443378 268.321635 
L 69.078942 268.321635 
L 69.078942 228.152207 
L 65.443378 228.152207 
z
" clip-path="url(#pfe9caa8b0d)" style="fill: #1f77b4"/>
   </g>
   <g id="patch_219">
    <path d="M 69.078942 268.321635 
L 72.714506 268.321635 
L 72.714506 228.958822 
L 69.078942 228.958822 
z
" clip-path="url(#pfe9caa8b0d)" style="fill: #1f77b4"/>
   </g>
   <g id="patch_220">
    <path d="M 72.714506 268.321635 
L 76.35007 268.321635 
L 76.35007 231.298005 
L 72.714506 231.298005 
z
" clip-path="url(#pfe9caa8b0d)" style="fill: #1f77b4"/>
   </g>
   <g id="patch_221">
    <path d="M 76.35007 268.321635 
L 79.985633 268.321635 
L 79.985633 230.49139 
L 76.35007 230.49139 
z
" clip-path="url(#pfe9caa8b0d)" style="fill: #1f77b4"/>
   </g>
   <g id="patch_222">
    <path d="M 79.985633 268.321635 
L 83.621197 268.321635 
L 83.621197 228.958822 
L 79.985633 228.958822 
z
" clip-path="url(#pfe9caa8b0d)" style="fill: #1f77b4"/>
   </g>
   <g id="patch_223">
    <path d="M 83.621197 268.321635 
L 87.256761 268.321635 
L 87.256761 228.636176 
L 83.621197 228.636176 
z
" clip-path="url(#pfe9caa8b0d)" style="fill: #1f77b4"/>
   </g>
   <g id="patch_224">
    <path d="M 87.256761 268.321635 
L 90.892325 268.321635 
L 90.892325 226.861623 
L 87.256761 226.861623 
z
" clip-path="url(#pfe9caa8b0d)" style="fill: #1f77b4"/>
   </g>
   <g id="patch_225">
    <path d="M 90.892325 268.321635 
L 94.527889 268.321635 
L 94.527889 228.232868 
L 90.892325 228.232868 
z
" clip-path="url(#pfe9caa8b0d)" style="fill: #1f77b4"/>
   </g>
   <g id="patch_226">
    <path d="M 94.527889 268.321635 
L 98.163453 268.321635 
L 98.163453 226.135669 
L 94.527889 226.135669 
z
" clip-path="url(#pfe9caa8b0d)" style="fill: #1f77b4"/>
   </g>
   <g id="patch_227">
    <path d="M 98.163453 268.321635 
L 101.799016 268.321635 
L 101.799016 229.523452 
L 98.163453 229.523452 
z
" clip-path="url(#pfe9caa8b0d)" style="fill: #1f77b4"/>
   </g>
   <g id="patch_228">
    <path d="M 101.799016 268.321635 
L 105.43458 268.321635 
L 105.43458 228.797499 
L 101.799016 228.797499 
z
" clip-path="url(#pfe9caa8b0d)" style="fill: #1f77b4"/>
   </g>
   <g id="patch_229">
    <path d="M 105.43458 268.321635 
L 109.070144 268.321635 
L 109.070144 230.007421 
L 105.43458 230.007421 
z
" clip-path="url(#pfe9caa8b0d)" style="fill: #1f77b4"/>
   </g>
   <g id="patch_230">
    <path d="M 109.070144 268.321635 
L 112.705708 268.321635 
L 112.705708 225.893685 
L 109.070144 225.893685 
z
" clip-path="url(#pfe9caa8b0d)" style="fill: #1f77b4"/>
   </g>
   <g id="patch_231">
    <path d="M 112.705708 268.321635 
L 116.341272 268.321635 
L 116.341272 229.120145 
L 112.705708 229.120145 
z
" clip-path="url(#pfe9caa8b0d)" style="fill: #1f77b4"/>
   </g>
   <g id="patch_232">
    <path d="M 116.341272 268.321635 
L 119.976835 268.321635 
L 119.976835 228.232868 
L 116.341272 228.232868 
z
" clip-path="url(#pfe9caa8b0d)" style="fill: #1f77b4"/>
   </g>
   <g id="patch_233">
    <path d="M 119.976835 268.321635 
L 123.612399 268.321635 
L 123.612399 229.684775 
L 119.976835 229.684775 
z
" clip-path="url(#pfe9caa8b0d)" style="fill: #1f77b4"/>
   </g>
   <g id="patch_234">
    <path d="M 123.612399 268.321635 
L 127.247963 268.321635 
L 127.247963 231.217344 
L 123.612399 231.217344 
z
" clip-path="url(#pfe9caa8b0d)" style="fill: #1f77b4"/>
   </g>
   <g id="patch_235">
    <path d="M 127.247963 268.321635 
L 130.883527 268.321635 
L 130.883527 228.87816 
L 127.247963 228.87816 
z
" clip-path="url(#pfe9caa8b0d)" style="fill: #1f77b4"/>
   </g>
   <g id="patch_236">
    <path d="M 130.883527 268.321635 
L 134.519091 268.321635 
L 134.519091 225.893685 
L 130.883527 225.893685 
z
" clip-path="url(#pfe9caa8b0d)" style="fill: #1f77b4"/>
   </g>
   <g id="patch_237">
    <path d="M 134.519091 268.321635 
L 138.154655 268.321635 
L 138.154655 227.668238 
L 134.519091 227.668238 
z
" clip-path="url(#pfe9caa8b0d)" style="fill: #1f77b4"/>
   </g>
   <g id="patch_238">
    <path d="M 138.154655 268.321635 
L 141.790218 268.321635 
L 141.790218 228.31353 
L 138.154655 228.31353 
z
" clip-path="url(#pfe9caa8b0d)" style="fill: #1f77b4"/>
   </g>
   <g id="patch_239">
    <path d="M 141.790218 268.321635 
L 145.425782 268.321635 
L 145.425782 226.7003 
L 141.790218 226.7003 
z
" clip-path="url(#pfe9caa8b0d)" style="fill: #1f77b4"/>
   </g>
   <g id="patch_240">
    <path d="M 145.425782 268.321635 
L 149.061346 268.321635 
L 149.061346 225.248393 
L 145.425782 225.248393 
z
" clip-path="url(#pfe9caa8b0d)" style="fill: #1f77b4"/>
   </g>
   <g id="patch_241">
    <path d="M 149.061346 268.321635 
L 152.69691 268.321635 
L 152.69691 229.684775 
L 149.061346 229.684775 
z
" clip-path="url(#pfe9caa8b0d)" style="fill: #1f77b4"/>
   </g>
   <g id="patch_242">
    <path d="M 152.69691 268.321635 
L 156.332474 268.321635 
L 156.332474 223.877147 
L 152.69691 223.877147 
z
" clip-path="url(#pfe9caa8b0d)" style="fill: #1f77b4"/>
   </g>
   <g id="patch_243">
    <path d="M 156.332474 268.321635 
L 159.968037 268.321635 
L 159.968037 226.458315 
L 156.332474 226.458315 
z
" clip-path="url(#pfe9caa8b0d)" style="fill: #1f77b4"/>
   </g>
   <g id="patch_244">
    <path d="M 159.968037 268.321635 
L 163.603601 268.321635 
L 163.603601 225.893685 
L 159.968037 225.893685 
z
" clip-path="url(#pfe9caa8b0d)" style="fill: #1f77b4"/>
   </g>
   <g id="patch_245">
    <path d="M 163.603601 268.321635 
L 167.239165 268.321635 
L 167.239165 225.08707 
L 163.603601 225.08707 
z
" clip-path="url(#pfe9caa8b0d)" style="fill: #1f77b4"/>
   </g>
   <g id="patch_246">
    <path d="M 167.239165 268.321635 
L 170.874729 268.321635 
L 170.874729 227.022946 
L 167.239165 227.022946 
z
" clip-path="url(#pfe9caa8b0d)" style="fill: #1f77b4"/>
   </g>
   <g id="patch_247">
    <path d="M 170.874729 268.321635 
L 174.510293 268.321635 
L 174.510293 225.974346 
L 170.874729 225.974346 
z
" clip-path="url(#pfe9caa8b0d)" style="fill: #1f77b4"/>
   </g>
   <g id="patch_248">
    <path d="M 174.510293 268.321635 
L 178.145857 268.321635 
L 178.145857 223.393178 
L 174.510293 223.393178 
z
" clip-path="url(#pfe9caa8b0d)" style="fill: #1f77b4"/>
   </g>
   <g id="patch_249">
    <path d="M 178.145857 268.321635 
L 181.78142 268.321635 
L 181.78142 223.151193 
L 178.145857 223.151193 
z
" clip-path="url(#pfe9caa8b0d)" style="fill: #1f77b4"/>
   </g>
   <g id="patch_250">
    <path d="M 181.78142 268.321635 
L 185.416984 268.321635 
L 185.416984 226.780961 
L 181.78142 226.780961 
z
" clip-path="url(#pfe9caa8b0d)" style="fill: #1f77b4"/>
   </g>
   <g id="patch_251">
    <path d="M 185.416984 268.321635 
L 189.052548 268.321635 
L 189.052548 226.861623 
L 185.416984 226.861623 
z
" clip-path="url(#pfe9caa8b0d)" style="fill: #1f77b4"/>
   </g>
   <g id="patch_252">
    <path d="M 189.052548 268.321635 
L 192.688112 268.321635 
L 192.688112 224.6031 
L 189.052548 224.6031 
z
" clip-path="url(#pfe9caa8b0d)" style="fill: #1f77b4"/>
   </g>
   <g id="patch_253">
    <path d="M 192.688112 268.321635 
L 196.323676 268.321635 
L 196.323676 229.684775 
L 192.688112 229.684775 
z
" clip-path="url(#pfe9caa8b0d)" style="fill: #1f77b4"/>
   </g>
   <g id="patch_254">
    <path d="M 196.323676 268.321635 
L 199.959239 268.321635 
L 199.959239 223.877147 
L 196.323676 223.877147 
z
" clip-path="url(#pfe9caa8b0d)" style="fill: #1f77b4"/>
   </g>
   <g id="patch_255">
    <path d="M 199.959239 268.321635 
L 203.594803 268.321635 
L 203.594803 227.184269 
L 199.959239 227.184269 
z
" clip-path="url(#pfe9caa8b0d)" style="fill: #1f77b4"/>
   </g>
   <g id="patch_256">
    <path d="M 203.594803 268.321635 
L 207.230367 268.321635 
L 207.230367 228.152207 
L 203.594803 228.152207 
z
" clip-path="url(#pfe9caa8b0d)" style="fill: #1f77b4"/>
   </g>
   <g id="patch_257">
    <path d="M 207.230367 268.321635 
L 210.865931 268.321635 
L 210.865931 229.281468 
L 207.230367 229.281468 
z
" clip-path="url(#pfe9caa8b0d)" style="fill: #1f77b4"/>
   </g>
   <g id="patch_258">
    <path d="M 210.865931 268.321635 
L 214.501495 268.321635 
L 214.501495 224.441777 
L 210.865931 224.441777 
z
" clip-path="url(#pfe9caa8b0d)" style="fill: #1f77b4"/>
   </g>
   <g id="patch_259">
    <path d="M 214.501495 268.321635 
L 218.137059 268.321635 
L 218.137059 225.167731 
L 214.501495 225.167731 
z
" clip-path="url(#pfe9caa8b0d)" style="fill: #1f77b4"/>
   </g>
   <g id="patch_260">
    <path d="M 218.137059 268.321635 
L 221.772622 268.321635 
L 221.772622 226.055008 
L 218.137059 226.055008 
z
" clip-path="url(#pfe9caa8b0d)" style="fill: #1f77b4"/>
   </g>
   <g id="patch_261">
    <path d="M 221.772622 268.321635 
L 225.408186 268.321635 
L 225.408186 228.31353 
L 221.772622 228.31353 
z
" clip-path="url(#pfe9caa8b0d)" style="fill: #1f77b4"/>
   </g>
   <g id="patch_262">
    <path d="M 225.408186 268.321635 
L 229.04375 268.321635 
L 229.04375 225.329054 
L 225.408186 225.329054 
z
" clip-path="url(#pfe9caa8b0d)" style="fill: #1f77b4"/>
   </g>
   <g id="patch_263">
    <path d="M 229.04375 268.321635 
L 232.679314 268.321635 
L 232.679314 223.070532 
L 229.04375 223.070532 
z
" clip-path="url(#pfe9caa8b0d)" style="fill: #1f77b4"/>
   </g>
   <g id="patch_264">
    <path d="M 232.679314 268.321635 
L 236.314878 268.321635 
L 236.314878 226.055008 
L 232.679314 226.055008 
z
" clip-path="url(#pfe9caa8b0d)" style="fill: #1f77b4"/>
   </g>
   <g id="patch_265">
    <path d="M 236.314878 268.321635 
L 239.950441 268.321635 
L 239.950441 223.393178 
L 236.314878 223.393178 
z
" clip-path="url(#pfe9caa8b0d)" style="fill: #1f77b4"/>
   </g>
   <g id="patch_266">
    <path d="M 239.950441 268.321635 
L 243.586005 268.321635 
L 243.586005 225.732362 
L 239.950441 225.732362 
z
" clip-path="url(#pfe9caa8b0d)" style="fill: #1f77b4"/>
   </g>
   <g id="patch_267">
    <path d="M 243.586005 268.321635 
L 247.221569 268.321635 
L 247.221569 227.587576 
L 243.586005 227.587576 
z
" clip-path="url(#pfe9caa8b0d)" style="fill: #1f77b4"/>
   </g>
   <g id="patch_268">
    <path d="M 247.221569 268.321635 
L 250.857133 268.321635 
L 250.857133 225.248393 
L 247.221569 225.248393 
z
" clip-path="url(#pfe9caa8b0d)" style="fill: #1f77b4"/>
   </g>
   <g id="patch_269">
    <path d="M 250.857133 268.321635 
L 254.492697 268.321635 
L 254.492697 228.716837 
L 250.857133 228.716837 
z
" clip-path="url(#pfe9caa8b0d)" style="fill: #1f77b4"/>
   </g>
   <g id="patch_270">
    <path d="M 254.492697 268.321635 
L 258.128261 268.321635 
L 258.128261 226.7003 
L 254.492697 226.7003 
z
" clip-path="url(#pfe9caa8b0d)" style="fill: #1f77b4"/>
   </g>
   <g id="patch_271">
    <path d="M 258.128261 268.321635 
L 261.763824 268.321635 
L 261.763824 225.571039 
L 258.128261 225.571039 
z
" clip-path="url(#pfe9caa8b0d)" style="fill: #1f77b4"/>
   </g>
   <g id="patch_272">
    <path d="M 261.763824 268.321635 
L 265.399388 268.321635 
L 265.399388 227.26493 
L 261.763824 227.26493 
z
" clip-path="url(#pfe9caa8b0d)" style="fill: #1f77b4"/>
   </g>
   <g id="patch_273">
    <path d="M 265.399388 268.321635 
L 269.034952 268.321635 
L 269.034952 226.619638 
L 265.399388 226.619638 
z
" clip-path="url(#pfe9caa8b0d)" style="fill: #1f77b4"/>
   </g>
   <g id="patch_274">
    <path d="M 269.034952 268.321635 
L 272.670516 268.321635 
L 272.670516 226.538977 
L 269.034952 226.538977 
z
" clip-path="url(#pfe9caa8b0d)" style="fill: #1f77b4"/>
   </g>
   <g id="patch_275">
    <path d="M 272.670516 268.321635 
L 276.30608 268.321635 
L 276.30608 221.295979 
L 272.670516 221.295979 
z
" clip-path="url(#pfe9caa8b0d)" style="fill: #1f77b4"/>
   </g>
   <g id="patch_276">
    <path d="M 276.30608 268.321635 
L 279.941643 268.321635 
L 279.941643 226.135669 
L 276.30608 226.135669 
z
" clip-path="url(#pfe9caa8b0d)" style="fill: #1f77b4"/>
   </g>
   <g id="patch_277">
    <path d="M 279.941643 268.321635 
L 283.577207 268.321635 
L 283.577207 228.232868 
L 279.941643 228.232868 
z
" clip-path="url(#pfe9caa8b0d)" style="fill: #1f77b4"/>
   </g>
   <g id="patch_278">
    <path d="M 283.577207 268.321635 
L 287.212771 268.321635 
L 287.212771 226.216331 
L 283.577207 226.216331 
z
" clip-path="url(#pfe9caa8b0d)" style="fill: #1f77b4"/>
   </g>
   <g id="patch_279">
    <path d="M 287.212771 268.321635 
L 290.848335 268.321635 
L 290.848335 227.426253 
L 287.212771 227.426253 
z
" clip-path="url(#pfe9caa8b0d)" style="fill: #1f77b4"/>
   </g>
   <g id="patch_280">
    <path d="M 290.848335 268.321635 
L 294.483899 268.321635 
L 294.483899 227.184269 
L 290.848335 227.184269 
z
" clip-path="url(#pfe9caa8b0d)" style="fill: #1f77b4"/>
   </g>
   <g id="patch_281">
    <path d="M 294.483899 268.321635 
L 298.119463 268.321635 
L 298.119463 225.006408 
L 294.483899 225.006408 
z
" clip-path="url(#pfe9caa8b0d)" style="fill: #1f77b4"/>
   </g>
   <g id="patch_282">
    <path d="M 298.119463 268.321635 
L 301.755026 268.321635 
L 301.755026 226.055008 
L 298.119463 226.055008 
z
" clip-path="url(#pfe9caa8b0d)" style="fill: #1f77b4"/>
   </g>
   <g id="patch_283">
    <path d="M 301.755026 268.321635 
L 305.39059 268.321635 
L 305.39059 224.119131 
L 301.755026 224.119131 
z
" clip-path="url(#pfe9caa8b0d)" style="fill: #1f77b4"/>
   </g>
   <g id="patch_284">
    <path d="M 305.39059 268.321635 
L 309.026154 268.321635 
L 309.026154 228.071545 
L 305.39059 228.071545 
z
" clip-path="url(#pfe9caa8b0d)" style="fill: #1f77b4"/>
   </g>
   <g id="patch_285">
    <path d="M 309.026154 268.321635 
L 312.661718 268.321635 
L 312.661718 230.572052 
L 309.026154 230.572052 
z
" clip-path="url(#pfe9caa8b0d)" style="fill: #1f77b4"/>
   </g>
   <g id="patch_286">
    <path d="M 312.661718 268.321635 
L 316.297282 268.321635 
L 316.297282 228.31353 
L 312.661718 228.31353 
z
" clip-path="url(#pfe9caa8b0d)" style="fill: #1f77b4"/>
   </g>
   <g id="patch_287">
    <path d="M 316.297282 268.321635 
L 319.932845 268.321635 
L 319.932845 228.071545 
L 316.297282 228.071545 
z
" clip-path="url(#pfe9caa8b0d)" style="fill: #1f77b4"/>
   </g>
   <g id="patch_288">
    <path d="M 319.932845 268.321635 
L 323.568409 268.321635 
L 323.568409 227.829561 
L 319.932845 227.829561 
z
" clip-path="url(#pfe9caa8b0d)" style="fill: #1f77b4"/>
   </g>
   <g id="patch_289">
    <path d="M 323.568409 268.321635 
L 327.203973 268.321635 
L 327.203973 224.199793 
L 323.568409 224.199793 
z
" clip-path="url(#pfe9caa8b0d)" style="fill: #1f77b4"/>
   </g>
   <g id="patch_290">
    <path d="M 327.203973 268.321635 
L 330.839537 268.321635 
L 330.839537 226.619638 
L 327.203973 226.619638 
z
" clip-path="url(#pfe9caa8b0d)" style="fill: #1f77b4"/>
   </g>
   <g id="patch_291">
    <path d="M 330.839537 268.321635 
L 334.475101 268.321635 
L 334.475101 225.571039 
L 330.839537 225.571039 
z
" clip-path="url(#pfe9caa8b0d)" style="fill: #1f77b4"/>
   </g>
   <g id="patch_292">
    <path d="M 334.475101 268.321635 
L 338.110665 268.321635 
L 338.110665 228.716837 
L 334.475101 228.716837 
z
" clip-path="url(#pfe9caa8b0d)" style="fill: #1f77b4"/>
   </g>
   <g id="patch_293">
    <path d="M 338.110665 268.321635 
L 341.746228 268.321635 
L 341.746228 232.185282 
L 338.110665 232.185282 
z
" clip-path="url(#pfe9caa8b0d)" style="fill: #1f77b4"/>
   </g>
   <g id="patch_294">
    <path d="M 341.746228 268.321635 
L 345.381792 268.321635 
L 345.381792 227.022946 
L 341.746228 227.022946 
z
" clip-path="url(#pfe9caa8b0d)" style="fill: #1f77b4"/>
   </g>
   <g id="patch_295">
    <path d="M 345.381792 268.321635 
L 349.017356 268.321635 
L 349.017356 227.103607 
L 345.381792 227.103607 
z
" clip-path="url(#pfe9caa8b0d)" style="fill: #1f77b4"/>
   </g>
   <g id="patch_296">
    <path d="M 349.017356 268.321635 
L 352.65292 268.321635 
L 352.65292 226.458315 
L 349.017356 226.458315 
z
" clip-path="url(#pfe9caa8b0d)" style="fill: #1f77b4"/>
   </g>
   <g id="patch_297">
    <path d="M 352.65292 268.321635 
L 356.288484 268.321635 
L 356.288484 230.088083 
L 352.65292 230.088083 
z
" clip-path="url(#pfe9caa8b0d)" style="fill: #1f77b4"/>
   </g>
   <g id="patch_298">
    <path d="M 356.288484 268.321635 
L 359.924047 268.321635 
L 359.924047 226.861623 
L 356.288484 226.861623 
z
" clip-path="url(#pfe9caa8b0d)" style="fill: #1f77b4"/>
   </g>
   <g id="patch_299">
    <path d="M 359.924047 268.321635 
L 363.559611 268.321635 
L 363.559611 231.620651 
L 359.924047 231.620651 
z
" clip-path="url(#pfe9caa8b0d)" style="fill: #1f77b4"/>
   </g>
   <g id="patch_300">
    <path d="M 363.559611 268.321635 
L 367.195175 268.321635 
L 367.195175 229.523452 
L 363.559611 229.523452 
z
" clip-path="url(#pfe9caa8b0d)" style="fill: #1f77b4"/>
   </g>
   <g id="patch_301">
    <path d="M 367.195175 268.321635 
L 370.830739 268.321635 
L 370.830739 228.31353 
L 367.195175 228.31353 
z
" clip-path="url(#pfe9caa8b0d)" style="fill: #1f77b4"/>
   </g>
   <g id="patch_302">
    <path d="M 370.830739 268.321635 
L 374.466303 268.321635 
L 374.466303 229.120145 
L 370.830739 229.120145 
z
" clip-path="url(#pfe9caa8b0d)" style="fill: #1f77b4"/>
   </g>
   <g id="patch_303">
    <path d="M 374.466303 268.321635 
L 378.101867 268.321635 
L 378.101867 231.217344 
L 374.466303 231.217344 
z
" clip-path="url(#pfe9caa8b0d)" style="fill: #1f77b4"/>
   </g>
   <g id="patch_304">
    <path d="M 378.101867 268.321635 
L 381.73743 268.321635 
L 381.73743 230.410729 
L 378.101867 230.410729 
z
" clip-path="url(#pfe9caa8b0d)" style="fill: #1f77b4"/>
   </g>
   <g id="patch_305">
    <path d="M 381.73743 268.321635 
L 385.372994 268.321635 
L 385.372994 232.669251 
L 381.73743 232.669251 
z
" clip-path="url(#pfe9caa8b0d)" style="fill: #1f77b4"/>
   </g>
   <g id="patch_306">
    <path d="M 385.372994 268.321635 
L 389.008558 268.321635 
L 389.008558 225.409716 
L 385.372994 225.409716 
z
" clip-path="url(#pfe9caa8b0d)" style="fill: #1f77b4"/>
   </g>
   <g id="patch_307">
    <path d="M 389.008558 268.321635 
L 392.644122 268.321635 
L 392.644122 228.474853 
L 389.008558 228.474853 
z
" clip-path="url(#pfe9caa8b0d)" style="fill: #1f77b4"/>
   </g>
   <g id="patch_308">
    <path d="M 392.644122 268.321635 
L 396.279686 268.321635 
L 396.279686 230.733375 
L 392.644122 230.733375 
z
" clip-path="url(#pfe9caa8b0d)" style="fill: #1f77b4"/>
   </g>
   <g id="patch_309">
    <path d="M 396.279686 268.321635 
L 399.915249 268.321635 
L 399.915249 229.281468 
L 396.279686 229.281468 
z
" clip-path="url(#pfe9caa8b0d)" style="fill: #1f77b4"/>
   </g>
   <g id="patch_310">
    <path d="M 399.915249 268.321635 
L 403.550813 268.321635 
L 403.550813 233.233881 
L 399.915249 233.233881 
z
" clip-path="url(#pfe9caa8b0d)" style="fill: #1f77b4"/>
   </g>
   <g id="patch_311">
    <path d="M 403.550813 268.321635 
L 407.186377 268.321635 
L 407.186377 225.893685 
L 403.550813 225.893685 
z
" clip-path="url(#pfe9caa8b0d)" style="fill: #1f77b4"/>
   </g>
   <g id="patch_312">
    <path d="M 407.186377 268.321635 
L 410.821941 268.321635 
L 410.821941 230.652713 
L 407.186377 230.652713 
z
" clip-path="url(#pfe9caa8b0d)" style="fill: #1f77b4"/>
   </g>
   <g id="matplotlib.axis_5">
    <g id="xtick_19">
     <g id="line2d_23">
      <g>
       <use xlink:href="#me9de05713b" x="47.265304" y="268.321635" style="stroke: #000000; stroke-width: 0.8"/>
      </g>
     </g>
     <g id="text_25">
      <!-- −10000 -->
      <g transform="translate(27.16921 282.920073)scale(0.1 -0.1)">
       <use xlink:href="#DejaVuSans-2212"/>
       <use xlink:href="#DejaVuSans-31" x="83.789062"/>
       <use xlink:href="#DejaVuSans-30" x="147.412109"/>
       <use xlink:href="#DejaVuSans-30" x="211.035156"/>
       <use xlink:href="#DejaVuSans-30" x="274.658203"/>
       <use xlink:href="#DejaVuSans-30" x="338.28125"/>
      </g>
     </g>
    </g>
    <g id="xtick_20">
     <g id="line2d_24">
      <g>
       <use xlink:href="#me9de05713b" x="92.71097" y="268.321635" style="stroke: #000000; stroke-width: 0.8"/>
      </g>
     </g>
     <g id="text_26">
      <!-- −7500 -->
      <g transform="translate(75.796126 282.920073)scale(0.1 -0.1)">
       <use xlink:href="#DejaVuSans-2212"/>
       <use xlink:href="#DejaVuSans-37" x="83.789062"/>
       <use xlink:href="#DejaVuSans-35" x="147.412109"/>
       <use xlink:href="#DejaVuSans-30" x="211.035156"/>
       <use xlink:href="#DejaVuSans-30" x="274.658203"/>
      </g>
     </g>
    </g>
    <g id="xtick_21">
     <g id="line2d_25">
      <g>
       <use xlink:href="#me9de05713b" x="138.156635" y="268.321635" style="stroke: #000000; stroke-width: 0.8"/>
      </g>
     </g>
     <g id="text_27">
      <!-- −5000 -->
      <g transform="translate(121.241792 282.920073)scale(0.1 -0.1)">
       <use xlink:href="#DejaVuSans-2212"/>
       <use xlink:href="#DejaVuSans-35" x="83.789062"/>
       <use xlink:href="#DejaVuSans-30" x="147.412109"/>
       <use xlink:href="#DejaVuSans-30" x="211.035156"/>
       <use xlink:href="#DejaVuSans-30" x="274.658203"/>
      </g>
     </g>
    </g>
    <g id="xtick_22">
     <g id="line2d_26">
      <g>
       <use xlink:href="#me9de05713b" x="183.602301" y="268.321635" style="stroke: #000000; stroke-width: 0.8"/>
      </g>
     </g>
     <g id="text_28">
      <!-- −2500 -->
      <g transform="translate(166.687458 282.920073)scale(0.1 -0.1)">
       <use xlink:href="#DejaVuSans-2212"/>
       <use xlink:href="#DejaVuSans-32" x="83.789062"/>
       <use xlink:href="#DejaVuSans-35" x="147.412109"/>
       <use xlink:href="#DejaVuSans-30" x="211.035156"/>
       <use xlink:href="#DejaVuSans-30" x="274.658203"/>
      </g>
     </g>
    </g>
    <g id="xtick_23">
     <g id="line2d_27">
      <g>
       <use xlink:href="#me9de05713b" x="229.047967" y="268.321635" style="stroke: #000000; stroke-width: 0.8"/>
      </g>
     </g>
     <g id="text_29">
      <!-- 0 -->
      <g transform="translate(225.866717 282.920073)scale(0.1 -0.1)">
       <use xlink:href="#DejaVuSans-30"/>
      </g>
     </g>
    </g>
    <g id="xtick_24">
     <g id="line2d_28">
      <g>
       <use xlink:href="#me9de05713b" x="274.493633" y="268.321635" style="stroke: #000000; stroke-width: 0.8"/>
      </g>
     </g>
     <g id="text_30">
      <!-- 2500 -->
      <g transform="translate(261.768633 282.920073)scale(0.1 -0.1)">
       <use xlink:href="#DejaVuSans-32"/>
       <use xlink:href="#DejaVuSans-35" x="63.623047"/>
       <use xlink:href="#DejaVuSans-30" x="127.246094"/>
       <use xlink:href="#DejaVuSans-30" x="190.869141"/>
      </g>
     </g>
    </g>
    <g id="xtick_25">
     <g id="line2d_29">
      <g>
       <use xlink:href="#me9de05713b" x="319.939299" y="268.321635" style="stroke: #000000; stroke-width: 0.8"/>
      </g>
     </g>
     <g id="text_31">
      <!-- 5000 -->
      <g transform="translate(307.214299 282.920073)scale(0.1 -0.1)">
       <use xlink:href="#DejaVuSans-35"/>
       <use xlink:href="#DejaVuSans-30" x="63.623047"/>
       <use xlink:href="#DejaVuSans-30" x="127.246094"/>
       <use xlink:href="#DejaVuSans-30" x="190.869141"/>
      </g>
     </g>
    </g>
    <g id="xtick_26">
     <g id="line2d_30">
      <g>
       <use xlink:href="#me9de05713b" x="365.384965" y="268.321635" style="stroke: #000000; stroke-width: 0.8"/>
      </g>
     </g>
     <g id="text_32">
      <!-- 7500 -->
      <g transform="translate(352.659965 282.920073)scale(0.1 -0.1)">
       <use xlink:href="#DejaVuSans-37"/>
       <use xlink:href="#DejaVuSans-35" x="63.623047"/>
       <use xlink:href="#DejaVuSans-30" x="127.246094"/>
       <use xlink:href="#DejaVuSans-30" x="190.869141"/>
      </g>
     </g>
    </g>
    <g id="xtick_27">
     <g id="line2d_31">
      <g>
       <use xlink:href="#me9de05713b" x="410.830631" y="268.321635" style="stroke: #000000; stroke-width: 0.8"/>
      </g>
     </g>
     <g id="text_33">
      <!-- 10000 -->
      <g transform="translate(394.924381 282.920073)scale(0.1 -0.1)">
       <use xlink:href="#DejaVuSans-31"/>
       <use xlink:href="#DejaVuSans-30" x="63.623047"/>
       <use xlink:href="#DejaVuSans-30" x="127.246094"/>
       <use xlink:href="#DejaVuSans-30" x="190.869141"/>
       <use xlink:href="#DejaVuSans-30" x="254.492188"/>
      </g>
     </g>
    </g>
   </g>
   <g id="matplotlib.axis_6">
    <g id="ytick_5">
     <g id="line2d_32">
      <g>
       <use xlink:href="#m23b0bcdb14" x="29.08774" y="268.321635" style="stroke: #000000; stroke-width: 0.8"/>
      </g>
     </g>
     <g id="text_34">
      <!-- 0 -->
      <g transform="translate(15.72524 272.120854)scale(0.1 -0.1)">
       <use xlink:href="#DejaVuSans-30"/>
      </g>
     </g>
    </g>
    <g id="ytick_6">
     <g id="line2d_33">
      <g>
       <use xlink:href="#m23b0bcdb14" x="29.08774" y="227.990884" style="stroke: #000000; stroke-width: 0.8"/>
      </g>
     </g>
     <g id="text_35">
      <!-- 500 -->
      <g transform="translate(3.00024 231.790102)scale(0.1 -0.1)">
       <use xlink:href="#DejaVuSans-35"/>
       <use xlink:href="#DejaVuSans-30" x="63.623047"/>
       <use xlink:href="#DejaVuSans-30" x="127.246094"/>
      </g>
     </g>
    </g>
   </g>
   <g id="patch_313">
    <path d="M 29.08774 268.321635 
L 29.08774 216.149775 
" style="fill: none; stroke: #000000; stroke-width: 0.8; stroke-linejoin: miter; stroke-linecap: square"/>
   </g>
   <g id="patch_314">
    <path d="M 428.99976 268.321635 
L 428.99976 216.149775 
" style="fill: none; stroke: #000000; stroke-width: 0.8; stroke-linejoin: miter; stroke-linecap: square"/>
   </g>
   <g id="patch_315">
    <path d="M 29.08774 268.321635 
L 428.99976 268.321635 
" style="fill: none; stroke: #000000; stroke-width: 0.8; stroke-linejoin: miter; stroke-linecap: square"/>
   </g>
   <g id="patch_316">
    <path d="M 29.08774 216.149775 
L 428.99976 216.149775 
" style="fill: none; stroke: #000000; stroke-width: 0.8; stroke-linejoin: miter; stroke-linecap: square"/>
   </g>
   <g id="text_36">
    <!-- $A_\tau$ -->
    <g transform="translate(222.20375 210.149775)scale(0.12 -0.12)">
     <defs>
      <path id="DejaVuSans-Oblique-3c4" d="M 2103 638 
Q 2188 488 2525 488 
L 2800 488 
L 2706 0 
L 2363 0 
Q 1800 0 1600 300 
Q 1403 606 1534 1269 
L 1856 2925 
L 541 2925 
L 653 3500 
L 3881 3500 
L 3769 2925 
L 2444 2925 
L 2113 1234 
Q 2025 781 2103 638 
z
" transform="scale(0.015625)"/>
     </defs>
     <use xlink:href="#DejaVuSans-Oblique-41" transform="translate(0 0.09375)"/>
     <use xlink:href="#DejaVuSans-Oblique-3c4" transform="translate(68.408203 -16.3125)scale(0.7)"/>
    </g>
   </g>
  </g>
  <g id="text_37">
   <!-- Histogramme des paramètres A -->
   <g transform="translate(120.220313 12.598365)scale(0.12 -0.12)">
    <defs>
     <path id="DejaVuSans-48" d="M 628 4666 
L 1259 4666 
L 1259 2753 
L 3553 2753 
L 3553 4666 
L 4184 4666 
L 4184 0 
L 3553 0 
L 3553 2222 
L 1259 2222 
L 1259 0 
L 628 0 
L 628 4666 
z
" transform="scale(0.015625)"/>
     <path id="DejaVuSans-69" d="M 603 3500 
L 1178 3500 
L 1178 0 
L 603 0 
L 603 3500 
z
M 603 4863 
L 1178 4863 
L 1178 4134 
L 603 4134 
L 603 4863 
z
" transform="scale(0.015625)"/>
     <path id="DejaVuSans-73" d="M 2834 3397 
L 2834 2853 
Q 2591 2978 2328 3040 
Q 2066 3103 1784 3103 
Q 1356 3103 1142 2972 
Q 928 2841 928 2578 
Q 928 2378 1081 2264 
Q 1234 2150 1697 2047 
L 1894 2003 
Q 2506 1872 2764 1633 
Q 3022 1394 3022 966 
Q 3022 478 2636 193 
Q 2250 -91 1575 -91 
Q 1294 -91 989 -36 
Q 684 19 347 128 
L 347 722 
Q 666 556 975 473 
Q 1284 391 1588 391 
Q 1994 391 2212 530 
Q 2431 669 2431 922 
Q 2431 1156 2273 1281 
Q 2116 1406 1581 1522 
L 1381 1569 
Q 847 1681 609 1914 
Q 372 2147 372 2553 
Q 372 3047 722 3315 
Q 1072 3584 1716 3584 
Q 2034 3584 2315 3537 
Q 2597 3491 2834 3397 
z
" transform="scale(0.015625)"/>
     <path id="DejaVuSans-74" d="M 1172 4494 
L 1172 3500 
L 2356 3500 
L 2356 3053 
L 1172 3053 
L 1172 1153 
Q 1172 725 1289 603 
Q 1406 481 1766 481 
L 2356 481 
L 2356 0 
L 1766 0 
Q 1100 0 847 248 
Q 594 497 594 1153 
L 594 3053 
L 172 3053 
L 172 3500 
L 594 3500 
L 594 4494 
L 1172 4494 
z
" transform="scale(0.015625)"/>
     <path id="DejaVuSans-6f" d="M 1959 3097 
Q 1497 3097 1228 2736 
Q 959 2375 959 1747 
Q 959 1119 1226 758 
Q 1494 397 1959 397 
Q 2419 397 2687 759 
Q 2956 1122 2956 1747 
Q 2956 2369 2687 2733 
Q 2419 3097 1959 3097 
z
M 1959 3584 
Q 2709 3584 3137 3096 
Q 3566 2609 3566 1747 
Q 3566 888 3137 398 
Q 2709 -91 1959 -91 
Q 1206 -91 779 398 
Q 353 888 353 1747 
Q 353 2609 779 3096 
Q 1206 3584 1959 3584 
z
" transform="scale(0.015625)"/>
     <path id="DejaVuSans-67" d="M 2906 1791 
Q 2906 2416 2648 2759 
Q 2391 3103 1925 3103 
Q 1463 3103 1205 2759 
Q 947 2416 947 1791 
Q 947 1169 1205 825 
Q 1463 481 1925 481 
Q 2391 481 2648 825 
Q 2906 1169 2906 1791 
z
M 3481 434 
Q 3481 -459 3084 -895 
Q 2688 -1331 1869 -1331 
Q 1566 -1331 1297 -1286 
Q 1028 -1241 775 -1147 
L 775 -588 
Q 1028 -725 1275 -790 
Q 1522 -856 1778 -856 
Q 2344 -856 2625 -561 
Q 2906 -266 2906 331 
L 2906 616 
Q 2728 306 2450 153 
Q 2172 0 1784 0 
Q 1141 0 747 490 
Q 353 981 353 1791 
Q 353 2603 747 3093 
Q 1141 3584 1784 3584 
Q 2172 3584 2450 3431 
Q 2728 3278 2906 2969 
L 2906 3500 
L 3481 3500 
L 3481 434 
z
" transform="scale(0.015625)"/>
     <path id="DejaVuSans-72" d="M 2631 2963 
Q 2534 3019 2420 3045 
Q 2306 3072 2169 3072 
Q 1681 3072 1420 2755 
Q 1159 2438 1159 1844 
L 1159 0 
L 581 0 
L 581 3500 
L 1159 3500 
L 1159 2956 
Q 1341 3275 1631 3429 
Q 1922 3584 2338 3584 
Q 2397 3584 2469 3576 
Q 2541 3569 2628 3553 
L 2631 2963 
z
" transform="scale(0.015625)"/>
     <path id="DejaVuSans-61" d="M 2194 1759 
Q 1497 1759 1228 1600 
Q 959 1441 959 1056 
Q 959 750 1161 570 
Q 1363 391 1709 391 
Q 2188 391 2477 730 
Q 2766 1069 2766 1631 
L 2766 1759 
L 2194 1759 
z
M 3341 1997 
L 3341 0 
L 2766 0 
L 2766 531 
Q 2569 213 2275 61 
Q 1981 -91 1556 -91 
Q 1019 -91 701 211 
Q 384 513 384 1019 
Q 384 1609 779 1909 
Q 1175 2209 1959 2209 
L 2766 2209 
L 2766 2266 
Q 2766 2663 2505 2880 
Q 2244 3097 1772 3097 
Q 1472 3097 1187 3025 
Q 903 2953 641 2809 
L 641 3341 
Q 956 3463 1253 3523 
Q 1550 3584 1831 3584 
Q 2591 3584 2966 3190 
Q 3341 2797 3341 1997 
z
" transform="scale(0.015625)"/>
     <path id="DejaVuSans-6d" d="M 3328 2828 
Q 3544 3216 3844 3400 
Q 4144 3584 4550 3584 
Q 5097 3584 5394 3201 
Q 5691 2819 5691 2113 
L 5691 0 
L 5113 0 
L 5113 2094 
Q 5113 2597 4934 2840 
Q 4756 3084 4391 3084 
Q 3944 3084 3684 2787 
Q 3425 2491 3425 1978 
L 3425 0 
L 2847 0 
L 2847 2094 
Q 2847 2600 2669 2842 
Q 2491 3084 2119 3084 
Q 1678 3084 1418 2786 
Q 1159 2488 1159 1978 
L 1159 0 
L 581 0 
L 581 3500 
L 1159 3500 
L 1159 2956 
Q 1356 3278 1631 3431 
Q 1906 3584 2284 3584 
Q 2666 3584 2933 3390 
Q 3200 3197 3328 2828 
z
" transform="scale(0.015625)"/>
     <path id="DejaVuSans-65" d="M 3597 1894 
L 3597 1613 
L 953 1613 
Q 991 1019 1311 708 
Q 1631 397 2203 397 
Q 2534 397 2845 478 
Q 3156 559 3463 722 
L 3463 178 
Q 3153 47 2828 -22 
Q 2503 -91 2169 -91 
Q 1331 -91 842 396 
Q 353 884 353 1716 
Q 353 2575 817 3079 
Q 1281 3584 2069 3584 
Q 2775 3584 3186 3129 
Q 3597 2675 3597 1894 
z
M 3022 2063 
Q 3016 2534 2758 2815 
Q 2500 3097 2075 3097 
Q 1594 3097 1305 2825 
Q 1016 2553 972 2059 
L 3022 2063 
z
" transform="scale(0.015625)"/>
     <path id="DejaVuSans-20" transform="scale(0.015625)"/>
     <path id="DejaVuSans-64" d="M 2906 2969 
L 2906 4863 
L 3481 4863 
L 3481 0 
L 2906 0 
L 2906 525 
Q 2725 213 2448 61 
Q 2172 -91 1784 -91 
Q 1150 -91 751 415 
Q 353 922 353 1747 
Q 353 2572 751 3078 
Q 1150 3584 1784 3584 
Q 2172 3584 2448 3432 
Q 2725 3281 2906 2969 
z
M 947 1747 
Q 947 1113 1208 752 
Q 1469 391 1925 391 
Q 2381 391 2643 752 
Q 2906 1113 2906 1747 
Q 2906 2381 2643 2742 
Q 2381 3103 1925 3103 
Q 1469 3103 1208 2742 
Q 947 2381 947 1747 
z
" transform="scale(0.015625)"/>
     <path id="DejaVuSans-70" d="M 1159 525 
L 1159 -1331 
L 581 -1331 
L 581 3500 
L 1159 3500 
L 1159 2969 
Q 1341 3281 1617 3432 
Q 1894 3584 2278 3584 
Q 2916 3584 3314 3078 
Q 3713 2572 3713 1747 
Q 3713 922 3314 415 
Q 2916 -91 2278 -91 
Q 1894 -91 1617 61 
Q 1341 213 1159 525 
z
M 3116 1747 
Q 3116 2381 2855 2742 
Q 2594 3103 2138 3103 
Q 1681 3103 1420 2742 
Q 1159 2381 1159 1747 
Q 1159 1113 1420 752 
Q 1681 391 2138 391 
Q 2594 391 2855 752 
Q 3116 1113 3116 1747 
z
" transform="scale(0.015625)"/>
     <path id="DejaVuSans-e8" d="M 3597 1894 
L 3597 1613 
L 953 1613 
Q 991 1019 1311 708 
Q 1631 397 2203 397 
Q 2534 397 2845 478 
Q 3156 559 3463 722 
L 3463 178 
Q 3153 47 2828 -22 
Q 2503 -91 2169 -91 
Q 1331 -91 842 396 
Q 353 884 353 1716 
Q 353 2575 817 3079 
Q 1281 3584 2069 3584 
Q 2775 3584 3186 3129 
Q 3597 2675 3597 1894 
z
M 3022 2063 
Q 3016 2534 2758 2815 
Q 2500 3097 2075 3097 
Q 1594 3097 1305 2825 
Q 1016 2553 972 2059 
L 3022 2063 
z
M 1579 5119 
L 2460 3950 
L 1982 3950 
L 963 5119 
L 1579 5119 
z
" transform="scale(0.015625)"/>
     <path id="DejaVuSans-41" d="M 2188 4044 
L 1331 1722 
L 3047 1722 
L 2188 4044 
z
M 1831 4666 
L 2547 4666 
L 4325 0 
L 3669 0 
L 3244 1197 
L 1141 1197 
L 716 0 
L 50 0 
L 1831 4666 
z
" transform="scale(0.015625)"/>
    </defs>
    <use xlink:href="#DejaVuSans-48"/>
    <use xlink:href="#DejaVuSans-69" x="75.195312"/>
    <use xlink:href="#DejaVuSans-73" x="102.978516"/>
    <use xlink:href="#DejaVuSans-74" x="155.078125"/>
    <use xlink:href="#DejaVuSans-6f" x="194.287109"/>
    <use xlink:href="#DejaVuSans-67" x="255.46875"/>
    <use xlink:href="#DejaVuSans-72" x="318.945312"/>
    <use xlink:href="#DejaVuSans-61" x="360.058594"/>
    <use xlink:href="#DejaVuSans-6d" x="421.337891"/>
    <use xlink:href="#DejaVuSans-6d" x="518.75"/>
    <use xlink:href="#DejaVuSans-65" x="616.162109"/>
    <use xlink:href="#DejaVuSans-20" x="677.685547"/>
    <use xlink:href="#DejaVuSans-64" x="709.472656"/>
    <use xlink:href="#DejaVuSans-65" x="772.949219"/>
    <use xlink:href="#DejaVuSans-73" x="834.472656"/>
    <use xlink:href="#DejaVuSans-20" x="886.572266"/>
    <use xlink:href="#DejaVuSans-70" x="918.359375"/>
    <use xlink:href="#DejaVuSans-61" x="981.835938"/>
    <use xlink:href="#DejaVuSans-72" x="1043.115234"/>
    <use xlink:href="#DejaVuSans-61" x="1084.228516"/>
    <use xlink:href="#DejaVuSans-6d" x="1145.507812"/>
    <use xlink:href="#DejaVuSans-e8" x="1242.919922"/>
    <use xlink:href="#DejaVuSans-74" x="1304.443359"/>
    <use xlink:href="#DejaVuSans-72" x="1343.652344"/>
    <use xlink:href="#DejaVuSans-65" x="1382.515625"/>
    <use xlink:href="#DejaVuSans-73" x="1444.039062"/>
    <use xlink:href="#DejaVuSans-20" x="1496.138672"/>
    <use xlink:href="#DejaVuSans-41" x="1527.925781"/>
   </g>
  </g>
  <g id="text_38">
   <!-- Masse (GeV) -->
   <g transform="translate(184.474219 302.4)scale(0.1 -0.1)">
    <defs>
     <path id="DejaVuSans-4d" d="M 628 4666 
L 1569 4666 
L 2759 1491 
L 3956 4666 
L 4897 4666 
L 4897 0 
L 4281 0 
L 4281 4097 
L 3078 897 
L 2444 897 
L 1241 4097 
L 1241 0 
L 628 0 
L 628 4666 
z
" transform="scale(0.015625)"/>
     <path id="DejaVuSans-28" d="M 1984 4856 
Q 1566 4138 1362 3434 
Q 1159 2731 1159 2009 
Q 1159 1288 1364 580 
Q 1569 -128 1984 -844 
L 1484 -844 
Q 1016 -109 783 600 
Q 550 1309 550 2009 
Q 550 2706 781 3412 
Q 1013 4119 1484 4856 
L 1984 4856 
z
" transform="scale(0.015625)"/>
     <path id="DejaVuSans-47" d="M 3809 666 
L 3809 1919 
L 2778 1919 
L 2778 2438 
L 4434 2438 
L 4434 434 
Q 4069 175 3628 42 
Q 3188 -91 2688 -91 
Q 1594 -91 976 548 
Q 359 1188 359 2328 
Q 359 3472 976 4111 
Q 1594 4750 2688 4750 
Q 3144 4750 3555 4637 
Q 3966 4525 4313 4306 
L 4313 3634 
Q 3963 3931 3569 4081 
Q 3175 4231 2741 4231 
Q 1884 4231 1454 3753 
Q 1025 3275 1025 2328 
Q 1025 1384 1454 906 
Q 1884 428 2741 428 
Q 3075 428 3337 486 
Q 3600 544 3809 666 
z
" transform="scale(0.015625)"/>
     <path id="DejaVuSans-56" d="M 1831 0 
L 50 4666 
L 709 4666 
L 2188 738 
L 3669 4666 
L 4325 4666 
L 2547 0 
L 1831 0 
z
" transform="scale(0.015625)"/>
     <path id="DejaVuSans-29" d="M 513 4856 
L 1013 4856 
Q 1481 4119 1714 3412 
Q 1947 2706 1947 2009 
Q 1947 1309 1714 600 
Q 1481 -109 1013 -844 
L 513 -844 
Q 928 -128 1133 580 
Q 1338 1288 1338 2009 
Q 1338 2731 1133 3434 
Q 928 4138 513 4856 
z
" transform="scale(0.015625)"/>
    </defs>
    <use xlink:href="#DejaVuSans-4d"/>
    <use xlink:href="#DejaVuSans-61" x="86.279297"/>
    <use xlink:href="#DejaVuSans-73" x="147.558594"/>
    <use xlink:href="#DejaVuSans-73" x="199.658203"/>
    <use xlink:href="#DejaVuSans-65" x="251.757812"/>
    <use xlink:href="#DejaVuSans-20" x="313.28125"/>
    <use xlink:href="#DejaVuSans-28" x="345.068359"/>
    <use xlink:href="#DejaVuSans-47" x="384.082031"/>
    <use xlink:href="#DejaVuSans-65" x="461.572266"/>
    <use xlink:href="#DejaVuSans-56" x="523.095703"/>
    <use xlink:href="#DejaVuSans-29" x="591.503906"/>
   </g>
  </g>
  <g id="text_39">
   <!-- N -->
   <g transform="translate(-9.681563 147.740625)rotate(-90)scale(0.1 -0.1)">
    <defs>
     <path id="DejaVuSans-4e" d="M 628 4666 
L 1478 4666 
L 3547 763 
L 3547 4666 
L 4159 4666 
L 4159 0 
L 3309 0 
L 1241 3903 
L 1241 0 
L 628 0 
L 628 4666 
z
" transform="scale(0.015625)"/>
    </defs>
    <use xlink:href="#DejaVuSans-4e"/>
   </g>
  </g>
 </g>
 <defs>
  <clipPath id="pa041104ab1">
   <rect x="29.08774" y="36.212595" width="399.91202" height="52.17186"/>
  </clipPath>
  <clipPath id="p1d4bf69560">
   <rect x="29.08774" y="126.181185" width="399.91202" height="52.17186"/>
  </clipPath>
  <clipPath id="pfe9caa8b0d">
   <rect x="29.08774" y="216.149775" width="399.91202" height="52.17186"/>
  </clipPath>
 </defs>
</svg>
