<?xml version="1.0" encoding="utf-8" standalone="no"?>
<!DOCTYPE svg PUBLIC "-//W3C//DTD SVG 1.1//EN"
  "http://www.w3.org/Graphics/SVG/1.1/DTD/svg11.dtd">
<svg xmlns:xlink="http://www.w3.org/1999/xlink" width="378.336687pt" height="264.128055pt" viewBox="0 0 378.336687 264.128055" xmlns="http://www.w3.org/2000/svg" version="1.1">
 <metadata>
  <rdf:RDF xmlns:dc="http://purl.org/dc/elements/1.1/" xmlns:cc="http://creativecommons.org/ns#" xmlns:rdf="http://www.w3.org/1999/02/22-rdf-syntax-ns#">
   <cc:Work>
    <dc:type rdf:resource="http://purl.org/dc/dcmitype/StillImage"/>
    <dc:date>2022-06-09T10:22:45.223512</dc:date>
    <dc:format>image/svg+xml</dc:format>
    <dc:creator>
     <cc:Agent>
      <dc:title>Matplotlib v3.5.2, https://matplotlib.org/</dc:title>
     </cc:Agent>
    </dc:creator>
   </cc:Work>
  </rdf:RDF>
 </metadata>
 <defs>
  <style type="text/css">*{stroke-linejoin: round; stroke-linecap: butt}</style>
 </defs>
 <g id="figure_1">
  <g id="patch_1">
   <path d="M 0 264.128055 
L 378.336687 264.128055 
L 378.336687 0 
L 0 0 
L 0 264.128055 
z
" style="fill: none"/>
  </g>
  <g id="axes_1">
   <g id="patch_2">
    <path d="M 39.936687 235.205242 
L 374.736687 235.205242 
L 374.736687 17.765242 
L 39.936687 17.765242 
z
" style="fill: #ffffff"/>
   </g>
   <g id="patch_3">
    <path d="M 55.154868 235.205242 
L 58.198505 235.205242 
L 58.198505 219.756574 
L 55.154868 219.756574 
z
" clip-path="url(#p46268573b8)" style="fill: #0000ff"/>
   </g>
   <g id="patch_4">
    <path d="M 58.198505 235.205242 
L 61.242141 235.205242 
L 61.242141 218.10136 
L 58.198505 218.10136 
z
" clip-path="url(#p46268573b8)" style="fill: #0000ff"/>
   </g>
   <g id="patch_5">
    <path d="M 61.242141 235.205242 
L 64.285778 235.205242 
L 64.285778 216.446145 
L 61.242141 216.446145 
z
" clip-path="url(#p46268573b8)" style="fill: #0000ff"/>
   </g>
   <g id="patch_6">
    <path d="M 64.285778 235.205242 
L 67.329414 235.205242 
L 67.329414 215.434626 
L 64.285778 215.434626 
z
" clip-path="url(#p46268573b8)" style="fill: #0000ff"/>
   </g>
   <g id="patch_7">
    <path d="M 67.329414 235.205242 
L 70.37305 235.205242 
L 70.37305 213.963324 
L 67.329414 213.963324 
z
" clip-path="url(#p46268573b8)" style="fill: #0000ff"/>
   </g>
   <g id="patch_8">
    <path d="M 70.37305 235.205242 
L 73.416687 235.205242 
L 73.416687 216.630058 
L 70.37305 216.630058 
z
" clip-path="url(#p46268573b8)" style="fill: #0000ff"/>
   </g>
   <g id="patch_9">
    <path d="M 73.416687 235.205242 
L 76.460323 235.205242 
L 76.460323 213.963324 
L 73.416687 213.963324 
z
" clip-path="url(#p46268573b8)" style="fill: #0000ff"/>
   </g>
   <g id="patch_10">
    <path d="M 76.460323 235.205242 
L 79.503959 235.205242 
L 79.503959 216.262233 
L 76.460323 216.262233 
z
" clip-path="url(#p46268573b8)" style="fill: #0000ff"/>
   </g>
   <g id="patch_11">
    <path d="M 79.503959 235.205242 
L 82.547596 235.205242 
L 82.547596 213.227673 
L 79.503959 213.227673 
z
" clip-path="url(#p46268573b8)" style="fill: #0000ff"/>
   </g>
   <g id="patch_12">
    <path d="M 82.547596 235.205242 
L 85.591232 235.205242 
L 85.591232 211.480502 
L 82.547596 211.480502 
z
" clip-path="url(#p46268573b8)" style="fill: #0000ff"/>
   </g>
   <g id="patch_13">
    <path d="M 85.591232 235.205242 
L 88.634868 235.205242 
L 88.634868 210.009201 
L 85.591232 210.009201 
z
" clip-path="url(#p46268573b8)" style="fill: #0000ff"/>
   </g>
   <g id="patch_14">
    <path d="M 88.634868 235.205242 
L 91.678505 235.205242 
L 91.678505 207.710292 
L 88.634868 207.710292 
z
" clip-path="url(#p46268573b8)" style="fill: #0000ff"/>
   </g>
   <g id="patch_15">
    <path d="M 91.678505 235.205242 
L 94.722141 235.205242 
L 94.722141 211.480502 
L 91.678505 211.480502 
z
" clip-path="url(#p46268573b8)" style="fill: #0000ff"/>
   </g>
   <g id="patch_16">
    <path d="M 94.722141 235.205242 
L 97.765778 235.205242 
L 97.765778 206.974641 
L 94.722141 206.974641 
z
" clip-path="url(#p46268573b8)" style="fill: #0000ff"/>
   </g>
   <g id="patch_17">
    <path d="M 97.765778 235.205242 
L 100.809414 235.205242 
L 100.809414 207.066597 
L 97.765778 207.066597 
z
" clip-path="url(#p46268573b8)" style="fill: #0000ff"/>
   </g>
   <g id="patch_18">
    <path d="M 100.809414 235.205242 
L 103.85305 235.205242 
L 103.85305 204.675732 
L 100.809414 204.675732 
z
" clip-path="url(#p46268573b8)" style="fill: #0000ff"/>
   </g>
   <g id="patch_19">
    <path d="M 103.85305 235.205242 
L 106.896687 235.205242 
L 106.896687 205.779208 
L 103.85305 205.779208 
z
" clip-path="url(#p46268573b8)" style="fill: #0000ff"/>
   </g>
   <g id="patch_20">
    <path d="M 106.896687 235.205242 
L 109.940323 235.205242 
L 109.940323 204.583776 
L 106.896687 204.583776 
z
" clip-path="url(#p46268573b8)" style="fill: #0000ff"/>
   </g>
   <g id="patch_21">
    <path d="M 109.940323 235.205242 
L 112.983959 235.205242 
L 112.983959 205.503339 
L 109.940323 205.503339 
z
" clip-path="url(#p46268573b8)" style="fill: #0000ff"/>
   </g>
   <g id="patch_22">
    <path d="M 112.983959 235.205242 
L 116.027596 235.205242 
L 116.027596 203.940081 
L 112.983959 203.940081 
z
" clip-path="url(#p46268573b8)" style="fill: #0000ff"/>
   </g>
   <g id="patch_23">
    <path d="M 116.027596 235.205242 
L 119.071232 235.205242 
L 119.071232 203.388343 
L 116.027596 203.388343 
z
" clip-path="url(#p46268573b8)" style="fill: #0000ff"/>
   </g>
   <g id="patch_24">
    <path d="M 119.071232 235.205242 
L 122.114868 235.205242 
L 122.114868 198.790525 
L 119.071232 198.790525 
z
" clip-path="url(#p46268573b8)" style="fill: #0000ff"/>
   </g>
   <g id="patch_25">
    <path d="M 122.114868 235.205242 
L 125.158505 235.205242 
L 125.158505 201.273347 
L 122.114868 201.273347 
z
" clip-path="url(#p46268573b8)" style="fill: #0000ff"/>
   </g>
   <g id="patch_26">
    <path d="M 125.158505 235.205242 
L 128.202141 235.205242 
L 128.202141 201.089434 
L 125.158505 201.089434 
z
" clip-path="url(#p46268573b8)" style="fill: #0000ff"/>
   </g>
   <g id="patch_27">
    <path d="M 128.202141 235.205242 
L 131.245778 235.205242 
L 131.245778 200.629652 
L 128.202141 200.629652 
z
" clip-path="url(#p46268573b8)" style="fill: #0000ff"/>
   </g>
   <g id="patch_28">
    <path d="M 131.245778 235.205242 
L 134.289414 235.205242 
L 134.289414 200.353783 
L 131.245778 200.353783 
z
" clip-path="url(#p46268573b8)" style="fill: #0000ff"/>
   </g>
   <g id="patch_29">
    <path d="M 134.289414 235.205242 
L 137.33305 235.205242 
L 137.33305 199.526176 
L 134.289414 199.526176 
z
" clip-path="url(#p46268573b8)" style="fill: #0000ff"/>
   </g>
   <g id="patch_30">
    <path d="M 137.33305 235.205242 
L 140.376687 235.205242 
L 140.376687 197.595092 
L 137.33305 197.595092 
z
" clip-path="url(#p46268573b8)" style="fill: #0000ff"/>
   </g>
   <g id="patch_31">
    <path d="M 140.376687 235.205242 
L 143.420323 235.205242 
L 143.420323 194.284664 
L 140.376687 194.284664 
z
" clip-path="url(#p46268573b8)" style="fill: #0000ff"/>
   </g>
   <g id="patch_32">
    <path d="M 143.420323 235.205242 
L 146.463959 235.205242 
L 146.463959 198.698569 
L 143.420323 198.698569 
z
" clip-path="url(#p46268573b8)" style="fill: #0000ff"/>
   </g>
   <g id="patch_33">
    <path d="M 146.463959 235.205242 
L 149.507596 235.205242 
L 149.507596 197.779005 
L 146.463959 197.779005 
z
" clip-path="url(#p46268573b8)" style="fill: #0000ff"/>
   </g>
   <g id="patch_34">
    <path d="M 149.507596 235.205242 
L 152.551232 235.205242 
L 152.551232 194.928358 
L 149.507596 194.928358 
z
" clip-path="url(#p46268573b8)" style="fill: #0000ff"/>
   </g>
   <g id="patch_35">
    <path d="M 152.551232 235.205242 
L 155.594868 235.205242 
L 155.594868 196.123791 
L 152.551232 196.123791 
z
" clip-path="url(#p46268573b8)" style="fill: #0000ff"/>
   </g>
   <g id="patch_36">
    <path d="M 155.594868 235.205242 
L 158.638505 235.205242 
L 158.638505 196.491616 
L 155.594868 196.491616 
z
" clip-path="url(#p46268573b8)" style="fill: #0000ff"/>
   </g>
   <g id="patch_37">
    <path d="M 158.638505 235.205242 
L 161.682141 235.205242 
L 161.682141 197.687049 
L 158.638505 197.687049 
z
" clip-path="url(#p46268573b8)" style="fill: #0000ff"/>
   </g>
   <g id="patch_38">
    <path d="M 161.682141 235.205242 
L 164.725778 235.205242 
L 164.725778 196.123791 
L 161.682141 196.123791 
z
" clip-path="url(#p46268573b8)" style="fill: #0000ff"/>
   </g>
   <g id="patch_39">
    <path d="M 164.725778 235.205242 
L 167.769414 235.205242 
L 167.769414 195.572053 
L 164.725778 195.572053 
z
" clip-path="url(#p46268573b8)" style="fill: #0000ff"/>
   </g>
   <g id="patch_40">
    <path d="M 167.769414 235.205242 
L 170.81305 235.205242 
L 170.81305 194.008795 
L 167.769414 194.008795 
z
" clip-path="url(#p46268573b8)" style="fill: #0000ff"/>
   </g>
   <g id="patch_41">
    <path d="M 170.81305 235.205242 
L 173.856687 235.205242 
L 173.856687 193.089231 
L 170.81305 193.089231 
z
" clip-path="url(#p46268573b8)" style="fill: #0000ff"/>
   </g>
   <g id="patch_42">
    <path d="M 173.856687 235.205242 
L 176.900323 235.205242 
L 176.900323 192.721406 
L 173.856687 192.721406 
z
" clip-path="url(#p46268573b8)" style="fill: #0000ff"/>
   </g>
   <g id="patch_43">
    <path d="M 176.900323 235.205242 
L 179.943959 235.205242 
L 179.943959 191.801842 
L 176.900323 191.801842 
z
" clip-path="url(#p46268573b8)" style="fill: #0000ff"/>
   </g>
   <g id="patch_44">
    <path d="M 179.943959 235.205242 
L 182.987596 235.205242 
L 182.987596 190.882278 
L 179.943959 190.882278 
z
" clip-path="url(#p46268573b8)" style="fill: #0000ff"/>
   </g>
   <g id="patch_45">
    <path d="M 182.987596 235.205242 
L 186.031232 235.205242 
L 186.031232 188.58337 
L 182.987596 188.58337 
z
" clip-path="url(#p46268573b8)" style="fill: #0000ff"/>
   </g>
   <g id="patch_46">
    <path d="M 186.031232 235.205242 
L 189.074868 235.205242 
L 189.074868 186.100548 
L 186.031232 186.100548 
z
" clip-path="url(#p46268573b8)" style="fill: #0000ff"/>
   </g>
   <g id="patch_47">
    <path d="M 189.074868 235.205242 
L 192.118505 235.205242 
L 192.118505 180.307297 
L 189.074868 180.307297 
z
" clip-path="url(#p46268573b8)" style="fill: #0000ff"/>
   </g>
   <g id="patch_48">
    <path d="M 192.118505 235.205242 
L 195.162141 235.205242 
L 195.162141 163.295372 
L 192.118505 163.295372 
z
" clip-path="url(#p46268573b8)" style="fill: #0000ff"/>
   </g>
   <g id="patch_49">
    <path d="M 195.162141 235.205242 
L 198.205778 235.205242 
L 198.205778 134.972814 
L 195.162141 134.972814 
z
" clip-path="url(#p46268573b8)" style="fill: #0000ff"/>
   </g>
   <g id="patch_50">
    <path d="M 198.205778 235.205242 
L 201.249414 235.205242 
L 201.249414 100.765049 
L 198.205778 100.765049 
z
" clip-path="url(#p46268573b8)" style="fill: #0000ff"/>
   </g>
   <g id="patch_51">
    <path d="M 201.249414 235.205242 
L 204.29305 235.205242 
L 204.29305 55.154697 
L 201.249414 55.154697 
z
" clip-path="url(#p46268573b8)" style="fill: #0000ff"/>
   </g>
   <g id="patch_52">
    <path d="M 204.29305 235.205242 
L 207.336687 235.205242 
L 207.336687 28.119528 
L 204.29305 28.119528 
z
" clip-path="url(#p46268573b8)" style="fill: #0000ff"/>
   </g>
   <g id="patch_53">
    <path d="M 207.336687 235.205242 
L 210.380323 235.205242 
L 210.380323 31.705826 
L 207.336687 31.705826 
z
" clip-path="url(#p46268573b8)" style="fill: #0000ff"/>
   </g>
   <g id="patch_54">
    <path d="M 210.380323 235.205242 
L 213.423959 235.205242 
L 213.423959 46.786668 
L 210.380323 46.786668 
z
" clip-path="url(#p46268573b8)" style="fill: #0000ff"/>
   </g>
   <g id="patch_55">
    <path d="M 213.423959 235.205242 
L 216.467596 235.205242 
L 216.467596 90.925719 
L 213.423959 90.925719 
z
" clip-path="url(#p46268573b8)" style="fill: #0000ff"/>
   </g>
   <g id="patch_56">
    <path d="M 216.467596 235.205242 
L 219.511232 235.205242 
L 219.511232 128.535869 
L 216.467596 128.535869 
z
" clip-path="url(#p46268573b8)" style="fill: #0000ff"/>
   </g>
   <g id="patch_57">
    <path d="M 219.511232 235.205242 
L 222.554868 235.205242 
L 222.554868 151.433002 
L 219.511232 151.433002 
z
" clip-path="url(#p46268573b8)" style="fill: #0000ff"/>
   </g>
   <g id="patch_58">
    <path d="M 222.554868 235.205242 
L 225.598505 235.205242 
L 225.598505 171.111662 
L 222.554868 171.111662 
z
" clip-path="url(#p46268573b8)" style="fill: #0000ff"/>
   </g>
   <g id="patch_59">
    <path d="M 225.598505 235.205242 
L 228.642141 235.205242 
L 228.642141 177.640563 
L 225.598505 177.640563 
z
" clip-path="url(#p46268573b8)" style="fill: #0000ff"/>
   </g>
   <g id="patch_60">
    <path d="M 228.642141 235.205242 
L 231.685778 235.205242 
L 231.685778 177.916432 
L 228.642141 177.916432 
z
" clip-path="url(#p46268573b8)" style="fill: #0000ff"/>
   </g>
   <g id="patch_61">
    <path d="M 231.685778 235.205242 
L 234.729414 235.205242 
L 234.729414 186.100548 
L 231.685778 186.100548 
z
" clip-path="url(#p46268573b8)" style="fill: #0000ff"/>
   </g>
   <g id="patch_62">
    <path d="M 234.729414 235.205242 
L 237.77305 235.205242 
L 237.77305 185.916635 
L 234.729414 185.916635 
z
" clip-path="url(#p46268573b8)" style="fill: #0000ff"/>
   </g>
   <g id="patch_63">
    <path d="M 237.77305 235.205242 
L 240.816687 235.205242 
L 240.816687 184.813159 
L 237.77305 184.813159 
z
" clip-path="url(#p46268573b8)" style="fill: #0000ff"/>
   </g>
   <g id="patch_64">
    <path d="M 240.816687 235.205242 
L 243.860323 235.205242 
L 243.860323 186.836199 
L 240.816687 186.836199 
z
" clip-path="url(#p46268573b8)" style="fill: #0000ff"/>
   </g>
   <g id="patch_65">
    <path d="M 243.860323 235.205242 
L 246.903959 235.205242 
L 246.903959 189.870759 
L 243.860323 189.870759 
z
" clip-path="url(#p46268573b8)" style="fill: #0000ff"/>
   </g>
   <g id="patch_66">
    <path d="M 246.903959 235.205242 
L 249.947596 235.205242 
L 249.947596 187.387937 
L 246.903959 187.387937 
z
" clip-path="url(#p46268573b8)" style="fill: #0000ff"/>
   </g>
   <g id="patch_67">
    <path d="M 249.947596 235.205242 
L 252.991232 235.205242 
L 252.991232 187.204024 
L 249.947596 187.204024 
z
" clip-path="url(#p46268573b8)" style="fill: #0000ff"/>
   </g>
   <g id="patch_68">
    <path d="M 252.991232 235.205242 
L 256.034868 235.205242 
L 256.034868 191.709886 
L 252.991232 191.709886 
z
" clip-path="url(#p46268573b8)" style="fill: #0000ff"/>
   </g>
   <g id="patch_69">
    <path d="M 256.034868 235.205242 
L 259.078505 235.205242 
L 259.078505 190.974235 
L 256.034868 190.974235 
z
" clip-path="url(#p46268573b8)" style="fill: #0000ff"/>
   </g>
   <g id="patch_70">
    <path d="M 259.078505 235.205242 
L 262.122141 235.205242 
L 262.122141 187.387937 
L 259.078505 187.387937 
z
" clip-path="url(#p46268573b8)" style="fill: #0000ff"/>
   </g>
   <g id="patch_71">
    <path d="M 262.122141 235.205242 
L 265.165778 235.205242 
L 265.165778 189.962715 
L 262.122141 189.962715 
z
" clip-path="url(#p46268573b8)" style="fill: #0000ff"/>
   </g>
   <g id="patch_72">
    <path d="M 265.165778 235.205242 
L 268.209414 235.205242 
L 268.209414 187.663806 
L 265.165778 187.663806 
z
" clip-path="url(#p46268573b8)" style="fill: #0000ff"/>
   </g>
   <g id="patch_73">
    <path d="M 268.209414 235.205242 
L 271.25305 235.205242 
L 271.25305 187.479893 
L 268.209414 187.479893 
z
" clip-path="url(#p46268573b8)" style="fill: #0000ff"/>
   </g>
   <g id="patch_74">
    <path d="M 271.25305 235.205242 
L 274.296687 235.205242 
L 274.296687 192.997275 
L 271.25305 192.997275 
z
" clip-path="url(#p46268573b8)" style="fill: #0000ff"/>
   </g>
   <g id="patch_75">
    <path d="M 274.296687 235.205242 
L 277.340323 235.205242 
L 277.340323 193.181187 
L 274.296687 193.181187 
z
" clip-path="url(#p46268573b8)" style="fill: #0000ff"/>
   </g>
   <g id="patch_76">
    <path d="M 277.340323 235.205242 
L 280.383959 235.205242 
L 280.383959 194.192707 
L 277.340323 194.192707 
z
" clip-path="url(#p46268573b8)" style="fill: #0000ff"/>
   </g>
   <g id="patch_77">
    <path d="M 280.383959 235.205242 
L 283.427596 235.205242 
L 283.427596 195.664009 
L 280.383959 195.664009 
z
" clip-path="url(#p46268573b8)" style="fill: #0000ff"/>
   </g>
   <g id="patch_78">
    <path d="M 283.427596 235.205242 
L 286.471232 235.205242 
L 286.471232 189.594889 
L 283.427596 189.594889 
z
" clip-path="url(#p46268573b8)" style="fill: #0000ff"/>
   </g>
   <g id="patch_79">
    <path d="M 286.471232 235.205242 
L 289.514868 235.205242 
L 289.514868 196.951398 
L 286.471232 196.951398 
z
" clip-path="url(#p46268573b8)" style="fill: #0000ff"/>
   </g>
   <g id="patch_80">
    <path d="M 289.514868 235.205242 
L 292.558505 235.205242 
L 292.558505 197.779005 
L 289.514868 197.779005 
z
" clip-path="url(#p46268573b8)" style="fill: #0000ff"/>
   </g>
   <g id="patch_81">
    <path d="M 292.558505 235.205242 
L 295.602141 235.205242 
L 295.602141 194.652489 
L 292.558505 194.652489 
z
" clip-path="url(#p46268573b8)" style="fill: #0000ff"/>
   </g>
   <g id="patch_82">
    <path d="M 295.602141 235.205242 
L 298.645778 235.205242 
L 298.645778 194.37662 
L 295.602141 194.37662 
z
" clip-path="url(#p46268573b8)" style="fill: #0000ff"/>
   </g>
   <g id="patch_83">
    <path d="M 298.645778 235.205242 
L 301.689414 235.205242 
L 301.689414 199.894001 
L 298.645778 199.894001 
z
" clip-path="url(#p46268573b8)" style="fill: #0000ff"/>
   </g>
   <g id="patch_84">
    <path d="M 301.689414 235.205242 
L 304.73305 235.205242 
L 304.73305 198.238787 
L 301.689414 198.238787 
z
" clip-path="url(#p46268573b8)" style="fill: #0000ff"/>
   </g>
   <g id="patch_85">
    <path d="M 304.73305 235.205242 
L 307.776687 235.205242 
L 307.776687 200.445739 
L 304.73305 200.445739 
z
" clip-path="url(#p46268573b8)" style="fill: #0000ff"/>
   </g>
   <g id="patch_86">
    <path d="M 307.776687 235.205242 
L 310.820323 235.205242 
L 310.820323 202.928561 
L 307.776687 202.928561 
z
" clip-path="url(#p46268573b8)" style="fill: #0000ff"/>
   </g>
   <g id="patch_87">
    <path d="M 310.820323 235.205242 
L 313.863959 235.205242 
L 313.863959 203.572256 
L 310.820323 203.572256 
z
" clip-path="url(#p46268573b8)" style="fill: #0000ff"/>
   </g>
   <g id="patch_88">
    <path d="M 313.863959 235.205242 
L 316.907596 235.205242 
L 316.907596 205.043557 
L 313.863959 205.043557 
z
" clip-path="url(#p46268573b8)" style="fill: #0000ff"/>
   </g>
   <g id="patch_89">
    <path d="M 316.907596 235.205242 
L 319.951232 235.205242 
L 319.951232 204.399863 
L 316.907596 204.399863 
z
" clip-path="url(#p46268573b8)" style="fill: #0000ff"/>
   </g>
   <g id="patch_90">
    <path d="M 319.951232 235.205242 
L 322.994868 235.205242 
L 322.994868 208.997681 
L 319.951232 208.997681 
z
" clip-path="url(#p46268573b8)" style="fill: #0000ff"/>
   </g>
   <g id="patch_91">
    <path d="M 322.994868 235.205242 
L 326.038505 235.205242 
L 326.038505 205.871165 
L 322.994868 205.871165 
z
" clip-path="url(#p46268573b8)" style="fill: #0000ff"/>
   </g>
   <g id="patch_92">
    <path d="M 326.038505 235.205242 
L 329.082141 235.205242 
L 329.082141 206.422903 
L 326.038505 206.422903 
z
" clip-path="url(#p46268573b8)" style="fill: #0000ff"/>
   </g>
   <g id="patch_93">
    <path d="M 329.082141 235.205242 
L 332.125778 235.205242 
L 332.125778 210.377026 
L 329.082141 210.377026 
z
" clip-path="url(#p46268573b8)" style="fill: #0000ff"/>
   </g>
   <g id="patch_94">
    <path d="M 332.125778 235.205242 
L 335.169414 235.205242 
L 335.169414 210.377026 
L 332.125778 210.377026 
z
" clip-path="url(#p46268573b8)" style="fill: #0000ff"/>
   </g>
   <g id="patch_95">
    <path d="M 335.169414 235.205242 
L 338.21305 235.205242 
L 338.21305 210.652895 
L 335.169414 210.652895 
z
" clip-path="url(#p46268573b8)" style="fill: #0000ff"/>
   </g>
   <g id="patch_96">
    <path d="M 338.21305 235.205242 
L 341.256687 235.205242 
L 341.256687 214.790931 
L 338.21305 214.790931 
z
" clip-path="url(#p46268573b8)" style="fill: #0000ff"/>
   </g>
   <g id="patch_97">
    <path d="M 341.256687 235.205242 
L 344.300323 235.205242 
L 344.300323 214.607018 
L 341.256687 214.607018 
z
" clip-path="url(#p46268573b8)" style="fill: #0000ff"/>
   </g>
   <g id="patch_98">
    <path d="M 344.300323 235.205242 
L 347.343959 235.205242 
L 347.343959 211.756371 
L 344.300323 211.756371 
z
" clip-path="url(#p46268573b8)" style="fill: #0000ff"/>
   </g>
   <g id="patch_99">
    <path d="M 347.343959 235.205242 
L 350.387596 235.205242 
L 350.387596 213.04376 
L 347.343959 213.04376 
z
" clip-path="url(#p46268573b8)" style="fill: #0000ff"/>
   </g>
   <g id="patch_100">
    <path d="M 350.387596 235.205242 
L 353.431232 235.205242 
L 353.431232 216.813971 
L 350.387596 216.813971 
z
" clip-path="url(#p46268573b8)" style="fill: #0000ff"/>
   </g>
   <g id="patch_101">
    <path d="M 353.431232 235.205242 
L 356.474868 235.205242 
L 356.474868 215.618538 
L 353.431232 215.618538 
z
" clip-path="url(#p46268573b8)" style="fill: #0000ff"/>
   </g>
   <g id="patch_102">
    <path d="M 356.474868 235.205242 
L 359.518505 235.205242 
L 359.518505 217.825491 
L 356.474868 217.825491 
z
" clip-path="url(#p46268573b8)" style="fill: #0000ff"/>
   </g>
   <g id="matplotlib.axis_1">
    <g id="xtick_1">
     <g id="line2d_1">
      <defs>
       <path id="m1b95f0466b" d="M 0 0 
L 0 -3 
" style="stroke: #000000; stroke-width: 0.5"/>
      </defs>
      <g>
       <use xlink:href="#m1b95f0466b" x="55.114796" y="235.205242" style="stroke: #000000; stroke-width: 0.5"/>
      </g>
     </g>
     <g id="line2d_2">
      <defs>
       <path id="m9b19dd8b90" d="M 0 0 
L 0 3 
" style="stroke: #000000; stroke-width: 0.5"/>
      </defs>
      <g>
       <use xlink:href="#m9b19dd8b90" x="55.114796" y="17.765242" style="stroke: #000000; stroke-width: 0.5"/>
      </g>
     </g>
     <g id="text_1">
      <!-- $\mathdefault{−10000}$ -->
      <g transform="translate(38.791061 245.45982)scale(0.1 -0.1)">
       <defs>
        <path id="CMSY10-0" d="M 4218 1472 
C 4326 1472 4442 1472 4442 1600 
C 4442 1728 4326 1728 4218 1728 
L 755 1728 
C 646 1728 531 1728 531 1600 
C 531 1472 646 1472 755 1472 
L 4218 1472 
z
" transform="scale(0.015625)"/>
        <path id="NimbusRomNo9L-Regu-31" d="M 1862 4339 
L 710 3757 
L 710 3667 
C 787 3699 858 3725 883 3738 
C 998 3783 1107 3808 1171 3808 
C 1306 3808 1363 3711 1363 3505 
L 1363 592 
C 1363 379 1312 232 1210 173 
C 1114 116 1024 96 755 96 
L 755 0 
L 2522 0 
L 2522 96 
C 2016 96 1914 160 1914 470 
L 1914 4327 
L 1862 4339 
z
" transform="scale(0.015625)"/>
        <path id="NimbusRomNo9L-Regu-30" d="M 1626 4352 
C 1274 4352 1005 4244 768 4020 
C 397 3661 154 2925 154 2176 
C 154 1479 365 730 666 372 
C 902 90 1229 -64 1600 -64 
C 1926 -64 2202 45 2432 269 
C 2803 621 3046 1364 3046 2138 
C 3046 3450 2464 4352 1626 4352 
z
M 1606 4186 
C 2144 4186 2432 3463 2432 2125 
C 2432 788 2150 103 1600 103 
C 1050 103 768 788 768 2119 
C 768 3476 1056 4186 1606 4186 
z
" transform="scale(0.015625)"/>
       </defs>
       <use xlink:href="#CMSY10-0" transform="scale(0.996264)"/>
       <use xlink:href="#NimbusRomNo9L-Regu-31" transform="translate(77.408707 0)scale(0.996264)"/>
       <use xlink:href="#NimbusRomNo9L-Regu-30" transform="translate(127.221908 0)scale(0.996264)"/>
       <use xlink:href="#NimbusRomNo9L-Regu-30" transform="translate(177.035108 0)scale(0.996264)"/>
       <use xlink:href="#NimbusRomNo9L-Regu-30" transform="translate(226.848309 0)scale(0.996264)"/>
       <use xlink:href="#NimbusRomNo9L-Regu-30" transform="translate(276.661509 0)scale(0.996264)"/>
      </g>
     </g>
    </g>
    <g id="xtick_2">
     <g id="line2d_3">
      <g>
       <use xlink:href="#m1b95f0466b" x="93.165426" y="235.205242" style="stroke: #000000; stroke-width: 0.5"/>
      </g>
     </g>
     <g id="line2d_4">
      <g>
       <use xlink:href="#m9b19dd8b90" x="93.165426" y="17.765242" style="stroke: #000000; stroke-width: 0.5"/>
      </g>
     </g>
     <g id="text_2">
      <!-- $\mathdefault{−7500}$ -->
      <g transform="translate(79.332351 245.45982)scale(0.1 -0.1)">
       <defs>
        <path id="NimbusRomNo9L-Regu-37" d="M 2874 4250 
L 506 4250 
L 128 3310 
L 237 3258 
C 512 3693 627 3776 979 3776 
L 2368 3776 
L 1101 -32 
L 1517 -32 
L 2874 4148 
L 2874 4250 
z
" transform="scale(0.015625)"/>
        <path id="NimbusRomNo9L-Regu-35" d="M 1158 3776 
L 2413 3776 
C 2515 3776 2541 3789 2560 3834 
L 2803 4403 
L 2746 4448 
C 2650 4314 2586 4282 2451 4282 
L 1114 4282 
L 416 2759 
C 410 2746 410 2740 410 2727 
C 410 2695 435 2676 486 2676 
C 691 2676 947 2631 1210 2547 
C 1946 2309 2285 1910 2285 1274 
C 2285 656 1894 173 1395 173 
C 1267 173 1158 218 966 360 
C 762 508 614 572 480 572 
C 294 572 205 495 205 334 
C 205 90 506 -64 986 -64 
C 1523 -64 1984 110 2304 438 
C 2598 728 2733 1094 2733 1583 
C 2733 2046 2611 2342 2291 2663 
C 2010 2947 1645 3094 890 3229 
L 1158 3776 
z
" transform="scale(0.015625)"/>
       </defs>
       <use xlink:href="#CMSY10-0" transform="scale(0.996264)"/>
       <use xlink:href="#NimbusRomNo9L-Regu-37" transform="translate(77.408707 0)scale(0.996264)"/>
       <use xlink:href="#NimbusRomNo9L-Regu-35" transform="translate(127.221908 0)scale(0.996264)"/>
       <use xlink:href="#NimbusRomNo9L-Regu-30" transform="translate(177.035108 0)scale(0.996264)"/>
       <use xlink:href="#NimbusRomNo9L-Regu-30" transform="translate(226.848309 0)scale(0.996264)"/>
      </g>
     </g>
    </g>
    <g id="xtick_3">
     <g id="line2d_5">
      <g>
       <use xlink:href="#m1b95f0466b" x="131.216055" y="235.205242" style="stroke: #000000; stroke-width: 0.5"/>
      </g>
     </g>
     <g id="line2d_6">
      <g>
       <use xlink:href="#m9b19dd8b90" x="131.216055" y="17.765242" style="stroke: #000000; stroke-width: 0.5"/>
      </g>
     </g>
     <g id="text_3">
      <!-- $\mathdefault{−5000}$ -->
      <g transform="translate(117.382981 245.45982)scale(0.1 -0.1)">
       <use xlink:href="#CMSY10-0" transform="scale(0.996264)"/>
       <use xlink:href="#NimbusRomNo9L-Regu-35" transform="translate(77.408707 0)scale(0.996264)"/>
       <use xlink:href="#NimbusRomNo9L-Regu-30" transform="translate(127.221908 0)scale(0.996264)"/>
       <use xlink:href="#NimbusRomNo9L-Regu-30" transform="translate(177.035108 0)scale(0.996264)"/>
       <use xlink:href="#NimbusRomNo9L-Regu-30" transform="translate(226.848309 0)scale(0.996264)"/>
      </g>
     </g>
    </g>
    <g id="xtick_4">
     <g id="line2d_7">
      <g>
       <use xlink:href="#m1b95f0466b" x="169.266685" y="235.205242" style="stroke: #000000; stroke-width: 0.5"/>
      </g>
     </g>
     <g id="line2d_8">
      <g>
       <use xlink:href="#m9b19dd8b90" x="169.266685" y="17.765242" style="stroke: #000000; stroke-width: 0.5"/>
      </g>
     </g>
     <g id="text_4">
      <!-- $\mathdefault{−2500}$ -->
      <g transform="translate(155.433611 245.45982)scale(0.1 -0.1)">
       <defs>
        <path id="NimbusRomNo9L-Regu-32" d="M 3040 875 
L 2957 907 
C 2720 544 2637 486 2349 486 
L 819 486 
L 1894 1609 
C 2464 2202 2714 2687 2714 3185 
C 2714 3823 2195 4313 1530 4313 
C 1178 4313 845 4173 608 3918 
C 403 3700 307 3496 198 3043 
L 333 3011 
C 589 3636 819 3840 1261 3840 
C 1798 3840 2163 3476 2163 2940 
C 2163 2443 1869 1850 1331 1282 
L 192 77 
L 192 0 
L 2688 0 
L 3040 875 
z
" transform="scale(0.015625)"/>
       </defs>
       <use xlink:href="#CMSY10-0" transform="scale(0.996264)"/>
       <use xlink:href="#NimbusRomNo9L-Regu-32" transform="translate(77.408707 0)scale(0.996264)"/>
       <use xlink:href="#NimbusRomNo9L-Regu-35" transform="translate(127.221908 0)scale(0.996264)"/>
       <use xlink:href="#NimbusRomNo9L-Regu-30" transform="translate(177.035108 0)scale(0.996264)"/>
       <use xlink:href="#NimbusRomNo9L-Regu-30" transform="translate(226.848309 0)scale(0.996264)"/>
      </g>
     </g>
    </g>
    <g id="xtick_5">
     <g id="line2d_9">
      <g>
       <use xlink:href="#m1b95f0466b" x="207.317315" y="235.205242" style="stroke: #000000; stroke-width: 0.5"/>
      </g>
     </g>
     <g id="line2d_10">
      <g>
       <use xlink:href="#m9b19dd8b90" x="207.317315" y="17.765242" style="stroke: #000000; stroke-width: 0.5"/>
      </g>
     </g>
     <g id="text_5">
      <!-- $\mathdefault{0}$ -->
      <g transform="translate(204.826655 245.45982)scale(0.1 -0.1)">
       <use xlink:href="#NimbusRomNo9L-Regu-30" transform="scale(0.996264)"/>
      </g>
     </g>
    </g>
    <g id="xtick_6">
     <g id="line2d_11">
      <g>
       <use xlink:href="#m1b95f0466b" x="245.367945" y="235.205242" style="stroke: #000000; stroke-width: 0.5"/>
      </g>
     </g>
     <g id="line2d_12">
      <g>
       <use xlink:href="#m9b19dd8b90" x="245.367945" y="17.765242" style="stroke: #000000; stroke-width: 0.5"/>
      </g>
     </g>
     <g id="text_6">
      <!-- $\mathdefault{2500}$ -->
      <g transform="translate(235.405305 245.45982)scale(0.1 -0.1)">
       <use xlink:href="#NimbusRomNo9L-Regu-32" transform="scale(0.996264)"/>
       <use xlink:href="#NimbusRomNo9L-Regu-35" transform="translate(49.8132 0)scale(0.996264)"/>
       <use xlink:href="#NimbusRomNo9L-Regu-30" transform="translate(99.626401 0)scale(0.996264)"/>
       <use xlink:href="#NimbusRomNo9L-Regu-30" transform="translate(149.439601 0)scale(0.996264)"/>
      </g>
     </g>
    </g>
    <g id="xtick_7">
     <g id="line2d_13">
      <g>
       <use xlink:href="#m1b95f0466b" x="283.418575" y="235.205242" style="stroke: #000000; stroke-width: 0.5"/>
      </g>
     </g>
     <g id="line2d_14">
      <g>
       <use xlink:href="#m9b19dd8b90" x="283.418575" y="17.765242" style="stroke: #000000; stroke-width: 0.5"/>
      </g>
     </g>
     <g id="text_7">
      <!-- $\mathdefault{5000}$ -->
      <g transform="translate(273.455935 245.45982)scale(0.1 -0.1)">
       <use xlink:href="#NimbusRomNo9L-Regu-35" transform="scale(0.996264)"/>
       <use xlink:href="#NimbusRomNo9L-Regu-30" transform="translate(49.8132 0)scale(0.996264)"/>
       <use xlink:href="#NimbusRomNo9L-Regu-30" transform="translate(99.626401 0)scale(0.996264)"/>
       <use xlink:href="#NimbusRomNo9L-Regu-30" transform="translate(149.439601 0)scale(0.996264)"/>
      </g>
     </g>
    </g>
    <g id="xtick_8">
     <g id="line2d_15">
      <g>
       <use xlink:href="#m1b95f0466b" x="321.469205" y="235.205242" style="stroke: #000000; stroke-width: 0.5"/>
      </g>
     </g>
     <g id="line2d_16">
      <g>
       <use xlink:href="#m9b19dd8b90" x="321.469205" y="17.765242" style="stroke: #000000; stroke-width: 0.5"/>
      </g>
     </g>
     <g id="text_8">
      <!-- $\mathdefault{7500}$ -->
      <g transform="translate(311.506564 245.45982)scale(0.1 -0.1)">
       <use xlink:href="#NimbusRomNo9L-Regu-37" transform="scale(0.996264)"/>
       <use xlink:href="#NimbusRomNo9L-Regu-35" transform="translate(49.8132 0)scale(0.996264)"/>
       <use xlink:href="#NimbusRomNo9L-Regu-30" transform="translate(99.626401 0)scale(0.996264)"/>
       <use xlink:href="#NimbusRomNo9L-Regu-30" transform="translate(149.439601 0)scale(0.996264)"/>
      </g>
     </g>
    </g>
    <g id="xtick_9">
     <g id="line2d_17">
      <g>
       <use xlink:href="#m1b95f0466b" x="359.519834" y="235.205242" style="stroke: #000000; stroke-width: 0.5"/>
      </g>
     </g>
     <g id="line2d_18">
      <g>
       <use xlink:href="#m9b19dd8b90" x="359.519834" y="17.765242" style="stroke: #000000; stroke-width: 0.5"/>
      </g>
     </g>
     <g id="text_9">
      <!-- $\mathdefault{10000}$ -->
      <g transform="translate(347.066534 245.45982)scale(0.1 -0.1)">
       <use xlink:href="#NimbusRomNo9L-Regu-31" transform="scale(0.996264)"/>
       <use xlink:href="#NimbusRomNo9L-Regu-30" transform="translate(49.8132 0)scale(0.996264)"/>
       <use xlink:href="#NimbusRomNo9L-Regu-30" transform="translate(99.626401 0)scale(0.996264)"/>
       <use xlink:href="#NimbusRomNo9L-Regu-30" transform="translate(149.439601 0)scale(0.996264)"/>
       <use xlink:href="#NimbusRomNo9L-Regu-30" transform="translate(199.252802 0)scale(0.996264)"/>
      </g>
     </g>
    </g>
    <g id="xtick_10">
     <g id="line2d_19">
      <defs>
       <path id="m776d0c5216" d="M 0 0 
L 0 -1.5 
" style="stroke: #000000; stroke-width: 0.5"/>
      </defs>
      <g>
       <use xlink:href="#m776d0c5216" x="47.50467" y="235.205242" style="stroke: #000000; stroke-width: 0.5"/>
      </g>
     </g>
     <g id="line2d_20">
      <defs>
       <path id="m4f3c234ead" d="M 0 0 
L 0 1.5 
" style="stroke: #000000; stroke-width: 0.5"/>
      </defs>
      <g>
       <use xlink:href="#m4f3c234ead" x="47.50467" y="17.765242" style="stroke: #000000; stroke-width: 0.5"/>
      </g>
     </g>
    </g>
    <g id="xtick_11">
     <g id="line2d_21">
      <g>
       <use xlink:href="#m776d0c5216" x="62.724922" y="235.205242" style="stroke: #000000; stroke-width: 0.5"/>
      </g>
     </g>
     <g id="line2d_22">
      <g>
       <use xlink:href="#m4f3c234ead" x="62.724922" y="17.765242" style="stroke: #000000; stroke-width: 0.5"/>
      </g>
     </g>
    </g>
    <g id="xtick_12">
     <g id="line2d_23">
      <g>
       <use xlink:href="#m776d0c5216" x="70.335048" y="235.205242" style="stroke: #000000; stroke-width: 0.5"/>
      </g>
     </g>
     <g id="line2d_24">
      <g>
       <use xlink:href="#m4f3c234ead" x="70.335048" y="17.765242" style="stroke: #000000; stroke-width: 0.5"/>
      </g>
     </g>
    </g>
    <g id="xtick_13">
     <g id="line2d_25">
      <g>
       <use xlink:href="#m776d0c5216" x="77.945174" y="235.205242" style="stroke: #000000; stroke-width: 0.5"/>
      </g>
     </g>
     <g id="line2d_26">
      <g>
       <use xlink:href="#m4f3c234ead" x="77.945174" y="17.765242" style="stroke: #000000; stroke-width: 0.5"/>
      </g>
     </g>
    </g>
    <g id="xtick_14">
     <g id="line2d_27">
      <g>
       <use xlink:href="#m776d0c5216" x="85.5553" y="235.205242" style="stroke: #000000; stroke-width: 0.5"/>
      </g>
     </g>
     <g id="line2d_28">
      <g>
       <use xlink:href="#m4f3c234ead" x="85.5553" y="17.765242" style="stroke: #000000; stroke-width: 0.5"/>
      </g>
     </g>
    </g>
    <g id="xtick_15">
     <g id="line2d_29">
      <g>
       <use xlink:href="#m776d0c5216" x="100.775552" y="235.205242" style="stroke: #000000; stroke-width: 0.5"/>
      </g>
     </g>
     <g id="line2d_30">
      <g>
       <use xlink:href="#m4f3c234ead" x="100.775552" y="17.765242" style="stroke: #000000; stroke-width: 0.5"/>
      </g>
     </g>
    </g>
    <g id="xtick_16">
     <g id="line2d_31">
      <g>
       <use xlink:href="#m776d0c5216" x="108.385678" y="235.205242" style="stroke: #000000; stroke-width: 0.5"/>
      </g>
     </g>
     <g id="line2d_32">
      <g>
       <use xlink:href="#m4f3c234ead" x="108.385678" y="17.765242" style="stroke: #000000; stroke-width: 0.5"/>
      </g>
     </g>
    </g>
    <g id="xtick_17">
     <g id="line2d_33">
      <g>
       <use xlink:href="#m776d0c5216" x="115.995804" y="235.205242" style="stroke: #000000; stroke-width: 0.5"/>
      </g>
     </g>
     <g id="line2d_34">
      <g>
       <use xlink:href="#m4f3c234ead" x="115.995804" y="17.765242" style="stroke: #000000; stroke-width: 0.5"/>
      </g>
     </g>
    </g>
    <g id="xtick_18">
     <g id="line2d_35">
      <g>
       <use xlink:href="#m776d0c5216" x="123.60593" y="235.205242" style="stroke: #000000; stroke-width: 0.5"/>
      </g>
     </g>
     <g id="line2d_36">
      <g>
       <use xlink:href="#m4f3c234ead" x="123.60593" y="17.765242" style="stroke: #000000; stroke-width: 0.5"/>
      </g>
     </g>
    </g>
    <g id="xtick_19">
     <g id="line2d_37">
      <g>
       <use xlink:href="#m776d0c5216" x="138.826181" y="235.205242" style="stroke: #000000; stroke-width: 0.5"/>
      </g>
     </g>
     <g id="line2d_38">
      <g>
       <use xlink:href="#m4f3c234ead" x="138.826181" y="17.765242" style="stroke: #000000; stroke-width: 0.5"/>
      </g>
     </g>
    </g>
    <g id="xtick_20">
     <g id="line2d_39">
      <g>
       <use xlink:href="#m776d0c5216" x="146.436307" y="235.205242" style="stroke: #000000; stroke-width: 0.5"/>
      </g>
     </g>
     <g id="line2d_40">
      <g>
       <use xlink:href="#m4f3c234ead" x="146.436307" y="17.765242" style="stroke: #000000; stroke-width: 0.5"/>
      </g>
     </g>
    </g>
    <g id="xtick_21">
     <g id="line2d_41">
      <g>
       <use xlink:href="#m776d0c5216" x="154.046433" y="235.205242" style="stroke: #000000; stroke-width: 0.5"/>
      </g>
     </g>
     <g id="line2d_42">
      <g>
       <use xlink:href="#m4f3c234ead" x="154.046433" y="17.765242" style="stroke: #000000; stroke-width: 0.5"/>
      </g>
     </g>
    </g>
    <g id="xtick_22">
     <g id="line2d_43">
      <g>
       <use xlink:href="#m776d0c5216" x="161.656559" y="235.205242" style="stroke: #000000; stroke-width: 0.5"/>
      </g>
     </g>
     <g id="line2d_44">
      <g>
       <use xlink:href="#m4f3c234ead" x="161.656559" y="17.765242" style="stroke: #000000; stroke-width: 0.5"/>
      </g>
     </g>
    </g>
    <g id="xtick_23">
     <g id="line2d_45">
      <g>
       <use xlink:href="#m776d0c5216" x="176.876811" y="235.205242" style="stroke: #000000; stroke-width: 0.5"/>
      </g>
     </g>
     <g id="line2d_46">
      <g>
       <use xlink:href="#m4f3c234ead" x="176.876811" y="17.765242" style="stroke: #000000; stroke-width: 0.5"/>
      </g>
     </g>
    </g>
    <g id="xtick_24">
     <g id="line2d_47">
      <g>
       <use xlink:href="#m776d0c5216" x="184.486937" y="235.205242" style="stroke: #000000; stroke-width: 0.5"/>
      </g>
     </g>
     <g id="line2d_48">
      <g>
       <use xlink:href="#m4f3c234ead" x="184.486937" y="17.765242" style="stroke: #000000; stroke-width: 0.5"/>
      </g>
     </g>
    </g>
    <g id="xtick_25">
     <g id="line2d_49">
      <g>
       <use xlink:href="#m776d0c5216" x="192.097063" y="235.205242" style="stroke: #000000; stroke-width: 0.5"/>
      </g>
     </g>
     <g id="line2d_50">
      <g>
       <use xlink:href="#m4f3c234ead" x="192.097063" y="17.765242" style="stroke: #000000; stroke-width: 0.5"/>
      </g>
     </g>
    </g>
    <g id="xtick_26">
     <g id="line2d_51">
      <g>
       <use xlink:href="#m776d0c5216" x="199.707189" y="235.205242" style="stroke: #000000; stroke-width: 0.5"/>
      </g>
     </g>
     <g id="line2d_52">
      <g>
       <use xlink:href="#m4f3c234ead" x="199.707189" y="17.765242" style="stroke: #000000; stroke-width: 0.5"/>
      </g>
     </g>
    </g>
    <g id="xtick_27">
     <g id="line2d_53">
      <g>
       <use xlink:href="#m776d0c5216" x="214.927441" y="235.205242" style="stroke: #000000; stroke-width: 0.5"/>
      </g>
     </g>
     <g id="line2d_54">
      <g>
       <use xlink:href="#m4f3c234ead" x="214.927441" y="17.765242" style="stroke: #000000; stroke-width: 0.5"/>
      </g>
     </g>
    </g>
    <g id="xtick_28">
     <g id="line2d_55">
      <g>
       <use xlink:href="#m776d0c5216" x="222.537567" y="235.205242" style="stroke: #000000; stroke-width: 0.5"/>
      </g>
     </g>
     <g id="line2d_56">
      <g>
       <use xlink:href="#m4f3c234ead" x="222.537567" y="17.765242" style="stroke: #000000; stroke-width: 0.5"/>
      </g>
     </g>
    </g>
    <g id="xtick_29">
     <g id="line2d_57">
      <g>
       <use xlink:href="#m776d0c5216" x="230.147693" y="235.205242" style="stroke: #000000; stroke-width: 0.5"/>
      </g>
     </g>
     <g id="line2d_58">
      <g>
       <use xlink:href="#m4f3c234ead" x="230.147693" y="17.765242" style="stroke: #000000; stroke-width: 0.5"/>
      </g>
     </g>
    </g>
    <g id="xtick_30">
     <g id="line2d_59">
      <g>
       <use xlink:href="#m776d0c5216" x="237.757819" y="235.205242" style="stroke: #000000; stroke-width: 0.5"/>
      </g>
     </g>
     <g id="line2d_60">
      <g>
       <use xlink:href="#m4f3c234ead" x="237.757819" y="17.765242" style="stroke: #000000; stroke-width: 0.5"/>
      </g>
     </g>
    </g>
    <g id="xtick_31">
     <g id="line2d_61">
      <g>
       <use xlink:href="#m776d0c5216" x="252.978071" y="235.205242" style="stroke: #000000; stroke-width: 0.5"/>
      </g>
     </g>
     <g id="line2d_62">
      <g>
       <use xlink:href="#m4f3c234ead" x="252.978071" y="17.765242" style="stroke: #000000; stroke-width: 0.5"/>
      </g>
     </g>
    </g>
    <g id="xtick_32">
     <g id="line2d_63">
      <g>
       <use xlink:href="#m776d0c5216" x="260.588197" y="235.205242" style="stroke: #000000; stroke-width: 0.5"/>
      </g>
     </g>
     <g id="line2d_64">
      <g>
       <use xlink:href="#m4f3c234ead" x="260.588197" y="17.765242" style="stroke: #000000; stroke-width: 0.5"/>
      </g>
     </g>
    </g>
    <g id="xtick_33">
     <g id="line2d_65">
      <g>
       <use xlink:href="#m776d0c5216" x="268.198323" y="235.205242" style="stroke: #000000; stroke-width: 0.5"/>
      </g>
     </g>
     <g id="line2d_66">
      <g>
       <use xlink:href="#m4f3c234ead" x="268.198323" y="17.765242" style="stroke: #000000; stroke-width: 0.5"/>
      </g>
     </g>
    </g>
    <g id="xtick_34">
     <g id="line2d_67">
      <g>
       <use xlink:href="#m776d0c5216" x="275.808449" y="235.205242" style="stroke: #000000; stroke-width: 0.5"/>
      </g>
     </g>
     <g id="line2d_68">
      <g>
       <use xlink:href="#m4f3c234ead" x="275.808449" y="17.765242" style="stroke: #000000; stroke-width: 0.5"/>
      </g>
     </g>
    </g>
    <g id="xtick_35">
     <g id="line2d_69">
      <g>
       <use xlink:href="#m776d0c5216" x="291.028701" y="235.205242" style="stroke: #000000; stroke-width: 0.5"/>
      </g>
     </g>
     <g id="line2d_70">
      <g>
       <use xlink:href="#m4f3c234ead" x="291.028701" y="17.765242" style="stroke: #000000; stroke-width: 0.5"/>
      </g>
     </g>
    </g>
    <g id="xtick_36">
     <g id="line2d_71">
      <g>
       <use xlink:href="#m776d0c5216" x="298.638827" y="235.205242" style="stroke: #000000; stroke-width: 0.5"/>
      </g>
     </g>
     <g id="line2d_72">
      <g>
       <use xlink:href="#m4f3c234ead" x="298.638827" y="17.765242" style="stroke: #000000; stroke-width: 0.5"/>
      </g>
     </g>
    </g>
    <g id="xtick_37">
     <g id="line2d_73">
      <g>
       <use xlink:href="#m776d0c5216" x="306.248953" y="235.205242" style="stroke: #000000; stroke-width: 0.5"/>
      </g>
     </g>
     <g id="line2d_74">
      <g>
       <use xlink:href="#m4f3c234ead" x="306.248953" y="17.765242" style="stroke: #000000; stroke-width: 0.5"/>
      </g>
     </g>
    </g>
    <g id="xtick_38">
     <g id="line2d_75">
      <g>
       <use xlink:href="#m776d0c5216" x="313.859079" y="235.205242" style="stroke: #000000; stroke-width: 0.5"/>
      </g>
     </g>
     <g id="line2d_76">
      <g>
       <use xlink:href="#m4f3c234ead" x="313.859079" y="17.765242" style="stroke: #000000; stroke-width: 0.5"/>
      </g>
     </g>
    </g>
    <g id="xtick_39">
     <g id="line2d_77">
      <g>
       <use xlink:href="#m776d0c5216" x="329.079331" y="235.205242" style="stroke: #000000; stroke-width: 0.5"/>
      </g>
     </g>
     <g id="line2d_78">
      <g>
       <use xlink:href="#m4f3c234ead" x="329.079331" y="17.765242" style="stroke: #000000; stroke-width: 0.5"/>
      </g>
     </g>
    </g>
    <g id="xtick_40">
     <g id="line2d_79">
      <g>
       <use xlink:href="#m776d0c5216" x="336.689457" y="235.205242" style="stroke: #000000; stroke-width: 0.5"/>
      </g>
     </g>
     <g id="line2d_80">
      <g>
       <use xlink:href="#m4f3c234ead" x="336.689457" y="17.765242" style="stroke: #000000; stroke-width: 0.5"/>
      </g>
     </g>
    </g>
    <g id="xtick_41">
     <g id="line2d_81">
      <g>
       <use xlink:href="#m776d0c5216" x="344.299582" y="235.205242" style="stroke: #000000; stroke-width: 0.5"/>
      </g>
     </g>
     <g id="line2d_82">
      <g>
       <use xlink:href="#m4f3c234ead" x="344.299582" y="17.765242" style="stroke: #000000; stroke-width: 0.5"/>
      </g>
     </g>
    </g>
    <g id="xtick_42">
     <g id="line2d_83">
      <g>
       <use xlink:href="#m776d0c5216" x="351.909708" y="235.205242" style="stroke: #000000; stroke-width: 0.5"/>
      </g>
     </g>
     <g id="line2d_84">
      <g>
       <use xlink:href="#m4f3c234ead" x="351.909708" y="17.765242" style="stroke: #000000; stroke-width: 0.5"/>
      </g>
     </g>
    </g>
    <g id="xtick_43">
     <g id="line2d_85">
      <g>
       <use xlink:href="#m776d0c5216" x="367.12996" y="235.205242" style="stroke: #000000; stroke-width: 0.5"/>
      </g>
     </g>
     <g id="line2d_86">
      <g>
       <use xlink:href="#m4f3c234ead" x="367.12996" y="17.765242" style="stroke: #000000; stroke-width: 0.5"/>
      </g>
     </g>
    </g>
    <g id="text_10">
     <!-- Masse (GeV) -->
     <g transform="translate(180.642114 258.371226)scale(0.1 -0.1)">
      <defs>
       <path id="NimbusRomNo9L-Regu-4d" d="M 4314 3667 
L 4314 751 
C 4314 217 4237 134 3731 134 
L 3731 0 
L 5523 0 
L 5523 134 
C 5056 134 4966 223 4966 681 
L 4966 3536 
C 4966 3993 5050 4077 5523 4115 
L 5523 4237 
L 4250 4237 
L 2835 1004 
L 1357 4237 
L 90 4237 
L 90 4096 
C 614 4096 698 4019 698 3550 
L 698 943 
C 698 282 608 159 77 121 
L 77 0 
L 1581 0 
L 1581 134 
C 1088 134 979 282 979 931 
L 979 3520 
L 2586 0 
L 2675 0 
L 4314 3667 
z
" transform="scale(0.015625)"/>
       <path id="NimbusRomNo9L-Regu-61" d="M 2829 423 
C 2720 333 2643 301 2547 301 
C 2400 301 2355 390 2355 672 
L 2355 1920 
C 2355 2253 2323 2438 2227 2592 
C 2086 2822 1811 2944 1434 2944 
C 832 2944 358 2630 358 2227 
C 358 2080 486 1952 634 1952 
C 787 1952 922 2080 922 2221 
C 922 2246 915 2278 909 2323 
C 896 2381 890 2432 890 2477 
C 890 2650 1094 2790 1350 2790 
C 1664 2790 1837 2605 1837 2259 
L 1837 1869 
C 851 1472 742 1421 467 1178 
C 326 1050 237 832 237 621 
C 237 218 518 -64 909 -64 
C 1190 -64 1453 70 1843 403 
C 1875 70 1990 -64 2253 -64 
C 2470 -64 2605 13 2829 256 
L 2829 423 
z
M 1837 783 
C 1837 584 1805 526 1670 449 
C 1517 359 1338 301 1203 301 
C 979 301 800 520 800 796 
L 800 822 
C 800 1201 1062 1433 1837 1715 
L 1837 783 
z
" transform="scale(0.015625)"/>
       <path id="NimbusRomNo9L-Regu-73" d="M 2016 2010 
L 1990 2880 
L 1920 2880 
L 1907 2867 
C 1850 2822 1843 2816 1818 2816 
C 1779 2816 1715 2829 1645 2861 
C 1504 2915 1363 2944 1197 2944 
C 691 2944 326 2616 326 2154 
C 326 1796 531 1539 1075 1231 
L 1446 1020 
C 1670 892 1779 737 1779 539 
C 1779 256 1574 77 1248 77 
C 1030 77 832 159 710 298 
C 576 455 518 600 435 960 
L 333 960 
L 333 -39 
L 416 -39 
C 461 33 486 48 563 48 
C 621 48 710 35 858 -2 
C 1037 -39 1210 -64 1325 -64 
C 1818 -64 2227 308 2227 757 
C 2227 1077 2074 1289 1690 1520 
L 998 1930 
C 819 2033 723 2194 723 2367 
C 723 2624 922 2803 1216 2803 
C 1581 2803 1773 2583 1920 2010 
L 2016 2010 
z
" transform="scale(0.015625)"/>
       <path id="NimbusRomNo9L-Regu-65" d="M 2611 1053 
C 2304 564 2029 378 1619 378 
C 1254 378 979 564 794 930 
C 678 1174 634 1386 621 1779 
L 2592 1779 
C 2541 2193 2477 2377 2317 2581 
C 2125 2811 1830 2944 1498 2944 
C 1178 2944 877 2829 634 2611 
C 333 2349 160 1894 160 1370 
C 160 486 621 -64 1357 -64 
C 1965 -64 2445 315 2714 1008 
L 2611 1053 
z
M 634 1984 
C 704 2479 922 2714 1312 2714 
C 1702 2714 1856 2535 1939 1984 
L 634 1984 
z
" transform="scale(0.015625)"/>
       <path id="NimbusRomNo9L-Regu-28" d="M 1888 4326 
C 1414 4019 1222 3853 986 3558 
C 531 3002 307 2362 307 1613 
C 307 800 544 173 1107 -480 
C 1370 -787 1536 -928 1869 -1133 
L 1946 -1030 
C 1434 -627 1254 -403 1082 77 
C 928 506 858 992 858 1632 
C 858 2304 941 2829 1114 3226 
C 1293 3622 1485 3853 1946 4224 
L 1888 4326 
z
" transform="scale(0.015625)"/>
       <path id="NimbusRomNo9L-Regu-47" d="M 4538 2304 
L 2906 2304 
L 2906 2176 
C 3181 2176 3258 2157 3334 2105 
C 3430 2047 3469 1898 3469 1621 
L 3469 574 
C 3469 367 3078 192 2618 192 
C 1574 192 934 922 934 2112 
C 934 2714 1114 3296 1395 3610 
C 1677 3924 2074 4096 2509 4096 
C 2867 4096 3181 3975 3430 3744 
C 3622 3565 3725 3392 3885 3002 
L 4032 3002 
L 3981 4352 
L 3840 4352 
C 3802 4231 3686 4141 3552 4141 
C 3488 4141 3386 4160 3270 4205 
C 2982 4301 2688 4352 2400 4352 
C 1120 4352 205 3412 205 2106 
C 205 1479 378 999 736 621 
C 1165 180 1779 -64 2483 -64 
C 3034 -64 3834 160 4090 385 
L 4090 1694 
C 4090 2073 4166 2157 4538 2189 
L 4538 2304 
z
" transform="scale(0.015625)"/>
       <path id="NimbusRomNo9L-Regu-56" d="M 4461 4231 
L 3149 4231 
L 3149 4096 
C 3501 4096 3616 4026 3616 3846 
C 3616 3744 3571 3572 3494 3380 
L 2554 1033 
L 1587 3199 
C 1376 3667 1325 3814 1325 3910 
C 1325 4032 1414 4096 1619 4096 
C 1645 4096 1715 4096 1805 4109 
L 1805 4231 
L 102 4231 
L 102 4096 
C 416 4096 506 4007 781 3439 
L 2355 -64 
L 2451 -64 
L 3872 3521 
C 4083 4026 4154 4096 4461 4096 
L 4461 4231 
z
" transform="scale(0.015625)"/>
       <path id="NimbusRomNo9L-Regu-29" d="M 243 -1133 
C 717 -826 909 -659 1146 -365 
C 1600 192 1824 832 1824 1581 
C 1824 2400 1587 3021 1024 3674 
C 762 3981 595 4122 262 4326 
L 186 4224 
C 698 3821 870 3597 1050 3117 
C 1203 2688 1274 2202 1274 1562 
C 1274 896 1190 365 1018 -26 
C 838 -429 646 -659 186 -1030 
L 243 -1133 
z
" transform="scale(0.015625)"/>
      </defs>
      <use xlink:href="#NimbusRomNo9L-Regu-4d" transform="scale(0.996264)"/>
      <use xlink:href="#NimbusRomNo9L-Regu-61" transform="translate(88.566907 0)scale(0.996264)"/>
      <use xlink:href="#NimbusRomNo9L-Regu-73" transform="translate(132.800475 0)scale(0.996264)"/>
      <use xlink:href="#NimbusRomNo9L-Regu-73" transform="translate(171.554182 0)scale(0.996264)"/>
      <use xlink:href="#NimbusRomNo9L-Regu-65" transform="translate(210.307888 0)scale(0.996264)"/>
      <use xlink:href="#NimbusRomNo9L-Regu-28" transform="translate(279.448057 0)scale(0.996264)"/>
      <use xlink:href="#NimbusRomNo9L-Regu-47" transform="translate(312.623286 0)scale(0.996264)"/>
      <use xlink:href="#NimbusRomNo9L-Regu-65" transform="translate(384.553271 0)scale(0.996264)"/>
      <use xlink:href="#NimbusRomNo9L-Regu-56" transform="translate(428.78684 0)scale(0.996264)"/>
      <use xlink:href="#NimbusRomNo9L-Regu-29" transform="translate(500.716825 0)scale(0.996264)"/>
     </g>
    </g>
   </g>
   <g id="matplotlib.axis_2">
    <g id="ytick_1">
     <g id="line2d_87">
      <defs>
       <path id="ma1fb02f6a8" d="M 0 0 
L 3 0 
" style="stroke: #000000; stroke-width: 0.5"/>
      </defs>
      <g>
       <use xlink:href="#ma1fb02f6a8" x="39.936687" y="235.205242" style="stroke: #000000; stroke-width: 0.5"/>
      </g>
     </g>
     <g id="line2d_88">
      <defs>
       <path id="mde17dc530a" d="M 0 0 
L -3 0 
" style="stroke: #000000; stroke-width: 0.5"/>
      </defs>
      <g>
       <use xlink:href="#mde17dc530a" x="374.736687" y="235.205242" style="stroke: #000000; stroke-width: 0.5"/>
      </g>
     </g>
     <g id="text_11">
      <!-- $\mathdefault{0}$ -->
      <g transform="translate(31.455367 238.582531)scale(0.1 -0.1)">
       <use xlink:href="#NimbusRomNo9L-Regu-30" transform="scale(0.996264)"/>
      </g>
     </g>
    </g>
    <g id="ytick_2">
     <g id="line2d_89">
      <g>
       <use xlink:href="#ma1fb02f6a8" x="39.936687" y="189.227064" style="stroke: #000000; stroke-width: 0.5"/>
      </g>
     </g>
     <g id="line2d_90">
      <g>
       <use xlink:href="#mde17dc530a" x="374.736687" y="189.227064" style="stroke: #000000; stroke-width: 0.5"/>
      </g>
     </g>
     <g id="text_12">
      <!-- $\mathdefault{500}$ -->
      <g transform="translate(21.492726 192.604353)scale(0.1 -0.1)">
       <use xlink:href="#NimbusRomNo9L-Regu-35" transform="scale(0.996264)"/>
       <use xlink:href="#NimbusRomNo9L-Regu-30" transform="translate(49.8132 0)scale(0.996264)"/>
       <use xlink:href="#NimbusRomNo9L-Regu-30" transform="translate(99.626401 0)scale(0.996264)"/>
      </g>
     </g>
    </g>
    <g id="ytick_3">
     <g id="line2d_91">
      <g>
       <use xlink:href="#ma1fb02f6a8" x="39.936687" y="143.248886" style="stroke: #000000; stroke-width: 0.5"/>
      </g>
     </g>
     <g id="line2d_92">
      <g>
       <use xlink:href="#mde17dc530a" x="374.736687" y="143.248886" style="stroke: #000000; stroke-width: 0.5"/>
      </g>
     </g>
     <g id="text_13">
      <!-- $\mathdefault{1000}$ -->
      <g transform="translate(16.511406 146.626175)scale(0.1 -0.1)">
       <use xlink:href="#NimbusRomNo9L-Regu-31" transform="scale(0.996264)"/>
       <use xlink:href="#NimbusRomNo9L-Regu-30" transform="translate(49.8132 0)scale(0.996264)"/>
       <use xlink:href="#NimbusRomNo9L-Regu-30" transform="translate(99.626401 0)scale(0.996264)"/>
       <use xlink:href="#NimbusRomNo9L-Regu-30" transform="translate(149.439601 0)scale(0.996264)"/>
      </g>
     </g>
    </g>
    <g id="ytick_4">
     <g id="line2d_93">
      <g>
       <use xlink:href="#ma1fb02f6a8" x="39.936687" y="97.270708" style="stroke: #000000; stroke-width: 0.5"/>
      </g>
     </g>
     <g id="line2d_94">
      <g>
       <use xlink:href="#mde17dc530a" x="374.736687" y="97.270708" style="stroke: #000000; stroke-width: 0.5"/>
      </g>
     </g>
     <g id="text_14">
      <!-- $\mathdefault{1500}$ -->
      <g transform="translate(16.511406 100.647997)scale(0.1 -0.1)">
       <use xlink:href="#NimbusRomNo9L-Regu-31" transform="scale(0.996264)"/>
       <use xlink:href="#NimbusRomNo9L-Regu-35" transform="translate(49.8132 0)scale(0.996264)"/>
       <use xlink:href="#NimbusRomNo9L-Regu-30" transform="translate(99.626401 0)scale(0.996264)"/>
       <use xlink:href="#NimbusRomNo9L-Regu-30" transform="translate(149.439601 0)scale(0.996264)"/>
      </g>
     </g>
    </g>
    <g id="ytick_5">
     <g id="line2d_95">
      <g>
       <use xlink:href="#ma1fb02f6a8" x="39.936687" y="51.29253" style="stroke: #000000; stroke-width: 0.5"/>
      </g>
     </g>
     <g id="line2d_96">
      <g>
       <use xlink:href="#mde17dc530a" x="374.736687" y="51.29253" style="stroke: #000000; stroke-width: 0.5"/>
      </g>
     </g>
     <g id="text_15">
      <!-- $\mathdefault{2000}$ -->
      <g transform="translate(16.511406 54.669818)scale(0.1 -0.1)">
       <use xlink:href="#NimbusRomNo9L-Regu-32" transform="scale(0.996264)"/>
       <use xlink:href="#NimbusRomNo9L-Regu-30" transform="translate(49.8132 0)scale(0.996264)"/>
       <use xlink:href="#NimbusRomNo9L-Regu-30" transform="translate(99.626401 0)scale(0.996264)"/>
       <use xlink:href="#NimbusRomNo9L-Regu-30" transform="translate(149.439601 0)scale(0.996264)"/>
      </g>
     </g>
    </g>
    <g id="ytick_6">
     <g id="line2d_97">
      <defs>
       <path id="m85bb9ad7dc" d="M 0 0 
L 1.5 0 
" style="stroke: #000000; stroke-width: 0.5"/>
      </defs>
      <g>
       <use xlink:href="#m85bb9ad7dc" x="39.936687" y="226.009607" style="stroke: #000000; stroke-width: 0.5"/>
      </g>
     </g>
     <g id="line2d_98">
      <defs>
       <path id="md44e180f4d" d="M 0 0 
L -1.5 0 
" style="stroke: #000000; stroke-width: 0.5"/>
      </defs>
      <g>
       <use xlink:href="#md44e180f4d" x="374.736687" y="226.009607" style="stroke: #000000; stroke-width: 0.5"/>
      </g>
     </g>
    </g>
    <g id="ytick_7">
     <g id="line2d_99">
      <g>
       <use xlink:href="#m85bb9ad7dc" x="39.936687" y="216.813971" style="stroke: #000000; stroke-width: 0.5"/>
      </g>
     </g>
     <g id="line2d_100">
      <g>
       <use xlink:href="#md44e180f4d" x="374.736687" y="216.813971" style="stroke: #000000; stroke-width: 0.5"/>
      </g>
     </g>
    </g>
    <g id="ytick_8">
     <g id="line2d_101">
      <g>
       <use xlink:href="#m85bb9ad7dc" x="39.936687" y="207.618335" style="stroke: #000000; stroke-width: 0.5"/>
      </g>
     </g>
     <g id="line2d_102">
      <g>
       <use xlink:href="#md44e180f4d" x="374.736687" y="207.618335" style="stroke: #000000; stroke-width: 0.5"/>
      </g>
     </g>
    </g>
    <g id="ytick_9">
     <g id="line2d_103">
      <g>
       <use xlink:href="#m85bb9ad7dc" x="39.936687" y="198.4227" style="stroke: #000000; stroke-width: 0.5"/>
      </g>
     </g>
     <g id="line2d_104">
      <g>
       <use xlink:href="#md44e180f4d" x="374.736687" y="198.4227" style="stroke: #000000; stroke-width: 0.5"/>
      </g>
     </g>
    </g>
    <g id="ytick_10">
     <g id="line2d_105">
      <g>
       <use xlink:href="#m85bb9ad7dc" x="39.936687" y="180.031428" style="stroke: #000000; stroke-width: 0.5"/>
      </g>
     </g>
     <g id="line2d_106">
      <g>
       <use xlink:href="#md44e180f4d" x="374.736687" y="180.031428" style="stroke: #000000; stroke-width: 0.5"/>
      </g>
     </g>
    </g>
    <g id="ytick_11">
     <g id="line2d_107">
      <g>
       <use xlink:href="#m85bb9ad7dc" x="39.936687" y="170.835793" style="stroke: #000000; stroke-width: 0.5"/>
      </g>
     </g>
     <g id="line2d_108">
      <g>
       <use xlink:href="#md44e180f4d" x="374.736687" y="170.835793" style="stroke: #000000; stroke-width: 0.5"/>
      </g>
     </g>
    </g>
    <g id="ytick_12">
     <g id="line2d_109">
      <g>
       <use xlink:href="#m85bb9ad7dc" x="39.936687" y="161.640157" style="stroke: #000000; stroke-width: 0.5"/>
      </g>
     </g>
     <g id="line2d_110">
      <g>
       <use xlink:href="#md44e180f4d" x="374.736687" y="161.640157" style="stroke: #000000; stroke-width: 0.5"/>
      </g>
     </g>
    </g>
    <g id="ytick_13">
     <g id="line2d_111">
      <g>
       <use xlink:href="#m85bb9ad7dc" x="39.936687" y="152.444522" style="stroke: #000000; stroke-width: 0.5"/>
      </g>
     </g>
     <g id="line2d_112">
      <g>
       <use xlink:href="#md44e180f4d" x="374.736687" y="152.444522" style="stroke: #000000; stroke-width: 0.5"/>
      </g>
     </g>
    </g>
    <g id="ytick_14">
     <g id="line2d_113">
      <g>
       <use xlink:href="#m85bb9ad7dc" x="39.936687" y="134.05325" style="stroke: #000000; stroke-width: 0.5"/>
      </g>
     </g>
     <g id="line2d_114">
      <g>
       <use xlink:href="#md44e180f4d" x="374.736687" y="134.05325" style="stroke: #000000; stroke-width: 0.5"/>
      </g>
     </g>
    </g>
    <g id="ytick_15">
     <g id="line2d_115">
      <g>
       <use xlink:href="#m85bb9ad7dc" x="39.936687" y="124.857615" style="stroke: #000000; stroke-width: 0.5"/>
      </g>
     </g>
     <g id="line2d_116">
      <g>
       <use xlink:href="#md44e180f4d" x="374.736687" y="124.857615" style="stroke: #000000; stroke-width: 0.5"/>
      </g>
     </g>
    </g>
    <g id="ytick_16">
     <g id="line2d_117">
      <g>
       <use xlink:href="#m85bb9ad7dc" x="39.936687" y="115.661979" style="stroke: #000000; stroke-width: 0.5"/>
      </g>
     </g>
     <g id="line2d_118">
      <g>
       <use xlink:href="#md44e180f4d" x="374.736687" y="115.661979" style="stroke: #000000; stroke-width: 0.5"/>
      </g>
     </g>
    </g>
    <g id="ytick_17">
     <g id="line2d_119">
      <g>
       <use xlink:href="#m85bb9ad7dc" x="39.936687" y="106.466343" style="stroke: #000000; stroke-width: 0.5"/>
      </g>
     </g>
     <g id="line2d_120">
      <g>
       <use xlink:href="#md44e180f4d" x="374.736687" y="106.466343" style="stroke: #000000; stroke-width: 0.5"/>
      </g>
     </g>
    </g>
    <g id="ytick_18">
     <g id="line2d_121">
      <g>
       <use xlink:href="#m85bb9ad7dc" x="39.936687" y="88.075072" style="stroke: #000000; stroke-width: 0.5"/>
      </g>
     </g>
     <g id="line2d_122">
      <g>
       <use xlink:href="#md44e180f4d" x="374.736687" y="88.075072" style="stroke: #000000; stroke-width: 0.5"/>
      </g>
     </g>
    </g>
    <g id="ytick_19">
     <g id="line2d_123">
      <g>
       <use xlink:href="#m85bb9ad7dc" x="39.936687" y="78.879437" style="stroke: #000000; stroke-width: 0.5"/>
      </g>
     </g>
     <g id="line2d_124">
      <g>
       <use xlink:href="#md44e180f4d" x="374.736687" y="78.879437" style="stroke: #000000; stroke-width: 0.5"/>
      </g>
     </g>
    </g>
    <g id="ytick_20">
     <g id="line2d_125">
      <g>
       <use xlink:href="#m85bb9ad7dc" x="39.936687" y="69.683801" style="stroke: #000000; stroke-width: 0.5"/>
      </g>
     </g>
     <g id="line2d_126">
      <g>
       <use xlink:href="#md44e180f4d" x="374.736687" y="69.683801" style="stroke: #000000; stroke-width: 0.5"/>
      </g>
     </g>
    </g>
    <g id="ytick_21">
     <g id="line2d_127">
      <g>
       <use xlink:href="#m85bb9ad7dc" x="39.936687" y="60.488165" style="stroke: #000000; stroke-width: 0.5"/>
      </g>
     </g>
     <g id="line2d_128">
      <g>
       <use xlink:href="#md44e180f4d" x="374.736687" y="60.488165" style="stroke: #000000; stroke-width: 0.5"/>
      </g>
     </g>
    </g>
    <g id="ytick_22">
     <g id="line2d_129">
      <g>
       <use xlink:href="#m85bb9ad7dc" x="39.936687" y="42.096894" style="stroke: #000000; stroke-width: 0.5"/>
      </g>
     </g>
     <g id="line2d_130">
      <g>
       <use xlink:href="#md44e180f4d" x="374.736687" y="42.096894" style="stroke: #000000; stroke-width: 0.5"/>
      </g>
     </g>
    </g>
    <g id="ytick_23">
     <g id="line2d_131">
      <g>
       <use xlink:href="#m85bb9ad7dc" x="39.936687" y="32.901258" style="stroke: #000000; stroke-width: 0.5"/>
      </g>
     </g>
     <g id="line2d_132">
      <g>
       <use xlink:href="#md44e180f4d" x="374.736687" y="32.901258" style="stroke: #000000; stroke-width: 0.5"/>
      </g>
     </g>
    </g>
    <g id="ytick_24">
     <g id="line2d_133">
      <g>
       <use xlink:href="#m85bb9ad7dc" x="39.936687" y="23.705623" style="stroke: #000000; stroke-width: 0.5"/>
      </g>
     </g>
     <g id="line2d_134">
      <g>
       <use xlink:href="#md44e180f4d" x="374.736687" y="23.705623" style="stroke: #000000; stroke-width: 0.5"/>
      </g>
     </g>
    </g>
    <g id="text_16">
     <!-- N -->
     <g transform="translate(10.354578 130.081741)rotate(-90)scale(0.1 -0.1)">
      <defs>
       <path id="NimbusRomNo9L-Regu-4e" d="M 3917 -64 
L 3917 3287 
C 3917 3669 3981 3905 4102 3987 
C 4192 4051 4282 4077 4525 4102 
L 4525 4224 
L 3021 4224 
L 3021 4102 
C 3264 4083 3354 4057 3450 4000 
C 3578 3911 3635 3681 3635 3286 
L 3635 1136 
L 1171 4224 
L 77 4224 
L 77 4102 
C 352 4102 442 4051 698 3751 
L 698 938 
C 698 281 608 159 77 121 
L 77 0 
L 1581 0 
L 1581 134 
C 1088 134 979 281 979 928 
L 979 3439 
L 3808 -64 
L 3917 -64 
z
" transform="scale(0.015625)"/>
      </defs>
      <use xlink:href="#NimbusRomNo9L-Regu-4e" transform="scale(0.996264)"/>
     </g>
    </g>
   </g>
   <g id="patch_103">
    <path d="M 39.936687 235.205242 
L 39.936687 17.765242 
" style="fill: none; stroke: #000000; stroke-width: 0.5; stroke-linejoin: miter; stroke-linecap: square"/>
   </g>
   <g id="patch_104">
    <path d="M 374.736687 235.205242 
L 374.736687 17.765242 
" style="fill: none; stroke: #000000; stroke-width: 0.5; stroke-linejoin: miter; stroke-linecap: square"/>
   </g>
   <g id="patch_105">
    <path d="M 39.936687 235.205242 
L 374.736687 235.205242 
" style="fill: none; stroke: #000000; stroke-width: 0.5; stroke-linejoin: miter; stroke-linecap: square"/>
   </g>
   <g id="patch_106">
    <path d="M 39.936687 17.765242 
L 374.736687 17.765242 
" style="fill: none; stroke: #000000; stroke-width: 0.5; stroke-linejoin: miter; stroke-linecap: square"/>
   </g>
   <g id="text_17">
    <!-- Histogramme du paramètre $\mu$ -->
    <g transform="translate(136.843848 11.765242)scale(0.12 -0.12)">
     <defs>
      <path id="NimbusRomNo9L-Regu-48" d="M 1338 2304 
L 1338 3533 
C 1338 3990 1408 4059 1901 4104 
L 1901 4224 
L 122 4224 
L 122 4104 
C 614 4059 685 3989 685 3527 
L 685 749 
C 685 210 621 134 122 134 
L 122 0 
L 1901 0 
L 1901 121 
C 1421 159 1338 242 1338 699 
L 1338 2022 
L 3277 2022 
L 3277 757 
C 3277 211 3213 134 2714 134 
L 2714 0 
L 4493 0 
L 4493 121 
C 4013 159 3930 242 3930 696 
L 3930 3529 
C 3930 3989 4000 4059 4493 4104 
L 4493 4224 
L 2714 4224 
L 2714 4104 
C 3206 4059 3277 3990 3277 3533 
L 3277 2304 
L 1338 2304 
z
" transform="scale(0.015625)"/>
      <path id="NimbusRomNo9L-Regu-69" d="M 1120 2929 
L 128 2579 
L 128 2484 
L 179 2490 
C 256 2502 339 2509 397 2509 
C 550 2509 608 2406 608 2125 
L 608 640 
C 608 179 544 109 102 109 
L 102 0 
L 1619 0 
L 1619 96 
C 1197 128 1146 191 1146 650 
L 1146 2910 
L 1120 2929 
z
M 819 4352 
C 646 4352 499 4205 499 4026 
C 499 3847 640 3699 819 3699 
C 1005 3699 1152 3840 1152 4026 
C 1152 4205 1005 4352 819 4352 
z
" transform="scale(0.015625)"/>
      <path id="NimbusRomNo9L-Regu-74" d="M 1632 2880 
L 986 2880 
L 986 3622 
C 986 3686 979 3706 941 3706 
C 896 3648 858 3590 813 3526 
C 570 3174 294 2867 192 2841 
C 122 2794 83 2748 83 2715 
C 83 2695 90 2682 109 2682 
L 448 2682 
L 448 751 
C 448 212 640 -64 1018 -64 
C 1331 -64 1574 90 1786 423 
L 1702 493 
C 1568 333 1459 269 1318 269 
C 1082 269 986 443 986 847 
L 986 2682 
L 1632 2682 
L 1632 2880 
z
" transform="scale(0.015625)"/>
      <path id="NimbusRomNo9L-Regu-6f" d="M 1600 2944 
C 768 2944 186 2330 186 1446 
C 186 582 781 -64 1587 -64 
C 2394 -64 3008 614 3008 1498 
C 3008 2336 2419 2944 1600 2944 
z
M 1517 2765 
C 2054 2765 2432 2150 2432 1274 
C 2432 550 2144 115 1664 115 
C 1414 115 1178 269 1043 525 
C 864 858 762 1306 762 1760 
C 762 2368 1062 2765 1517 2765 
z
" transform="scale(0.015625)"/>
      <path id="NimbusRomNo9L-Regu-67" d="M 3008 2496 
L 3008 2746 
L 2515 2746 
C 2387 2746 2291 2763 2163 2802 
L 2022 2847 
C 1850 2903 1677 2931 1510 2931 
C 915 2931 442 2467 442 1881 
C 442 1476 614 1230 1037 1018 
C 915 906 800 799 762 768 
C 550 588 467 463 467 338 
C 467 206 544 131 806 6 
C 352 -329 179 -543 179 -781 
C 179 -1124 678 -1408 1286 -1408 
C 1766 -1408 2266 -1238 2598 -962 
C 2842 -759 2950 -548 2950 -299 
C 2950 108 2650 384 2176 384 
L 1350 384 
C 1011 384 851 443 851 548 
C 851 678 1062 908 1235 960 
C 1293 953 1338 947 1357 947 
C 1478 934 1562 928 1600 928 
C 1837 928 2093 1026 2291 1203 
C 2502 1387 2598 1617 2598 1945 
C 2598 2135 2566 2286 2477 2496 
L 3008 2496 
z
M 941 -13 
C 1152 -58 1664 -96 1978 -96 
C 2560 -96 2771 -180 2771 -414 
C 2771 -791 2285 -1043 1562 -1043 
C 998 -1043 627 -855 627 -570 
C 627 -420 672 -336 941 -13 
z
M 973 2145 
C 973 2526 1152 2752 1446 2752 
C 1645 2752 1811 2642 1914 2449 
C 2029 2223 2106 1927 2106 1675 
C 2106 1314 1920 1088 1626 1088 
C 1242 1088 973 1507 973 2126 
L 973 2145 
z
" transform="scale(0.015625)"/>
      <path id="NimbusRomNo9L-Regu-72" d="M 45 2496 
C 134 2515 192 2522 269 2522 
C 429 2522 486 2419 486 2138 
L 486 538 
C 486 218 442 173 32 96 
L 32 0 
L 1568 0 
L 1568 102 
C 1133 102 1024 199 1024 565 
L 1024 2013 
C 1024 2219 1299 2541 1472 2541 
C 1510 2541 1568 2509 1638 2445 
C 1741 2355 1811 2317 1894 2317 
C 2048 2317 2144 2426 2144 2605 
C 2144 2816 2010 2944 1792 2944 
C 1523 2944 1338 2797 1024 2343 
L 1024 2931 
L 992 2944 
C 653 2803 422 2721 45 2599 
L 45 2496 
z
" transform="scale(0.015625)"/>
      <path id="NimbusRomNo9L-Regu-6d" d="M 122 2547 
C 205 2566 256 2573 326 2573 
C 493 2573 550 2470 550 2162 
L 550 539 
C 550 192 461 96 102 96 
L 102 0 
L 1523 0 
L 1523 96 
C 1184 96 1088 166 1088 418 
L 1088 2234 
C 1088 2246 1139 2310 1184 2355 
C 1344 2502 1619 2611 1843 2611 
C 2125 2611 2266 2385 2266 1932 
L 2266 528 
C 2266 167 2195 96 1830 96 
L 1830 0 
L 3264 0 
L 3264 96 
C 2899 96 2803 205 2803 603 
L 2803 2221 
C 2995 2496 3206 2611 3501 2611 
C 3866 2611 3981 2438 3981 1907 
L 3981 557 
C 3981 192 3930 141 3558 96 
L 3558 0 
L 4960 0 
L 4960 96 
L 4794 115 
C 4602 115 4518 230 4518 480 
L 4518 1802 
C 4518 2559 4269 2944 3776 2944 
C 3405 2944 3078 2778 2733 2407 
C 2618 2771 2400 2944 2054 2944 
C 1773 2944 1594 2854 1062 2451 
L 1062 2931 
L 1018 2944 
C 691 2822 474 2752 122 2656 
L 122 2547 
z
" transform="scale(0.015625)"/>
      <path id="NimbusRomNo9L-Regu-64" d="M 2202 -64 
L 3142 269 
L 3142 365 
C 3027 365 3014 365 2995 365 
C 2765 365 2714 435 2714 731 
L 2714 4364 
L 2682 4377 
C 2374 4268 2150 4204 1741 4096 
L 1741 3994 
C 1792 4000 1830 4000 1882 4000 
C 2118 4000 2176 3936 2176 3672 
L 2176 2669 
C 1933 2874 1760 2944 1504 2944 
C 768 2944 173 2221 173 1312 
C 173 493 653 -64 1357 -64 
C 1715 -64 1958 64 2176 365 
L 2176 -45 
L 2202 -64 
z
M 2176 653 
C 2176 608 2131 531 2067 461 
C 1952 333 1792 269 1606 269 
C 1075 269 723 781 723 1568 
C 723 2291 1037 2765 1523 2765 
C 1862 2765 2176 2464 2176 2125 
L 2176 653 
z
" transform="scale(0.015625)"/>
      <path id="NimbusRomNo9L-Regu-75" d="M 3066 320 
L 3034 320 
C 2739 320 2669 390 2669 685 
L 2669 2880 
L 1658 2880 
L 1658 2758 
C 2054 2758 2131 2694 2131 2375 
L 2131 875 
C 2131 697 2099 607 2010 537 
C 1837 397 1638 320 1446 320 
C 1197 320 992 537 992 805 
L 992 2880 
L 58 2880 
L 58 2778 
C 365 2778 454 2682 454 2387 
L 454 770 
C 454 263 762 -64 1229 -64 
C 1466 -64 1715 38 1888 211 
L 2163 486 
L 2163 -45 
L 2189 -58 
C 2509 70 2739 141 3066 230 
L 3066 320 
z
" transform="scale(0.015625)"/>
      <path id="NimbusRomNo9L-Regu-70" d="M 58 2516 
C 115 2522 160 2522 218 2522 
C 435 2522 480 2458 480 2155 
L 480 -855 
C 480 -1189 410 -1261 32 -1299 
L 32 -1408 
L 1581 -1408 
L 1581 -1293 
C 1101 -1293 1018 -1222 1018 -816 
L 1018 199 
C 1242 -13 1395 -77 1664 -77 
C 2419 -77 3008 643 3008 1575 
C 3008 2372 2560 2944 1939 2944 
C 1581 2944 1299 2784 1018 2438 
L 1018 2931 
L 979 2944 
C 634 2810 410 2726 58 2618 
L 58 2516 
z
M 1018 2136 
C 1018 2329 1376 2560 1670 2560 
C 2144 2560 2458 2071 2458 1324 
C 2458 611 2144 128 1683 128 
C 1382 128 1018 359 1018 552 
L 1018 2136 
z
" transform="scale(0.015625)"/>
      <path id="NimbusRomNo9L-Regu-1e" d="M 1549 3264 
L 608 4206 
C 493 4320 435 4352 339 4352 
C 205 4352 122 4275 122 4155 
C 122 4053 192 3957 307 3882 
L 1293 3264 
L 1549 3264 
z
" transform="scale(0.015625)"/>
      <path id="StandardSymL-6d" d="M 2829 3168 
L 2259 3168 
L 2266 818 
C 2035 517 1818 388 1549 388 
C 1178 388 960 646 960 1086 
L 960 3168 
L 397 3168 
L 397 113 
C 397 -20 371 -179 326 -371 
C 218 -766 211 -804 211 -950 
C 211 -1218 346 -1408 531 -1408 
C 717 -1408 845 -1214 845 -928 
C 845 -791 826 -706 723 -330 
C 659 -96 646 -31 646 151 
L 646 229 
C 915 6 1062 -64 1280 -64 
C 1600 -64 1926 129 2266 513 
C 2317 314 2349 240 2413 148 
C 2509 17 2682 -64 2867 -64 
C 3264 -64 3539 204 3629 672 
L 3456 672 
C 3430 453 3296 280 3149 280 
C 2957 280 2829 506 2829 847 
L 2829 3168 
z
" transform="scale(0.015625)"/>
     </defs>
     <use xlink:href="#NimbusRomNo9L-Regu-48" transform="scale(0.996264)"/>
     <use xlink:href="#NimbusRomNo9L-Regu-69" transform="translate(71.929985 0)scale(0.996264)"/>
     <use xlink:href="#NimbusRomNo9L-Regu-73" transform="translate(99.625154 0)scale(0.996264)"/>
     <use xlink:href="#NimbusRomNo9L-Regu-74" transform="translate(138.378861 0)scale(0.996264)"/>
     <use xlink:href="#NimbusRomNo9L-Regu-6f" transform="translate(166.07403 0)scale(0.996264)"/>
     <use xlink:href="#NimbusRomNo9L-Regu-67" transform="translate(215.887231 0)scale(0.996264)"/>
     <use xlink:href="#NimbusRomNo9L-Regu-72" transform="translate(265.700431 0)scale(0.996264)"/>
     <use xlink:href="#NimbusRomNo9L-Regu-61" transform="translate(298.875661 0)scale(0.996264)"/>
     <use xlink:href="#NimbusRomNo9L-Regu-6d" transform="translate(343.10923 0)scale(0.996264)"/>
     <use xlink:href="#NimbusRomNo9L-Regu-6d" transform="translate(420.6176 0)scale(0.996264)"/>
     <use xlink:href="#NimbusRomNo9L-Regu-65" transform="translate(498.12597 0)scale(0.996264)"/>
     <use xlink:href="#NimbusRomNo9L-Regu-64" transform="translate(567.266139 0)scale(0.996264)"/>
     <use xlink:href="#NimbusRomNo9L-Regu-75" transform="translate(617.079339 0)scale(0.996264)"/>
     <use xlink:href="#NimbusRomNo9L-Regu-70" transform="translate(691.79914 0)scale(0.996264)"/>
     <use xlink:href="#NimbusRomNo9L-Regu-61" transform="translate(741.612341 0)scale(0.996264)"/>
     <use xlink:href="#NimbusRomNo9L-Regu-72" transform="translate(785.845909 0)scale(0.996264)"/>
     <use xlink:href="#NimbusRomNo9L-Regu-61" transform="translate(819.021139 0)scale(0.996264)"/>
     <use xlink:href="#NimbusRomNo9L-Regu-6d" transform="translate(863.254708 0)scale(0.996264)"/>
     <use xlink:href="#NimbusRomNo9L-Regu-1e" transform="translate(946.292255 0.498056)scale(0.996264)"/>
     <use xlink:href="#NimbusRomNo9L-Regu-65" transform="translate(940.763078 0)scale(0.996264)"/>
     <use xlink:href="#NimbusRomNo9L-Regu-74" transform="translate(984.996646 0)scale(0.996264)"/>
     <use xlink:href="#NimbusRomNo9L-Regu-72" transform="translate(1012.691816 0)scale(0.996264)"/>
     <use xlink:href="#NimbusRomNo9L-Regu-65" transform="translate(1045.867046 0)scale(0.996264)"/>
     <use xlink:href="#StandardSymL-6d" transform="translate(1117.497829 0)scale(0.996264)"/>
    </g>
   </g>
  </g>
 </g>
 <defs>
  <clipPath id="p46268573b8">
   <rect x="39.936687" y="17.765242" width="334.8" height="217.44"/>
  </clipPath>
 </defs>
</svg>
