<?xml version="1.0" encoding="utf-8" standalone="no"?>
<!DOCTYPE svg PUBLIC "-//W3C//DTD SVG 1.1//EN"
  "http://www.w3.org/Graphics/SVG/1.1/DTD/svg11.dtd">
<svg xmlns:xlink="http://www.w3.org/1999/xlink" width="453.47976pt" height="308.756589pt" viewBox="0 0 453.47976 308.756589" xmlns="http://www.w3.org/2000/svg" version="1.1">
 <metadata>
  <rdf:RDF xmlns:dc="http://purl.org/dc/elements/1.1/" xmlns:cc="http://creativecommons.org/ns#" xmlns:rdf="http://www.w3.org/1999/02/22-rdf-syntax-ns#">
   <cc:Work>
    <dc:type rdf:resource="http://purl.org/dc/dcmitype/StillImage"/>
    <dc:date>2022-05-19T16:28:00.201175</dc:date>
    <dc:format>image/svg+xml</dc:format>
    <dc:creator>
     <cc:Agent>
      <dc:title>Matplotlib v3.5.2, https://matplotlib.org/</dc:title>
     </cc:Agent>
    </dc:creator>
   </cc:Work>
  </rdf:RDF>
 </metadata>
 <defs>
  <style type="text/css">*{stroke-linejoin: round; stroke-linecap: butt}</style>
 </defs>
 <g id="figure_1">
  <g id="patch_1">
   <path d="M 0 308.756589 
L 453.47976 308.756589 
L 453.47976 0 
L 0 0 
L 0 308.756589 
z
" style="fill: none"/>
  </g>
  <g id="axes_1">
   <g id="patch_2">
    <path d="M 47.30552 137.535193 
L 449.87976 137.535193 
L 449.87976 40.203942 
L 47.30552 40.203942 
z
" style="fill: #ffffff"/>
   </g>
   <g id="patch_3">
    <path d="M 65.604349 137.535193 
L 69.264115 137.535193 
L 69.264115 104.35171 
L 65.604349 104.35171 
z
" clip-path="url(#p9813950e55)"/>
   </g>
   <g id="patch_4">
    <path d="M 69.264115 137.535193 
L 72.923881 137.535193 
L 72.923881 101.426214 
L 69.264115 101.426214 
z
" clip-path="url(#p9813950e55)"/>
   </g>
   <g id="patch_5">
    <path d="M 72.923881 137.535193 
L 76.583647 137.535193 
L 76.583647 102.178484 
L 72.923881 102.178484 
z
" clip-path="url(#p9813950e55)"/>
   </g>
   <g id="patch_6">
    <path d="M 76.583647 137.535193 
L 80.243413 137.535193 
L 80.243413 102.178484 
L 76.583647 102.178484 
z
" clip-path="url(#p9813950e55)"/>
   </g>
   <g id="patch_7">
    <path d="M 80.243413 137.535193 
L 83.903178 137.535193 
L 83.903178 102.763583 
L 80.243413 102.763583 
z
" clip-path="url(#p9813950e55)"/>
   </g>
   <g id="patch_8">
    <path d="M 83.903178 137.535193 
L 87.562944 137.535193 
L 87.562944 101.844142 
L 83.903178 101.844142 
z
" clip-path="url(#p9813950e55)"/>
   </g>
   <g id="patch_9">
    <path d="M 87.562944 137.535193 
L 91.22271 137.535193 
L 91.22271 102.26207 
L 87.562944 102.26207 
z
" clip-path="url(#p9813950e55)"/>
   </g>
   <g id="patch_10">
    <path d="M 91.22271 137.535193 
L 94.882476 137.535193 
L 94.882476 107.778719 
L 91.22271 107.778719 
z
" clip-path="url(#p9813950e55)"/>
   </g>
   <g id="patch_11">
    <path d="M 94.882476 137.535193 
L 98.542242 137.535193 
L 98.542242 104.518881 
L 94.882476 104.518881 
z
" clip-path="url(#p9813950e55)"/>
   </g>
   <g id="patch_12">
    <path d="M 98.542242 137.535193 
L 102.202007 137.535193 
L 102.202007 104.017367 
L 98.542242 104.017367 
z
" clip-path="url(#p9813950e55)"/>
   </g>
   <g id="patch_13">
    <path d="M 102.202007 137.535193 
L 105.861773 137.535193 
L 105.861773 107.527963 
L 102.202007 107.527963 
z
" clip-path="url(#p9813950e55)"/>
   </g>
   <g id="patch_14">
    <path d="M 105.861773 137.535193 
L 109.521539 137.535193 
L 109.521539 106.692107 
L 105.861773 106.692107 
z
" clip-path="url(#p9813950e55)"/>
   </g>
   <g id="patch_15">
    <path d="M 109.521539 137.535193 
L 113.181305 137.535193 
L 113.181305 108.029476 
L 109.521539 108.029476 
z
" clip-path="url(#p9813950e55)"/>
   </g>
   <g id="patch_16">
    <path d="M 113.181305 137.535193 
L 116.841071 137.535193 
L 116.841071 108.363819 
L 113.181305 108.363819 
z
" clip-path="url(#p9813950e55)"/>
   </g>
   <g id="patch_17">
    <path d="M 116.841071 137.535193 
L 120.500837 137.535193 
L 120.500837 112.459513 
L 116.841071 112.459513 
z
" clip-path="url(#p9813950e55)"/>
   </g>
   <g id="patch_18">
    <path d="M 120.500837 137.535193 
L 124.160602 137.535193 
L 124.160602 114.632739 
L 120.500837 114.632739 
z
" clip-path="url(#p9813950e55)"/>
   </g>
   <g id="patch_19">
    <path d="M 124.160602 137.535193 
L 127.820368 137.535193 
L 127.820368 112.292342 
L 124.160602 112.292342 
z
" clip-path="url(#p9813950e55)"/>
   </g>
   <g id="patch_20">
    <path d="M 127.820368 137.535193 
L 131.480134 137.535193 
L 131.480134 117.391063 
L 127.820368 117.391063 
z
" clip-path="url(#p9813950e55)"/>
   </g>
   <g id="patch_21">
    <path d="M 131.480134 137.535193 
L 135.1399 137.535193 
L 135.1399 119.146361 
L 131.480134 119.146361 
z
" clip-path="url(#p9813950e55)"/>
   </g>
   <g id="patch_22">
    <path d="M 135.1399 137.535193 
L 138.799666 137.535193 
L 138.799666 119.397118 
L 135.1399 119.397118 
z
" clip-path="url(#p9813950e55)"/>
   </g>
   <g id="patch_23">
    <path d="M 138.799666 137.535193 
L 142.459431 137.535193 
L 142.459431 119.647875 
L 138.799666 119.647875 
z
" clip-path="url(#p9813950e55)"/>
   </g>
   <g id="patch_24">
    <path d="M 142.459431 137.535193 
L 146.119197 137.535193 
L 146.119197 121.8211 
L 142.459431 121.8211 
z
" clip-path="url(#p9813950e55)"/>
   </g>
   <g id="patch_25">
    <path d="M 146.119197 137.535193 
L 149.778963 137.535193 
L 149.778963 121.403172 
L 146.119197 121.403172 
z
" clip-path="url(#p9813950e55)"/>
   </g>
   <g id="patch_26">
    <path d="M 149.778963 137.535193 
L 153.438729 137.535193 
L 153.438729 123.492812 
L 149.778963 123.492812 
z
" clip-path="url(#p9813950e55)"/>
   </g>
   <g id="patch_27">
    <path d="M 153.438729 137.535193 
L 157.098495 137.535193 
L 157.098495 125.080939 
L 153.438729 125.080939 
z
" clip-path="url(#p9813950e55)"/>
   </g>
   <g id="patch_28">
    <path d="M 157.098495 137.535193 
L 160.758261 137.535193 
L 160.758261 127.086993 
L 157.098495 127.086993 
z
" clip-path="url(#p9813950e55)"/>
   </g>
   <g id="patch_29">
    <path d="M 160.758261 137.535193 
L 164.418026 137.535193 
L 164.418026 127.421335 
L 160.758261 127.421335 
z
" clip-path="url(#p9813950e55)"/>
   </g>
   <g id="patch_30">
    <path d="M 164.418026 137.535193 
L 168.077792 137.535193 
L 168.077792 128.925876 
L 164.418026 128.925876 
z
" clip-path="url(#p9813950e55)"/>
   </g>
   <g id="patch_31">
    <path d="M 168.077792 137.535193 
L 171.737558 137.535193 
L 171.737558 130.263246 
L 168.077792 130.263246 
z
" clip-path="url(#p9813950e55)"/>
   </g>
   <g id="patch_32">
    <path d="M 171.737558 137.535193 
L 175.397324 137.535193 
L 175.397324 129.42739 
L 171.737558 129.42739 
z
" clip-path="url(#p9813950e55)"/>
   </g>
   <g id="patch_33">
    <path d="M 175.397324 137.535193 
L 179.05709 137.535193 
L 179.05709 128.925876 
L 175.397324 128.925876 
z
" clip-path="url(#p9813950e55)"/>
   </g>
   <g id="patch_34">
    <path d="M 179.05709 137.535193 
L 182.716855 137.535193 
L 182.716855 131.349858 
L 179.05709 131.349858 
z
" clip-path="url(#p9813950e55)"/>
   </g>
   <g id="patch_35">
    <path d="M 182.716855 137.535193 
L 186.376621 137.535193 
L 186.376621 132.520057 
L 182.716855 132.520057 
z
" clip-path="url(#p9813950e55)"/>
   </g>
   <g id="patch_36">
    <path d="M 186.376621 137.535193 
L 190.036387 137.535193 
L 190.036387 132.102129 
L 186.376621 132.102129 
z
" clip-path="url(#p9813950e55)"/>
   </g>
   <g id="patch_37">
    <path d="M 190.036387 137.535193 
L 193.696153 137.535193 
L 193.696153 132.687228 
L 190.036387 132.687228 
z
" clip-path="url(#p9813950e55)"/>
   </g>
   <g id="patch_38">
    <path d="M 193.696153 137.535193 
L 197.355919 137.535193 
L 197.355919 133.941012 
L 193.696153 133.941012 
z
" clip-path="url(#p9813950e55)"/>
   </g>
   <g id="patch_39">
    <path d="M 197.355919 137.535193 
L 201.015684 137.535193 
L 201.015684 134.35894 
L 197.355919 134.35894 
z
" clip-path="url(#p9813950e55)"/>
   </g>
   <g id="patch_40">
    <path d="M 201.015684 137.535193 
L 204.67545 137.535193 
L 204.67545 134.275354 
L 201.015684 134.275354 
z
" clip-path="url(#p9813950e55)"/>
   </g>
   <g id="patch_41">
    <path d="M 204.67545 137.535193 
L 208.335216 137.535193 
L 208.335216 134.024598 
L 204.67545 134.024598 
z
" clip-path="url(#p9813950e55)"/>
   </g>
   <g id="patch_42">
    <path d="M 208.335216 137.535193 
L 211.994982 137.535193 
L 211.994982 135.529138 
L 208.335216 135.529138 
z
" clip-path="url(#p9813950e55)"/>
   </g>
   <g id="patch_43">
    <path d="M 211.994982 137.535193 
L 215.654748 137.535193 
L 215.654748 135.69631 
L 211.994982 135.69631 
z
" clip-path="url(#p9813950e55)"/>
   </g>
   <g id="patch_44">
    <path d="M 215.654748 137.535193 
L 219.314514 137.535193 
L 219.314514 134.609697 
L 215.654748 134.609697 
z
" clip-path="url(#p9813950e55)"/>
   </g>
   <g id="patch_45">
    <path d="M 219.314514 137.535193 
L 222.974279 137.535193 
L 222.974279 135.863481 
L 219.314514 135.863481 
z
" clip-path="url(#p9813950e55)"/>
   </g>
   <g id="patch_46">
    <path d="M 222.974279 137.535193 
L 226.634045 137.535193 
L 226.634045 136.197823 
L 222.974279 136.197823 
z
" clip-path="url(#p9813950e55)"/>
   </g>
   <g id="patch_47">
    <path d="M 226.634045 137.535193 
L 230.293811 137.535193 
L 230.293811 135.69631 
L 226.634045 135.69631 
z
" clip-path="url(#p9813950e55)"/>
   </g>
   <g id="patch_48">
    <path d="M 230.293811 137.535193 
L 233.953577 137.535193 
L 233.953577 136.281409 
L 230.293811 136.281409 
z
" clip-path="url(#p9813950e55)"/>
   </g>
   <g id="patch_49">
    <path d="M 233.953577 137.535193 
L 237.613343 137.535193 
L 237.613343 136.950094 
L 233.953577 136.950094 
z
" clip-path="url(#p9813950e55)"/>
   </g>
   <g id="patch_50">
    <path d="M 237.613343 137.535193 
L 241.273108 137.535193 
L 241.273108 137.284436 
L 237.613343 137.284436 
z
" clip-path="url(#p9813950e55)"/>
   </g>
   <g id="patch_51">
    <path d="M 241.273108 137.535193 
L 244.932874 137.535193 
L 244.932874 137.033679 
L 241.273108 137.033679 
z
" clip-path="url(#p9813950e55)"/>
   </g>
   <g id="patch_52">
    <path d="M 244.932874 137.535193 
L 248.59264 137.535193 
L 248.59264 137.117265 
L 244.932874 137.117265 
z
" clip-path="url(#p9813950e55)"/>
   </g>
   <g id="patch_53">
    <path d="M 248.59264 137.535193 
L 252.252406 137.535193 
L 252.252406 137.20085 
L 248.59264 137.20085 
z
" clip-path="url(#p9813950e55)"/>
   </g>
   <g id="patch_54">
    <path d="M 252.252406 137.535193 
L 255.912172 137.535193 
L 255.912172 137.368022 
L 252.252406 137.368022 
z
" clip-path="url(#p9813950e55)"/>
   </g>
   <g id="patch_55">
    <path d="M 255.912172 137.535193 
L 259.571938 137.535193 
L 259.571938 137.451607 
L 255.912172 137.451607 
z
" clip-path="url(#p9813950e55)"/>
   </g>
   <g id="patch_56">
    <path d="M 259.571938 137.535193 
L 263.231703 137.535193 
L 263.231703 137.284436 
L 259.571938 137.284436 
z
" clip-path="url(#p9813950e55)"/>
   </g>
   <g id="patch_57">
    <path d="M 263.231703 137.535193 
L 266.891469 137.535193 
L 266.891469 137.451607 
L 263.231703 137.451607 
z
" clip-path="url(#p9813950e55)"/>
   </g>
   <g id="patch_58">
    <path d="M 266.891469 137.535193 
L 270.551235 137.535193 
L 270.551235 137.451607 
L 266.891469 137.451607 
z
" clip-path="url(#p9813950e55)"/>
   </g>
   <g id="patch_59">
    <path d="M 270.551235 137.535193 
L 274.211001 137.535193 
L 274.211001 137.368022 
L 270.551235 137.368022 
z
" clip-path="url(#p9813950e55)"/>
   </g>
   <g id="patch_60">
    <path d="M 274.211001 137.535193 
L 277.870767 137.535193 
L 277.870767 137.535193 
L 274.211001 137.535193 
z
" clip-path="url(#p9813950e55)"/>
   </g>
   <g id="patch_61">
    <path d="M 277.870767 137.535193 
L 281.530532 137.535193 
L 281.530532 137.451607 
L 277.870767 137.451607 
z
" clip-path="url(#p9813950e55)"/>
   </g>
   <g id="patch_62">
    <path d="M 281.530532 137.535193 
L 285.190298 137.535193 
L 285.190298 137.535193 
L 281.530532 137.535193 
z
" clip-path="url(#p9813950e55)"/>
   </g>
   <g id="patch_63">
    <path d="M 285.190298 137.535193 
L 288.850064 137.535193 
L 288.850064 137.368022 
L 285.190298 137.368022 
z
" clip-path="url(#p9813950e55)"/>
   </g>
   <g id="patch_64">
    <path d="M 288.850064 137.535193 
L 292.50983 137.535193 
L 292.50983 137.451607 
L 288.850064 137.451607 
z
" clip-path="url(#p9813950e55)"/>
   </g>
   <g id="patch_65">
    <path d="M 292.50983 137.535193 
L 296.169596 137.535193 
L 296.169596 137.535193 
L 292.50983 137.535193 
z
" clip-path="url(#p9813950e55)"/>
   </g>
   <g id="patch_66">
    <path d="M 296.169596 137.535193 
L 299.829362 137.535193 
L 299.829362 137.284436 
L 296.169596 137.284436 
z
" clip-path="url(#p9813950e55)"/>
   </g>
   <g id="patch_67">
    <path d="M 299.829362 137.535193 
L 303.489127 137.535193 
L 303.489127 137.451607 
L 299.829362 137.451607 
z
" clip-path="url(#p9813950e55)"/>
   </g>
   <g id="patch_68">
    <path d="M 303.489127 137.535193 
L 307.148893 137.535193 
L 307.148893 137.535193 
L 303.489127 137.535193 
z
" clip-path="url(#p9813950e55)"/>
   </g>
   <g id="patch_69">
    <path d="M 307.148893 137.535193 
L 310.808659 137.535193 
L 310.808659 137.368022 
L 307.148893 137.368022 
z
" clip-path="url(#p9813950e55)"/>
   </g>
   <g id="patch_70">
    <path d="M 310.808659 137.535193 
L 314.468425 137.535193 
L 314.468425 137.535193 
L 310.808659 137.535193 
z
" clip-path="url(#p9813950e55)"/>
   </g>
   <g id="patch_71">
    <path d="M 314.468425 137.535193 
L 318.128191 137.535193 
L 318.128191 137.451607 
L 314.468425 137.451607 
z
" clip-path="url(#p9813950e55)"/>
   </g>
   <g id="patch_72">
    <path d="M 318.128191 137.535193 
L 321.787956 137.535193 
L 321.787956 137.451607 
L 318.128191 137.451607 
z
" clip-path="url(#p9813950e55)"/>
   </g>
   <g id="patch_73">
    <path d="M 321.787956 137.535193 
L 325.447722 137.535193 
L 325.447722 137.368022 
L 321.787956 137.368022 
z
" clip-path="url(#p9813950e55)"/>
   </g>
   <g id="patch_74">
    <path d="M 325.447722 137.535193 
L 329.107488 137.535193 
L 329.107488 137.451607 
L 325.447722 137.451607 
z
" clip-path="url(#p9813950e55)"/>
   </g>
   <g id="patch_75">
    <path d="M 329.107488 137.535193 
L 332.767254 137.535193 
L 332.767254 137.284436 
L 329.107488 137.284436 
z
" clip-path="url(#p9813950e55)"/>
   </g>
   <g id="patch_76">
    <path d="M 332.767254 137.535193 
L 336.42702 137.535193 
L 336.42702 137.368022 
L 332.767254 137.368022 
z
" clip-path="url(#p9813950e55)"/>
   </g>
   <g id="patch_77">
    <path d="M 336.42702 137.535193 
L 340.086786 137.535193 
L 340.086786 137.368022 
L 336.42702 137.368022 
z
" clip-path="url(#p9813950e55)"/>
   </g>
   <g id="patch_78">
    <path d="M 340.086786 137.535193 
L 343.746551 137.535193 
L 343.746551 136.950094 
L 340.086786 136.950094 
z
" clip-path="url(#p9813950e55)"/>
   </g>
   <g id="patch_79">
    <path d="M 343.746551 137.535193 
L 347.406317 137.535193 
L 347.406317 137.033679 
L 343.746551 137.033679 
z
" clip-path="url(#p9813950e55)"/>
   </g>
   <g id="patch_80">
    <path d="M 347.406317 137.535193 
L 351.066083 137.535193 
L 351.066083 137.20085 
L 347.406317 137.20085 
z
" clip-path="url(#p9813950e55)"/>
   </g>
   <g id="patch_81">
    <path d="M 351.066083 137.535193 
L 354.725849 137.535193 
L 354.725849 137.117265 
L 351.066083 137.117265 
z
" clip-path="url(#p9813950e55)"/>
   </g>
   <g id="patch_82">
    <path d="M 354.725849 137.535193 
L 358.385615 137.535193 
L 358.385615 137.284436 
L 354.725849 137.284436 
z
" clip-path="url(#p9813950e55)"/>
   </g>
   <g id="patch_83">
    <path d="M 358.385615 137.535193 
L 362.04538 137.535193 
L 362.04538 137.368022 
L 358.385615 137.368022 
z
" clip-path="url(#p9813950e55)"/>
   </g>
   <g id="patch_84">
    <path d="M 362.04538 137.535193 
L 365.705146 137.535193 
L 365.705146 137.20085 
L 362.04538 137.20085 
z
" clip-path="url(#p9813950e55)"/>
   </g>
   <g id="patch_85">
    <path d="M 365.705146 137.535193 
L 369.364912 137.535193 
L 369.364912 137.368022 
L 365.705146 137.368022 
z
" clip-path="url(#p9813950e55)"/>
   </g>
   <g id="patch_86">
    <path d="M 369.364912 137.535193 
L 373.024678 137.535193 
L 373.024678 137.20085 
L 369.364912 137.20085 
z
" clip-path="url(#p9813950e55)"/>
   </g>
   <g id="patch_87">
    <path d="M 373.024678 137.535193 
L 376.684444 137.535193 
L 376.684444 137.117265 
L 373.024678 137.117265 
z
" clip-path="url(#p9813950e55)"/>
   </g>
   <g id="patch_88">
    <path d="M 376.684444 137.535193 
L 380.344209 137.535193 
L 380.344209 137.117265 
L 376.684444 137.117265 
z
" clip-path="url(#p9813950e55)"/>
   </g>
   <g id="patch_89">
    <path d="M 380.344209 137.535193 
L 384.003975 137.535193 
L 384.003975 137.20085 
L 380.344209 137.20085 
z
" clip-path="url(#p9813950e55)"/>
   </g>
   <g id="patch_90">
    <path d="M 384.003975 137.535193 
L 387.663741 137.535193 
L 387.663741 137.368022 
L 384.003975 137.368022 
z
" clip-path="url(#p9813950e55)"/>
   </g>
   <g id="patch_91">
    <path d="M 387.663741 137.535193 
L 391.323507 137.535193 
L 391.323507 137.284436 
L 387.663741 137.284436 
z
" clip-path="url(#p9813950e55)"/>
   </g>
   <g id="patch_92">
    <path d="M 391.323507 137.535193 
L 394.983273 137.535193 
L 394.983273 137.117265 
L 391.323507 137.117265 
z
" clip-path="url(#p9813950e55)"/>
   </g>
   <g id="patch_93">
    <path d="M 394.983273 137.535193 
L 398.643039 137.535193 
L 398.643039 137.284436 
L 394.983273 137.284436 
z
" clip-path="url(#p9813950e55)"/>
   </g>
   <g id="patch_94">
    <path d="M 398.643039 137.535193 
L 402.302804 137.535193 
L 402.302804 137.20085 
L 398.643039 137.20085 
z
" clip-path="url(#p9813950e55)"/>
   </g>
   <g id="patch_95">
    <path d="M 402.302804 137.535193 
L 405.96257 137.535193 
L 405.96257 137.284436 
L 402.302804 137.284436 
z
" clip-path="url(#p9813950e55)"/>
   </g>
   <g id="patch_96">
    <path d="M 405.96257 137.535193 
L 409.622336 137.535193 
L 409.622336 137.535193 
L 405.96257 137.535193 
z
" clip-path="url(#p9813950e55)"/>
   </g>
   <g id="patch_97">
    <path d="M 409.622336 137.535193 
L 413.282102 137.535193 
L 413.282102 137.368022 
L 409.622336 137.368022 
z
" clip-path="url(#p9813950e55)"/>
   </g>
   <g id="patch_98">
    <path d="M 413.282102 137.535193 
L 416.941868 137.535193 
L 416.941868 137.451607 
L 413.282102 137.451607 
z
" clip-path="url(#p9813950e55)"/>
   </g>
   <g id="patch_99">
    <path d="M 416.941868 137.535193 
L 420.601633 137.535193 
L 420.601633 137.535193 
L 416.941868 137.535193 
z
" clip-path="url(#p9813950e55)"/>
   </g>
   <g id="patch_100">
    <path d="M 420.601633 137.535193 
L 424.261399 137.535193 
L 424.261399 137.033679 
L 420.601633 137.033679 
z
" clip-path="url(#p9813950e55)"/>
   </g>
   <g id="patch_101">
    <path d="M 424.261399 137.535193 
L 427.921165 137.535193 
L 427.921165 137.535193 
L 424.261399 137.535193 
z
" clip-path="url(#p9813950e55)"/>
   </g>
   <g id="patch_102">
    <path d="M 427.921165 137.535193 
L 431.580931 137.535193 
L 431.580931 137.368022 
L 427.921165 137.368022 
z
" clip-path="url(#p9813950e55)"/>
   </g>
   <g id="matplotlib.axis_1">
    <g id="xtick_1">
     <g id="line2d_1">
      <defs>
       <path id="m87dfe160a6" d="M 0 0 
L 0 -3 
" style="stroke: #000000; stroke-width: 0.5"/>
      </defs>
      <g>
       <use xlink:href="#m87dfe160a6" x="65.600725" y="137.535193" style="stroke: #000000; stroke-width: 0.5"/>
      </g>
     </g>
     <g id="line2d_2">
      <defs>
       <path id="mc362aaed7a" d="M 0 0 
L 0 3 
" style="stroke: #000000; stroke-width: 0.5"/>
      </defs>
      <g>
       <use xlink:href="#mc362aaed7a" x="65.600725" y="40.203942" style="stroke: #000000; stroke-width: 0.5"/>
      </g>
     </g>
     <g id="text_1">
      <!-- $\mathdefault{0}$ -->
      <g transform="translate(63.110065 147.78977)scale(0.1 -0.1)">
       <defs>
        <path id="NimbusRomNo9L-Regu-30" d="M 1626 4352 
C 1274 4352 1005 4244 768 4020 
C 397 3661 154 2925 154 2176 
C 154 1479 365 730 666 372 
C 902 90 1229 -64 1600 -64 
C 1926 -64 2202 45 2432 269 
C 2803 621 3046 1364 3046 2138 
C 3046 3450 2464 4352 1626 4352 
z
M 1606 4186 
C 2144 4186 2432 3463 2432 2125 
C 2432 788 2150 103 1600 103 
C 1050 103 768 788 768 2119 
C 768 3476 1056 4186 1606 4186 
z
" transform="scale(0.015625)"/>
       </defs>
       <use xlink:href="#NimbusRomNo9L-Regu-30" transform="scale(0.996264)"/>
      </g>
     </g>
    </g>
    <g id="xtick_2">
     <g id="line2d_3">
      <g>
       <use xlink:href="#m87dfe160a6" x="150.132282" y="137.535193" style="stroke: #000000; stroke-width: 0.5"/>
      </g>
     </g>
     <g id="line2d_4">
      <g>
       <use xlink:href="#mc362aaed7a" x="150.132282" y="40.203942" style="stroke: #000000; stroke-width: 0.5"/>
      </g>
     </g>
     <g id="text_2">
      <!-- $\mathdefault{1000}$ -->
      <g transform="translate(140.169642 147.78977)scale(0.1 -0.1)">
       <defs>
        <path id="NimbusRomNo9L-Regu-31" d="M 1862 4339 
L 710 3757 
L 710 3667 
C 787 3699 858 3725 883 3738 
C 998 3783 1107 3808 1171 3808 
C 1306 3808 1363 3711 1363 3505 
L 1363 592 
C 1363 379 1312 232 1210 173 
C 1114 116 1024 96 755 96 
L 755 0 
L 2522 0 
L 2522 96 
C 2016 96 1914 160 1914 470 
L 1914 4327 
L 1862 4339 
z
" transform="scale(0.015625)"/>
       </defs>
       <use xlink:href="#NimbusRomNo9L-Regu-31" transform="scale(0.996264)"/>
       <use xlink:href="#NimbusRomNo9L-Regu-30" transform="translate(49.8132 0)scale(0.996264)"/>
       <use xlink:href="#NimbusRomNo9L-Regu-30" transform="translate(99.626401 0)scale(0.996264)"/>
       <use xlink:href="#NimbusRomNo9L-Regu-30" transform="translate(149.439601 0)scale(0.996264)"/>
      </g>
     </g>
    </g>
    <g id="xtick_3">
     <g id="line2d_5">
      <g>
       <use xlink:href="#m87dfe160a6" x="234.663839" y="137.535193" style="stroke: #000000; stroke-width: 0.5"/>
      </g>
     </g>
     <g id="line2d_6">
      <g>
       <use xlink:href="#mc362aaed7a" x="234.663839" y="40.203942" style="stroke: #000000; stroke-width: 0.5"/>
      </g>
     </g>
     <g id="text_3">
      <!-- $\mathdefault{2000}$ -->
      <g transform="translate(224.701199 147.78977)scale(0.1 -0.1)">
       <defs>
        <path id="NimbusRomNo9L-Regu-32" d="M 3040 875 
L 2957 907 
C 2720 544 2637 486 2349 486 
L 819 486 
L 1894 1609 
C 2464 2202 2714 2687 2714 3185 
C 2714 3823 2195 4313 1530 4313 
C 1178 4313 845 4173 608 3918 
C 403 3700 307 3496 198 3043 
L 333 3011 
C 589 3636 819 3840 1261 3840 
C 1798 3840 2163 3476 2163 2940 
C 2163 2443 1869 1850 1331 1282 
L 192 77 
L 192 0 
L 2688 0 
L 3040 875 
z
" transform="scale(0.015625)"/>
       </defs>
       <use xlink:href="#NimbusRomNo9L-Regu-32" transform="scale(0.996264)"/>
       <use xlink:href="#NimbusRomNo9L-Regu-30" transform="translate(49.8132 0)scale(0.996264)"/>
       <use xlink:href="#NimbusRomNo9L-Regu-30" transform="translate(99.626401 0)scale(0.996264)"/>
       <use xlink:href="#NimbusRomNo9L-Regu-30" transform="translate(149.439601 0)scale(0.996264)"/>
      </g>
     </g>
    </g>
    <g id="xtick_4">
     <g id="line2d_7">
      <g>
       <use xlink:href="#m87dfe160a6" x="319.195396" y="137.535193" style="stroke: #000000; stroke-width: 0.5"/>
      </g>
     </g>
     <g id="line2d_8">
      <g>
       <use xlink:href="#mc362aaed7a" x="319.195396" y="40.203942" style="stroke: #000000; stroke-width: 0.5"/>
      </g>
     </g>
     <g id="text_4">
      <!-- $\mathdefault{3000}$ -->
      <g transform="translate(309.232756 147.78977)scale(0.1 -0.1)">
       <defs>
        <path id="NimbusRomNo9L-Regu-33" d="M 979 2138 
C 1357 2138 1504 2125 1658 2068 
C 2054 1927 2304 1562 2304 1120 
C 2304 583 1939 167 1466 167 
C 1293 167 1165 212 928 365 
C 736 480 627 525 518 525 
C 371 525 275 436 275 301 
C 275 77 550 -64 998 -64 
C 1491 -64 1997 103 2298 365 
C 2598 628 2765 999 2765 1428 
C 2765 1754 2662 2055 2477 2253 
C 2349 2394 2227 2471 1946 2592 
C 2387 2893 2547 3130 2547 3476 
C 2547 3994 2138 4352 1549 4352 
C 1229 4352 947 4244 717 4039 
C 525 3866 429 3699 288 3315 
L 384 3290 
C 646 3757 934 3968 1338 3968 
C 1754 3968 2042 3687 2042 3284 
C 2042 3053 1946 2823 1786 2663 
C 1594 2471 1414 2375 979 2221 
L 979 2138 
z
" transform="scale(0.015625)"/>
       </defs>
       <use xlink:href="#NimbusRomNo9L-Regu-33" transform="scale(0.996264)"/>
       <use xlink:href="#NimbusRomNo9L-Regu-30" transform="translate(49.8132 0)scale(0.996264)"/>
       <use xlink:href="#NimbusRomNo9L-Regu-30" transform="translate(99.626401 0)scale(0.996264)"/>
       <use xlink:href="#NimbusRomNo9L-Regu-30" transform="translate(149.439601 0)scale(0.996264)"/>
      </g>
     </g>
    </g>
    <g id="xtick_5">
     <g id="line2d_9">
      <g>
       <use xlink:href="#m87dfe160a6" x="403.726953" y="137.535193" style="stroke: #000000; stroke-width: 0.5"/>
      </g>
     </g>
     <g id="line2d_10">
      <g>
       <use xlink:href="#mc362aaed7a" x="403.726953" y="40.203942" style="stroke: #000000; stroke-width: 0.5"/>
      </g>
     </g>
     <g id="text_5">
      <!-- $\mathdefault{4000}$ -->
      <g transform="translate(393.764313 147.78977)scale(0.1 -0.1)">
       <defs>
        <path id="NimbusRomNo9L-Regu-34" d="M 3021 1497 
L 2368 1497 
L 2368 4352 
L 2086 4352 
L 77 1497 
L 77 1088 
L 1875 1088 
L 1875 32 
L 2368 32 
L 2368 1088 
L 3021 1088 
L 3021 1497 
z
M 1869 1497 
L 333 1497 
L 1869 3698 
L 1869 1497 
z
" transform="scale(0.015625)"/>
       </defs>
       <use xlink:href="#NimbusRomNo9L-Regu-34" transform="scale(0.996264)"/>
       <use xlink:href="#NimbusRomNo9L-Regu-30" transform="translate(49.8132 0)scale(0.996264)"/>
       <use xlink:href="#NimbusRomNo9L-Regu-30" transform="translate(99.626401 0)scale(0.996264)"/>
       <use xlink:href="#NimbusRomNo9L-Regu-30" transform="translate(149.439601 0)scale(0.996264)"/>
      </g>
     </g>
    </g>
    <g id="xtick_6">
     <g id="line2d_11">
      <defs>
       <path id="m2496b33947" d="M 0 0 
L 0 -1.5 
" style="stroke: #000000; stroke-width: 0.5"/>
      </defs>
      <g>
       <use xlink:href="#m2496b33947" x="48.694414" y="137.535193" style="stroke: #000000; stroke-width: 0.5"/>
      </g>
     </g>
     <g id="line2d_12">
      <defs>
       <path id="m45aad2c5ae" d="M 0 0 
L 0 1.5 
" style="stroke: #000000; stroke-width: 0.5"/>
      </defs>
      <g>
       <use xlink:href="#m45aad2c5ae" x="48.694414" y="40.203942" style="stroke: #000000; stroke-width: 0.5"/>
      </g>
     </g>
    </g>
    <g id="xtick_7">
     <g id="line2d_13">
      <g>
       <use xlink:href="#m2496b33947" x="82.507037" y="137.535193" style="stroke: #000000; stroke-width: 0.5"/>
      </g>
     </g>
     <g id="line2d_14">
      <g>
       <use xlink:href="#m45aad2c5ae" x="82.507037" y="40.203942" style="stroke: #000000; stroke-width: 0.5"/>
      </g>
     </g>
    </g>
    <g id="xtick_8">
     <g id="line2d_15">
      <g>
       <use xlink:href="#m2496b33947" x="99.413348" y="137.535193" style="stroke: #000000; stroke-width: 0.5"/>
      </g>
     </g>
     <g id="line2d_16">
      <g>
       <use xlink:href="#m45aad2c5ae" x="99.413348" y="40.203942" style="stroke: #000000; stroke-width: 0.5"/>
      </g>
     </g>
    </g>
    <g id="xtick_9">
     <g id="line2d_17">
      <g>
       <use xlink:href="#m2496b33947" x="116.319659" y="137.535193" style="stroke: #000000; stroke-width: 0.5"/>
      </g>
     </g>
     <g id="line2d_18">
      <g>
       <use xlink:href="#m45aad2c5ae" x="116.319659" y="40.203942" style="stroke: #000000; stroke-width: 0.5"/>
      </g>
     </g>
    </g>
    <g id="xtick_10">
     <g id="line2d_19">
      <g>
       <use xlink:href="#m2496b33947" x="133.225971" y="137.535193" style="stroke: #000000; stroke-width: 0.5"/>
      </g>
     </g>
     <g id="line2d_20">
      <g>
       <use xlink:href="#m45aad2c5ae" x="133.225971" y="40.203942" style="stroke: #000000; stroke-width: 0.5"/>
      </g>
     </g>
    </g>
    <g id="xtick_11">
     <g id="line2d_21">
      <g>
       <use xlink:href="#m2496b33947" x="167.038594" y="137.535193" style="stroke: #000000; stroke-width: 0.5"/>
      </g>
     </g>
     <g id="line2d_22">
      <g>
       <use xlink:href="#m45aad2c5ae" x="167.038594" y="40.203942" style="stroke: #000000; stroke-width: 0.5"/>
      </g>
     </g>
    </g>
    <g id="xtick_12">
     <g id="line2d_23">
      <g>
       <use xlink:href="#m2496b33947" x="183.944905" y="137.535193" style="stroke: #000000; stroke-width: 0.5"/>
      </g>
     </g>
     <g id="line2d_24">
      <g>
       <use xlink:href="#m45aad2c5ae" x="183.944905" y="40.203942" style="stroke: #000000; stroke-width: 0.5"/>
      </g>
     </g>
    </g>
    <g id="xtick_13">
     <g id="line2d_25">
      <g>
       <use xlink:href="#m2496b33947" x="200.851216" y="137.535193" style="stroke: #000000; stroke-width: 0.5"/>
      </g>
     </g>
     <g id="line2d_26">
      <g>
       <use xlink:href="#m45aad2c5ae" x="200.851216" y="40.203942" style="stroke: #000000; stroke-width: 0.5"/>
      </g>
     </g>
    </g>
    <g id="xtick_14">
     <g id="line2d_27">
      <g>
       <use xlink:href="#m2496b33947" x="217.757528" y="137.535193" style="stroke: #000000; stroke-width: 0.5"/>
      </g>
     </g>
     <g id="line2d_28">
      <g>
       <use xlink:href="#m45aad2c5ae" x="217.757528" y="40.203942" style="stroke: #000000; stroke-width: 0.5"/>
      </g>
     </g>
    </g>
    <g id="xtick_15">
     <g id="line2d_29">
      <g>
       <use xlink:href="#m2496b33947" x="251.57015" y="137.535193" style="stroke: #000000; stroke-width: 0.5"/>
      </g>
     </g>
     <g id="line2d_30">
      <g>
       <use xlink:href="#m45aad2c5ae" x="251.57015" y="40.203942" style="stroke: #000000; stroke-width: 0.5"/>
      </g>
     </g>
    </g>
    <g id="xtick_16">
     <g id="line2d_31">
      <g>
       <use xlink:href="#m2496b33947" x="268.476462" y="137.535193" style="stroke: #000000; stroke-width: 0.5"/>
      </g>
     </g>
     <g id="line2d_32">
      <g>
       <use xlink:href="#m45aad2c5ae" x="268.476462" y="40.203942" style="stroke: #000000; stroke-width: 0.5"/>
      </g>
     </g>
    </g>
    <g id="xtick_17">
     <g id="line2d_33">
      <g>
       <use xlink:href="#m2496b33947" x="285.382773" y="137.535193" style="stroke: #000000; stroke-width: 0.5"/>
      </g>
     </g>
     <g id="line2d_34">
      <g>
       <use xlink:href="#m45aad2c5ae" x="285.382773" y="40.203942" style="stroke: #000000; stroke-width: 0.5"/>
      </g>
     </g>
    </g>
    <g id="xtick_18">
     <g id="line2d_35">
      <g>
       <use xlink:href="#m2496b33947" x="302.289085" y="137.535193" style="stroke: #000000; stroke-width: 0.5"/>
      </g>
     </g>
     <g id="line2d_36">
      <g>
       <use xlink:href="#m45aad2c5ae" x="302.289085" y="40.203942" style="stroke: #000000; stroke-width: 0.5"/>
      </g>
     </g>
    </g>
    <g id="xtick_19">
     <g id="line2d_37">
      <g>
       <use xlink:href="#m2496b33947" x="336.101707" y="137.535193" style="stroke: #000000; stroke-width: 0.5"/>
      </g>
     </g>
     <g id="line2d_38">
      <g>
       <use xlink:href="#m45aad2c5ae" x="336.101707" y="40.203942" style="stroke: #000000; stroke-width: 0.5"/>
      </g>
     </g>
    </g>
    <g id="xtick_20">
     <g id="line2d_39">
      <g>
       <use xlink:href="#m2496b33947" x="353.008019" y="137.535193" style="stroke: #000000; stroke-width: 0.5"/>
      </g>
     </g>
     <g id="line2d_40">
      <g>
       <use xlink:href="#m45aad2c5ae" x="353.008019" y="40.203942" style="stroke: #000000; stroke-width: 0.5"/>
      </g>
     </g>
    </g>
    <g id="xtick_21">
     <g id="line2d_41">
      <g>
       <use xlink:href="#m2496b33947" x="369.91433" y="137.535193" style="stroke: #000000; stroke-width: 0.5"/>
      </g>
     </g>
     <g id="line2d_42">
      <g>
       <use xlink:href="#m45aad2c5ae" x="369.91433" y="40.203942" style="stroke: #000000; stroke-width: 0.5"/>
      </g>
     </g>
    </g>
    <g id="xtick_22">
     <g id="line2d_43">
      <g>
       <use xlink:href="#m2496b33947" x="386.820641" y="137.535193" style="stroke: #000000; stroke-width: 0.5"/>
      </g>
     </g>
     <g id="line2d_44">
      <g>
       <use xlink:href="#m45aad2c5ae" x="386.820641" y="40.203942" style="stroke: #000000; stroke-width: 0.5"/>
      </g>
     </g>
    </g>
    <g id="xtick_23">
     <g id="line2d_45">
      <g>
       <use xlink:href="#m2496b33947" x="420.633264" y="137.535193" style="stroke: #000000; stroke-width: 0.5"/>
      </g>
     </g>
     <g id="line2d_46">
      <g>
       <use xlink:href="#m45aad2c5ae" x="420.633264" y="40.203942" style="stroke: #000000; stroke-width: 0.5"/>
      </g>
     </g>
    </g>
    <g id="xtick_24">
     <g id="line2d_47">
      <g>
       <use xlink:href="#m2496b33947" x="437.539576" y="137.535193" style="stroke: #000000; stroke-width: 0.5"/>
      </g>
     </g>
     <g id="line2d_48">
      <g>
       <use xlink:href="#m45aad2c5ae" x="437.539576" y="40.203942" style="stroke: #000000; stroke-width: 0.5"/>
      </g>
     </g>
    </g>
   </g>
   <g id="matplotlib.axis_2">
    <g id="ytick_1">
     <g id="line2d_49">
      <defs>
       <path id="m31f062576c" d="M 0 0 
L 3 0 
" style="stroke: #000000; stroke-width: 0.5"/>
      </defs>
      <g>
       <use xlink:href="#m31f062576c" x="47.30552" y="137.535193" style="stroke: #000000; stroke-width: 0.5"/>
      </g>
     </g>
     <g id="line2d_50">
      <defs>
       <path id="ma59dae7e40" d="M 0 0 
L -3 0 
" style="stroke: #000000; stroke-width: 0.5"/>
      </defs>
      <g>
       <use xlink:href="#ma59dae7e40" x="449.87976" y="137.535193" style="stroke: #000000; stroke-width: 0.5"/>
      </g>
     </g>
     <g id="text_6">
      <!-- $\mathdefault{0}$ -->
      <g transform="translate(38.8242 140.912482)scale(0.1 -0.1)">
       <use xlink:href="#NimbusRomNo9L-Regu-30" transform="scale(0.996264)"/>
      </g>
     </g>
    </g>
    <g id="ytick_2">
     <g id="line2d_51">
      <g>
       <use xlink:href="#m31f062576c" x="47.30552" y="95.742393" style="stroke: #000000; stroke-width: 0.5"/>
      </g>
     </g>
     <g id="line2d_52">
      <g>
       <use xlink:href="#ma59dae7e40" x="449.87976" y="95.742393" style="stroke: #000000; stroke-width: 0.5"/>
      </g>
     </g>
     <g id="text_7">
      <!-- $\mathdefault{500}$ -->
      <g transform="translate(28.86156 99.119682)scale(0.1 -0.1)">
       <defs>
        <path id="NimbusRomNo9L-Regu-35" d="M 1158 3776 
L 2413 3776 
C 2515 3776 2541 3789 2560 3834 
L 2803 4403 
L 2746 4448 
C 2650 4314 2586 4282 2451 4282 
L 1114 4282 
L 416 2759 
C 410 2746 410 2740 410 2727 
C 410 2695 435 2676 486 2676 
C 691 2676 947 2631 1210 2547 
C 1946 2309 2285 1910 2285 1274 
C 2285 656 1894 173 1395 173 
C 1267 173 1158 218 966 360 
C 762 508 614 572 480 572 
C 294 572 205 495 205 334 
C 205 90 506 -64 986 -64 
C 1523 -64 1984 110 2304 438 
C 2598 728 2733 1094 2733 1583 
C 2733 2046 2611 2342 2291 2663 
C 2010 2947 1645 3094 890 3229 
L 1158 3776 
z
" transform="scale(0.015625)"/>
       </defs>
       <use xlink:href="#NimbusRomNo9L-Regu-35" transform="scale(0.996264)"/>
       <use xlink:href="#NimbusRomNo9L-Regu-30" transform="translate(49.8132 0)scale(0.996264)"/>
       <use xlink:href="#NimbusRomNo9L-Regu-30" transform="translate(99.626401 0)scale(0.996264)"/>
      </g>
     </g>
    </g>
    <g id="ytick_3">
     <g id="line2d_53">
      <g>
       <use xlink:href="#m31f062576c" x="47.30552" y="53.949593" style="stroke: #000000; stroke-width: 0.5"/>
      </g>
     </g>
     <g id="line2d_54">
      <g>
       <use xlink:href="#ma59dae7e40" x="449.87976" y="53.949593" style="stroke: #000000; stroke-width: 0.5"/>
      </g>
     </g>
     <g id="text_8">
      <!-- $\mathdefault{1000}$ -->
      <g transform="translate(23.88024 57.326882)scale(0.1 -0.1)">
       <use xlink:href="#NimbusRomNo9L-Regu-31" transform="scale(0.996264)"/>
       <use xlink:href="#NimbusRomNo9L-Regu-30" transform="translate(49.8132 0)scale(0.996264)"/>
       <use xlink:href="#NimbusRomNo9L-Regu-30" transform="translate(99.626401 0)scale(0.996264)"/>
       <use xlink:href="#NimbusRomNo9L-Regu-30" transform="translate(149.439601 0)scale(0.996264)"/>
      </g>
     </g>
    </g>
    <g id="ytick_4">
     <g id="line2d_55">
      <defs>
       <path id="m24e832fe0c" d="M 0 0 
L 1.5 0 
" style="stroke: #000000; stroke-width: 0.5"/>
      </defs>
      <g>
       <use xlink:href="#m24e832fe0c" x="47.30552" y="129.176633" style="stroke: #000000; stroke-width: 0.5"/>
      </g>
     </g>
     <g id="line2d_56">
      <defs>
       <path id="maebd342462" d="M 0 0 
L -1.5 0 
" style="stroke: #000000; stroke-width: 0.5"/>
      </defs>
      <g>
       <use xlink:href="#maebd342462" x="449.87976" y="129.176633" style="stroke: #000000; stroke-width: 0.5"/>
      </g>
     </g>
    </g>
    <g id="ytick_5">
     <g id="line2d_57">
      <g>
       <use xlink:href="#m24e832fe0c" x="47.30552" y="120.818073" style="stroke: #000000; stroke-width: 0.5"/>
      </g>
     </g>
     <g id="line2d_58">
      <g>
       <use xlink:href="#maebd342462" x="449.87976" y="120.818073" style="stroke: #000000; stroke-width: 0.5"/>
      </g>
     </g>
    </g>
    <g id="ytick_6">
     <g id="line2d_59">
      <g>
       <use xlink:href="#m24e832fe0c" x="47.30552" y="112.459513" style="stroke: #000000; stroke-width: 0.5"/>
      </g>
     </g>
     <g id="line2d_60">
      <g>
       <use xlink:href="#maebd342462" x="449.87976" y="112.459513" style="stroke: #000000; stroke-width: 0.5"/>
      </g>
     </g>
    </g>
    <g id="ytick_7">
     <g id="line2d_61">
      <g>
       <use xlink:href="#m24e832fe0c" x="47.30552" y="104.100953" style="stroke: #000000; stroke-width: 0.5"/>
      </g>
     </g>
     <g id="line2d_62">
      <g>
       <use xlink:href="#maebd342462" x="449.87976" y="104.100953" style="stroke: #000000; stroke-width: 0.5"/>
      </g>
     </g>
    </g>
    <g id="ytick_8">
     <g id="line2d_63">
      <g>
       <use xlink:href="#m24e832fe0c" x="47.30552" y="87.383833" style="stroke: #000000; stroke-width: 0.5"/>
      </g>
     </g>
     <g id="line2d_64">
      <g>
       <use xlink:href="#maebd342462" x="449.87976" y="87.383833" style="stroke: #000000; stroke-width: 0.5"/>
      </g>
     </g>
    </g>
    <g id="ytick_9">
     <g id="line2d_65">
      <g>
       <use xlink:href="#m24e832fe0c" x="47.30552" y="79.025273" style="stroke: #000000; stroke-width: 0.5"/>
      </g>
     </g>
     <g id="line2d_66">
      <g>
       <use xlink:href="#maebd342462" x="449.87976" y="79.025273" style="stroke: #000000; stroke-width: 0.5"/>
      </g>
     </g>
    </g>
    <g id="ytick_10">
     <g id="line2d_67">
      <g>
       <use xlink:href="#m24e832fe0c" x="47.30552" y="70.666713" style="stroke: #000000; stroke-width: 0.5"/>
      </g>
     </g>
     <g id="line2d_68">
      <g>
       <use xlink:href="#maebd342462" x="449.87976" y="70.666713" style="stroke: #000000; stroke-width: 0.5"/>
      </g>
     </g>
    </g>
    <g id="ytick_11">
     <g id="line2d_69">
      <g>
       <use xlink:href="#m24e832fe0c" x="47.30552" y="62.308153" style="stroke: #000000; stroke-width: 0.5"/>
      </g>
     </g>
     <g id="line2d_70">
      <g>
       <use xlink:href="#maebd342462" x="449.87976" y="62.308153" style="stroke: #000000; stroke-width: 0.5"/>
      </g>
     </g>
    </g>
    <g id="ytick_12">
     <g id="line2d_71">
      <g>
       <use xlink:href="#m24e832fe0c" x="47.30552" y="45.591033" style="stroke: #000000; stroke-width: 0.5"/>
      </g>
     </g>
     <g id="line2d_72">
      <g>
       <use xlink:href="#maebd342462" x="449.87976" y="45.591033" style="stroke: #000000; stroke-width: 0.5"/>
      </g>
     </g>
    </g>
   </g>
   <g id="patch_103">
    <path d="M 47.30552 137.535193 
L 47.30552 40.203942 
" style="fill: none; stroke: #000000; stroke-width: 0.5; stroke-linejoin: miter; stroke-linecap: square"/>
   </g>
   <g id="patch_104">
    <path d="M 449.87976 137.535193 
L 449.87976 40.203942 
" style="fill: none; stroke: #000000; stroke-width: 0.5; stroke-linejoin: miter; stroke-linecap: square"/>
   </g>
   <g id="patch_105">
    <path d="M 47.30552 137.535193 
L 449.87976 137.535193 
" style="fill: none; stroke: #000000; stroke-width: 0.5; stroke-linejoin: miter; stroke-linecap: square"/>
   </g>
   <g id="patch_106">
    <path d="M 47.30552 40.203942 
L 449.87976 40.203942 
" style="fill: none; stroke: #000000; stroke-width: 0.5; stroke-linejoin: miter; stroke-linecap: square"/>
   </g>
   <g id="text_9">
    <!-- $\widetilde{\chi_1^\pm}$ -->
    <g transform="translate(241.327898 34.203942)scale(0.12 -0.12)">
     <defs>
      <path id="CMEX10-66" d="M 6330 4800 
C 6157 4710 5222 4233 4410 4233 
C 3942 4233 3661 4349 3219 4542 
C 2912 4671 2598 4800 2157 4800 
C 1408 4800 666 4440 0 4118 
L 64 3990 
C 237 4080 1171 4557 1984 4557 
C 2451 4557 2733 4441 3174 4248 
C 3482 4119 3795 3990 4237 3990 
C 4986 3990 5728 4350 6394 4672 
L 6330 4800 
z
" transform="scale(0.015625)"/>
      <path id="StandardSymL-63" d="M 2502 3171 
L 1677 1658 
L 1446 2612 
C 1350 3012 1107 3254 794 3254 
C 410 3254 141 2828 77 2122 
L 250 2122 
C 294 2503 486 2752 723 2752 
C 877 2752 1043 2650 1146 2497 
C 1197 2414 1254 2268 1293 2096 
L 1485 1308 
L 90 -1223 
L 768 -1223 
L 1677 456 
L 1779 -97 
C 1875 -574 1894 -663 1939 -791 
C 2074 -1147 2291 -1344 2554 -1344 
C 2784 -1344 3014 -1179 3155 -931 
C 3264 -733 3322 -498 3341 -167 
L 3187 -167 
C 3123 -390 3098 -453 3053 -517 
C 2963 -670 2810 -752 2643 -752 
C 2342 -752 2182 -492 1990 296 
L 1869 799 
L 3168 3171 
L 2502 3171 
z
" transform="scale(0.015625)"/>
      <path id="CMSY10-6" d="M 2618 1984 
L 4397 1984 
C 4506 1984 4621 1984 4621 2112 
C 4621 2240 4506 2240 4397 2240 
L 2618 2240 
L 2618 4018 
C 2618 4121 2618 4256 2490 4256 
C 2362 4256 2362 4140 2362 4038 
L 2362 2240 
L 576 2240 
C 467 2240 352 2240 352 2112 
C 352 1984 467 1984 576 1984 
L 2362 1984 
L 2362 256 
L 576 256 
C 467 256 352 256 352 128 
C 352 0 467 0 576 0 
L 4397 0 
C 4506 0 4621 0 4621 128 
C 4621 256 4506 256 4397 256 
L 2618 256 
L 2618 1984 
z
" transform="scale(0.015625)"/>
     </defs>
     <use xlink:href="#CMEX10-66" transform="translate(9.313752 40.531965)scale(0.996264)"/>
     <use xlink:href="#StandardSymL-63" transform="scale(0.996264)"/>
     <use xlink:href="#CMSY10-6" transform="translate(62.963502 40.389722)scale(0.737241)"/>
     <use xlink:href="#NimbusRomNo9L-Regu-31" transform="translate(54.694873 -30.986523)scale(0.737241)"/>
    </g>
   </g>
  </g>
  <g id="axes_2">
   <g id="patch_107">
    <path d="M 47.30552 273.188114 
L 449.87976 273.188114 
L 449.87976 175.856862 
L 47.30552 175.856862 
z
" style="fill: #ffffff"/>
   </g>
   <g id="patch_108">
    <path d="M 65.604349 273.188114 
L 69.264115 273.188114 
L 69.264115 272.770186 
L 65.604349 272.770186 
z
" clip-path="url(#pa0bc586cdd)"/>
   </g>
   <g id="patch_109">
    <path d="M 69.264115 273.188114 
L 72.923881 273.188114 
L 72.923881 271.93433 
L 69.264115 271.93433 
z
" clip-path="url(#pa0bc586cdd)"/>
   </g>
   <g id="patch_110">
    <path d="M 72.923881 273.188114 
L 76.583647 273.188114 
L 76.583647 271.014888 
L 72.923881 271.014888 
z
" clip-path="url(#pa0bc586cdd)"/>
   </g>
   <g id="patch_111">
    <path d="M 76.583647 273.188114 
L 80.243413 273.188114 
L 80.243413 269.176005 
L 76.583647 269.176005 
z
" clip-path="url(#pa0bc586cdd)"/>
   </g>
   <g id="patch_112">
    <path d="M 80.243413 273.188114 
L 83.903178 273.188114 
L 83.903178 267.587878 
L 80.243413 267.587878 
z
" clip-path="url(#pa0bc586cdd)"/>
   </g>
   <g id="patch_113">
    <path d="M 83.903178 273.188114 
L 87.562944 273.188114 
L 87.562944 264.244454 
L 83.903178 264.244454 
z
" clip-path="url(#pa0bc586cdd)"/>
   </g>
   <g id="patch_114">
    <path d="M 87.562944 273.188114 
L 91.22271 273.188114 
L 91.22271 258.81139 
L 87.562944 258.81139 
z
" clip-path="url(#pa0bc586cdd)"/>
   </g>
   <g id="patch_115">
    <path d="M 91.22271 273.188114 
L 94.882476 273.188114 
L 94.882476 242.595784 
L 91.22271 242.595784 
z
" clip-path="url(#pa0bc586cdd)"/>
   </g>
   <g id="patch_116">
    <path d="M 94.882476 273.188114 
L 98.542242 273.188114 
L 98.542242 229.556431 
L 94.882476 229.556431 
z
" clip-path="url(#pa0bc586cdd)"/>
   </g>
   <g id="patch_117">
    <path d="M 98.542242 273.188114 
L 102.202007 273.188114 
L 102.202007 215.764807 
L 98.542242 215.764807 
z
" clip-path="url(#pa0bc586cdd)"/>
   </g>
   <g id="patch_118">
    <path d="M 102.202007 273.188114 
L 105.861773 273.188114 
L 105.861773 198.713344 
L 102.202007 198.713344 
z
" clip-path="url(#pa0bc586cdd)"/>
   </g>
   <g id="patch_119">
    <path d="M 105.861773 273.188114 
L 109.521539 273.188114 
L 109.521539 186.342676 
L 105.861773 186.342676 
z
" clip-path="url(#pa0bc586cdd)"/>
   </g>
   <g id="patch_120">
    <path d="M 109.521539 273.188114 
L 113.181305 273.188114 
L 113.181305 180.491684 
L 109.521539 180.491684 
z
" clip-path="url(#pa0bc586cdd)"/>
   </g>
   <g id="patch_121">
    <path d="M 113.181305 273.188114 
L 116.841071 273.188114 
L 116.841071 184.420207 
L 113.181305 184.420207 
z
" clip-path="url(#pa0bc586cdd)"/>
   </g>
   <g id="patch_122">
    <path d="M 116.841071 273.188114 
L 120.500837 273.188114 
L 120.500837 197.543146 
L 116.841071 197.543146 
z
" clip-path="url(#pa0bc586cdd)"/>
   </g>
   <g id="patch_123">
    <path d="M 120.500837 273.188114 
L 124.160602 273.188114 
L 124.160602 216.851419 
L 120.500837 216.851419 
z
" clip-path="url(#pa0bc586cdd)"/>
   </g>
   <g id="patch_124">
    <path d="M 124.160602 273.188114 
L 127.820368 273.188114 
L 127.820368 224.541295 
L 124.160602 224.541295 
z
" clip-path="url(#pa0bc586cdd)"/>
   </g>
   <g id="patch_125">
    <path d="M 127.820368 273.188114 
L 131.480134 273.188114 
L 131.480134 244.016739 
L 127.820368 244.016739 
z
" clip-path="url(#pa0bc586cdd)"/>
   </g>
   <g id="patch_126">
    <path d="M 131.480134 273.188114 
L 135.1399 273.188114 
L 135.1399 253.87984 
L 131.480134 253.87984 
z
" clip-path="url(#pa0bc586cdd)"/>
   </g>
   <g id="patch_127">
    <path d="M 135.1399 273.188114 
L 138.799666 273.188114 
L 138.799666 257.557606 
L 135.1399 257.557606 
z
" clip-path="url(#pa0bc586cdd)"/>
   </g>
   <g id="patch_128">
    <path d="M 138.799666 273.188114 
L 142.459431 273.188114 
L 142.459431 264.913139 
L 138.799666 264.913139 
z
" clip-path="url(#pa0bc586cdd)"/>
   </g>
   <g id="patch_129">
    <path d="M 142.459431 273.188114 
L 146.119197 273.188114 
L 146.119197 268.925248 
L 142.459431 268.925248 
z
" clip-path="url(#pa0bc586cdd)"/>
   </g>
   <g id="patch_130">
    <path d="M 146.119197 273.188114 
L 149.778963 273.188114 
L 149.778963 270.59696 
L 146.119197 270.59696 
z
" clip-path="url(#pa0bc586cdd)"/>
   </g>
   <g id="patch_131">
    <path d="M 149.778963 273.188114 
L 153.438729 273.188114 
L 153.438729 272.770186 
L 149.778963 272.770186 
z
" clip-path="url(#pa0bc586cdd)"/>
   </g>
   <g id="patch_132">
    <path d="M 153.438729 273.188114 
L 157.098495 273.188114 
L 157.098495 273.188114 
L 153.438729 273.188114 
z
" clip-path="url(#pa0bc586cdd)"/>
   </g>
   <g id="patch_133">
    <path d="M 157.098495 273.188114 
L 160.758261 273.188114 
L 160.758261 272.853771 
L 157.098495 272.853771 
z
" clip-path="url(#pa0bc586cdd)"/>
   </g>
   <g id="patch_134">
    <path d="M 160.758261 273.188114 
L 164.418026 273.188114 
L 164.418026 273.104528 
L 160.758261 273.104528 
z
" clip-path="url(#pa0bc586cdd)"/>
   </g>
   <g id="patch_135">
    <path d="M 164.418026 273.188114 
L 168.077792 273.188114 
L 168.077792 273.188114 
L 164.418026 273.188114 
z
" clip-path="url(#pa0bc586cdd)"/>
   </g>
   <g id="patch_136">
    <path d="M 168.077792 273.188114 
L 171.737558 273.188114 
L 171.737558 273.020942 
L 168.077792 273.020942 
z
" clip-path="url(#pa0bc586cdd)"/>
   </g>
   <g id="patch_137">
    <path d="M 171.737558 273.188114 
L 175.397324 273.188114 
L 175.397324 273.020942 
L 171.737558 273.020942 
z
" clip-path="url(#pa0bc586cdd)"/>
   </g>
   <g id="patch_138">
    <path d="M 175.397324 273.188114 
L 179.05709 273.188114 
L 179.05709 273.104528 
L 175.397324 273.104528 
z
" clip-path="url(#pa0bc586cdd)"/>
   </g>
   <g id="patch_139">
    <path d="M 179.05709 273.188114 
L 182.716855 273.188114 
L 182.716855 273.188114 
L 179.05709 273.188114 
z
" clip-path="url(#pa0bc586cdd)"/>
   </g>
   <g id="patch_140">
    <path d="M 182.716855 273.188114 
L 186.376621 273.188114 
L 186.376621 273.104528 
L 182.716855 273.104528 
z
" clip-path="url(#pa0bc586cdd)"/>
   </g>
   <g id="patch_141">
    <path d="M 186.376621 273.188114 
L 190.036387 273.188114 
L 190.036387 273.020942 
L 186.376621 273.020942 
z
" clip-path="url(#pa0bc586cdd)"/>
   </g>
   <g id="patch_142">
    <path d="M 190.036387 273.188114 
L 193.696153 273.188114 
L 193.696153 273.104528 
L 190.036387 273.104528 
z
" clip-path="url(#pa0bc586cdd)"/>
   </g>
   <g id="patch_143">
    <path d="M 193.696153 273.188114 
L 197.355919 273.188114 
L 197.355919 273.188114 
L 193.696153 273.188114 
z
" clip-path="url(#pa0bc586cdd)"/>
   </g>
   <g id="patch_144">
    <path d="M 197.355919 273.188114 
L 201.015684 273.188114 
L 201.015684 273.104528 
L 197.355919 273.104528 
z
" clip-path="url(#pa0bc586cdd)"/>
   </g>
   <g id="patch_145">
    <path d="M 201.015684 273.188114 
L 204.67545 273.188114 
L 204.67545 273.188114 
L 201.015684 273.188114 
z
" clip-path="url(#pa0bc586cdd)"/>
   </g>
   <g id="patch_146">
    <path d="M 204.67545 273.188114 
L 208.335216 273.188114 
L 208.335216 273.104528 
L 204.67545 273.104528 
z
" clip-path="url(#pa0bc586cdd)"/>
   </g>
   <g id="patch_147">
    <path d="M 208.335216 273.188114 
L 211.994982 273.188114 
L 211.994982 273.188114 
L 208.335216 273.188114 
z
" clip-path="url(#pa0bc586cdd)"/>
   </g>
   <g id="patch_148">
    <path d="M 211.994982 273.188114 
L 215.654748 273.188114 
L 215.654748 273.104528 
L 211.994982 273.104528 
z
" clip-path="url(#pa0bc586cdd)"/>
   </g>
   <g id="patch_149">
    <path d="M 215.654748 273.188114 
L 219.314514 273.188114 
L 219.314514 273.104528 
L 215.654748 273.104528 
z
" clip-path="url(#pa0bc586cdd)"/>
   </g>
   <g id="patch_150">
    <path d="M 219.314514 273.188114 
L 222.974279 273.188114 
L 222.974279 273.104528 
L 219.314514 273.104528 
z
" clip-path="url(#pa0bc586cdd)"/>
   </g>
   <g id="patch_151">
    <path d="M 222.974279 273.188114 
L 226.634045 273.188114 
L 226.634045 272.937357 
L 222.974279 272.937357 
z
" clip-path="url(#pa0bc586cdd)"/>
   </g>
   <g id="patch_152">
    <path d="M 226.634045 273.188114 
L 230.293811 273.188114 
L 230.293811 273.020942 
L 226.634045 273.020942 
z
" clip-path="url(#pa0bc586cdd)"/>
   </g>
   <g id="patch_153">
    <path d="M 230.293811 273.188114 
L 233.953577 273.188114 
L 233.953577 273.020942 
L 230.293811 273.020942 
z
" clip-path="url(#pa0bc586cdd)"/>
   </g>
   <g id="patch_154">
    <path d="M 233.953577 273.188114 
L 237.613343 273.188114 
L 237.613343 272.937357 
L 233.953577 272.937357 
z
" clip-path="url(#pa0bc586cdd)"/>
   </g>
   <g id="patch_155">
    <path d="M 237.613343 273.188114 
L 241.273108 273.188114 
L 241.273108 273.188114 
L 237.613343 273.188114 
z
" clip-path="url(#pa0bc586cdd)"/>
   </g>
   <g id="patch_156">
    <path d="M 241.273108 273.188114 
L 244.932874 273.188114 
L 244.932874 273.104528 
L 241.273108 273.104528 
z
" clip-path="url(#pa0bc586cdd)"/>
   </g>
   <g id="patch_157">
    <path d="M 244.932874 273.188114 
L 248.59264 273.188114 
L 248.59264 273.104528 
L 244.932874 273.104528 
z
" clip-path="url(#pa0bc586cdd)"/>
   </g>
   <g id="patch_158">
    <path d="M 248.59264 273.188114 
L 252.252406 273.188114 
L 252.252406 273.020942 
L 248.59264 273.020942 
z
" clip-path="url(#pa0bc586cdd)"/>
   </g>
   <g id="patch_159">
    <path d="M 252.252406 273.188114 
L 255.912172 273.188114 
L 255.912172 272.937357 
L 252.252406 272.937357 
z
" clip-path="url(#pa0bc586cdd)"/>
   </g>
   <g id="patch_160">
    <path d="M 255.912172 273.188114 
L 259.571938 273.188114 
L 259.571938 273.104528 
L 255.912172 273.104528 
z
" clip-path="url(#pa0bc586cdd)"/>
   </g>
   <g id="patch_161">
    <path d="M 259.571938 273.188114 
L 263.231703 273.188114 
L 263.231703 272.770186 
L 259.571938 272.770186 
z
" clip-path="url(#pa0bc586cdd)"/>
   </g>
   <g id="patch_162">
    <path d="M 263.231703 273.188114 
L 266.891469 273.188114 
L 266.891469 272.853771 
L 263.231703 272.853771 
z
" clip-path="url(#pa0bc586cdd)"/>
   </g>
   <g id="patch_163">
    <path d="M 266.891469 273.188114 
L 270.551235 273.188114 
L 270.551235 272.853771 
L 266.891469 272.853771 
z
" clip-path="url(#pa0bc586cdd)"/>
   </g>
   <g id="patch_164">
    <path d="M 270.551235 273.188114 
L 274.211001 273.188114 
L 274.211001 273.020942 
L 270.551235 273.020942 
z
" clip-path="url(#pa0bc586cdd)"/>
   </g>
   <g id="patch_165">
    <path d="M 274.211001 273.188114 
L 277.870767 273.188114 
L 277.870767 272.937357 
L 274.211001 272.937357 
z
" clip-path="url(#pa0bc586cdd)"/>
   </g>
   <g id="patch_166">
    <path d="M 277.870767 273.188114 
L 281.530532 273.188114 
L 281.530532 272.853771 
L 277.870767 272.853771 
z
" clip-path="url(#pa0bc586cdd)"/>
   </g>
   <g id="patch_167">
    <path d="M 281.530532 273.188114 
L 285.190298 273.188114 
L 285.190298 273.104528 
L 281.530532 273.104528 
z
" clip-path="url(#pa0bc586cdd)"/>
   </g>
   <g id="patch_168">
    <path d="M 285.190298 273.188114 
L 288.850064 273.188114 
L 288.850064 272.937357 
L 285.190298 272.937357 
z
" clip-path="url(#pa0bc586cdd)"/>
   </g>
   <g id="patch_169">
    <path d="M 288.850064 273.188114 
L 292.50983 273.188114 
L 292.50983 273.020942 
L 288.850064 273.020942 
z
" clip-path="url(#pa0bc586cdd)"/>
   </g>
   <g id="patch_170">
    <path d="M 292.50983 273.188114 
L 296.169596 273.188114 
L 296.169596 273.104528 
L 292.50983 273.104528 
z
" clip-path="url(#pa0bc586cdd)"/>
   </g>
   <g id="patch_171">
    <path d="M 296.169596 273.188114 
L 299.829362 273.188114 
L 299.829362 273.020942 
L 296.169596 273.020942 
z
" clip-path="url(#pa0bc586cdd)"/>
   </g>
   <g id="patch_172">
    <path d="M 299.829362 273.188114 
L 303.489127 273.188114 
L 303.489127 273.020942 
L 299.829362 273.020942 
z
" clip-path="url(#pa0bc586cdd)"/>
   </g>
   <g id="patch_173">
    <path d="M 303.489127 273.188114 
L 307.148893 273.188114 
L 307.148893 273.188114 
L 303.489127 273.188114 
z
" clip-path="url(#pa0bc586cdd)"/>
   </g>
   <g id="patch_174">
    <path d="M 307.148893 273.188114 
L 310.808659 273.188114 
L 310.808659 273.020942 
L 307.148893 273.020942 
z
" clip-path="url(#pa0bc586cdd)"/>
   </g>
   <g id="patch_175">
    <path d="M 310.808659 273.188114 
L 314.468425 273.188114 
L 314.468425 272.770186 
L 310.808659 272.770186 
z
" clip-path="url(#pa0bc586cdd)"/>
   </g>
   <g id="patch_176">
    <path d="M 314.468425 273.188114 
L 318.128191 273.188114 
L 318.128191 273.104528 
L 314.468425 273.104528 
z
" clip-path="url(#pa0bc586cdd)"/>
   </g>
   <g id="patch_177">
    <path d="M 318.128191 273.188114 
L 321.787956 273.188114 
L 321.787956 273.188114 
L 318.128191 273.188114 
z
" clip-path="url(#pa0bc586cdd)"/>
   </g>
   <g id="patch_178">
    <path d="M 321.787956 273.188114 
L 325.447722 273.188114 
L 325.447722 272.937357 
L 321.787956 272.937357 
z
" clip-path="url(#pa0bc586cdd)"/>
   </g>
   <g id="patch_179">
    <path d="M 325.447722 273.188114 
L 329.107488 273.188114 
L 329.107488 273.104528 
L 325.447722 273.104528 
z
" clip-path="url(#pa0bc586cdd)"/>
   </g>
   <g id="patch_180">
    <path d="M 329.107488 273.188114 
L 332.767254 273.188114 
L 332.767254 272.937357 
L 329.107488 272.937357 
z
" clip-path="url(#pa0bc586cdd)"/>
   </g>
   <g id="patch_181">
    <path d="M 332.767254 273.188114 
L 336.42702 273.188114 
L 336.42702 273.104528 
L 332.767254 273.104528 
z
" clip-path="url(#pa0bc586cdd)"/>
   </g>
   <g id="patch_182">
    <path d="M 336.42702 273.188114 
L 340.086786 273.188114 
L 340.086786 272.937357 
L 336.42702 272.937357 
z
" clip-path="url(#pa0bc586cdd)"/>
   </g>
   <g id="patch_183">
    <path d="M 340.086786 273.188114 
L 343.746551 273.188114 
L 343.746551 273.104528 
L 340.086786 273.104528 
z
" clip-path="url(#pa0bc586cdd)"/>
   </g>
   <g id="patch_184">
    <path d="M 343.746551 273.188114 
L 347.406317 273.188114 
L 347.406317 273.188114 
L 343.746551 273.188114 
z
" clip-path="url(#pa0bc586cdd)"/>
   </g>
   <g id="patch_185">
    <path d="M 347.406317 273.188114 
L 351.066083 273.188114 
L 351.066083 273.020942 
L 347.406317 273.020942 
z
" clip-path="url(#pa0bc586cdd)"/>
   </g>
   <g id="patch_186">
    <path d="M 351.066083 273.188114 
L 354.725849 273.188114 
L 354.725849 273.188114 
L 351.066083 273.188114 
z
" clip-path="url(#pa0bc586cdd)"/>
   </g>
   <g id="patch_187">
    <path d="M 354.725849 273.188114 
L 358.385615 273.188114 
L 358.385615 273.104528 
L 354.725849 273.104528 
z
" clip-path="url(#pa0bc586cdd)"/>
   </g>
   <g id="patch_188">
    <path d="M 358.385615 273.188114 
L 362.04538 273.188114 
L 362.04538 273.188114 
L 358.385615 273.188114 
z
" clip-path="url(#pa0bc586cdd)"/>
   </g>
   <g id="patch_189">
    <path d="M 362.04538 273.188114 
L 365.705146 273.188114 
L 365.705146 273.188114 
L 362.04538 273.188114 
z
" clip-path="url(#pa0bc586cdd)"/>
   </g>
   <g id="patch_190">
    <path d="M 365.705146 273.188114 
L 369.364912 273.188114 
L 369.364912 273.188114 
L 365.705146 273.188114 
z
" clip-path="url(#pa0bc586cdd)"/>
   </g>
   <g id="patch_191">
    <path d="M 369.364912 273.188114 
L 373.024678 273.188114 
L 373.024678 272.937357 
L 369.364912 272.937357 
z
" clip-path="url(#pa0bc586cdd)"/>
   </g>
   <g id="patch_192">
    <path d="M 373.024678 273.188114 
L 376.684444 273.188114 
L 376.684444 273.188114 
L 373.024678 273.188114 
z
" clip-path="url(#pa0bc586cdd)"/>
   </g>
   <g id="patch_193">
    <path d="M 376.684444 273.188114 
L 380.344209 273.188114 
L 380.344209 273.104528 
L 376.684444 273.104528 
z
" clip-path="url(#pa0bc586cdd)"/>
   </g>
   <g id="patch_194">
    <path d="M 380.344209 273.188114 
L 384.003975 273.188114 
L 384.003975 272.937357 
L 380.344209 272.937357 
z
" clip-path="url(#pa0bc586cdd)"/>
   </g>
   <g id="patch_195">
    <path d="M 384.003975 273.188114 
L 387.663741 273.188114 
L 387.663741 273.104528 
L 384.003975 273.104528 
z
" clip-path="url(#pa0bc586cdd)"/>
   </g>
   <g id="patch_196">
    <path d="M 387.663741 273.188114 
L 391.323507 273.188114 
L 391.323507 273.020942 
L 387.663741 273.020942 
z
" clip-path="url(#pa0bc586cdd)"/>
   </g>
   <g id="patch_197">
    <path d="M 391.323507 273.188114 
L 394.983273 273.188114 
L 394.983273 273.188114 
L 391.323507 273.188114 
z
" clip-path="url(#pa0bc586cdd)"/>
   </g>
   <g id="patch_198">
    <path d="M 394.983273 273.188114 
L 398.643039 273.188114 
L 398.643039 273.188114 
L 394.983273 273.188114 
z
" clip-path="url(#pa0bc586cdd)"/>
   </g>
   <g id="patch_199">
    <path d="M 398.643039 273.188114 
L 402.302804 273.188114 
L 402.302804 273.188114 
L 398.643039 273.188114 
z
" clip-path="url(#pa0bc586cdd)"/>
   </g>
   <g id="patch_200">
    <path d="M 402.302804 273.188114 
L 405.96257 273.188114 
L 405.96257 273.104528 
L 402.302804 273.104528 
z
" clip-path="url(#pa0bc586cdd)"/>
   </g>
   <g id="patch_201">
    <path d="M 405.96257 273.188114 
L 409.622336 273.188114 
L 409.622336 273.188114 
L 405.96257 273.188114 
z
" clip-path="url(#pa0bc586cdd)"/>
   </g>
   <g id="patch_202">
    <path d="M 409.622336 273.188114 
L 413.282102 273.188114 
L 413.282102 273.188114 
L 409.622336 273.188114 
z
" clip-path="url(#pa0bc586cdd)"/>
   </g>
   <g id="patch_203">
    <path d="M 413.282102 273.188114 
L 416.941868 273.188114 
L 416.941868 273.188114 
L 413.282102 273.188114 
z
" clip-path="url(#pa0bc586cdd)"/>
   </g>
   <g id="patch_204">
    <path d="M 416.941868 273.188114 
L 420.601633 273.188114 
L 420.601633 273.104528 
L 416.941868 273.104528 
z
" clip-path="url(#pa0bc586cdd)"/>
   </g>
   <g id="patch_205">
    <path d="M 420.601633 273.188114 
L 424.261399 273.188114 
L 424.261399 273.188114 
L 420.601633 273.188114 
z
" clip-path="url(#pa0bc586cdd)"/>
   </g>
   <g id="patch_206">
    <path d="M 424.261399 273.188114 
L 427.921165 273.188114 
L 427.921165 273.188114 
L 424.261399 273.188114 
z
" clip-path="url(#pa0bc586cdd)"/>
   </g>
   <g id="patch_207">
    <path d="M 427.921165 273.188114 
L 431.580931 273.188114 
L 431.580931 273.104528 
L 427.921165 273.104528 
z
" clip-path="url(#pa0bc586cdd)"/>
   </g>
   <g id="matplotlib.axis_3">
    <g id="xtick_25">
     <g id="line2d_73">
      <g>
       <use xlink:href="#m87dfe160a6" x="76.270484" y="273.188114" style="stroke: #000000; stroke-width: 0.5"/>
      </g>
     </g>
     <g id="line2d_74">
      <g>
       <use xlink:href="#mc362aaed7a" x="76.270484" y="175.856862" style="stroke: #000000; stroke-width: 0.5"/>
      </g>
     </g>
     <g id="text_10">
      <!-- $\mathdefault{2000}$ -->
      <g transform="translate(66.307844 283.442691)scale(0.1 -0.1)">
       <use xlink:href="#NimbusRomNo9L-Regu-32" transform="scale(0.996264)"/>
       <use xlink:href="#NimbusRomNo9L-Regu-30" transform="translate(49.8132 0)scale(0.996264)"/>
       <use xlink:href="#NimbusRomNo9L-Regu-30" transform="translate(99.626401 0)scale(0.996264)"/>
       <use xlink:href="#NimbusRomNo9L-Regu-30" transform="translate(149.439601 0)scale(0.996264)"/>
      </g>
     </g>
    </g>
    <g id="xtick_26">
     <g id="line2d_75">
      <g>
       <use xlink:href="#m87dfe160a6" x="143.297589" y="273.188114" style="stroke: #000000; stroke-width: 0.5"/>
      </g>
     </g>
     <g id="line2d_76">
      <g>
       <use xlink:href="#mc362aaed7a" x="143.297589" y="175.856862" style="stroke: #000000; stroke-width: 0.5"/>
      </g>
     </g>
     <g id="text_11">
      <!-- $\mathdefault{3000}$ -->
      <g transform="translate(133.334949 283.442691)scale(0.1 -0.1)">
       <use xlink:href="#NimbusRomNo9L-Regu-33" transform="scale(0.996264)"/>
       <use xlink:href="#NimbusRomNo9L-Regu-30" transform="translate(49.8132 0)scale(0.996264)"/>
       <use xlink:href="#NimbusRomNo9L-Regu-30" transform="translate(99.626401 0)scale(0.996264)"/>
       <use xlink:href="#NimbusRomNo9L-Regu-30" transform="translate(149.439601 0)scale(0.996264)"/>
      </g>
     </g>
    </g>
    <g id="xtick_27">
     <g id="line2d_77">
      <g>
       <use xlink:href="#m87dfe160a6" x="210.324694" y="273.188114" style="stroke: #000000; stroke-width: 0.5"/>
      </g>
     </g>
     <g id="line2d_78">
      <g>
       <use xlink:href="#mc362aaed7a" x="210.324694" y="175.856862" style="stroke: #000000; stroke-width: 0.5"/>
      </g>
     </g>
     <g id="text_12">
      <!-- $\mathdefault{4000}$ -->
      <g transform="translate(200.362054 283.442691)scale(0.1 -0.1)">
       <use xlink:href="#NimbusRomNo9L-Regu-34" transform="scale(0.996264)"/>
       <use xlink:href="#NimbusRomNo9L-Regu-30" transform="translate(49.8132 0)scale(0.996264)"/>
       <use xlink:href="#NimbusRomNo9L-Regu-30" transform="translate(99.626401 0)scale(0.996264)"/>
       <use xlink:href="#NimbusRomNo9L-Regu-30" transform="translate(149.439601 0)scale(0.996264)"/>
      </g>
     </g>
    </g>
    <g id="xtick_28">
     <g id="line2d_79">
      <g>
       <use xlink:href="#m87dfe160a6" x="277.3518" y="273.188114" style="stroke: #000000; stroke-width: 0.5"/>
      </g>
     </g>
     <g id="line2d_80">
      <g>
       <use xlink:href="#mc362aaed7a" x="277.3518" y="175.856862" style="stroke: #000000; stroke-width: 0.5"/>
      </g>
     </g>
     <g id="text_13">
      <!-- $\mathdefault{5000}$ -->
      <g transform="translate(267.389159 283.442691)scale(0.1 -0.1)">
       <use xlink:href="#NimbusRomNo9L-Regu-35" transform="scale(0.996264)"/>
       <use xlink:href="#NimbusRomNo9L-Regu-30" transform="translate(49.8132 0)scale(0.996264)"/>
       <use xlink:href="#NimbusRomNo9L-Regu-30" transform="translate(99.626401 0)scale(0.996264)"/>
       <use xlink:href="#NimbusRomNo9L-Regu-30" transform="translate(149.439601 0)scale(0.996264)"/>
      </g>
     </g>
    </g>
    <g id="xtick_29">
     <g id="line2d_81">
      <g>
       <use xlink:href="#m87dfe160a6" x="344.378905" y="273.188114" style="stroke: #000000; stroke-width: 0.5"/>
      </g>
     </g>
     <g id="line2d_82">
      <g>
       <use xlink:href="#mc362aaed7a" x="344.378905" y="175.856862" style="stroke: #000000; stroke-width: 0.5"/>
      </g>
     </g>
     <g id="text_14">
      <!-- $\mathdefault{6000}$ -->
      <g transform="translate(334.416264 283.442691)scale(0.1 -0.1)">
       <defs>
        <path id="NimbusRomNo9L-Regu-36" d="M 2854 4391 
C 2125 4327 1754 4205 1286 3879 
C 595 3386 218 2656 218 1802 
C 218 1248 390 688 666 370 
C 909 89 1254 -64 1651 -64 
C 2445 -64 2995 541 2995 1421 
C 2995 2236 2528 2752 1792 2752 
C 1510 2752 1376 2707 973 2464 
C 1146 3431 1862 4122 2867 4288 
L 2854 4391 
z
M 1549 2458 
C 2099 2458 2419 2000 2419 1204 
C 2419 504 2170 116 1722 116 
C 1158 116 813 714 813 1700 
C 813 2025 864 2203 992 2299 
C 1126 2400 1325 2458 1549 2458 
z
" transform="scale(0.015625)"/>
       </defs>
       <use xlink:href="#NimbusRomNo9L-Regu-36" transform="scale(0.996264)"/>
       <use xlink:href="#NimbusRomNo9L-Regu-30" transform="translate(49.8132 0)scale(0.996264)"/>
       <use xlink:href="#NimbusRomNo9L-Regu-30" transform="translate(99.626401 0)scale(0.996264)"/>
       <use xlink:href="#NimbusRomNo9L-Regu-30" transform="translate(149.439601 0)scale(0.996264)"/>
      </g>
     </g>
    </g>
    <g id="xtick_30">
     <g id="line2d_83">
      <g>
       <use xlink:href="#m87dfe160a6" x="411.40601" y="273.188114" style="stroke: #000000; stroke-width: 0.5"/>
      </g>
     </g>
     <g id="line2d_84">
      <g>
       <use xlink:href="#mc362aaed7a" x="411.40601" y="175.856862" style="stroke: #000000; stroke-width: 0.5"/>
      </g>
     </g>
     <g id="text_15">
      <!-- $\mathdefault{7000}$ -->
      <g transform="translate(401.443369 283.442691)scale(0.1 -0.1)">
       <defs>
        <path id="NimbusRomNo9L-Regu-37" d="M 2874 4250 
L 506 4250 
L 128 3310 
L 237 3258 
C 512 3693 627 3776 979 3776 
L 2368 3776 
L 1101 -32 
L 1517 -32 
L 2874 4148 
L 2874 4250 
z
" transform="scale(0.015625)"/>
       </defs>
       <use xlink:href="#NimbusRomNo9L-Regu-37" transform="scale(0.996264)"/>
       <use xlink:href="#NimbusRomNo9L-Regu-30" transform="translate(49.8132 0)scale(0.996264)"/>
       <use xlink:href="#NimbusRomNo9L-Regu-30" transform="translate(99.626401 0)scale(0.996264)"/>
       <use xlink:href="#NimbusRomNo9L-Regu-30" transform="translate(149.439601 0)scale(0.996264)"/>
      </g>
     </g>
    </g>
    <g id="xtick_31">
     <g id="line2d_85">
      <g>
       <use xlink:href="#m2496b33947" x="49.459642" y="273.188114" style="stroke: #000000; stroke-width: 0.5"/>
      </g>
     </g>
     <g id="line2d_86">
      <g>
       <use xlink:href="#m45aad2c5ae" x="49.459642" y="175.856862" style="stroke: #000000; stroke-width: 0.5"/>
      </g>
     </g>
    </g>
    <g id="xtick_32">
     <g id="line2d_87">
      <g>
       <use xlink:href="#m2496b33947" x="62.865063" y="273.188114" style="stroke: #000000; stroke-width: 0.5"/>
      </g>
     </g>
     <g id="line2d_88">
      <g>
       <use xlink:href="#m45aad2c5ae" x="62.865063" y="175.856862" style="stroke: #000000; stroke-width: 0.5"/>
      </g>
     </g>
    </g>
    <g id="xtick_33">
     <g id="line2d_89">
      <g>
       <use xlink:href="#m2496b33947" x="89.675905" y="273.188114" style="stroke: #000000; stroke-width: 0.5"/>
      </g>
     </g>
     <g id="line2d_90">
      <g>
       <use xlink:href="#m45aad2c5ae" x="89.675905" y="175.856862" style="stroke: #000000; stroke-width: 0.5"/>
      </g>
     </g>
    </g>
    <g id="xtick_34">
     <g id="line2d_91">
      <g>
       <use xlink:href="#m2496b33947" x="103.081326" y="273.188114" style="stroke: #000000; stroke-width: 0.5"/>
      </g>
     </g>
     <g id="line2d_92">
      <g>
       <use xlink:href="#m45aad2c5ae" x="103.081326" y="175.856862" style="stroke: #000000; stroke-width: 0.5"/>
      </g>
     </g>
    </g>
    <g id="xtick_35">
     <g id="line2d_93">
      <g>
       <use xlink:href="#m2496b33947" x="116.486747" y="273.188114" style="stroke: #000000; stroke-width: 0.5"/>
      </g>
     </g>
     <g id="line2d_94">
      <g>
       <use xlink:href="#m45aad2c5ae" x="116.486747" y="175.856862" style="stroke: #000000; stroke-width: 0.5"/>
      </g>
     </g>
    </g>
    <g id="xtick_36">
     <g id="line2d_95">
      <g>
       <use xlink:href="#m2496b33947" x="129.892168" y="273.188114" style="stroke: #000000; stroke-width: 0.5"/>
      </g>
     </g>
     <g id="line2d_96">
      <g>
       <use xlink:href="#m45aad2c5ae" x="129.892168" y="175.856862" style="stroke: #000000; stroke-width: 0.5"/>
      </g>
     </g>
    </g>
    <g id="xtick_37">
     <g id="line2d_97">
      <g>
       <use xlink:href="#m2496b33947" x="156.70301" y="273.188114" style="stroke: #000000; stroke-width: 0.5"/>
      </g>
     </g>
     <g id="line2d_98">
      <g>
       <use xlink:href="#m45aad2c5ae" x="156.70301" y="175.856862" style="stroke: #000000; stroke-width: 0.5"/>
      </g>
     </g>
    </g>
    <g id="xtick_38">
     <g id="line2d_99">
      <g>
       <use xlink:href="#m2496b33947" x="170.108431" y="273.188114" style="stroke: #000000; stroke-width: 0.5"/>
      </g>
     </g>
     <g id="line2d_100">
      <g>
       <use xlink:href="#m45aad2c5ae" x="170.108431" y="175.856862" style="stroke: #000000; stroke-width: 0.5"/>
      </g>
     </g>
    </g>
    <g id="xtick_39">
     <g id="line2d_101">
      <g>
       <use xlink:href="#m2496b33947" x="183.513852" y="273.188114" style="stroke: #000000; stroke-width: 0.5"/>
      </g>
     </g>
     <g id="line2d_102">
      <g>
       <use xlink:href="#m45aad2c5ae" x="183.513852" y="175.856862" style="stroke: #000000; stroke-width: 0.5"/>
      </g>
     </g>
    </g>
    <g id="xtick_40">
     <g id="line2d_103">
      <g>
       <use xlink:href="#m2496b33947" x="196.919273" y="273.188114" style="stroke: #000000; stroke-width: 0.5"/>
      </g>
     </g>
     <g id="line2d_104">
      <g>
       <use xlink:href="#m45aad2c5ae" x="196.919273" y="175.856862" style="stroke: #000000; stroke-width: 0.5"/>
      </g>
     </g>
    </g>
    <g id="xtick_41">
     <g id="line2d_105">
      <g>
       <use xlink:href="#m2496b33947" x="223.730116" y="273.188114" style="stroke: #000000; stroke-width: 0.5"/>
      </g>
     </g>
     <g id="line2d_106">
      <g>
       <use xlink:href="#m45aad2c5ae" x="223.730116" y="175.856862" style="stroke: #000000; stroke-width: 0.5"/>
      </g>
     </g>
    </g>
    <g id="xtick_42">
     <g id="line2d_107">
      <g>
       <use xlink:href="#m2496b33947" x="237.135537" y="273.188114" style="stroke: #000000; stroke-width: 0.5"/>
      </g>
     </g>
     <g id="line2d_108">
      <g>
       <use xlink:href="#m45aad2c5ae" x="237.135537" y="175.856862" style="stroke: #000000; stroke-width: 0.5"/>
      </g>
     </g>
    </g>
    <g id="xtick_43">
     <g id="line2d_109">
      <g>
       <use xlink:href="#m2496b33947" x="250.540958" y="273.188114" style="stroke: #000000; stroke-width: 0.5"/>
      </g>
     </g>
     <g id="line2d_110">
      <g>
       <use xlink:href="#m45aad2c5ae" x="250.540958" y="175.856862" style="stroke: #000000; stroke-width: 0.5"/>
      </g>
     </g>
    </g>
    <g id="xtick_44">
     <g id="line2d_111">
      <g>
       <use xlink:href="#m2496b33947" x="263.946379" y="273.188114" style="stroke: #000000; stroke-width: 0.5"/>
      </g>
     </g>
     <g id="line2d_112">
      <g>
       <use xlink:href="#m45aad2c5ae" x="263.946379" y="175.856862" style="stroke: #000000; stroke-width: 0.5"/>
      </g>
     </g>
    </g>
    <g id="xtick_45">
     <g id="line2d_113">
      <g>
       <use xlink:href="#m2496b33947" x="290.757221" y="273.188114" style="stroke: #000000; stroke-width: 0.5"/>
      </g>
     </g>
     <g id="line2d_114">
      <g>
       <use xlink:href="#m45aad2c5ae" x="290.757221" y="175.856862" style="stroke: #000000; stroke-width: 0.5"/>
      </g>
     </g>
    </g>
    <g id="xtick_46">
     <g id="line2d_115">
      <g>
       <use xlink:href="#m2496b33947" x="304.162642" y="273.188114" style="stroke: #000000; stroke-width: 0.5"/>
      </g>
     </g>
     <g id="line2d_116">
      <g>
       <use xlink:href="#m45aad2c5ae" x="304.162642" y="175.856862" style="stroke: #000000; stroke-width: 0.5"/>
      </g>
     </g>
    </g>
    <g id="xtick_47">
     <g id="line2d_117">
      <g>
       <use xlink:href="#m2496b33947" x="317.568063" y="273.188114" style="stroke: #000000; stroke-width: 0.5"/>
      </g>
     </g>
     <g id="line2d_118">
      <g>
       <use xlink:href="#m45aad2c5ae" x="317.568063" y="175.856862" style="stroke: #000000; stroke-width: 0.5"/>
      </g>
     </g>
    </g>
    <g id="xtick_48">
     <g id="line2d_119">
      <g>
       <use xlink:href="#m2496b33947" x="330.973484" y="273.188114" style="stroke: #000000; stroke-width: 0.5"/>
      </g>
     </g>
     <g id="line2d_120">
      <g>
       <use xlink:href="#m45aad2c5ae" x="330.973484" y="175.856862" style="stroke: #000000; stroke-width: 0.5"/>
      </g>
     </g>
    </g>
    <g id="xtick_49">
     <g id="line2d_121">
      <g>
       <use xlink:href="#m2496b33947" x="357.784326" y="273.188114" style="stroke: #000000; stroke-width: 0.5"/>
      </g>
     </g>
     <g id="line2d_122">
      <g>
       <use xlink:href="#m45aad2c5ae" x="357.784326" y="175.856862" style="stroke: #000000; stroke-width: 0.5"/>
      </g>
     </g>
    </g>
    <g id="xtick_50">
     <g id="line2d_123">
      <g>
       <use xlink:href="#m2496b33947" x="371.189747" y="273.188114" style="stroke: #000000; stroke-width: 0.5"/>
      </g>
     </g>
     <g id="line2d_124">
      <g>
       <use xlink:href="#m45aad2c5ae" x="371.189747" y="175.856862" style="stroke: #000000; stroke-width: 0.5"/>
      </g>
     </g>
    </g>
    <g id="xtick_51">
     <g id="line2d_125">
      <g>
       <use xlink:href="#m2496b33947" x="384.595168" y="273.188114" style="stroke: #000000; stroke-width: 0.5"/>
      </g>
     </g>
     <g id="line2d_126">
      <g>
       <use xlink:href="#m45aad2c5ae" x="384.595168" y="175.856862" style="stroke: #000000; stroke-width: 0.5"/>
      </g>
     </g>
    </g>
    <g id="xtick_52">
     <g id="line2d_127">
      <g>
       <use xlink:href="#m2496b33947" x="398.000589" y="273.188114" style="stroke: #000000; stroke-width: 0.5"/>
      </g>
     </g>
     <g id="line2d_128">
      <g>
       <use xlink:href="#m45aad2c5ae" x="398.000589" y="175.856862" style="stroke: #000000; stroke-width: 0.5"/>
      </g>
     </g>
    </g>
    <g id="xtick_53">
     <g id="line2d_129">
      <g>
       <use xlink:href="#m2496b33947" x="424.811431" y="273.188114" style="stroke: #000000; stroke-width: 0.5"/>
      </g>
     </g>
     <g id="line2d_130">
      <g>
       <use xlink:href="#m45aad2c5ae" x="424.811431" y="175.856862" style="stroke: #000000; stroke-width: 0.5"/>
      </g>
     </g>
    </g>
    <g id="xtick_54">
     <g id="line2d_131">
      <g>
       <use xlink:href="#m2496b33947" x="438.216852" y="273.188114" style="stroke: #000000; stroke-width: 0.5"/>
      </g>
     </g>
     <g id="line2d_132">
      <g>
       <use xlink:href="#m45aad2c5ae" x="438.216852" y="175.856862" style="stroke: #000000; stroke-width: 0.5"/>
      </g>
     </g>
    </g>
   </g>
   <g id="matplotlib.axis_4">
    <g id="ytick_13">
     <g id="line2d_133">
      <g>
       <use xlink:href="#m31f062576c" x="47.30552" y="273.188114" style="stroke: #000000; stroke-width: 0.5"/>
      </g>
     </g>
     <g id="line2d_134">
      <g>
       <use xlink:href="#ma59dae7e40" x="449.87976" y="273.188114" style="stroke: #000000; stroke-width: 0.5"/>
      </g>
     </g>
     <g id="text_16">
      <!-- $\mathdefault{0}$ -->
      <g transform="translate(38.8242 276.565402)scale(0.1 -0.1)">
       <use xlink:href="#NimbusRomNo9L-Regu-30" transform="scale(0.996264)"/>
      </g>
     </g>
    </g>
    <g id="ytick_14">
     <g id="line2d_135">
      <g>
       <use xlink:href="#m31f062576c" x="47.30552" y="231.395314" style="stroke: #000000; stroke-width: 0.5"/>
      </g>
     </g>
     <g id="line2d_136">
      <g>
       <use xlink:href="#ma59dae7e40" x="449.87976" y="231.395314" style="stroke: #000000; stroke-width: 0.5"/>
      </g>
     </g>
     <g id="text_17">
      <!-- $\mathdefault{500}$ -->
      <g transform="translate(28.86156 234.772603)scale(0.1 -0.1)">
       <use xlink:href="#NimbusRomNo9L-Regu-35" transform="scale(0.996264)"/>
       <use xlink:href="#NimbusRomNo9L-Regu-30" transform="translate(49.8132 0)scale(0.996264)"/>
       <use xlink:href="#NimbusRomNo9L-Regu-30" transform="translate(99.626401 0)scale(0.996264)"/>
      </g>
     </g>
    </g>
    <g id="ytick_15">
     <g id="line2d_137">
      <g>
       <use xlink:href="#m31f062576c" x="47.30552" y="189.602514" style="stroke: #000000; stroke-width: 0.5"/>
      </g>
     </g>
     <g id="line2d_138">
      <g>
       <use xlink:href="#ma59dae7e40" x="449.87976" y="189.602514" style="stroke: #000000; stroke-width: 0.5"/>
      </g>
     </g>
     <g id="text_18">
      <!-- $\mathdefault{1000}$ -->
      <g transform="translate(23.88024 192.979803)scale(0.1 -0.1)">
       <use xlink:href="#NimbusRomNo9L-Regu-31" transform="scale(0.996264)"/>
       <use xlink:href="#NimbusRomNo9L-Regu-30" transform="translate(49.8132 0)scale(0.996264)"/>
       <use xlink:href="#NimbusRomNo9L-Regu-30" transform="translate(99.626401 0)scale(0.996264)"/>
       <use xlink:href="#NimbusRomNo9L-Regu-30" transform="translate(149.439601 0)scale(0.996264)"/>
      </g>
     </g>
    </g>
    <g id="ytick_16">
     <g id="line2d_139">
      <g>
       <use xlink:href="#m24e832fe0c" x="47.30552" y="264.829554" style="stroke: #000000; stroke-width: 0.5"/>
      </g>
     </g>
     <g id="line2d_140">
      <g>
       <use xlink:href="#maebd342462" x="449.87976" y="264.829554" style="stroke: #000000; stroke-width: 0.5"/>
      </g>
     </g>
    </g>
    <g id="ytick_17">
     <g id="line2d_141">
      <g>
       <use xlink:href="#m24e832fe0c" x="47.30552" y="256.470994" style="stroke: #000000; stroke-width: 0.5"/>
      </g>
     </g>
     <g id="line2d_142">
      <g>
       <use xlink:href="#maebd342462" x="449.87976" y="256.470994" style="stroke: #000000; stroke-width: 0.5"/>
      </g>
     </g>
    </g>
    <g id="ytick_18">
     <g id="line2d_143">
      <g>
       <use xlink:href="#m24e832fe0c" x="47.30552" y="248.112434" style="stroke: #000000; stroke-width: 0.5"/>
      </g>
     </g>
     <g id="line2d_144">
      <g>
       <use xlink:href="#maebd342462" x="449.87976" y="248.112434" style="stroke: #000000; stroke-width: 0.5"/>
      </g>
     </g>
    </g>
    <g id="ytick_19">
     <g id="line2d_145">
      <g>
       <use xlink:href="#m24e832fe0c" x="47.30552" y="239.753874" style="stroke: #000000; stroke-width: 0.5"/>
      </g>
     </g>
     <g id="line2d_146">
      <g>
       <use xlink:href="#maebd342462" x="449.87976" y="239.753874" style="stroke: #000000; stroke-width: 0.5"/>
      </g>
     </g>
    </g>
    <g id="ytick_20">
     <g id="line2d_147">
      <g>
       <use xlink:href="#m24e832fe0c" x="47.30552" y="223.036754" style="stroke: #000000; stroke-width: 0.5"/>
      </g>
     </g>
     <g id="line2d_148">
      <g>
       <use xlink:href="#maebd342462" x="449.87976" y="223.036754" style="stroke: #000000; stroke-width: 0.5"/>
      </g>
     </g>
    </g>
    <g id="ytick_21">
     <g id="line2d_149">
      <g>
       <use xlink:href="#m24e832fe0c" x="47.30552" y="214.678194" style="stroke: #000000; stroke-width: 0.5"/>
      </g>
     </g>
     <g id="line2d_150">
      <g>
       <use xlink:href="#maebd342462" x="449.87976" y="214.678194" style="stroke: #000000; stroke-width: 0.5"/>
      </g>
     </g>
    </g>
    <g id="ytick_22">
     <g id="line2d_151">
      <g>
       <use xlink:href="#m24e832fe0c" x="47.30552" y="206.319634" style="stroke: #000000; stroke-width: 0.5"/>
      </g>
     </g>
     <g id="line2d_152">
      <g>
       <use xlink:href="#maebd342462" x="449.87976" y="206.319634" style="stroke: #000000; stroke-width: 0.5"/>
      </g>
     </g>
    </g>
    <g id="ytick_23">
     <g id="line2d_153">
      <g>
       <use xlink:href="#m24e832fe0c" x="47.30552" y="197.961074" style="stroke: #000000; stroke-width: 0.5"/>
      </g>
     </g>
     <g id="line2d_154">
      <g>
       <use xlink:href="#maebd342462" x="449.87976" y="197.961074" style="stroke: #000000; stroke-width: 0.5"/>
      </g>
     </g>
    </g>
    <g id="ytick_24">
     <g id="line2d_155">
      <g>
       <use xlink:href="#m24e832fe0c" x="47.30552" y="181.243954" style="stroke: #000000; stroke-width: 0.5"/>
      </g>
     </g>
     <g id="line2d_156">
      <g>
       <use xlink:href="#maebd342462" x="449.87976" y="181.243954" style="stroke: #000000; stroke-width: 0.5"/>
      </g>
     </g>
    </g>
   </g>
   <g id="patch_208">
    <path d="M 47.30552 273.188114 
L 47.30552 175.856862 
" style="fill: none; stroke: #000000; stroke-width: 0.5; stroke-linejoin: miter; stroke-linecap: square"/>
   </g>
   <g id="patch_209">
    <path d="M 449.87976 273.188114 
L 449.87976 175.856862 
" style="fill: none; stroke: #000000; stroke-width: 0.5; stroke-linejoin: miter; stroke-linecap: square"/>
   </g>
   <g id="patch_210">
    <path d="M 47.30552 273.188114 
L 449.87976 273.188114 
" style="fill: none; stroke: #000000; stroke-width: 0.5; stroke-linejoin: miter; stroke-linecap: square"/>
   </g>
   <g id="patch_211">
    <path d="M 47.30552 175.856862 
L 449.87976 175.856862 
" style="fill: none; stroke: #000000; stroke-width: 0.5; stroke-linejoin: miter; stroke-linecap: square"/>
   </g>
   <g id="text_19">
    <!-- $\widetilde{\chi_2^\pm}$ -->
    <g transform="translate(241.327898 169.856862)scale(0.12 -0.12)">
     <use xlink:href="#CMEX10-66" transform="translate(9.313752 40.531965)scale(0.996264)"/>
     <use xlink:href="#StandardSymL-63" transform="scale(0.996264)"/>
     <use xlink:href="#CMSY10-6" transform="translate(62.963502 40.389722)scale(0.737241)"/>
     <use xlink:href="#NimbusRomNo9L-Regu-32" transform="translate(54.694873 -30.986523)scale(0.737241)"/>
    </g>
   </g>
  </g>
  <g id="text_20">
   <!-- Histogramme de la masse des charginos -->
   <g transform="translate(141.197907 11.705484)scale(0.12 -0.12)">
    <defs>
     <path id="NimbusRomNo9L-Regu-48" d="M 1338 2304 
L 1338 3533 
C 1338 3990 1408 4059 1901 4104 
L 1901 4224 
L 122 4224 
L 122 4104 
C 614 4059 685 3989 685 3527 
L 685 749 
C 685 210 621 134 122 134 
L 122 0 
L 1901 0 
L 1901 121 
C 1421 159 1338 242 1338 699 
L 1338 2022 
L 3277 2022 
L 3277 757 
C 3277 211 3213 134 2714 134 
L 2714 0 
L 4493 0 
L 4493 121 
C 4013 159 3930 242 3930 696 
L 3930 3529 
C 3930 3989 4000 4059 4493 4104 
L 4493 4224 
L 2714 4224 
L 2714 4104 
C 3206 4059 3277 3990 3277 3533 
L 3277 2304 
L 1338 2304 
z
" transform="scale(0.015625)"/>
     <path id="NimbusRomNo9L-Regu-69" d="M 1120 2929 
L 128 2579 
L 128 2484 
L 179 2490 
C 256 2502 339 2509 397 2509 
C 550 2509 608 2406 608 2125 
L 608 640 
C 608 179 544 109 102 109 
L 102 0 
L 1619 0 
L 1619 96 
C 1197 128 1146 191 1146 650 
L 1146 2910 
L 1120 2929 
z
M 819 4352 
C 646 4352 499 4205 499 4026 
C 499 3847 640 3699 819 3699 
C 1005 3699 1152 3840 1152 4026 
C 1152 4205 1005 4352 819 4352 
z
" transform="scale(0.015625)"/>
     <path id="NimbusRomNo9L-Regu-73" d="M 2016 2010 
L 1990 2880 
L 1920 2880 
L 1907 2867 
C 1850 2822 1843 2816 1818 2816 
C 1779 2816 1715 2829 1645 2861 
C 1504 2915 1363 2944 1197 2944 
C 691 2944 326 2616 326 2154 
C 326 1796 531 1539 1075 1231 
L 1446 1020 
C 1670 892 1779 737 1779 539 
C 1779 256 1574 77 1248 77 
C 1030 77 832 159 710 298 
C 576 455 518 600 435 960 
L 333 960 
L 333 -39 
L 416 -39 
C 461 33 486 48 563 48 
C 621 48 710 35 858 -2 
C 1037 -39 1210 -64 1325 -64 
C 1818 -64 2227 308 2227 757 
C 2227 1077 2074 1289 1690 1520 
L 998 1930 
C 819 2033 723 2194 723 2367 
C 723 2624 922 2803 1216 2803 
C 1581 2803 1773 2583 1920 2010 
L 2016 2010 
z
" transform="scale(0.015625)"/>
     <path id="NimbusRomNo9L-Regu-74" d="M 1632 2880 
L 986 2880 
L 986 3622 
C 986 3686 979 3706 941 3706 
C 896 3648 858 3590 813 3526 
C 570 3174 294 2867 192 2841 
C 122 2794 83 2748 83 2715 
C 83 2695 90 2682 109 2682 
L 448 2682 
L 448 751 
C 448 212 640 -64 1018 -64 
C 1331 -64 1574 90 1786 423 
L 1702 493 
C 1568 333 1459 269 1318 269 
C 1082 269 986 443 986 847 
L 986 2682 
L 1632 2682 
L 1632 2880 
z
" transform="scale(0.015625)"/>
     <path id="NimbusRomNo9L-Regu-6f" d="M 1600 2944 
C 768 2944 186 2330 186 1446 
C 186 582 781 -64 1587 -64 
C 2394 -64 3008 614 3008 1498 
C 3008 2336 2419 2944 1600 2944 
z
M 1517 2765 
C 2054 2765 2432 2150 2432 1274 
C 2432 550 2144 115 1664 115 
C 1414 115 1178 269 1043 525 
C 864 858 762 1306 762 1760 
C 762 2368 1062 2765 1517 2765 
z
" transform="scale(0.015625)"/>
     <path id="NimbusRomNo9L-Regu-67" d="M 3008 2496 
L 3008 2746 
L 2515 2746 
C 2387 2746 2291 2763 2163 2802 
L 2022 2847 
C 1850 2903 1677 2931 1510 2931 
C 915 2931 442 2467 442 1881 
C 442 1476 614 1230 1037 1018 
C 915 906 800 799 762 768 
C 550 588 467 463 467 338 
C 467 206 544 131 806 6 
C 352 -329 179 -543 179 -781 
C 179 -1124 678 -1408 1286 -1408 
C 1766 -1408 2266 -1238 2598 -962 
C 2842 -759 2950 -548 2950 -299 
C 2950 108 2650 384 2176 384 
L 1350 384 
C 1011 384 851 443 851 548 
C 851 678 1062 908 1235 960 
C 1293 953 1338 947 1357 947 
C 1478 934 1562 928 1600 928 
C 1837 928 2093 1026 2291 1203 
C 2502 1387 2598 1617 2598 1945 
C 2598 2135 2566 2286 2477 2496 
L 3008 2496 
z
M 941 -13 
C 1152 -58 1664 -96 1978 -96 
C 2560 -96 2771 -180 2771 -414 
C 2771 -791 2285 -1043 1562 -1043 
C 998 -1043 627 -855 627 -570 
C 627 -420 672 -336 941 -13 
z
M 973 2145 
C 973 2526 1152 2752 1446 2752 
C 1645 2752 1811 2642 1914 2449 
C 2029 2223 2106 1927 2106 1675 
C 2106 1314 1920 1088 1626 1088 
C 1242 1088 973 1507 973 2126 
L 973 2145 
z
" transform="scale(0.015625)"/>
     <path id="NimbusRomNo9L-Regu-72" d="M 45 2496 
C 134 2515 192 2522 269 2522 
C 429 2522 486 2419 486 2138 
L 486 538 
C 486 218 442 173 32 96 
L 32 0 
L 1568 0 
L 1568 102 
C 1133 102 1024 199 1024 565 
L 1024 2013 
C 1024 2219 1299 2541 1472 2541 
C 1510 2541 1568 2509 1638 2445 
C 1741 2355 1811 2317 1894 2317 
C 2048 2317 2144 2426 2144 2605 
C 2144 2816 2010 2944 1792 2944 
C 1523 2944 1338 2797 1024 2343 
L 1024 2931 
L 992 2944 
C 653 2803 422 2721 45 2599 
L 45 2496 
z
" transform="scale(0.015625)"/>
     <path id="NimbusRomNo9L-Regu-61" d="M 2829 423 
C 2720 333 2643 301 2547 301 
C 2400 301 2355 390 2355 672 
L 2355 1920 
C 2355 2253 2323 2438 2227 2592 
C 2086 2822 1811 2944 1434 2944 
C 832 2944 358 2630 358 2227 
C 358 2080 486 1952 634 1952 
C 787 1952 922 2080 922 2221 
C 922 2246 915 2278 909 2323 
C 896 2381 890 2432 890 2477 
C 890 2650 1094 2790 1350 2790 
C 1664 2790 1837 2605 1837 2259 
L 1837 1869 
C 851 1472 742 1421 467 1178 
C 326 1050 237 832 237 621 
C 237 218 518 -64 909 -64 
C 1190 -64 1453 70 1843 403 
C 1875 70 1990 -64 2253 -64 
C 2470 -64 2605 13 2829 256 
L 2829 423 
z
M 1837 783 
C 1837 584 1805 526 1670 449 
C 1517 359 1338 301 1203 301 
C 979 301 800 520 800 796 
L 800 822 
C 800 1201 1062 1433 1837 1715 
L 1837 783 
z
" transform="scale(0.015625)"/>
     <path id="NimbusRomNo9L-Regu-6d" d="M 122 2547 
C 205 2566 256 2573 326 2573 
C 493 2573 550 2470 550 2162 
L 550 539 
C 550 192 461 96 102 96 
L 102 0 
L 1523 0 
L 1523 96 
C 1184 96 1088 166 1088 418 
L 1088 2234 
C 1088 2246 1139 2310 1184 2355 
C 1344 2502 1619 2611 1843 2611 
C 2125 2611 2266 2385 2266 1932 
L 2266 528 
C 2266 167 2195 96 1830 96 
L 1830 0 
L 3264 0 
L 3264 96 
C 2899 96 2803 205 2803 603 
L 2803 2221 
C 2995 2496 3206 2611 3501 2611 
C 3866 2611 3981 2438 3981 1907 
L 3981 557 
C 3981 192 3930 141 3558 96 
L 3558 0 
L 4960 0 
L 4960 96 
L 4794 115 
C 4602 115 4518 230 4518 480 
L 4518 1802 
C 4518 2559 4269 2944 3776 2944 
C 3405 2944 3078 2778 2733 2407 
C 2618 2771 2400 2944 2054 2944 
C 1773 2944 1594 2854 1062 2451 
L 1062 2931 
L 1018 2944 
C 691 2822 474 2752 122 2656 
L 122 2547 
z
" transform="scale(0.015625)"/>
     <path id="NimbusRomNo9L-Regu-65" d="M 2611 1053 
C 2304 564 2029 378 1619 378 
C 1254 378 979 564 794 930 
C 678 1174 634 1386 621 1779 
L 2592 1779 
C 2541 2193 2477 2377 2317 2581 
C 2125 2811 1830 2944 1498 2944 
C 1178 2944 877 2829 634 2611 
C 333 2349 160 1894 160 1370 
C 160 486 621 -64 1357 -64 
C 1965 -64 2445 315 2714 1008 
L 2611 1053 
z
M 634 1984 
C 704 2479 922 2714 1312 2714 
C 1702 2714 1856 2535 1939 1984 
L 634 1984 
z
" transform="scale(0.015625)"/>
     <path id="NimbusRomNo9L-Regu-64" d="M 2202 -64 
L 3142 269 
L 3142 365 
C 3027 365 3014 365 2995 365 
C 2765 365 2714 435 2714 731 
L 2714 4364 
L 2682 4377 
C 2374 4268 2150 4204 1741 4096 
L 1741 3994 
C 1792 4000 1830 4000 1882 4000 
C 2118 4000 2176 3936 2176 3672 
L 2176 2669 
C 1933 2874 1760 2944 1504 2944 
C 768 2944 173 2221 173 1312 
C 173 493 653 -64 1357 -64 
C 1715 -64 1958 64 2176 365 
L 2176 -45 
L 2202 -64 
z
M 2176 653 
C 2176 608 2131 531 2067 461 
C 1952 333 1792 269 1606 269 
C 1075 269 723 781 723 1568 
C 723 2291 1037 2765 1523 2765 
C 1862 2765 2176 2464 2176 2125 
L 2176 653 
z
" transform="scale(0.015625)"/>
     <path id="NimbusRomNo9L-Regu-6c" d="M 122 4000 
L 160 4000 
C 230 4000 307 4000 358 4000 
C 563 4000 627 3910 627 3610 
L 627 557 
C 627 211 538 128 134 96 
L 134 0 
L 1645 0 
L 1645 109 
C 1242 109 1165 173 1165 528 
L 1165 4371 
L 1139 4384 
C 806 4275 563 4211 122 4103 
L 122 4000 
z
" transform="scale(0.015625)"/>
     <path id="NimbusRomNo9L-Regu-63" d="M 2547 998 
C 2240 550 2010 397 1645 397 
C 1062 397 653 909 653 1645 
C 653 2304 1005 2758 1523 2758 
C 1754 2758 1837 2688 1901 2451 
L 1939 2310 
C 1990 2131 2106 2016 2240 2016 
C 2406 2016 2547 2138 2547 2285 
C 2547 2643 2099 2944 1562 2944 
C 1248 2944 922 2816 659 2586 
C 339 2304 160 1869 160 1363 
C 160 531 666 -64 1376 -64 
C 1664 -64 1920 38 2150 237 
C 2323 390 2445 563 2637 941 
L 2547 998 
z
" transform="scale(0.015625)"/>
     <path id="NimbusRomNo9L-Regu-68" d="M 1005 2222 
C 1274 2516 1466 2624 1715 2624 
C 2035 2624 2195 2395 2195 1948 
L 2195 684 
C 2195 250 2131 166 1760 128 
L 1760 32 
L 3117 32 
L 3117 128 
C 2771 192 2733 243 2733 684 
L 2733 1954 
C 2733 2625 2464 2970 1946 2970 
C 1568 2970 1299 2816 1005 2432 
L 1005 4390 
L 973 4409 
C 755 4332 595 4281 237 4179 
L 64 4128 
L 64 4026 
C 90 4032 109 4032 141 4032 
C 416 4032 467 3980 467 3705 
L 467 686 
C 467 237 429 179 58 128 
L 58 32 
L 1440 32 
L 1440 128 
C 1069 166 1005 243 1005 684 
L 1005 2222 
z
" transform="scale(0.015625)"/>
     <path id="NimbusRomNo9L-Regu-6e" d="M 102 2579 
C 141 2598 205 2605 275 2605 
C 454 2605 512 2509 512 2195 
L 512 608 
C 512 243 442 154 115 128 
L 115 32 
L 1472 32 
L 1472 128 
C 1146 154 1050 230 1050 461 
L 1050 2259 
C 1357 2547 1498 2624 1709 2624 
C 2022 2624 2176 2426 2176 2003 
L 2176 666 
C 2176 262 2093 154 1773 128 
L 1773 32 
L 3104 32 
L 3104 128 
C 2790 160 2714 237 2714 550 
L 2714 2016 
C 2714 2618 2432 2976 1958 2976 
C 1664 2976 1466 2867 1030 2458 
L 1030 2963 
L 986 2976 
C 672 2861 454 2790 102 2688 
L 102 2579 
z
" transform="scale(0.015625)"/>
    </defs>
    <use xlink:href="#NimbusRomNo9L-Regu-48" transform="scale(0.996264)"/>
    <use xlink:href="#NimbusRomNo9L-Regu-69" transform="translate(71.929985 0)scale(0.996264)"/>
    <use xlink:href="#NimbusRomNo9L-Regu-73" transform="translate(99.625154 0)scale(0.996264)"/>
    <use xlink:href="#NimbusRomNo9L-Regu-74" transform="translate(138.378861 0)scale(0.996264)"/>
    <use xlink:href="#NimbusRomNo9L-Regu-6f" transform="translate(166.07403 0)scale(0.996264)"/>
    <use xlink:href="#NimbusRomNo9L-Regu-67" transform="translate(215.887231 0)scale(0.996264)"/>
    <use xlink:href="#NimbusRomNo9L-Regu-72" transform="translate(265.700431 0)scale(0.996264)"/>
    <use xlink:href="#NimbusRomNo9L-Regu-61" transform="translate(298.875661 0)scale(0.996264)"/>
    <use xlink:href="#NimbusRomNo9L-Regu-6d" transform="translate(343.10923 0)scale(0.996264)"/>
    <use xlink:href="#NimbusRomNo9L-Regu-6d" transform="translate(420.6176 0)scale(0.996264)"/>
    <use xlink:href="#NimbusRomNo9L-Regu-65" transform="translate(498.12597 0)scale(0.996264)"/>
    <use xlink:href="#NimbusRomNo9L-Regu-64" transform="translate(567.266139 0)scale(0.996264)"/>
    <use xlink:href="#NimbusRomNo9L-Regu-65" transform="translate(617.079339 0)scale(0.996264)"/>
    <use xlink:href="#NimbusRomNo9L-Regu-6c" transform="translate(686.219508 0)scale(0.996264)"/>
    <use xlink:href="#NimbusRomNo9L-Regu-61" transform="translate(713.914678 0)scale(0.996264)"/>
    <use xlink:href="#NimbusRomNo9L-Regu-6d" transform="translate(783.054847 0)scale(0.996264)"/>
    <use xlink:href="#NimbusRomNo9L-Regu-61" transform="translate(860.563217 0)scale(0.996264)"/>
    <use xlink:href="#NimbusRomNo9L-Regu-73" transform="translate(904.796786 0)scale(0.996264)"/>
    <use xlink:href="#NimbusRomNo9L-Regu-73" transform="translate(943.550492 0)scale(0.996264)"/>
    <use xlink:href="#NimbusRomNo9L-Regu-65" transform="translate(982.304198 0)scale(0.996264)"/>
    <use xlink:href="#NimbusRomNo9L-Regu-64" transform="translate(1051.444367 0)scale(0.996264)"/>
    <use xlink:href="#NimbusRomNo9L-Regu-65" transform="translate(1101.257567 0)scale(0.996264)"/>
    <use xlink:href="#NimbusRomNo9L-Regu-73" transform="translate(1145.491136 0)scale(0.996264)"/>
    <use xlink:href="#NimbusRomNo9L-Regu-63" transform="translate(1209.151443 0)scale(0.996264)"/>
    <use xlink:href="#NimbusRomNo9L-Regu-68" transform="translate(1253.385011 0)scale(0.996264)"/>
    <use xlink:href="#NimbusRomNo9L-Regu-61" transform="translate(1303.198212 0)scale(0.996264)"/>
    <use xlink:href="#NimbusRomNo9L-Regu-72" transform="translate(1347.43178 0)scale(0.996264)"/>
    <use xlink:href="#NimbusRomNo9L-Regu-67" transform="translate(1378.814431 0)scale(0.996264)"/>
    <use xlink:href="#NimbusRomNo9L-Regu-69" transform="translate(1428.627632 0)scale(0.996264)"/>
    <use xlink:href="#NimbusRomNo9L-Regu-6e" transform="translate(1456.322801 0)scale(0.996264)"/>
    <use xlink:href="#NimbusRomNo9L-Regu-6f" transform="translate(1506.136002 0)scale(0.996264)"/>
    <use xlink:href="#NimbusRomNo9L-Regu-73" transform="translate(1555.949202 0)scale(0.996264)"/>
   </g>
  </g>
  <g id="text_21">
   <!-- Masse (GeV) -->
   <g transform="translate(210.185427 302.99976)scale(0.1 -0.1)">
    <defs>
     <path id="NimbusRomNo9L-Regu-4d" d="M 4314 3667 
L 4314 751 
C 4314 217 4237 134 3731 134 
L 3731 0 
L 5523 0 
L 5523 134 
C 5056 134 4966 223 4966 681 
L 4966 3536 
C 4966 3993 5050 4077 5523 4115 
L 5523 4237 
L 4250 4237 
L 2835 1004 
L 1357 4237 
L 90 4237 
L 90 4096 
C 614 4096 698 4019 698 3550 
L 698 943 
C 698 282 608 159 77 121 
L 77 0 
L 1581 0 
L 1581 134 
C 1088 134 979 282 979 931 
L 979 3520 
L 2586 0 
L 2675 0 
L 4314 3667 
z
" transform="scale(0.015625)"/>
     <path id="NimbusRomNo9L-Regu-28" d="M 1888 4326 
C 1414 4019 1222 3853 986 3558 
C 531 3002 307 2362 307 1613 
C 307 800 544 173 1107 -480 
C 1370 -787 1536 -928 1869 -1133 
L 1946 -1030 
C 1434 -627 1254 -403 1082 77 
C 928 506 858 992 858 1632 
C 858 2304 941 2829 1114 3226 
C 1293 3622 1485 3853 1946 4224 
L 1888 4326 
z
" transform="scale(0.015625)"/>
     <path id="NimbusRomNo9L-Regu-47" d="M 4538 2304 
L 2906 2304 
L 2906 2176 
C 3181 2176 3258 2157 3334 2105 
C 3430 2047 3469 1898 3469 1621 
L 3469 574 
C 3469 367 3078 192 2618 192 
C 1574 192 934 922 934 2112 
C 934 2714 1114 3296 1395 3610 
C 1677 3924 2074 4096 2509 4096 
C 2867 4096 3181 3975 3430 3744 
C 3622 3565 3725 3392 3885 3002 
L 4032 3002 
L 3981 4352 
L 3840 4352 
C 3802 4231 3686 4141 3552 4141 
C 3488 4141 3386 4160 3270 4205 
C 2982 4301 2688 4352 2400 4352 
C 1120 4352 205 3412 205 2106 
C 205 1479 378 999 736 621 
C 1165 180 1779 -64 2483 -64 
C 3034 -64 3834 160 4090 385 
L 4090 1694 
C 4090 2073 4166 2157 4538 2189 
L 4538 2304 
z
" transform="scale(0.015625)"/>
     <path id="NimbusRomNo9L-Regu-56" d="M 4461 4231 
L 3149 4231 
L 3149 4096 
C 3501 4096 3616 4026 3616 3846 
C 3616 3744 3571 3572 3494 3380 
L 2554 1033 
L 1587 3199 
C 1376 3667 1325 3814 1325 3910 
C 1325 4032 1414 4096 1619 4096 
C 1645 4096 1715 4096 1805 4109 
L 1805 4231 
L 102 4231 
L 102 4096 
C 416 4096 506 4007 781 3439 
L 2355 -64 
L 2451 -64 
L 3872 3521 
C 4083 4026 4154 4096 4461 4096 
L 4461 4231 
z
" transform="scale(0.015625)"/>
     <path id="NimbusRomNo9L-Regu-29" d="M 243 -1133 
C 717 -826 909 -659 1146 -365 
C 1600 192 1824 832 1824 1581 
C 1824 2400 1587 3021 1024 3674 
C 762 3981 595 4122 262 4326 
L 186 4224 
C 698 3821 870 3597 1050 3117 
C 1203 2688 1274 2202 1274 1562 
C 1274 896 1190 365 1018 -26 
C 838 -429 646 -659 186 -1030 
L 243 -1133 
z
" transform="scale(0.015625)"/>
    </defs>
    <use xlink:href="#NimbusRomNo9L-Regu-4d" transform="scale(0.996264)"/>
    <use xlink:href="#NimbusRomNo9L-Regu-61" transform="translate(88.566907 0)scale(0.996264)"/>
    <use xlink:href="#NimbusRomNo9L-Regu-73" transform="translate(132.800475 0)scale(0.996264)"/>
    <use xlink:href="#NimbusRomNo9L-Regu-73" transform="translate(171.554182 0)scale(0.996264)"/>
    <use xlink:href="#NimbusRomNo9L-Regu-65" transform="translate(210.307888 0)scale(0.996264)"/>
    <use xlink:href="#NimbusRomNo9L-Regu-28" transform="translate(279.448057 0)scale(0.996264)"/>
    <use xlink:href="#NimbusRomNo9L-Regu-47" transform="translate(312.623286 0)scale(0.996264)"/>
    <use xlink:href="#NimbusRomNo9L-Regu-65" transform="translate(384.553271 0)scale(0.996264)"/>
    <use xlink:href="#NimbusRomNo9L-Regu-56" transform="translate(428.78684 0)scale(0.996264)"/>
    <use xlink:href="#NimbusRomNo9L-Regu-29" transform="translate(500.716825 0)scale(0.996264)"/>
   </g>
  </g>
  <g id="text_22">
   <!-- N -->
   <g transform="translate(10.354578 148.196258)rotate(-90)scale(0.1 -0.1)">
    <defs>
     <path id="NimbusRomNo9L-Regu-4e" d="M 3917 -64 
L 3917 3287 
C 3917 3669 3981 3905 4102 3987 
C 4192 4051 4282 4077 4525 4102 
L 4525 4224 
L 3021 4224 
L 3021 4102 
C 3264 4083 3354 4057 3450 4000 
C 3578 3911 3635 3681 3635 3286 
L 3635 1136 
L 1171 4224 
L 77 4224 
L 77 4102 
C 352 4102 442 4051 698 3751 
L 698 938 
C 698 281 608 159 77 121 
L 77 0 
L 1581 0 
L 1581 134 
C 1088 134 979 281 979 928 
L 979 3439 
L 3808 -64 
L 3917 -64 
z
" transform="scale(0.015625)"/>
    </defs>
    <use xlink:href="#NimbusRomNo9L-Regu-4e" transform="scale(0.996264)"/>
   </g>
  </g>
 </g>
 <defs>
  <clipPath id="p9813950e55">
   <rect x="47.30552" y="40.203942" width="402.57424" height="97.331251"/>
  </clipPath>
  <clipPath id="pa0bc586cdd">
   <rect x="47.30552" y="175.856862" width="402.57424" height="97.331251"/>
  </clipPath>
 </defs>
</svg>
