<?xml version="1.0" encoding="utf-8" standalone="no"?>
<!DOCTYPE svg PUBLIC "-//W3C//DTD SVG 1.1//EN"
  "http://www.w3.org/Graphics/SVG/1.1/DTD/svg11.dtd">
<svg xmlns:xlink="http://www.w3.org/1999/xlink" width="377.78845pt" height="264.068297pt" viewBox="0 0 377.78845 264.068297" xmlns="http://www.w3.org/2000/svg" version="1.1">
 <metadata>
  <rdf:RDF xmlns:dc="http://purl.org/dc/elements/1.1/" xmlns:cc="http://creativecommons.org/ns#" xmlns:rdf="http://www.w3.org/1999/02/22-rdf-syntax-ns#">
   <cc:Work>
    <dc:type rdf:resource="http://purl.org/dc/dcmitype/StillImage"/>
    <dc:date>2022-05-19T16:27:44.306317</dc:date>
    <dc:format>image/svg+xml</dc:format>
    <dc:creator>
     <cc:Agent>
      <dc:title>Matplotlib v3.5.2, https://matplotlib.org/</dc:title>
     </cc:Agent>
    </dc:creator>
   </cc:Work>
  </rdf:RDF>
 </metadata>
 <defs>
  <style type="text/css">*{stroke-linejoin: round; stroke-linecap: butt}</style>
 </defs>
 <g id="figure_1">
  <g id="patch_1">
   <path d="M -0 264.068297 
L 377.78845 264.068297 
L 377.78845 0 
L -0 0 
L -0 264.068297 
z
" style="fill: none"/>
  </g>
  <g id="axes_1">
   <g id="patch_2">
    <path d="M 39.38845 235.145484 
L 374.18845 235.145484 
L 374.18845 17.705484 
L 39.38845 17.705484 
z
" style="fill: #ffffff"/>
   </g>
   <g id="matplotlib.axis_1">
    <g id="xtick_1">
     <g id="line2d_1">
      <defs>
       <path id="m1c67696878" d="M 0 0 
L 0 -3 
" style="stroke: #000000; stroke-width: 0.5"/>
      </defs>
      <g>
       <use xlink:href="#m1c67696878" x="51.532251" y="235.145484" style="stroke: #000000; stroke-width: 0.5"/>
      </g>
     </g>
     <g id="line2d_2">
      <defs>
       <path id="m52970c5679" d="M 0 0 
L 0 3 
" style="stroke: #000000; stroke-width: 0.5"/>
      </defs>
      <g>
       <use xlink:href="#m52970c5679" x="51.532251" y="17.705484" style="stroke: #000000; stroke-width: 0.5"/>
      </g>
     </g>
     <g id="text_1">
      <!-- $\mathdefault{0}$ -->
      <g transform="translate(49.041591 245.400062)scale(0.1 -0.1)">
       <defs>
        <path id="NimbusRomNo9L-Regu-30" d="M 1626 4352 
C 1274 4352 1005 4244 768 4020 
C 397 3661 154 2925 154 2176 
C 154 1479 365 730 666 372 
C 902 90 1229 -64 1600 -64 
C 1926 -64 2202 45 2432 269 
C 2803 621 3046 1364 3046 2138 
C 3046 3450 2464 4352 1626 4352 
z
M 1606 4186 
C 2144 4186 2432 3463 2432 2125 
C 2432 788 2150 103 1600 103 
C 1050 103 768 788 768 2119 
C 768 3476 1056 4186 1606 4186 
z
" transform="scale(0.015625)"/>
       </defs>
       <use xlink:href="#NimbusRomNo9L-Regu-30" transform="scale(0.996264)"/>
      </g>
     </g>
    </g>
    <g id="xtick_2">
     <g id="line2d_3">
      <g>
       <use xlink:href="#m1c67696878" x="113.019855" y="235.145484" style="stroke: #000000; stroke-width: 0.5"/>
      </g>
     </g>
     <g id="line2d_4">
      <g>
       <use xlink:href="#m52970c5679" x="113.019855" y="17.705484" style="stroke: #000000; stroke-width: 0.5"/>
      </g>
     </g>
     <g id="text_2">
      <!-- $\mathdefault{20}$ -->
      <g transform="translate(108.038534 245.400062)scale(0.1 -0.1)">
       <defs>
        <path id="NimbusRomNo9L-Regu-32" d="M 3040 875 
L 2957 907 
C 2720 544 2637 486 2349 486 
L 819 486 
L 1894 1609 
C 2464 2202 2714 2687 2714 3185 
C 2714 3823 2195 4313 1530 4313 
C 1178 4313 845 4173 608 3918 
C 403 3700 307 3496 198 3043 
L 333 3011 
C 589 3636 819 3840 1261 3840 
C 1798 3840 2163 3476 2163 2940 
C 2163 2443 1869 1850 1331 1282 
L 192 77 
L 192 0 
L 2688 0 
L 3040 875 
z
" transform="scale(0.015625)"/>
       </defs>
       <use xlink:href="#NimbusRomNo9L-Regu-32" transform="scale(0.996264)"/>
       <use xlink:href="#NimbusRomNo9L-Regu-30" transform="translate(49.8132 0)scale(0.996264)"/>
      </g>
     </g>
    </g>
    <g id="xtick_3">
     <g id="line2d_5">
      <g>
       <use xlink:href="#m1c67696878" x="174.507458" y="235.145484" style="stroke: #000000; stroke-width: 0.5"/>
      </g>
     </g>
     <g id="line2d_6">
      <g>
       <use xlink:href="#m52970c5679" x="174.507458" y="17.705484" style="stroke: #000000; stroke-width: 0.5"/>
      </g>
     </g>
     <g id="text_3">
      <!-- $\mathdefault{40}$ -->
      <g transform="translate(169.526138 245.400062)scale(0.1 -0.1)">
       <defs>
        <path id="NimbusRomNo9L-Regu-34" d="M 3021 1497 
L 2368 1497 
L 2368 4352 
L 2086 4352 
L 77 1497 
L 77 1088 
L 1875 1088 
L 1875 32 
L 2368 32 
L 2368 1088 
L 3021 1088 
L 3021 1497 
z
M 1869 1497 
L 333 1497 
L 1869 3698 
L 1869 1497 
z
" transform="scale(0.015625)"/>
       </defs>
       <use xlink:href="#NimbusRomNo9L-Regu-34" transform="scale(0.996264)"/>
       <use xlink:href="#NimbusRomNo9L-Regu-30" transform="translate(49.8132 0)scale(0.996264)"/>
      </g>
     </g>
    </g>
    <g id="xtick_4">
     <g id="line2d_7">
      <g>
       <use xlink:href="#m1c67696878" x="235.995061" y="235.145484" style="stroke: #000000; stroke-width: 0.5"/>
      </g>
     </g>
     <g id="line2d_8">
      <g>
       <use xlink:href="#m52970c5679" x="235.995061" y="17.705484" style="stroke: #000000; stroke-width: 0.5"/>
      </g>
     </g>
     <g id="text_4">
      <!-- $\mathdefault{60}$ -->
      <g transform="translate(231.013741 245.400062)scale(0.1 -0.1)">
       <defs>
        <path id="NimbusRomNo9L-Regu-36" d="M 2854 4391 
C 2125 4327 1754 4205 1286 3879 
C 595 3386 218 2656 218 1802 
C 218 1248 390 688 666 370 
C 909 89 1254 -64 1651 -64 
C 2445 -64 2995 541 2995 1421 
C 2995 2236 2528 2752 1792 2752 
C 1510 2752 1376 2707 973 2464 
C 1146 3431 1862 4122 2867 4288 
L 2854 4391 
z
M 1549 2458 
C 2099 2458 2419 2000 2419 1204 
C 2419 504 2170 116 1722 116 
C 1158 116 813 714 813 1700 
C 813 2025 864 2203 992 2299 
C 1126 2400 1325 2458 1549 2458 
z
" transform="scale(0.015625)"/>
       </defs>
       <use xlink:href="#NimbusRomNo9L-Regu-36" transform="scale(0.996264)"/>
       <use xlink:href="#NimbusRomNo9L-Regu-30" transform="translate(49.8132 0)scale(0.996264)"/>
      </g>
     </g>
    </g>
    <g id="xtick_5">
     <g id="line2d_9">
      <g>
       <use xlink:href="#m1c67696878" x="297.482664" y="235.145484" style="stroke: #000000; stroke-width: 0.5"/>
      </g>
     </g>
     <g id="line2d_10">
      <g>
       <use xlink:href="#m52970c5679" x="297.482664" y="17.705484" style="stroke: #000000; stroke-width: 0.5"/>
      </g>
     </g>
     <g id="text_5">
      <!-- $\mathdefault{80}$ -->
      <g transform="translate(292.501344 245.400062)scale(0.1 -0.1)">
       <defs>
        <path id="NimbusRomNo9L-Regu-38" d="M 1856 2400 
C 2490 2740 2714 3008 2714 3444 
C 2714 3968 2253 4352 1613 4352 
C 915 4352 397 3924 397 3341 
C 397 2925 518 2740 1190 2151 
C 499 1626 358 1428 358 992 
C 358 372 864 -64 1587 -64 
C 2355 -64 2848 359 2848 1018 
C 2848 1511 2630 1824 1856 2400 
z
M 1741 1741 
C 2208 1408 2362 1178 2362 820 
C 2362 404 2074 116 1658 116 
C 1171 116 845 487 845 1044 
C 845 1453 986 1722 1357 2023 
L 1741 1741 
z
M 1670 2516 
C 1101 2887 870 3181 870 3540 
C 870 3911 1158 4173 1562 4173 
C 1997 4173 2272 3892 2272 3450 
C 2272 3085 2093 2797 1728 2554 
C 1696 2535 1696 2535 1670 2516 
z
" transform="scale(0.015625)"/>
       </defs>
       <use xlink:href="#NimbusRomNo9L-Regu-38" transform="scale(0.996264)"/>
       <use xlink:href="#NimbusRomNo9L-Regu-30" transform="translate(49.8132 0)scale(0.996264)"/>
      </g>
     </g>
    </g>
    <g id="xtick_6">
     <g id="line2d_11">
      <g>
       <use xlink:href="#m1c67696878" x="358.970268" y="235.145484" style="stroke: #000000; stroke-width: 0.5"/>
      </g>
     </g>
     <g id="line2d_12">
      <g>
       <use xlink:href="#m52970c5679" x="358.970268" y="17.705484" style="stroke: #000000; stroke-width: 0.5"/>
      </g>
     </g>
     <g id="text_6">
      <!-- $\mathdefault{100}$ -->
      <g transform="translate(351.498288 245.400062)scale(0.1 -0.1)">
       <defs>
        <path id="NimbusRomNo9L-Regu-31" d="M 1862 4339 
L 710 3757 
L 710 3667 
C 787 3699 858 3725 883 3738 
C 998 3783 1107 3808 1171 3808 
C 1306 3808 1363 3711 1363 3505 
L 1363 592 
C 1363 379 1312 232 1210 173 
C 1114 116 1024 96 755 96 
L 755 0 
L 2522 0 
L 2522 96 
C 2016 96 1914 160 1914 470 
L 1914 4327 
L 1862 4339 
z
" transform="scale(0.015625)"/>
       </defs>
       <use xlink:href="#NimbusRomNo9L-Regu-31" transform="scale(0.996264)"/>
       <use xlink:href="#NimbusRomNo9L-Regu-30" transform="translate(49.8132 0)scale(0.996264)"/>
       <use xlink:href="#NimbusRomNo9L-Regu-30" transform="translate(99.626401 0)scale(0.996264)"/>
      </g>
     </g>
    </g>
    <g id="xtick_7">
     <g id="line2d_13">
      <defs>
       <path id="mce1e0ab393" d="M 0 0 
L 0 -1.5 
" style="stroke: #000000; stroke-width: 0.5"/>
      </defs>
      <g>
       <use xlink:href="#mce1e0ab393" x="66.904152" y="235.145484" style="stroke: #000000; stroke-width: 0.5"/>
      </g>
     </g>
     <g id="line2d_14">
      <defs>
       <path id="mf4870d52db" d="M 0 0 
L 0 1.5 
" style="stroke: #000000; stroke-width: 0.5"/>
      </defs>
      <g>
       <use xlink:href="#mf4870d52db" x="66.904152" y="17.705484" style="stroke: #000000; stroke-width: 0.5"/>
      </g>
     </g>
    </g>
    <g id="xtick_8">
     <g id="line2d_15">
      <g>
       <use xlink:href="#mce1e0ab393" x="82.276053" y="235.145484" style="stroke: #000000; stroke-width: 0.5"/>
      </g>
     </g>
     <g id="line2d_16">
      <g>
       <use xlink:href="#mf4870d52db" x="82.276053" y="17.705484" style="stroke: #000000; stroke-width: 0.5"/>
      </g>
     </g>
    </g>
    <g id="xtick_9">
     <g id="line2d_17">
      <g>
       <use xlink:href="#mce1e0ab393" x="97.647954" y="235.145484" style="stroke: #000000; stroke-width: 0.5"/>
      </g>
     </g>
     <g id="line2d_18">
      <g>
       <use xlink:href="#mf4870d52db" x="97.647954" y="17.705484" style="stroke: #000000; stroke-width: 0.5"/>
      </g>
     </g>
    </g>
    <g id="xtick_10">
     <g id="line2d_19">
      <g>
       <use xlink:href="#mce1e0ab393" x="128.391755" y="235.145484" style="stroke: #000000; stroke-width: 0.5"/>
      </g>
     </g>
     <g id="line2d_20">
      <g>
       <use xlink:href="#mf4870d52db" x="128.391755" y="17.705484" style="stroke: #000000; stroke-width: 0.5"/>
      </g>
     </g>
    </g>
    <g id="xtick_11">
     <g id="line2d_21">
      <g>
       <use xlink:href="#mce1e0ab393" x="143.763656" y="235.145484" style="stroke: #000000; stroke-width: 0.5"/>
      </g>
     </g>
     <g id="line2d_22">
      <g>
       <use xlink:href="#mf4870d52db" x="143.763656" y="17.705484" style="stroke: #000000; stroke-width: 0.5"/>
      </g>
     </g>
    </g>
    <g id="xtick_12">
     <g id="line2d_23">
      <g>
       <use xlink:href="#mce1e0ab393" x="159.135557" y="235.145484" style="stroke: #000000; stroke-width: 0.5"/>
      </g>
     </g>
     <g id="line2d_24">
      <g>
       <use xlink:href="#mf4870d52db" x="159.135557" y="17.705484" style="stroke: #000000; stroke-width: 0.5"/>
      </g>
     </g>
    </g>
    <g id="xtick_13">
     <g id="line2d_25">
      <g>
       <use xlink:href="#mce1e0ab393" x="189.879359" y="235.145484" style="stroke: #000000; stroke-width: 0.5"/>
      </g>
     </g>
     <g id="line2d_26">
      <g>
       <use xlink:href="#mf4870d52db" x="189.879359" y="17.705484" style="stroke: #000000; stroke-width: 0.5"/>
      </g>
     </g>
    </g>
    <g id="xtick_14">
     <g id="line2d_27">
      <g>
       <use xlink:href="#mce1e0ab393" x="205.251259" y="235.145484" style="stroke: #000000; stroke-width: 0.5"/>
      </g>
     </g>
     <g id="line2d_28">
      <g>
       <use xlink:href="#mf4870d52db" x="205.251259" y="17.705484" style="stroke: #000000; stroke-width: 0.5"/>
      </g>
     </g>
    </g>
    <g id="xtick_15">
     <g id="line2d_29">
      <g>
       <use xlink:href="#mce1e0ab393" x="220.62316" y="235.145484" style="stroke: #000000; stroke-width: 0.5"/>
      </g>
     </g>
     <g id="line2d_30">
      <g>
       <use xlink:href="#mf4870d52db" x="220.62316" y="17.705484" style="stroke: #000000; stroke-width: 0.5"/>
      </g>
     </g>
    </g>
    <g id="xtick_16">
     <g id="line2d_31">
      <g>
       <use xlink:href="#mce1e0ab393" x="251.366962" y="235.145484" style="stroke: #000000; stroke-width: 0.5"/>
      </g>
     </g>
     <g id="line2d_32">
      <g>
       <use xlink:href="#mf4870d52db" x="251.366962" y="17.705484" style="stroke: #000000; stroke-width: 0.5"/>
      </g>
     </g>
    </g>
    <g id="xtick_17">
     <g id="line2d_33">
      <g>
       <use xlink:href="#mce1e0ab393" x="266.738863" y="235.145484" style="stroke: #000000; stroke-width: 0.5"/>
      </g>
     </g>
     <g id="line2d_34">
      <g>
       <use xlink:href="#mf4870d52db" x="266.738863" y="17.705484" style="stroke: #000000; stroke-width: 0.5"/>
      </g>
     </g>
    </g>
    <g id="xtick_18">
     <g id="line2d_35">
      <g>
       <use xlink:href="#mce1e0ab393" x="282.110764" y="235.145484" style="stroke: #000000; stroke-width: 0.5"/>
      </g>
     </g>
     <g id="line2d_36">
      <g>
       <use xlink:href="#mf4870d52db" x="282.110764" y="17.705484" style="stroke: #000000; stroke-width: 0.5"/>
      </g>
     </g>
    </g>
    <g id="xtick_19">
     <g id="line2d_37">
      <g>
       <use xlink:href="#mce1e0ab393" x="312.854565" y="235.145484" style="stroke: #000000; stroke-width: 0.5"/>
      </g>
     </g>
     <g id="line2d_38">
      <g>
       <use xlink:href="#mf4870d52db" x="312.854565" y="17.705484" style="stroke: #000000; stroke-width: 0.5"/>
      </g>
     </g>
    </g>
    <g id="xtick_20">
     <g id="line2d_39">
      <g>
       <use xlink:href="#mce1e0ab393" x="328.226466" y="235.145484" style="stroke: #000000; stroke-width: 0.5"/>
      </g>
     </g>
     <g id="line2d_40">
      <g>
       <use xlink:href="#mf4870d52db" x="328.226466" y="17.705484" style="stroke: #000000; stroke-width: 0.5"/>
      </g>
     </g>
    </g>
    <g id="xtick_21">
     <g id="line2d_41">
      <g>
       <use xlink:href="#mce1e0ab393" x="343.598367" y="235.145484" style="stroke: #000000; stroke-width: 0.5"/>
      </g>
     </g>
     <g id="line2d_42">
      <g>
       <use xlink:href="#mf4870d52db" x="343.598367" y="17.705484" style="stroke: #000000; stroke-width: 0.5"/>
      </g>
     </g>
    </g>
    <g id="text_7">
     <!-- Epochs -->
     <g transform="translate(192.123533 258.311468)scale(0.1 -0.1)">
      <defs>
       <path id="NimbusRomNo9L-Regu-45" d="M 3821 1078 
L 3642 1078 
C 3322 389 3046 237 2131 237 
L 1958 237 
C 1645 237 1376 269 1331 315 
C 1299 334 1286 404 1286 514 
L 1286 2106 
L 2272 2106 
C 2797 2106 2893 2020 2976 1472 
L 3123 1472 
L 3123 2957 
L 2976 2957 
C 2931 2703 2906 2610 2835 2523 
C 2752 2417 2573 2368 2272 2368 
L 1286 2368 
L 1286 3766 
C 1286 3943 1325 3981 1498 3981 
L 2362 3981 
C 3085 3981 3226 3886 3334 3314 
L 3494 3314 
L 3475 4224 
L 77 4224 
L 77 4102 
C 550 4064 634 3974 634 3525 
L 634 679 
C 634 230 544 134 77 134 
L 77 0 
L 3533 0 
L 3821 1078 
z
" transform="scale(0.015625)"/>
       <path id="NimbusRomNo9L-Regu-70" d="M 58 2516 
C 115 2522 160 2522 218 2522 
C 435 2522 480 2458 480 2155 
L 480 -855 
C 480 -1189 410 -1261 32 -1299 
L 32 -1408 
L 1581 -1408 
L 1581 -1293 
C 1101 -1293 1018 -1222 1018 -816 
L 1018 199 
C 1242 -13 1395 -77 1664 -77 
C 2419 -77 3008 643 3008 1575 
C 3008 2372 2560 2944 1939 2944 
C 1581 2944 1299 2784 1018 2438 
L 1018 2931 
L 979 2944 
C 634 2810 410 2726 58 2618 
L 58 2516 
z
M 1018 2136 
C 1018 2329 1376 2560 1670 2560 
C 2144 2560 2458 2071 2458 1324 
C 2458 611 2144 128 1683 128 
C 1382 128 1018 359 1018 552 
L 1018 2136 
z
" transform="scale(0.015625)"/>
       <path id="NimbusRomNo9L-Regu-6f" d="M 1600 2944 
C 768 2944 186 2330 186 1446 
C 186 582 781 -64 1587 -64 
C 2394 -64 3008 614 3008 1498 
C 3008 2336 2419 2944 1600 2944 
z
M 1517 2765 
C 2054 2765 2432 2150 2432 1274 
C 2432 550 2144 115 1664 115 
C 1414 115 1178 269 1043 525 
C 864 858 762 1306 762 1760 
C 762 2368 1062 2765 1517 2765 
z
" transform="scale(0.015625)"/>
       <path id="NimbusRomNo9L-Regu-63" d="M 2547 998 
C 2240 550 2010 397 1645 397 
C 1062 397 653 909 653 1645 
C 653 2304 1005 2758 1523 2758 
C 1754 2758 1837 2688 1901 2451 
L 1939 2310 
C 1990 2131 2106 2016 2240 2016 
C 2406 2016 2547 2138 2547 2285 
C 2547 2643 2099 2944 1562 2944 
C 1248 2944 922 2816 659 2586 
C 339 2304 160 1869 160 1363 
C 160 531 666 -64 1376 -64 
C 1664 -64 1920 38 2150 237 
C 2323 390 2445 563 2637 941 
L 2547 998 
z
" transform="scale(0.015625)"/>
       <path id="NimbusRomNo9L-Regu-68" d="M 1005 2222 
C 1274 2516 1466 2624 1715 2624 
C 2035 2624 2195 2395 2195 1948 
L 2195 684 
C 2195 250 2131 166 1760 128 
L 1760 32 
L 3117 32 
L 3117 128 
C 2771 192 2733 243 2733 684 
L 2733 1954 
C 2733 2625 2464 2970 1946 2970 
C 1568 2970 1299 2816 1005 2432 
L 1005 4390 
L 973 4409 
C 755 4332 595 4281 237 4179 
L 64 4128 
L 64 4026 
C 90 4032 109 4032 141 4032 
C 416 4032 467 3980 467 3705 
L 467 686 
C 467 237 429 179 58 128 
L 58 32 
L 1440 32 
L 1440 128 
C 1069 166 1005 243 1005 684 
L 1005 2222 
z
" transform="scale(0.015625)"/>
       <path id="NimbusRomNo9L-Regu-73" d="M 2016 2010 
L 1990 2880 
L 1920 2880 
L 1907 2867 
C 1850 2822 1843 2816 1818 2816 
C 1779 2816 1715 2829 1645 2861 
C 1504 2915 1363 2944 1197 2944 
C 691 2944 326 2616 326 2154 
C 326 1796 531 1539 1075 1231 
L 1446 1020 
C 1670 892 1779 737 1779 539 
C 1779 256 1574 77 1248 77 
C 1030 77 832 159 710 298 
C 576 455 518 600 435 960 
L 333 960 
L 333 -39 
L 416 -39 
C 461 33 486 48 563 48 
C 621 48 710 35 858 -2 
C 1037 -39 1210 -64 1325 -64 
C 1818 -64 2227 308 2227 757 
C 2227 1077 2074 1289 1690 1520 
L 998 1930 
C 819 2033 723 2194 723 2367 
C 723 2624 922 2803 1216 2803 
C 1581 2803 1773 2583 1920 2010 
L 2016 2010 
z
" transform="scale(0.015625)"/>
      </defs>
      <use xlink:href="#NimbusRomNo9L-Regu-45" transform="scale(0.996264)"/>
      <use xlink:href="#NimbusRomNo9L-Regu-70" transform="translate(60.871631 0)scale(0.996264)"/>
      <use xlink:href="#NimbusRomNo9L-Regu-6f" transform="translate(110.684831 0)scale(0.996264)"/>
      <use xlink:href="#NimbusRomNo9L-Regu-63" transform="translate(160.498032 0)scale(0.996264)"/>
      <use xlink:href="#NimbusRomNo9L-Regu-68" transform="translate(204.7316 0)scale(0.996264)"/>
      <use xlink:href="#NimbusRomNo9L-Regu-73" transform="translate(254.544801 0)scale(0.996264)"/>
     </g>
    </g>
   </g>
   <g id="matplotlib.axis_2">
    <g id="ytick_1">
     <g id="line2d_43">
      <defs>
       <path id="medce177952" d="M 0 0 
L 3 0 
" style="stroke: #000000; stroke-width: 0.5"/>
      </defs>
      <g>
       <use xlink:href="#medce177952" x="39.38845" y="199.307472" style="stroke: #000000; stroke-width: 0.5"/>
      </g>
     </g>
     <g id="line2d_44">
      <defs>
       <path id="m27a845dae3" d="M 0 0 
L -3 0 
" style="stroke: #000000; stroke-width: 0.5"/>
      </defs>
      <g>
       <use xlink:href="#m27a845dae3" x="374.18845" y="199.307472" style="stroke: #000000; stroke-width: 0.5"/>
      </g>
     </g>
     <g id="text_8">
      <!-- $\mathdefault{10^{-1}}$ -->
      <g transform="translate(16.511406 202.684761)scale(0.1 -0.1)">
       <defs>
        <path id="CMSY10-0" d="M 4218 1472 
C 4326 1472 4442 1472 4442 1600 
C 4442 1728 4326 1728 4218 1728 
L 755 1728 
C 646 1728 531 1728 531 1600 
C 531 1472 646 1472 755 1472 
L 4218 1472 
z
" transform="scale(0.015625)"/>
       </defs>
       <use xlink:href="#NimbusRomNo9L-Regu-31" transform="scale(0.996264)"/>
       <use xlink:href="#NimbusRomNo9L-Regu-30" transform="translate(49.8132 0)scale(0.996264)"/>
       <use xlink:href="#CMSY10-0" transform="translate(99.626401 36.163231)scale(0.737241)"/>
       <use xlink:href="#NimbusRomNo9L-Regu-31" transform="translate(156.909271 36.163231)scale(0.737241)"/>
      </g>
     </g>
    </g>
    <g id="ytick_2">
     <g id="line2d_45">
      <defs>
       <path id="m7fc82e784f" d="M 0 0 
L 1.5 0 
" style="stroke: #000000; stroke-width: 0.5"/>
      </defs>
      <g>
       <use xlink:href="#m7fc82e784f" x="39.38845" y="229.046536" style="stroke: #000000; stroke-width: 0.5"/>
      </g>
     </g>
     <g id="line2d_46">
      <defs>
       <path id="m0140564e72" d="M 0 0 
L -1.5 0 
" style="stroke: #000000; stroke-width: 0.5"/>
      </defs>
      <g>
       <use xlink:href="#m0140564e72" x="374.18845" y="229.046536" style="stroke: #000000; stroke-width: 0.5"/>
      </g>
     </g>
    </g>
    <g id="ytick_3">
     <g id="line2d_47">
      <g>
       <use xlink:href="#m7fc82e784f" x="39.38845" y="217.912873" style="stroke: #000000; stroke-width: 0.5"/>
      </g>
     </g>
     <g id="line2d_48">
      <g>
       <use xlink:href="#m0140564e72" x="374.18845" y="217.912873" style="stroke: #000000; stroke-width: 0.5"/>
      </g>
     </g>
    </g>
    <g id="ytick_4">
     <g id="line2d_49">
      <g>
       <use xlink:href="#m7fc82e784f" x="39.38845" y="208.092286" style="stroke: #000000; stroke-width: 0.5"/>
      </g>
     </g>
     <g id="line2d_50">
      <g>
       <use xlink:href="#m0140564e72" x="374.18845" y="208.092286" style="stroke: #000000; stroke-width: 0.5"/>
      </g>
     </g>
    </g>
    <g id="ytick_5">
     <g id="line2d_51">
      <g>
       <use xlink:href="#m7fc82e784f" x="39.38845" y="141.513818" style="stroke: #000000; stroke-width: 0.5"/>
      </g>
     </g>
     <g id="line2d_52">
      <g>
       <use xlink:href="#m0140564e72" x="374.18845" y="141.513818" style="stroke: #000000; stroke-width: 0.5"/>
      </g>
     </g>
    </g>
    <g id="ytick_6">
     <g id="line2d_53">
      <g>
       <use xlink:href="#m7fc82e784f" x="39.38845" y="107.706698" style="stroke: #000000; stroke-width: 0.5"/>
      </g>
     </g>
     <g id="line2d_54">
      <g>
       <use xlink:href="#m0140564e72" x="374.18845" y="107.706698" style="stroke: #000000; stroke-width: 0.5"/>
      </g>
     </g>
    </g>
    <g id="ytick_7">
     <g id="line2d_55">
      <g>
       <use xlink:href="#m7fc82e784f" x="39.38845" y="83.720165" style="stroke: #000000; stroke-width: 0.5"/>
      </g>
     </g>
     <g id="line2d_56">
      <g>
       <use xlink:href="#m0140564e72" x="374.18845" y="83.720165" style="stroke: #000000; stroke-width: 0.5"/>
      </g>
     </g>
    </g>
    <g id="ytick_8">
     <g id="line2d_57">
      <g>
       <use xlink:href="#m7fc82e784f" x="39.38845" y="65.114764" style="stroke: #000000; stroke-width: 0.5"/>
      </g>
     </g>
     <g id="line2d_58">
      <g>
       <use xlink:href="#m0140564e72" x="374.18845" y="65.114764" style="stroke: #000000; stroke-width: 0.5"/>
      </g>
     </g>
    </g>
    <g id="ytick_9">
     <g id="line2d_59">
      <g>
       <use xlink:href="#m7fc82e784f" x="39.38845" y="49.913044" style="stroke: #000000; stroke-width: 0.5"/>
      </g>
     </g>
     <g id="line2d_60">
      <g>
       <use xlink:href="#m0140564e72" x="374.18845" y="49.913044" style="stroke: #000000; stroke-width: 0.5"/>
      </g>
     </g>
    </g>
    <g id="ytick_10">
     <g id="line2d_61">
      <g>
       <use xlink:href="#m7fc82e784f" x="39.38845" y="37.060174" style="stroke: #000000; stroke-width: 0.5"/>
      </g>
     </g>
     <g id="line2d_62">
      <g>
       <use xlink:href="#m0140564e72" x="374.18845" y="37.060174" style="stroke: #000000; stroke-width: 0.5"/>
      </g>
     </g>
    </g>
    <g id="ytick_11">
     <g id="line2d_63">
      <g>
       <use xlink:href="#m7fc82e784f" x="39.38845" y="25.926511" style="stroke: #000000; stroke-width: 0.5"/>
      </g>
     </g>
     <g id="line2d_64">
      <g>
       <use xlink:href="#m0140564e72" x="374.18845" y="25.926511" style="stroke: #000000; stroke-width: 0.5"/>
      </g>
     </g>
    </g>
    <g id="text_9">
     <!-- loss -->
     <g transform="translate(10.354578 134.176257)rotate(-90)scale(0.1 -0.1)">
      <defs>
       <path id="NimbusRomNo9L-Regu-6c" d="M 122 4000 
L 160 4000 
C 230 4000 307 4000 358 4000 
C 563 4000 627 3910 627 3610 
L 627 557 
C 627 211 538 128 134 96 
L 134 0 
L 1645 0 
L 1645 109 
C 1242 109 1165 173 1165 528 
L 1165 4371 
L 1139 4384 
C 806 4275 563 4211 122 4103 
L 122 4000 
z
" transform="scale(0.015625)"/>
      </defs>
      <use xlink:href="#NimbusRomNo9L-Regu-6c" transform="scale(0.996264)"/>
      <use xlink:href="#NimbusRomNo9L-Regu-6f" transform="translate(27.69517 0)scale(0.996264)"/>
      <use xlink:href="#NimbusRomNo9L-Regu-73" transform="translate(77.50837 0)scale(0.996264)"/>
      <use xlink:href="#NimbusRomNo9L-Regu-73" transform="translate(116.262076 0)scale(0.996264)"/>
     </g>
    </g>
   </g>
   <g id="line2d_65">
    <defs>
     <path id="m33c1f7ae2a" d="M 0 3 
C 0.795609 3 1.55874 2.683901 2.12132 2.12132 
C 2.683901 1.55874 3 0.795609 3 0 
C 3 -0.795609 2.683901 -1.55874 2.12132 -2.12132 
C 1.55874 -2.683901 0.795609 -3 0 -3 
C -0.795609 -3 -1.55874 -2.683901 -2.12132 -2.12132 
C -2.683901 -1.55874 -3 -0.795609 -3 0 
C -3 0.795609 -2.683901 1.55874 -2.12132 2.12132 
C -1.55874 2.683901 -0.795609 3 0 3 
z
" style="stroke: #0000ff"/>
    </defs>
    <g clip-path="url(#p60c80f457c)">
     <use xlink:href="#m33c1f7ae2a" x="54.606631" y="27.58912" style="fill: #0000ff; stroke: #0000ff"/>
     <use xlink:href="#m33c1f7ae2a" x="57.681012" y="138.442759" style="fill: #0000ff; stroke: #0000ff"/>
     <use xlink:href="#m33c1f7ae2a" x="60.755392" y="194.063563" style="fill: #0000ff; stroke: #0000ff"/>
     <use xlink:href="#m33c1f7ae2a" x="63.829772" y="192.765259" style="fill: #0000ff; stroke: #0000ff"/>
     <use xlink:href="#m33c1f7ae2a" x="66.904152" y="209.976293" style="fill: #0000ff; stroke: #0000ff"/>
     <use xlink:href="#m33c1f7ae2a" x="69.978532" y="225.261848" style="fill: #0000ff; stroke: #0000ff"/>
     <use xlink:href="#m33c1f7ae2a" x="73.052912" y="207.754246" style="fill: #0000ff; stroke: #0000ff"/>
     <use xlink:href="#m33c1f7ae2a" x="76.127293" y="194.097223" style="fill: #0000ff; stroke: #0000ff"/>
     <use xlink:href="#m33c1f7ae2a" x="79.201673" y="209.286383" style="fill: #0000ff; stroke: #0000ff"/>
     <use xlink:href="#m33c1f7ae2a" x="82.276053" y="215.577272" style="fill: #0000ff; stroke: #0000ff"/>
     <use xlink:href="#m33c1f7ae2a" x="85.350433" y="212.523937" style="fill: #0000ff; stroke: #0000ff"/>
     <use xlink:href="#m33c1f7ae2a" x="88.424813" y="213.614966" style="fill: #0000ff; stroke: #0000ff"/>
     <use xlink:href="#m33c1f7ae2a" x="91.499193" y="213.380803" style="fill: #0000ff; stroke: #0000ff"/>
     <use xlink:href="#m33c1f7ae2a" x="94.573574" y="211.074346" style="fill: #0000ff; stroke: #0000ff"/>
     <use xlink:href="#m33c1f7ae2a" x="97.647954" y="212.572205" style="fill: #0000ff; stroke: #0000ff"/>
     <use xlink:href="#m33c1f7ae2a" x="100.722334" y="213.337842" style="fill: #0000ff; stroke: #0000ff"/>
     <use xlink:href="#m33c1f7ae2a" x="103.796714" y="214.380487" style="fill: #0000ff; stroke: #0000ff"/>
     <use xlink:href="#m33c1f7ae2a" x="106.871094" y="212.937029" style="fill: #0000ff; stroke: #0000ff"/>
     <use xlink:href="#m33c1f7ae2a" x="109.945474" y="213.091058" style="fill: #0000ff; stroke: #0000ff"/>
     <use xlink:href="#m33c1f7ae2a" x="113.019855" y="214.232708" style="fill: #0000ff; stroke: #0000ff"/>
     <use xlink:href="#m33c1f7ae2a" x="116.094235" y="215.087297" style="fill: #0000ff; stroke: #0000ff"/>
     <use xlink:href="#m33c1f7ae2a" x="119.168615" y="211.619611" style="fill: #0000ff; stroke: #0000ff"/>
     <use xlink:href="#m33c1f7ae2a" x="122.242995" y="212.474301" style="fill: #0000ff; stroke: #0000ff"/>
     <use xlink:href="#m33c1f7ae2a" x="125.317375" y="214.815151" style="fill: #0000ff; stroke: #0000ff"/>
     <use xlink:href="#m33c1f7ae2a" x="128.391755" y="214.851402" style="fill: #0000ff; stroke: #0000ff"/>
     <use xlink:href="#m33c1f7ae2a" x="131.466136" y="214.006262" style="fill: #0000ff; stroke: #0000ff"/>
     <use xlink:href="#m33c1f7ae2a" x="134.540516" y="213.51717" style="fill: #0000ff; stroke: #0000ff"/>
     <use xlink:href="#m33c1f7ae2a" x="137.614896" y="214.091154" style="fill: #0000ff; stroke: #0000ff"/>
     <use xlink:href="#m33c1f7ae2a" x="140.689276" y="210.224871" style="fill: #0000ff; stroke: #0000ff"/>
     <use xlink:href="#m33c1f7ae2a" x="143.763656" y="208.856471" style="fill: #0000ff; stroke: #0000ff"/>
     <use xlink:href="#m33c1f7ae2a" x="146.838036" y="211.600855" style="fill: #0000ff; stroke: #0000ff"/>
     <use xlink:href="#m33c1f7ae2a" x="149.912417" y="211.634237" style="fill: #0000ff; stroke: #0000ff"/>
     <use xlink:href="#m33c1f7ae2a" x="152.986797" y="213.131846" style="fill: #0000ff; stroke: #0000ff"/>
     <use xlink:href="#m33c1f7ae2a" x="156.061177" y="213.368287" style="fill: #0000ff; stroke: #0000ff"/>
     <use xlink:href="#m33c1f7ae2a" x="159.135557" y="215.384664" style="fill: #0000ff; stroke: #0000ff"/>
     <use xlink:href="#m33c1f7ae2a" x="162.209937" y="211.999469" style="fill: #0000ff; stroke: #0000ff"/>
     <use xlink:href="#m33c1f7ae2a" x="165.284317" y="212.53616" style="fill: #0000ff; stroke: #0000ff"/>
     <use xlink:href="#m33c1f7ae2a" x="168.358697" y="213.328148" style="fill: #0000ff; stroke: #0000ff"/>
     <use xlink:href="#m33c1f7ae2a" x="171.433078" y="211.904662" style="fill: #0000ff; stroke: #0000ff"/>
     <use xlink:href="#m33c1f7ae2a" x="174.507458" y="210.959778" style="fill: #0000ff; stroke: #0000ff"/>
     <use xlink:href="#m33c1f7ae2a" x="177.581838" y="215.16347" style="fill: #0000ff; stroke: #0000ff"/>
     <use xlink:href="#m33c1f7ae2a" x="180.656218" y="215.571647" style="fill: #0000ff; stroke: #0000ff"/>
     <use xlink:href="#m33c1f7ae2a" x="183.730598" y="212.76198" style="fill: #0000ff; stroke: #0000ff"/>
     <use xlink:href="#m33c1f7ae2a" x="186.804978" y="216.25453" style="fill: #0000ff; stroke: #0000ff"/>
     <use xlink:href="#m33c1f7ae2a" x="189.879359" y="215.4343" style="fill: #0000ff; stroke: #0000ff"/>
     <use xlink:href="#m33c1f7ae2a" x="192.953739" y="212.972816" style="fill: #0000ff; stroke: #0000ff"/>
     <use xlink:href="#m33c1f7ae2a" x="196.028119" y="213.488888" style="fill: #0000ff; stroke: #0000ff"/>
     <use xlink:href="#m33c1f7ae2a" x="199.102499" y="213.06459" style="fill: #0000ff; stroke: #0000ff"/>
     <use xlink:href="#m33c1f7ae2a" x="202.176879" y="211.437969" style="fill: #0000ff; stroke: #0000ff"/>
     <use xlink:href="#m33c1f7ae2a" x="205.251259" y="213.706334" style="fill: #0000ff; stroke: #0000ff"/>
     <use xlink:href="#m33c1f7ae2a" x="208.32564" y="217.060385" style="fill: #0000ff; stroke: #0000ff"/>
     <use xlink:href="#m33c1f7ae2a" x="211.40002" y="216.194635" style="fill: #0000ff; stroke: #0000ff"/>
     <use xlink:href="#m33c1f7ae2a" x="214.4744" y="214.1454" style="fill: #0000ff; stroke: #0000ff"/>
     <use xlink:href="#m33c1f7ae2a" x="217.54878" y="213.578939" style="fill: #0000ff; stroke: #0000ff"/>
     <use xlink:href="#m33c1f7ae2a" x="220.62316" y="210.964707" style="fill: #0000ff; stroke: #0000ff"/>
     <use xlink:href="#m33c1f7ae2a" x="223.69754" y="212.124509" style="fill: #0000ff; stroke: #0000ff"/>
     <use xlink:href="#m33c1f7ae2a" x="226.771921" y="213.843612" style="fill: #0000ff; stroke: #0000ff"/>
     <use xlink:href="#m33c1f7ae2a" x="229.846301" y="216.145091" style="fill: #0000ff; stroke: #0000ff"/>
     <use xlink:href="#m33c1f7ae2a" x="232.920681" y="213.546369" style="fill: #0000ff; stroke: #0000ff"/>
     <use xlink:href="#m33c1f7ae2a" x="235.995061" y="212.822439" style="fill: #0000ff; stroke: #0000ff"/>
     <use xlink:href="#m33c1f7ae2a" x="239.069441" y="211.000902" style="fill: #0000ff; stroke: #0000ff"/>
     <use xlink:href="#m33c1f7ae2a" x="242.143821" y="209.667721" style="fill: #0000ff; stroke: #0000ff"/>
     <use xlink:href="#m33c1f7ae2a" x="245.218202" y="210.054974" style="fill: #0000ff; stroke: #0000ff"/>
     <use xlink:href="#m33c1f7ae2a" x="248.292582" y="212.846886" style="fill: #0000ff; stroke: #0000ff"/>
     <use xlink:href="#m33c1f7ae2a" x="251.366962" y="213.338092" style="fill: #0000ff; stroke: #0000ff"/>
     <use xlink:href="#m33c1f7ae2a" x="254.441342" y="216.452663" style="fill: #0000ff; stroke: #0000ff"/>
     <use xlink:href="#m33c1f7ae2a" x="257.515722" y="213.006591" style="fill: #0000ff; stroke: #0000ff"/>
     <use xlink:href="#m33c1f7ae2a" x="260.590102" y="213.121691" style="fill: #0000ff; stroke: #0000ff"/>
     <use xlink:href="#m33c1f7ae2a" x="263.664483" y="213.679789" style="fill: #0000ff; stroke: #0000ff"/>
     <use xlink:href="#m33c1f7ae2a" x="266.738863" y="213.878422" style="fill: #0000ff; stroke: #0000ff"/>
     <use xlink:href="#m33c1f7ae2a" x="269.813243" y="213.255372" style="fill: #0000ff; stroke: #0000ff"/>
     <use xlink:href="#m33c1f7ae2a" x="272.887623" y="214.863828" style="fill: #0000ff; stroke: #0000ff"/>
     <use xlink:href="#m33c1f7ae2a" x="275.962003" y="211.011052" style="fill: #0000ff; stroke: #0000ff"/>
     <use xlink:href="#m33c1f7ae2a" x="279.036383" y="212.17098" style="fill: #0000ff; stroke: #0000ff"/>
     <use xlink:href="#m33c1f7ae2a" x="282.110764" y="212.282566" style="fill: #0000ff; stroke: #0000ff"/>
     <use xlink:href="#m33c1f7ae2a" x="285.185144" y="212.680851" style="fill: #0000ff; stroke: #0000ff"/>
     <use xlink:href="#m33c1f7ae2a" x="288.259524" y="213.781573" style="fill: #0000ff; stroke: #0000ff"/>
     <use xlink:href="#m33c1f7ae2a" x="291.333904" y="215.066687" style="fill: #0000ff; stroke: #0000ff"/>
     <use xlink:href="#m33c1f7ae2a" x="294.408284" y="214.144265" style="fill: #0000ff; stroke: #0000ff"/>
     <use xlink:href="#m33c1f7ae2a" x="297.482664" y="216.688448" style="fill: #0000ff; stroke: #0000ff"/>
     <use xlink:href="#m33c1f7ae2a" x="300.557045" y="214.81881" style="fill: #0000ff; stroke: #0000ff"/>
     <use xlink:href="#m33c1f7ae2a" x="303.631425" y="212.910083" style="fill: #0000ff; stroke: #0000ff"/>
     <use xlink:href="#m33c1f7ae2a" x="306.705805" y="212.557057" style="fill: #0000ff; stroke: #0000ff"/>
     <use xlink:href="#m33c1f7ae2a" x="309.780185" y="215.088603" style="fill: #0000ff; stroke: #0000ff"/>
     <use xlink:href="#m33c1f7ae2a" x="312.854565" y="213.236436" style="fill: #0000ff; stroke: #0000ff"/>
     <use xlink:href="#m33c1f7ae2a" x="315.928945" y="214.248001" style="fill: #0000ff; stroke: #0000ff"/>
     <use xlink:href="#m33c1f7ae2a" x="319.003326" y="212.553329" style="fill: #0000ff; stroke: #0000ff"/>
     <use xlink:href="#m33c1f7ae2a" x="322.077706" y="214.472811" style="fill: #0000ff; stroke: #0000ff"/>
     <use xlink:href="#m33c1f7ae2a" x="325.152086" y="211.707448" style="fill: #0000ff; stroke: #0000ff"/>
     <use xlink:href="#m33c1f7ae2a" x="328.226466" y="213.654343" style="fill: #0000ff; stroke: #0000ff"/>
     <use xlink:href="#m33c1f7ae2a" x="331.300846" y="216.379336" style="fill: #0000ff; stroke: #0000ff"/>
     <use xlink:href="#m33c1f7ae2a" x="334.375226" y="211.070661" style="fill: #0000ff; stroke: #0000ff"/>
     <use xlink:href="#m33c1f7ae2a" x="337.449607" y="210.021052" style="fill: #0000ff; stroke: #0000ff"/>
     <use xlink:href="#m33c1f7ae2a" x="340.523987" y="214.946204" style="fill: #0000ff; stroke: #0000ff"/>
     <use xlink:href="#m33c1f7ae2a" x="343.598367" y="214.022357" style="fill: #0000ff; stroke: #0000ff"/>
     <use xlink:href="#m33c1f7ae2a" x="346.672747" y="208.483532" style="fill: #0000ff; stroke: #0000ff"/>
     <use xlink:href="#m33c1f7ae2a" x="349.747127" y="216.579149" style="fill: #0000ff; stroke: #0000ff"/>
     <use xlink:href="#m33c1f7ae2a" x="352.821507" y="209.980678" style="fill: #0000ff; stroke: #0000ff"/>
     <use xlink:href="#m33c1f7ae2a" x="355.895888" y="210.699687" style="fill: #0000ff; stroke: #0000ff"/>
     <use xlink:href="#m33c1f7ae2a" x="358.970268" y="214.612559" style="fill: #0000ff; stroke: #0000ff"/>
    </g>
   </g>
   <g id="patch_3">
    <path d="M 39.38845 235.145484 
L 39.38845 17.705484 
" style="fill: none; stroke: #000000; stroke-width: 0.5; stroke-linejoin: miter; stroke-linecap: square"/>
   </g>
   <g id="patch_4">
    <path d="M 374.18845 235.145484 
L 374.18845 17.705484 
" style="fill: none; stroke: #000000; stroke-width: 0.5; stroke-linejoin: miter; stroke-linecap: square"/>
   </g>
   <g id="patch_5">
    <path d="M 39.38845 235.145484 
L 374.18845 235.145484 
" style="fill: none; stroke: #000000; stroke-width: 0.5; stroke-linejoin: miter; stroke-linecap: square"/>
   </g>
   <g id="patch_6">
    <path d="M 39.38845 17.705484 
L 374.18845 17.705484 
" style="fill: none; stroke: #000000; stroke-width: 0.5; stroke-linejoin: miter; stroke-linecap: square"/>
   </g>
   <g id="text_10">
    <!-- Loss function evolution -->
    <g transform="translate(150.270898 11.705484)scale(0.12 -0.12)">
     <defs>
      <path id="NimbusRomNo9L-Regu-4c" d="M 3667 1114 
C 3558 870 3469 723 3373 614 
C 3149 365 2797 250 2266 250 
L 1837 250 
C 1370 250 1286 288 1286 513 
L 1286 3550 
C 1286 4007 1376 4096 1882 4096 
L 1882 4237 
L 77 4237 
L 77 4115 
C 550 4077 634 3986 634 3536 
L 634 681 
C 634 230 544 134 77 134 
L 77 0 
L 3520 0 
L 3827 1114 
L 3667 1114 
z
" transform="scale(0.015625)"/>
      <path id="NimbusRomNo9L-Regu-66" d="M 1978 2880 
L 1190 2880 
L 1190 3611 
C 1190 3978 1312 4173 1555 4173 
C 1690 4173 1779 4110 1894 3927 
C 1997 3763 2074 3700 2182 3700 
C 2330 3700 2451 3814 2451 3959 
C 2451 4188 2170 4352 1786 4352 
C 1389 4352 1050 4181 883 3891 
C 717 3613 666 3385 659 2880 
L 134 2880 
L 134 2675 
L 659 2675 
L 659 656 
C 659 185 589 109 128 109 
L 128 0 
L 1792 0 
L 1792 109 
C 1267 109 1197 180 1197 661 
L 1197 2675 
L 1978 2675 
L 1978 2880 
z
" transform="scale(0.015625)"/>
      <path id="NimbusRomNo9L-Regu-75" d="M 3066 320 
L 3034 320 
C 2739 320 2669 390 2669 685 
L 2669 2880 
L 1658 2880 
L 1658 2758 
C 2054 2758 2131 2694 2131 2375 
L 2131 875 
C 2131 697 2099 607 2010 537 
C 1837 397 1638 320 1446 320 
C 1197 320 992 537 992 805 
L 992 2880 
L 58 2880 
L 58 2778 
C 365 2778 454 2682 454 2387 
L 454 770 
C 454 263 762 -64 1229 -64 
C 1466 -64 1715 38 1888 211 
L 2163 486 
L 2163 -45 
L 2189 -58 
C 2509 70 2739 141 3066 230 
L 3066 320 
z
" transform="scale(0.015625)"/>
      <path id="NimbusRomNo9L-Regu-6e" d="M 102 2579 
C 141 2598 205 2605 275 2605 
C 454 2605 512 2509 512 2195 
L 512 608 
C 512 243 442 154 115 128 
L 115 32 
L 1472 32 
L 1472 128 
C 1146 154 1050 230 1050 461 
L 1050 2259 
C 1357 2547 1498 2624 1709 2624 
C 2022 2624 2176 2426 2176 2003 
L 2176 666 
C 2176 262 2093 154 1773 128 
L 1773 32 
L 3104 32 
L 3104 128 
C 2790 160 2714 237 2714 550 
L 2714 2016 
C 2714 2618 2432 2976 1958 2976 
C 1664 2976 1466 2867 1030 2458 
L 1030 2963 
L 986 2976 
C 672 2861 454 2790 102 2688 
L 102 2579 
z
" transform="scale(0.015625)"/>
      <path id="NimbusRomNo9L-Regu-74" d="M 1632 2880 
L 986 2880 
L 986 3622 
C 986 3686 979 3706 941 3706 
C 896 3648 858 3590 813 3526 
C 570 3174 294 2867 192 2841 
C 122 2794 83 2748 83 2715 
C 83 2695 90 2682 109 2682 
L 448 2682 
L 448 751 
C 448 212 640 -64 1018 -64 
C 1331 -64 1574 90 1786 423 
L 1702 493 
C 1568 333 1459 269 1318 269 
C 1082 269 986 443 986 847 
L 986 2682 
L 1632 2682 
L 1632 2880 
z
" transform="scale(0.015625)"/>
      <path id="NimbusRomNo9L-Regu-69" d="M 1120 2929 
L 128 2579 
L 128 2484 
L 179 2490 
C 256 2502 339 2509 397 2509 
C 550 2509 608 2406 608 2125 
L 608 640 
C 608 179 544 109 102 109 
L 102 0 
L 1619 0 
L 1619 96 
C 1197 128 1146 191 1146 650 
L 1146 2910 
L 1120 2929 
z
M 819 4352 
C 646 4352 499 4205 499 4026 
C 499 3847 640 3699 819 3699 
C 1005 3699 1152 3840 1152 4026 
C 1152 4205 1005 4352 819 4352 
z
" transform="scale(0.015625)"/>
      <path id="NimbusRomNo9L-Regu-65" d="M 2611 1053 
C 2304 564 2029 378 1619 378 
C 1254 378 979 564 794 930 
C 678 1174 634 1386 621 1779 
L 2592 1779 
C 2541 2193 2477 2377 2317 2581 
C 2125 2811 1830 2944 1498 2944 
C 1178 2944 877 2829 634 2611 
C 333 2349 160 1894 160 1370 
C 160 486 621 -64 1357 -64 
C 1965 -64 2445 315 2714 1008 
L 2611 1053 
z
M 634 1984 
C 704 2479 922 2714 1312 2714 
C 1702 2714 1856 2535 1939 1984 
L 634 1984 
z
" transform="scale(0.015625)"/>
      <path id="NimbusRomNo9L-Regu-76" d="M 3053 2854 
L 2163 2854 
L 2163 2758 
C 2368 2739 2464 2675 2464 2552 
C 2464 2488 2451 2424 2426 2359 
L 1792 695 
L 1139 2340 
C 1101 2431 1082 2520 1082 2578 
C 1082 2694 1152 2739 1376 2758 
L 1376 2854 
L 122 2854 
L 122 2752 
C 365 2752 410 2688 704 2024 
L 1472 175 
C 1485 137 1504 91 1523 40 
C 1562 -76 1600 -128 1638 -128 
C 1677 -128 1722 -44 1818 193 
L 2637 2257 
C 2822 2694 2861 2739 3053 2758 
L 3053 2854 
z
" transform="scale(0.015625)"/>
     </defs>
     <use xlink:href="#NimbusRomNo9L-Regu-4c" transform="scale(0.996264)"/>
     <use xlink:href="#NimbusRomNo9L-Regu-6f" transform="translate(60.871631 0)scale(0.996264)"/>
     <use xlink:href="#NimbusRomNo9L-Regu-73" transform="translate(110.684831 0)scale(0.996264)"/>
     <use xlink:href="#NimbusRomNo9L-Regu-73" transform="translate(149.438537 0)scale(0.996264)"/>
     <use xlink:href="#NimbusRomNo9L-Regu-66" transform="translate(213.098844 0)scale(0.996264)"/>
     <use xlink:href="#NimbusRomNo9L-Regu-75" transform="translate(246.274074 0)scale(0.996264)"/>
     <use xlink:href="#NimbusRomNo9L-Regu-6e" transform="translate(296.087274 0)scale(0.996264)"/>
     <use xlink:href="#NimbusRomNo9L-Regu-63" transform="translate(345.900475 0)scale(0.996264)"/>
     <use xlink:href="#NimbusRomNo9L-Regu-74" transform="translate(390.134043 0)scale(0.996264)"/>
     <use xlink:href="#NimbusRomNo9L-Regu-69" transform="translate(417.829213 0)scale(0.996264)"/>
     <use xlink:href="#NimbusRomNo9L-Regu-6f" transform="translate(445.524382 0)scale(0.996264)"/>
     <use xlink:href="#NimbusRomNo9L-Regu-6e" transform="translate(495.337583 0)scale(0.996264)"/>
     <use xlink:href="#NimbusRomNo9L-Regu-65" transform="translate(570.057384 0)scale(0.996264)"/>
     <use xlink:href="#NimbusRomNo9L-Regu-76" transform="translate(611.800323 0)scale(0.996264)"/>
     <use xlink:href="#NimbusRomNo9L-Regu-6f" transform="translate(659.621512 0)scale(0.996264)"/>
     <use xlink:href="#NimbusRomNo9L-Regu-6c" transform="translate(709.434713 0)scale(0.996264)"/>
     <use xlink:href="#NimbusRomNo9L-Regu-75" transform="translate(737.129882 0)scale(0.996264)"/>
     <use xlink:href="#NimbusRomNo9L-Regu-74" transform="translate(786.943083 0)scale(0.996264)"/>
     <use xlink:href="#NimbusRomNo9L-Regu-69" transform="translate(814.638252 0)scale(0.996264)"/>
     <use xlink:href="#NimbusRomNo9L-Regu-6f" transform="translate(842.333422 0)scale(0.996264)"/>
     <use xlink:href="#NimbusRomNo9L-Regu-6e" transform="translate(892.146622 0)scale(0.996264)"/>
    </g>
   </g>
  </g>
 </g>
 <defs>
  <clipPath id="p60c80f457c">
   <rect x="39.38845" y="17.705484" width="334.8" height="217.44"/>
  </clipPath>
 </defs>
</svg>
