<?xml version="1.0" encoding="utf-8" standalone="no"?>
<!DOCTYPE svg PUBLIC "-//W3C//DTD SVG 1.1//EN"
  "http://www.w3.org/Graphics/SVG/1.1/DTD/svg11.dtd">
<svg xmlns:xlink="http://www.w3.org/1999/xlink" width="453.47976pt" height="308.756589pt" viewBox="0 0 453.47976 308.756589" xmlns="http://www.w3.org/2000/svg" version="1.1">
 <metadata>
  <rdf:RDF xmlns:dc="http://purl.org/dc/elements/1.1/" xmlns:cc="http://creativecommons.org/ns#" xmlns:rdf="http://www.w3.org/1999/02/22-rdf-syntax-ns#">
   <cc:Work>
    <dc:type rdf:resource="http://purl.org/dc/dcmitype/StillImage"/>
    <dc:date>2022-06-23T14:45:27.178204</dc:date>
    <dc:format>image/svg+xml</dc:format>
    <dc:creator>
     <cc:Agent>
      <dc:title>Matplotlib v3.5.2, https://matplotlib.org/</dc:title>
     </cc:Agent>
    </dc:creator>
   </cc:Work>
  </rdf:RDF>
 </metadata>
 <defs>
  <style type="text/css">*{stroke-linejoin: round; stroke-linecap: butt}</style>
 </defs>
 <g id="figure_1">
  <g id="patch_1">
   <path d="M 0 308.756589 
L 453.47976 308.756589 
L 453.47976 0 
L 0 0 
L 0 308.756589 
z
" style="fill: none"/>
  </g>
  <g id="axes_1">
   <g id="patch_2">
    <path d="M 52.28684 137.565072 
L 449.87976 137.565072 
L 449.87976 32.494206 
L 52.28684 32.494206 
z
" style="fill: #ffffff"/>
   </g>
   <g id="matplotlib.axis_1">
    <g id="xtick_1">
     <g id="line2d_1">
      <defs>
       <path id="m000de91f31" d="M 0 0 
L 0 -3 
" style="stroke: #000000; stroke-width: 0.5"/>
      </defs>
      <g>
       <use xlink:href="#m000de91f31" x="66.707925" y="137.565072" style="stroke: #000000; stroke-width: 0.5"/>
      </g>
     </g>
     <g id="line2d_2">
      <defs>
       <path id="m0361a36e1e" d="M 0 0 
L 0 3 
" style="stroke: #000000; stroke-width: 0.5"/>
      </defs>
      <g>
       <use xlink:href="#m0361a36e1e" x="66.707925" y="32.494206" style="stroke: #000000; stroke-width: 0.5"/>
      </g>
     </g>
     <g id="text_1">
      <!-- $\mathdefault{0}$ -->
      <g transform="translate(64.217265 147.81965)scale(0.1 -0.1)">
       <defs>
        <path id="NimbusRomNo9L-Regu-30" d="M 1626 4352 
C 1274 4352 1005 4244 768 4020 
C 397 3661 154 2925 154 2176 
C 154 1479 365 730 666 372 
C 902 90 1229 -64 1600 -64 
C 1926 -64 2202 45 2432 269 
C 2803 621 3046 1364 3046 2138 
C 3046 3450 2464 4352 1626 4352 
z
M 1606 4186 
C 2144 4186 2432 3463 2432 2125 
C 2432 788 2150 103 1600 103 
C 1050 103 768 788 768 2119 
C 768 3476 1056 4186 1606 4186 
z
" transform="scale(0.015625)"/>
       </defs>
       <use xlink:href="#NimbusRomNo9L-Regu-30" transform="scale(0.996264)"/>
      </g>
     </g>
    </g>
    <g id="xtick_2">
     <g id="line2d_3">
      <g>
       <use xlink:href="#m000de91f31" x="139.727831" y="137.565072" style="stroke: #000000; stroke-width: 0.5"/>
      </g>
     </g>
     <g id="line2d_4">
      <g>
       <use xlink:href="#m0361a36e1e" x="139.727831" y="32.494206" style="stroke: #000000; stroke-width: 0.5"/>
      </g>
     </g>
     <g id="text_2">
      <!-- $\mathdefault{1000}$ -->
      <g transform="translate(129.765191 147.81965)scale(0.1 -0.1)">
       <defs>
        <path id="NimbusRomNo9L-Regu-31" d="M 1862 4339 
L 710 3757 
L 710 3667 
C 787 3699 858 3725 883 3738 
C 998 3783 1107 3808 1171 3808 
C 1306 3808 1363 3711 1363 3505 
L 1363 592 
C 1363 379 1312 232 1210 173 
C 1114 116 1024 96 755 96 
L 755 0 
L 2522 0 
L 2522 96 
C 2016 96 1914 160 1914 470 
L 1914 4327 
L 1862 4339 
z
" transform="scale(0.015625)"/>
       </defs>
       <use xlink:href="#NimbusRomNo9L-Regu-31" transform="scale(0.996264)"/>
       <use xlink:href="#NimbusRomNo9L-Regu-30" transform="translate(49.8132 0)scale(0.996264)"/>
       <use xlink:href="#NimbusRomNo9L-Regu-30" transform="translate(99.626401 0)scale(0.996264)"/>
       <use xlink:href="#NimbusRomNo9L-Regu-30" transform="translate(149.439601 0)scale(0.996264)"/>
      </g>
     </g>
    </g>
    <g id="xtick_3">
     <g id="line2d_5">
      <g>
       <use xlink:href="#m000de91f31" x="212.747738" y="137.565072" style="stroke: #000000; stroke-width: 0.5"/>
      </g>
     </g>
     <g id="line2d_6">
      <g>
       <use xlink:href="#m0361a36e1e" x="212.747738" y="32.494206" style="stroke: #000000; stroke-width: 0.5"/>
      </g>
     </g>
     <g id="text_3">
      <!-- $\mathdefault{2000}$ -->
      <g transform="translate(202.785098 147.81965)scale(0.1 -0.1)">
       <defs>
        <path id="NimbusRomNo9L-Regu-32" d="M 3040 875 
L 2957 907 
C 2720 544 2637 486 2349 486 
L 819 486 
L 1894 1609 
C 2464 2202 2714 2687 2714 3185 
C 2714 3823 2195 4313 1530 4313 
C 1178 4313 845 4173 608 3918 
C 403 3700 307 3496 198 3043 
L 333 3011 
C 589 3636 819 3840 1261 3840 
C 1798 3840 2163 3476 2163 2940 
C 2163 2443 1869 1850 1331 1282 
L 192 77 
L 192 0 
L 2688 0 
L 3040 875 
z
" transform="scale(0.015625)"/>
       </defs>
       <use xlink:href="#NimbusRomNo9L-Regu-32" transform="scale(0.996264)"/>
       <use xlink:href="#NimbusRomNo9L-Regu-30" transform="translate(49.8132 0)scale(0.996264)"/>
       <use xlink:href="#NimbusRomNo9L-Regu-30" transform="translate(99.626401 0)scale(0.996264)"/>
       <use xlink:href="#NimbusRomNo9L-Regu-30" transform="translate(149.439601 0)scale(0.996264)"/>
      </g>
     </g>
    </g>
    <g id="xtick_4">
     <g id="line2d_7">
      <g>
       <use xlink:href="#m000de91f31" x="285.767644" y="137.565072" style="stroke: #000000; stroke-width: 0.5"/>
      </g>
     </g>
     <g id="line2d_8">
      <g>
       <use xlink:href="#m0361a36e1e" x="285.767644" y="32.494206" style="stroke: #000000; stroke-width: 0.5"/>
      </g>
     </g>
     <g id="text_4">
      <!-- $\mathdefault{3000}$ -->
      <g transform="translate(275.805004 147.81965)scale(0.1 -0.1)">
       <defs>
        <path id="NimbusRomNo9L-Regu-33" d="M 979 2138 
C 1357 2138 1504 2125 1658 2068 
C 2054 1927 2304 1562 2304 1120 
C 2304 583 1939 167 1466 167 
C 1293 167 1165 212 928 365 
C 736 480 627 525 518 525 
C 371 525 275 436 275 301 
C 275 77 550 -64 998 -64 
C 1491 -64 1997 103 2298 365 
C 2598 628 2765 999 2765 1428 
C 2765 1754 2662 2055 2477 2253 
C 2349 2394 2227 2471 1946 2592 
C 2387 2893 2547 3130 2547 3476 
C 2547 3994 2138 4352 1549 4352 
C 1229 4352 947 4244 717 4039 
C 525 3866 429 3699 288 3315 
L 384 3290 
C 646 3757 934 3968 1338 3968 
C 1754 3968 2042 3687 2042 3284 
C 2042 3053 1946 2823 1786 2663 
C 1594 2471 1414 2375 979 2221 
L 979 2138 
z
" transform="scale(0.015625)"/>
       </defs>
       <use xlink:href="#NimbusRomNo9L-Regu-33" transform="scale(0.996264)"/>
       <use xlink:href="#NimbusRomNo9L-Regu-30" transform="translate(49.8132 0)scale(0.996264)"/>
       <use xlink:href="#NimbusRomNo9L-Regu-30" transform="translate(99.626401 0)scale(0.996264)"/>
       <use xlink:href="#NimbusRomNo9L-Regu-30" transform="translate(149.439601 0)scale(0.996264)"/>
      </g>
     </g>
    </g>
    <g id="xtick_5">
     <g id="line2d_9">
      <g>
       <use xlink:href="#m000de91f31" x="358.787551" y="137.565072" style="stroke: #000000; stroke-width: 0.5"/>
      </g>
     </g>
     <g id="line2d_10">
      <g>
       <use xlink:href="#m0361a36e1e" x="358.787551" y="32.494206" style="stroke: #000000; stroke-width: 0.5"/>
      </g>
     </g>
     <g id="text_5">
      <!-- $\mathdefault{4000}$ -->
      <g transform="translate(348.824911 147.81965)scale(0.1 -0.1)">
       <defs>
        <path id="NimbusRomNo9L-Regu-34" d="M 3021 1497 
L 2368 1497 
L 2368 4352 
L 2086 4352 
L 77 1497 
L 77 1088 
L 1875 1088 
L 1875 32 
L 2368 32 
L 2368 1088 
L 3021 1088 
L 3021 1497 
z
M 1869 1497 
L 333 1497 
L 1869 3698 
L 1869 1497 
z
" transform="scale(0.015625)"/>
       </defs>
       <use xlink:href="#NimbusRomNo9L-Regu-34" transform="scale(0.996264)"/>
       <use xlink:href="#NimbusRomNo9L-Regu-30" transform="translate(49.8132 0)scale(0.996264)"/>
       <use xlink:href="#NimbusRomNo9L-Regu-30" transform="translate(99.626401 0)scale(0.996264)"/>
       <use xlink:href="#NimbusRomNo9L-Regu-30" transform="translate(149.439601 0)scale(0.996264)"/>
      </g>
     </g>
    </g>
    <g id="xtick_6">
     <g id="line2d_11">
      <g>
       <use xlink:href="#m000de91f31" x="431.807457" y="137.565072" style="stroke: #000000; stroke-width: 0.5"/>
      </g>
     </g>
     <g id="line2d_12">
      <g>
       <use xlink:href="#m0361a36e1e" x="431.807457" y="32.494206" style="stroke: #000000; stroke-width: 0.5"/>
      </g>
     </g>
     <g id="text_6">
      <!-- $\mathdefault{5000}$ -->
      <g transform="translate(421.844817 147.81965)scale(0.1 -0.1)">
       <defs>
        <path id="NimbusRomNo9L-Regu-35" d="M 1158 3776 
L 2413 3776 
C 2515 3776 2541 3789 2560 3834 
L 2803 4403 
L 2746 4448 
C 2650 4314 2586 4282 2451 4282 
L 1114 4282 
L 416 2759 
C 410 2746 410 2740 410 2727 
C 410 2695 435 2676 486 2676 
C 691 2676 947 2631 1210 2547 
C 1946 2309 2285 1910 2285 1274 
C 2285 656 1894 173 1395 173 
C 1267 173 1158 218 966 360 
C 762 508 614 572 480 572 
C 294 572 205 495 205 334 
C 205 90 506 -64 986 -64 
C 1523 -64 1984 110 2304 438 
C 2598 728 2733 1094 2733 1583 
C 2733 2046 2611 2342 2291 2663 
C 2010 2947 1645 3094 890 3229 
L 1158 3776 
z
" transform="scale(0.015625)"/>
       </defs>
       <use xlink:href="#NimbusRomNo9L-Regu-35" transform="scale(0.996264)"/>
       <use xlink:href="#NimbusRomNo9L-Regu-30" transform="translate(49.8132 0)scale(0.996264)"/>
       <use xlink:href="#NimbusRomNo9L-Regu-30" transform="translate(99.626401 0)scale(0.996264)"/>
       <use xlink:href="#NimbusRomNo9L-Regu-30" transform="translate(149.439601 0)scale(0.996264)"/>
      </g>
     </g>
    </g>
    <g id="xtick_7">
     <g id="line2d_13">
      <defs>
       <path id="m84f6f8e476" d="M 0 0 
L 0 -1.5 
" style="stroke: #000000; stroke-width: 0.5"/>
      </defs>
      <g>
       <use xlink:href="#m84f6f8e476" x="81.311906" y="137.565072" style="stroke: #000000; stroke-width: 0.5"/>
      </g>
     </g>
     <g id="line2d_14">
      <defs>
       <path id="m141444b2bb" d="M 0 0 
L 0 1.5 
" style="stroke: #000000; stroke-width: 0.5"/>
      </defs>
      <g>
       <use xlink:href="#m141444b2bb" x="81.311906" y="32.494206" style="stroke: #000000; stroke-width: 0.5"/>
      </g>
     </g>
    </g>
    <g id="xtick_8">
     <g id="line2d_15">
      <g>
       <use xlink:href="#m84f6f8e476" x="95.915887" y="137.565072" style="stroke: #000000; stroke-width: 0.5"/>
      </g>
     </g>
     <g id="line2d_16">
      <g>
       <use xlink:href="#m141444b2bb" x="95.915887" y="32.494206" style="stroke: #000000; stroke-width: 0.5"/>
      </g>
     </g>
    </g>
    <g id="xtick_9">
     <g id="line2d_17">
      <g>
       <use xlink:href="#m84f6f8e476" x="110.519869" y="137.565072" style="stroke: #000000; stroke-width: 0.5"/>
      </g>
     </g>
     <g id="line2d_18">
      <g>
       <use xlink:href="#m141444b2bb" x="110.519869" y="32.494206" style="stroke: #000000; stroke-width: 0.5"/>
      </g>
     </g>
    </g>
    <g id="xtick_10">
     <g id="line2d_19">
      <g>
       <use xlink:href="#m84f6f8e476" x="125.12385" y="137.565072" style="stroke: #000000; stroke-width: 0.5"/>
      </g>
     </g>
     <g id="line2d_20">
      <g>
       <use xlink:href="#m141444b2bb" x="125.12385" y="32.494206" style="stroke: #000000; stroke-width: 0.5"/>
      </g>
     </g>
    </g>
    <g id="xtick_11">
     <g id="line2d_21">
      <g>
       <use xlink:href="#m84f6f8e476" x="154.331813" y="137.565072" style="stroke: #000000; stroke-width: 0.5"/>
      </g>
     </g>
     <g id="line2d_22">
      <g>
       <use xlink:href="#m141444b2bb" x="154.331813" y="32.494206" style="stroke: #000000; stroke-width: 0.5"/>
      </g>
     </g>
    </g>
    <g id="xtick_12">
     <g id="line2d_23">
      <g>
       <use xlink:href="#m84f6f8e476" x="168.935794" y="137.565072" style="stroke: #000000; stroke-width: 0.5"/>
      </g>
     </g>
     <g id="line2d_24">
      <g>
       <use xlink:href="#m141444b2bb" x="168.935794" y="32.494206" style="stroke: #000000; stroke-width: 0.5"/>
      </g>
     </g>
    </g>
    <g id="xtick_13">
     <g id="line2d_25">
      <g>
       <use xlink:href="#m84f6f8e476" x="183.539775" y="137.565072" style="stroke: #000000; stroke-width: 0.5"/>
      </g>
     </g>
     <g id="line2d_26">
      <g>
       <use xlink:href="#m141444b2bb" x="183.539775" y="32.494206" style="stroke: #000000; stroke-width: 0.5"/>
      </g>
     </g>
    </g>
    <g id="xtick_14">
     <g id="line2d_27">
      <g>
       <use xlink:href="#m84f6f8e476" x="198.143756" y="137.565072" style="stroke: #000000; stroke-width: 0.5"/>
      </g>
     </g>
     <g id="line2d_28">
      <g>
       <use xlink:href="#m141444b2bb" x="198.143756" y="32.494206" style="stroke: #000000; stroke-width: 0.5"/>
      </g>
     </g>
    </g>
    <g id="xtick_15">
     <g id="line2d_29">
      <g>
       <use xlink:href="#m84f6f8e476" x="227.351719" y="137.565072" style="stroke: #000000; stroke-width: 0.5"/>
      </g>
     </g>
     <g id="line2d_30">
      <g>
       <use xlink:href="#m141444b2bb" x="227.351719" y="32.494206" style="stroke: #000000; stroke-width: 0.5"/>
      </g>
     </g>
    </g>
    <g id="xtick_16">
     <g id="line2d_31">
      <g>
       <use xlink:href="#m84f6f8e476" x="241.9557" y="137.565072" style="stroke: #000000; stroke-width: 0.5"/>
      </g>
     </g>
     <g id="line2d_32">
      <g>
       <use xlink:href="#m141444b2bb" x="241.9557" y="32.494206" style="stroke: #000000; stroke-width: 0.5"/>
      </g>
     </g>
    </g>
    <g id="xtick_17">
     <g id="line2d_33">
      <g>
       <use xlink:href="#m84f6f8e476" x="256.559682" y="137.565072" style="stroke: #000000; stroke-width: 0.5"/>
      </g>
     </g>
     <g id="line2d_34">
      <g>
       <use xlink:href="#m141444b2bb" x="256.559682" y="32.494206" style="stroke: #000000; stroke-width: 0.5"/>
      </g>
     </g>
    </g>
    <g id="xtick_18">
     <g id="line2d_35">
      <g>
       <use xlink:href="#m84f6f8e476" x="271.163663" y="137.565072" style="stroke: #000000; stroke-width: 0.5"/>
      </g>
     </g>
     <g id="line2d_36">
      <g>
       <use xlink:href="#m141444b2bb" x="271.163663" y="32.494206" style="stroke: #000000; stroke-width: 0.5"/>
      </g>
     </g>
    </g>
    <g id="xtick_19">
     <g id="line2d_37">
      <g>
       <use xlink:href="#m84f6f8e476" x="300.371626" y="137.565072" style="stroke: #000000; stroke-width: 0.5"/>
      </g>
     </g>
     <g id="line2d_38">
      <g>
       <use xlink:href="#m141444b2bb" x="300.371626" y="32.494206" style="stroke: #000000; stroke-width: 0.5"/>
      </g>
     </g>
    </g>
    <g id="xtick_20">
     <g id="line2d_39">
      <g>
       <use xlink:href="#m84f6f8e476" x="314.975607" y="137.565072" style="stroke: #000000; stroke-width: 0.5"/>
      </g>
     </g>
     <g id="line2d_40">
      <g>
       <use xlink:href="#m141444b2bb" x="314.975607" y="32.494206" style="stroke: #000000; stroke-width: 0.5"/>
      </g>
     </g>
    </g>
    <g id="xtick_21">
     <g id="line2d_41">
      <g>
       <use xlink:href="#m84f6f8e476" x="329.579588" y="137.565072" style="stroke: #000000; stroke-width: 0.5"/>
      </g>
     </g>
     <g id="line2d_42">
      <g>
       <use xlink:href="#m141444b2bb" x="329.579588" y="32.494206" style="stroke: #000000; stroke-width: 0.5"/>
      </g>
     </g>
    </g>
    <g id="xtick_22">
     <g id="line2d_43">
      <g>
       <use xlink:href="#m84f6f8e476" x="344.183569" y="137.565072" style="stroke: #000000; stroke-width: 0.5"/>
      </g>
     </g>
     <g id="line2d_44">
      <g>
       <use xlink:href="#m141444b2bb" x="344.183569" y="32.494206" style="stroke: #000000; stroke-width: 0.5"/>
      </g>
     </g>
    </g>
    <g id="xtick_23">
     <g id="line2d_45">
      <g>
       <use xlink:href="#m84f6f8e476" x="373.391532" y="137.565072" style="stroke: #000000; stroke-width: 0.5"/>
      </g>
     </g>
     <g id="line2d_46">
      <g>
       <use xlink:href="#m141444b2bb" x="373.391532" y="32.494206" style="stroke: #000000; stroke-width: 0.5"/>
      </g>
     </g>
    </g>
    <g id="xtick_24">
     <g id="line2d_47">
      <g>
       <use xlink:href="#m84f6f8e476" x="387.995513" y="137.565072" style="stroke: #000000; stroke-width: 0.5"/>
      </g>
     </g>
     <g id="line2d_48">
      <g>
       <use xlink:href="#m141444b2bb" x="387.995513" y="32.494206" style="stroke: #000000; stroke-width: 0.5"/>
      </g>
     </g>
    </g>
    <g id="xtick_25">
     <g id="line2d_49">
      <g>
       <use xlink:href="#m84f6f8e476" x="402.599495" y="137.565072" style="stroke: #000000; stroke-width: 0.5"/>
      </g>
     </g>
     <g id="line2d_50">
      <g>
       <use xlink:href="#m141444b2bb" x="402.599495" y="32.494206" style="stroke: #000000; stroke-width: 0.5"/>
      </g>
     </g>
    </g>
    <g id="xtick_26">
     <g id="line2d_51">
      <g>
       <use xlink:href="#m84f6f8e476" x="417.203476" y="137.565072" style="stroke: #000000; stroke-width: 0.5"/>
      </g>
     </g>
     <g id="line2d_52">
      <g>
       <use xlink:href="#m141444b2bb" x="417.203476" y="32.494206" style="stroke: #000000; stroke-width: 0.5"/>
      </g>
     </g>
    </g>
    <g id="xtick_27">
     <g id="line2d_53">
      <g>
       <use xlink:href="#m84f6f8e476" x="446.411439" y="137.565072" style="stroke: #000000; stroke-width: 0.5"/>
      </g>
     </g>
     <g id="line2d_54">
      <g>
       <use xlink:href="#m141444b2bb" x="446.411439" y="32.494206" style="stroke: #000000; stroke-width: 0.5"/>
      </g>
     </g>
    </g>
   </g>
   <g id="matplotlib.axis_2">
    <g id="ytick_1">
     <g id="line2d_55">
      <defs>
       <path id="mb2de9a783b" d="M 0 0 
L 3 0 
" style="stroke: #000000; stroke-width: 0.5"/>
      </defs>
      <g>
       <use xlink:href="#mb2de9a783b" x="52.28684" y="137.565072" style="stroke: #000000; stroke-width: 0.5"/>
      </g>
     </g>
     <g id="line2d_56">
      <defs>
       <path id="m7f3e5e849b" d="M 0 0 
L -3 0 
" style="stroke: #000000; stroke-width: 0.5"/>
      </defs>
      <g>
       <use xlink:href="#m7f3e5e849b" x="449.87976" y="137.565072" style="stroke: #000000; stroke-width: 0.5"/>
      </g>
     </g>
     <g id="text_7">
      <!-- $\mathdefault{0}$ -->
      <g transform="translate(43.80552 140.942361)scale(0.1 -0.1)">
       <use xlink:href="#NimbusRomNo9L-Regu-30" transform="scale(0.996264)"/>
      </g>
     </g>
    </g>
    <g id="ytick_2">
     <g id="line2d_57">
      <g>
       <use xlink:href="#mb2de9a783b" x="52.28684" y="112.99778" style="stroke: #000000; stroke-width: 0.5"/>
      </g>
     </g>
     <g id="line2d_58">
      <g>
       <use xlink:href="#m7f3e5e849b" x="449.87976" y="112.99778" style="stroke: #000000; stroke-width: 0.5"/>
      </g>
     </g>
     <g id="text_8">
      <!-- $\mathdefault{2500}$ -->
      <g transform="translate(28.86156 116.375069)scale(0.1 -0.1)">
       <use xlink:href="#NimbusRomNo9L-Regu-32" transform="scale(0.996264)"/>
       <use xlink:href="#NimbusRomNo9L-Regu-35" transform="translate(49.8132 0)scale(0.996264)"/>
       <use xlink:href="#NimbusRomNo9L-Regu-30" transform="translate(99.626401 0)scale(0.996264)"/>
       <use xlink:href="#NimbusRomNo9L-Regu-30" transform="translate(149.439601 0)scale(0.996264)"/>
      </g>
     </g>
    </g>
    <g id="ytick_3">
     <g id="line2d_59">
      <g>
       <use xlink:href="#mb2de9a783b" x="52.28684" y="88.430489" style="stroke: #000000; stroke-width: 0.5"/>
      </g>
     </g>
     <g id="line2d_60">
      <g>
       <use xlink:href="#m7f3e5e849b" x="449.87976" y="88.430489" style="stroke: #000000; stroke-width: 0.5"/>
      </g>
     </g>
     <g id="text_9">
      <!-- $\mathdefault{5000}$ -->
      <g transform="translate(28.86156 91.807778)scale(0.1 -0.1)">
       <use xlink:href="#NimbusRomNo9L-Regu-35" transform="scale(0.996264)"/>
       <use xlink:href="#NimbusRomNo9L-Regu-30" transform="translate(49.8132 0)scale(0.996264)"/>
       <use xlink:href="#NimbusRomNo9L-Regu-30" transform="translate(99.626401 0)scale(0.996264)"/>
       <use xlink:href="#NimbusRomNo9L-Regu-30" transform="translate(149.439601 0)scale(0.996264)"/>
      </g>
     </g>
    </g>
    <g id="ytick_4">
     <g id="line2d_61">
      <g>
       <use xlink:href="#mb2de9a783b" x="52.28684" y="63.863197" style="stroke: #000000; stroke-width: 0.5"/>
      </g>
     </g>
     <g id="line2d_62">
      <g>
       <use xlink:href="#m7f3e5e849b" x="449.87976" y="63.863197" style="stroke: #000000; stroke-width: 0.5"/>
      </g>
     </g>
     <g id="text_10">
      <!-- $\mathdefault{7500}$ -->
      <g transform="translate(28.86156 67.240486)scale(0.1 -0.1)">
       <defs>
        <path id="NimbusRomNo9L-Regu-37" d="M 2874 4250 
L 506 4250 
L 128 3310 
L 237 3258 
C 512 3693 627 3776 979 3776 
L 2368 3776 
L 1101 -32 
L 1517 -32 
L 2874 4148 
L 2874 4250 
z
" transform="scale(0.015625)"/>
       </defs>
       <use xlink:href="#NimbusRomNo9L-Regu-37" transform="scale(0.996264)"/>
       <use xlink:href="#NimbusRomNo9L-Regu-35" transform="translate(49.8132 0)scale(0.996264)"/>
       <use xlink:href="#NimbusRomNo9L-Regu-30" transform="translate(99.626401 0)scale(0.996264)"/>
       <use xlink:href="#NimbusRomNo9L-Regu-30" transform="translate(149.439601 0)scale(0.996264)"/>
      </g>
     </g>
    </g>
    <g id="ytick_5">
     <g id="line2d_63">
      <g>
       <use xlink:href="#mb2de9a783b" x="52.28684" y="39.295906" style="stroke: #000000; stroke-width: 0.5"/>
      </g>
     </g>
     <g id="line2d_64">
      <g>
       <use xlink:href="#m7f3e5e849b" x="449.87976" y="39.295906" style="stroke: #000000; stroke-width: 0.5"/>
      </g>
     </g>
     <g id="text_11">
      <!-- $\mathdefault{10000}$ -->
      <g transform="translate(23.88024 42.673195)scale(0.1 -0.1)">
       <use xlink:href="#NimbusRomNo9L-Regu-31" transform="scale(0.996264)"/>
       <use xlink:href="#NimbusRomNo9L-Regu-30" transform="translate(49.8132 0)scale(0.996264)"/>
       <use xlink:href="#NimbusRomNo9L-Regu-30" transform="translate(99.626401 0)scale(0.996264)"/>
       <use xlink:href="#NimbusRomNo9L-Regu-30" transform="translate(149.439601 0)scale(0.996264)"/>
       <use xlink:href="#NimbusRomNo9L-Regu-30" transform="translate(199.252802 0)scale(0.996264)"/>
      </g>
     </g>
    </g>
    <g id="ytick_6">
     <g id="line2d_65">
      <defs>
       <path id="m49d9589478" d="M 0 0 
L 1.5 0 
" style="stroke: #000000; stroke-width: 0.5"/>
      </defs>
      <g>
       <use xlink:href="#m49d9589478" x="52.28684" y="132.651614" style="stroke: #000000; stroke-width: 0.5"/>
      </g>
     </g>
     <g id="line2d_66">
      <defs>
       <path id="mcc2e826c9d" d="M 0 0 
L -1.5 0 
" style="stroke: #000000; stroke-width: 0.5"/>
      </defs>
      <g>
       <use xlink:href="#mcc2e826c9d" x="449.87976" y="132.651614" style="stroke: #000000; stroke-width: 0.5"/>
      </g>
     </g>
    </g>
    <g id="ytick_7">
     <g id="line2d_67">
      <g>
       <use xlink:href="#m49d9589478" x="52.28684" y="127.738155" style="stroke: #000000; stroke-width: 0.5"/>
      </g>
     </g>
     <g id="line2d_68">
      <g>
       <use xlink:href="#mcc2e826c9d" x="449.87976" y="127.738155" style="stroke: #000000; stroke-width: 0.5"/>
      </g>
     </g>
    </g>
    <g id="ytick_8">
     <g id="line2d_69">
      <g>
       <use xlink:href="#m49d9589478" x="52.28684" y="122.824697" style="stroke: #000000; stroke-width: 0.5"/>
      </g>
     </g>
     <g id="line2d_70">
      <g>
       <use xlink:href="#mcc2e826c9d" x="449.87976" y="122.824697" style="stroke: #000000; stroke-width: 0.5"/>
      </g>
     </g>
    </g>
    <g id="ytick_9">
     <g id="line2d_71">
      <g>
       <use xlink:href="#m49d9589478" x="52.28684" y="117.911239" style="stroke: #000000; stroke-width: 0.5"/>
      </g>
     </g>
     <g id="line2d_72">
      <g>
       <use xlink:href="#mcc2e826c9d" x="449.87976" y="117.911239" style="stroke: #000000; stroke-width: 0.5"/>
      </g>
     </g>
    </g>
    <g id="ytick_10">
     <g id="line2d_73">
      <g>
       <use xlink:href="#m49d9589478" x="52.28684" y="108.084322" style="stroke: #000000; stroke-width: 0.5"/>
      </g>
     </g>
     <g id="line2d_74">
      <g>
       <use xlink:href="#mcc2e826c9d" x="449.87976" y="108.084322" style="stroke: #000000; stroke-width: 0.5"/>
      </g>
     </g>
    </g>
    <g id="ytick_11">
     <g id="line2d_75">
      <g>
       <use xlink:href="#m49d9589478" x="52.28684" y="103.170864" style="stroke: #000000; stroke-width: 0.5"/>
      </g>
     </g>
     <g id="line2d_76">
      <g>
       <use xlink:href="#mcc2e826c9d" x="449.87976" y="103.170864" style="stroke: #000000; stroke-width: 0.5"/>
      </g>
     </g>
    </g>
    <g id="ytick_12">
     <g id="line2d_77">
      <g>
       <use xlink:href="#m49d9589478" x="52.28684" y="98.257406" style="stroke: #000000; stroke-width: 0.5"/>
      </g>
     </g>
     <g id="line2d_78">
      <g>
       <use xlink:href="#mcc2e826c9d" x="449.87976" y="98.257406" style="stroke: #000000; stroke-width: 0.5"/>
      </g>
     </g>
    </g>
    <g id="ytick_13">
     <g id="line2d_79">
      <g>
       <use xlink:href="#m49d9589478" x="52.28684" y="93.343947" style="stroke: #000000; stroke-width: 0.5"/>
      </g>
     </g>
     <g id="line2d_80">
      <g>
       <use xlink:href="#mcc2e826c9d" x="449.87976" y="93.343947" style="stroke: #000000; stroke-width: 0.5"/>
      </g>
     </g>
    </g>
    <g id="ytick_14">
     <g id="line2d_81">
      <g>
       <use xlink:href="#m49d9589478" x="52.28684" y="83.517031" style="stroke: #000000; stroke-width: 0.5"/>
      </g>
     </g>
     <g id="line2d_82">
      <g>
       <use xlink:href="#mcc2e826c9d" x="449.87976" y="83.517031" style="stroke: #000000; stroke-width: 0.5"/>
      </g>
     </g>
    </g>
    <g id="ytick_15">
     <g id="line2d_83">
      <g>
       <use xlink:href="#m49d9589478" x="52.28684" y="78.603572" style="stroke: #000000; stroke-width: 0.5"/>
      </g>
     </g>
     <g id="line2d_84">
      <g>
       <use xlink:href="#mcc2e826c9d" x="449.87976" y="78.603572" style="stroke: #000000; stroke-width: 0.5"/>
      </g>
     </g>
    </g>
    <g id="ytick_16">
     <g id="line2d_85">
      <g>
       <use xlink:href="#m49d9589478" x="52.28684" y="73.690114" style="stroke: #000000; stroke-width: 0.5"/>
      </g>
     </g>
     <g id="line2d_86">
      <g>
       <use xlink:href="#mcc2e826c9d" x="449.87976" y="73.690114" style="stroke: #000000; stroke-width: 0.5"/>
      </g>
     </g>
    </g>
    <g id="ytick_17">
     <g id="line2d_87">
      <g>
       <use xlink:href="#m49d9589478" x="52.28684" y="68.776656" style="stroke: #000000; stroke-width: 0.5"/>
      </g>
     </g>
     <g id="line2d_88">
      <g>
       <use xlink:href="#mcc2e826c9d" x="449.87976" y="68.776656" style="stroke: #000000; stroke-width: 0.5"/>
      </g>
     </g>
    </g>
    <g id="ytick_18">
     <g id="line2d_89">
      <g>
       <use xlink:href="#m49d9589478" x="52.28684" y="58.949739" style="stroke: #000000; stroke-width: 0.5"/>
      </g>
     </g>
     <g id="line2d_90">
      <g>
       <use xlink:href="#mcc2e826c9d" x="449.87976" y="58.949739" style="stroke: #000000; stroke-width: 0.5"/>
      </g>
     </g>
    </g>
    <g id="ytick_19">
     <g id="line2d_91">
      <g>
       <use xlink:href="#m49d9589478" x="52.28684" y="54.036281" style="stroke: #000000; stroke-width: 0.5"/>
      </g>
     </g>
     <g id="line2d_92">
      <g>
       <use xlink:href="#mcc2e826c9d" x="449.87976" y="54.036281" style="stroke: #000000; stroke-width: 0.5"/>
      </g>
     </g>
    </g>
    <g id="ytick_20">
     <g id="line2d_93">
      <g>
       <use xlink:href="#m49d9589478" x="52.28684" y="49.122822" style="stroke: #000000; stroke-width: 0.5"/>
      </g>
     </g>
     <g id="line2d_94">
      <g>
       <use xlink:href="#mcc2e826c9d" x="449.87976" y="49.122822" style="stroke: #000000; stroke-width: 0.5"/>
      </g>
     </g>
    </g>
    <g id="ytick_21">
     <g id="line2d_95">
      <g>
       <use xlink:href="#m49d9589478" x="52.28684" y="44.209364" style="stroke: #000000; stroke-width: 0.5"/>
      </g>
     </g>
     <g id="line2d_96">
      <g>
       <use xlink:href="#mcc2e826c9d" x="449.87976" y="44.209364" style="stroke: #000000; stroke-width: 0.5"/>
      </g>
     </g>
    </g>
    <g id="ytick_22">
     <g id="line2d_97">
      <g>
       <use xlink:href="#m49d9589478" x="52.28684" y="34.382448" style="stroke: #000000; stroke-width: 0.5"/>
      </g>
     </g>
     <g id="line2d_98">
      <g>
       <use xlink:href="#mcc2e826c9d" x="449.87976" y="34.382448" style="stroke: #000000; stroke-width: 0.5"/>
      </g>
     </g>
    </g>
   </g>
   <g id="patch_3">
    <path d="M 70.573094 137.565072 
L 70.573094 132.071826 
L 74.185357 132.071826 
L 74.185357 131.845806 
L 77.797619 131.845806 
L 77.797619 131.177576 
L 85.022143 131.275845 
L 85.022143 131.442903 
L 88.634405 131.442903 
L 88.634405 130.637096 
L 92.246668 130.637096 
L 92.246668 130.519173 
L 95.85893 130.519173 
L 95.85893 130.253846 
L 99.471192 130.253846 
L 99.471192 129.408731 
L 103.083454 129.408731 
L 103.083454 129.624923 
L 106.695716 129.624923 
L 106.695716 129.143404 
L 110.307979 129.143404 
L 110.307979 128.602924 
L 113.920241 128.602924 
L 113.920241 128.996001 
L 117.532503 128.996001 
L 117.532503 128.072271 
L 124.757027 128.013309 
L 124.757027 128.20002 
L 128.36929 128.20002 
L 128.36929 128.376905 
L 131.981552 128.376905 
L 131.981552 128.219674 
L 135.593814 128.219674 
L 135.593814 127.983828 
L 139.206076 127.983828 
L 139.206076 127.305771 
L 142.818338 127.305771 
L 142.818338 127.571098 
L 146.4306 127.571098 
L 146.4306 127.423694 
L 150.042863 127.423694 
L 150.042863 127.109233 
L 153.655125 127.109233 
L 153.655125 127.364733 
L 157.267387 127.364733 
L 157.267387 127.227156 
L 168.104174 127.128887 
L 168.104174 127.453175 
L 171.716436 127.453175 
L 171.716436 126.971656 
L 178.94096 127.001137 
L 178.94096 127.128887 
L 182.553222 127.128887 
L 182.553222 126.598233 
L 186.165485 126.598233 
L 186.165485 127.482656 
L 189.777747 127.482656 
L 189.777747 126.912694 
L 197.002271 126.942175 
L 197.002271 127.413867 
L 200.614533 127.413867 
L 200.614533 126.578579 
L 204.226796 126.578579 
L 204.226796 127.128887 
L 207.839058 127.128887 
L 207.839058 126.637541 
L 211.45132 126.637541 
L 211.45132 127.050271 
L 215.063582 127.050271 
L 215.063582 127.413867 
L 218.675844 127.413867 
L 218.675844 127.030617 
L 222.288107 127.030617 
L 222.288107 127.24681 
L 225.900369 127.24681 
L 225.900369 127.797117 
L 229.512631 127.797117 
L 229.512631 126.912694 
L 233.124893 126.912694 
L 233.124893 126.745637 
L 236.737155 126.745637 
L 236.737155 127.001137 
L 240.349417 127.001137 
L 240.349417 127.443348 
L 243.96168 127.443348 
L 243.96168 127.109233 
L 247.573942 127.109233 
L 247.573942 127.354906 
L 251.186204 127.354906 
L 251.186204 127.551444 
L 258.410728 127.551444 
L 258.410728 127.14854 
L 262.022991 127.14854 
L 262.022991 127.816771 
L 265.635253 127.816771 
L 265.635253 127.482656 
L 272.859777 127.590752 
L 272.859777 127.364733 
L 276.472039 127.364733 
L 276.472039 127.227156 
L 283.696564 127.24681 
L 283.696564 127.050271 
L 287.308826 127.050271 
L 287.308826 127.236983 
L 290.921088 127.236983 
L 290.921088 127.089579 
L 294.53335 127.089579 
L 294.53335 127.286117 
L 298.145613 127.286117 
L 298.145613 127.413867 
L 301.757875 127.413867 
L 301.757875 126.902867 
L 305.370137 126.902867 
L 305.370137 126.657195 
L 308.982399 126.657195 
L 308.982399 127.14854 
L 316.206924 127.217329 
L 316.206924 126.775118 
L 319.819186 126.775118 
L 319.819186 127.413867 
L 323.431448 127.413867 
L 323.431448 127.168194 
L 330.655972 127.236983 
L 330.655972 126.716156 
L 334.268234 126.716156 
L 334.268234 127.001137 
L 337.880497 127.001137 
L 337.880497 127.354906 
L 341.492759 127.354906 
L 341.492759 127.482656 
L 352.329545 127.502309 
L 352.329545 127.639886 
L 355.941808 127.639886 
L 355.941808 127.128887 
L 363.166332 127.187848 
L 363.166332 126.814425 
L 366.778594 126.814425 
L 366.778594 127.689021 
L 370.390856 127.689021 
L 370.390856 127.236983 
L 374.003119 127.236983 
L 374.003119 127.826598 
L 377.615381 127.826598 
L 377.615381 127.109233 
L 381.227643 127.109233 
L 381.227643 127.649713 
L 384.839905 127.649713 
L 384.839905 127.315598 
L 392.06443 127.286117 
L 392.06443 126.902867 
L 395.676692 126.902867 
L 395.676692 127.286117 
L 399.288954 127.286117 
L 399.288954 127.040444 
L 402.901216 127.040444 
L 402.901216 127.689021 
L 406.513478 127.689021 
L 406.513478 127.433521 
L 410.12574 127.433521 
L 410.12574 127.089579 
L 417.350265 127.168194 
L 417.350265 127.217329 
L 420.962527 127.217329 
L 420.962527 127.777463 
L 424.574789 127.777463 
L 424.574789 127.305771 
L 428.187051 127.305771 
L 428.187051 127.630059 
L 431.799314 127.630059 
L 431.799314 137.565072 
L 431.799314 137.565072 
" clip-path="url(#p1499eb7e41)" style="fill: none; stroke: #0000ff; stroke-linejoin: miter"/>
   </g>
   <g id="patch_4">
    <path d="M 70.359246 137.565072 
L 70.359246 45.663748 
L 73.973727 45.663748 
L 73.973727 43.560788 
L 77.588208 43.560788 
L 77.588208 45.074133 
L 81.202689 45.074133 
L 81.202689 44.376422 
L 84.81717 44.376422 
L 84.81717 45.192056 
L 88.431651 45.192056 
L 88.431651 45.978209 
L 92.046132 45.978209 
L 92.046132 46.636613 
L 95.660613 46.636613 
L 95.660613 47.638958 
L 106.504057 47.57017 
L 106.504057 45.46721 
L 110.118538 45.46721 
L 110.118538 49.329188 
L 113.733019 49.329188 
L 113.733019 47.629131 
L 117.3475 47.629131 
L 117.3475 48.434938 
L 120.961981 48.434938 
L 120.961981 47.943593 
L 124.576462 47.943593 
L 124.576462 48.690438 
L 131.805424 48.680611 
L 131.805424 47.589824 
L 135.419905 47.589824 
L 135.419905 47.85515 
L 139.034386 47.85515 
L 139.034386 49.486418 
L 146.263349 49.535553 
L 146.263349 50.125168 
L 149.87783 50.125168 
L 149.87783 49.152303 
L 153.492311 49.152303 
L 153.492311 50.184129 
L 160.721273 50.134995 
L 160.721273 50.036726 
L 164.335754 50.036726 
L 164.335754 50.734437 
L 171.564716 50.754091 
L 171.564716 49.879495 
L 175.179197 49.879495 
L 175.179197 48.680611 
L 178.793678 48.680611 
L 178.793678 49.339015 
L 182.408159 49.339015 
L 182.408159 50.400322 
L 186.022641 50.400322 
L 186.022641 50.066206 
L 189.637122 50.066206 
L 189.637122 49.771399 
L 196.866084 49.80088 
L 196.866084 48.4939 
L 200.480565 48.4939 
L 200.480565 48.857496 
L 204.095046 48.857496 
L 204.095046 48.680611 
L 207.709527 48.680611 
L 207.709527 50.921148 
L 211.324008 50.921148 
L 211.324008 49.712437 
L 214.938489 49.712437 
L 214.938489 49.938457 
L 218.55297 49.938457 
L 218.55297 49.555207 
L 222.167451 49.555207 
L 222.167451 49.309534 
L 225.781933 49.309534 
L 225.781933 50.665648 
L 229.396414 50.665648 
L 229.396414 49.67313 
L 233.010895 49.67313 
L 233.010895 47.973073 
L 236.625376 47.973073 
L 236.625376 49.869668 
L 240.239857 49.869668 
L 240.239857 48.798534 
L 243.854338 48.798534 
L 243.854338 48.65113 
L 247.468819 48.65113 
L 247.468819 50.626341 
L 251.0833 50.626341 
L 251.0833 51.117687 
L 254.697781 51.117687 
L 254.697781 50.685302 
L 258.312262 50.685302 
L 258.312262 49.594514 
L 261.926743 49.594514 
L 261.926743 50.026899 
L 265.541224 50.026899 
L 265.541224 48.965592 
L 269.155706 48.965592 
L 269.155706 50.007245 
L 272.770187 50.007245 
L 272.770187 49.368495 
L 276.384668 49.368495 
L 276.384668 48.867323 
L 279.999149 48.867323 
L 279.999149 49.171957 
L 283.61363 49.171957 
L 283.61363 50.695129 
L 287.228111 50.695129 
L 287.228111 49.653476 
L 290.842592 49.653476 
L 290.842592 50.754091 
L 294.457073 50.754091 
L 294.457073 49.850014 
L 298.071554 49.850014 
L 298.071554 47.943593 
L 301.686035 47.943593 
L 301.686035 49.574861 
L 305.300516 49.574861 
L 305.300516 51.058725 
L 308.914998 51.058725 
L 308.914998 50.901494 
L 312.529479 50.901494 
L 312.529479 50.46911 
L 316.14396 50.46911 
L 316.14396 48.769053 
L 319.758441 48.769053 
L 319.758441 51.196302 
L 323.372922 51.196302 
L 323.372922 49.142476 
L 330.601884 49.093342 
L 330.601884 48.965592 
L 334.216365 48.965592 
L 334.216365 49.407803 
L 337.830846 49.407803 
L 337.830846 50.734437 
L 341.445327 50.734437 
L 341.445327 48.041862 
L 345.059808 48.041862 
L 345.059808 50.606687 
L 348.67429 50.606687 
L 348.67429 50.46911 
L 352.288771 50.46911 
L 352.288771 47.766708 
L 355.903252 47.766708 
L 355.903252 49.92863 
L 359.517733 49.92863 
L 359.517733 51.058725 
L 363.132214 51.058725 
L 363.132214 48.297361 
L 366.746695 48.297361 
L 366.746695 49.221092 
L 370.361176 49.221092 
L 370.361176 50.193956 
L 373.975657 50.193956 
L 373.975657 49.447111 
L 377.590138 49.447111 
L 377.590138 49.132649 
L 381.204619 49.132649 
L 381.204619 49.565034 
L 388.433581 49.525726 
L 388.433581 48.287535 
L 392.048063 48.287535 
L 392.048063 50.21361 
L 395.662544 50.21361 
L 395.662544 49.997418 
L 399.277025 49.997418 
L 399.277025 49.702611 
L 402.891506 49.702611 
L 402.891506 49.083515 
L 406.505987 49.083515 
L 406.505987 49.230919 
L 410.120468 49.230919 
L 410.120468 48.444765 
L 413.734949 48.444765 
L 413.734949 50.478937 
L 417.34943 50.478937 
L 417.34943 49.80088 
L 420.963911 49.80088 
L 420.963911 50.911321 
L 424.578392 50.911321 
L 424.578392 48.77888 
L 428.192873 48.77888 
L 428.192873 51.029244 
L 431.807355 51.029244 
L 431.807355 137.565072 
L 431.807355 137.565072 
" clip-path="url(#p1499eb7e41)" style="fill: none; stroke: #ff0000; stroke-linejoin: miter"/>
   </g>
   <g id="patch_5">
    <path d="M 52.28684 137.565072 
L 52.28684 32.494206 
" style="fill: none; stroke: #000000; stroke-width: 0.5; stroke-linejoin: miter; stroke-linecap: square"/>
   </g>
   <g id="patch_6">
    <path d="M 449.87976 137.565072 
L 449.87976 32.494206 
" style="fill: none; stroke: #000000; stroke-width: 0.5; stroke-linejoin: miter; stroke-linecap: square"/>
   </g>
   <g id="patch_7">
    <path d="M 52.28684 137.565072 
L 449.87976 137.565072 
" style="fill: none; stroke: #000000; stroke-width: 0.5; stroke-linejoin: miter; stroke-linecap: square"/>
   </g>
   <g id="patch_8">
    <path d="M 52.28684 32.494206 
L 449.87976 32.494206 
" style="fill: none; stroke: #000000; stroke-width: 0.5; stroke-linejoin: miter; stroke-linecap: square"/>
   </g>
   <g id="text_12">
    <!-- $m_{\widetilde{q_{1L}}}$ -->
    <g transform="translate(240.843744 26.494206)scale(0.12 -0.12)">
     <defs>
      <path id="NimbusRomNo9L-ReguItal-6d" d="M 4410 756 
C 4346 680 4294 616 4275 591 
C 4096 362 3962 255 3866 255 
C 3814 255 3782 293 3782 357 
C 3782 389 3808 490 3846 643 
L 4282 2238 
C 4288 2264 4301 2378 4301 2416 
C 4301 2645 4141 2816 3923 2816 
C 3802 2816 3674 2772 3520 2677 
C 3206 2474 2944 2168 2502 1468 
C 2662 1952 2758 2314 2758 2435 
C 2758 2658 2611 2816 2394 2816 
C 2003 2816 1555 2397 966 1474 
L 1338 2803 
L 1318 2815 
C 960 2739 826 2713 294 2618 
L 294 2516 
L 454 2516 
C 621 2516 704 2472 704 2377 
C 704 2306 557 1728 326 921 
C 179 401 160 337 77 13 
L 557 13 
C 864 1023 960 1258 1178 1589 
C 1536 2129 1920 2484 2138 2484 
C 2221 2484 2266 2427 2266 2326 
C 2266 2268 2061 1499 1658 13 
L 2138 13 
C 2394 1004 2522 1322 2848 1773 
C 3162 2204 3482 2484 3667 2484 
C 3738 2484 3795 2420 3795 2351 
C 3795 2319 3782 2244 3750 2129 
L 3379 667 
C 3322 433 3296 311 3296 248 
C 3296 57 3386 -44 3552 -44 
C 3853 -44 4134 165 4474 635 
L 4506 680 
L 4410 756 
z
" transform="scale(0.015625)"/>
      <path id="CMEX10-66" d="M 6330 4800 
C 6157 4710 5222 4233 4410 4233 
C 3942 4233 3661 4349 3219 4542 
C 2912 4671 2598 4800 2157 4800 
C 1408 4800 666 4440 0 4118 
L 64 3990 
C 237 4080 1171 4557 1984 4557 
C 2451 4557 2733 4441 3174 4248 
C 3482 4119 3795 3990 4237 3990 
C 4986 3990 5728 4350 6394 4672 
L 6330 4800 
z
" transform="scale(0.015625)"/>
      <path id="NimbusRomNo9L-ReguItal-71" d="M 2502 -1165 
L 2394 -1165 
C 2157 -1165 2022 -1101 2029 -980 
C 2029 -960 2035 -936 2042 -910 
L 3091 2721 
L 2624 2721 
L 2528 2426 
C 2426 2716 2298 2816 2035 2816 
C 1190 2816 160 1662 160 710 
C 160 264 410 -18 813 -18 
C 1267 -18 1562 215 2131 1014 
L 1562 -842 
C 1478 -1096 1376 -1146 960 -1178 
L 960 -1280 
L 2502 -1280 
L 2502 -1165 
z
M 2054 2676 
C 2266 2676 2432 2507 2432 2294 
C 2432 1776 1997 888 1562 532 
C 1395 395 1222 320 1069 320 
C 851 320 710 508 710 801 
C 710 1264 1043 1957 1459 2370 
C 1658 2563 1869 2676 2054 2676 
z
" transform="scale(0.015625)"/>
      <path id="NimbusRomNo9L-ReguItal-4c" d="M 2579 4160 
L 832 4160 
L 832 4058 
C 1229 4020 1325 3969 1325 3785 
C 1325 3695 1299 3548 1254 3390 
L 467 574 
C 352 204 307 166 -51 102 
L -51 0 
L 3206 0 
L 3578 1141 
L 3450 1179 
C 3226 721 3053 516 2771 377 
C 2547 268 2285 230 1728 230 
C 1242 230 1082 281 1082 447 
C 1082 492 1114 645 1146 766 
L 1933 3598 
C 2029 3923 2195 4045 2579 4045 
L 2579 4160 
z
" transform="scale(0.015625)"/>
     </defs>
     <use xlink:href="#NimbusRomNo9L-ReguItal-6d" transform="scale(0.996264)"/>
     <use xlink:href="#CMEX10-66" transform="translate(85.399174 -21.022165)scale(0.737241)"/>
     <use xlink:href="#NimbusRomNo9L-ReguItal-71" transform="translate(71.929985 -21.353746)scale(0.737241)"/>
     <use xlink:href="#NimbusRomNo9L-Regu-31" transform="translate(108.792027 -35.983227)scale(0.597764)"/>
     <use xlink:href="#NimbusRomNo9L-ReguItal-4c" transform="translate(138.680251 -35.983227)scale(0.597764)"/>
    </g>
   </g>
   <g id="legend_1">
    <g id="patch_9">
     <path d="M 392.95448 48.494206 
L 412.95448 48.494206 
L 412.95448 41.494206 
L 392.95448 41.494206 
L 392.95448 48.494206 
z
" style="fill: none; stroke: #0000ff; stroke-linejoin: miter"/>
    </g>
    <g id="text_13">
     <!-- good -->
     <g transform="translate(420.95448 48.494206)scale(0.1 -0.1)">
      <defs>
       <path id="NimbusRomNo9L-Regu-67" d="M 3008 2496 
L 3008 2746 
L 2515 2746 
C 2387 2746 2291 2763 2163 2802 
L 2022 2847 
C 1850 2903 1677 2931 1510 2931 
C 915 2931 442 2467 442 1881 
C 442 1476 614 1230 1037 1018 
C 915 906 800 799 762 768 
C 550 588 467 463 467 338 
C 467 206 544 131 806 6 
C 352 -329 179 -543 179 -781 
C 179 -1124 678 -1408 1286 -1408 
C 1766 -1408 2266 -1238 2598 -962 
C 2842 -759 2950 -548 2950 -299 
C 2950 108 2650 384 2176 384 
L 1350 384 
C 1011 384 851 443 851 548 
C 851 678 1062 908 1235 960 
C 1293 953 1338 947 1357 947 
C 1478 934 1562 928 1600 928 
C 1837 928 2093 1026 2291 1203 
C 2502 1387 2598 1617 2598 1945 
C 2598 2135 2566 2286 2477 2496 
L 3008 2496 
z
M 941 -13 
C 1152 -58 1664 -96 1978 -96 
C 2560 -96 2771 -180 2771 -414 
C 2771 -791 2285 -1043 1562 -1043 
C 998 -1043 627 -855 627 -570 
C 627 -420 672 -336 941 -13 
z
M 973 2145 
C 973 2526 1152 2752 1446 2752 
C 1645 2752 1811 2642 1914 2449 
C 2029 2223 2106 1927 2106 1675 
C 2106 1314 1920 1088 1626 1088 
C 1242 1088 973 1507 973 2126 
L 973 2145 
z
" transform="scale(0.015625)"/>
       <path id="NimbusRomNo9L-Regu-6f" d="M 1600 2944 
C 768 2944 186 2330 186 1446 
C 186 582 781 -64 1587 -64 
C 2394 -64 3008 614 3008 1498 
C 3008 2336 2419 2944 1600 2944 
z
M 1517 2765 
C 2054 2765 2432 2150 2432 1274 
C 2432 550 2144 115 1664 115 
C 1414 115 1178 269 1043 525 
C 864 858 762 1306 762 1760 
C 762 2368 1062 2765 1517 2765 
z
" transform="scale(0.015625)"/>
       <path id="NimbusRomNo9L-Regu-64" d="M 2202 -64 
L 3142 269 
L 3142 365 
C 3027 365 3014 365 2995 365 
C 2765 365 2714 435 2714 731 
L 2714 4364 
L 2682 4377 
C 2374 4268 2150 4204 1741 4096 
L 1741 3994 
C 1792 4000 1830 4000 1882 4000 
C 2118 4000 2176 3936 2176 3672 
L 2176 2669 
C 1933 2874 1760 2944 1504 2944 
C 768 2944 173 2221 173 1312 
C 173 493 653 -64 1357 -64 
C 1715 -64 1958 64 2176 365 
L 2176 -45 
L 2202 -64 
z
M 2176 653 
C 2176 608 2131 531 2067 461 
C 1952 333 1792 269 1606 269 
C 1075 269 723 781 723 1568 
C 723 2291 1037 2765 1523 2765 
C 1862 2765 2176 2464 2176 2125 
L 2176 653 
z
" transform="scale(0.015625)"/>
      </defs>
      <use xlink:href="#NimbusRomNo9L-Regu-67" transform="scale(0.996264)"/>
      <use xlink:href="#NimbusRomNo9L-Regu-6f" transform="translate(49.8132 0)scale(0.996264)"/>
      <use xlink:href="#NimbusRomNo9L-Regu-6f" transform="translate(99.626401 0)scale(0.996264)"/>
      <use xlink:href="#NimbusRomNo9L-Regu-64" transform="translate(149.439601 0)scale(0.996264)"/>
     </g>
    </g>
    <g id="patch_10">
     <path d="M 392.95448 62.651034 
L 412.95448 62.651034 
L 412.95448 55.651034 
L 392.95448 55.651034 
L 392.95448 62.651034 
z
" style="fill: none; stroke: #ff0000; stroke-linejoin: miter"/>
    </g>
    <g id="text_14">
     <!-- bad -->
     <g transform="translate(420.95448 62.651034)scale(0.1 -0.1)">
      <defs>
       <path id="NimbusRomNo9L-Regu-62" d="M 979 4364 
L 947 4377 
C 678 4281 506 4230 205 4147 
L 19 4096 
L 19 3994 
C 58 4000 83 4000 128 4000 
C 384 4000 442 3942 442 3673 
L 442 347 
C 442 147 986 -64 1498 -64 
C 2342 -64 2995 640 2995 1555 
C 2995 2342 2509 2944 1869 2944 
C 1478 2944 1107 2714 979 2400 
L 979 4364 
z
M 979 2061 
C 979 2310 1280 2541 1613 2541 
C 2112 2541 2432 2042 2432 1261 
C 2432 550 2125 141 1600 141 
C 1267 141 979 288 979 448 
L 979 2061 
z
" transform="scale(0.015625)"/>
       <path id="NimbusRomNo9L-Regu-61" d="M 2829 423 
C 2720 333 2643 301 2547 301 
C 2400 301 2355 390 2355 672 
L 2355 1920 
C 2355 2253 2323 2438 2227 2592 
C 2086 2822 1811 2944 1434 2944 
C 832 2944 358 2630 358 2227 
C 358 2080 486 1952 634 1952 
C 787 1952 922 2080 922 2221 
C 922 2246 915 2278 909 2323 
C 896 2381 890 2432 890 2477 
C 890 2650 1094 2790 1350 2790 
C 1664 2790 1837 2605 1837 2259 
L 1837 1869 
C 851 1472 742 1421 467 1178 
C 326 1050 237 832 237 621 
C 237 218 518 -64 909 -64 
C 1190 -64 1453 70 1843 403 
C 1875 70 1990 -64 2253 -64 
C 2470 -64 2605 13 2829 256 
L 2829 423 
z
M 1837 783 
C 1837 584 1805 526 1670 449 
C 1517 359 1338 301 1203 301 
C 979 301 800 520 800 796 
L 800 822 
C 800 1201 1062 1433 1837 1715 
L 1837 783 
z
" transform="scale(0.015625)"/>
      </defs>
      <use xlink:href="#NimbusRomNo9L-Regu-62" transform="scale(0.996264)"/>
      <use xlink:href="#NimbusRomNo9L-Regu-61" transform="translate(49.8132 0)scale(0.996264)"/>
      <use xlink:href="#NimbusRomNo9L-Regu-64" transform="translate(94.046769 0)scale(0.996264)"/>
     </g>
    </g>
   </g>
  </g>
  <g id="axes_2">
   <g id="patch_11">
    <path d="M 52.28684 273.188114 
L 449.87976 273.188114 
L 449.87976 168.117247 
L 52.28684 168.117247 
z
" style="fill: #ffffff"/>
   </g>
   <g id="matplotlib.axis_3">
    <g id="xtick_28">
     <g id="line2d_99">
      <g>
       <use xlink:href="#m000de91f31" x="66.707056" y="273.188114" style="stroke: #000000; stroke-width: 0.5"/>
      </g>
     </g>
     <g id="line2d_100">
      <g>
       <use xlink:href="#m0361a36e1e" x="66.707056" y="168.117247" style="stroke: #000000; stroke-width: 0.5"/>
      </g>
     </g>
     <g id="text_15">
      <!-- $\mathdefault{0}$ -->
      <g transform="translate(64.216396 283.442691)scale(0.1 -0.1)">
       <use xlink:href="#NimbusRomNo9L-Regu-30" transform="scale(0.996264)"/>
      </g>
     </g>
    </g>
    <g id="xtick_29">
     <g id="line2d_101">
      <g>
       <use xlink:href="#m000de91f31" x="139.727249" y="273.188114" style="stroke: #000000; stroke-width: 0.5"/>
      </g>
     </g>
     <g id="line2d_102">
      <g>
       <use xlink:href="#m0361a36e1e" x="139.727249" y="168.117247" style="stroke: #000000; stroke-width: 0.5"/>
      </g>
     </g>
     <g id="text_16">
      <!-- $\mathdefault{1000}$ -->
      <g transform="translate(129.764609 283.442691)scale(0.1 -0.1)">
       <use xlink:href="#NimbusRomNo9L-Regu-31" transform="scale(0.996264)"/>
       <use xlink:href="#NimbusRomNo9L-Regu-30" transform="translate(49.8132 0)scale(0.996264)"/>
       <use xlink:href="#NimbusRomNo9L-Regu-30" transform="translate(99.626401 0)scale(0.996264)"/>
       <use xlink:href="#NimbusRomNo9L-Regu-30" transform="translate(149.439601 0)scale(0.996264)"/>
      </g>
     </g>
    </g>
    <g id="xtick_30">
     <g id="line2d_103">
      <g>
       <use xlink:href="#m000de91f31" x="212.747443" y="273.188114" style="stroke: #000000; stroke-width: 0.5"/>
      </g>
     </g>
     <g id="line2d_104">
      <g>
       <use xlink:href="#m0361a36e1e" x="212.747443" y="168.117247" style="stroke: #000000; stroke-width: 0.5"/>
      </g>
     </g>
     <g id="text_17">
      <!-- $\mathdefault{2000}$ -->
      <g transform="translate(202.784802 283.442691)scale(0.1 -0.1)">
       <use xlink:href="#NimbusRomNo9L-Regu-32" transform="scale(0.996264)"/>
       <use xlink:href="#NimbusRomNo9L-Regu-30" transform="translate(49.8132 0)scale(0.996264)"/>
       <use xlink:href="#NimbusRomNo9L-Regu-30" transform="translate(99.626401 0)scale(0.996264)"/>
       <use xlink:href="#NimbusRomNo9L-Regu-30" transform="translate(149.439601 0)scale(0.996264)"/>
      </g>
     </g>
    </g>
    <g id="xtick_31">
     <g id="line2d_105">
      <g>
       <use xlink:href="#m000de91f31" x="285.767636" y="273.188114" style="stroke: #000000; stroke-width: 0.5"/>
      </g>
     </g>
     <g id="line2d_106">
      <g>
       <use xlink:href="#m0361a36e1e" x="285.767636" y="168.117247" style="stroke: #000000; stroke-width: 0.5"/>
      </g>
     </g>
     <g id="text_18">
      <!-- $\mathdefault{3000}$ -->
      <g transform="translate(275.804996 283.442691)scale(0.1 -0.1)">
       <use xlink:href="#NimbusRomNo9L-Regu-33" transform="scale(0.996264)"/>
       <use xlink:href="#NimbusRomNo9L-Regu-30" transform="translate(49.8132 0)scale(0.996264)"/>
       <use xlink:href="#NimbusRomNo9L-Regu-30" transform="translate(99.626401 0)scale(0.996264)"/>
       <use xlink:href="#NimbusRomNo9L-Regu-30" transform="translate(149.439601 0)scale(0.996264)"/>
      </g>
     </g>
    </g>
    <g id="xtick_32">
     <g id="line2d_107">
      <g>
       <use xlink:href="#m000de91f31" x="358.787829" y="273.188114" style="stroke: #000000; stroke-width: 0.5"/>
      </g>
     </g>
     <g id="line2d_108">
      <g>
       <use xlink:href="#m0361a36e1e" x="358.787829" y="168.117247" style="stroke: #000000; stroke-width: 0.5"/>
      </g>
     </g>
     <g id="text_19">
      <!-- $\mathdefault{4000}$ -->
      <g transform="translate(348.825189 283.442691)scale(0.1 -0.1)">
       <use xlink:href="#NimbusRomNo9L-Regu-34" transform="scale(0.996264)"/>
       <use xlink:href="#NimbusRomNo9L-Regu-30" transform="translate(49.8132 0)scale(0.996264)"/>
       <use xlink:href="#NimbusRomNo9L-Regu-30" transform="translate(99.626401 0)scale(0.996264)"/>
       <use xlink:href="#NimbusRomNo9L-Regu-30" transform="translate(149.439601 0)scale(0.996264)"/>
      </g>
     </g>
    </g>
    <g id="xtick_33">
     <g id="line2d_109">
      <g>
       <use xlink:href="#m000de91f31" x="431.808022" y="273.188114" style="stroke: #000000; stroke-width: 0.5"/>
      </g>
     </g>
     <g id="line2d_110">
      <g>
       <use xlink:href="#m0361a36e1e" x="431.808022" y="168.117247" style="stroke: #000000; stroke-width: 0.5"/>
      </g>
     </g>
     <g id="text_20">
      <!-- $\mathdefault{5000}$ -->
      <g transform="translate(421.845382 283.442691)scale(0.1 -0.1)">
       <use xlink:href="#NimbusRomNo9L-Regu-35" transform="scale(0.996264)"/>
       <use xlink:href="#NimbusRomNo9L-Regu-30" transform="translate(49.8132 0)scale(0.996264)"/>
       <use xlink:href="#NimbusRomNo9L-Regu-30" transform="translate(99.626401 0)scale(0.996264)"/>
       <use xlink:href="#NimbusRomNo9L-Regu-30" transform="translate(149.439601 0)scale(0.996264)"/>
      </g>
     </g>
    </g>
    <g id="xtick_34">
     <g id="line2d_111">
      <g>
       <use xlink:href="#m84f6f8e476" x="81.311095" y="273.188114" style="stroke: #000000; stroke-width: 0.5"/>
      </g>
     </g>
     <g id="line2d_112">
      <g>
       <use xlink:href="#m141444b2bb" x="81.311095" y="168.117247" style="stroke: #000000; stroke-width: 0.5"/>
      </g>
     </g>
    </g>
    <g id="xtick_35">
     <g id="line2d_113">
      <g>
       <use xlink:href="#m84f6f8e476" x="95.915133" y="273.188114" style="stroke: #000000; stroke-width: 0.5"/>
      </g>
     </g>
     <g id="line2d_114">
      <g>
       <use xlink:href="#m141444b2bb" x="95.915133" y="168.117247" style="stroke: #000000; stroke-width: 0.5"/>
      </g>
     </g>
    </g>
    <g id="xtick_36">
     <g id="line2d_115">
      <g>
       <use xlink:href="#m84f6f8e476" x="110.519172" y="273.188114" style="stroke: #000000; stroke-width: 0.5"/>
      </g>
     </g>
     <g id="line2d_116">
      <g>
       <use xlink:href="#m141444b2bb" x="110.519172" y="168.117247" style="stroke: #000000; stroke-width: 0.5"/>
      </g>
     </g>
    </g>
    <g id="xtick_37">
     <g id="line2d_117">
      <g>
       <use xlink:href="#m84f6f8e476" x="125.123211" y="273.188114" style="stroke: #000000; stroke-width: 0.5"/>
      </g>
     </g>
     <g id="line2d_118">
      <g>
       <use xlink:href="#m141444b2bb" x="125.123211" y="168.117247" style="stroke: #000000; stroke-width: 0.5"/>
      </g>
     </g>
    </g>
    <g id="xtick_38">
     <g id="line2d_119">
      <g>
       <use xlink:href="#m84f6f8e476" x="154.331288" y="273.188114" style="stroke: #000000; stroke-width: 0.5"/>
      </g>
     </g>
     <g id="line2d_120">
      <g>
       <use xlink:href="#m141444b2bb" x="154.331288" y="168.117247" style="stroke: #000000; stroke-width: 0.5"/>
      </g>
     </g>
    </g>
    <g id="xtick_39">
     <g id="line2d_121">
      <g>
       <use xlink:href="#m84f6f8e476" x="168.935327" y="273.188114" style="stroke: #000000; stroke-width: 0.5"/>
      </g>
     </g>
     <g id="line2d_122">
      <g>
       <use xlink:href="#m141444b2bb" x="168.935327" y="168.117247" style="stroke: #000000; stroke-width: 0.5"/>
      </g>
     </g>
    </g>
    <g id="xtick_40">
     <g id="line2d_123">
      <g>
       <use xlink:href="#m84f6f8e476" x="183.539365" y="273.188114" style="stroke: #000000; stroke-width: 0.5"/>
      </g>
     </g>
     <g id="line2d_124">
      <g>
       <use xlink:href="#m141444b2bb" x="183.539365" y="168.117247" style="stroke: #000000; stroke-width: 0.5"/>
      </g>
     </g>
    </g>
    <g id="xtick_41">
     <g id="line2d_125">
      <g>
       <use xlink:href="#m84f6f8e476" x="198.143404" y="273.188114" style="stroke: #000000; stroke-width: 0.5"/>
      </g>
     </g>
     <g id="line2d_126">
      <g>
       <use xlink:href="#m141444b2bb" x="198.143404" y="168.117247" style="stroke: #000000; stroke-width: 0.5"/>
      </g>
     </g>
    </g>
    <g id="xtick_42">
     <g id="line2d_127">
      <g>
       <use xlink:href="#m84f6f8e476" x="227.351481" y="273.188114" style="stroke: #000000; stroke-width: 0.5"/>
      </g>
     </g>
     <g id="line2d_128">
      <g>
       <use xlink:href="#m141444b2bb" x="227.351481" y="168.117247" style="stroke: #000000; stroke-width: 0.5"/>
      </g>
     </g>
    </g>
    <g id="xtick_43">
     <g id="line2d_129">
      <g>
       <use xlink:href="#m84f6f8e476" x="241.95552" y="273.188114" style="stroke: #000000; stroke-width: 0.5"/>
      </g>
     </g>
     <g id="line2d_130">
      <g>
       <use xlink:href="#m141444b2bb" x="241.95552" y="168.117247" style="stroke: #000000; stroke-width: 0.5"/>
      </g>
     </g>
    </g>
    <g id="xtick_44">
     <g id="line2d_131">
      <g>
       <use xlink:href="#m84f6f8e476" x="256.559559" y="273.188114" style="stroke: #000000; stroke-width: 0.5"/>
      </g>
     </g>
     <g id="line2d_132">
      <g>
       <use xlink:href="#m141444b2bb" x="256.559559" y="168.117247" style="stroke: #000000; stroke-width: 0.5"/>
      </g>
     </g>
    </g>
    <g id="xtick_45">
     <g id="line2d_133">
      <g>
       <use xlink:href="#m84f6f8e476" x="271.163597" y="273.188114" style="stroke: #000000; stroke-width: 0.5"/>
      </g>
     </g>
     <g id="line2d_134">
      <g>
       <use xlink:href="#m141444b2bb" x="271.163597" y="168.117247" style="stroke: #000000; stroke-width: 0.5"/>
      </g>
     </g>
    </g>
    <g id="xtick_46">
     <g id="line2d_135">
      <g>
       <use xlink:href="#m84f6f8e476" x="300.371674" y="273.188114" style="stroke: #000000; stroke-width: 0.5"/>
      </g>
     </g>
     <g id="line2d_136">
      <g>
       <use xlink:href="#m141444b2bb" x="300.371674" y="168.117247" style="stroke: #000000; stroke-width: 0.5"/>
      </g>
     </g>
    </g>
    <g id="xtick_47">
     <g id="line2d_137">
      <g>
       <use xlink:href="#m84f6f8e476" x="314.975713" y="273.188114" style="stroke: #000000; stroke-width: 0.5"/>
      </g>
     </g>
     <g id="line2d_138">
      <g>
       <use xlink:href="#m141444b2bb" x="314.975713" y="168.117247" style="stroke: #000000; stroke-width: 0.5"/>
      </g>
     </g>
    </g>
    <g id="xtick_48">
     <g id="line2d_139">
      <g>
       <use xlink:href="#m84f6f8e476" x="329.579752" y="273.188114" style="stroke: #000000; stroke-width: 0.5"/>
      </g>
     </g>
     <g id="line2d_140">
      <g>
       <use xlink:href="#m141444b2bb" x="329.579752" y="168.117247" style="stroke: #000000; stroke-width: 0.5"/>
      </g>
     </g>
    </g>
    <g id="xtick_49">
     <g id="line2d_141">
      <g>
       <use xlink:href="#m84f6f8e476" x="344.18379" y="273.188114" style="stroke: #000000; stroke-width: 0.5"/>
      </g>
     </g>
     <g id="line2d_142">
      <g>
       <use xlink:href="#m141444b2bb" x="344.18379" y="168.117247" style="stroke: #000000; stroke-width: 0.5"/>
      </g>
     </g>
    </g>
    <g id="xtick_50">
     <g id="line2d_143">
      <g>
       <use xlink:href="#m84f6f8e476" x="373.391868" y="273.188114" style="stroke: #000000; stroke-width: 0.5"/>
      </g>
     </g>
     <g id="line2d_144">
      <g>
       <use xlink:href="#m141444b2bb" x="373.391868" y="168.117247" style="stroke: #000000; stroke-width: 0.5"/>
      </g>
     </g>
    </g>
    <g id="xtick_51">
     <g id="line2d_145">
      <g>
       <use xlink:href="#m84f6f8e476" x="387.995906" y="273.188114" style="stroke: #000000; stroke-width: 0.5"/>
      </g>
     </g>
     <g id="line2d_146">
      <g>
       <use xlink:href="#m141444b2bb" x="387.995906" y="168.117247" style="stroke: #000000; stroke-width: 0.5"/>
      </g>
     </g>
    </g>
    <g id="xtick_52">
     <g id="line2d_147">
      <g>
       <use xlink:href="#m84f6f8e476" x="402.599945" y="273.188114" style="stroke: #000000; stroke-width: 0.5"/>
      </g>
     </g>
     <g id="line2d_148">
      <g>
       <use xlink:href="#m141444b2bb" x="402.599945" y="168.117247" style="stroke: #000000; stroke-width: 0.5"/>
      </g>
     </g>
    </g>
    <g id="xtick_53">
     <g id="line2d_149">
      <g>
       <use xlink:href="#m84f6f8e476" x="417.203984" y="273.188114" style="stroke: #000000; stroke-width: 0.5"/>
      </g>
     </g>
     <g id="line2d_150">
      <g>
       <use xlink:href="#m141444b2bb" x="417.203984" y="168.117247" style="stroke: #000000; stroke-width: 0.5"/>
      </g>
     </g>
    </g>
    <g id="xtick_54">
     <g id="line2d_151">
      <g>
       <use xlink:href="#m84f6f8e476" x="446.412061" y="273.188114" style="stroke: #000000; stroke-width: 0.5"/>
      </g>
     </g>
     <g id="line2d_152">
      <g>
       <use xlink:href="#m141444b2bb" x="446.412061" y="168.117247" style="stroke: #000000; stroke-width: 0.5"/>
      </g>
     </g>
    </g>
   </g>
   <g id="matplotlib.axis_4">
    <g id="ytick_23">
     <g id="line2d_153">
      <g>
       <use xlink:href="#mb2de9a783b" x="52.28684" y="273.188114" style="stroke: #000000; stroke-width: 0.5"/>
      </g>
     </g>
     <g id="line2d_154">
      <g>
       <use xlink:href="#m7f3e5e849b" x="449.87976" y="273.188114" style="stroke: #000000; stroke-width: 0.5"/>
      </g>
     </g>
     <g id="text_21">
      <!-- $\mathdefault{0}$ -->
      <g transform="translate(43.80552 276.565402)scale(0.1 -0.1)">
       <use xlink:href="#NimbusRomNo9L-Regu-30" transform="scale(0.996264)"/>
      </g>
     </g>
    </g>
    <g id="ytick_24">
     <g id="line2d_155">
      <g>
       <use xlink:href="#mb2de9a783b" x="52.28684" y="248.620822" style="stroke: #000000; stroke-width: 0.5"/>
      </g>
     </g>
     <g id="line2d_156">
      <g>
       <use xlink:href="#m7f3e5e849b" x="449.87976" y="248.620822" style="stroke: #000000; stroke-width: 0.5"/>
      </g>
     </g>
     <g id="text_22">
      <!-- $\mathdefault{2500}$ -->
      <g transform="translate(28.86156 251.998111)scale(0.1 -0.1)">
       <use xlink:href="#NimbusRomNo9L-Regu-32" transform="scale(0.996264)"/>
       <use xlink:href="#NimbusRomNo9L-Regu-35" transform="translate(49.8132 0)scale(0.996264)"/>
       <use xlink:href="#NimbusRomNo9L-Regu-30" transform="translate(99.626401 0)scale(0.996264)"/>
       <use xlink:href="#NimbusRomNo9L-Regu-30" transform="translate(149.439601 0)scale(0.996264)"/>
      </g>
     </g>
    </g>
    <g id="ytick_25">
     <g id="line2d_157">
      <g>
       <use xlink:href="#mb2de9a783b" x="52.28684" y="224.053531" style="stroke: #000000; stroke-width: 0.5"/>
      </g>
     </g>
     <g id="line2d_158">
      <g>
       <use xlink:href="#m7f3e5e849b" x="449.87976" y="224.053531" style="stroke: #000000; stroke-width: 0.5"/>
      </g>
     </g>
     <g id="text_23">
      <!-- $\mathdefault{5000}$ -->
      <g transform="translate(28.86156 227.430819)scale(0.1 -0.1)">
       <use xlink:href="#NimbusRomNo9L-Regu-35" transform="scale(0.996264)"/>
       <use xlink:href="#NimbusRomNo9L-Regu-30" transform="translate(49.8132 0)scale(0.996264)"/>
       <use xlink:href="#NimbusRomNo9L-Regu-30" transform="translate(99.626401 0)scale(0.996264)"/>
       <use xlink:href="#NimbusRomNo9L-Regu-30" transform="translate(149.439601 0)scale(0.996264)"/>
      </g>
     </g>
    </g>
    <g id="ytick_26">
     <g id="line2d_159">
      <g>
       <use xlink:href="#mb2de9a783b" x="52.28684" y="199.486239" style="stroke: #000000; stroke-width: 0.5"/>
      </g>
     </g>
     <g id="line2d_160">
      <g>
       <use xlink:href="#m7f3e5e849b" x="449.87976" y="199.486239" style="stroke: #000000; stroke-width: 0.5"/>
      </g>
     </g>
     <g id="text_24">
      <!-- $\mathdefault{7500}$ -->
      <g transform="translate(28.86156 202.863528)scale(0.1 -0.1)">
       <use xlink:href="#NimbusRomNo9L-Regu-37" transform="scale(0.996264)"/>
       <use xlink:href="#NimbusRomNo9L-Regu-35" transform="translate(49.8132 0)scale(0.996264)"/>
       <use xlink:href="#NimbusRomNo9L-Regu-30" transform="translate(99.626401 0)scale(0.996264)"/>
       <use xlink:href="#NimbusRomNo9L-Regu-30" transform="translate(149.439601 0)scale(0.996264)"/>
      </g>
     </g>
    </g>
    <g id="ytick_27">
     <g id="line2d_161">
      <g>
       <use xlink:href="#mb2de9a783b" x="52.28684" y="174.918947" style="stroke: #000000; stroke-width: 0.5"/>
      </g>
     </g>
     <g id="line2d_162">
      <g>
       <use xlink:href="#m7f3e5e849b" x="449.87976" y="174.918947" style="stroke: #000000; stroke-width: 0.5"/>
      </g>
     </g>
     <g id="text_25">
      <!-- $\mathdefault{10000}$ -->
      <g transform="translate(23.88024 178.296236)scale(0.1 -0.1)">
       <use xlink:href="#NimbusRomNo9L-Regu-31" transform="scale(0.996264)"/>
       <use xlink:href="#NimbusRomNo9L-Regu-30" transform="translate(49.8132 0)scale(0.996264)"/>
       <use xlink:href="#NimbusRomNo9L-Regu-30" transform="translate(99.626401 0)scale(0.996264)"/>
       <use xlink:href="#NimbusRomNo9L-Regu-30" transform="translate(149.439601 0)scale(0.996264)"/>
       <use xlink:href="#NimbusRomNo9L-Regu-30" transform="translate(199.252802 0)scale(0.996264)"/>
      </g>
     </g>
    </g>
    <g id="ytick_28">
     <g id="line2d_163">
      <g>
       <use xlink:href="#m49d9589478" x="52.28684" y="268.274655" style="stroke: #000000; stroke-width: 0.5"/>
      </g>
     </g>
     <g id="line2d_164">
      <g>
       <use xlink:href="#mcc2e826c9d" x="449.87976" y="268.274655" style="stroke: #000000; stroke-width: 0.5"/>
      </g>
     </g>
    </g>
    <g id="ytick_29">
     <g id="line2d_165">
      <g>
       <use xlink:href="#m49d9589478" x="52.28684" y="263.361197" style="stroke: #000000; stroke-width: 0.5"/>
      </g>
     </g>
     <g id="line2d_166">
      <g>
       <use xlink:href="#mcc2e826c9d" x="449.87976" y="263.361197" style="stroke: #000000; stroke-width: 0.5"/>
      </g>
     </g>
    </g>
    <g id="ytick_30">
     <g id="line2d_167">
      <g>
       <use xlink:href="#m49d9589478" x="52.28684" y="258.447739" style="stroke: #000000; stroke-width: 0.5"/>
      </g>
     </g>
     <g id="line2d_168">
      <g>
       <use xlink:href="#mcc2e826c9d" x="449.87976" y="258.447739" style="stroke: #000000; stroke-width: 0.5"/>
      </g>
     </g>
    </g>
    <g id="ytick_31">
     <g id="line2d_169">
      <g>
       <use xlink:href="#m49d9589478" x="52.28684" y="253.53428" style="stroke: #000000; stroke-width: 0.5"/>
      </g>
     </g>
     <g id="line2d_170">
      <g>
       <use xlink:href="#mcc2e826c9d" x="449.87976" y="253.53428" style="stroke: #000000; stroke-width: 0.5"/>
      </g>
     </g>
    </g>
    <g id="ytick_32">
     <g id="line2d_171">
      <g>
       <use xlink:href="#m49d9589478" x="52.28684" y="243.707364" style="stroke: #000000; stroke-width: 0.5"/>
      </g>
     </g>
     <g id="line2d_172">
      <g>
       <use xlink:href="#mcc2e826c9d" x="449.87976" y="243.707364" style="stroke: #000000; stroke-width: 0.5"/>
      </g>
     </g>
    </g>
    <g id="ytick_33">
     <g id="line2d_173">
      <g>
       <use xlink:href="#m49d9589478" x="52.28684" y="238.793905" style="stroke: #000000; stroke-width: 0.5"/>
      </g>
     </g>
     <g id="line2d_174">
      <g>
       <use xlink:href="#mcc2e826c9d" x="449.87976" y="238.793905" style="stroke: #000000; stroke-width: 0.5"/>
      </g>
     </g>
    </g>
    <g id="ytick_34">
     <g id="line2d_175">
      <g>
       <use xlink:href="#m49d9589478" x="52.28684" y="233.880447" style="stroke: #000000; stroke-width: 0.5"/>
      </g>
     </g>
     <g id="line2d_176">
      <g>
       <use xlink:href="#mcc2e826c9d" x="449.87976" y="233.880447" style="stroke: #000000; stroke-width: 0.5"/>
      </g>
     </g>
    </g>
    <g id="ytick_35">
     <g id="line2d_177">
      <g>
       <use xlink:href="#m49d9589478" x="52.28684" y="228.966989" style="stroke: #000000; stroke-width: 0.5"/>
      </g>
     </g>
     <g id="line2d_178">
      <g>
       <use xlink:href="#mcc2e826c9d" x="449.87976" y="228.966989" style="stroke: #000000; stroke-width: 0.5"/>
      </g>
     </g>
    </g>
    <g id="ytick_36">
     <g id="line2d_179">
      <g>
       <use xlink:href="#m49d9589478" x="52.28684" y="219.140072" style="stroke: #000000; stroke-width: 0.5"/>
      </g>
     </g>
     <g id="line2d_180">
      <g>
       <use xlink:href="#mcc2e826c9d" x="449.87976" y="219.140072" style="stroke: #000000; stroke-width: 0.5"/>
      </g>
     </g>
    </g>
    <g id="ytick_37">
     <g id="line2d_181">
      <g>
       <use xlink:href="#m49d9589478" x="52.28684" y="214.226614" style="stroke: #000000; stroke-width: 0.5"/>
      </g>
     </g>
     <g id="line2d_182">
      <g>
       <use xlink:href="#mcc2e826c9d" x="449.87976" y="214.226614" style="stroke: #000000; stroke-width: 0.5"/>
      </g>
     </g>
    </g>
    <g id="ytick_38">
     <g id="line2d_183">
      <g>
       <use xlink:href="#m49d9589478" x="52.28684" y="209.313156" style="stroke: #000000; stroke-width: 0.5"/>
      </g>
     </g>
     <g id="line2d_184">
      <g>
       <use xlink:href="#mcc2e826c9d" x="449.87976" y="209.313156" style="stroke: #000000; stroke-width: 0.5"/>
      </g>
     </g>
    </g>
    <g id="ytick_39">
     <g id="line2d_185">
      <g>
       <use xlink:href="#m49d9589478" x="52.28684" y="204.399697" style="stroke: #000000; stroke-width: 0.5"/>
      </g>
     </g>
     <g id="line2d_186">
      <g>
       <use xlink:href="#mcc2e826c9d" x="449.87976" y="204.399697" style="stroke: #000000; stroke-width: 0.5"/>
      </g>
     </g>
    </g>
    <g id="ytick_40">
     <g id="line2d_187">
      <g>
       <use xlink:href="#m49d9589478" x="52.28684" y="194.572781" style="stroke: #000000; stroke-width: 0.5"/>
      </g>
     </g>
     <g id="line2d_188">
      <g>
       <use xlink:href="#mcc2e826c9d" x="449.87976" y="194.572781" style="stroke: #000000; stroke-width: 0.5"/>
      </g>
     </g>
    </g>
    <g id="ytick_41">
     <g id="line2d_189">
      <g>
       <use xlink:href="#m49d9589478" x="52.28684" y="189.659322" style="stroke: #000000; stroke-width: 0.5"/>
      </g>
     </g>
     <g id="line2d_190">
      <g>
       <use xlink:href="#mcc2e826c9d" x="449.87976" y="189.659322" style="stroke: #000000; stroke-width: 0.5"/>
      </g>
     </g>
    </g>
    <g id="ytick_42">
     <g id="line2d_191">
      <g>
       <use xlink:href="#m49d9589478" x="52.28684" y="184.745864" style="stroke: #000000; stroke-width: 0.5"/>
      </g>
     </g>
     <g id="line2d_192">
      <g>
       <use xlink:href="#mcc2e826c9d" x="449.87976" y="184.745864" style="stroke: #000000; stroke-width: 0.5"/>
      </g>
     </g>
    </g>
    <g id="ytick_43">
     <g id="line2d_193">
      <g>
       <use xlink:href="#m49d9589478" x="52.28684" y="179.832406" style="stroke: #000000; stroke-width: 0.5"/>
      </g>
     </g>
     <g id="line2d_194">
      <g>
       <use xlink:href="#mcc2e826c9d" x="449.87976" y="179.832406" style="stroke: #000000; stroke-width: 0.5"/>
      </g>
     </g>
    </g>
    <g id="ytick_44">
     <g id="line2d_195">
      <g>
       <use xlink:href="#m49d9589478" x="52.28684" y="170.005489" style="stroke: #000000; stroke-width: 0.5"/>
      </g>
     </g>
     <g id="line2d_196">
      <g>
       <use xlink:href="#mcc2e826c9d" x="449.87976" y="170.005489" style="stroke: #000000; stroke-width: 0.5"/>
      </g>
     </g>
    </g>
   </g>
   <g id="patch_12">
    <path d="M 71.132749 273.188114 
L 71.132749 273.060364 
L 81.952632 272.971921 
L 81.952632 272.942441 
L 85.55926 272.942441 
L 85.55926 272.696768 
L 92.772515 272.696768 
L 92.772515 272.441268 
L 96.379143 272.441268 
L 96.379143 272.205422 
L 99.985771 272.205422 
L 99.985771 272.087499 
L 107.199026 272.126807 
L 107.199026 271.812345 
L 110.805654 271.812345 
L 110.805654 271.458576 
L 114.412281 271.458576 
L 114.412281 271.09498 
L 118.018909 271.09498 
L 118.018909 270.544673 
L 125.232165 270.5545 
L 125.232165 270.053327 
L 132.44542 270.072981 
L 132.44542 269.611116 
L 136.052048 269.611116 
L 136.052048 268.903578 
L 143.265303 268.933059 
L 143.265303 268.353271 
L 146.871931 268.353271 
L 146.871931 268.038809 
L 150.478558 268.038809 
L 150.478558 267.81279 
L 154.085186 267.81279 
L 154.085186 266.771137 
L 161.298442 266.820272 
L 161.298442 266.043945 
L 164.905069 266.043945 
L 164.905069 266.456676 
L 168.511697 266.456676 
L 168.511697 266.201176 
L 172.118325 266.201176 
L 172.118325 265.336407 
L 175.724952 265.336407 
L 175.724952 265.090734 
L 179.33158 265.090734 
L 179.33158 264.854888 
L 182.938208 264.854888 
L 182.938208 264.589562 
L 190.151463 264.550254 
L 190.151463 263.921331 
L 193.758091 263.921331 
L 193.758091 264.235793 
L 197.364719 264.235793 
L 197.364719 263.901677 
L 200.971346 263.901677 
L 200.971346 263.577389 
L 204.577974 263.577389 
L 204.577974 263.09587 
L 208.184602 263.09587 
L 208.184602 262.643832 
L 211.791229 262.643832 
L 211.791229 263.213793 
L 215.397857 263.213793 
L 215.397857 262.918986 
L 219.004485 262.918986 
L 219.004485 262.634005 
L 222.611113 262.634005 
L 222.611113 262.054217 
L 226.21774 262.054217 
L 226.21774 262.81089 
L 233.430996 262.751928 
L 233.430996 261.582525 
L 240.644251 261.494083 
L 240.644251 261.37616 
L 244.250879 261.37616 
L 244.250879 261.680794 
L 247.857507 261.680794 
L 247.857507 261.887159 
L 251.464134 261.887159 
L 251.464134 261.228756 
L 258.67739 261.24841 
L 258.67739 260.816026 
L 262.284017 260.816026 
L 262.284017 261.327025 
L 265.890645 261.327025 
L 265.890645 260.422949 
L 269.497273 260.422949 
L 269.497273 261.307371 
L 273.1039 261.307371 
L 273.1039 260.167449 
L 276.710528 260.167449 
L 276.710528 260.698103 
L 280.317156 260.698103 
L 280.317156 260.521218 
L 283.923784 260.521218 
L 283.923784 259.774372 
L 291.137039 259.715411 
L 291.137039 259.440257 
L 294.743667 259.440257 
L 294.743667 259.970911 
L 305.56355 259.872642 
L 305.56355 260.501564 
L 309.170178 260.501564 
L 309.170178 258.7622 
L 312.776805 258.7622 
L 312.776805 259.666276 
L 316.383433 259.666276 
L 316.383433 259.499219 
L 319.990061 259.499219 
L 319.990061 259.872642 
L 323.596688 259.872642 
L 323.596688 260.216584 
L 327.203316 260.216584 
L 327.203316 259.489392 
L 341.629827 259.479565 
L 341.629827 258.860469 
L 345.236455 258.860469 
L 345.236455 258.644277 
L 348.843082 258.644277 
L 348.843082 259.155277 
L 352.44971 259.155277 
L 352.44971 258.850642 
L 359.662965 258.880123 
L 359.662965 259.047181 
L 363.269593 259.047181 
L 363.269593 259.243719 
L 366.876221 259.243719 
L 366.876221 259.872642 
L 370.482848 259.872642 
L 370.482848 258.663931 
L 374.089476 258.663931 
L 374.089476 258.988219 
L 377.696104 258.988219 
L 377.696104 259.489392 
L 381.302732 259.489392 
L 381.302732 259.155277 
L 384.909359 259.155277 
L 384.909359 258.791681 
L 388.515987 258.791681 
L 388.515987 259.361642 
L 392.122615 259.361642 
L 392.122615 258.840815 
L 399.33587 258.929258 
L 399.33587 258.546008 
L 402.942498 258.546008 
L 402.942498 258.683585 
L 406.549126 258.683585 
L 406.549126 258.968565 
L 410.155753 258.968565 
L 410.155753 258.369123 
L 413.762381 258.369123 
L 413.762381 258.546008 
L 417.369009 258.546008 
L 417.369009 258.821161 
L 420.975636 258.821161 
L 420.975636 258.241373 
L 424.582264 258.241373 
L 424.582264 258.988219 
L 428.188892 258.988219 
L 428.188892 259.509046 
L 431.795519 259.509046 
L 431.795519 273.188114 
L 431.795519 273.188114 
" clip-path="url(#p2720a1c52a)" style="fill: none; stroke: #0000ff; stroke-linejoin: miter"/>
   </g>
   <g id="patch_13">
    <path d="M 70.359246 273.188114 
L 70.359246 173.120622 
L 73.973727 173.120622 
L 73.973727 175.410293 
L 77.588208 175.410293 
L 77.588208 174.987736 
L 81.202689 174.987736 
L 81.202689 176.392985 
L 84.81717 176.392985 
L 84.81717 174.850159 
L 88.431651 174.850159 
L 88.431651 173.297506 
L 92.046132 173.297506 
L 92.046132 176.412639 
L 95.660613 176.412639 
L 95.660613 176.795889 
L 99.275094 176.795889 
L 99.275094 176.491254 
L 102.889575 176.491254 
L 102.889575 174.604486 
L 106.504057 174.604486 
L 106.504057 176.127658 
L 110.118538 176.127658 
L 110.118538 176.756581 
L 117.3475 176.835196 
L 117.3475 178.80058 
L 120.961981 178.80058 
L 120.961981 177.827715 
L 124.576462 177.827715 
L 124.576462 178.122522 
L 128.190943 178.122522 
L 128.190943 178.67283 
L 131.805424 178.67283 
L 131.805424 178.849714 
L 135.419905 178.849714 
L 135.419905 178.043907 
L 139.034386 178.043907 
L 139.034386 180.00929 
L 142.648867 180.00929 
L 142.648867 179.832406 
L 149.87783 179.783271 
L 149.87783 182.348096 
L 153.492311 182.348096 
L 153.492311 181.797789 
L 157.106792 181.797789 
L 157.106792 179.694829 
L 160.721273 179.694829 
L 160.721273 180.39254 
L 164.335754 180.39254 
L 164.335754 182.652731 
L 167.950235 182.652731 
L 167.950235 182.33827 
L 171.564716 182.33827 
L 171.564716 182.957365 
L 175.179197 182.957365 
L 175.179197 180.93302 
L 178.793678 180.93302 
L 178.793678 181.139386 
L 182.408159 181.139386 
L 182.408159 182.829615 
L 186.022641 182.829615 
L 186.022641 183.311134 
L 189.637122 183.311134 
L 189.637122 183.831961 
L 196.866084 183.80248 
L 196.866084 184.431403 
L 200.480565 184.431403 
L 200.480565 184.72621 
L 204.095046 184.72621 
L 204.095046 185.846479 
L 207.709527 185.846479 
L 207.709527 187.615324 
L 211.324008 187.615324 
L 211.324008 185.49271 
L 214.938489 185.49271 
L 214.938489 185.954575 
L 218.55297 185.954575 
L 218.55297 185.227383 
L 222.167451 185.227383 
L 222.167451 186.947093 
L 225.781933 186.947093 
L 225.781933 186.043017 
L 229.396414 186.043017 
L 229.396414 186.28869 
L 233.010895 186.28869 
L 233.010895 187.143632 
L 236.625376 187.143632 
L 236.625376 184.942402 
L 240.239857 184.942402 
L 240.239857 185.856306 
L 243.854338 185.856306 
L 243.854338 185.23721 
L 247.468819 185.23721 
L 247.468819 187.320516 
L 251.0833 187.320516 
L 251.0833 187.811862 
L 254.697781 187.811862 
L 254.697781 187.507228 
L 258.312262 187.507228 
L 258.312262 187.320516 
L 261.926743 187.320516 
L 261.926743 188.499746 
L 265.541224 188.499746 
L 265.541224 187.251728 
L 269.155706 187.251728 
L 269.155706 187.585843 
L 272.770187 187.585843 
L 272.770187 188.863342 
L 276.384668 188.863342 
L 276.384668 189.521746 
L 279.999149 189.521746 
L 279.999149 188.539054 
L 283.61363 188.539054 
L 283.61363 187.222247 
L 287.228111 187.222247 
L 287.228111 187.684112 
L 290.842592 187.684112 
L 290.842592 188.2639 
L 298.071554 188.224593 
L 298.071554 187.310689 
L 301.686035 187.310689 
L 301.686035 189.541399 
L 305.300516 189.541399 
L 305.300516 187.232074 
L 308.914998 187.232074 
L 308.914998 188.273727 
L 316.14396 188.362169 
L 316.14396 190.20963 
L 319.758441 190.20963 
L 319.758441 189.384169 
L 323.372922 189.384169 
L 323.372922 187.959266 
L 326.987403 187.959266 
L 326.987403 187.310689 
L 330.601884 187.310689 
L 330.601884 189.207284 
L 334.216365 189.207284 
L 334.216365 189.688803 
L 337.830846 189.688803 
L 337.830846 188.165631 
L 341.445327 188.165631 
L 341.445327 187.556362 
L 345.059808 187.556362 
L 345.059808 189.69863 
L 348.67429 189.69863 
L 348.67429 188.627496 
L 352.288771 188.627496 
L 352.288771 187.674285 
L 355.903252 187.674285 
L 355.903252 189.963957 
L 359.517733 189.963957 
L 359.517733 187.566189 
L 363.132214 187.566189 
L 363.132214 188.165631 
L 366.746695 188.165631 
L 366.746695 188.617669 
L 370.361176 188.617669 
L 370.361176 187.546535 
L 373.975657 187.546535 
L 373.975657 190.229284 
L 377.590138 190.229284 
L 377.590138 190.818899 
L 381.204619 190.818899 
L 381.204619 189.050054 
L 388.433581 189.000919 
L 388.433581 187.625151 
L 392.048063 187.625151 
L 392.048063 187.811862 
L 395.662544 187.811862 
L 395.662544 189.423476 
L 399.277025 189.423476 
L 399.277025 189.010746 
L 402.891506 189.010746 
L 402.891506 189.806726 
L 406.505987 189.806726 
L 406.505987 189.620015 
L 410.120468 189.620015 
L 410.120468 188.981265 
L 417.34943 188.941957 
L 417.34943 190.131014 
L 420.963911 190.131014 
L 420.963911 188.155804 
L 424.578392 188.155804 
L 424.578392 189.806726 
L 428.192873 189.806726 
L 428.192873 188.293381 
L 431.807355 188.293381 
L 431.807355 273.188114 
L 431.807355 273.188114 
" clip-path="url(#p2720a1c52a)" style="fill: none; stroke: #ff0000; stroke-linejoin: miter"/>
   </g>
   <g id="patch_14">
    <path d="M 52.28684 273.188114 
L 52.28684 168.117247 
" style="fill: none; stroke: #000000; stroke-width: 0.5; stroke-linejoin: miter; stroke-linecap: square"/>
   </g>
   <g id="patch_15">
    <path d="M 449.87976 273.188114 
L 449.87976 168.117247 
" style="fill: none; stroke: #000000; stroke-width: 0.5; stroke-linejoin: miter; stroke-linecap: square"/>
   </g>
   <g id="patch_16">
    <path d="M 52.28684 273.188114 
L 449.87976 273.188114 
" style="fill: none; stroke: #000000; stroke-width: 0.5; stroke-linejoin: miter; stroke-linecap: square"/>
   </g>
   <g id="patch_17">
    <path d="M 52.28684 168.117247 
L 449.87976 168.117247 
" style="fill: none; stroke: #000000; stroke-width: 0.5; stroke-linejoin: miter; stroke-linecap: square"/>
   </g>
   <g id="text_26">
    <!-- $m_{\widetilde{q_{3L}}}$ -->
    <g transform="translate(240.843744 162.117247)scale(0.12 -0.12)">
     <use xlink:href="#NimbusRomNo9L-ReguItal-6d" transform="scale(0.996264)"/>
     <use xlink:href="#CMEX10-66" transform="translate(85.399174 -21.022165)scale(0.737241)"/>
     <use xlink:href="#NimbusRomNo9L-ReguItal-71" transform="translate(71.929985 -21.353746)scale(0.737241)"/>
     <use xlink:href="#NimbusRomNo9L-Regu-33" transform="translate(108.792027 -35.983227)scale(0.597764)"/>
     <use xlink:href="#NimbusRomNo9L-ReguItal-4c" transform="translate(138.680251 -35.983227)scale(0.597764)"/>
    </g>
   </g>
   <g id="legend_2">
    <g id="patch_18">
     <path d="M 392.95448 184.117247 
L 412.95448 184.117247 
L 412.95448 177.117247 
L 392.95448 177.117247 
L 392.95448 184.117247 
z
" style="fill: none; stroke: #0000ff; stroke-linejoin: miter"/>
    </g>
    <g id="text_27">
     <!-- good -->
     <g transform="translate(420.95448 184.117247)scale(0.1 -0.1)">
      <use xlink:href="#NimbusRomNo9L-Regu-67" transform="scale(0.996264)"/>
      <use xlink:href="#NimbusRomNo9L-Regu-6f" transform="translate(49.8132 0)scale(0.996264)"/>
      <use xlink:href="#NimbusRomNo9L-Regu-6f" transform="translate(99.626401 0)scale(0.996264)"/>
      <use xlink:href="#NimbusRomNo9L-Regu-64" transform="translate(149.439601 0)scale(0.996264)"/>
     </g>
    </g>
    <g id="patch_19">
     <path d="M 392.95448 198.274076 
L 412.95448 198.274076 
L 412.95448 191.274076 
L 392.95448 191.274076 
L 392.95448 198.274076 
z
" style="fill: none; stroke: #ff0000; stroke-linejoin: miter"/>
    </g>
    <g id="text_28">
     <!-- bad -->
     <g transform="translate(420.95448 198.274076)scale(0.1 -0.1)">
      <use xlink:href="#NimbusRomNo9L-Regu-62" transform="scale(0.996264)"/>
      <use xlink:href="#NimbusRomNo9L-Regu-61" transform="translate(49.8132 0)scale(0.996264)"/>
      <use xlink:href="#NimbusRomNo9L-Regu-64" transform="translate(94.046769 0)scale(0.996264)"/>
     </g>
    </g>
   </g>
  </g>
  <g id="text_29">
   <!-- Histogramme des paramtres de masse -->
   <g transform="translate(143.917802 11.765242)scale(0.12 -0.12)">
    <defs>
     <path id="NimbusRomNo9L-Regu-48" d="M 1338 2304 
L 1338 3533 
C 1338 3990 1408 4059 1901 4104 
L 1901 4224 
L 122 4224 
L 122 4104 
C 614 4059 685 3989 685 3527 
L 685 749 
C 685 210 621 134 122 134 
L 122 0 
L 1901 0 
L 1901 121 
C 1421 159 1338 242 1338 699 
L 1338 2022 
L 3277 2022 
L 3277 757 
C 3277 211 3213 134 2714 134 
L 2714 0 
L 4493 0 
L 4493 121 
C 4013 159 3930 242 3930 696 
L 3930 3529 
C 3930 3989 4000 4059 4493 4104 
L 4493 4224 
L 2714 4224 
L 2714 4104 
C 3206 4059 3277 3990 3277 3533 
L 3277 2304 
L 1338 2304 
z
" transform="scale(0.015625)"/>
     <path id="NimbusRomNo9L-Regu-69" d="M 1120 2929 
L 128 2579 
L 128 2484 
L 179 2490 
C 256 2502 339 2509 397 2509 
C 550 2509 608 2406 608 2125 
L 608 640 
C 608 179 544 109 102 109 
L 102 0 
L 1619 0 
L 1619 96 
C 1197 128 1146 191 1146 650 
L 1146 2910 
L 1120 2929 
z
M 819 4352 
C 646 4352 499 4205 499 4026 
C 499 3847 640 3699 819 3699 
C 1005 3699 1152 3840 1152 4026 
C 1152 4205 1005 4352 819 4352 
z
" transform="scale(0.015625)"/>
     <path id="NimbusRomNo9L-Regu-73" d="M 2016 2010 
L 1990 2880 
L 1920 2880 
L 1907 2867 
C 1850 2822 1843 2816 1818 2816 
C 1779 2816 1715 2829 1645 2861 
C 1504 2915 1363 2944 1197 2944 
C 691 2944 326 2616 326 2154 
C 326 1796 531 1539 1075 1231 
L 1446 1020 
C 1670 892 1779 737 1779 539 
C 1779 256 1574 77 1248 77 
C 1030 77 832 159 710 298 
C 576 455 518 600 435 960 
L 333 960 
L 333 -39 
L 416 -39 
C 461 33 486 48 563 48 
C 621 48 710 35 858 -2 
C 1037 -39 1210 -64 1325 -64 
C 1818 -64 2227 308 2227 757 
C 2227 1077 2074 1289 1690 1520 
L 998 1930 
C 819 2033 723 2194 723 2367 
C 723 2624 922 2803 1216 2803 
C 1581 2803 1773 2583 1920 2010 
L 2016 2010 
z
" transform="scale(0.015625)"/>
     <path id="NimbusRomNo9L-Regu-74" d="M 1632 2880 
L 986 2880 
L 986 3622 
C 986 3686 979 3706 941 3706 
C 896 3648 858 3590 813 3526 
C 570 3174 294 2867 192 2841 
C 122 2794 83 2748 83 2715 
C 83 2695 90 2682 109 2682 
L 448 2682 
L 448 751 
C 448 212 640 -64 1018 -64 
C 1331 -64 1574 90 1786 423 
L 1702 493 
C 1568 333 1459 269 1318 269 
C 1082 269 986 443 986 847 
L 986 2682 
L 1632 2682 
L 1632 2880 
z
" transform="scale(0.015625)"/>
     <path id="NimbusRomNo9L-Regu-72" d="M 45 2496 
C 134 2515 192 2522 269 2522 
C 429 2522 486 2419 486 2138 
L 486 538 
C 486 218 442 173 32 96 
L 32 0 
L 1568 0 
L 1568 102 
C 1133 102 1024 199 1024 565 
L 1024 2013 
C 1024 2219 1299 2541 1472 2541 
C 1510 2541 1568 2509 1638 2445 
C 1741 2355 1811 2317 1894 2317 
C 2048 2317 2144 2426 2144 2605 
C 2144 2816 2010 2944 1792 2944 
C 1523 2944 1338 2797 1024 2343 
L 1024 2931 
L 992 2944 
C 653 2803 422 2721 45 2599 
L 45 2496 
z
" transform="scale(0.015625)"/>
     <path id="NimbusRomNo9L-Regu-6d" d="M 122 2547 
C 205 2566 256 2573 326 2573 
C 493 2573 550 2470 550 2162 
L 550 539 
C 550 192 461 96 102 96 
L 102 0 
L 1523 0 
L 1523 96 
C 1184 96 1088 166 1088 418 
L 1088 2234 
C 1088 2246 1139 2310 1184 2355 
C 1344 2502 1619 2611 1843 2611 
C 2125 2611 2266 2385 2266 1932 
L 2266 528 
C 2266 167 2195 96 1830 96 
L 1830 0 
L 3264 0 
L 3264 96 
C 2899 96 2803 205 2803 603 
L 2803 2221 
C 2995 2496 3206 2611 3501 2611 
C 3866 2611 3981 2438 3981 1907 
L 3981 557 
C 3981 192 3930 141 3558 96 
L 3558 0 
L 4960 0 
L 4960 96 
L 4794 115 
C 4602 115 4518 230 4518 480 
L 4518 1802 
C 4518 2559 4269 2944 3776 2944 
C 3405 2944 3078 2778 2733 2407 
C 2618 2771 2400 2944 2054 2944 
C 1773 2944 1594 2854 1062 2451 
L 1062 2931 
L 1018 2944 
C 691 2822 474 2752 122 2656 
L 122 2547 
z
" transform="scale(0.015625)"/>
     <path id="NimbusRomNo9L-Regu-65" d="M 2611 1053 
C 2304 564 2029 378 1619 378 
C 1254 378 979 564 794 930 
C 678 1174 634 1386 621 1779 
L 2592 1779 
C 2541 2193 2477 2377 2317 2581 
C 2125 2811 1830 2944 1498 2944 
C 1178 2944 877 2829 634 2611 
C 333 2349 160 1894 160 1370 
C 160 486 621 -64 1357 -64 
C 1965 -64 2445 315 2714 1008 
L 2611 1053 
z
M 634 1984 
C 704 2479 922 2714 1312 2714 
C 1702 2714 1856 2535 1939 1984 
L 634 1984 
z
" transform="scale(0.015625)"/>
     <path id="NimbusRomNo9L-Regu-70" d="M 58 2516 
C 115 2522 160 2522 218 2522 
C 435 2522 480 2458 480 2155 
L 480 -855 
C 480 -1189 410 -1261 32 -1299 
L 32 -1408 
L 1581 -1408 
L 1581 -1293 
C 1101 -1293 1018 -1222 1018 -816 
L 1018 199 
C 1242 -13 1395 -77 1664 -77 
C 2419 -77 3008 643 3008 1575 
C 3008 2372 2560 2944 1939 2944 
C 1581 2944 1299 2784 1018 2438 
L 1018 2931 
L 979 2944 
C 634 2810 410 2726 58 2618 
L 58 2516 
z
M 1018 2136 
C 1018 2329 1376 2560 1670 2560 
C 2144 2560 2458 2071 2458 1324 
C 2458 611 2144 128 1683 128 
C 1382 128 1018 359 1018 552 
L 1018 2136 
z
" transform="scale(0.015625)"/>
     <path id="NimbusRomNo9L-Regu-1e" d="M 1549 3264 
L 608 4206 
C 493 4320 435 4352 339 4352 
C 205 4352 122 4275 122 4155 
C 122 4053 192 3957 307 3882 
L 1293 3264 
L 1549 3264 
z
" transform="scale(0.015625)"/>
    </defs>
    <use xlink:href="#NimbusRomNo9L-Regu-48" transform="scale(0.996264)"/>
    <use xlink:href="#NimbusRomNo9L-Regu-69" transform="translate(71.929985 0)scale(0.996264)"/>
    <use xlink:href="#NimbusRomNo9L-Regu-73" transform="translate(99.625154 0)scale(0.996264)"/>
    <use xlink:href="#NimbusRomNo9L-Regu-74" transform="translate(138.378861 0)scale(0.996264)"/>
    <use xlink:href="#NimbusRomNo9L-Regu-6f" transform="translate(166.07403 0)scale(0.996264)"/>
    <use xlink:href="#NimbusRomNo9L-Regu-67" transform="translate(215.887231 0)scale(0.996264)"/>
    <use xlink:href="#NimbusRomNo9L-Regu-72" transform="translate(265.700431 0)scale(0.996264)"/>
    <use xlink:href="#NimbusRomNo9L-Regu-61" transform="translate(298.875661 0)scale(0.996264)"/>
    <use xlink:href="#NimbusRomNo9L-Regu-6d" transform="translate(343.10923 0)scale(0.996264)"/>
    <use xlink:href="#NimbusRomNo9L-Regu-6d" transform="translate(420.6176 0)scale(0.996264)"/>
    <use xlink:href="#NimbusRomNo9L-Regu-65" transform="translate(498.12597 0)scale(0.996264)"/>
    <use xlink:href="#NimbusRomNo9L-Regu-64" transform="translate(567.266139 0)scale(0.996264)"/>
    <use xlink:href="#NimbusRomNo9L-Regu-65" transform="translate(617.079339 0)scale(0.996264)"/>
    <use xlink:href="#NimbusRomNo9L-Regu-73" transform="translate(661.312908 0)scale(0.996264)"/>
    <use xlink:href="#NimbusRomNo9L-Regu-70" transform="translate(724.973214 0)scale(0.996264)"/>
    <use xlink:href="#NimbusRomNo9L-Regu-61" transform="translate(774.786415 0)scale(0.996264)"/>
    <use xlink:href="#NimbusRomNo9L-Regu-72" transform="translate(819.019984 0)scale(0.996264)"/>
    <use xlink:href="#NimbusRomNo9L-Regu-61" transform="translate(852.195213 0)scale(0.996264)"/>
    <use xlink:href="#NimbusRomNo9L-Regu-6d" transform="translate(896.428782 0)scale(0.996264)"/>
    <use xlink:href="#NimbusRomNo9L-Regu-1e" transform="translate(979.466329 0.498056)scale(0.996264)"/>
    <use xlink:href="#NimbusRomNo9L-Regu-65" transform="translate(973.937152 0)scale(0.996264)"/>
    <use xlink:href="#NimbusRomNo9L-Regu-74" transform="translate(1018.170721 0)scale(0.996264)"/>
    <use xlink:href="#NimbusRomNo9L-Regu-72" transform="translate(1045.86589 0)scale(0.996264)"/>
    <use xlink:href="#NimbusRomNo9L-Regu-65" transform="translate(1079.04112 0)scale(0.996264)"/>
    <use xlink:href="#NimbusRomNo9L-Regu-73" transform="translate(1123.274689 0)scale(0.996264)"/>
    <use xlink:href="#NimbusRomNo9L-Regu-64" transform="translate(1186.934995 0)scale(0.996264)"/>
    <use xlink:href="#NimbusRomNo9L-Regu-65" transform="translate(1236.748196 0)scale(0.996264)"/>
    <use xlink:href="#NimbusRomNo9L-Regu-6d" transform="translate(1305.888365 0)scale(0.996264)"/>
    <use xlink:href="#NimbusRomNo9L-Regu-61" transform="translate(1383.396735 0)scale(0.996264)"/>
    <use xlink:href="#NimbusRomNo9L-Regu-73" transform="translate(1427.630304 0)scale(0.996264)"/>
    <use xlink:href="#NimbusRomNo9L-Regu-73" transform="translate(1466.38401 0)scale(0.996264)"/>
    <use xlink:href="#NimbusRomNo9L-Regu-65" transform="translate(1505.137716 0)scale(0.996264)"/>
   </g>
  </g>
  <g id="text_30">
   <!-- Masse (GeV) -->
   <g transform="translate(210.185427 302.99976)scale(0.1 -0.1)">
    <defs>
     <path id="NimbusRomNo9L-Regu-4d" d="M 4314 3667 
L 4314 751 
C 4314 217 4237 134 3731 134 
L 3731 0 
L 5523 0 
L 5523 134 
C 5056 134 4966 223 4966 681 
L 4966 3536 
C 4966 3993 5050 4077 5523 4115 
L 5523 4237 
L 4250 4237 
L 2835 1004 
L 1357 4237 
L 90 4237 
L 90 4096 
C 614 4096 698 4019 698 3550 
L 698 943 
C 698 282 608 159 77 121 
L 77 0 
L 1581 0 
L 1581 134 
C 1088 134 979 282 979 931 
L 979 3520 
L 2586 0 
L 2675 0 
L 4314 3667 
z
" transform="scale(0.015625)"/>
     <path id="NimbusRomNo9L-Regu-28" d="M 1888 4326 
C 1414 4019 1222 3853 986 3558 
C 531 3002 307 2362 307 1613 
C 307 800 544 173 1107 -480 
C 1370 -787 1536 -928 1869 -1133 
L 1946 -1030 
C 1434 -627 1254 -403 1082 77 
C 928 506 858 992 858 1632 
C 858 2304 941 2829 1114 3226 
C 1293 3622 1485 3853 1946 4224 
L 1888 4326 
z
" transform="scale(0.015625)"/>
     <path id="NimbusRomNo9L-Regu-47" d="M 4538 2304 
L 2906 2304 
L 2906 2176 
C 3181 2176 3258 2157 3334 2105 
C 3430 2047 3469 1898 3469 1621 
L 3469 574 
C 3469 367 3078 192 2618 192 
C 1574 192 934 922 934 2112 
C 934 2714 1114 3296 1395 3610 
C 1677 3924 2074 4096 2509 4096 
C 2867 4096 3181 3975 3430 3744 
C 3622 3565 3725 3392 3885 3002 
L 4032 3002 
L 3981 4352 
L 3840 4352 
C 3802 4231 3686 4141 3552 4141 
C 3488 4141 3386 4160 3270 4205 
C 2982 4301 2688 4352 2400 4352 
C 1120 4352 205 3412 205 2106 
C 205 1479 378 999 736 621 
C 1165 180 1779 -64 2483 -64 
C 3034 -64 3834 160 4090 385 
L 4090 1694 
C 4090 2073 4166 2157 4538 2189 
L 4538 2304 
z
" transform="scale(0.015625)"/>
     <path id="NimbusRomNo9L-Regu-56" d="M 4461 4231 
L 3149 4231 
L 3149 4096 
C 3501 4096 3616 4026 3616 3846 
C 3616 3744 3571 3572 3494 3380 
L 2554 1033 
L 1587 3199 
C 1376 3667 1325 3814 1325 3910 
C 1325 4032 1414 4096 1619 4096 
C 1645 4096 1715 4096 1805 4109 
L 1805 4231 
L 102 4231 
L 102 4096 
C 416 4096 506 4007 781 3439 
L 2355 -64 
L 2451 -64 
L 3872 3521 
C 4083 4026 4154 4096 4461 4096 
L 4461 4231 
z
" transform="scale(0.015625)"/>
     <path id="NimbusRomNo9L-Regu-29" d="M 243 -1133 
C 717 -826 909 -659 1146 -365 
C 1600 192 1824 832 1824 1581 
C 1824 2400 1587 3021 1024 3674 
C 762 3981 595 4122 262 4326 
L 186 4224 
C 698 3821 870 3597 1050 3117 
C 1203 2688 1274 2202 1274 1562 
C 1274 896 1190 365 1018 -26 
C 838 -429 646 -659 186 -1030 
L 243 -1133 
z
" transform="scale(0.015625)"/>
    </defs>
    <use xlink:href="#NimbusRomNo9L-Regu-4d" transform="scale(0.996264)"/>
    <use xlink:href="#NimbusRomNo9L-Regu-61" transform="translate(88.566907 0)scale(0.996264)"/>
    <use xlink:href="#NimbusRomNo9L-Regu-73" transform="translate(132.800475 0)scale(0.996264)"/>
    <use xlink:href="#NimbusRomNo9L-Regu-73" transform="translate(171.554182 0)scale(0.996264)"/>
    <use xlink:href="#NimbusRomNo9L-Regu-65" transform="translate(210.307888 0)scale(0.996264)"/>
    <use xlink:href="#NimbusRomNo9L-Regu-28" transform="translate(279.448057 0)scale(0.996264)"/>
    <use xlink:href="#NimbusRomNo9L-Regu-47" transform="translate(312.623286 0)scale(0.996264)"/>
    <use xlink:href="#NimbusRomNo9L-Regu-65" transform="translate(384.553271 0)scale(0.996264)"/>
    <use xlink:href="#NimbusRomNo9L-Regu-56" transform="translate(428.78684 0)scale(0.996264)"/>
    <use xlink:href="#NimbusRomNo9L-Regu-29" transform="translate(500.716825 0)scale(0.996264)"/>
   </g>
  </g>
  <g id="text_31">
   <!-- N -->
   <g transform="translate(10.354578 148.196258)rotate(-90)scale(0.1 -0.1)">
    <defs>
     <path id="NimbusRomNo9L-Regu-4e" d="M 3917 -64 
L 3917 3287 
C 3917 3669 3981 3905 4102 3987 
C 4192 4051 4282 4077 4525 4102 
L 4525 4224 
L 3021 4224 
L 3021 4102 
C 3264 4083 3354 4057 3450 4000 
C 3578 3911 3635 3681 3635 3286 
L 3635 1136 
L 1171 4224 
L 77 4224 
L 77 4102 
C 352 4102 442 4051 698 3751 
L 698 938 
C 698 281 608 159 77 121 
L 77 0 
L 1581 0 
L 1581 134 
C 1088 134 979 281 979 928 
L 979 3439 
L 3808 -64 
L 3917 -64 
z
" transform="scale(0.015625)"/>
    </defs>
    <use xlink:href="#NimbusRomNo9L-Regu-4e" transform="scale(0.996264)"/>
   </g>
  </g>
 </g>
 <defs>
  <clipPath id="p1499eb7e41">
   <rect x="52.28684" y="32.494206" width="397.59292" height="105.070866"/>
  </clipPath>
  <clipPath id="p2720a1c52a">
   <rect x="52.28684" y="168.117247" width="397.59292" height="105.070866"/>
  </clipPath>
 </defs>
</svg>
